<?xml version="1.0" encoding="UTF-8" standalone="no"?>
<!DOCTYPE svg PUBLIC "-//W3C//DTD SVG 1.1//EN"
 "http://www.w3.org/Graphics/SVG/1.1/DTD/svg11.dtd">
<!-- Generated by graphviz version 2.43.0 (0)
 -->
<!-- Title: include Pages: 1 -->
<svg width="204pt" height="279pt"
 viewBox="0.00 0.00 204.00 279.00" xmlns="http://www.w3.org/2000/svg" xmlns:xlink="http://www.w3.org/1999/xlink">

<svg id="main" version="1.1" xmlns="http://www.w3.org/2000/svg" xmlns:xlink="http://www.w3.org/1999/xlink" xml:space="preserve" onload="init(evt)">
<style type="text/css"><![CDATA[
.node, .edge {opacity: 0.7;}
.node.selected, .edge.selected {opacity: 1;}
.edge:hover path { stroke: red; }
.edge:hover polygon { stroke: red; fill: red; }
]]></style>
<script type="application/ecmascript" xlink:href="svg.min.js"/>
<svg id="graph" class="graph">
<g id="graph0" class="graph" transform="scale(1 1) rotate(0) translate(4 275)">
<title>include</title>
<g id="clust1" class="cluster">
<title>clusterdir_d44c64559bbebec7f509842c48db8b23</title>
<g id="a_clust1"><a xlink:href="dir_d44c64559bbebec7f509842c48db8b23.html" target="_top">
<polygon fill="#daf8ff" stroke="#404040" stroke-width="2" points="8,-8 8,-263 188,-263 188,-8 8,-8"/>
</a>
</g>
</g>
<!-- dir_d44c64559bbebec7f509842c48db8b23 -->
<g id="node1" class="node">
<title>dir_d44c64559bbebec7f509842c48db8b23</title>
<text text-anchor="middle" x="133" y="-243" font-family="Helvetica,sans-Serif" font-size="10.00">include</text>
</g>
<!-- dir_3d69f64eaf81436fe2b22361382717e5 -->
<g id="node2" class="node">
<title>dir_3d69f64eaf81436fe2b22361382717e5</title>
<g id="a_node2"><a xlink:href="dir_3d69f64eaf81436fe2b22361382717e5.html" target="_top" xlink:title="core">
<polygon fill="#acf1fe" stroke="#404040" points="95.5,-35 60.5,-35 60.5,-16 95.5,-16 95.5,-35"/>
<text text-anchor="middle" x="78" y="-23" font-family="Helvetica,sans-Serif" font-size="10.00">core</text>
</a>
</g>
</g>
<!-- dir_9c1a8fda6212d92d4df2de0cb3e2b810 -->
<g id="node3" class="node">
<title>dir_9c1a8fda6212d92d4df2de0cb3e2b810</title>
<g id="a_node3"><a xlink:href="dir_9c1a8fda6212d92d4df2de0cb3e2b810.html" target="_top" xlink:title="dns">
<polygon fill="#acf1fe" stroke="#404040" points="68,-145 36,-145 36,-126 68,-126 68,-145"/>
<text text-anchor="middle" x="52" y="-133" font-family="Helvetica,sans-Serif" font-size="10.00">dns</text>
</a>
</g>
</g>
<!-- dir_9c1a8fda6212d92d4df2de0cb3e2b810&#45;&gt;dir_3d69f64eaf81436fe2b22361382717e5 -->
<g id="edge1" class="edge">
<title>dir_9c1a8fda6212d92d4df2de0cb3e2b810&#45;&gt;dir_3d69f64eaf81436fe2b22361382717e5</title>
<g id="a_edge1"><a xlink:href="dir_000001_000000.html" target="_top">
<path fill="none" stroke="#63b8ff" d="M51.47,-125.7C50.97,-113.28 50.93,-90 56,-71 58.5,-61.65 63.04,-51.93 67.35,-43.98"/>
<polygon fill="#63b8ff" stroke="#63b8ff" points="70.4,-45.7 72.34,-35.29 64.33,-42.22 70.4,-45.7"/>
</a>
</g>
<g id="a_edge1&#45;headlabel"><a xlink:href="dir_000001_000000.html" target="_top" xlink:title="1">
<text text-anchor="middle" x="71.07" y="-47.73" font-family="Helvetica,sans-Serif" font-size="10.00" fill="#63b8ff">1</text>
</a>
</g>
</g>
<!-- dir_c0632c2c4769486d54d1bae76e6a432e -->
<g id="node4" class="node">
<title>dir_c0632c2c4769486d54d1bae76e6a432e</title>
<g id="a_node4"><a xlink:href="dir_c0632c2c4769486d54d1bae76e6a432e.html" target="_top" xlink:title="http">
<polygon fill="#acf1fe" stroke="#404040" points="159.5,-145 126.5,-145 126.5,-126 159.5,-126 159.5,-145"/>
<text text-anchor="middle" x="143" y="-133" font-family="Helvetica,sans-Serif" font-size="10.00">http</text>
</a>
</g>
</g>
<!-- dir_c0632c2c4769486d54d1bae76e6a432e&#45;&gt;dir_3d69f64eaf81436fe2b22361382717e5 -->
<g id="edge2" class="edge">
<title>dir_c0632c2c4769486d54d1bae76e6a432e&#45;&gt;dir_3d69f64eaf81436fe2b22361382717e5</title>
<g id="a_edge2"><a xlink:href="dir_000004_000000.html" target="_top">
<path fill="none" stroke="#63b8ff" d="M140.86,-125.81C137.48,-113.11 130.14,-89.05 119,-71 112.55,-60.54 103.43,-50.35 95.43,-42.36"/>
<polygon fill="#63b8ff" stroke="#63b8ff" points="97.58,-39.58 87.94,-35.18 92.74,-44.63 97.58,-39.58"/>
</a>
</g>
<g id="a_edge2&#45;headlabel"><a xlink:href="dir_000004_000000.html" target="_top" xlink:title="12">
<text text-anchor="middle" x="102.14" y="-37.52" font-family="Helvetica,sans-Serif" font-size="10.00" fill="#63b8ff">12</text>
</a>
</g>
</g>
<!-- dir_8232a14a4d77609a8ef668622ab417b2 -->
<g id="node5" class="node">
<title>dir_8232a14a4d77609a8ef668622ab417b2</title>
<g id="a_node5"><a xlink:href="dir_8232a14a4d77609a8ef668622ab417b2.html" target="_top" xlink:title="poll">
<polygon fill="#acf1fe" stroke="#404040" points="180,-90 148,-90 148,-71 180,-71 180,-90"/>
<text text-anchor="middle" x="164" y="-78" font-family="Helvetica,sans-Serif" font-size="10.00">poll</text>
</a>
</g>
</g>
<!-- dir_c0632c2c4769486d54d1bae76e6a432e&#45;&gt;dir_8232a14a4d77609a8ef668622ab417b2 -->
<g id="edge5" class="edge">
<title>dir_c0632c2c4769486d54d1bae76e6a432e&#45;&gt;dir_8232a14a4d77609a8ef668622ab417b2</title>
<g id="a_edge5"><a xlink:href="dir_000004_000006.html" target="_top">
<path fill="none" stroke="#63b8ff" d="M146.47,-125.75C149.28,-118.65 153.34,-108.4 156.85,-99.56"/>
<polygon fill="#63b8ff" stroke="#63b8ff" points="160.17,-100.68 160.6,-90.09 153.66,-98.1 160.17,-100.68"/>
</a>
</g>
<g id="a_edge5&#45;headlabel"><a xlink:href="dir_000004_000006.html" target="_top" xlink:title="1">
<text text-anchor="middle" x="161.48" y="-102.56" font-family="Helvetica,sans-Serif" font-size="10.00" fill="#63b8ff">1</text>
</a>
</g>
</g>
<!-- dir_472464c21f3697a4351aeeea96351180 -->
<g id="node7" class="node">
<title>dir_472464c21f3697a4351aeeea96351180</title>
<g id="a_node7"><a xlink:href="dir_472464c21f3697a4351aeeea96351180.html" target="_top" xlink:title="socket">
<polygon fill="#acf1fe" stroke="#404040" points="130,-200 84,-200 84,-181 130,-181 130,-200"/>
<text text-anchor="middle" x="107" y="-188" font-family="Helvetica,sans-Serif" font-size="10.00">socket</text>
</a>
</g>
</g>
<!-- dir_c0632c2c4769486d54d1bae76e6a432e&#45;&gt;dir_472464c21f3697a4351aeeea96351180 -->
<g id="edge3" class="edge">
<title>dir_c0632c2c4769486d54d1bae76e6a432e&#45;&gt;dir_472464c21f3697a4351aeeea96351180</title>
<g id="a_edge3"><a xlink:href="dir_000004_000008.html" target="_top">
<path fill="none" stroke="#63b8ff" d="M142.3,-145.09C138.84,-152.6 131.68,-163.72 124.54,-172.96"/>
<polygon fill="#63b8ff" stroke="#63b8ff" points="121.78,-170.81 118.11,-180.75 127.18,-175.27 121.78,-170.81"/>
</a>
</g>
<g id="a_edge3&#45;headlabel"><a xlink:href="dir_000004_000008.html" target="_top" xlink:title="2">
<text text-anchor="middle" x="121.88" y="-163.73" font-family="Helvetica,sans-Serif" font-size="10.00" fill="#63b8ff">2</text>
</a>
</g>
</g>
<!-- dir_7dabddce885c25837fb5300c364e90af -->
<g id="node8" class="node">
<title>dir_7dabddce885c25837fb5300c364e90af</title>
<g id="a_node8"><a xlink:href="dir_7dabddce885c25837fb5300c364e90af.html" target="_top" xlink:title="tls">
<polygon fill="#acf1fe" stroke="#404040" points="109.5,-90 80.5,-90 80.5,-71 109.5,-71 109.5,-90"/>
<text text-anchor="middle" x="95" y="-78" font-family="Helvetica,sans-Serif" font-size="10.00">tls</text>
</a>
</g>
</g>
<!-- dir_c0632c2c4769486d54d1bae76e6a432e&#45;&gt;dir_7dabddce885c25837fb5300c364e90af -->
<g id="edge4" class="edge">
<title>dir_c0632c2c4769486d54d1bae76e6a432e&#45;&gt;dir_7dabddce885c25837fb5300c364e90af</title>
<g id="a_edge4"><a xlink:href="dir_000004_000009.html" target="_top">
<path fill="none" stroke="#63b8ff" d="M135.07,-125.75C128.15,-118.11 117.93,-106.82 109.55,-97.56"/>
<polygon fill="#63b8ff" stroke="#63b8ff" points="112.09,-95.15 102.78,-90.09 106.9,-99.85 112.09,-95.15"/>
</a>
</g>
<g id="a_edge4&#45;headlabel"><a xlink:href="dir_000004_000009.html" target="_top" xlink:title="2">
<text text-anchor="middle" x="116.6" y="-93.41" font-family="Helvetica,sans-Serif" font-size="10.00" fill="#63b8ff">2</text>
</a>
</g>
</g>
<!-- dir_8232a14a4d77609a8ef668622ab417b2&#45;&gt;dir_3d69f64eaf81436fe2b22361382717e5 -->
<g id="edge6" class="edge">
<title>dir_8232a14a4d77609a8ef668622ab417b2&#45;&gt;dir_3d69f64eaf81436fe2b22361382717e5</title>
<g id="a_edge6"><a xlink:href="dir_000006_000000.html" target="_top">
<path fill="none" stroke="#63b8ff" d="M150.18,-70.98C136.85,-62.77 116.42,-50.18 100.69,-40.49"/>
<polygon fill="#63b8ff" stroke="#63b8ff" points="102.42,-37.44 92.07,-35.17 98.75,-43.4 102.42,-37.44"/>
</a>
</g>
<g id="a_edge6&#45;headlabel"><a xlink:href="dir_000006_000000.html" target="_top" xlink:title="2">
<text text-anchor="middle" x="106.97" y="-34.41" font-family="Helvetica,sans-Serif" font-size="10.00" fill="#63b8ff">2</text>
</a>
</g>
</g>
<!-- dir_8232a14a4d77609a8ef668622ab417b2&#45;&gt;dir_472464c21f3697a4351aeeea96351180 -->
<g id="edge7" class="edge">
<title>dir_8232a14a4d77609a8ef668622ab417b2&#45;&gt;dir_472464c21f3697a4351aeeea96351180</title>
<g id="a_edge7"><a xlink:href="dir_000006_000008.html" target="_top">
<path fill="none" stroke="#63b8ff" d="M173.33,-90.28C180.92,-103.09 187.09,-127.29 178,-145 170.21,-160.18 154.57,-171.35 139.8,-178.7"/>
<polygon fill="#63b8ff" stroke="#63b8ff" points="137.98,-175.68 130.31,-182.99 140.86,-182.06 137.98,-175.68"/>
</a>
</g>
<g id="a_edge7&#45;headlabel"><a xlink:href="dir_000006_000008.html" target="_top" xlink:title="2">
<text text-anchor="middle" x="140.09" y="-169.11" font-family="Helvetica,sans-Serif" font-size="10.00" fill="#63b8ff">2</text>
</a>
</g>
</g>
<!-- dir_8dbc5086dbbd4f324945fb601393f417 -->
<g id="node6" class="node">
<title>dir_8dbc5086dbbd4f324945fb601393f417</title>
<g id="a_node6"><a xlink:href="dir_8dbc5086dbbd4f324945fb601393f417.html" target="_top" xlink:title="pool">
<polygon fill="#acf1fe" stroke="#404040" points="69.5,-255 34.5,-255 34.5,-236 69.5,-236 69.5,-255"/>
<text text-anchor="middle" x="52" y="-243" font-family="Helvetica,sans-Serif" font-size="10.00">pool</text>
</a>
</g>
</g>
<!-- dir_8dbc5086dbbd4f324945fb601393f417&#45;&gt;dir_3d69f64eaf81436fe2b22361382717e5 -->
<g id="edge8" class="edge">
<title>dir_8dbc5086dbbd4f324945fb601393f417&#45;&gt;dir_3d69f64eaf81436fe2b22361382717e5</title>
<g id="a_edge8"><a xlink:href="dir_000007_000000.html" target="_top">
<path fill="none" stroke="#63b8ff" d="M47.84,-235.91C38.92,-216.42 19.37,-167.35 27,-126 31.75,-100.27 35.94,-94.22 48,-71 52.93,-61.51 59.47,-51.58 65.19,-43.52"/>
<polygon fill="#63b8ff" stroke="#63b8ff" points="68.09,-45.47 71.16,-35.33 62.44,-41.34 68.09,-45.47"/>
</a>
</g>
<g id="a_edge8&#45;headlabel"><a xlink:href="dir_000007_000000.html" target="_top" xlink:title="4">
<text text-anchor="middle" x="68.27" y="-47.55" font-family="Helvetica,sans-Serif" font-size="10.00" fill="#63b8ff">4</text>
</a>
</g>
</g>
<!-- dir_8dbc5086dbbd4f324945fb601393f417&#45;&gt;dir_9c1a8fda6212d92d4df2de0cb3e2b810 -->
<g id="edge10" class="edge">
<title>dir_8dbc5086dbbd4f324945fb601393f417&#45;&gt;dir_9c1a8fda6212d92d4df2de0cb3e2b810</title>
<g id="a_edge10"><a xlink:href="dir_000007_000001.html" target="_top">
<path fill="none" stroke="#63b8ff" d="M52,-235.66C52,-218.17 52,-178.8 52,-155.27"/>
<polygon fill="#63b8ff" stroke="#63b8ff" points="55.5,-155.16 52,-145.16 48.5,-155.16 55.5,-155.16"/>
</a>
</g>
<g id="a_edge10&#45;headlabel"><a xlink:href="dir_000007_000001.html" target="_top" xlink:title="1">
<text text-anchor="middle" x="58.34" y="-156.25" font-family="Helvetica,sans-Serif" font-size="10.00" fill="#63b8ff">1</text>
</a>
</g>
</g>
<!-- dir_8dbc5086dbbd4f324945fb601393f417&#45;&gt;dir_472464c21f3697a4351aeeea96351180 -->
<g id="edge9" class="edge">
<title>dir_8dbc5086dbbd4f324945fb601393f417&#45;&gt;dir_472464c21f3697a4351aeeea96351180</title>
<g id="a_edge9"><a xlink:href="dir_000007_000008.html" target="_top">
<path fill="none" stroke="#63b8ff" d="M61.08,-235.75C69.09,-228.03 80.96,-216.6 90.62,-207.28"/>
<polygon fill="#63b8ff" stroke="#63b8ff" points="93.31,-209.55 98.09,-200.09 88.46,-204.51 93.31,-209.55"/>
</a>
</g>
<g id="a_edge9&#45;headlabel"><a xlink:href="dir_000007_000008.html" target="_top" xlink:title="3">
<text text-anchor="middle" x="92.7" y="-211.59" font-family="Helvetica,sans-Serif" font-size="10.00" fill="#63b8ff">3</text>
</a>
</g>
</g>
<!-- dir_472464c21f3697a4351aeeea96351180&#45;&gt;dir_3d69f64eaf81436fe2b22361382717e5 -->
<g id="edge11" class="edge">
<title>dir_472464c21f3697a4351aeeea96351180&#45;&gt;dir_3d69f64eaf81436fe2b22361382717e5</title>
<g id="a_edge11"><a xlink:href="dir_000008_000000.html" target="_top">
<path fill="none" stroke="#63b8ff" d="M102.89,-180.98C95,-164.1 77.98,-125.02 72,-90 70.58,-81.68 71.43,-79.43 72,-71 72.57,-62.54 73.74,-53.24 74.89,-45.34"/>
<polygon fill="#63b8ff" stroke="#63b8ff" points="78.37,-45.75 76.45,-35.33 71.45,-44.67 78.37,-45.75"/>
</a>
</g>
<g id="a_edge11&#45;headlabel"><a xlink:href="dir_000008_000000.html" target="_top" xlink:title="14">
<text text-anchor="middle" x="80.62" y="-47.24" font-family="Helvetica,sans-Serif" font-size="10.00" fill="#63b8ff">14</text>
</a>
</g>
</g>
<!-- dir_472464c21f3697a4351aeeea96351180&#45;&gt;dir_9c1a8fda6212d92d4df2de0cb3e2b810 -->
<g id="edge14" class="edge">
<title>dir_472464c21f3697a4351aeeea96351180&#45;&gt;dir_9c1a8fda6212d92d4df2de0cb3e2b810</title>
<g id="a_edge14"><a xlink:href="dir_000008_000001.html" target="_top">
<path fill="none" stroke="#63b8ff" d="M97.92,-180.75C89.91,-173.03 78.04,-161.6 68.38,-152.28"/>
<polygon fill="#63b8ff" stroke="#63b8ff" points="70.54,-149.51 60.91,-145.09 65.69,-154.55 70.54,-149.51"/>
</a>
</g>
<g id="a_edge14&#45;headlabel"><a xlink:href="dir_000008_000001.html" target="_top" xlink:title="2">
<text text-anchor="middle" x="75.1" y="-147.46" font-family="Helvetica,sans-Serif" font-size="10.00" fill="#63b8ff">2</text>
</a>
</g>
</g>
<!-- dir_472464c21f3697a4351aeeea96351180&#45;&gt;dir_c0632c2c4769486d54d1bae76e6a432e -->
<g id="edge15" class="edge">
<title>dir_472464c21f3697a4351aeeea96351180&#45;&gt;dir_c0632c2c4769486d54d1bae76e6a432e</title>
<g id="a_edge15"><a xlink:href="dir_000008_000004.html" target="_top">
<path fill="none" stroke="#63b8ff" d="M107.78,-180.75C111.29,-173.18 118.48,-162.05 125.61,-152.84"/>
<polygon fill="#63b8ff" stroke="#63b8ff" points="128.35,-155.02 132.03,-145.09 122.96,-150.56 128.35,-155.02"/>
</a>
</g>
<g id="a_edge15&#45;headlabel"><a xlink:href="dir_000008_000004.html" target="_top" xlink:title="1">
<text text-anchor="middle" x="128.24" y="-157.1" font-family="Helvetica,sans-Serif" font-size="10.00" fill="#63b8ff">1</text>
</a>
</g>
</g>
<!-- dir_472464c21f3697a4351aeeea96351180&#45;&gt;dir_8232a14a4d77609a8ef668622ab417b2 -->
<g id="edge13" class="edge">
<title>dir_472464c21f3697a4351aeeea96351180&#45;&gt;dir_8232a14a4d77609a8ef668622ab417b2</title>
<g id="a_edge13"><a xlink:href="dir_000008_000006.html" target="_top">
<path fill="none" stroke="#63b8ff" d="M120.09,-181C133.02,-173.77 151.35,-161.86 160,-145 167.03,-131.3 164.93,-113.72 163.01,-100.54"/>
<polygon fill="#63b8ff" stroke="#63b8ff" points="166.43,-99.71 161.59,-90.28 159.49,-100.67 166.43,-99.71"/>
</a>
</g>
<g id="a_edge13&#45;headlabel"><a xlink:href="dir_000008_000006.html" target="_top" xlink:title="1">
<text text-anchor="middle" x="169.73" y="-100.38" font-family="Helvetica,sans-Serif" font-size="10.00" fill="#63b8ff">1</text>
</a>
</g>
</g>
<!-- dir_472464c21f3697a4351aeeea96351180&#45;&gt;dir_7dabddce885c25837fb5300c364e90af -->
<g id="edge12" class="edge">
<title>dir_472464c21f3697a4351aeeea96351180&#45;&gt;dir_7dabddce885c25837fb5300c364e90af</title>
<g id="a_edge12"><a xlink:href="dir_000008_000009.html" target="_top">
<path fill="none" stroke="#63b8ff" d="M102.11,-180.66C96.9,-163.17 92.08,-123.8 91.82,-100.27"/>
<polygon fill="#63b8ff" stroke="#63b8ff" points="95.32,-100.25 92.08,-90.16 88.33,-100.06 95.32,-100.25"/>
</a>
</g>
<g id="a_edge12&#45;headlabel"><a xlink:href="dir_000008_000009.html" target="_top" xlink:title="1">
<text text-anchor="middle" x="98.07" y="-101.41" font-family="Helvetica,sans-Serif" font-size="10.00" fill="#63b8ff">1</text>
</a>
</g>
</g>
<!-- dir_7dabddce885c25837fb5300c364e90af&#45;&gt;dir_3d69f64eaf81436fe2b22361382717e5 -->
<g id="edge16" class="edge">
<title>dir_7dabddce885c25837fb5300c364e90af&#45;&gt;dir_3d69f64eaf81436fe2b22361382717e5</title>
<g id="a_edge16"><a xlink:href="dir_000009_000000.html" target="_top">
<path fill="none" stroke="#63b8ff" d="M92.19,-70.75C89.94,-63.72 86.7,-53.62 83.88,-44.84"/>
<polygon fill="#63b8ff" stroke="#63b8ff" points="87.14,-43.54 80.75,-35.09 80.48,-45.68 87.14,-43.54"/>
</a>
</g>
<g id="a_edge16&#45;headlabel"><a xlink:href="dir_000009_000000.html" target="_top" xlink:title="6">
<text text-anchor="middle" x="90.94" y="-43.6" font-family="Helvetica,sans-Serif" font-size="10.00" fill="#63b8ff">6</text>
</a>
</g>
</g>
<!-- dir_7dabddce885c25837fb5300c364e90af&#45;&gt;dir_472464c21f3697a4351aeeea96351180 -->
<g id="edge17" class="edge">
<title>dir_7dabddce885c25837fb5300c364e90af&#45;&gt;dir_472464c21f3697a4351aeeea96351180</title>
<g id="a_edge17"><a xlink:href="dir_000009_000008.html" target="_top">
<path fill="none" stroke="#63b8ff" d="M99.84,-90.16C105.05,-107.5 109.89,-146.84 110.17,-170.48"/>
<polygon fill="#63b8ff" stroke="#63b8ff" points="106.67,-170.58 109.93,-180.66 113.67,-170.75 106.67,-170.58"/>
</a>
</g>
<g id="a_edge17&#45;headlabel"><a xlink:href="dir_000009_000008.html" target="_top" xlink:title="2">
<text text-anchor="middle" x="103.92" y="-164.42" font-family="Helvetica,sans-Serif" font-size="10.00" fill="#63b8ff">2</text>
</a>
</g>
</g>
</g>
</svg>
</svg>

<style type='text/css'>
<![CDATA[
[data-mouse-over-selected='false'] { opacity: 0.7; }
[data-mouse-over-selected='true']  { opacity: 1.0; }
]]>
</style>
<script type="application/ecmascript"><![CDATA[
document.addEventListener('DOMContentLoaded', (event) => {
  highlightEdges();
  highlightAdjacentNodes();
});
]]></script>
</svg>
