<?xml version="1.0" encoding="UTF-8" standalone="no"?>
<!DOCTYPE svg PUBLIC "-//W3C//DTD SVG 1.1//EN"
 "http://www.w3.org/Graphics/SVG/1.1/DTD/svg11.dtd">
<!-- Generated by graphviz version 2.43.0 (0)
 -->
<!-- Title: include Pages: 1 -->
<svg width="200pt" height="334pt"
 viewBox="0.00 0.00 200.00 334.00" xmlns="http://www.w3.org/2000/svg" xmlns:xlink="http://www.w3.org/1999/xlink">

<svg id="main" version="1.1" xmlns="http://www.w3.org/2000/svg" xmlns:xlink="http://www.w3.org/1999/xlink" xml:space="preserve" onload="init(evt)">
<style type="text/css"><![CDATA[
.node, .edge {opacity: 0.7;}
.node.selected, .edge.selected {opacity: 1;}
.edge:hover path { stroke: red; }
.edge:hover polygon { stroke: red; fill: red; }
]]></style>
<script type="application/ecmascript" xlink:href="svg.min.js"/>
<svg id="graph" class="graph">
<g id="graph0" class="graph" transform="scale(1 1) rotate(0) translate(4 330)">
<title>include</title>
<g id="clust1" class="cluster">
<title>clusterdir_d44c64559bbebec7f509842c48db8b23</title>
<g id="a_clust1"><a xlink:href="dir_d44c64559bbebec7f509842c48db8b23.html" target="_top">
<polygon fill="#daf8ff" stroke="#404040" stroke-width="2" points="8,-8 8,-318 184,-318 184,-8 8,-8"/>
</a>
</g>
</g>
<!-- dir_d44c64559bbebec7f509842c48db8b23 -->
<g id="node1" class="node">
<title>dir_d44c64559bbebec7f509842c48db8b23</title>
<text text-anchor="middle" x="146" y="-298" font-family="Helvetica,sans-Serif" font-size="10.00">include</text>
</g>
<!-- dir_3d69f64eaf81436fe2b22361382717e5 -->
<g id="node2" class="node">
<title>dir_3d69f64eaf81436fe2b22361382717e5</title>
<g id="a_node2"><a xlink:href="dir_3d69f64eaf81436fe2b22361382717e5.html" target="_top" xlink:title="core">
<polygon fill="#acf1fe" stroke="#404040" points="91.5,-35 56.5,-35 56.5,-16 91.5,-16 91.5,-35"/>
<text text-anchor="middle" x="74" y="-23" font-family="Helvetica,sans-Serif" font-size="10.00">core</text>
</a>
</g>
</g>
<!-- dir_9c1a8fda6212d92d4df2de0cb3e2b810 -->
<g id="node3" class="node">
<title>dir_9c1a8fda6212d92d4df2de0cb3e2b810</title>
<g id="a_node3"><a xlink:href="dir_9c1a8fda6212d92d4df2de0cb3e2b810.html" target="_top" xlink:title="dns">
<polygon fill="#acf1fe" stroke="#404040" points="78,-255 46,-255 46,-236 78,-236 78,-255"/>
<text text-anchor="middle" x="62" y="-243" font-family="Helvetica,sans-Serif" font-size="10.00">dns</text>
</a>
</g>
</g>
<!-- dir_9c1a8fda6212d92d4df2de0cb3e2b810&#45;&gt;dir_3d69f64eaf81436fe2b22361382717e5 -->
<g id="edge1" class="edge">
<title>dir_9c1a8fda6212d92d4df2de0cb3e2b810&#45;&gt;dir_3d69f64eaf81436fe2b22361382717e5</title>
<g id="a_edge1"><a xlink:href="dir_000001_000000.html" target="_top">
<path fill="none" stroke="#63b8ff" d="M61.01,-235.98C60.02,-227.04 58.56,-212.55 58,-200 56.14,-158.42 56.84,-105.2 62,-71 63.31,-62.3 65.71,-52.86 68.03,-44.92"/>
<polygon fill="#63b8ff" stroke="#63b8ff" points="71.41,-45.83 71.01,-35.24 64.72,-43.76 71.41,-45.83"/>
</a>
</g>
<g id="a_edge1&#45;headlabel"><a xlink:href="dir_000001_000000.html" target="_top" xlink:title="4">
<text text-anchor="middle" x="73.06" y="-47.6" font-family="Helvetica,sans-Serif" font-size="10.00" fill="#63b8ff">4</text>
</a>
</g>
</g>
<!-- dir_472464c21f3697a4351aeeea96351180 -->
<g id="node7" class="node">
<title>dir_472464c21f3697a4351aeeea96351180</title>
<g id="a_node7"><a xlink:href="dir_472464c21f3697a4351aeeea96351180.html" target="_top" xlink:title="socket">
<polygon fill="#acf1fe" stroke="#404040" points="113,-200 67,-200 67,-181 113,-181 113,-200"/>
<text text-anchor="middle" x="90" y="-188" font-family="Helvetica,sans-Serif" font-size="10.00">socket</text>
</a>
</g>
</g>
<!-- dir_9c1a8fda6212d92d4df2de0cb3e2b810&#45;&gt;dir_472464c21f3697a4351aeeea96351180 -->
<g id="edge2" class="edge">
<title>dir_9c1a8fda6212d92d4df2de0cb3e2b810&#45;&gt;dir_472464c21f3697a4351aeeea96351180</title>
<g id="a_edge2"><a xlink:href="dir_000001_000008.html" target="_top">
<path fill="none" stroke="#63b8ff" d="M61.46,-235.75C63.78,-228.34 69.11,-217.5 74.73,-208.41"/>
<polygon fill="#63b8ff" stroke="#63b8ff" points="77.65,-210.34 80.33,-200.09 71.84,-206.43 77.65,-210.34"/>
</a>
</g>
<g id="a_edge2&#45;headlabel"><a xlink:href="dir_000001_000008.html" target="_top" xlink:title="1">
<text text-anchor="middle" x="77.99" y="-212.41" font-family="Helvetica,sans-Serif" font-size="10.00" fill="#63b8ff">1</text>
</a>
</g>
</g>
<!-- dir_c0632c2c4769486d54d1bae76e6a432e -->
<g id="node4" class="node">
<title>dir_c0632c2c4769486d54d1bae76e6a432e</title>
<g id="a_node4"><a xlink:href="dir_c0632c2c4769486d54d1bae76e6a432e.html" target="_top" xlink:title="http">
<polygon fill="#acf1fe" stroke="#404040" points="135.5,-145 102.5,-145 102.5,-126 135.5,-126 135.5,-145"/>
<text text-anchor="middle" x="119" y="-133" font-family="Helvetica,sans-Serif" font-size="10.00">http</text>
</a>
</g>
</g>
<!-- dir_c0632c2c4769486d54d1bae76e6a432e&#45;&gt;dir_3d69f64eaf81436fe2b22361382717e5 -->
<g id="edge3" class="edge">
<title>dir_c0632c2c4769486d54d1bae76e6a432e&#45;&gt;dir_3d69f64eaf81436fe2b22361382717e5</title>
<g id="a_edge3"><a xlink:href="dir_000004_000000.html" target="_top">
<path fill="none" stroke="#63b8ff" d="M120.62,-125.87C122.58,-113.25 124.73,-89.29 117,-71 112.18,-59.6 102.99,-49.45 94.34,-41.73"/>
<polygon fill="#63b8ff" stroke="#63b8ff" points="96.31,-38.81 86.38,-35.12 91.83,-44.2 96.31,-38.81"/>
</a>
</g>
<g id="a_edge3&#45;headlabel"><a xlink:href="dir_000004_000000.html" target="_top" xlink:title="20">
<text text-anchor="middle" x="100.89" y="-36.42" font-family="Helvetica,sans-Serif" font-size="10.00" fill="#63b8ff">20</text>
</a>
</g>
</g>
<!-- dir_8232a14a4d77609a8ef668622ab417b2 -->
<g id="node5" class="node">
<title>dir_8232a14a4d77609a8ef668622ab417b2</title>
<g id="a_node5"><a xlink:href="dir_8232a14a4d77609a8ef668622ab417b2.html" target="_top" xlink:title="poll">
<polygon fill="#acf1fe" stroke="#404040" points="108,-90 76,-90 76,-71 108,-71 108,-90"/>
<text text-anchor="middle" x="92" y="-78" font-family="Helvetica,sans-Serif" font-size="10.00">poll</text>
</a>
</g>
</g>
<!-- dir_c0632c2c4769486d54d1bae76e6a432e&#45;&gt;dir_8232a14a4d77609a8ef668622ab417b2 -->
<g id="edge6" class="edge">
<title>dir_c0632c2c4769486d54d1bae76e6a432e&#45;&gt;dir_8232a14a4d77609a8ef668622ab417b2</title>
<g id="a_edge6"><a xlink:href="dir_000004_000006.html" target="_top">
<path fill="none" stroke="#63b8ff" d="M114.54,-125.75C110.88,-118.57 105.59,-108.18 101.05,-99.27"/>
<polygon fill="#63b8ff" stroke="#63b8ff" points="104.03,-97.41 96.38,-90.09 97.8,-100.59 104.03,-97.41"/>
</a>
</g>
<g id="a_edge6&#45;headlabel"><a xlink:href="dir_000004_000006.html" target="_top" xlink:title="1">
<text text-anchor="middle" x="108.2" y="-96.82" font-family="Helvetica,sans-Serif" font-size="10.00" fill="#63b8ff">1</text>
</a>
</g>
</g>
<!-- dir_c0632c2c4769486d54d1bae76e6a432e&#45;&gt;dir_472464c21f3697a4351aeeea96351180 -->
<g id="edge4" class="edge">
<title>dir_c0632c2c4769486d54d1bae76e6a432e&#45;&gt;dir_472464c21f3697a4351aeeea96351180</title>
<g id="a_edge4"><a xlink:href="dir_000004_000008.html" target="_top">
<path fill="none" stroke="#63b8ff" d="M119.43,-145.09C117.02,-152.45 111.5,-163.27 105.72,-172.39"/>
<polygon fill="#63b8ff" stroke="#63b8ff" points="102.75,-170.53 99.96,-180.75 108.51,-174.5 102.75,-170.53"/>
</a>
</g>
<g id="a_edge4&#45;headlabel"><a xlink:href="dir_000004_000008.html" target="_top" xlink:title="6">
<text text-anchor="middle" x="102.46" y="-163.46" font-family="Helvetica,sans-Serif" font-size="10.00" fill="#63b8ff">6</text>
</a>
</g>
</g>
<!-- dir_7dabddce885c25837fb5300c364e90af -->
<g id="node8" class="node">
<title>dir_7dabddce885c25837fb5300c364e90af</title>
<g id="a_node8"><a xlink:href="dir_7dabddce885c25837fb5300c364e90af.html" target="_top" xlink:title="tls">
<polygon fill="#acf1fe" stroke="#404040" points="175.5,-90 146.5,-90 146.5,-71 175.5,-71 175.5,-90"/>
<text text-anchor="middle" x="161" y="-78" font-family="Helvetica,sans-Serif" font-size="10.00">tls</text>
</a>
</g>
</g>
<!-- dir_c0632c2c4769486d54d1bae76e6a432e&#45;&gt;dir_7dabddce885c25837fb5300c364e90af -->
<g id="edge5" class="edge">
<title>dir_c0632c2c4769486d54d1bae76e6a432e&#45;&gt;dir_7dabddce885c25837fb5300c364e90af</title>
<g id="a_edge5"><a xlink:href="dir_000004_000009.html" target="_top">
<path fill="none" stroke="#63b8ff" d="M125.94,-125.75C131.87,-118.26 140.57,-107.28 147.82,-98.13"/>
<polygon fill="#63b8ff" stroke="#63b8ff" points="150.73,-100.1 154.19,-90.09 145.24,-95.75 150.73,-100.1"/>
</a>
</g>
<g id="a_edge5&#45;headlabel"><a xlink:href="dir_000004_000009.html" target="_top" xlink:title="2">
<text text-anchor="middle" x="150.72" y="-102.18" font-family="Helvetica,sans-Serif" font-size="10.00" fill="#63b8ff">2</text>
</a>
</g>
</g>
<!-- dir_8232a14a4d77609a8ef668622ab417b2&#45;&gt;dir_3d69f64eaf81436fe2b22361382717e5 -->
<g id="edge7" class="edge">
<title>dir_8232a14a4d77609a8ef668622ab417b2&#45;&gt;dir_3d69f64eaf81436fe2b22361382717e5</title>
<g id="a_edge7"><a xlink:href="dir_000006_000000.html" target="_top">
<path fill="none" stroke="#63b8ff" d="M89.03,-70.75C86.64,-63.72 83.21,-53.62 80.23,-44.84"/>
<polygon fill="#63b8ff" stroke="#63b8ff" points="83.45,-43.43 76.92,-35.09 76.82,-45.68 83.45,-43.43"/>
</a>
</g>
<g id="a_edge7&#45;headlabel"><a xlink:href="dir_000006_000000.html" target="_top" xlink:title="7">
<text text-anchor="middle" x="87.29" y="-43.42" font-family="Helvetica,sans-Serif" font-size="10.00" fill="#63b8ff">7</text>
</a>
</g>
</g>
<!-- dir_8232a14a4d77609a8ef668622ab417b2&#45;&gt;dir_472464c21f3697a4351aeeea96351180 -->
<g id="edge8" class="edge">
<title>dir_8232a14a4d77609a8ef668622ab417b2&#45;&gt;dir_472464c21f3697a4351aeeea96351180</title>
<g id="a_edge8"><a xlink:href="dir_000006_000008.html" target="_top">
<path fill="none" stroke="#63b8ff" d="M95.72,-90.16C98.68,-107.5 98.42,-146.84 95.64,-170.48"/>
<polygon fill="#63b8ff" stroke="#63b8ff" points="92.13,-170.25 94.08,-180.66 99.05,-171.31 92.13,-170.25"/>
</a>
</g>
<g id="a_edge8&#45;headlabel"><a xlink:href="dir_000006_000008.html" target="_top" xlink:title="4">
<text text-anchor="middle" x="89.87" y="-163.76" font-family="Helvetica,sans-Serif" font-size="10.00" fill="#63b8ff">4</text>
</a>
</g>
</g>
<!-- dir_8dbc5086dbbd4f324945fb601393f417 -->
<g id="node6" class="node">
<title>dir_8dbc5086dbbd4f324945fb601393f417</title>
<g id="a_node6"><a xlink:href="dir_8dbc5086dbbd4f324945fb601393f417.html" target="_top" xlink:title="pool">
<polygon fill="#acf1fe" stroke="#404040" points="84.5,-310 49.5,-310 49.5,-291 84.5,-291 84.5,-310"/>
<text text-anchor="middle" x="67" y="-298" font-family="Helvetica,sans-Serif" font-size="10.00">pool</text>
</a>
</g>
</g>
<!-- dir_8dbc5086dbbd4f324945fb601393f417&#45;&gt;dir_3d69f64eaf81436fe2b22361382717e5 -->
<g id="edge9" class="edge">
<title>dir_8dbc5086dbbd4f324945fb601393f417&#45;&gt;dir_3d69f64eaf81436fe2b22361382717e5</title>
<g id="a_edge9"><a xlink:href="dir_000007_000000.html" target="_top">
<path fill="none" stroke="#63b8ff" d="M59.84,-290.89C46.01,-273.36 17,-231.79 17,-191.5 17,-191.5 17,-191.5 17,-134.5 17,-98.51 42.06,-62.76 58.95,-42.76"/>
<polygon fill="#63b8ff" stroke="#63b8ff" points="61.62,-45.02 65.59,-35.2 56.36,-40.4 61.62,-45.02"/>
</a>
</g>
<g id="a_edge9&#45;headlabel"><a xlink:href="dir_000007_000000.html" target="_top" xlink:title="9">
<text text-anchor="middle" x="61.38" y="-47.1" font-family="Helvetica,sans-Serif" font-size="10.00" fill="#63b8ff">9</text>
</a>
</g>
</g>
<!-- dir_8dbc5086dbbd4f324945fb601393f417&#45;&gt;dir_9c1a8fda6212d92d4df2de0cb3e2b810 -->
<g id="edge12" class="edge">
<title>dir_8dbc5086dbbd4f324945fb601393f417&#45;&gt;dir_9c1a8fda6212d92d4df2de0cb3e2b810</title>
<g id="a_edge12"><a xlink:href="dir_000007_000001.html" target="_top">
<path fill="none" stroke="#63b8ff" d="M66.17,-290.75C65.52,-283.8 64.58,-273.85 63.76,-265.13"/>
<polygon fill="#63b8ff" stroke="#63b8ff" points="67.23,-264.72 62.81,-255.09 60.27,-265.37 67.23,-264.72"/>
</a>
</g>
<g id="a_edge12&#45;headlabel"><a xlink:href="dir_000007_000001.html" target="_top" xlink:title="1">
<text text-anchor="middle" x="70.4" y="-265.53" font-family="Helvetica,sans-Serif" font-size="10.00" fill="#63b8ff">1</text>
</a>
</g>
</g>
<!-- dir_8dbc5086dbbd4f324945fb601393f417&#45;&gt;dir_472464c21f3697a4351aeeea96351180 -->
<g id="edge10" class="edge">
<title>dir_8dbc5086dbbd4f324945fb601393f417&#45;&gt;dir_472464c21f3697a4351aeeea96351180</title>
<g id="a_edge10"><a xlink:href="dir_000007_000008.html" target="_top">
<path fill="none" stroke="#63b8ff" d="M72,-290.98C76.82,-282.27 83.85,-268.18 87,-255 90.5,-240.37 91.12,-223.32 90.94,-210.58"/>
<polygon fill="#63b8ff" stroke="#63b8ff" points="94.43,-210.15 90.61,-200.27 87.43,-210.38 94.43,-210.15"/>
</a>
</g>
<g id="a_edge10&#45;headlabel"><a xlink:href="dir_000007_000008.html" target="_top" xlink:title="5">
<text text-anchor="middle" x="97.38" y="-211.15" font-family="Helvetica,sans-Serif" font-size="10.00" fill="#63b8ff">5</text>
</a>
</g>
</g>
<!-- dir_8dbc5086dbbd4f324945fb601393f417&#45;&gt;dir_7dabddce885c25837fb5300c364e90af -->
<g id="edge11" class="edge">
<title>dir_8dbc5086dbbd4f324945fb601393f417&#45;&gt;dir_7dabddce885c25837fb5300c364e90af</title>
<g id="a_edge11"><a xlink:href="dir_000007_000009.html" target="_top">
<path fill="none" stroke="#63b8ff" d="M73.7,-290.71C90.59,-268.03 134.87,-205.13 154,-145 158.58,-130.6 160.27,-113.53 160.85,-100.72"/>
<polygon fill="#63b8ff" stroke="#63b8ff" points="164.35,-100.44 161.11,-90.35 157.36,-100.26 164.35,-100.44"/>
</a>
</g>
<g id="a_edge11&#45;headlabel"><a xlink:href="dir_000007_000009.html" target="_top" xlink:title="1">
<text text-anchor="middle" x="167.1" y="-101.61" font-family="Helvetica,sans-Serif" font-size="10.00" fill="#63b8ff">1</text>
</a>
</g>
</g>
<!-- dir_472464c21f3697a4351aeeea96351180&#45;&gt;dir_3d69f64eaf81436fe2b22361382717e5 -->
<g id="edge13" class="edge">
<title>dir_472464c21f3697a4351aeeea96351180&#45;&gt;dir_3d69f64eaf81436fe2b22361382717e5</title>
<g id="a_edge13"><a xlink:href="dir_000008_000000.html" target="_top">
<path fill="none" stroke="#63b8ff" d="M86.71,-180.97C79.61,-161.61 63.73,-112.79 67,-71 67.66,-62.52 69.03,-53.22 70.37,-45.32"/>
<polygon fill="#63b8ff" stroke="#63b8ff" points="73.85,-45.78 72.2,-35.32 66.96,-44.53 73.85,-45.78"/>
</a>
</g>
<g id="a_edge13&#45;headlabel"><a xlink:href="dir_000008_000000.html" target="_top" xlink:title="34">
<text text-anchor="middle" x="76" y="-47.33" font-family="Helvetica,sans-Serif" font-size="10.00" fill="#63b8ff">34</text>
</a>
</g>
</g>
<!-- dir_472464c21f3697a4351aeeea96351180&#45;&gt;dir_9c1a8fda6212d92d4df2de0cb3e2b810 -->
<g id="edge16" class="edge">
<title>dir_472464c21f3697a4351aeeea96351180&#45;&gt;dir_9c1a8fda6212d92d4df2de0cb3e2b810</title>
<g id="a_edge16"><a xlink:href="dir_000008_000001.html" target="_top">
<path fill="none" stroke="#63b8ff" d="M90.59,-200.09C88.32,-207.45 83.01,-218.27 77.4,-227.39"/>
<polygon fill="#63b8ff" stroke="#63b8ff" points="74.45,-225.49 71.79,-235.75 80.27,-229.39 74.45,-225.49"/>
</a>
</g>
<g id="a_edge16&#45;headlabel"><a xlink:href="dir_000008_000001.html" target="_top" xlink:title="6">
<text text-anchor="middle" x="74.1" y="-218.43" font-family="Helvetica,sans-Serif" font-size="10.00" fill="#63b8ff">6</text>
</a>
</g>
</g>
<!-- dir_472464c21f3697a4351aeeea96351180&#45;&gt;dir_c0632c2c4769486d54d1bae76e6a432e -->
<g id="edge17" class="edge">
<title>dir_472464c21f3697a4351aeeea96351180&#45;&gt;dir_c0632c2c4769486d54d1bae76e6a432e</title>
<g id="a_edge17"><a xlink:href="dir_000008_000004.html" target="_top">
<path fill="none" stroke="#63b8ff" d="M89.62,-180.75C92.08,-173.34 97.62,-162.5 103.41,-153.41"/>
<polygon fill="#63b8ff" stroke="#63b8ff" points="106.35,-155.3 109.17,-145.09 100.6,-151.32 106.35,-155.3"/>
</a>
</g>
<g id="a_edge17&#45;headlabel"><a xlink:href="dir_000008_000004.html" target="_top" xlink:title="4">
<text text-anchor="middle" x="106.64" y="-157.37" font-family="Helvetica,sans-Serif" font-size="10.00" fill="#63b8ff">4</text>
</a>
</g>
</g>
<!-- dir_472464c21f3697a4351aeeea96351180&#45;&gt;dir_8232a14a4d77609a8ef668622ab417b2 -->
<g id="edge15" class="edge">
<title>dir_472464c21f3697a4351aeeea96351180&#45;&gt;dir_8232a14a4d77609a8ef668622ab417b2</title>
<g id="a_edge15"><a xlink:href="dir_000008_000006.html" target="_top">
<path fill="none" stroke="#63b8ff" d="M86.25,-180.66C83.31,-163.17 83.59,-123.8 86.39,-100.27"/>
<polygon fill="#63b8ff" stroke="#63b8ff" points="89.88,-100.58 87.96,-90.16 82.97,-99.5 89.88,-100.58"/>
</a>
</g>
<g id="a_edge15&#45;headlabel"><a xlink:href="dir_000008_000006.html" target="_top" xlink:title="4">
<text text-anchor="middle" x="92.14" y="-102.07" font-family="Helvetica,sans-Serif" font-size="10.00" fill="#63b8ff">4</text>
</a>
</g>
</g>
<!-- dir_472464c21f3697a4351aeeea96351180&#45;&gt;dir_7dabddce885c25837fb5300c364e90af -->
<g id="edge14" class="edge">
<title>dir_472464c21f3697a4351aeeea96351180&#45;&gt;dir_7dabddce885c25837fb5300c364e90af</title>
<g id="a_edge14"><a xlink:href="dir_000008_000009.html" target="_top">
<path fill="none" stroke="#63b8ff" d="M98.19,-180.91C108.9,-173.13 126.08,-160.52 136,-145 144.61,-131.53 148.59,-113.7 151.92,-100.36"/>
<polygon fill="#63b8ff" stroke="#63b8ff" points="155.38,-100.98 154.65,-90.41 148.63,-99.12 155.38,-100.98"/>
</a>
</g>
<g id="a_edge14&#45;headlabel"><a xlink:href="dir_000008_000009.html" target="_top" xlink:title="1">
<text text-anchor="middle" x="157.16" y="-102.7" font-family="Helvetica,sans-Serif" font-size="10.00" fill="#63b8ff">1</text>
</a>
</g>
</g>
<!-- dir_7dabddce885c25837fb5300c364e90af&#45;&gt;dir_3d69f64eaf81436fe2b22361382717e5 -->
<g id="edge18" class="edge">
<title>dir_7dabddce885c25837fb5300c364e90af&#45;&gt;dir_3d69f64eaf81436fe2b22361382717e5</title>
<g id="a_edge18"><a xlink:href="dir_000009_000000.html" target="_top">
<path fill="none" stroke="#63b8ff" d="M147.02,-70.98C133.53,-62.77 112.87,-50.18 96.96,-40.49"/>
<polygon fill="#63b8ff" stroke="#63b8ff" points="98.59,-37.38 88.23,-35.17 94.95,-43.36 98.59,-37.38"/>
</a>
</g>
<g id="a_edge18&#45;headlabel"><a xlink:href="dir_000009_000000.html" target="_top" xlink:title="13">
<text text-anchor="middle" x="103.14" y="-34.33" font-family="Helvetica,sans-Serif" font-size="10.00" fill="#63b8ff">13</text>
</a>
</g>
</g>
<!-- dir_7dabddce885c25837fb5300c364e90af&#45;&gt;dir_472464c21f3697a4351aeeea96351180 -->
<g id="edge19" class="edge">
<title>dir_7dabddce885c25837fb5300c364e90af&#45;&gt;dir_472464c21f3697a4351aeeea96351180</title>
<g id="a_edge19"><a xlink:href="dir_000009_000008.html" target="_top">
<path fill="none" stroke="#63b8ff" d="M166.39,-90.41C168.45,-103.37 165.02,-127.76 154,-145 146.02,-157.49 133.33,-168.1 121.22,-175.82"/>
<polygon fill="#63b8ff" stroke="#63b8ff" points="119.4,-172.82 112.57,-180.91 122.96,-178.85 119.4,-172.82"/>
</a>
</g>
<g id="a_edge19&#45;headlabel"><a xlink:href="dir_000009_000008.html" target="_top" xlink:title="4">
<text text-anchor="middle" x="121.06" y="-166.05" font-family="Helvetica,sans-Serif" font-size="10.00" fill="#63b8ff">4</text>
</a>
</g>
</g>
</g>
</svg>
</svg>

<style type='text/css'>
<![CDATA[
[data-mouse-over-selected='false'] { opacity: 0.7; }
[data-mouse-over-selected='true']  { opacity: 1.0; }
]]>
</style>
<script type="application/ecmascript"><![CDATA[
document.addEventListener('DOMContentLoaded', (event) => {
  highlightEdges();
  highlightAdjacentNodes();
});
]]></script>
</svg>
