<?xml version="1.0" encoding="UTF-8" standalone="no"?>
<!DOCTYPE svg PUBLIC "-//W3C//DTD SVG 1.1//EN"
 "http://www.w3.org/Graphics/SVG/1.1/DTD/svg11.dtd">
<!-- Generated by graphviz version 2.43.0 (0)
 -->
<!-- Title: Except.h Pages: 1 -->
<!--zoomable 302 -->

<svg id="main" version="1.1" xmlns="http://www.w3.org/2000/svg" xmlns:xlink="http://www.w3.org/1999/xlink" xml:space="preserve" onload="init(evt)">
<style type="text/css"><![CDATA[
.node, .edge {opacity: 0.7;}
.node.selected, .edge.selected {opacity: 1;}
.edge:hover path { stroke: red; }
.edge:hover polygon { stroke: red; fill: red; }
]]></style>

<defs>
  <circle id="rim" cx="0" cy="0" r="7"/>
  <circle id="rim2" cx="0" cy="0" r="3.5"/>
  <g id="zoomPlus">
    <use xlink:href="#rim" fill="#404040"><set attributeName="fill" to="#808080" begin="zoomplus.mouseover" end="zoomplus.mouseout"/></use>
    <path d="M-4,0h8M0,-4v8" fill="none" stroke="white" stroke-width="1.5" pointer-events="none"/>
  </g>
  <g id="zoomMin">
    <use xlink:href="#rim" fill="#404040"><set attributeName="fill" to="#808080" begin="zoomminus.mouseover" end="zoomminus.mouseout"/></use>
    <path d="M-4,0h8" fill="none" stroke="white" stroke-width="1.5" pointer-events="none"/>
  </g>
  <g id="arrowUp" transform="translate(30 24)">
    <use xlink:href="#rim"/>
    <path pointer-events="none" fill="none" stroke="white" stroke-width="1.5" d="M0,-3.0v7 M-2.5,-0.5L0,-3.0L2.5,-0.5"/>
  </g>
  <g id="arrowRight" transform="rotate(90) translate(36 -43)">
    <use xlink:href="#rim"/>
    <path pointer-events="none" fill="none" stroke="white" stroke-width="1.5" d="M0,-3.0v7 M-2.5,-0.5L0,-3.0L2.5,-0.5"/>
  </g>
  <g id="arrowDown" transform="rotate(180) translate(-30 -48)">
    <use xlink:href="#rim"/>
    <path pointer-events="none" fill="none" stroke="white" stroke-width="1.5" d="M0,-3.0v7 M-2.5,-0.5L0,-3.0L2.5,-0.5"/>
  </g>
  <g id="arrowLeft" transform="rotate(270) translate(-36 17)">
    <use xlink:href="#rim"/>
    <path pointer-events="none" fill="none" stroke="white" stroke-width="1.5" d="M0,-3.0v7 M-2.5,-0.5L0,-3.0L2.5,-0.5"/>
  </g>
  <g id="resetDef">
    <use xlink:href="#rim2" fill="#404040"><set attributeName="fill" to="#808080" begin="reset.mouseover" end="reset.mouseout"/></use>
  </g>
</defs>
<script type="application/ecmascript">
var viewWidth = 1068;
var viewHeight = 302;
var sectionId = 'dynsection-1';
</script>
<script type="application/ecmascript" xlink:href="svg.min.js"/>
<svg id="graph" class="graph">
<g id="viewport">
<title>Except.h</title>
<!-- Node1 -->
<g id="Node000001" class="node">
<title>Node1</title>
<g id="a_Node000001"><a xlink:title=" ">
<polygon fill="#999999" stroke="#666666" points="665.5,-294 609.5,-294 609.5,-275 665.5,-275 665.5,-294"/>
<text text-anchor="middle" x="637.5" y="-282" font-family="Helvetica,sans-Serif" font-size="10.00">Except.h</text>
</a>
</g>
</g>
<!-- Node2 -->
<g id="Node000002" class="node">
<title>Node2</title>
<g id="a_Node000002"><a xlink:href="Arena_8h.html" target="_top" xlink:title=" ">
<polygon fill="white" stroke="#666666" points="624.5,-239 574.5,-239 574.5,-220 624.5,-220 624.5,-239"/>
<text text-anchor="middle" x="599.5" y="-227" font-family="Helvetica,sans-Serif" font-size="10.00">Arena.h</text>
</a>
</g>
</g>
<!-- Node1&#45;&gt;Node2 -->
<g id="edge1_Node000001_Node000002" class="edge">
<title>Node1&#45;&gt;Node2</title>
<g id="a_edge1_Node000001_Node000002"><a xlink:title=" ">
<path fill="none" stroke="#63b8ff" d="M625.23,-266.39C618.69,-257.27 610.93,-246.45 605.66,-239.09"/>
<polygon fill="#63b8ff" stroke="#63b8ff" points="622.55,-268.66 631.23,-274.75 628.24,-264.58 622.55,-268.66"/>
</a>
</g>
</g>
<!-- Node4 -->
<g id="Node000004" class="node">
<title>Node4</title>
<g id="a_Node000004"><a xlink:href="SocketPool_8h.html" target="_top" xlink:title=" ">
<polygon fill="white" stroke="#666666" points="259,-19 184,-19 184,0 259,0 259,-19"/>
<text text-anchor="middle" x="221.5" y="-7" font-family="Helvetica,sans-Serif" font-size="10.00">SocketPool.h</text>
</a>
</g>
</g>
<!-- Node1&#45;&gt;Node4 -->
<g id="edge34_Node000001_Node000004" class="edge">
<title>Node1&#45;&gt;Node4</title>
<g id="a_edge34_Node000001_Node000004"><a xlink:title=" ">
<path fill="none" stroke="#63b8ff" d="M599.25,-283.96C476.35,-284.43 99.5,-277.56 99.5,-175.5 99.5,-175.5 99.5,-175.5 99.5,-118.5 99.5,-66.59 162.18,-33.61 197.69,-19.09"/>
<polygon fill="#63b8ff" stroke="#63b8ff" points="599.35,-287.46 609.33,-283.9 599.31,-280.46 599.35,-287.46"/>
</a>
</g>
</g>
<!-- Node5 -->
<g id="Node000005" class="node">
<title>Node5</title>
<g id="a_Node000005"><a xlink:href="SocketCommon_8h.html" target="_top" xlink:title=" ">
<polygon fill="white" stroke="#666666" points="571,-184 476,-184 476,-165 571,-165 571,-184"/>
<text text-anchor="middle" x="523.5" y="-172" font-family="Helvetica,sans-Serif" font-size="10.00">SocketCommon.h</text>
</a>
</g>
</g>
<!-- Node1&#45;&gt;Node5 -->
<g id="edge25_Node000001_Node000005" class="edge">
<title>Node1&#45;&gt;Node5</title>
<g id="a_edge25_Node000001_Node000005"><a xlink:title=" ">
<path fill="none" stroke="#63b8ff" d="M610.2,-270.3C595.85,-262.5 578.57,-251.67 565.5,-239 548.23,-222.25 534.29,-197.22 527.67,-184.15"/>
<polygon fill="#63b8ff" stroke="#63b8ff" points="608.66,-273.44 619.14,-274.98 611.9,-267.24 608.66,-273.44"/>
</a>
</g>
</g>
<!-- Node6 -->
<g id="Node000006" class="node">
<title>Node6</title>
<g id="a_Node000006"><a xlink:href="Socket_8h.html" target="_top" xlink:title=" ">
<polygon fill="white" stroke="#666666" points="587.5,-129 531.5,-129 531.5,-110 587.5,-110 587.5,-129"/>
<text text-anchor="middle" x="559.5" y="-117" font-family="Helvetica,sans-Serif" font-size="10.00">Socket.h</text>
</a>
</g>
</g>
<!-- Node1&#45;&gt;Node6 -->
<g id="edge23_Node000001_Node000006" class="edge">
<title>Node1&#45;&gt;Node6</title>
<g id="a_edge23_Node000001_Node000006"><a xlink:title=" ">
<path fill="none" stroke="#63b8ff" d="M599.42,-274.11C557.75,-261.51 493.31,-234.61 466.5,-184 450.71,-154.2 498.43,-135.73 531.23,-126.85"/>
<polygon fill="#63b8ff" stroke="#63b8ff" points="598.65,-277.53 609.23,-276.94 600.59,-270.8 598.65,-277.53"/>
</a>
</g>
</g>
<!-- Node7 -->
<g id="Node000007" class="node">
<title>Node7</title>
<g id="a_Node000007"><a xlink:href="SocketAsync_8h.html" target="_top" xlink:title=" ">
<polygon fill="white" stroke="#666666" points="531,-74 448,-74 448,-55 531,-55 531,-74"/>
<text text-anchor="middle" x="489.5" y="-62" font-family="Helvetica,sans-Serif" font-size="10.00">SocketAsync.h</text>
</a>
</g>
</g>
<!-- Node1&#45;&gt;Node7 -->
<g id="edge24_Node000001_Node000007" class="edge">
<title>Node1&#45;&gt;Node7</title>
<g id="a_edge24_Node000001_Node000007"><a xlink:title=" ">
<path fill="none" stroke="#63b8ff" d="M599.31,-279.19C568.14,-274.04 524.37,-262.88 493.5,-239 464.87,-216.85 454.22,-200.81 459.5,-165 464.61,-130.37 479.2,-91.09 485.97,-74.09"/>
<polygon fill="#63b8ff" stroke="#63b8ff" points="598.95,-282.68 609.36,-280.72 600,-275.76 598.95,-282.68"/>
</a>
</g>
</g>
<!-- Node8 -->
<g id="Node000008" class="node">
<title>Node8</title>
<g id="a_Node000008"><a xlink:href="SocketHappyEyeballs_8h.html" target="_top" xlink:title=" ">
<polygon fill="white" stroke="#666666" points="743.5,-19 621.5,-19 621.5,0 743.5,0 743.5,-19"/>
<text text-anchor="middle" x="682.5" y="-7" font-family="Helvetica,sans-Serif" font-size="10.00">SocketHappyEyeballs.h</text>
</a>
</g>
</g>
<!-- Node1&#45;&gt;Node8 -->
<g id="edge31_Node000001_Node000008" class="edge">
<title>Node1&#45;&gt;Node8</title>
<g id="a_edge31_Node000001_Node000008"><a xlink:title=" ">
<path fill="none" stroke="#63b8ff" d="M675.85,-281.97C733.48,-277.23 838.63,-258.32 866.5,-184 869.47,-176.09 870.07,-172.65 866.5,-165 847.82,-124.92 733.89,-45.27 695.28,-19.07"/>
<polygon fill="#63b8ff" stroke="#63b8ff" points="675.4,-278.49 665.67,-282.7 675.9,-285.47 675.4,-278.49"/>
</a>
</g>
</g>
<!-- Node10 -->
<g id="Node000010" class="node">
<title>Node10</title>
<g id="a_Node000010"><a xlink:href="SocketPoll_8h.html" target="_top" xlink:title=" ">
<polygon fill="white" stroke="#666666" points="857.5,-74 785.5,-74 785.5,-55 857.5,-55 857.5,-74"/>
<text text-anchor="middle" x="821.5" y="-62" font-family="Helvetica,sans-Serif" font-size="10.00">SocketPoll.h</text>
</a>
</g>
</g>
<!-- Node1&#45;&gt;Node10 -->
<g id="edge33_Node000001_Node000010" class="edge">
<title>Node1&#45;&gt;Node10</title>
<g id="a_edge33_Node000001_Node000010"><a xlink:title=" ">
<path fill="none" stroke="#63b8ff" d="M676.08,-283.15C748.84,-281.67 902.33,-274.32 939.5,-239 981.66,-198.94 995.84,-156.94 961.5,-110 949.12,-93.07 894.84,-79.52 857.62,-72"/>
<polygon fill="#63b8ff" stroke="#63b8ff" points="675.9,-279.66 665.96,-283.33 676.02,-286.65 675.9,-279.66"/>
</a>
</g>
</g>
<!-- Node12 -->
<g id="Node000012" class="node">
<title>Node12</title>
<g id="a_Node000012"><a xlink:href="SocketReconnect_8h.html" target="_top" xlink:title=" ">
<polygon fill="white" stroke="#666666" points="391,-74 288,-74 288,-55 391,-55 391,-74"/>
<text text-anchor="middle" x="339.5" y="-62" font-family="Helvetica,sans-Serif" font-size="10.00">SocketReconnect.h</text>
</a>
</g>
</g>
<!-- Node1&#45;&gt;Node12 -->
<g id="edge36_Node000001_Node000012" class="edge">
<title>Node1&#45;&gt;Node12</title>
<g id="a_edge36_Node000001_Node000012"><a xlink:title=" ">
<path fill="none" stroke="#63b8ff" d="M599.26,-282.69C545.83,-280.34 446.72,-271.53 369.5,-239 331.41,-222.95 313.18,-220.87 294.5,-184 274.51,-144.54 313.65,-93.99 331.39,-74.1"/>
<polygon fill="#63b8ff" stroke="#63b8ff" points="599.19,-286.19 609.32,-283.07 599.46,-279.19 599.19,-286.19"/>
</a>
</g>
</g>
<!-- Node13 -->
<g id="Node000013" class="node">
<title>Node13</title>
<g id="a_Node000013"><a xlink:href="SocketTLS_8h.html" target="_top" xlink:title=" ">
<polygon fill="white" stroke="#666666" points="987.5,-74 913.5,-74 913.5,-55 987.5,-55 987.5,-74"/>
<text text-anchor="middle" x="950.5" y="-62" font-family="Helvetica,sans-Serif" font-size="10.00">SocketTLS.h</text>
</a>
</g>
</g>
<!-- Node1&#45;&gt;Node13 -->
<g id="edge37_Node000001_Node000013" class="edge">
<title>Node1&#45;&gt;Node13</title>
<g id="a_edge37_Node000001_Node000013"><a xlink:title=" ">
<path fill="none" stroke="#63b8ff" d="M675.76,-282.44C751.16,-279.68 915.64,-270.17 961.5,-239 990.99,-218.95 996.32,-200.45 992.5,-165 989.82,-140.12 990.33,-133.01 980.5,-110 974.71,-96.46 964.64,-82.69 957.78,-74.12"/>
<polygon fill="#63b8ff" stroke="#63b8ff" points="675.61,-278.94 665.73,-282.78 675.85,-285.94 675.61,-278.94"/>
</a>
</g>
</g>
<!-- Node14 -->
<g id="Node000014" class="node">
<title>Node14</title>
<g id="a_Node000014"><a xlink:href="SocketTLSContext_8h.html" target="_top" xlink:title=" ">
<polygon fill="white" stroke="#666666" points="1004.5,-19 896.5,-19 896.5,0 1004.5,0 1004.5,-19"/>
<text text-anchor="middle" x="950.5" y="-7" font-family="Helvetica,sans-Serif" font-size="10.00">SocketTLSContext.h</text>
</a>
</g>
</g>
<!-- Node1&#45;&gt;Node14 -->
<g id="edge38_Node000001_Node000014" class="edge">
<title>Node1&#45;&gt;Node14</title>
<g id="a_edge38_Node000001_Node000014"><a xlink:title=" ">
<path fill="none" stroke="#63b8ff" d="M676,-281.36C754.61,-276.55 930.75,-263.33 985.5,-239 1025.1,-221.4 1059.5,-218.84 1059.5,-175.5 1059.5,-175.5 1059.5,-175.5 1059.5,-118.5 1059.5,-68.82 1001.65,-34.2 970.24,-19.07"/>
<polygon fill="#63b8ff" stroke="#63b8ff" points="675.35,-277.89 665.58,-281.99 675.77,-284.88 675.35,-277.89"/>
</a>
</g>
</g>
<!-- Node15 -->
<g id="Node000015" class="node">
<title>Node15</title>
<g id="a_Node000015"><a xlink:href="SocketDgram_8h.html" target="_top" xlink:title=" ">
<polygon fill="white" stroke="#666666" points="736,-129 651,-129 651,-110 736,-110 736,-129"/>
<text text-anchor="middle" x="693.5" y="-117" font-family="Helvetica,sans-Serif" font-size="10.00">SocketDgram.h</text>
</a>
</g>
</g>
<!-- Node1&#45;&gt;Node15 -->
<g id="edge30_Node000001_Node000015" class="edge">
<title>Node1&#45;&gt;Node15</title>
<g id="a_edge30_Node000001_Node000015"><a xlink:title=" ">
<path fill="none" stroke="#63b8ff" d="M676.01,-278.1C726.19,-268.77 812.03,-244.43 850.5,-184 878.6,-139.85 791.72,-126.4 736.17,-122.3"/>
<polygon fill="#63b8ff" stroke="#63b8ff" points="675.13,-274.7 665.88,-279.87 676.33,-281.6 675.13,-274.7"/>
</a>
</g>
</g>
<!-- Node16 -->
<g id="Node000016" class="node">
<title>Node16</title>
<g id="a_Node000016"><a xlink:href="SocketIPTracker_8h.html" target="_top" xlink:title=" ">
<polygon fill="white" stroke="#666666" points="725.5,-184 627.5,-184 627.5,-165 725.5,-165 725.5,-184"/>
<text text-anchor="middle" x="676.5" y="-172" font-family="Helvetica,sans-Serif" font-size="10.00">SocketIPTracker.h</text>
</a>
</g>
</g>
<!-- Node1&#45;&gt;Node16 -->
<g id="edge32_Node000001_Node000016" class="edge">
<title>Node1&#45;&gt;Node16</title>
<g id="a_edge32_Node000001_Node000016"><a xlink:title=" ">
<path fill="none" stroke="#63b8ff" d="M644.14,-265.12C652.64,-241.56 667.05,-201.66 673.37,-184.16"/>
<polygon fill="#63b8ff" stroke="#63b8ff" points="640.8,-264.07 640.69,-274.66 647.38,-266.45 640.8,-264.07"/>
</a>
</g>
</g>
<!-- Node17 -->
<g id="Node000017" class="node">
<title>Node17</title>
<g id="a_Node000017"><a xlink:href="SocketRateLimit_8h.html" target="_top" xlink:title=" ">
<polygon fill="white" stroke="#666666" points="841.5,-184 743.5,-184 743.5,-165 841.5,-165 841.5,-184"/>
<text text-anchor="middle" x="792.5" y="-172" font-family="Helvetica,sans-Serif" font-size="10.00">SocketRateLimit.h</text>
</a>
</g>
</g>
<!-- Node1&#45;&gt;Node17 -->
<g id="edge35_Node000001_Node000017" class="edge">
<title>Node1&#45;&gt;Node17</title>
<g id="a_edge35_Node000001_Node000017"><a xlink:title=" ">
<path fill="none" stroke="#63b8ff" d="M658.3,-269.01C691,-246.22 753.44,-202.72 780.02,-184.2"/>
<polygon fill="#63b8ff" stroke="#63b8ff" points="656.13,-266.26 649.92,-274.84 660.13,-272 656.13,-266.26"/>
</a>
</g>
</g>
<!-- Node18 -->
<g id="Node000018" class="node">
<title>Node18</title>
<g id="a_Node000018"><a xlink:href="SocketDNS_8h.html" target="_top" xlink:title=" ">
<polygon fill="white" stroke="#666666" points="381,-184 304,-184 304,-165 381,-165 381,-184"/>
<text text-anchor="middle" x="342.5" y="-172" font-family="Helvetica,sans-Serif" font-size="10.00">SocketDNS.h</text>
</a>
</g>
</g>
<!-- Node1&#45;&gt;Node18 -->
<g id="edge26_Node000001_Node000018" class="edge">
<title>Node1&#45;&gt;Node18</title>
<g id="a_edge26_Node000001_Node000018"><a xlink:title=" ">
<path fill="none" stroke="#63b8ff" d="M599.18,-284.27C549.01,-283.62 459.9,-276.61 395.5,-239 372.44,-225.53 354.91,-198.11 347.05,-184.13"/>
<polygon fill="#63b8ff" stroke="#63b8ff" points="599.25,-287.77 609.27,-284.32 599.29,-280.77 599.25,-287.77"/>
</a>
</g>
</g>
<!-- Node19 -->
<g id="Node000019" class="node">
<title>Node19</title>
<g id="a_Node000019"><a xlink:href="SocketTimer_8h.html" target="_top" xlink:title=" ">
<polygon fill="white" stroke="#666666" points="952.5,-129 872.5,-129 872.5,-110 952.5,-110 952.5,-129"/>
<text text-anchor="middle" x="912.5" y="-117" font-family="Helvetica,sans-Serif" font-size="10.00">SocketTimer.h</text>
</a>
</g>
</g>
<!-- Node1&#45;&gt;Node19 -->
<g id="edge39_Node000001_Node000019" class="edge">
<title>Node1&#45;&gt;Node19</title>
<g id="a_edge39_Node000001_Node000019"><a xlink:title=" ">
<path fill="none" stroke="#63b8ff" d="M675.89,-283.38C745.97,-282.24 890.33,-275.43 921.5,-239 948.86,-207.02 926.9,-150.76 916.85,-129.22"/>
<polygon fill="#63b8ff" stroke="#63b8ff" points="675.66,-279.88 665.7,-283.51 675.75,-286.88 675.66,-279.88"/>
</a>
</g>
</g>
<!-- Node20 -->
<g id="Node000020" class="node">
<title>Node20</title>
<g id="a_Node000020"><a xlink:href="SocketUtil_8h.html" target="_top" xlink:title=" ">
<polygon fill="white" stroke="#666666" points="71,-239 0,-239 0,-220 71,-220 71,-239"/>
<text text-anchor="middle" x="35.5" y="-227" font-family="Helvetica,sans-Serif" font-size="10.00">SocketUtil.h</text>
</a>
</g>
</g>
<!-- Node1&#45;&gt;Node20 -->
<g id="edge41_Node000001_Node000020" class="edge">
<title>Node1&#45;&gt;Node20</title>
<g id="a_edge41_Node000001_Node000020"><a xlink:title=" ">
<path fill="none" stroke="#63b8ff" d="M599.26,-281.58C509.38,-276.81 277.75,-263.04 85.5,-239 80.87,-238.42 76.01,-237.72 71.22,-236.97"/>
<polygon fill="#63b8ff" stroke="#63b8ff" points="599.09,-285.07 609.26,-282.1 599.46,-278.08 599.09,-285.07"/>
</a>
</g>
</g>
<!-- Node3 -->
<g id="Node000003" class="node">
<title>Node3</title>
<g id="a_Node000003"><a xlink:href="SocketBuf_8h.html" target="_top" xlink:title=" ">
<polygon fill="white" stroke="#666666" points="199,-129 128,-129 128,-110 199,-110 199,-129"/>
<text text-anchor="middle" x="163.5" y="-117" font-family="Helvetica,sans-Serif" font-size="10.00">SocketBuf.h</text>
</a>
</g>
</g>
<!-- Node2&#45;&gt;Node3 -->
<g id="edge2_Node000002_Node000003" class="edge">
<title>Node2&#45;&gt;Node3</title>
<g id="a_edge2_Node000002_Node000003"><a xlink:title=" ">
<path fill="none" stroke="#63b8ff" d="M564.27,-228.9C501.43,-228.53 366.77,-222.77 261.5,-184 226.12,-170.97 190.42,-143.35 173.54,-129.22"/>
<polygon fill="#63b8ff" stroke="#63b8ff" points="564.43,-232.4 574.43,-228.92 564.44,-225.4 564.43,-232.4"/>
</a>
</g>
</g>
<!-- Node2&#45;&gt;Node4 -->
<g id="edge20_Node000002_Node000004" class="edge">
<title>Node2&#45;&gt;Node4</title>
<g id="a_edge20_Node000002_Node000004"><a xlink:title=" ">
<path fill="none" stroke="#63b8ff" d="M563.86,-227.6C492.63,-225.13 335.96,-216.09 294.5,-184 238.94,-140.99 225.21,-47.85 222.24,-19.12"/>
<polygon fill="#63b8ff" stroke="#63b8ff" points="564.02,-231.11 574.13,-227.93 564.25,-224.11 564.02,-231.11"/>
</a>
</g>
</g>
<!-- Node2&#45;&gt;Node5 -->
<g id="edge4_Node000002_Node000005" class="edge">
<title>Node2&#45;&gt;Node5</title>
<g id="a_edge4_Node000002_Node000005"><a xlink:title=" ">
<path fill="none" stroke="#63b8ff" d="M578.92,-214.15C565.19,-204.57 547.57,-192.29 535.93,-184.17"/>
<polygon fill="#63b8ff" stroke="#63b8ff" points="577.08,-217.14 587.29,-219.98 581.09,-211.39 577.08,-217.14"/>
</a>
</g>
</g>
<!-- Node2&#45;&gt;Node14 -->
<g id="edge22_Node000002_Node000014" class="edge">
<title>Node2&#45;&gt;Node14</title>
<g id="a_edge22_Node000002_Node000014"><a xlink:title=" ">
<path fill="none" stroke="#63b8ff" d="M600.41,-209.7C602.09,-195.58 606.6,-176.73 618.5,-165 660.28,-123.82 690.42,-149.2 745.5,-129 800.96,-108.67 815.74,-104.22 866.5,-74 895.09,-56.98 925.48,-32.07 940.67,-19.08"/>
<polygon fill="#63b8ff" stroke="#63b8ff" points="596.91,-209.53 599.58,-219.78 603.89,-210.1 596.91,-209.53"/>
</a>
</g>
</g>
<!-- Node2&#45;&gt;Node16 -->
<g id="edge19_Node000002_Node000016" class="edge">
<title>Node2&#45;&gt;Node16</title>
<g id="a_edge19_Node000002_Node000016"><a xlink:title=" ">
<path fill="none" stroke="#63b8ff" d="M620.35,-214.15C634.26,-204.57 652.11,-192.29 663.9,-184.17"/>
<polygon fill="#63b8ff" stroke="#63b8ff" points="618.12,-211.43 611.87,-219.98 622.09,-217.2 618.12,-211.43"/>
</a>
</g>
</g>
<!-- Node2&#45;&gt;Node17 -->
<g id="edge21_Node000002_Node000017" class="edge">
<title>Node2&#45;&gt;Node17</title>
<g id="a_edge21_Node000002_Node000017"><a xlink:title=" ">
<path fill="none" stroke="#63b8ff" d="M634.39,-218.92C670.63,-208.97 726.8,-193.54 761.52,-184.01"/>
<polygon fill="#63b8ff" stroke="#63b8ff" points="633.45,-215.55 624.73,-221.57 635.3,-222.3 633.45,-215.55"/>
</a>
</g>
</g>
<!-- Node3&#45;&gt;Node4 -->
<g id="edge3_Node000003_Node000004" class="edge">
<title>Node3&#45;&gt;Node4</title>
<g id="a_edge3_Node000003_Node000004"><a xlink:title=" ">
<path fill="none" stroke="#63b8ff" d="M173.03,-100.76C185.64,-77.28 207.37,-36.81 216.85,-19.16"/>
<polygon fill="#63b8ff" stroke="#63b8ff" points="169.89,-99.2 168.25,-109.66 176.06,-102.51 169.89,-99.2"/>
</a>
</g>
</g>
<!-- Node5&#45;&gt;Node6 -->
<g id="edge5_Node000005_Node000006" class="edge">
<title>Node5&#45;&gt;Node6</title>
<g id="a_edge5_Node000005_Node000006"><a xlink:title=" ">
<path fill="none" stroke="#63b8ff" d="M535.12,-156.39C541.32,-147.27 548.67,-136.45 553.67,-129.09"/>
<polygon fill="#63b8ff" stroke="#63b8ff" points="532.17,-154.51 529.44,-164.75 537.96,-158.44 532.17,-154.51"/>
</a>
</g>
</g>
<!-- Node5&#45;&gt;Node15 -->
<g id="edge18_Node000005_Node000015" class="edge">
<title>Node5&#45;&gt;Node15</title>
<g id="a_edge18_Node000005_Node000015"><a xlink:title=" ">
<path fill="none" stroke="#63b8ff" d="M560.62,-161.93C592.37,-152.03 637.35,-138.01 665.97,-129.08"/>
<polygon fill="#63b8ff" stroke="#63b8ff" points="559.32,-158.67 550.81,-164.98 561.4,-165.35 559.32,-158.67"/>
</a>
</g>
</g>
<!-- Node6&#45;&gt;Node4 -->
<g id="edge13_Node000006_Node000004" class="edge">
<title>Node6&#45;&gt;Node4</title>
<g id="a_edge13_Node000006_Node000004"><a xlink:title=" ">
<path fill="none" stroke="#63b8ff" d="M558.76,-99.67C557.12,-85.22 552.45,-65.96 539.5,-55 497.85,-19.75 333.97,-12.39 259.13,-10.88"/>
<polygon fill="#63b8ff" stroke="#63b8ff" points="555.29,-100.25 559.51,-109.97 562.27,-99.74 555.29,-100.25"/>
</a>
</g>
</g>
<!-- Node6&#45;&gt;Node7 -->
<g id="edge6_Node000006_Node000007" class="edge">
<title>Node6&#45;&gt;Node7</title>
<g id="a_edge6_Node000006_Node000007"><a xlink:title=" ">
<path fill="none" stroke="#63b8ff" d="M540.19,-103.88C527.59,-94.34 511.57,-82.21 500.95,-74.17"/>
<polygon fill="#63b8ff" stroke="#63b8ff" points="538.17,-106.74 548.25,-109.98 542.39,-101.16 538.17,-106.74"/>
</a>
</g>
</g>
<!-- Node6&#45;&gt;Node8 -->
<g id="edge7_Node000006_Node000008" class="edge">
<title>Node6&#45;&gt;Node8</title>
<g id="a_edge7_Node000006_Node000008"><a xlink:title=" ">
<path fill="none" stroke="#63b8ff" d="M597.72,-110.36C619.45,-103.9 645.6,-92.73 662.5,-74 676.59,-58.38 680.76,-32.88 681.99,-19.44"/>
<polygon fill="#63b8ff" stroke="#63b8ff" points="596.5,-107.06 587.79,-113.09 598.36,-113.81 596.5,-107.06"/>
</a>
</g>
</g>
<!-- Node9 -->
<g id="Node000009" class="node">
<title>Node9</title>
<g id="a_Node000009"><a xlink:href="SocketIO_8h.html" target="_top" xlink:title=" ">
<polygon fill="white" stroke="#666666" points="653.5,-74 587.5,-74 587.5,-55 653.5,-55 653.5,-74"/>
<text text-anchor="middle" x="620.5" y="-62" font-family="Helvetica,sans-Serif" font-size="10.00">SocketIO.h</text>
</a>
</g>
</g>
<!-- Node6&#45;&gt;Node9 -->
<g id="edge8_Node000006_Node000009" class="edge">
<title>Node6&#45;&gt;Node9</title>
<g id="a_edge8_Node000006_Node000009"><a xlink:title=" ">
<path fill="none" stroke="#63b8ff" d="M576.97,-103.32C587.84,-93.87 601.44,-82.06 610.52,-74.17"/>
<polygon fill="#63b8ff" stroke="#63b8ff" points="574.55,-100.78 569.3,-109.98 579.15,-106.07 574.55,-100.78"/>
</a>
</g>
</g>
<!-- Node6&#45;&gt;Node10 -->
<g id="edge9_Node000006_Node000010" class="edge">
<title>Node6&#45;&gt;Node10</title>
<g id="a_edge9_Node000006_Node000010"><a xlink:title=" ">
<path fill="none" stroke="#63b8ff" d="M597.37,-110.84C647.67,-100.66 735.9,-82.82 785.33,-72.82"/>
<polygon fill="#63b8ff" stroke="#63b8ff" points="596.65,-107.41 587.54,-112.83 598.03,-114.28 596.65,-107.41"/>
</a>
</g>
</g>
<!-- Node11 -->
<g id="Node000011" class="node">
<title>Node11</title>
<g id="a_Node000011"><a xlink:href="SocketPoll__backend_8h.html" target="_top" xlink:title=" ">
<polygon fill="white" stroke="#666666" points="877.5,-19 763.5,-19 763.5,0 877.5,0 877.5,-19"/>
<text text-anchor="middle" x="820.5" y="-7" font-family="Helvetica,sans-Serif" font-size="10.00">SocketPoll_backend.h</text>
</a>
</g>
</g>
<!-- Node6&#45;&gt;Node11 -->
<g id="edge12_Node000006_Node000011" class="edge">
<title>Node6&#45;&gt;Node11</title>
<g id="a_edge12_Node000006_Node000011"><a xlink:title=" ">
<path fill="none" stroke="#63b8ff" d="M594.86,-106.59C619.61,-98.04 653.32,-85.97 682.5,-74 726.42,-55.99 776.8,-31.91 802.85,-19.2"/>
<polygon fill="#63b8ff" stroke="#63b8ff" points="593.5,-103.36 585.18,-109.91 595.78,-109.98 593.5,-103.36"/>
</a>
</g>
</g>
<!-- Node6&#45;&gt;Node12 -->
<g id="edge14_Node000006_Node000012" class="edge">
<title>Node6&#45;&gt;Node12</title>
<g id="a_edge14_Node000006_Node000012"><a xlink:title=" ">
<path fill="none" stroke="#63b8ff" d="M521.26,-109.29C480.07,-99.36 415.06,-83.7 374.98,-74.05"/>
<polygon fill="#63b8ff" stroke="#63b8ff" points="520.65,-112.74 531.19,-111.68 522.29,-105.93 520.65,-112.74"/>
</a>
</g>
</g>
<!-- Node6&#45;&gt;Node13 -->
<g id="edge16_Node000006_Node000013" class="edge">
<title>Node6&#45;&gt;Node13</title>
<g id="a_edge16_Node000006_Node000013"><a xlink:title=" ">
<path fill="none" stroke="#63b8ff" d="M597.6,-113.34C672.73,-103.15 839.16,-80.59 913.44,-70.52"/>
<polygon fill="#63b8ff" stroke="#63b8ff" points="597.06,-109.88 587.62,-114.69 598,-116.81 597.06,-109.88"/>
</a>
</g>
</g>
<!-- Node10&#45;&gt;Node8 -->
<g id="edge10_Node000010_Node000008" class="edge">
<title>Node10&#45;&gt;Node8</title>
<g id="a_edge10_Node000010_Node000008"><a xlink:title=" ">
<path fill="none" stroke="#63b8ff" d="M789.82,-51.42C764.03,-41.59 728.26,-27.95 705.24,-19.17"/>
<polygon fill="#63b8ff" stroke="#63b8ff" points="788.58,-54.69 799.17,-54.98 791.07,-48.15 788.58,-54.69"/>
</a>
</g>
</g>
<!-- Node10&#45;&gt;Node11 -->
<g id="edge11_Node000010_Node000011" class="edge">
<title>Node10&#45;&gt;Node11</title>
<g id="a_edge11_Node000010_Node000011"><a xlink:title=" ">
<path fill="none" stroke="#63b8ff" d="M821.14,-44.66C820.98,-35.93 820.79,-25.99 820.66,-19.09"/>
<polygon fill="#63b8ff" stroke="#63b8ff" points="817.65,-44.82 821.33,-54.75 824.65,-44.68 817.65,-44.82"/>
</a>
</g>
</g>
<!-- Node12&#45;&gt;Node4 -->
<g id="edge15_Node000012_Node000004" class="edge">
<title>Node12&#45;&gt;Node4</title>
<g id="a_edge15_Node000012_Node000004"><a xlink:title=" ">
<path fill="none" stroke="#63b8ff" d="M311.15,-50.77C289.38,-40.99 259.91,-27.75 240.8,-19.17"/>
<polygon fill="#63b8ff" stroke="#63b8ff" points="309.99,-54.08 320.54,-54.98 312.85,-47.69 309.99,-54.08"/>
</a>
</g>
</g>
<!-- Node13&#45;&gt;Node14 -->
<g id="edge17_Node000013_Node000014" class="edge">
<title>Node13&#45;&gt;Node14</title>
<g id="a_edge17_Node000013_Node000014"><a xlink:title=" ">
<path fill="none" stroke="#63b8ff" d="M950.5,-44.66C950.5,-35.93 950.5,-25.99 950.5,-19.09"/>
<polygon fill="#63b8ff" stroke="#63b8ff" points="947,-44.75 950.5,-54.75 954,-44.75 947,-44.75"/>
</a>
</g>
</g>
<!-- Node18&#45;&gt;Node4 -->
<g id="edge29_Node000018_Node000004" class="edge">
<title>Node18&#45;&gt;Node4</title>
<g id="a_edge29_Node000018_Node000004"><a xlink:title=" ">
<path fill="none" stroke="#63b8ff" d="M329.97,-156.62C304.48,-122.28 247.37,-45.34 228.04,-19.31"/>
<polygon fill="#63b8ff" stroke="#63b8ff" points="327.22,-158.79 335.99,-164.74 332.84,-154.62 327.22,-158.79"/>
</a>
</g>
</g>
<!-- Node18&#45;&gt;Node6 -->
<g id="edge27_Node000018_Node000006" class="edge">
<title>Node18&#45;&gt;Node6</title>
<g id="a_edge27_Node000018_Node000006"><a xlink:title=" ">
<path fill="none" stroke="#63b8ff" d="M387.34,-162.55C430.6,-151.98 494.74,-136.32 531.29,-127.39"/>
<polygon fill="#63b8ff" stroke="#63b8ff" points="386.25,-159.21 377.36,-164.98 387.91,-166.01 386.25,-159.21"/>
</a>
</g>
</g>
<!-- Node18&#45;&gt;Node8 -->
<g id="edge28_Node000018_Node000008" class="edge">
<title>Node18&#45;&gt;Node8</title>
<g id="a_edge28_Node000018_Node000008"><a xlink:title=" ">
<path fill="none" stroke="#63b8ff" d="M351.38,-155.97C365.79,-129.46 396.9,-79.66 438.5,-55 468.69,-37.1 559.35,-23.96 621.24,-16.77"/>
<polygon fill="#63b8ff" stroke="#63b8ff" points="348.25,-154.41 346.69,-164.89 354.44,-157.67 348.25,-154.41"/>
</a>
</g>
</g>
<!-- Node19&#45;&gt;Node10 -->
<g id="edge40_Node000019_Node000010" class="edge">
<title>Node19&#45;&gt;Node10</title>
<g id="a_edge40_Node000019_Node000010"><a xlink:title=" ">
<path fill="none" stroke="#63b8ff" d="M888.8,-104.7C872.22,-95.04 850.59,-82.44 836.39,-74.17"/>
<polygon fill="#63b8ff" stroke="#63b8ff" points="887.48,-107.98 897.88,-109.98 891,-101.93 887.48,-107.98"/>
</a>
</g>
</g>
<!-- Node20&#45;&gt;Node4 -->
<g id="edge42_Node000020_Node000004" class="edge">
<title>Node20&#45;&gt;Node4</title>
<g id="a_edge42_Node000020_Node000004"><a xlink:title=" ">
<path fill="none" stroke="#63b8ff" d="M35.47,-209.66C36.46,-174.46 43.65,-98.37 85.5,-55 111.29,-28.27 153.34,-17.59 183.86,-13.32"/>
<polygon fill="#63b8ff" stroke="#63b8ff" points="31.97,-209.87 35.33,-219.92 38.97,-209.97 31.97,-209.87"/>
</a>
</g>
</g>
</g>
</svg>

<g id="navigator" transform="translate(0 0)" fill="#404254">
  <rect fill="#f2f5e9" fill-opacity="0.5" stroke="#606060" stroke-width=".5" x="0" y="0" width="60" height="60"/>
  <use id="zoomplus" xlink:href="#zoomPlus" x="17" y="9" onmousedown="handleZoom(evt,'in')"/>
  <use id="zoomminus" xlink:href="#zoomMin" x="42" y="9" onmousedown="handleZoom(evt,'out')"/>
  <use id="reset" xlink:href="#resetDef" x="30" y="36" onmousedown="handleReset()"/>
   <use id="arrowup" xlink:href="#arrowUp" x="0" y="0" onmousedown="handlePan(0,-1)"/>
  <use id="arrowright" xlink:href="#arrowRight" x="0" y="0" onmousedown="handlePan(1,0)"/>
  <use id="arrowdown" xlink:href="#arrowDown" x="0" y="0" onmousedown="handlePan(0,1)"/>
  <use id="arrowleft" xlink:href="#arrowLeft" x="0" y="0" onmousedown="handlePan(-1,0)"/>
</g>
<svg viewBox="0 0 15 15" width="100%" height="30px" preserveAspectRatio="xMaxYMin meet">
 <g id="arrow_out" transform="scale(0.3 0.3)">
  <a xlink:href="Except_8h__dep__incl_org.svg" target="_base">
   <rect id="button" ry="5" rx="5" y="6" x="6" height="38" width="38"
        fill="#f2f5e9" fill-opacity="0.5" stroke="#606060" stroke-width="1.0"/>
   <path id="arrow"
     d="M 11.500037,31.436501 C 11.940474,20.09759 22.043105,11.32322 32.158766,21.979434 L 37.068811,17.246167 C 37.068811,17.246167 37.088388,32 37.088388,32 L 22.160133,31.978069 C 22.160133,31.978069 26.997745,27.140456 26.997745,27.140456 C 18.528582,18.264221 13.291696,25.230495 11.500037,31.436501 z"
     style="fill:#404040;"/>
  </a>
 </g>
</svg>

<style type='text/css'>
<![CDATA[
[data-mouse-over-selected='false'] { opacity: 0.7; }
[data-mouse-over-selected='true']  { opacity: 1.0; }
]]>
</style>
<script type="application/ecmascript"><![CDATA[
document.addEventListener('DOMContentLoaded', (event) => {
  highlightEdges();
  highlightAdjacentNodes();
});
]]></script>
</svg>
