<?xml version="1.0" encoding="UTF-8" standalone="no"?>
<!DOCTYPE svg PUBLIC "-//W3C//DTD SVG 1.1//EN"
 "http://www.w3.org/Graphics/SVG/1.1/DTD/svg11.dtd">
<!-- Generated by graphviz version 2.43.0 (0)
 -->
<!-- Title: graceful_shutdown.c Pages: 1 -->
<svg width="1767pt" height="412pt"
 viewBox="0.00 0.00 1766.50 412.00" xmlns="http://www.w3.org/2000/svg" xmlns:xlink="http://www.w3.org/1999/xlink">
<g id="graph0" class="graph" transform="scale(1 1) rotate(0) translate(4 408)">
<title>graceful_shutdown.c</title>
<!-- Node1 -->
<g id="Node000001" class="node">
<title>Node1</title>
<g id="a_Node000001"><a xlink:title=" ">
<polygon fill="#999999" stroke="#666666" points="384,-404 277,-404 277,-385 384,-385 384,-404"/>
<text text-anchor="middle" x="330.5" y="-392" font-family="Helvetica,sans-Serif" font-size="10.00">graceful_shutdown.c</text>
</a>
</g>
</g>
<!-- Node2 -->
<g id="Node000002" class="node">
<title>Node2</title>
<g id="a_Node000002"><a xlink:title=" ">
<polygon fill="#e0e0e0" stroke="#999999" points="47,-74 0,-74 0,-55 47,-55 47,-74"/>
<text text-anchor="middle" x="23.5" y="-62" font-family="Helvetica,sans-Serif" font-size="10.00">errno.h</text>
</a>
</g>
</g>
<!-- Node1&#45;&gt;Node2 -->
<g id="edge1_Node000001_Node000002" class="edge">
<title>Node1&#45;&gt;Node2</title>
<g id="a_edge1_Node000001_Node000002"><a xlink:title=" ">
<path fill="none" stroke="#63b8ff" d="M276.93,-390.36C205.83,-385.3 84.99,-373.34 48.5,-349 20.95,-330.62 9.5,-318.62 9.5,-285.5 9.5,-285.5 9.5,-285.5 9.5,-173.5 9.5,-141.93 15.46,-105.59 19.6,-84.14"/>
<polygon fill="#63b8ff" stroke="#63b8ff" points="23.07,-84.62 21.61,-74.13 16.21,-83.24 23.07,-84.62"/>
</a>
</g>
</g>
<!-- Node3 -->
<g id="Node000003" class="node">
<title>Node3</title>
<g id="a_Node000003"><a xlink:title=" ">
<polygon fill="#e0e0e0" stroke="#999999" points="285.5,-74 241.5,-74 241.5,-55 285.5,-55 285.5,-74"/>
<text text-anchor="middle" x="263.5" y="-62" font-family="Helvetica,sans-Serif" font-size="10.00">fcntl.h</text>
</a>
</g>
</g>
<!-- Node1&#45;&gt;Node3 -->
<g id="edge2_Node000001_Node000003" class="edge">
<title>Node1&#45;&gt;Node3</title>
<g id="a_edge2_Node000001_Node000003"><a xlink:title=" ">
<path fill="none" stroke="#63b8ff" d="M340.11,-384.69C348.37,-376.41 359.7,-363.18 364.5,-349 367.21,-341 366.13,-338.29 364.5,-330 345.93,-235.32 314.59,-219.99 282.5,-129 277.23,-114.06 272.13,-96.82 268.55,-84.08"/>
<polygon fill="#63b8ff" stroke="#63b8ff" points="271.86,-82.92 265.82,-74.21 265.11,-84.78 271.86,-82.92"/>
</a>
</g>
</g>
<!-- Node4 -->
<g id="Node000004" class="node">
<title>Node4</title>
<g id="a_Node000004"><a xlink:title=" ">
<polygon fill="#e0e0e0" stroke="#999999" points="115.5,-349 75.5,-349 75.5,-330 115.5,-330 115.5,-349"/>
<text text-anchor="middle" x="95.5" y="-337" font-family="Helvetica,sans-Serif" font-size="10.00">poll.h</text>
</a>
</g>
</g>
<!-- Node1&#45;&gt;Node4 -->
<g id="edge3_Node000001_Node000004" class="edge">
<title>Node1&#45;&gt;Node4</title>
<g id="a_edge3_Node000001_Node000004"><a xlink:title=" ">
<path fill="none" stroke="#63b8ff" d="M286.48,-384.95C246.75,-377.02 186.5,-364.46 125.52,-349.12"/>
<polygon fill="#63b8ff" stroke="#63b8ff" points="126.28,-345.7 115.73,-346.63 124.56,-352.49 126.28,-345.7"/>
</a>
</g>
</g>
<!-- Node5 -->
<g id="Node000005" class="node">
<title>Node5</title>
<g id="a_Node000005"><a xlink:title=" ">
<polygon fill="#e0e0e0" stroke="#999999" points="183.5,-349 133.5,-349 133.5,-330 183.5,-330 183.5,-349"/>
<text text-anchor="middle" x="158.5" y="-337" font-family="Helvetica,sans-Serif" font-size="10.00">signal.h</text>
</a>
</g>
</g>
<!-- Node1&#45;&gt;Node5 -->
<g id="edge4_Node000001_Node000005" class="edge">
<title>Node1&#45;&gt;Node5</title>
<g id="a_edge4_Node000001_Node000005"><a xlink:title=" ">
<path fill="none" stroke="#63b8ff" d="M302.87,-384.98C273.13,-375.82 225.77,-361.23 193.47,-351.27"/>
<polygon fill="#63b8ff" stroke="#63b8ff" points="194.14,-347.82 183.55,-348.22 192.07,-354.51 194.14,-347.82"/>
</a>
</g>
</g>
<!-- Node6 -->
<g id="Node000006" class="node">
<title>Node6</title>
<g id="a_Node000006"><a xlink:title=" ">
<polygon fill="#e0e0e0" stroke="#999999" points="139.5,-74 93.5,-74 93.5,-55 139.5,-55 139.5,-74"/>
<text text-anchor="middle" x="116.5" y="-62" font-family="Helvetica,sans-Serif" font-size="10.00">stdio.h</text>
</a>
</g>
</g>
<!-- Node1&#45;&gt;Node6 -->
<g id="edge5_Node000001_Node000006" class="edge">
<title>Node1&#45;&gt;Node6</title>
<g id="a_edge5_Node000001_Node000006"><a xlink:title=" ">
<path fill="none" stroke="#63b8ff" d="M276.8,-391.02C208.84,-386.8 96.94,-375.89 66.5,-349 44.42,-329.5 47.5,-314.96 47.5,-285.5 47.5,-285.5 47.5,-285.5 47.5,-173.5 47.5,-135.59 78.06,-100.3 98.51,-80.94"/>
<polygon fill="#63b8ff" stroke="#63b8ff" points="100.98,-83.42 106.02,-74.1 96.27,-78.24 100.98,-83.42"/>
</a>
</g>
</g>
<!-- Node7 -->
<g id="Node000007" class="node">
<title>Node7</title>
<g id="a_Node000007"><a xlink:title=" ">
<polygon fill="#e0e0e0" stroke="#999999" points="287.5,-349 239.5,-349 239.5,-330 287.5,-330 287.5,-349"/>
<text text-anchor="middle" x="263.5" y="-337" font-family="Helvetica,sans-Serif" font-size="10.00">stdlib.h</text>
</a>
</g>
</g>
<!-- Node1&#45;&gt;Node7 -->
<g id="edge6_Node000001_Node000007" class="edge">
<title>Node1&#45;&gt;Node7</title>
<g id="a_edge6_Node000001_Node000007"><a xlink:title=" ">
<path fill="none" stroke="#63b8ff" d="M319.74,-384.98C309.73,-377.07 294.61,-365.11 282.57,-355.58"/>
<polygon fill="#63b8ff" stroke="#63b8ff" points="284.47,-352.63 274.46,-349.17 280.13,-358.12 284.47,-352.63"/>
</a>
</g>
</g>
<!-- Node8 -->
<g id="Node000008" class="node">
<title>Node8</title>
<g id="a_Node000008"><a xlink:title=" ">
<polygon fill="#e0e0e0" stroke="#999999" points="355,-349 306,-349 306,-330 355,-330 355,-349"/>
<text text-anchor="middle" x="330.5" y="-337" font-family="Helvetica,sans-Serif" font-size="10.00">string.h</text>
</a>
</g>
</g>
<!-- Node1&#45;&gt;Node8 -->
<g id="edge7_Node000001_Node000008" class="edge">
<title>Node1&#45;&gt;Node8</title>
<g id="a_edge7_Node000001_Node000008"><a xlink:title=" ">
<path fill="none" stroke="#63b8ff" d="M330.5,-384.75C330.5,-377.8 330.5,-367.85 330.5,-359.13"/>
<polygon fill="#63b8ff" stroke="#63b8ff" points="334,-359.09 330.5,-349.09 327,-359.09 334,-359.09"/>
</a>
</g>
</g>
<!-- Node9 -->
<g id="Node000009" class="node">
<title>Node9</title>
<g id="a_Node000009"><a xlink:title=" ">
<polygon fill="#e0e0e0" stroke="#999999" points="223,-74 172,-74 172,-55 223,-55 223,-74"/>
<text text-anchor="middle" x="197.5" y="-62" font-family="Helvetica,sans-Serif" font-size="10.00">unistd.h</text>
</a>
</g>
</g>
<!-- Node1&#45;&gt;Node9 -->
<g id="edge8_Node000001_Node000009" class="edge">
<title>Node1&#45;&gt;Node9</title>
<g id="a_edge8_Node000001_Node000009"><a xlink:title=" ">
<path fill="none" stroke="#63b8ff" d="M292.55,-384.95C271.56,-378.39 246.56,-367.26 230.5,-349 211.04,-326.88 211.5,-314.96 211.5,-285.5 211.5,-285.5 211.5,-285.5 211.5,-173.5 211.5,-141.93 205.54,-105.59 201.4,-84.14"/>
<polygon fill="#63b8ff" stroke="#63b8ff" points="204.79,-83.24 199.39,-74.13 197.93,-84.62 204.79,-83.24"/>
</a>
</g>
</g>
<!-- Node10 -->
<g id="Node000010" class="node">
<title>Node10</title>
<g id="a_Node000010"><a xlink:href="Arena_8h.html" target="_top" xlink:title="Arena&#45;based memory allocator for efficient bulk memory management.">
<polygon fill="white" stroke="#666666" points="1605.5,-129 1533.5,-129 1533.5,-110 1605.5,-110 1605.5,-129"/>
<text text-anchor="middle" x="1569.5" y="-117" font-family="Helvetica,sans-Serif" font-size="10.00">core/Arena.h</text>
</a>
</g>
</g>
<!-- Node1&#45;&gt;Node10 -->
<g id="edge9_Node000001_Node000010" class="edge">
<title>Node1&#45;&gt;Node10</title>
<g id="a_edge9_Node000001_Node000010"><a xlink:title=" ">
<path fill="none" stroke="#63b8ff" d="M384.1,-392.6C578.8,-389.15 1248.28,-375.59 1460.5,-349 1594.87,-332.16 1758.5,-420.92 1758.5,-285.5 1758.5,-285.5 1758.5,-285.5 1758.5,-228.5 1758.5,-163.04 1671.97,-136.72 1616.01,-126.54"/>
<polygon fill="#63b8ff" stroke="#63b8ff" points="1616.39,-123.05 1605.94,-124.82 1615.21,-129.95 1616.39,-123.05"/>
</a>
</g>
</g>
<!-- Node12 -->
<g id="Node000012" class="node">
<title>Node12</title>
<g id="a_Node000012"><a xlink:href="Except_8h.html" target="_top" xlink:title="Structured exception handling for C with TRY/EXCEPT/FINALLY blocks.">
<polygon fill="white" stroke="#666666" points="1174,-74 1097,-74 1097,-55 1174,-55 1174,-74"/>
<text text-anchor="middle" x="1135.5" y="-62" font-family="Helvetica,sans-Serif" font-size="10.00">core/Except.h</text>
</a>
</g>
</g>
<!-- Node1&#45;&gt;Node12 -->
<g id="edge13_Node000001_Node000012" class="edge">
<title>Node1&#45;&gt;Node12</title>
<g id="a_edge13_Node000001_Node000012"><a xlink:title=" ">
<path fill="none" stroke="#63b8ff" d="M368.91,-384.96C415.39,-372.1 487.5,-342.9 487.5,-285.5 487.5,-285.5 487.5,-285.5 487.5,-173.5 487.5,-135.28 511.13,-126.73 545.5,-110 593.55,-86.61 953.4,-71.84 1086.34,-67.13"/>
<polygon fill="#63b8ff" stroke="#63b8ff" points="1086.76,-70.62 1096.63,-66.77 1086.51,-63.63 1086.76,-70.62"/>
</a>
</g>
</g>
<!-- Node14 -->
<g id="Node000014" class="node">
<title>Node14</title>
<g id="a_Node000014"><a xlink:href="SocketPoll_8h.html" target="_top" xlink:title="Cross&#45;platform high&#45;level interface for monitoring multiple sockets for I/O events.">
<polygon fill="white" stroke="#666666" points="933.5,-294 843.5,-294 843.5,-275 933.5,-275 933.5,-294"/>
<text text-anchor="middle" x="888.5" y="-282" font-family="Helvetica,sans-Serif" font-size="10.00">poll/SocketPoll.h</text>
</a>
</g>
</g>
<!-- Node1&#45;&gt;Node14 -->
<g id="edge14_Node000001_Node000014" class="edge">
<title>Node1&#45;&gt;Node14</title>
<g id="a_edge14_Node000001_Node000014"><a xlink:title=" ">
<path fill="none" stroke="#63b8ff" d="M374.75,-384.94C475.99,-365.34 724.2,-317.3 834.34,-295.98"/>
<polygon fill="#63b8ff" stroke="#63b8ff" points="835.09,-299.4 844.24,-294.07 833.76,-292.53 835.09,-299.4"/>
</a>
</g>
</g>
<!-- Node17 -->
<g id="Node000017" class="node">
<title>Node17</title>
<g id="a_Node000017"><a xlink:href="Socket_8h.html" target="_top" xlink:title="High&#45;level TCP/IP and Unix domain socket interface.">
<polygon fill="white" stroke="#666666" points="1005.5,-239 917.5,-239 917.5,-220 1005.5,-220 1005.5,-239"/>
<text text-anchor="middle" x="961.5" y="-227" font-family="Helvetica,sans-Serif" font-size="10.00">socket/Socket.h</text>
</a>
</g>
</g>
<!-- Node1&#45;&gt;Node17 -->
<g id="edge72_Node000001_Node000017" class="edge">
<title>Node1&#45;&gt;Node17</title>
<g id="a_edge72_Node000001_Node000017"><a xlink:title=" ">
<path fill="none" stroke="#63b8ff" d="M384.35,-391.92C518,-386.92 860.04,-367.11 942.5,-294 955,-282.92 959.43,-263.98 960.93,-249.66"/>
<polygon fill="#63b8ff" stroke="#63b8ff" points="964.44,-249.62 961.6,-239.41 957.45,-249.16 964.44,-249.62"/>
</a>
</g>
</g>
<!-- Node31 -->
<g id="Node000031" class="node">
<title>Node31</title>
<g id="a_Node000031"><a xlink:href="SocketPool_8h.html" target="_top" xlink:title="Connection pooling with automatic lifecycle management.">
<polygon fill="white" stroke="#666666" points="1451.5,-349 1355.5,-349 1355.5,-330 1451.5,-330 1451.5,-349"/>
<text text-anchor="middle" x="1403.5" y="-337" font-family="Helvetica,sans-Serif" font-size="10.00">pool/SocketPool.h</text>
</a>
</g>
</g>
<!-- Node1&#45;&gt;Node31 -->
<g id="edge49_Node000001_Node000031" class="edge">
<title>Node1&#45;&gt;Node31</title>
<g id="a_edge49_Node000001_Node000031"><a xlink:title=" ">
<path fill="none" stroke="#63b8ff" d="M384.08,-390.85C565.58,-381.89 1156.41,-352.71 1345.04,-343.39"/>
<polygon fill="#63b8ff" stroke="#63b8ff" points="1345.49,-346.87 1355.3,-342.88 1345.14,-339.88 1345.49,-346.87"/>
</a>
</g>
</g>
<!-- Node11 -->
<g id="Node000011" class="node">
<title>Node11</title>
<g id="a_Node000011"><a xlink:title=" ">
<polygon fill="#e0e0e0" stroke="#999999" points="1595.5,-74 1543.5,-74 1543.5,-55 1595.5,-55 1595.5,-74"/>
<text text-anchor="middle" x="1569.5" y="-62" font-family="Helvetica,sans-Serif" font-size="10.00">stddef.h</text>
</a>
</g>
</g>
<!-- Node10&#45;&gt;Node11 -->
<g id="edge10_Node000010_Node000011" class="edge">
<title>Node10&#45;&gt;Node11</title>
<g id="a_edge10_Node000010_Node000011"><a xlink:title=" ">
<path fill="none" stroke="#63b8ff" d="M1569.5,-109.75C1569.5,-102.8 1569.5,-92.85 1569.5,-84.13"/>
<polygon fill="#63b8ff" stroke="#63b8ff" points="1573,-84.09 1569.5,-74.09 1566,-84.09 1573,-84.09"/>
</a>
</g>
</g>
<!-- Node10&#45;&gt;Node12 -->
<g id="edge11_Node000010_Node000012" class="edge">
<title>Node10&#45;&gt;Node12</title>
<g id="a_edge11_Node000010_Node000012"><a xlink:title=" ">
<path fill="none" stroke="#63b8ff" d="M1533.49,-112.14C1528.79,-111.38 1524.03,-110.65 1519.5,-110 1399.34,-92.84 1257.31,-77.71 1184.28,-70.32"/>
<polygon fill="#63b8ff" stroke="#63b8ff" points="1184.31,-66.8 1174.01,-69.28 1183.61,-73.77 1184.31,-66.8"/>
</a>
</g>
</g>
<!-- Node13 -->
<g id="Node000013" class="node">
<title>Node13</title>
<g id="a_Node000013"><a xlink:title=" ">
<polygon fill="#e0e0e0" stroke="#999999" points="1162.5,-19 1108.5,-19 1108.5,0 1162.5,0 1162.5,-19"/>
<text text-anchor="middle" x="1135.5" y="-7" font-family="Helvetica,sans-Serif" font-size="10.00">setjmp.h</text>
</a>
</g>
</g>
<!-- Node12&#45;&gt;Node13 -->
<g id="edge12_Node000012_Node000013" class="edge">
<title>Node12&#45;&gt;Node13</title>
<g id="a_edge12_Node000012_Node000013"><a xlink:title=" ">
<path fill="none" stroke="#63b8ff" d="M1135.5,-54.75C1135.5,-47.8 1135.5,-37.85 1135.5,-29.13"/>
<polygon fill="#63b8ff" stroke="#63b8ff" points="1139,-29.09 1135.5,-19.09 1132,-29.09 1139,-29.09"/>
</a>
</g>
</g>
<!-- Node14&#45;&gt;Node12 -->
<g id="edge15_Node000014_Node000012" class="edge">
<title>Node14&#45;&gt;Node12</title>
<g id="a_edge15_Node000014_Node000012"><a xlink:title=" ">
<path fill="none" stroke="#63b8ff" d="M889.22,-274.62C892.07,-245.85 905.12,-154.53 958.5,-110 994.46,-80 1047.89,-69.81 1086.64,-66.55"/>
<polygon fill="#63b8ff" stroke="#63b8ff" points="1086.93,-70.04 1096.65,-65.84 1086.43,-63.06 1086.93,-70.04"/>
</a>
</g>
</g>
<!-- Node15 -->
<g id="Node000015" class="node">
<title>Node15</title>
<g id="a_Node000015"><a xlink:href="SocketTimer_8h.html" target="_top" xlink:title="High&#45;performance timer subsystem integrated with the event loop.">
<polygon fill="white" stroke="#666666" points="1235,-184 1134,-184 1134,-165 1235,-165 1235,-184"/>
<text text-anchor="middle" x="1184.5" y="-172" font-family="Helvetica,sans-Serif" font-size="10.00">core/SocketTimer.h</text>
</a>
</g>
</g>
<!-- Node14&#45;&gt;Node15 -->
<g id="edge16_Node000014_Node000015" class="edge">
<title>Node14&#45;&gt;Node15</title>
<g id="a_edge16_Node000014_Node000015"><a xlink:title=" ">
<path fill="none" stroke="#63b8ff" d="M913.17,-274.93C938.61,-266.07 979.39,-251.75 1014.5,-239 1062.74,-221.47 1118.43,-200.54 1152.55,-187.63"/>
<polygon fill="#63b8ff" stroke="#63b8ff" points="1153.89,-190.87 1162,-184.05 1151.41,-184.32 1153.89,-190.87"/>
</a>
</g>
</g>
<!-- Node14&#45;&gt;Node17 -->
<g id="edge19_Node000014_Node000017" class="edge">
<title>Node14&#45;&gt;Node17</title>
<g id="a_edge19_Node000014_Node000017"><a xlink:title=" ">
<path fill="none" stroke="#63b8ff" d="M900.23,-274.98C911.23,-267 927.92,-254.88 941.1,-245.31"/>
<polygon fill="#63b8ff" stroke="#63b8ff" points="943.52,-247.88 949.56,-239.17 939.41,-242.21 943.52,-247.88"/>
</a>
</g>
</g>
<!-- Node15&#45;&gt;Node12 -->
<g id="edge17_Node000015_Node000012" class="edge">
<title>Node15&#45;&gt;Node12</title>
<g id="a_edge17_Node000015_Node000012"><a xlink:title=" ">
<path fill="none" stroke="#63b8ff" d="M1179.12,-164.84C1173.76,-156.02 1165.5,-141.85 1159.5,-129 1152.57,-114.15 1146.09,-96.69 1141.61,-83.85"/>
<polygon fill="#63b8ff" stroke="#63b8ff" points="1144.89,-82.63 1138.36,-74.3 1138.27,-84.89 1144.89,-82.63"/>
</a>
</g>
</g>
<!-- Node16 -->
<g id="Node000016" class="node">
<title>Node16</title>
<g id="a_Node000016"><a xlink:title=" ">
<polygon fill="#e0e0e0" stroke="#999999" points="1289,-129 1240,-129 1240,-110 1289,-110 1289,-129"/>
<text text-anchor="middle" x="1264.5" y="-117" font-family="Helvetica,sans-Serif" font-size="10.00">stdint.h</text>
</a>
</g>
</g>
<!-- Node15&#45;&gt;Node16 -->
<g id="edge18_Node000015_Node000016" class="edge">
<title>Node15&#45;&gt;Node16</title>
<g id="a_edge18_Node000015_Node000016"><a xlink:title=" ">
<path fill="none" stroke="#63b8ff" d="M1197.35,-164.98C1209.64,-156.84 1228.41,-144.41 1242.98,-134.76"/>
<polygon fill="#63b8ff" stroke="#63b8ff" points="1245.01,-137.61 1251.41,-129.17 1241.14,-131.78 1245.01,-137.61"/>
</a>
</g>
</g>
<!-- Node17&#45;&gt;Node12 -->
<g id="edge20_Node000017_Node000012" class="edge">
<title>Node17&#45;&gt;Node12</title>
<g id="a_edge20_Node000017_Node000012"><a xlink:title=" ">
<path fill="none" stroke="#63b8ff" d="M959.41,-219.81C954.82,-198.34 946.27,-142.21 973.5,-110 988.11,-92.72 1044.55,-80.03 1086.73,-72.72"/>
<polygon fill="#63b8ff" stroke="#63b8ff" points="1087.56,-76.13 1096.84,-71.03 1086.4,-69.23 1087.56,-76.13"/>
</a>
</g>
</g>
<!-- Node18 -->
<g id="Node000018" class="node">
<title>Node18</title>
<g id="a_Node000018"><a xlink:href="SocketConfig_8h.html" target="_top" xlink:title="Compile&#45;time and runtime configuration constants, limits, and platform adaptations.">
<polygon fill="white" stroke="#666666" points="421.5,-129 315.5,-129 315.5,-110 421.5,-110 421.5,-129"/>
<text text-anchor="middle" x="368.5" y="-117" font-family="Helvetica,sans-Serif" font-size="10.00">core/SocketConfig.h</text>
</a>
</g>
</g>
<!-- Node17&#45;&gt;Node18 -->
<g id="edge21_Node000017_Node000018" class="edge">
<title>Node17&#45;&gt;Node18</title>
<g id="a_edge21_Node000017_Node000018"><a xlink:title=" ">
<path fill="none" stroke="#63b8ff" d="M917.43,-222.81C859.14,-215.09 753.3,-200.35 663.5,-184 575.01,-167.89 472.52,-144.82 414.62,-131.38"/>
<polygon fill="#63b8ff" stroke="#63b8ff" points="415.22,-127.93 404.68,-129.07 413.63,-134.75 415.22,-127.93"/>
</a>
</g>
</g>
<!-- Node23 -->
<g id="Node000023" class="node">
<title>Node23</title>
<g id="a_Node000023"><a xlink:href="SocketDNS_8h.html" target="_top" xlink:title="Asynchronous DNS resolution API for non&#45;blocking network applications.">
<polygon fill="white" stroke="#666666" points="1115.5,-184 1019.5,-184 1019.5,-165 1115.5,-165 1115.5,-184"/>
<text text-anchor="middle" x="1067.5" y="-172" font-family="Helvetica,sans-Serif" font-size="10.00">dns/SocketDNS.h</text>
</a>
</g>
</g>
<!-- Node17&#45;&gt;Node23 -->
<g id="edge31_Node000017_Node000023" class="edge">
<title>Node17&#45;&gt;Node23</title>
<g id="a_edge31_Node000017_Node000023"><a xlink:title=" ">
<path fill="none" stroke="#63b8ff" d="M978.53,-219.98C995.43,-211.54 1021.56,-198.47 1041.14,-188.68"/>
<polygon fill="#63b8ff" stroke="#63b8ff" points="1042.78,-191.77 1050.16,-184.17 1039.65,-185.51 1042.78,-191.77"/>
</a>
</g>
</g>
<!-- Node25 -->
<g id="Node000025" class="node">
<title>Node25</title>
<g id="a_Node000025"><a xlink:href="SocketCommon_8h.html" target="_top" xlink:title="Common utilities shared between Socket and SocketDgram modules.">
<polygon fill="white" stroke="#666666" points="800.5,-184 672.5,-184 672.5,-165 800.5,-165 800.5,-184"/>
<text text-anchor="middle" x="736.5" y="-172" font-family="Helvetica,sans-Serif" font-size="10.00">socket/SocketCommon.h</text>
</a>
</g>
</g>
<!-- Node17&#45;&gt;Node25 -->
<g id="edge36_Node000017_Node000025" class="edge">
<title>Node17&#45;&gt;Node25</title>
<g id="a_edge36_Node000017_Node000025"><a xlink:title=" ">
<path fill="none" stroke="#63b8ff" d="M925.35,-219.98C886.59,-210.86 824.95,-196.33 782.7,-186.38"/>
<polygon fill="#63b8ff" stroke="#63b8ff" points="783.47,-182.97 772.93,-184.08 781.86,-189.78 783.47,-182.97"/>
</a>
</g>
</g>
<!-- Node18&#45;&gt;Node2 -->
<g id="edge22_Node000018_Node000002" class="edge">
<title>Node18&#45;&gt;Node2</title>
<g id="a_edge22_Node000018_Node000002"><a xlink:title=" ">
<path fill="none" stroke="#63b8ff" d="M315.35,-110.33C243.49,-99.3 117.44,-79.93 57.29,-70.69"/>
<polygon fill="#63b8ff" stroke="#63b8ff" points="57.61,-67.2 47.19,-69.14 56.55,-74.12 57.61,-67.2"/>
</a>
</g>
</g>
<!-- Node18&#45;&gt;Node3 -->
<g id="edge23_Node000018_Node000003" class="edge">
<title>Node18&#45;&gt;Node3</title>
<g id="a_edge23_Node000018_Node000003"><a xlink:title=" ">
<path fill="none" stroke="#63b8ff" d="M351.63,-109.98C334.89,-101.54 309,-88.47 289.61,-78.68"/>
<polygon fill="#63b8ff" stroke="#63b8ff" points="291.18,-75.55 280.68,-74.17 288.03,-81.8 291.18,-75.55"/>
</a>
</g>
</g>
<!-- Node18&#45;&gt;Node6 -->
<g id="edge27_Node000018_Node000006" class="edge">
<title>Node18&#45;&gt;Node6</title>
<g id="a_edge27_Node000018_Node000006"><a xlink:title=" ">
<path fill="none" stroke="#63b8ff" d="M328.01,-109.98C278.45,-99.56 195.46,-82.11 149.55,-72.45"/>
<polygon fill="#63b8ff" stroke="#63b8ff" points="150.04,-68.98 139.53,-70.34 148.6,-75.83 150.04,-68.98"/>
</a>
</g>
</g>
<!-- Node18&#45;&gt;Node9 -->
<g id="edge30_Node000018_Node000009" class="edge">
<title>Node18&#45;&gt;Node9</title>
<g id="a_edge30_Node000018_Node000009"><a xlink:title=" ">
<path fill="none" stroke="#63b8ff" d="M341.03,-109.98C311.72,-100.9 265.2,-86.48 233.1,-76.53"/>
<polygon fill="#63b8ff" stroke="#63b8ff" points="233.82,-73.09 223.23,-73.47 231.74,-79.78 233.82,-73.09"/>
</a>
</g>
</g>
<!-- Node18&#45;&gt;Node11 -->
<g id="edge26_Node000018_Node000011" class="edge">
<title>Node18&#45;&gt;Node11</title>
<g id="a_edge26_Node000018_Node000011"><a xlink:title=" ">
<path fill="none" stroke="#63b8ff" d="M421.55,-115.89C456.71,-114.17 503.86,-111.9 545.5,-110 931.93,-92.32 1400.47,-72.58 1533.02,-67.03"/>
<polygon fill="#63b8ff" stroke="#63b8ff" points="1533.54,-70.51 1543.39,-66.59 1533.25,-63.51 1533.54,-70.51"/>
</a>
</g>
</g>
<!-- Node19 -->
<g id="Node000019" class="node">
<title>Node19</title>
<g id="a_Node000019"><a xlink:title=" ">
<polygon fill="#e0e0e0" stroke="#999999" points="533,-74 468,-74 468,-55 533,-55 533,-74"/>
<text text-anchor="middle" x="500.5" y="-62" font-family="Helvetica,sans-Serif" font-size="10.00">netinet/in.h</text>
</a>
</g>
</g>
<!-- Node18&#45;&gt;Node19 -->
<g id="edge24_Node000018_Node000019" class="edge">
<title>Node18&#45;&gt;Node19</title>
<g id="a_edge24_Node000018_Node000019"><a xlink:title=" ">
<path fill="none" stroke="#63b8ff" d="M389.71,-109.98C411.23,-101.34 444.78,-87.87 469.33,-78.02"/>
<polygon fill="#63b8ff" stroke="#63b8ff" points="470.93,-81.14 478.91,-74.17 468.32,-74.65 470.93,-81.14"/>
</a>
</g>
</g>
<!-- Node20 -->
<g id="Node000020" class="node">
<title>Node20</title>
<g id="a_Node000020"><a xlink:title=" ">
<polygon fill="#e0e0e0" stroke="#999999" points="375,-74 304,-74 304,-55 375,-55 375,-74"/>
<text text-anchor="middle" x="339.5" y="-62" font-family="Helvetica,sans-Serif" font-size="10.00">netinet/tcp.h</text>
</a>
</g>
</g>
<!-- Node18&#45;&gt;Node20 -->
<g id="edge25_Node000018_Node000020" class="edge">
<title>Node18&#45;&gt;Node20</title>
<g id="a_edge25_Node000018_Node000020"><a xlink:title=" ">
<path fill="none" stroke="#63b8ff" d="M363.71,-109.75C359.74,-102.49 353.97,-91.95 349.07,-82.98"/>
<polygon fill="#63b8ff" stroke="#63b8ff" points="352.07,-81.18 344.2,-74.09 345.93,-84.54 352.07,-81.18"/>
</a>
</g>
</g>
<!-- Node21 -->
<g id="Node000021" class="node">
<title>Node21</title>
<g id="a_Node000021"><a xlink:title=" ">
<polygon fill="#e0e0e0" stroke="#999999" points="624,-74 551,-74 551,-55 624,-55 624,-74"/>
<text text-anchor="middle" x="587.5" y="-62" font-family="Helvetica,sans-Serif" font-size="10.00">sys/socket.h</text>
</a>
</g>
</g>
<!-- Node18&#45;&gt;Node21 -->
<g id="edge28_Node000018_Node000021" class="edge">
<title>Node18&#45;&gt;Node21</title>
<g id="a_edge28_Node000018_Node000021"><a xlink:title=" ">
<path fill="none" stroke="#63b8ff" d="M403.69,-109.98C441.33,-100.87 501.16,-86.4 542.27,-76.45"/>
<polygon fill="#63b8ff" stroke="#63b8ff" points="543.14,-79.84 552.04,-74.08 541.5,-73.03 543.14,-79.84"/>
</a>
</g>
</g>
<!-- Node22 -->
<g id="Node000022" class="node">
<title>Node22</title>
<g id="a_Node000022"><a xlink:title=" ">
<polygon fill="#e0e0e0" stroke="#999999" points="449.5,-74 393.5,-74 393.5,-55 449.5,-55 449.5,-74"/>
<text text-anchor="middle" x="421.5" y="-62" font-family="Helvetica,sans-Serif" font-size="10.00">sys/uio.h</text>
</a>
</g>
</g>
<!-- Node18&#45;&gt;Node22 -->
<g id="edge29_Node000018_Node000022" class="edge">
<title>Node18&#45;&gt;Node22</title>
<g id="a_edge29_Node000018_Node000022"><a xlink:title=" ">
<path fill="none" stroke="#63b8ff" d="M377.25,-109.75C384.97,-102.03 396.4,-90.6 405.72,-81.28"/>
<polygon fill="#63b8ff" stroke="#63b8ff" points="408.31,-83.64 412.91,-74.09 403.36,-78.69 408.31,-83.64"/>
</a>
</g>
</g>
<!-- Node23&#45;&gt;Node11 -->
<g id="edge34_Node000023_Node000011" class="edge">
<title>Node23&#45;&gt;Node11</title>
<g id="a_edge34_Node000023_Node000011"><a xlink:title=" ">
<path fill="none" stroke="#63b8ff" d="M1085.72,-164.78C1115.5,-150.92 1176.77,-123.98 1231.5,-110 1339.1,-82.51 1470.56,-71.41 1533.09,-67.44"/>
<polygon fill="#63b8ff" stroke="#63b8ff" points="1533.46,-70.93 1543.23,-66.82 1533.04,-63.94 1533.46,-70.93"/>
</a>
</g>
</g>
<!-- Node23&#45;&gt;Node12 -->
<g id="edge32_Node000023_Node000012" class="edge">
<title>Node23&#45;&gt;Node12</title>
<g id="a_edge32_Node000023_Node000012"><a xlink:title=" ">
<path fill="none" stroke="#63b8ff" d="M1073.06,-164.66C1084.33,-146.77 1110,-106 1124.67,-82.69"/>
<polygon fill="#63b8ff" stroke="#63b8ff" points="1127.68,-84.49 1130.05,-74.16 1121.76,-80.76 1127.68,-84.49"/>
</a>
</g>
</g>
<!-- Node23&#45;&gt;Node21 -->
<g id="edge35_Node000023_Node000021" class="edge">
<title>Node23&#45;&gt;Node21</title>
<g id="a_edge35_Node000023_Node000021"><a xlink:title=" ">
<path fill="none" stroke="#63b8ff" d="M1066.58,-164.81C1064.58,-150.73 1058.46,-123.19 1040.5,-110 1008.26,-86.33 743.66,-72.26 634.41,-67.42"/>
<polygon fill="#63b8ff" stroke="#63b8ff" points="634.48,-63.92 624.34,-66.98 634.17,-70.91 634.48,-63.92"/>
</a>
</g>
</g>
<!-- Node24 -->
<g id="Node000024" class="node">
<title>Node24</title>
<g id="a_Node000024"><a xlink:title=" ">
<polygon fill="#e0e0e0" stroke="#999999" points="1031,-129 982,-129 982,-110 1031,-110 1031,-129"/>
<text text-anchor="middle" x="1006.5" y="-117" font-family="Helvetica,sans-Serif" font-size="10.00">netdb.h</text>
</a>
</g>
</g>
<!-- Node23&#45;&gt;Node24 -->
<g id="edge33_Node000023_Node000024" class="edge">
<title>Node23&#45;&gt;Node24</title>
<g id="a_edge33_Node000023_Node000024"><a xlink:title=" ">
<path fill="none" stroke="#63b8ff" d="M1057.7,-164.98C1048.68,-157.15 1035.09,-145.34 1024.18,-135.86"/>
<polygon fill="#63b8ff" stroke="#63b8ff" points="1026.32,-133.09 1016.48,-129.17 1021.73,-138.37 1026.32,-133.09"/>
</a>
</g>
</g>
<!-- Node25&#45;&gt;Node3 -->
<g id="edge39_Node000025_Node000003" class="edge">
<title>Node25&#45;&gt;Node3</title>
<g id="a_edge39_Node000025_Node000003"><a xlink:title=" ">
<path fill="none" stroke="#63b8ff" d="M672.33,-173.39C567.86,-172.15 366.63,-164.99 306.5,-129 289.24,-118.67 277.37,-98.4 270.54,-83.54"/>
<polygon fill="#63b8ff" stroke="#63b8ff" points="273.75,-82.13 266.62,-74.29 267.31,-84.87 273.75,-82.13"/>
</a>
</g>
</g>
<!-- Node25&#45;&gt;Node10 -->
<g id="edge46_Node000025_Node000010" class="edge">
<title>Node25&#45;&gt;Node10</title>
<g id="a_edge46_Node000025_Node000010"><a xlink:title=" ">
<path fill="none" stroke="#63b8ff" d="M800.83,-169.41C962.43,-159.13 1382.54,-132.4 1522.99,-123.46"/>
<polygon fill="#63b8ff" stroke="#63b8ff" points="1523.64,-126.93 1533.39,-122.8 1523.19,-119.94 1523.64,-126.93"/>
</a>
</g>
</g>
<!-- Node25&#45;&gt;Node12 -->
<g id="edge47_Node000025_Node000012" class="edge">
<title>Node25&#45;&gt;Node12</title>
<g id="a_edge47_Node000025_Node000012"><a xlink:title=" ">
<path fill="none" stroke="#63b8ff" d="M743.63,-164.75C755.73,-150.58 781.78,-122.91 810.5,-110 858.84,-88.26 1008.71,-74.61 1086.9,-68.78"/>
<polygon fill="#63b8ff" stroke="#63b8ff" points="1087.27,-72.26 1096.99,-68.04 1086.76,-65.28 1087.27,-72.26"/>
</a>
</g>
</g>
<!-- Node25&#45;&gt;Node18 -->
<g id="edge48_Node000025_Node000018" class="edge">
<title>Node25&#45;&gt;Node18</title>
<g id="a_edge48_Node000025_Node000018"><a xlink:title=" ">
<path fill="none" stroke="#63b8ff" d="M677.37,-164.98C610.12,-155.3 500.73,-139.54 431.79,-129.62"/>
<polygon fill="#63b8ff" stroke="#63b8ff" points="431.9,-126.1 421.51,-128.13 430.91,-133.02 431.9,-126.1"/>
</a>
</g>
</g>
<!-- Node25&#45;&gt;Node19 -->
<g id="edge41_Node000025_Node000019" class="edge">
<title>Node25&#45;&gt;Node19</title>
<g id="a_edge41_Node000025_Node000019"><a xlink:title=" ">
<path fill="none" stroke="#63b8ff" d="M672.42,-172.38C630.2,-168.69 575.68,-157.99 536.5,-129 521.4,-117.83 511.72,-98.31 506.24,-83.85"/>
<polygon fill="#63b8ff" stroke="#63b8ff" points="509.42,-82.32 502.85,-74 502.8,-84.6 509.42,-82.32"/>
</a>
</g>
</g>
<!-- Node25&#45;&gt;Node21 -->
<g id="edge42_Node000025_Node000021" class="edge">
<title>Node25&#45;&gt;Node21</title>
<g id="a_edge42_Node000025_Node000021"><a xlink:title=" ">
<path fill="none" stroke="#63b8ff" d="M672.06,-167.02C622.97,-160.6 561.22,-148.8 545.5,-129 532.9,-113.13 550.45,-93.5 566.56,-80.3"/>
<polygon fill="#63b8ff" stroke="#63b8ff" points="568.9,-82.92 574.68,-74.04 564.62,-77.37 568.9,-82.92"/>
</a>
</g>
</g>
<!-- Node25&#45;&gt;Node24 -->
<g id="edge40_Node000025_Node000024" class="edge">
<title>Node25&#45;&gt;Node24</title>
<g id="a_edge40_Node000025_Node000024"><a xlink:title=" ">
<path fill="none" stroke="#63b8ff" d="M779.88,-164.98C833.21,-154.52 922.65,-136.96 971.71,-127.33"/>
<polygon fill="#63b8ff" stroke="#63b8ff" points="972.69,-130.7 981.82,-125.34 971.34,-123.84 972.69,-130.7"/>
</a>
</g>
</g>
<!-- Node26 -->
<g id="Node000026" class="node">
<title>Node26</title>
<g id="a_Node000026"><a xlink:title=" ">
<polygon fill="#e0e0e0" stroke="#999999" points="611,-129 554,-129 554,-110 611,-110 611,-129"/>
<text text-anchor="middle" x="582.5" y="-117" font-family="Helvetica,sans-Serif" font-size="10.00">pthread.h</text>
</a>
</g>
</g>
<!-- Node25&#45;&gt;Node26 -->
<g id="edge37_Node000025_Node000026" class="edge">
<title>Node25&#45;&gt;Node26</title>
<g id="a_edge37_Node000025_Node000026"><a xlink:title=" ">
<path fill="none" stroke="#63b8ff" d="M711.76,-164.98C686.13,-156.16 645.87,-142.31 617.09,-132.41"/>
<polygon fill="#63b8ff" stroke="#63b8ff" points="618.03,-129.03 607.44,-129.08 615.75,-135.65 618.03,-129.03"/>
</a>
</g>
</g>
<!-- Node27 -->
<g id="Node000027" class="node">
<title>Node27</title>
<g id="a_Node000027"><a xlink:title=" ">
<polygon fill="#e0e0e0" stroke="#999999" points="1363.5,-129 1307.5,-129 1307.5,-110 1363.5,-110 1363.5,-129"/>
<text text-anchor="middle" x="1335.5" y="-117" font-family="Helvetica,sans-Serif" font-size="10.00">stdbool.h</text>
</a>
</g>
</g>
<!-- Node25&#45;&gt;Node27 -->
<g id="edge38_Node000025_Node000027" class="edge">
<title>Node25&#45;&gt;Node27</title>
<g id="a_edge38_Node000025_Node000027"><a xlink:title=" ">
<path fill="none" stroke="#63b8ff" d="M800.91,-171.47C903.89,-167.56 1112.05,-156.88 1297.38,-128.94"/>
<polygon fill="#63b8ff" stroke="#63b8ff" points="1297.94,-132.4 1307.3,-127.43 1296.89,-125.48 1297.94,-132.4"/>
</a>
</g>
</g>
<!-- Node28 -->
<g id="Node000028" class="node">
<title>Node28</title>
<g id="a_Node000028"><a xlink:title=" ">
<polygon fill="#e0e0e0" stroke="#999999" points="691.5,-129 629.5,-129 629.5,-110 691.5,-110 691.5,-129"/>
<text text-anchor="middle" x="660.5" y="-117" font-family="Helvetica,sans-Serif" font-size="10.00">sys/time.h</text>
</a>
</g>
</g>
<!-- Node25&#45;&gt;Node28 -->
<g id="edge43_Node000025_Node000028" class="edge">
<title>Node25&#45;&gt;Node28</title>
<g id="a_edge43_Node000025_Node000028"><a xlink:title=" ">
<path fill="none" stroke="#63b8ff" d="M724.29,-164.98C712.72,-156.92 695.12,-144.65 681.34,-135.03"/>
<polygon fill="#63b8ff" stroke="#63b8ff" points="683.14,-132.02 672.93,-129.17 679.13,-137.76 683.14,-132.02"/>
</a>
</g>
</g>
<!-- Node29 -->
<g id="Node000029" class="node">
<title>Node29</title>
<g id="a_Node000029"><a xlink:title=" ">
<polygon fill="#e0e0e0" stroke="#999999" points="887.5,-129 819.5,-129 819.5,-110 887.5,-110 887.5,-129"/>
<text text-anchor="middle" x="853.5" y="-117" font-family="Helvetica,sans-Serif" font-size="10.00">sys/types.h</text>
</a>
</g>
</g>
<!-- Node25&#45;&gt;Node29 -->
<g id="edge44_Node000025_Node000029" class="edge">
<title>Node25&#45;&gt;Node29</title>
<g id="a_edge44_Node000025_Node000029"><a xlink:title=" ">
<path fill="none" stroke="#63b8ff" d="M755.3,-164.98C774.12,-156.46 803.32,-143.23 825,-133.41"/>
<polygon fill="#63b8ff" stroke="#63b8ff" points="826.7,-136.48 834.36,-129.17 823.81,-130.11 826.7,-136.48"/>
</a>
</g>
</g>
<!-- Node30 -->
<g id="Node000030" class="node">
<title>Node30</title>
<g id="a_Node000030"><a xlink:title=" ">
<polygon fill="#e0e0e0" stroke="#999999" points="763.5,-129 709.5,-129 709.5,-110 763.5,-110 763.5,-129"/>
<text text-anchor="middle" x="736.5" y="-117" font-family="Helvetica,sans-Serif" font-size="10.00">sys/un.h</text>
</a>
</g>
</g>
<!-- Node25&#45;&gt;Node30 -->
<g id="edge45_Node000025_Node000030" class="edge">
<title>Node25&#45;&gt;Node30</title>
<g id="a_edge45_Node000025_Node000030"><a xlink:title=" ">
<path fill="none" stroke="#63b8ff" d="M736.5,-164.75C736.5,-157.8 736.5,-147.85 736.5,-139.13"/>
<polygon fill="#63b8ff" stroke="#63b8ff" points="740,-139.09 736.5,-129.09 733,-139.09 740,-139.09"/>
</a>
</g>
</g>
<!-- Node31&#45;&gt;Node10 -->
<g id="edge50_Node000031_Node000010" class="edge">
<title>Node31&#45;&gt;Node10</title>
<g id="a_edge50_Node000031_Node000010"><a xlink:title=" ">
<path fill="none" stroke="#63b8ff" d="M1451.79,-330.42C1479.88,-323.98 1514.88,-312.82 1541.5,-294 1591.73,-258.5 1605.79,-242.27 1625.5,-184 1628.21,-176 1629.17,-172.61 1625.5,-165 1619.28,-152.12 1607.32,-141.82 1596.04,-134.38"/>
<polygon fill="#63b8ff" stroke="#63b8ff" points="1597.63,-131.25 1587.27,-129.04 1593.99,-137.23 1597.63,-131.25"/>
</a>
</g>
</g>
<!-- Node31&#45;&gt;Node11 -->
<g id="edge70_Node000031_Node000011" class="edge">
<title>Node31&#45;&gt;Node11</title>
<g id="a_edge70_Node000031_Node000011"><a xlink:title=" ">
<path fill="none" stroke="#63b8ff" d="M1451.65,-332.29C1540.33,-319.5 1720.5,-286.61 1720.5,-230.5 1720.5,-230.5 1720.5,-230.5 1720.5,-173.5 1720.5,-117.17 1650.11,-87.41 1605.45,-74.2"/>
<polygon fill="#63b8ff" stroke="#63b8ff" points="1606.38,-70.83 1595.8,-71.49 1604.48,-77.57 1606.38,-70.83"/>
</a>
</g>
</g>
<!-- Node31&#45;&gt;Node12 -->
<g id="edge51_Node000031_Node000012" class="edge">
<title>Node31&#45;&gt;Node12</title>
<g id="a_edge51_Node000031_Node000012"><a xlink:title=" ">
<path fill="none" stroke="#63b8ff" d="M1399.72,-329.67C1389.97,-306.39 1364.18,-241.21 1355.5,-184 1354.23,-175.65 1353.65,-173.24 1355.5,-165 1359.37,-147.73 1368.63,-146.27 1372.5,-129 1374.35,-120.76 1377.89,-116.5 1372.5,-110 1349.08,-81.77 1246.66,-71.34 1184.38,-67.56"/>
<polygon fill="#63b8ff" stroke="#63b8ff" points="1184.55,-64.07 1174.37,-66.99 1184.16,-71.06 1184.55,-64.07"/>
</a>
</g>
</g>
<!-- Node31&#45;&gt;Node17 -->
<g id="edge59_Node000031_Node000017" class="edge">
<title>Node31&#45;&gt;Node17</title>
<g id="a_edge59_Node000031_Node000017"><a xlink:title=" ">
<path fill="none" stroke="#63b8ff" d="M1355.19,-333.15C1301.28,-326.56 1211.73,-313.74 1136.5,-294 1084,-280.22 1025.08,-257.2 990.75,-242.99"/>
<polygon fill="#63b8ff" stroke="#63b8ff" points="991.91,-239.68 981.33,-239.05 989.21,-246.14 991.91,-239.68"/>
</a>
</g>
</g>
<!-- Node31&#45;&gt;Node23 -->
<g id="edge58_Node000031_Node000023" class="edge">
<title>Node31&#45;&gt;Node23</title>
<g id="a_edge58_Node000031_Node000023"><a xlink:title=" ">
<path fill="none" stroke="#63b8ff" d="M1388.96,-329.87C1367.5,-317.25 1325.95,-293.28 1289.5,-275 1222.07,-241.19 1140.68,-206.13 1097.63,-188.02"/>
<polygon fill="#63b8ff" stroke="#63b8ff" points="1098.86,-184.74 1088.29,-184.1 1096.15,-191.2 1098.86,-184.74"/>
</a>
</g>
</g>
<!-- Node32 -->
<g id="Node000032" class="node">
<title>Node32</title>
<g id="a_Node000032"><a xlink:href="SocketSYNProtect_8h.html" target="_top" xlink:title="SYN flood protection using IP reputation and adaptive rate limiting.">
<polygon fill="white" stroke="#666666" points="1494.5,-184 1364.5,-184 1364.5,-165 1494.5,-165 1494.5,-184"/>
<text text-anchor="middle" x="1429.5" y="-172" font-family="Helvetica,sans-Serif" font-size="10.00">core/SocketSYNProtect.h</text>
</a>
</g>
</g>
<!-- Node31&#45;&gt;Node32 -->
<g id="edge52_Node000031_Node000032" class="edge">
<title>Node31&#45;&gt;Node32</title>
<g id="a_edge52_Node000031_Node000032"><a xlink:title=" ">
<path fill="none" stroke="#63b8ff" d="M1404.9,-329.74C1408.97,-304.2 1420.9,-229.43 1426.51,-194.23"/>
<polygon fill="#63b8ff" stroke="#63b8ff" points="1429.98,-194.73 1428.1,-184.31 1423.06,-193.63 1429.98,-194.73"/>
</a>
</g>
</g>
<!-- Node33 -->
<g id="Node000033" class="node">
<title>Node33</title>
<g id="a_Node000033"><a xlink:href="SocketBuf_8h.html" target="_top" xlink:title="Circular buffer for efficient socket I/O operations.">
<polygon fill="white" stroke="#666666" points="1616,-184 1513,-184 1513,-165 1616,-165 1616,-184"/>
<text text-anchor="middle" x="1564.5" y="-172" font-family="Helvetica,sans-Serif" font-size="10.00">socket/SocketBuf.h</text>
</a>
</g>
</g>
<!-- Node31&#45;&gt;Node33 -->
<g id="edge60_Node000031_Node000033" class="edge">
<title>Node31&#45;&gt;Node33</title>
<g id="a_edge60_Node000031_Node000033"><a xlink:title=" ">
<path fill="none" stroke="#63b8ff" d="M1412.16,-329.74C1438.04,-303.53 1515.1,-225.51 1548.63,-191.57"/>
<polygon fill="#63b8ff" stroke="#63b8ff" points="1551.26,-193.88 1555.8,-184.31 1546.28,-188.96 1551.26,-193.88"/>
</a>
</g>
</g>
<!-- Node34 -->
<g id="Node000034" class="node">
<title>Node34</title>
<g id="a_Node000034"><a xlink:href="SocketReconnect_8h.html" target="_top" xlink:title="Automatic reconnection framework for resilient TCP connections with backoff and circuit breaker patte...">
<polygon fill="white" stroke="#666666" points="1280,-294 1145,-294 1145,-275 1280,-275 1280,-294"/>
<text text-anchor="middle" x="1212.5" y="-282" font-family="Helvetica,sans-Serif" font-size="10.00">socket/SocketReconnect.h</text>
</a>
</g>
</g>
<!-- Node31&#45;&gt;Node34 -->
<g id="edge65_Node000031_Node000034" class="edge">
<title>Node31&#45;&gt;Node34</title>
<g id="a_edge65_Node000031_Node000034"><a xlink:title=" ">
<path fill="none" stroke="#63b8ff" d="M1372.81,-329.98C1340.33,-320.97 1288.9,-306.7 1253.09,-296.76"/>
<polygon fill="#63b8ff" stroke="#63b8ff" points="1254,-293.38 1243.43,-294.08 1252.13,-300.13 1254,-293.38"/>
</a>
</g>
</g>
<!-- Node35 -->
<g id="Node000035" class="node">
<title>Node35</title>
<g id="a_Node000035"><a xlink:title=" ">
<polygon fill="#e0e0e0" stroke="#999999" points="1532.5,-294 1488.5,-294 1488.5,-275 1532.5,-275 1532.5,-294"/>
<text text-anchor="middle" x="1510.5" y="-282" font-family="Helvetica,sans-Serif" font-size="10.00">time.h</text>
</a>
</g>
</g>
<!-- Node31&#45;&gt;Node35 -->
<g id="edge71_Node000031_Node000035" class="edge">
<title>Node31&#45;&gt;Node35</title>
<g id="a_edge71_Node000031_Node000035"><a xlink:title=" ">
<path fill="none" stroke="#63b8ff" d="M1420.69,-329.98C1437.75,-321.54 1464.13,-308.47 1483.9,-298.68"/>
<polygon fill="#63b8ff" stroke="#63b8ff" points="1485.59,-301.75 1493,-294.17 1482.48,-295.47 1485.59,-301.75"/>
</a>
</g>
</g>
<!-- Node32&#45;&gt;Node10 -->
<g id="edge53_Node000032_Node000010" class="edge">
<title>Node32&#45;&gt;Node10</title>
<g id="a_edge53_Node000032_Node000010"><a xlink:title=" ">
<path fill="none" stroke="#63b8ff" d="M1451.99,-164.98C1475.02,-156.27 1511.04,-142.63 1537.13,-132.75"/>
<polygon fill="#63b8ff" stroke="#63b8ff" points="1538.48,-135.98 1546.6,-129.17 1536.01,-129.44 1538.48,-135.98"/>
</a>
</g>
</g>
<!-- Node32&#45;&gt;Node11 -->
<g id="edge56_Node000032_Node000011" class="edge">
<title>Node32&#45;&gt;Node11</title>
<g id="a_edge56_Node000032_Node000011"><a xlink:title=" ">
<path fill="none" stroke="#63b8ff" d="M1440.96,-164.66C1464.97,-146.14 1520.79,-103.08 1550.35,-80.28"/>
<polygon fill="#63b8ff" stroke="#63b8ff" points="1552.5,-83.04 1558.28,-74.16 1548.22,-77.5 1552.5,-83.04"/>
</a>
</g>
</g>
<!-- Node32&#45;&gt;Node12 -->
<g id="edge54_Node000032_Node000012" class="edge">
<title>Node32&#45;&gt;Node12</title>
<g id="a_edge54_Node000032_Node000012"><a xlink:title=" ">
<path fill="none" stroke="#63b8ff" d="M1428.9,-164.97C1427.44,-151.12 1422.46,-123.89 1405.5,-110 1372.47,-82.94 1252.68,-71.94 1184.28,-67.79"/>
<polygon fill="#63b8ff" stroke="#63b8ff" points="1184.35,-64.29 1174.17,-67.2 1183.95,-71.28 1184.35,-64.29"/>
</a>
</g>
</g>
<!-- Node32&#45;&gt;Node16 -->
<g id="edge57_Node000032_Node000016" class="edge">
<title>Node32&#45;&gt;Node16</title>
<g id="a_edge57_Node000032_Node000016"><a xlink:title=" ">
<path fill="none" stroke="#63b8ff" d="M1402.99,-164.98C1374.63,-155.88 1329.56,-141.4 1298.58,-131.45"/>
<polygon fill="#63b8ff" stroke="#63b8ff" points="1299.65,-128.11 1289.06,-128.39 1297.51,-134.78 1299.65,-128.11"/>
</a>
</g>
</g>
<!-- Node32&#45;&gt;Node18 -->
<g id="edge55_Node000032_Node000018" class="edge">
<title>Node32&#45;&gt;Node18</title>
<g id="a_edge55_Node000032_Node000018"><a xlink:title=" ">
<path fill="none" stroke="#63b8ff" d="M1364.33,-170.24C1173.85,-160.73 619.69,-133.05 431.72,-123.66"/>
<polygon fill="#63b8ff" stroke="#63b8ff" points="431.88,-120.16 421.72,-123.16 431.53,-127.15 431.88,-120.16"/>
</a>
</g>
</g>
<!-- Node33&#45;&gt;Node10 -->
<g id="edge61_Node000033_Node000010" class="edge">
<title>Node33&#45;&gt;Node10</title>
<g id="a_edge61_Node000033_Node000010"><a xlink:title=" ">
<path fill="none" stroke="#63b8ff" d="M1565.33,-164.75C1565.98,-157.8 1566.92,-147.85 1567.74,-139.13"/>
<polygon fill="#63b8ff" stroke="#63b8ff" points="1571.23,-139.37 1568.69,-129.09 1564.27,-138.72 1571.23,-139.37"/>
</a>
</g>
</g>
<!-- Node33&#45;&gt;Node11 -->
<g id="edge63_Node000033_Node000011" class="edge">
<title>Node33&#45;&gt;Node11</title>
<g id="a_edge63_Node000033_Node000011"><a xlink:title=" ">
<path fill="none" stroke="#63b8ff" d="M1579.93,-164.8C1591.85,-157.11 1607.46,-144.69 1614.5,-129 1622.67,-110.8 1606.44,-92.47 1591.25,-80.21"/>
<polygon fill="#63b8ff" stroke="#63b8ff" points="1593.17,-77.28 1583.07,-74.07 1588.96,-82.88 1593.17,-77.28"/>
</a>
</g>
</g>
<!-- Node33&#45;&gt;Node12 -->
<g id="edge64_Node000033_Node000012" class="edge">
<title>Node33&#45;&gt;Node12</title>
<g id="a_edge64_Node000033_Node000012"><a xlink:title=" ">
<path fill="none" stroke="#63b8ff" d="M1549.21,-164.8C1524.18,-150.96 1472.53,-124.05 1425.5,-110 1342.86,-85.3 1242.66,-73.81 1184.29,-68.86"/>
<polygon fill="#63b8ff" stroke="#63b8ff" points="1184.5,-65.36 1174.24,-68.03 1183.92,-72.34 1184.5,-65.36"/>
</a>
</g>
</g>
<!-- Node33&#45;&gt;Node27 -->
<g id="edge62_Node000033_Node000027" class="edge">
<title>Node33&#45;&gt;Node27</title>
<g id="a_edge62_Node000033_Node000027"><a xlink:title=" ">
<path fill="none" stroke="#63b8ff" d="M1527.71,-164.98C1485.34,-155.18 1416.08,-139.15 1373.29,-129.25"/>
<polygon fill="#63b8ff" stroke="#63b8ff" points="1374.07,-125.83 1363.54,-126.99 1372.49,-132.65 1374.07,-125.83"/>
</a>
</g>
</g>
<!-- Node34&#45;&gt;Node11 -->
<g id="edge68_Node000034_Node000011" class="edge">
<title>Node34&#45;&gt;Node11</title>
<g id="a_edge68_Node000034_Node000011"><a xlink:title=" ">
<path fill="none" stroke="#63b8ff" d="M1280.43,-276.74C1385.87,-264.74 1581.43,-235.95 1625.5,-184 1646.81,-158.88 1644.31,-139.42 1629.5,-110 1622.81,-96.71 1610.06,-86.39 1598.03,-79.05"/>
<polygon fill="#63b8ff" stroke="#63b8ff" points="1599.51,-75.87 1589.08,-74.02 1596.08,-81.97 1599.51,-75.87"/>
</a>
</g>
</g>
<!-- Node34&#45;&gt;Node12 -->
<g id="edge66_Node000034_Node000012" class="edge">
<title>Node34&#45;&gt;Node12</title>
<g id="a_edge66_Node000034_Node000012"><a xlink:title=" ">
<path fill="none" stroke="#63b8ff" d="M1218.69,-274.87C1232.2,-254.89 1261.79,-204.19 1244.5,-165 1227.39,-126.21 1186.85,-95.99 1160.32,-79.47"/>
<polygon fill="#63b8ff" stroke="#63b8ff" points="1161.96,-76.37 1151.59,-74.21 1158.35,-82.37 1161.96,-76.37"/>
</a>
</g>
</g>
<!-- Node34&#45;&gt;Node17 -->
<g id="edge67_Node000034_Node000017" class="edge">
<title>Node34&#45;&gt;Node17</title>
<g id="a_edge67_Node000034_Node000017"><a xlink:title=" ">
<path fill="none" stroke="#63b8ff" d="M1172.17,-274.98C1128.66,-265.8 1059.3,-251.15 1012.15,-241.19"/>
<polygon fill="#63b8ff" stroke="#63b8ff" points="1012.65,-237.72 1002.14,-239.08 1011.2,-244.57 1012.65,-237.72"/>
</a>
</g>
</g>
<!-- Node34&#45;&gt;Node29 -->
<g id="edge69_Node000034_Node000029" class="edge">
<title>Node34&#45;&gt;Node29</title>
<g id="a_edge69_Node000034_Node000029"><a xlink:title=" ">
<path fill="none" stroke="#63b8ff" d="M1193.7,-274.97C1134.59,-248.13 952.22,-165.32 881.72,-133.31"/>
<polygon fill="#63b8ff" stroke="#63b8ff" points="883.1,-130.09 872.54,-129.15 880.2,-136.47 883.1,-130.09"/>
</a>
</g>
</g>
</g>
</svg>
