<?xml version="1.0" encoding="UTF-8" standalone="no"?>
<!DOCTYPE svg PUBLIC "-//W3C//DTD SVG 1.1//EN"
 "http://www.w3.org/Graphics/SVG/1.1/DTD/svg11.dtd">
<!-- Generated by graphviz version 2.43.0 (0)
 -->
<!-- Title: TLS Configuration Constants Pages: 1 -->
<svg width="368pt" height="34pt"
 viewBox="0.00 0.00 368.00 34.43" xmlns="http://www.w3.org/2000/svg" xmlns:xlink="http://www.w3.org/1999/xlink">
<g id="graph0" class="graph" transform="scale(1 1) rotate(0) translate(4 30.43)">
<title>TLS Configuration Constants</title>
<!-- Node2 -->
<g id="Node000002" class="node">
<title>Node2</title>
<g id="a_Node000002"><a xlink:href="group__security.html" target="_top" xlink:title="Comprehensive security protections for network applications.">
<polygon fill="white" stroke="#666666" points="92,-26.43 0,-26.43 0,-7.43 92,-7.43 92,-26.43"/>
<text text-anchor="middle" x="46" y="-14.43" font-family="Helvetica,sans-Serif" font-size="10.00">Security Modules</text>
</a>
</g>
</g>
<!-- Node1 -->
<g id="Node000001" class="node">
<title>Node1</title>
<g id="a_Node000001"><a xlink:title="Secure default constants for TLS protocol versions, cipher suites, timeouts, buffers,...">
<polygon fill="#999999" stroke="#666666" points="360,-26.43 217,-26.43 217,-7.43 360,-7.43 360,-26.43"/>
<text text-anchor="middle" x="288.5" y="-14.43" font-family="Helvetica,sans-Serif" font-size="10.00">TLS Configuration Constants</text>
</a>
</g>
</g>
<!-- Node2&#45;&gt;Node1 -->
<g id="edge1" class="edge">
<title>Node2&#45;&gt;Node1</title>
<path fill="none" stroke="black" d="M102.46,-16.93C136.51,-16.93 180.43,-16.93 216.93,-16.93"/>
<polygon fill="black" stroke="black" points="102.24,-13.43 92.24,-16.93 102.24,-20.43 102.24,-13.43"/>
</g>
<!-- Node1&#45;&gt;Node2 -->
<g id="edge2" class="edge">
<title>Node1&#45;&gt;Node2</title>
<path fill="none" stroke="orange" stroke-dasharray="5,2" d="M236.18,-7.42C224.04,-5.55 211.1,-3.88 199,-2.93 159.57,0.17 149.32,1.38 110,-2.93 101.31,-3.89 92.07,-5.56 83.42,-7.42"/>
<text text-anchor="middle" x="154.5" y="-5.93" font-family="Helvetica,sans-Serif" font-size="10.00">SocketTLSConfig_T</text>
</g>
</g>
</svg>
