<?xml version="1.0" encoding="UTF-8" standalone="no"?>
<!DOCTYPE svg PUBLIC "-//W3C//DTD SVG 1.1//EN"
 "http://www.w3.org/Graphics/SVG/1.1/DTD/svg11.dtd">
<!-- Generated by graphviz version 2.43.0 (0)
 -->
<!-- Title: Polling Backend Interface Pages: 1 -->
<svg width="441pt" height="27pt"
 viewBox="0.00 0.00 441.00 27.00" xmlns="http://www.w3.org/2000/svg" xmlns:xlink="http://www.w3.org/1999/xlink">
<g id="graph0" class="graph" transform="scale(1 1) rotate(0) translate(4 23)">
<title>Polling Backend Interface</title>
<!-- Node3 -->
<g id="Node000003" class="node">
<title>Node3</title>
<g id="a_Node000003"><a xlink:href="group__backend__functions.html" target="_top" xlink:title="Essential functions for polling backend operations and lifecycle.">
<polygon fill="white" stroke="#666666" points="433,-19 319,-19 319,0 433,0 433,-19"/>
<text text-anchor="middle" x="376" y="-7" font-family="Helvetica,sans-Serif" font-size="10.00">Backend Function API</text>
</a>
</g>
</g>
<!-- Node2 -->
<g id="Node000002" class="node">
<title>Node2</title>
<g id="a_Node000002"><a xlink:href="group__event__system.html" target="_top" xlink:title="High&#45;performance I/O multiplexing with cross&#45;platform backends.">
<polygon fill="white" stroke="#666666" points="119,-19 0,-19 0,0 119,0 119,-19"/>
<text text-anchor="middle" x="59.5" y="-7" font-family="Helvetica,sans-Serif" font-size="10.00">Event System Modules</text>
</a>
</g>
</g>
<!-- Node1 -->
<g id="Node000001" class="node">
<title>Node1</title>
<g id="a_Node000001"><a xlink:title="Internal platform abstraction for efficient I/O event multiplexing.">
<polygon fill="#999999" stroke="#666666" points="283,-19 155,-19 155,0 283,0 283,-19"/>
<text text-anchor="middle" x="219" y="-7" font-family="Helvetica,sans-Serif" font-size="10.00">Polling Backend Interface</text>
</a>
</g>
</g>
<!-- Node2&#45;&gt;Node1 -->
<g id="edge1" class="edge">
<title>Node2&#45;&gt;Node1</title>
<path fill="none" stroke="black" d="M129.36,-9.5C137.83,-9.5 146.44,-9.5 154.81,-9.5"/>
<polygon fill="black" stroke="black" points="129.15,-6 119.15,-9.5 129.15,-13 129.15,-6"/>
</g>
<!-- Node1&#45;&gt;Node3 -->
<g id="edge2" class="edge">
<title>Node1&#45;&gt;Node3</title>
<path fill="none" stroke="black" d="M293.17,-9.5C301.85,-9.5 310.6,-9.5 318.99,-9.5"/>
<polygon fill="black" stroke="black" points="293.04,-6 283.04,-9.5 293.04,-13 293.04,-6"/>
</g>
</g>
</svg>
