<?xml version="1.0" encoding="UTF-8" standalone="no"?>
<!DOCTYPE svg PUBLIC "-//W3C//DTD SVG 1.1//EN"
 "http://www.w3.org/Graphics/SVG/1.1/DTD/svg11.dtd">
<!-- Generated by graphviz version 2.43.0 (0)
 -->
<!-- Title: Security Modules Pages: 1 -->
<svg width="368pt" height="235pt"
 viewBox="0.00 0.00 368.00 234.50" xmlns="http://www.w3.org/2000/svg" xmlns:xlink="http://www.w3.org/1999/xlink">

<svg id="main" version="1.1" xmlns="http://www.w3.org/2000/svg" xmlns:xlink="http://www.w3.org/1999/xlink" xml:space="preserve" onload="init(evt)">
<style type="text/css"><![CDATA[
.node, .edge {opacity: 0.7;}
.node.selected, .edge.selected {opacity: 1;}
.edge:hover path { stroke: red; }
.edge:hover polygon { stroke: red; fill: red; }
]]></style>
<script type="application/ecmascript" xlink:href="svg.min.js"/>
<svg id="graph" class="graph">
<g id="graph0" class="graph" transform="scale(1 1) rotate(0) translate(4 230.5)">
<title>Security Modules</title>
<!-- Node3 -->
<g id="Node000003" class="node">
<title>Node3</title>
<g id="a_Node000003"><a xlink:href="group__dtls.html" target="_top" xlink:title="Secure datagram communication using DTLS over UDP sockets.">
<polygon fill="white" stroke="#666666" points="346,-226.5 231,-226.5 231,-196.5 346,-196.5 346,-226.5"/>
<text text-anchor="start" x="239" y="-214.5" font-family="Helvetica,sans-Serif" font-size="10.00">Datagram TLS (DTLS)</text>
<text text-anchor="middle" x="288.5" y="-203.5" font-family="Helvetica,sans-Serif" font-size="10.00"> Module</text>
</a>
</g>
</g>
<!-- Node4 -->
<g id="Node000004" class="node">
<title>Node4</title>
<g id="a_Node000004"><a xlink:href="group__dtls__config.html" target="_top" xlink:title="Secure default constants for DTLS protocol parameters, MTU management, cookie protection,...">
<polygon fill="white" stroke="#666666" points="340,-178.5 237,-178.5 237,-148.5 340,-148.5 340,-178.5"/>
<text text-anchor="start" x="245" y="-166.5" font-family="Helvetica,sans-Serif" font-size="10.00">DTLS Configuration</text>
<text text-anchor="middle" x="288.5" y="-155.5" font-family="Helvetica,sans-Serif" font-size="10.00"> Constants</text>
</a>
</g>
</g>
<!-- Node5 -->
<g id="Node000005" class="node">
<title>Node5</title>
<g id="a_Node000005"><a xlink:href="group__dtls__context.html" target="_top" xlink:title="Secure DTLS context configuration and lifecycle management.">
<polygon fill="white" stroke="#666666" points="358,-130 219,-130 219,-111 358,-111 358,-130"/>
<text text-anchor="middle" x="288.5" y="-118" font-family="Helvetica,sans-Serif" font-size="10.00">DTLS Context Management</text>
</a>
</g>
</g>
<!-- Node2 -->
<g id="Node000002" class="node">
<title>Node2</title>
<g id="a_Node000002"><a xlink:href="group__ip__tracker.html" target="_top" xlink:title="Per&#45;IP connection tracking for rate limiting and DoS protection.">
<polygon fill="white" stroke="#666666" points="348,-93 229,-93 229,-74 348,-74 348,-93"/>
<text text-anchor="middle" x="288.5" y="-81" font-family="Helvetica,sans-Serif" font-size="10.00">IP Connection Tracking</text>
</a>
</g>
</g>
<!-- Node1 -->
<g id="Node000001" class="node">
<title>Node1</title>
<g id="a_Node000001"><a xlink:title="Comprehensive security protections for network applications.">
<polygon fill="#999999" stroke="#666666" points="92,-104 0,-104 0,-85 92,-85 92,-104"/>
<text text-anchor="middle" x="46" y="-92" font-family="Helvetica,sans-Serif" font-size="10.00">Security Modules</text>
</a>
</g>
</g>
<!-- Node1&#45;&gt;Node3 -->
<g id="edge2" class="edge">
<title>Node1&#45;&gt;Node3</title>
<path fill="none" stroke="black" d="M64.01,-111.14C76.08,-122.27 93.08,-136.63 110,-146.5 147.99,-168.65 194.84,-185.42 230.87,-196.38"/>
<polygon fill="black" stroke="black" points="66.17,-108.38 56.5,-104.05 61.36,-113.46 66.17,-108.38"/>
</g>
<!-- Node1&#45;&gt;Node4 -->
<g id="edge3" class="edge">
<title>Node1&#45;&gt;Node4</title>
<path fill="none" stroke="black" d="M75.99,-108.17C86.54,-112.81 98.67,-117.76 110,-121.5 151.95,-135.34 200.89,-146.57 236.74,-153.92"/>
<polygon fill="black" stroke="black" points="77.36,-104.94 66.8,-104.03 74.49,-111.33 77.36,-104.94"/>
</g>
<!-- Node1&#45;&gt;Node5 -->
<g id="edge4" class="edge">
<title>Node1&#45;&gt;Node5</title>
<path fill="none" stroke="black" d="M102.23,-102.54C104.86,-102.87 107.46,-103.2 110,-103.5 145.81,-107.77 185.79,-111.67 218.72,-114.66"/>
<polygon fill="black" stroke="black" points="102.42,-99.03 92.05,-101.19 101.5,-105.97 102.42,-99.03"/>
</g>
<!-- Node1&#45;&gt;Node2 -->
<g id="edge1" class="edge">
<title>Node1&#45;&gt;Node2</title>
<path fill="none" stroke="black" d="M102.56,-91.96C140.38,-90.23 190.35,-87.94 228.81,-86.18"/>
<polygon fill="black" stroke="black" points="102.07,-88.48 92.24,-92.43 102.39,-95.47 102.07,-88.48"/>
</g>
<!-- Node6 -->
<g id="Node000006" class="node">
<title>Node6</title>
<g id="a_Node000006"><a xlink:href="group__tls__config.html" target="_top" xlink:title="Secure default constants for TLS protocol versions, cipher suites, timeouts, buffers,...">
<polygon fill="white" stroke="#666666" points="360,-56 217,-56 217,-37 360,-37 360,-56"/>
<text text-anchor="middle" x="288.5" y="-44" font-family="Helvetica,sans-Serif" font-size="10.00">TLS Configuration Constants</text>
</a>
</g>
</g>
<!-- Node1&#45;&gt;Node6 -->
<g id="edge5" class="edge">
<title>Node1&#45;&gt;Node6</title>
<path fill="none" stroke="black" d="M102.18,-83.49C143.68,-75.2 199.96,-63.97 239.58,-56.06"/>
<polygon fill="black" stroke="black" points="101.36,-80.08 92.24,-85.47 102.73,-86.95 101.36,-80.08"/>
</g>
<!-- Node1&#45;&gt;Node6 -->
<g id="edge7" class="edge">
<title>Node1&#45;&gt;Node6</title>
<path fill="none" stroke="orange" stroke-dasharray="5,2" d="M56.61,-84.71C68.12,-73.74 88.56,-56.57 110,-49.5 143.95,-38.3 183.58,-36.64 216.77,-38.16"/>
<text text-anchor="middle" x="154.5" y="-52.5" font-family="Helvetica,sans-Serif" font-size="10.00">SocketTLSConfig_T</text>
</g>
<!-- Node7 -->
<g id="Node000007" class="node">
<title>Node7</title>
<g id="a_Node000007"><a xlink:href="group__tls__context.html" target="_top" xlink:title="Secure TLS context configuration, certificate handling, and advanced features like OCSP stapling,...">
<polygon fill="white" stroke="#666666" points="354,-19 223,-19 223,0 354,0 354,-19"/>
<text text-anchor="middle" x="288.5" y="-7" font-family="Helvetica,sans-Serif" font-size="10.00">TLS Context Management</text>
</a>
</g>
</g>
<!-- Node1&#45;&gt;Node7 -->
<g id="edge6" class="edge">
<title>Node1&#45;&gt;Node7</title>
<path fill="none" stroke="black" d="M60.18,-76.97C71.71,-63.03 89.73,-44.3 110,-34.5 144.88,-17.63 187.81,-11.26 222.72,-9.16"/>
<polygon fill="black" stroke="black" points="57.36,-74.9 53.89,-84.91 62.85,-79.25 57.36,-74.9"/>
</g>
</g>
</svg>
</svg>

<style type='text/css'>
<![CDATA[
[data-mouse-over-selected='false'] { opacity: 0.7; }
[data-mouse-over-selected='true']  { opacity: 1.0; }
]]>
</style>
<script type="application/ecmascript"><![CDATA[
document.addEventListener('DOMContentLoaded', (event) => {
  highlightEdges();
  highlightAdjacentNodes();
});
]]></script>
</svg>
