<?xml version="1.0" encoding="UTF-8" standalone="no"?>
<!DOCTYPE svg PUBLIC "-//W3C//DTD SVG 1.1//EN"
 "http://www.w3.org/Graphics/SVG/1.1/DTD/svg11.dtd">
<!-- Generated by graphviz version 2.43.0 (0)
 -->
<!-- Title: HTTP Modules Pages: 1 -->
<!--zoomable 538 -->

<svg id="main" version="1.1" xmlns="http://www.w3.org/2000/svg" xmlns:xlink="http://www.w3.org/1999/xlink" xml:space="preserve" onload="init(evt)">
<style type="text/css"><![CDATA[
.node, .edge {opacity: 0.7;}
.node.selected, .edge.selected {opacity: 1;}
.edge:hover path { stroke: red; }
.edge:hover polygon { stroke: red; fill: red; }
]]></style>

<defs>
  <circle id="rim" cx="0" cy="0" r="7"/>
  <circle id="rim2" cx="0" cy="0" r="3.5"/>
  <g id="zoomPlus">
    <use xlink:href="#rim" fill="#404040"><set attributeName="fill" to="#808080" begin="zoomplus.mouseover" end="zoomplus.mouseout"/></use>
    <path d="M-4,0h8M0,-4v8" fill="none" stroke="white" stroke-width="1.5" pointer-events="none"/>
  </g>
  <g id="zoomMin">
    <use xlink:href="#rim" fill="#404040"><set attributeName="fill" to="#808080" begin="zoomminus.mouseover" end="zoomminus.mouseout"/></use>
    <path d="M-4,0h8" fill="none" stroke="white" stroke-width="1.5" pointer-events="none"/>
  </g>
  <g id="arrowUp" transform="translate(30 24)">
    <use xlink:href="#rim"/>
    <path pointer-events="none" fill="none" stroke="white" stroke-width="1.5" d="M0,-3.0v7 M-2.5,-0.5L0,-3.0L2.5,-0.5"/>
  </g>
  <g id="arrowRight" transform="rotate(90) translate(36 -43)">
    <use xlink:href="#rim"/>
    <path pointer-events="none" fill="none" stroke="white" stroke-width="1.5" d="M0,-3.0v7 M-2.5,-0.5L0,-3.0L2.5,-0.5"/>
  </g>
  <g id="arrowDown" transform="rotate(180) translate(-30 -48)">
    <use xlink:href="#rim"/>
    <path pointer-events="none" fill="none" stroke="white" stroke-width="1.5" d="M0,-3.0v7 M-2.5,-0.5L0,-3.0L2.5,-0.5"/>
  </g>
  <g id="arrowLeft" transform="rotate(270) translate(-36 17)">
    <use xlink:href="#rim"/>
    <path pointer-events="none" fill="none" stroke="white" stroke-width="1.5" d="M0,-3.0v7 M-2.5,-0.5L0,-3.0L2.5,-0.5"/>
  </g>
  <g id="resetDef">
    <use xlink:href="#rim2" fill="#404040"><set attributeName="fill" to="#808080" begin="reset.mouseover" end="reset.mouseout"/></use>
  </g>
</defs>
<script type="application/ecmascript">
var viewWidth = 426;
var viewHeight = 538;
var sectionId = 'dynsection-0';
</script>
<script type="application/ecmascript" xlink:href="svg.min.js"/>
<svg id="graph" class="graph">
<g id="viewport">
<title>HTTP Modules</title>
<!-- Node2 -->
<g id="Node000002" class="node">
<title>Node2</title>
<g id="a_Node000002"><a xlink:href="group__hpack.html" target="_top" xlink:title=" ">
<polygon fill="white" stroke="#666666" points="411,-507.5 265,-507.5 265,-477.5 411,-477.5 411,-507.5"/>
<text text-anchor="start" x="273" y="-495.5" font-family="Helvetica,sans-Serif" font-size="10.00">HPACK Header Compression</text>
<text text-anchor="middle" x="338" y="-484.5" font-family="Helvetica,sans-Serif" font-size="10.00"> Module</text>
</a>
</g>
</g>
<!-- Node9 -->
<g id="Node000009" class="node">
<title>Node9</title>
<g id="a_Node000009"><a xlink:href="group__hpack__private.html" target="_top" xlink:title="Internal HPACK header compression structures and constants (RFC 7541).">
<polygon fill="white" stroke="#666666" points="415,-393.5 261,-393.5 261,-363.5 415,-363.5 415,-393.5"/>
<text text-anchor="start" x="269" y="-381.5" font-family="Helvetica,sans-Serif" font-size="10.00">HPACK Private Implementation</text>
<text text-anchor="middle" x="338" y="-370.5" font-family="Helvetica,sans-Serif" font-size="10.00"> Details</text>
</a>
</g>
</g>
<!-- Node1 -->
<g id="Node000001" class="node">
<title>Node1</title>
<g id="a_Node000001"><a xlink:title="Complete HTTP/1.1 and HTTP/2 protocol implementation with client and server support.">
<polygon fill="#999999" stroke="#666666" points="83,-235 0,-235 0,-216 83,-216 83,-235"/>
<text text-anchor="middle" x="41.5" y="-223" font-family="Helvetica,sans-Serif" font-size="10.00">HTTP Modules</text>
</a>
</g>
</g>
<!-- Node1&#45;&gt;Node2 -->
<g id="edge1" class="edge">
<title>Node1&#45;&gt;Node2</title>
<path fill="none" stroke="black" d="M43.56,-245.19C47.11,-302.94 60.73,-469.85 101,-502.5 157.7,-548.47 249.65,-525.68 300.41,-507.52"/>
<polygon fill="black" stroke="black" points="47.05,-244.95 42.98,-235.17 40.06,-245.36 47.05,-244.95"/>
</g>
<!-- Node1&#45;&gt;Node2 -->
<g id="edge9" class="edge">
<title>Node1&#45;&gt;Node2</title>
<path fill="none" stroke="orange" stroke-dasharray="5,2" d="M43.64,-235.13C48.42,-273.86 68.14,-417.45 101,-446.5 124.36,-467.15 209.47,-459.19 240,-465.5 255.75,-468.75 272.71,-473.15 287.97,-477.46"/>
<text text-anchor="middle" x="170.5" y="-490.5" font-family="Helvetica,sans-Serif" font-size="10.00">SocketHPACK_Header</text>
<text text-anchor="middle" x="170.5" y="-479.5" font-family="Helvetica,sans-Serif" font-size="10.00">SocketHPACK_EncoderConfig</text>
<text text-anchor="middle" x="170.5" y="-468.5" font-family="Helvetica,sans-Serif" font-size="10.00">SocketHPACK_DecoderConfig</text>
</g>
<!-- Node1&#45;&gt;Node9 -->
<g id="edge8" class="edge">
<title>Node1&#45;&gt;Node9</title>
<path fill="none" stroke="orange" stroke-dasharray="5,2" d="M44.16,-235.07C48.67,-258 63.46,-316.2 101,-343.5 113.92,-352.9 196.95,-363.68 260.91,-370.76"/>
<text text-anchor="middle" x="170.5" y="-436.5" font-family="Helvetica,sans-Serif" font-size="10.00">HPACK_DynamicEntry</text>
<text text-anchor="middle" x="170.5" y="-425.5" font-family="Helvetica,sans-Serif" font-size="10.00">SocketHPACK_Table</text>
<text text-anchor="middle" x="170.5" y="-414.5" font-family="Helvetica,sans-Serif" font-size="10.00">SocketHPACK_Encoder</text>
<text text-anchor="middle" x="170.5" y="-403.5" font-family="Helvetica,sans-Serif" font-size="10.00">SocketHPACK_Decoder</text>
<text text-anchor="middle" x="170.5" y="-392.5" font-family="Helvetica,sans-Serif" font-size="10.00">HPACK_StaticEntry</text>
<text text-anchor="middle" x="170.5" y="-381.5" font-family="Helvetica,sans-Serif" font-size="10.00">HPACK_HuffmanSymbol</text>
<text text-anchor="middle" x="170.5" y="-370.5" font-family="Helvetica,sans-Serif" font-size="10.00">HPACK_HuffmanTransition</text>
</g>
<!-- Node3 -->
<g id="Node000003" class="node">
<title>Node3</title>
<g id="a_Node000003"><a xlink:href="group__http1.html" target="_top" xlink:title="Comprehensive HTTP/1.1 parsing, serialization, and transfer encoding support.">
<polygon fill="white" stroke="#666666" points="393,-345.5 283,-345.5 283,-315.5 393,-315.5 393,-345.5"/>
<text text-anchor="start" x="291" y="-333.5" font-family="Helvetica,sans-Serif" font-size="10.00">HTTP/1.1 Parser and</text>
<text text-anchor="middle" x="338" y="-322.5" font-family="Helvetica,sans-Serif" font-size="10.00"> Serializer Module</text>
</a>
</g>
</g>
<!-- Node1&#45;&gt;Node3 -->
<g id="edge2" class="edge">
<title>Node1&#45;&gt;Node3</title>
<path fill="none" stroke="black" d="M48.77,-244.55C57,-266.18 73.69,-300.52 101,-316.5 156.44,-348.94 232.3,-346.95 282.89,-340.5"/>
<polygon fill="black" stroke="black" points="52.05,-243.34 45.4,-235.09 45.46,-245.68 52.05,-243.34"/>
</g>
<!-- Node10 -->
<g id="Node000010" class="node">
<title>Node10</title>
<g id="a_Node000010"><a xlink:href="group__http1__private.html" target="_top" xlink:title=" ">
<polygon fill="white" stroke="#666666" points="401,-279.5 275,-279.5 275,-249.5 401,-249.5 401,-279.5"/>
<text text-anchor="start" x="283" y="-267.5" font-family="Helvetica,sans-Serif" font-size="10.00">HTTP/1.1 Parser Internal</text>
<text text-anchor="middle" x="338" y="-256.5" font-family="Helvetica,sans-Serif" font-size="10.00"> Implementation</text>
</a>
</g>
</g>
<!-- Node1&#45;&gt;Node10 -->
<g id="edge10" class="edge">
<title>Node1&#45;&gt;Node10</title>
<path fill="none" stroke="orange" stroke-dasharray="5,2" d="M57.69,-235.25C69.11,-242.01 85.41,-250.5 101,-254.5 158.6,-269.29 226.66,-270.53 274.85,-268.83"/>
<text text-anchor="middle" x="170.5" y="-304.5" font-family="Helvetica,sans-Serif" font-size="10.00">HTTP1_TokenBuf</text>
<text text-anchor="middle" x="170.5" y="-293.5" font-family="Helvetica,sans-Serif" font-size="10.00">SocketHTTP1_Parser</text>
<text text-anchor="middle" x="170.5" y="-282.5" font-family="Helvetica,sans-Serif" font-size="10.00">SocketHTTP1_Parser::@5</text>
<text text-anchor="middle" x="170.5" y="-271.5" font-family="Helvetica,sans-Serif" font-size="10.00">SocketHTTP1_Parser.message</text>
</g>
<!-- Node1&#45;&gt;Node10 -->
<g id="edge12" class="edge">
<title>Node1&#45;&gt;Node10</title>
<path fill="none" stroke="darkgreen" stroke-dasharray="5,2" d="M83.19,-226.99C123.27,-228.88 186.14,-232.98 240,-241.5 253.08,-243.57 267,-246.45 280.1,-249.48"/>
<text text-anchor="middle" x="170.5" y="-244.5" font-family="Helvetica,sans-Serif" font-size="10.00">SocketHTTP1&#45;private.h</text>
</g>
<!-- Node5 -->
<g id="Node000005" class="node">
<title>Node5</title>
<g id="a_Node000005"><a xlink:href="group__http2.html" target="_top" xlink:title="HTTP/2 (RFC 9113) support with framing, streams, flow control, and HPACK integration.">
<polygon fill="white" stroke="#666666" points="418,-219 258,-219 258,-200 418,-200 418,-219"/>
<text text-anchor="middle" x="338" y="-207" font-family="Helvetica,sans-Serif" font-size="10.00">HTTP/2 Protocol Implementation</text>
</a>
</g>
</g>
<!-- Node1&#45;&gt;Node5 -->
<g id="edge4" class="edge">
<title>Node1&#45;&gt;Node5</title>
<path fill="none" stroke="black" d="M93.3,-222.74C138.55,-220.28 205.49,-216.64 257.77,-213.8"/>
<polygon fill="black" stroke="black" points="92.94,-219.25 83.14,-223.29 93.31,-226.24 92.94,-219.25"/>
</g>
<!-- Node4 -->
<g id="Node000004" class="node">
<title>Node4</title>
<g id="a_Node000004"><a xlink:href="group__http2__private.html" target="_top" xlink:title=" ">
<polygon fill="white" stroke="#666666" points="415.5,-179.5 260.5,-179.5 260.5,-149.5 415.5,-149.5 415.5,-179.5"/>
<text text-anchor="start" x="268.5" y="-167.5" font-family="Helvetica,sans-Serif" font-size="10.00">HTTP/2 Private Implementation</text>
<text text-anchor="middle" x="338" y="-156.5" font-family="Helvetica,sans-Serif" font-size="10.00"> Details</text>
</a>
</g>
</g>
<!-- Node1&#45;&gt;Node4 -->
<g id="edge3" class="edge">
<title>Node1&#45;&gt;Node4</title>
<path fill="none" stroke="black" d="M88.26,-213.49C92.56,-212.45 96.86,-211.43 101,-210.5 153.94,-198.56 213.97,-186.89 260.24,-178.29"/>
<polygon fill="black" stroke="black" points="87.17,-210.16 78.31,-215.97 88.86,-216.95 87.17,-210.16"/>
</g>
<!-- Node1&#45;&gt;Node4 -->
<g id="edge11" class="edge">
<title>Node1&#45;&gt;Node4</title>
<path fill="none" stroke="orange" stroke-dasharray="5,2" d="M47.15,-215.85C55.42,-199.97 74.35,-168.84 101,-156.5 159.03,-129.62 233.97,-138.47 283.67,-149.49"/>
<text text-anchor="middle" x="170.5" y="-170.5" font-family="Helvetica,sans-Serif" font-size="10.00">SocketHTTP2_Stream</text>
<text text-anchor="middle" x="170.5" y="-159.5" font-family="Helvetica,sans-Serif" font-size="10.00">SocketHTTP2_Conn</text>
</g>
<!-- Node6 -->
<g id="Node000006" class="node">
<title>Node6</title>
<g id="a_Node000006"><a xlink:href="group__http__client.html" target="_top" xlink:title="High&#45;level HTTP client library supporting HTTP/1.1, HTTP/2, connection pooling, async I/O,...">
<polygon fill="white" stroke="#666666" points="391,-127 285,-127 285,-108 391,-108 391,-127"/>
<text text-anchor="middle" x="338" y="-115" font-family="Helvetica,sans-Serif" font-size="10.00">HTTP Client Module</text>
</a>
</g>
</g>
<!-- Node1&#45;&gt;Node6 -->
<g id="edge5" class="edge">
<title>Node1&#45;&gt;Node6</title>
<path fill="none" stroke="black" d="M48.8,-206.51C57.07,-184.94 73.8,-150.65 101,-134.5 156.99,-101.27 234.11,-102.67 284.74,-108.56"/>
<polygon fill="black" stroke="black" points="45.5,-205.35 45.42,-215.94 52.09,-207.71 45.5,-205.35"/>
</g>
<!-- Node7 -->
<g id="Node000007" class="node">
<title>Node7</title>
<g id="a_Node000007"><a xlink:href="group__http__error__macros.html" target="_top" xlink:title="Migration guide for deprecated HTTP server statistics macros.">
<polygon fill="white" stroke="#666666" points="408,-89.5 268,-89.5 268,-59.5 408,-59.5 408,-89.5"/>
<text text-anchor="start" x="276" y="-77.5" font-family="Helvetica,sans-Serif" font-size="10.00">HTTP Server Error Handling</text>
<text text-anchor="middle" x="338" y="-66.5" font-family="Helvetica,sans-Serif" font-size="10.00"> Macros</text>
</a>
</g>
</g>
<!-- Node1&#45;&gt;Node7 -->
<g id="edge6" class="edge">
<title>Node1&#45;&gt;Node7</title>
<path fill="none" stroke="black" d="M45.54,-206.09C51.1,-177.77 65.74,-125.74 101,-100.5 149.01,-66.12 217.19,-62.08 267.93,-65.18"/>
<polygon fill="black" stroke="black" points="42.09,-205.54 43.79,-216 48.98,-206.76 42.09,-205.54"/>
</g>
<!-- Node8 -->
<g id="Node000008" class="node">
<title>Node8</title>
<g id="a_Node000008"><a xlink:href="group__http__server__connection__mgmt.html" target="_top" xlink:title="Helper functions for managing individual HTTP server connections.">
<polygon fill="white" stroke="#666666" points="402,-41 274,-41 274,0 402,0 402,-41"/>
<text text-anchor="start" x="282" y="-29" font-family="Helvetica,sans-Serif" font-size="10.00">Internal HTTP Server</text>
<text text-anchor="start" x="282" y="-18" font-family="Helvetica,sans-Serif" font-size="10.00"> Connection Management</text>
<text text-anchor="middle" x="338" y="-7" font-family="Helvetica,sans-Serif" font-size="10.00"> Helpers</text>
</a>
</g>
</g>
<!-- Node1&#45;&gt;Node8 -->
<g id="edge7" class="edge">
<title>Node1&#45;&gt;Node8</title>
<path fill="none" stroke="black" d="M43.27,-205.75C45.79,-170.48 56.42,-96.88 101,-59.5 148.81,-19.41 221.79,-12.94 273.93,-14.44"/>
<polygon fill="black" stroke="black" points="39.78,-205.57 42.71,-215.76 46.77,-205.97 39.78,-205.57"/>
</g>
</g>
</svg>

<g id="navigator" transform="translate(0 0)" fill="#404254">
  <rect fill="#f2f5e9" fill-opacity="0.5" stroke="#606060" stroke-width=".5" x="0" y="0" width="60" height="60"/>
  <use id="zoomplus" xlink:href="#zoomPlus" x="17" y="9" onmousedown="handleZoom(evt,'in')"/>
  <use id="zoomminus" xlink:href="#zoomMin" x="42" y="9" onmousedown="handleZoom(evt,'out')"/>
  <use id="reset" xlink:href="#resetDef" x="30" y="36" onmousedown="handleReset()"/>
   <use id="arrowup" xlink:href="#arrowUp" x="0" y="0" onmousedown="handlePan(0,-1)"/>
  <use id="arrowright" xlink:href="#arrowRight" x="0" y="0" onmousedown="handlePan(1,0)"/>
  <use id="arrowdown" xlink:href="#arrowDown" x="0" y="0" onmousedown="handlePan(0,1)"/>
  <use id="arrowleft" xlink:href="#arrowLeft" x="0" y="0" onmousedown="handlePan(-1,0)"/>
</g>
<svg viewBox="0 0 15 15" width="100%" height="30px" preserveAspectRatio="xMaxYMin meet">
 <g id="arrow_out" transform="scale(0.3 0.3)">
  <a xlink:href="group__http_org.svg" target="_base">
   <rect id="button" ry="5" rx="5" y="6" x="6" height="38" width="38"
        fill="#f2f5e9" fill-opacity="0.5" stroke="#606060" stroke-width="1.0"/>
   <path id="arrow"
     d="M 11.500037,31.436501 C 11.940474,20.09759 22.043105,11.32322 32.158766,21.979434 L 37.068811,17.246167 C 37.068811,17.246167 37.088388,32 37.088388,32 L 22.160133,31.978069 C 22.160133,31.978069 26.997745,27.140456 26.997745,27.140456 C 18.528582,18.264221 13.291696,25.230495 11.500037,31.436501 z"
     style="fill:#404040;"/>
  </a>
 </g>
</svg>

<style type='text/css'>
<![CDATA[
[data-mouse-over-selected='false'] { opacity: 0.7; }
[data-mouse-over-selected='true']  { opacity: 1.0; }
]]>
</style>
<script type="application/ecmascript"><![CDATA[
document.addEventListener('DOMContentLoaded', (event) => {
  highlightEdges();
  highlightAdjacentNodes();
});
]]></script>
</svg>
