<?xml version="1.0" encoding="UTF-8" standalone="no"?>
<!DOCTYPE svg PUBLIC "-//W3C//DTD SVG 1.1//EN"
 "http://www.w3.org/Graphics/SVG/1.1/DTD/svg11.dtd">
<!-- Generated by graphviz version 2.43.0 (0)
 -->
<!-- Title: HTTP/2 Private Implementation Details Pages: 1 -->
<svg width="382pt" height="49pt"
 viewBox="0.00 0.00 382.00 49.02" xmlns="http://www.w3.org/2000/svg" xmlns:xlink="http://www.w3.org/1999/xlink">

<svg id="main" version="1.1" xmlns="http://www.w3.org/2000/svg" xmlns:xlink="http://www.w3.org/1999/xlink" xml:space="preserve" onload="init(evt)">
<style type="text/css"><![CDATA[
.node, .edge {opacity: 0.7;}
.node.selected, .edge.selected {opacity: 1;}
.edge:hover path { stroke: red; }
.edge:hover polygon { stroke: red; fill: red; }
]]></style>
<script type="application/ecmascript" xlink:href="svg.min.js"/>
<svg id="graph" class="graph">
<g id="graph0" class="graph" transform="scale(1 1) rotate(0) translate(4 45.02)">
<title>HTTP/2 Private Implementation Details</title>
<!-- Node2 -->
<g id="Node000002" class="node">
<title>Node2</title>
<g id="a_Node000002"><a xlink:href="group__http.html" target="_top" xlink:title="Complete HTTP/1.1 and HTTP/2 protocol implementation with client and server support.">
<polygon fill="white" stroke="#666666" points="83,-35.52 0,-35.52 0,-16.52 83,-16.52 83,-35.52"/>
<text text-anchor="middle" x="41.5" y="-23.52" font-family="Helvetica,sans-Serif" font-size="10.00">HTTP Modules</text>
</a>
</g>
</g>
<!-- Node1 -->
<g id="Node000001" class="node">
<title>Node1</title>
<g id="a_Node000001"><a xlink:title=" ">
<polygon fill="#999999" stroke="#666666" points="374,-41.02 219,-41.02 219,-11.02 374,-11.02 374,-41.02"/>
<text text-anchor="start" x="227" y="-29.02" font-family="Helvetica,sans-Serif" font-size="10.00">HTTP/2 Private Implementation</text>
<text text-anchor="middle" x="296.5" y="-18.02" font-family="Helvetica,sans-Serif" font-size="10.00"> Details</text>
</a>
</g>
</g>
<!-- Node2&#45;&gt;Node1 -->
<g id="edge1" class="edge">
<title>Node2&#45;&gt;Node1</title>
<path fill="none" stroke="black" d="M93.24,-30.63C95.86,-30.78 98.46,-30.91 101,-31.02 139.81,-32.68 183,-31.84 218.81,-30.41"/>
<polygon fill="black" stroke="black" points="93.28,-27.12 83.07,-29.94 92.81,-34.1 93.28,-27.12"/>
</g>
<!-- Node1&#45;&gt;Node2 -->
<g id="edge2" class="edge">
<title>Node1&#45;&gt;Node2</title>
<path fill="none" stroke="orange" stroke-dasharray="5,2" d="M237.36,-11.01C225.41,-8.52 212.86,-6.32 201,-5.02 156.82,-0.17 144.79,2.6 101,-5.02 88.24,-7.24 74.59,-12 63.69,-16.42"/>
<text text-anchor="middle" x="151" y="-19.02" font-family="Helvetica,sans-Serif" font-size="10.00">SocketHTTP2_Stream</text>
<text text-anchor="middle" x="151" y="-8.02" font-family="Helvetica,sans-Serif" font-size="10.00">SocketHTTP2_Conn</text>
</g>
</g>
</svg>
</svg>

<style type='text/css'>
<![CDATA[
[data-mouse-over-selected='false'] { opacity: 0.7; }
[data-mouse-over-selected='true']  { opacity: 1.0; }
]]>
</style>
<script type="application/ecmascript"><![CDATA[
document.addEventListener('DOMContentLoaded', (event) => {
  highlightEdges();
  highlightAdjacentNodes();
});
]]></script>
</svg>
