<?xml version="1.0" encoding="UTF-8" standalone="no"?>
<!DOCTYPE svg PUBLIC "-//W3C//DTD SVG 1.1//EN"
 "http://www.w3.org/Graphics/SVG/1.1/DTD/svg11.dtd">
<!-- Generated by graphviz version 2.43.0 (0)
 -->
<!-- Title: HTTP Modules Pages: 1 -->
<svg width="426pt" height="526pt"
 viewBox="0.00 0.00 426.00 526.17" xmlns="http://www.w3.org/2000/svg" xmlns:xlink="http://www.w3.org/1999/xlink">
<g id="graph0" class="graph" transform="scale(1 1) rotate(0) translate(4 522.17)">
<title>HTTP Modules</title>
<!-- Node2 -->
<g id="Node000002" class="node">
<title>Node2</title>
<g id="a_Node000002"><a xlink:href="group__hpack.html" target="_top" xlink:title=" ">
<polygon fill="white" stroke="#666666" points="411,-496 265,-496 265,-466 411,-466 411,-496"/>
<text text-anchor="start" x="273" y="-484" font-family="Helvetica,sans-Serif" font-size="10.00">HPACK Header Compression</text>
<text text-anchor="middle" x="338" y="-473" font-family="Helvetica,sans-Serif" font-size="10.00"> Module</text>
</a>
</g>
</g>
<!-- Node9 -->
<g id="Node000009" class="node">
<title>Node9</title>
<g id="a_Node000009"><a xlink:href="group__hpack__private.html" target="_top" xlink:title="Internal HPACK header compression structures and constants (RFC 7541).">
<polygon fill="white" stroke="#666666" points="415,-382 261,-382 261,-352 415,-352 415,-382"/>
<text text-anchor="start" x="269" y="-370" font-family="Helvetica,sans-Serif" font-size="10.00">HPACK Private Implementation</text>
<text text-anchor="middle" x="338" y="-359" font-family="Helvetica,sans-Serif" font-size="10.00"> Details</text>
</a>
</g>
</g>
<!-- Node1 -->
<g id="Node000001" class="node">
<title>Node1</title>
<g id="a_Node000001"><a xlink:title="Complete HTTP/1.1 and HTTP/2 protocol implementation with client and server support.">
<polygon fill="#999999" stroke="#666666" points="83,-223.5 0,-223.5 0,-204.5 83,-204.5 83,-223.5"/>
<text text-anchor="middle" x="41.5" y="-211.5" font-family="Helvetica,sans-Serif" font-size="10.00">HTTP Modules</text>
</a>
</g>
</g>
<!-- Node1&#45;&gt;Node2 -->
<g id="edge1" class="edge">
<title>Node1&#45;&gt;Node2</title>
<path fill="none" stroke="black" d="M43.56,-233.69C47.11,-291.44 60.73,-458.35 101,-491 157.7,-536.97 249.65,-514.18 300.41,-496.02"/>
<polygon fill="black" stroke="black" points="47.05,-233.45 42.98,-223.67 40.06,-233.86 47.05,-233.45"/>
</g>
<!-- Node1&#45;&gt;Node2 -->
<g id="edge9" class="edge">
<title>Node1&#45;&gt;Node2</title>
<path fill="none" stroke="orange" stroke-dasharray="5,2" d="M43.64,-223.63C48.42,-262.36 68.14,-405.95 101,-435 124.36,-455.65 209.47,-447.69 240,-454 255.75,-457.25 272.71,-461.65 287.97,-465.96"/>
<text text-anchor="middle" x="170.5" y="-479" font-family="Helvetica,sans-Serif" font-size="10.00">SocketHPACK_Header</text>
<text text-anchor="middle" x="170.5" y="-468" font-family="Helvetica,sans-Serif" font-size="10.00">SocketHPACK_EncoderConfig</text>
<text text-anchor="middle" x="170.5" y="-457" font-family="Helvetica,sans-Serif" font-size="10.00">SocketHPACK_DecoderConfig</text>
</g>
<!-- Node1&#45;&gt;Node9 -->
<g id="edge8" class="edge">
<title>Node1&#45;&gt;Node9</title>
<path fill="none" stroke="orange" stroke-dasharray="5,2" d="M44.16,-223.57C48.67,-246.5 63.46,-304.7 101,-332 113.92,-341.4 196.95,-352.18 260.91,-359.26"/>
<text text-anchor="middle" x="170.5" y="-425" font-family="Helvetica,sans-Serif" font-size="10.00">HPACK_DynamicEntry</text>
<text text-anchor="middle" x="170.5" y="-414" font-family="Helvetica,sans-Serif" font-size="10.00">SocketHPACK_Table</text>
<text text-anchor="middle" x="170.5" y="-403" font-family="Helvetica,sans-Serif" font-size="10.00">SocketHPACK_Encoder</text>
<text text-anchor="middle" x="170.5" y="-392" font-family="Helvetica,sans-Serif" font-size="10.00">SocketHPACK_Decoder</text>
<text text-anchor="middle" x="170.5" y="-381" font-family="Helvetica,sans-Serif" font-size="10.00">HPACK_StaticEntry</text>
<text text-anchor="middle" x="170.5" y="-370" font-family="Helvetica,sans-Serif" font-size="10.00">HPACK_HuffmanSymbol</text>
<text text-anchor="middle" x="170.5" y="-359" font-family="Helvetica,sans-Serif" font-size="10.00">HPACK_HuffmanTransition</text>
</g>
<!-- Node3 -->
<g id="Node000003" class="node">
<title>Node3</title>
<g id="a_Node000003"><a xlink:href="group__http1.html" target="_top" xlink:title="Comprehensive HTTP/1.1 parsing, serialization, and transfer encoding support.">
<polygon fill="white" stroke="#666666" points="393,-334 283,-334 283,-304 393,-304 393,-334"/>
<text text-anchor="start" x="291" y="-322" font-family="Helvetica,sans-Serif" font-size="10.00">HTTP/1.1 Parser and</text>
<text text-anchor="middle" x="338" y="-311" font-family="Helvetica,sans-Serif" font-size="10.00"> Serializer Module</text>
</a>
</g>
</g>
<!-- Node1&#45;&gt;Node3 -->
<g id="edge2" class="edge">
<title>Node1&#45;&gt;Node3</title>
<path fill="none" stroke="black" d="M48.77,-233.05C57,-254.68 73.69,-289.02 101,-305 156.44,-337.44 232.3,-335.45 282.89,-329"/>
<polygon fill="black" stroke="black" points="52.05,-231.84 45.4,-223.59 45.46,-234.18 52.05,-231.84"/>
</g>
<!-- Node10 -->
<g id="Node000010" class="node">
<title>Node10</title>
<g id="a_Node000010"><a xlink:href="group__http1__private.html" target="_top" xlink:title=" ">
<polygon fill="white" stroke="#666666" points="401,-268 275,-268 275,-238 401,-238 401,-268"/>
<text text-anchor="start" x="283" y="-256" font-family="Helvetica,sans-Serif" font-size="10.00">HTTP/1.1 Parser Internal</text>
<text text-anchor="middle" x="338" y="-245" font-family="Helvetica,sans-Serif" font-size="10.00"> Implementation</text>
</a>
</g>
</g>
<!-- Node1&#45;&gt;Node10 -->
<g id="edge10" class="edge">
<title>Node1&#45;&gt;Node10</title>
<path fill="none" stroke="orange" stroke-dasharray="5,2" d="M57.69,-223.75C69.11,-230.51 85.41,-239 101,-243 158.6,-257.79 226.66,-259.03 274.85,-257.33"/>
<text text-anchor="middle" x="170.5" y="-293" font-family="Helvetica,sans-Serif" font-size="10.00">HTTP1_TokenBuf</text>
<text text-anchor="middle" x="170.5" y="-282" font-family="Helvetica,sans-Serif" font-size="10.00">SocketHTTP1_Parser</text>
<text text-anchor="middle" x="170.5" y="-271" font-family="Helvetica,sans-Serif" font-size="10.00">SocketHTTP1_Parser::@5</text>
<text text-anchor="middle" x="170.5" y="-260" font-family="Helvetica,sans-Serif" font-size="10.00">SocketHTTP1_Parser.message</text>
</g>
<!-- Node1&#45;&gt;Node10 -->
<g id="edge12" class="edge">
<title>Node1&#45;&gt;Node10</title>
<path fill="none" stroke="darkgreen" stroke-dasharray="5,2" d="M83.19,-215.49C123.27,-217.38 186.14,-221.48 240,-230 253.08,-232.07 267,-234.95 280.1,-237.98"/>
<text text-anchor="middle" x="170.5" y="-233" font-family="Helvetica,sans-Serif" font-size="10.00">SocketHTTP1&#45;private.h</text>
</g>
<!-- Node5 -->
<g id="Node000005" class="node">
<title>Node5</title>
<g id="a_Node000005"><a xlink:href="group__http2.html" target="_top" xlink:title="HTTP/2 (RFC 9113) support with framing, streams, flow control, and HPACK integration.">
<polygon fill="white" stroke="#666666" points="418,-207.5 258,-207.5 258,-188.5 418,-188.5 418,-207.5"/>
<text text-anchor="middle" x="338" y="-195.5" font-family="Helvetica,sans-Serif" font-size="10.00">HTTP/2 Protocol Implementation</text>
</a>
</g>
</g>
<!-- Node1&#45;&gt;Node5 -->
<g id="edge4" class="edge">
<title>Node1&#45;&gt;Node5</title>
<path fill="none" stroke="black" d="M93.3,-211.24C138.55,-208.78 205.49,-205.14 257.77,-202.3"/>
<polygon fill="black" stroke="black" points="92.94,-207.75 83.14,-211.79 93.31,-214.74 92.94,-207.75"/>
</g>
<!-- Node4 -->
<g id="Node000004" class="node">
<title>Node4</title>
<g id="a_Node000004"><a xlink:href="group__http2__private.html" target="_top" xlink:title=" ">
<polygon fill="white" stroke="#666666" points="415.5,-168 260.5,-168 260.5,-138 415.5,-138 415.5,-168"/>
<text text-anchor="start" x="268.5" y="-156" font-family="Helvetica,sans-Serif" font-size="10.00">HTTP/2 Private Implementation</text>
<text text-anchor="middle" x="338" y="-145" font-family="Helvetica,sans-Serif" font-size="10.00"> Details</text>
</a>
</g>
</g>
<!-- Node1&#45;&gt;Node4 -->
<g id="edge3" class="edge">
<title>Node1&#45;&gt;Node4</title>
<path fill="none" stroke="black" d="M88.26,-201.99C92.56,-200.95 96.86,-199.93 101,-199 153.94,-187.06 213.97,-175.39 260.24,-166.79"/>
<polygon fill="black" stroke="black" points="87.17,-198.66 78.31,-204.47 88.86,-205.45 87.17,-198.66"/>
</g>
<!-- Node1&#45;&gt;Node4 -->
<g id="edge11" class="edge">
<title>Node1&#45;&gt;Node4</title>
<path fill="none" stroke="orange" stroke-dasharray="5,2" d="M47.15,-204.35C55.42,-188.47 74.35,-157.34 101,-145 159.03,-118.12 233.97,-126.97 283.67,-137.99"/>
<text text-anchor="middle" x="170.5" y="-159" font-family="Helvetica,sans-Serif" font-size="10.00">SocketHTTP2_Stream</text>
<text text-anchor="middle" x="170.5" y="-148" font-family="Helvetica,sans-Serif" font-size="10.00">SocketHTTP2_Conn</text>
</g>
<!-- Node6 -->
<g id="Node000006" class="node">
<title>Node6</title>
<g id="a_Node000006"><a xlink:href="group__http__client.html" target="_top" xlink:title="High&#45;level HTTP client library supporting HTTP/1.1, HTTP/2, connection pooling, async I/O,...">
<polygon fill="white" stroke="#666666" points="391,-115.5 285,-115.5 285,-96.5 391,-96.5 391,-115.5"/>
<text text-anchor="middle" x="338" y="-103.5" font-family="Helvetica,sans-Serif" font-size="10.00">HTTP Client Module</text>
</a>
</g>
</g>
<!-- Node1&#45;&gt;Node6 -->
<g id="edge5" class="edge">
<title>Node1&#45;&gt;Node6</title>
<path fill="none" stroke="black" d="M48.8,-195.01C57.07,-173.44 73.8,-139.15 101,-123 156.99,-89.77 234.11,-91.17 284.74,-97.06"/>
<polygon fill="black" stroke="black" points="45.5,-193.85 45.42,-204.44 52.09,-196.21 45.5,-193.85"/>
</g>
<!-- Node7 -->
<g id="Node000007" class="node">
<title>Node7</title>
<g id="a_Node000007"><a xlink:href="group__http__error__macros.html" target="_top" xlink:title="Migration guide for deprecated HTTP server statistics macros.">
<polygon fill="white" stroke="#666666" points="408,-78 268,-78 268,-48 408,-48 408,-78"/>
<text text-anchor="start" x="276" y="-66" font-family="Helvetica,sans-Serif" font-size="10.00">HTTP Server Error Handling</text>
<text text-anchor="middle" x="338" y="-55" font-family="Helvetica,sans-Serif" font-size="10.00"> Macros</text>
</a>
</g>
</g>
<!-- Node1&#45;&gt;Node7 -->
<g id="edge6" class="edge">
<title>Node1&#45;&gt;Node7</title>
<path fill="none" stroke="black" d="M45.54,-194.59C51.1,-166.27 65.74,-114.24 101,-89 149.01,-54.62 217.19,-50.58 267.93,-53.68"/>
<polygon fill="black" stroke="black" points="42.09,-194.04 43.79,-204.5 48.98,-195.26 42.09,-194.04"/>
</g>
<!-- Node8 -->
<g id="Node000008" class="node">
<title>Node8</title>
<g id="a_Node000008"><a xlink:href="group__http__server__connection__mgmt.html" target="_top" xlink:title="Helper functions for managing individual HTTP server connections.">
<polygon fill="white" stroke="#666666" points="393,-30 283,-30 283,0 393,0 393,-30"/>
<text text-anchor="start" x="291" y="-18" font-family="Helvetica,sans-Serif" font-size="10.00">Internal HTTP Server</text>
<text text-anchor="middle" x="338" y="-7" font-family="Helvetica,sans-Serif" font-size="10.00"> Connection</text>
</a>
</g>
</g>
<!-- Node1&#45;&gt;Node8 -->
<g id="edge7" class="edge">
<title>Node1&#45;&gt;Node8</title>
<path fill="none" stroke="black" d="M43.18,-194.14C45.56,-158.7 55.96,-84.83 101,-48 151.92,-6.36 230.63,-3.71 282.96,-7.69"/>
<polygon fill="black" stroke="black" points="39.68,-194.03 42.66,-204.2 46.67,-194.39 39.68,-194.03"/>
</g>
</g>
</svg>
