<?xml version="1.0" encoding="UTF-8" standalone="no"?>
<!DOCTYPE svg PUBLIC "-//W3C//DTD SVG 1.1//EN"
 "http://www.w3.org/Graphics/SVG/1.1/DTD/svg11.dtd">
<!-- Generated by graphviz version 2.43.0 (0)
 -->
<!-- Title: HTTP Modules Pages: 1 -->
<svg width="423pt" height="681pt"
 viewBox="0.00 0.00 423.00 680.51" xmlns="http://www.w3.org/2000/svg" xmlns:xlink="http://www.w3.org/1999/xlink">
<g id="graph0" class="graph" transform="scale(1 1) rotate(0) translate(4 676.51)">
<title>HTTP Modules</title>
<!-- Node3 -->
<g id="Node000003" class="node">
<title>Node3</title>
<g id="a_Node000003"><a xlink:href="group__hpack.html" target="_top" xlink:title=" ">
<polygon fill="white" stroke="#666666" points="408,-650.5 262,-650.5 262,-620.5 408,-620.5 408,-650.5"/>
<text text-anchor="start" x="270" y="-638.5" font-family="Helvetica,sans-Serif" font-size="10.00">HPACK Header Compression</text>
<text text-anchor="middle" x="335" y="-627.5" font-family="Helvetica,sans-Serif" font-size="10.00"> Module</text>
</a>
</g>
</g>
<!-- Node2 -->
<g id="Node000002" class="node">
<title>Node2</title>
<g id="a_Node000002"><a xlink:href="group__hpack__private.html" target="_top" xlink:title=" ">
<polygon fill="white" stroke="#666666" points="412,-501.5 258,-501.5 258,-471.5 412,-471.5 412,-501.5"/>
<text text-anchor="start" x="266" y="-489.5" font-family="Helvetica,sans-Serif" font-size="10.00">HPACK Private Implementation</text>
<text text-anchor="middle" x="335" y="-478.5" font-family="Helvetica,sans-Serif" font-size="10.00"> Details</text>
</a>
</g>
</g>
<!-- Node1 -->
<g id="Node000001" class="node">
<title>Node1</title>
<g id="a_Node000001"><a xlink:title="Complete HTTP/1.1 and HTTP/2 protocol implementation with client and server support.">
<polygon fill="#999999" stroke="#666666" points="83,-360 0,-360 0,-341 83,-341 83,-360"/>
<text text-anchor="middle" x="41.5" y="-348" font-family="Helvetica,sans-Serif" font-size="10.00">HTTP Modules</text>
</a>
</g>
</g>
<!-- Node1&#45;&gt;Node3 -->
<g id="edge2" class="edge">
<title>Node1&#45;&gt;Node3</title>
<path fill="none" stroke="black" d="M43.29,-370.26C46.14,-430.58 58.16,-610.32 101,-645.5 156.54,-691.11 247.08,-668.66 297.38,-650.61"/>
<polygon fill="black" stroke="black" points="46.78,-370 42.84,-360.16 39.79,-370.31 46.78,-370"/>
</g>
<!-- Node1&#45;&gt;Node3 -->
<g id="edge14" class="edge">
<title>Node1&#45;&gt;Node3</title>
<path fill="none" stroke="orange" stroke-dasharray="5,2" d="M43.44,-360.02C47.64,-400.38 65.98,-556.66 101,-588.5 123.6,-609.05 207.12,-602.17 237,-608.5 252.56,-611.8 269.32,-616.16 284.45,-620.42"/>
<text text-anchor="middle" x="169" y="-633.5" font-family="Helvetica,sans-Serif" font-size="10.00">SocketHPACK_Header</text>
<text text-anchor="middle" x="169" y="-622.5" font-family="Helvetica,sans-Serif" font-size="10.00">SocketHPACK_EncoderConfig</text>
<text text-anchor="middle" x="169" y="-611.5" font-family="Helvetica,sans-Serif" font-size="10.00">SocketHPACK_DecoderConfig</text>
</g>
<!-- Node1&#45;&gt;Node2 -->
<g id="edge1" class="edge">
<title>Node1&#45;&gt;Node2</title>
<path fill="none" stroke="black" d="M44.88,-370.36C51.14,-418.76 69.75,-540.65 101,-564.5 149.05,-601.18 179.99,-584.58 237,-564.5 272.47,-552.01 304.53,-520.46 321.44,-501.54"/>
<polygon fill="black" stroke="black" points="48.33,-369.71 43.62,-360.22 41.38,-370.57 48.33,-369.71"/>
</g>
<!-- Node1&#45;&gt;Node2 -->
<g id="edge13" class="edge">
<title>Node1&#45;&gt;Node2</title>
<path fill="none" stroke="orange" stroke-dasharray="5,2" d="M44.24,-360.21C48.88,-382.89 63.8,-439.3 101,-464.5 113.89,-473.23 194.84,-479.39 257.75,-482.93"/>
<text text-anchor="middle" x="169" y="-549.5" font-family="Helvetica,sans-Serif" font-size="10.00">HPACK_DynamicEntry</text>
<text text-anchor="middle" x="169" y="-538.5" font-family="Helvetica,sans-Serif" font-size="10.00">SocketHPACK_Table</text>
<text text-anchor="middle" x="169" y="-527.5" font-family="Helvetica,sans-Serif" font-size="10.00">SocketHPACK_Encoder</text>
<text text-anchor="middle" x="169" y="-516.5" font-family="Helvetica,sans-Serif" font-size="10.00">SocketHPACK_Decoder</text>
<text text-anchor="middle" x="169" y="-505.5" font-family="Helvetica,sans-Serif" font-size="10.00">HPACK_StaticEntry</text>
<text text-anchor="middle" x="169" y="-494.5" font-family="Helvetica,sans-Serif" font-size="10.00">HPACK_HuffmanSymbol</text>
<text text-anchor="middle" x="169" y="-483.5" font-family="Helvetica,sans-Serif" font-size="10.00">HPACK_HuffmanTransition</text>
</g>
<!-- Node1&#45;&gt;Node2 -->
<g id="edge16" class="edge">
<title>Node1&#45;&gt;Node2</title>
<path fill="none" stroke="darkgreen" stroke-dasharray="5,2" d="M47.26,-360.25C55.7,-376.4 74.87,-408.52 101,-424.5 153.57,-456.65 179.6,-429.09 237,-451.5 245.73,-454.91 246.45,-458.66 255,-462.5 262.32,-465.79 270.22,-468.78 278.1,-471.46"/>
<text text-anchor="middle" x="169" y="-454.5" font-family="Helvetica,sans-Serif" font-size="10.00">SocketHPACK&#45;private.h</text>
</g>
<!-- Node4 -->
<g id="Node000004" class="node">
<title>Node4</title>
<g id="a_Node000004"><a xlink:href="group__http1.html" target="_top" xlink:title="Comprehensive HTTP/1.1 parsing, serialization, and transfer encoding support.">
<polygon fill="white" stroke="#666666" points="390,-453.5 280,-453.5 280,-423.5 390,-423.5 390,-453.5"/>
<text text-anchor="start" x="288" y="-441.5" font-family="Helvetica,sans-Serif" font-size="10.00">HTTP/1.1 Parser and</text>
<text text-anchor="middle" x="335" y="-430.5" font-family="Helvetica,sans-Serif" font-size="10.00"> Serializer Module</text>
</a>
</g>
</g>
<!-- Node1&#45;&gt;Node4 -->
<g id="edge3" class="edge">
<title>Node1&#45;&gt;Node4</title>
<path fill="none" stroke="black" d="M60.78,-366.76C71.73,-375.67 86.33,-386.15 101,-392.5 159.08,-417.66 231.28,-429.18 279.78,-434.38"/>
<polygon fill="black" stroke="black" points="62.75,-363.85 52.85,-360.07 58.24,-369.2 62.75,-363.85"/>
</g>
<!-- Node6 -->
<g id="Node000006" class="node">
<title>Node6</title>
<g id="a_Node000006"><a xlink:href="group__http2.html" target="_top" xlink:title="HTTP/2 (RFC 9113) support with framing, streams, flow control, and HPACK integration.">
<polygon fill="white" stroke="#666666" points="415,-405 255,-405 255,-386 415,-386 415,-405"/>
<text text-anchor="middle" x="335" y="-393" font-family="Helvetica,sans-Serif" font-size="10.00">HTTP/2 Protocol Implementation</text>
</a>
</g>
</g>
<!-- Node1&#45;&gt;Node6 -->
<g id="edge5" class="edge">
<title>Node1&#45;&gt;Node6</title>
<path fill="none" stroke="black" d="M77.76,-363.22C85.35,-365.6 93.38,-367.86 101,-369.5 151.63,-380.43 209.49,-386.92 254.89,-390.68"/>
<polygon fill="black" stroke="black" points="78.7,-359.85 68.11,-360.06 76.52,-366.5 78.7,-359.85"/>
</g>
<!-- Node5 -->
<g id="Node000005" class="node">
<title>Node5</title>
<g id="a_Node000005"><a xlink:href="group__http2__private.html" target="_top" xlink:title=" ">
<polygon fill="white" stroke="#666666" points="412.5,-367.5 257.5,-367.5 257.5,-337.5 412.5,-337.5 412.5,-367.5"/>
<text text-anchor="start" x="265.5" y="-355.5" font-family="Helvetica,sans-Serif" font-size="10.00">HTTP/2 Private Implementation</text>
<text text-anchor="middle" x="335" y="-344.5" font-family="Helvetica,sans-Serif" font-size="10.00"> Details</text>
</a>
</g>
</g>
<!-- Node1&#45;&gt;Node5 -->
<g id="edge4" class="edge">
<title>Node1&#45;&gt;Node5</title>
<path fill="none" stroke="black" d="M93.24,-355.1C95.86,-355.26 98.46,-355.39 101,-355.5 153.14,-357.72 211.9,-356.94 257.36,-355.62"/>
<polygon fill="black" stroke="black" points="93.28,-351.6 83.07,-354.42 92.81,-358.58 93.28,-351.6"/>
</g>
<!-- Node1&#45;&gt;Node5 -->
<g id="edge15" class="edge">
<title>Node1&#45;&gt;Node5</title>
<path fill="none" stroke="orange" stroke-dasharray="5,2" d="M63.69,-340.9C74.59,-336.47 88.24,-331.72 101,-329.5 160.55,-319.14 176.96,-322.48 237,-329.5 251.27,-331.17 266.48,-334.17 280.52,-337.47"/>
<text text-anchor="middle" x="169" y="-343.5" font-family="Helvetica,sans-Serif" font-size="10.00">SocketHTTP2_Stream</text>
<text text-anchor="middle" x="169" y="-332.5" font-family="Helvetica,sans-Serif" font-size="10.00">SocketHTTP2_Conn</text>
</g>
<!-- Node11 -->
<g id="Node000011" class="node">
<title>Node11</title>
<g id="a_Node000011"><a xlink:href="group__http__client.html" target="_top" xlink:title="High&#45;level HTTP client library supporting HTTP/1.1, HTTP/2, connection pooling, async I/O,...">
<polygon fill="white" stroke="#666666" points="388,-319 282,-319 282,-300 388,-300 388,-319"/>
<text text-anchor="middle" x="335" y="-307" font-family="Helvetica,sans-Serif" font-size="10.00">HTTP Client Module</text>
</a>
</g>
</g>
<!-- Node1&#45;&gt;Node11 -->
<g id="edge10" class="edge">
<title>Node1&#45;&gt;Node11</title>
<path fill="none" stroke="black" d="M64.23,-335.47C74.83,-328.98 88.05,-322.08 101,-318.5 161.29,-301.84 233.67,-302.01 281.59,-304.77"/>
<polygon fill="black" stroke="black" points="62.2,-332.62 55.67,-340.96 65.98,-338.51 62.2,-332.62"/>
</g>
<!-- Node10 -->
<g id="Node000010" class="node">
<title>Node10</title>
<g id="a_Node000010"><a xlink:href="group__http__client__auth.html" target="_top" xlink:title="Internal buffer sizes for HTTP authentication header generation and computation.">
<polygon fill="white" stroke="#666666" points="389,-281.5 281,-281.5 281,-251.5 389,-251.5 389,-281.5"/>
<text text-anchor="start" x="289" y="-269.5" font-family="Helvetica,sans-Serif" font-size="10.00">Authentication Buffer</text>
<text text-anchor="middle" x="335" y="-258.5" font-family="Helvetica,sans-Serif" font-size="10.00"> Constants</text>
</a>
</g>
</g>
<!-- Node1&#45;&gt;Node10 -->
<g id="edge9" class="edge">
<title>Node1&#45;&gt;Node10</title>
<path fill="none" stroke="black" d="M56.69,-333.39C67.53,-321.55 83.55,-306.54 101,-298.5 158.49,-272.03 231.78,-265.88 280.66,-265.15"/>
<polygon fill="black" stroke="black" points="54.02,-331.13 50.05,-340.96 59.28,-335.75 54.02,-331.13"/>
</g>
<!-- Node9 -->
<g id="Node000009" class="node">
<title>Node9</title>
<g id="a_Node000009"><a xlink:href="group__http__client__cookie.html" target="_top" xlink:title="Limits and buffer sizes for HTTP client cookie handling and jar management.">
<polygon fill="white" stroke="#666666" points="389,-233.5 281,-233.5 281,-203.5 389,-203.5 389,-233.5"/>
<text text-anchor="start" x="289" y="-221.5" font-family="Helvetica,sans-Serif" font-size="10.00">Cookie Configuration</text>
<text text-anchor="middle" x="335" y="-210.5" font-family="Helvetica,sans-Serif" font-size="10.00"> Constants</text>
</a>
</g>
</g>
<!-- Node1&#45;&gt;Node9 -->
<g id="edge8" class="edge">
<title>Node1&#45;&gt;Node9</title>
<path fill="none" stroke="black" d="M49.82,-331.46C58.72,-311.03 75.74,-279.25 101,-262.5 154.87,-226.79 230.3,-218.33 280.58,-217.13"/>
<polygon fill="black" stroke="black" points="46.48,-330.4 45.91,-340.98 52.95,-333.06 46.48,-330.4"/>
</g>
<!-- Node7 -->
<g id="Node000007" class="node">
<title>Node7</title>
<g id="a_Node000007"><a xlink:href="group__http__client__limits.html" target="_top" xlink:title="Limits on redirects, connections, and retries for safety and performance.">
<polygon fill="white" stroke="#666666" points="400,-185.5 270,-185.5 270,-155.5 400,-155.5 400,-185.5"/>
<text text-anchor="start" x="278" y="-173.5" font-family="Helvetica,sans-Serif" font-size="10.00">Connection and Resource</text>
<text text-anchor="middle" x="335" y="-162.5" font-family="Helvetica,sans-Serif" font-size="10.00"> Limits</text>
</a>
</g>
</g>
<!-- Node1&#45;&gt;Node7 -->
<g id="edge6" class="edge">
<title>Node1&#45;&gt;Node7</title>
<path fill="none" stroke="black" d="M45.19,-330.8C50.37,-300.97 64.61,-244.71 101,-215.5 148.55,-177.33 219,-168.26 269.97,-167.39"/>
<polygon fill="black" stroke="black" points="41.71,-330.41 43.63,-340.83 48.63,-331.49 41.71,-330.41"/>
</g>
<!-- Node8 -->
<g id="Node000008" class="node">
<title>Node8</title>
<g id="a_Node000008"><a xlink:href="group__http__client__retry.html" target="_top" xlink:title="Parameters for automatic retry logic on transient failures.">
<polygon fill="white" stroke="#666666" points="385.5,-137.5 284.5,-137.5 284.5,-107.5 385.5,-107.5 385.5,-137.5"/>
<text text-anchor="start" x="292.5" y="-125.5" font-family="Helvetica,sans-Serif" font-size="10.00">Retry Configuration</text>
<text text-anchor="middle" x="335" y="-114.5" font-family="Helvetica,sans-Serif" font-size="10.00"> Constants</text>
</a>
</g>
</g>
<!-- Node1&#45;&gt;Node8 -->
<g id="edge7" class="edge">
<title>Node1&#45;&gt;Node8</title>
<path fill="none" stroke="black" d="M42.46,-330.66C43.54,-292.29 51.74,-207.9 101,-164.5 151.43,-120.08 232.48,-115.26 284.47,-117.59"/>
<polygon fill="black" stroke="black" points="38.96,-330.94 42.32,-340.99 45.96,-331.04 38.96,-330.94"/>
</g>
<!-- Node12 -->
<g id="Node000012" class="node">
<title>Node12</title>
<g id="a_Node000012"><a xlink:href="group__http__error__macros.html" target="_top" xlink:title="Migration guide for deprecated HTTP server statistics macros.">
<polygon fill="white" stroke="#666666" points="405,-89.5 265,-89.5 265,-59.5 405,-59.5 405,-89.5"/>
<text text-anchor="start" x="273" y="-77.5" font-family="Helvetica,sans-Serif" font-size="10.00">HTTP Server Error Handling</text>
<text text-anchor="middle" x="335" y="-66.5" font-family="Helvetica,sans-Serif" font-size="10.00"> Macros</text>
</a>
</g>
</g>
<!-- Node1&#45;&gt;Node12 -->
<g id="edge11" class="edge">
<title>Node1&#45;&gt;Node12</title>
<path fill="none" stroke="black" d="M44.63,-330.6C50.54,-279.07 68.92,-143.23 101,-113.5 144.55,-73.15 213.34,-65.96 264.91,-67.33"/>
<polygon fill="black" stroke="black" points="41.12,-330.44 43.5,-340.76 48.08,-331.21 41.12,-330.44"/>
</g>
<!-- Node13 -->
<g id="Node000013" class="node">
<title>Node13</title>
<g id="a_Node000013"><a xlink:href="group__http__server__connection__mgmt.html" target="_top" xlink:title="Helper functions for managing individual HTTP server connections.">
<polygon fill="white" stroke="#666666" points="399,-41 271,-41 271,0 399,0 399,-41"/>
<text text-anchor="start" x="279" y="-29" font-family="Helvetica,sans-Serif" font-size="10.00">Internal HTTP Server</text>
<text text-anchor="start" x="279" y="-18" font-family="Helvetica,sans-Serif" font-size="10.00"> Connection Management</text>
<text text-anchor="middle" x="335" y="-7" font-family="Helvetica,sans-Serif" font-size="10.00"> Helpers</text>
</a>
</g>
</g>
<!-- Node1&#45;&gt;Node13 -->
<g id="edge12" class="edge">
<title>Node1&#45;&gt;Node13</title>
<path fill="none" stroke="black" d="M43.72,-330.84C47.74,-272.34 62.64,-101.15 101,-63.5 145.33,-19.99 218.43,-12.85 270.93,-14.31"/>
<polygon fill="black" stroke="black" points="40.21,-330.75 43.05,-340.96 47.2,-331.21 40.21,-330.75"/>
</g>
</g>
</svg>
