<?xml version="1.0" encoding="UTF-8" standalone="no"?>
<!DOCTYPE svg PUBLIC "-//W3C//DTD SVG 1.1//EN"
 "http://www.w3.org/Graphics/SVG/1.1/DTD/svg11.dtd">
<!-- Generated by graphviz version 2.43.0 (0)
 -->
<!-- Title: Core I/O Modules Pages: 1 -->
<svg width="388pt" height="128pt"
 viewBox="0.00 0.00 388.00 127.50" xmlns="http://www.w3.org/2000/svg" xmlns:xlink="http://www.w3.org/1999/xlink">

<svg id="main" version="1.1" xmlns="http://www.w3.org/2000/svg" xmlns:xlink="http://www.w3.org/1999/xlink" xml:space="preserve" onload="init(evt)">
<style type="text/css"><![CDATA[
.node, .edge {opacity: 0.7;}
.node.selected, .edge.selected {opacity: 1;}
.edge:hover path { stroke: red; }
.edge:hover polygon { stroke: red; fill: red; }
]]></style>
<script type="application/ecmascript" xlink:href="svg.min.js"/>
<svg id="graph" class="graph">
<g id="graph0" class="graph" transform="scale(1 1) rotate(0) translate(4 123.5)">
<title>Core I/O Modules</title>
<!-- Node1 -->
<g id="Node000001" class="node">
<title>Node1</title>
<g id="a_Node000001"><a xlink:title="Fundamental socket operations for TCP, UDP, and Unix domain sockets.The Core I/O group provides the b...">
<polygon fill="#999999" stroke="#666666" points="94,-68.5 0,-68.5 0,-49.5 94,-49.5 94,-68.5"/>
<text text-anchor="middle" x="47" y="-56.5" font-family="Helvetica,sans-Serif" font-size="10.00">Core I/O Modules</text>
</a>
</g>
</g>
<!-- Node2 -->
<g id="Node000002" class="node">
<title>Node2</title>
<g id="a_Node000002"><a xlink:href="group__dns.html" target="_top" xlink:title="Thread pool&#45;based DNS resolution with guaranteed timeouts and SocketPoll integration.">
<polygon fill="white" stroke="#666666" points="380,-119.5 227,-119.5 227,-100.5 380,-100.5 380,-119.5"/>
<text text-anchor="middle" x="303.5" y="-107.5" font-family="Helvetica,sans-Serif" font-size="10.00">Asynchronous DNS Resolution</text>
</a>
</g>
</g>
<!-- Node1&#45;&gt;Node2 -->
<g id="edge1" class="edge">
<title>Node1&#45;&gt;Node2</title>
<path fill="none" stroke="black" d="M75.95,-72.76C86.95,-77.64 99.84,-82.74 112,-86 149.18,-95.98 191.59,-101.84 226.94,-105.27"/>
<polygon fill="black" stroke="black" points="77.39,-69.56 66.84,-68.56 74.46,-75.92 77.39,-69.56"/>
</g>
<!-- Node4 -->
<g id="Node000004" class="node">
<title>Node4</title>
<g id="a_Node000004"><a xlink:href="group__proxy.html" target="_top" xlink:title="Transparent TCP proxy support with sync/async APIs.">
<polygon fill="white" stroke="#666666" points="364.5,-75.5 242.5,-75.5 242.5,-56.5 364.5,-56.5 364.5,-75.5"/>
<text text-anchor="middle" x="303.5" y="-63.5" font-family="Helvetica,sans-Serif" font-size="10.00">Proxy Tunneling Module</text>
</a>
</g>
</g>
<!-- Node1&#45;&gt;Node4 -->
<g id="edge3" class="edge">
<title>Node1&#45;&gt;Node4</title>
<path fill="none" stroke="black" d="M103.14,-70.01C106.13,-70.39 109.1,-70.73 112,-71 155.48,-75.04 204.77,-73.59 242.32,-71.23"/>
<polygon fill="black" stroke="black" points="103.36,-66.5 92.96,-68.51 102.34,-73.43 103.36,-66.5"/>
</g>
<!-- Node1&#45;&gt;Node4 -->
<g id="edge5" class="edge">
<title>Node1&#45;&gt;Node4</title>
<path fill="none" stroke="orange" stroke-dasharray="5,2" d="M94.14,-58.19C100.15,-58.11 106.22,-58.05 112,-58 155.11,-57.66 165.93,-56.16 209,-58 219.82,-58.46 231.33,-59.22 242.44,-60.1"/>
<text text-anchor="middle" x="160.5" y="-61" font-family="Helvetica,sans-Serif" font-size="10.00">SocketProxy_Config</text>
</g>
<!-- Node3 -->
<g id="Node000003" class="node">
<title>Node3</title>
<g id="a_Node000003"><a xlink:href="group__proxy__private.html" target="_top" xlink:title=" ">
<polygon fill="white" stroke="#666666" points="363.5,-30 243.5,-30 243.5,0 363.5,0 363.5,-30"/>
<text text-anchor="start" x="251.5" y="-18" font-family="Helvetica,sans-Serif" font-size="10.00">SocketProxy Private</text>
<text text-anchor="middle" x="303.5" y="-7" font-family="Helvetica,sans-Serif" font-size="10.00"> Implementation Details</text>
</a>
</g>
</g>
<!-- Node1&#45;&gt;Node3 -->
<g id="edge2" class="edge">
<title>Node1&#45;&gt;Node3</title>
<path fill="none" stroke="black" d="M103.98,-49.32C145.25,-42.19 201.28,-32.5 243.3,-25.24"/>
<polygon fill="black" stroke="black" points="103.35,-45.88 94.09,-51.03 104.54,-52.78 103.35,-45.88"/>
</g>
<!-- Node1&#45;&gt;Node3 -->
<g id="edge4" class="edge">
<title>Node1&#45;&gt;Node3</title>
<path fill="none" stroke="orange" stroke-dasharray="5,2" d="M58.34,-49.46C70.25,-39.18 90.9,-23.43 112,-17 154.56,-4.04 204.98,-4.15 243.26,-7.17"/>
<text text-anchor="middle" x="160.5" y="-20" font-family="Helvetica,sans-Serif" font-size="10.00">SocketProxy_Conn_T</text>
</g>
</g>
</svg>
</svg>

<style type='text/css'>
<![CDATA[
[data-mouse-over-selected='false'] { opacity: 0.7; }
[data-mouse-over-selected='true']  { opacity: 1.0; }
]]>
</style>
<script type="application/ecmascript"><![CDATA[
document.addEventListener('DOMContentLoaded', (event) => {
  highlightEdges();
  highlightAdjacentNodes();
});
]]></script>
</svg>
