<?xml version="1.0" encoding="UTF-8" standalone="no"?>
<!DOCTYPE svg PUBLIC "-//W3C//DTD SVG 1.1//EN"
 "http://www.w3.org/Graphics/SVG/1.1/DTD/svg11.dtd">
<!-- Generated by graphviz version 2.43.0 (0)
 -->
<!-- Title: Event System Modules Pages: 1 -->
<svg width="313pt" height="33pt"
 viewBox="0.00 0.00 313.00 33.40" xmlns="http://www.w3.org/2000/svg" xmlns:xlink="http://www.w3.org/1999/xlink">
<g id="graph0" class="graph" transform="scale(1 1) rotate(0) translate(4 29.4)">
<title>Event System Modules</title>
<!-- Node2 -->
<g id="Node000002" class="node">
<title>Node2</title>
<g id="a_Node000002"><a xlink:href="group__core__io.html" target="_top" xlink:title="Fundamental socket operations for TCP, UDP, and Unix domain sockets.The Core I/O group provides the b...">
<polygon fill="white" stroke="#666666" points="94,-25.4 0,-25.4 0,-6.4 94,-6.4 94,-25.4"/>
<text text-anchor="middle" x="47" y="-13.4" font-family="Helvetica,sans-Serif" font-size="10.00">Core I/O Modules</text>
</a>
</g>
</g>
<!-- Node1 -->
<g id="Node000001" class="node">
<title>Node1</title>
<g id="a_Node000001"><a xlink:title="High&#45;performance I/O multiplexing with cross&#45;platform backends.Key components: SocketPoll (epoll/kque...">
<polygon fill="#999999" stroke="#666666" points="305,-25.4 186,-25.4 186,-6.4 305,-6.4 305,-25.4"/>
<text text-anchor="middle" x="245.5" y="-13.4" font-family="Helvetica,sans-Serif" font-size="10.00">Event System Modules</text>
</a>
</g>
</g>
<!-- Node2&#45;&gt;Node1 -->
<g id="edge1" class="edge">
<title>Node2&#45;&gt;Node1</title>
<path fill="none" stroke="black" d="M104.31,-15.9C129.79,-15.9 159.89,-15.9 185.66,-15.9"/>
<polygon fill="black" stroke="black" points="104.07,-12.4 94.07,-15.9 104.07,-19.4 104.07,-12.4"/>
</g>
<!-- Node1&#45;&gt;Node2 -->
<g id="edge2" class="edge">
<title>Node1&#45;&gt;Node2</title>
<path fill="none" stroke="darkgreen" stroke-dasharray="5,2" d="M200.19,-6.39C189.69,-4.52 178.49,-2.85 168,-1.9 143.21,0.35 136.74,0.78 112,-1.9 103.18,-2.85 93.79,-4.53 85,-6.39"/>
<text text-anchor="middle" x="140" y="-4.9" font-family="Helvetica,sans-Serif" font-size="10.00">SocketPoll.h</text>
</g>
</g>
</svg>
