<?xml version="1.0" encoding="UTF-8" standalone="no"?>
<!DOCTYPE svg PUBLIC "-//W3C//DTD SVG 1.1//EN"
 "http://www.w3.org/Graphics/SVG/1.1/DTD/svg11.dtd">
<!-- Generated by graphviz version 2.43.0 (0)
 -->
<!-- Title: HTTP/1.1 Parser Internal Implementation Pages: 1 -->
<svg width="539pt" height="72pt"
 viewBox="0.00 0.00 539.00 72.30" xmlns="http://www.w3.org/2000/svg" xmlns:xlink="http://www.w3.org/1999/xlink">
<g id="graph0" class="graph" transform="scale(1 1) rotate(0) translate(4 68.3)">
<title>HTTP/1.1 Parser Internal Implementation</title>
<!-- Node3 -->
<g id="Node000003" class="node">
<title>Node3</title>
<g id="a_Node000003"><a xlink:href="group__http.html" target="_top" xlink:title="Complete HTTP/1.1 and HTTP/2 protocol implementation with client and server support.">
<polygon fill="white" stroke="#666666" points="531,-29.8 448,-29.8 448,-10.8 531,-10.8 531,-29.8"/>
<text text-anchor="middle" x="489.5" y="-17.8" font-family="Helvetica,sans-Serif" font-size="10.00">HTTP Modules</text>
</a>
</g>
</g>
<!-- Node2 -->
<g id="Node000002" class="node">
<title>Node2</title>
<g id="a_Node000002"><a xlink:href="group__http1.html" target="_top" xlink:title="Comprehensive HTTP/1.1 parsing, serialization, and transfer encoding support.">
<polygon fill="white" stroke="#666666" points="110,-35.3 0,-35.3 0,-5.3 110,-5.3 110,-35.3"/>
<text text-anchor="start" x="8" y="-23.3" font-family="Helvetica,sans-Serif" font-size="10.00">HTTP/1.1 Parser and</text>
<text text-anchor="middle" x="55" y="-12.3" font-family="Helvetica,sans-Serif" font-size="10.00"> Serializer Module</text>
</a>
</g>
</g>
<!-- Node1 -->
<g id="Node000001" class="node">
<title>Node1</title>
<g id="a_Node000001"><a xlink:title=" ">
<polygon fill="#999999" stroke="#666666" points="273,-35.3 147,-35.3 147,-5.3 273,-5.3 273,-35.3"/>
<text text-anchor="start" x="155" y="-23.3" font-family="Helvetica,sans-Serif" font-size="10.00">HTTP/1.1 Parser Internal</text>
<text text-anchor="middle" x="210" y="-12.3" font-family="Helvetica,sans-Serif" font-size="10.00"> Implementation</text>
</a>
</g>
</g>
<!-- Node2&#45;&gt;Node1 -->
<g id="edge1" class="edge">
<title>Node2&#45;&gt;Node1</title>
<path fill="none" stroke="black" d="M120.53,-20.3C129.29,-20.3 138.26,-20.3 146.98,-20.3"/>
<polygon fill="black" stroke="black" points="120.37,-16.8 110.37,-20.3 120.37,-23.8 120.37,-16.8"/>
</g>
<!-- Node1&#45;&gt;Node3 -->
<g id="edge2" class="edge">
<title>Node1&#45;&gt;Node3</title>
<path fill="none" stroke="orange" stroke-dasharray="5,2" d="M273.28,-20.3C326.65,-20.3 401.98,-20.3 447.9,-20.3"/>
<text text-anchor="middle" x="360.5" y="-56.3" font-family="Helvetica,sans-Serif" font-size="10.00">HTTP1_TokenBuf</text>
<text text-anchor="middle" x="360.5" y="-45.3" font-family="Helvetica,sans-Serif" font-size="10.00">SocketHTTP1_Parser</text>
<text text-anchor="middle" x="360.5" y="-34.3" font-family="Helvetica,sans-Serif" font-size="10.00">SocketHTTP1_Parser::@5</text>
<text text-anchor="middle" x="360.5" y="-23.3" font-family="Helvetica,sans-Serif" font-size="10.00">SocketHTTP1_Parser.message</text>
</g>
<!-- Node1&#45;&gt;Node3 -->
<g id="edge3" class="edge">
<title>Node1&#45;&gt;Node3</title>
<path fill="none" stroke="darkgreen" stroke-dasharray="5,2" d="M273.29,-7.46C279.26,-6.58 285.23,-5.83 291,-5.3 352.51,0.42 368.71,2.44 430,-5.3 438.95,-6.42 448.48,-8.49 457.21,-10.73"/>
<text text-anchor="middle" x="360.5" y="-8.3" font-family="Helvetica,sans-Serif" font-size="10.00">SocketHTTP1&#45;private.h</text>
</g>
</g>
</svg>
