<?xml version="1.0" encoding="UTF-8" standalone="no"?>
<!DOCTYPE svg PUBLIC "-//W3C//DTD SVG 1.1//EN"
 "http://www.w3.org/Graphics/SVG/1.1/DTD/svg11.dtd">
<!-- Generated by graphviz version 2.43.0 (0)
 -->
<!-- Title: Live Socket Counting Utilities Pages: 1 -->
<svg width="282pt" height="101pt"
 viewBox="0.00 0.00 282.00 101.00" xmlns="http://www.w3.org/2000/svg" xmlns:xlink="http://www.w3.org/1999/xlink">

<svg id="main" version="1.1" xmlns="http://www.w3.org/2000/svg" xmlns:xlink="http://www.w3.org/1999/xlink" xml:space="preserve" onload="init(evt)">
<style type="text/css"><![CDATA[
.node, .edge {opacity: 0.7;}
.node.selected, .edge.selected {opacity: 1;}
.edge:hover path { stroke: red; }
.edge:hover polygon { stroke: red; fill: red; }
]]></style>
<script type="application/ecmascript" xlink:href="svg.min.js"/>
<svg id="graph" class="graph">
<g id="graph0" class="graph" transform="scale(1 1) rotate(0) translate(4 97)">
<title>Live Socket Counting Utilities</title>
<!-- Node3 -->
<g id="Node000003" class="node">
<title>Node3</title>
<g id="a_Node000003"><a xlink:href="group__core__io.html" target="_top" xlink:title="Fundamental socket primitives for TCP, UDP, Unix domain, and DNS operations.">
<polygon fill="white" stroke="#666666" points="111,-93 17,-93 17,-74 111,-74 111,-93"/>
<text text-anchor="middle" x="64" y="-81" font-family="Helvetica,sans-Serif" font-size="10.00">Core I/O Modules</text>
</a>
</g>
</g>
<!-- Node1 -->
<g id="Node000001" class="node">
<title>Node1</title>
<g id="a_Node000001"><a xlink:title="Thread&#45;safe global counter for tracking active Socket_T instances.">
<polygon fill="#999999" stroke="#666666" points="274,-61.5 164,-61.5 164,-31.5 274,-31.5 274,-61.5"/>
<text text-anchor="start" x="172" y="-49.5" font-family="Helvetica,sans-Serif" font-size="10.00">Live Socket Counting</text>
<text text-anchor="middle" x="219" y="-38.5" font-family="Helvetica,sans-Serif" font-size="10.00"> Utilities</text>
</a>
</g>
</g>
<!-- Node3&#45;&gt;Node1 -->
<g id="edge2" class="edge">
<title>Node3&#45;&gt;Node1</title>
<path fill="none" stroke="black" d="M114.46,-71.54C130.19,-67.73 147.68,-63.5 163.74,-59.62"/>
<polygon fill="black" stroke="black" points="113.3,-68.22 104.4,-73.97 114.94,-75.02 113.3,-68.22"/>
</g>
<!-- Node2 -->
<g id="Node000002" class="node">
<title>Node2</title>
<g id="a_Node000002"><a xlink:href="group__foundation.html" target="_top" xlink:title="Base infrastructure for memory management, exception handling, and core utilities....">
<polygon fill="white" stroke="#666666" points="128,-56 0,-56 0,-37 128,-37 128,-56"/>
<text text-anchor="middle" x="64" y="-44" font-family="Helvetica,sans-Serif" font-size="10.00">Core Foundation Modules</text>
</a>
</g>
</g>
<!-- Node2&#45;&gt;Node1 -->
<g id="edge1" class="edge">
<title>Node2&#45;&gt;Node1</title>
<path fill="none" stroke="black" d="M138.19,-46.5C146.83,-46.5 155.51,-46.5 163.82,-46.5"/>
<polygon fill="black" stroke="black" points="138.11,-43 128.11,-46.5 138.11,-50 138.11,-43"/>
</g>
<!-- Node4 -->
<g id="Node000004" class="node">
<title>Node4</title>
<g id="a_Node000004"><a xlink:href="group__utilities.html" target="_top" xlink:title="Helper modules for rate limiting, retry logic, and metrics.">
<polygon fill="white" stroke="#666666" points="89,-19 39,-19 39,0 89,0 89,-19"/>
<text text-anchor="middle" x="64" y="-7" font-family="Helvetica,sans-Serif" font-size="10.00">Utilities</text>
</a>
</g>
</g>
<!-- Node4&#45;&gt;Node1 -->
<g id="edge3" class="edge">
<title>Node4&#45;&gt;Node1</title>
<path fill="none" stroke="black" d="M99.22,-17.78C118.21,-22.37 142.26,-28.18 163.75,-33.38"/>
<polygon fill="black" stroke="black" points="99.79,-14.31 89.24,-15.36 98.14,-21.12 99.79,-14.31"/>
</g>
</g>
</svg>
</svg>

<style type='text/css'>
<![CDATA[
[data-mouse-over-selected='false'] { opacity: 0.7; }
[data-mouse-over-selected='true']  { opacity: 1.0; }
]]>
</style>
<script type="application/ecmascript"><![CDATA[
document.addEventListener('DOMContentLoaded', (event) => {
  highlightEdges();
  highlightAdjacentNodes();
});
]]></script>
</svg>
