<?xml version="1.0" encoding="UTF-8" standalone="no"?>
<!DOCTYPE svg PUBLIC "-//W3C//DTD SVG 1.1//EN"
 "http://www.w3.org/Graphics/SVG/1.1/DTD/svg11.dtd">
<!-- Generated by graphviz version 2.43.0 (0)
 -->
<!-- Title: Authentication Buffer Constants Pages: 1 -->
<svg width="401pt" height="76pt"
 viewBox="0.00 0.00 401.00 75.50" xmlns="http://www.w3.org/2000/svg" xmlns:xlink="http://www.w3.org/1999/xlink">
<g id="graph0" class="graph" transform="scale(1 1) rotate(0) translate(4 71.5)">
<title>Authentication Buffer Constants</title>
<!-- Node2 -->
<g id="Node000002" class="node">
<title>Node2</title>
<g id="a_Node000002"><a xlink:href="group__http.html" target="_top" xlink:title="Complete HTTP/1.1 and HTTP/2 protocol implementation with client and server support.">
<polygon fill="white" stroke="#666666" points="83,-40 0,-40 0,-21 83,-21 83,-40"/>
<text text-anchor="middle" x="41.5" y="-28" font-family="Helvetica,sans-Serif" font-size="10.00">HTTP Modules</text>
</a>
</g>
</g>
<!-- Node1 -->
<g id="Node000001" class="node">
<title>Node1</title>
<g id="a_Node000001"><a xlink:title="Internal buffer sizes for HTTP authentication header generation and computation.">
<polygon fill="#999999" stroke="#666666" points="227,-45.5 119,-45.5 119,-15.5 227,-15.5 227,-45.5"/>
<text text-anchor="start" x="127" y="-33.5" font-family="Helvetica,sans-Serif" font-size="10.00">Authentication Buffer</text>
<text text-anchor="middle" x="173" y="-22.5" font-family="Helvetica,sans-Serif" font-size="10.00"> Constants</text>
</a>
</g>
</g>
<!-- Node2&#45;&gt;Node1 -->
<g id="edge1" class="edge">
<title>Node2&#45;&gt;Node1</title>
<path fill="none" stroke="black" d="M93.14,-30.5C101.53,-30.5 110.24,-30.5 118.69,-30.5"/>
<polygon fill="black" stroke="black" points="93.12,-27 83.12,-30.5 93.12,-34 93.12,-27"/>
</g>
<!-- Node3 -->
<g id="Node000003" class="node">
<title>Node3</title>
<g id="a_Node000003"><a xlink:href="group__http__client__buffers.html" target="_top" xlink:title="Buffer sizes for HTTP request serialization, response reading, and headers.">
<polygon fill="white" stroke="#666666" points="393,-67.5 263,-67.5 263,-37.5 393,-37.5 393,-67.5"/>
<text text-anchor="start" x="271" y="-55.5" font-family="Helvetica,sans-Serif" font-size="10.00">Request/Response Buffer</text>
<text text-anchor="middle" x="328" y="-44.5" font-family="Helvetica,sans-Serif" font-size="10.00"> Constants</text>
</a>
</g>
</g>
<!-- Node1&#45;&gt;Node3 -->
<g id="edge2" class="edge">
<title>Node1&#45;&gt;Node3</title>
<path fill="none" stroke="black" d="M237,-39.56C245.57,-40.79 254.36,-42.06 262.94,-43.29"/>
<polygon fill="black" stroke="black" points="237.48,-36.09 227.08,-38.13 236.48,-43.02 237.48,-36.09"/>
</g>
<!-- Node4 -->
<g id="Node000004" class="node">
<title>Node4</title>
<g id="a_Node000004"><a xlink:href="group__http__client__encoding.html" target="_top" xlink:title="Bit flags indicating supported Content&#45;Encoding methods for HTTP client.">
<polygon fill="white" stroke="#666666" points="389,-19 267,-19 267,0 389,0 389,-19"/>
<text text-anchor="middle" x="328" y="-7" font-family="Helvetica,sans-Serif" font-size="10.00">Content&#45;Encoding Flags</text>
</a>
</g>
</g>
<!-- Node1&#45;&gt;Node4 -->
<g id="edge3" class="edge">
<title>Node1&#45;&gt;Node4</title>
<path fill="none" stroke="black" d="M237.2,-21.83C247.03,-20.48 257.17,-19.08 266.94,-17.74"/>
<polygon fill="black" stroke="black" points="236.51,-18.39 227.08,-23.21 237.47,-25.32 236.51,-18.39"/>
</g>
</g>
</svg>
