<?xml version="1.0" encoding="UTF-8" standalone="no"?>
<!DOCTYPE svg PUBLIC "-//W3C//DTD SVG 1.1//EN"
 "http://www.w3.org/Graphics/SVG/1.1/DTD/svg11.dtd">
<!-- Generated by graphviz version 2.43.0 (0)
 -->
<!-- Title: SocketReconnect Private Implementation Details Pages: 1 -->
<svg width="416pt" height="44pt"
 viewBox="0.00 0.00 416.00 44.15" xmlns="http://www.w3.org/2000/svg" xmlns:xlink="http://www.w3.org/1999/xlink">
<g id="graph0" class="graph" transform="scale(1 1) rotate(0) translate(4 40.15)">
<title>SocketReconnect Private Implementation Details</title>
<!-- Node2 -->
<g id="Node000002" class="node">
<title>Node2</title>
<g id="a_Node000002"><a xlink:href="group__connection__mgmt.html" target="_top" xlink:title="Connection lifecycle management with pooling, reconnection, and resilience patterns.">
<polygon fill="white" stroke="#666666" points="125,-36.15 0,-36.15 0,-6.15 125,-6.15 125,-36.15"/>
<text text-anchor="start" x="8" y="-24.15" font-family="Helvetica,sans-Serif" font-size="10.00">Connection Management</text>
<text text-anchor="middle" x="62.5" y="-13.15" font-family="Helvetica,sans-Serif" font-size="10.00"> Modules</text>
</a>
</g>
</g>
<!-- Node1 -->
<g id="Node000001" class="node">
<title>Node1</title>
<g id="a_Node000001"><a xlink:title="Internal structures and utilities for reconnection logic.">
<polygon fill="#999999" stroke="#666666" points="408,-36.15 280,-36.15 280,-6.15 408,-6.15 408,-36.15"/>
<text text-anchor="start" x="288" y="-24.15" font-family="Helvetica,sans-Serif" font-size="10.00">SocketReconnect Private</text>
<text text-anchor="middle" x="344" y="-13.15" font-family="Helvetica,sans-Serif" font-size="10.00"> Implementation Details</text>
</a>
</g>
</g>
<!-- Node2&#45;&gt;Node1 -->
<g id="edge1" class="edge">
<title>Node2&#45;&gt;Node1</title>
<path fill="none" stroke="black" d="M135.22,-32.47C137.84,-32.73 140.44,-32.95 143,-33.15 195.74,-37.1 209.25,-37.03 262,-33.15 267.81,-32.72 273.84,-32.12 279.87,-31.41"/>
<polygon fill="black" stroke="black" points="135.35,-28.97 125.03,-31.36 134.59,-35.92 135.35,-28.97"/>
</g>
<!-- Node1&#45;&gt;Node2 -->
<g id="edge2" class="edge">
<title>Node1&#45;&gt;Node2</title>
<path fill="none" stroke="orange" stroke-dasharray="5,2" d="M279.77,-20.29C273.76,-20.23 267.77,-20.18 262,-20.15 209.11,-19.82 195.89,-19.81 143,-20.15 137.2,-20.18 131.17,-20.23 125.13,-20.29"/>
<text text-anchor="middle" x="202.5" y="-23.15" font-family="Helvetica,sans-Serif" font-size="10.00">SocketReconnect_T</text>
</g>
<!-- Node1&#45;&gt;Node2 -->
<g id="edge3" class="edge">
<title>Node1&#45;&gt;Node2</title>
<path fill="none" stroke="darkgreen" stroke-dasharray="5,2" d="M279.97,-6.6C273.92,-5.6 267.86,-4.75 262,-4.15 209.39,1.32 195.6,1.42 143,-4.15 137.25,-4.75 131.29,-5.6 125.36,-6.6"/>
<text text-anchor="middle" x="202.5" y="-7.15" font-family="Helvetica,sans-Serif" font-size="10.00">SocketReconnect&#45;private.h</text>
</g>
</g>
</svg>
