<?xml version="1.0" encoding="UTF-8" standalone="no"?>
<!DOCTYPE svg PUBLIC "-//W3C//DTD SVG 1.1//EN"
 "http://www.w3.org/Graphics/SVG/1.1/DTD/svg11.dtd">
<!-- Generated by graphviz version 2.43.0 (0)
 -->
<!-- Title: HTTP Client Module Pages: 1 -->
<svg width="399pt" height="182pt"
 viewBox="0.00 0.00 399.00 182.00" xmlns="http://www.w3.org/2000/svg" xmlns:xlink="http://www.w3.org/1999/xlink">
<g id="graph0" class="graph" transform="scale(1 1) rotate(0) translate(4 178)">
<title>HTTP Client Module</title>
<!-- Node2 -->
<g id="Node000002" class="node">
<title>Node2</title>
<g id="a_Node000002"><a xlink:href="group__http.html" target="_top" xlink:title="Complete HTTP/1.1 and HTTP/2 protocol implementation with client and server support.">
<polygon fill="white" stroke="#666666" points="83,-96.5 0,-96.5 0,-77.5 83,-77.5 83,-96.5"/>
<text text-anchor="middle" x="41.5" y="-84.5" font-family="Helvetica,sans-Serif" font-size="10.00">HTTP Modules</text>
</a>
</g>
</g>
<!-- Node1 -->
<g id="Node000001" class="node">
<title>Node1</title>
<g id="a_Node000001"><a xlink:title="High&#45;level HTTP client library supporting HTTP/1.1, HTTP/2, connection pooling, async I/O,...">
<polygon fill="#999999" stroke="#666666" points="225,-96.5 119,-96.5 119,-77.5 225,-77.5 225,-96.5"/>
<text text-anchor="middle" x="172" y="-84.5" font-family="Helvetica,sans-Serif" font-size="10.00">HTTP Client Module</text>
</a>
</g>
</g>
<!-- Node2&#45;&gt;Node1 -->
<g id="edge1" class="edge">
<title>Node2&#45;&gt;Node1</title>
<path fill="none" stroke="black" d="M93.22,-87C101.64,-87 110.38,-87 118.83,-87"/>
<polygon fill="black" stroke="black" points="93.16,-83.5 83.16,-87 93.16,-90.5 93.16,-83.5"/>
</g>
<!-- Node6 -->
<g id="Node000006" class="node">
<title>Node6</title>
<g id="a_Node000006"><a xlink:href="group__http__client__auth.html" target="_top" xlink:title="Internal buffer sizes for HTTP authentication header generation and computation.">
<polygon fill="white" stroke="#666666" points="380,-174 272,-174 272,-144 380,-144 380,-174"/>
<text text-anchor="start" x="280" y="-162" font-family="Helvetica,sans-Serif" font-size="10.00">Authentication Buffer</text>
<text text-anchor="middle" x="326" y="-151" font-family="Helvetica,sans-Serif" font-size="10.00"> Constants</text>
</a>
</g>
</g>
<!-- Node1&#45;&gt;Node6 -->
<g id="edge5" class="edge">
<title>Node1&#45;&gt;Node6</title>
<path fill="none" stroke="black" d="M197.79,-101.74C215.17,-111.77 239.1,-124.98 261,-135 267.8,-138.11 275.13,-141.14 282.31,-143.95"/>
<polygon fill="black" stroke="black" points="199.27,-98.56 188.87,-96.54 195.75,-104.6 199.27,-98.56"/>
</g>
<!-- Node5 -->
<g id="Node000005" class="node">
<title>Node5</title>
<g id="a_Node000005"><a xlink:href="group__http__client__cookie.html" target="_top" xlink:title="Limits and buffer sizes for HTTP client cookie handling and jar management.">
<polygon fill="white" stroke="#666666" points="380,-126 272,-126 272,-96 380,-96 380,-126"/>
<text text-anchor="start" x="280" y="-114" font-family="Helvetica,sans-Serif" font-size="10.00">Cookie Configuration</text>
<text text-anchor="middle" x="326" y="-103" font-family="Helvetica,sans-Serif" font-size="10.00"> Constants</text>
</a>
</g>
</g>
<!-- Node1&#45;&gt;Node5 -->
<g id="edge4" class="edge">
<title>Node1&#45;&gt;Node5</title>
<path fill="none" stroke="black" d="M235.34,-96.84C247.45,-98.76 260.04,-100.74 271.82,-102.6"/>
<polygon fill="black" stroke="black" points="235.73,-93.36 225.31,-95.26 234.64,-100.28 235.73,-93.36"/>
</g>
<!-- Node3 -->
<g id="Node000003" class="node">
<title>Node3</title>
<g id="a_Node000003"><a xlink:href="group__http__client__limits.html" target="_top" xlink:title="Limits on redirects, connections, and retries for safety and performance.">
<polygon fill="white" stroke="#666666" points="391,-78 261,-78 261,-48 391,-48 391,-78"/>
<text text-anchor="start" x="269" y="-66" font-family="Helvetica,sans-Serif" font-size="10.00">Connection and Resource</text>
<text text-anchor="middle" x="326" y="-55" font-family="Helvetica,sans-Serif" font-size="10.00"> Limits</text>
</a>
</g>
</g>
<!-- Node1&#45;&gt;Node3 -->
<g id="edge2" class="edge">
<title>Node1&#45;&gt;Node3</title>
<path fill="none" stroke="black" d="M235.38,-77.15C243.76,-75.83 252.36,-74.47 260.77,-73.14"/>
<polygon fill="black" stroke="black" points="234.64,-73.72 225.31,-78.74 235.73,-80.64 234.64,-73.72"/>
</g>
<!-- Node4 -->
<g id="Node000004" class="node">
<title>Node4</title>
<g id="a_Node000004"><a xlink:href="group__http__client__retry.html" target="_top" xlink:title="Parameters for automatic retry logic on transient failures.">
<polygon fill="white" stroke="#666666" points="376.5,-30 275.5,-30 275.5,0 376.5,0 376.5,-30"/>
<text text-anchor="start" x="283.5" y="-18" font-family="Helvetica,sans-Serif" font-size="10.00">Retry Configuration</text>
<text text-anchor="middle" x="326" y="-7" font-family="Helvetica,sans-Serif" font-size="10.00"> Constants</text>
</a>
</g>
</g>
<!-- Node1&#45;&gt;Node4 -->
<g id="edge3" class="edge">
<title>Node1&#45;&gt;Node4</title>
<path fill="none" stroke="black" d="M197.79,-72.26C215.17,-62.23 239.1,-49.02 261,-39 267.8,-35.89 275.13,-32.86 282.31,-30.05"/>
<polygon fill="black" stroke="black" points="195.75,-69.4 188.87,-77.46 199.27,-75.44 195.75,-69.4"/>
</g>
</g>
</svg>
