<?xml version="1.0" encoding="UTF-8" standalone="no"?>
<!DOCTYPE svg PUBLIC "-//W3C//DTD SVG 1.1//EN"
 "http://www.w3.org/Graphics/SVG/1.1/DTD/svg11.dtd">
<!-- Generated by graphviz version 2.43.0 (0)
 -->
<!-- Title: Authentication Buffer Constants Pages: 1 -->
<svg width="424pt" height="76pt"
 viewBox="0.00 0.00 424.00 75.50" xmlns="http://www.w3.org/2000/svg" xmlns:xlink="http://www.w3.org/1999/xlink">
<g id="graph0" class="graph" transform="scale(1 1) rotate(0) translate(4 71.5)">
<title>Authentication Buffer Constants</title>
<!-- Node2 -->
<g id="Node000002" class="node">
<title>Node2</title>
<g id="a_Node000002"><a xlink:href="group__http__client.html" target="_top" xlink:title="High&#45;level HTTP client library supporting HTTP/1.1, HTTP/2, connection pooling, async I/O,...">
<polygon fill="white" stroke="#666666" points="106,-40 0,-40 0,-21 106,-21 106,-40"/>
<text text-anchor="middle" x="53" y="-28" font-family="Helvetica,sans-Serif" font-size="10.00">HTTP Client Module</text>
</a>
</g>
</g>
<!-- Node1 -->
<g id="Node000001" class="node">
<title>Node1</title>
<g id="a_Node000001"><a xlink:title="Internal buffer sizes for HTTP authentication header generation and computation.">
<polygon fill="#999999" stroke="#666666" points="250,-45.5 142,-45.5 142,-15.5 250,-15.5 250,-45.5"/>
<text text-anchor="start" x="150" y="-33.5" font-family="Helvetica,sans-Serif" font-size="10.00">Authentication Buffer</text>
<text text-anchor="middle" x="196" y="-22.5" font-family="Helvetica,sans-Serif" font-size="10.00"> Constants</text>
</a>
</g>
</g>
<!-- Node2&#45;&gt;Node1 -->
<g id="edge1" class="edge">
<title>Node2&#45;&gt;Node1</title>
<path fill="none" stroke="black" d="M116.32,-30.5C124.78,-30.5 133.41,-30.5 141.7,-30.5"/>
<polygon fill="black" stroke="black" points="116.1,-27 106.1,-30.5 116.1,-34 116.1,-27"/>
</g>
<!-- Node3 -->
<g id="Node000003" class="node">
<title>Node3</title>
<g id="a_Node000003"><a xlink:href="group__http__client__buffers.html" target="_top" xlink:title="Buffer sizes for HTTP request serialization, response reading, and headers.">
<polygon fill="white" stroke="#666666" points="416,-67.5 286,-67.5 286,-37.5 416,-37.5 416,-67.5"/>
<text text-anchor="start" x="294" y="-55.5" font-family="Helvetica,sans-Serif" font-size="10.00">Request/Response Buffer</text>
<text text-anchor="middle" x="351" y="-44.5" font-family="Helvetica,sans-Serif" font-size="10.00"> Constants</text>
</a>
</g>
</g>
<!-- Node1&#45;&gt;Node3 -->
<g id="edge2" class="edge">
<title>Node1&#45;&gt;Node3</title>
<path fill="none" stroke="black" d="M260,-39.56C268.57,-40.79 277.36,-42.06 285.94,-43.29"/>
<polygon fill="black" stroke="black" points="260.48,-36.09 250.08,-38.13 259.48,-43.02 260.48,-36.09"/>
</g>
<!-- Node4 -->
<g id="Node000004" class="node">
<title>Node4</title>
<g id="a_Node000004"><a xlink:href="group__http__client__encoding.html" target="_top" xlink:title="Bit flags indicating supported Content&#45;Encoding methods for HTTP client.">
<polygon fill="white" stroke="#666666" points="412,-19 290,-19 290,0 412,0 412,-19"/>
<text text-anchor="middle" x="351" y="-7" font-family="Helvetica,sans-Serif" font-size="10.00">Content&#45;Encoding Flags</text>
</a>
</g>
</g>
<!-- Node1&#45;&gt;Node4 -->
<g id="edge3" class="edge">
<title>Node1&#45;&gt;Node4</title>
<path fill="none" stroke="black" d="M260.2,-21.83C270.03,-20.48 280.17,-19.08 289.94,-17.74"/>
<polygon fill="black" stroke="black" points="259.51,-18.39 250.08,-23.21 260.47,-25.32 259.51,-18.39"/>
</g>
</g>
</svg>
