<?xml version="1.0" encoding="UTF-8" standalone="no"?>
<!DOCTYPE svg PUBLIC "-//W3C//DTD SVG 1.1//EN"
 "http://www.w3.org/Graphics/SVG/1.1/DTD/svg11.dtd">
<!-- Generated by graphviz version 2.43.0 (0)
 -->
<!-- Title: http_post.c Pages: 1 -->
<svg width="1715pt" height="467pt"
 viewBox="0.00 0.00 1714.50 467.00" xmlns="http://www.w3.org/2000/svg" xmlns:xlink="http://www.w3.org/1999/xlink">
<g id="graph0" class="graph" transform="scale(1 1) rotate(0) translate(4 463)">
<title>http_post.c</title>
<!-- Node1 -->
<g id="Node000001" class="node">
<title>Node1</title>
<g id="a_Node000001"><a xlink:title=" ">
<polygon fill="#999999" stroke="#666666" points="1518.5,-459 1453.5,-459 1453.5,-440 1518.5,-440 1518.5,-459"/>
<text text-anchor="middle" x="1486" y="-447" font-family="Helvetica,sans-Serif" font-size="10.00">http_post.c</text>
</a>
</g>
</g>
<!-- Node2 -->
<g id="Node000002" class="node">
<title>Node2</title>
<g id="a_Node000002"><a xlink:title=" ">
<polygon fill="#e0e0e0" stroke="#999999" points="195,-404 145,-404 145,-385 195,-385 195,-404"/>
<text text-anchor="middle" x="170" y="-392" font-family="Helvetica,sans-Serif" font-size="10.00">signal.h</text>
</a>
</g>
</g>
<!-- Node1&#45;&gt;Node2 -->
<g id="edge1_Node000001_Node000002" class="edge">
<title>Node1&#45;&gt;Node2</title>
<g id="a_edge1_Node000001_Node000002"><a xlink:title=" ">
<path fill="none" stroke="#63b8ff" d="M1453.38,-448.16C1279.51,-446.21 460.34,-435.51 209,-404 207.72,-403.84 206.43,-403.66 205.12,-403.46"/>
<polygon fill="#63b8ff" stroke="#63b8ff" points="205.52,-399.98 195.06,-401.66 204.29,-406.87 205.52,-399.98"/>
</a>
</g>
</g>
<!-- Node3 -->
<g id="Node000003" class="node">
<title>Node3</title>
<g id="a_Node000003"><a xlink:title=" ">
<polygon fill="#e0e0e0" stroke="#999999" points="46,-74 0,-74 0,-55 46,-55 46,-74"/>
<text text-anchor="middle" x="23" y="-62" font-family="Helvetica,sans-Serif" font-size="10.00">stdio.h</text>
</a>
</g>
</g>
<!-- Node1&#45;&gt;Node3 -->
<g id="edge2_Node000001_Node000003" class="edge">
<title>Node1&#45;&gt;Node3</title>
<g id="a_edge2_Node000001_Node000003"><a xlink:title=" ">
<path fill="none" stroke="#63b8ff" d="M1453.19,-447.46C1254.71,-440.97 223,-404.15 223,-340.5 223,-340.5 223,-340.5 223,-173.5 223,-135.99 112.73,-94.64 55.95,-75.83"/>
<polygon fill="#63b8ff" stroke="#63b8ff" points="56.93,-72.47 46.33,-72.69 54.75,-79.13 56.93,-72.47"/>
</a>
</g>
</g>
<!-- Node4 -->
<g id="Node000004" class="node">
<title>Node4</title>
<g id="a_Node000004"><a xlink:title=" ">
<polygon fill="#e0e0e0" stroke="#999999" points="1639,-404 1591,-404 1591,-385 1639,-385 1639,-404"/>
<text text-anchor="middle" x="1615" y="-392" font-family="Helvetica,sans-Serif" font-size="10.00">stdlib.h</text>
</a>
</g>
</g>
<!-- Node1&#45;&gt;Node4 -->
<g id="edge3_Node000001_Node000004" class="edge">
<title>Node1&#45;&gt;Node4</title>
<g id="a_edge3_Node000001_Node000004"><a xlink:title=" ">
<path fill="none" stroke="#63b8ff" d="M1506.73,-439.98C1527.76,-431.34 1560.55,-417.87 1584.54,-408.02"/>
<polygon fill="#63b8ff" stroke="#63b8ff" points="1585.98,-411.21 1593.9,-404.17 1583.32,-404.73 1585.98,-411.21"/>
</a>
</g>
</g>
<!-- Node5 -->
<g id="Node000005" class="node">
<title>Node5</title>
<g id="a_Node000005"><a xlink:title=" ">
<polygon fill="#e0e0e0" stroke="#999999" points="1706.5,-404 1657.5,-404 1657.5,-385 1706.5,-385 1706.5,-404"/>
<text text-anchor="middle" x="1682" y="-392" font-family="Helvetica,sans-Serif" font-size="10.00">string.h</text>
</a>
</g>
</g>
<!-- Node1&#45;&gt;Node5 -->
<g id="edge4_Node000001_Node000005" class="edge">
<title>Node1&#45;&gt;Node5</title>
<g id="a_edge4_Node000001_Node000005"><a xlink:title=" ">
<path fill="none" stroke="#63b8ff" d="M1517.49,-439.98C1553.1,-430.36 1610.89,-414.73 1647.64,-404.79"/>
<polygon fill="#63b8ff" stroke="#63b8ff" points="1648.67,-408.14 1657.41,-402.15 1646.85,-401.38 1648.67,-408.14"/>
</a>
</g>
</g>
<!-- Node6 -->
<g id="Node000006" class="node">
<title>Node6</title>
<g id="a_Node000006"><a xlink:href="Except_8h.html" target="_top" xlink:title=" ">
<polygon fill="white" stroke="#666666" points="1195.5,-74 1118.5,-74 1118.5,-55 1195.5,-55 1195.5,-74"/>
<text text-anchor="middle" x="1157" y="-62" font-family="Helvetica,sans-Serif" font-size="10.00">core/Except.h</text>
</a>
</g>
</g>
<!-- Node1&#45;&gt;Node6 -->
<g id="edge5_Node000001_Node000006" class="edge">
<title>Node1&#45;&gt;Node6</title>
<g id="a_edge5_Node000001_Node000006"><a xlink:title=" ">
<path fill="none" stroke="#63b8ff" d="M1498.03,-439.91C1519.69,-423.36 1563,-384.71 1563,-340.5 1563,-340.5 1563,-340.5 1563,-173.5 1563,-141.06 1554,-127.98 1527,-110 1475.39,-75.64 1293.67,-67.79 1205.58,-66.01"/>
<polygon fill="#63b8ff" stroke="#63b8ff" points="1205.64,-62.51 1195.58,-65.82 1205.51,-69.51 1205.64,-62.51"/>
</a>
</g>
</g>
<!-- Node8 -->
<g id="Node000008" class="node">
<title>Node8</title>
<g id="a_Node000008"><a xlink:href="SocketHTTPClient_8h.html" target="_top" xlink:title=" ">
<polygon fill="white" stroke="#666666" points="1467.5,-404 1340.5,-404 1340.5,-385 1467.5,-385 1467.5,-404"/>
<text text-anchor="middle" x="1404" y="-392" font-family="Helvetica,sans-Serif" font-size="10.00">http/SocketHTTPClient.h</text>
</a>
</g>
</g>
<!-- Node1&#45;&gt;Node8 -->
<g id="edge7_Node000001_Node000008" class="edge">
<title>Node1&#45;&gt;Node8</title>
<g id="a_edge7_Node000001_Node000008"><a xlink:title=" ">
<path fill="none" stroke="#63b8ff" d="M1472.83,-439.98C1460.23,-431.84 1441,-419.41 1426.06,-409.76"/>
<polygon fill="#63b8ff" stroke="#63b8ff" points="1427.71,-406.66 1417.41,-404.17 1423.91,-412.54 1427.71,-406.66"/>
</a>
</g>
</g>
<!-- Node7 -->
<g id="Node000007" class="node">
<title>Node7</title>
<g id="a_Node000007"><a xlink:title=" ">
<polygon fill="#e0e0e0" stroke="#999999" points="1184,-19 1130,-19 1130,0 1184,0 1184,-19"/>
<text text-anchor="middle" x="1157" y="-7" font-family="Helvetica,sans-Serif" font-size="10.00">setjmp.h</text>
</a>
</g>
</g>
<!-- Node6&#45;&gt;Node7 -->
<g id="edge6_Node000006_Node000007" class="edge">
<title>Node6&#45;&gt;Node7</title>
<g id="a_edge6_Node000006_Node000007"><a xlink:title=" ">
<path fill="none" stroke="#63b8ff" d="M1157,-54.75C1157,-47.8 1157,-37.85 1157,-29.13"/>
<polygon fill="#63b8ff" stroke="#63b8ff" points="1160.5,-29.09 1157,-19.09 1153.5,-29.09 1160.5,-29.09"/>
</a>
</g>
</g>
<!-- Node8&#45;&gt;Node6 -->
<g id="edge15_Node000008_Node000006" class="edge">
<title>Node8&#45;&gt;Node6</title>
<g id="a_edge15_Node000008_Node000006"><a xlink:title=" ">
<path fill="none" stroke="#63b8ff" d="M1427.33,-384.97C1462.49,-370.44 1525,-337.31 1525,-285.5 1525,-285.5 1525,-285.5 1525,-173.5 1525,-144.04 1528.47,-129.06 1506,-110 1461.73,-72.45 1290.81,-66.13 1205.71,-65.36"/>
<polygon fill="#63b8ff" stroke="#63b8ff" points="1205.55,-61.86 1195.52,-65.29 1205.5,-68.86 1205.55,-61.86"/>
</a>
</g>
</g>
<!-- Node9 -->
<g id="Node000009" class="node">
<title>Node9</title>
<g id="a_Node000009"><a xlink:title=" ">
<polygon fill="#e0e0e0" stroke="#999999" points="941,-74 889,-74 889,-55 941,-55 941,-74"/>
<text text-anchor="middle" x="915" y="-62" font-family="Helvetica,sans-Serif" font-size="10.00">stddef.h</text>
</a>
</g>
</g>
<!-- Node8&#45;&gt;Node9 -->
<g id="edge8_Node000008_Node000009" class="edge">
<title>Node8&#45;&gt;Node9</title>
<g id="a_edge8_Node000008_Node000009"><a xlink:title=" ">
<path fill="none" stroke="#63b8ff" d="M1340.36,-392.6C1134.36,-388.83 499,-370.35 499,-285.5 499,-285.5 499,-285.5 499,-173.5 499,-144.04 495.29,-128.76 518,-110 579.48,-59.23 796.22,-86.31 875,-74 876.26,-73.8 877.55,-73.59 878.84,-73.37"/>
<polygon fill="#63b8ff" stroke="#63b8ff" points="879.65,-76.78 888.83,-71.49 878.35,-69.9 879.65,-76.78"/>
</a>
</g>
</g>
<!-- Node10 -->
<g id="Node000010" class="node">
<title>Node10</title>
<g id="a_Node000010"><a xlink:title=" ">
<polygon fill="#e0e0e0" stroke="#999999" points="1434.5,-129 1385.5,-129 1385.5,-110 1434.5,-110 1434.5,-129"/>
<text text-anchor="middle" x="1410" y="-117" font-family="Helvetica,sans-Serif" font-size="10.00">stdint.h</text>
</a>
</g>
</g>
<!-- Node8&#45;&gt;Node10 -->
<g id="edge9_Node000008_Node000010" class="edge">
<title>Node8&#45;&gt;Node10</title>
<g id="a_edge9_Node000008_Node000010"><a xlink:title=" ">
<path fill="none" stroke="#63b8ff" d="M1409.28,-384.9C1419.73,-367.07 1442,-324.46 1442,-285.5 1442,-285.5 1442,-285.5 1442,-228.5 1442,-195.71 1428.27,-159.54 1418.8,-138.49"/>
<polygon fill="#63b8ff" stroke="#63b8ff" points="1421.86,-136.77 1414.45,-129.2 1415.52,-139.74 1421.86,-136.77"/>
</a>
</g>
</g>
<!-- Node11 -->
<g id="Node000011" class="node">
<title>Node11</title>
<g id="a_Node000011"><a xlink:title=" ">
<polygon fill="#e0e0e0" stroke="#999999" points="1291,-129 1223,-129 1223,-110 1291,-110 1291,-129"/>
<text text-anchor="middle" x="1257" y="-117" font-family="Helvetica,sans-Serif" font-size="10.00">sys/types.h</text>
</a>
</g>
</g>
<!-- Node8&#45;&gt;Node11 -->
<g id="edge10_Node000008_Node000011" class="edge">
<title>Node8&#45;&gt;Node11</title>
<g id="a_edge10_Node000008_Node000011"><a xlink:title=" ">
<path fill="none" stroke="#63b8ff" d="M1399.28,-384.73C1378.45,-346.06 1294.66,-190.45 1266.38,-137.92"/>
<polygon fill="#63b8ff" stroke="#63b8ff" points="1269.46,-136.25 1261.63,-129.11 1263.29,-139.57 1269.46,-136.25"/>
</a>
</g>
</g>
<!-- Node12 -->
<g id="Node000012" class="node">
<title>Node12</title>
<g id="a_Node000012"><a xlink:title=" ">
<polygon fill="#e0e0e0" stroke="#999999" points="1497,-129 1453,-129 1453,-110 1497,-110 1497,-129"/>
<text text-anchor="middle" x="1475" y="-117" font-family="Helvetica,sans-Serif" font-size="10.00">time.h</text>
</a>
</g>
</g>
<!-- Node8&#45;&gt;Node12 -->
<g id="edge11_Node000008_Node000012" class="edge">
<title>Node8&#45;&gt;Node12</title>
<g id="a_edge11_Node000008_Node000012"><a xlink:title=" ">
<path fill="none" stroke="#63b8ff" d="M1415.88,-384.88C1437.25,-368.26 1480,-329.52 1480,-285.5 1480,-285.5 1480,-285.5 1480,-228.5 1480,-197.16 1477.87,-160.75 1476.39,-139.22"/>
<polygon fill="#63b8ff" stroke="#63b8ff" points="1479.88,-138.9 1475.67,-129.17 1472.9,-139.4 1479.88,-138.9"/>
</a>
</g>
</g>
<!-- Node13 -->
<g id="Node000013" class="node">
<title>Node13</title>
<g id="a_Node000013"><a xlink:href="Arena_8h.html" target="_top" xlink:title=" ">
<polygon fill="white" stroke="#666666" points="1129,-129 1057,-129 1057,-110 1129,-110 1129,-129"/>
<text text-anchor="middle" x="1093" y="-117" font-family="Helvetica,sans-Serif" font-size="10.00">core/Arena.h</text>
</a>
</g>
</g>
<!-- Node8&#45;&gt;Node13 -->
<g id="edge12_Node000008_Node000013" class="edge">
<title>Node8&#45;&gt;Node13</title>
<g id="a_edge12_Node000008_Node000013"><a xlink:title=" ">
<path fill="none" stroke="#63b8ff" d="M1340.11,-389.39C1227.17,-380.59 999.9,-355.5 955,-294 931.96,-262.45 1032.25,-171.83 1074.75,-135.67"/>
<polygon fill="#63b8ff" stroke="#63b8ff" points="1077.26,-138.13 1082.65,-129 1072.75,-132.77 1077.26,-138.13"/>
</a>
</g>
</g>
<!-- Node14 -->
<g id="Node000014" class="node">
<title>Node14</title>
<g id="a_Node000014"><a xlink:href="SocketHTTP_8h.html" target="_top" xlink:title=" ">
<polygon fill="white" stroke="#666666" points="1414,-184 1314,-184 1314,-165 1414,-165 1414,-184"/>
<text text-anchor="middle" x="1364" y="-172" font-family="Helvetica,sans-Serif" font-size="10.00">http/SocketHTTP.h</text>
</a>
</g>
</g>
<!-- Node8&#45;&gt;Node14 -->
<g id="edge16_Node000008_Node000014" class="edge">
<title>Node8&#45;&gt;Node14</title>
<g id="a_edge16_Node000008_Node000014"><a xlink:title=" ">
<path fill="none" stroke="#63b8ff" d="M1402.43,-384.95C1396.55,-352.88 1375.69,-239.2 1367.42,-194.12"/>
<polygon fill="#63b8ff" stroke="#63b8ff" points="1370.85,-193.43 1365.6,-184.22 1363.96,-194.69 1370.85,-193.43"/>
</a>
</g>
</g>
<!-- Node15 -->
<g id="Node000015" class="node">
<title>Node15</title>
<g id="a_Node000015"><a xlink:href="SocketTLSContext_8h.html" target="_top" xlink:title=" ">
<polygon fill="white" stroke="#666666" points="1258,-349 1136,-349 1136,-330 1258,-330 1258,-349"/>
<text text-anchor="middle" x="1197" y="-337" font-family="Helvetica,sans-Serif" font-size="10.00">tls/SocketTLSContext.h</text>
</a>
</g>
</g>
<!-- Node8&#45;&gt;Node15 -->
<g id="edge23_Node000008_Node000015" class="edge">
<title>Node8&#45;&gt;Node15</title>
<g id="a_edge23_Node000008_Node000015"><a xlink:title=" ">
<path fill="none" stroke="#63b8ff" d="M1370.74,-384.98C1335.39,-375.93 1279.33,-361.58 1240.49,-351.64"/>
<polygon fill="#63b8ff" stroke="#63b8ff" points="1241.07,-348.17 1230.52,-349.08 1239.34,-354.95 1241.07,-348.17"/>
</a>
</g>
</g>
<!-- Node13&#45;&gt;Node6 -->
<g id="edge14_Node000013_Node000006" class="edge">
<title>Node13&#45;&gt;Node6</title>
<g id="a_edge14_Node000013_Node000006"><a xlink:title=" ">
<path fill="none" stroke="#63b8ff" d="M1103.28,-109.98C1112.84,-102.07 1127.28,-90.11 1138.78,-80.58"/>
<polygon fill="#63b8ff" stroke="#63b8ff" points="1141.06,-83.24 1146.53,-74.17 1136.6,-77.85 1141.06,-83.24"/>
</a>
</g>
</g>
<!-- Node13&#45;&gt;Node9 -->
<g id="edge13_Node000013_Node000009" class="edge">
<title>Node13&#45;&gt;Node9</title>
<g id="a_edge13_Node000013_Node000009"><a xlink:title=" ">
<path fill="none" stroke="#63b8ff" d="M1064.4,-109.98C1033.59,-100.81 984.48,-86.19 951.04,-76.23"/>
<polygon fill="#63b8ff" stroke="#63b8ff" points="951.79,-72.8 941.21,-73.3 949.79,-79.51 951.79,-72.8"/>
</a>
</g>
</g>
<!-- Node14&#45;&gt;Node6 -->
<g id="edge22_Node000014_Node000006" class="edge">
<title>Node14&#45;&gt;Node6</title>
<g id="a_edge22_Node000014_Node000006"><a xlink:title=" ">
<path fill="none" stroke="#63b8ff" d="M1362.18,-164.63C1358.87,-150.81 1350.52,-124.23 1333,-110 1297.11,-80.85 1244.55,-70.49 1206.22,-66.97"/>
<polygon fill="#63b8ff" stroke="#63b8ff" points="1206.06,-63.44 1195.81,-66.14 1205.5,-70.42 1206.06,-63.44"/>
</a>
</g>
</g>
<!-- Node14&#45;&gt;Node9 -->
<g id="edge17_Node000014_Node000009" class="edge">
<title>Node14&#45;&gt;Node9</title>
<g id="a_edge17_Node000014_Node000009"><a xlink:title=" ">
<path fill="none" stroke="#63b8ff" d="M1358.15,-164.68C1348.13,-150.42 1326.24,-122.62 1300,-110 1238.8,-80.57 1034.72,-69.88 951.16,-66.68"/>
<polygon fill="#63b8ff" stroke="#63b8ff" points="951.24,-63.18 941.11,-66.31 950.98,-70.18 951.24,-63.18"/>
</a>
</g>
</g>
<!-- Node14&#45;&gt;Node10 -->
<g id="edge18_Node000014_Node000010" class="edge">
<title>Node14&#45;&gt;Node10</title>
<g id="a_edge18_Node000014_Node000010"><a xlink:title=" ">
<path fill="none" stroke="#63b8ff" d="M1371.6,-164.75C1378.16,-157.18 1387.82,-146.05 1395.81,-136.84"/>
<polygon fill="#63b8ff" stroke="#63b8ff" points="1398.63,-138.94 1402.55,-129.09 1393.35,-134.35 1398.63,-138.94"/>
</a>
</g>
</g>
<!-- Node14&#45;&gt;Node11 -->
<g id="edge19_Node000014_Node000011" class="edge">
<title>Node14&#45;&gt;Node11</title>
<g id="a_edge19_Node000014_Node000011"><a xlink:title=" ">
<path fill="none" stroke="#63b8ff" d="M1346.81,-164.98C1329.75,-156.54 1303.37,-143.47 1283.6,-133.68"/>
<polygon fill="#63b8ff" stroke="#63b8ff" points="1285.02,-130.47 1274.5,-129.17 1281.91,-136.75 1285.02,-130.47"/>
</a>
</g>
</g>
<!-- Node14&#45;&gt;Node12 -->
<g id="edge20_Node000014_Node000012" class="edge">
<title>Node14&#45;&gt;Node12</title>
<g id="a_edge20_Node000014_Node000012"><a xlink:title=" ">
<path fill="none" stroke="#63b8ff" d="M1381.83,-164.98C1399.61,-156.5 1427.15,-143.35 1447.68,-133.54"/>
<polygon fill="#63b8ff" stroke="#63b8ff" points="1449.33,-136.64 1456.84,-129.17 1446.31,-130.32 1449.33,-136.64"/>
</a>
</g>
</g>
<!-- Node14&#45;&gt;Node13 -->
<g id="edge21_Node000014_Node000013" class="edge">
<title>Node14&#45;&gt;Node13</title>
<g id="a_edge21_Node000014_Node000013"><a xlink:title=" ">
<path fill="none" stroke="#63b8ff" d="M1320.46,-164.98C1270.77,-155.27 1189.83,-139.44 1139.1,-129.52"/>
<polygon fill="#63b8ff" stroke="#63b8ff" points="1139.55,-126.04 1129.06,-127.55 1138.21,-132.91 1139.55,-126.04"/>
</a>
</g>
</g>
<!-- Node15&#45;&gt;Node6 -->
<g id="edge25_Node000015_Node000006" class="edge">
<title>Node15&#45;&gt;Node6</title>
<g id="a_edge25_Node000015_Node000006"><a xlink:title=" ">
<path fill="none" stroke="#63b8ff" d="M1249.32,-329.99C1283.02,-321.54 1318.83,-305.3 1309,-275 1294.82,-231.31 1206.34,-123.77 1171.28,-82.24"/>
<polygon fill="#63b8ff" stroke="#63b8ff" points="1173.79,-79.8 1164.66,-74.43 1168.45,-84.32 1173.79,-79.8"/>
</a>
</g>
</g>
<!-- Node15&#45;&gt;Node13 -->
<g id="edge24_Node000015_Node000013" class="edge">
<title>Node15&#45;&gt;Node13</title>
<g id="a_edge24_Node000015_Node000013"><a xlink:title=" ">
<path fill="none" stroke="#63b8ff" d="M1153.97,-329.95C1133.78,-323.58 1111.47,-312.64 1099,-294 1066.93,-246.06 1079.45,-172.84 1087.82,-138.93"/>
<polygon fill="#63b8ff" stroke="#63b8ff" points="1091.27,-139.59 1090.43,-129.02 1084.5,-137.8 1091.27,-139.59"/>
</a>
</g>
</g>
<!-- Node16 -->
<g id="Node000016" class="node">
<title>Node16</title>
<g id="a_Node000016"><a xlink:href="SocketTLS_8h.html" target="_top" xlink:title=" ">
<polygon fill="white" stroke="#666666" points="1051.5,-294 964.5,-294 964.5,-275 1051.5,-275 1051.5,-294"/>
<text text-anchor="middle" x="1008" y="-282" font-family="Helvetica,sans-Serif" font-size="10.00">tls/SocketTLS.h</text>
</a>
</g>
</g>
<!-- Node15&#45;&gt;Node16 -->
<g id="edge26_Node000015_Node000016" class="edge">
<title>Node15&#45;&gt;Node16</title>
<g id="a_edge26_Node000015_Node000016"><a xlink:title=" ">
<path fill="none" stroke="#63b8ff" d="M1166.63,-329.98C1134.63,-321.01 1084.04,-306.82 1048.62,-296.89"/>
<polygon fill="#63b8ff" stroke="#63b8ff" points="1049.18,-293.41 1038.6,-294.08 1047.29,-300.15 1049.18,-293.41"/>
</a>
</g>
</g>
<!-- Node33 -->
<g id="Node000033" class="node">
<title>Node33</title>
<g id="a_Node000033"><a xlink:title=" ">
<polygon fill="#e0e0e0" stroke="#999999" points="1182,-294 1108,-294 1108,-275 1182,-275 1182,-294"/>
<text text-anchor="middle" x="1145" y="-282" font-family="Helvetica,sans-Serif" font-size="10.00">openssl/ssl.h</text>
</a>
</g>
</g>
<!-- Node15&#45;&gt;Node33 -->
<g id="edge58_Node000015_Node000033" class="edge">
<title>Node15&#45;&gt;Node33</title>
<g id="a_edge58_Node000015_Node000033"><a xlink:title=" ">
<path fill="none" stroke="#63b8ff" d="M1188.41,-329.75C1180.84,-322.03 1169.62,-310.6 1160.49,-301.28"/>
<polygon fill="#63b8ff" stroke="#63b8ff" points="1162.93,-298.78 1153.43,-294.09 1157.93,-303.68 1162.93,-298.78"/>
</a>
</g>
</g>
<!-- Node34 -->
<g id="Node000034" class="node">
<title>Node34</title>
<g id="a_Node000034"><a xlink:title=" ">
<polygon fill="#e0e0e0" stroke="#999999" points="1300,-294 1200,-294 1200,-275 1300,-275 1300,-294"/>
<text text-anchor="middle" x="1250" y="-282" font-family="Helvetica,sans-Serif" font-size="10.00">openssl/x509_vfy.h</text>
</a>
</g>
</g>
<!-- Node15&#45;&gt;Node34 -->
<g id="edge59_Node000015_Node000034" class="edge">
<title>Node15&#45;&gt;Node34</title>
<g id="a_edge59_Node000015_Node000034"><a xlink:title=" ">
<path fill="none" stroke="#63b8ff" d="M1205.75,-329.75C1213.47,-322.03 1224.9,-310.6 1234.22,-301.28"/>
<polygon fill="#63b8ff" stroke="#63b8ff" points="1236.81,-303.64 1241.41,-294.09 1231.86,-298.69 1236.81,-303.64"/>
</a>
</g>
</g>
<!-- Node16&#45;&gt;Node6 -->
<g id="edge27_Node000016_Node000006" class="edge">
<title>Node16&#45;&gt;Node6</title>
<g id="a_edge27_Node000016_Node000006"><a xlink:title=" ">
<path fill="none" stroke="#63b8ff" d="M1017.71,-274.75C1041.65,-252.67 1104.02,-191.92 1138,-129 1145.61,-114.9 1150.56,-97.36 1153.5,-84.29"/>
<polygon fill="#63b8ff" stroke="#63b8ff" points="1157,-84.65 1155.57,-74.15 1150.14,-83.24 1157,-84.65"/>
</a>
</g>
</g>
<!-- Node17 -->
<g id="Node000017" class="node">
<title>Node17</title>
<g id="a_Node000017"><a xlink:href="Socket_8h.html" target="_top" xlink:title=" ">
<polygon fill="white" stroke="#666666" points="959,-239 871,-239 871,-220 959,-220 959,-239"/>
<text text-anchor="middle" x="915" y="-227" font-family="Helvetica,sans-Serif" font-size="10.00">socket/Socket.h</text>
</a>
</g>
</g>
<!-- Node16&#45;&gt;Node17 -->
<g id="edge28_Node000016_Node000017" class="edge">
<title>Node16&#45;&gt;Node17</title>
<g id="a_edge28_Node000016_Node000017"><a xlink:title=" ">
<path fill="none" stroke="#63b8ff" d="M993.06,-274.98C978.5,-266.69 956.13,-253.94 939.07,-244.22"/>
<polygon fill="#63b8ff" stroke="#63b8ff" points="940.64,-241.08 930.21,-239.17 937.17,-247.16 940.64,-241.08"/>
</a>
</g>
</g>
<!-- Node17&#45;&gt;Node6 -->
<g id="edge29_Node000017_Node000006" class="edge">
<title>Node17&#45;&gt;Node6</title>
<g id="a_edge29_Node000017_Node000006"><a xlink:title=" ">
<path fill="none" stroke="#63b8ff" d="M922.61,-219.95C941.8,-198.81 994.47,-143.39 1048,-110 1070.26,-96.12 1097.6,-84.97 1119.32,-77.3"/>
<polygon fill="#63b8ff" stroke="#63b8ff" points="1120.55,-80.58 1128.87,-74.03 1118.28,-73.96 1120.55,-80.58"/>
</a>
</g>
</g>
<!-- Node18 -->
<g id="Node000018" class="node">
<title>Node18</title>
<g id="a_Node000018"><a xlink:href="SocketConfig_8h.html" target="_top" xlink:title=" ">
<polygon fill="white" stroke="#666666" points="357,-129 251,-129 251,-110 357,-110 357,-129"/>
<text text-anchor="middle" x="304" y="-117" font-family="Helvetica,sans-Serif" font-size="10.00">core/SocketConfig.h</text>
</a>
</g>
</g>
<!-- Node17&#45;&gt;Node18 -->
<g id="edge30_Node000017_Node000018" class="edge">
<title>Node17&#45;&gt;Node18</title>
<g id="a_edge30_Node000017_Node000018"><a xlink:title=" ">
<path fill="none" stroke="#63b8ff" d="M870.64,-221.81C815.71,-213.44 719.33,-198.44 637,-184 537.68,-166.58 422.14,-144.04 356.59,-131.03"/>
<polygon fill="#63b8ff" stroke="#63b8ff" points="356.99,-127.54 346.5,-129.02 355.63,-134.41 356.99,-127.54"/>
</a>
</g>
</g>
<!-- Node26 -->
<g id="Node000026" class="node">
<title>Node26</title>
<g id="a_Node000026"><a xlink:href="SocketDNS_8h.html" target="_top" xlink:title=" ">
<polygon fill="white" stroke="#666666" points="963,-129 867,-129 867,-110 963,-110 963,-129"/>
<text text-anchor="middle" x="915" y="-117" font-family="Helvetica,sans-Serif" font-size="10.00">dns/SocketDNS.h</text>
</a>
</g>
</g>
<!-- Node17&#45;&gt;Node26 -->
<g id="edge40_Node000017_Node000026" class="edge">
<title>Node17&#45;&gt;Node26</title>
<g id="a_edge40_Node000017_Node000026"><a xlink:title=" ">
<path fill="none" stroke="#63b8ff" d="M915,-219.66C915,-202.17 915,-162.8 915,-139.27"/>
<polygon fill="#63b8ff" stroke="#63b8ff" points="918.5,-139.16 915,-129.16 911.5,-139.16 918.5,-139.16"/>
</a>
</g>
</g>
<!-- Node28 -->
<g id="Node000028" class="node">
<title>Node28</title>
<g id="a_Node000028"><a xlink:href="SocketCommon_8h.html" target="_top" xlink:title=" ">
<polygon fill="white" stroke="#666666" points="774,-184 646,-184 646,-165 774,-165 774,-184"/>
<text text-anchor="middle" x="710" y="-172" font-family="Helvetica,sans-Serif" font-size="10.00">socket/SocketCommon.h</text>
</a>
</g>
</g>
<!-- Node17&#45;&gt;Node28 -->
<g id="edge45_Node000017_Node000028" class="edge">
<title>Node17&#45;&gt;Node28</title>
<g id="a_edge45_Node000017_Node000028"><a xlink:title=" ">
<path fill="none" stroke="#63b8ff" d="M882.06,-219.98C847.05,-210.93 791.53,-196.58 753.07,-186.64"/>
<polygon fill="#63b8ff" stroke="#63b8ff" points="753.75,-183.2 743.19,-184.08 752,-189.97 753.75,-183.2"/>
</a>
</g>
</g>
<!-- Node18&#45;&gt;Node3 -->
<g id="edge36_Node000018_Node000003" class="edge">
<title>Node18&#45;&gt;Node3</title>
<g id="a_edge36_Node000018_Node000003"><a xlink:title=" ">
<path fill="none" stroke="#63b8ff" d="M250.8,-110.3C202.39,-102.55 128.76,-90.01 55.83,-74.03"/>
<polygon fill="#63b8ff" stroke="#63b8ff" points="56.54,-70.6 46.02,-71.86 55.02,-77.44 56.54,-70.6"/>
</a>
</g>
</g>
<!-- Node18&#45;&gt;Node9 -->
<g id="edge35_Node000018_Node000009" class="edge">
<title>Node18&#45;&gt;Node9</title>
<g id="a_edge35_Node000018_Node000009"><a xlink:title=" ">
<path fill="none" stroke="#63b8ff" d="M357.14,-115.26C479.03,-107.67 775.85,-88.33 875,-74 876.26,-73.82 877.55,-73.62 878.84,-73.41"/>
<polygon fill="#63b8ff" stroke="#63b8ff" points="879.63,-76.82 888.84,-71.57 878.37,-69.93 879.63,-76.82"/>
</a>
</g>
</g>
<!-- Node19 -->
<g id="Node000019" class="node">
<title>Node19</title>
<g id="a_Node000019"><a xlink:title=" ">
<polygon fill="#e0e0e0" stroke="#999999" points="344.5,-74 297.5,-74 297.5,-55 344.5,-55 344.5,-74"/>
<text text-anchor="middle" x="321" y="-62" font-family="Helvetica,sans-Serif" font-size="10.00">errno.h</text>
</a>
</g>
</g>
<!-- Node18&#45;&gt;Node19 -->
<g id="edge31_Node000018_Node000019" class="edge">
<title>Node18&#45;&gt;Node19</title>
<g id="a_edge31_Node000018_Node000019"><a xlink:title=" ">
<path fill="none" stroke="#63b8ff" d="M306.81,-109.75C309.06,-102.72 312.3,-92.62 315.12,-83.84"/>
<polygon fill="#63b8ff" stroke="#63b8ff" points="318.52,-84.68 318.25,-74.09 311.86,-82.54 318.52,-84.68"/>
</a>
</g>
</g>
<!-- Node20 -->
<g id="Node000020" class="node">
<title>Node20</title>
<g id="a_Node000020"><a xlink:title=" ">
<polygon fill="#e0e0e0" stroke="#999999" points="407,-74 363,-74 363,-55 407,-55 407,-74"/>
<text text-anchor="middle" x="385" y="-62" font-family="Helvetica,sans-Serif" font-size="10.00">fcntl.h</text>
</a>
</g>
</g>
<!-- Node18&#45;&gt;Node20 -->
<g id="edge32_Node000018_Node000020" class="edge">
<title>Node18&#45;&gt;Node20</title>
<g id="a_edge32_Node000018_Node000020"><a xlink:title=" ">
<path fill="none" stroke="#63b8ff" d="M317.01,-109.98C329.46,-101.84 348.46,-89.41 363.21,-79.76"/>
<polygon fill="#63b8ff" stroke="#63b8ff" points="365.3,-82.57 371.75,-74.17 361.46,-76.72 365.3,-82.57"/>
</a>
</g>
</g>
<!-- Node21 -->
<g id="Node000021" class="node">
<title>Node21</title>
<g id="a_Node000021"><a xlink:title=" ">
<polygon fill="#e0e0e0" stroke="#999999" points="490.5,-74 425.5,-74 425.5,-55 490.5,-55 490.5,-74"/>
<text text-anchor="middle" x="458" y="-62" font-family="Helvetica,sans-Serif" font-size="10.00">netinet/in.h</text>
</a>
</g>
</g>
<!-- Node18&#45;&gt;Node21 -->
<g id="edge33_Node000018_Node000021" class="edge">
<title>Node18&#45;&gt;Node21</title>
<g id="a_edge33_Node000018_Node000021"><a xlink:title=" ">
<path fill="none" stroke="#63b8ff" d="M328.74,-109.98C354.37,-101.16 394.63,-87.31 423.41,-77.41"/>
<polygon fill="#63b8ff" stroke="#63b8ff" points="424.75,-80.65 433.06,-74.08 422.47,-74.03 424.75,-80.65"/>
</a>
</g>
</g>
<!-- Node22 -->
<g id="Node000022" class="node">
<title>Node22</title>
<g id="a_Node000022"><a xlink:title=" ">
<polygon fill="#e0e0e0" stroke="#999999" points="135.5,-74 64.5,-74 64.5,-55 135.5,-55 135.5,-74"/>
<text text-anchor="middle" x="100" y="-62" font-family="Helvetica,sans-Serif" font-size="10.00">netinet/tcp.h</text>
</a>
</g>
</g>
<!-- Node18&#45;&gt;Node22 -->
<g id="edge34_Node000018_Node000022" class="edge">
<title>Node18&#45;&gt;Node22</title>
<g id="a_edge34_Node000018_Node000022"><a xlink:title=" ">
<path fill="none" stroke="#63b8ff" d="M271.22,-109.98C236.38,-100.93 181.13,-86.58 142.86,-76.64"/>
<polygon fill="#63b8ff" stroke="#63b8ff" points="143.59,-73.21 133.03,-74.08 141.83,-79.98 143.59,-73.21"/>
</a>
</g>
</g>
<!-- Node23 -->
<g id="Node000023" class="node">
<title>Node23</title>
<g id="a_Node000023"><a xlink:title=" ">
<polygon fill="#e0e0e0" stroke="#999999" points="581.5,-74 508.5,-74 508.5,-55 581.5,-55 581.5,-74"/>
<text text-anchor="middle" x="545" y="-62" font-family="Helvetica,sans-Serif" font-size="10.00">sys/socket.h</text>
</a>
</g>
</g>
<!-- Node18&#45;&gt;Node23 -->
<g id="edge37_Node000018_Node000023" class="edge">
<title>Node18&#45;&gt;Node23</title>
<g id="a_edge37_Node000018_Node000023"><a xlink:title=" ">
<path fill="none" stroke="#63b8ff" d="M342.72,-109.98C385.15,-100.65 453.19,-85.69 498.49,-75.73"/>
<polygon fill="#63b8ff" stroke="#63b8ff" points="499.34,-79.13 508.35,-73.56 497.83,-72.29 499.34,-79.13"/>
</a>
</g>
</g>
<!-- Node24 -->
<g id="Node000024" class="node">
<title>Node24</title>
<g id="a_Node000024"><a xlink:title=" ">
<polygon fill="#e0e0e0" stroke="#999999" points="210,-74 154,-74 154,-55 210,-55 210,-74"/>
<text text-anchor="middle" x="182" y="-62" font-family="Helvetica,sans-Serif" font-size="10.00">sys/uio.h</text>
</a>
</g>
</g>
<!-- Node18&#45;&gt;Node24 -->
<g id="edge38_Node000018_Node000024" class="edge">
<title>Node18&#45;&gt;Node24</title>
<g id="a_edge38_Node000018_Node000024"><a xlink:title=" ">
<path fill="none" stroke="#63b8ff" d="M284.4,-109.98C264.68,-101.42 234.05,-88.11 211.42,-78.28"/>
<polygon fill="#63b8ff" stroke="#63b8ff" points="212.52,-74.94 201.96,-74.17 209.74,-81.37 212.52,-74.94"/>
</a>
</g>
</g>
<!-- Node25 -->
<g id="Node000025" class="node">
<title>Node25</title>
<g id="a_Node000025"><a xlink:title=" ">
<polygon fill="#e0e0e0" stroke="#999999" points="279.5,-74 228.5,-74 228.5,-55 279.5,-55 279.5,-74"/>
<text text-anchor="middle" x="254" y="-62" font-family="Helvetica,sans-Serif" font-size="10.00">unistd.h</text>
</a>
</g>
</g>
<!-- Node18&#45;&gt;Node25 -->
<g id="edge39_Node000018_Node000025" class="edge">
<title>Node18&#45;&gt;Node25</title>
<g id="a_edge39_Node000018_Node000025"><a xlink:title=" ">
<path fill="none" stroke="#63b8ff" d="M295.74,-109.75C288.54,-102.11 277.89,-90.82 269.15,-81.56"/>
<polygon fill="#63b8ff" stroke="#63b8ff" points="271.51,-78.96 262.1,-74.09 266.42,-83.76 271.51,-78.96"/>
</a>
</g>
</g>
<!-- Node26&#45;&gt;Node6 -->
<g id="edge41_Node000026_Node000006" class="edge">
<title>Node26&#45;&gt;Node6</title>
<g id="a_edge41_Node000026_Node000006"><a xlink:title=" ">
<path fill="none" stroke="#63b8ff" d="M953.88,-109.98C995.87,-100.79 1062.83,-86.13 1108.29,-76.17"/>
<polygon fill="#63b8ff" stroke="#63b8ff" points="1109.2,-79.55 1118.22,-73.99 1107.7,-72.71 1109.2,-79.55"/>
</a>
</g>
</g>
<!-- Node26&#45;&gt;Node9 -->
<g id="edge43_Node000026_Node000009" class="edge">
<title>Node26&#45;&gt;Node9</title>
<g id="a_edge43_Node000026_Node000009"><a xlink:title=" ">
<path fill="none" stroke="#63b8ff" d="M915,-109.75C915,-102.8 915,-92.85 915,-84.13"/>
<polygon fill="#63b8ff" stroke="#63b8ff" points="918.5,-84.09 915,-74.09 911.5,-84.09 918.5,-84.09"/>
</a>
</g>
</g>
<!-- Node26&#45;&gt;Node23 -->
<g id="edge44_Node000026_Node000023" class="edge">
<title>Node26&#45;&gt;Node23</title>
<g id="a_edge44_Node000026_Node000023"><a xlink:title=" ">
<path fill="none" stroke="#63b8ff" d="M866.63,-111.57C795.12,-101.33 662.08,-82.27 591.61,-72.18"/>
<polygon fill="#63b8ff" stroke="#63b8ff" points="592.07,-68.71 581.68,-70.75 591.08,-75.64 592.07,-68.71"/>
</a>
</g>
</g>
<!-- Node27 -->
<g id="Node000027" class="node">
<title>Node27</title>
<g id="a_Node000027"><a xlink:title=" ">
<polygon fill="#e0e0e0" stroke="#999999" points="866.5,-74 817.5,-74 817.5,-55 866.5,-55 866.5,-74"/>
<text text-anchor="middle" x="842" y="-62" font-family="Helvetica,sans-Serif" font-size="10.00">netdb.h</text>
</a>
</g>
</g>
<!-- Node26&#45;&gt;Node27 -->
<g id="edge42_Node000026_Node000027" class="edge">
<title>Node26&#45;&gt;Node27</title>
<g id="a_edge42_Node000026_Node000027"><a xlink:title=" ">
<path fill="none" stroke="#63b8ff" d="M903.27,-109.98C892.27,-102 875.58,-89.88 862.4,-80.31"/>
<polygon fill="#63b8ff" stroke="#63b8ff" points="864.09,-77.21 853.94,-74.17 859.98,-82.88 864.09,-77.21"/>
</a>
</g>
</g>
<!-- Node28&#45;&gt;Node6 -->
<g id="edge56_Node000028_Node000006" class="edge">
<title>Node28&#45;&gt;Node6</title>
<g id="a_edge56_Node000028_Node000006"><a xlink:title=" ">
<path fill="none" stroke="#63b8ff" d="M774.01,-167.12C827.69,-160.71 905.95,-148.87 972,-129 992.01,-122.98 995.44,-117.36 1015,-110 1048.74,-97.3 1087.89,-85.23 1116.53,-76.87"/>
<polygon fill="#63b8ff" stroke="#63b8ff" points="1117.56,-80.21 1126.19,-74.07 1115.61,-73.49 1117.56,-80.21"/>
</a>
</g>
</g>
<!-- Node28&#45;&gt;Node11 -->
<g id="edge53_Node000028_Node000011" class="edge">
<title>Node28&#45;&gt;Node11</title>
<g id="a_edge53_Node000028_Node000011"><a xlink:title=" ">
<path fill="none" stroke="#63b8ff" d="M774.09,-167.29C886.51,-156.4 1116.45,-134.12 1212.89,-124.77"/>
<polygon fill="#63b8ff" stroke="#63b8ff" points="1213.27,-128.25 1222.89,-123.81 1212.59,-121.29 1213.27,-128.25"/>
</a>
</g>
</g>
<!-- Node28&#45;&gt;Node13 -->
<g id="edge55_Node000028_Node000013" class="edge">
<title>Node28&#45;&gt;Node13</title>
<g id="a_edge55_Node000028_Node000013"><a xlink:title=" ">
<path fill="none" stroke="#63b8ff" d="M771.54,-164.98C848.37,-154.35 978.05,-136.41 1046.87,-126.88"/>
<polygon fill="#63b8ff" stroke="#63b8ff" points="1047.55,-130.32 1056.97,-125.49 1046.59,-123.39 1047.55,-130.32"/>
</a>
</g>
</g>
<!-- Node28&#45;&gt;Node18 -->
<g id="edge57_Node000028_Node000018" class="edge">
<title>Node28&#45;&gt;Node18</title>
<g id="a_edge57_Node000028_Node000018"><a xlink:title=" ">
<path fill="none" stroke="#63b8ff" d="M645.67,-165.1C569.43,-155.15 443.21,-138.67 367.39,-128.77"/>
<polygon fill="#63b8ff" stroke="#63b8ff" points="367.4,-125.25 357.03,-127.42 366.5,-132.19 367.4,-125.25"/>
</a>
</g>
</g>
<!-- Node28&#45;&gt;Node20 -->
<g id="edge48_Node000028_Node000020" class="edge">
<title>Node28&#45;&gt;Node20</title>
<g id="a_edge48_Node000028_Node000020"><a xlink:title=" ">
<path fill="none" stroke="#63b8ff" d="M645.65,-167.19C599.64,-161.15 536.94,-149.78 485,-129 454.37,-116.75 422.86,-94.91 403.6,-80.32"/>
<polygon fill="#63b8ff" stroke="#63b8ff" points="405.71,-77.53 395.66,-74.18 401.43,-83.07 405.71,-77.53"/>
</a>
</g>
</g>
<!-- Node28&#45;&gt;Node21 -->
<g id="edge50_Node000028_Node000021" class="edge">
<title>Node28&#45;&gt;Node21</title>
<g id="a_edge50_Node000028_Node000021"><a xlink:title=" ">
<path fill="none" stroke="#63b8ff" d="M645.6,-169.94C604.28,-165.17 550.89,-154.17 510,-129 491.66,-117.71 476.85,-97.62 467.8,-83.06"/>
<polygon fill="#63b8ff" stroke="#63b8ff" points="470.57,-80.87 462.48,-74.03 464.54,-84.42 470.57,-80.87"/>
</a>
</g>
</g>
<!-- Node28&#45;&gt;Node23 -->
<g id="edge51_Node000028_Node000023" class="edge">
<title>Node28&#45;&gt;Node23</title>
<g id="a_edge51_Node000028_Node000023"><a xlink:title=" ">
<path fill="none" stroke="#63b8ff" d="M645.73,-167.14C596.3,-160.76 533.86,-148.96 518,-129 506.77,-114.86 518.12,-95.36 529.36,-81.71"/>
<polygon fill="#63b8ff" stroke="#63b8ff" points="532.12,-83.88 536.14,-74.07 526.88,-79.23 532.12,-83.88"/>
</a>
</g>
</g>
<!-- Node28&#45;&gt;Node27 -->
<g id="edge49_Node000028_Node000027" class="edge">
<title>Node28&#45;&gt;Node27</title>
<g id="a_edge49_Node000028_Node000027"><a xlink:title=" ">
<path fill="none" stroke="#63b8ff" d="M753.54,-164.98C776.04,-158.54 802.4,-147.52 820,-129 831.67,-116.72 837.18,-97.95 839.76,-83.99"/>
<polygon fill="#63b8ff" stroke="#63b8ff" points="843.23,-84.46 841.27,-74.05 836.31,-83.41 843.23,-84.46"/>
</a>
</g>
</g>
<!-- Node29 -->
<g id="Node000029" class="node">
<title>Node29</title>
<g id="a_Node000029"><a xlink:title=" ">
<polygon fill="#e0e0e0" stroke="#999999" points="811,-129 755,-129 755,-110 811,-110 811,-129"/>
<text text-anchor="middle" x="783" y="-117" font-family="Helvetica,sans-Serif" font-size="10.00">stdbool.h</text>
</a>
</g>
</g>
<!-- Node28&#45;&gt;Node29 -->
<g id="edge46_Node000028_Node000029" class="edge">
<title>Node28&#45;&gt;Node29</title>
<g id="a_edge46_Node000028_Node000029"><a xlink:title=" ">
<path fill="none" stroke="#63b8ff" d="M721.73,-164.98C732.73,-157 749.42,-144.88 762.6,-135.31"/>
<polygon fill="#63b8ff" stroke="#63b8ff" points="765.02,-137.88 771.06,-129.17 760.91,-132.21 765.02,-137.88"/>
</a>
</g>
</g>
<!-- Node30 -->
<g id="Node000030" class="node">
<title>Node30</title>
<g id="a_Node000030"><a xlink:title=" ">
<polygon fill="#e0e0e0" stroke="#999999" points="584.5,-129 527.5,-129 527.5,-110 584.5,-110 584.5,-129"/>
<text text-anchor="middle" x="556" y="-117" font-family="Helvetica,sans-Serif" font-size="10.00">pthread.h</text>
</a>
</g>
</g>
<!-- Node28&#45;&gt;Node30 -->
<g id="edge47_Node000028_Node000030" class="edge">
<title>Node28&#45;&gt;Node30</title>
<g id="a_edge47_Node000028_Node000030"><a xlink:title=" ">
<path fill="none" stroke="#63b8ff" d="M685.26,-164.98C659.63,-156.16 619.37,-142.31 590.59,-132.41"/>
<polygon fill="#63b8ff" stroke="#63b8ff" points="591.53,-129.03 580.94,-129.08 589.25,-135.65 591.53,-129.03"/>
</a>
</g>
</g>
<!-- Node31 -->
<g id="Node000031" class="node">
<title>Node31</title>
<g id="a_Node000031"><a xlink:title=" ">
<polygon fill="#e0e0e0" stroke="#999999" points="665,-129 603,-129 603,-110 665,-110 665,-129"/>
<text text-anchor="middle" x="634" y="-117" font-family="Helvetica,sans-Serif" font-size="10.00">sys/time.h</text>
</a>
</g>
</g>
<!-- Node28&#45;&gt;Node31 -->
<g id="edge52_Node000028_Node000031" class="edge">
<title>Node28&#45;&gt;Node31</title>
<g id="a_edge52_Node000028_Node000031"><a xlink:title=" ">
<path fill="none" stroke="#63b8ff" d="M697.79,-164.98C686.22,-156.92 668.62,-144.65 654.84,-135.03"/>
<polygon fill="#63b8ff" stroke="#63b8ff" points="656.64,-132.02 646.43,-129.17 652.63,-137.76 656.64,-132.02"/>
</a>
</g>
</g>
<!-- Node32 -->
<g id="Node000032" class="node">
<title>Node32</title>
<g id="a_Node000032"><a xlink:title=" ">
<polygon fill="#e0e0e0" stroke="#999999" points="737,-129 683,-129 683,-110 737,-110 737,-129"/>
<text text-anchor="middle" x="710" y="-117" font-family="Helvetica,sans-Serif" font-size="10.00">sys/un.h</text>
</a>
</g>
</g>
<!-- Node28&#45;&gt;Node32 -->
<g id="edge54_Node000028_Node000032" class="edge">
<title>Node28&#45;&gt;Node32</title>
<g id="a_edge54_Node000028_Node000032"><a xlink:title=" ">
<path fill="none" stroke="#63b8ff" d="M710,-164.75C710,-157.8 710,-147.85 710,-139.13"/>
<polygon fill="#63b8ff" stroke="#63b8ff" points="713.5,-139.09 710,-129.09 706.5,-139.09 713.5,-139.09"/>
</a>
</g>
</g>
</g>
</svg>
