<?xml version="1.0" encoding="UTF-8" standalone="no"?>
<!DOCTYPE svg PUBLIC "-//W3C//DTD SVG 1.1//EN"
 "http://www.w3.org/Graphics/SVG/1.1/DTD/svg11.dtd">
<!-- Generated by graphviz version 2.43.0 (0)
 -->
<!-- Title: http_server.c Pages: 1 -->
<!--zoomable 467 -->

<svg id="main" version="1.1" xmlns="http://www.w3.org/2000/svg" xmlns:xlink="http://www.w3.org/1999/xlink" xml:space="preserve" onload="init(evt)">
<style type="text/css"><![CDATA[
.node, .edge {opacity: 0.7;}
.node.selected, .edge.selected {opacity: 1;}
.edge:hover path { stroke: red; }
.edge:hover polygon { stroke: red; fill: red; }
]]></style>

<defs>
  <circle id="rim" cx="0" cy="0" r="7"/>
  <circle id="rim2" cx="0" cy="0" r="3.5"/>
  <g id="zoomPlus">
    <use xlink:href="#rim" fill="#404040"><set attributeName="fill" to="#808080" begin="zoomplus.mouseover" end="zoomplus.mouseout"/></use>
    <path d="M-4,0h8M0,-4v8" fill="none" stroke="white" stroke-width="1.5" pointer-events="none"/>
  </g>
  <g id="zoomMin">
    <use xlink:href="#rim" fill="#404040"><set attributeName="fill" to="#808080" begin="zoomminus.mouseover" end="zoomminus.mouseout"/></use>
    <path d="M-4,0h8" fill="none" stroke="white" stroke-width="1.5" pointer-events="none"/>
  </g>
  <g id="arrowUp" transform="translate(30 24)">
    <use xlink:href="#rim"/>
    <path pointer-events="none" fill="none" stroke="white" stroke-width="1.5" d="M0,-3.0v7 M-2.5,-0.5L0,-3.0L2.5,-0.5"/>
  </g>
  <g id="arrowRight" transform="rotate(90) translate(36 -43)">
    <use xlink:href="#rim"/>
    <path pointer-events="none" fill="none" stroke="white" stroke-width="1.5" d="M0,-3.0v7 M-2.5,-0.5L0,-3.0L2.5,-0.5"/>
  </g>
  <g id="arrowDown" transform="rotate(180) translate(-30 -48)">
    <use xlink:href="#rim"/>
    <path pointer-events="none" fill="none" stroke="white" stroke-width="1.5" d="M0,-3.0v7 M-2.5,-0.5L0,-3.0L2.5,-0.5"/>
  </g>
  <g id="arrowLeft" transform="rotate(270) translate(-36 17)">
    <use xlink:href="#rim"/>
    <path pointer-events="none" fill="none" stroke="white" stroke-width="1.5" d="M0,-3.0v7 M-2.5,-0.5L0,-3.0L2.5,-0.5"/>
  </g>
  <g id="resetDef">
    <use xlink:href="#rim2" fill="#404040"><set attributeName="fill" to="#808080" begin="reset.mouseover" end="reset.mouseout"/></use>
  </g>
</defs>
<script type="application/ecmascript">
var viewWidth = 1779;
var viewHeight = 467;
var sectionId = 'dynsection-0';
</script>
<script type="application/ecmascript" xlink:href="svg.min.js"/>
<svg id="graph" class="graph">
<g id="viewport">
<title>http_server.c</title>
<!-- Node1 -->
<g id="Node000001" class="node">
<title>Node1</title>
<g id="a_Node000001"><a xlink:title=" ">
<polygon fill="#999999" stroke="#666666" points="333.5,-459 260.5,-459 260.5,-440 333.5,-440 333.5,-459"/>
<text text-anchor="middle" x="297" y="-447" font-family="Helvetica,sans-Serif" font-size="10.00">http_server.c</text>
</a>
</g>
</g>
<!-- Node2 -->
<g id="Node000002" class="node">
<title>Node2</title>
<g id="a_Node000002"><a xlink:title=" ">
<polygon fill="#e0e0e0" stroke="#999999" points="50,-404 0,-404 0,-385 50,-385 50,-404"/>
<text text-anchor="middle" x="25" y="-392" font-family="Helvetica,sans-Serif" font-size="10.00">signal.h</text>
</a>
</g>
</g>
<!-- Node1&#45;&gt;Node2 -->
<g id="edge1_Node000001_Node000002" class="edge">
<title>Node1&#45;&gt;Node2</title>
<g id="a_edge1_Node000001_Node000002"><a xlink:title=" ">
<path fill="none" stroke="#63b8ff" d="M260.22,-441.78C214.25,-433.31 133.2,-418.15 64,-404 62.74,-403.74 61.46,-403.48 60.16,-403.21"/>
<polygon fill="#63b8ff" stroke="#63b8ff" points="60.66,-399.74 50.16,-401.08 59.21,-406.58 60.66,-399.74"/>
</a>
</g>
</g>
<!-- Node3 -->
<g id="Node000003" class="node">
<title>Node3</title>
<g id="a_Node000003"><a xlink:title=" ">
<polygon fill="#e0e0e0" stroke="#999999" points="1771,-74 1725,-74 1725,-55 1771,-55 1771,-74"/>
<text text-anchor="middle" x="1748" y="-62" font-family="Helvetica,sans-Serif" font-size="10.00">stdio.h</text>
</a>
</g>
</g>
<!-- Node1&#45;&gt;Node3 -->
<g id="edge2_Node000001_Node000003" class="edge">
<title>Node1&#45;&gt;Node3</title>
<g id="a_edge2_Node000001_Node000003"><a xlink:title=" ">
<path fill="none" stroke="#63b8ff" d="M333.7,-447.53C549.43,-441.58 1643,-408.12 1643,-340.5 1643,-340.5 1643,-340.5 1643,-173.5 1643,-129.18 1689.01,-96.21 1720.12,-78.99"/>
<polygon fill="#63b8ff" stroke="#63b8ff" points="1722.04,-81.93 1729.23,-74.15 1718.75,-75.75 1722.04,-81.93"/>
</a>
</g>
</g>
<!-- Node4 -->
<g id="Node000004" class="node">
<title>Node4</title>
<g id="a_Node000004"><a xlink:title=" ">
<polygon fill="#e0e0e0" stroke="#999999" points="254,-404 206,-404 206,-385 254,-385 254,-404"/>
<text text-anchor="middle" x="230" y="-392" font-family="Helvetica,sans-Serif" font-size="10.00">stdlib.h</text>
</a>
</g>
</g>
<!-- Node1&#45;&gt;Node4 -->
<g id="edge3_Node000001_Node000004" class="edge">
<title>Node1&#45;&gt;Node4</title>
<g id="a_edge3_Node000001_Node000004"><a xlink:title=" ">
<path fill="none" stroke="#63b8ff" d="M286.24,-439.98C276.23,-432.07 261.11,-420.11 249.07,-410.58"/>
<polygon fill="#63b8ff" stroke="#63b8ff" points="250.97,-407.63 240.96,-404.17 246.63,-413.12 250.97,-407.63"/>
</a>
</g>
</g>
<!-- Node5 -->
<g id="Node000005" class="node">
<title>Node5</title>
<g id="a_Node000005"><a xlink:title=" ">
<polygon fill="#e0e0e0" stroke="#999999" points="321.5,-404 272.5,-404 272.5,-385 321.5,-385 321.5,-404"/>
<text text-anchor="middle" x="297" y="-392" font-family="Helvetica,sans-Serif" font-size="10.00">string.h</text>
</a>
</g>
</g>
<!-- Node1&#45;&gt;Node5 -->
<g id="edge4_Node000001_Node000005" class="edge">
<title>Node1&#45;&gt;Node5</title>
<g id="a_edge4_Node000001_Node000005"><a xlink:title=" ">
<path fill="none" stroke="#63b8ff" d="M297,-439.75C297,-432.8 297,-422.85 297,-414.13"/>
<polygon fill="#63b8ff" stroke="#63b8ff" points="300.5,-414.09 297,-404.09 293.5,-414.09 300.5,-414.09"/>
</a>
</g>
</g>
<!-- Node6 -->
<g id="Node000006" class="node">
<title>Node6</title>
<g id="a_Node000006"><a xlink:href="Except_8h.html" target="_top" xlink:title=" ">
<polygon fill="white" stroke="#666666" points="568.5,-74 491.5,-74 491.5,-55 568.5,-55 568.5,-74"/>
<text text-anchor="middle" x="530" y="-62" font-family="Helvetica,sans-Serif" font-size="10.00">core/Except.h</text>
</a>
</g>
</g>
<!-- Node1&#45;&gt;Node6 -->
<g id="edge5_Node000001_Node000006" class="edge">
<title>Node1&#45;&gt;Node6</title>
<g id="a_edge5_Node000001_Node000006"><a xlink:title=" ">
<path fill="none" stroke="#63b8ff" d="M260.34,-446.69C198,-441.41 78,-420.83 78,-340.5 78,-340.5 78,-340.5 78,-173.5 78,-91.27 364.6,-71.52 481.37,-66.88"/>
<polygon fill="#63b8ff" stroke="#63b8ff" points="481.6,-70.38 491.46,-66.5 481.34,-63.38 481.6,-70.38"/>
</a>
</g>
</g>
<!-- Node8 -->
<g id="Node000008" class="node">
<title>Node8</title>
<g id="a_Node000008"><a xlink:href="SocketHTTP_8h.html" target="_top" xlink:title=" ">
<polygon fill="white" stroke="#666666" points="440,-184 340,-184 340,-165 440,-165 440,-184"/>
<text text-anchor="middle" x="390" y="-172" font-family="Helvetica,sans-Serif" font-size="10.00">http/SocketHTTP.h</text>
</a>
</g>
</g>
<!-- Node1&#45;&gt;Node8 -->
<g id="edge7_Node000001_Node000008" class="edge">
<title>Node1&#45;&gt;Node8</title>
<g id="a_edge7_Node000001_Node000008"><a xlink:title=" ">
<path fill="none" stroke="#63b8ff" d="M304.59,-439.96C319.25,-422.57 350,-381.23 350,-340.5 350,-340.5 350,-340.5 350,-283.5 350,-249.67 367.47,-213.38 379.32,-192.66"/>
<polygon fill="#63b8ff" stroke="#63b8ff" points="382.34,-194.44 384.44,-184.06 376.32,-190.86 382.34,-194.44"/>
</a>
</g>
</g>
<!-- Node14 -->
<g id="Node000014" class="node">
<title>Node14</title>
<g id="a_Node000014"><a xlink:href="SocketHTTPServer_8h.html" target="_top" xlink:title=" ">
<polygon fill="white" stroke="#666666" points="507.5,-404 378.5,-404 378.5,-385 507.5,-385 507.5,-404"/>
<text text-anchor="middle" x="443" y="-392" font-family="Helvetica,sans-Serif" font-size="10.00">http/SocketHTTPServer.h</text>
</a>
</g>
</g>
<!-- Node1&#45;&gt;Node14 -->
<g id="edge16_Node000001_Node000014" class="edge">
<title>Node1&#45;&gt;Node14</title>
<g id="a_edge16_Node000001_Node000014"><a xlink:title=" ">
<path fill="none" stroke="#63b8ff" d="M320.46,-439.98C344.58,-431.23 382.37,-417.51 409.6,-407.62"/>
<polygon fill="#63b8ff" stroke="#63b8ff" points="410.91,-410.87 419.12,-404.17 408.52,-404.29 410.91,-410.87"/>
</a>
</g>
</g>
<!-- Node7 -->
<g id="Node000007" class="node">
<title>Node7</title>
<g id="a_Node000007"><a xlink:title=" ">
<polygon fill="#e0e0e0" stroke="#999999" points="557,-19 503,-19 503,0 557,0 557,-19"/>
<text text-anchor="middle" x="530" y="-7" font-family="Helvetica,sans-Serif" font-size="10.00">setjmp.h</text>
</a>
</g>
</g>
<!-- Node6&#45;&gt;Node7 -->
<g id="edge6_Node000006_Node000007" class="edge">
<title>Node6&#45;&gt;Node7</title>
<g id="a_edge6_Node000006_Node000007"><a xlink:title=" ">
<path fill="none" stroke="#63b8ff" d="M530,-54.75C530,-47.8 530,-37.85 530,-29.13"/>
<polygon fill="#63b8ff" stroke="#63b8ff" points="533.5,-29.09 530,-19.09 526.5,-29.09 533.5,-29.09"/>
</a>
</g>
</g>
<!-- Node8&#45;&gt;Node6 -->
<g id="edge15_Node000008_Node000006" class="edge">
<title>Node8&#45;&gt;Node6</title>
<g id="a_edge15_Node000008_Node000006"><a xlink:title=" ">
<path fill="none" stroke="#63b8ff" d="M381.21,-164.98C368.97,-152.09 349.72,-127.29 363,-110 377.42,-91.24 437.45,-78.7 481.43,-71.84"/>
<polygon fill="#63b8ff" stroke="#63b8ff" points="482.02,-75.3 491.38,-70.35 480.97,-68.37 482.02,-75.3"/>
</a>
</g>
</g>
<!-- Node9 -->
<g id="Node000009" class="node">
<title>Node9</title>
<g id="a_Node000009"><a xlink:title=" ">
<polygon fill="#e0e0e0" stroke="#999999" points="1171,-74 1119,-74 1119,-55 1171,-55 1171,-74"/>
<text text-anchor="middle" x="1145" y="-62" font-family="Helvetica,sans-Serif" font-size="10.00">stddef.h</text>
</a>
</g>
</g>
<!-- Node8&#45;&gt;Node9 -->
<g id="edge8_Node000008_Node000009" class="edge">
<title>Node8&#45;&gt;Node9</title>
<g id="a_edge8_Node000008_Node000009"><a xlink:title=" ">
<path fill="none" stroke="#63b8ff" d="M440.03,-166.2C521.51,-154.33 687.96,-130.13 829,-110 930.2,-95.56 1049.68,-78.82 1108.51,-70.59"/>
<polygon fill="#63b8ff" stroke="#63b8ff" points="1109.36,-74.01 1118.78,-69.16 1108.39,-67.08 1109.36,-74.01"/>
</a>
</g>
</g>
<!-- Node10 -->
<g id="Node000010" class="node">
<title>Node10</title>
<g id="a_Node000010"><a xlink:title=" ">
<polygon fill="#e0e0e0" stroke="#999999" points="315.5,-129 266.5,-129 266.5,-110 315.5,-110 315.5,-129"/>
<text text-anchor="middle" x="291" y="-117" font-family="Helvetica,sans-Serif" font-size="10.00">stdint.h</text>
</a>
</g>
</g>
<!-- Node8&#45;&gt;Node10 -->
<g id="edge9_Node000008_Node000010" class="edge">
<title>Node8&#45;&gt;Node10</title>
<g id="a_edge9_Node000008_Node000010"><a xlink:title=" ">
<path fill="none" stroke="#63b8ff" d="M374.09,-164.98C358.45,-156.61 334.34,-143.7 316.12,-133.95"/>
<polygon fill="#63b8ff" stroke="#63b8ff" points="317.66,-130.8 307.2,-129.17 314.36,-136.98 317.66,-130.8"/>
</a>
</g>
</g>
<!-- Node11 -->
<g id="Node000011" class="node">
<title>Node11</title>
<g id="a_Node000011"><a xlink:title=" ">
<polygon fill="#e0e0e0" stroke="#999999" points="502,-129 434,-129 434,-110 502,-110 502,-129"/>
<text text-anchor="middle" x="468" y="-117" font-family="Helvetica,sans-Serif" font-size="10.00">sys/types.h</text>
</a>
</g>
</g>
<!-- Node8&#45;&gt;Node11 -->
<g id="edge10_Node000008_Node000011" class="edge">
<title>Node8&#45;&gt;Node11</title>
<g id="a_edge10_Node000008_Node000011"><a xlink:title=" ">
<path fill="none" stroke="#63b8ff" d="M402.53,-164.98C414.4,-156.92 432.46,-144.65 446.61,-135.03"/>
<polygon fill="#63b8ff" stroke="#63b8ff" points="448.94,-137.69 455.24,-129.17 445,-131.9 448.94,-137.69"/>
</a>
</g>
</g>
<!-- Node12 -->
<g id="Node000012" class="node">
<title>Node12</title>
<g id="a_Node000012"><a xlink:title=" ">
<polygon fill="#e0e0e0" stroke="#999999" points="416,-129 372,-129 372,-110 416,-110 416,-129"/>
<text text-anchor="middle" x="394" y="-117" font-family="Helvetica,sans-Serif" font-size="10.00">time.h</text>
</a>
</g>
</g>
<!-- Node8&#45;&gt;Node12 -->
<g id="edge11_Node000008_Node000012" class="edge">
<title>Node8&#45;&gt;Node12</title>
<g id="a_edge11_Node000008_Node000012"><a xlink:title=" ">
<path fill="none" stroke="#63b8ff" d="M390.66,-164.75C391.18,-157.8 391.94,-147.85 392.59,-139.13"/>
<polygon fill="#63b8ff" stroke="#63b8ff" points="396.09,-139.32 393.35,-129.09 389.11,-138.8 396.09,-139.32"/>
</a>
</g>
</g>
<!-- Node13 -->
<g id="Node000013" class="node">
<title>Node13</title>
<g id="a_Node000013"><a xlink:href="Arena_8h.html" target="_top" xlink:title=" ">
<polygon fill="white" stroke="#666666" points="668,-129 596,-129 596,-110 668,-110 668,-129"/>
<text text-anchor="middle" x="632" y="-117" font-family="Helvetica,sans-Serif" font-size="10.00">core/Arena.h</text>
</a>
</g>
</g>
<!-- Node8&#45;&gt;Node13 -->
<g id="edge12_Node000008_Node000013" class="edge">
<title>Node8&#45;&gt;Node13</title>
<g id="a_edge12_Node000008_Node000013"><a xlink:title=" ">
<path fill="none" stroke="#63b8ff" d="M428.88,-164.98C471.74,-155.6 540.61,-140.52 586.09,-130.56"/>
<polygon fill="#63b8ff" stroke="#63b8ff" points="586.96,-133.95 595.98,-128.39 585.46,-127.11 586.96,-133.95"/>
</a>
</g>
</g>
<!-- Node13&#45;&gt;Node6 -->
<g id="edge14_Node000013_Node000006" class="edge">
<title>Node13&#45;&gt;Node6</title>
<g id="a_edge14_Node000013_Node000006"><a xlink:title=" ">
<path fill="none" stroke="#63b8ff" d="M615.61,-109.98C599.43,-101.57 574.43,-88.59 555.62,-78.81"/>
<polygon fill="#63b8ff" stroke="#63b8ff" points="557.17,-75.68 546.69,-74.17 553.95,-81.89 557.17,-75.68"/>
</a>
</g>
</g>
<!-- Node13&#45;&gt;Node9 -->
<g id="edge13_Node000013_Node000009" class="edge">
<title>Node13&#45;&gt;Node9</title>
<g id="a_edge13_Node000013_Node000009"><a xlink:title=" ">
<path fill="none" stroke="#63b8ff" d="M668.07,-114.77C762.17,-105.05 1014.33,-79 1108.69,-69.25"/>
<polygon fill="#63b8ff" stroke="#63b8ff" points="1109.29,-72.71 1118.88,-68.2 1108.57,-65.74 1109.29,-72.71"/>
</a>
</g>
</g>
<!-- Node14&#45;&gt;Node6 -->
<g id="edge21_Node000014_Node000006" class="edge">
<title>Node14&#45;&gt;Node6</title>
<g id="a_edge21_Node000014_Node000006"><a xlink:title=" ">
<path fill="none" stroke="#63b8ff" d="M397.71,-384.95C347.65,-372.56 274,-344.35 274,-285.5 274,-285.5 274,-285.5 274,-228.5 274,-201.9 239.77,-130.27 257,-110 285.24,-76.79 410.75,-68.3 481.35,-66.17"/>
<polygon fill="#63b8ff" stroke="#63b8ff" points="481.45,-69.67 491.35,-65.9 481.26,-62.68 481.45,-69.67"/>
</a>
</g>
</g>
<!-- Node14&#45;&gt;Node8 -->
<g id="edge22_Node000014_Node000008" class="edge">
<title>Node14&#45;&gt;Node8</title>
<g id="a_edge22_Node000014_Node000008"><a xlink:title=" ">
<path fill="none" stroke="#63b8ff" d="M435.47,-384.98C428.42,-376.49 418.22,-362.76 413,-349 392.75,-295.61 389.84,-227.11 389.72,-194.46"/>
<polygon fill="#63b8ff" stroke="#63b8ff" points="393.22,-194.16 389.77,-184.14 386.22,-194.12 393.22,-194.16"/>
</a>
</g>
</g>
<!-- Node14&#45;&gt;Node9 -->
<g id="edge17_Node000014_Node000009" class="edge">
<title>Node14&#45;&gt;Node9</title>
<g id="a_edge17_Node000014_Node000009"><a xlink:title=" ">
<path fill="none" stroke="#63b8ff" d="M507.51,-392.51C713.18,-388.5 1340,-369.42 1340,-285.5 1340,-285.5 1340,-285.5 1340,-173.5 1340,-137.54 1237.24,-96.87 1180.91,-77.29"/>
<polygon fill="#63b8ff" stroke="#63b8ff" points="1181.89,-73.92 1171.3,-73.99 1179.62,-80.54 1181.89,-73.92"/>
</a>
</g>
</g>
<!-- Node14&#45;&gt;Node10 -->
<g id="edge18_Node000014_Node000010" class="edge">
<title>Node14&#45;&gt;Node10</title>
<g id="a_edge18_Node000014_Node000010"><a xlink:title=" ">
<path fill="none" stroke="#63b8ff" d="M416.17,-384.98C377.85,-370.92 312,-339 312,-285.5 312,-285.5 312,-285.5 312,-228.5 312,-196.46 302.98,-160.03 296.77,-138.73"/>
<polygon fill="#63b8ff" stroke="#63b8ff" points="300.09,-137.62 293.83,-129.07 293.39,-139.65 300.09,-137.62"/>
</a>
</g>
</g>
<!-- Node14&#45;&gt;Node11 -->
<g id="edge19_Node000014_Node000011" class="edge">
<title>Node14&#45;&gt;Node11</title>
<g id="a_edge19_Node000014_Node000011"><a xlink:title=" ">
<path fill="none" stroke="#63b8ff" d="M443.46,-384.87C444.52,-365.3 447.36,-316.08 451,-275 455.36,-225.88 462.16,-168.16 465.69,-139.15"/>
<polygon fill="#63b8ff" stroke="#63b8ff" points="469.17,-139.55 466.91,-129.2 462.22,-138.7 469.17,-139.55"/>
</a>
</g>
</g>
<!-- Node14&#45;&gt;Node13 -->
<g id="edge20_Node000014_Node000013" class="edge">
<title>Node14&#45;&gt;Node13</title>
<g id="a_edge20_Node000014_Node000013"><a xlink:title=" ">
<path fill="none" stroke="#63b8ff" d="M507.86,-386.93C609.51,-375.12 798.83,-346.5 838,-294 866.6,-255.67 717.97,-167.82 657.08,-134.06"/>
<polygon fill="#63b8ff" stroke="#63b8ff" points="658.55,-130.87 648.1,-129.12 655.17,-137.01 658.55,-130.87"/>
</a>
</g>
</g>
<!-- Node15 -->
<g id="Node000015" class="node">
<title>Node15</title>
<g id="a_Node000015"><a xlink:href="SocketPoll_8h.html" target="_top" xlink:title=" ">
<polygon fill="white" stroke="#666666" points="244,-294 154,-294 154,-275 244,-275 244,-294"/>
<text text-anchor="middle" x="199" y="-282" font-family="Helvetica,sans-Serif" font-size="10.00">poll/SocketPoll.h</text>
</a>
</g>
</g>
<!-- Node14&#45;&gt;Node15 -->
<g id="edge23_Node000014_Node000015" class="edge">
<title>Node14&#45;&gt;Node15</title>
<g id="a_edge23_Node000014_Node000015"><a xlink:title=" ">
<path fill="none" stroke="#63b8ff" d="M378.28,-386.83C341.67,-380.91 296.14,-369.79 260,-349 239.81,-337.39 222.04,-317.1 210.97,-302.58"/>
<polygon fill="#63b8ff" stroke="#63b8ff" points="213.71,-300.41 204.98,-294.42 208.07,-304.55 213.71,-300.41"/>
</a>
</g>
</g>
<!-- Node17 -->
<g id="Node000017" class="node">
<title>Node17</title>
<g id="a_Node000017"><a xlink:href="Socket_8h.html" target="_top" xlink:title=" ">
<polygon fill="white" stroke="#666666" points="939,-239 851,-239 851,-220 939,-220 939,-239"/>
<text text-anchor="middle" x="895" y="-227" font-family="Helvetica,sans-Serif" font-size="10.00">socket/Socket.h</text>
</a>
</g>
</g>
<!-- Node14&#45;&gt;Node17 -->
<g id="edge58_Node000014_Node000017" class="edge">
<title>Node14&#45;&gt;Node17</title>
<g id="a_edge58_Node000014_Node000017"><a xlink:title=" ">
<path fill="none" stroke="#63b8ff" d="M507.55,-390.95C620.52,-385.88 844.66,-372.92 871,-349 898.75,-323.8 899.46,-276.1 897.36,-249.55"/>
<polygon fill="#63b8ff" stroke="#63b8ff" points="900.81,-248.89 896.31,-239.29 893.84,-249.59 900.81,-248.89"/>
</a>
</g>
</g>
<!-- Node33 -->
<g id="Node000033" class="node">
<title>Node33</title>
<g id="a_Node000033"><a xlink:href="SocketTLSContext_8h.html" target="_top" xlink:title=" ">
<polygon fill="white" stroke="#666666" points="644,-349 522,-349 522,-330 644,-330 644,-349"/>
<text text-anchor="middle" x="583" y="-337" font-family="Helvetica,sans-Serif" font-size="10.00">tls/SocketTLSContext.h</text>
</a>
</g>
</g>
<!-- Node14&#45;&gt;Node33 -->
<g id="edge59_Node000014_Node000033" class="edge">
<title>Node14&#45;&gt;Node33</title>
<g id="a_edge59_Node000014_Node000033"><a xlink:title=" ">
<path fill="none" stroke="#63b8ff" d="M465.49,-384.98C488.52,-376.27 524.54,-362.63 550.63,-352.75"/>
<polygon fill="#63b8ff" stroke="#63b8ff" points="551.98,-355.98 560.1,-349.17 549.51,-349.44 551.98,-355.98"/>
</a>
</g>
</g>
<!-- Node15&#45;&gt;Node6 -->
<g id="edge24_Node000015_Node000006" class="edge">
<title>Node15&#45;&gt;Node6</title>
<g id="a_edge24_Node000015_Node000006"><a xlink:title=" ">
<path fill="none" stroke="#63b8ff" d="M190.86,-274.79C176.24,-258.5 146.06,-221.64 135,-184 122.24,-140.56 163.32,-127.67 205,-110 253.74,-89.34 403.08,-75.22 481.21,-69.03"/>
<polygon fill="#63b8ff" stroke="#63b8ff" points="481.58,-72.52 491.28,-68.25 481.04,-65.54 481.58,-72.52"/>
</a>
</g>
</g>
<!-- Node16 -->
<g id="Node000016" class="node">
<title>Node16</title>
<g id="a_Node000016"><a xlink:href="SocketTimer_8h.html" target="_top" xlink:title=" ">
<polygon fill="white" stroke="#666666" points="245.5,-184 144.5,-184 144.5,-165 245.5,-165 245.5,-184"/>
<text text-anchor="middle" x="195" y="-172" font-family="Helvetica,sans-Serif" font-size="10.00">core/SocketTimer.h</text>
</a>
</g>
</g>
<!-- Node15&#45;&gt;Node16 -->
<g id="edge25_Node000015_Node000016" class="edge">
<title>Node15&#45;&gt;Node16</title>
<g id="a_edge25_Node000015_Node000016"><a xlink:title=" ">
<path fill="none" stroke="#63b8ff" d="M198.67,-274.66C198.02,-257.17 196.57,-217.8 195.7,-194.27"/>
<polygon fill="#63b8ff" stroke="#63b8ff" points="199.19,-194.02 195.32,-184.16 192.19,-194.28 199.19,-194.02"/>
</a>
</g>
</g>
<!-- Node15&#45;&gt;Node17 -->
<g id="edge28_Node000015_Node000017" class="edge">
<title>Node15&#45;&gt;Node17</title>
<g id="a_edge28_Node000015_Node000017"><a xlink:title=" ">
<path fill="none" stroke="#63b8ff" d="M244.13,-280.06C367.02,-270.71 707.29,-244.79 840.51,-234.65"/>
<polygon fill="#63b8ff" stroke="#63b8ff" points="841.17,-238.11 850.87,-233.86 840.63,-231.13 841.17,-238.11"/>
</a>
</g>
</g>
<!-- Node16&#45;&gt;Node6 -->
<g id="edge26_Node000016_Node000006" class="edge">
<title>Node16&#45;&gt;Node6</title>
<g id="a_edge26_Node000016_Node000006"><a xlink:title=" ">
<path fill="none" stroke="#63b8ff" d="M196.27,-164.89C198.83,-150.92 205.96,-123.52 224,-110 263.64,-80.28 405.18,-70.28 481.08,-67.02"/>
<polygon fill="#63b8ff" stroke="#63b8ff" points="481.49,-70.5 491.34,-66.6 481.2,-63.51 481.49,-70.5"/>
</a>
</g>
</g>
<!-- Node16&#45;&gt;Node10 -->
<g id="edge27_Node000016_Node000010" class="edge">
<title>Node16&#45;&gt;Node10</title>
<g id="a_edge27_Node000016_Node000010"><a xlink:title=" ">
<path fill="none" stroke="#63b8ff" d="M210.42,-164.98C225.45,-156.69 248.54,-143.94 266.16,-134.22"/>
<polygon fill="#63b8ff" stroke="#63b8ff" points="268.23,-137.07 275.3,-129.17 264.85,-130.94 268.23,-137.07"/>
</a>
</g>
</g>
<!-- Node17&#45;&gt;Node6 -->
<g id="edge29_Node000017_Node000006" class="edge">
<title>Node17&#45;&gt;Node6</title>
<g id="a_edge29_Node000017_Node000006"><a xlink:title=" ">
<path fill="none" stroke="#63b8ff" d="M882.62,-219.83C863.94,-206.95 827.2,-182.41 794,-165 758.03,-146.13 746.33,-147.16 710,-129 694.86,-121.43 692.53,-116.72 677,-110 644.38,-95.89 605.88,-84.41 576.46,-76.65"/>
<polygon fill="#63b8ff" stroke="#63b8ff" points="577.02,-73.18 566.46,-74.06 575.27,-79.95 577.02,-73.18"/>
</a>
</g>
</g>
<!-- Node18 -->
<g id="Node000018" class="node">
<title>Node18</title>
<g id="a_Node000018"><a xlink:href="SocketConfig_8h.html" target="_top" xlink:title=" ">
<polygon fill="white" stroke="#666666" points="1512,-129 1406,-129 1406,-110 1512,-110 1512,-129"/>
<text text-anchor="middle" x="1459" y="-117" font-family="Helvetica,sans-Serif" font-size="10.00">core/SocketConfig.h</text>
</a>
</g>
</g>
<!-- Node17&#45;&gt;Node18 -->
<g id="edge30_Node000017_Node000018" class="edge">
<title>Node17&#45;&gt;Node18</title>
<g id="a_edge30_Node000017_Node000018"><a xlink:title=" ">
<path fill="none" stroke="#63b8ff" d="M939.26,-220.03C1041.37,-200.47 1293.2,-152.25 1404.55,-130.93"/>
<polygon fill="#63b8ff" stroke="#63b8ff" points="1405.4,-134.33 1414.56,-129.01 1404.08,-127.45 1405.4,-134.33"/>
</a>
</g>
</g>
<!-- Node26 -->
<g id="Node000026" class="node">
<title>Node26</title>
<g id="a_Node000026"><a xlink:href="SocketDNS_8h.html" target="_top" xlink:title=" ">
<polygon fill="white" stroke="#666666" points="1236,-129 1140,-129 1140,-110 1236,-110 1236,-129"/>
<text text-anchor="middle" x="1188" y="-117" font-family="Helvetica,sans-Serif" font-size="10.00">dns/SocketDNS.h</text>
</a>
</g>
</g>
<!-- Node17&#45;&gt;Node26 -->
<g id="edge40_Node000017_Node000026" class="edge">
<title>Node17&#45;&gt;Node26</title>
<g id="a_edge40_Node000017_Node000026"><a xlink:title=" ">
<path fill="none" stroke="#63b8ff" d="M918.48,-219.84C970.47,-200.68 1095.41,-154.63 1155.13,-132.62"/>
<polygon fill="#63b8ff" stroke="#63b8ff" points="1156.64,-135.79 1164.81,-129.05 1154.22,-129.22 1156.64,-135.79"/>
</a>
</g>
</g>
<!-- Node28 -->
<g id="Node000028" class="node">
<title>Node28</title>
<g id="a_Node000028"><a xlink:href="SocketCommon_8h.html" target="_top" xlink:title=" ">
<polygon fill="white" stroke="#666666" points="1005,-184 877,-184 877,-165 1005,-165 1005,-184"/>
<text text-anchor="middle" x="941" y="-172" font-family="Helvetica,sans-Serif" font-size="10.00">socket/SocketCommon.h</text>
</a>
</g>
</g>
<!-- Node17&#45;&gt;Node28 -->
<g id="edge45_Node000017_Node000028" class="edge">
<title>Node17&#45;&gt;Node28</title>
<g id="a_edge45_Node000017_Node000028"><a xlink:title=" ">
<path fill="none" stroke="#63b8ff" d="M902.6,-219.75C909.16,-212.18 918.82,-201.05 926.81,-191.84"/>
<polygon fill="#63b8ff" stroke="#63b8ff" points="929.63,-193.94 933.55,-184.09 924.35,-189.35 929.63,-193.94"/>
</a>
</g>
</g>
<!-- Node18&#45;&gt;Node3 -->
<g id="edge36_Node000018_Node000003" class="edge">
<title>Node18&#45;&gt;Node3</title>
<g id="a_edge36_Node000018_Node000003"><a xlink:title=" ">
<path fill="none" stroke="#63b8ff" d="M1512.43,-110.66C1562.35,-103.01 1639.16,-90.44 1714.81,-74.1"/>
<polygon fill="#63b8ff" stroke="#63b8ff" points="1715.96,-77.43 1724.99,-71.87 1714.47,-70.59 1715.96,-77.43"/>
</a>
</g>
</g>
<!-- Node18&#45;&gt;Node9 -->
<g id="edge35_Node000018_Node000009" class="edge">
<title>Node18&#45;&gt;Node9</title>
<g id="a_edge35_Node000018_Node000009"><a xlink:title=" ">
<path fill="none" stroke="#63b8ff" d="M1405.76,-111.16C1351.79,-103.45 1265.67,-90.43 1181.31,-73.92"/>
<polygon fill="#63b8ff" stroke="#63b8ff" points="1181.79,-70.45 1171.3,-71.94 1180.43,-77.32 1181.79,-70.45"/>
</a>
</g>
</g>
<!-- Node19 -->
<g id="Node000019" class="node">
<title>Node19</title>
<g id="a_Node000019"><a xlink:title=" ">
<polygon fill="#e0e0e0" stroke="#999999" points="1473.5,-74 1426.5,-74 1426.5,-55 1473.5,-55 1473.5,-74"/>
<text text-anchor="middle" x="1450" y="-62" font-family="Helvetica,sans-Serif" font-size="10.00">errno.h</text>
</a>
</g>
</g>
<!-- Node18&#45;&gt;Node19 -->
<g id="edge31_Node000018_Node000019" class="edge">
<title>Node18&#45;&gt;Node19</title>
<g id="a_edge31_Node000018_Node000019"><a xlink:title=" ">
<path fill="none" stroke="#63b8ff" d="M1457.51,-109.75C1456.33,-102.8 1454.64,-92.85 1453.16,-84.13"/>
<polygon fill="#63b8ff" stroke="#63b8ff" points="1456.58,-83.36 1451.46,-74.09 1449.68,-84.53 1456.58,-83.36"/>
</a>
</g>
</g>
<!-- Node20 -->
<g id="Node000020" class="node">
<title>Node20</title>
<g id="a_Node000020"><a xlink:title=" ">
<polygon fill="#e0e0e0" stroke="#999999" points="1325,-74 1281,-74 1281,-55 1325,-55 1325,-74"/>
<text text-anchor="middle" x="1303" y="-62" font-family="Helvetica,sans-Serif" font-size="10.00">fcntl.h</text>
</a>
</g>
</g>
<!-- Node18&#45;&gt;Node20 -->
<g id="edge32_Node000018_Node000020" class="edge">
<title>Node18&#45;&gt;Node20</title>
<g id="a_edge32_Node000018_Node000020"><a xlink:title=" ">
<path fill="none" stroke="#63b8ff" d="M1433.94,-109.98C1407.12,-100.88 1364.51,-86.4 1335.23,-76.45"/>
<polygon fill="#63b8ff" stroke="#63b8ff" points="1336.06,-73.04 1325.47,-73.13 1333.81,-79.67 1336.06,-73.04"/>
</a>
</g>
</g>
<!-- Node21 -->
<g id="Node000021" class="node">
<title>Node21</title>
<g id="a_Node000021"><a xlink:title=" ">
<polygon fill="#e0e0e0" stroke="#999999" points="1408.5,-74 1343.5,-74 1343.5,-55 1408.5,-55 1408.5,-74"/>
<text text-anchor="middle" x="1376" y="-62" font-family="Helvetica,sans-Serif" font-size="10.00">netinet/in.h</text>
</a>
</g>
</g>
<!-- Node18&#45;&gt;Node21 -->
<g id="edge33_Node000018_Node000021" class="edge">
<title>Node18&#45;&gt;Node21</title>
<g id="a_edge33_Node000018_Node000021"><a xlink:title=" ">
<path fill="none" stroke="#63b8ff" d="M1445.66,-109.98C1432.91,-101.84 1413.45,-89.41 1398.33,-79.76"/>
<polygon fill="#63b8ff" stroke="#63b8ff" points="1399.89,-76.6 1389.58,-74.17 1396.12,-82.5 1399.89,-76.6"/>
</a>
</g>
</g>
<!-- Node22 -->
<g id="Node000022" class="node">
<title>Node22</title>
<g id="a_Node000022"><a xlink:title=" ">
<polygon fill="#e0e0e0" stroke="#999999" points="1562.5,-74 1491.5,-74 1491.5,-55 1562.5,-55 1562.5,-74"/>
<text text-anchor="middle" x="1527" y="-62" font-family="Helvetica,sans-Serif" font-size="10.00">netinet/tcp.h</text>
</a>
</g>
</g>
<!-- Node18&#45;&gt;Node22 -->
<g id="edge34_Node000018_Node000022" class="edge">
<title>Node18&#45;&gt;Node22</title>
<g id="a_edge34_Node000018_Node000022"><a xlink:title=" ">
<path fill="none" stroke="#63b8ff" d="M1469.93,-109.98C1480.08,-102.07 1495.42,-90.11 1507.65,-80.58"/>
<polygon fill="#63b8ff" stroke="#63b8ff" points="1510.14,-83.08 1515.88,-74.17 1505.84,-77.56 1510.14,-83.08"/>
</a>
</g>
</g>
<!-- Node23 -->
<g id="Node000023" class="node">
<title>Node23</title>
<g id="a_Node000023"><a xlink:title=" ">
<polygon fill="#e0e0e0" stroke="#999999" points="1262.5,-74 1189.5,-74 1189.5,-55 1262.5,-55 1262.5,-74"/>
<text text-anchor="middle" x="1226" y="-62" font-family="Helvetica,sans-Serif" font-size="10.00">sys/socket.h</text>
</a>
</g>
</g>
<!-- Node18&#45;&gt;Node23 -->
<g id="edge37_Node000018_Node000023" class="edge">
<title>Node18&#45;&gt;Node23</title>
<g id="a_edge37_Node000018_Node000023"><a xlink:title=" ">
<path fill="none" stroke="#63b8ff" d="M1421.56,-109.98C1380.99,-100.75 1316.18,-86.01 1272.4,-76.05"/>
<polygon fill="#63b8ff" stroke="#63b8ff" points="1273.1,-72.62 1262.57,-73.82 1271.55,-79.45 1273.1,-72.62"/>
</a>
</g>
</g>
<!-- Node24 -->
<g id="Node000024" class="node">
<title>Node24</title>
<g id="a_Node000024"><a xlink:title=" ">
<polygon fill="#e0e0e0" stroke="#999999" points="1637,-74 1581,-74 1581,-55 1637,-55 1637,-74"/>
<text text-anchor="middle" x="1609" y="-62" font-family="Helvetica,sans-Serif" font-size="10.00">sys/uio.h</text>
</a>
</g>
</g>
<!-- Node18&#45;&gt;Node24 -->
<g id="edge38_Node000018_Node000024" class="edge">
<title>Node18&#45;&gt;Node24</title>
<g id="a_edge38_Node000018_Node000024"><a xlink:title=" ">
<path fill="none" stroke="#63b8ff" d="M1483.1,-109.98C1507.88,-101.23 1546.7,-87.51 1574.69,-77.62"/>
<polygon fill="#63b8ff" stroke="#63b8ff" points="1576.2,-80.8 1584.46,-74.17 1573.87,-74.2 1576.2,-80.8"/>
</a>
</g>
</g>
<!-- Node25 -->
<g id="Node000025" class="node">
<title>Node25</title>
<g id="a_Node000025"><a xlink:title=" ">
<polygon fill="#e0e0e0" stroke="#999999" points="1706.5,-74 1655.5,-74 1655.5,-55 1706.5,-55 1706.5,-74"/>
<text text-anchor="middle" x="1681" y="-62" font-family="Helvetica,sans-Serif" font-size="10.00">unistd.h</text>
</a>
</g>
</g>
<!-- Node18&#45;&gt;Node25 -->
<g id="edge39_Node000018_Node000025" class="edge">
<title>Node18&#45;&gt;Node25</title>
<g id="a_edge39_Node000018_Node000025"><a xlink:title=" ">
<path fill="none" stroke="#63b8ff" d="M1495.21,-109.94C1530.9,-101.48 1587.26,-88.1 1645.63,-74.08"/>
<polygon fill="#63b8ff" stroke="#63b8ff" points="1646.48,-77.47 1655.39,-71.73 1644.85,-70.67 1646.48,-77.47"/>
</a>
</g>
</g>
<!-- Node26&#45;&gt;Node6 -->
<g id="edge41_Node000026_Node000006" class="edge">
<title>Node26&#45;&gt;Node6</title>
<g id="a_edge41_Node000026_Node000006"><a xlink:title=" ">
<path fill="none" stroke="#63b8ff" d="M1139.83,-111.06C1136.85,-110.68 1133.88,-110.32 1131,-110 926.42,-87.2 681.32,-73.16 578.81,-67.88"/>
<polygon fill="#63b8ff" stroke="#63b8ff" points="578.93,-64.39 568.76,-67.37 578.57,-71.38 578.93,-64.39"/>
</a>
</g>
</g>
<!-- Node26&#45;&gt;Node9 -->
<g id="edge43_Node000026_Node000009" class="edge">
<title>Node26&#45;&gt;Node9</title>
<g id="a_edge43_Node000026_Node000009"><a xlink:title=" ">
<path fill="none" stroke="#63b8ff" d="M1180.9,-109.75C1174.83,-102.26 1165.91,-91.28 1158.49,-82.13"/>
<polygon fill="#63b8ff" stroke="#63b8ff" points="1160.99,-79.65 1151.97,-74.09 1155.55,-84.06 1160.99,-79.65"/>
</a>
</g>
</g>
<!-- Node26&#45;&gt;Node23 -->
<g id="edge44_Node000026_Node000023" class="edge">
<title>Node26&#45;&gt;Node23</title>
<g id="a_edge44_Node000026_Node000023"><a xlink:title=" ">
<path fill="none" stroke="#63b8ff" d="M1194.27,-109.75C1199.59,-102.34 1207.36,-91.5 1213.88,-82.41"/>
<polygon fill="#63b8ff" stroke="#63b8ff" points="1216.86,-84.26 1219.84,-74.09 1211.17,-80.18 1216.86,-84.26"/>
</a>
</g>
</g>
<!-- Node27 -->
<g id="Node000027" class="node">
<title>Node27</title>
<g id="a_Node000027"><a xlink:title=" ">
<polygon fill="#e0e0e0" stroke="#999999" points="967.5,-74 918.5,-74 918.5,-55 967.5,-55 967.5,-74"/>
<text text-anchor="middle" x="943" y="-62" font-family="Helvetica,sans-Serif" font-size="10.00">netdb.h</text>
</a>
</g>
</g>
<!-- Node26&#45;&gt;Node27 -->
<g id="edge42_Node000026_Node000027" class="edge">
<title>Node26&#45;&gt;Node27</title>
<g id="a_edge42_Node000026_Node000027"><a xlink:title=" ">
<path fill="none" stroke="#63b8ff" d="M1148.64,-109.98C1101.33,-99.75 1022.69,-82.74 977.61,-72.99"/>
<polygon fill="#63b8ff" stroke="#63b8ff" points="978.23,-69.54 967.71,-70.85 976.75,-76.38 978.23,-69.54"/>
</a>
</g>
</g>
<!-- Node28&#45;&gt;Node6 -->
<g id="edge56_Node000028_Node000006" class="edge">
<title>Node28&#45;&gt;Node6</title>
<g id="a_edge56_Node000028_Node000006"><a xlink:title=" ">
<path fill="none" stroke="#63b8ff" d="M910.8,-164.93C866.74,-152.49 782.24,-128.85 710,-110 664.3,-98.07 611.87,-85.2 575.42,-76.39"/>
<polygon fill="#63b8ff" stroke="#63b8ff" points="576.13,-72.96 565.59,-74.01 574.49,-79.76 576.13,-72.96"/>
</a>
</g>
</g>
<!-- Node28&#45;&gt;Node11 -->
<g id="edge53_Node000028_Node000011" class="edge">
<title>Node28&#45;&gt;Node11</title>
<g id="a_edge53_Node000028_Node000011"><a xlink:title=" ">
<path fill="none" stroke="#63b8ff" d="M876.72,-166.3C779.12,-155.36 596.06,-134.85 512.11,-125.44"/>
<polygon fill="#63b8ff" stroke="#63b8ff" points="512.46,-121.96 502.14,-124.32 511.68,-128.92 512.46,-121.96"/>
</a>
</g>
</g>
<!-- Node28&#45;&gt;Node13 -->
<g id="edge55_Node000028_Node000013" class="edge">
<title>Node28&#45;&gt;Node13</title>
<g id="a_edge55_Node000028_Node000013"><a xlink:title=" ">
<path fill="none" stroke="#63b8ff" d="M891.35,-164.98C832.57,-154.9 735.45,-138.24 678.21,-128.43"/>
<polygon fill="#63b8ff" stroke="#63b8ff" points="678.46,-124.92 668.01,-126.68 677.27,-131.82 678.46,-124.92"/>
</a>
</g>
</g>
<!-- Node28&#45;&gt;Node18 -->
<g id="edge57_Node000028_Node000018" class="edge">
<title>Node28&#45;&gt;Node18</title>
<g id="a_edge57_Node000028_Node000018"><a xlink:title=" ">
<path fill="none" stroke="#63b8ff" d="M1005.29,-167.72C1092.83,-159.73 1254.4,-144.51 1392,-129 1393.28,-128.86 1394.57,-128.71 1395.87,-128.56"/>
<polygon fill="#63b8ff" stroke="#63b8ff" points="1396.47,-132.01 1405.99,-127.36 1395.64,-125.06 1396.47,-132.01"/>
</a>
</g>
</g>
<!-- Node28&#45;&gt;Node20 -->
<g id="edge48_Node000028_Node000020" class="edge">
<title>Node28&#45;&gt;Node20</title>
<g id="a_edge48_Node000028_Node000020"><a xlink:title=" ">
<path fill="none" stroke="#63b8ff" d="M1005.06,-170.77C1085.95,-166.29 1219.6,-155.09 1261,-129 1277.74,-118.45 1289.26,-98.53 1295.94,-83.81"/>
<polygon fill="#63b8ff" stroke="#63b8ff" points="1299.33,-84.78 1299.96,-74.21 1292.87,-82.08 1299.33,-84.78"/>
</a>
</g>
</g>
<!-- Node28&#45;&gt;Node21 -->
<g id="edge50_Node000028_Node000021" class="edge">
<title>Node28&#45;&gt;Node21</title>
<g id="a_edge50_Node000028_Node000021"><a xlink:title=" ">
<path fill="none" stroke="#63b8ff" d="M1005.15,-174.09C1075.75,-172.73 1191.5,-164.51 1284,-129 1312.96,-117.88 1341.62,-95.89 1359.07,-80.94"/>
<polygon fill="#63b8ff" stroke="#63b8ff" points="1361.49,-83.48 1366.68,-74.24 1356.86,-78.22 1361.49,-83.48"/>
</a>
</g>
</g>
<!-- Node28&#45;&gt;Node23 -->
<g id="edge51_Node000028_Node000023" class="edge">
<title>Node28&#45;&gt;Node23</title>
<g id="a_edge51_Node000028_Node000023"><a xlink:title=" ">
<path fill="none" stroke="#63b8ff" d="M1005.25,-173.53C1085.12,-172.05 1214.66,-164.11 1245,-129 1256.23,-116 1247.9,-96.57 1239.01,-82.62"/>
<polygon fill="#63b8ff" stroke="#63b8ff" points="1241.86,-80.59 1233.28,-74.38 1236.11,-84.59 1241.86,-80.59"/>
</a>
</g>
</g>
<!-- Node28&#45;&gt;Node27 -->
<g id="edge49_Node000028_Node000027" class="edge">
<title>Node28&#45;&gt;Node27</title>
<g id="a_edge49_Node000028_Node000027"><a xlink:title=" ">
<path fill="none" stroke="#63b8ff" d="M892.96,-164.92C854.35,-155.74 809.52,-138.52 829,-110 846.56,-84.29 881.38,-73.43 907.93,-68.85"/>
<polygon fill="#63b8ff" stroke="#63b8ff" points="908.64,-72.28 918.01,-67.33 907.6,-65.36 908.64,-72.28"/>
</a>
</g>
</g>
<!-- Node29 -->
<g id="Node000029" class="node">
<title>Node29</title>
<g id="a_Node000029"><a xlink:title=" ">
<polygon fill="#e0e0e0" stroke="#999999" points="894,-129 838,-129 838,-110 894,-110 894,-129"/>
<text text-anchor="middle" x="866" y="-117" font-family="Helvetica,sans-Serif" font-size="10.00">stdbool.h</text>
</a>
</g>
</g>
<!-- Node28&#45;&gt;Node29 -->
<g id="edge46_Node000028_Node000029" class="edge">
<title>Node28&#45;&gt;Node29</title>
<g id="a_edge46_Node000028_Node000029"><a xlink:title=" ">
<path fill="none" stroke="#63b8ff" d="M928.95,-164.98C917.54,-156.92 900.17,-144.65 886.57,-135.03"/>
<polygon fill="#63b8ff" stroke="#63b8ff" points="888.46,-132.08 878.27,-129.17 884.42,-137.8 888.46,-132.08"/>
</a>
</g>
</g>
<!-- Node30 -->
<g id="Node000030" class="node">
<title>Node30</title>
<g id="a_Node000030"><a xlink:title=" ">
<polygon fill="#e0e0e0" stroke="#999999" points="969.5,-129 912.5,-129 912.5,-110 969.5,-110 969.5,-129"/>
<text text-anchor="middle" x="941" y="-117" font-family="Helvetica,sans-Serif" font-size="10.00">pthread.h</text>
</a>
</g>
</g>
<!-- Node28&#45;&gt;Node30 -->
<g id="edge47_Node000028_Node000030" class="edge">
<title>Node28&#45;&gt;Node30</title>
<g id="a_edge47_Node000028_Node000030"><a xlink:title=" ">
<path fill="none" stroke="#63b8ff" d="M941,-164.75C941,-157.8 941,-147.85 941,-139.13"/>
<polygon fill="#63b8ff" stroke="#63b8ff" points="944.5,-139.09 941,-129.09 937.5,-139.09 944.5,-139.09"/>
</a>
</g>
</g>
<!-- Node31 -->
<g id="Node000031" class="node">
<title>Node31</title>
<g id="a_Node000031"><a xlink:title=" ">
<polygon fill="#e0e0e0" stroke="#999999" points="1050,-129 988,-129 988,-110 1050,-110 1050,-129"/>
<text text-anchor="middle" x="1019" y="-117" font-family="Helvetica,sans-Serif" font-size="10.00">sys/time.h</text>
</a>
</g>
</g>
<!-- Node28&#45;&gt;Node31 -->
<g id="edge52_Node000028_Node000031" class="edge">
<title>Node28&#45;&gt;Node31</title>
<g id="a_edge52_Node000028_Node000031"><a xlink:title=" ">
<path fill="none" stroke="#63b8ff" d="M953.53,-164.98C965.4,-156.92 983.46,-144.65 997.61,-135.03"/>
<polygon fill="#63b8ff" stroke="#63b8ff" points="999.94,-137.69 1006.24,-129.17 996,-131.9 999.94,-137.69"/>
</a>
</g>
</g>
<!-- Node32 -->
<g id="Node000032" class="node">
<title>Node32</title>
<g id="a_Node000032"><a xlink:title=" ">
<polygon fill="#e0e0e0" stroke="#999999" points="1122,-129 1068,-129 1068,-110 1122,-110 1122,-129"/>
<text text-anchor="middle" x="1095" y="-117" font-family="Helvetica,sans-Serif" font-size="10.00">sys/un.h</text>
</a>
</g>
</g>
<!-- Node28&#45;&gt;Node32 -->
<g id="edge54_Node000028_Node000032" class="edge">
<title>Node28&#45;&gt;Node32</title>
<g id="a_edge54_Node000028_Node000032"><a xlink:title=" ">
<path fill="none" stroke="#63b8ff" d="M965.74,-164.98C991.37,-156.16 1031.63,-142.31 1060.41,-132.41"/>
<polygon fill="#63b8ff" stroke="#63b8ff" points="1061.75,-135.65 1070.06,-129.08 1059.47,-129.03 1061.75,-135.65"/>
</a>
</g>
</g>
<!-- Node33&#45;&gt;Node6 -->
<g id="edge61_Node000033_Node000006" class="edge">
<title>Node33&#45;&gt;Node6</title>
<g id="a_edge61_Node000033_Node000006"><a xlink:title=" ">
<path fill="none" stroke="#63b8ff" d="M538.24,-329.92C518.05,-323.58 496.08,-312.67 484,-294 472.51,-276.23 510.5,-134.97 524.79,-83.87"/>
<polygon fill="#63b8ff" stroke="#63b8ff" points="528.18,-84.74 527.52,-74.16 521.44,-82.84 528.18,-84.74"/>
</a>
</g>
</g>
<!-- Node33&#45;&gt;Node13 -->
<g id="edge60_Node000033_Node000013" class="edge">
<title>Node33&#45;&gt;Node13</title>
<g id="a_edge60_Node000033_Node000013"><a xlink:title=" ">
<path fill="none" stroke="#63b8ff" d="M637.93,-329.96C659.11,-323.69 681.26,-312.83 694,-294 728.88,-242.44 674.9,-169.01 647,-136.75"/>
<polygon fill="#63b8ff" stroke="#63b8ff" points="649.49,-134.28 640.23,-129.14 644.26,-138.94 649.49,-134.28"/>
</a>
</g>
</g>
<!-- Node34 -->
<g id="Node000034" class="node">
<title>Node34</title>
<g id="a_Node000034"><a xlink:href="SocketTLS_8h.html" target="_top" xlink:title=" ">
<polygon fill="white" stroke="#666666" points="828.5,-294 741.5,-294 741.5,-275 828.5,-275 828.5,-294"/>
<text text-anchor="middle" x="785" y="-282" font-family="Helvetica,sans-Serif" font-size="10.00">tls/SocketTLS.h</text>
</a>
</g>
</g>
<!-- Node33&#45;&gt;Node34 -->
<g id="edge62_Node000033_Node000034" class="edge">
<title>Node33&#45;&gt;Node34</title>
<g id="a_edge62_Node000033_Node000034"><a xlink:title=" ">
<path fill="none" stroke="#63b8ff" d="M615.45,-329.98C649.96,-320.93 704.66,-306.58 742.56,-296.64"/>
<polygon fill="#63b8ff" stroke="#63b8ff" points="743.51,-300.01 752.29,-294.08 741.73,-293.23 743.51,-300.01"/>
</a>
</g>
</g>
<!-- Node35 -->
<g id="Node000035" class="node">
<title>Node35</title>
<g id="a_Node000035"><a xlink:title=" ">
<polygon fill="#e0e0e0" stroke="#999999" points="567,-294 493,-294 493,-275 567,-275 567,-294"/>
<text text-anchor="middle" x="530" y="-282" font-family="Helvetica,sans-Serif" font-size="10.00">openssl/ssl.h</text>
</a>
</g>
</g>
<!-- Node33&#45;&gt;Node35 -->
<g id="edge65_Node000033_Node000035" class="edge">
<title>Node33&#45;&gt;Node35</title>
<g id="a_edge65_Node000033_Node000035"><a xlink:title=" ">
<path fill="none" stroke="#63b8ff" d="M574.25,-329.75C566.53,-322.03 555.1,-310.6 545.78,-301.28"/>
<polygon fill="#63b8ff" stroke="#63b8ff" points="548.14,-298.69 538.59,-294.09 543.19,-303.64 548.14,-298.69"/>
</a>
</g>
</g>
<!-- Node36 -->
<g id="Node000036" class="node">
<title>Node36</title>
<g id="a_Node000036"><a xlink:title=" ">
<polygon fill="#e0e0e0" stroke="#999999" points="685,-294 585,-294 585,-275 685,-275 685,-294"/>
<text text-anchor="middle" x="635" y="-282" font-family="Helvetica,sans-Serif" font-size="10.00">openssl/x509_vfy.h</text>
</a>
</g>
</g>
<!-- Node33&#45;&gt;Node36 -->
<g id="edge66_Node000033_Node000036" class="edge">
<title>Node33&#45;&gt;Node36</title>
<g id="a_edge66_Node000033_Node000036"><a xlink:title=" ">
<path fill="none" stroke="#63b8ff" d="M591.59,-329.75C599.16,-322.03 610.38,-310.6 619.51,-301.28"/>
<polygon fill="#63b8ff" stroke="#63b8ff" points="622.07,-303.68 626.57,-294.09 617.07,-298.78 622.07,-303.68"/>
</a>
</g>
</g>
<!-- Node34&#45;&gt;Node6 -->
<g id="edge63_Node000034_Node000006" class="edge">
<title>Node34&#45;&gt;Node6</title>
<g id="a_edge63_Node000034_Node000006"><a xlink:title=" ">
<path fill="none" stroke="#63b8ff" d="M772.34,-274.81C740,-252.37 652.34,-189.99 587,-129 571.01,-114.07 554.5,-95.24 543.39,-81.97"/>
<polygon fill="#63b8ff" stroke="#63b8ff" points="546,-79.64 536.93,-74.16 540.61,-84.09 546,-79.64"/>
</a>
</g>
</g>
<!-- Node34&#45;&gt;Node17 -->
<g id="edge64_Node000034_Node000017" class="edge">
<title>Node34&#45;&gt;Node17</title>
<g id="a_edge64_Node000034_Node000017"><a xlink:title=" ">
<path fill="none" stroke="#63b8ff" d="M802.67,-274.98C820.29,-266.5 847.58,-253.35 867.93,-243.54"/>
<polygon fill="#63b8ff" stroke="#63b8ff" points="869.52,-246.66 877.01,-239.17 866.48,-240.36 869.52,-246.66"/>
</a>
</g>
</g>
</g>
</svg>

<g id="navigator" transform="translate(0 0)" fill="#404254">
  <rect fill="#f2f5e9" fill-opacity="0.5" stroke="#606060" stroke-width=".5" x="0" y="0" width="60" height="60"/>
  <use id="zoomplus" xlink:href="#zoomPlus" x="17" y="9" onmousedown="handleZoom(evt,'in')"/>
  <use id="zoomminus" xlink:href="#zoomMin" x="42" y="9" onmousedown="handleZoom(evt,'out')"/>
  <use id="reset" xlink:href="#resetDef" x="30" y="36" onmousedown="handleReset()"/>
   <use id="arrowup" xlink:href="#arrowUp" x="0" y="0" onmousedown="handlePan(0,-1)"/>
  <use id="arrowright" xlink:href="#arrowRight" x="0" y="0" onmousedown="handlePan(1,0)"/>
  <use id="arrowdown" xlink:href="#arrowDown" x="0" y="0" onmousedown="handlePan(0,1)"/>
  <use id="arrowleft" xlink:href="#arrowLeft" x="0" y="0" onmousedown="handlePan(-1,0)"/>
</g>
<svg viewBox="0 0 15 15" width="100%" height="30px" preserveAspectRatio="xMaxYMin meet">
 <g id="arrow_out" transform="scale(0.3 0.3)">
  <a xlink:href="http__server_8c__incl_org.svg" target="_base">
   <rect id="button" ry="5" rx="5" y="6" x="6" height="38" width="38"
        fill="#f2f5e9" fill-opacity="0.5" stroke="#606060" stroke-width="1.0"/>
   <path id="arrow"
     d="M 11.500037,31.436501 C 11.940474,20.09759 22.043105,11.32322 32.158766,21.979434 L 37.068811,17.246167 C 37.068811,17.246167 37.088388,32 37.088388,32 L 22.160133,31.978069 C 22.160133,31.978069 26.997745,27.140456 26.997745,27.140456 C 18.528582,18.264221 13.291696,25.230495 11.500037,31.436501 z"
     style="fill:#404040;"/>
  </a>
 </g>
</svg>

<style type='text/css'>
<![CDATA[
[data-mouse-over-selected='false'] { opacity: 0.7; }
[data-mouse-over-selected='true']  { opacity: 1.0; }
]]>
</style>
<script type="application/ecmascript"><![CDATA[
document.addEventListener('DOMContentLoaded', (event) => {
  highlightEdges();
  highlightAdjacentNodes();
});
]]></script>
</svg>
