<?xml version="1.0" encoding="UTF-8" standalone="no"?>
<!DOCTYPE svg PUBLIC "-//W3C//DTD SVG 1.1//EN"
 "http://www.w3.org/Graphics/SVG/1.1/DTD/svg11.dtd">
<!-- Generated by graphviz version 2.43.0 (0)
 -->
<!-- Title: http_server.c Pages: 1 -->
<!--zoomable 467 -->

<svg id="main" version="1.1" xmlns="http://www.w3.org/2000/svg" xmlns:xlink="http://www.w3.org/1999/xlink" xml:space="preserve" onload="init(evt)">
<style type="text/css"><![CDATA[
.node, .edge {opacity: 0.7;}
.node.selected, .edge.selected {opacity: 1;}
.edge:hover path { stroke: red; }
.edge:hover polygon { stroke: red; fill: red; }
]]></style>

<defs>
  <circle id="rim" cx="0" cy="0" r="7"/>
  <circle id="rim2" cx="0" cy="0" r="3.5"/>
  <g id="zoomPlus">
    <use xlink:href="#rim" fill="#404040"><set attributeName="fill" to="#808080" begin="zoomplus.mouseover" end="zoomplus.mouseout"/></use>
    <path d="M-4,0h8M0,-4v8" fill="none" stroke="white" stroke-width="1.5" pointer-events="none"/>
  </g>
  <g id="zoomMin">
    <use xlink:href="#rim" fill="#404040"><set attributeName="fill" to="#808080" begin="zoomminus.mouseover" end="zoomminus.mouseout"/></use>
    <path d="M-4,0h8" fill="none" stroke="white" stroke-width="1.5" pointer-events="none"/>
  </g>
  <g id="arrowUp" transform="translate(30 24)">
    <use xlink:href="#rim"/>
    <path pointer-events="none" fill="none" stroke="white" stroke-width="1.5" d="M0,-3.0v7 M-2.5,-0.5L0,-3.0L2.5,-0.5"/>
  </g>
  <g id="arrowRight" transform="rotate(90) translate(36 -43)">
    <use xlink:href="#rim"/>
    <path pointer-events="none" fill="none" stroke="white" stroke-width="1.5" d="M0,-3.0v7 M-2.5,-0.5L0,-3.0L2.5,-0.5"/>
  </g>
  <g id="arrowDown" transform="rotate(180) translate(-30 -48)">
    <use xlink:href="#rim"/>
    <path pointer-events="none" fill="none" stroke="white" stroke-width="1.5" d="M0,-3.0v7 M-2.5,-0.5L0,-3.0L2.5,-0.5"/>
  </g>
  <g id="arrowLeft" transform="rotate(270) translate(-36 17)">
    <use xlink:href="#rim"/>
    <path pointer-events="none" fill="none" stroke="white" stroke-width="1.5" d="M0,-3.0v7 M-2.5,-0.5L0,-3.0L2.5,-0.5"/>
  </g>
  <g id="resetDef">
    <use xlink:href="#rim2" fill="#404040"><set attributeName="fill" to="#808080" begin="reset.mouseover" end="reset.mouseout"/></use>
  </g>
</defs>
<script type="application/ecmascript">
var viewWidth = 1846;
var viewHeight = 467;
var sectionId = 'dynsection-0';
</script>
<script type="application/ecmascript" xlink:href="svg.min.js"/>
<svg id="graph" class="graph">
<g id="viewport">
<title>http_server.c</title>
<!-- Node1 -->
<g id="Node000001" class="node">
<title>Node1</title>
<g id="a_Node000001"><a xlink:title=" ">
<polygon fill="#999999" stroke="#666666" points="918.5,-459 845.5,-459 845.5,-440 918.5,-440 918.5,-459"/>
<text text-anchor="middle" x="882" y="-447" font-family="Helvetica,sans-Serif" font-size="10.00">http_server.c</text>
</a>
</g>
</g>
<!-- Node2 -->
<g id="Node000002" class="node">
<title>Node2</title>
<g id="a_Node000002"><a xlink:title=" ">
<polygon fill="#e0e0e0" stroke="#999999" points="207,-404 157,-404 157,-385 207,-385 207,-404"/>
<text text-anchor="middle" x="182" y="-392" font-family="Helvetica,sans-Serif" font-size="10.00">signal.h</text>
</a>
</g>
</g>
<!-- Node1&#45;&gt;Node2 -->
<g id="edge1_Node000001_Node000002" class="edge">
<title>Node1&#45;&gt;Node2</title>
<g id="a_edge1_Node000001_Node000002"><a xlink:title=" ">
<path fill="none" stroke="#63b8ff" d="M845.26,-447.92C744.8,-445.94 457.29,-437.52 221,-404 219.73,-403.82 218.43,-403.62 217.13,-403.41"/>
<polygon fill="#63b8ff" stroke="#63b8ff" points="217.55,-399.92 207.08,-401.53 216.27,-406.81 217.55,-399.92"/>
</a>
</g>
</g>
<!-- Node3 -->
<g id="Node000003" class="node">
<title>Node3</title>
<g id="a_Node000003"><a xlink:title=" ">
<polygon fill="#e0e0e0" stroke="#999999" points="46,-74 0,-74 0,-55 46,-55 46,-74"/>
<text text-anchor="middle" x="23" y="-62" font-family="Helvetica,sans-Serif" font-size="10.00">stdio.h</text>
</a>
</g>
</g>
<!-- Node1&#45;&gt;Node3 -->
<g id="edge2_Node000001_Node000003" class="edge">
<title>Node1&#45;&gt;Node3</title>
<g id="a_edge2_Node000001_Node000003"><a xlink:title=" ">
<path fill="none" stroke="#63b8ff" d="M845.36,-446.29C708.49,-437.56 235,-402.85 235,-340.5 235,-340.5 235,-340.5 235,-173.5 235,-133.77 115.29,-92.76 55.78,-74.84"/>
<polygon fill="#63b8ff" stroke="#63b8ff" points="56.67,-71.45 46.09,-71.96 54.68,-78.16 56.67,-71.45"/>
</a>
</g>
</g>
<!-- Node4 -->
<g id="Node000004" class="node">
<title>Node4</title>
<g id="a_Node000004"><a xlink:title=" ">
<polygon fill="#e0e0e0" stroke="#999999" points="839,-404 791,-404 791,-385 839,-385 839,-404"/>
<text text-anchor="middle" x="815" y="-392" font-family="Helvetica,sans-Serif" font-size="10.00">stdlib.h</text>
</a>
</g>
</g>
<!-- Node1&#45;&gt;Node4 -->
<g id="edge3_Node000001_Node000004" class="edge">
<title>Node1&#45;&gt;Node4</title>
<g id="a_edge3_Node000001_Node000004"><a xlink:title=" ">
<path fill="none" stroke="#63b8ff" d="M871.24,-439.98C861.23,-432.07 846.11,-420.11 834.07,-410.58"/>
<polygon fill="#63b8ff" stroke="#63b8ff" points="835.97,-407.63 825.96,-404.17 831.63,-413.12 835.97,-407.63"/>
</a>
</g>
</g>
<!-- Node5 -->
<g id="Node000005" class="node">
<title>Node5</title>
<g id="a_Node000005"><a xlink:title=" ">
<polygon fill="#e0e0e0" stroke="#999999" points="906.5,-404 857.5,-404 857.5,-385 906.5,-385 906.5,-404"/>
<text text-anchor="middle" x="882" y="-392" font-family="Helvetica,sans-Serif" font-size="10.00">string.h</text>
</a>
</g>
</g>
<!-- Node1&#45;&gt;Node5 -->
<g id="edge4_Node000001_Node000005" class="edge">
<title>Node1&#45;&gt;Node5</title>
<g id="a_edge4_Node000001_Node000005"><a xlink:title=" ">
<path fill="none" stroke="#63b8ff" d="M882,-439.75C882,-432.8 882,-422.85 882,-414.13"/>
<polygon fill="#63b8ff" stroke="#63b8ff" points="885.5,-414.09 882,-404.09 878.5,-414.09 885.5,-414.09"/>
</a>
</g>
</g>
<!-- Node6 -->
<g id="Node000006" class="node">
<title>Node6</title>
<g id="a_Node000006"><a xlink:href="Except_8h.html" target="_top" xlink:title=" ">
<polygon fill="white" stroke="#666666" points="1271.5,-74 1194.5,-74 1194.5,-55 1271.5,-55 1271.5,-74"/>
<text text-anchor="middle" x="1233" y="-62" font-family="Helvetica,sans-Serif" font-size="10.00">core/Except.h</text>
</a>
</g>
</g>
<!-- Node1&#45;&gt;Node6 -->
<g id="edge5_Node000001_Node000006" class="edge">
<title>Node1&#45;&gt;Node6</title>
<g id="a_edge5_Node000001_Node000006"><a xlink:title=" ">
<path fill="none" stroke="#63b8ff" d="M889.59,-439.96C904.25,-422.57 935,-381.23 935,-340.5 935,-340.5 935,-340.5 935,-283.5 935,-193.37 963.97,-158.4 1040,-110 1083.72,-82.17 1142.86,-71.68 1184.11,-67.77"/>
<polygon fill="#63b8ff" stroke="#63b8ff" points="1184.53,-71.24 1194.19,-66.91 1183.93,-64.27 1184.53,-71.24"/>
</a>
</g>
</g>
<!-- Node8 -->
<g id="Node000008" class="node">
<title>Node8</title>
<g id="a_Node000008"><a xlink:href="SocketHTTP_8h.html" target="_top" xlink:title=" ">
<polygon fill="white" stroke="#666666" points="1826,-184 1726,-184 1726,-165 1826,-165 1826,-184"/>
<text text-anchor="middle" x="1776" y="-172" font-family="Helvetica,sans-Serif" font-size="10.00">http/SocketHTTP.h</text>
</a>
</g>
</g>
<!-- Node1&#45;&gt;Node8 -->
<g id="edge7_Node000001_Node000008" class="edge">
<title>Node1&#45;&gt;Node8</title>
<g id="a_edge7_Node000001_Node000008"><a xlink:title=" ">
<path fill="none" stroke="#63b8ff" d="M918.61,-448.18C1091.3,-446.23 1816,-432.52 1816,-340.5 1816,-340.5 1816,-340.5 1816,-283.5 1816,-249.67 1798.53,-213.38 1786.68,-192.66"/>
<polygon fill="#63b8ff" stroke="#63b8ff" points="1789.68,-190.86 1781.56,-184.06 1783.66,-194.44 1789.68,-190.86"/>
</a>
</g>
</g>
<!-- Node14 -->
<g id="Node000014" class="node">
<title>Node14</title>
<g id="a_Node000014"><a xlink:href="SocketHTTPServer_8h.html" target="_top" xlink:title=" ">
<polygon fill="white" stroke="#666666" points="1478.5,-404 1349.5,-404 1349.5,-385 1478.5,-385 1478.5,-404"/>
<text text-anchor="middle" x="1414" y="-392" font-family="Helvetica,sans-Serif" font-size="10.00">http/SocketHTTPServer.h</text>
</a>
</g>
</g>
<!-- Node1&#45;&gt;Node14 -->
<g id="edge16_Node000001_Node000014" class="edge">
<title>Node1&#45;&gt;Node14</title>
<g id="a_edge16_Node000001_Node000014"><a xlink:title=" ">
<path fill="none" stroke="#63b8ff" d="M918.57,-444.86C1004.93,-436.25 1222.98,-414.53 1338.88,-402.98"/>
<polygon fill="#63b8ff" stroke="#63b8ff" points="1339.48,-406.44 1349.09,-401.97 1338.79,-399.48 1339.48,-406.44"/>
</a>
</g>
</g>
<!-- Node7 -->
<g id="Node000007" class="node">
<title>Node7</title>
<g id="a_Node000007"><a xlink:title=" ">
<polygon fill="#e0e0e0" stroke="#999999" points="1260,-19 1206,-19 1206,0 1260,0 1260,-19"/>
<text text-anchor="middle" x="1233" y="-7" font-family="Helvetica,sans-Serif" font-size="10.00">setjmp.h</text>
</a>
</g>
</g>
<!-- Node6&#45;&gt;Node7 -->
<g id="edge6_Node000006_Node000007" class="edge">
<title>Node6&#45;&gt;Node7</title>
<g id="a_edge6_Node000006_Node000007"><a xlink:title=" ">
<path fill="none" stroke="#63b8ff" d="M1233,-54.75C1233,-47.8 1233,-37.85 1233,-29.13"/>
<polygon fill="#63b8ff" stroke="#63b8ff" points="1236.5,-29.09 1233,-19.09 1229.5,-29.09 1236.5,-29.09"/>
</a>
</g>
</g>
<!-- Node8&#45;&gt;Node6 -->
<g id="edge15_Node000008_Node000006" class="edge">
<title>Node8&#45;&gt;Node6</title>
<g id="a_edge15_Node000008_Node000006"><a xlink:title=" ">
<path fill="none" stroke="#63b8ff" d="M1766.73,-164.64C1751.1,-150.31 1717.89,-122.42 1684,-110 1611.13,-83.3 1382.76,-71.32 1281.82,-67.24"/>
<polygon fill="#63b8ff" stroke="#63b8ff" points="1281.72,-63.73 1271.59,-66.83 1281.44,-70.72 1281.72,-63.73"/>
</a>
</g>
</g>
<!-- Node9 -->
<g id="Node000009" class="node">
<title>Node9</title>
<g id="a_Node000009"><a xlink:title=" ">
<polygon fill="#e0e0e0" stroke="#999999" points="1573,-74 1521,-74 1521,-55 1573,-55 1573,-74"/>
<text text-anchor="middle" x="1547" y="-62" font-family="Helvetica,sans-Serif" font-size="10.00">stddef.h</text>
</a>
</g>
</g>
<!-- Node8&#45;&gt;Node9 -->
<g id="edge8_Node000008_Node000009" class="edge">
<title>Node8&#45;&gt;Node9</title>
<g id="a_edge8_Node000008_Node000009"><a xlink:title=" ">
<path fill="none" stroke="#63b8ff" d="M1780.84,-165C1787.71,-151.67 1798.09,-125.76 1785,-110 1759.79,-79.64 1643.57,-69.88 1583.37,-66.83"/>
<polygon fill="#63b8ff" stroke="#63b8ff" points="1583.32,-63.32 1573.17,-66.35 1582.99,-70.32 1583.32,-63.32"/>
</a>
</g>
</g>
<!-- Node10 -->
<g id="Node000010" class="node">
<title>Node10</title>
<g id="a_Node000010"><a xlink:title=" ">
<polygon fill="#e0e0e0" stroke="#999999" points="1675.5,-129 1626.5,-129 1626.5,-110 1675.5,-110 1675.5,-129"/>
<text text-anchor="middle" x="1651" y="-117" font-family="Helvetica,sans-Serif" font-size="10.00">stdint.h</text>
</a>
</g>
</g>
<!-- Node8&#45;&gt;Node10 -->
<g id="edge9_Node000008_Node000010" class="edge">
<title>Node8&#45;&gt;Node10</title>
<g id="a_edge9_Node000008_Node000010"><a xlink:title=" ">
<path fill="none" stroke="#63b8ff" d="M1755.92,-164.98C1735.63,-156.38 1704.04,-142.99 1680.83,-133.15"/>
<polygon fill="#63b8ff" stroke="#63b8ff" points="1682.02,-129.85 1671.45,-129.17 1679.29,-136.3 1682.02,-129.85"/>
</a>
</g>
</g>
<!-- Node11 -->
<g id="Node000011" class="node">
<title>Node11</title>
<g id="a_Node000011"><a xlink:title=" ">
<polygon fill="#e0e0e0" stroke="#999999" points="1137,-129 1069,-129 1069,-110 1137,-110 1137,-129"/>
<text text-anchor="middle" x="1103" y="-117" font-family="Helvetica,sans-Serif" font-size="10.00">sys/types.h</text>
</a>
</g>
</g>
<!-- Node8&#45;&gt;Node11 -->
<g id="edge10_Node000008_Node000011" class="edge">
<title>Node8&#45;&gt;Node11</title>
<g id="a_edge10_Node000008_Node000011"><a xlink:title=" ">
<path fill="none" stroke="#63b8ff" d="M1725.9,-169.06C1710.53,-167.73 1693.57,-166.28 1678,-165 1480.1,-148.76 1243.75,-130.98 1147.28,-123.79"/>
<polygon fill="#63b8ff" stroke="#63b8ff" points="1147.27,-120.28 1137.03,-123.02 1146.75,-127.26 1147.27,-120.28"/>
</a>
</g>
</g>
<!-- Node12 -->
<g id="Node000012" class="node">
<title>Node12</title>
<g id="a_Node000012"><a xlink:title=" ">
<polygon fill="#e0e0e0" stroke="#999999" points="1776,-129 1732,-129 1732,-110 1776,-110 1776,-129"/>
<text text-anchor="middle" x="1754" y="-117" font-family="Helvetica,sans-Serif" font-size="10.00">time.h</text>
</a>
</g>
</g>
<!-- Node8&#45;&gt;Node12 -->
<g id="edge11_Node000008_Node000012" class="edge">
<title>Node8&#45;&gt;Node12</title>
<g id="a_edge11_Node000008_Node000012"><a xlink:title=" ">
<path fill="none" stroke="#63b8ff" d="M1772.37,-164.75C1769.42,-157.65 1765.17,-147.4 1761.49,-138.56"/>
<polygon fill="#63b8ff" stroke="#63b8ff" points="1764.63,-136.98 1757.57,-129.09 1758.17,-139.67 1764.63,-136.98"/>
</a>
</g>
</g>
<!-- Node13 -->
<g id="Node000013" class="node">
<title>Node13</title>
<g id="a_Node000013"><a xlink:href="Arena_8h.html" target="_top" xlink:title=" ">
<polygon fill="white" stroke="#666666" points="1532,-129 1460,-129 1460,-110 1532,-110 1532,-129"/>
<text text-anchor="middle" x="1496" y="-117" font-family="Helvetica,sans-Serif" font-size="10.00">core/Arena.h</text>
</a>
</g>
</g>
<!-- Node8&#45;&gt;Node13 -->
<g id="edge12_Node000008_Node000013" class="edge">
<title>Node8&#45;&gt;Node13</title>
<g id="a_edge12_Node000008_Node000013"><a xlink:title=" ">
<path fill="none" stroke="#63b8ff" d="M1731.01,-164.98C1679.27,-155.19 1594.75,-139.19 1542.42,-129.29"/>
<polygon fill="#63b8ff" stroke="#63b8ff" points="1542.88,-125.81 1532.4,-127.39 1541.58,-132.69 1542.88,-125.81"/>
</a>
</g>
</g>
<!-- Node13&#45;&gt;Node6 -->
<g id="edge14_Node000013_Node000006" class="edge">
<title>Node13&#45;&gt;Node6</title>
<g id="a_edge14_Node000013_Node000006"><a xlink:title=" ">
<path fill="none" stroke="#63b8ff" d="M1459.98,-111.24C1413.69,-101.91 1333.14,-85.68 1281.49,-75.27"/>
<polygon fill="#63b8ff" stroke="#63b8ff" points="1282.06,-71.82 1271.57,-73.27 1280.68,-78.68 1282.06,-71.82"/>
</a>
</g>
</g>
<!-- Node13&#45;&gt;Node9 -->
<g id="edge13_Node000013_Node000009" class="edge">
<title>Node13&#45;&gt;Node9</title>
<g id="a_edge13_Node000013_Node000009"><a xlink:title=" ">
<path fill="none" stroke="#63b8ff" d="M1504.42,-109.75C1511.77,-102.11 1522.63,-90.82 1531.54,-81.56"/>
<polygon fill="#63b8ff" stroke="#63b8ff" points="1534.32,-83.72 1538.74,-74.09 1529.28,-78.87 1534.32,-83.72"/>
</a>
</g>
</g>
<!-- Node14&#45;&gt;Node6 -->
<g id="edge21_Node000014_Node000006" class="edge">
<title>Node14&#45;&gt;Node6</title>
<g id="a_edge21_Node000014_Node000006"><a xlink:title=" ">
<path fill="none" stroke="#63b8ff" d="M1368.58,-384.96C1320.64,-373.34 1247.13,-347.51 1211,-294 1166.18,-227.62 1205.29,-124.64 1224.17,-83.43"/>
<polygon fill="#63b8ff" stroke="#63b8ff" points="1227.36,-84.89 1228.48,-74.35 1221.03,-81.89 1227.36,-84.89"/>
</a>
</g>
</g>
<!-- Node14&#45;&gt;Node8 -->
<g id="edge27_Node000014_Node000008" class="edge">
<title>Node14&#45;&gt;Node8</title>
<g id="a_edge27_Node000014_Node000008"><a xlink:title=" ">
<path fill="none" stroke="#63b8ff" d="M1478.59,-391.41C1555.29,-387.66 1677.2,-377.3 1712,-349 1760.32,-309.7 1772.16,-230.32 1775.06,-194.18"/>
<polygon fill="#63b8ff" stroke="#63b8ff" points="1778.56,-194.28 1775.72,-184.07 1771.58,-193.82 1778.56,-194.28"/>
</a>
</g>
</g>
<!-- Node14&#45;&gt;Node9 -->
<g id="edge17_Node000014_Node000009" class="edge">
<title>Node14&#45;&gt;Node9</title>
<g id="a_edge17_Node000014_Node000009"><a xlink:title=" ">
<path fill="none" stroke="#63b8ff" d="M1478.77,-391.03C1560.12,-386.82 1694.05,-375.94 1735,-349 1806.64,-301.87 1811.93,-266.59 1835,-184 1864.47,-78.51 1666.94,-65.77 1583.23,-65.05"/>
<polygon fill="#63b8ff" stroke="#63b8ff" points="1583.15,-61.55 1573.14,-65.01 1583.13,-68.55 1583.15,-61.55"/>
</a>
</g>
</g>
<!-- Node14&#45;&gt;Node10 -->
<g id="edge18_Node000014_Node000010" class="edge">
<title>Node14&#45;&gt;Node10</title>
<g id="a_edge18_Node000014_Node000010"><a xlink:title=" ">
<path fill="none" stroke="#63b8ff" d="M1478.54,-387.37C1540.09,-380.52 1627.49,-367.85 1656,-349 1684.23,-330.34 1698,-319.34 1698,-285.5 1698,-285.5 1698,-285.5 1698,-228.5 1698,-193.92 1677.49,-157.9 1663.57,-137.43"/>
<polygon fill="#63b8ff" stroke="#63b8ff" points="1666.37,-135.32 1657.73,-129.18 1660.65,-139.37 1666.37,-135.32"/>
</a>
</g>
</g>
<!-- Node14&#45;&gt;Node11 -->
<g id="edge19_Node000014_Node000011" class="edge">
<title>Node14&#45;&gt;Node11</title>
<g id="a_edge19_Node000014_Node000011"><a xlink:title=" ">
<path fill="none" stroke="#63b8ff" d="M1349.39,-389.94C1294.72,-385.23 1215.09,-374.3 1150,-349 1108.06,-332.7 1086.5,-333.53 1065,-294 1050.39,-267.14 1081.23,-177.74 1095.86,-138.85"/>
<polygon fill="#63b8ff" stroke="#63b8ff" points="1099.21,-139.9 1099.51,-129.31 1092.67,-137.4 1099.21,-139.9"/>
</a>
</g>
</g>
<!-- Node14&#45;&gt;Node13 -->
<g id="edge20_Node000014_Node000013" class="edge">
<title>Node14&#45;&gt;Node13</title>
<g id="a_edge20_Node000014_Node000013"><a xlink:title=" ">
<path fill="none" stroke="#63b8ff" d="M1446.91,-384.92C1487.25,-372.44 1553.85,-344.99 1583,-294 1587.19,-286.67 1585.14,-283.17 1583,-275 1575.4,-246 1529,-171.69 1507.24,-137.81"/>
<polygon fill="#63b8ff" stroke="#63b8ff" points="1509.95,-135.54 1501.58,-129.04 1504.07,-139.34 1509.95,-135.54"/>
</a>
</g>
</g>
<!-- Node15 -->
<g id="Node000015" class="node">
<title>Node15</title>
<g id="a_Node000015"><a xlink:href="SocketRateLimit_8h.html" target="_top" xlink:title=" ">
<polygon fill="white" stroke="#666666" points="1669.5,-184 1550.5,-184 1550.5,-165 1669.5,-165 1669.5,-184"/>
<text text-anchor="middle" x="1610" y="-172" font-family="Helvetica,sans-Serif" font-size="10.00">core/SocketRateLimit.h</text>
</a>
</g>
</g>
<!-- Node14&#45;&gt;Node15 -->
<g id="edge22_Node000014_Node000015" class="edge">
<title>Node14&#45;&gt;Node15</title>
<g id="a_edge22_Node000014_Node000015"><a xlink:title=" ">
<path fill="none" stroke="#63b8ff" d="M1478.59,-389.44C1536.87,-384.27 1616.38,-372.94 1636,-349 1673.43,-303.33 1639.26,-227.33 1620.47,-193.13"/>
<polygon fill="#63b8ff" stroke="#63b8ff" points="1623.42,-191.25 1615.43,-184.29 1617.34,-194.72 1623.42,-191.25"/>
</a>
</g>
</g>
<!-- Node16 -->
<g id="Node000016" class="node">
<title>Node16</title>
<g id="a_Node000016"><a xlink:href="SocketPoll_8h.html" target="_top" xlink:title=" ">
<polygon fill="white" stroke="#666666" points="1164,-294 1074,-294 1074,-275 1164,-275 1164,-294"/>
<text text-anchor="middle" x="1119" y="-282" font-family="Helvetica,sans-Serif" font-size="10.00">poll/SocketPoll.h</text>
</a>
</g>
</g>
<!-- Node14&#45;&gt;Node16 -->
<g id="edge28_Node000014_Node000016" class="edge">
<title>Node14&#45;&gt;Node16</title>
<g id="a_edge28_Node000014_Node000016"><a xlink:title=" ">
<path fill="none" stroke="#63b8ff" d="M1349.48,-392.15C1299.85,-388.64 1231.02,-378.26 1178,-349 1157.9,-337.91 1140.8,-317.48 1130.26,-302.79"/>
<polygon fill="#63b8ff" stroke="#63b8ff" points="1132.86,-300.39 1124.32,-294.11 1127.09,-304.34 1132.86,-300.39"/>
</a>
</g>
</g>
<!-- Node18 -->
<g id="Node000018" class="node">
<title>Node18</title>
<g id="a_Node000018"><a xlink:href="Socket_8h.html" target="_top" xlink:title=" ">
<polygon fill="white" stroke="#666666" points="1051,-239 963,-239 963,-220 1051,-220 1051,-239"/>
<text text-anchor="middle" x="1007" y="-227" font-family="Helvetica,sans-Serif" font-size="10.00">socket/Socket.h</text>
</a>
</g>
</g>
<!-- Node14&#45;&gt;Node18 -->
<g id="edge63_Node000014_Node000018" class="edge">
<title>Node14&#45;&gt;Node18</title>
<g id="a_edge63_Node000014_Node000018"><a xlink:title=" ">
<path fill="none" stroke="#63b8ff" d="M1349.5,-390.06C1246.71,-383.97 1054.97,-369.95 1032,-349 1004.26,-323.7 1003.05,-276.04 1004.86,-249.52"/>
<polygon fill="#63b8ff" stroke="#63b8ff" points="1008.38,-249.55 1005.79,-239.28 1001.4,-248.92 1008.38,-249.55"/>
</a>
</g>
</g>
<!-- Node34 -->
<g id="Node000034" class="node">
<title>Node34</title>
<g id="a_Node000034"><a xlink:href="SocketTLSContext_8h.html" target="_top" xlink:title=" ">
<polygon fill="white" stroke="#666666" points="1475,-349 1353,-349 1353,-330 1475,-330 1475,-349"/>
<text text-anchor="middle" x="1414" y="-337" font-family="Helvetica,sans-Serif" font-size="10.00">tls/SocketTLSContext.h</text>
</a>
</g>
</g>
<!-- Node14&#45;&gt;Node34 -->
<g id="edge64_Node000014_Node000034" class="edge">
<title>Node14&#45;&gt;Node34</title>
<g id="a_edge64_Node000014_Node000034"><a xlink:title=" ">
<path fill="none" stroke="#63b8ff" d="M1414,-384.75C1414,-377.8 1414,-367.85 1414,-359.13"/>
<polygon fill="#63b8ff" stroke="#63b8ff" points="1417.5,-359.09 1414,-349.09 1410.5,-359.09 1417.5,-359.09"/>
</a>
</g>
</g>
<!-- Node15&#45;&gt;Node6 -->
<g id="edge24_Node000015_Node000006" class="edge">
<title>Node15&#45;&gt;Node6</title>
<g id="a_edge24_Node000015_Node000006"><a xlink:title=" ">
<path fill="none" stroke="#63b8ff" d="M1603.48,-164.77C1592.38,-150.63 1568.35,-123 1541,-110 1496.09,-88.65 1356.5,-75 1281.62,-69.01"/>
<polygon fill="#63b8ff" stroke="#63b8ff" points="1281.74,-65.51 1271.5,-68.21 1281.2,-72.49 1281.74,-65.51"/>
</a>
</g>
</g>
<!-- Node15&#45;&gt;Node9 -->
<g id="edge25_Node000015_Node000009" class="edge">
<title>Node15&#45;&gt;Node9</title>
<g id="a_edge25_Node000015_Node000009"><a xlink:title=" ">
<path fill="none" stroke="#63b8ff" d="M1605.19,-164.83C1598.36,-152.56 1585.41,-129.46 1574,-110 1568.74,-101.04 1562.76,-91.15 1557.76,-82.97"/>
<polygon fill="#63b8ff" stroke="#63b8ff" points="1560.67,-81.01 1552.46,-74.32 1554.7,-84.67 1560.67,-81.01"/>
</a>
</g>
</g>
<!-- Node15&#45;&gt;Node10 -->
<g id="edge26_Node000015_Node000010" class="edge">
<title>Node15&#45;&gt;Node10</title>
<g id="a_edge26_Node000015_Node000010"><a xlink:title=" ">
<path fill="none" stroke="#63b8ff" d="M1616.77,-164.75C1622.56,-157.26 1631.06,-146.28 1638.14,-137.13"/>
<polygon fill="#63b8ff" stroke="#63b8ff" points="1641.01,-139.14 1644.36,-129.09 1635.47,-134.86 1641.01,-139.14"/>
</a>
</g>
</g>
<!-- Node15&#45;&gt;Node13 -->
<g id="edge23_Node000015_Node000013" class="edge">
<title>Node15&#45;&gt;Node13</title>
<g id="a_edge23_Node000015_Node000013"><a xlink:title=" ">
<path fill="none" stroke="#63b8ff" d="M1591.68,-164.98C1573.34,-156.46 1544.89,-143.23 1523.77,-133.41"/>
<polygon fill="#63b8ff" stroke="#63b8ff" points="1525.19,-130.21 1514.65,-129.17 1522.24,-136.56 1525.19,-130.21"/>
</a>
</g>
</g>
<!-- Node16&#45;&gt;Node6 -->
<g id="edge29_Node000016_Node000006" class="edge">
<title>Node16&#45;&gt;Node6</title>
<g id="a_edge29_Node000016_Node000006"><a xlink:title=" ">
<path fill="none" stroke="#63b8ff" d="M1121.14,-274.98C1127.99,-248.76 1151.17,-167.54 1189,-110 1196.13,-99.16 1206.18,-88.75 1214.88,-80.72"/>
<polygon fill="#63b8ff" stroke="#63b8ff" points="1217.21,-83.34 1222.37,-74.08 1212.56,-78.1 1217.21,-83.34"/>
</a>
</g>
</g>
<!-- Node17 -->
<g id="Node000017" class="node">
<title>Node17</title>
<g id="a_Node000017"><a xlink:href="SocketTimer_8h.html" target="_top" xlink:title=" ">
<polygon fill="white" stroke="#666666" points="1313.5,-184 1212.5,-184 1212.5,-165 1313.5,-165 1313.5,-184"/>
<text text-anchor="middle" x="1263" y="-172" font-family="Helvetica,sans-Serif" font-size="10.00">core/SocketTimer.h</text>
</a>
</g>
</g>
<!-- Node16&#45;&gt;Node17 -->
<g id="edge30_Node000016_Node000017" class="edge">
<title>Node16&#45;&gt;Node17</title>
<g id="a_edge30_Node000016_Node000017"><a xlink:title=" ">
<path fill="none" stroke="#63b8ff" d="M1130.78,-274.66C1155.48,-256.14 1212.9,-213.08 1243.3,-190.28"/>
<polygon fill="#63b8ff" stroke="#63b8ff" points="1245.56,-192.96 1251.46,-184.16 1241.36,-187.36 1245.56,-192.96"/>
</a>
</g>
</g>
<!-- Node16&#45;&gt;Node18 -->
<g id="edge33_Node000016_Node000018" class="edge">
<title>Node16&#45;&gt;Node18</title>
<g id="a_edge33_Node000016_Node000018"><a xlink:title=" ">
<path fill="none" stroke="#63b8ff" d="M1101.01,-274.98C1083.07,-266.5 1055.28,-253.35 1034.57,-243.54"/>
<polygon fill="#63b8ff" stroke="#63b8ff" points="1035.86,-240.28 1025.32,-239.17 1032.86,-246.61 1035.86,-240.28"/>
</a>
</g>
</g>
<!-- Node17&#45;&gt;Node6 -->
<g id="edge31_Node000017_Node000006" class="edge">
<title>Node17&#45;&gt;Node6</title>
<g id="a_edge31_Node000017_Node000006"><a xlink:title=" ">
<path fill="none" stroke="#63b8ff" d="M1260.54,-164.66C1255.66,-147.09 1244.65,-107.45 1238.13,-83.95"/>
<polygon fill="#63b8ff" stroke="#63b8ff" points="1241.45,-82.86 1235.41,-74.16 1234.71,-84.73 1241.45,-82.86"/>
</a>
</g>
</g>
<!-- Node17&#45;&gt;Node10 -->
<g id="edge32_Node000017_Node000010" class="edge">
<title>Node17&#45;&gt;Node10</title>
<g id="a_edge32_Node000017_Node000010"><a xlink:title=" ">
<path fill="none" stroke="#63b8ff" d="M1313.72,-166.57C1393.67,-155.65 1546.95,-134.71 1615.89,-125.3"/>
<polygon fill="#63b8ff" stroke="#63b8ff" points="1616.77,-128.71 1626.2,-123.89 1615.82,-121.77 1616.77,-128.71"/>
</a>
</g>
</g>
<!-- Node18&#45;&gt;Node6 -->
<g id="edge34_Node000018_Node000006" class="edge">
<title>Node18&#45;&gt;Node6</title>
<g id="a_edge34_Node000018_Node000006"><a xlink:title=" ">
<path fill="none" stroke="#63b8ff" d="M1008.27,-219.81C1011.95,-197.86 1024.69,-139.8 1060,-110 1094.66,-80.75 1146.18,-70.39 1183.99,-66.89"/>
<polygon fill="#63b8ff" stroke="#63b8ff" points="1184.57,-70.36 1194.26,-66.08 1184.01,-63.38 1184.57,-70.36"/>
</a>
</g>
</g>
<!-- Node19 -->
<g id="Node000019" class="node">
<title>Node19</title>
<g id="a_Node000019"><a xlink:href="SocketConfig_8h.html" target="_top" xlink:title=" ">
<polygon fill="white" stroke="#666666" points="369,-129 263,-129 263,-110 369,-110 369,-129"/>
<text text-anchor="middle" x="316" y="-117" font-family="Helvetica,sans-Serif" font-size="10.00">core/SocketConfig.h</text>
</a>
</g>
</g>
<!-- Node18&#45;&gt;Node19 -->
<g id="edge35_Node000018_Node000019" class="edge">
<title>Node18&#45;&gt;Node19</title>
<g id="a_edge35_Node000018_Node000019"><a xlink:title=" ">
<path fill="none" stroke="#63b8ff" d="M962.91,-224.18C894.01,-217.18 756.7,-202.31 641,-184 542.57,-168.42 428.42,-144.82 364.97,-131.21"/>
<polygon fill="#63b8ff" stroke="#63b8ff" points="365.37,-127.72 354.86,-129.03 363.9,-134.56 365.37,-127.72"/>
</a>
</g>
</g>
<!-- Node27 -->
<g id="Node000027" class="node">
<title>Node27</title>
<g id="a_Node000027"><a xlink:href="SocketDNS_8h.html" target="_top" xlink:title=" ">
<polygon fill="white" stroke="#666666" points="635,-129 539,-129 539,-110 635,-110 635,-129"/>
<text text-anchor="middle" x="587" y="-117" font-family="Helvetica,sans-Serif" font-size="10.00">dns/SocketDNS.h</text>
</a>
</g>
</g>
<!-- Node18&#45;&gt;Node27 -->
<g id="edge45_Node000018_Node000027" class="edge">
<title>Node18&#45;&gt;Node27</title>
<g id="a_edge45_Node000018_Node000027"><a xlink:title=" ">
<path fill="none" stroke="#63b8ff" d="M962.83,-228.85C898.48,-227.96 776.12,-220.97 680,-184 650.83,-172.78 621.83,-150.82 604.16,-135.9"/>
<polygon fill="#63b8ff" stroke="#63b8ff" points="606.3,-133.12 596.44,-129.22 601.71,-138.41 606.3,-133.12"/>
</a>
</g>
</g>
<!-- Node29 -->
<g id="Node000029" class="node">
<title>Node29</title>
<g id="a_Node000029"><a xlink:href="SocketCommon_8h.html" target="_top" xlink:title=" ">
<polygon fill="white" stroke="#666666" points="817,-184 689,-184 689,-165 817,-165 817,-184"/>
<text text-anchor="middle" x="753" y="-172" font-family="Helvetica,sans-Serif" font-size="10.00">socket/SocketCommon.h</text>
</a>
</g>
</g>
<!-- Node18&#45;&gt;Node29 -->
<g id="edge50_Node000018_Node000029" class="edge">
<title>Node18&#45;&gt;Node29</title>
<g id="a_edge50_Node000018_Node000029"><a xlink:title=" ">
<path fill="none" stroke="#63b8ff" d="M966.19,-219.98C922.07,-210.78 851.67,-196.09 803.95,-186.13"/>
<polygon fill="#63b8ff" stroke="#63b8ff" points="804.63,-182.7 794.13,-184.08 803.2,-189.55 804.63,-182.7"/>
</a>
</g>
</g>
<!-- Node19&#45;&gt;Node3 -->
<g id="edge41_Node000019_Node000003" class="edge">
<title>Node19&#45;&gt;Node3</title>
<g id="a_edge41_Node000019_Node000003"><a xlink:title=" ">
<path fill="none" stroke="#63b8ff" d="M262.74,-110.87C211.97,-103.27 133.2,-90.63 55.92,-74.03"/>
<polygon fill="#63b8ff" stroke="#63b8ff" points="56.53,-70.58 46.01,-71.88 55.04,-77.42 56.53,-70.58"/>
</a>
</g>
</g>
<!-- Node19&#45;&gt;Node9 -->
<g id="edge40_Node000019_Node000009" class="edge">
<title>Node19&#45;&gt;Node9</title>
<g id="a_edge40_Node000019_Node000009"><a xlink:title=" ">
<path fill="none" stroke="#63b8ff" d="M369.29,-116.21C577.77,-107.23 1335.27,-74.62 1510.6,-67.07"/>
<polygon fill="#63b8ff" stroke="#63b8ff" points="1510.76,-70.56 1520.6,-66.64 1510.46,-63.57 1510.76,-70.56"/>
</a>
</g>
</g>
<!-- Node20 -->
<g id="Node000020" class="node">
<title>Node20</title>
<g id="a_Node000020"><a xlink:title=" ">
<polygon fill="#e0e0e0" stroke="#999999" points="180.5,-74 133.5,-74 133.5,-55 180.5,-55 180.5,-74"/>
<text text-anchor="middle" x="157" y="-62" font-family="Helvetica,sans-Serif" font-size="10.00">errno.h</text>
</a>
</g>
</g>
<!-- Node19&#45;&gt;Node20 -->
<g id="edge36_Node000019_Node000020" class="edge">
<title>Node19&#45;&gt;Node20</title>
<g id="a_edge36_Node000019_Node000020"><a xlink:title=" ">
<path fill="none" stroke="#63b8ff" d="M290.45,-109.98C263.24,-100.91 220.07,-86.52 190.23,-76.58"/>
<polygon fill="#63b8ff" stroke="#63b8ff" points="191.26,-73.23 180.67,-73.39 189.05,-79.87 191.26,-73.23"/>
</a>
</g>
</g>
<!-- Node21 -->
<g id="Node000021" class="node">
<title>Node21</title>
<g id="a_Node000021"><a xlink:title=" ">
<polygon fill="#e0e0e0" stroke="#999999" points="406,-74 362,-74 362,-55 406,-55 406,-74"/>
<text text-anchor="middle" x="384" y="-62" font-family="Helvetica,sans-Serif" font-size="10.00">fcntl.h</text>
</a>
</g>
</g>
<!-- Node19&#45;&gt;Node21 -->
<g id="edge37_Node000019_Node000021" class="edge">
<title>Node19&#45;&gt;Node21</title>
<g id="a_edge37_Node000019_Node000021"><a xlink:title=" ">
<path fill="none" stroke="#63b8ff" d="M326.93,-109.98C337.08,-102.07 352.42,-90.11 364.65,-80.58"/>
<polygon fill="#63b8ff" stroke="#63b8ff" points="367.14,-83.08 372.88,-74.17 362.84,-77.56 367.14,-83.08"/>
</a>
</g>
</g>
<!-- Node22 -->
<g id="Node000022" class="node">
<title>Node22</title>
<g id="a_Node000022"><a xlink:title=" ">
<polygon fill="#e0e0e0" stroke="#999999" points="489.5,-74 424.5,-74 424.5,-55 489.5,-55 489.5,-74"/>
<text text-anchor="middle" x="457" y="-62" font-family="Helvetica,sans-Serif" font-size="10.00">netinet/in.h</text>
</a>
</g>
</g>
<!-- Node19&#45;&gt;Node22 -->
<g id="edge38_Node000019_Node000022" class="edge">
<title>Node19&#45;&gt;Node22</title>
<g id="a_edge38_Node000019_Node000022"><a xlink:title=" ">
<path fill="none" stroke="#63b8ff" d="M338.65,-109.98C361.85,-101.27 398.12,-87.63 424.4,-77.75"/>
<polygon fill="#63b8ff" stroke="#63b8ff" points="425.8,-80.97 433.93,-74.17 423.34,-74.41 425.8,-80.97"/>
</a>
</g>
</g>
<!-- Node23 -->
<g id="Node000023" class="node">
<title>Node23</title>
<g id="a_Node000023"><a xlink:title=" ">
<polygon fill="#e0e0e0" stroke="#999999" points="269.5,-74 198.5,-74 198.5,-55 269.5,-55 269.5,-74"/>
<text text-anchor="middle" x="234" y="-62" font-family="Helvetica,sans-Serif" font-size="10.00">netinet/tcp.h</text>
</a>
</g>
</g>
<!-- Node19&#45;&gt;Node23 -->
<g id="edge39_Node000019_Node000023" class="edge">
<title>Node19&#45;&gt;Node23</title>
<g id="a_edge39_Node000019_Node000023"><a xlink:title=" ">
<path fill="none" stroke="#63b8ff" d="M302.83,-109.98C290.23,-101.84 271,-89.41 256.06,-79.76"/>
<polygon fill="#63b8ff" stroke="#63b8ff" points="257.71,-76.66 247.41,-74.17 253.91,-82.54 257.71,-76.66"/>
</a>
</g>
</g>
<!-- Node24 -->
<g id="Node000024" class="node">
<title>Node24</title>
<g id="a_Node000024"><a xlink:title=" ">
<polygon fill="#e0e0e0" stroke="#999999" points="580.5,-74 507.5,-74 507.5,-55 580.5,-55 580.5,-74"/>
<text text-anchor="middle" x="544" y="-62" font-family="Helvetica,sans-Serif" font-size="10.00">sys/socket.h</text>
</a>
</g>
</g>
<!-- Node19&#45;&gt;Node24 -->
<g id="edge42_Node000019_Node000024" class="edge">
<title>Node19&#45;&gt;Node24</title>
<g id="a_edge42_Node000019_Node000024"><a xlink:title=" ">
<path fill="none" stroke="#63b8ff" d="M352.63,-109.98C392.02,-100.83 454.74,-86.25 497.57,-76.29"/>
<polygon fill="#63b8ff" stroke="#63b8ff" points="498.51,-79.67 507.46,-73.99 496.93,-72.85 498.51,-79.67"/>
</a>
</g>
</g>
<!-- Node25 -->
<g id="Node000025" class="node">
<title>Node25</title>
<g id="a_Node000025"><a xlink:title=" ">
<polygon fill="#e0e0e0" stroke="#999999" points="344,-74 288,-74 288,-55 344,-55 344,-74"/>
<text text-anchor="middle" x="316" y="-62" font-family="Helvetica,sans-Serif" font-size="10.00">sys/uio.h</text>
</a>
</g>
</g>
<!-- Node19&#45;&gt;Node25 -->
<g id="edge43_Node000019_Node000025" class="edge">
<title>Node19&#45;&gt;Node25</title>
<g id="a_edge43_Node000019_Node000025"><a xlink:title=" ">
<path fill="none" stroke="#63b8ff" d="M316,-109.75C316,-102.8 316,-92.85 316,-84.13"/>
<polygon fill="#63b8ff" stroke="#63b8ff" points="319.5,-84.09 316,-74.09 312.5,-84.09 319.5,-84.09"/>
</a>
</g>
</g>
<!-- Node26 -->
<g id="Node000026" class="node">
<title>Node26</title>
<g id="a_Node000026"><a xlink:title=" ">
<polygon fill="#e0e0e0" stroke="#999999" points="115.5,-74 64.5,-74 64.5,-55 115.5,-55 115.5,-74"/>
<text text-anchor="middle" x="90" y="-62" font-family="Helvetica,sans-Serif" font-size="10.00">unistd.h</text>
</a>
</g>
</g>
<!-- Node19&#45;&gt;Node26 -->
<g id="edge44_Node000019_Node000026" class="edge">
<title>Node19&#45;&gt;Node26</title>
<g id="a_edge44_Node000019_Node000026"><a xlink:title=" ">
<path fill="none" stroke="#63b8ff" d="M278.43,-109.99C241.73,-101.64 184.05,-88.39 125.41,-74.31"/>
<polygon fill="#63b8ff" stroke="#63b8ff" points="126.15,-70.89 115.61,-71.95 124.51,-77.7 126.15,-70.89"/>
</a>
</g>
</g>
<!-- Node27&#45;&gt;Node6 -->
<g id="edge46_Node000027_Node000006" class="edge">
<title>Node27&#45;&gt;Node6</title>
<g id="a_edge46_Node000027_Node000006"><a xlink:title=" ">
<path fill="none" stroke="#63b8ff" d="M635.17,-111.07C638.15,-110.68 641.12,-110.32 644,-110 843.8,-87.58 1083.04,-73.4 1184.11,-67.99"/>
<polygon fill="#63b8ff" stroke="#63b8ff" points="1184.52,-71.47 1194.32,-67.45 1184.15,-64.48 1184.52,-71.47"/>
</a>
</g>
</g>
<!-- Node27&#45;&gt;Node9 -->
<g id="edge48_Node000027_Node000009" class="edge">
<title>Node27&#45;&gt;Node9</title>
<g id="a_edge48_Node000027_Node000009"><a xlink:title=" ">
<path fill="none" stroke="#63b8ff" d="M635.16,-110.98C638.15,-110.62 641.11,-110.29 644,-110 816.58,-92.92 1364.01,-72.17 1510.6,-66.81"/>
<polygon fill="#63b8ff" stroke="#63b8ff" points="1510.97,-70.3 1520.84,-66.44 1510.72,-63.31 1510.97,-70.3"/>
</a>
</g>
</g>
<!-- Node27&#45;&gt;Node24 -->
<g id="edge49_Node000027_Node000024" class="edge">
<title>Node27&#45;&gt;Node24</title>
<g id="a_edge49_Node000027_Node000024"><a xlink:title=" ">
<path fill="none" stroke="#63b8ff" d="M579.9,-109.75C573.83,-102.26 564.91,-91.28 557.49,-82.13"/>
<polygon fill="#63b8ff" stroke="#63b8ff" points="559.99,-79.65 550.97,-74.09 554.55,-84.06 559.99,-79.65"/>
</a>
</g>
</g>
<!-- Node28 -->
<g id="Node000028" class="node">
<title>Node28</title>
<g id="a_Node000028"><a xlink:title=" ">
<polygon fill="#e0e0e0" stroke="#999999" points="647.5,-74 598.5,-74 598.5,-55 647.5,-55 647.5,-74"/>
<text text-anchor="middle" x="623" y="-62" font-family="Helvetica,sans-Serif" font-size="10.00">netdb.h</text>
</a>
</g>
</g>
<!-- Node27&#45;&gt;Node28 -->
<g id="edge47_Node000027_Node000028" class="edge">
<title>Node27&#45;&gt;Node28</title>
<g id="a_edge47_Node000027_Node000028"><a xlink:title=" ">
<path fill="none" stroke="#63b8ff" d="M592.94,-109.75C597.98,-102.34 605.34,-91.5 611.51,-82.41"/>
<polygon fill="#63b8ff" stroke="#63b8ff" points="614.44,-84.33 617.17,-74.09 608.65,-80.39 614.44,-84.33"/>
</a>
</g>
</g>
<!-- Node29&#45;&gt;Node6 -->
<g id="edge61_Node000029_Node000006" class="edge">
<title>Node29&#45;&gt;Node6</title>
<g id="a_edge61_Node000029_Node000006"><a xlink:title=" ">
<path fill="none" stroke="#63b8ff" d="M801.69,-164.93C841.14,-157.35 897.88,-145.02 946,-129 965.82,-122.4 969.03,-116.14 989,-110 1055.09,-89.68 1134.27,-77.35 1184.12,-70.97"/>
<polygon fill="#63b8ff" stroke="#63b8ff" points="1184.81,-74.41 1194.29,-69.7 1183.94,-67.47 1184.81,-74.41"/>
</a>
</g>
</g>
<!-- Node29&#45;&gt;Node11 -->
<g id="edge58_Node000029_Node000011" class="edge">
<title>Node29&#45;&gt;Node11</title>
<g id="a_edge58_Node000029_Node000011"><a xlink:title=" ">
<path fill="none" stroke="#63b8ff" d="M809.23,-164.98C878.61,-154.48 995.13,-136.83 1058.57,-127.23"/>
<polygon fill="#63b8ff" stroke="#63b8ff" points="1059.29,-130.66 1068.66,-125.7 1058.24,-123.74 1059.29,-130.66"/>
</a>
</g>
</g>
<!-- Node29&#45;&gt;Node13 -->
<g id="edge60_Node000029_Node000013" class="edge">
<title>Node29&#45;&gt;Node13</title>
<g id="a_edge60_Node000029_Node000013"><a xlink:title=" ">
<path fill="none" stroke="#63b8ff" d="M817.31,-168.91C964.24,-158.43 1321.69,-132.93 1449.56,-123.81"/>
<polygon fill="#63b8ff" stroke="#63b8ff" points="1450.06,-127.29 1459.79,-123.08 1449.56,-120.3 1450.06,-127.29"/>
</a>
</g>
</g>
<!-- Node29&#45;&gt;Node19 -->
<g id="edge62_Node000029_Node000019" class="edge">
<title>Node29&#45;&gt;Node19</title>
<g id="a_edge62_Node000029_Node000019"><a xlink:title=" ">
<path fill="none" stroke="#63b8ff" d="M688.82,-165.91C615.01,-157.15 490.23,-142.25 383,-129 381.72,-128.84 380.43,-128.68 379.13,-128.52"/>
<polygon fill="#63b8ff" stroke="#63b8ff" points="379.38,-125.03 369.03,-127.26 378.52,-131.97 379.38,-125.03"/>
</a>
</g>
</g>
<!-- Node29&#45;&gt;Node21 -->
<g id="edge53_Node000029_Node000021" class="edge">
<title>Node29&#45;&gt;Node21</title>
<g id="a_edge53_Node000029_Node000021"><a xlink:title=" ">
<path fill="none" stroke="#63b8ff" d="M688.87,-169.86C633.62,-165.08 552.5,-154.1 486,-129 454.52,-117.12 422.22,-95 402.63,-80.26"/>
<polygon fill="#63b8ff" stroke="#63b8ff" points="404.63,-77.39 394.57,-74.07 400.37,-82.94 404.63,-77.39"/>
</a>
</g>
</g>
<!-- Node29&#45;&gt;Node22 -->
<g id="edge55_Node000029_Node000022" class="edge">
<title>Node29&#45;&gt;Node22</title>
<g id="a_edge55_Node000029_Node000022"><a xlink:title=" ">
<path fill="none" stroke="#63b8ff" d="M689,-172.88C638.28,-169.83 567.19,-159.72 513,-129 493.49,-117.94 477.34,-97.51 467.48,-82.8"/>
<polygon fill="#63b8ff" stroke="#63b8ff" points="470.27,-80.67 461.94,-74.12 464.37,-84.43 470.27,-80.67"/>
</a>
</g>
</g>
<!-- Node29&#45;&gt;Node24 -->
<g id="edge56_Node000029_Node000024" class="edge">
<title>Node29&#45;&gt;Node24</title>
<g id="a_edge56_Node000029_Node000024"><a xlink:title=" ">
<path fill="none" stroke="#63b8ff" d="M688.98,-170.13C627.83,-165.42 541.97,-154.37 521,-129 509.85,-115.51 519.53,-96.15 529.53,-82.37"/>
<polygon fill="#63b8ff" stroke="#63b8ff" points="532.5,-84.25 535.94,-74.23 527,-79.92 532.5,-84.25"/>
</a>
</g>
</g>
<!-- Node29&#45;&gt;Node28 -->
<g id="edge54_Node000029_Node000028" class="edge">
<title>Node29&#45;&gt;Node28</title>
<g id="a_edge54_Node000029_Node000028"><a xlink:title=" ">
<path fill="none" stroke="#63b8ff" d="M688.95,-169.56C630.34,-164.45 549.81,-153.15 530,-129 509.52,-104.03 554.2,-84.84 588.47,-74.38"/>
<polygon fill="#63b8ff" stroke="#63b8ff" points="589.61,-77.69 598.24,-71.53 587.66,-70.96 589.61,-77.69"/>
</a>
</g>
</g>
<!-- Node30 -->
<g id="Node000030" class="node">
<title>Node30</title>
<g id="a_Node000030"><a xlink:title=" ">
<polygon fill="#e0e0e0" stroke="#999999" points="781,-129 725,-129 725,-110 781,-110 781,-129"/>
<text text-anchor="middle" x="753" y="-117" font-family="Helvetica,sans-Serif" font-size="10.00">stdbool.h</text>
</a>
</g>
</g>
<!-- Node29&#45;&gt;Node30 -->
<g id="edge51_Node000029_Node000030" class="edge">
<title>Node29&#45;&gt;Node30</title>
<g id="a_edge51_Node000029_Node000030"><a xlink:title=" ">
<path fill="none" stroke="#63b8ff" d="M753,-164.75C753,-157.8 753,-147.85 753,-139.13"/>
<polygon fill="#63b8ff" stroke="#63b8ff" points="756.5,-139.09 753,-129.09 749.5,-139.09 756.5,-139.09"/>
</a>
</g>
</g>
<!-- Node31 -->
<g id="Node000031" class="node">
<title>Node31</title>
<g id="a_Node000031"><a xlink:title=" ">
<polygon fill="#e0e0e0" stroke="#999999" points="856.5,-129 799.5,-129 799.5,-110 856.5,-110 856.5,-129"/>
<text text-anchor="middle" x="828" y="-117" font-family="Helvetica,sans-Serif" font-size="10.00">pthread.h</text>
</a>
</g>
</g>
<!-- Node29&#45;&gt;Node31 -->
<g id="edge52_Node000029_Node000031" class="edge">
<title>Node29&#45;&gt;Node31</title>
<g id="a_edge52_Node000029_Node000031"><a xlink:title=" ">
<path fill="none" stroke="#63b8ff" d="M765.05,-164.98C776.46,-156.92 793.83,-144.65 807.43,-135.03"/>
<polygon fill="#63b8ff" stroke="#63b8ff" points="809.58,-137.8 815.73,-129.17 805.54,-132.08 809.58,-137.8"/>
</a>
</g>
</g>
<!-- Node32 -->
<g id="Node000032" class="node">
<title>Node32</title>
<g id="a_Node000032"><a xlink:title=" ">
<polygon fill="#e0e0e0" stroke="#999999" points="937,-129 875,-129 875,-110 937,-110 937,-129"/>
<text text-anchor="middle" x="906" y="-117" font-family="Helvetica,sans-Serif" font-size="10.00">sys/time.h</text>
</a>
</g>
</g>
<!-- Node29&#45;&gt;Node32 -->
<g id="edge57_Node000029_Node000032" class="edge">
<title>Node29&#45;&gt;Node32</title>
<g id="a_edge57_Node000029_Node000032"><a xlink:title=" ">
<path fill="none" stroke="#63b8ff" d="M777.58,-164.98C803.05,-156.16 843.04,-142.31 871.63,-132.41"/>
<polygon fill="#63b8ff" stroke="#63b8ff" points="872.92,-135.66 881.23,-129.08 870.63,-129.05 872.92,-135.66"/>
</a>
</g>
</g>
<!-- Node33 -->
<g id="Node000033" class="node">
<title>Node33</title>
<g id="a_Node000033"><a xlink:title=" ">
<polygon fill="#e0e0e0" stroke="#999999" points="707,-129 653,-129 653,-110 707,-110 707,-129"/>
<text text-anchor="middle" x="680" y="-117" font-family="Helvetica,sans-Serif" font-size="10.00">sys/un.h</text>
</a>
</g>
</g>
<!-- Node29&#45;&gt;Node33 -->
<g id="edge59_Node000029_Node000033" class="edge">
<title>Node29&#45;&gt;Node33</title>
<g id="a_edge59_Node000029_Node000033"><a xlink:title=" ">
<path fill="none" stroke="#63b8ff" d="M741.27,-164.98C730.27,-157 713.58,-144.88 700.4,-135.31"/>
<polygon fill="#63b8ff" stroke="#63b8ff" points="702.09,-132.21 691.94,-129.17 697.98,-137.88 702.09,-132.21"/>
</a>
</g>
</g>
<!-- Node34&#45;&gt;Node6 -->
<g id="edge66_Node000034_Node000006" class="edge">
<title>Node34&#45;&gt;Node6</title>
<g id="a_edge66_Node000034_Node000006"><a xlink:title=" ">
<path fill="none" stroke="#63b8ff" d="M1395.91,-329.88C1382.3,-322.38 1364.43,-310.18 1355,-294 1325.87,-244.04 1355.93,-219.98 1338,-165 1329.37,-138.53 1327.33,-130.04 1308,-110 1295.33,-96.86 1277.95,-86.22 1263.12,-78.65"/>
<polygon fill="#63b8ff" stroke="#63b8ff" points="1264.33,-75.35 1253.81,-74.12 1261.27,-81.64 1264.33,-75.35"/>
</a>
</g>
</g>
<!-- Node34&#45;&gt;Node13 -->
<g id="edge65_Node000034_Node000013" class="edge">
<title>Node34&#45;&gt;Node13</title>
<g id="a_edge65_Node000034_Node000013"><a xlink:title=" ">
<path fill="none" stroke="#63b8ff" d="M1475.32,-337.06C1507.48,-332.79 1544.38,-321.58 1565,-294 1587.28,-264.21 1553.43,-300.02 1508,-184 1502.37,-169.62 1499.32,-152.34 1497.71,-139.44"/>
<polygon fill="#63b8ff" stroke="#63b8ff" points="1501.18,-138.98 1496.64,-129.41 1494.22,-139.73 1501.18,-138.98"/>
</a>
</g>
</g>
<!-- Node35 -->
<g id="Node000035" class="node">
<title>Node35</title>
<g id="a_Node000035"><a xlink:href="SocketTLS_8h.html" target="_top" xlink:title=" ">
<polygon fill="white" stroke="#666666" points="1307.5,-294 1220.5,-294 1220.5,-275 1307.5,-275 1307.5,-294"/>
<text text-anchor="middle" x="1264" y="-282" font-family="Helvetica,sans-Serif" font-size="10.00">tls/SocketTLS.h</text>
</a>
</g>
</g>
<!-- Node34&#45;&gt;Node35 -->
<g id="edge67_Node000034_Node000035" class="edge">
<title>Node34&#45;&gt;Node35</title>
<g id="a_edge67_Node000034_Node000035"><a xlink:title=" ">
<path fill="none" stroke="#63b8ff" d="M1389.9,-329.98C1365.12,-321.23 1326.3,-307.51 1298.31,-297.62"/>
<polygon fill="#63b8ff" stroke="#63b8ff" points="1299.13,-294.2 1288.54,-294.17 1296.8,-300.8 1299.13,-294.2"/>
</a>
</g>
</g>
<!-- Node36 -->
<g id="Node000036" class="node">
<title>Node36</title>
<g id="a_Node000036"><a xlink:title=" ">
<polygon fill="#e0e0e0" stroke="#999999" points="1556,-294 1482,-294 1482,-275 1556,-275 1556,-294"/>
<text text-anchor="middle" x="1519" y="-282" font-family="Helvetica,sans-Serif" font-size="10.00">openssl/ssl.h</text>
</a>
</g>
</g>
<!-- Node34&#45;&gt;Node36 -->
<g id="edge70_Node000034_Node000036" class="edge">
<title>Node34&#45;&gt;Node36</title>
<g id="a_edge70_Node000034_Node000036"><a xlink:title=" ">
<path fill="none" stroke="#63b8ff" d="M1430.87,-329.98C1447.61,-321.54 1473.5,-308.47 1492.89,-298.68"/>
<polygon fill="#63b8ff" stroke="#63b8ff" points="1494.47,-301.8 1501.82,-294.17 1491.32,-295.55 1494.47,-301.8"/>
</a>
</g>
</g>
<!-- Node37 -->
<g id="Node000037" class="node">
<title>Node37</title>
<g id="a_Node000037"><a xlink:title=" ">
<polygon fill="#e0e0e0" stroke="#999999" points="1464,-294 1364,-294 1364,-275 1464,-275 1464,-294"/>
<text text-anchor="middle" x="1414" y="-282" font-family="Helvetica,sans-Serif" font-size="10.00">openssl/x509_vfy.h</text>
</a>
</g>
</g>
<!-- Node34&#45;&gt;Node37 -->
<g id="edge71_Node000034_Node000037" class="edge">
<title>Node34&#45;&gt;Node37</title>
<g id="a_edge71_Node000034_Node000037"><a xlink:title=" ">
<path fill="none" stroke="#63b8ff" d="M1414,-329.75C1414,-322.8 1414,-312.85 1414,-304.13"/>
<polygon fill="#63b8ff" stroke="#63b8ff" points="1417.5,-304.09 1414,-294.09 1410.5,-304.09 1417.5,-304.09"/>
</a>
</g>
</g>
<!-- Node35&#45;&gt;Node6 -->
<g id="edge68_Node000035_Node000006" class="edge">
<title>Node35&#45;&gt;Node6</title>
<g id="a_edge68_Node000035_Node000006"><a xlink:title=" ">
<path fill="none" stroke="#63b8ff" d="M1273.76,-274.82C1294.2,-255.57 1338.26,-207.58 1322,-165 1308.27,-129.07 1274.94,-97.9 1253.19,-80.43"/>
<polygon fill="#63b8ff" stroke="#63b8ff" points="1255.25,-77.6 1245.21,-74.22 1250.95,-83.12 1255.25,-77.6"/>
</a>
</g>
</g>
<!-- Node35&#45;&gt;Node18 -->
<g id="edge69_Node000035_Node000018" class="edge">
<title>Node35&#45;&gt;Node18</title>
<g id="a_edge69_Node000035_Node000018"><a xlink:title=" ">
<path fill="none" stroke="#63b8ff" d="M1222.71,-274.98C1178.07,-265.78 1106.84,-251.09 1058.55,-241.13"/>
<polygon fill="#63b8ff" stroke="#63b8ff" points="1059.12,-237.67 1048.62,-239.08 1057.7,-244.53 1059.12,-237.67"/>
</a>
</g>
</g>
</g>
</svg>

<g id="navigator" transform="translate(0 0)" fill="#404254">
  <rect fill="#f2f5e9" fill-opacity="0.5" stroke="#606060" stroke-width=".5" x="0" y="0" width="60" height="60"/>
  <use id="zoomplus" xlink:href="#zoomPlus" x="17" y="9" onmousedown="handleZoom(evt,'in')"/>
  <use id="zoomminus" xlink:href="#zoomMin" x="42" y="9" onmousedown="handleZoom(evt,'out')"/>
  <use id="reset" xlink:href="#resetDef" x="30" y="36" onmousedown="handleReset()"/>
   <use id="arrowup" xlink:href="#arrowUp" x="0" y="0" onmousedown="handlePan(0,-1)"/>
  <use id="arrowright" xlink:href="#arrowRight" x="0" y="0" onmousedown="handlePan(1,0)"/>
  <use id="arrowdown" xlink:href="#arrowDown" x="0" y="0" onmousedown="handlePan(0,1)"/>
  <use id="arrowleft" xlink:href="#arrowLeft" x="0" y="0" onmousedown="handlePan(-1,0)"/>
</g>
<svg viewBox="0 0 15 15" width="100%" height="30px" preserveAspectRatio="xMaxYMin meet">
 <g id="arrow_out" transform="scale(0.3 0.3)">
  <a xlink:href="http__server_8c__incl_org.svg" target="_base">
   <rect id="button" ry="5" rx="5" y="6" x="6" height="38" width="38"
        fill="#f2f5e9" fill-opacity="0.5" stroke="#606060" stroke-width="1.0"/>
   <path id="arrow"
     d="M 11.500037,31.436501 C 11.940474,20.09759 22.043105,11.32322 32.158766,21.979434 L 37.068811,17.246167 C 37.068811,17.246167 37.088388,32 37.088388,32 L 22.160133,31.978069 C 22.160133,31.978069 26.997745,27.140456 26.997745,27.140456 C 18.528582,18.264221 13.291696,25.230495 11.500037,31.436501 z"
     style="fill:#404040;"/>
  </a>
 </g>
</svg>

<style type='text/css'>
<![CDATA[
[data-mouse-over-selected='false'] { opacity: 0.7; }
[data-mouse-over-selected='true']  { opacity: 1.0; }
]]>
</style>
<script type="application/ecmascript"><![CDATA[
document.addEventListener('DOMContentLoaded', (event) => {
  highlightEdges();
  highlightAdjacentNodes();
});
]]></script>
</svg>
