<?xml version="1.0" encoding="UTF-8" standalone="no"?>
<!DOCTYPE svg PUBLIC "-//W3C//DTD SVG 1.1//EN"
 "http://www.w3.org/Graphics/SVG/1.1/DTD/svg11.dtd">
<!-- Generated by graphviz version 2.43.0 (0)
 -->
<!-- Title: http2_client.c Pages: 1 -->
<svg width="1545pt" height="478pt"
 viewBox="0.00 0.00 1544.50 478.00" xmlns="http://www.w3.org/2000/svg" xmlns:xlink="http://www.w3.org/1999/xlink">
<g id="graph0" class="graph" transform="scale(1 1) rotate(0) translate(4 474)">
<title>http2_client.c</title>
<!-- Node1 -->
<g id="Node000001" class="node">
<title>Node1</title>
<g id="a_Node000001"><a xlink:title=" ">
<polygon fill="#999999" stroke="#666666" points="210.5,-470 135.5,-470 135.5,-451 210.5,-451 210.5,-470"/>
<text text-anchor="middle" x="173" y="-458" font-family="Helvetica,sans-Serif" font-size="10.00">http2_client.c</text>
</a>
</g>
</g>
<!-- Node2 -->
<g id="Node000002" class="node">
<title>Node2</title>
<g id="a_Node000002"><a xlink:title=" ">
<polygon fill="#e0e0e0" stroke="#999999" points="50,-415 0,-415 0,-396 50,-396 50,-415"/>
<text text-anchor="middle" x="25" y="-403" font-family="Helvetica,sans-Serif" font-size="10.00">signal.h</text>
</a>
</g>
</g>
<!-- Node1&#45;&gt;Node2 -->
<g id="edge1_Node000001_Node000002" class="edge">
<title>Node1&#45;&gt;Node2</title>
<g id="a_edge1_Node000001_Node000002"><a xlink:title=" ">
<path fill="none" stroke="#63b8ff" d="M149.22,-450.98C124.77,-442.23 86.47,-428.51 58.85,-418.62"/>
<polygon fill="#63b8ff" stroke="#63b8ff" points="59.81,-415.25 49.21,-415.17 57.45,-421.84 59.81,-415.25"/>
</a>
</g>
</g>
<!-- Node3 -->
<g id="Node000003" class="node">
<title>Node3</title>
<g id="a_Node000003"><a xlink:title=" ">
<polygon fill="#e0e0e0" stroke="#999999" points="622,-74 576,-74 576,-55 622,-55 622,-74"/>
<text text-anchor="middle" x="599" y="-62" font-family="Helvetica,sans-Serif" font-size="10.00">stdio.h</text>
</a>
</g>
</g>
<!-- Node1&#45;&gt;Node3 -->
<g id="edge2_Node000001_Node000003" class="edge">
<title>Node1&#45;&gt;Node3</title>
<g id="a_edge2_Node000001_Node000003"><a xlink:title=" ">
<path fill="none" stroke="#63b8ff" d="M165.07,-450.84C149.41,-432.79 116,-389.22 116,-346 116,-346 116,-346 116,-228.5 116,-143.54 187.77,-143.14 266,-110 293.25,-98.46 486.59,-77.25 565.54,-68.95"/>
<polygon fill="#63b8ff" stroke="#63b8ff" points="566.31,-72.39 575.89,-67.87 565.58,-65.43 566.31,-72.39"/>
</a>
</g>
</g>
<!-- Node4 -->
<g id="Node000004" class="node">
<title>Node4</title>
<g id="a_Node000004"><a xlink:title=" ">
<polygon fill="#e0e0e0" stroke="#999999" points="379,-415 331,-415 331,-396 379,-396 379,-415"/>
<text text-anchor="middle" x="355" y="-403" font-family="Helvetica,sans-Serif" font-size="10.00">stdlib.h</text>
</a>
</g>
</g>
<!-- Node1&#45;&gt;Node4 -->
<g id="edge3_Node000001_Node000004" class="edge">
<title>Node1&#45;&gt;Node4</title>
<g id="a_edge3_Node000001_Node000004"><a xlink:title=" ">
<path fill="none" stroke="#63b8ff" d="M202.24,-450.98C234.57,-441.57 286.58,-426.42 320.78,-416.46"/>
<polygon fill="#63b8ff" stroke="#63b8ff" points="322.16,-419.71 330.78,-413.55 320.2,-412.99 322.16,-419.71"/>
</a>
</g>
</g>
<!-- Node5 -->
<g id="Node000005" class="node">
<title>Node5</title>
<g id="a_Node000005"><a xlink:title=" ">
<polygon fill="#e0e0e0" stroke="#999999" points="446.5,-415 397.5,-415 397.5,-396 446.5,-396 446.5,-415"/>
<text text-anchor="middle" x="422" y="-403" font-family="Helvetica,sans-Serif" font-size="10.00">string.h</text>
</a>
</g>
</g>
<!-- Node1&#45;&gt;Node5 -->
<g id="edge4_Node000001_Node000005" class="edge">
<title>Node1&#45;&gt;Node5</title>
<g id="a_edge4_Node000001_Node000005"><a xlink:title=" ">
<path fill="none" stroke="#63b8ff" d="M210.77,-452.17C251.77,-444.1 319.41,-430.48 387.15,-415.12"/>
<polygon fill="#63b8ff" stroke="#63b8ff" points="388.17,-418.47 397.15,-412.84 386.62,-411.65 388.17,-418.47"/>
</a>
</g>
</g>
<!-- Node6 -->
<g id="Node000006" class="node">
<title>Node6</title>
<g id="a_Node000006"><a xlink:href="Except_8h.html" target="_top" xlink:title="Structured exception handling for C with TRY/EXCEPT/FINALLY blocks.">
<polygon fill="white" stroke="#666666" points="490.5,-74 413.5,-74 413.5,-55 490.5,-55 490.5,-74"/>
<text text-anchor="middle" x="452" y="-62" font-family="Helvetica,sans-Serif" font-size="10.00">core/Except.h</text>
</a>
</g>
</g>
<!-- Node1&#45;&gt;Node6 -->
<g id="edge5_Node000001_Node000006" class="edge">
<title>Node1&#45;&gt;Node6</title>
<g id="a_edge5_Node000001_Node000006"><a xlink:title=" ">
<path fill="none" stroke="#63b8ff" d="M151.94,-450.96C136.18,-443.58 115.15,-431.5 102,-415 81.77,-389.61 78,-378.47 78,-346 78,-346 78,-346 78,-173.5 78,-106.53 302.17,-78.52 403.4,-69.29"/>
<polygon fill="#63b8ff" stroke="#63b8ff" points="403.73,-72.77 413.38,-68.4 403.11,-65.8 403.73,-72.77"/>
</a>
</g>
</g>
<!-- Node8 -->
<g id="Node000008" class="node">
<title>Node8</title>
<g id="a_Node000008"><a xlink:href="SocketHTTPClient_8h.html" target="_top" xlink:title="Public API for the HTTP client module, including types, functions, and configuration.">
<polygon fill="white" stroke="#666666" points="312.5,-415 185.5,-415 185.5,-396 312.5,-396 312.5,-415"/>
<text text-anchor="middle" x="249" y="-403" font-family="Helvetica,sans-Serif" font-size="10.00">http/SocketHTTPClient.h</text>
</a>
</g>
</g>
<!-- Node1&#45;&gt;Node8 -->
<g id="edge7_Node000001_Node000008" class="edge">
<title>Node1&#45;&gt;Node8</title>
<g id="a_edge7_Node000001_Node000008"><a xlink:title=" ">
<path fill="none" stroke="#63b8ff" d="M185.21,-450.98C196.78,-442.92 214.38,-430.65 228.16,-421.03"/>
<polygon fill="#63b8ff" stroke="#63b8ff" points="230.37,-423.76 236.57,-415.17 226.36,-418.02 230.37,-423.76"/>
</a>
</g>
</g>
<!-- Node7 -->
<g id="Node000007" class="node">
<title>Node7</title>
<g id="a_Node000007"><a xlink:title=" ">
<polygon fill="#e0e0e0" stroke="#999999" points="479,-19 425,-19 425,0 479,0 479,-19"/>
<text text-anchor="middle" x="452" y="-7" font-family="Helvetica,sans-Serif" font-size="10.00">setjmp.h</text>
</a>
</g>
</g>
<!-- Node6&#45;&gt;Node7 -->
<g id="edge6_Node000006_Node000007" class="edge">
<title>Node6&#45;&gt;Node7</title>
<g id="a_edge6_Node000006_Node000007"><a xlink:title=" ">
<path fill="none" stroke="#63b8ff" d="M452,-54.75C452,-47.8 452,-37.85 452,-29.13"/>
<polygon fill="#63b8ff" stroke="#63b8ff" points="455.5,-29.09 452,-19.09 448.5,-29.09 455.5,-29.09"/>
</a>
</g>
</g>
<!-- Node8&#45;&gt;Node6 -->
<g id="edge15_Node000008_Node000006" class="edge">
<title>Node8&#45;&gt;Node6</title>
<g id="a_edge15_Node000008_Node000006"><a xlink:title=" ">
<path fill="none" stroke="#63b8ff" d="M234.98,-395.97C208.56,-378.68 154,-336.79 154,-285.5 154,-285.5 154,-285.5 154,-173.5 154,-121.08 319.03,-86.87 403.47,-72.8"/>
<polygon fill="#63b8ff" stroke="#63b8ff" points="404.04,-76.25 413.35,-71.18 402.91,-69.34 404.04,-76.25"/>
</a>
</g>
</g>
<!-- Node9 -->
<g id="Node000009" class="node">
<title>Node9</title>
<g id="a_Node000009"><a xlink:title=" ">
<polygon fill="#e0e0e0" stroke="#999999" points="758,-74 706,-74 706,-55 758,-55 758,-74"/>
<text text-anchor="middle" x="732" y="-62" font-family="Helvetica,sans-Serif" font-size="10.00">stddef.h</text>
</a>
</g>
</g>
<!-- Node8&#45;&gt;Node9 -->
<g id="edge8_Node000008_Node000009" class="edge">
<title>Node8&#45;&gt;Node9</title>
<g id="a_edge8_Node000008_Node000009"><a xlink:title=" ">
<path fill="none" stroke="#63b8ff" d="M312.68,-396.86C315.83,-396.55 318.95,-396.26 322,-396 606.28,-371.49 680.71,-401.61 963,-360 1102.76,-339.4 1272,-426.77 1272,-285.5 1272,-285.5 1272,-285.5 1272,-173.5 1272,-135.58 1248.97,-126.85 1215,-110 1127.11,-66.41 872.17,-87.53 775,-74 772.8,-73.69 770.53,-73.35 768.26,-72.97"/>
<polygon fill="#63b8ff" stroke="#63b8ff" points="768.76,-69.5 758.3,-71.19 767.53,-76.4 768.76,-69.5"/>
</a>
</g>
</g>
<!-- Node10 -->
<g id="Node000010" class="node">
<title>Node10</title>
<g id="a_Node000010"><a xlink:title=" ">
<polygon fill="#e0e0e0" stroke="#999999" points="323.5,-129 274.5,-129 274.5,-110 323.5,-110 323.5,-129"/>
<text text-anchor="middle" x="299" y="-117" font-family="Helvetica,sans-Serif" font-size="10.00">stdint.h</text>
</a>
</g>
</g>
<!-- Node8&#45;&gt;Node10 -->
<g id="edge9_Node000008_Node000010" class="edge">
<title>Node8&#45;&gt;Node10</title>
<g id="a_edge9_Node000008_Node000010"><a xlink:title=" ">
<path fill="none" stroke="#63b8ff" d="M241.25,-395.87C233.89,-387.3 222.95,-373.52 216,-360 200.09,-329.06 192,-320.29 192,-285.5 192,-285.5 192,-285.5 192,-228.5 192,-198.33 196.11,-187.68 216,-165 228.98,-150.2 248.1,-139.48 264.72,-132.28"/>
<polygon fill="#63b8ff" stroke="#63b8ff" points="266.21,-135.45 274.16,-128.44 263.57,-128.97 266.21,-135.45"/>
</a>
</g>
</g>
<!-- Node11 -->
<g id="Node000011" class="node">
<title>Node11</title>
<g id="a_Node000011"><a xlink:title=" ">
<polygon fill="#e0e0e0" stroke="#999999" points="866,-129 798,-129 798,-110 866,-110 866,-129"/>
<text text-anchor="middle" x="832" y="-117" font-family="Helvetica,sans-Serif" font-size="10.00">sys/types.h</text>
</a>
</g>
</g>
<!-- Node8&#45;&gt;Node11 -->
<g id="edge10_Node000008_Node000011" class="edge">
<title>Node8&#45;&gt;Node11</title>
<g id="a_edge10_Node000008_Node000011"><a xlink:title=" ">
<path fill="none" stroke="#63b8ff" d="M312.68,-396.87C315.83,-396.56 318.95,-396.27 322,-396 390.52,-390.02 886.94,-403.76 940,-360 966.36,-338.26 959,-319.67 959,-285.5 959,-285.5 959,-285.5 959,-228.5 959,-180.01 904.61,-148.73 867.02,-132.91"/>
<polygon fill="#63b8ff" stroke="#63b8ff" points="867.98,-129.52 857.4,-129.03 865.36,-136.01 867.98,-129.52"/>
</a>
</g>
</g>
<!-- Node12 -->
<g id="Node000012" class="node">
<title>Node12</title>
<g id="a_Node000012"><a xlink:title=" ">
<polygon fill="#e0e0e0" stroke="#999999" points="386,-129 342,-129 342,-110 386,-110 386,-129"/>
<text text-anchor="middle" x="364" y="-117" font-family="Helvetica,sans-Serif" font-size="10.00">time.h</text>
</a>
</g>
</g>
<!-- Node8&#45;&gt;Node12 -->
<g id="edge11_Node000008_Node000012" class="edge">
<title>Node8&#45;&gt;Node12</title>
<g id="a_edge11_Node000008_Node000012"><a xlink:title=" ">
<path fill="none" stroke="#63b8ff" d="M246.67,-395.91C241.6,-376.44 230,-327.34 230,-285.5 230,-285.5 230,-285.5 230,-228.5 230,-176.16 292.73,-144.89 332.35,-130.35"/>
<polygon fill="#63b8ff" stroke="#63b8ff" points="333.59,-133.62 341.87,-127.01 331.28,-127.02 333.59,-133.62"/>
</a>
</g>
</g>
<!-- Node13 -->
<g id="Node000013" class="node">
<title>Node13</title>
<g id="a_Node000013"><a xlink:href="Arena_8h.html" target="_top" xlink:title="Arena&#45;based memory allocator for efficient bulk memory management.">
<polygon fill="white" stroke="#666666" points="590,-129 518,-129 518,-110 590,-110 590,-129"/>
<text text-anchor="middle" x="554" y="-117" font-family="Helvetica,sans-Serif" font-size="10.00">core/Arena.h</text>
</a>
</g>
</g>
<!-- Node8&#45;&gt;Node13 -->
<g id="edge12_Node000008_Node000013" class="edge">
<title>Node8&#45;&gt;Node13</title>
<g id="a_edge12_Node000008_Node000013"><a xlink:title=" ">
<path fill="none" stroke="#63b8ff" d="M312.57,-396.33C450.28,-377.98 766.24,-332.11 796,-294 811.7,-273.9 790.47,-237.21 774,-220 760.02,-205.39 642.18,-156.3 584.95,-132.99"/>
<polygon fill="#63b8ff" stroke="#63b8ff" points="585.91,-129.6 575.33,-129.08 583.28,-136.09 585.91,-129.6"/>
</a>
</g>
</g>
<!-- Node14 -->
<g id="Node000014" class="node">
<title>Node14</title>
<g id="a_Node000014"><a xlink:href="SocketHTTP_8h.html" target="_top" xlink:title="Protocol&#45;agnostic HTTP types, header handling, URI parsing, and utilities.">
<polygon fill="white" stroke="#666666" points="424,-184 324,-184 324,-165 424,-165 424,-184"/>
<text text-anchor="middle" x="374" y="-172" font-family="Helvetica,sans-Serif" font-size="10.00">http/SocketHTTP.h</text>
</a>
</g>
</g>
<!-- Node8&#45;&gt;Node14 -->
<g id="edge16_Node000008_Node000014" class="edge">
<title>Node8&#45;&gt;Node14</title>
<g id="a_edge16_Node000008_Node000014"><a xlink:title=" ">
<path fill="none" stroke="#63b8ff" d="M253.75,-395.8C272.19,-362.01 339.32,-239.02 364.43,-193.02"/>
<polygon fill="#63b8ff" stroke="#63b8ff" points="367.53,-194.66 369.25,-184.21 361.38,-191.31 367.53,-194.66"/>
</a>
</g>
</g>
<!-- Node15 -->
<g id="Node000015" class="node">
<title>Node15</title>
<g id="a_Node000015"><a xlink:href="SocketHTTPClient-config_8h.html" target="_top" xlink:title="Configuration constants for HTTP client with compile&#45;time override support.">
<polygon fill="white" stroke="#666666" points="930.5,-360 811.5,-360 811.5,-330 930.5,-330 930.5,-360"/>
<text text-anchor="start" x="819.5" y="-348" font-family="Helvetica,sans-Serif" font-size="10.00">http/SocketHTTPClient</text>
<text text-anchor="middle" x="871" y="-337" font-family="Helvetica,sans-Serif" font-size="10.00">&#45;config.h</text>
</a>
</g>
</g>
<!-- Node8&#45;&gt;Node15 -->
<g id="edge23_Node000008_Node000015" class="edge">
<title>Node8&#45;&gt;Node15</title>
<g id="a_edge23_Node000008_Node000015"><a xlink:title=" ">
<path fill="none" stroke="#63b8ff" d="M312.69,-396.93C315.83,-396.61 318.95,-396.29 322,-396 532.75,-375.75 587.11,-387.72 797,-360 798.46,-359.81 799.93,-359.6 801.41,-359.39"/>
<polygon fill="#63b8ff" stroke="#63b8ff" points="801.96,-362.85 811.32,-357.88 800.9,-355.93 801.96,-362.85"/>
</a>
</g>
</g>
<!-- Node16 -->
<g id="Node000016" class="node">
<title>Node16</title>
<g id="a_Node000016"><a xlink:href="SocketTLSContext_8h.html" target="_top" xlink:title="TLS context management with secure defaults and certificate handling.">
<polygon fill="white" stroke="#666666" points="523,-354.5 401,-354.5 401,-335.5 523,-335.5 523,-354.5"/>
<text text-anchor="middle" x="462" y="-342.5" font-family="Helvetica,sans-Serif" font-size="10.00">tls/SocketTLSContext.h</text>
</a>
</g>
</g>
<!-- Node8&#45;&gt;Node16 -->
<g id="edge24_Node000008_Node000016" class="edge">
<title>Node8&#45;&gt;Node16</title>
<g id="a_edge24_Node000008_Node000016"><a xlink:title=" ">
<path fill="none" stroke="#63b8ff" d="M279.97,-395.99C317.28,-385.75 380.06,-368.5 421.27,-357.19"/>
<polygon fill="#63b8ff" stroke="#63b8ff" points="422.27,-360.54 430.99,-354.52 420.42,-353.79 422.27,-360.54"/>
</a>
</g>
</g>
<!-- Node13&#45;&gt;Node6 -->
<g id="edge14_Node000013_Node000006" class="edge">
<title>Node13&#45;&gt;Node6</title>
<g id="a_edge14_Node000013_Node000006"><a xlink:title=" ">
<path fill="none" stroke="#63b8ff" d="M537.61,-109.98C521.43,-101.57 496.43,-88.59 477.62,-78.81"/>
<polygon fill="#63b8ff" stroke="#63b8ff" points="479.17,-75.68 468.69,-74.17 475.95,-81.89 479.17,-75.68"/>
</a>
</g>
</g>
<!-- Node13&#45;&gt;Node9 -->
<g id="edge13_Node000013_Node000009" class="edge">
<title>Node13&#45;&gt;Node9</title>
<g id="a_edge13_Node000013_Node000009"><a xlink:title=" ">
<path fill="none" stroke="#63b8ff" d="M582.6,-109.98C613.41,-100.81 662.52,-86.19 695.96,-76.23"/>
<polygon fill="#63b8ff" stroke="#63b8ff" points="697.21,-79.51 705.79,-73.3 695.21,-72.8 697.21,-79.51"/>
</a>
</g>
</g>
<!-- Node14&#45;&gt;Node6 -->
<g id="edge22_Node000014_Node000006" class="edge">
<title>Node14&#45;&gt;Node6</title>
<g id="a_edge22_Node000014_Node000006"><a xlink:title=" ">
<path fill="none" stroke="#63b8ff" d="M380.38,-164.66C393.36,-146.69 423.01,-105.64 439.81,-82.38"/>
<polygon fill="#63b8ff" stroke="#63b8ff" points="442.73,-84.31 445.75,-74.16 437.05,-80.22 442.73,-84.31"/>
</a>
</g>
</g>
<!-- Node14&#45;&gt;Node9 -->
<g id="edge17_Node000014_Node000009" class="edge">
<title>Node14&#45;&gt;Node9</title>
<g id="a_edge17_Node000014_Node000009"><a xlink:title=" ">
<path fill="none" stroke="#63b8ff" d="M389.29,-164.8C413.8,-151.19 463.74,-124.92 509,-110 573.04,-88.9 650.9,-76.14 695.63,-69.99"/>
<polygon fill="#63b8ff" stroke="#63b8ff" points="696.27,-73.44 705.72,-68.64 695.34,-66.5 696.27,-73.44"/>
</a>
</g>
</g>
<!-- Node14&#45;&gt;Node10 -->
<g id="edge18_Node000014_Node000010" class="edge">
<title>Node14&#45;&gt;Node10</title>
<g id="a_edge18_Node000014_Node000010"><a xlink:title=" ">
<path fill="none" stroke="#63b8ff" d="M361.95,-164.98C350.54,-156.92 333.17,-144.65 319.57,-135.03"/>
<polygon fill="#63b8ff" stroke="#63b8ff" points="321.46,-132.08 311.27,-129.17 317.42,-137.8 321.46,-132.08"/>
</a>
</g>
</g>
<!-- Node14&#45;&gt;Node11 -->
<g id="edge19_Node000014_Node000011" class="edge">
<title>Node14&#45;&gt;Node11</title>
<g id="a_edge19_Node000014_Node000011"><a xlink:title=" ">
<path fill="none" stroke="#63b8ff" d="M424.01,-169.57C500.26,-163.27 650.35,-149.63 787.51,-129.1"/>
<polygon fill="#63b8ff" stroke="#63b8ff" points="788.42,-132.5 797.78,-127.55 787.37,-125.58 788.42,-132.5"/>
</a>
</g>
</g>
<!-- Node14&#45;&gt;Node12 -->
<g id="edge20_Node000014_Node000012" class="edge">
<title>Node14&#45;&gt;Node12</title>
<g id="a_edge20_Node000014_Node000012"><a xlink:title=" ">
<path fill="none" stroke="#63b8ff" d="M372.35,-164.75C371.04,-157.8 369.16,-147.85 367.52,-139.13"/>
<polygon fill="#63b8ff" stroke="#63b8ff" points="370.91,-138.27 365.62,-129.09 364.04,-139.56 370.91,-138.27"/>
</a>
</g>
</g>
<!-- Node14&#45;&gt;Node13 -->
<g id="edge21_Node000014_Node000013" class="edge">
<title>Node14&#45;&gt;Node13</title>
<g id="a_edge21_Node000014_Node000013"><a xlink:title=" ">
<path fill="none" stroke="#63b8ff" d="M402.92,-164.98C433.27,-156.05 481.17,-141.94 514.88,-132.02"/>
<polygon fill="#63b8ff" stroke="#63b8ff" points="516.25,-135.26 524.85,-129.08 514.27,-128.55 516.25,-135.26"/>
</a>
</g>
</g>
<!-- Node16&#45;&gt;Node6 -->
<g id="edge26_Node000016_Node000006" class="edge">
<title>Node16&#45;&gt;Node6</title>
<g id="a_edge26_Node000016_Node000006"><a xlink:title=" ">
<path fill="none" stroke="#63b8ff" d="M407.26,-335.43C379.43,-328.5 346.95,-316.09 325,-294 264.47,-233.08 212.81,-177.42 266,-110 282.8,-88.71 353.91,-76.47 403.17,-70.4"/>
<polygon fill="#63b8ff" stroke="#63b8ff" points="403.81,-73.85 413.33,-69.2 402.98,-66.9 403.81,-73.85"/>
</a>
</g>
</g>
<!-- Node16&#45;&gt;Node13 -->
<g id="edge25_Node000016_Node000013" class="edge">
<title>Node16&#45;&gt;Node13</title>
<g id="a_edge25_Node000016_Node000013"><a xlink:title=" ">
<path fill="none" stroke="#63b8ff" d="M461.89,-335.28C461.25,-321.02 458.03,-292.55 443,-275 414.93,-242.23 340.52,-256.83 363,-220 381.22,-190.14 401.96,-200.13 433,-184 466.08,-166.81 504.14,-146.8 528.6,-133.91"/>
<polygon fill="#63b8ff" stroke="#63b8ff" points="530.37,-136.93 537.58,-129.17 527.1,-130.74 530.37,-136.93"/>
</a>
</g>
</g>
<!-- Node17 -->
<g id="Node000017" class="node">
<title>Node17</title>
<g id="a_Node000017"><a xlink:href="SocketTLS_8h.html" target="_top" xlink:title="High&#45;level TLS/SSL integration for secure Socket I/O with TLS 1.3 enforcement.">
<polygon fill="white" stroke="#666666" points="786.5,-294 699.5,-294 699.5,-275 786.5,-275 786.5,-294"/>
<text text-anchor="middle" x="743" y="-282" font-family="Helvetica,sans-Serif" font-size="10.00">tls/SocketTLS.h</text>
</a>
</g>
</g>
<!-- Node16&#45;&gt;Node17 -->
<g id="edge27_Node000016_Node000017" class="edge">
<title>Node16&#45;&gt;Node17</title>
<g id="a_edge27_Node000016_Node000017"><a xlink:title=" ">
<path fill="none" stroke="#63b8ff" d="M502.86,-335.49C552.91,-325.07 637.72,-307.42 691.99,-296.12"/>
<polygon fill="#63b8ff" stroke="#63b8ff" points="693.01,-299.48 702.09,-294.02 691.59,-292.63 693.01,-299.48"/>
</a>
</g>
</g>
<!-- Node34 -->
<g id="Node000034" class="node">
<title>Node34</title>
<g id="a_Node000034"><a xlink:href="SocketTLSConfig_8h.html" target="_top" xlink:title="TLS configuration constants, structure, and secure defaults.">
<polygon fill="white" stroke="#666666" points="644,-294 528,-294 528,-275 644,-275 644,-294"/>
<text text-anchor="middle" x="586" y="-282" font-family="Helvetica,sans-Serif" font-size="10.00">tls/SocketTLSConfig.h</text>
</a>
</g>
</g>
<!-- Node16&#45;&gt;Node34 -->
<g id="edge59_Node000016_Node000034" class="edge">
<title>Node16&#45;&gt;Node34</title>
<g id="a_edge59_Node000016_Node000034"><a xlink:title=" ">
<path fill="none" stroke="#63b8ff" d="M480.03,-335.49C500.69,-325.75 534.78,-309.66 558.7,-298.38"/>
<polygon fill="#63b8ff" stroke="#63b8ff" points="560.4,-301.45 567.95,-294.02 557.41,-295.12 560.4,-301.45"/>
</a>
</g>
</g>
<!-- Node36 -->
<g id="Node000036" class="node">
<title>Node36</title>
<g id="a_Node000036"><a xlink:title=" ">
<polygon fill="#e0e0e0" stroke="#999999" points="446,-239 372,-239 372,-220 446,-220 446,-239"/>
<text text-anchor="middle" x="409" y="-227" font-family="Helvetica,sans-Serif" font-size="10.00">openssl/ssl.h</text>
</a>
</g>
</g>
<!-- Node16&#45;&gt;Node36 -->
<g id="edge64_Node000016_Node000036" class="edge">
<title>Node16&#45;&gt;Node36</title>
<g id="a_edge64_Node000016_Node000036"><a xlink:title=" ">
<path fill="none" stroke="#63b8ff" d="M467.22,-335.4C474.75,-321.79 486.63,-294.82 476,-275 468.49,-261 454.43,-250.66 441.12,-243.48"/>
<polygon fill="#63b8ff" stroke="#63b8ff" points="442.63,-240.33 432.11,-239.02 439.52,-246.6 442.63,-240.33"/>
</a>
</g>
</g>
<!-- Node39 -->
<g id="Node000039" class="node">
<title>Node39</title>
<g id="a_Node000039"><a xlink:title=" ">
<polygon fill="#e0e0e0" stroke="#999999" points="434,-294 334,-294 334,-275 434,-275 434,-294"/>
<text text-anchor="middle" x="384" y="-282" font-family="Helvetica,sans-Serif" font-size="10.00">openssl/x509_vfy.h</text>
</a>
</g>
</g>
<!-- Node16&#45;&gt;Node39 -->
<g id="edge65_Node000016_Node000039" class="edge">
<title>Node16&#45;&gt;Node39</title>
<g id="a_edge65_Node000016_Node000039"><a xlink:title=" ">
<path fill="none" stroke="#63b8ff" d="M450.49,-335.37C438.16,-326.12 418.38,-311.28 403.59,-300.19"/>
<polygon fill="#63b8ff" stroke="#63b8ff" points="405.66,-297.37 395.56,-294.17 401.46,-302.97 405.66,-297.37"/>
</a>
</g>
</g>
<!-- Node17&#45;&gt;Node6 -->
<g id="edge28_Node000017_Node000006" class="edge">
<title>Node17&#45;&gt;Node6</title>
<g id="a_edge28_Node000017_Node000006"><a xlink:title=" ">
<path fill="none" stroke="#63b8ff" d="M749,-274.89C757.25,-261.86 769.81,-236.9 758,-220 741.12,-195.86 533.4,-145.51 509,-129 490.48,-116.47 473.98,-96.64 463.56,-82.48"/>
<polygon fill="#63b8ff" stroke="#63b8ff" points="466.27,-80.25 457.63,-74.12 460.57,-84.3 466.27,-80.25"/>
</a>
</g>
</g>
<!-- Node18 -->
<g id="Node000018" class="node">
<title>Node18</title>
<g id="a_Node000018"><a xlink:href="Socket_8h.html" target="_top" xlink:title="High&#45;level TCP/IP and Unix domain socket interface.">
<polygon fill="white" stroke="#666666" points="931,-239 843,-239 843,-220 931,-220 931,-239"/>
<text text-anchor="middle" x="887" y="-227" font-family="Helvetica,sans-Serif" font-size="10.00">socket/Socket.h</text>
</a>
</g>
</g>
<!-- Node17&#45;&gt;Node18 -->
<g id="edge29_Node000017_Node000018" class="edge">
<title>Node17&#45;&gt;Node18</title>
<g id="a_edge29_Node000017_Node000018"><a xlink:title=" ">
<path fill="none" stroke="#63b8ff" d="M766.14,-274.98C789.82,-266.27 826.87,-252.63 853.71,-242.75"/>
<polygon fill="#63b8ff" stroke="#63b8ff" points="855.27,-245.91 863.44,-239.17 852.85,-239.34 855.27,-245.91"/>
</a>
</g>
</g>
<!-- Node18&#45;&gt;Node6 -->
<g id="edge30_Node000018_Node000006" class="edge">
<title>Node18&#45;&gt;Node6</title>
<g id="a_edge30_Node000018_Node000006"><a xlink:title=" ">
<path fill="none" stroke="#63b8ff" d="M861.49,-219.98C814.97,-204.13 713.63,-168.15 632,-129 616.74,-121.68 614.53,-116.72 599,-110 566.38,-95.89 527.88,-84.41 498.46,-76.65"/>
<polygon fill="#63b8ff" stroke="#63b8ff" points="499.02,-73.18 488.46,-74.06 497.27,-79.95 499.02,-73.18"/>
</a>
</g>
</g>
<!-- Node19 -->
<g id="Node000019" class="node">
<title>Node19</title>
<g id="a_Node000019"><a xlink:href="SocketConfig_8h.html" target="_top" xlink:title="Compile&#45;time and runtime configuration constants, limits, and platform adaptations.">
<polygon fill="white" stroke="#666666" points="1406,-129 1300,-129 1300,-110 1406,-110 1406,-129"/>
<text text-anchor="middle" x="1353" y="-117" font-family="Helvetica,sans-Serif" font-size="10.00">core/SocketConfig.h</text>
</a>
</g>
</g>
<!-- Node18&#45;&gt;Node19 -->
<g id="edge31_Node000018_Node000019" class="edge">
<title>Node18&#45;&gt;Node19</title>
<g id="a_edge31_Node000018_Node000019"><a xlink:title=" ">
<path fill="none" stroke="#63b8ff" d="M931.35,-221.33C979.14,-213.33 1057.32,-199.47 1124,-184 1192,-168.22 1270.15,-145.56 1315.33,-132.01"/>
<polygon fill="#63b8ff" stroke="#63b8ff" points="1316.43,-135.33 1324.99,-129.09 1314.41,-128.63 1316.43,-135.33"/>
</a>
</g>
</g>
<!-- Node27 -->
<g id="Node000027" class="node">
<title>Node27</title>
<g id="a_Node000027"><a xlink:href="SocketDNS_8h.html" target="_top" xlink:title="Asynchronous DNS resolution API for non&#45;blocking network applications.">
<polygon fill="white" stroke="#666666" points="780,-129 684,-129 684,-110 780,-110 780,-129"/>
<text text-anchor="middle" x="732" y="-117" font-family="Helvetica,sans-Serif" font-size="10.00">dns/SocketDNS.h</text>
</a>
</g>
</g>
<!-- Node18&#45;&gt;Node27 -->
<g id="edge41_Node000018_Node000027" class="edge">
<title>Node18&#45;&gt;Node27</title>
<g id="a_edge41_Node000018_Node000027"><a xlink:title=" ">
<path fill="none" stroke="#63b8ff" d="M874.58,-219.84C848.05,-201.36 785.62,-157.86 752.88,-135.05"/>
<polygon fill="#63b8ff" stroke="#63b8ff" points="754.69,-132.04 744.48,-129.2 750.69,-137.79 754.69,-132.04"/>
</a>
</g>
</g>
<!-- Node29 -->
<g id="Node000029" class="node">
<title>Node29</title>
<g id="a_Node000029"><a xlink:href="SocketCommon_8h.html" target="_top" xlink:title="Common utilities shared between Socket and SocketDgram modules.">
<polygon fill="white" stroke="#666666" points="1115,-184 987,-184 987,-165 1115,-165 1115,-184"/>
<text text-anchor="middle" x="1051" y="-172" font-family="Helvetica,sans-Serif" font-size="10.00">socket/SocketCommon.h</text>
</a>
</g>
</g>
<!-- Node18&#45;&gt;Node29 -->
<g id="edge46_Node000018_Node000029" class="edge">
<title>Node18&#45;&gt;Node29</title>
<g id="a_edge46_Node000018_Node000029"><a xlink:title=" ">
<path fill="none" stroke="#63b8ff" d="M913.35,-219.98C940.76,-211.13 983.89,-197.19 1014.56,-187.28"/>
<polygon fill="#63b8ff" stroke="#63b8ff" points="1016,-190.49 1024.44,-184.08 1013.85,-183.83 1016,-190.49"/>
</a>
</g>
</g>
<!-- Node19&#45;&gt;Node3 -->
<g id="edge37_Node000019_Node000003" class="edge">
<title>Node19&#45;&gt;Node3</title>
<g id="a_edge37_Node000019_Node000003"><a xlink:title=" ">
<path fill="none" stroke="#63b8ff" d="M1299.83,-115.23C1188.14,-108.3 920.92,-91.3 697,-74 675.55,-72.34 651.48,-70.26 632.56,-68.57"/>
<polygon fill="#63b8ff" stroke="#63b8ff" points="632.63,-65.06 622.35,-67.65 632,-72.03 632.63,-65.06"/>
</a>
</g>
</g>
<!-- Node19&#45;&gt;Node9 -->
<g id="edge36_Node000019_Node000009" class="edge">
<title>Node19&#45;&gt;Node9</title>
<g id="a_edge36_Node000019_Node000009"><a xlink:title=" ">
<path fill="none" stroke="#63b8ff" d="M1299.64,-111.46C1295.03,-110.93 1290.43,-110.44 1286,-110 1059.42,-87.66 1000.67,-104.13 775,-74 772.79,-73.71 770.53,-73.37 768.25,-73"/>
<polygon fill="#63b8ff" stroke="#63b8ff" points="768.75,-69.53 758.29,-71.24 767.53,-76.43 768.75,-69.53"/>
</a>
</g>
</g>
<!-- Node20 -->
<g id="Node000020" class="node">
<title>Node20</title>
<g id="a_Node000020"><a xlink:title=" ">
<polygon fill="#e0e0e0" stroke="#999999" points="1301.5,-74 1254.5,-74 1254.5,-55 1301.5,-55 1301.5,-74"/>
<text text-anchor="middle" x="1278" y="-62" font-family="Helvetica,sans-Serif" font-size="10.00">errno.h</text>
</a>
</g>
</g>
<!-- Node19&#45;&gt;Node20 -->
<g id="edge32_Node000019_Node000020" class="edge">
<title>Node19&#45;&gt;Node20</title>
<g id="a_edge32_Node000019_Node000020"><a xlink:title=" ">
<path fill="none" stroke="#63b8ff" d="M1340.95,-109.98C1329.54,-101.92 1312.17,-89.65 1298.57,-80.03"/>
<polygon fill="#63b8ff" stroke="#63b8ff" points="1300.46,-77.08 1290.27,-74.17 1296.42,-82.8 1300.46,-77.08"/>
</a>
</g>
</g>
<!-- Node21 -->
<g id="Node000021" class="node">
<title>Node21</title>
<g id="a_Node000021"><a xlink:title=" ">
<polygon fill="#e0e0e0" stroke="#999999" points="1453,-74 1409,-74 1409,-55 1453,-55 1453,-74"/>
<text text-anchor="middle" x="1431" y="-62" font-family="Helvetica,sans-Serif" font-size="10.00">fcntl.h</text>
</a>
</g>
</g>
<!-- Node19&#45;&gt;Node21 -->
<g id="edge33_Node000019_Node000021" class="edge">
<title>Node19&#45;&gt;Node21</title>
<g id="a_edge33_Node000019_Node000021"><a xlink:title=" ">
<path fill="none" stroke="#63b8ff" d="M1365.53,-109.98C1377.4,-101.92 1395.46,-89.65 1409.61,-80.03"/>
<polygon fill="#63b8ff" stroke="#63b8ff" points="1411.94,-82.69 1418.24,-74.17 1408,-76.9 1411.94,-82.69"/>
</a>
</g>
</g>
<!-- Node22 -->
<g id="Node000022" class="node">
<title>Node22</title>
<g id="a_Node000022"><a xlink:title=" ">
<polygon fill="#e0e0e0" stroke="#999999" points="1536.5,-74 1471.5,-74 1471.5,-55 1536.5,-55 1536.5,-74"/>
<text text-anchor="middle" x="1504" y="-62" font-family="Helvetica,sans-Serif" font-size="10.00">netinet/in.h</text>
</a>
</g>
</g>
<!-- Node19&#45;&gt;Node22 -->
<g id="edge34_Node000019_Node000022" class="edge">
<title>Node19&#45;&gt;Node22</title>
<g id="a_edge34_Node000019_Node000022"><a xlink:title=" ">
<path fill="none" stroke="#63b8ff" d="M1377.26,-109.98C1402.32,-101.19 1441.63,-87.39 1469.83,-77.49"/>
<polygon fill="#63b8ff" stroke="#63b8ff" points="1471.02,-80.78 1479.3,-74.17 1468.7,-74.18 1471.02,-80.78"/>
</a>
</g>
</g>
<!-- Node23 -->
<g id="Node000023" class="node">
<title>Node23</title>
<g id="a_Node000023"><a xlink:title=" ">
<polygon fill="#e0e0e0" stroke="#999999" points="1390.5,-74 1319.5,-74 1319.5,-55 1390.5,-55 1390.5,-74"/>
<text text-anchor="middle" x="1355" y="-62" font-family="Helvetica,sans-Serif" font-size="10.00">netinet/tcp.h</text>
</a>
</g>
</g>
<!-- Node19&#45;&gt;Node23 -->
<g id="edge35_Node000019_Node000023" class="edge">
<title>Node19&#45;&gt;Node23</title>
<g id="a_edge35_Node000019_Node000023"><a xlink:title=" ">
<path fill="none" stroke="#63b8ff" d="M1353.33,-109.75C1353.59,-102.8 1353.97,-92.85 1354.3,-84.13"/>
<polygon fill="#63b8ff" stroke="#63b8ff" points="1357.8,-84.21 1354.68,-74.09 1350.8,-83.95 1357.8,-84.21"/>
</a>
</g>
</g>
<!-- Node24 -->
<g id="Node000024" class="node">
<title>Node24</title>
<g id="a_Node000024"><a xlink:title=" ">
<polygon fill="#e0e0e0" stroke="#999999" points="930.5,-74 857.5,-74 857.5,-55 930.5,-55 930.5,-74"/>
<text text-anchor="middle" x="894" y="-62" font-family="Helvetica,sans-Serif" font-size="10.00">sys/socket.h</text>
</a>
</g>
</g>
<!-- Node19&#45;&gt;Node24 -->
<g id="edge38_Node000019_Node000024" class="edge">
<title>Node19&#45;&gt;Node24</title>
<g id="a_edge38_Node000019_Node000024"><a xlink:title=" ">
<path fill="none" stroke="#63b8ff" d="M1299.98,-111.71C1295.25,-111.12 1290.54,-110.55 1286,-110 1161.55,-95.04 1014.71,-78.73 941.09,-70.64"/>
<polygon fill="#63b8ff" stroke="#63b8ff" points="941.09,-67.12 930.77,-69.51 940.33,-74.08 941.09,-67.12"/>
</a>
</g>
</g>
<!-- Node25 -->
<g id="Node000025" class="node">
<title>Node25</title>
<g id="a_Node000025"><a xlink:title=" ">
<polygon fill="#e0e0e0" stroke="#999999" points="1167,-74 1111,-74 1111,-55 1167,-55 1167,-74"/>
<text text-anchor="middle" x="1139" y="-62" font-family="Helvetica,sans-Serif" font-size="10.00">sys/uio.h</text>
</a>
</g>
</g>
<!-- Node19&#45;&gt;Node25 -->
<g id="edge39_Node000019_Node000025" class="edge">
<title>Node19&#45;&gt;Node25</title>
<g id="a_edge39_Node000019_Node000025"><a xlink:title=" ">
<path fill="none" stroke="#63b8ff" d="M1318.62,-109.98C1279.92,-100.4 1217.24,-84.88 1177.09,-74.93"/>
<polygon fill="#63b8ff" stroke="#63b8ff" points="1177.7,-71.48 1167.15,-72.47 1176.01,-78.27 1177.7,-71.48"/>
</a>
</g>
</g>
<!-- Node26 -->
<g id="Node000026" class="node">
<title>Node26</title>
<g id="a_Node000026"><a xlink:title=" ">
<polygon fill="#e0e0e0" stroke="#999999" points="1236.5,-74 1185.5,-74 1185.5,-55 1236.5,-55 1236.5,-74"/>
<text text-anchor="middle" x="1211" y="-62" font-family="Helvetica,sans-Serif" font-size="10.00">unistd.h</text>
</a>
</g>
</g>
<!-- Node19&#45;&gt;Node26 -->
<g id="edge40_Node000019_Node000026" class="edge">
<title>Node19&#45;&gt;Node26</title>
<g id="a_edge40_Node000019_Node000026"><a xlink:title=" ">
<path fill="none" stroke="#63b8ff" d="M1330.19,-109.98C1306.83,-101.27 1270.3,-87.63 1243.83,-77.75"/>
<polygon fill="#63b8ff" stroke="#63b8ff" points="1244.82,-74.39 1234.23,-74.17 1242.37,-80.95 1244.82,-74.39"/>
</a>
</g>
</g>
<!-- Node27&#45;&gt;Node6 -->
<g id="edge42_Node000027_Node000006" class="edge">
<title>Node27&#45;&gt;Node6</title>
<g id="a_edge42_Node000027_Node000006"><a xlink:title=" ">
<path fill="none" stroke="#63b8ff" d="M687.01,-109.98C636,-100.33 553.12,-84.64 500.64,-74.71"/>
<polygon fill="#63b8ff" stroke="#63b8ff" points="501.04,-71.22 490.57,-72.8 499.74,-78.1 501.04,-71.22"/>
</a>
</g>
</g>
<!-- Node27&#45;&gt;Node9 -->
<g id="edge44_Node000027_Node000009" class="edge">
<title>Node27&#45;&gt;Node9</title>
<g id="a_edge44_Node000027_Node000009"><a xlink:title=" ">
<path fill="none" stroke="#63b8ff" d="M732,-109.75C732,-102.8 732,-92.85 732,-84.13"/>
<polygon fill="#63b8ff" stroke="#63b8ff" points="735.5,-84.09 732,-74.09 728.5,-84.09 735.5,-84.09"/>
</a>
</g>
</g>
<!-- Node27&#45;&gt;Node24 -->
<g id="edge45_Node000027_Node000024" class="edge">
<title>Node27&#45;&gt;Node24</title>
<g id="a_edge45_Node000027_Node000024"><a xlink:title=" ">
<path fill="none" stroke="#63b8ff" d="M758.03,-109.98C785.11,-101.13 827.71,-87.19 858.01,-77.28"/>
<polygon fill="#63b8ff" stroke="#63b8ff" points="859.35,-80.52 867.77,-74.08 857.18,-73.87 859.35,-80.52"/>
</a>
</g>
</g>
<!-- Node28 -->
<g id="Node000028" class="node">
<title>Node28</title>
<g id="a_Node000028"><a xlink:title=" ">
<polygon fill="#e0e0e0" stroke="#999999" points="832.5,-74 783.5,-74 783.5,-55 832.5,-55 832.5,-74"/>
<text text-anchor="middle" x="808" y="-62" font-family="Helvetica,sans-Serif" font-size="10.00">netdb.h</text>
</a>
</g>
</g>
<!-- Node27&#45;&gt;Node28 -->
<g id="edge43_Node000027_Node000028" class="edge">
<title>Node27&#45;&gt;Node28</title>
<g id="a_edge43_Node000027_Node000028"><a xlink:title=" ">
<path fill="none" stroke="#63b8ff" d="M744.21,-109.98C755.78,-101.92 773.38,-89.65 787.16,-80.03"/>
<polygon fill="#63b8ff" stroke="#63b8ff" points="789.37,-82.76 795.57,-74.17 785.36,-77.02 789.37,-82.76"/>
</a>
</g>
</g>
<!-- Node29&#45;&gt;Node6 -->
<g id="edge57_Node000029_Node000006" class="edge">
<title>Node29&#45;&gt;Node6</title>
<g id="a_edge57_Node000029_Node000006"><a xlink:title=" ">
<path fill="none" stroke="#63b8ff" d="M986.69,-171.7C910.93,-168.25 781.84,-158.22 675,-129 654.85,-123.49 651.77,-116.75 632,-110 588.42,-95.11 537.34,-82.97 500.75,-75.15"/>
<polygon fill="#63b8ff" stroke="#63b8ff" points="501.34,-71.7 490.83,-73.06 499.9,-78.55 501.34,-71.7"/>
</a>
</g>
</g>
<!-- Node29&#45;&gt;Node11 -->
<g id="edge54_Node000029_Node000011" class="edge">
<title>Node29&#45;&gt;Node11</title>
<g id="a_edge54_Node000029_Node000011"><a xlink:title=" ">
<path fill="none" stroke="#63b8ff" d="M1015.81,-164.98C977.72,-155.77 916.92,-141.05 875.77,-131.09"/>
<polygon fill="#63b8ff" stroke="#63b8ff" points="876.56,-127.68 866.02,-128.73 874.91,-134.49 876.56,-127.68"/>
</a>
</g>
</g>
<!-- Node29&#45;&gt;Node13 -->
<g id="edge56_Node000029_Node000013" class="edge">
<title>Node29&#45;&gt;Node13</title>
<g id="a_edge56_Node000029_Node000013"><a xlink:title=" ">
<path fill="none" stroke="#63b8ff" d="M986.79,-166.65C885.07,-155.8 689.28,-134.93 600.18,-125.43"/>
<polygon fill="#63b8ff" stroke="#63b8ff" points="600.43,-121.93 590.11,-124.35 599.69,-128.89 600.43,-121.93"/>
</a>
</g>
</g>
<!-- Node29&#45;&gt;Node19 -->
<g id="edge58_Node000029_Node000019" class="edge">
<title>Node29&#45;&gt;Node19</title>
<g id="a_edge58_Node000029_Node000019"><a xlink:title=" ">
<path fill="none" stroke="#63b8ff" d="M1099.52,-164.98C1152.61,-155.67 1237.69,-140.74 1294.44,-130.78"/>
<polygon fill="#63b8ff" stroke="#63b8ff" points="1295.1,-134.21 1304.35,-129.04 1293.89,-127.32 1295.1,-134.21"/>
</a>
</g>
</g>
<!-- Node29&#45;&gt;Node21 -->
<g id="edge49_Node000029_Node000021" class="edge">
<title>Node29&#45;&gt;Node21</title>
<g id="a_edge49_Node000029_Node000021"><a xlink:title=" ">
<path fill="none" stroke="#63b8ff" d="M1115.29,-174.09C1207.72,-173.58 1371.79,-167.11 1415,-129 1427.51,-117.96 1430.94,-98.71 1431.58,-84.29"/>
<polygon fill="#63b8ff" stroke="#63b8ff" points="1435.08,-84.02 1431.62,-74.01 1428.08,-84 1435.08,-84.02"/>
</a>
</g>
</g>
<!-- Node29&#45;&gt;Node22 -->
<g id="edge51_Node000029_Node000022" class="edge">
<title>Node29&#45;&gt;Node22</title>
<g id="a_edge51_Node000029_Node000022"><a xlink:title=" ">
<path fill="none" stroke="#63b8ff" d="M1115.18,-170.85C1209.28,-166.17 1379.55,-154.4 1435,-129 1458.01,-118.46 1478.52,-97.3 1491.08,-82.3"/>
<polygon fill="#63b8ff" stroke="#63b8ff" points="1493.97,-84.3 1497.52,-74.32 1488.52,-79.91 1493.97,-84.3"/>
</a>
</g>
</g>
<!-- Node29&#45;&gt;Node24 -->
<g id="edge52_Node000029_Node000024" class="edge">
<title>Node29&#45;&gt;Node24</title>
<g id="a_edge52_Node000029_Node000024"><a xlink:title=" ">
<path fill="none" stroke="#63b8ff" d="M986.69,-165.57C961.13,-159.4 933.28,-148.45 914,-129 902.19,-117.08 897.34,-98.26 895.36,-84.19"/>
<polygon fill="#63b8ff" stroke="#63b8ff" points="898.83,-83.74 894.3,-74.16 891.87,-84.47 898.83,-83.74"/>
</a>
</g>
</g>
<!-- Node29&#45;&gt;Node28 -->
<g id="edge50_Node000029_Node000028" class="edge">
<title>Node29&#45;&gt;Node28</title>
<g id="a_edge50_Node000029_Node000028"><a xlink:title=" ">
<path fill="none" stroke="#63b8ff" d="M1115.08,-168.86C1174.18,-162.24 1248.12,-146.53 1215,-110 1187.56,-79.72 889.4,-80.16 849,-74 846.92,-73.68 844.79,-73.33 842.65,-72.95"/>
<polygon fill="#63b8ff" stroke="#63b8ff" points="843.12,-69.48 832.64,-71.05 841.81,-76.36 843.12,-69.48"/>
</a>
</g>
</g>
<!-- Node30 -->
<g id="Node000030" class="node">
<title>Node30</title>
<g id="a_Node000030"><a xlink:title=" ">
<polygon fill="#e0e0e0" stroke="#999999" points="979.5,-129 922.5,-129 922.5,-110 979.5,-110 979.5,-129"/>
<text text-anchor="middle" x="951" y="-117" font-family="Helvetica,sans-Serif" font-size="10.00">pthread.h</text>
</a>
</g>
</g>
<!-- Node29&#45;&gt;Node30 -->
<g id="edge47_Node000029_Node000030" class="edge">
<title>Node29&#45;&gt;Node30</title>
<g id="a_edge47_Node000029_Node000030"><a xlink:title=" ">
<path fill="none" stroke="#63b8ff" d="M1034.93,-164.98C1019.14,-156.61 994.78,-143.7 976.37,-133.95"/>
<polygon fill="#63b8ff" stroke="#63b8ff" points="977.83,-130.76 967.36,-129.17 974.56,-136.95 977.83,-130.76"/>
</a>
</g>
</g>
<!-- Node31 -->
<g id="Node000031" class="node">
<title>Node31</title>
<g id="a_Node000031"><a xlink:title=" ">
<polygon fill="#e0e0e0" stroke="#999999" points="1054,-129 998,-129 998,-110 1054,-110 1054,-129"/>
<text text-anchor="middle" x="1026" y="-117" font-family="Helvetica,sans-Serif" font-size="10.00">stdbool.h</text>
</a>
</g>
</g>
<!-- Node29&#45;&gt;Node31 -->
<g id="edge48_Node000029_Node000031" class="edge">
<title>Node29&#45;&gt;Node31</title>
<g id="a_edge48_Node000029_Node000031"><a xlink:title=" ">
<path fill="none" stroke="#63b8ff" d="M1046.87,-164.75C1043.49,-157.57 1038.58,-147.18 1034.38,-138.27"/>
<polygon fill="#63b8ff" stroke="#63b8ff" points="1037.48,-136.64 1030.05,-129.09 1031.15,-139.63 1037.48,-136.64"/>
</a>
</g>
</g>
<!-- Node32 -->
<g id="Node000032" class="node">
<title>Node32</title>
<g id="a_Node000032"><a xlink:title=" ">
<polygon fill="#e0e0e0" stroke="#999999" points="1134,-129 1072,-129 1072,-110 1134,-110 1134,-129"/>
<text text-anchor="middle" x="1103" y="-117" font-family="Helvetica,sans-Serif" font-size="10.00">sys/time.h</text>
</a>
</g>
</g>
<!-- Node29&#45;&gt;Node32 -->
<g id="edge53_Node000029_Node000032" class="edge">
<title>Node29&#45;&gt;Node32</title>
<g id="a_edge53_Node000029_Node000032"><a xlink:title=" ">
<path fill="none" stroke="#63b8ff" d="M1059.59,-164.75C1067.16,-157.03 1078.38,-145.6 1087.51,-136.28"/>
<polygon fill="#63b8ff" stroke="#63b8ff" points="1090.07,-138.68 1094.57,-129.09 1085.07,-133.78 1090.07,-138.68"/>
</a>
</g>
</g>
<!-- Node33 -->
<g id="Node000033" class="node">
<title>Node33</title>
<g id="a_Node000033"><a xlink:title=" ">
<polygon fill="#e0e0e0" stroke="#999999" points="1206,-129 1152,-129 1152,-110 1206,-110 1206,-129"/>
<text text-anchor="middle" x="1179" y="-117" font-family="Helvetica,sans-Serif" font-size="10.00">sys/un.h</text>
</a>
</g>
</g>
<!-- Node29&#45;&gt;Node33 -->
<g id="edge55_Node000029_Node000033" class="edge">
<title>Node29&#45;&gt;Node33</title>
<g id="a_edge55_Node000029_Node000033"><a xlink:title=" ">
<path fill="none" stroke="#63b8ff" d="M1071.57,-164.98C1092.43,-156.34 1124.97,-142.87 1148.77,-133.02"/>
<polygon fill="#63b8ff" stroke="#63b8ff" points="1150.16,-136.23 1158.06,-129.17 1147.48,-129.76 1150.16,-136.23"/>
</a>
</g>
</g>
<!-- Node35 -->
<g id="Node000035" class="node">
<title>Node35</title>
<g id="a_Node000035"><a xlink:title=" ">
<polygon fill="#e0e0e0" stroke="#999999" points="749,-239 677,-239 677,-220 749,-220 749,-239"/>
<text text-anchor="middle" x="713" y="-227" font-family="Helvetica,sans-Serif" font-size="10.00">openssl/err.h</text>
</a>
</g>
</g>
<!-- Node34&#45;&gt;Node35 -->
<g id="edge60_Node000034_Node000035" class="edge">
<title>Node34&#45;&gt;Node35</title>
<g id="a_edge60_Node000034_Node000035"><a xlink:title=" ">
<path fill="none" stroke="#63b8ff" d="M606.4,-274.98C627.02,-266.38 659.11,-252.99 682.69,-243.15"/>
<polygon fill="#63b8ff" stroke="#63b8ff" points="684.34,-246.25 692.22,-239.17 681.65,-239.79 684.34,-246.25"/>
</a>
</g>
</g>
<!-- Node34&#45;&gt;Node36 -->
<g id="edge61_Node000034_Node000036" class="edge">
<title>Node34&#45;&gt;Node36</title>
<g id="a_edge61_Node000034_Node000036"><a xlink:title=" ">
<path fill="none" stroke="#63b8ff" d="M557.56,-274.98C527.72,-266.05 480.62,-251.94 447.47,-242.02"/>
<polygon fill="#63b8ff" stroke="#63b8ff" points="448.24,-238.6 437.66,-239.08 446.24,-245.3 448.24,-238.6"/>
</a>
</g>
</g>
<!-- Node37 -->
<g id="Node000037" class="node">
<title>Node37</title>
<g id="a_Node000037"><a xlink:title=" ">
<polygon fill="#e0e0e0" stroke="#999999" points="547.5,-239 464.5,-239 464.5,-220 547.5,-220 547.5,-239"/>
<text text-anchor="middle" x="506" y="-227" font-family="Helvetica,sans-Serif" font-size="10.00">openssl/x509.h</text>
</a>
</g>
</g>
<!-- Node34&#45;&gt;Node37 -->
<g id="edge62_Node000034_Node000037" class="edge">
<title>Node34&#45;&gt;Node37</title>
<g id="a_edge62_Node000034_Node000037"><a xlink:title=" ">
<path fill="none" stroke="#63b8ff" d="M573.15,-274.98C560.86,-266.84 542.09,-254.41 527.52,-244.76"/>
<polygon fill="#63b8ff" stroke="#63b8ff" points="529.36,-241.78 519.09,-239.17 525.49,-247.61 529.36,-241.78"/>
</a>
</g>
</g>
<!-- Node38 -->
<g id="Node000038" class="node">
<title>Node38</title>
<g id="a_Node000038"><a xlink:title=" ">
<polygon fill="#e0e0e0" stroke="#999999" points="658.5,-239 565.5,-239 565.5,-220 658.5,-220 658.5,-239"/>
<text text-anchor="middle" x="612" y="-227" font-family="Helvetica,sans-Serif" font-size="10.00">openssl/x509v3.h</text>
</a>
</g>
</g>
<!-- Node34&#45;&gt;Node38 -->
<g id="edge63_Node000034_Node000038" class="edge">
<title>Node34&#45;&gt;Node38</title>
<g id="a_edge63_Node000034_Node000038"><a xlink:title=" ">
<path fill="none" stroke="#63b8ff" d="M590.29,-274.75C593.81,-267.57 598.91,-257.18 603.28,-248.27"/>
<polygon fill="#63b8ff" stroke="#63b8ff" points="606.52,-249.61 607.79,-239.09 600.24,-246.53 606.52,-249.61"/>
</a>
</g>
</g>
</g>
</svg>
