<?xml version="1.0" encoding="UTF-8" standalone="no"?>
<!DOCTYPE svg PUBLIC "-//W3C//DTD SVG 1.1//EN"
 "http://www.w3.org/Graphics/SVG/1.1/DTD/svg11.dtd">
<!-- Generated by graphviz version 2.43.0 (0)
 -->
<!-- Title: http_server.c Pages: 1 -->
<svg width="1918pt" height="467pt"
 viewBox="0.00 0.00 1917.50 467.00" xmlns="http://www.w3.org/2000/svg" xmlns:xlink="http://www.w3.org/1999/xlink">
<g id="graph0" class="graph" transform="scale(1 1) rotate(0) translate(4 463)">
<title>http_server.c</title>
<!-- Node1 -->
<g id="Node000001" class="node">
<title>Node1</title>
<g id="a_Node000001"><a xlink:title=" ">
<polygon fill="#999999" stroke="#666666" points="1568.5,-459 1495.5,-459 1495.5,-440 1568.5,-440 1568.5,-459"/>
<text text-anchor="middle" x="1532" y="-447" font-family="Helvetica,sans-Serif" font-size="10.00">http_server.c</text>
</a>
</g>
</g>
<!-- Node2 -->
<g id="Node000002" class="node">
<title>Node2</title>
<g id="a_Node000002"><a xlink:title=" ">
<polygon fill="#e0e0e0" stroke="#999999" points="205,-404 155,-404 155,-385 205,-385 205,-404"/>
<text text-anchor="middle" x="180" y="-392" font-family="Helvetica,sans-Serif" font-size="10.00">signal.h</text>
</a>
</g>
</g>
<!-- Node1&#45;&gt;Node2 -->
<g id="edge1_Node000001_Node000002" class="edge">
<title>Node1&#45;&gt;Node2</title>
<g id="a_edge1_Node000001_Node000002"><a xlink:title=" ">
<path fill="none" stroke="#63b8ff" d="M1495.46,-448.15C1310.49,-446.27 476.02,-436.1 219,-404 217.72,-403.84 216.43,-403.66 215.12,-403.46"/>
<polygon fill="#63b8ff" stroke="#63b8ff" points="215.52,-399.98 205.06,-401.66 214.29,-406.87 215.52,-399.98"/>
</a>
</g>
</g>
<!-- Node3 -->
<g id="Node000003" class="node">
<title>Node3</title>
<g id="a_Node000003"><a xlink:title=" ">
<polygon fill="#e0e0e0" stroke="#999999" points="46,-74 0,-74 0,-55 46,-55 46,-74"/>
<text text-anchor="middle" x="23" y="-62" font-family="Helvetica,sans-Serif" font-size="10.00">stdio.h</text>
</a>
</g>
</g>
<!-- Node1&#45;&gt;Node3 -->
<g id="edge2_Node000001_Node000003" class="edge">
<title>Node1&#45;&gt;Node3</title>
<g id="a_edge2_Node000001_Node000003"><a xlink:title=" ">
<path fill="none" stroke="#63b8ff" d="M1495.22,-447.42C1283.82,-440.97 233,-405.63 233,-340.5 233,-340.5 233,-340.5 233,-173.5 233,-134.16 115,-93.11 55.91,-75.02"/>
<polygon fill="#63b8ff" stroke="#63b8ff" points="56.86,-71.66 46.28,-72.12 54.84,-78.36 56.86,-71.66"/>
</a>
</g>
</g>
<!-- Node4 -->
<g id="Node000004" class="node">
<title>Node4</title>
<g id="a_Node000004"><a xlink:title=" ">
<polygon fill="#e0e0e0" stroke="#999999" points="1842,-404 1794,-404 1794,-385 1842,-385 1842,-404"/>
<text text-anchor="middle" x="1818" y="-392" font-family="Helvetica,sans-Serif" font-size="10.00">stdlib.h</text>
</a>
</g>
</g>
<!-- Node1&#45;&gt;Node4 -->
<g id="edge3_Node000001_Node000004" class="edge">
<title>Node1&#45;&gt;Node4</title>
<g id="a_edge3_Node000001_Node000004"><a xlink:title=" ">
<path fill="none" stroke="#63b8ff" d="M1568.65,-442.42C1617.13,-434.27 1705.17,-419.08 1780,-404 1781.27,-403.74 1782.56,-403.48 1783.86,-403.21"/>
<polygon fill="#63b8ff" stroke="#63b8ff" points="1784.87,-406.57 1793.91,-401.05 1783.4,-399.73 1784.87,-406.57"/>
</a>
</g>
</g>
<!-- Node5 -->
<g id="Node000005" class="node">
<title>Node5</title>
<g id="a_Node000005"><a xlink:title=" ">
<polygon fill="#e0e0e0" stroke="#999999" points="1909.5,-404 1860.5,-404 1860.5,-385 1909.5,-385 1909.5,-404"/>
<text text-anchor="middle" x="1885" y="-392" font-family="Helvetica,sans-Serif" font-size="10.00">string.h</text>
</a>
</g>
</g>
<!-- Node1&#45;&gt;Node5 -->
<g id="edge4_Node000001_Node000005" class="edge">
<title>Node1&#45;&gt;Node5</title>
<g id="a_edge4_Node000001_Node000005"><a xlink:title=" ">
<path fill="none" stroke="#63b8ff" d="M1568.57,-444.68C1626.28,-438.37 1742.16,-424.59 1850.1,-403.98"/>
<polygon fill="#63b8ff" stroke="#63b8ff" points="1851.03,-407.36 1860.19,-402.03 1849.7,-400.49 1851.03,-407.36"/>
</a>
</g>
</g>
<!-- Node6 -->
<g id="Node000006" class="node">
<title>Node6</title>
<g id="a_Node000006"><a xlink:href="Except_8h.html" target="_top" xlink:title="Structured exception handling for C with TRY/EXCEPT/FINALLY blocks.">
<polygon fill="white" stroke="#666666" points="1330.5,-74 1253.5,-74 1253.5,-55 1330.5,-55 1330.5,-74"/>
<text text-anchor="middle" x="1292" y="-62" font-family="Helvetica,sans-Serif" font-size="10.00">core/Except.h</text>
</a>
</g>
</g>
<!-- Node1&#45;&gt;Node6 -->
<g id="edge5_Node000001_Node000006" class="edge">
<title>Node1&#45;&gt;Node6</title>
<g id="a_edge5_Node000001_Node000006"><a xlink:title=" ">
<path fill="none" stroke="#63b8ff" d="M1568.56,-447.73C1634.38,-444.2 1766,-426.41 1766,-340.5 1766,-340.5 1766,-340.5 1766,-173.5 1766,-86.98 1461.97,-69.77 1340.9,-66.35"/>
<polygon fill="#63b8ff" stroke="#63b8ff" points="1340.88,-62.85 1330.79,-66.08 1340.69,-69.85 1340.88,-62.85"/>
</a>
</g>
</g>
<!-- Node8 -->
<g id="Node000008" class="node">
<title>Node8</title>
<g id="a_Node000008"><a xlink:href="SocketHTTP_8h.html" target="_top" xlink:title="Protocol&#45;agnostic HTTP types, header handling, URI parsing, and utilities.">
<polygon fill="white" stroke="#666666" points="1542,-184 1442,-184 1442,-165 1542,-165 1542,-184"/>
<text text-anchor="middle" x="1492" y="-172" font-family="Helvetica,sans-Serif" font-size="10.00">http/SocketHTTP.h</text>
</a>
</g>
</g>
<!-- Node1&#45;&gt;Node8 -->
<g id="edge7_Node000001_Node000008" class="edge">
<title>Node1&#45;&gt;Node8</title>
<g id="a_edge7_Node000001_Node000008"><a xlink:title=" ">
<path fill="none" stroke="#63b8ff" d="M1532,-439.82C1532,-421.48 1532,-377.44 1532,-340.5 1532,-340.5 1532,-340.5 1532,-283.5 1532,-249.67 1514.53,-213.38 1502.68,-192.66"/>
<polygon fill="#63b8ff" stroke="#63b8ff" points="1505.68,-190.86 1497.56,-184.06 1499.66,-194.44 1505.68,-190.86"/>
</a>
</g>
</g>
<!-- Node14 -->
<g id="Node000014" class="node">
<title>Node14</title>
<g id="a_Node000014"><a xlink:href="SocketHTTPServer_8h.html" target="_top" xlink:title="High&#45;level HTTP server supporting HTTP/1.1 and HTTP/2 protocols.">
<polygon fill="white" stroke="#666666" points="1390.5,-404 1261.5,-404 1261.5,-385 1390.5,-385 1390.5,-404"/>
<text text-anchor="middle" x="1326" y="-392" font-family="Helvetica,sans-Serif" font-size="10.00">http/SocketHTTPServer.h</text>
</a>
</g>
</g>
<!-- Node1&#45;&gt;Node14 -->
<g id="edge16_Node000001_Node000014" class="edge">
<title>Node1&#45;&gt;Node14</title>
<g id="a_edge16_Node000001_Node000014"><a xlink:title=" ">
<path fill="none" stroke="#63b8ff" d="M1498.9,-439.98C1463.72,-430.93 1407.93,-416.58 1369.28,-406.64"/>
<polygon fill="#63b8ff" stroke="#63b8ff" points="1369.91,-403.18 1359.36,-404.08 1368.17,-409.96 1369.91,-403.18"/>
</a>
</g>
</g>
<!-- Node7 -->
<g id="Node000007" class="node">
<title>Node7</title>
<g id="a_Node000007"><a xlink:title=" ">
<polygon fill="#e0e0e0" stroke="#999999" points="1319,-19 1265,-19 1265,0 1319,0 1319,-19"/>
<text text-anchor="middle" x="1292" y="-7" font-family="Helvetica,sans-Serif" font-size="10.00">setjmp.h</text>
</a>
</g>
</g>
<!-- Node6&#45;&gt;Node7 -->
<g id="edge6_Node000006_Node000007" class="edge">
<title>Node6&#45;&gt;Node7</title>
<g id="a_edge6_Node000006_Node000007"><a xlink:title=" ">
<path fill="none" stroke="#63b8ff" d="M1292,-54.75C1292,-47.8 1292,-37.85 1292,-29.13"/>
<polygon fill="#63b8ff" stroke="#63b8ff" points="1295.5,-29.09 1292,-19.09 1288.5,-29.09 1295.5,-29.09"/>
</a>
</g>
</g>
<!-- Node8&#45;&gt;Node6 -->
<g id="edge15_Node000008_Node000006" class="edge">
<title>Node8&#45;&gt;Node6</title>
<g id="a_edge15_Node000008_Node000006"><a xlink:title=" ">
<path fill="none" stroke="#63b8ff" d="M1502.06,-164.99C1516.1,-152.11 1538.31,-127.32 1524,-110 1501.22,-82.43 1401.79,-71.77 1340.73,-67.78"/>
<polygon fill="#63b8ff" stroke="#63b8ff" points="1340.74,-64.27 1330.54,-67.15 1340.31,-71.26 1340.74,-64.27"/>
</a>
</g>
</g>
<!-- Node9 -->
<g id="Node000009" class="node">
<title>Node9</title>
<g id="a_Node000009"><a xlink:title=" ">
<polygon fill="#e0e0e0" stroke="#999999" points="1097,-74 1045,-74 1045,-55 1097,-55 1097,-74"/>
<text text-anchor="middle" x="1071" y="-62" font-family="Helvetica,sans-Serif" font-size="10.00">stddef.h</text>
</a>
</g>
</g>
<!-- Node8&#45;&gt;Node9 -->
<g id="edge8_Node000008_Node000009" class="edge">
<title>Node8&#45;&gt;Node9</title>
<g id="a_edge8_Node000008_Node000009"><a xlink:title=" ">
<path fill="none" stroke="#63b8ff" d="M1473.47,-164.8C1443.81,-151.2 1383.54,-124.93 1330,-110 1252.04,-88.27 1157.77,-75.29 1107.22,-69.36"/>
<polygon fill="#63b8ff" stroke="#63b8ff" points="1107.45,-65.87 1097.12,-68.21 1106.65,-72.82 1107.45,-65.87"/>
</a>
</g>
</g>
<!-- Node10 -->
<g id="Node000010" class="node">
<title>Node10</title>
<g id="a_Node000010"><a xlink:title=" ">
<polygon fill="#e0e0e0" stroke="#999999" points="1620.5,-129 1571.5,-129 1571.5,-110 1620.5,-110 1620.5,-129"/>
<text text-anchor="middle" x="1596" y="-117" font-family="Helvetica,sans-Serif" font-size="10.00">stdint.h</text>
</a>
</g>
</g>
<!-- Node8&#45;&gt;Node10 -->
<g id="edge9_Node000008_Node000010" class="edge">
<title>Node8&#45;&gt;Node10</title>
<g id="a_edge9_Node000008_Node000010"><a xlink:title=" ">
<path fill="none" stroke="#63b8ff" d="M1508.71,-164.98C1525.21,-156.57 1550.7,-143.59 1569.88,-133.81"/>
<polygon fill="#63b8ff" stroke="#63b8ff" points="1571.67,-136.83 1578.99,-129.17 1568.49,-130.59 1571.67,-136.83"/>
</a>
</g>
</g>
<!-- Node11 -->
<g id="Node000011" class="node">
<title>Node11</title>
<g id="a_Node000011"><a xlink:title=" ">
<polygon fill="#e0e0e0" stroke="#999999" points="1301,-129 1233,-129 1233,-110 1301,-110 1301,-129"/>
<text text-anchor="middle" x="1267" y="-117" font-family="Helvetica,sans-Serif" font-size="10.00">sys/types.h</text>
</a>
</g>
</g>
<!-- Node8&#45;&gt;Node11 -->
<g id="edge10_Node000008_Node000011" class="edge">
<title>Node8&#45;&gt;Node11</title>
<g id="a_edge10_Node000008_Node000011"><a xlink:title=" ">
<path fill="none" stroke="#63b8ff" d="M1455.85,-164.98C1416.4,-155.69 1353.25,-140.82 1310.96,-130.86"/>
<polygon fill="#63b8ff" stroke="#63b8ff" points="1311.75,-127.45 1301.22,-128.56 1310.15,-134.26 1311.75,-127.45"/>
</a>
</g>
</g>
<!-- Node12 -->
<g id="Node000012" class="node">
<title>Node12</title>
<g id="a_Node000012"><a xlink:title=" ">
<polygon fill="#e0e0e0" stroke="#999999" points="1515,-129 1471,-129 1471,-110 1515,-110 1515,-129"/>
<text text-anchor="middle" x="1493" y="-117" font-family="Helvetica,sans-Serif" font-size="10.00">time.h</text>
</a>
</g>
</g>
<!-- Node8&#45;&gt;Node12 -->
<g id="edge11_Node000008_Node000012" class="edge">
<title>Node8&#45;&gt;Node12</title>
<g id="a_edge11_Node000008_Node000012"><a xlink:title=" ">
<path fill="none" stroke="#63b8ff" d="M1492.17,-164.75C1492.3,-157.8 1492.48,-147.85 1492.65,-139.13"/>
<polygon fill="#63b8ff" stroke="#63b8ff" points="1496.15,-139.15 1492.84,-129.09 1489.15,-139.02 1496.15,-139.15"/>
</a>
</g>
</g>
<!-- Node13 -->
<g id="Node000013" class="node">
<title>Node13</title>
<g id="a_Node000013"><a xlink:href="Arena_8h.html" target="_top" xlink:title="Arena&#45;based memory allocator for efficient bulk memory management.">
<polygon fill="white" stroke="#666666" points="1215,-129 1143,-129 1143,-110 1215,-110 1215,-129"/>
<text text-anchor="middle" x="1179" y="-117" font-family="Helvetica,sans-Serif" font-size="10.00">core/Arena.h</text>
</a>
</g>
</g>
<!-- Node8&#45;&gt;Node13 -->
<g id="edge12_Node000008_Node000013" class="edge">
<title>Node8&#45;&gt;Node13</title>
<g id="a_edge12_Node000008_Node000013"><a xlink:title=" ">
<path fill="none" stroke="#63b8ff" d="M1441.56,-165.47C1389.75,-157.14 1306.52,-143.55 1225.24,-129.19"/>
<polygon fill="#63b8ff" stroke="#63b8ff" points="1225.79,-125.73 1215.34,-127.44 1224.57,-132.63 1225.79,-125.73"/>
</a>
</g>
</g>
<!-- Node13&#45;&gt;Node6 -->
<g id="edge14_Node000013_Node000006" class="edge">
<title>Node13&#45;&gt;Node6</title>
<g id="a_edge14_Node000013_Node000006"><a xlink:title=" ">
<path fill="none" stroke="#63b8ff" d="M1197.16,-109.98C1215.25,-101.5 1243.28,-88.35 1264.19,-78.54"/>
<polygon fill="#63b8ff" stroke="#63b8ff" points="1265.95,-81.59 1273.51,-74.17 1262.97,-75.25 1265.95,-81.59"/>
</a>
</g>
</g>
<!-- Node13&#45;&gt;Node9 -->
<g id="edge13_Node000013_Node000009" class="edge">
<title>Node13&#45;&gt;Node9</title>
<g id="a_edge13_Node000013_Node000009"><a xlink:title=" ">
<path fill="none" stroke="#63b8ff" d="M1161.65,-109.98C1144.43,-101.54 1117.8,-88.47 1097.85,-78.68"/>
<polygon fill="#63b8ff" stroke="#63b8ff" points="1099.19,-75.43 1088.67,-74.17 1096.1,-81.72 1099.19,-75.43"/>
</a>
</g>
</g>
<!-- Node14&#45;&gt;Node6 -->
<g id="edge21_Node000014_Node000006" class="edge">
<title>Node14&#45;&gt;Node6</title>
<g id="a_edge21_Node000014_Node000006"><a xlink:title=" ">
<path fill="none" stroke="#63b8ff" d="M1340.53,-384.83C1365.53,-368.69 1414,-331.45 1414,-285.5 1414,-285.5 1414,-285.5 1414,-228.5 1414,-170.44 1399.65,-151.46 1359,-110 1346.93,-97.69 1330.91,-86.9 1317.56,-79.03"/>
<polygon fill="#63b8ff" stroke="#63b8ff" points="1319.25,-75.96 1308.83,-74.06 1315.79,-82.05 1319.25,-75.96"/>
</a>
</g>
</g>
<!-- Node14&#45;&gt;Node8 -->
<g id="edge27_Node000014_Node000008" class="edge">
<title>Node14&#45;&gt;Node8</title>
<g id="a_edge27_Node000014_Node000008"><a xlink:title=" ">
<path fill="none" stroke="#63b8ff" d="M1363.77,-384.89C1385.13,-378.28 1410.9,-367.13 1428,-349 1470.17,-304.31 1485.05,-229.48 1489.88,-194.55"/>
<polygon fill="#63b8ff" stroke="#63b8ff" points="1493.39,-194.69 1491.16,-184.33 1486.45,-193.82 1493.39,-194.69"/>
</a>
</g>
</g>
<!-- Node14&#45;&gt;Node9 -->
<g id="edge17_Node000014_Node000009" class="edge">
<title>Node14&#45;&gt;Node9</title>
<g id="a_edge17_Node000014_Node000009"><a xlink:title=" ">
<path fill="none" stroke="#63b8ff" d="M1286.01,-384.94C1263.01,-378.32 1234.84,-367.15 1215,-349 1130.55,-271.73 1088.43,-133.65 1075.48,-83.95"/>
<polygon fill="#63b8ff" stroke="#63b8ff" points="1078.81,-82.86 1072.97,-74.02 1072.02,-84.57 1078.81,-82.86"/>
</a>
</g>
</g>
<!-- Node14&#45;&gt;Node10 -->
<g id="edge18_Node000014_Node000010" class="edge">
<title>Node14&#45;&gt;Node10</title>
<g id="a_edge18_Node000014_Node000010"><a xlink:title=" ">
<path fill="none" stroke="#63b8ff" d="M1369.87,-384.99C1395.04,-378.42 1426.1,-367.26 1449,-349 1523.46,-289.63 1571.9,-181.79 1589.05,-138.85"/>
<polygon fill="#63b8ff" stroke="#63b8ff" points="1592.37,-139.99 1592.74,-129.4 1585.84,-137.45 1592.37,-139.99"/>
</a>
</g>
</g>
<!-- Node14&#45;&gt;Node11 -->
<g id="edge19_Node000014_Node000011" class="edge">
<title>Node14&#45;&gt;Node11</title>
<g id="a_edge19_Node000014_Node000011"><a xlink:title=" ">
<path fill="none" stroke="#63b8ff" d="M1311.47,-384.83C1286.47,-368.69 1238,-331.45 1238,-285.5 1238,-285.5 1238,-285.5 1238,-228.5 1238,-195.95 1250.44,-159.71 1259.03,-138.57"/>
<polygon fill="#63b8ff" stroke="#63b8ff" points="1262.3,-139.82 1262.97,-129.25 1255.85,-137.09 1262.3,-139.82"/>
</a>
</g>
</g>
<!-- Node14&#45;&gt;Node13 -->
<g id="edge20_Node000014_Node000013" class="edge">
<title>Node14&#45;&gt;Node13</title>
<g id="a_edge20_Node000014_Node000013"><a xlink:title=" ">
<path fill="none" stroke="#63b8ff" d="M1300.8,-384.91C1264.03,-370.58 1200,-338.08 1200,-285.5 1200,-285.5 1200,-285.5 1200,-228.5 1200,-196.46 1190.98,-160.03 1184.77,-138.73"/>
<polygon fill="#63b8ff" stroke="#63b8ff" points="1188.09,-137.62 1181.83,-129.07 1181.39,-139.65 1188.09,-137.62"/>
</a>
</g>
</g>
<!-- Node15 -->
<g id="Node000015" class="node">
<title>Node15</title>
<g id="a_Node000015"><a xlink:href="SocketRateLimit_8h.html" target="_top" xlink:title="Token bucket rate limiter for controlling operation rates.">
<polygon fill="white" stroke="#666666" points="1385.5,-184 1266.5,-184 1266.5,-165 1385.5,-165 1385.5,-184"/>
<text text-anchor="middle" x="1326" y="-172" font-family="Helvetica,sans-Serif" font-size="10.00">core/SocketRateLimit.h</text>
</a>
</g>
</g>
<!-- Node14&#45;&gt;Node15 -->
<g id="edge22_Node000014_Node000015" class="edge">
<title>Node14&#45;&gt;Node15</title>
<g id="a_edge22_Node000014_Node000015"><a xlink:title=" ">
<path fill="none" stroke="#63b8ff" d="M1326,-384.95C1326,-352.95 1326,-239.68 1326,-194.4"/>
<polygon fill="#63b8ff" stroke="#63b8ff" points="1329.5,-194.22 1326,-184.22 1322.5,-194.22 1329.5,-194.22"/>
</a>
</g>
</g>
<!-- Node16 -->
<g id="Node000016" class="node">
<title>Node16</title>
<g id="a_Node000016"><a xlink:href="SocketPoll_8h.html" target="_top" xlink:title="Cross&#45;platform high&#45;level interface for monitoring multiple sockets for I/O events.">
<polygon fill="white" stroke="#666666" points="1690,-294 1600,-294 1600,-275 1690,-275 1690,-294"/>
<text text-anchor="middle" x="1645" y="-282" font-family="Helvetica,sans-Serif" font-size="10.00">poll/SocketPoll.h</text>
</a>
</g>
</g>
<!-- Node14&#45;&gt;Node16 -->
<g id="edge28_Node000014_Node000016" class="edge">
<title>Node14&#45;&gt;Node16</title>
<g id="a_edge28_Node000014_Node000016"><a xlink:title=" ">
<path fill="none" stroke="#63b8ff" d="M1371.21,-385C1408.47,-377.38 1462.41,-364.97 1508,-349 1548.32,-334.88 1592.83,-313 1619.85,-298.96"/>
<polygon fill="#63b8ff" stroke="#63b8ff" points="1621.75,-301.92 1628.98,-294.18 1618.5,-295.72 1621.75,-301.92"/>
</a>
</g>
</g>
<!-- Node18 -->
<g id="Node000018" class="node">
<title>Node18</title>
<g id="a_Node000018"><a xlink:href="Socket_8h.html" target="_top" xlink:title="High&#45;level TCP/IP and Unix domain socket interface.">
<polygon fill="white" stroke="#666666" points="958,-239 870,-239 870,-220 958,-220 958,-239"/>
<text text-anchor="middle" x="914" y="-227" font-family="Helvetica,sans-Serif" font-size="10.00">socket/Socket.h</text>
</a>
</g>
</g>
<!-- Node14&#45;&gt;Node18 -->
<g id="edge63_Node000014_Node000018" class="edge">
<title>Node14&#45;&gt;Node18</title>
<g id="a_edge63_Node000014_Node000018"><a xlink:title=" ">
<path fill="none" stroke="#63b8ff" d="M1261.24,-393.41C1183.97,-391.62 1051.71,-383.18 944,-349 895.28,-333.54 869.11,-337.94 843,-294 830.32,-272.66 856.91,-254.52 881.08,-243.16"/>
<polygon fill="#63b8ff" stroke="#63b8ff" points="882.75,-246.25 890.48,-239 879.92,-239.84 882.75,-246.25"/>
</a>
</g>
</g>
<!-- Node34 -->
<g id="Node000034" class="node">
<title>Node34</title>
<g id="a_Node000034"><a xlink:href="SocketTLSContext_8h.html" target="_top" xlink:title="TLS context management with secure defaults and certificate handling.">
<polygon fill="white" stroke="#666666" points="1075,-349 953,-349 953,-330 1075,-330 1075,-349"/>
<text text-anchor="middle" x="1014" y="-337" font-family="Helvetica,sans-Serif" font-size="10.00">tls/SocketTLSContext.h</text>
</a>
</g>
</g>
<!-- Node14&#45;&gt;Node34 -->
<g id="edge64_Node000014_Node000034" class="edge">
<title>Node14&#45;&gt;Node34</title>
<g id="a_edge64_Node000014_Node000034"><a xlink:title=" ">
<path fill="none" stroke="#63b8ff" d="M1275.87,-384.98C1220.91,-375.65 1132.77,-360.67 1074.13,-350.71"/>
<polygon fill="#63b8ff" stroke="#63b8ff" points="1074.71,-347.26 1064.26,-349.04 1073.53,-354.16 1074.71,-347.26"/>
</a>
</g>
</g>
<!-- Node15&#45;&gt;Node6 -->
<g id="edge24_Node000015_Node000006" class="edge">
<title>Node15&#45;&gt;Node6</title>
<g id="a_edge24_Node000015_Node000006"><a xlink:title=" ">
<path fill="none" stroke="#63b8ff" d="M1331.85,-164.98C1339.64,-152.5 1351.5,-128.7 1343,-110 1337.38,-97.63 1326.43,-87.36 1316.11,-79.81"/>
<polygon fill="#63b8ff" stroke="#63b8ff" points="1317.97,-76.84 1307.73,-74.12 1314.04,-82.63 1317.97,-76.84"/>
</a>
</g>
</g>
<!-- Node15&#45;&gt;Node9 -->
<g id="edge25_Node000015_Node000009" class="edge">
<title>Node15&#45;&gt;Node9</title>
<g id="a_edge25_Node000015_Node000009"><a xlink:title=" ">
<path fill="none" stroke="#63b8ff" d="M1326.53,-164.65C1326.84,-150.86 1325.25,-124.32 1310,-110 1281.19,-82.95 1166.65,-71.66 1107.21,-67.55"/>
<polygon fill="#63b8ff" stroke="#63b8ff" points="1107.34,-64.05 1097.13,-66.89 1106.88,-71.04 1107.34,-64.05"/>
</a>
</g>
</g>
<!-- Node15&#45;&gt;Node10 -->
<g id="edge26_Node000015_Node000010" class="edge">
<title>Node15&#45;&gt;Node10</title>
<g id="a_edge26_Node000015_Node000010"><a xlink:title=" ">
<path fill="none" stroke="#63b8ff" d="M1369.38,-164.98C1422.71,-154.52 1512.15,-136.96 1561.21,-127.33"/>
<polygon fill="#63b8ff" stroke="#63b8ff" points="1562.19,-130.7 1571.32,-125.34 1560.84,-123.84 1562.19,-130.7"/>
</a>
</g>
</g>
<!-- Node15&#45;&gt;Node13 -->
<g id="edge23_Node000015_Node000013" class="edge">
<title>Node15&#45;&gt;Node13</title>
<g id="a_edge23_Node000015_Node000013"><a xlink:title=" ">
<path fill="none" stroke="#63b8ff" d="M1302.38,-164.98C1278.1,-156.23 1240.05,-142.51 1212.63,-132.62"/>
<polygon fill="#63b8ff" stroke="#63b8ff" points="1213.64,-129.27 1203.05,-129.17 1211.27,-135.85 1213.64,-129.27"/>
</a>
</g>
</g>
<!-- Node16&#45;&gt;Node6 -->
<g id="edge29_Node000016_Node000006" class="edge">
<title>Node16&#45;&gt;Node6</title>
<g id="a_edge29_Node000016_Node000006"><a xlink:title=" ">
<path fill="none" stroke="#63b8ff" d="M1653.02,-274.77C1667.41,-258.43 1697.12,-221.51 1708,-184 1719.64,-143.87 1687.78,-127.85 1650,-110 1596.32,-84.64 1425.79,-72.44 1340.93,-67.81"/>
<polygon fill="#63b8ff" stroke="#63b8ff" points="1340.95,-64.31 1330.78,-67.27 1340.58,-71.3 1340.95,-64.31"/>
</a>
</g>
</g>
<!-- Node17 -->
<g id="Node000017" class="node">
<title>Node17</title>
<g id="a_Node000017"><a xlink:href="SocketTimer_8h.html" target="_top" xlink:title="High&#45;performance timer subsystem integrated with the event loop.">
<polygon fill="white" stroke="#666666" points="1699.5,-184 1598.5,-184 1598.5,-165 1699.5,-165 1699.5,-184"/>
<text text-anchor="middle" x="1649" y="-172" font-family="Helvetica,sans-Serif" font-size="10.00">core/SocketTimer.h</text>
</a>
</g>
</g>
<!-- Node16&#45;&gt;Node17 -->
<g id="edge30_Node000016_Node000017" class="edge">
<title>Node16&#45;&gt;Node17</title>
<g id="a_edge30_Node000016_Node000017"><a xlink:title=" ">
<path fill="none" stroke="#63b8ff" d="M1645.33,-274.66C1645.98,-257.17 1647.43,-217.8 1648.3,-194.27"/>
<polygon fill="#63b8ff" stroke="#63b8ff" points="1651.81,-194.28 1648.68,-184.16 1644.81,-194.02 1651.81,-194.28"/>
</a>
</g>
</g>
<!-- Node16&#45;&gt;Node18 -->
<g id="edge33_Node000016_Node000018" class="edge">
<title>Node16&#45;&gt;Node18</title>
<g id="a_edge33_Node000016_Node000018"><a xlink:title=" ">
<path fill="none" stroke="#63b8ff" d="M1599.82,-280.22C1471.82,-270.94 1107.05,-244.5 968.39,-234.44"/>
<polygon fill="#63b8ff" stroke="#63b8ff" points="968.64,-230.95 958.41,-233.72 968.13,-237.93 968.64,-230.95"/>
</a>
</g>
</g>
<!-- Node17&#45;&gt;Node6 -->
<g id="edge31_Node000017_Node000006" class="edge">
<title>Node17&#45;&gt;Node6</title>
<g id="a_edge31_Node000017_Node000006"><a xlink:title=" ">
<path fill="none" stroke="#63b8ff" d="M1649.02,-164.95C1648.56,-151.08 1645.46,-123.82 1629,-110 1586.36,-74.2 1423.51,-67 1340.81,-65.69"/>
<polygon fill="#63b8ff" stroke="#63b8ff" points="1340.7,-62.18 1330.66,-65.55 1340.61,-69.18 1340.7,-62.18"/>
</a>
</g>
</g>
<!-- Node17&#45;&gt;Node10 -->
<g id="edge32_Node000017_Node000010" class="edge">
<title>Node17&#45;&gt;Node10</title>
<g id="a_edge32_Node000017_Node000010"><a xlink:title=" ">
<path fill="none" stroke="#63b8ff" d="M1640.25,-164.75C1632.53,-157.03 1621.1,-145.6 1611.78,-136.28"/>
<polygon fill="#63b8ff" stroke="#63b8ff" points="1614.14,-133.69 1604.59,-129.09 1609.19,-138.64 1614.14,-133.69"/>
</a>
</g>
</g>
<!-- Node18&#45;&gt;Node6 -->
<g id="edge34_Node000018_Node000006" class="edge">
<title>Node18&#45;&gt;Node6</title>
<g id="a_edge34_Node000018_Node000006"><a xlink:title=" ">
<path fill="none" stroke="#63b8ff" d="M921.76,-219.97C942.37,-197.86 1001.17,-138.5 1063,-110 1121.43,-83.07 1195.51,-72.43 1243.33,-68.23"/>
<polygon fill="#63b8ff" stroke="#63b8ff" points="1243.74,-71.71 1253.42,-67.4 1243.16,-64.73 1243.74,-71.71"/>
</a>
</g>
</g>
<!-- Node19 -->
<g id="Node000019" class="node">
<title>Node19</title>
<g id="a_Node000019"><a xlink:href="SocketConfig_8h.html" target="_top" xlink:title="Compile&#45;time and runtime configuration constants, limits, and platform adaptations.">
<polygon fill="white" stroke="#666666" points="367,-129 261,-129 261,-110 367,-110 367,-129"/>
<text text-anchor="middle" x="314" y="-117" font-family="Helvetica,sans-Serif" font-size="10.00">core/SocketConfig.h</text>
</a>
</g>
</g>
<!-- Node18&#45;&gt;Node19 -->
<g id="edge35_Node000018_Node000019" class="edge">
<title>Node18&#45;&gt;Node19</title>
<g id="a_edge35_Node000018_Node000019"><a xlink:title=" ">
<path fill="none" stroke="#63b8ff" d="M869.77,-221.28C866.81,-220.84 863.86,-220.41 861,-220 731.53,-201.64 697.57,-207.84 569,-184 491.57,-169.64 402.63,-145.78 352.9,-131.75"/>
<polygon fill="#63b8ff" stroke="#63b8ff" points="353.77,-128.36 343.2,-129 351.86,-135.1 353.77,-128.36"/>
</a>
</g>
</g>
<!-- Node27 -->
<g id="Node000027" class="node">
<title>Node27</title>
<g id="a_Node000027"><a xlink:href="SocketDNS_8h.html" target="_top" xlink:title="Asynchronous DNS resolution API for non&#45;blocking network applications.">
<polygon fill="white" stroke="#666666" points="935,-129 839,-129 839,-110 935,-110 935,-129"/>
<text text-anchor="middle" x="887" y="-117" font-family="Helvetica,sans-Serif" font-size="10.00">dns/SocketDNS.h</text>
</a>
</g>
</g>
<!-- Node18&#45;&gt;Node27 -->
<g id="edge45_Node000018_Node000027" class="edge">
<title>Node18&#45;&gt;Node27</title>
<g id="a_edge45_Node000018_Node000027"><a xlink:title=" ">
<path fill="none" stroke="#63b8ff" d="M911.79,-219.66C907.4,-202.09 897.49,-162.45 891.61,-138.95"/>
<polygon fill="#63b8ff" stroke="#63b8ff" points="894.99,-138.01 889.16,-129.16 888.19,-139.71 894.99,-138.01"/>
</a>
</g>
</g>
<!-- Node29 -->
<g id="Node000029" class="node">
<title>Node29</title>
<g id="a_Node000029"><a xlink:href="SocketCommon_8h.html" target="_top" xlink:title="Common utilities shared between Socket and SocketDgram modules.">
<polygon fill="white" stroke="#666666" points="706,-184 578,-184 578,-165 706,-165 706,-184"/>
<text text-anchor="middle" x="642" y="-172" font-family="Helvetica,sans-Serif" font-size="10.00">socket/SocketCommon.h</text>
</a>
</g>
</g>
<!-- Node18&#45;&gt;Node29 -->
<g id="edge50_Node000018_Node000029" class="edge">
<title>Node18&#45;&gt;Node29</title>
<g id="a_edge50_Node000018_Node000029"><a xlink:title=" ">
<path fill="none" stroke="#63b8ff" d="M870.3,-219.98C822.85,-210.74 747.03,-195.97 695.92,-186.01"/>
<polygon fill="#63b8ff" stroke="#63b8ff" points="696.53,-182.56 686.04,-184.08 695.19,-189.43 696.53,-182.56"/>
</a>
</g>
</g>
<!-- Node19&#45;&gt;Node3 -->
<g id="edge41_Node000019_Node000003" class="edge">
<title>Node19&#45;&gt;Node3</title>
<g id="a_edge41_Node000019_Node000003"><a xlink:title=" ">
<path fill="none" stroke="#63b8ff" d="M260.65,-110.76C210.26,-103.13 132.36,-90.51 55.82,-74.01"/>
<polygon fill="#63b8ff" stroke="#63b8ff" points="56.53,-70.59 46.01,-71.88 55.04,-77.42 56.53,-70.59"/>
</a>
</g>
</g>
<!-- Node19&#45;&gt;Node9 -->
<g id="edge40_Node000019_Node000009" class="edge">
<title>Node19&#45;&gt;Node9</title>
<g id="a_edge40_Node000019_Node000009"><a xlink:title=" ">
<path fill="none" stroke="#63b8ff" d="M367.23,-114.77C512.42,-104.61 912.62,-76.59 1034.99,-68.02"/>
<polygon fill="#63b8ff" stroke="#63b8ff" points="1035.23,-71.51 1044.96,-67.32 1034.74,-64.53 1035.23,-71.51"/>
</a>
</g>
</g>
<!-- Node20 -->
<g id="Node000020" class="node">
<title>Node20</title>
<g id="a_Node000020"><a xlink:title=" ">
<polygon fill="#e0e0e0" stroke="#999999" points="180.5,-74 133.5,-74 133.5,-55 180.5,-55 180.5,-74"/>
<text text-anchor="middle" x="157" y="-62" font-family="Helvetica,sans-Serif" font-size="10.00">errno.h</text>
</a>
</g>
</g>
<!-- Node19&#45;&gt;Node20 -->
<g id="edge36_Node000019_Node000020" class="edge">
<title>Node19&#45;&gt;Node20</title>
<g id="a_edge36_Node000019_Node000020"><a xlink:title=" ">
<path fill="none" stroke="#63b8ff" d="M288.78,-109.98C262.1,-100.98 219.89,-86.73 190.45,-76.79"/>
<polygon fill="#63b8ff" stroke="#63b8ff" points="191.22,-73.36 180.62,-73.47 188.98,-79.99 191.22,-73.36"/>
</a>
</g>
</g>
<!-- Node21 -->
<g id="Node000021" class="node">
<title>Node21</title>
<g id="a_Node000021"><a xlink:title=" ">
<polygon fill="#e0e0e0" stroke="#999999" points="490,-74 446,-74 446,-55 490,-55 490,-74"/>
<text text-anchor="middle" x="468" y="-62" font-family="Helvetica,sans-Serif" font-size="10.00">fcntl.h</text>
</a>
</g>
</g>
<!-- Node19&#45;&gt;Node21 -->
<g id="edge37_Node000019_Node000021" class="edge">
<title>Node19&#45;&gt;Node21</title>
<g id="a_edge37_Node000019_Node000021"><a xlink:title=" ">
<path fill="none" stroke="#63b8ff" d="M338.74,-109.98C365.21,-100.88 407.28,-86.4 436.19,-76.45"/>
<polygon fill="#63b8ff" stroke="#63b8ff" points="437.5,-79.7 445.82,-73.13 435.22,-73.08 437.5,-79.7"/>
</a>
</g>
</g>
<!-- Node22 -->
<g id="Node000022" class="node">
<title>Node22</title>
<g id="a_Node000022"><a xlink:title=" ">
<polygon fill="#e0e0e0" stroke="#999999" points="427.5,-74 362.5,-74 362.5,-55 427.5,-55 427.5,-74"/>
<text text-anchor="middle" x="395" y="-62" font-family="Helvetica,sans-Serif" font-size="10.00">netinet/in.h</text>
</a>
</g>
</g>
<!-- Node19&#45;&gt;Node22 -->
<g id="edge38_Node000019_Node000022" class="edge">
<title>Node19&#45;&gt;Node22</title>
<g id="a_edge38_Node000019_Node000022"><a xlink:title=" ">
<path fill="none" stroke="#63b8ff" d="M327.01,-109.98C339.46,-101.84 358.46,-89.41 373.21,-79.76"/>
<polygon fill="#63b8ff" stroke="#63b8ff" points="375.3,-82.57 381.75,-74.17 371.46,-76.72 375.3,-82.57"/>
</a>
</g>
</g>
<!-- Node23 -->
<g id="Node000023" class="node">
<title>Node23</title>
<g id="a_Node000023"><a xlink:title=" ">
<polygon fill="#e0e0e0" stroke="#999999" points="269.5,-74 198.5,-74 198.5,-55 269.5,-55 269.5,-74"/>
<text text-anchor="middle" x="234" y="-62" font-family="Helvetica,sans-Serif" font-size="10.00">netinet/tcp.h</text>
</a>
</g>
</g>
<!-- Node19&#45;&gt;Node23 -->
<g id="edge39_Node000019_Node000023" class="edge">
<title>Node19&#45;&gt;Node23</title>
<g id="a_edge39_Node000019_Node000023"><a xlink:title=" ">
<path fill="none" stroke="#63b8ff" d="M301.15,-109.98C288.86,-101.84 270.09,-89.41 255.52,-79.76"/>
<polygon fill="#63b8ff" stroke="#63b8ff" points="257.36,-76.78 247.09,-74.17 253.49,-82.61 257.36,-76.78"/>
</a>
</g>
</g>
<!-- Node24 -->
<g id="Node000024" class="node">
<title>Node24</title>
<g id="a_Node000024"><a xlink:title=" ">
<polygon fill="#e0e0e0" stroke="#999999" points="581.5,-74 508.5,-74 508.5,-55 581.5,-55 581.5,-74"/>
<text text-anchor="middle" x="545" y="-62" font-family="Helvetica,sans-Serif" font-size="10.00">sys/socket.h</text>
</a>
</g>
</g>
<!-- Node19&#45;&gt;Node24 -->
<g id="edge42_Node000019_Node000024" class="edge">
<title>Node19&#45;&gt;Node24</title>
<g id="a_edge42_Node000019_Node000024"><a xlink:title=" ">
<path fill="none" stroke="#63b8ff" d="M351.11,-109.98C391.14,-100.8 454.95,-86.16 498.34,-76.21"/>
<polygon fill="#63b8ff" stroke="#63b8ff" points="499.4,-79.55 508.36,-73.91 497.83,-72.73 499.4,-79.55"/>
</a>
</g>
</g>
<!-- Node25 -->
<g id="Node000025" class="node">
<title>Node25</title>
<g id="a_Node000025"><a xlink:title=" ">
<polygon fill="#e0e0e0" stroke="#999999" points="344,-74 288,-74 288,-55 344,-55 344,-74"/>
<text text-anchor="middle" x="316" y="-62" font-family="Helvetica,sans-Serif" font-size="10.00">sys/uio.h</text>
</a>
</g>
</g>
<!-- Node19&#45;&gt;Node25 -->
<g id="edge43_Node000019_Node000025" class="edge">
<title>Node19&#45;&gt;Node25</title>
<g id="a_edge43_Node000019_Node000025"><a xlink:title=" ">
<path fill="none" stroke="#63b8ff" d="M314.33,-109.75C314.59,-102.8 314.97,-92.85 315.3,-84.13"/>
<polygon fill="#63b8ff" stroke="#63b8ff" points="318.8,-84.21 315.68,-74.09 311.8,-83.95 318.8,-84.21"/>
</a>
</g>
</g>
<!-- Node26 -->
<g id="Node000026" class="node">
<title>Node26</title>
<g id="a_Node000026"><a xlink:title=" ">
<polygon fill="#e0e0e0" stroke="#999999" points="115.5,-74 64.5,-74 64.5,-55 115.5,-55 115.5,-74"/>
<text text-anchor="middle" x="90" y="-62" font-family="Helvetica,sans-Serif" font-size="10.00">unistd.h</text>
</a>
</g>
</g>
<!-- Node19&#45;&gt;Node26 -->
<g id="edge44_Node000019_Node000026" class="edge">
<title>Node19&#45;&gt;Node26</title>
<g id="a_edge44_Node000019_Node000026"><a xlink:title=" ">
<path fill="none" stroke="#63b8ff" d="M276.83,-109.97C240.59,-101.61 183.67,-88.38 125.68,-74.38"/>
<polygon fill="#63b8ff" stroke="#63b8ff" points="126.15,-70.9 115.61,-71.95 124.51,-77.7 126.15,-70.9"/>
</a>
</g>
</g>
<!-- Node27&#45;&gt;Node6 -->
<g id="edge46_Node000027_Node000006" class="edge">
<title>Node27&#45;&gt;Node6</title>
<g id="a_edge46_Node000027_Node000006"><a xlink:title=" ">
<path fill="none" stroke="#63b8ff" d="M935.05,-112.21C1012.75,-102.04 1165.16,-82.1 1243.29,-71.87"/>
<polygon fill="#63b8ff" stroke="#63b8ff" points="1243.89,-75.33 1253.35,-70.56 1242.98,-68.39 1243.89,-75.33"/>
</a>
</g>
</g>
<!-- Node27&#45;&gt;Node9 -->
<g id="edge48_Node000027_Node000009" class="edge">
<title>Node27&#45;&gt;Node9</title>
<g id="a_edge48_Node000027_Node000009"><a xlink:title=" ">
<path fill="none" stroke="#63b8ff" d="M916.56,-109.98C948.83,-100.69 1000.5,-85.81 1035.08,-75.85"/>
<polygon fill="#63b8ff" stroke="#63b8ff" points="1036.15,-79.18 1044.79,-73.05 1034.21,-72.45 1036.15,-79.18"/>
</a>
</g>
</g>
<!-- Node27&#45;&gt;Node24 -->
<g id="edge49_Node000027_Node000024" class="edge">
<title>Node27&#45;&gt;Node24</title>
<g id="a_edge49_Node000027_Node000024"><a xlink:title=" ">
<path fill="none" stroke="#63b8ff" d="M838.73,-111.02C773.01,-100.83 656.18,-82.73 591.44,-72.7"/>
<polygon fill="#63b8ff" stroke="#63b8ff" points="591.93,-69.23 581.51,-71.16 590.85,-76.15 591.93,-69.23"/>
</a>
</g>
</g>
<!-- Node28 -->
<g id="Node000028" class="node">
<title>Node28</title>
<g id="a_Node000028"><a xlink:title=" ">
<polygon fill="#e0e0e0" stroke="#999999" points="780.5,-74 731.5,-74 731.5,-55 780.5,-55 780.5,-74"/>
<text text-anchor="middle" x="756" y="-62" font-family="Helvetica,sans-Serif" font-size="10.00">netdb.h</text>
</a>
</g>
</g>
<!-- Node27&#45;&gt;Node28 -->
<g id="edge47_Node000027_Node000028" class="edge">
<title>Node27&#45;&gt;Node28</title>
<g id="a_edge47_Node000027_Node000028"><a xlink:title=" ">
<path fill="none" stroke="#63b8ff" d="M865.95,-109.98C844.59,-101.34 811.3,-87.87 786.94,-78.02"/>
<polygon fill="#63b8ff" stroke="#63b8ff" points="788.01,-74.68 777.43,-74.17 785.39,-81.17 788.01,-74.68"/>
</a>
</g>
</g>
<!-- Node29&#45;&gt;Node6 -->
<g id="edge61_Node000029_Node000006" class="edge">
<title>Node29&#45;&gt;Node6</title>
<g id="a_edge61_Node000029_Node000006"><a xlink:title=" ">
<path fill="none" stroke="#63b8ff" d="M706.18,-165.63C767.5,-157.74 862.4,-144.55 944,-129 980.32,-122.08 988.74,-117.27 1025,-110 1100.97,-94.78 1189.83,-80.7 1243.47,-72.61"/>
<polygon fill="#63b8ff" stroke="#63b8ff" points="1244.02,-76.07 1253.39,-71.13 1242.98,-69.15 1244.02,-76.07"/>
</a>
</g>
</g>
<!-- Node29&#45;&gt;Node11 -->
<g id="edge58_Node000029_Node000011" class="edge">
<title>Node29&#45;&gt;Node11</title>
<g id="a_edge58_Node000029_Node000011"><a xlink:title=" ">
<path fill="none" stroke="#63b8ff" d="M706.42,-171.08C812.2,-166.55 1029.41,-154.95 1222.73,-129.01"/>
<polygon fill="#63b8ff" stroke="#63b8ff" points="1223.36,-132.46 1232.79,-127.64 1222.41,-125.52 1223.36,-132.46"/>
</a>
</g>
</g>
<!-- Node29&#45;&gt;Node13 -->
<g id="edge60_Node000029_Node000013" class="edge">
<title>Node29&#45;&gt;Node13</title>
<g id="a_edge60_Node000029_Node000013"><a xlink:title=" ">
<path fill="none" stroke="#63b8ff" d="M706.24,-167.16C815.97,-156.33 1036.91,-134.52 1132.82,-125.06"/>
<polygon fill="#63b8ff" stroke="#63b8ff" points="1133.19,-128.54 1142.8,-124.07 1132.5,-121.57 1133.19,-128.54"/>
</a>
</g>
</g>
<!-- Node29&#45;&gt;Node19 -->
<g id="edge62_Node000029_Node000019" class="edge">
<title>Node29&#45;&gt;Node19</title>
<g id="a_edge62_Node000029_Node000019"><a xlink:title=" ">
<path fill="none" stroke="#63b8ff" d="M589.3,-164.98C531.41,-155.63 438.47,-140.61 376.83,-130.65"/>
<polygon fill="#63b8ff" stroke="#63b8ff" points="377.27,-127.18 366.84,-129.04 376.15,-134.09 377.27,-127.18"/>
</a>
</g>
</g>
<!-- Node29&#45;&gt;Node21 -->
<g id="edge53_Node000029_Node000021" class="edge">
<title>Node29&#45;&gt;Node21</title>
<g id="a_edge53_Node000029_Node000021"><a xlink:title=" ">
<path fill="none" stroke="#63b8ff" d="M577.64,-168.85C546.93,-163.47 511.79,-152.23 488,-129 475.99,-117.28 471.17,-98.43 469.25,-84.3"/>
<polygon fill="#63b8ff" stroke="#63b8ff" points="472.72,-83.82 468.25,-74.22 465.75,-84.52 472.72,-83.82"/>
</a>
</g>
</g>
<!-- Node29&#45;&gt;Node22 -->
<g id="edge55_Node000029_Node000022" class="edge">
<title>Node29&#45;&gt;Node22</title>
<g id="a_edge55_Node000029_Node000022"><a xlink:title=" ">
<path fill="none" stroke="#63b8ff" d="M586.2,-164.99C552.18,-158.33 508.56,-147.08 473,-129 448.83,-116.71 425.29,-95.98 410.51,-81.56"/>
<polygon fill="#63b8ff" stroke="#63b8ff" points="412.79,-78.89 403.24,-74.29 407.84,-83.84 412.79,-78.89"/>
</a>
</g>
</g>
<!-- Node29&#45;&gt;Node24 -->
<g id="edge56_Node000029_Node000024" class="edge">
<title>Node29&#45;&gt;Node24</title>
<g id="a_edge56_Node000029_Node000024"><a xlink:title=" ">
<path fill="none" stroke="#63b8ff" d="M577.76,-170.92C547.56,-166.08 514.07,-154.7 495,-129 482.15,-111.69 502.74,-92.28 521.26,-79.53"/>
<polygon fill="#63b8ff" stroke="#63b8ff" points="523.28,-82.39 529.76,-74.01 519.47,-76.52 523.28,-82.39"/>
</a>
</g>
</g>
<!-- Node29&#45;&gt;Node28 -->
<g id="edge54_Node000029_Node000028" class="edge">
<title>Node29&#45;&gt;Node28</title>
<g id="a_edge54_Node000029_Node000028"><a xlink:title=" ">
<path fill="none" stroke="#63b8ff" d="M595.05,-164.94C554.31,-155.45 505.17,-137.72 528,-110 552.08,-80.77 663.54,-70.48 721.21,-67.07"/>
<polygon fill="#63b8ff" stroke="#63b8ff" points="721.53,-70.56 731.32,-66.51 721.14,-63.57 721.53,-70.56"/>
</a>
</g>
</g>
<!-- Node30 -->
<g id="Node000030" class="node">
<title>Node30</title>
<g id="a_Node000030"><a xlink:title=" ">
<polygon fill="#e0e0e0" stroke="#999999" points="820.5,-129 763.5,-129 763.5,-110 820.5,-110 820.5,-129"/>
<text text-anchor="middle" x="792" y="-117" font-family="Helvetica,sans-Serif" font-size="10.00">pthread.h</text>
</a>
</g>
</g>
<!-- Node29&#45;&gt;Node30 -->
<g id="edge51_Node000029_Node000030" class="edge">
<title>Node29&#45;&gt;Node30</title>
<g id="a_edge51_Node000029_Node000030"><a xlink:title=" ">
<path fill="none" stroke="#63b8ff" d="M666.1,-164.98C690.88,-156.23 729.7,-142.51 757.69,-132.62"/>
<polygon fill="#63b8ff" stroke="#63b8ff" points="759.2,-135.8 767.46,-129.17 756.87,-129.2 759.2,-135.8"/>
</a>
</g>
</g>
<!-- Node31 -->
<g id="Node000031" class="node">
<title>Node31</title>
<g id="a_Node000031"><a xlink:title=" ">
<polygon fill="#e0e0e0" stroke="#999999" points="593,-129 537,-129 537,-110 593,-110 593,-129"/>
<text text-anchor="middle" x="565" y="-117" font-family="Helvetica,sans-Serif" font-size="10.00">stdbool.h</text>
</a>
</g>
</g>
<!-- Node29&#45;&gt;Node31 -->
<g id="edge52_Node000029_Node000031" class="edge">
<title>Node29&#45;&gt;Node31</title>
<g id="a_edge52_Node000029_Node000031"><a xlink:title=" ">
<path fill="none" stroke="#63b8ff" d="M629.63,-164.98C617.91,-156.92 600.08,-144.65 586.11,-135.03"/>
<polygon fill="#63b8ff" stroke="#63b8ff" points="587.82,-131.96 577.6,-129.17 583.85,-137.72 587.82,-131.96"/>
</a>
</g>
</g>
<!-- Node32 -->
<g id="Node000032" class="node">
<title>Node32</title>
<g id="a_Node000032"><a xlink:title=" ">
<polygon fill="#e0e0e0" stroke="#999999" points="673,-129 611,-129 611,-110 673,-110 673,-129"/>
<text text-anchor="middle" x="642" y="-117" font-family="Helvetica,sans-Serif" font-size="10.00">sys/time.h</text>
</a>
</g>
</g>
<!-- Node29&#45;&gt;Node32 -->
<g id="edge57_Node000029_Node000032" class="edge">
<title>Node29&#45;&gt;Node32</title>
<g id="a_edge57_Node000029_Node000032"><a xlink:title=" ">
<path fill="none" stroke="#63b8ff" d="M642,-164.75C642,-157.8 642,-147.85 642,-139.13"/>
<polygon fill="#63b8ff" stroke="#63b8ff" points="645.5,-139.09 642,-129.09 638.5,-139.09 645.5,-139.09"/>
</a>
</g>
</g>
<!-- Node33 -->
<g id="Node000033" class="node">
<title>Node33</title>
<g id="a_Node000033"><a xlink:title=" ">
<polygon fill="#e0e0e0" stroke="#999999" points="745,-129 691,-129 691,-110 745,-110 745,-129"/>
<text text-anchor="middle" x="718" y="-117" font-family="Helvetica,sans-Serif" font-size="10.00">sys/un.h</text>
</a>
</g>
</g>
<!-- Node29&#45;&gt;Node33 -->
<g id="edge59_Node000029_Node000033" class="edge">
<title>Node29&#45;&gt;Node33</title>
<g id="a_edge59_Node000029_Node000033"><a xlink:title=" ">
<path fill="none" stroke="#63b8ff" d="M654.21,-164.98C665.78,-156.92 683.38,-144.65 697.16,-135.03"/>
<polygon fill="#63b8ff" stroke="#63b8ff" points="699.37,-137.76 705.57,-129.17 695.36,-132.02 699.37,-137.76"/>
</a>
</g>
</g>
<!-- Node34&#45;&gt;Node6 -->
<g id="edge66_Node000034_Node000006" class="edge">
<title>Node34&#45;&gt;Node6</title>
<g id="a_edge66_Node000034_Node000006"><a xlink:title=" ">
<path fill="none" stroke="#63b8ff" d="M1037.08,-329.97C1053.38,-322.78 1074.47,-310.95 1087,-294 1137.18,-226.14 1075.05,-170.41 1134,-110 1162.44,-80.86 1208.36,-70.38 1243.38,-66.82"/>
<polygon fill="#63b8ff" stroke="#63b8ff" points="1243.75,-70.3 1253.41,-65.95 1243.14,-63.32 1243.75,-70.3"/>
</a>
</g>
</g>
<!-- Node34&#45;&gt;Node13 -->
<g id="edge65_Node000034_Node000013" class="edge">
<title>Node34&#45;&gt;Node13</title>
<g id="a_edge65_Node000034_Node000013"><a xlink:title=" ">
<path fill="none" stroke="#63b8ff" d="M1026.01,-329.81C1037.14,-321.41 1053.78,-307.93 1066,-294 1111.35,-242.31 1152.02,-170.99 1169.68,-138.24"/>
<polygon fill="#63b8ff" stroke="#63b8ff" points="1172.97,-139.51 1174.59,-129.04 1166.8,-136.22 1172.97,-139.51"/>
</a>
</g>
</g>
<!-- Node35 -->
<g id="Node000035" class="node">
<title>Node35</title>
<g id="a_Node000035"><a xlink:href="SocketTLS_8h.html" target="_top" xlink:title="High&#45;level TLS/SSL integration for secure Socket I/O with TLS 1.3 enforcement.">
<polygon fill="white" stroke="#666666" points="1057.5,-294 970.5,-294 970.5,-275 1057.5,-275 1057.5,-294"/>
<text text-anchor="middle" x="1014" y="-282" font-family="Helvetica,sans-Serif" font-size="10.00">tls/SocketTLS.h</text>
</a>
</g>
</g>
<!-- Node34&#45;&gt;Node35 -->
<g id="edge67_Node000034_Node000035" class="edge">
<title>Node34&#45;&gt;Node35</title>
<g id="a_edge67_Node000034_Node000035"><a xlink:title=" ">
<path fill="none" stroke="#63b8ff" d="M1014,-329.75C1014,-322.8 1014,-312.85 1014,-304.13"/>
<polygon fill="#63b8ff" stroke="#63b8ff" points="1017.5,-304.09 1014,-294.09 1010.5,-304.09 1017.5,-304.09"/>
</a>
</g>
</g>
<!-- Node36 -->
<g id="Node000036" class="node">
<title>Node36</title>
<g id="a_Node000036"><a xlink:href="SocketTLSConfig_8h.html" target="_top" xlink:title="TLS configuration constants, structure, and secure defaults.">
<polygon fill="white" stroke="#666666" points="758,-294 642,-294 642,-275 758,-275 758,-294"/>
<text text-anchor="middle" x="700" y="-282" font-family="Helvetica,sans-Serif" font-size="10.00">tls/SocketTLSConfig.h</text>
</a>
</g>
</g>
<!-- Node34&#45;&gt;Node36 -->
<g id="edge70_Node000034_Node000036" class="edge">
<title>Node34&#45;&gt;Node36</title>
<g id="a_edge70_Node000034_Node000036"><a xlink:title=" ">
<path fill="none" stroke="#63b8ff" d="M963.55,-329.98C908.24,-320.65 819.53,-305.67 760.52,-295.71"/>
<polygon fill="#63b8ff" stroke="#63b8ff" points="761.03,-292.25 750.58,-294.04 759.86,-299.15 761.03,-292.25"/>
</a>
</g>
</g>
<!-- Node38 -->
<g id="Node000038" class="node">
<title>Node38</title>
<g id="a_Node000038"><a xlink:title=" ">
<polygon fill="#e0e0e0" stroke="#999999" points="852,-239 778,-239 778,-220 852,-220 852,-239"/>
<text text-anchor="middle" x="815" y="-227" font-family="Helvetica,sans-Serif" font-size="10.00">openssl/ssl.h</text>
</a>
</g>
</g>
<!-- Node34&#45;&gt;Node38 -->
<g id="edge75_Node000034_Node000038" class="edge">
<title>Node34&#45;&gt;Node38</title>
<g id="a_edge75_Node000034_Node000038"><a xlink:title=" ">
<path fill="none" stroke="#63b8ff" d="M952.99,-335.61C917.33,-331 873.49,-319.94 843,-294 829.55,-282.55 822.32,-263.39 818.6,-249.1"/>
<polygon fill="#63b8ff" stroke="#63b8ff" points="822.01,-248.32 816.39,-239.33 815.18,-249.86 822.01,-248.32"/>
</a>
</g>
</g>
<!-- Node41 -->
<g id="Node000041" class="node">
<title>Node41</title>
<g id="a_Node000041"><a xlink:title=" ">
<polygon fill="#e0e0e0" stroke="#999999" points="952,-294 852,-294 852,-275 952,-275 952,-294"/>
<text text-anchor="middle" x="902" y="-282" font-family="Helvetica,sans-Serif" font-size="10.00">openssl/x509_vfy.h</text>
</a>
</g>
</g>
<!-- Node34&#45;&gt;Node41 -->
<g id="edge76_Node000034_Node000041" class="edge">
<title>Node34&#45;&gt;Node41</title>
<g id="a_edge76_Node000034_Node000041"><a xlink:title=" ">
<path fill="none" stroke="#63b8ff" d="M996.01,-329.98C978.07,-321.5 950.28,-308.35 929.57,-298.54"/>
<polygon fill="#63b8ff" stroke="#63b8ff" points="930.86,-295.28 920.32,-294.17 927.86,-301.61 930.86,-295.28"/>
</a>
</g>
</g>
<!-- Node35&#45;&gt;Node6 -->
<g id="edge68_Node000035_Node000006" class="edge">
<title>Node35&#45;&gt;Node6</title>
<g id="a_edge68_Node000035_Node000006"><a xlink:title=" ">
<path fill="none" stroke="#63b8ff" d="M1015.68,-274.63C1021.62,-245.89 1044.36,-154.64 1101,-110 1141.68,-77.94 1201.45,-68.27 1243.26,-65.7"/>
<polygon fill="#63b8ff" stroke="#63b8ff" points="1243.67,-69.18 1253.48,-65.19 1243.32,-62.19 1243.67,-69.18"/>
</a>
</g>
</g>
<!-- Node35&#45;&gt;Node18 -->
<g id="edge69_Node000035_Node000018" class="edge">
<title>Node35&#45;&gt;Node18</title>
<g id="a_edge69_Node000035_Node000018"><a xlink:title=" ">
<path fill="none" stroke="#63b8ff" d="M997.93,-274.98C982.14,-266.61 957.78,-253.7 939.37,-243.95"/>
<polygon fill="#63b8ff" stroke="#63b8ff" points="940.83,-240.76 930.36,-239.17 937.56,-246.95 940.83,-240.76"/>
</a>
</g>
</g>
<!-- Node37 -->
<g id="Node000037" class="node">
<title>Node37</title>
<g id="a_Node000037"><a xlink:title=" ">
<polygon fill="#e0e0e0" stroke="#999999" points="760,-239 688,-239 688,-220 760,-220 760,-239"/>
<text text-anchor="middle" x="724" y="-227" font-family="Helvetica,sans-Serif" font-size="10.00">openssl/err.h</text>
</a>
</g>
</g>
<!-- Node36&#45;&gt;Node37 -->
<g id="edge71_Node000036_Node000037" class="edge">
<title>Node36&#45;&gt;Node37</title>
<g id="a_edge71_Node000036_Node000037"><a xlink:title=" ">
<path fill="none" stroke="#63b8ff" d="M703.96,-274.75C707.21,-267.57 711.92,-257.18 715.95,-248.27"/>
<polygon fill="#63b8ff" stroke="#63b8ff" points="719.17,-249.64 720.11,-239.09 712.8,-246.75 719.17,-249.64"/>
</a>
</g>
</g>
<!-- Node36&#45;&gt;Node38 -->
<g id="edge72_Node000036_Node000038" class="edge">
<title>Node36&#45;&gt;Node38</title>
<g id="a_edge72_Node000036_Node000038"><a xlink:title=" ">
<path fill="none" stroke="#63b8ff" d="M718.48,-274.98C736.98,-266.46 765.68,-253.23 786.98,-243.41"/>
<polygon fill="#63b8ff" stroke="#63b8ff" points="788.57,-246.53 796.19,-239.17 785.64,-240.18 788.57,-246.53"/>
</a>
</g>
</g>
<!-- Node39 -->
<g id="Node000039" class="node">
<title>Node39</title>
<g id="a_Node000039"><a xlink:title=" ">
<polygon fill="#e0e0e0" stroke="#999999" points="558.5,-239 475.5,-239 475.5,-220 558.5,-220 558.5,-239"/>
<text text-anchor="middle" x="517" y="-227" font-family="Helvetica,sans-Serif" font-size="10.00">openssl/x509.h</text>
</a>
</g>
</g>
<!-- Node36&#45;&gt;Node39 -->
<g id="edge73_Node000036_Node000039" class="edge">
<title>Node36&#45;&gt;Node39</title>
<g id="a_edge73_Node000036_Node000039"><a xlink:title=" ">
<path fill="none" stroke="#63b8ff" d="M670.6,-274.98C639.61,-266.01 590.62,-251.82 556.33,-241.89"/>
<polygon fill="#63b8ff" stroke="#63b8ff" points="557.21,-238.5 546.63,-239.08 555.26,-245.23 557.21,-238.5"/>
</a>
</g>
</g>
<!-- Node40 -->
<g id="Node000040" class="node">
<title>Node40</title>
<g id="a_Node000040"><a xlink:title=" ">
<polygon fill="#e0e0e0" stroke="#999999" points="669.5,-239 576.5,-239 576.5,-220 669.5,-220 669.5,-239"/>
<text text-anchor="middle" x="623" y="-227" font-family="Helvetica,sans-Serif" font-size="10.00">openssl/x509v3.h</text>
</a>
</g>
</g>
<!-- Node36&#45;&gt;Node40 -->
<g id="edge74_Node000036_Node000040" class="edge">
<title>Node36&#45;&gt;Node40</title>
<g id="a_edge74_Node000036_Node000040"><a xlink:title=" ">
<path fill="none" stroke="#63b8ff" d="M687.63,-274.98C675.91,-266.92 658.08,-254.65 644.11,-245.03"/>
<polygon fill="#63b8ff" stroke="#63b8ff" points="645.82,-241.96 635.6,-239.17 641.85,-247.72 645.82,-241.96"/>
</a>
</g>
</g>
</g>
</svg>
