<?xml version="1.0" encoding="UTF-8" standalone="no"?>
<!DOCTYPE svg PUBLIC "-//W3C//DTD SVG 1.1//EN"
 "http://www.w3.org/Graphics/SVG/1.1/DTD/svg11.dtd">
<!-- Generated by graphviz version 2.43.0 (0)
 -->
<!-- Title: http2_client.c Pages: 1 -->
<!--zoomable 478 -->

<svg id="main" version="1.1" xmlns="http://www.w3.org/2000/svg" xmlns:xlink="http://www.w3.org/1999/xlink" xml:space="preserve" onload="init(evt)">
<style type="text/css"><![CDATA[
.node, .edge {opacity: 0.7;}
.node.selected, .edge.selected {opacity: 1;}
.edge:hover path { stroke: red; }
.edge:hover polygon { stroke: red; fill: red; }
]]></style>

<defs>
  <circle id="rim" cx="0" cy="0" r="7"/>
  <circle id="rim2" cx="0" cy="0" r="3.5"/>
  <g id="zoomPlus">
    <use xlink:href="#rim" fill="#404040"><set attributeName="fill" to="#808080" begin="zoomplus.mouseover" end="zoomplus.mouseout"/></use>
    <path d="M-4,0h8M0,-4v8" fill="none" stroke="white" stroke-width="1.5" pointer-events="none"/>
  </g>
  <g id="zoomMin">
    <use xlink:href="#rim" fill="#404040"><set attributeName="fill" to="#808080" begin="zoomminus.mouseover" end="zoomminus.mouseout"/></use>
    <path d="M-4,0h8" fill="none" stroke="white" stroke-width="1.5" pointer-events="none"/>
  </g>
  <g id="arrowUp" transform="translate(30 24)">
    <use xlink:href="#rim"/>
    <path pointer-events="none" fill="none" stroke="white" stroke-width="1.5" d="M0,-3.0v7 M-2.5,-0.5L0,-3.0L2.5,-0.5"/>
  </g>
  <g id="arrowRight" transform="rotate(90) translate(36 -43)">
    <use xlink:href="#rim"/>
    <path pointer-events="none" fill="none" stroke="white" stroke-width="1.5" d="M0,-3.0v7 M-2.5,-0.5L0,-3.0L2.5,-0.5"/>
  </g>
  <g id="arrowDown" transform="rotate(180) translate(-30 -48)">
    <use xlink:href="#rim"/>
    <path pointer-events="none" fill="none" stroke="white" stroke-width="1.5" d="M0,-3.0v7 M-2.5,-0.5L0,-3.0L2.5,-0.5"/>
  </g>
  <g id="arrowLeft" transform="rotate(270) translate(-36 17)">
    <use xlink:href="#rim"/>
    <path pointer-events="none" fill="none" stroke="white" stroke-width="1.5" d="M0,-3.0v7 M-2.5,-0.5L0,-3.0L2.5,-0.5"/>
  </g>
  <g id="resetDef">
    <use xlink:href="#rim2" fill="#404040"><set attributeName="fill" to="#808080" begin="reset.mouseover" end="reset.mouseout"/></use>
  </g>
</defs>
<script type="application/ecmascript">
var viewWidth = 1916;
var viewHeight = 478;
var sectionId = 'dynsection-0';
</script>
<script type="application/ecmascript" xlink:href="svg.min.js"/>
<svg id="graph" class="graph">
<g id="viewport">
<title>http2_client.c</title>
<!-- Node1 -->
<g id="Node000001" class="node">
<title>Node1</title>
<g id="a_Node000001"><a xlink:title=" ">
<polygon fill="#999999" stroke="#666666" points="207.5,-470 132.5,-470 132.5,-451 207.5,-451 207.5,-470"/>
<text text-anchor="middle" x="170" y="-458" font-family="Helvetica,sans-Serif" font-size="10.00">http2_client.c</text>
</a>
</g>
</g>
<!-- Node2 -->
<g id="Node000002" class="node">
<title>Node2</title>
<g id="a_Node000002"><a xlink:title=" ">
<polygon fill="#e0e0e0" stroke="#999999" points="50,-415 0,-415 0,-396 50,-396 50,-415"/>
<text text-anchor="middle" x="25" y="-403" font-family="Helvetica,sans-Serif" font-size="10.00">signal.h</text>
</a>
</g>
</g>
<!-- Node1&#45;&gt;Node2 -->
<g id="edge1_Node000001_Node000002" class="edge">
<title>Node1&#45;&gt;Node2</title>
<g id="a_edge1_Node000001_Node000002"><a xlink:title=" ">
<path fill="none" stroke="#63b8ff" d="M146.7,-450.98C122.75,-442.23 85.22,-428.51 58.17,-418.62"/>
<polygon fill="#63b8ff" stroke="#63b8ff" points="59.31,-415.32 48.72,-415.17 56.91,-421.89 59.31,-415.32"/>
</a>
</g>
</g>
<!-- Node3 -->
<g id="Node000003" class="node">
<title>Node3</title>
<g id="a_Node000003"><a xlink:title=" ">
<polygon fill="#e0e0e0" stroke="#999999" points="1908,-74 1862,-74 1862,-55 1908,-55 1908,-74"/>
<text text-anchor="middle" x="1885" y="-62" font-family="Helvetica,sans-Serif" font-size="10.00">stdio.h</text>
</a>
</g>
</g>
<!-- Node1&#45;&gt;Node3 -->
<g id="edge2_Node000001_Node000003" class="edge">
<title>Node1&#45;&gt;Node3</title>
<g id="a_edge2_Node000001_Node000003"><a xlink:title=" ">
<path fill="none" stroke="#63b8ff" d="M207.87,-458.9C452.46,-454.8 1799,-428.48 1799,-346 1799,-346 1799,-346 1799,-173.5 1799,-132.76 1836.91,-98.51 1862.39,-80.09"/>
<polygon fill="#63b8ff" stroke="#63b8ff" points="1864.58,-82.83 1870.8,-74.25 1860.59,-77.08 1864.58,-82.83"/>
</a>
</g>
</g>
<!-- Node4 -->
<g id="Node000004" class="node">
<title>Node4</title>
<g id="a_Node000004"><a xlink:title=" ">
<polygon fill="#e0e0e0" stroke="#999999" points="161,-415 113,-415 113,-396 161,-396 161,-415"/>
<text text-anchor="middle" x="137" y="-403" font-family="Helvetica,sans-Serif" font-size="10.00">stdlib.h</text>
</a>
</g>
</g>
<!-- Node1&#45;&gt;Node4 -->
<g id="edge3_Node000001_Node000004" class="edge">
<title>Node1&#45;&gt;Node4</title>
<g id="a_edge3_Node000001_Node000004"><a xlink:title=" ">
<path fill="none" stroke="#63b8ff" d="M164.55,-450.75C159.99,-443.42 153.33,-432.73 147.71,-423.7"/>
<polygon fill="#63b8ff" stroke="#63b8ff" points="150.6,-421.73 142.35,-415.09 144.66,-425.43 150.6,-421.73"/>
</a>
</g>
</g>
<!-- Node5 -->
<g id="Node000005" class="node">
<title>Node5</title>
<g id="a_Node000005"><a xlink:title=" ">
<polygon fill="#e0e0e0" stroke="#999999" points="228.5,-415 179.5,-415 179.5,-396 228.5,-396 228.5,-415"/>
<text text-anchor="middle" x="204" y="-403" font-family="Helvetica,sans-Serif" font-size="10.00">string.h</text>
</a>
</g>
</g>
<!-- Node1&#45;&gt;Node5 -->
<g id="edge4_Node000001_Node000005" class="edge">
<title>Node1&#45;&gt;Node5</title>
<g id="a_edge4_Node000001_Node000005"><a xlink:title=" ">
<path fill="none" stroke="#63b8ff" d="M175.61,-450.75C180.32,-443.42 187.17,-432.73 192.97,-423.7"/>
<polygon fill="#63b8ff" stroke="#63b8ff" points="196.04,-425.4 198.49,-415.09 190.14,-421.62 196.04,-425.4"/>
</a>
</g>
</g>
<!-- Node6 -->
<g id="Node000006" class="node">
<title>Node6</title>
<g id="a_Node000006"><a xlink:href="Except_8h.html" target="_top" xlink:title="Structured exception handling for C with TRY/EXCEPT/FINALLY blocks.">
<polygon fill="white" stroke="#666666" points="788.5,-74 711.5,-74 711.5,-55 788.5,-55 788.5,-74"/>
<text text-anchor="middle" x="750" y="-62" font-family="Helvetica,sans-Serif" font-size="10.00">core/Except.h</text>
</a>
</g>
</g>
<!-- Node1&#45;&gt;Node6 -->
<g id="edge5_Node000001_Node000006" class="edge">
<title>Node1&#45;&gt;Node6</title>
<g id="a_edge5_Node000001_Node000006"><a xlink:title=" ">
<path fill="none" stroke="#63b8ff" d="M151.44,-450.99C136.76,-443.41 116.68,-431.04 104,-415 83.68,-389.29 78,-378.77 78,-346 78,-346 78,-346 78,-173.5 78,-140.61 87.97,-127.21 116,-110 165.42,-79.65 561.26,-69.14 701.2,-66.35"/>
<polygon fill="#63b8ff" stroke="#63b8ff" points="701.29,-69.85 711.22,-66.15 701.15,-62.85 701.29,-69.85"/>
</a>
</g>
</g>
<!-- Node8 -->
<g id="Node000008" class="node">
<title>Node8</title>
<g id="a_Node000008"><a xlink:href="SocketHTTPClient_8h.html" target="_top" xlink:title="Public API for the HTTP client module, including types, functions, and configuration.">
<polygon fill="white" stroke="#666666" points="377.5,-415 250.5,-415 250.5,-396 377.5,-396 377.5,-415"/>
<text text-anchor="middle" x="314" y="-403" font-family="Helvetica,sans-Serif" font-size="10.00">http/SocketHTTPClient.h</text>
</a>
</g>
</g>
<!-- Node1&#45;&gt;Node8 -->
<g id="edge7_Node000001_Node000008" class="edge">
<title>Node1&#45;&gt;Node8</title>
<g id="a_edge7_Node000001_Node000008"><a xlink:title=" ">
<path fill="none" stroke="#63b8ff" d="M193.14,-450.98C216.82,-442.27 253.87,-428.63 280.71,-418.75"/>
<polygon fill="#63b8ff" stroke="#63b8ff" points="282.27,-421.91 290.44,-415.17 279.85,-415.34 282.27,-421.91"/>
</a>
</g>
</g>
<!-- Node7 -->
<g id="Node000007" class="node">
<title>Node7</title>
<g id="a_Node000007"><a xlink:title=" ">
<polygon fill="#e0e0e0" stroke="#999999" points="777,-19 723,-19 723,0 777,0 777,-19"/>
<text text-anchor="middle" x="750" y="-7" font-family="Helvetica,sans-Serif" font-size="10.00">setjmp.h</text>
</a>
</g>
</g>
<!-- Node6&#45;&gt;Node7 -->
<g id="edge6_Node000006_Node000007" class="edge">
<title>Node6&#45;&gt;Node7</title>
<g id="a_edge6_Node000006_Node000007"><a xlink:title=" ">
<path fill="none" stroke="#63b8ff" d="M750,-54.75C750,-47.8 750,-37.85 750,-29.13"/>
<polygon fill="#63b8ff" stroke="#63b8ff" points="753.5,-29.09 750,-19.09 746.5,-29.09 753.5,-29.09"/>
</a>
</g>
</g>
<!-- Node8&#45;&gt;Node6 -->
<g id="edge15_Node000008_Node000006" class="edge">
<title>Node8&#45;&gt;Node6</title>
<g id="a_edge15_Node000008_Node000006"><a xlink:title=" ">
<path fill="none" stroke="#63b8ff" d="M260.42,-395.98C201.78,-383.25 116,-353.08 116,-285.5 116,-285.5 116,-285.5 116,-173.5 116,-144.04 112.02,-128.43 135,-110 178.74,-74.91 562.91,-67.45 700.91,-65.9"/>
<polygon fill="#63b8ff" stroke="#63b8ff" points="701.22,-69.39 711.18,-65.79 701.15,-62.39 701.22,-69.39"/>
</a>
</g>
</g>
<!-- Node9 -->
<g id="Node000009" class="node">
<title>Node9</title>
<g id="a_Node000009"><a xlink:title=" ">
<polygon fill="#e0e0e0" stroke="#999999" points="980,-74 928,-74 928,-55 980,-55 980,-74"/>
<text text-anchor="middle" x="954" y="-62" font-family="Helvetica,sans-Serif" font-size="10.00">stddef.h</text>
</a>
</g>
</g>
<!-- Node8&#45;&gt;Node9 -->
<g id="edge8_Node000008_Node000009" class="edge">
<title>Node8&#45;&gt;Node9</title>
<g id="a_edge8_Node000008_Node000009"><a xlink:title=" ">
<path fill="none" stroke="#63b8ff" d="M377.52,-405.13C630.42,-406.8 1552,-404.73 1552,-285.5 1552,-285.5 1552,-285.5 1552,-173.5 1552,-108 1482.12,-127.5 1419,-110 1263.94,-67.01 1069.9,-63.93 990.46,-64.72"/>
<polygon fill="#63b8ff" stroke="#63b8ff" points="989.98,-61.22 980.03,-64.85 990.07,-68.22 989.98,-61.22"/>
</a>
</g>
</g>
<!-- Node10 -->
<g id="Node000010" class="node">
<title>Node10</title>
<g id="a_Node000010"><a xlink:title=" ">
<polygon fill="#e0e0e0" stroke="#999999" points="255.5,-129 206.5,-129 206.5,-110 255.5,-110 255.5,-129"/>
<text text-anchor="middle" x="231" y="-117" font-family="Helvetica,sans-Serif" font-size="10.00">stdint.h</text>
</a>
</g>
</g>
<!-- Node8&#45;&gt;Node10 -->
<g id="edge9_Node000008_Node000010" class="edge">
<title>Node8&#45;&gt;Node10</title>
<g id="a_edge9_Node000008_Node000010"><a xlink:title=" ">
<path fill="none" stroke="#63b8ff" d="M293.58,-395.93C258.85,-379.84 192,-341.57 192,-285.5 192,-285.5 192,-285.5 192,-228.5 192,-194.92 208.88,-158.78 220.43,-137.98"/>
<polygon fill="#63b8ff" stroke="#63b8ff" points="223.6,-139.49 225.58,-129.08 217.54,-135.98 223.6,-139.49"/>
</a>
</g>
</g>
<!-- Node11 -->
<g id="Node000011" class="node">
<title>Node11</title>
<g id="a_Node000011"><a xlink:title=" ">
<polygon fill="#e0e0e0" stroke="#999999" points="418,-129 350,-129 350,-110 418,-110 418,-129"/>
<text text-anchor="middle" x="384" y="-117" font-family="Helvetica,sans-Serif" font-size="10.00">sys/types.h</text>
</a>
</g>
</g>
<!-- Node8&#45;&gt;Node11 -->
<g id="edge10_Node000008_Node000011" class="edge">
<title>Node8&#45;&gt;Node11</title>
<g id="a_edge10_Node000008_Node000011"><a xlink:title=" ">
<path fill="none" stroke="#63b8ff" d="M340.57,-395.94C357.13,-389.06 377.12,-377.6 387,-360 393.53,-348.37 391.74,-342.46 387,-330 379.39,-309.99 362.61,-314.01 355,-294 343.31,-263.26 350.35,-252.56 355,-220 359.16,-190.84 369.86,-158.29 377.03,-138.61"/>
<polygon fill="#63b8ff" stroke="#63b8ff" points="380.36,-139.69 380.59,-129.1 373.81,-137.24 380.36,-139.69"/>
</a>
</g>
</g>
<!-- Node12 -->
<g id="Node000012" class="node">
<title>Node12</title>
<g id="a_Node000012"><a xlink:title=" ">
<polygon fill="#e0e0e0" stroke="#999999" points="188,-129 144,-129 144,-110 188,-110 188,-129"/>
<text text-anchor="middle" x="166" y="-117" font-family="Helvetica,sans-Serif" font-size="10.00">time.h</text>
</a>
</g>
</g>
<!-- Node8&#45;&gt;Node12 -->
<g id="edge11_Node000008_Node000012" class="edge">
<title>Node8&#45;&gt;Node12</title>
<g id="a_edge11_Node000008_Node000012"><a xlink:title=" ">
<path fill="none" stroke="#63b8ff" d="M280.85,-395.98C233.98,-381.7 154,-348.16 154,-285.5 154,-285.5 154,-285.5 154,-228.5 154,-197 159.11,-160.64 162.66,-139.16"/>
<polygon fill="#63b8ff" stroke="#63b8ff" points="166.13,-139.59 164.38,-129.14 159.24,-138.4 166.13,-139.59"/>
</a>
</g>
</g>
<!-- Node13 -->
<g id="Node000013" class="node">
<title>Node13</title>
<g id="a_Node000013"><a xlink:href="Arena_8h.html" target="_top" xlink:title="Arena&#45;based memory allocator for efficient bulk memory management.">
<polygon fill="white" stroke="#666666" points="850,-129 778,-129 778,-110 850,-110 850,-129"/>
<text text-anchor="middle" x="814" y="-117" font-family="Helvetica,sans-Serif" font-size="10.00">core/Arena.h</text>
</a>
</g>
</g>
<!-- Node8&#45;&gt;Node13 -->
<g id="edge12_Node000008_Node000013" class="edge">
<title>Node8&#45;&gt;Node13</title>
<g id="a_edge12_Node000008_Node000013"><a xlink:title=" ">
<path fill="none" stroke="#63b8ff" d="M377.6,-404.36C525.1,-402.31 878,-386.82 878,-285.5 878,-285.5 878,-285.5 878,-228.5 878,-191.53 849.9,-156.14 830.94,-136.46"/>
<polygon fill="#63b8ff" stroke="#63b8ff" points="833.27,-133.84 823.72,-129.26 828.33,-138.8 833.27,-133.84"/>
</a>
</g>
</g>
<!-- Node14 -->
<g id="Node000014" class="node">
<title>Node14</title>
<g id="a_Node000014"><a xlink:href="SocketHTTP_8h.html" target="_top" xlink:title="Protocol&#45;agnostic HTTP types, header handling, URI parsing, and utilities.">
<polygon fill="white" stroke="#666666" points="320,-184 220,-184 220,-165 320,-165 320,-184"/>
<text text-anchor="middle" x="270" y="-172" font-family="Helvetica,sans-Serif" font-size="10.00">http/SocketHTTP.h</text>
</a>
</g>
</g>
<!-- Node8&#45;&gt;Node14 -->
<g id="edge16_Node000008_Node000014" class="edge">
<title>Node8&#45;&gt;Node14</title>
<g id="a_edge16_Node000008_Node000014"><a xlink:title=" ">
<path fill="none" stroke="#63b8ff" d="M292.21,-395.87C277.36,-388.69 258.84,-376.91 250,-360 221.19,-304.88 247.2,-227.99 261.74,-193.49"/>
<polygon fill="#63b8ff" stroke="#63b8ff" points="264.99,-194.78 265.81,-184.22 258.58,-191.97 264.99,-194.78"/>
</a>
</g>
</g>
<!-- Node15 -->
<g id="Node000015" class="node">
<title>Node15</title>
<g id="a_Node000015"><a xlink:href="SocketHTTPClient-config_8h.html" target="_top" xlink:title="Configuration constants for HTTP client with compile&#45;time override support.">
<polygon fill="white" stroke="#666666" points="377.5,-360 258.5,-360 258.5,-330 377.5,-330 377.5,-360"/>
<text text-anchor="start" x="266.5" y="-348" font-family="Helvetica,sans-Serif" font-size="10.00">http/SocketHTTPClient</text>
<text text-anchor="middle" x="318" y="-337" font-family="Helvetica,sans-Serif" font-size="10.00">&#45;config.h</text>
</a>
</g>
</g>
<!-- Node8&#45;&gt;Node15 -->
<g id="edge23_Node000008_Node000015" class="edge">
<title>Node8&#45;&gt;Node15</title>
<g id="a_edge23_Node000008_Node000015"><a xlink:title=" ">
<path fill="none" stroke="#63b8ff" d="M314.59,-395.87C315.05,-389.11 315.72,-379.35 316.34,-370.26"/>
<polygon fill="#63b8ff" stroke="#63b8ff" points="319.84,-370.33 317.03,-360.11 312.86,-369.85 319.84,-370.33"/>
</a>
</g>
</g>
<!-- Node16 -->
<g id="Node000016" class="node">
<title>Node16</title>
<g id="a_Node000016"><a xlink:href="SocketTLSContext_8h.html" target="_top" xlink:title="TLS context management with secure defaults and certificate handling.">
<polygon fill="white" stroke="#666666" points="572,-354.5 450,-354.5 450,-335.5 572,-335.5 572,-354.5"/>
<text text-anchor="middle" x="511" y="-342.5" font-family="Helvetica,sans-Serif" font-size="10.00">tls/SocketTLSContext.h</text>
</a>
</g>
</g>
<!-- Node8&#45;&gt;Node16 -->
<g id="edge24_Node000008_Node000016" class="edge">
<title>Node8&#45;&gt;Node16</title>
<g id="a_edge24_Node000008_Node000016"><a xlink:title=" ">
<path fill="none" stroke="#63b8ff" d="M342.65,-395.99C376.93,-385.81 434.48,-368.72 472.6,-357.4"/>
<polygon fill="#63b8ff" stroke="#63b8ff" points="473.73,-360.72 482.32,-354.52 471.74,-354.01 473.73,-360.72"/>
</a>
</g>
</g>
<!-- Node13&#45;&gt;Node6 -->
<g id="edge14_Node000013_Node000006" class="edge">
<title>Node13&#45;&gt;Node6</title>
<g id="a_edge14_Node000013_Node000006"><a xlink:title=" ">
<path fill="none" stroke="#63b8ff" d="M803.72,-109.98C794.16,-102.07 779.72,-90.11 768.22,-80.58"/>
<polygon fill="#63b8ff" stroke="#63b8ff" points="770.4,-77.85 760.47,-74.17 765.94,-83.24 770.4,-77.85"/>
</a>
</g>
</g>
<!-- Node13&#45;&gt;Node9 -->
<g id="edge13_Node000013_Node000009" class="edge">
<title>Node13&#45;&gt;Node9</title>
<g id="a_edge13_Node000013_Node000009"><a xlink:title=" ">
<path fill="none" stroke="#63b8ff" d="M836.49,-109.98C859.52,-101.27 895.54,-87.63 921.63,-77.75"/>
<polygon fill="#63b8ff" stroke="#63b8ff" points="922.98,-80.98 931.1,-74.17 920.51,-74.44 922.98,-80.98"/>
</a>
</g>
</g>
<!-- Node14&#45;&gt;Node6 -->
<g id="edge22_Node000014_Node000006" class="edge">
<title>Node14&#45;&gt;Node6</title>
<g id="a_edge22_Node000014_Node000006"><a xlink:title=" ">
<path fill="none" stroke="#63b8ff" d="M272.45,-164.73C276.91,-150.53 287.83,-122.81 308,-110 372.21,-69.21 599.92,-64.86 701.02,-65.01"/>
<polygon fill="#63b8ff" stroke="#63b8ff" points="701.26,-68.51 711.27,-65.04 701.28,-61.51 701.26,-68.51"/>
</a>
</g>
</g>
<!-- Node14&#45;&gt;Node9 -->
<g id="edge17_Node000014_Node000009" class="edge">
<title>Node14&#45;&gt;Node9</title>
<g id="a_edge17_Node000014_Node000009"><a xlink:title=" ">
<path fill="none" stroke="#63b8ff" d="M276.67,-164.55C288.03,-150.09 312.68,-122.01 341,-110 367.66,-98.69 790.14,-74.55 917.77,-67.48"/>
<polygon fill="#63b8ff" stroke="#63b8ff" points="918.02,-70.97 927.82,-66.93 917.64,-63.98 918.02,-70.97"/>
</a>
</g>
</g>
<!-- Node14&#45;&gt;Node10 -->
<g id="edge18_Node000014_Node000010" class="edge">
<title>Node14&#45;&gt;Node10</title>
<g id="a_edge18_Node000014_Node000010"><a xlink:title=" ">
<path fill="none" stroke="#63b8ff" d="M263.56,-164.75C258.11,-157.34 250.14,-146.5 243.44,-137.41"/>
<polygon fill="#63b8ff" stroke="#63b8ff" points="246.07,-135.07 237.32,-129.09 240.43,-139.22 246.07,-135.07"/>
</a>
</g>
</g>
<!-- Node14&#45;&gt;Node11 -->
<g id="edge19_Node000014_Node000011" class="edge">
<title>Node14&#45;&gt;Node11</title>
<g id="a_edge19_Node000014_Node000011"><a xlink:title=" ">
<path fill="none" stroke="#63b8ff" d="M288.32,-164.98C306.66,-156.46 335.11,-143.23 356.23,-133.41"/>
<polygon fill="#63b8ff" stroke="#63b8ff" points="357.76,-136.56 365.35,-129.17 354.81,-130.21 357.76,-136.56"/>
</a>
</g>
</g>
<!-- Node14&#45;&gt;Node12 -->
<g id="edge20_Node000014_Node000012" class="edge">
<title>Node14&#45;&gt;Node12</title>
<g id="a_edge20_Node000014_Node000012"><a xlink:title=" ">
<path fill="none" stroke="#63b8ff" d="M253.29,-164.98C236.79,-156.57 211.3,-143.59 192.12,-133.81"/>
<polygon fill="#63b8ff" stroke="#63b8ff" points="193.51,-130.59 183.01,-129.17 190.33,-136.83 193.51,-130.59"/>
</a>
</g>
</g>
<!-- Node14&#45;&gt;Node13 -->
<g id="edge21_Node000014_Node000013" class="edge">
<title>Node14&#45;&gt;Node13</title>
<g id="a_edge21_Node000014_Node000013"><a xlink:title=" ">
<path fill="none" stroke="#63b8ff" d="M320.2,-168.61C425.12,-158.39 666.27,-134.89 767.71,-125.01"/>
<polygon fill="#63b8ff" stroke="#63b8ff" points="768.32,-128.47 777.94,-124.01 767.65,-121.5 768.32,-128.47"/>
</a>
</g>
</g>
<!-- Node16&#45;&gt;Node6 -->
<g id="edge26_Node000016_Node000006" class="edge">
<title>Node16&#45;&gt;Node6</title>
<g id="a_edge26_Node000016_Node000006"><a xlink:title=" ">
<path fill="none" stroke="#63b8ff" d="M489.5,-335.36C446.12,-316.64 355,-269.97 388,-220 458.6,-113.1 619.95,-79.91 701.26,-69.81"/>
<polygon fill="#63b8ff" stroke="#63b8ff" points="701.72,-73.28 711.24,-68.63 700.9,-66.32 701.72,-73.28"/>
</a>
</g>
</g>
<!-- Node16&#45;&gt;Node13 -->
<g id="edge25_Node000016_Node000013" class="edge">
<title>Node16&#45;&gt;Node13</title>
<g id="a_edge25_Node000016_Node000013"><a xlink:title=" ">
<path fill="none" stroke="#63b8ff" d="M572.06,-343.16C653.12,-340.6 789.67,-330.78 821,-294 858.91,-249.49 835.36,-172.85 821.72,-138.3"/>
<polygon fill="#63b8ff" stroke="#63b8ff" points="824.93,-136.92 817.88,-129.01 818.47,-139.59 824.93,-136.92"/>
</a>
</g>
</g>
<!-- Node17 -->
<g id="Node000017" class="node">
<title>Node17</title>
<g id="a_Node000017"><a xlink:href="SocketTLS_8h.html" target="_top" xlink:title="High&#45;level TLS/SSL integration for secure Socket I/O with TLS 1.3 enforcement.">
<polygon fill="white" stroke="#666666" points="811.5,-294 724.5,-294 724.5,-275 811.5,-275 811.5,-294"/>
<text text-anchor="middle" x="768" y="-282" font-family="Helvetica,sans-Serif" font-size="10.00">tls/SocketTLS.h</text>
</a>
</g>
</g>
<!-- Node16&#45;&gt;Node17 -->
<g id="edge27_Node000016_Node000017" class="edge">
<title>Node16&#45;&gt;Node17</title>
<g id="a_edge27_Node000016_Node000017"><a xlink:title=" ">
<path fill="none" stroke="#63b8ff" d="M548.37,-335.49C593.95,-325.12 671.06,-307.57 720.73,-296.26"/>
<polygon fill="#63b8ff" stroke="#63b8ff" points="721.61,-299.65 730.58,-294.02 720.06,-292.82 721.61,-299.65"/>
</a>
</g>
</g>
<!-- Node34 -->
<g id="Node000034" class="node">
<title>Node34</title>
<g id="a_Node000034"><a xlink:href="SocketTLSConfig_8h.html" target="_top" xlink:title="TLS configuration constants, structure, and secure defaults.">
<polygon fill="white" stroke="#666666" points="695,-294 579,-294 579,-275 695,-275 695,-294"/>
<text text-anchor="middle" x="637" y="-282" font-family="Helvetica,sans-Serif" font-size="10.00">tls/SocketTLSConfig.h</text>
</a>
</g>
</g>
<!-- Node16&#45;&gt;Node34 -->
<g id="edge60_Node000016_Node000034" class="edge">
<title>Node16&#45;&gt;Node34</title>
<g id="a_edge60_Node000016_Node000034"><a xlink:title=" ">
<path fill="none" stroke="#63b8ff" d="M529.32,-335.49C550.41,-325.7 585.26,-309.52 609.58,-298.23"/>
<polygon fill="#63b8ff" stroke="#63b8ff" points="611.06,-301.4 618.66,-294.02 608.11,-295.05 611.06,-301.4"/>
</a>
</g>
</g>
<!-- Node36 -->
<g id="Node000036" class="node">
<title>Node36</title>
<g id="a_Node000036"><a xlink:title=" ">
<polygon fill="#e0e0e0" stroke="#999999" points="471,-239 397,-239 397,-220 471,-220 471,-239"/>
<text text-anchor="middle" x="434" y="-227" font-family="Helvetica,sans-Serif" font-size="10.00">openssl/ssl.h</text>
</a>
</g>
</g>
<!-- Node16&#45;&gt;Node36 -->
<g id="edge65_Node000016_Node000036" class="edge">
<title>Node16&#45;&gt;Node36</title>
<g id="a_edge65_Node000016_Node000036"><a xlink:title=" ">
<path fill="none" stroke="#63b8ff" d="M496.73,-335.47C483.27,-326.7 463.48,-311.84 452,-294 443.28,-280.45 438.71,-262.63 436.36,-249.31"/>
<polygon fill="#63b8ff" stroke="#63b8ff" points="439.81,-248.75 434.87,-239.38 432.89,-249.79 439.81,-248.75"/>
</a>
</g>
</g>
<!-- Node39 -->
<g id="Node000039" class="node">
<title>Node39</title>
<g id="a_Node000039"><a xlink:title=" ">
<polygon fill="#e0e0e0" stroke="#999999" points="561,-294 461,-294 461,-275 561,-275 561,-294"/>
<text text-anchor="middle" x="511" y="-282" font-family="Helvetica,sans-Serif" font-size="10.00">openssl/x509_vfy.h</text>
</a>
</g>
</g>
<!-- Node16&#45;&gt;Node39 -->
<g id="edge66_Node000016_Node000039" class="edge">
<title>Node16&#45;&gt;Node39</title>
<g id="a_edge66_Node000016_Node000039"><a xlink:title=" ">
<path fill="none" stroke="#63b8ff" d="M511,-335.37C511,-327.25 511,-314.81 511,-304.39"/>
<polygon fill="#63b8ff" stroke="#63b8ff" points="514.5,-304.17 511,-294.17 507.5,-304.17 514.5,-304.17"/>
</a>
</g>
</g>
<!-- Node17&#45;&gt;Node6 -->
<g id="edge28_Node000017_Node000006" class="edge">
<title>Node17&#45;&gt;Node6</title>
<g id="a_edge28_Node000017_Node000006"><a xlink:title=" ">
<path fill="none" stroke="#63b8ff" d="M771.86,-274.85C775.56,-266.04 780.89,-251.87 783,-239 787.9,-209.12 765.6,-122.08 755.15,-83.86"/>
<polygon fill="#63b8ff" stroke="#63b8ff" points="758.48,-82.77 752.44,-74.07 751.73,-84.64 758.48,-82.77"/>
</a>
</g>
</g>
<!-- Node18 -->
<g id="Node000018" class="node">
<title>Node18</title>
<g id="a_Node000018"><a xlink:href="Socket_8h.html" target="_top" xlink:title="High&#45;level TCP/IP and Unix domain socket interface.">
<polygon fill="white" stroke="#666666" points="1036,-239 948,-239 948,-220 1036,-220 1036,-239"/>
<text text-anchor="middle" x="992" y="-227" font-family="Helvetica,sans-Serif" font-size="10.00">socket/Socket.h</text>
</a>
</g>
</g>
<!-- Node17&#45;&gt;Node18 -->
<g id="edge29_Node000017_Node000018" class="edge">
<title>Node17&#45;&gt;Node18</title>
<g id="a_edge29_Node000017_Node000018"><a xlink:title=" ">
<path fill="none" stroke="#63b8ff" d="M803.99,-274.98C842.49,-265.87 903.69,-251.4 945.74,-241.45"/>
<polygon fill="#63b8ff" stroke="#63b8ff" points="946.8,-244.79 955.73,-239.08 945.19,-237.98 946.8,-244.79"/>
</a>
</g>
</g>
<!-- Node18&#45;&gt;Node6 -->
<g id="edge30_Node000018_Node000006" class="edge">
<title>Node18&#45;&gt;Node6</title>
<g id="a_edge30_Node000018_Node000006"><a xlink:title=" ">
<path fill="none" stroke="#63b8ff" d="M980.35,-219.99C968.62,-211.29 950.14,-197.21 935,-184 899.48,-153 898.44,-135.83 859,-110 837.35,-95.82 810.45,-84.78 788.8,-77.25"/>
<polygon fill="#63b8ff" stroke="#63b8ff" points="789.85,-73.91 779.25,-74.03 787.61,-80.54 789.85,-73.91"/>
</a>
</g>
</g>
<!-- Node19 -->
<g id="Node000019" class="node">
<title>Node19</title>
<g id="a_Node000019"><a xlink:href="SocketConfig_8h.html" target="_top" xlink:title="Compile&#45;time and runtime configuration constants, limits, and platform adaptations.">
<polygon fill="white" stroke="#666666" points="1686,-129 1580,-129 1580,-110 1686,-110 1686,-129"/>
<text text-anchor="middle" x="1633" y="-117" font-family="Helvetica,sans-Serif" font-size="10.00">core/SocketConfig.h</text>
</a>
</g>
</g>
<!-- Node18&#45;&gt;Node19 -->
<g id="edge31_Node000018_Node000019" class="edge">
<title>Node18&#45;&gt;Node19</title>
<g id="a_edge31_Node000018_Node000019"><a xlink:title=" ">
<path fill="none" stroke="#63b8ff" d="M1036.05,-222.98C1096.9,-215.19 1210.03,-200.11 1306,-184 1404.39,-167.49 1518.68,-144.39 1582.75,-131.08"/>
<polygon fill="#63b8ff" stroke="#63b8ff" points="1583.52,-134.5 1592.59,-129.04 1582.09,-127.65 1583.52,-134.5"/>
</a>
</g>
</g>
<!-- Node27 -->
<g id="Node000027" class="node">
<title>Node27</title>
<g id="a_Node000027"><a xlink:href="SocketDNS_8h.html" target="_top" xlink:title="Asynchronous DNS resolution API for non&#45;blocking network applications.">
<polygon fill="white" stroke="#666666" points="1040,-184 944,-184 944,-165 1040,-165 1040,-184"/>
<text text-anchor="middle" x="992" y="-172" font-family="Helvetica,sans-Serif" font-size="10.00">dns/SocketDNS.h</text>
</a>
</g>
</g>
<!-- Node18&#45;&gt;Node27 -->
<g id="edge41_Node000018_Node000027" class="edge">
<title>Node18&#45;&gt;Node27</title>
<g id="a_edge41_Node000018_Node000027"><a xlink:title=" ">
<path fill="none" stroke="#63b8ff" d="M992,-219.75C992,-212.8 992,-202.85 992,-194.13"/>
<polygon fill="#63b8ff" stroke="#63b8ff" points="995.5,-194.09 992,-184.09 988.5,-194.09 995.5,-194.09"/>
</a>
</g>
</g>
<!-- Node29 -->
<g id="Node000029" class="node">
<title>Node29</title>
<g id="a_Node000029"><a xlink:href="SocketCommon_8h.html" target="_top" xlink:title="Common utilities shared between Socket and SocketDgram modules.">
<polygon fill="white" stroke="#666666" points="1297,-184 1169,-184 1169,-165 1297,-165 1297,-184"/>
<text text-anchor="middle" x="1233" y="-172" font-family="Helvetica,sans-Serif" font-size="10.00">socket/SocketCommon.h</text>
</a>
</g>
</g>
<!-- Node18&#45;&gt;Node29 -->
<g id="edge47_Node000018_Node000029" class="edge">
<title>Node18&#45;&gt;Node29</title>
<g id="a_edge47_Node000018_Node000029"><a xlink:title=" ">
<path fill="none" stroke="#63b8ff" d="M1030.72,-219.98C1072.41,-210.82 1138.82,-196.21 1184.09,-186.26"/>
<polygon fill="#63b8ff" stroke="#63b8ff" points="1184.96,-189.65 1193.98,-184.08 1183.46,-182.81 1184.96,-189.65"/>
</a>
</g>
</g>
<!-- Node19&#45;&gt;Node3 -->
<g id="edge37_Node000019_Node000003" class="edge">
<title>Node19&#45;&gt;Node3</title>
<g id="a_edge37_Node000019_Node000003"><a xlink:title=" ">
<path fill="none" stroke="#63b8ff" d="M1679.53,-109.93C1722,-101.92 1786.72,-89.24 1851.93,-74.14"/>
<polygon fill="#63b8ff" stroke="#63b8ff" points="1853.03,-77.48 1861.97,-71.79 1851.44,-70.66 1853.03,-77.48"/>
</a>
</g>
</g>
<!-- Node19&#45;&gt;Node9 -->
<g id="edge36_Node000019_Node000009" class="edge">
<title>Node19&#45;&gt;Node9</title>
<g id="a_edge36_Node000019_Node000009"><a xlink:title=" ">
<path fill="none" stroke="#63b8ff" d="M1580,-111.51C1575.27,-110.97 1570.55,-110.45 1566,-110 1348.08,-88.27 1085.5,-72.74 990.51,-67.47"/>
<polygon fill="#63b8ff" stroke="#63b8ff" points="990.47,-63.96 980.29,-66.91 990.08,-70.95 990.47,-63.96"/>
</a>
</g>
</g>
<!-- Node20 -->
<g id="Node000020" class="node">
<title>Node20</title>
<g id="a_Node000020"><a xlink:title=" ">
<polygon fill="#e0e0e0" stroke="#999999" points="1680.5,-74 1633.5,-74 1633.5,-55 1680.5,-55 1680.5,-74"/>
<text text-anchor="middle" x="1657" y="-62" font-family="Helvetica,sans-Serif" font-size="10.00">errno.h</text>
</a>
</g>
</g>
<!-- Node19&#45;&gt;Node20 -->
<g id="edge32_Node000019_Node000020" class="edge">
<title>Node19&#45;&gt;Node20</title>
<g id="a_edge32_Node000019_Node000020"><a xlink:title=" ">
<path fill="none" stroke="#63b8ff" d="M1636.96,-109.75C1640.21,-102.57 1644.92,-92.18 1648.95,-83.27"/>
<polygon fill="#63b8ff" stroke="#63b8ff" points="1652.17,-84.64 1653.11,-74.09 1645.8,-81.75 1652.17,-84.64"/>
</a>
</g>
</g>
<!-- Node21 -->
<g id="Node000021" class="node">
<title>Node21</title>
<g id="a_Node000021"><a xlink:title=" ">
<polygon fill="#e0e0e0" stroke="#999999" points="1463,-74 1419,-74 1419,-55 1463,-55 1463,-74"/>
<text text-anchor="middle" x="1441" y="-62" font-family="Helvetica,sans-Serif" font-size="10.00">fcntl.h</text>
</a>
</g>
</g>
<!-- Node19&#45;&gt;Node21 -->
<g id="edge33_Node000019_Node000021" class="edge">
<title>Node19&#45;&gt;Node21</title>
<g id="a_edge33_Node000019_Node000021"><a xlink:title=" ">
<path fill="none" stroke="#63b8ff" d="M1602.15,-109.98C1566.74,-100.21 1508.95,-84.26 1473.04,-74.35"/>
<polygon fill="#63b8ff" stroke="#63b8ff" points="1473.66,-70.89 1463.09,-71.6 1471.8,-77.63 1473.66,-70.89"/>
</a>
</g>
</g>
<!-- Node22 -->
<g id="Node000022" class="node">
<title>Node22</title>
<g id="a_Node000022"><a xlink:title=" ">
<polygon fill="#e0e0e0" stroke="#999999" points="1546.5,-74 1481.5,-74 1481.5,-55 1546.5,-55 1546.5,-74"/>
<text text-anchor="middle" x="1514" y="-62" font-family="Helvetica,sans-Serif" font-size="10.00">netinet/in.h</text>
</a>
</g>
</g>
<!-- Node19&#45;&gt;Node22 -->
<g id="edge34_Node000019_Node000022" class="edge">
<title>Node19&#45;&gt;Node22</title>
<g id="a_edge34_Node000019_Node000022"><a xlink:title=" ">
<path fill="none" stroke="#63b8ff" d="M1613.88,-109.98C1594.65,-101.42 1564.77,-88.11 1542.69,-78.28"/>
<polygon fill="#63b8ff" stroke="#63b8ff" points="1544.03,-75.04 1533.47,-74.17 1541.18,-81.44 1544.03,-75.04"/>
</a>
</g>
</g>
<!-- Node23 -->
<g id="Node000023" class="node">
<title>Node23</title>
<g id="a_Node000023"><a xlink:title=" ">
<polygon fill="#e0e0e0" stroke="#999999" points="1769.5,-74 1698.5,-74 1698.5,-55 1769.5,-55 1769.5,-74"/>
<text text-anchor="middle" x="1734" y="-62" font-family="Helvetica,sans-Serif" font-size="10.00">netinet/tcp.h</text>
</a>
</g>
</g>
<!-- Node19&#45;&gt;Node23 -->
<g id="edge35_Node000019_Node000023" class="edge">
<title>Node19&#45;&gt;Node23</title>
<g id="a_edge35_Node000019_Node000023"><a xlink:title=" ">
<path fill="none" stroke="#63b8ff" d="M1649.23,-109.98C1665.18,-101.61 1689.78,-88.7 1708.38,-78.95"/>
<polygon fill="#63b8ff" stroke="#63b8ff" points="1710.25,-81.92 1717.48,-74.17 1707,-75.72 1710.25,-81.92"/>
</a>
</g>
</g>
<!-- Node24 -->
<g id="Node000024" class="node">
<title>Node24</title>
<g id="a_Node000024"><a xlink:title=" ">
<polygon fill="#e0e0e0" stroke="#999999" points="1400.5,-74 1327.5,-74 1327.5,-55 1400.5,-55 1400.5,-74"/>
<text text-anchor="middle" x="1364" y="-62" font-family="Helvetica,sans-Serif" font-size="10.00">sys/socket.h</text>
</a>
</g>
</g>
<!-- Node19&#45;&gt;Node24 -->
<g id="edge38_Node000019_Node000024" class="edge">
<title>Node19&#45;&gt;Node24</title>
<g id="a_edge38_Node000019_Node000024"><a xlink:title=" ">
<path fill="none" stroke="#63b8ff" d="M1589.78,-109.98C1540.73,-100.32 1461.02,-84.62 1410.61,-74.68"/>
<polygon fill="#63b8ff" stroke="#63b8ff" points="1411.12,-71.22 1400.63,-72.72 1409.77,-78.08 1411.12,-71.22"/>
</a>
</g>
</g>
<!-- Node25 -->
<g id="Node000025" class="node">
<title>Node25</title>
<g id="a_Node000025"><a xlink:title=" ">
<polygon fill="#e0e0e0" stroke="#999999" points="1844,-74 1788,-74 1788,-55 1844,-55 1844,-74"/>
<text text-anchor="middle" x="1816" y="-62" font-family="Helvetica,sans-Serif" font-size="10.00">sys/uio.h</text>
</a>
</g>
</g>
<!-- Node19&#45;&gt;Node25 -->
<g id="edge39_Node000019_Node000025" class="edge">
<title>Node19&#45;&gt;Node25</title>
<g id="a_edge39_Node000019_Node000025"><a xlink:title=" ">
<path fill="none" stroke="#63b8ff" d="M1662.4,-109.98C1693.85,-100.88 1743.83,-86.4 1778.19,-76.45"/>
<polygon fill="#63b8ff" stroke="#63b8ff" points="1779.24,-79.79 1787.87,-73.65 1777.29,-73.07 1779.24,-79.79"/>
</a>
</g>
</g>
<!-- Node26 -->
<g id="Node000026" class="node">
<title>Node26</title>
<g id="a_Node000026"><a xlink:title=" ">
<polygon fill="#e0e0e0" stroke="#999999" points="1615.5,-74 1564.5,-74 1564.5,-55 1615.5,-55 1615.5,-74"/>
<text text-anchor="middle" x="1590" y="-62" font-family="Helvetica,sans-Serif" font-size="10.00">unistd.h</text>
</a>
</g>
</g>
<!-- Node19&#45;&gt;Node26 -->
<g id="edge40_Node000019_Node000026" class="edge">
<title>Node19&#45;&gt;Node26</title>
<g id="a_edge40_Node000019_Node000026"><a xlink:title=" ">
<path fill="none" stroke="#63b8ff" d="M1625.9,-109.75C1619.83,-102.26 1610.91,-91.28 1603.49,-82.13"/>
<polygon fill="#63b8ff" stroke="#63b8ff" points="1605.99,-79.65 1596.97,-74.09 1600.55,-84.06 1605.99,-79.65"/>
</a>
</g>
</g>
<!-- Node27&#45;&gt;Node6 -->
<g id="edge42_Node000027_Node000006" class="edge">
<title>Node27&#45;&gt;Node6</title>
<g id="a_edge42_Node000027_Node000006"><a xlink:title=" ">
<path fill="none" stroke="#63b8ff" d="M980.57,-164.82C962.57,-151.49 926.13,-125.85 892,-110 861.22,-95.71 824.64,-84.36 796.31,-76.71"/>
<polygon fill="#63b8ff" stroke="#63b8ff" points="796.84,-73.23 786.28,-74.06 795.05,-80 796.84,-73.23"/>
</a>
</g>
</g>
<!-- Node27&#45;&gt;Node9 -->
<g id="edge44_Node000027_Node000009" class="edge">
<title>Node27&#45;&gt;Node9</title>
<g id="a_edge44_Node000027_Node000009"><a xlink:title=" ">
<path fill="none" stroke="#63b8ff" d="M988.89,-164.66C982.68,-147.01 968.63,-107.09 960.38,-83.64"/>
<polygon fill="#63b8ff" stroke="#63b8ff" points="963.67,-82.43 957.05,-74.16 957.06,-84.75 963.67,-82.43"/>
</a>
</g>
</g>
<!-- Node27&#45;&gt;Node10 -->
<g id="edge45_Node000027_Node000010" class="edge">
<title>Node27&#45;&gt;Node10</title>
<g id="a_edge45_Node000027_Node000010"><a xlink:title=" ">
<path fill="none" stroke="#63b8ff" d="M943.81,-170.35C835.85,-163.27 566.41,-145.41 341,-129 315.88,-127.17 287.55,-124.98 265.93,-123.28"/>
<polygon fill="#63b8ff" stroke="#63b8ff" points="266.14,-119.78 255.9,-122.49 265.59,-126.76 266.14,-119.78"/>
</a>
</g>
</g>
<!-- Node27&#45;&gt;Node24 -->
<g id="edge46_Node000027_Node000024" class="edge">
<title>Node27&#45;&gt;Node24</title>
<g id="a_edge46_Node000027_Node000024"><a xlink:title=" ">
<path fill="none" stroke="#63b8ff" d="M991.97,-164.94C992.42,-151.06 995.5,-123.78 1012,-110 1057.33,-72.15 1232.24,-66.03 1317.18,-65.35"/>
<polygon fill="#63b8ff" stroke="#63b8ff" points="1317.35,-68.85 1327.32,-65.29 1317.3,-61.85 1317.35,-68.85"/>
</a>
</g>
</g>
<!-- Node28 -->
<g id="Node000028" class="node">
<title>Node28</title>
<g id="a_Node000028"><a xlink:title=" ">
<polygon fill="#e0e0e0" stroke="#999999" points="1069.5,-129 1020.5,-129 1020.5,-110 1069.5,-110 1069.5,-129"/>
<text text-anchor="middle" x="1045" y="-117" font-family="Helvetica,sans-Serif" font-size="10.00">netdb.h</text>
</a>
</g>
</g>
<!-- Node27&#45;&gt;Node28 -->
<g id="edge43_Node000027_Node000028" class="edge">
<title>Node27&#45;&gt;Node28</title>
<g id="a_edge43_Node000027_Node000028"><a xlink:title=" ">
<path fill="none" stroke="#63b8ff" d="M1000.75,-164.75C1008.47,-157.03 1019.9,-145.6 1029.22,-136.28"/>
<polygon fill="#63b8ff" stroke="#63b8ff" points="1031.81,-138.64 1036.41,-129.09 1026.86,-133.69 1031.81,-138.64"/>
</a>
</g>
</g>
<!-- Node29&#45;&gt;Node6 -->
<g id="edge58_Node000029_Node000006" class="edge">
<title>Node29&#45;&gt;Node6</title>
<g id="a_edge58_Node000029_Node000006"><a xlink:title=" ">
<path fill="none" stroke="#63b8ff" d="M1208.73,-164.97C1185.07,-156.47 1148.19,-142.74 1117,-129 1099.72,-121.39 1097.04,-115.56 1079,-110 982.61,-80.28 864.25,-70.4 799.01,-67.12"/>
<polygon fill="#63b8ff" stroke="#63b8ff" points="798.77,-63.61 788.62,-66.63 798.45,-70.6 798.77,-63.61"/>
</a>
</g>
</g>
<!-- Node29&#45;&gt;Node11 -->
<g id="edge55_Node000029_Node000011" class="edge">
<title>Node29&#45;&gt;Node11</title>
<g id="a_edge55_Node000029_Node000011"><a xlink:title=" ">
<path fill="none" stroke="#63b8ff" d="M1168.84,-169.49C1004.12,-159.21 569.43,-132.08 428.67,-123.29"/>
<polygon fill="#63b8ff" stroke="#63b8ff" points="428.48,-119.77 418.28,-122.64 428.04,-126.76 428.48,-119.77"/>
</a>
</g>
</g>
<!-- Node29&#45;&gt;Node13 -->
<g id="edge57_Node000029_Node000013" class="edge">
<title>Node29&#45;&gt;Node13</title>
<g id="a_edge57_Node000029_Node000013"><a xlink:title=" ">
<path fill="none" stroke="#63b8ff" d="M1168.91,-165.39C1083.74,-154.62 935.3,-135.84 860.25,-126.35"/>
<polygon fill="#63b8ff" stroke="#63b8ff" points="860.53,-122.86 850.17,-125.07 859.65,-129.8 860.53,-122.86"/>
</a>
</g>
</g>
<!-- Node29&#45;&gt;Node19 -->
<g id="edge59_Node000029_Node000019" class="edge">
<title>Node29&#45;&gt;Node19</title>
<g id="a_edge59_Node000029_Node000019"><a xlink:title=" ">
<path fill="none" stroke="#63b8ff" d="M1297.27,-164.98C1372.14,-155.06 1495.08,-138.77 1569.59,-128.9"/>
<polygon fill="#63b8ff" stroke="#63b8ff" points="1570.32,-132.34 1579.77,-127.55 1569.4,-125.4 1570.32,-132.34"/>
</a>
</g>
</g>
<!-- Node29&#45;&gt;Node21 -->
<g id="edge50_Node000029_Node000021" class="edge">
<title>Node29&#45;&gt;Node21</title>
<g id="a_edge50_Node000029_Node000021"><a xlink:title=" ">
<path fill="none" stroke="#63b8ff" d="M1297.23,-167.53C1349.32,-161.26 1416.95,-149.41 1435,-129 1445.65,-116.96 1446.15,-98.15 1444.59,-84.12"/>
<polygon fill="#63b8ff" stroke="#63b8ff" points="1448.03,-83.47 1443.05,-74.12 1441.11,-84.54 1448.03,-83.47"/>
</a>
</g>
</g>
<!-- Node29&#45;&gt;Node22 -->
<g id="edge52_Node000029_Node000022" class="edge">
<title>Node29&#45;&gt;Node22</title>
<g id="a_edge52_Node000029_Node000022"><a xlink:title=" ">
<path fill="none" stroke="#63b8ff" d="M1297.15,-170.65C1343,-166.28 1404.85,-155.46 1453,-129 1473.64,-117.66 1491.52,-96.98 1502.5,-82.3"/>
<polygon fill="#63b8ff" stroke="#63b8ff" points="1505.41,-84.24 1508.4,-74.08 1499.73,-80.16 1505.41,-84.24"/>
</a>
</g>
</g>
<!-- Node29&#45;&gt;Node24 -->
<g id="edge53_Node000029_Node000024" class="edge">
<title>Node29&#45;&gt;Node24</title>
<g id="a_edge53_Node000029_Node000024"><a xlink:title=" ">
<path fill="none" stroke="#63b8ff" d="M1297.22,-166.59C1344.8,-159.99 1403.88,-148.16 1419,-129 1432.93,-111.35 1410.13,-91.92 1389.79,-79.27"/>
<polygon fill="#63b8ff" stroke="#63b8ff" points="1391.44,-76.18 1381.05,-74.12 1387.89,-82.21 1391.44,-76.18"/>
</a>
</g>
</g>
<!-- Node29&#45;&gt;Node28 -->
<g id="edge51_Node000029_Node000028" class="edge">
<title>Node29&#45;&gt;Node28</title>
<g id="a_edge51_Node000029_Node000028"><a xlink:title=" ">
<path fill="none" stroke="#63b8ff" d="M1202.79,-164.98C1169.16,-155.5 1114.9,-140.21 1079.59,-130.25"/>
<polygon fill="#63b8ff" stroke="#63b8ff" points="1080.3,-126.82 1069.73,-127.47 1078.4,-133.55 1080.3,-126.82"/>
</a>
</g>
</g>
<!-- Node30 -->
<g id="Node000030" class="node">
<title>Node30</title>
<g id="a_Node000030"><a xlink:title=" ">
<polygon fill="#e0e0e0" stroke="#999999" points="1335.5,-129 1278.5,-129 1278.5,-110 1335.5,-110 1335.5,-129"/>
<text text-anchor="middle" x="1307" y="-117" font-family="Helvetica,sans-Serif" font-size="10.00">pthread.h</text>
</a>
</g>
</g>
<!-- Node29&#45;&gt;Node30 -->
<g id="edge48_Node000029_Node000030" class="edge">
<title>Node29&#45;&gt;Node30</title>
<g id="a_edge48_Node000029_Node000030"><a xlink:title=" ">
<path fill="none" stroke="#63b8ff" d="M1244.89,-164.98C1256.15,-156.92 1273.29,-144.65 1286.71,-135.03"/>
<polygon fill="#63b8ff" stroke="#63b8ff" points="1288.8,-137.84 1294.89,-129.17 1284.73,-132.15 1288.8,-137.84"/>
</a>
</g>
</g>
<!-- Node31 -->
<g id="Node000031" class="node">
<title>Node31</title>
<g id="a_Node000031"><a xlink:title=" ">
<polygon fill="#e0e0e0" stroke="#999999" points="1410,-129 1354,-129 1354,-110 1410,-110 1410,-129"/>
<text text-anchor="middle" x="1382" y="-117" font-family="Helvetica,sans-Serif" font-size="10.00">stdbool.h</text>
</a>
</g>
</g>
<!-- Node29&#45;&gt;Node31 -->
<g id="edge49_Node000029_Node000031" class="edge">
<title>Node29&#45;&gt;Node31</title>
<g id="a_edge49_Node000029_Node000031"><a xlink:title=" ">
<path fill="none" stroke="#63b8ff" d="M1256.94,-164.98C1281.56,-156.23 1320.12,-142.51 1347.92,-132.62"/>
<polygon fill="#63b8ff" stroke="#63b8ff" points="1349.38,-135.82 1357.62,-129.17 1347.03,-129.22 1349.38,-135.82"/>
</a>
</g>
</g>
<!-- Node32 -->
<g id="Node000032" class="node">
<title>Node32</title>
<g id="a_Node000032"><a xlink:title=" ">
<polygon fill="#e0e0e0" stroke="#999999" points="1188,-129 1126,-129 1126,-110 1188,-110 1188,-129"/>
<text text-anchor="middle" x="1157" y="-117" font-family="Helvetica,sans-Serif" font-size="10.00">sys/time.h</text>
</a>
</g>
</g>
<!-- Node29&#45;&gt;Node32 -->
<g id="edge54_Node000029_Node000032" class="edge">
<title>Node29&#45;&gt;Node32</title>
<g id="a_edge54_Node000029_Node000032"><a xlink:title=" ">
<path fill="none" stroke="#63b8ff" d="M1220.79,-164.98C1209.22,-156.92 1191.62,-144.65 1177.84,-135.03"/>
<polygon fill="#63b8ff" stroke="#63b8ff" points="1179.64,-132.02 1169.43,-129.17 1175.63,-137.76 1179.64,-132.02"/>
</a>
</g>
</g>
<!-- Node33 -->
<g id="Node000033" class="node">
<title>Node33</title>
<g id="a_Node000033"><a xlink:title=" ">
<polygon fill="#e0e0e0" stroke="#999999" points="1260,-129 1206,-129 1206,-110 1260,-110 1260,-129"/>
<text text-anchor="middle" x="1233" y="-117" font-family="Helvetica,sans-Serif" font-size="10.00">sys/un.h</text>
</a>
</g>
</g>
<!-- Node29&#45;&gt;Node33 -->
<g id="edge56_Node000029_Node000033" class="edge">
<title>Node29&#45;&gt;Node33</title>
<g id="a_edge56_Node000029_Node000033"><a xlink:title=" ">
<path fill="none" stroke="#63b8ff" d="M1233,-164.75C1233,-157.8 1233,-147.85 1233,-139.13"/>
<polygon fill="#63b8ff" stroke="#63b8ff" points="1236.5,-139.09 1233,-129.09 1229.5,-139.09 1236.5,-139.09"/>
</a>
</g>
</g>
<!-- Node35 -->
<g id="Node000035" class="node">
<title>Node35</title>
<g id="a_Node000035"><a xlink:title=" ">
<polygon fill="#e0e0e0" stroke="#999999" points="774,-239 702,-239 702,-220 774,-220 774,-239"/>
<text text-anchor="middle" x="738" y="-227" font-family="Helvetica,sans-Serif" font-size="10.00">openssl/err.h</text>
</a>
</g>
</g>
<!-- Node34&#45;&gt;Node35 -->
<g id="edge61_Node000034_Node000035" class="edge">
<title>Node34&#45;&gt;Node35</title>
<g id="a_edge61_Node000034_Node000035"><a xlink:title=" ">
<path fill="none" stroke="#63b8ff" d="M653.23,-274.98C669.18,-266.61 693.78,-253.7 712.38,-243.95"/>
<polygon fill="#63b8ff" stroke="#63b8ff" points="714.25,-246.92 721.48,-239.17 711,-240.72 714.25,-246.92"/>
</a>
</g>
</g>
<!-- Node34&#45;&gt;Node36 -->
<g id="edge62_Node000034_Node000036" class="edge">
<title>Node34&#45;&gt;Node36</title>
<g id="a_edge62_Node000034_Node000036"><a xlink:title=" ">
<path fill="none" stroke="#63b8ff" d="M604.38,-274.98C569.71,-265.93 514.74,-251.58 476.65,-241.64"/>
<polygon fill="#63b8ff" stroke="#63b8ff" points="477.43,-238.22 466.87,-239.08 475.66,-244.99 477.43,-238.22"/>
</a>
</g>
</g>
<!-- Node37 -->
<g id="Node000037" class="node">
<title>Node37</title>
<g id="a_Node000037"><a xlink:title=" ">
<polygon fill="#e0e0e0" stroke="#999999" points="572.5,-239 489.5,-239 489.5,-220 572.5,-220 572.5,-239"/>
<text text-anchor="middle" x="531" y="-227" font-family="Helvetica,sans-Serif" font-size="10.00">openssl/x509.h</text>
</a>
</g>
</g>
<!-- Node34&#45;&gt;Node37 -->
<g id="edge63_Node000034_Node000037" class="edge">
<title>Node34&#45;&gt;Node37</title>
<g id="a_edge63_Node000034_Node000037"><a xlink:title=" ">
<path fill="none" stroke="#63b8ff" d="M619.97,-274.98C603.07,-266.54 576.94,-253.47 557.36,-243.68"/>
<polygon fill="#63b8ff" stroke="#63b8ff" points="558.85,-240.51 548.34,-239.17 555.72,-246.77 558.85,-240.51"/>
</a>
</g>
</g>
<!-- Node38 -->
<g id="Node000038" class="node">
<title>Node38</title>
<g id="a_Node000038"><a xlink:title=" ">
<polygon fill="#e0e0e0" stroke="#999999" points="683.5,-239 590.5,-239 590.5,-220 683.5,-220 683.5,-239"/>
<text text-anchor="middle" x="637" y="-227" font-family="Helvetica,sans-Serif" font-size="10.00">openssl/x509v3.h</text>
</a>
</g>
</g>
<!-- Node34&#45;&gt;Node38 -->
<g id="edge64_Node000034_Node000038" class="edge">
<title>Node34&#45;&gt;Node38</title>
<g id="a_edge64_Node000034_Node000038"><a xlink:title=" ">
<path fill="none" stroke="#63b8ff" d="M637,-274.75C637,-267.8 637,-257.85 637,-249.13"/>
<polygon fill="#63b8ff" stroke="#63b8ff" points="640.5,-249.09 637,-239.09 633.5,-249.09 640.5,-249.09"/>
</a>
</g>
</g>
</g>
</svg>

<g id="navigator" transform="translate(0 0)" fill="#404254">
  <rect fill="#f2f5e9" fill-opacity="0.5" stroke="#606060" stroke-width=".5" x="0" y="0" width="60" height="60"/>
  <use id="zoomplus" xlink:href="#zoomPlus" x="17" y="9" onmousedown="handleZoom(evt,'in')"/>
  <use id="zoomminus" xlink:href="#zoomMin" x="42" y="9" onmousedown="handleZoom(evt,'out')"/>
  <use id="reset" xlink:href="#resetDef" x="30" y="36" onmousedown="handleReset()"/>
   <use id="arrowup" xlink:href="#arrowUp" x="0" y="0" onmousedown="handlePan(0,-1)"/>
  <use id="arrowright" xlink:href="#arrowRight" x="0" y="0" onmousedown="handlePan(1,0)"/>
  <use id="arrowdown" xlink:href="#arrowDown" x="0" y="0" onmousedown="handlePan(0,1)"/>
  <use id="arrowleft" xlink:href="#arrowLeft" x="0" y="0" onmousedown="handlePan(-1,0)"/>
</g>
<svg viewBox="0 0 15 15" width="100%" height="30px" preserveAspectRatio="xMaxYMin meet">
 <g id="arrow_out" transform="scale(0.3 0.3)">
  <a xlink:href="http2__client_8c__incl_org.svg" target="_base">
   <rect id="button" ry="5" rx="5" y="6" x="6" height="38" width="38"
        fill="#f2f5e9" fill-opacity="0.5" stroke="#606060" stroke-width="1.0"/>
   <path id="arrow"
     d="M 11.500037,31.436501 C 11.940474,20.09759 22.043105,11.32322 32.158766,21.979434 L 37.068811,17.246167 C 37.068811,17.246167 37.088388,32 37.088388,32 L 22.160133,31.978069 C 22.160133,31.978069 26.997745,27.140456 26.997745,27.140456 C 18.528582,18.264221 13.291696,25.230495 11.500037,31.436501 z"
     style="fill:#404040;"/>
  </a>
 </g>
</svg>

<style type='text/css'>
<![CDATA[
[data-mouse-over-selected='false'] { opacity: 0.7; }
[data-mouse-over-selected='true']  { opacity: 1.0; }
]]>
</style>
<script type="application/ecmascript"><![CDATA[
document.addEventListener('DOMContentLoaded', (event) => {
  highlightEdges();
  highlightAdjacentNodes();
});
]]></script>
</svg>
