<?xml version="1.0" encoding="UTF-8" standalone="no"?>
<!DOCTYPE svg PUBLIC "-//W3C//DTD SVG 1.1//EN"
 "http://www.w3.org/Graphics/SVG/1.1/DTD/svg11.dtd">
<!-- Generated by graphviz version 2.43.0 (0)
 -->
<!-- Title: proxy_connect.c Pages: 1 -->
<!--zoomable 467 -->

<svg id="main" version="1.1" xmlns="http://www.w3.org/2000/svg" xmlns:xlink="http://www.w3.org/1999/xlink" xml:space="preserve" onload="init(evt)">
<style type="text/css"><![CDATA[
.node, .edge {opacity: 0.7;}
.node.selected, .edge.selected {opacity: 1;}
.edge:hover path { stroke: red; }
.edge:hover polygon { stroke: red; fill: red; }
]]></style>

<defs>
  <circle id="rim" cx="0" cy="0" r="7"/>
  <circle id="rim2" cx="0" cy="0" r="3.5"/>
  <g id="zoomPlus">
    <use xlink:href="#rim" target="_top" fill="#404040"><set attributeName="fill" to="#808080" begin="zoomplus.mouseover" end="zoomplus.mouseout"/></use>
    <path d="M-4,0h8M0,-4v8" fill="none" stroke="white" stroke-width="1.5" pointer-events="none"/>
  </g>
  <g id="zoomMin">
    <use xlink:href="#rim" target="_top" fill="#404040"><set attributeName="fill" to="#808080" begin="zoomminus.mouseover" end="zoomminus.mouseout"/></use>
    <path d="M-4,0h8" fill="none" stroke="white" stroke-width="1.5" pointer-events="none"/>
  </g>
  <g id="arrowUp" transform="translate(30 24)">
    <use xlink:href="#rim" target="_top"/>
    <path pointer-events="none" fill="none" stroke="white" stroke-width="1.5" d="M0,-3.0v7 M-2.5,-0.5L0,-3.0L2.5,-0.5"/>
  </g>
  <g id="arrowRight" transform="rotate(90) translate(36 -43)">
    <use xlink:href="#rim" target="_top"/>
    <path pointer-events="none" fill="none" stroke="white" stroke-width="1.5" d="M0,-3.0v7 M-2.5,-0.5L0,-3.0L2.5,-0.5"/>
  </g>
  <g id="arrowDown" transform="rotate(180) translate(-30 -48)">
    <use xlink:href="#rim" target="_top"/>
    <path pointer-events="none" fill="none" stroke="white" stroke-width="1.5" d="M0,-3.0v7 M-2.5,-0.5L0,-3.0L2.5,-0.5"/>
  </g>
  <g id="arrowLeft" transform="rotate(270) translate(-36 17)">
    <use xlink:href="#rim" target="_top"/>
    <path pointer-events="none" fill="none" stroke="white" stroke-width="1.5" d="M0,-3.0v7 M-2.5,-0.5L0,-3.0L2.5,-0.5"/>
  </g>
  <g id="resetDef">
    <use xlink:href="#rim2" target="_top" fill="#404040"><set attributeName="fill" to="#808080" begin="reset.mouseover" end="reset.mouseout"/></use>
  </g>
</defs>
<script type="application/ecmascript">
var viewWidth = 2043;
var viewHeight = 467;
var sectionId = 'dynsection-0';
</script>
<script type="application/ecmascript" xlink:href="svg.min.js" target="_top"/>
<svg id="graph" class="graph">
<g id="viewport">
<title>proxy_connect.c</title>
<!-- Node1 -->
<g id="Node000001" class="node">
<title>Node1</title>
<g id="a_Node000001"><a xlink:title=" ">
<polygon fill="#999999" stroke="#666666" points="1434.5,-459 1345.5,-459 1345.5,-440 1434.5,-440 1434.5,-459"/>
<text text-anchor="middle" x="1390" y="-447" font-family="Helvetica,sans-Serif" font-size="10.00">proxy_connect.c</text>
</a>
</g>
</g>
<!-- Node2 -->
<g id="Node000002" class="node">
<title>Node2</title>
<g id="a_Node000002"><a xlink:title=" ">
<polygon fill="#e0e0e0" stroke="#999999" points="205,-404 155,-404 155,-385 205,-385 205,-404"/>
<text text-anchor="middle" x="180" y="-392" font-family="Helvetica,sans-Serif" font-size="10.00">signal.h</text>
</a>
</g>
</g>
<!-- Node1&#45;&gt;Node2 -->
<g id="edge1_Node000001_Node000002" class="edge">
<title>Node1&#45;&gt;Node2</title>
<g id="a_edge1_Node000001_Node000002"><a xlink:title=" ">
<path fill="none" stroke="#63b8ff" d="M1345.38,-447.86C1159.12,-445.02 443.03,-432.44 219,-404 217.72,-403.84 216.43,-403.65 215.12,-403.45"/>
<polygon fill="#63b8ff" stroke="#63b8ff" points="215.52,-399.97 205.06,-401.64 214.28,-406.86 215.52,-399.97"/>
</a>
</g>
</g>
<!-- Node3 -->
<g id="Node000003" class="node">
<title>Node3</title>
<g id="a_Node000003"><a xlink:title=" ">
<polygon fill="#e0e0e0" stroke="#999999" points="46,-74 0,-74 0,-55 46,-55 46,-74"/>
<text text-anchor="middle" x="23" y="-62" font-family="Helvetica,sans-Serif" font-size="10.00">stdio.h</text>
</a>
</g>
</g>
<!-- Node1&#45;&gt;Node3 -->
<g id="edge2_Node000001_Node000003" class="edge">
<title>Node1&#45;&gt;Node3</title>
<g id="a_edge2_Node000001_Node000003"><a xlink:title=" ">
<path fill="none" stroke="#63b8ff" d="M1345.35,-446.72C1132.72,-437.94 233,-397.43 233,-340.5 233,-340.5 233,-340.5 233,-173.5 233,-134.16 115,-93.11 55.91,-75.02"/>
<polygon fill="#63b8ff" stroke="#63b8ff" points="56.86,-71.66 46.28,-72.12 54.84,-78.36 56.86,-71.66"/>
</a>
</g>
</g>
<!-- Node4 -->
<g id="Node000004" class="node">
<title>Node4</title>
<g id="a_Node000004"><a xlink:title=" ">
<polygon fill="#e0e0e0" stroke="#999999" points="1967,-404 1919,-404 1919,-385 1967,-385 1967,-404"/>
<text text-anchor="middle" x="1943" y="-392" font-family="Helvetica,sans-Serif" font-size="10.00">stdlib.h</text>
</a>
</g>
</g>
<!-- Node1&#45;&gt;Node4 -->
<g id="edge3_Node000001_Node000004" class="edge">
<title>Node1&#45;&gt;Node4</title>
<g id="a_edge3_Node000001_Node000004"><a xlink:title=" ">
<path fill="none" stroke="#63b8ff" d="M1434.67,-446.65C1524.3,-442.51 1732.27,-430.66 1905,-404 1906.28,-403.8 1907.58,-403.59 1908.89,-403.36"/>
<polygon fill="#63b8ff" stroke="#63b8ff" points="1909.83,-406.74 1918.97,-401.38 1908.48,-399.87 1909.83,-406.74"/>
</a>
</g>
</g>
<!-- Node5 -->
<g id="Node000005" class="node">
<title>Node5</title>
<g id="a_Node000005"><a xlink:title=" ">
<polygon fill="#e0e0e0" stroke="#999999" points="2034.5,-404 1985.5,-404 1985.5,-385 2034.5,-385 2034.5,-404"/>
<text text-anchor="middle" x="2010" y="-392" font-family="Helvetica,sans-Serif" font-size="10.00">string.h</text>
</a>
</g>
</g>
<!-- Node1&#45;&gt;Node5 -->
<g id="edge4_Node000001_Node000005" class="edge">
<title>Node1&#45;&gt;Node5</title>
<g id="a_edge4_Node000001_Node000005"><a xlink:title=" ">
<path fill="none" stroke="#63b8ff" d="M1434.78,-447.68C1531.67,-445.34 1768.04,-436.67 1975.07,-403.84"/>
<polygon fill="#63b8ff" stroke="#63b8ff" points="1975.9,-407.25 1985.22,-402.21 1974.79,-400.34 1975.9,-407.25"/>
</a>
</g>
</g>
<!-- Node6 -->
<g id="Node000006" class="node">
<title>Node6</title>
<g id="a_Node000006"><a xlink:href="Except_8h.html" target="_top" xlink:title="Structured exception handling for C with TRY/EXCEPT/FINALLY blocks.">
<polygon fill="white" stroke="#666666" points="1363.5,-74 1286.5,-74 1286.5,-55 1363.5,-55 1363.5,-74"/>
<text text-anchor="middle" x="1325" y="-62" font-family="Helvetica,sans-Serif" font-size="10.00">core/Except.h</text>
</a>
</g>
</g>
<!-- Node1&#45;&gt;Node6 -->
<g id="edge5_Node000001_Node000006" class="edge">
<title>Node1&#45;&gt;Node6</title>
<g id="a_edge5_Node000001_Node000006"><a xlink:title=" ">
<path fill="none" stroke="#63b8ff" d="M1434.9,-448.31C1557.87,-446.59 1891,-433.37 1891,-340.5 1891,-340.5 1891,-340.5 1891,-173.5 1891,-121.1 1511.79,-82.12 1374.16,-69.7"/>
<polygon fill="#63b8ff" stroke="#63b8ff" points="1374.18,-66.19 1363.9,-68.79 1373.55,-73.16 1374.18,-66.19"/>
</a>
</g>
</g>
<!-- Node8 -->
<g id="Node000008" class="node">
<title>Node8</title>
<g id="a_Node000008"><a xlink:href="Socket_8h.html" target="_top" xlink:title="High&#45;level TCP/IP and Unix domain socket interface.">
<polygon fill="white" stroke="#666666" points="1066,-239 978,-239 978,-220 1066,-220 1066,-239"/>
<text text-anchor="middle" x="1022" y="-227" font-family="Helvetica,sans-Serif" font-size="10.00">socket/Socket.h</text>
</a>
</g>
</g>
<!-- Node1&#45;&gt;Node8 -->
<g id="edge7_Node000001_Node000008" class="edge">
<title>Node1&#45;&gt;Node8</title>
<g id="a_edge7_Node000001_Node000008"><a xlink:title=" ">
<path fill="none" stroke="#63b8ff" d="M1345.49,-446.32C1273.45,-442.06 1135.31,-430.61 1095,-404 1041.84,-368.91 1027.31,-286.68 1023.41,-249.43"/>
<polygon fill="#63b8ff" stroke="#63b8ff" points="1026.85,-248.68 1022.47,-239.04 1019.88,-249.31 1026.85,-248.68"/>
</a>
</g>
</g>
<!-- Node27 -->
<g id="Node000027" class="node">
<title>Node27</title>
<g id="a_Node000027"><a xlink:href="SocketProxy_8h.html" target="_top" xlink:title="Proxy tunneling support for HTTP CONNECT and SOCKS protocols.">
<polygon fill="white" stroke="#666666" points="1216,-404 1104,-404 1104,-385 1216,-385 1216,-404"/>
<text text-anchor="middle" x="1160" y="-392" font-family="Helvetica,sans-Serif" font-size="10.00">socket/SocketProxy.h</text>
</a>
</g>
</g>
<!-- Node1&#45;&gt;Node27 -->
<g id="edge39_Node000001_Node000027" class="edge">
<title>Node1&#45;&gt;Node27</title>
<g id="a_edge39_Node000001_Node000027"><a xlink:title=" ">
<path fill="none" stroke="#63b8ff" d="M1353.05,-439.98C1313.43,-430.86 1250.41,-416.33 1207.23,-406.38"/>
<polygon fill="#63b8ff" stroke="#63b8ff" points="1207.77,-402.92 1197.24,-404.08 1206.2,-409.74 1207.77,-402.92"/>
</a>
</g>
</g>
<!-- Node31 -->
<g id="Node000031" class="node">
<title>Node31</title>
<g id="a_Node000031"><a xlink:href="SocketTLSContext_8h.html" target="_top" xlink:title="TLS context management with secure defaults and certificate handling.">
<polygon fill="white" stroke="#666666" points="1540,-349 1418,-349 1418,-330 1540,-330 1540,-349"/>
<text text-anchor="middle" x="1479" y="-337" font-family="Helvetica,sans-Serif" font-size="10.00">tls/SocketTLSContext.h</text>
</a>
</g>
</g>
<!-- Node1&#45;&gt;Node31 -->
<g id="edge65_Node000001_Node000031" class="edge">
<title>Node1&#45;&gt;Node31</title>
<g id="a_edge65_Node000001_Node000031"><a xlink:title=" ">
<path fill="none" stroke="#63b8ff" d="M1397.28,-439.66C1412.16,-421.61 1446.22,-380.28 1465.34,-357.08"/>
<polygon fill="#63b8ff" stroke="#63b8ff" points="1468.21,-359.1 1471.86,-349.16 1462.8,-354.65 1468.21,-359.1"/>
</a>
</g>
</g>
<!-- Node32 -->
<g id="Node000032" class="node">
<title>Node32</title>
<g id="a_Node000032"><a xlink:href="SocketTLS_8h.html" target="_top" xlink:title="TLS/SSL socket integration with TLS 1.3 support.">
<polygon fill="white" stroke="#666666" points="1355.5,-294 1268.5,-294 1268.5,-275 1355.5,-275 1355.5,-294"/>
<text text-anchor="middle" x="1312" y="-282" font-family="Helvetica,sans-Serif" font-size="10.00">tls/SocketTLS.h</text>
</a>
</g>
</g>
<!-- Node1&#45;&gt;Node32 -->
<g id="edge64_Node000001_Node000032" class="edge">
<title>Node1&#45;&gt;Node32</title>
<g id="a_edge64_Node000001_Node000032"><a xlink:title=" ">
<path fill="none" stroke="#63b8ff" d="M1385.81,-439.74C1373.53,-414.09 1337.5,-338.78 1320.75,-303.78"/>
<polygon fill="#63b8ff" stroke="#63b8ff" points="1323.69,-301.82 1316.21,-294.31 1317.37,-304.84 1323.69,-301.82"/>
</a>
</g>
</g>
<!-- Node7 -->
<g id="Node000007" class="node">
<title>Node7</title>
<g id="a_Node000007"><a xlink:title=" ">
<polygon fill="#e0e0e0" stroke="#999999" points="1352,-19 1298,-19 1298,0 1352,0 1352,-19"/>
<text text-anchor="middle" x="1325" y="-7" font-family="Helvetica,sans-Serif" font-size="10.00">setjmp.h</text>
</a>
</g>
</g>
<!-- Node6&#45;&gt;Node7 -->
<g id="edge6_Node000006_Node000007" class="edge">
<title>Node6&#45;&gt;Node7</title>
<g id="a_edge6_Node000006_Node000007"><a xlink:title=" ">
<path fill="none" stroke="#63b8ff" d="M1325,-54.75C1325,-47.8 1325,-37.85 1325,-29.13"/>
<polygon fill="#63b8ff" stroke="#63b8ff" points="1328.5,-29.09 1325,-19.09 1321.5,-29.09 1328.5,-29.09"/>
</a>
</g>
</g>
<!-- Node8&#45;&gt;Node6 -->
<g id="edge8_Node000008_Node000006" class="edge">
<title>Node8&#45;&gt;Node6</title>
<g id="a_edge8_Node000008_Node000006"><a xlink:title=" ">
<path fill="none" stroke="#63b8ff" d="M1040.49,-219.99C1076.12,-203.44 1156.57,-165.35 1222,-129 1250.66,-113.08 1282.67,-92.96 1303.28,-79.69"/>
<polygon fill="#63b8ff" stroke="#63b8ff" points="1305.4,-82.48 1311.9,-74.11 1301.6,-76.61 1305.4,-82.48"/>
</a>
</g>
</g>
<!-- Node9 -->
<g id="Node000009" class="node">
<title>Node9</title>
<g id="a_Node000009"><a xlink:href="SocketConfig_8h.html" target="_top" xlink:title="Compile&#45;time configuration and platform detection for the socket library.">
<polygon fill="white" stroke="#666666" points="367,-129 261,-129 261,-110 367,-110 367,-129"/>
<text text-anchor="middle" x="314" y="-117" font-family="Helvetica,sans-Serif" font-size="10.00">core/SocketConfig.h</text>
</a>
</g>
</g>
<!-- Node8&#45;&gt;Node9 -->
<g id="edge9_Node000008_Node000009" class="edge">
<title>Node8&#45;&gt;Node9</title>
<g id="a_edge9_Node000008_Node000009"><a xlink:title=" ">
<path fill="none" stroke="#63b8ff" d="M977.88,-225.32C901.83,-219.5 741.31,-205.69 607,-184 517.57,-169.56 414.31,-145.4 357.36,-131.42"/>
<polygon fill="#63b8ff" stroke="#63b8ff" points="358.16,-128.01 347.62,-129.01 356.49,-134.8 358.16,-128.01"/>
</a>
</g>
</g>
<!-- Node18 -->
<g id="Node000018" class="node">
<title>Node18</title>
<g id="a_Node000018"><a xlink:href="SocketDNS_8h.html" target="_top" xlink:title="Asynchronous DNS resolution API.">
<polygon fill="white" stroke="#666666" points="1091,-184 995,-184 995,-165 1091,-165 1091,-184"/>
<text text-anchor="middle" x="1043" y="-172" font-family="Helvetica,sans-Serif" font-size="10.00">dns/SocketDNS.h</text>
</a>
</g>
</g>
<!-- Node8&#45;&gt;Node18 -->
<g id="edge19_Node000008_Node000018" class="edge">
<title>Node8&#45;&gt;Node18</title>
<g id="a_edge19_Node000008_Node000018"><a xlink:title=" ">
<path fill="none" stroke="#63b8ff" d="M1025.47,-219.75C1028.28,-212.65 1032.34,-202.4 1035.85,-193.56"/>
<polygon fill="#63b8ff" stroke="#63b8ff" points="1039.17,-194.68 1039.6,-184.09 1032.66,-192.1 1039.17,-194.68"/>
</a>
</g>
</g>
<!-- Node20 -->
<g id="Node000020" class="node">
<title>Node20</title>
<g id="a_Node000020"><a xlink:href="SocketCommon_8h.html" target="_top" xlink:title="Common utilities shared between Socket and SocketDgram modules.">
<polygon fill="white" stroke="#666666" points="744,-184 616,-184 616,-165 744,-165 744,-184"/>
<text text-anchor="middle" x="680" y="-172" font-family="Helvetica,sans-Serif" font-size="10.00">socket/SocketCommon.h</text>
</a>
</g>
</g>
<!-- Node8&#45;&gt;Node20 -->
<g id="edge24_Node000008_Node000020" class="edge">
<title>Node8&#45;&gt;Node20</title>
<g id="a_edge24_Node000008_Node000020"><a xlink:title=" ">
<path fill="none" stroke="#63b8ff" d="M977.99,-221.68C918.87,-212.52 813.37,-196.17 745.07,-185.58"/>
<polygon fill="#63b8ff" stroke="#63b8ff" points="745.27,-182.07 734.86,-184 744.2,-188.99 745.27,-182.07"/>
</a>
</g>
</g>
<!-- Node9&#45;&gt;Node3 -->
<g id="edge15_Node000009_Node000003" class="edge">
<title>Node9&#45;&gt;Node3</title>
<g id="a_edge15_Node000009_Node000003"><a xlink:title=" ">
<path fill="none" stroke="#63b8ff" d="M260.65,-110.76C210.26,-103.13 132.36,-90.51 55.82,-74.01"/>
<polygon fill="#63b8ff" stroke="#63b8ff" points="56.53,-70.59 46.01,-71.88 55.04,-77.42 56.53,-70.59"/>
</a>
</g>
</g>
<!-- Node10 -->
<g id="Node000010" class="node">
<title>Node10</title>
<g id="a_Node000010"><a xlink:title=" ">
<polygon fill="#e0e0e0" stroke="#999999" points="180.5,-74 133.5,-74 133.5,-55 180.5,-55 180.5,-74"/>
<text text-anchor="middle" x="157" y="-62" font-family="Helvetica,sans-Serif" font-size="10.00">errno.h</text>
</a>
</g>
</g>
<!-- Node9&#45;&gt;Node10 -->
<g id="edge10_Node000009_Node000010" class="edge">
<title>Node9&#45;&gt;Node10</title>
<g id="a_edge10_Node000009_Node000010"><a xlink:title=" ">
<path fill="none" stroke="#63b8ff" d="M288.78,-109.98C262.1,-100.98 219.89,-86.73 190.45,-76.79"/>
<polygon fill="#63b8ff" stroke="#63b8ff" points="191.22,-73.36 180.62,-73.47 188.98,-79.99 191.22,-73.36"/>
</a>
</g>
</g>
<!-- Node11 -->
<g id="Node000011" class="node">
<title>Node11</title>
<g id="a_Node000011"><a xlink:title=" ">
<polygon fill="#e0e0e0" stroke="#999999" points="490,-74 446,-74 446,-55 490,-55 490,-74"/>
<text text-anchor="middle" x="468" y="-62" font-family="Helvetica,sans-Serif" font-size="10.00">fcntl.h</text>
</a>
</g>
</g>
<!-- Node9&#45;&gt;Node11 -->
<g id="edge11_Node000009_Node000011" class="edge">
<title>Node9&#45;&gt;Node11</title>
<g id="a_edge11_Node000009_Node000011"><a xlink:title=" ">
<path fill="none" stroke="#63b8ff" d="M338.74,-109.98C365.21,-100.88 407.28,-86.4 436.19,-76.45"/>
<polygon fill="#63b8ff" stroke="#63b8ff" points="437.5,-79.7 445.82,-73.13 435.22,-73.08 437.5,-79.7"/>
</a>
</g>
</g>
<!-- Node12 -->
<g id="Node000012" class="node">
<title>Node12</title>
<g id="a_Node000012"><a xlink:title=" ">
<polygon fill="#e0e0e0" stroke="#999999" points="427.5,-74 362.5,-74 362.5,-55 427.5,-55 427.5,-74"/>
<text text-anchor="middle" x="395" y="-62" font-family="Helvetica,sans-Serif" font-size="10.00">netinet/in.h</text>
</a>
</g>
</g>
<!-- Node9&#45;&gt;Node12 -->
<g id="edge12_Node000009_Node000012" class="edge">
<title>Node9&#45;&gt;Node12</title>
<g id="a_edge12_Node000009_Node000012"><a xlink:title=" ">
<path fill="none" stroke="#63b8ff" d="M327.01,-109.98C339.46,-101.84 358.46,-89.41 373.21,-79.76"/>
<polygon fill="#63b8ff" stroke="#63b8ff" points="375.3,-82.57 381.75,-74.17 371.46,-76.72 375.3,-82.57"/>
</a>
</g>
</g>
<!-- Node13 -->
<g id="Node000013" class="node">
<title>Node13</title>
<g id="a_Node000013"><a xlink:title=" ">
<polygon fill="#e0e0e0" stroke="#999999" points="269.5,-74 198.5,-74 198.5,-55 269.5,-55 269.5,-74"/>
<text text-anchor="middle" x="234" y="-62" font-family="Helvetica,sans-Serif" font-size="10.00">netinet/tcp.h</text>
</a>
</g>
</g>
<!-- Node9&#45;&gt;Node13 -->
<g id="edge13_Node000009_Node000013" class="edge">
<title>Node9&#45;&gt;Node13</title>
<g id="a_edge13_Node000009_Node000013"><a xlink:title=" ">
<path fill="none" stroke="#63b8ff" d="M301.15,-109.98C288.86,-101.84 270.09,-89.41 255.52,-79.76"/>
<polygon fill="#63b8ff" stroke="#63b8ff" points="257.36,-76.78 247.09,-74.17 253.49,-82.61 257.36,-76.78"/>
</a>
</g>
</g>
<!-- Node14 -->
<g id="Node000014" class="node">
<title>Node14</title>
<g id="a_Node000014"><a xlink:title=" ">
<polygon fill="#e0e0e0" stroke="#999999" points="1086,-74 1034,-74 1034,-55 1086,-55 1086,-74"/>
<text text-anchor="middle" x="1060" y="-62" font-family="Helvetica,sans-Serif" font-size="10.00">stddef.h</text>
</a>
</g>
</g>
<!-- Node9&#45;&gt;Node14 -->
<g id="edge14_Node000009_Node000014" class="edge">
<title>Node9&#45;&gt;Node14</title>
<g id="a_edge14_Node000009_Node000014"><a xlink:title=" ">
<path fill="none" stroke="#63b8ff" d="M367.05,-114.73C510.19,-104.56 901.7,-76.75 1023.4,-68.1"/>
<polygon fill="#63b8ff" stroke="#63b8ff" points="1023.94,-71.57 1033.67,-67.37 1023.45,-64.59 1023.94,-71.57"/>
</a>
</g>
</g>
<!-- Node15 -->
<g id="Node000015" class="node">
<title>Node15</title>
<g id="a_Node000015"><a xlink:title=" ">
<polygon fill="#e0e0e0" stroke="#999999" points="581.5,-74 508.5,-74 508.5,-55 581.5,-55 581.5,-74"/>
<text text-anchor="middle" x="545" y="-62" font-family="Helvetica,sans-Serif" font-size="10.00">sys/socket.h</text>
</a>
</g>
</g>
<!-- Node9&#45;&gt;Node15 -->
<g id="edge16_Node000009_Node000015" class="edge">
<title>Node9&#45;&gt;Node15</title>
<g id="a_edge16_Node000009_Node000015"><a xlink:title=" ">
<path fill="none" stroke="#63b8ff" d="M351.11,-109.98C391.14,-100.8 454.95,-86.16 498.34,-76.21"/>
<polygon fill="#63b8ff" stroke="#63b8ff" points="499.4,-79.55 508.36,-73.91 497.83,-72.73 499.4,-79.55"/>
</a>
</g>
</g>
<!-- Node16 -->
<g id="Node000016" class="node">
<title>Node16</title>
<g id="a_Node000016"><a xlink:title=" ">
<polygon fill="#e0e0e0" stroke="#999999" points="344,-74 288,-74 288,-55 344,-55 344,-74"/>
<text text-anchor="middle" x="316" y="-62" font-family="Helvetica,sans-Serif" font-size="10.00">sys/uio.h</text>
</a>
</g>
</g>
<!-- Node9&#45;&gt;Node16 -->
<g id="edge17_Node000009_Node000016" class="edge">
<title>Node9&#45;&gt;Node16</title>
<g id="a_edge17_Node000009_Node000016"><a xlink:title=" ">
<path fill="none" stroke="#63b8ff" d="M314.33,-109.75C314.59,-102.8 314.97,-92.85 315.3,-84.13"/>
<polygon fill="#63b8ff" stroke="#63b8ff" points="318.8,-84.21 315.68,-74.09 311.8,-83.95 318.8,-84.21"/>
</a>
</g>
</g>
<!-- Node17 -->
<g id="Node000017" class="node">
<title>Node17</title>
<g id="a_Node000017"><a xlink:title=" ">
<polygon fill="#e0e0e0" stroke="#999999" points="115.5,-74 64.5,-74 64.5,-55 115.5,-55 115.5,-74"/>
<text text-anchor="middle" x="90" y="-62" font-family="Helvetica,sans-Serif" font-size="10.00">unistd.h</text>
</a>
</g>
</g>
<!-- Node9&#45;&gt;Node17 -->
<g id="edge18_Node000009_Node000017" class="edge">
<title>Node9&#45;&gt;Node17</title>
<g id="a_edge18_Node000009_Node000017"><a xlink:title=" ">
<path fill="none" stroke="#63b8ff" d="M276.83,-109.97C240.59,-101.61 183.67,-88.38 125.68,-74.38"/>
<polygon fill="#63b8ff" stroke="#63b8ff" points="126.15,-70.9 115.61,-71.95 124.51,-77.7 126.15,-70.9"/>
</a>
</g>
</g>
<!-- Node18&#45;&gt;Node6 -->
<g id="edge20_Node000018_Node000006" class="edge">
<title>Node18&#45;&gt;Node6</title>
<g id="a_edge20_Node000018_Node000006"><a xlink:title=" ">
<path fill="none" stroke="#63b8ff" d="M1075.39,-164.93C1105.06,-156.75 1150.01,-143.56 1188,-129 1198.9,-124.82 1260.93,-95.73 1297.68,-78.41"/>
<polygon fill="#63b8ff" stroke="#63b8ff" points="1299.32,-81.5 1306.87,-74.07 1296.34,-75.17 1299.32,-81.5"/>
</a>
</g>
</g>
<!-- Node18&#45;&gt;Node14 -->
<g id="edge22_Node000018_Node000014" class="edge">
<title>Node18&#45;&gt;Node14</title>
<g id="a_edge22_Node000018_Node000014"><a xlink:title=" ">
<path fill="none" stroke="#63b8ff" d="M1045.88,-164.74C1048.68,-155.84 1052.82,-141.62 1055,-129 1057.56,-114.15 1058.82,-97.11 1059.42,-84.43"/>
<polygon fill="#63b8ff" stroke="#63b8ff" points="1062.93,-84.32 1059.82,-74.19 1055.94,-84.05 1062.93,-84.32"/>
</a>
</g>
</g>
<!-- Node18&#45;&gt;Node15 -->
<g id="edge23_Node000018_Node000015" class="edge">
<title>Node18&#45;&gt;Node15</title>
<g id="a_edge23_Node000018_Node000015"><a xlink:title=" ">
<path fill="none" stroke="#63b8ff" d="M1037.8,-164.65C1028.85,-150.34 1009.06,-122.47 984,-110 916.08,-76.22 690.54,-68.07 591.88,-66.12"/>
<polygon fill="#63b8ff" stroke="#63b8ff" points="591.68,-62.61 581.62,-65.93 591.55,-69.61 591.68,-62.61"/>
</a>
</g>
</g>
<!-- Node19 -->
<g id="Node000019" class="node">
<title>Node19</title>
<g id="a_Node000019"><a xlink:title=" ">
<polygon fill="#e0e0e0" stroke="#999999" points="974.5,-129 925.5,-129 925.5,-110 974.5,-110 974.5,-129"/>
<text text-anchor="middle" x="950" y="-117" font-family="Helvetica,sans-Serif" font-size="10.00">netdb.h</text>
</a>
</g>
</g>
<!-- Node18&#45;&gt;Node19 -->
<g id="edge21_Node000018_Node000019" class="edge">
<title>Node18&#45;&gt;Node19</title>
<g id="a_edge21_Node000018_Node000019"><a xlink:title=" ">
<path fill="none" stroke="#63b8ff" d="M1028.06,-164.98C1013.5,-156.69 991.13,-143.94 974.07,-134.22"/>
<polygon fill="#63b8ff" stroke="#63b8ff" points="975.64,-131.08 965.21,-129.17 972.17,-137.16 975.64,-131.08"/>
</a>
</g>
</g>
<!-- Node20&#45;&gt;Node6 -->
<g id="edge37_Node000020_Node000006" class="edge">
<title>Node20&#45;&gt;Node6</title>
<g id="a_edge37_Node000020_Node000006"><a xlink:title=" ">
<path fill="none" stroke="#63b8ff" d="M733.46,-164.96C773.85,-157.68 830.29,-145.73 878,-129 896.2,-122.62 898.48,-115.35 917,-110 1042.86,-73.67 1198.38,-66.57 1276.04,-65.46"/>
<polygon fill="#63b8ff" stroke="#63b8ff" points="1276.51,-68.95 1286.47,-65.33 1276.43,-61.95 1276.51,-68.95"/>
</a>
</g>
</g>
<!-- Node20&#45;&gt;Node9 -->
<g id="edge38_Node000020_Node000009" class="edge">
<title>Node20&#45;&gt;Node9</title>
<g id="a_edge38_Node000020_Node000009"><a xlink:title=" ">
<path fill="none" stroke="#63b8ff" d="M621.2,-164.98C554.41,-155.31 445.82,-139.59 377.24,-129.66"/>
<polygon fill="#63b8ff" stroke="#63b8ff" points="377.41,-126.15 367.01,-128.18 376.41,-133.07 377.41,-126.15"/>
</a>
</g>
</g>
<!-- Node20&#45;&gt;Node11 -->
<g id="edge27_Node000020_Node000011" class="edge">
<title>Node20&#45;&gt;Node11</title>
<g id="a_edge27_Node000020_Node000011"><a xlink:title=" ">
<path fill="none" stroke="#63b8ff" d="M615.86,-166.56C565.42,-159.78 500.65,-147.72 482,-129 470.43,-117.39 467.48,-98.52 467.1,-84.37"/>
<polygon fill="#63b8ff" stroke="#63b8ff" points="470.6,-84.29 467.22,-74.25 463.6,-84.21 470.6,-84.29"/>
</a>
</g>
</g>
<!-- Node20&#45;&gt;Node12 -->
<g id="edge29_Node000020_Node000012" class="edge">
<title>Node20&#45;&gt;Node12</title>
<g id="a_edge29_Node000020_Node000012"><a xlink:title=" ">
<path fill="none" stroke="#63b8ff" d="M615.67,-168.73C571.87,-163.45 513.61,-152.35 467,-129 443.83,-117.39 422.24,-96.46 408.87,-81.81"/>
<polygon fill="#63b8ff" stroke="#63b8ff" points="411.23,-79.21 401.99,-74.03 405.99,-83.84 411.23,-79.21"/>
</a>
</g>
</g>
<!-- Node20&#45;&gt;Node15 -->
<g id="edge30_Node000020_Node000015" class="edge">
<title>Node20&#45;&gt;Node15</title>
<g id="a_edge30_Node000020_Node000015"><a xlink:title=" ">
<path fill="none" stroke="#63b8ff" d="M615.74,-166.86C567.24,-160.37 506.49,-148.56 491,-129 477.15,-111.51 499.57,-92.05 519.6,-79.34"/>
<polygon fill="#63b8ff" stroke="#63b8ff" points="521.43,-82.32 528.2,-74.17 517.83,-76.32 521.43,-82.32"/>
</a>
</g>
</g>
<!-- Node20&#45;&gt;Node19 -->
<g id="edge28_Node000020_Node000019" class="edge">
<title>Node20&#45;&gt;Node19</title>
<g id="a_edge28_Node000020_Node000019"><a xlink:title=" ">
<path fill="none" stroke="#63b8ff" d="M726.08,-164.96C772.76,-156.24 846.99,-142.14 911,-129 912.44,-128.7 913.91,-128.4 915.4,-128.09"/>
<polygon fill="#63b8ff" stroke="#63b8ff" points="916.21,-131.49 925.26,-125.99 914.75,-124.65 916.21,-131.49"/>
</a>
</g>
</g>
<!-- Node21 -->
<g id="Node000021" class="node">
<title>Node21</title>
<g id="a_Node000021"><a xlink:title=" ">
<polygon fill="#e0e0e0" stroke="#999999" points="556.5,-129 499.5,-129 499.5,-110 556.5,-110 556.5,-129"/>
<text text-anchor="middle" x="528" y="-117" font-family="Helvetica,sans-Serif" font-size="10.00">pthread.h</text>
</a>
</g>
</g>
<!-- Node20&#45;&gt;Node21 -->
<g id="edge25_Node000020_Node000021" class="edge">
<title>Node20&#45;&gt;Node21</title>
<g id="a_edge25_Node000020_Node000021"><a xlink:title=" ">
<path fill="none" stroke="#63b8ff" d="M655.58,-164.98C630.28,-156.16 590.55,-142.31 562.14,-132.41"/>
<polygon fill="#63b8ff" stroke="#63b8ff" points="563.21,-129.07 552.61,-129.08 560.9,-135.68 563.21,-129.07"/>
</a>
</g>
</g>
<!-- Node22 -->
<g id="Node000022" class="node">
<title>Node22</title>
<g id="a_Node000022"><a xlink:title=" ">
<polygon fill="#e0e0e0" stroke="#999999" points="631,-129 575,-129 575,-110 631,-110 631,-129"/>
<text text-anchor="middle" x="603" y="-117" font-family="Helvetica,sans-Serif" font-size="10.00">stdbool.h</text>
</a>
</g>
</g>
<!-- Node20&#45;&gt;Node22 -->
<g id="edge26_Node000020_Node000022" class="edge">
<title>Node20&#45;&gt;Node22</title>
<g id="a_edge26_Node000020_Node000022"><a xlink:title=" ">
<path fill="none" stroke="#63b8ff" d="M667.63,-164.98C655.91,-156.92 638.08,-144.65 624.11,-135.03"/>
<polygon fill="#63b8ff" stroke="#63b8ff" points="625.82,-131.96 615.6,-129.17 621.85,-137.72 625.82,-131.96"/>
</a>
</g>
</g>
<!-- Node23 -->
<g id="Node000023" class="node">
<title>Node23</title>
<g id="a_Node000023"><a xlink:title=" ">
<polygon fill="#e0e0e0" stroke="#999999" points="711,-129 649,-129 649,-110 711,-110 711,-129"/>
<text text-anchor="middle" x="680" y="-117" font-family="Helvetica,sans-Serif" font-size="10.00">sys/time.h</text>
</a>
</g>
</g>
<!-- Node20&#45;&gt;Node23 -->
<g id="edge31_Node000020_Node000023" class="edge">
<title>Node20&#45;&gt;Node23</title>
<g id="a_edge31_Node000020_Node000023"><a xlink:title=" ">
<path fill="none" stroke="#63b8ff" d="M680,-164.75C680,-157.8 680,-147.85 680,-139.13"/>
<polygon fill="#63b8ff" stroke="#63b8ff" points="683.5,-139.09 680,-129.09 676.5,-139.09 683.5,-139.09"/>
</a>
</g>
</g>
<!-- Node24 -->
<g id="Node000024" class="node">
<title>Node24</title>
<g id="a_Node000024"><a xlink:title=" ">
<polygon fill="#e0e0e0" stroke="#999999" points="797,-129 729,-129 729,-110 797,-110 797,-129"/>
<text text-anchor="middle" x="763" y="-117" font-family="Helvetica,sans-Serif" font-size="10.00">sys/types.h</text>
</a>
</g>
</g>
<!-- Node20&#45;&gt;Node24 -->
<g id="edge32_Node000020_Node000024" class="edge">
<title>Node20&#45;&gt;Node24</title>
<g id="a_edge32_Node000020_Node000024"><a xlink:title=" ">
<path fill="none" stroke="#63b8ff" d="M693.34,-164.98C706.09,-156.84 725.55,-144.41 740.67,-134.76"/>
<polygon fill="#63b8ff" stroke="#63b8ff" points="742.88,-137.5 749.42,-129.17 739.11,-131.6 742.88,-137.5"/>
</a>
</g>
</g>
<!-- Node25 -->
<g id="Node000025" class="node">
<title>Node25</title>
<g id="a_Node000025"><a xlink:title=" ">
<polygon fill="#e0e0e0" stroke="#999999" points="869,-129 815,-129 815,-110 869,-110 869,-129"/>
<text text-anchor="middle" x="842" y="-117" font-family="Helvetica,sans-Serif" font-size="10.00">sys/un.h</text>
</a>
</g>
</g>
<!-- Node20&#45;&gt;Node25 -->
<g id="edge33_Node000020_Node000025" class="edge">
<title>Node20&#45;&gt;Node25</title>
<g id="a_edge33_Node000020_Node000025"><a xlink:title=" ">
<path fill="none" stroke="#63b8ff" d="M706.03,-164.98C733.11,-156.13 775.71,-142.19 806.01,-132.28"/>
<polygon fill="#63b8ff" stroke="#63b8ff" points="807.35,-135.52 815.77,-129.08 805.18,-128.87 807.35,-135.52"/>
</a>
</g>
</g>
<!-- Node26 -->
<g id="Node000026" class="node">
<title>Node26</title>
<g id="a_Node000026"><a xlink:href="Arena_8h.html" target="_top" xlink:title="Arena&#45;based memory allocator for efficient bulk memory management.">
<polygon fill="white" stroke="#666666" points="1179,-129 1107,-129 1107,-110 1179,-110 1179,-129"/>
<text text-anchor="middle" x="1143" y="-117" font-family="Helvetica,sans-Serif" font-size="10.00">core/Arena.h</text>
</a>
</g>
</g>
<!-- Node20&#45;&gt;Node26 -->
<g id="edge34_Node000020_Node000026" class="edge">
<title>Node20&#45;&gt;Node26</title>
<g id="a_edge34_Node000020_Node000026"><a xlink:title=" ">
<path fill="none" stroke="#63b8ff" d="M744.38,-166.13C839.1,-155.29 1013.74,-135.3 1096.79,-125.79"/>
<polygon fill="#63b8ff" stroke="#63b8ff" points="1097.39,-129.24 1106.93,-124.63 1096.6,-122.29 1097.39,-129.24"/>
</a>
</g>
</g>
<!-- Node26&#45;&gt;Node6 -->
<g id="edge36_Node000026_Node000006" class="edge">
<title>Node26&#45;&gt;Node6</title>
<g id="a_edge36_Node000026_Node000006"><a xlink:title=" ">
<path fill="none" stroke="#63b8ff" d="M1172.24,-109.98C1203.06,-101.01 1251.78,-86.82 1285.89,-76.89"/>
<polygon fill="#63b8ff" stroke="#63b8ff" points="1286.91,-80.24 1295.53,-74.08 1284.95,-73.52 1286.91,-80.24"/>
</a>
</g>
</g>
<!-- Node26&#45;&gt;Node14 -->
<g id="edge35_Node000026_Node000014" class="edge">
<title>Node26&#45;&gt;Node14</title>
<g id="a_edge35_Node000026_Node000014"><a xlink:title=" ">
<path fill="none" stroke="#63b8ff" d="M1129.66,-109.98C1116.91,-101.84 1097.45,-89.41 1082.33,-79.76"/>
<polygon fill="#63b8ff" stroke="#63b8ff" points="1083.89,-76.6 1073.58,-74.17 1080.12,-82.5 1083.89,-76.6"/>
</a>
</g>
</g>
<!-- Node27&#45;&gt;Node6 -->
<g id="edge42_Node000027_Node000006" class="edge">
<title>Node27&#45;&gt;Node6</title>
<g id="a_edge42_Node000027_Node000006"><a xlink:title=" ">
<path fill="none" stroke="#63b8ff" d="M1202.11,-384.91C1249.37,-372.96 1324.7,-346.6 1365,-294 1414.8,-229.01 1414.98,-180.88 1374,-110 1367.24,-98.3 1356.35,-87.97 1346.56,-80.2"/>
<polygon fill="#63b8ff" stroke="#63b8ff" points="1348.47,-77.26 1338.36,-74.08 1344.28,-82.87 1348.47,-77.26"/>
</a>
</g>
</g>
<!-- Node27&#45;&gt;Node8 -->
<g id="edge50_Node000027_Node000008" class="edge">
<title>Node27&#45;&gt;Node8</title>
<g id="a_edge50_Node000027_Node000008"><a xlink:title=" ">
<path fill="none" stroke="#63b8ff" d="M1136.51,-384.93C1119.1,-377.61 1095.75,-365.6 1080,-349 1052.12,-319.62 1035.08,-274.29 1027.21,-249.06"/>
<polygon fill="#63b8ff" stroke="#63b8ff" points="1030.51,-247.89 1024.31,-239.3 1023.8,-249.88 1030.51,-247.89"/>
</a>
</g>
</g>
<!-- Node27&#45;&gt;Node14 -->
<g id="edge40_Node000027_Node000014" class="edge">
<title>Node27&#45;&gt;Node14</title>
<g id="a_edge40_Node000027_Node000014"><a xlink:title=" ">
<path fill="none" stroke="#63b8ff" d="M1132.59,-384.96C1111.65,-377.59 1082.78,-365.5 1061,-349 1010.2,-310.51 990.75,-298.91 969,-239 946.64,-177.4 1009.48,-110.25 1041.94,-80.79"/>
<polygon fill="#63b8ff" stroke="#63b8ff" points="1044.29,-83.38 1049.47,-74.14 1039.66,-78.14 1044.29,-83.38"/>
</a>
</g>
</g>
<!-- Node27&#45;&gt;Node18 -->
<g id="edge43_Node000027_Node000018" class="edge">
<title>Node27&#45;&gt;Node18</title>
<g id="a_edge43_Node000027_Node000018"><a xlink:title=" ">
<path fill="none" stroke="#63b8ff" d="M1149.68,-384.94C1140.24,-376.64 1126.51,-363.22 1118,-349 1086.97,-297.14 1102.51,-273.81 1075,-220 1069.97,-210.17 1062.93,-200.11 1056.73,-192.04"/>
<polygon fill="#63b8ff" stroke="#63b8ff" points="1059.44,-189.83 1050.47,-184.19 1053.96,-194.19 1059.44,-189.83"/>
</a>
</g>
</g>
<!-- Node27&#45;&gt;Node26 -->
<g id="edge41_Node000027_Node000026" class="edge">
<title>Node27&#45;&gt;Node26</title>
<g id="a_edge41_Node000027_Node000026"><a xlink:title=" ">
<path fill="none" stroke="#63b8ff" d="M1159.1,-384.99C1157.32,-367.81 1153.3,-327.74 1151,-294 1147.16,-237.73 1144.66,-171.08 1143.59,-139.24"/>
<polygon fill="#63b8ff" stroke="#63b8ff" points="1147.09,-139.05 1143.26,-129.17 1140.09,-139.28 1147.09,-139.05"/>
</a>
</g>
</g>
<!-- Node28 -->
<g id="Node000028" class="node">
<title>Node28</title>
<g id="a_Node000028"><a xlink:href="SocketPoll_8h.html" target="_top" xlink:title="Cross&#45;platform high&#45;level interface for monitoring multiple sockets for I/O events.">
<polygon fill="white" stroke="#666666" points="1250,-294 1160,-294 1160,-275 1250,-275 1250,-294"/>
<text text-anchor="middle" x="1205" y="-282" font-family="Helvetica,sans-Serif" font-size="10.00">poll/SocketPoll.h</text>
</a>
</g>
</g>
<!-- Node27&#45;&gt;Node28 -->
<g id="edge44_Node000027_Node000028" class="edge">
<title>Node27&#45;&gt;Node28</title>
<g id="a_edge44_Node000027_Node000028"><a xlink:title=" ">
<path fill="none" stroke="#63b8ff" d="M1163.68,-384.66C1171.04,-367.01 1187.67,-327.09 1197.44,-303.64"/>
<polygon fill="#63b8ff" stroke="#63b8ff" points="1200.78,-304.74 1201.39,-294.16 1194.32,-302.04 1200.78,-304.74"/>
</a>
</g>
</g>
<!-- Node27&#45;&gt;Node31 -->
<g id="edge51_Node000027_Node000031" class="edge">
<title>Node27&#45;&gt;Node31</title>
<g id="a_edge51_Node000027_Node000031"><a xlink:title=" ">
<path fill="none" stroke="#63b8ff" d="M1211.25,-384.98C1267.44,-375.65 1357.57,-360.67 1417.52,-350.71"/>
<polygon fill="#63b8ff" stroke="#63b8ff" points="1418.32,-354.13 1427.61,-349.04 1417.17,-347.22 1418.32,-354.13"/>
</a>
</g>
</g>
<!-- Node28&#45;&gt;Node6 -->
<g id="edge45_Node000028_Node000006" class="edge">
<title>Node28&#45;&gt;Node6</title>
<g id="a_edge45_Node000028_Node000006"><a xlink:title=" ">
<path fill="none" stroke="#63b8ff" d="M1250.03,-276.1C1272.5,-269.99 1298.02,-258.94 1313,-239 1347.71,-192.8 1337.23,-118.72 1329.73,-84.26"/>
<polygon fill="#63b8ff" stroke="#63b8ff" points="1333.06,-83.13 1327.37,-74.19 1326.24,-84.72 1333.06,-83.13"/>
</a>
</g>
</g>
<!-- Node28&#45;&gt;Node8 -->
<g id="edge49_Node000028_Node000008" class="edge">
<title>Node28&#45;&gt;Node8</title>
<g id="a_edge49_Node000028_Node000008"><a xlink:title=" ">
<path fill="none" stroke="#63b8ff" d="M1175.6,-274.98C1144.61,-266.01 1095.62,-251.82 1061.33,-241.89"/>
<polygon fill="#63b8ff" stroke="#63b8ff" points="1062.21,-238.5 1051.63,-239.08 1060.26,-245.23 1062.21,-238.5"/>
</a>
</g>
</g>
<!-- Node29 -->
<g id="Node000029" class="node">
<title>Node29</title>
<g id="a_Node000029"><a xlink:href="SocketTimer_8h.html" target="_top" xlink:title="High&#45;performance timer subsystem integrated with the event loop.">
<polygon fill="white" stroke="#666666" points="1303.5,-239 1202.5,-239 1202.5,-220 1303.5,-220 1303.5,-239"/>
<text text-anchor="middle" x="1253" y="-227" font-family="Helvetica,sans-Serif" font-size="10.00">core/SocketTimer.h</text>
</a>
</g>
</g>
<!-- Node28&#45;&gt;Node29 -->
<g id="edge46_Node000028_Node000029" class="edge">
<title>Node28&#45;&gt;Node29</title>
<g id="a_edge46_Node000028_Node000029"><a xlink:title=" ">
<path fill="none" stroke="#63b8ff" d="M1212.93,-274.75C1219.85,-267.11 1230.07,-255.82 1238.45,-246.56"/>
<polygon fill="#63b8ff" stroke="#63b8ff" points="1241.1,-248.85 1245.22,-239.09 1235.91,-244.15 1241.1,-248.85"/>
</a>
</g>
</g>
<!-- Node29&#45;&gt;Node6 -->
<g id="edge47_Node000029_Node000006" class="edge">
<title>Node29&#45;&gt;Node6</title>
<g id="a_edge47_Node000029_Node000006"><a xlink:title=" ">
<path fill="none" stroke="#63b8ff" d="M1261.01,-219.92C1268.6,-211.38 1279.89,-197.62 1287,-184 1304.36,-150.77 1315.64,-108.15 1321.11,-84.13"/>
<polygon fill="#63b8ff" stroke="#63b8ff" points="1324.56,-84.75 1323.28,-74.23 1317.72,-83.25 1324.56,-84.75"/>
</a>
</g>
</g>
<!-- Node30 -->
<g id="Node000030" class="node">
<title>Node30</title>
<g id="a_Node000030"><a xlink:title=" ">
<polygon fill="#e0e0e0" stroke="#999999" points="1277.5,-184 1228.5,-184 1228.5,-165 1277.5,-165 1277.5,-184"/>
<text text-anchor="middle" x="1253" y="-172" font-family="Helvetica,sans-Serif" font-size="10.00">stdint.h</text>
</a>
</g>
</g>
<!-- Node29&#45;&gt;Node30 -->
<g id="edge48_Node000029_Node000030" class="edge">
<title>Node29&#45;&gt;Node30</title>
<g id="a_edge48_Node000029_Node000030"><a xlink:title=" ">
<path fill="none" stroke="#63b8ff" d="M1253,-219.75C1253,-212.8 1253,-202.85 1253,-194.13"/>
<polygon fill="#63b8ff" stroke="#63b8ff" points="1256.5,-194.09 1253,-184.09 1249.5,-194.09 1256.5,-194.09"/>
</a>
</g>
</g>
<!-- Node31&#45;&gt;Node6 -->
<g id="edge53_Node000031_Node000006" class="edge">
<title>Node31&#45;&gt;Node6</title>
<g id="a_edge53_Node000031_Node000006"><a xlink:title=" ">
<path fill="none" stroke="#63b8ff" d="M1478.38,-329.82C1475.53,-292.36 1462.66,-144.8 1434,-110 1418.85,-91.6 1394.87,-80.72 1373.27,-74.34"/>
<polygon fill="#63b8ff" stroke="#63b8ff" points="1374.11,-70.94 1363.54,-71.71 1372.28,-77.7 1374.11,-70.94"/>
</a>
</g>
</g>
<!-- Node31&#45;&gt;Node26 -->
<g id="edge52_Node000031_Node000026" class="edge">
<title>Node31&#45;&gt;Node26</title>
<g id="a_edge52_Node000031_Node000026"><a xlink:title=" ">
<path fill="none" stroke="#63b8ff" d="M1466.62,-329.94C1446.31,-316.3 1404.26,-289.68 1365,-275 1292.25,-247.8 1254.1,-288.19 1194,-239 1162.91,-213.55 1150.35,-165.59 1145.62,-139.15"/>
<polygon fill="#63b8ff" stroke="#63b8ff" points="1149.07,-138.59 1144.04,-129.27 1142.16,-139.7 1149.07,-138.59"/>
</a>
</g>
</g>
<!-- Node31&#45;&gt;Node32 -->
<g id="edge54_Node000031_Node000032" class="edge">
<title>Node31&#45;&gt;Node32</title>
<g id="a_edge54_Node000031_Node000032"><a xlink:title=" ">
<path fill="none" stroke="#63b8ff" d="M1452.17,-329.98C1424.13,-321.09 1379.95,-307.07 1348.7,-297.15"/>
<polygon fill="#63b8ff" stroke="#63b8ff" points="1349.63,-293.77 1339.04,-294.08 1347.51,-300.44 1349.63,-293.77"/>
</a>
</g>
</g>
<!-- Node33 -->
<g id="Node000033" class="node">
<title>Node33</title>
<g id="a_Node000033"><a xlink:href="SocketTLSConfig_8h.html" target="_top" xlink:title="TLS configuration constants, structure, and secure defaults.">
<polygon fill="white" stroke="#666666" points="1760,-294 1644,-294 1644,-275 1760,-275 1760,-294"/>
<text text-anchor="middle" x="1702" y="-282" font-family="Helvetica,sans-Serif" font-size="10.00">tls/SocketTLSConfig.h</text>
</a>
</g>
</g>
<!-- Node31&#45;&gt;Node33 -->
<g id="edge57_Node000031_Node000033" class="edge">
<title>Node31&#45;&gt;Node33</title>
<g id="a_edge57_Node000031_Node000033"><a xlink:title=" ">
<path fill="none" stroke="#63b8ff" d="M1514.83,-329.98C1553.16,-320.87 1614.08,-306.4 1655.95,-296.45"/>
<polygon fill="#63b8ff" stroke="#63b8ff" points="1656.97,-299.8 1665.89,-294.08 1655.35,-292.99 1656.97,-299.8"/>
</a>
</g>
</g>
<!-- Node35 -->
<g id="Node000035" class="node">
<title>Node35</title>
<g id="a_Node000035"><a xlink:title=" ">
<polygon fill="#e0e0e0" stroke="#999999" points="1560,-239 1486,-239 1486,-220 1560,-220 1560,-239"/>
<text text-anchor="middle" x="1523" y="-227" font-family="Helvetica,sans-Serif" font-size="10.00">openssl/ssl.h</text>
</a>
</g>
</g>
<!-- Node31&#45;&gt;Node35 -->
<g id="edge62_Node000031_Node000035" class="edge">
<title>Node31&#45;&gt;Node35</title>
<g id="a_edge62_Node000031_Node000035"><a xlink:title=" ">
<path fill="none" stroke="#63b8ff" d="M1482.6,-329.66C1489.79,-312.01 1506.06,-272.09 1515.61,-248.64"/>
<polygon fill="#63b8ff" stroke="#63b8ff" points="1518.94,-249.74 1519.47,-239.16 1512.46,-247.1 1518.94,-249.74"/>
</a>
</g>
</g>
<!-- Node38 -->
<g id="Node000038" class="node">
<title>Node38</title>
<g id="a_Node000038"><a xlink:title=" ">
<polygon fill="#e0e0e0" stroke="#999999" points="1626,-294 1526,-294 1526,-275 1626,-275 1626,-294"/>
<text text-anchor="middle" x="1576" y="-282" font-family="Helvetica,sans-Serif" font-size="10.00">openssl/x509_vfy.h</text>
</a>
</g>
</g>
<!-- Node31&#45;&gt;Node38 -->
<g id="edge63_Node000031_Node000038" class="edge">
<title>Node31&#45;&gt;Node38</title>
<g id="a_edge63_Node000031_Node000038"><a xlink:title=" ">
<path fill="none" stroke="#63b8ff" d="M1494.58,-329.98C1509.77,-321.69 1533.1,-308.94 1550.9,-299.22"/>
<polygon fill="#63b8ff" stroke="#63b8ff" points="1553.03,-302.04 1560.13,-294.17 1549.68,-295.89 1553.03,-302.04"/>
</a>
</g>
</g>
<!-- Node32&#45;&gt;Node6 -->
<g id="edge55_Node000032_Node000006" class="edge">
<title>Node32&#45;&gt;Node6</title>
<g id="a_edge55_Node000032_Node000006"><a xlink:title=" ">
<path fill="none" stroke="#63b8ff" d="M1325.78,-274.82C1336.82,-266.99 1351.49,-254.35 1358,-239 1380.38,-186.21 1375.98,-164.44 1358,-110 1354.54,-99.54 1347.57,-89.53 1340.92,-81.66"/>
<polygon fill="#63b8ff" stroke="#63b8ff" points="1343.33,-79.1 1334.02,-74.04 1338.14,-83.8 1343.33,-79.1"/>
</a>
</g>
</g>
<!-- Node32&#45;&gt;Node8 -->
<g id="edge56_Node000032_Node000008" class="edge">
<title>Node32&#45;&gt;Node8</title>
<g id="a_edge56_Node000032_Node000008"><a xlink:title=" ">
<path fill="none" stroke="#63b8ff" d="M1268.27,-275.51C1216.88,-266.12 1131.59,-250.53 1076.09,-240.39"/>
<polygon fill="#63b8ff" stroke="#63b8ff" points="1076.55,-236.91 1066.09,-238.56 1075.29,-243.8 1076.55,-236.91"/>
</a>
</g>
</g>
<!-- Node34 -->
<g id="Node000034" class="node">
<title>Node34</title>
<g id="a_Node000034"><a xlink:title=" ">
<polygon fill="#e0e0e0" stroke="#999999" points="1863,-239 1791,-239 1791,-220 1863,-220 1863,-239"/>
<text text-anchor="middle" x="1827" y="-227" font-family="Helvetica,sans-Serif" font-size="10.00">openssl/err.h</text>
</a>
</g>
</g>
<!-- Node33&#45;&gt;Node34 -->
<g id="edge58_Node000033_Node000034" class="edge">
<title>Node33&#45;&gt;Node34</title>
<g id="a_edge58_Node000033_Node000034"><a xlink:title=" ">
<path fill="none" stroke="#63b8ff" d="M1722.08,-274.98C1742.37,-266.38 1773.96,-252.99 1797.17,-243.15"/>
<polygon fill="#63b8ff" stroke="#63b8ff" points="1798.71,-246.3 1806.55,-239.17 1795.98,-239.85 1798.71,-246.3"/>
</a>
</g>
</g>
<!-- Node33&#45;&gt;Node35 -->
<g id="edge59_Node000033_Node000035" class="edge">
<title>Node33&#45;&gt;Node35</title>
<g id="a_edge59_Node000033_Node000035"><a xlink:title=" ">
<path fill="none" stroke="#63b8ff" d="M1673.24,-274.98C1643.06,-266.05 1595.43,-251.94 1561.9,-242.02"/>
<polygon fill="#63b8ff" stroke="#63b8ff" points="1562.57,-238.57 1551.98,-239.08 1560.58,-245.28 1562.57,-238.57"/>
</a>
</g>
</g>
<!-- Node36 -->
<g id="Node000036" class="node">
<title>Node36</title>
<g id="a_Node000036"><a xlink:title=" ">
<polygon fill="#e0e0e0" stroke="#999999" points="1661.5,-239 1578.5,-239 1578.5,-220 1661.5,-220 1661.5,-239"/>
<text text-anchor="middle" x="1620" y="-227" font-family="Helvetica,sans-Serif" font-size="10.00">openssl/x509.h</text>
</a>
</g>
</g>
<!-- Node33&#45;&gt;Node36 -->
<g id="edge60_Node000033_Node000036" class="edge">
<title>Node33&#45;&gt;Node36</title>
<g id="a_edge60_Node000033_Node000036"><a xlink:title=" ">
<path fill="none" stroke="#63b8ff" d="M1688.83,-274.98C1676.23,-266.84 1657,-254.41 1642.06,-244.76"/>
<polygon fill="#63b8ff" stroke="#63b8ff" points="1643.71,-241.66 1633.41,-239.17 1639.91,-247.54 1643.71,-241.66"/>
</a>
</g>
</g>
<!-- Node37 -->
<g id="Node000037" class="node">
<title>Node37</title>
<g id="a_Node000037"><a xlink:title=" ">
<polygon fill="#e0e0e0" stroke="#999999" points="1772.5,-239 1679.5,-239 1679.5,-220 1772.5,-220 1772.5,-239"/>
<text text-anchor="middle" x="1726" y="-227" font-family="Helvetica,sans-Serif" font-size="10.00">openssl/x509v3.h</text>
</a>
</g>
</g>
<!-- Node33&#45;&gt;Node37 -->
<g id="edge61_Node000033_Node000037" class="edge">
<title>Node33&#45;&gt;Node37</title>
<g id="a_edge61_Node000033_Node000037"><a xlink:title=" ">
<path fill="none" stroke="#63b8ff" d="M1705.96,-274.75C1709.21,-267.57 1713.92,-257.18 1717.95,-248.27"/>
<polygon fill="#63b8ff" stroke="#63b8ff" points="1721.17,-249.64 1722.11,-239.09 1714.8,-246.75 1721.17,-249.64"/>
</a>
</g>
</g>
</g>
</svg>

<g id="navigator" transform="translate(0 0)" fill="#404254">
  <rect fill="#f2f5e9" fill-opacity="0.5" stroke="#606060" stroke-width=".5" x="0" y="0" width="60" height="60"/>
  <use id="zoomplus" xlink:href="#zoomPlus" target="_top" x="17" y="9" onmousedown="handleZoom(evt,'in')"/>
  <use id="zoomminus" xlink:href="#zoomMin" target="_top" x="42" y="9" onmousedown="handleZoom(evt,'out')"/>
  <use id="reset" xlink:href="#resetDef" target="_top" x="30" y="36" onmousedown="handleReset()"/>
   <use id="arrowup" xlink:href="#arrowUp" target="_top" x="0" y="0" onmousedown="handlePan(0,-1)"/>
  <use id="arrowright" xlink:href="#arrowRight" target="_top" x="0" y="0" onmousedown="handlePan(1,0)"/>
  <use id="arrowdown" xlink:href="#arrowDown" target="_top" x="0" y="0" onmousedown="handlePan(0,1)"/>
  <use id="arrowleft" xlink:href="#arrowLeft" target="_top" x="0" y="0" onmousedown="handlePan(-1,0)"/>
</g>
<svg viewBox="0 0 15 15" width="100%" height="30px" preserveAspectRatio="xMaxYMin meet">
 <g id="arrow_out" transform="scale(0.3 0.3)">
  <a xlink:href="proxy__connect_8c__incl_org.svg" target="_base">
   <rect id="button" ry="5" rx="5" y="6" x="6" height="38" width="38"
        fill="#f2f5e9" fill-opacity="0.5" stroke="#606060" stroke-width="1.0"/>
   <path id="arrow"
     d="M 11.500037,31.436501 C 11.940474,20.09759 22.043105,11.32322 32.158766,21.979434 L 37.068811,17.246167 C 37.068811,17.246167 37.088388,32 37.088388,32 L 22.160133,31.978069 C 22.160133,31.978069 26.997745,27.140456 26.997745,27.140456 C 18.528582,18.264221 13.291696,25.230495 11.500037,31.436501 z"
     style="fill:#404040;"/>
  </a>
 </g>
</svg>

<style type='text/css'>
<![CDATA[
[data-mouse-over-selected='false'] { opacity: 0.7; }
[data-mouse-over-selected='true']  { opacity: 1.0; }
]]>
</style>
<script type="application/ecmascript"><![CDATA[
document.addEventListener('DOMContentLoaded', (event) => {
  highlightEdges();
  highlightAdjacentNodes();
});
]]></script>
</svg>
</svg>
