<?xml version="1.0" encoding="UTF-8" standalone="no"?>
<!DOCTYPE svg PUBLIC "-//W3C//DTD SVG 1.1//EN"
 "http://www.w3.org/Graphics/SVG/1.1/DTD/svg11.dtd">
<!-- Generated by graphviz version 2.43.0 (0)
 -->
<!-- Title: proxy_connect.c Pages: 1 -->
<svg width="1564pt" height="467pt"
 viewBox="0.00 0.00 1564.00 467.00" xmlns="http://www.w3.org/2000/svg" xmlns:xlink="http://www.w3.org/1999/xlink">
<g id="graph0" class="graph" transform="scale(1 1) rotate(0) translate(4 463)">
<title>proxy_connect.c</title>
<!-- Node1 -->
<g id="Node000001" class="node">
<title>Node1</title>
<g id="a_Node000001"><a xlink:title=" ">
<polygon fill="#999999" stroke="#666666" points="1018.5,-459 929.5,-459 929.5,-440 1018.5,-440 1018.5,-459"/>
<text text-anchor="middle" x="974" y="-447" font-family="Helvetica,sans-Serif" font-size="10.00">proxy_connect.c</text>
</a>
</g>
</g>
<!-- Node2 -->
<g id="Node000002" class="node">
<title>Node2</title>
<g id="a_Node000002"><a xlink:title=" ">
<polygon fill="#e0e0e0" stroke="#999999" points="206,-404 156,-404 156,-385 206,-385 206,-404"/>
<text text-anchor="middle" x="181" y="-392" font-family="Helvetica,sans-Serif" font-size="10.00">signal.h</text>
</a>
</g>
</g>
<!-- Node1&#45;&gt;Node2 -->
<g id="edge1_Node000001_Node000002" class="edge">
<title>Node1&#45;&gt;Node2</title>
<g id="a_edge1_Node000001_Node000002"><a xlink:title=" ">
<path fill="none" stroke="#63b8ff" d="M929.15,-448.28C811.98,-447.19 487.28,-440.79 220,-404 218.73,-403.82 217.43,-403.63 216.13,-403.42"/>
<polygon fill="#63b8ff" stroke="#63b8ff" points="216.54,-399.94 206.07,-401.57 215.27,-406.82 216.54,-399.94"/>
</a>
</g>
</g>
<!-- Node3 -->
<g id="Node000003" class="node">
<title>Node3</title>
<g id="a_Node000003"><a xlink:title=" ">
<polygon fill="#e0e0e0" stroke="#999999" points="46,-74 0,-74 0,-55 46,-55 46,-74"/>
<text text-anchor="middle" x="23" y="-62" font-family="Helvetica,sans-Serif" font-size="10.00">stdio.h</text>
</a>
</g>
</g>
<!-- Node1&#45;&gt;Node3 -->
<g id="edge2_Node000001_Node000003" class="edge">
<title>Node1&#45;&gt;Node3</title>
<g id="a_edge2_Node000001_Node000003"><a xlink:title=" ">
<path fill="none" stroke="#63b8ff" d="M929.38,-446.72C769.39,-439.76 234,-411.18 234,-340.5 234,-340.5 234,-340.5 234,-173.5 234,-134.02 115.44,-93.04 56.06,-75"/>
<polygon fill="#63b8ff" stroke="#63b8ff" points="56.97,-71.61 46.39,-72.1 54.96,-78.32 56.97,-71.61"/>
</a>
</g>
</g>
<!-- Node4 -->
<g id="Node000004" class="node">
<title>Node4</title>
<g id="a_Node000004"><a xlink:title=" ">
<polygon fill="#e0e0e0" stroke="#999999" points="878,-404 830,-404 830,-385 878,-385 878,-404"/>
<text text-anchor="middle" x="854" y="-392" font-family="Helvetica,sans-Serif" font-size="10.00">stdlib.h</text>
</a>
</g>
</g>
<!-- Node1&#45;&gt;Node4 -->
<g id="edge3_Node000001_Node000004" class="edge">
<title>Node1&#45;&gt;Node4</title>
<g id="a_edge3_Node000001_Node000004"><a xlink:title=" ">
<path fill="none" stroke="#63b8ff" d="M954.72,-439.98C935.33,-431.42 905.19,-418.11 882.93,-408.28"/>
<polygon fill="#63b8ff" stroke="#63b8ff" points="884.19,-405.01 873.63,-404.17 881.36,-411.41 884.19,-405.01"/>
</a>
</g>
</g>
<!-- Node5 -->
<g id="Node000005" class="node">
<title>Node5</title>
<g id="a_Node000005"><a xlink:title=" ">
<polygon fill="#e0e0e0" stroke="#999999" points="945.5,-404 896.5,-404 896.5,-385 945.5,-385 945.5,-404"/>
<text text-anchor="middle" x="921" y="-392" font-family="Helvetica,sans-Serif" font-size="10.00">string.h</text>
</a>
</g>
</g>
<!-- Node1&#45;&gt;Node5 -->
<g id="edge4_Node000001_Node000005" class="edge">
<title>Node1&#45;&gt;Node5</title>
<g id="a_edge4_Node000001_Node000005"><a xlink:title=" ">
<path fill="none" stroke="#63b8ff" d="M965.25,-439.75C957.53,-432.03 946.1,-420.6 936.78,-411.28"/>
<polygon fill="#63b8ff" stroke="#63b8ff" points="939.14,-408.69 929.59,-404.09 934.19,-413.64 939.14,-408.69"/>
</a>
</g>
</g>
<!-- Node6 -->
<g id="Node000006" class="node">
<title>Node6</title>
<g id="a_Node000006"><a xlink:href="Except_8h.html" target="_top" xlink:title=" ">
<polygon fill="white" stroke="#666666" points="1273.5,-74 1196.5,-74 1196.5,-55 1273.5,-55 1273.5,-74"/>
<text text-anchor="middle" x="1235" y="-62" font-family="Helvetica,sans-Serif" font-size="10.00">core/Except.h</text>
</a>
</g>
</g>
<!-- Node1&#45;&gt;Node6 -->
<g id="edge5_Node000001_Node000006" class="edge">
<title>Node1&#45;&gt;Node6</title>
<g id="a_edge5_Node000001_Node000006"><a xlink:title=" ">
<path fill="none" stroke="#63b8ff" d="M1018.7,-444.93C1154.98,-433.47 1556,-395.09 1556,-340.5 1556,-340.5 1556,-340.5 1556,-173.5 1556,-134.98 1530.9,-128.31 1497,-110 1429.5,-73.54 1339.15,-65.67 1284.11,-64.63"/>
<polygon fill="#63b8ff" stroke="#63b8ff" points="1283.96,-61.13 1273.92,-64.51 1283.88,-68.13 1283.96,-61.13"/>
</a>
</g>
</g>
<!-- Node8 -->
<g id="Node000008" class="node">
<title>Node8</title>
<g id="a_Node000008"><a xlink:href="Socket_8h.html" target="_top" xlink:title=" ">
<polygon fill="white" stroke="#666666" points="1018,-239 930,-239 930,-220 1018,-220 1018,-239"/>
<text text-anchor="middle" x="974" y="-227" font-family="Helvetica,sans-Serif" font-size="10.00">socket/Socket.h</text>
</a>
</g>
</g>
<!-- Node1&#45;&gt;Node8 -->
<g id="edge7_Node000001_Node000008" class="edge">
<title>Node1&#45;&gt;Node8</title>
<g id="a_edge7_Node000001_Node000008"><a xlink:title=" ">
<path fill="none" stroke="#63b8ff" d="M974,-439.95C974,-407.95 974,-294.68 974,-249.4"/>
<polygon fill="#63b8ff" stroke="#63b8ff" points="977.5,-249.22 974,-239.22 970.5,-249.22 977.5,-249.22"/>
</a>
</g>
</g>
<!-- Node27 -->
<g id="Node000027" class="node">
<title>Node27</title>
<g id="a_Node000027"><a xlink:href="SocketProxy_8h.html" target="_top" xlink:title=" ">
<polygon fill="white" stroke="#666666" points="1114,-404 1002,-404 1002,-385 1114,-385 1114,-404"/>
<text text-anchor="middle" x="1058" y="-392" font-family="Helvetica,sans-Serif" font-size="10.00">socket/SocketProxy.h</text>
</a>
</g>
</g>
<!-- Node1&#45;&gt;Node27 -->
<g id="edge39_Node000001_Node000027" class="edge">
<title>Node1&#45;&gt;Node27</title>
<g id="a_edge39_Node000001_Node000027"><a xlink:title=" ">
<path fill="none" stroke="#63b8ff" d="M987.5,-439.98C1000.4,-431.84 1020.1,-419.41 1035.4,-409.76"/>
<polygon fill="#63b8ff" stroke="#63b8ff" points="1037.67,-412.47 1044.26,-404.17 1033.93,-406.55 1037.67,-412.47"/>
</a>
</g>
</g>
<!-- Node28 -->
<g id="Node000028" class="node">
<title>Node28</title>
<g id="a_Node000028"><a xlink:href="SocketTLSContext_8h.html" target="_top" xlink:title=" ">
<polygon fill="white" stroke="#666666" points="1293,-349 1171,-349 1171,-330 1293,-330 1293,-349"/>
<text text-anchor="middle" x="1232" y="-337" font-family="Helvetica,sans-Serif" font-size="10.00">tls/SocketTLSContext.h</text>
</a>
</g>
</g>
<!-- Node1&#45;&gt;Node28 -->
<g id="edge53_Node000001_Node000028" class="edge">
<title>Node1&#45;&gt;Node28</title>
<g id="a_edge53_Node000001_Node000028"><a xlink:title=" ">
<path fill="none" stroke="#63b8ff" d="M1018.51,-443.54C1056.86,-437.92 1112.85,-426.46 1157,-404 1180.61,-391.99 1203.17,-371.19 1217.26,-356.68"/>
<polygon fill="#63b8ff" stroke="#63b8ff" points="1219.86,-359.04 1224.18,-349.37 1214.77,-354.23 1219.86,-359.04"/>
</a>
</g>
</g>
<!-- Node29 -->
<g id="Node000029" class="node">
<title>Node29</title>
<g id="a_Node000029"><a xlink:href="SocketTLS_8h.html" target="_top" xlink:title=" ">
<polygon fill="white" stroke="#666666" points="1203.5,-294 1116.5,-294 1116.5,-275 1203.5,-275 1203.5,-294"/>
<text text-anchor="middle" x="1160" y="-282" font-family="Helvetica,sans-Serif" font-size="10.00">tls/SocketTLS.h</text>
</a>
</g>
</g>
<!-- Node1&#45;&gt;Node29 -->
<g id="edge52_Node000001_Node000029" class="edge">
<title>Node1&#45;&gt;Node29</title>
<g id="a_edge52_Node000001_Node000029"><a xlink:title=" ">
<path fill="none" stroke="#63b8ff" d="M1018.72,-446.09C1051.65,-441.98 1095.34,-431.32 1123,-404 1150.38,-376.96 1157.57,-329.98 1159.41,-304.04"/>
<polygon fill="#63b8ff" stroke="#63b8ff" points="1162.9,-304.21 1159.92,-294.04 1155.91,-303.85 1162.9,-304.21"/>
</a>
</g>
</g>
<!-- Node7 -->
<g id="Node000007" class="node">
<title>Node7</title>
<g id="a_Node000007"><a xlink:title=" ">
<polygon fill="#e0e0e0" stroke="#999999" points="1262,-19 1208,-19 1208,0 1262,0 1262,-19"/>
<text text-anchor="middle" x="1235" y="-7" font-family="Helvetica,sans-Serif" font-size="10.00">setjmp.h</text>
</a>
</g>
</g>
<!-- Node6&#45;&gt;Node7 -->
<g id="edge6_Node000006_Node000007" class="edge">
<title>Node6&#45;&gt;Node7</title>
<g id="a_edge6_Node000006_Node000007"><a xlink:title=" ">
<path fill="none" stroke="#63b8ff" d="M1235,-54.75C1235,-47.8 1235,-37.85 1235,-29.13"/>
<polygon fill="#63b8ff" stroke="#63b8ff" points="1238.5,-29.09 1235,-19.09 1231.5,-29.09 1238.5,-29.09"/>
</a>
</g>
</g>
<!-- Node8&#45;&gt;Node6 -->
<g id="edge8_Node000008_Node000006" class="edge">
<title>Node8&#45;&gt;Node6</title>
<g id="a_edge8_Node000008_Node000006"><a xlink:title=" ">
<path fill="none" stroke="#63b8ff" d="M1009.37,-219.93C1056.71,-206.97 1141.18,-178.51 1197,-129 1211.09,-116.5 1221.51,-97.49 1227.83,-83.52"/>
<polygon fill="#63b8ff" stroke="#63b8ff" points="1231.18,-84.59 1231.87,-74.02 1224.74,-81.86 1231.18,-84.59"/>
</a>
</g>
</g>
<!-- Node9 -->
<g id="Node000009" class="node">
<title>Node9</title>
<g id="a_Node000009"><a xlink:href="SocketConfig_8h.html" target="_top" xlink:title=" ">
<polygon fill="white" stroke="#666666" points="368,-129 262,-129 262,-110 368,-110 368,-129"/>
<text text-anchor="middle" x="315" y="-117" font-family="Helvetica,sans-Serif" font-size="10.00">core/SocketConfig.h</text>
</a>
</g>
</g>
<!-- Node8&#45;&gt;Node9 -->
<g id="edge9_Node000008_Node000009" class="edge">
<title>Node8&#45;&gt;Node9</title>
<g id="a_edge9_Node000008_Node000009"><a xlink:title=" ">
<path fill="none" stroke="#63b8ff" d="M929.9,-223.92C863.69,-216.81 734.76,-202.03 626,-184 531.95,-168.41 423,-144.89 362.23,-131.28"/>
<polygon fill="#63b8ff" stroke="#63b8ff" points="362.7,-127.8 352.17,-129.02 361.16,-134.63 362.7,-127.8"/>
</a>
</g>
</g>
<!-- Node18 -->
<g id="Node000018" class="node">
<title>Node18</title>
<g id="a_Node000018"><a xlink:href="SocketDNS_8h.html" target="_top" xlink:title=" ">
<polygon fill="white" stroke="#666666" points="596,-129 500,-129 500,-110 596,-110 596,-129"/>
<text text-anchor="middle" x="548" y="-117" font-family="Helvetica,sans-Serif" font-size="10.00">dns/SocketDNS.h</text>
</a>
</g>
</g>
<!-- Node8&#45;&gt;Node18 -->
<g id="edge19_Node000008_Node000018" class="edge">
<title>Node8&#45;&gt;Node18</title>
<g id="a_edge19_Node000008_Node000018"><a xlink:title=" ">
<path fill="none" stroke="#63b8ff" d="M929.84,-225.99C871.34,-221.74 765.45,-210.79 679,-184 639.18,-171.66 596.3,-148.86 570.82,-134.21"/>
<polygon fill="#63b8ff" stroke="#63b8ff" points="572.36,-131.05 561.96,-129.03 568.82,-137.09 572.36,-131.05"/>
</a>
</g>
</g>
<!-- Node20 -->
<g id="Node000020" class="node">
<title>Node20</title>
<g id="a_Node000020"><a xlink:href="SocketCommon_8h.html" target="_top" xlink:title=" ">
<polygon fill="white" stroke="#666666" points="816,-184 688,-184 688,-165 816,-165 816,-184"/>
<text text-anchor="middle" x="752" y="-172" font-family="Helvetica,sans-Serif" font-size="10.00">socket/SocketCommon.h</text>
</a>
</g>
</g>
<!-- Node8&#45;&gt;Node20 -->
<g id="edge24_Node000008_Node000020" class="edge">
<title>Node8&#45;&gt;Node20</title>
<g id="a_edge24_Node000008_Node000020"><a xlink:title=" ">
<path fill="none" stroke="#63b8ff" d="M938.33,-219.98C900.17,-210.87 839.53,-196.4 797.85,-186.45"/>
<polygon fill="#63b8ff" stroke="#63b8ff" points="798.49,-183 787.95,-184.08 796.86,-189.81 798.49,-183"/>
</a>
</g>
</g>
<!-- Node9&#45;&gt;Node3 -->
<g id="edge15_Node000009_Node000003" class="edge">
<title>Node9&#45;&gt;Node3</title>
<g id="a_edge15_Node000009_Node000003"><a xlink:title=" ">
<path fill="none" stroke="#63b8ff" d="M261.95,-110.85C211.37,-103.24 132.91,-90.6 55.88,-74.03"/>
<polygon fill="#63b8ff" stroke="#63b8ff" points="56.53,-70.58 46.01,-71.88 55.04,-77.42 56.53,-70.58"/>
</a>
</g>
</g>
<!-- Node10 -->
<g id="Node000010" class="node">
<title>Node10</title>
<g id="a_Node000010"><a xlink:title=" ">
<polygon fill="#e0e0e0" stroke="#999999" points="180.5,-74 133.5,-74 133.5,-55 180.5,-55 180.5,-74"/>
<text text-anchor="middle" x="157" y="-62" font-family="Helvetica,sans-Serif" font-size="10.00">errno.h</text>
</a>
</g>
</g>
<!-- Node9&#45;&gt;Node10 -->
<g id="edge10_Node000009_Node000010" class="edge">
<title>Node9&#45;&gt;Node10</title>
<g id="a_edge10_Node000009_Node000010"><a xlink:title=" ">
<path fill="none" stroke="#63b8ff" d="M289.61,-109.98C262.58,-100.91 219.67,-86.52 190.02,-76.58"/>
<polygon fill="#63b8ff" stroke="#63b8ff" points="191.11,-73.25 180.52,-73.39 188.88,-79.89 191.11,-73.25"/>
</a>
</g>
</g>
<!-- Node11 -->
<g id="Node000011" class="node">
<title>Node11</title>
<g id="a_Node000011"><a xlink:title=" ">
<polygon fill="#e0e0e0" stroke="#999999" points="490,-74 446,-74 446,-55 490,-55 490,-74"/>
<text text-anchor="middle" x="468" y="-62" font-family="Helvetica,sans-Serif" font-size="10.00">fcntl.h</text>
</a>
</g>
</g>
<!-- Node9&#45;&gt;Node11 -->
<g id="edge11_Node000009_Node000011" class="edge">
<title>Node9&#45;&gt;Node11</title>
<g id="a_edge11_Node000009_Node000011"><a xlink:title=" ">
<path fill="none" stroke="#63b8ff" d="M339.58,-109.98C365.88,-100.88 407.67,-86.4 436.39,-76.45"/>
<polygon fill="#63b8ff" stroke="#63b8ff" points="437.66,-79.71 445.96,-73.13 435.37,-73.1 437.66,-79.71"/>
</a>
</g>
</g>
<!-- Node12 -->
<g id="Node000012" class="node">
<title>Node12</title>
<g id="a_Node000012"><a xlink:title=" ">
<polygon fill="#e0e0e0" stroke="#999999" points="427.5,-74 362.5,-74 362.5,-55 427.5,-55 427.5,-74"/>
<text text-anchor="middle" x="395" y="-62" font-family="Helvetica,sans-Serif" font-size="10.00">netinet/in.h</text>
</a>
</g>
</g>
<!-- Node9&#45;&gt;Node12 -->
<g id="edge12_Node000009_Node000012" class="edge">
<title>Node9&#45;&gt;Node12</title>
<g id="a_edge12_Node000009_Node000012"><a xlink:title=" ">
<path fill="none" stroke="#63b8ff" d="M327.85,-109.98C340.14,-101.84 358.91,-89.41 373.48,-79.76"/>
<polygon fill="#63b8ff" stroke="#63b8ff" points="375.51,-82.61 381.91,-74.17 371.64,-76.78 375.51,-82.61"/>
</a>
</g>
</g>
<!-- Node13 -->
<g id="Node000013" class="node">
<title>Node13</title>
<g id="a_Node000013"><a xlink:title=" ">
<polygon fill="#e0e0e0" stroke="#999999" points="269.5,-74 198.5,-74 198.5,-55 269.5,-55 269.5,-74"/>
<text text-anchor="middle" x="234" y="-62" font-family="Helvetica,sans-Serif" font-size="10.00">netinet/tcp.h</text>
</a>
</g>
</g>
<!-- Node9&#45;&gt;Node13 -->
<g id="edge13_Node000009_Node000013" class="edge">
<title>Node9&#45;&gt;Node13</title>
<g id="a_edge13_Node000009_Node000013"><a xlink:title=" ">
<path fill="none" stroke="#63b8ff" d="M301.99,-109.98C289.54,-101.84 270.54,-89.41 255.79,-79.76"/>
<polygon fill="#63b8ff" stroke="#63b8ff" points="257.54,-76.72 247.25,-74.17 253.7,-82.57 257.54,-76.72"/>
</a>
</g>
</g>
<!-- Node14 -->
<g id="Node000014" class="node">
<title>Node14</title>
<g id="a_Node000014"><a xlink:title=" ">
<polygon fill="#e0e0e0" stroke="#999999" points="898,-74 846,-74 846,-55 898,-55 898,-74"/>
<text text-anchor="middle" x="872" y="-62" font-family="Helvetica,sans-Serif" font-size="10.00">stddef.h</text>
</a>
</g>
</g>
<!-- Node9&#45;&gt;Node14 -->
<g id="edge14_Node000009_Node000014" class="edge">
<title>Node9&#45;&gt;Node14</title>
<g id="a_edge14_Node000009_Node000014"><a xlink:title=" ">
<path fill="none" stroke="#63b8ff" d="M368.16,-113.44C480.6,-102.74 740.05,-78.06 835.72,-68.95"/>
<polygon fill="#63b8ff" stroke="#63b8ff" points="836.14,-72.43 845.77,-68 835.48,-65.46 836.14,-72.43"/>
</a>
</g>
</g>
<!-- Node15 -->
<g id="Node000015" class="node">
<title>Node15</title>
<g id="a_Node000015"><a xlink:title=" ">
<polygon fill="#e0e0e0" stroke="#999999" points="581.5,-74 508.5,-74 508.5,-55 581.5,-55 581.5,-74"/>
<text text-anchor="middle" x="545" y="-62" font-family="Helvetica,sans-Serif" font-size="10.00">sys/socket.h</text>
</a>
</g>
</g>
<!-- Node9&#45;&gt;Node15 -->
<g id="edge16_Node000009_Node000015" class="edge">
<title>Node9&#45;&gt;Node15</title>
<g id="a_edge16_Node000009_Node000015"><a xlink:title=" ">
<path fill="none" stroke="#63b8ff" d="M351.95,-109.98C391.69,-100.83 454.96,-86.25 498.16,-76.29"/>
<polygon fill="#63b8ff" stroke="#63b8ff" points="499.18,-79.65 508.14,-73.99 497.61,-72.83 499.18,-79.65"/>
</a>
</g>
</g>
<!-- Node16 -->
<g id="Node000016" class="node">
<title>Node16</title>
<g id="a_Node000016"><a xlink:title=" ">
<polygon fill="#e0e0e0" stroke="#999999" points="344,-74 288,-74 288,-55 344,-55 344,-74"/>
<text text-anchor="middle" x="316" y="-62" font-family="Helvetica,sans-Serif" font-size="10.00">sys/uio.h</text>
</a>
</g>
</g>
<!-- Node9&#45;&gt;Node16 -->
<g id="edge17_Node000009_Node000016" class="edge">
<title>Node9&#45;&gt;Node16</title>
<g id="a_edge17_Node000009_Node000016"><a xlink:title=" ">
<path fill="none" stroke="#63b8ff" d="M315.17,-109.75C315.3,-102.8 315.48,-92.85 315.65,-84.13"/>
<polygon fill="#63b8ff" stroke="#63b8ff" points="319.15,-84.15 315.84,-74.09 312.15,-84.02 319.15,-84.15"/>
</a>
</g>
</g>
<!-- Node17 -->
<g id="Node000017" class="node">
<title>Node17</title>
<g id="a_Node000017"><a xlink:title=" ">
<polygon fill="#e0e0e0" stroke="#999999" points="115.5,-74 64.5,-74 64.5,-55 115.5,-55 115.5,-74"/>
<text text-anchor="middle" x="90" y="-62" font-family="Helvetica,sans-Serif" font-size="10.00">unistd.h</text>
</a>
</g>
</g>
<!-- Node9&#45;&gt;Node17 -->
<g id="edge18_Node000009_Node000017" class="edge">
<title>Node9&#45;&gt;Node17</title>
<g id="a_edge18_Node000009_Node000017"><a xlink:title=" ">
<path fill="none" stroke="#63b8ff" d="M277.63,-109.98C241.12,-101.62 183.74,-88.36 125.36,-74.3"/>
<polygon fill="#63b8ff" stroke="#63b8ff" points="126.15,-70.89 115.61,-71.95 124.51,-77.7 126.15,-70.89"/>
</a>
</g>
</g>
<!-- Node18&#45;&gt;Node6 -->
<g id="edge20_Node000018_Node000006" class="edge">
<title>Node18&#45;&gt;Node6</title>
<g id="a_edge20_Node000018_Node000006"><a xlink:title=" ">
<path fill="none" stroke="#63b8ff" d="M596.32,-114.04C611.28,-112.7 627.82,-111.25 643,-110 844.39,-93.42 1084.54,-76.14 1185.96,-68.95"/>
<polygon fill="#63b8ff" stroke="#63b8ff" points="1186.47,-72.42 1196.2,-68.23 1185.97,-65.44 1186.47,-72.42"/>
</a>
</g>
</g>
<!-- Node18&#45;&gt;Node14 -->
<g id="edge22_Node000018_Node000014" class="edge">
<title>Node18&#45;&gt;Node14</title>
<g id="a_edge22_Node000018_Node000014"><a xlink:title=" ">
<path fill="none" stroke="#63b8ff" d="M596.16,-110.62C661.68,-99.9 777.44,-80.97 835.97,-71.39"/>
<polygon fill="#63b8ff" stroke="#63b8ff" points="836.56,-74.84 845.87,-69.78 835.43,-67.94 836.56,-74.84"/>
</a>
</g>
</g>
<!-- Node18&#45;&gt;Node15 -->
<g id="edge23_Node000018_Node000015" class="edge">
<title>Node18&#45;&gt;Node15</title>
<g id="a_edge23_Node000018_Node000015"><a xlink:title=" ">
<path fill="none" stroke="#63b8ff" d="M547.5,-109.75C547.11,-102.8 546.55,-92.85 546.05,-84.13"/>
<polygon fill="#63b8ff" stroke="#63b8ff" points="549.55,-83.88 545.49,-74.09 542.56,-84.27 549.55,-83.88"/>
</a>
</g>
</g>
<!-- Node19 -->
<g id="Node000019" class="node">
<title>Node19</title>
<g id="a_Node000019"><a xlink:title=" ">
<polygon fill="#e0e0e0" stroke="#999999" points="648.5,-74 599.5,-74 599.5,-55 648.5,-55 648.5,-74"/>
<text text-anchor="middle" x="624" y="-62" font-family="Helvetica,sans-Serif" font-size="10.00">netdb.h</text>
</a>
</g>
</g>
<!-- Node18&#45;&gt;Node19 -->
<g id="edge21_Node000018_Node000019" class="edge">
<title>Node18&#45;&gt;Node19</title>
<g id="a_edge21_Node000018_Node000019"><a xlink:title=" ">
<path fill="none" stroke="#63b8ff" d="M560.21,-109.98C571.78,-101.92 589.38,-89.65 603.16,-80.03"/>
<polygon fill="#63b8ff" stroke="#63b8ff" points="605.37,-82.76 611.57,-74.17 601.36,-77.02 605.37,-82.76"/>
</a>
</g>
</g>
<!-- Node20&#45;&gt;Node6 -->
<g id="edge37_Node000020_Node000006" class="edge">
<title>Node20&#45;&gt;Node6</title>
<g id="a_edge37_Node000020_Node000006"><a xlink:title=" ">
<path fill="none" stroke="#63b8ff" d="M816.22,-165.92C873.1,-158.58 958.17,-146.05 1031,-129 1092.26,-114.66 1161.9,-91.44 1201.92,-77.41"/>
<polygon fill="#63b8ff" stroke="#63b8ff" points="1203.17,-80.68 1211.44,-74.05 1200.84,-74.08 1203.17,-80.68"/>
</a>
</g>
</g>
<!-- Node20&#45;&gt;Node9 -->
<g id="edge38_Node000020_Node000009" class="edge">
<title>Node20&#45;&gt;Node9</title>
<g id="a_edge38_Node000020_Node000009"><a xlink:title=" ">
<path fill="none" stroke="#63b8ff" d="M687.82,-165.91C614.01,-157.15 489.23,-142.25 382,-129 380.72,-128.84 379.43,-128.68 378.13,-128.52"/>
<polygon fill="#63b8ff" stroke="#63b8ff" points="378.38,-125.03 368.03,-127.26 377.52,-131.97 378.38,-125.03"/>
</a>
</g>
</g>
<!-- Node20&#45;&gt;Node11 -->
<g id="edge27_Node000020_Node000011" class="edge">
<title>Node20&#45;&gt;Node11</title>
<g id="a_edge27_Node000020_Node000011"><a xlink:title=" ">
<path fill="none" stroke="#63b8ff" d="M687.86,-171.04C617.55,-166.97 510.88,-156.37 482,-129 470.1,-117.73 467.2,-98.81 466.91,-84.56"/>
<polygon fill="#63b8ff" stroke="#63b8ff" points="470.41,-84.42 467.12,-74.35 463.42,-84.28 470.41,-84.42"/>
</a>
</g>
</g>
<!-- Node20&#45;&gt;Node12 -->
<g id="edge29_Node000020_Node000012" class="edge">
<title>Node20&#45;&gt;Node12</title>
<g id="a_edge29_Node000020_Node000012"><a xlink:title=" ">
<path fill="none" stroke="#63b8ff" d="M687.89,-173.63C628.08,-171.46 537.72,-162.19 467,-129 443.54,-117.99 422.02,-96.93 408.73,-82.09"/>
<polygon fill="#63b8ff" stroke="#63b8ff" points="411.1,-79.47 401.91,-74.19 405.8,-84.05 411.1,-79.47"/>
</a>
</g>
</g>
<!-- Node20&#45;&gt;Node15 -->
<g id="edge30_Node000020_Node000015" class="edge">
<title>Node20&#45;&gt;Node15</title>
<g id="a_edge30_Node000020_Node000015"><a xlink:title=" ">
<path fill="none" stroke="#63b8ff" d="M687.96,-171.72C618.97,-168.3 515.72,-158.29 491,-129 476.53,-111.85 499.4,-92.18 519.68,-79.33"/>
<polygon fill="#63b8ff" stroke="#63b8ff" points="521.61,-82.26 528.39,-74.11 518.01,-76.25 521.61,-82.26"/>
</a>
</g>
</g>
<!-- Node20&#45;&gt;Node19 -->
<g id="edge28_Node000020_Node000019" class="edge">
<title>Node20&#45;&gt;Node19</title>
<g id="a_edge28_Node000020_Node000019"><a xlink:title=" ">
<path fill="none" stroke="#63b8ff" d="M707.72,-164.94C685.51,-158.53 659.83,-147.54 643,-129 631.88,-116.75 627.26,-98.24 625.34,-84.35"/>
<polygon fill="#63b8ff" stroke="#63b8ff" points="628.79,-83.61 624.29,-74.02 621.82,-84.33 628.79,-83.61"/>
</a>
</g>
</g>
<!-- Node21 -->
<g id="Node000021" class="node">
<title>Node21</title>
<g id="a_Node000021"><a xlink:title=" ">
<polygon fill="#e0e0e0" stroke="#999999" points="780,-129 724,-129 724,-110 780,-110 780,-129"/>
<text text-anchor="middle" x="752" y="-117" font-family="Helvetica,sans-Serif" font-size="10.00">stdbool.h</text>
</a>
</g>
</g>
<!-- Node20&#45;&gt;Node21 -->
<g id="edge25_Node000020_Node000021" class="edge">
<title>Node20&#45;&gt;Node21</title>
<g id="a_edge25_Node000020_Node000021"><a xlink:title=" ">
<path fill="none" stroke="#63b8ff" d="M752,-164.75C752,-157.8 752,-147.85 752,-139.13"/>
<polygon fill="#63b8ff" stroke="#63b8ff" points="755.5,-139.09 752,-129.09 748.5,-139.09 755.5,-139.09"/>
</a>
</g>
</g>
<!-- Node22 -->
<g id="Node000022" class="node">
<title>Node22</title>
<g id="a_Node000022"><a xlink:title=" ">
<polygon fill="#e0e0e0" stroke="#999999" points="855.5,-129 798.5,-129 798.5,-110 855.5,-110 855.5,-129"/>
<text text-anchor="middle" x="827" y="-117" font-family="Helvetica,sans-Serif" font-size="10.00">pthread.h</text>
</a>
</g>
</g>
<!-- Node20&#45;&gt;Node22 -->
<g id="edge26_Node000020_Node000022" class="edge">
<title>Node20&#45;&gt;Node22</title>
<g id="a_edge26_Node000020_Node000022"><a xlink:title=" ">
<path fill="none" stroke="#63b8ff" d="M764.05,-164.98C775.46,-156.92 792.83,-144.65 806.43,-135.03"/>
<polygon fill="#63b8ff" stroke="#63b8ff" points="808.58,-137.8 814.73,-129.17 804.54,-132.08 808.58,-137.8"/>
</a>
</g>
</g>
<!-- Node23 -->
<g id="Node000023" class="node">
<title>Node23</title>
<g id="a_Node000023"><a xlink:title=" ">
<polygon fill="#e0e0e0" stroke="#999999" points="936,-129 874,-129 874,-110 936,-110 936,-129"/>
<text text-anchor="middle" x="905" y="-117" font-family="Helvetica,sans-Serif" font-size="10.00">sys/time.h</text>
</a>
</g>
</g>
<!-- Node20&#45;&gt;Node23 -->
<g id="edge31_Node000020_Node000023" class="edge">
<title>Node20&#45;&gt;Node23</title>
<g id="a_edge31_Node000020_Node000023"><a xlink:title=" ">
<path fill="none" stroke="#63b8ff" d="M776.58,-164.98C802.05,-156.16 842.04,-142.31 870.63,-132.41"/>
<polygon fill="#63b8ff" stroke="#63b8ff" points="871.92,-135.66 880.23,-129.08 869.63,-129.05 871.92,-135.66"/>
</a>
</g>
</g>
<!-- Node24 -->
<g id="Node000024" class="node">
<title>Node24</title>
<g id="a_Node000024"><a xlink:title=" ">
<polygon fill="#e0e0e0" stroke="#999999" points="1022,-129 954,-129 954,-110 1022,-110 1022,-129"/>
<text text-anchor="middle" x="988" y="-117" font-family="Helvetica,sans-Serif" font-size="10.00">sys/types.h</text>
</a>
</g>
</g>
<!-- Node20&#45;&gt;Node24 -->
<g id="edge32_Node000020_Node000024" class="edge">
<title>Node20&#45;&gt;Node24</title>
<g id="a_edge32_Node000020_Node000024"><a xlink:title=" ">
<path fill="none" stroke="#63b8ff" d="M789.92,-164.98C831.86,-155.56 899.37,-140.4 943.71,-130.45"/>
<polygon fill="#63b8ff" stroke="#63b8ff" points="944.64,-133.82 953.63,-128.22 943.11,-126.99 944.64,-133.82"/>
</a>
</g>
</g>
<!-- Node25 -->
<g id="Node000025" class="node">
<title>Node25</title>
<g id="a_Node000025"><a xlink:title=" ">
<polygon fill="#e0e0e0" stroke="#999999" points="706,-129 652,-129 652,-110 706,-110 706,-129"/>
<text text-anchor="middle" x="679" y="-117" font-family="Helvetica,sans-Serif" font-size="10.00">sys/un.h</text>
</a>
</g>
</g>
<!-- Node20&#45;&gt;Node25 -->
<g id="edge33_Node000020_Node000025" class="edge">
<title>Node20&#45;&gt;Node25</title>
<g id="a_edge33_Node000020_Node000025"><a xlink:title=" ">
<path fill="none" stroke="#63b8ff" d="M740.27,-164.98C729.27,-157 712.58,-144.88 699.4,-135.31"/>
<polygon fill="#63b8ff" stroke="#63b8ff" points="701.09,-132.21 690.94,-129.17 696.98,-137.88 701.09,-132.21"/>
</a>
</g>
</g>
<!-- Node26 -->
<g id="Node000026" class="node">
<title>Node26</title>
<g id="a_Node000026"><a xlink:href="Arena_8h.html" target="_top" xlink:title=" ">
<polygon fill="white" stroke="#666666" points="1188,-129 1116,-129 1116,-110 1188,-110 1188,-129"/>
<text text-anchor="middle" x="1152" y="-117" font-family="Helvetica,sans-Serif" font-size="10.00">core/Arena.h</text>
</a>
</g>
</g>
<!-- Node20&#45;&gt;Node26 -->
<g id="edge34_Node000020_Node000026" class="edge">
<title>Node20&#45;&gt;Node26</title>
<g id="a_edge34_Node000020_Node000026"><a xlink:title=" ">
<path fill="none" stroke="#63b8ff" d="M816.3,-166.14C886.59,-157.91 1002.48,-143.78 1102,-129 1103.27,-128.81 1104.57,-128.62 1105.87,-128.42"/>
<polygon fill="#63b8ff" stroke="#63b8ff" points="1106.65,-131.83 1115.98,-126.81 1105.55,-124.92 1106.65,-131.83"/>
</a>
</g>
</g>
<!-- Node26&#45;&gt;Node6 -->
<g id="edge36_Node000026_Node000006" class="edge">
<title>Node26&#45;&gt;Node6</title>
<g id="a_edge36_Node000026_Node000006"><a xlink:title=" ">
<path fill="none" stroke="#63b8ff" d="M1165.34,-109.98C1178.09,-101.84 1197.55,-89.41 1212.67,-79.76"/>
<polygon fill="#63b8ff" stroke="#63b8ff" points="1214.88,-82.5 1221.42,-74.17 1211.11,-76.6 1214.88,-82.5"/>
</a>
</g>
</g>
<!-- Node26&#45;&gt;Node14 -->
<g id="edge35_Node000026_Node000014" class="edge">
<title>Node26&#45;&gt;Node14</title>
<g id="a_edge35_Node000026_Node000014"><a xlink:title=" ">
<path fill="none" stroke="#63b8ff" d="M1115.97,-111.68C1062.38,-101.54 962.23,-82.58 908.42,-72.39"/>
<polygon fill="#63b8ff" stroke="#63b8ff" points="908.78,-68.9 898.3,-70.48 907.48,-75.78 908.78,-68.9"/>
</a>
</g>
</g>
<!-- Node27&#45;&gt;Node6 -->
<g id="edge42_Node000027_Node000006" class="edge">
<title>Node27&#45;&gt;Node6</title>
<g id="a_edge42_Node000027_Node000006"><a xlink:title=" ">
<path fill="none" stroke="#63b8ff" d="M1114.41,-392.03C1237.24,-387.31 1518,-367.53 1518,-285.5 1518,-285.5 1518,-285.5 1518,-173.5 1518,-138.12 1500.06,-128.65 1470,-110 1413.01,-74.64 1334.39,-66.19 1284.12,-64.76"/>
<polygon fill="#63b8ff" stroke="#63b8ff" points="1283.91,-61.26 1273.84,-64.56 1283.77,-68.25 1283.91,-61.26"/>
</a>
</g>
</g>
<!-- Node27&#45;&gt;Node8 -->
<g id="edge43_Node000027_Node000008" class="edge">
<title>Node27&#45;&gt;Node8</title>
<g id="a_edge43_Node000027_Node000008"><a xlink:title=" ">
<path fill="none" stroke="#63b8ff" d="M1053.48,-384.74C1040.21,-358.98 1001.12,-283.13 983.19,-248.33"/>
<polygon fill="#63b8ff" stroke="#63b8ff" points="986.23,-246.59 978.54,-239.31 980.01,-249.8 986.23,-246.59"/>
</a>
</g>
</g>
<!-- Node27&#45;&gt;Node14 -->
<g id="edge40_Node000027_Node000014" class="edge">
<title>Node27&#45;&gt;Node14</title>
<g id="a_edge40_Node000027_Node000014"><a xlink:title=" ">
<path fill="none" stroke="#63b8ff" d="M1056.92,-384.84C1054.74,-366.53 1050,-322.54 1050,-285.5 1050,-285.5 1050,-285.5 1050,-173.5 1050,-144.04 1052.02,-130.64 1031,-110 998.15,-77.73 943.92,-68.44 908.07,-65.99"/>
<polygon fill="#63b8ff" stroke="#63b8ff" points="908.21,-62.49 898.04,-65.45 907.83,-69.48 908.21,-62.49"/>
</a>
</g>
</g>
<!-- Node27&#45;&gt;Node26 -->
<g id="edge41_Node000027_Node000026" class="edge">
<title>Node27&#45;&gt;Node26</title>
<g id="a_edge41_Node000027_Node000026"><a xlink:title=" ">
<path fill="none" stroke="#63b8ff" d="M1062.17,-384.77C1070.41,-366.69 1088,-323.64 1088,-285.5 1088,-285.5 1088,-285.5 1088,-228.5 1088,-191.53 1116.1,-156.14 1135.06,-136.46"/>
<polygon fill="#63b8ff" stroke="#63b8ff" points="1137.67,-138.8 1142.28,-129.26 1132.73,-133.84 1137.67,-138.8"/>
</a>
</g>
</g>
<!-- Node27&#45;&gt;Node28 -->
<g id="edge44_Node000027_Node000028" class="edge">
<title>Node27&#45;&gt;Node28</title>
<g id="a_edge44_Node000027_Node000028"><a xlink:title=" ">
<path fill="none" stroke="#63b8ff" d="M1085.96,-384.98C1115.3,-376.05 1161.6,-361.94 1194.19,-352.02"/>
<polygon fill="#63b8ff" stroke="#63b8ff" points="1195.28,-355.34 1203.82,-349.08 1193.24,-348.65 1195.28,-355.34"/>
</a>
</g>
</g>
<!-- Node28&#45;&gt;Node6 -->
<g id="edge46_Node000028_Node000006" class="edge">
<title>Node28&#45;&gt;Node6</title>
<g id="a_edge46_Node000028_Node000006"><a xlink:title=" ">
<path fill="none" stroke="#63b8ff" d="M1293.22,-333.71C1352.49,-327.85 1436.84,-315.89 1461,-294 1482.83,-274.22 1480,-259.96 1480,-230.5 1480,-230.5 1480,-230.5 1480,-173.5 1480,-88.54 1355.13,-69.85 1283.68,-66.1"/>
<polygon fill="#63b8ff" stroke="#63b8ff" points="1283.7,-62.6 1273.55,-65.65 1283.39,-69.59 1283.7,-62.6"/>
</a>
</g>
</g>
<!-- Node28&#45;&gt;Node26 -->
<g id="edge45_Node000028_Node000026" class="edge">
<title>Node28&#45;&gt;Node26</title>
<g id="a_edge45_Node000028_Node000026"><a xlink:title=" ">
<path fill="none" stroke="#63b8ff" d="M1229.65,-329.8C1226.27,-317.49 1219.7,-294.36 1213,-275 1195.68,-224.98 1171.84,-167.26 1159.73,-138.6"/>
<polygon fill="#63b8ff" stroke="#63b8ff" points="1162.83,-136.95 1155.7,-129.11 1156.39,-139.69 1162.83,-136.95"/>
</a>
</g>
</g>
<!-- Node28&#45;&gt;Node29 -->
<g id="edge47_Node000028_Node000029" class="edge">
<title>Node28&#45;&gt;Node29</title>
<g id="a_edge47_Node000028_Node000029"><a xlink:title=" ">
<path fill="none" stroke="#63b8ff" d="M1220.43,-329.98C1209.58,-322 1193.12,-309.88 1180.12,-300.31"/>
<polygon fill="#63b8ff" stroke="#63b8ff" points="1181.91,-297.28 1171.78,-294.17 1177.76,-302.92 1181.91,-297.28"/>
</a>
</g>
</g>
<!-- Node30 -->
<g id="Node000030" class="node">
<title>Node30</title>
<g id="a_Node000030"><a xlink:title=" ">
<polygon fill="#e0e0e0" stroke="#999999" points="1452,-294 1378,-294 1378,-275 1452,-275 1452,-294"/>
<text text-anchor="middle" x="1415" y="-282" font-family="Helvetica,sans-Serif" font-size="10.00">openssl/ssl.h</text>
</a>
</g>
</g>
<!-- Node28&#45;&gt;Node30 -->
<g id="edge50_Node000028_Node000030" class="edge">
<title>Node28&#45;&gt;Node30</title>
<g id="a_edge50_Node000028_Node000030"><a xlink:title=" ">
<path fill="none" stroke="#63b8ff" d="M1261.4,-329.98C1292.39,-321.01 1341.38,-306.82 1375.67,-296.89"/>
<polygon fill="#63b8ff" stroke="#63b8ff" points="1376.74,-300.23 1385.37,-294.08 1374.79,-293.5 1376.74,-300.23"/>
</a>
</g>
</g>
<!-- Node31 -->
<g id="Node000031" class="node">
<title>Node31</title>
<g id="a_Node000031"><a xlink:title=" ">
<polygon fill="#e0e0e0" stroke="#999999" points="1360,-294 1260,-294 1260,-275 1360,-275 1360,-294"/>
<text text-anchor="middle" x="1310" y="-282" font-family="Helvetica,sans-Serif" font-size="10.00">openssl/x509_vfy.h</text>
</a>
</g>
</g>
<!-- Node28&#45;&gt;Node31 -->
<g id="edge51_Node000028_Node000031" class="edge">
<title>Node28&#45;&gt;Node31</title>
<g id="a_edge51_Node000028_Node000031"><a xlink:title=" ">
<path fill="none" stroke="#63b8ff" d="M1244.53,-329.98C1256.4,-321.92 1274.46,-309.65 1288.61,-300.03"/>
<polygon fill="#63b8ff" stroke="#63b8ff" points="1290.94,-302.69 1297.24,-294.17 1287,-296.9 1290.94,-302.69"/>
</a>
</g>
</g>
<!-- Node29&#45;&gt;Node6 -->
<g id="edge48_Node000029_Node000006" class="edge">
<title>Node29&#45;&gt;Node6</title>
<g id="a_edge48_Node000029_Node000006"><a xlink:title=" ">
<path fill="none" stroke="#63b8ff" d="M1163.57,-274.89C1173.14,-251.63 1199.89,-185.47 1218,-129 1222.8,-114.04 1227.35,-96.8 1230.54,-84.07"/>
<polygon fill="#63b8ff" stroke="#63b8ff" points="1233.97,-84.75 1232.95,-74.21 1227.17,-83.08 1233.97,-84.75"/>
</a>
</g>
</g>
<!-- Node29&#45;&gt;Node8 -->
<g id="edge49_Node000029_Node000008" class="edge">
<title>Node29&#45;&gt;Node8</title>
<g id="a_edge49_Node000029_Node000008"><a xlink:title=" ">
<path fill="none" stroke="#63b8ff" d="M1130.12,-274.98C1098.62,-266.01 1048.83,-251.82 1013.97,-241.89"/>
<polygon fill="#63b8ff" stroke="#63b8ff" points="1014.69,-238.46 1004.12,-239.08 1012.78,-245.19 1014.69,-238.46"/>
</a>
</g>
</g>
</g>
</svg>
