<?xml version="1.0" encoding="UTF-8" standalone="no"?>
<!DOCTYPE svg PUBLIC "-//W3C//DTD SVG 1.1//EN"
 "http://www.w3.org/Graphics/SVG/1.1/DTD/svg11.dtd">
<!-- Generated by graphviz version 2.43.0 (0)
 -->
<!-- Title: proxy_connect.c Pages: 1 -->
<svg width="2086pt" height="467pt"
 viewBox="0.00 0.00 2086.00 467.00" xmlns="http://www.w3.org/2000/svg" xmlns:xlink="http://www.w3.org/1999/xlink">
<g id="graph0" class="graph" transform="scale(1 1) rotate(0) translate(4 463)">
<title>proxy_connect.c</title>
<!-- Node1 -->
<g id="Node000001" class="node">
<title>Node1</title>
<g id="a_Node000001"><a xlink:title=" ">
<polygon fill="#999999" stroke="#666666" points="1423.5,-459 1334.5,-459 1334.5,-440 1423.5,-440 1423.5,-459"/>
<text text-anchor="middle" x="1379" y="-447" font-family="Helvetica,sans-Serif" font-size="10.00">proxy_connect.c</text>
</a>
</g>
</g>
<!-- Node2 -->
<g id="Node000002" class="node">
<title>Node2</title>
<g id="a_Node000002"><a xlink:title=" ">
<polygon fill="#e0e0e0" stroke="#999999" points="195,-404 145,-404 145,-385 195,-385 195,-404"/>
<text text-anchor="middle" x="170" y="-392" font-family="Helvetica,sans-Serif" font-size="10.00">signal.h</text>
</a>
</g>
</g>
<!-- Node1&#45;&gt;Node2 -->
<g id="edge1_Node000001_Node000002" class="edge">
<title>Node1&#45;&gt;Node2</title>
<g id="a_edge1_Node000001_Node000002"><a xlink:title=" ">
<path fill="none" stroke="#63b8ff" d="M1334.41,-447.86C1148.31,-445.01 432.83,-432.42 209,-404 207.72,-403.84 206.43,-403.65 205.12,-403.45"/>
<polygon fill="#63b8ff" stroke="#63b8ff" points="205.52,-399.97 195.06,-401.64 204.28,-406.86 205.52,-399.97"/>
</a>
</g>
</g>
<!-- Node3 -->
<g id="Node000003" class="node">
<title>Node3</title>
<g id="a_Node000003"><a xlink:title=" ">
<polygon fill="#e0e0e0" stroke="#999999" points="46,-74 0,-74 0,-55 46,-55 46,-74"/>
<text text-anchor="middle" x="23" y="-62" font-family="Helvetica,sans-Serif" font-size="10.00">stdio.h</text>
</a>
</g>
</g>
<!-- Node1&#45;&gt;Node3 -->
<g id="edge2_Node000001_Node000003" class="edge">
<title>Node1&#45;&gt;Node3</title>
<g id="a_edge2_Node000001_Node000003"><a xlink:title=" ">
<path fill="none" stroke="#63b8ff" d="M1334.39,-446.72C1121.95,-437.93 223,-397.38 223,-340.5 223,-340.5 223,-340.5 223,-173.5 223,-135.99 112.73,-94.64 55.95,-75.83"/>
<polygon fill="#63b8ff" stroke="#63b8ff" points="56.93,-72.47 46.33,-72.69 54.75,-79.13 56.93,-72.47"/>
</a>
</g>
</g>
<!-- Node4 -->
<g id="Node000004" class="node">
<title>Node4</title>
<g id="a_Node000004"><a xlink:title=" ">
<polygon fill="#e0e0e0" stroke="#999999" points="1691,-404 1643,-404 1643,-385 1691,-385 1691,-404"/>
<text text-anchor="middle" x="1667" y="-392" font-family="Helvetica,sans-Serif" font-size="10.00">stdlib.h</text>
</a>
</g>
</g>
<!-- Node1&#45;&gt;Node4 -->
<g id="edge3_Node000001_Node000004" class="edge">
<title>Node1&#45;&gt;Node4</title>
<g id="a_edge3_Node000001_Node000004"><a xlink:title=" ">
<path fill="none" stroke="#63b8ff" d="M1423.82,-441.13C1473.94,-432.75 1557.47,-418.36 1629,-404 1630.27,-403.75 1631.56,-403.48 1632.86,-403.21"/>
<polygon fill="#63b8ff" stroke="#63b8ff" points="1633.87,-406.57 1642.91,-401.06 1632.4,-399.73 1633.87,-406.57"/>
</a>
</g>
</g>
<!-- Node5 -->
<g id="Node000005" class="node">
<title>Node5</title>
<g id="a_Node000005"><a xlink:title=" ">
<polygon fill="#e0e0e0" stroke="#999999" points="1758.5,-404 1709.5,-404 1709.5,-385 1758.5,-385 1758.5,-404"/>
<text text-anchor="middle" x="1734" y="-392" font-family="Helvetica,sans-Serif" font-size="10.00">string.h</text>
</a>
</g>
</g>
<!-- Node1&#45;&gt;Node5 -->
<g id="edge4_Node000001_Node000005" class="edge">
<title>Node1&#45;&gt;Node5</title>
<g id="a_edge4_Node000001_Node000005"><a xlink:title=" ">
<path fill="none" stroke="#63b8ff" d="M1423.65,-443.84C1483.94,-437.22 1594.89,-423.84 1699.12,-403.97"/>
<polygon fill="#63b8ff" stroke="#63b8ff" points="1700.03,-407.36 1709.19,-402.03 1698.7,-400.49 1700.03,-407.36"/>
</a>
</g>
</g>
<!-- Node6 -->
<g id="Node000006" class="node">
<title>Node6</title>
<g id="a_Node000006"><a xlink:href="Except_8h.html" target="_top" xlink:title="Structured exception handling for C with TRY/EXCEPT/FINALLY blocks.">
<polygon fill="white" stroke="#666666" points="1398.5,-74 1321.5,-74 1321.5,-55 1398.5,-55 1398.5,-74"/>
<text text-anchor="middle" x="1360" y="-62" font-family="Helvetica,sans-Serif" font-size="10.00">core/Except.h</text>
</a>
</g>
</g>
<!-- Node1&#45;&gt;Node6 -->
<g id="edge5_Node000001_Node000006" class="edge">
<title>Node1&#45;&gt;Node6</title>
<g id="a_edge5_Node000001_Node000006"><a xlink:title=" ">
<path fill="none" stroke="#63b8ff" d="M1379,-439.82C1379,-421.48 1379,-377.44 1379,-340.5 1379,-340.5 1379,-340.5 1379,-283.5 1379,-206.33 1383.67,-186.29 1372,-110 1370.67,-101.3 1368.27,-91.86 1365.96,-83.92"/>
<polygon fill="#63b8ff" stroke="#63b8ff" points="1369.27,-82.77 1362.98,-74.24 1362.57,-84.83 1369.27,-82.77"/>
</a>
</g>
</g>
<!-- Node8 -->
<g id="Node000008" class="node">
<title>Node8</title>
<g id="a_Node000008"><a xlink:href="Socket_8h.html" target="_top" xlink:title="High&#45;level TCP/IP and Unix domain socket interface.">
<polygon fill="white" stroke="#666666" points="1058,-239 970,-239 970,-220 1058,-220 1058,-239"/>
<text text-anchor="middle" x="1014" y="-227" font-family="Helvetica,sans-Serif" font-size="10.00">socket/Socket.h</text>
</a>
</g>
</g>
<!-- Node1&#45;&gt;Node8 -->
<g id="edge7_Node000001_Node000008" class="edge">
<title>Node1&#45;&gt;Node8</title>
<g id="a_edge7_Node000001_Node000008"><a xlink:title=" ">
<path fill="none" stroke="#63b8ff" d="M1334.32,-448.46C1263.52,-445.83 1126.04,-429.85 1052,-349 1026.19,-320.81 1017.9,-275 1015.25,-249.37"/>
<polygon fill="#63b8ff" stroke="#63b8ff" points="1018.71,-248.83 1014.38,-239.16 1011.74,-249.42 1018.71,-248.83"/>
</a>
</g>
</g>
<!-- Node28 -->
<g id="Node000028" class="node">
<title>Node28</title>
<g id="a_Node000028"><a xlink:href="SocketProxy_8h.html" target="_top" xlink:title="Proxy tunneling module for HTTP CONNECT and SOCKS protocols.">
<polygon fill="white" stroke="#666666" points="1267,-404 1155,-404 1155,-385 1267,-385 1267,-404"/>
<text text-anchor="middle" x="1211" y="-392" font-family="Helvetica,sans-Serif" font-size="10.00">socket/SocketProxy.h</text>
</a>
</g>
</g>
<!-- Node1&#45;&gt;Node28 -->
<g id="edge40_Node000001_Node000028" class="edge">
<title>Node1&#45;&gt;Node28</title>
<g id="a_edge40_Node000001_Node000028"><a xlink:title=" ">
<path fill="none" stroke="#63b8ff" d="M1352.01,-439.98C1323.8,-431.09 1279.36,-417.07 1247.92,-407.15"/>
<polygon fill="#63b8ff" stroke="#63b8ff" points="1248.79,-403.75 1238.2,-404.08 1246.69,-410.43 1248.79,-403.75"/>
</a>
</g>
</g>
<!-- Node31 -->
<g id="Node000031" class="node">
<title>Node31</title>
<g id="a_Node000031"><a xlink:href="SocketTLSContext_8h.html" target="_top" xlink:title="TLS context management with secure defaults and certificate handling.">
<polygon fill="white" stroke="#666666" points="1587,-349 1465,-349 1465,-330 1587,-330 1587,-349"/>
<text text-anchor="middle" x="1526" y="-337" font-family="Helvetica,sans-Serif" font-size="10.00">tls/SocketTLSContext.h</text>
</a>
</g>
</g>
<!-- Node1&#45;&gt;Node31 -->
<g id="edge69_Node000001_Node000031" class="edge">
<title>Node1&#45;&gt;Node31</title>
<g id="a_edge69_Node000001_Node000031"><a xlink:title=" ">
<path fill="none" stroke="#63b8ff" d="M1390.78,-439.84C1415.83,-421.44 1474.64,-378.23 1505.8,-355.34"/>
<polygon fill="#63b8ff" stroke="#63b8ff" points="1508.18,-357.94 1514.16,-349.2 1504.03,-352.3 1508.18,-357.94"/>
</a>
</g>
</g>
<!-- Node32 -->
<g id="Node000032" class="node">
<title>Node32</title>
<g id="a_Node000032"><a xlink:href="SocketTLS_8h.html" target="_top" xlink:title="High&#45;level TLS/SSL integration for secure Socket I/O with TLS 1.3 enforcement.">
<polygon fill="white" stroke="#666666" points="1981.5,-294 1894.5,-294 1894.5,-275 1981.5,-275 1981.5,-294"/>
<text text-anchor="middle" x="1938" y="-282" font-family="Helvetica,sans-Serif" font-size="10.00">tls/SocketTLS.h</text>
</a>
</g>
</g>
<!-- Node1&#45;&gt;Node32 -->
<g id="edge68_Node000001_Node000032" class="edge">
<title>Node1&#45;&gt;Node32</title>
<g id="a_edge68_Node000001_Node000032"><a xlink:title=" ">
<path fill="none" stroke="#63b8ff" d="M1408.27,-439.97C1501.74,-412.71 1793.13,-327.74 1899.03,-296.86"/>
<polygon fill="#63b8ff" stroke="#63b8ff" points="1900.07,-300.21 1908.69,-294.05 1898.11,-293.49 1900.07,-300.21"/>
</a>
</g>
</g>
<!-- Node7 -->
<g id="Node000007" class="node">
<title>Node7</title>
<g id="a_Node000007"><a xlink:title=" ">
<polygon fill="#e0e0e0" stroke="#999999" points="1387,-19 1333,-19 1333,0 1387,0 1387,-19"/>
<text text-anchor="middle" x="1360" y="-7" font-family="Helvetica,sans-Serif" font-size="10.00">setjmp.h</text>
</a>
</g>
</g>
<!-- Node6&#45;&gt;Node7 -->
<g id="edge6_Node000006_Node000007" class="edge">
<title>Node6&#45;&gt;Node7</title>
<g id="a_edge6_Node000006_Node000007"><a xlink:title=" ">
<path fill="none" stroke="#63b8ff" d="M1360,-54.75C1360,-47.8 1360,-37.85 1360,-29.13"/>
<polygon fill="#63b8ff" stroke="#63b8ff" points="1363.5,-29.09 1360,-19.09 1356.5,-29.09 1363.5,-29.09"/>
</a>
</g>
</g>
<!-- Node8&#45;&gt;Node6 -->
<g id="edge8_Node000008_Node000006" class="edge">
<title>Node8&#45;&gt;Node6</title>
<g id="a_edge8_Node000008_Node000006"><a xlink:title=" ">
<path fill="none" stroke="#63b8ff" d="M1002.2,-219.99C975.01,-199.4 912.7,-145.95 945,-110 969.08,-83.2 1206.3,-71.18 1310.89,-67.15"/>
<polygon fill="#63b8ff" stroke="#63b8ff" points="1311.33,-70.64 1321.19,-66.77 1311.06,-63.64 1311.33,-70.64"/>
</a>
</g>
</g>
<!-- Node9 -->
<g id="Node000009" class="node">
<title>Node9</title>
<g id="a_Node000009"><a xlink:href="SocketConfig_8h.html" target="_top" xlink:title="Compile&#45;time and runtime configuration constants, limits, and platform adaptations.">
<polygon fill="white" stroke="#666666" points="357,-129 251,-129 251,-110 357,-110 357,-129"/>
<text text-anchor="middle" x="304" y="-117" font-family="Helvetica,sans-Serif" font-size="10.00">core/SocketConfig.h</text>
</a>
</g>
</g>
<!-- Node8&#45;&gt;Node9 -->
<g id="edge9_Node000008_Node000009" class="edge">
<title>Node8&#45;&gt;Node9</title>
<g id="a_edge9_Node000008_Node000009"><a xlink:title=" ">
<path fill="none" stroke="#63b8ff" d="M969.77,-225.04C895.11,-218.88 739.47,-204.7 609,-184 516.08,-169.26 408.63,-145.23 349.29,-131.35"/>
<polygon fill="#63b8ff" stroke="#63b8ff" points="350.02,-127.92 339.48,-129.04 348.42,-134.74 350.02,-127.92"/>
</a>
</g>
</g>
<!-- Node18 -->
<g id="Node000018" class="node">
<title>Node18</title>
<g id="a_Node000018"><a xlink:href="SocketDNS_8h.html" target="_top" xlink:title="Asynchronous DNS resolution API for non&#45;blocking network applications.">
<polygon fill="white" stroke="#666666" points="1098,-184 1002,-184 1002,-165 1098,-165 1098,-184"/>
<text text-anchor="middle" x="1050" y="-172" font-family="Helvetica,sans-Serif" font-size="10.00">dns/SocketDNS.h</text>
</a>
</g>
</g>
<!-- Node8&#45;&gt;Node18 -->
<g id="edge19_Node000008_Node000018" class="edge">
<title>Node8&#45;&gt;Node18</title>
<g id="a_edge19_Node000008_Node000018"><a xlink:title=" ">
<path fill="none" stroke="#63b8ff" d="M1019.94,-219.75C1024.98,-212.34 1032.34,-201.5 1038.51,-192.41"/>
<polygon fill="#63b8ff" stroke="#63b8ff" points="1041.44,-194.33 1044.17,-184.09 1035.65,-190.39 1041.44,-194.33"/>
</a>
</g>
</g>
<!-- Node21 -->
<g id="Node000021" class="node">
<title>Node21</title>
<g id="a_Node000021"><a xlink:href="SocketCommon_8h.html" target="_top" xlink:title="Common utilities shared between Socket and SocketDgram modules.">
<polygon fill="white" stroke="#666666" points="746,-184 618,-184 618,-165 746,-165 746,-184"/>
<text text-anchor="middle" x="682" y="-172" font-family="Helvetica,sans-Serif" font-size="10.00">socket/SocketCommon.h</text>
</a>
</g>
</g>
<!-- Node8&#45;&gt;Node21 -->
<g id="edge25_Node000008_Node000021" class="edge">
<title>Node8&#45;&gt;Node21</title>
<g id="a_edge25_Node000008_Node000021"><a xlink:title=" ">
<path fill="none" stroke="#63b8ff" d="M969.91,-221.46C912.4,-212.28 811.38,-196.15 745.58,-185.65"/>
<polygon fill="#63b8ff" stroke="#63b8ff" points="745.76,-182.14 735.34,-184.01 744.66,-189.05 745.76,-182.14"/>
</a>
</g>
</g>
<!-- Node9&#45;&gt;Node3 -->
<g id="edge15_Node000009_Node000003" class="edge">
<title>Node9&#45;&gt;Node3</title>
<g id="a_edge15_Node000009_Node000003"><a xlink:title=" ">
<path fill="none" stroke="#63b8ff" d="M250.8,-110.3C202.39,-102.55 128.76,-90.01 55.83,-74.03"/>
<polygon fill="#63b8ff" stroke="#63b8ff" points="56.54,-70.6 46.02,-71.86 55.02,-77.44 56.54,-70.6"/>
</a>
</g>
</g>
<!-- Node10 -->
<g id="Node000010" class="node">
<title>Node10</title>
<g id="a_Node000010"><a xlink:title=" ">
<polygon fill="#e0e0e0" stroke="#999999" points="344.5,-74 297.5,-74 297.5,-55 344.5,-55 344.5,-74"/>
<text text-anchor="middle" x="321" y="-62" font-family="Helvetica,sans-Serif" font-size="10.00">errno.h</text>
</a>
</g>
</g>
<!-- Node9&#45;&gt;Node10 -->
<g id="edge10_Node000009_Node000010" class="edge">
<title>Node9&#45;&gt;Node10</title>
<g id="a_edge10_Node000009_Node000010"><a xlink:title=" ">
<path fill="none" stroke="#63b8ff" d="M306.81,-109.75C309.06,-102.72 312.3,-92.62 315.12,-83.84"/>
<polygon fill="#63b8ff" stroke="#63b8ff" points="318.52,-84.68 318.25,-74.09 311.86,-82.54 318.52,-84.68"/>
</a>
</g>
</g>
<!-- Node11 -->
<g id="Node000011" class="node">
<title>Node11</title>
<g id="a_Node000011"><a xlink:title=" ">
<polygon fill="#e0e0e0" stroke="#999999" points="407,-74 363,-74 363,-55 407,-55 407,-74"/>
<text text-anchor="middle" x="385" y="-62" font-family="Helvetica,sans-Serif" font-size="10.00">fcntl.h</text>
</a>
</g>
</g>
<!-- Node9&#45;&gt;Node11 -->
<g id="edge11_Node000009_Node000011" class="edge">
<title>Node9&#45;&gt;Node11</title>
<g id="a_edge11_Node000009_Node000011"><a xlink:title=" ">
<path fill="none" stroke="#63b8ff" d="M317.01,-109.98C329.46,-101.84 348.46,-89.41 363.21,-79.76"/>
<polygon fill="#63b8ff" stroke="#63b8ff" points="365.3,-82.57 371.75,-74.17 361.46,-76.72 365.3,-82.57"/>
</a>
</g>
</g>
<!-- Node12 -->
<g id="Node000012" class="node">
<title>Node12</title>
<g id="a_Node000012"><a xlink:title=" ">
<polygon fill="#e0e0e0" stroke="#999999" points="490.5,-74 425.5,-74 425.5,-55 490.5,-55 490.5,-74"/>
<text text-anchor="middle" x="458" y="-62" font-family="Helvetica,sans-Serif" font-size="10.00">netinet/in.h</text>
</a>
</g>
</g>
<!-- Node9&#45;&gt;Node12 -->
<g id="edge12_Node000009_Node000012" class="edge">
<title>Node9&#45;&gt;Node12</title>
<g id="a_edge12_Node000009_Node000012"><a xlink:title=" ">
<path fill="none" stroke="#63b8ff" d="M328.74,-109.98C354.37,-101.16 394.63,-87.31 423.41,-77.41"/>
<polygon fill="#63b8ff" stroke="#63b8ff" points="424.75,-80.65 433.06,-74.08 422.47,-74.03 424.75,-80.65"/>
</a>
</g>
</g>
<!-- Node13 -->
<g id="Node000013" class="node">
<title>Node13</title>
<g id="a_Node000013"><a xlink:title=" ">
<polygon fill="#e0e0e0" stroke="#999999" points="135.5,-74 64.5,-74 64.5,-55 135.5,-55 135.5,-74"/>
<text text-anchor="middle" x="100" y="-62" font-family="Helvetica,sans-Serif" font-size="10.00">netinet/tcp.h</text>
</a>
</g>
</g>
<!-- Node9&#45;&gt;Node13 -->
<g id="edge13_Node000009_Node000013" class="edge">
<title>Node9&#45;&gt;Node13</title>
<g id="a_edge13_Node000009_Node000013"><a xlink:title=" ">
<path fill="none" stroke="#63b8ff" d="M271.22,-109.98C236.38,-100.93 181.13,-86.58 142.86,-76.64"/>
<polygon fill="#63b8ff" stroke="#63b8ff" points="143.59,-73.21 133.03,-74.08 141.83,-79.98 143.59,-73.21"/>
</a>
</g>
</g>
<!-- Node14 -->
<g id="Node000014" class="node">
<title>Node14</title>
<g id="a_Node000014"><a xlink:title=" ">
<polygon fill="#e0e0e0" stroke="#999999" points="1114,-74 1062,-74 1062,-55 1114,-55 1114,-74"/>
<text text-anchor="middle" x="1088" y="-62" font-family="Helvetica,sans-Serif" font-size="10.00">stddef.h</text>
</a>
</g>
</g>
<!-- Node9&#45;&gt;Node14 -->
<g id="edge14_Node000009_Node000014" class="edge">
<title>Node9&#45;&gt;Node14</title>
<g id="a_edge14_Node000009_Node000014"><a xlink:title=" ">
<path fill="none" stroke="#63b8ff" d="M357.27,-114.9C506.46,-104.81 925.72,-76.47 1051.73,-67.95"/>
<polygon fill="#63b8ff" stroke="#63b8ff" points="1052.25,-71.42 1061.99,-67.26 1051.78,-64.44 1052.25,-71.42"/>
</a>
</g>
</g>
<!-- Node15 -->
<g id="Node000015" class="node">
<title>Node15</title>
<g id="a_Node000015"><a xlink:title=" ">
<polygon fill="#e0e0e0" stroke="#999999" points="581.5,-74 508.5,-74 508.5,-55 581.5,-55 581.5,-74"/>
<text text-anchor="middle" x="545" y="-62" font-family="Helvetica,sans-Serif" font-size="10.00">sys/socket.h</text>
</a>
</g>
</g>
<!-- Node9&#45;&gt;Node15 -->
<g id="edge16_Node000009_Node000015" class="edge">
<title>Node9&#45;&gt;Node15</title>
<g id="a_edge16_Node000009_Node000015"><a xlink:title=" ">
<path fill="none" stroke="#63b8ff" d="M342.72,-109.98C385.15,-100.65 453.19,-85.69 498.49,-75.73"/>
<polygon fill="#63b8ff" stroke="#63b8ff" points="499.34,-79.13 508.35,-73.56 497.83,-72.29 499.34,-79.13"/>
</a>
</g>
</g>
<!-- Node16 -->
<g id="Node000016" class="node">
<title>Node16</title>
<g id="a_Node000016"><a xlink:title=" ">
<polygon fill="#e0e0e0" stroke="#999999" points="210,-74 154,-74 154,-55 210,-55 210,-74"/>
<text text-anchor="middle" x="182" y="-62" font-family="Helvetica,sans-Serif" font-size="10.00">sys/uio.h</text>
</a>
</g>
</g>
<!-- Node9&#45;&gt;Node16 -->
<g id="edge17_Node000009_Node000016" class="edge">
<title>Node9&#45;&gt;Node16</title>
<g id="a_edge17_Node000009_Node000016"><a xlink:title=" ">
<path fill="none" stroke="#63b8ff" d="M284.4,-109.98C264.68,-101.42 234.05,-88.11 211.42,-78.28"/>
<polygon fill="#63b8ff" stroke="#63b8ff" points="212.52,-74.94 201.96,-74.17 209.74,-81.37 212.52,-74.94"/>
</a>
</g>
</g>
<!-- Node17 -->
<g id="Node000017" class="node">
<title>Node17</title>
<g id="a_Node000017"><a xlink:title=" ">
<polygon fill="#e0e0e0" stroke="#999999" points="279.5,-74 228.5,-74 228.5,-55 279.5,-55 279.5,-74"/>
<text text-anchor="middle" x="254" y="-62" font-family="Helvetica,sans-Serif" font-size="10.00">unistd.h</text>
</a>
</g>
</g>
<!-- Node9&#45;&gt;Node17 -->
<g id="edge18_Node000009_Node000017" class="edge">
<title>Node9&#45;&gt;Node17</title>
<g id="a_edge18_Node000009_Node000017"><a xlink:title=" ">
<path fill="none" stroke="#63b8ff" d="M295.74,-109.75C288.54,-102.11 277.89,-90.82 269.15,-81.56"/>
<polygon fill="#63b8ff" stroke="#63b8ff" points="271.51,-78.96 262.1,-74.09 266.42,-83.76 271.51,-78.96"/>
</a>
</g>
</g>
<!-- Node18&#45;&gt;Node6 -->
<g id="edge20_Node000018_Node000006" class="edge">
<title>Node18&#45;&gt;Node6</title>
<g id="a_edge20_Node000018_Node000006"><a xlink:title=" ">
<path fill="none" stroke="#63b8ff" d="M1062.74,-164.79C1083.21,-151.19 1125.07,-124.91 1164,-110 1212.56,-91.4 1271.01,-79.38 1311.37,-72.57"/>
<polygon fill="#63b8ff" stroke="#63b8ff" points="1312.18,-75.99 1321.48,-70.92 1311.05,-69.08 1312.18,-75.99"/>
</a>
</g>
</g>
<!-- Node18&#45;&gt;Node14 -->
<g id="edge22_Node000018_Node000014" class="edge">
<title>Node18&#45;&gt;Node14</title>
<g id="a_edge22_Node000018_Node000014"><a xlink:title=" ">
<path fill="none" stroke="#63b8ff" d="M1053.11,-164.66C1059.32,-147.01 1073.37,-107.09 1081.62,-83.64"/>
<polygon fill="#63b8ff" stroke="#63b8ff" points="1084.94,-84.75 1084.95,-74.16 1078.33,-82.43 1084.94,-84.75"/>
</a>
</g>
</g>
<!-- Node18&#45;&gt;Node15 -->
<g id="edge24_Node000018_Node000015" class="edge">
<title>Node18&#45;&gt;Node15</title>
<g id="a_edge24_Node000018_Node000015"><a xlink:title=" ">
<path fill="none" stroke="#63b8ff" d="M1047.56,-164.72C1043.11,-150.5 1032.2,-122.76 1012,-110 943.01,-66.43 695.93,-63.8 591.8,-64.72"/>
<polygon fill="#63b8ff" stroke="#63b8ff" points="591.56,-61.22 581.59,-64.82 591.63,-68.22 591.56,-61.22"/>
</a>
</g>
</g>
<!-- Node19 -->
<g id="Node000019" class="node">
<title>Node19</title>
<g id="a_Node000019"><a xlink:title=" ">
<polygon fill="#e0e0e0" stroke="#999999" points="1002.5,-129 953.5,-129 953.5,-110 1002.5,-110 1002.5,-129"/>
<text text-anchor="middle" x="978" y="-117" font-family="Helvetica,sans-Serif" font-size="10.00">netdb.h</text>
</a>
</g>
</g>
<!-- Node18&#45;&gt;Node19 -->
<g id="edge21_Node000018_Node000019" class="edge">
<title>Node18&#45;&gt;Node19</title>
<g id="a_edge21_Node000018_Node000019"><a xlink:title=" ">
<path fill="none" stroke="#63b8ff" d="M1038.43,-164.98C1027.58,-157 1011.12,-144.88 998.12,-135.31"/>
<polygon fill="#63b8ff" stroke="#63b8ff" points="999.91,-132.28 989.78,-129.17 995.76,-137.92 999.91,-132.28"/>
</a>
</g>
</g>
<!-- Node20 -->
<g id="Node000020" class="node">
<title>Node20</title>
<g id="a_Node000020"><a xlink:title=" ">
<polygon fill="#e0e0e0" stroke="#999999" points="1312.5,-129 1263.5,-129 1263.5,-110 1312.5,-110 1312.5,-129"/>
<text text-anchor="middle" x="1288" y="-117" font-family="Helvetica,sans-Serif" font-size="10.00">stdint.h</text>
</a>
</g>
</g>
<!-- Node18&#45;&gt;Node20 -->
<g id="edge23_Node000018_Node000020" class="edge">
<title>Node18&#45;&gt;Node20</title>
<g id="a_edge23_Node000018_Node000020"><a xlink:title=" ">
<path fill="none" stroke="#63b8ff" d="M1090.72,-165C1129.86,-156.74 1190.93,-143.63 1253.15,-129.14"/>
<polygon fill="#63b8ff" stroke="#63b8ff" points="1254.2,-132.49 1263.14,-126.81 1252.6,-125.68 1254.2,-132.49"/>
</a>
</g>
</g>
<!-- Node21&#45;&gt;Node6 -->
<g id="edge38_Node000021_Node000006" class="edge">
<title>Node21&#45;&gt;Node6</title>
<g id="a_edge38_Node000021_Node000006"><a xlink:title=" ">
<path fill="none" stroke="#63b8ff" d="M727.75,-164.97C765.81,-157.3 821.12,-144.82 868,-129 887.8,-122.32 890.79,-115.32 911,-110 1053.02,-72.61 1227.84,-66.12 1311.24,-65.32"/>
<polygon fill="#63b8ff" stroke="#63b8ff" points="1311.46,-68.82 1321.44,-65.25 1311.41,-61.82 1311.46,-68.82"/>
</a>
</g>
</g>
<!-- Node21&#45;&gt;Node9 -->
<g id="edge39_Node000021_Node000009" class="edge">
<title>Node21&#45;&gt;Node9</title>
<g id="a_edge39_Node000021_Node000009"><a xlink:title=" ">
<path fill="none" stroke="#63b8ff" d="M621.27,-164.98C551.65,-155.22 438.06,-139.3 367.36,-129.38"/>
<polygon fill="#63b8ff" stroke="#63b8ff" points="367.64,-125.89 357.25,-127.97 366.67,-132.82 367.64,-125.89"/>
</a>
</g>
</g>
<!-- Node21&#45;&gt;Node11 -->
<g id="edge28_Node000021_Node000011" class="edge">
<title>Node21&#45;&gt;Node11</title>
<g id="a_edge28_Node000021_Node000011"><a xlink:title=" ">
<path fill="none" stroke="#63b8ff" d="M617.7,-169.95C570.81,-165.24 506.83,-154.31 456,-129 432.98,-117.54 411.73,-96.57 398.6,-81.88"/>
<polygon fill="#63b8ff" stroke="#63b8ff" points="401.03,-79.35 391.85,-74.07 395.74,-83.93 401.03,-79.35"/>
</a>
</g>
</g>
<!-- Node21&#45;&gt;Node12 -->
<g id="edge30_Node000021_Node000012" class="edge">
<title>Node21&#45;&gt;Node12</title>
<g id="a_edge30_Node000021_Node000012"><a xlink:title=" ">
<path fill="none" stroke="#63b8ff" d="M617.88,-167.67C563.55,-161.39 491.32,-149.44 471,-129 459.48,-117.41 456.85,-98.54 456.72,-84.38"/>
<polygon fill="#63b8ff" stroke="#63b8ff" points="460.23,-84.36 457.04,-74.26 453.23,-84.14 460.23,-84.36"/>
</a>
</g>
</g>
<!-- Node21&#45;&gt;Node15 -->
<g id="edge31_Node000021_Node000015" class="edge">
<title>Node21&#45;&gt;Node15</title>
<g id="a_edge31_Node000021_Node000015"><a xlink:title=" ">
<path fill="none" stroke="#63b8ff" d="M617.8,-168C565.33,-162.01 497.12,-150.31 480,-129 464.73,-110 491.56,-90.81 515.24,-78.57"/>
<polygon fill="#63b8ff" stroke="#63b8ff" points="516.96,-81.63 524.4,-74.09 513.88,-75.34 516.96,-81.63"/>
</a>
</g>
</g>
<!-- Node21&#45;&gt;Node19 -->
<g id="edge29_Node000021_Node000019" class="edge">
<title>Node21&#45;&gt;Node19</title>
<g id="a_edge29_Node000021_Node000019"><a xlink:title=" ">
<path fill="none" stroke="#63b8ff" d="M729.56,-164.98C789.31,-154.29 890.42,-136.18 943.34,-126.71"/>
<polygon fill="#63b8ff" stroke="#63b8ff" points="944.03,-130.14 953.26,-124.93 942.8,-123.25 944.03,-130.14"/>
</a>
</g>
</g>
<!-- Node22 -->
<g id="Node000022" class="node">
<title>Node22</title>
<g id="a_Node000022"><a xlink:title=" ">
<polygon fill="#e0e0e0" stroke="#999999" points="784.5,-129 727.5,-129 727.5,-110 784.5,-110 784.5,-129"/>
<text text-anchor="middle" x="756" y="-117" font-family="Helvetica,sans-Serif" font-size="10.00">pthread.h</text>
</a>
</g>
</g>
<!-- Node21&#45;&gt;Node22 -->
<g id="edge26_Node000021_Node000022" class="edge">
<title>Node21&#45;&gt;Node22</title>
<g id="a_edge26_Node000021_Node000022"><a xlink:title=" ">
<path fill="none" stroke="#63b8ff" d="M693.89,-164.98C705.15,-156.92 722.29,-144.65 735.71,-135.03"/>
<polygon fill="#63b8ff" stroke="#63b8ff" points="737.8,-137.84 743.89,-129.17 733.73,-132.15 737.8,-137.84"/>
</a>
</g>
</g>
<!-- Node23 -->
<g id="Node000023" class="node">
<title>Node23</title>
<g id="a_Node000023"><a xlink:title=" ">
<polygon fill="#e0e0e0" stroke="#999999" points="859,-129 803,-129 803,-110 859,-110 859,-129"/>
<text text-anchor="middle" x="831" y="-117" font-family="Helvetica,sans-Serif" font-size="10.00">stdbool.h</text>
</a>
</g>
</g>
<!-- Node21&#45;&gt;Node23 -->
<g id="edge27_Node000021_Node000023" class="edge">
<title>Node21&#45;&gt;Node23</title>
<g id="a_edge27_Node000021_Node000023"><a xlink:title=" ">
<path fill="none" stroke="#63b8ff" d="M705.94,-164.98C730.56,-156.23 769.12,-142.51 796.92,-132.62"/>
<polygon fill="#63b8ff" stroke="#63b8ff" points="798.38,-135.82 806.62,-129.17 796.03,-129.22 798.38,-135.82"/>
</a>
</g>
</g>
<!-- Node24 -->
<g id="Node000024" class="node">
<title>Node24</title>
<g id="a_Node000024"><a xlink:title=" ">
<polygon fill="#e0e0e0" stroke="#999999" points="551,-129 489,-129 489,-110 551,-110 551,-129"/>
<text text-anchor="middle" x="520" y="-117" font-family="Helvetica,sans-Serif" font-size="10.00">sys/time.h</text>
</a>
</g>
</g>
<!-- Node21&#45;&gt;Node24 -->
<g id="edge32_Node000021_Node000024" class="edge">
<title>Node21&#45;&gt;Node24</title>
<g id="a_edge32_Node000021_Node000024"><a xlink:title=" ">
<path fill="none" stroke="#63b8ff" d="M655.97,-164.98C628.89,-156.13 586.29,-142.19 555.99,-132.28"/>
<polygon fill="#63b8ff" stroke="#63b8ff" points="556.82,-128.87 546.23,-129.08 554.65,-135.52 556.82,-128.87"/>
</a>
</g>
</g>
<!-- Node25 -->
<g id="Node000025" class="node">
<title>Node25</title>
<g id="a_Node000025"><a xlink:title=" ">
<polygon fill="#e0e0e0" stroke="#999999" points="637,-129 569,-129 569,-110 637,-110 637,-129"/>
<text text-anchor="middle" x="603" y="-117" font-family="Helvetica,sans-Serif" font-size="10.00">sys/types.h</text>
</a>
</g>
</g>
<!-- Node21&#45;&gt;Node25 -->
<g id="edge33_Node000021_Node000025" class="edge">
<title>Node21&#45;&gt;Node25</title>
<g id="a_edge33_Node000021_Node000025"><a xlink:title=" ">
<path fill="none" stroke="#63b8ff" d="M669.31,-164.98C657.17,-156.84 638.64,-144.41 624.25,-134.76"/>
<polygon fill="#63b8ff" stroke="#63b8ff" points="626.18,-131.84 615.92,-129.17 622.28,-137.65 626.18,-131.84"/>
</a>
</g>
</g>
<!-- Node26 -->
<g id="Node000026" class="node">
<title>Node26</title>
<g id="a_Node000026"><a xlink:title=" ">
<polygon fill="#e0e0e0" stroke="#999999" points="709,-129 655,-129 655,-110 709,-110 709,-129"/>
<text text-anchor="middle" x="682" y="-117" font-family="Helvetica,sans-Serif" font-size="10.00">sys/un.h</text>
</a>
</g>
</g>
<!-- Node21&#45;&gt;Node26 -->
<g id="edge34_Node000021_Node000026" class="edge">
<title>Node21&#45;&gt;Node26</title>
<g id="a_edge34_Node000021_Node000026"><a xlink:title=" ">
<path fill="none" stroke="#63b8ff" d="M682,-164.75C682,-157.8 682,-147.85 682,-139.13"/>
<polygon fill="#63b8ff" stroke="#63b8ff" points="685.5,-139.09 682,-129.09 678.5,-139.09 685.5,-139.09"/>
</a>
</g>
</g>
<!-- Node27 -->
<g id="Node000027" class="node">
<title>Node27</title>
<g id="a_Node000027"><a xlink:href="Arena_8h.html" target="_top" xlink:title="Arena&#45;based memory allocator for efficient bulk memory management.">
<polygon fill="white" stroke="#666666" points="1245,-129 1173,-129 1173,-110 1245,-110 1245,-129"/>
<text text-anchor="middle" x="1209" y="-117" font-family="Helvetica,sans-Serif" font-size="10.00">core/Arena.h</text>
</a>
</g>
</g>
<!-- Node21&#45;&gt;Node27 -->
<g id="edge35_Node000021_Node000027" class="edge">
<title>Node21&#45;&gt;Node27</title>
<g id="a_edge35_Node000021_Node000027"><a xlink:title=" ">
<path fill="none" stroke="#63b8ff" d="M746.09,-167.05C853.84,-156.22 1068.69,-134.61 1162.91,-125.13"/>
<polygon fill="#63b8ff" stroke="#63b8ff" points="1163.39,-128.6 1172.99,-124.12 1162.69,-121.64 1163.39,-128.6"/>
</a>
</g>
</g>
<!-- Node27&#45;&gt;Node6 -->
<g id="edge37_Node000027_Node000006" class="edge">
<title>Node27&#45;&gt;Node6</title>
<g id="a_edge37_Node000027_Node000006"><a xlink:title=" ">
<path fill="none" stroke="#63b8ff" d="M1233.26,-109.98C1258.32,-101.19 1297.63,-87.39 1325.83,-77.49"/>
<polygon fill="#63b8ff" stroke="#63b8ff" points="1327.02,-80.78 1335.3,-74.17 1324.7,-74.18 1327.02,-80.78"/>
</a>
</g>
</g>
<!-- Node27&#45;&gt;Node14 -->
<g id="edge36_Node000027_Node000014" class="edge">
<title>Node27&#45;&gt;Node14</title>
<g id="a_edge36_Node000027_Node000014"><a xlink:title=" ">
<path fill="none" stroke="#63b8ff" d="M1189.56,-109.98C1170.01,-101.42 1139.62,-88.11 1117.18,-78.28"/>
<polygon fill="#63b8ff" stroke="#63b8ff" points="1118.36,-74.98 1107.79,-74.17 1115.55,-81.39 1118.36,-74.98"/>
</a>
</g>
</g>
<!-- Node28&#45;&gt;Node6 -->
<g id="edge43_Node000028_Node000006" class="edge">
<title>Node28&#45;&gt;Node6</title>
<g id="a_edge43_Node000028_Node000006"><a xlink:title=" ">
<path fill="none" stroke="#63b8ff" d="M1223.43,-384.9C1244.99,-369.32 1289.28,-334.29 1313,-294 1351.56,-228.49 1346.73,-204.17 1358,-129 1360.23,-114.13 1360.65,-97.1 1360.56,-84.42"/>
<polygon fill="#63b8ff" stroke="#63b8ff" points="1364.05,-84.12 1360.37,-74.19 1357.06,-84.25 1364.05,-84.12"/>
</a>
</g>
</g>
<!-- Node28&#45;&gt;Node8 -->
<g id="edge51_Node000028_Node000008" class="edge">
<title>Node28&#45;&gt;Node8</title>
<g id="a_edge51_Node000028_Node000008"><a xlink:title=" ">
<path fill="none" stroke="#63b8ff" d="M1154.71,-385.54C1127.8,-379.33 1096.61,-368.35 1074,-349 1042.58,-322.1 1025.73,-274.72 1018.46,-248.76"/>
<polygon fill="#63b8ff" stroke="#63b8ff" points="1021.84,-247.86 1015.92,-239.07 1015.07,-249.64 1021.84,-247.86"/>
</a>
</g>
</g>
<!-- Node28&#45;&gt;Node14 -->
<g id="edge41_Node000028_Node000014" class="edge">
<title>Node28&#45;&gt;Node14</title>
<g id="a_edge41_Node000028_Node000014"><a xlink:title=" ">
<path fill="none" stroke="#63b8ff" d="M1197.34,-384.96C1173.32,-368.76 1126,-331.07 1126,-285.5 1126,-285.5 1126,-285.5 1126,-228.5 1126,-174.67 1106.1,-113.39 1095.1,-83.63"/>
<polygon fill="#63b8ff" stroke="#63b8ff" points="1098.33,-82.27 1091.51,-74.17 1091.79,-84.76 1098.33,-82.27"/>
</a>
</g>
</g>
<!-- Node28&#45;&gt;Node18 -->
<g id="edge44_Node000028_Node000018" class="edge">
<title>Node28&#45;&gt;Node18</title>
<g id="a_edge44_Node000028_Node000018"><a xlink:title=" ">
<path fill="none" stroke="#63b8ff" d="M1174.69,-384.89C1153.83,-378.25 1128.55,-367.06 1112,-349 1070.97,-304.24 1087.84,-277.03 1067,-220 1063.8,-211.25 1060.13,-201.58 1057.02,-193.5"/>
<polygon fill="#63b8ff" stroke="#63b8ff" points="1060.21,-192.06 1053.33,-184 1053.68,-194.59 1060.21,-192.06"/>
</a>
</g>
</g>
<!-- Node28&#45;&gt;Node27 -->
<g id="edge42_Node000028_Node000027" class="edge">
<title>Node28&#45;&gt;Node27</title>
<g id="a_edge42_Node000028_Node000027"><a xlink:title=" ">
<path fill="none" stroke="#63b8ff" d="M1207.11,-384.74C1199.41,-366.6 1183,-323.46 1183,-285.5 1183,-285.5 1183,-285.5 1183,-228.5 1183,-196.15 1194.17,-159.82 1201.86,-138.62"/>
<polygon fill="#63b8ff" stroke="#63b8ff" points="1205.23,-139.6 1205.49,-129.01 1198.68,-137.13 1205.23,-139.6"/>
</a>
</g>
</g>
<!-- Node29 -->
<g id="Node000029" class="node">
<title>Node29</title>
<g id="a_Node000029"><a xlink:href="SocketPoll_8h.html" target="_top" xlink:title="Cross&#45;platform high&#45;level interface for monitoring multiple sockets for I/O events.">
<polygon fill="white" stroke="#666666" points="1304,-294 1214,-294 1214,-275 1304,-275 1304,-294"/>
<text text-anchor="middle" x="1259" y="-282" font-family="Helvetica,sans-Serif" font-size="10.00">poll/SocketPoll.h</text>
</a>
</g>
</g>
<!-- Node28&#45;&gt;Node29 -->
<g id="edge45_Node000028_Node000029" class="edge">
<title>Node28&#45;&gt;Node29</title>
<g id="a_edge45_Node000028_Node000029"><a xlink:title=" ">
<path fill="none" stroke="#63b8ff" d="M1214.93,-384.66C1222.81,-366.93 1240.68,-326.73 1251.08,-303.32"/>
<polygon fill="#63b8ff" stroke="#63b8ff" points="1254.29,-304.72 1255.15,-294.16 1247.89,-301.87 1254.29,-304.72"/>
</a>
</g>
</g>
<!-- Node28&#45;&gt;Node31 -->
<g id="edge52_Node000028_Node000031" class="edge">
<title>Node28&#45;&gt;Node31</title>
<g id="a_edge52_Node000028_Node000031"><a xlink:title=" ">
<path fill="none" stroke="#63b8ff" d="M1261.61,-384.98C1317.1,-375.65 1406.09,-360.67 1465.29,-350.71"/>
<polygon fill="#63b8ff" stroke="#63b8ff" points="1465.97,-354.15 1475.25,-349.04 1464.81,-347.25 1465.97,-354.15"/>
</a>
</g>
</g>
<!-- Node29&#45;&gt;Node6 -->
<g id="edge46_Node000029_Node000006" class="edge">
<title>Node29&#45;&gt;Node6</title>
<g id="a_edge46_Node000029_Node000006"><a xlink:title=" ">
<path fill="none" stroke="#63b8ff" d="M1265.41,-274.82C1277.63,-257.99 1304.6,-219.42 1322,-184 1333.47,-160.65 1334,-153.75 1342,-129 1346.85,-113.99 1351.69,-96.76 1355.13,-84.04"/>
<polygon fill="#63b8ff" stroke="#63b8ff" points="1358.56,-84.75 1357.75,-74.19 1351.79,-82.95 1358.56,-84.75"/>
</a>
</g>
</g>
<!-- Node29&#45;&gt;Node8 -->
<g id="edge50_Node000029_Node000008" class="edge">
<title>Node29&#45;&gt;Node8</title>
<g id="a_edge50_Node000029_Node000008"><a xlink:title=" ">
<path fill="none" stroke="#63b8ff" d="M1219.64,-274.98C1177.26,-265.82 1109.74,-251.21 1063.72,-241.26"/>
<polygon fill="#63b8ff" stroke="#63b8ff" points="1064.19,-237.78 1053.67,-239.08 1062.71,-244.62 1064.19,-237.78"/>
</a>
</g>
</g>
<!-- Node30 -->
<g id="Node000030" class="node">
<title>Node30</title>
<g id="a_Node000030"><a xlink:href="SocketTimer_8h.html" target="_top" xlink:title="High&#45;performance timer subsystem integrated with the event loop.">
<polygon fill="white" stroke="#666666" points="1312.5,-184 1211.5,-184 1211.5,-165 1312.5,-165 1312.5,-184"/>
<text text-anchor="middle" x="1262" y="-172" font-family="Helvetica,sans-Serif" font-size="10.00">core/SocketTimer.h</text>
</a>
</g>
</g>
<!-- Node29&#45;&gt;Node30 -->
<g id="edge47_Node000029_Node000030" class="edge">
<title>Node29&#45;&gt;Node30</title>
<g id="a_edge47_Node000029_Node000030"><a xlink:title=" ">
<path fill="none" stroke="#63b8ff" d="M1259.25,-274.66C1259.73,-257.17 1260.82,-217.8 1261.48,-194.27"/>
<polygon fill="#63b8ff" stroke="#63b8ff" points="1264.98,-194.25 1261.76,-184.16 1257.98,-194.06 1264.98,-194.25"/>
</a>
</g>
</g>
<!-- Node30&#45;&gt;Node6 -->
<g id="edge48_Node000030_Node000006" class="edge">
<title>Node30&#45;&gt;Node6</title>
<g id="a_edge48_Node000030_Node000006"><a xlink:title=" ">
<path fill="none" stroke="#63b8ff" d="M1276.6,-164.99C1289.6,-156.9 1308.59,-143.8 1322,-129 1334.51,-115.19 1345.04,-96.65 1351.82,-83.17"/>
<polygon fill="#63b8ff" stroke="#63b8ff" points="1355.05,-84.53 1356.24,-74.01 1348.74,-81.49 1355.05,-84.53"/>
</a>
</g>
</g>
<!-- Node30&#45;&gt;Node20 -->
<g id="edge49_Node000030_Node000020" class="edge">
<title>Node30&#45;&gt;Node20</title>
<g id="a_edge49_Node000030_Node000020"><a xlink:title=" ">
<path fill="none" stroke="#63b8ff" d="M1266.29,-164.75C1269.81,-157.57 1274.91,-147.18 1279.28,-138.27"/>
<polygon fill="#63b8ff" stroke="#63b8ff" points="1282.52,-139.61 1283.79,-129.09 1276.24,-136.53 1282.52,-139.61"/>
</a>
</g>
</g>
<!-- Node31&#45;&gt;Node6 -->
<g id="edge54_Node000031_Node000006" class="edge">
<title>Node31&#45;&gt;Node6</title>
<g id="a_edge54_Node000031_Node000006"><a xlink:title=" ">
<path fill="none" stroke="#63b8ff" d="M1587.11,-337.37C1642.63,-334.27 1725.62,-324.34 1791,-294 1830.62,-275.62 1866,-274.18 1866,-230.5 1866,-230.5 1866,-230.5 1866,-173.5 1866,-80.67 1536.16,-67.34 1409.09,-65.64"/>
<polygon fill="#63b8ff" stroke="#63b8ff" points="1408.9,-62.14 1398.86,-65.53 1408.82,-69.14 1408.9,-62.14"/>
</a>
</g>
</g>
<!-- Node31&#45;&gt;Node27 -->
<g id="edge53_Node000031_Node000027" class="edge">
<title>Node31&#45;&gt;Node27</title>
<g id="a_edge53_Node000031_Node000027"><a xlink:title=" ">
<path fill="none" stroke="#63b8ff" d="M1517.86,-329.77C1491.76,-302.21 1406.94,-215.91 1322,-165 1298.68,-151.03 1270.19,-139.84 1247.65,-132.18"/>
<polygon fill="#63b8ff" stroke="#63b8ff" points="1248.67,-128.83 1238.07,-129.01 1246.47,-135.47 1248.67,-128.83"/>
</a>
</g>
</g>
<!-- Node31&#45;&gt;Node32 -->
<g id="edge55_Node000031_Node000032" class="edge">
<title>Node31&#45;&gt;Node32</title>
<g id="a_edge55_Node000031_Node000032"><a xlink:title=" ">
<path fill="none" stroke="#63b8ff" d="M1587.13,-331.2C1657.73,-322.68 1777.35,-307.97 1880,-294 1881.45,-293.8 1882.92,-293.6 1884.4,-293.4"/>
<polygon fill="#63b8ff" stroke="#63b8ff" points="1884.89,-296.86 1894.31,-292 1883.92,-289.93 1884.89,-296.86"/>
</a>
</g>
</g>
<!-- Node35 -->
<g id="Node000035" class="node">
<title>Node35</title>
<g id="a_Node000035"><a xlink:href="SocketTLSConfig_8h.html" target="_top" xlink:title="TLS configuration constants, structure, and secure defaults.">
<polygon fill="white" stroke="#666666" points="1643,-294 1527,-294 1527,-275 1643,-275 1643,-294"/>
<text text-anchor="middle" x="1585" y="-282" font-family="Helvetica,sans-Serif" font-size="10.00">tls/SocketTLSConfig.h</text>
</a>
</g>
</g>
<!-- Node31&#45;&gt;Node35 -->
<g id="edge60_Node000031_Node000035" class="edge">
<title>Node31&#45;&gt;Node35</title>
<g id="a_edge60_Node000031_Node000035"><a xlink:title=" ">
<path fill="none" stroke="#63b8ff" d="M1535.48,-329.98C1544.2,-322.15 1557.34,-310.34 1567.9,-300.86"/>
<polygon fill="#63b8ff" stroke="#63b8ff" points="1570.25,-303.46 1575.35,-294.17 1565.57,-298.25 1570.25,-303.46"/>
</a>
</g>
</g>
<!-- Node38 -->
<g id="Node000038" class="node">
<title>Node38</title>
<g id="a_Node000038"><a xlink:title=" ">
<polygon fill="#e0e0e0" stroke="#999999" points="1838,-239 1764,-239 1764,-220 1838,-220 1838,-239"/>
<text text-anchor="middle" x="1801" y="-227" font-family="Helvetica,sans-Serif" font-size="10.00">openssl/ssl.h</text>
</a>
</g>
</g>
<!-- Node31&#45;&gt;Node38 -->
<g id="edge66_Node000031_Node000038" class="edge">
<title>Node31&#45;&gt;Node38</title>
<g id="a_edge66_Node000031_Node000038"><a xlink:title=" ">
<path fill="none" stroke="#63b8ff" d="M1587.26,-330.26C1654.71,-320.72 1755.57,-304.94 1770,-294 1784.49,-283.02 1792.59,-263.47 1796.85,-248.95"/>
<polygon fill="#63b8ff" stroke="#63b8ff" points="1800.29,-249.61 1799.39,-239.06 1793.51,-247.87 1800.29,-249.61"/>
</a>
</g>
</g>
<!-- Node40 -->
<g id="Node000040" class="node">
<title>Node40</title>
<g id="a_Node000040"><a xlink:title=" ">
<polygon fill="#e0e0e0" stroke="#999999" points="1761,-294 1661,-294 1661,-275 1761,-275 1761,-294"/>
<text text-anchor="middle" x="1711" y="-282" font-family="Helvetica,sans-Serif" font-size="10.00">openssl/x509_vfy.h</text>
</a>
</g>
</g>
<!-- Node31&#45;&gt;Node40 -->
<g id="edge67_Node000031_Node000040" class="edge">
<title>Node31&#45;&gt;Node40</title>
<g id="a_edge67_Node000031_Node000040"><a xlink:title=" ">
<path fill="none" stroke="#63b8ff" d="M1555.72,-329.98C1587.05,-321.01 1636.57,-306.82 1671.24,-296.89"/>
<polygon fill="#63b8ff" stroke="#63b8ff" points="1672.39,-300.2 1681.04,-294.08 1670.47,-293.47 1672.39,-300.2"/>
</a>
</g>
</g>
<!-- Node32&#45;&gt;Node6 -->
<g id="edge56_Node000032_Node000006" class="edge">
<title>Node32&#45;&gt;Node6</title>
<g id="a_edge56_Node000032_Node000006"><a xlink:title=" ">
<path fill="none" stroke="#63b8ff" d="M1952.97,-274.84C1970.5,-263.47 1996.06,-242.32 1987,-220 1961.34,-156.81 1941.64,-139.19 1880,-110 1797.31,-70.84 1521.49,-65.77 1408.7,-65.38"/>
<polygon fill="#63b8ff" stroke="#63b8ff" points="1408.63,-61.88 1398.63,-65.35 1408.62,-68.88 1408.63,-61.88"/>
</a>
</g>
</g>
<!-- Node32&#45;&gt;Node8 -->
<g id="edge57_Node000032_Node000008" class="edge">
<title>Node32&#45;&gt;Node8</title>
<g id="a_edge57_Node000032_Node000008"><a xlink:title=" ">
<path fill="none" stroke="#63b8ff" d="M1894.36,-281C1742.3,-272.27 1235.86,-243.23 1068.33,-233.62"/>
<polygon fill="#63b8ff" stroke="#63b8ff" points="1068.45,-230.12 1058.26,-233.04 1068.04,-237.11 1068.45,-230.12"/>
</a>
</g>
</g>
<!-- Node33 -->
<g id="Node000033" class="node">
<title>Node33</title>
<g id="a_Node000033"><a xlink:title=" ">
<polygon fill="#e0e0e0" stroke="#999999" points="1977.5,-239 1894.5,-239 1894.5,-220 1977.5,-220 1977.5,-239"/>
<text text-anchor="middle" x="1936" y="-227" font-family="Helvetica,sans-Serif" font-size="10.00">openssl/x509.h</text>
</a>
</g>
</g>
<!-- Node32&#45;&gt;Node33 -->
<g id="edge58_Node000032_Node000033" class="edge">
<title>Node32&#45;&gt;Node33</title>
<g id="a_edge58_Node000032_Node000033"><a xlink:title=" ">
<path fill="none" stroke="#63b8ff" d="M1937.67,-274.75C1937.41,-267.8 1937.03,-257.85 1936.7,-249.13"/>
<polygon fill="#63b8ff" stroke="#63b8ff" points="1940.2,-248.95 1936.32,-239.09 1933.2,-249.21 1940.2,-248.95"/>
</a>
</g>
</g>
<!-- Node34 -->
<g id="Node000034" class="node">
<title>Node34</title>
<g id="a_Node000034"><a xlink:title=" ">
<polygon fill="#e0e0e0" stroke="#999999" points="2078,-239 2034,-239 2034,-220 2078,-220 2078,-239"/>
<text text-anchor="middle" x="2056" y="-227" font-family="Helvetica,sans-Serif" font-size="10.00">time.h</text>
</a>
</g>
</g>
<!-- Node32&#45;&gt;Node34 -->
<g id="edge59_Node000032_Node000034" class="edge">
<title>Node32&#45;&gt;Node34</title>
<g id="a_edge59_Node000032_Node000034"><a xlink:title=" ">
<path fill="none" stroke="#63b8ff" d="M1956.96,-274.98C1976.03,-266.42 2005.66,-253.11 2027.55,-243.28"/>
<polygon fill="#63b8ff" stroke="#63b8ff" points="2029.01,-246.46 2036.7,-239.17 2026.14,-240.07 2029.01,-246.46"/>
</a>
</g>
</g>
<!-- Node35&#45;&gt;Node33 -->
<g id="edge64_Node000035_Node000033" class="edge">
<title>Node35&#45;&gt;Node33</title>
<g id="a_edge64_Node000035_Node000033"><a xlink:title=" ">
<path fill="none" stroke="#63b8ff" d="M1641.39,-274.98C1708.44,-264.86 1819.41,-248.11 1884.32,-238.3"/>
<polygon fill="#63b8ff" stroke="#63b8ff" points="1884.96,-241.75 1894.32,-236.79 1883.91,-234.83 1884.96,-241.75"/>
</a>
</g>
</g>
<!-- Node36 -->
<g id="Node000036" class="node">
<title>Node36</title>
<g id="a_Node000036"><a xlink:title=" ">
<polygon fill="#e0e0e0" stroke="#999999" points="1517,-239 1445,-239 1445,-220 1517,-220 1517,-239"/>
<text text-anchor="middle" x="1481" y="-227" font-family="Helvetica,sans-Serif" font-size="10.00">openssl/err.h</text>
</a>
</g>
</g>
<!-- Node35&#45;&gt;Node36 -->
<g id="edge61_Node000035_Node000036" class="edge">
<title>Node35&#45;&gt;Node36</title>
<g id="a_edge61_Node000035_Node000036"><a xlink:title=" ">
<path fill="none" stroke="#63b8ff" d="M1568.29,-274.98C1551.79,-266.57 1526.3,-253.59 1507.12,-243.81"/>
<polygon fill="#63b8ff" stroke="#63b8ff" points="1508.51,-240.59 1498.01,-239.17 1505.33,-246.83 1508.51,-240.59"/>
</a>
</g>
</g>
<!-- Node37 -->
<g id="Node000037" class="node">
<title>Node37</title>
<g id="a_Node000037"><a xlink:title=" ">
<polygon fill="#e0e0e0" stroke="#999999" points="1634.5,-239 1535.5,-239 1535.5,-220 1634.5,-220 1634.5,-239"/>
<text text-anchor="middle" x="1585" y="-227" font-family="Helvetica,sans-Serif" font-size="10.00">openssl/opensslv.h</text>
</a>
</g>
</g>
<!-- Node35&#45;&gt;Node37 -->
<g id="edge62_Node000035_Node000037" class="edge">
<title>Node35&#45;&gt;Node37</title>
<g id="a_edge62_Node000035_Node000037"><a xlink:title=" ">
<path fill="none" stroke="#63b8ff" d="M1585,-274.75C1585,-267.8 1585,-257.85 1585,-249.13"/>
<polygon fill="#63b8ff" stroke="#63b8ff" points="1588.5,-249.09 1585,-239.09 1581.5,-249.09 1588.5,-249.09"/>
</a>
</g>
</g>
<!-- Node35&#45;&gt;Node38 -->
<g id="edge63_Node000035_Node000038" class="edge">
<title>Node35&#45;&gt;Node38</title>
<g id="a_edge63_Node000035_Node000038"><a xlink:title=" ">
<path fill="none" stroke="#63b8ff" d="M1619.7,-274.98C1656.75,-265.89 1715.59,-251.46 1756.13,-241.51"/>
<polygon fill="#63b8ff" stroke="#63b8ff" points="1757.15,-244.86 1766.02,-239.08 1755.48,-238.07 1757.15,-244.86"/>
</a>
</g>
</g>
<!-- Node39 -->
<g id="Node000039" class="node">
<title>Node39</title>
<g id="a_Node000039"><a xlink:title=" ">
<polygon fill="#e0e0e0" stroke="#999999" points="1745.5,-239 1652.5,-239 1652.5,-220 1745.5,-220 1745.5,-239"/>
<text text-anchor="middle" x="1699" y="-227" font-family="Helvetica,sans-Serif" font-size="10.00">openssl/x509v3.h</text>
</a>
</g>
</g>
<!-- Node35&#45;&gt;Node39 -->
<g id="edge65_Node000035_Node000039" class="edge">
<title>Node35&#45;&gt;Node39</title>
<g id="a_edge65_Node000035_Node000039"><a xlink:title=" ">
<path fill="none" stroke="#63b8ff" d="M1603.32,-274.98C1621.66,-266.46 1650.11,-253.23 1671.23,-243.41"/>
<polygon fill="#63b8ff" stroke="#63b8ff" points="1672.76,-246.56 1680.35,-239.17 1669.81,-240.21 1672.76,-246.56"/>
</a>
</g>
</g>
</g>
</svg>
