<?xml version="1.0" encoding="UTF-8" standalone="no"?>
<!DOCTYPE svg PUBLIC "-//W3C//DTD SVG 1.1//EN"
 "http://www.w3.org/Graphics/SVG/1.1/DTD/svg11.dtd">
<!-- Generated by graphviz version 2.43.0 (0)
 -->
<!-- Title: SocketHTTP2.h Pages: 1 -->
<!--zoomable 302 -->

<svg id="main" version="1.1" xmlns="http://www.w3.org/2000/svg" xmlns:xlink="http://www.w3.org/1999/xlink" xml:space="preserve" onload="init(evt)">
<style type="text/css"><![CDATA[
.node, .edge {opacity: 0.7;}
.node.selected, .edge.selected {opacity: 1;}
.edge:hover path { stroke: red; }
.edge:hover polygon { stroke: red; fill: red; }
]]></style>

<defs>
  <circle id="rim" cx="0" cy="0" r="7"/>
  <circle id="rim2" cx="0" cy="0" r="3.5"/>
  <g id="zoomPlus">
    <use xlink:href="#rim" fill="#404040"><set attributeName="fill" to="#808080" begin="zoomplus.mouseover" end="zoomplus.mouseout"/></use>
    <path d="M-4,0h8M0,-4v8" fill="none" stroke="white" stroke-width="1.5" pointer-events="none"/>
  </g>
  <g id="zoomMin">
    <use xlink:href="#rim" fill="#404040"><set attributeName="fill" to="#808080" begin="zoomminus.mouseover" end="zoomminus.mouseout"/></use>
    <path d="M-4,0h8" fill="none" stroke="white" stroke-width="1.5" pointer-events="none"/>
  </g>
  <g id="arrowUp" transform="translate(30 24)">
    <use xlink:href="#rim"/>
    <path pointer-events="none" fill="none" stroke="white" stroke-width="1.5" d="M0,-3.0v7 M-2.5,-0.5L0,-3.0L2.5,-0.5"/>
  </g>
  <g id="arrowRight" transform="rotate(90) translate(36 -43)">
    <use xlink:href="#rim"/>
    <path pointer-events="none" fill="none" stroke="white" stroke-width="1.5" d="M0,-3.0v7 M-2.5,-0.5L0,-3.0L2.5,-0.5"/>
  </g>
  <g id="arrowDown" transform="rotate(180) translate(-30 -48)">
    <use xlink:href="#rim"/>
    <path pointer-events="none" fill="none" stroke="white" stroke-width="1.5" d="M0,-3.0v7 M-2.5,-0.5L0,-3.0L2.5,-0.5"/>
  </g>
  <g id="arrowLeft" transform="rotate(270) translate(-36 17)">
    <use xlink:href="#rim"/>
    <path pointer-events="none" fill="none" stroke="white" stroke-width="1.5" d="M0,-3.0v7 M-2.5,-0.5L0,-3.0L2.5,-0.5"/>
  </g>
  <g id="resetDef">
    <use xlink:href="#rim2" fill="#404040"><set attributeName="fill" to="#808080" begin="reset.mouseover" end="reset.mouseout"/></use>
  </g>
</defs>
<script type="application/ecmascript">
var viewWidth = 1358;
var viewHeight = 302;
var sectionId = 'dynsection-0';
</script>
<script type="application/ecmascript" xlink:href="svg.min.js"/>
<svg id="graph" class="graph">
<g id="viewport">
<title>SocketHTTP2.h</title>
<!-- Node1 -->
<g id="Node000001" class="node">
<title>Node1</title>
<g id="a_Node000001"><a xlink:title="HTTP/2 protocol implementation (RFC 9113) with multiplexing and flow control.">
<polygon fill="#999999" stroke="#666666" points="372.33,-294 285.33,-294 285.33,-275 372.33,-275 372.33,-294"/>
<text text-anchor="middle" x="328.83" y="-282" font-family="Helvetica,sans-Serif" font-size="10.00">SocketHTTP2.h</text>
</a>
</g>
</g>
<!-- Node2 -->
<g id="Node000002" class="node">
<title>Node2</title>
<g id="a_Node000002"><a xlink:title=" ">
<polygon fill="#e0e0e0" stroke="#999999" points="187.83,-74 135.83,-74 135.83,-55 187.83,-55 187.83,-74"/>
<text text-anchor="middle" x="161.83" y="-62" font-family="Helvetica,sans-Serif" font-size="10.00">stddef.h</text>
</a>
</g>
</g>
<!-- Node1&#45;&gt;Node2 -->
<g id="edge1_Node000001_Node000002" class="edge">
<title>Node1&#45;&gt;Node2</title>
<g id="a_edge1_Node000001_Node000002"><a xlink:title=" ">
<path fill="none" stroke="#63b8ff" d="M285.04,-280.6C205.68,-272.56 42.58,-242.33 2.83,-129 -15.12,-77.83 73.25,-67.34 125.53,-65.54"/>
<polygon fill="#63b8ff" stroke="#63b8ff" points="125.87,-69.03 135.78,-65.28 125.69,-62.04 125.87,-69.03"/>
</a>
</g>
</g>
<!-- Node3 -->
<g id="Node000003" class="node">
<title>Node3</title>
<g id="a_Node000003"><a xlink:title=" ">
<polygon fill="#e0e0e0" stroke="#999999" points="335.33,-129 286.33,-129 286.33,-110 335.33,-110 335.33,-129"/>
<text text-anchor="middle" x="310.83" y="-117" font-family="Helvetica,sans-Serif" font-size="10.00">stdint.h</text>
</a>
</g>
</g>
<!-- Node1&#45;&gt;Node3 -->
<g id="edge2_Node000001_Node000003" class="edge">
<title>Node1&#45;&gt;Node3</title>
<g id="a_edge2_Node000001_Node000003"><a xlink:title=" ">
<path fill="none" stroke="#63b8ff" d="M330.31,-274.75C333.38,-254.93 339.45,-205.24 330.83,-165 328.85,-155.8 324.83,-146.2 320.9,-138.29"/>
<polygon fill="#63b8ff" stroke="#63b8ff" points="323.92,-136.51 316.14,-129.32 317.74,-139.79 323.92,-136.51"/>
</a>
</g>
</g>
<!-- Node4 -->
<g id="Node000004" class="node">
<title>Node4</title>
<g id="a_Node000004"><a xlink:title=" ">
<polygon fill="#e0e0e0" stroke="#999999" points="421.83,-129 353.83,-129 353.83,-110 421.83,-110 421.83,-129"/>
<text text-anchor="middle" x="387.83" y="-117" font-family="Helvetica,sans-Serif" font-size="10.00">sys/types.h</text>
</a>
</g>
</g>
<!-- Node1&#45;&gt;Node4 -->
<g id="edge3_Node000001_Node000004" class="edge">
<title>Node1&#45;&gt;Node4</title>
<g id="a_edge3_Node000001_Node000004"><a xlink:title=" ">
<path fill="none" stroke="#63b8ff" d="M332.82,-274.72C336.81,-265.8 343.03,-251.56 347.83,-239 361.19,-203.97 374.72,-162.29 382.12,-138.86"/>
<polygon fill="#63b8ff" stroke="#63b8ff" points="385.49,-139.8 385.14,-129.21 378.81,-137.7 385.49,-139.8"/>
</a>
</g>
</g>
<!-- Node5 -->
<g id="Node000005" class="node">
<title>Node5</title>
<g id="a_Node000005"><a xlink:href="Arena_8h.html" target="_top" xlink:title="Arena&#45;based memory allocator for efficient bulk memory management.">
<polygon fill="white" stroke="#666666" points="229.83,-129 157.83,-129 157.83,-110 229.83,-110 229.83,-129"/>
<text text-anchor="middle" x="193.83" y="-117" font-family="Helvetica,sans-Serif" font-size="10.00">core/Arena.h</text>
</a>
</g>
</g>
<!-- Node1&#45;&gt;Node5 -->
<g id="edge4_Node000001_Node000005" class="edge">
<title>Node1&#45;&gt;Node5</title>
<g id="a_edge4_Node000001_Node000005"><a xlink:title=" ">
<path fill="none" stroke="#63b8ff" d="M310.6,-274.87C282.29,-260.41 228.38,-228.47 202.83,-184 195.1,-170.56 193.12,-152.96 192.91,-139.7"/>
<polygon fill="#63b8ff" stroke="#63b8ff" points="196.42,-139.43 193.09,-129.37 189.42,-139.31 196.42,-139.43"/>
</a>
</g>
</g>
<!-- Node6 -->
<g id="Node000006" class="node">
<title>Node6</title>
<g id="a_Node000006"><a xlink:href="Except_8h.html" target="_top" xlink:title="Structured exception handling for C with TRY/EXCEPT/FINALLY blocks.">
<polygon fill="white" stroke="#666666" points="488.33,-74 411.33,-74 411.33,-55 488.33,-55 488.33,-74"/>
<text text-anchor="middle" x="449.83" y="-62" font-family="Helvetica,sans-Serif" font-size="10.00">core/Except.h</text>
</a>
</g>
</g>
<!-- Node1&#45;&gt;Node6 -->
<g id="edge8_Node000001_Node000006" class="edge">
<title>Node1&#45;&gt;Node6</title>
<g id="a_edge8_Node000001_Node000006"><a xlink:title=" ">
<path fill="none" stroke="#63b8ff" d="M336.37,-274.92C343.93,-266.15 355.71,-252.03 364.83,-239 397.5,-192.28 407.81,-181.16 430.83,-129 437.22,-114.51 442.23,-97.24 445.5,-84.37"/>
<polygon fill="#63b8ff" stroke="#63b8ff" points="448.97,-84.92 447.91,-74.37 442.16,-83.27 448.97,-84.92"/>
</a>
</g>
</g>
<!-- Node8 -->
<g id="Node000008" class="node">
<title>Node8</title>
<g id="a_Node000008"><a xlink:href="SocketHPACK_8h.html" target="_top" xlink:title="HPACK header compression/decompression module for HTTP/2 (RFC 7541).">
<polygon fill="white" stroke="#666666" points="321.33,-184 212.33,-184 212.33,-165 321.33,-165 321.33,-184"/>
<text text-anchor="middle" x="266.83" y="-172" font-family="Helvetica,sans-Serif" font-size="10.00">http/SocketHPACK.h</text>
</a>
</g>
</g>
<!-- Node1&#45;&gt;Node8 -->
<g id="edge9_Node000001_Node000008" class="edge">
<title>Node1&#45;&gt;Node8</title>
<g id="a_edge9_Node000001_Node000008"><a xlink:title=" ">
<path fill="none" stroke="#63b8ff" d="M323.75,-274.66C313.53,-256.85 290.29,-216.37 276.88,-193.01"/>
<polygon fill="#63b8ff" stroke="#63b8ff" points="279.81,-191.09 271.8,-184.16 273.74,-194.57 279.81,-191.09"/>
</a>
</g>
</g>
<!-- Node9 -->
<g id="Node000009" class="node">
<title>Node9</title>
<g id="a_Node000009"><a xlink:href="SocketHTTP_8h.html" target="_top" xlink:title="Protocol&#45;agnostic HTTP types, header handling, URI parsing, and utilities.">
<polygon fill="white" stroke="#666666" points="155.83,-184 55.83,-184 55.83,-165 155.83,-165 155.83,-184"/>
<text text-anchor="middle" x="105.83" y="-172" font-family="Helvetica,sans-Serif" font-size="10.00">http/SocketHTTP.h</text>
</a>
</g>
</g>
<!-- Node1&#45;&gt;Node9 -->
<g id="edge15_Node000001_Node000009" class="edge">
<title>Node1&#45;&gt;Node9</title>
<g id="a_edge15_Node000001_Node000009"><a xlink:title=" ">
<path fill="none" stroke="#63b8ff" d="M284.99,-277.39C251.67,-271.33 205.62,-259.84 169.83,-239 149.21,-227 130.47,-206.79 118.66,-192.39"/>
<polygon fill="#63b8ff" stroke="#63b8ff" points="121.21,-189.97 112.26,-184.31 115.72,-194.32 121.21,-189.97"/>
</a>
</g>
</g>
<!-- Node11 -->
<g id="Node000011" class="node">
<title>Node11</title>
<g id="a_Node000011"><a xlink:href="Socket_8h.html" target="_top" xlink:title="High&#45;level TCP/IP and Unix domain socket interface.">
<polygon fill="white" stroke="#666666" points="645.83,-239 557.83,-239 557.83,-220 645.83,-220 645.83,-239"/>
<text text-anchor="middle" x="601.83" y="-227" font-family="Helvetica,sans-Serif" font-size="10.00">socket/Socket.h</text>
</a>
</g>
</g>
<!-- Node1&#45;&gt;Node11 -->
<g id="edge22_Node000001_Node000011" class="edge">
<title>Node1&#45;&gt;Node11</title>
<g id="a_edge22_Node000001_Node000011"><a xlink:title=" ">
<path fill="none" stroke="#63b8ff" d="M372.39,-275.04C420.09,-265.78 496.63,-250.92 548.04,-240.94"/>
<polygon fill="#63b8ff" stroke="#63b8ff" points="548.82,-244.36 557.97,-239.01 547.49,-237.48 548.82,-244.36"/>
</a>
</g>
</g>
<!-- Node5&#45;&gt;Node2 -->
<g id="edge5_Node000005_Node000002" class="edge">
<title>Node5&#45;&gt;Node2</title>
<g id="a_edge5_Node000005_Node000002"><a xlink:title=" ">
<path fill="none" stroke="#63b8ff" d="M188.54,-109.75C184.11,-102.42 177.66,-91.73 172.21,-82.7"/>
<polygon fill="#63b8ff" stroke="#63b8ff" points="175.18,-80.84 167.01,-74.09 169.18,-84.46 175.18,-80.84"/>
</a>
</g>
</g>
<!-- Node5&#45;&gt;Node6 -->
<g id="edge6_Node000005_Node000006" class="edge">
<title>Node5&#45;&gt;Node6</title>
<g id="a_edge6_Node000005_Node000006"><a xlink:title=" ">
<path fill="none" stroke="#63b8ff" d="M229.96,-111.02C274.7,-101.76 351.1,-85.94 401.02,-75.6"/>
<polygon fill="#63b8ff" stroke="#63b8ff" points="401.86,-79 410.94,-73.55 400.44,-72.15 401.86,-79"/>
</a>
</g>
</g>
<!-- Node7 -->
<g id="Node000007" class="node">
<title>Node7</title>
<g id="a_Node000007"><a xlink:title=" ">
<polygon fill="#e0e0e0" stroke="#999999" points="476.83,-19 422.83,-19 422.83,0 476.83,0 476.83,-19"/>
<text text-anchor="middle" x="449.83" y="-7" font-family="Helvetica,sans-Serif" font-size="10.00">setjmp.h</text>
</a>
</g>
</g>
<!-- Node6&#45;&gt;Node7 -->
<g id="edge7_Node000006_Node000007" class="edge">
<title>Node6&#45;&gt;Node7</title>
<g id="a_edge7_Node000006_Node000007"><a xlink:title=" ">
<path fill="none" stroke="#63b8ff" d="M449.83,-54.75C449.83,-47.8 449.83,-37.85 449.83,-29.13"/>
<polygon fill="#63b8ff" stroke="#63b8ff" points="453.33,-29.09 449.83,-19.09 446.33,-29.09 453.33,-29.09"/>
</a>
</g>
</g>
<!-- Node8&#45;&gt;Node2 -->
<g id="edge10_Node000008_Node000002" class="edge">
<title>Node8&#45;&gt;Node2</title>
<g id="a_edge10_Node000008_Node000002"><a xlink:title=" ">
<path fill="none" stroke="#63b8ff" d="M212.21,-166.8C188.63,-160.89 163.21,-149.8 148.83,-129 139.45,-115.45 145.06,-96.62 151.57,-82.99"/>
<polygon fill="#63b8ff" stroke="#63b8ff" points="154.68,-84.6 156.27,-74.13 148.49,-81.32 154.68,-84.6"/>
</a>
</g>
</g>
<!-- Node8&#45;&gt;Node3 -->
<g id="edge11_Node000008_Node000003" class="edge">
<title>Node8&#45;&gt;Node3</title>
<g id="a_edge11_Node000008_Node000003"><a xlink:title=" ">
<path fill="none" stroke="#63b8ff" d="M274.09,-164.75C280.37,-157.18 289.61,-146.05 297.26,-136.84"/>
<polygon fill="#63b8ff" stroke="#63b8ff" points="300,-139.02 303.7,-129.09 294.61,-134.55 300,-139.02"/>
</a>
</g>
</g>
<!-- Node8&#45;&gt;Node4 -->
<g id="edge12_Node000008_Node000004" class="edge">
<title>Node8&#45;&gt;Node4</title>
<g id="a_edge12_Node000008_Node000004"><a xlink:title=" ">
<path fill="none" stroke="#63b8ff" d="M286.27,-164.98C305.82,-156.42 336.21,-143.11 358.65,-133.28"/>
<polygon fill="#63b8ff" stroke="#63b8ff" points="360.28,-136.39 368.03,-129.17 357.47,-129.98 360.28,-136.39"/>
</a>
</g>
</g>
<!-- Node8&#45;&gt;Node5 -->
<g id="edge13_Node000008_Node000005" class="edge">
<title>Node8&#45;&gt;Node5</title>
<g id="a_edge13_Node000008_Node000005"><a xlink:title=" ">
<path fill="none" stroke="#63b8ff" d="M255.1,-164.98C244.09,-157 227.41,-144.88 214.22,-135.31"/>
<polygon fill="#63b8ff" stroke="#63b8ff" points="215.92,-132.21 205.77,-129.17 211.8,-137.88 215.92,-132.21"/>
</a>
</g>
</g>
<!-- Node8&#45;&gt;Node6 -->
<g id="edge14_Node000008_Node000006" class="edge">
<title>Node8&#45;&gt;Node6</title>
<g id="a_edge14_Node000008_Node000006"><a xlink:title=" ">
<path fill="none" stroke="#63b8ff" d="M265.64,-164.85C264.3,-151.32 263.88,-125.14 277.83,-110 294.36,-92.06 356.13,-79.3 400.92,-72.17"/>
<polygon fill="#63b8ff" stroke="#63b8ff" points="401.7,-75.59 411.05,-70.6 400.63,-68.67 401.7,-75.59"/>
</a>
</g>
</g>
<!-- Node9&#45;&gt;Node2 -->
<g id="edge16_Node000009_Node000002" class="edge">
<title>Node9&#45;&gt;Node2</title>
<g id="a_edge16_Node000009_Node000002"><a xlink:title=" ">
<path fill="none" stroke="#63b8ff" d="M70.6,-164.98C36.08,-154.9 -8.72,-136.13 10.83,-110 37.12,-74.84 89.87,-66.28 125.53,-64.79"/>
<polygon fill="#63b8ff" stroke="#63b8ff" points="125.63,-68.29 135.54,-64.53 125.46,-61.29 125.63,-68.29"/>
</a>
</g>
</g>
<!-- Node9&#45;&gt;Node3 -->
<g id="edge17_Node000009_Node000003" class="edge">
<title>Node9&#45;&gt;Node3</title>
<g id="a_edge17_Node000009_Node000003"><a xlink:title=" ">
<path fill="none" stroke="#63b8ff" d="M138.76,-164.98C176.48,-155.23 237.98,-139.33 276.34,-129.42"/>
<polygon fill="#63b8ff" stroke="#63b8ff" points="277.22,-132.8 286.03,-126.91 275.47,-126.03 277.22,-132.8"/>
</a>
</g>
</g>
<!-- Node9&#45;&gt;Node4 -->
<g id="edge18_Node000009_Node000004" class="edge">
<title>Node9&#45;&gt;Node4</title>
<g id="a_edge18_Node000009_Node000004"><a xlink:title=" ">
<path fill="none" stroke="#63b8ff" d="M152.57,-164.96C198.6,-156.5 271.2,-143.08 343.39,-129.26"/>
<polygon fill="#63b8ff" stroke="#63b8ff" points="344.4,-132.63 353.57,-127.31 343.08,-125.75 344.4,-132.63"/>
</a>
</g>
</g>
<!-- Node9&#45;&gt;Node5 -->
<g id="edge20_Node000009_Node000005" class="edge">
<title>Node9&#45;&gt;Node5</title>
<g id="a_edge20_Node000009_Node000005"><a xlink:title=" ">
<path fill="none" stroke="#63b8ff" d="M119.96,-164.98C133.61,-156.77 154.51,-144.18 170.6,-134.49"/>
<polygon fill="#63b8ff" stroke="#63b8ff" points="172.67,-137.33 179.43,-129.17 169.06,-131.33 172.67,-137.33"/>
</a>
</g>
</g>
<!-- Node9&#45;&gt;Node6 -->
<g id="edge21_Node000009_Node000006" class="edge">
<title>Node9&#45;&gt;Node6</title>
<g id="a_edge21_Node000009_Node000006"><a xlink:title=" ">
<path fill="none" stroke="#63b8ff" d="M109.01,-164.81C114.66,-150.73 127.86,-123.18 148.83,-110 189.89,-84.19 326.89,-72.51 401.09,-67.97"/>
<polygon fill="#63b8ff" stroke="#63b8ff" points="401.35,-71.46 411.12,-67.38 400.93,-64.47 401.35,-71.46"/>
</a>
</g>
</g>
<!-- Node10 -->
<g id="Node000010" class="node">
<title>Node10</title>
<g id="a_Node000010"><a xlink:title=" ">
<polygon fill="#e0e0e0" stroke="#999999" points="63.83,-129 19.83,-129 19.83,-110 63.83,-110 63.83,-129"/>
<text text-anchor="middle" x="41.83" y="-117" font-family="Helvetica,sans-Serif" font-size="10.00">time.h</text>
</a>
</g>
</g>
<!-- Node9&#45;&gt;Node10 -->
<g id="edge19_Node000009_Node000010" class="edge">
<title>Node9&#45;&gt;Node10</title>
<g id="a_edge19_Node000009_Node000010"><a xlink:title=" ">
<path fill="none" stroke="#63b8ff" d="M95.54,-164.98C85.99,-157.07 71.55,-145.11 60.04,-135.58"/>
<polygon fill="#63b8ff" stroke="#63b8ff" points="62.23,-132.85 52.3,-129.17 57.77,-138.24 62.23,-132.85"/>
</a>
</g>
</g>
<!-- Node11&#45;&gt;Node6 -->
<g id="edge23_Node000011_Node000006" class="edge">
<title>Node11&#45;&gt;Node6</title>
<g id="a_edge23_Node000011_Node000006"><a xlink:title=" ">
<path fill="none" stroke="#63b8ff" d="M588.91,-219.73C576.88,-211.27 558.76,-197.76 544.83,-184 511.36,-150.97 478.42,-106.45 461.51,-82.48"/>
<polygon fill="#63b8ff" stroke="#63b8ff" points="464.26,-80.3 455.66,-74.1 458.52,-84.3 464.26,-80.3"/>
</a>
</g>
</g>
<!-- Node12 -->
<g id="Node000012" class="node">
<title>Node12</title>
<g id="a_Node000012"><a xlink:href="SocketConfig_8h.html" target="_top" xlink:title="Compile&#45;time and runtime configuration constants, limits, and platform adaptations.">
<polygon fill="white" stroke="#666666" points="1181.83,-129 1075.83,-129 1075.83,-110 1181.83,-110 1181.83,-129"/>
<text text-anchor="middle" x="1128.83" y="-117" font-family="Helvetica,sans-Serif" font-size="10.00">core/SocketConfig.h</text>
</a>
</g>
</g>
<!-- Node11&#45;&gt;Node12 -->
<g id="edge24_Node000011_Node000012" class="edge">
<title>Node11&#45;&gt;Node12</title>
<g id="a_edge24_Node000011_Node000012"><a xlink:title=" ">
<path fill="none" stroke="#63b8ff" d="M646.16,-223.19C703.11,-216.01 804.87,-202.03 890.83,-184 962.38,-168.99 1044.5,-145.71 1091.17,-131.9"/>
<polygon fill="#63b8ff" stroke="#63b8ff" points="1092.26,-135.22 1100.85,-129.02 1090.27,-128.51 1092.26,-135.22"/>
</a>
</g>
</g>
<!-- Node21 -->
<g id="Node000021" class="node">
<title>Node21</title>
<g id="a_Node000021"><a xlink:href="SocketDNS_8h.html" target="_top" xlink:title="Asynchronous DNS resolution API for non&#45;blocking network applications.">
<polygon fill="white" stroke="#666666" points="649.83,-184 553.83,-184 553.83,-165 649.83,-165 649.83,-184"/>
<text text-anchor="middle" x="601.83" y="-172" font-family="Helvetica,sans-Serif" font-size="10.00">dns/SocketDNS.h</text>
</a>
</g>
</g>
<!-- Node11&#45;&gt;Node21 -->
<g id="edge34_Node000011_Node000021" class="edge">
<title>Node11&#45;&gt;Node21</title>
<g id="a_edge34_Node000011_Node000021"><a xlink:title=" ">
<path fill="none" stroke="#63b8ff" d="M601.83,-219.75C601.83,-212.8 601.83,-202.85 601.83,-194.13"/>
<polygon fill="#63b8ff" stroke="#63b8ff" points="605.33,-194.09 601.83,-184.09 598.33,-194.09 605.33,-194.09"/>
</a>
</g>
</g>
<!-- Node23 -->
<g id="Node000023" class="node">
<title>Node23</title>
<g id="a_Node000023"><a xlink:href="SocketCommon_8h.html" target="_top" xlink:title="Common utilities shared between Socket and SocketDgram modules.">
<polygon fill="white" stroke="#666666" points="881.83,-184 753.83,-184 753.83,-165 881.83,-165 881.83,-184"/>
<text text-anchor="middle" x="817.83" y="-172" font-family="Helvetica,sans-Serif" font-size="10.00">socket/SocketCommon.h</text>
</a>
</g>
</g>
<!-- Node11&#45;&gt;Node23 -->
<g id="edge40_Node000011_Node000023" class="edge">
<title>Node11&#45;&gt;Node23</title>
<g id="a_edge40_Node000011_Node000023"><a xlink:title=" ">
<path fill="none" stroke="#63b8ff" d="M636.53,-219.98C673.58,-210.89 732.42,-196.46 772.96,-186.51"/>
<polygon fill="#63b8ff" stroke="#63b8ff" points="773.97,-189.86 782.85,-184.08 772.3,-183.07 773.97,-189.86"/>
</a>
</g>
</g>
<!-- Node12&#45;&gt;Node2 -->
<g id="edge29_Node000012_Node000002" class="edge">
<title>Node12&#45;&gt;Node2</title>
<g id="a_edge29_Node000012_Node000002"><a xlink:title=" ">
<path fill="none" stroke="#63b8ff" d="M1075.76,-110.92C1072.74,-110.58 1069.75,-110.27 1066.83,-110 893.77,-93.91 345.19,-72.44 198.3,-66.87"/>
<polygon fill="#63b8ff" stroke="#63b8ff" points="198.17,-63.36 188.04,-66.48 197.9,-70.36 198.17,-63.36"/>
</a>
</g>
</g>
<!-- Node13 -->
<g id="Node000013" class="node">
<title>Node13</title>
<g id="a_Node000013"><a xlink:title=" ">
<polygon fill="#e0e0e0" stroke="#999999" points="1051.33,-74 1004.33,-74 1004.33,-55 1051.33,-55 1051.33,-74"/>
<text text-anchor="middle" x="1027.83" y="-62" font-family="Helvetica,sans-Serif" font-size="10.00">errno.h</text>
</a>
</g>
</g>
<!-- Node12&#45;&gt;Node13 -->
<g id="edge25_Node000012_Node000013" class="edge">
<title>Node12&#45;&gt;Node13</title>
<g id="a_edge25_Node000012_Node000013"><a xlink:title=" ">
<path fill="none" stroke="#63b8ff" d="M1112.6,-109.98C1096.64,-101.61 1072.05,-88.7 1053.45,-78.95"/>
<polygon fill="#63b8ff" stroke="#63b8ff" points="1054.83,-75.72 1044.35,-74.17 1051.58,-81.92 1054.83,-75.72"/>
</a>
</g>
</g>
<!-- Node14 -->
<g id="Node000014" class="node">
<title>Node14</title>
<g id="a_Node000014"><a xlink:title=" ">
<polygon fill="#e0e0e0" stroke="#999999" points="1266.83,-74 1222.83,-74 1222.83,-55 1266.83,-55 1266.83,-74"/>
<text text-anchor="middle" x="1244.83" y="-62" font-family="Helvetica,sans-Serif" font-size="10.00">fcntl.h</text>
</a>
</g>
</g>
<!-- Node12&#45;&gt;Node14 -->
<g id="edge26_Node000012_Node000014" class="edge">
<title>Node12&#45;&gt;Node14</title>
<g id="a_edge26_Node000012_Node000014"><a xlink:title=" ">
<path fill="none" stroke="#63b8ff" d="M1147.46,-109.98C1166.12,-101.46 1195.08,-88.23 1216.57,-78.41"/>
<polygon fill="#63b8ff" stroke="#63b8ff" points="1218.21,-81.51 1225.85,-74.17 1215.3,-75.14 1218.21,-81.51"/>
</a>
</g>
</g>
<!-- Node15 -->
<g id="Node000015" class="node">
<title>Node15</title>
<g id="a_Node000015"><a xlink:title=" ">
<polygon fill="#e0e0e0" stroke="#999999" points="1350.33,-74 1285.33,-74 1285.33,-55 1350.33,-55 1350.33,-74"/>
<text text-anchor="middle" x="1317.83" y="-62" font-family="Helvetica,sans-Serif" font-size="10.00">netinet/in.h</text>
</a>
</g>
</g>
<!-- Node12&#45;&gt;Node15 -->
<g id="edge27_Node000012_Node000015" class="edge">
<title>Node12&#45;&gt;Node15</title>
<g id="a_edge27_Node000012_Node000015"><a xlink:title=" ">
<path fill="none" stroke="#63b8ff" d="M1159.19,-109.98C1191.2,-101.01 1241.79,-86.82 1277.21,-76.89"/>
<polygon fill="#63b8ff" stroke="#63b8ff" points="1278.54,-80.15 1287.22,-74.08 1276.65,-73.41 1278.54,-80.15"/>
</a>
</g>
</g>
<!-- Node16 -->
<g id="Node000016" class="node">
<title>Node16</title>
<g id="a_Node000016"><a xlink:title=" ">
<polygon fill="#e0e0e0" stroke="#999999" points="1140.33,-74 1069.33,-74 1069.33,-55 1140.33,-55 1140.33,-74"/>
<text text-anchor="middle" x="1104.83" y="-62" font-family="Helvetica,sans-Serif" font-size="10.00">netinet/tcp.h</text>
</a>
</g>
</g>
<!-- Node12&#45;&gt;Node16 -->
<g id="edge28_Node000012_Node000016" class="edge">
<title>Node12&#45;&gt;Node16</title>
<g id="a_edge28_Node000012_Node000016"><a xlink:title=" ">
<path fill="none" stroke="#63b8ff" d="M1124.86,-109.75C1121.61,-102.57 1116.91,-92.18 1112.87,-83.27"/>
<polygon fill="#63b8ff" stroke="#63b8ff" points="1116.03,-81.75 1108.72,-74.09 1109.65,-84.64 1116.03,-81.75"/>
</a>
</g>
</g>
<!-- Node17 -->
<g id="Node000017" class="node">
<title>Node17</title>
<g id="a_Node000017"><a xlink:title=" ">
<polygon fill="#e0e0e0" stroke="#999999" points="1204.83,-74 1158.83,-74 1158.83,-55 1204.83,-55 1204.83,-74"/>
<text text-anchor="middle" x="1181.83" y="-62" font-family="Helvetica,sans-Serif" font-size="10.00">stdio.h</text>
</a>
</g>
</g>
<!-- Node12&#45;&gt;Node17 -->
<g id="edge30_Node000012_Node000017" class="edge">
<title>Node12&#45;&gt;Node17</title>
<g id="a_edge30_Node000012_Node000017"><a xlink:title=" ">
<path fill="none" stroke="#63b8ff" d="M1137.58,-109.75C1145.3,-102.03 1156.73,-90.6 1166.04,-81.28"/>
<polygon fill="#63b8ff" stroke="#63b8ff" points="1168.64,-83.64 1173.24,-74.09 1163.69,-78.69 1168.64,-83.64"/>
</a>
</g>
</g>
<!-- Node18 -->
<g id="Node000018" class="node">
<title>Node18</title>
<g id="a_Node000018"><a xlink:title=" ">
<polygon fill="#e0e0e0" stroke="#999999" points="842.33,-74 769.33,-74 769.33,-55 842.33,-55 842.33,-74"/>
<text text-anchor="middle" x="805.83" y="-62" font-family="Helvetica,sans-Serif" font-size="10.00">sys/socket.h</text>
</a>
</g>
</g>
<!-- Node12&#45;&gt;Node18 -->
<g id="edge31_Node000012_Node000018" class="edge">
<title>Node12&#45;&gt;Node18</title>
<g id="a_edge31_Node000012_Node000018"><a xlink:title=" ">
<path fill="none" stroke="#63b8ff" d="M1075.66,-110.34C1021.98,-102.01 936.41,-88.51 852.44,-74.07"/>
<polygon fill="#63b8ff" stroke="#63b8ff" points="852.92,-70.6 842.47,-72.35 851.73,-77.5 852.92,-70.6"/>
</a>
</g>
</g>
<!-- Node19 -->
<g id="Node000019" class="node">
<title>Node19</title>
<g id="a_Node000019"><a xlink:title=" ">
<polygon fill="#e0e0e0" stroke="#999999" points="916.83,-74 860.83,-74 860.83,-55 916.83,-55 916.83,-74"/>
<text text-anchor="middle" x="888.83" y="-62" font-family="Helvetica,sans-Serif" font-size="10.00">sys/uio.h</text>
</a>
</g>
</g>
<!-- Node12&#45;&gt;Node19 -->
<g id="edge32_Node000012_Node000019" class="edge">
<title>Node12&#45;&gt;Node19</title>
<g id="a_edge32_Node000012_Node000019"><a xlink:title=" ">
<path fill="none" stroke="#63b8ff" d="M1089.72,-109.92C1049.02,-100.99 983.44,-86.57 926.83,-74 926.73,-73.98 926.63,-73.96 926.53,-73.93"/>
<polygon fill="#63b8ff" stroke="#63b8ff" points="927.57,-70.58 917.05,-71.82 926.05,-77.41 927.57,-70.58"/>
</a>
</g>
</g>
<!-- Node20 -->
<g id="Node000020" class="node">
<title>Node20</title>
<g id="a_Node000020"><a xlink:title=" ">
<polygon fill="#e0e0e0" stroke="#999999" points="986.33,-74 935.33,-74 935.33,-55 986.33,-55 986.33,-74"/>
<text text-anchor="middle" x="960.83" y="-62" font-family="Helvetica,sans-Serif" font-size="10.00">unistd.h</text>
</a>
</g>
</g>
<!-- Node12&#45;&gt;Node20 -->
<g id="edge33_Node000012_Node000020" class="edge">
<title>Node12&#45;&gt;Node20</title>
<g id="a_edge33_Node000012_Node000020"><a xlink:title=" ">
<path fill="none" stroke="#63b8ff" d="M1101.83,-109.98C1073.13,-100.93 1027.6,-86.57 996.08,-76.62"/>
<polygon fill="#63b8ff" stroke="#63b8ff" points="996.96,-73.23 986.37,-73.56 994.86,-79.91 996.96,-73.23"/>
</a>
</g>
</g>
<!-- Node21&#45;&gt;Node2 -->
<g id="edge37_Node000021_Node000002" class="edge">
<title>Node21&#45;&gt;Node2</title>
<g id="a_edge37_Node000021_Node000002"><a xlink:title=" ">
<path fill="none" stroke="#63b8ff" d="M582.47,-164.92C551.19,-151.37 487.29,-125.01 430.83,-110 349.08,-88.28 250.39,-75.2 198.24,-69.28"/>
<polygon fill="#63b8ff" stroke="#63b8ff" points="198.47,-65.78 188.15,-68.16 197.7,-72.74 198.47,-65.78"/>
</a>
</g>
</g>
<!-- Node21&#45;&gt;Node3 -->
<g id="edge38_Node000021_Node000003" class="edge">
<title>Node21&#45;&gt;Node3</title>
<g id="a_edge38_Node000021_Node000003"><a xlink:title=" ">
<path fill="none" stroke="#63b8ff" d="M553.78,-166.26C504.13,-158.54 424.16,-145.44 345.71,-129.05"/>
<polygon fill="#63b8ff" stroke="#63b8ff" points="346.17,-125.57 335.66,-126.93 344.72,-132.42 346.17,-125.57"/>
</a>
</g>
</g>
<!-- Node21&#45;&gt;Node6 -->
<g id="edge35_Node000021_Node000006" class="edge">
<title>Node21&#45;&gt;Node6</title>
<g id="a_edge35_Node000021_Node000006"><a xlink:title=" ">
<path fill="none" stroke="#63b8ff" d="M594.97,-164.78C584.28,-151.62 562.51,-126.48 539.83,-110 521.86,-96.95 499.48,-85.86 481.54,-78.02"/>
<polygon fill="#63b8ff" stroke="#63b8ff" points="482.65,-74.7 472.08,-74.01 479.92,-81.14 482.65,-74.7"/>
</a>
</g>
</g>
<!-- Node21&#45;&gt;Node18 -->
<g id="edge39_Node000021_Node000018" class="edge">
<title>Node21&#45;&gt;Node18</title>
<g id="a_edge39_Node000021_Node000018"><a xlink:title=" ">
<path fill="none" stroke="#63b8ff" d="M601.99,-164.7C602.75,-150.97 606.29,-124.52 621.83,-110 641.46,-91.66 711.07,-78.59 758.81,-71.55"/>
<polygon fill="#63b8ff" stroke="#63b8ff" points="759.54,-74.98 768.94,-70.09 758.54,-68.05 759.54,-74.98"/>
</a>
</g>
</g>
<!-- Node22 -->
<g id="Node000022" class="node">
<title>Node22</title>
<g id="a_Node000022"><a xlink:title=" ">
<polygon fill="#e0e0e0" stroke="#999999" points="679.33,-129 630.33,-129 630.33,-110 679.33,-110 679.33,-129"/>
<text text-anchor="middle" x="654.83" y="-117" font-family="Helvetica,sans-Serif" font-size="10.00">netdb.h</text>
</a>
</g>
</g>
<!-- Node21&#45;&gt;Node22 -->
<g id="edge36_Node000021_Node000022" class="edge">
<title>Node21&#45;&gt;Node22</title>
<g id="a_edge36_Node000021_Node000022"><a xlink:title=" ">
<path fill="none" stroke="#63b8ff" d="M610.58,-164.75C618.3,-157.03 629.73,-145.6 639.04,-136.28"/>
<polygon fill="#63b8ff" stroke="#63b8ff" points="641.64,-138.64 646.24,-129.09 636.69,-133.69 641.64,-138.64"/>
</a>
</g>
</g>
<!-- Node23&#45;&gt;Node4 -->
<g id="edge48_Node000023_Node000004" class="edge">
<title>Node23&#45;&gt;Node4</title>
<g id="a_edge48_Node000023_Node000004"><a xlink:title=" ">
<path fill="none" stroke="#63b8ff" d="M753.45,-165.57C665.06,-154.67 508.43,-135.36 432.1,-125.96"/>
<polygon fill="#63b8ff" stroke="#63b8ff" points="432.23,-122.45 421.88,-124.7 431.38,-129.39 432.23,-122.45"/>
</a>
</g>
</g>
<!-- Node23&#45;&gt;Node5 -->
<g id="edge50_Node000023_Node000005" class="edge">
<title>Node23&#45;&gt;Node5</title>
<g id="a_edge50_Node000023_Node000005"><a xlink:title=" ">
<path fill="none" stroke="#63b8ff" d="M753.79,-168.61C652.64,-160.8 449.72,-144.78 277.83,-129 265.62,-127.88 252.43,-126.59 240.2,-125.35"/>
<polygon fill="#63b8ff" stroke="#63b8ff" points="240.5,-121.86 230.2,-124.33 239.79,-128.83 240.5,-121.86"/>
</a>
</g>
</g>
<!-- Node23&#45;&gt;Node6 -->
<g id="edge51_Node000023_Node000006" class="edge">
<title>Node23&#45;&gt;Node6</title>
<g id="a_edge51_Node000023_Node000006"><a xlink:title=" ">
<path fill="none" stroke="#63b8ff" d="M800.02,-164.85C781.66,-155.92 752.21,-141.55 726.83,-129 709.9,-120.63 706.73,-116.01 688.83,-110 624.95,-88.56 547.8,-76.55 498.77,-70.55"/>
<polygon fill="#63b8ff" stroke="#63b8ff" points="499.09,-67.07 488.75,-69.36 498.26,-74.02 499.09,-67.07"/>
</a>
</g>
</g>
<!-- Node23&#45;&gt;Node12 -->
<g id="edge52_Node000023_Node000012" class="edge">
<title>Node23&#45;&gt;Node12</title>
<g id="a_edge52_Node000023_Node000012"><a xlink:title=" ">
<path fill="none" stroke="#63b8ff" d="M867.79,-164.98C922.46,-155.67 1010.08,-140.74 1068.53,-130.78"/>
<polygon fill="#63b8ff" stroke="#63b8ff" points="1069.45,-134.17 1078.72,-129.04 1068.28,-127.27 1069.45,-134.17"/>
</a>
</g>
</g>
<!-- Node23&#45;&gt;Node14 -->
<g id="edge43_Node000023_Node000014" class="edge">
<title>Node23&#45;&gt;Node14</title>
<g id="a_edge43_Node000023_Node000014"><a xlink:title=" ">
<path fill="none" stroke="#63b8ff" d="M882.1,-171.45C974.35,-167.56 1138.89,-156.86 1190.83,-129 1210.28,-118.56 1225.73,-98.01 1235.03,-83.11"/>
<polygon fill="#63b8ff" stroke="#63b8ff" points="1238.17,-84.68 1240.24,-74.29 1232.14,-81.12 1238.17,-84.68"/>
</a>
</g>
</g>
<!-- Node23&#45;&gt;Node15 -->
<g id="edge45_Node000023_Node000015" class="edge">
<title>Node23&#45;&gt;Node15</title>
<g id="a_edge45_Node000023_Node000015"><a xlink:title=" ">
<path fill="none" stroke="#63b8ff" d="M882.19,-169.77C978.66,-163.6 1155.81,-149.83 1215.83,-129 1247.78,-117.91 1280.18,-95.39 1299.64,-80.37"/>
<polygon fill="#63b8ff" stroke="#63b8ff" points="1301.94,-83.01 1307.62,-74.06 1297.6,-77.52 1301.94,-83.01"/>
</a>
</g>
</g>
<!-- Node23&#45;&gt;Node18 -->
<g id="edge46_Node000023_Node000018" class="edge">
<title>Node23&#45;&gt;Node18</title>
<g id="a_edge46_Node000023_Node000018"><a xlink:title=" ">
<path fill="none" stroke="#63b8ff" d="M816.84,-164.66C814.9,-147.17 810.53,-107.8 807.91,-84.27"/>
<polygon fill="#63b8ff" stroke="#63b8ff" points="811.37,-83.71 806.79,-74.16 804.41,-84.48 811.37,-83.71"/>
</a>
</g>
</g>
<!-- Node23&#45;&gt;Node22 -->
<g id="edge44_Node000023_Node000022" class="edge">
<title>Node23&#45;&gt;Node22</title>
<g id="a_edge44_Node000023_Node000022"><a xlink:title=" ">
<path fill="none" stroke="#63b8ff" d="M791.64,-164.98C763.82,-155.94 719.74,-141.61 689.16,-131.66"/>
<polygon fill="#63b8ff" stroke="#63b8ff" points="689.94,-128.24 679.35,-128.47 687.78,-134.89 689.94,-128.24"/>
</a>
</g>
</g>
<!-- Node24 -->
<g id="Node000024" class="node">
<title>Node24</title>
<g id="a_Node000024"><a xlink:title=" ">
<polygon fill="#e0e0e0" stroke="#999999" points="903.33,-129 846.33,-129 846.33,-110 903.33,-110 903.33,-129"/>
<text text-anchor="middle" x="874.83" y="-117" font-family="Helvetica,sans-Serif" font-size="10.00">pthread.h</text>
</a>
</g>
</g>
<!-- Node23&#45;&gt;Node24 -->
<g id="edge41_Node000023_Node000024" class="edge">
<title>Node23&#45;&gt;Node24</title>
<g id="a_edge41_Node000023_Node000024"><a xlink:title=" ">
<path fill="none" stroke="#63b8ff" d="M826.98,-164.98C835.33,-157.23 847.86,-145.58 858,-136.14"/>
<polygon fill="#63b8ff" stroke="#63b8ff" points="860.56,-138.54 865.5,-129.17 855.79,-133.42 860.56,-138.54"/>
</a>
</g>
</g>
<!-- Node25 -->
<g id="Node000025" class="node">
<title>Node25</title>
<g id="a_Node000025"><a xlink:title=" ">
<polygon fill="#e0e0e0" stroke="#999999" points="977.83,-129 921.83,-129 921.83,-110 977.83,-110 977.83,-129"/>
<text text-anchor="middle" x="949.83" y="-117" font-family="Helvetica,sans-Serif" font-size="10.00">stdbool.h</text>
</a>
</g>
</g>
<!-- Node23&#45;&gt;Node25 -->
<g id="edge42_Node000023_Node000025" class="edge">
<title>Node23&#45;&gt;Node25</title>
<g id="a_edge42_Node000023_Node000025"><a xlink:title=" ">
<path fill="none" stroke="#63b8ff" d="M839.03,-164.98C860.56,-156.34 894.11,-142.87 918.65,-133.02"/>
<polygon fill="#63b8ff" stroke="#63b8ff" points="920.26,-136.14 928.23,-129.17 917.65,-129.65 920.26,-136.14"/>
</a>
</g>
</g>
<!-- Node26 -->
<g id="Node000026" class="node">
<title>Node26</title>
<g id="a_Node000026"><a xlink:title=" ">
<polygon fill="#e0e0e0" stroke="#999999" points="1057.83,-129 995.83,-129 995.83,-110 1057.83,-110 1057.83,-129"/>
<text text-anchor="middle" x="1026.83" y="-117" font-family="Helvetica,sans-Serif" font-size="10.00">sys/time.h</text>
</a>
</g>
</g>
<!-- Node23&#45;&gt;Node26 -->
<g id="edge47_Node000023_Node000026" class="edge">
<title>Node23&#45;&gt;Node26</title>
<g id="a_edge47_Node000023_Node000026"><a xlink:title=" ">
<path fill="none" stroke="#63b8ff" d="M851.41,-164.98C888.03,-155.7 946.65,-140.83 985.93,-130.87"/>
<polygon fill="#63b8ff" stroke="#63b8ff" points="986.89,-134.24 995.72,-128.39 985.16,-127.45 986.89,-134.24"/>
</a>
</g>
</g>
<!-- Node27 -->
<g id="Node000027" class="node">
<title>Node27</title>
<g id="a_Node000027"><a xlink:title=" ">
<polygon fill="#e0e0e0" stroke="#999999" points="789.83,-129 735.83,-129 735.83,-110 789.83,-110 789.83,-129"/>
<text text-anchor="middle" x="762.83" y="-117" font-family="Helvetica,sans-Serif" font-size="10.00">sys/un.h</text>
</a>
</g>
</g>
<!-- Node23&#45;&gt;Node27 -->
<g id="edge49_Node000023_Node000027" class="edge">
<title>Node23&#45;&gt;Node27</title>
<g id="a_edge49_Node000023_Node000027"><a xlink:title=" ">
<path fill="none" stroke="#63b8ff" d="M808.74,-164.75C800.73,-157.03 788.87,-145.6 779.21,-136.28"/>
<polygon fill="#63b8ff" stroke="#63b8ff" points="781.37,-133.51 771.74,-129.09 776.51,-138.55 781.37,-133.51"/>
</a>
</g>
</g>
</g>
</svg>

<g id="navigator" transform="translate(0 0)" fill="#404254">
  <rect fill="#f2f5e9" fill-opacity="0.5" stroke="#606060" stroke-width=".5" x="0" y="0" width="60" height="60"/>
  <use id="zoomplus" xlink:href="#zoomPlus" x="17" y="9" onmousedown="handleZoom(evt,'in')"/>
  <use id="zoomminus" xlink:href="#zoomMin" x="42" y="9" onmousedown="handleZoom(evt,'out')"/>
  <use id="reset" xlink:href="#resetDef" x="30" y="36" onmousedown="handleReset()"/>
   <use id="arrowup" xlink:href="#arrowUp" x="0" y="0" onmousedown="handlePan(0,-1)"/>
  <use id="arrowright" xlink:href="#arrowRight" x="0" y="0" onmousedown="handlePan(1,0)"/>
  <use id="arrowdown" xlink:href="#arrowDown" x="0" y="0" onmousedown="handlePan(0,1)"/>
  <use id="arrowleft" xlink:href="#arrowLeft" x="0" y="0" onmousedown="handlePan(-1,0)"/>
</g>
<svg viewBox="0 0 15 15" width="100%" height="30px" preserveAspectRatio="xMaxYMin meet">
 <g id="arrow_out" transform="scale(0.3 0.3)">
  <a xlink:href="SocketHTTP2_8h__incl_org.svg" target="_base">
   <rect id="button" ry="5" rx="5" y="6" x="6" height="38" width="38"
        fill="#f2f5e9" fill-opacity="0.5" stroke="#606060" stroke-width="1.0"/>
   <path id="arrow"
     d="M 11.500037,31.436501 C 11.940474,20.09759 22.043105,11.32322 32.158766,21.979434 L 37.068811,17.246167 C 37.068811,17.246167 37.088388,32 37.088388,32 L 22.160133,31.978069 C 22.160133,31.978069 26.997745,27.140456 26.997745,27.140456 C 18.528582,18.264221 13.291696,25.230495 11.500037,31.436501 z"
     style="fill:#404040;"/>
  </a>
 </g>
</svg>

<style type='text/css'>
<![CDATA[
[data-mouse-over-selected='false'] { opacity: 0.7; }
[data-mouse-over-selected='true']  { opacity: 1.0; }
]]>
</style>
<script type="application/ecmascript"><![CDATA[
document.addEventListener('DOMContentLoaded', (event) => {
  highlightEdges();
  highlightAdjacentNodes();
});
]]></script>
</svg>
