<?xml version="1.0" encoding="UTF-8" standalone="no"?>
<!DOCTYPE svg PUBLIC "-//W3C//DTD SVG 1.1//EN"
 "http://www.w3.org/Graphics/SVG/1.1/DTD/svg11.dtd">
<!-- Generated by graphviz version 2.43.0 (0)
 -->
<!-- Title: SocketDgram.h Pages: 1 -->
<svg width="943pt" height="247pt"
 viewBox="0.00 0.00 943.00 247.00" xmlns="http://www.w3.org/2000/svg" xmlns:xlink="http://www.w3.org/1999/xlink">
<g id="graph0" class="graph" transform="scale(1 1) rotate(0) translate(4 243)">
<title>SocketDgram.h</title>
<!-- Node1 -->
<g id="Node000001" class="node">
<title>Node1</title>
<g id="a_Node000001"><a xlink:title="High&#45;level UDP/datagram socket interface with multicast and broadcast support.">
<polygon fill="#999999" stroke="#666666" points="563,-239 478,-239 478,-220 563,-220 563,-239"/>
<text text-anchor="middle" x="520.5" y="-227" font-family="Helvetica,sans-Serif" font-size="10.00">SocketDgram.h</text>
</a>
</g>
</g>
<!-- Node2 -->
<g id="Node000002" class="node">
<title>Node2</title>
<g id="a_Node000002"><a xlink:href="Except_8h.html" target="_top" xlink:title="Structured exception handling for C with TRY/EXCEPT/FINALLY blocks.">
<polygon fill="white" stroke="#666666" points="77,-74 0,-74 0,-55 77,-55 77,-74"/>
<text text-anchor="middle" x="38.5" y="-62" font-family="Helvetica,sans-Serif" font-size="10.00">core/Except.h</text>
</a>
</g>
</g>
<!-- Node1&#45;&gt;Node2 -->
<g id="edge1_Node000001_Node000002" class="edge">
<title>Node1&#45;&gt;Node2</title>
<g id="a_edge1_Node000001_Node000002"><a xlink:title=" ">
<path fill="none" stroke="#63b8ff" d="M477.62,-226.18C370.66,-219.41 96.63,-195.78 40.5,-129 30.2,-116.74 30.94,-97.96 33.51,-84"/>
<polygon fill="#63b8ff" stroke="#63b8ff" points="36.97,-84.59 35.79,-74.06 30.14,-83.02 36.97,-84.59"/>
</a>
</g>
</g>
<!-- Node4 -->
<g id="Node000004" class="node">
<title>Node4</title>
<g id="a_Node000004"><a xlink:href="SocketCommon_8h.html" target="_top" xlink:title="Common utilities shared between Socket and SocketDgram modules.">
<polygon fill="white" stroke="#666666" points="519.5,-184 391.5,-184 391.5,-165 519.5,-165 519.5,-184"/>
<text text-anchor="middle" x="455.5" y="-172" font-family="Helvetica,sans-Serif" font-size="10.00">socket/SocketCommon.h</text>
</a>
</g>
</g>
<!-- Node1&#45;&gt;Node4 -->
<g id="edge3_Node000001_Node000004" class="edge">
<title>Node1&#45;&gt;Node4</title>
<g id="a_edge3_Node000001_Node000004"><a xlink:title=" ">
<path fill="none" stroke="#63b8ff" d="M510.06,-219.98C500.35,-212.07 485.68,-200.11 474,-190.58"/>
<polygon fill="#63b8ff" stroke="#63b8ff" points="476.1,-187.78 466.13,-184.17 471.67,-193.2 476.1,-187.78"/>
</a>
</g>
</g>
<!-- Node10 -->
<g id="Node000010" class="node">
<title>Node10</title>
<g id="a_Node000010"><a xlink:title=" ">
<polygon fill="#e0e0e0" stroke="#999999" points="935,-74 862,-74 862,-55 935,-55 935,-74"/>
<text text-anchor="middle" x="898.5" y="-62" font-family="Helvetica,sans-Serif" font-size="10.00">sys/socket.h</text>
</a>
</g>
</g>
<!-- Node1&#45;&gt;Node10 -->
<g id="edge28_Node000001_Node000010" class="edge">
<title>Node1&#45;&gt;Node10</title>
<g id="a_edge28_Node000001_Node000010"><a xlink:title=" ">
<path fill="none" stroke="#63b8ff" d="M563.16,-224.35C630.06,-216.06 761.3,-192.42 851.5,-129 868.27,-117.21 881.48,-97.53 889.57,-83.2"/>
<polygon fill="#63b8ff" stroke="#63b8ff" points="892.71,-84.77 894.34,-74.3 886.53,-81.47 892.71,-84.77"/>
</a>
</g>
</g>
<!-- Node15 -->
<g id="Node000015" class="node">
<title>Node15</title>
<g id="a_Node000015"><a xlink:title=" ">
<polygon fill="#e0e0e0" stroke="#999999" points="335.5,-74 283.5,-74 283.5,-55 335.5,-55 335.5,-74"/>
<text text-anchor="middle" x="309.5" y="-62" font-family="Helvetica,sans-Serif" font-size="10.00">stddef.h</text>
</a>
</g>
</g>
<!-- Node1&#45;&gt;Node15 -->
<g id="edge27_Node000001_Node000015" class="edge">
<title>Node1&#45;&gt;Node15</title>
<g id="a_edge27_Node000001_Node000015"><a xlink:title=" ">
<path fill="none" stroke="#63b8ff" d="M529.45,-219.77C550,-198.68 596.62,-144.22 567.5,-110 536.82,-73.94 409.05,-82.64 345.74,-73.62"/>
<polygon fill="#63b8ff" stroke="#63b8ff" points="346.24,-70.15 335.8,-71.94 345.08,-77.06 346.24,-70.15"/>
</a>
</g>
</g>
<!-- Node3 -->
<g id="Node000003" class="node">
<title>Node3</title>
<g id="a_Node000003"><a xlink:title=" ">
<polygon fill="#e0e0e0" stroke="#999999" points="65.5,-19 11.5,-19 11.5,0 65.5,0 65.5,-19"/>
<text text-anchor="middle" x="38.5" y="-7" font-family="Helvetica,sans-Serif" font-size="10.00">setjmp.h</text>
</a>
</g>
</g>
<!-- Node2&#45;&gt;Node3 -->
<g id="edge2_Node000002_Node000003" class="edge">
<title>Node2&#45;&gt;Node3</title>
<g id="a_edge2_Node000002_Node000003"><a xlink:title=" ">
<path fill="none" stroke="#63b8ff" d="M38.5,-54.75C38.5,-47.8 38.5,-37.85 38.5,-29.13"/>
<polygon fill="#63b8ff" stroke="#63b8ff" points="42,-29.09 38.5,-19.09 35,-29.09 42,-29.09"/>
</a>
</g>
</g>
<!-- Node4&#45;&gt;Node2 -->
<g id="edge16_Node000004_Node000002" class="edge">
<title>Node4&#45;&gt;Node2</title>
<g id="a_edge16_Node000004_Node000002"><a xlink:title=" ">
<path fill="none" stroke="#63b8ff" d="M391.48,-170.18C285.47,-164.13 82.58,-149.94 57.5,-129 44.54,-118.18 40.19,-98.89 38.84,-84.41"/>
<polygon fill="#63b8ff" stroke="#63b8ff" points="42.32,-83.87 38.3,-74.07 35.33,-84.24 42.32,-83.87"/>
</a>
</g>
</g>
<!-- Node5 -->
<g id="Node000005" class="node">
<title>Node5</title>
<g id="a_Node000005"><a xlink:title=" ">
<polygon fill="#e0e0e0" stroke="#999999" points="558,-129 501,-129 501,-110 558,-110 558,-129"/>
<text text-anchor="middle" x="529.5" y="-117" font-family="Helvetica,sans-Serif" font-size="10.00">pthread.h</text>
</a>
</g>
</g>
<!-- Node4&#45;&gt;Node5 -->
<g id="edge4_Node000004_Node000005" class="edge">
<title>Node4&#45;&gt;Node5</title>
<g id="a_edge4_Node000004_Node000005"><a xlink:title=" ">
<path fill="none" stroke="#63b8ff" d="M467.39,-164.98C478.65,-156.92 495.79,-144.65 509.21,-135.03"/>
<polygon fill="#63b8ff" stroke="#63b8ff" points="511.3,-137.84 517.39,-129.17 507.23,-132.15 511.3,-137.84"/>
</a>
</g>
</g>
<!-- Node6 -->
<g id="Node000006" class="node">
<title>Node6</title>
<g id="a_Node000006"><a xlink:title=" ">
<polygon fill="#e0e0e0" stroke="#999999" points="794.5,-129 738.5,-129 738.5,-110 794.5,-110 794.5,-129"/>
<text text-anchor="middle" x="766.5" y="-117" font-family="Helvetica,sans-Serif" font-size="10.00">stdbool.h</text>
</a>
</g>
</g>
<!-- Node4&#45;&gt;Node6 -->
<g id="edge5_Node000004_Node000006" class="edge">
<title>Node4&#45;&gt;Node6</title>
<g id="a_edge5_Node000004_Node000006"><a xlink:title=" ">
<path fill="none" stroke="#63b8ff" d="M515.03,-164.97C568.38,-157.07 649.01,-144.49 728.12,-129.17"/>
<polygon fill="#63b8ff" stroke="#63b8ff" points="729.12,-132.54 738.26,-127.19 727.77,-125.67 729.12,-132.54"/>
</a>
</g>
</g>
<!-- Node7 -->
<g id="Node000007" class="node">
<title>Node7</title>
<g id="a_Node000007"><a xlink:title=" ">
<polygon fill="#e0e0e0" stroke="#999999" points="843.5,-74 799.5,-74 799.5,-55 843.5,-55 843.5,-74"/>
<text text-anchor="middle" x="821.5" y="-62" font-family="Helvetica,sans-Serif" font-size="10.00">fcntl.h</text>
</a>
</g>
</g>
<!-- Node4&#45;&gt;Node7 -->
<g id="edge6_Node000004_Node000007" class="edge">
<title>Node4&#45;&gt;Node7</title>
<g id="a_edge6_Node000004_Node000007"><a xlink:title=" ">
<path fill="none" stroke="#63b8ff" d="M519.8,-173.5C608.51,-172.15 762.19,-164.57 803.5,-129 816.24,-118.03 820.29,-98.76 821.43,-84.32"/>
<polygon fill="#63b8ff" stroke="#63b8ff" points="824.93,-84.15 821.82,-74.03 817.94,-83.89 824.93,-84.15"/>
</a>
</g>
</g>
<!-- Node8 -->
<g id="Node000008" class="node">
<title>Node8</title>
<g id="a_Node000008"><a xlink:title=" ">
<polygon fill="#e0e0e0" stroke="#999999" points="244,-129 195,-129 195,-110 244,-110 244,-129"/>
<text text-anchor="middle" x="219.5" y="-117" font-family="Helvetica,sans-Serif" font-size="10.00">netdb.h</text>
</a>
</g>
</g>
<!-- Node4&#45;&gt;Node8 -->
<g id="edge7_Node000004_Node000008" class="edge">
<title>Node4&#45;&gt;Node8</title>
<g id="a_edge7_Node000004_Node000008"><a xlink:title=" ">
<path fill="none" stroke="#63b8ff" d="M415.18,-164.97C376.43,-156.69 315.96,-143.57 254.27,-129.13"/>
<polygon fill="#63b8ff" stroke="#63b8ff" points="254.9,-125.68 244.36,-126.8 253.3,-132.5 254.9,-125.68"/>
</a>
</g>
</g>
<!-- Node9 -->
<g id="Node000009" class="node">
<title>Node9</title>
<g id="a_Node000009"><a xlink:title=" ">
<polygon fill="#e0e0e0" stroke="#999999" points="419,-74 354,-74 354,-55 419,-55 419,-74"/>
<text text-anchor="middle" x="386.5" y="-62" font-family="Helvetica,sans-Serif" font-size="10.00">netinet/in.h</text>
</a>
</g>
</g>
<!-- Node4&#45;&gt;Node9 -->
<g id="edge8_Node000004_Node000009" class="edge">
<title>Node4&#45;&gt;Node9</title>
<g id="a_edge8_Node000004_Node000009"><a xlink:title=" ">
<path fill="none" stroke="#63b8ff" d="M391.43,-172.1C320.35,-169.04 212.26,-159.37 186.5,-129 181.04,-122.56 181.22,-116.59 186.5,-110 188.99,-106.9 285.53,-86.43 343.55,-74.36"/>
<polygon fill="#63b8ff" stroke="#63b8ff" points="344.48,-77.74 353.56,-72.28 343.06,-70.89 344.48,-77.74"/>
</a>
</g>
</g>
<!-- Node4&#45;&gt;Node10 -->
<g id="edge9_Node000004_Node000010" class="edge">
<title>Node4&#45;&gt;Node10</title>
<g id="a_edge9_Node000004_Node000010"><a xlink:title=" ">
<path fill="none" stroke="#63b8ff" d="M519.51,-170.19C610.05,-164.75 770.41,-152.16 823.5,-129 848.04,-118.29 870.68,-96.85 884.52,-81.86"/>
<polygon fill="#63b8ff" stroke="#63b8ff" points="887.22,-84.09 891.27,-74.3 882,-79.43 887.22,-84.09"/>
</a>
</g>
</g>
<!-- Node11 -->
<g id="Node000011" class="node">
<title>Node11</title>
<g id="a_Node000011"><a xlink:title=" ">
<polygon fill="#e0e0e0" stroke="#999999" points="324.5,-129 262.5,-129 262.5,-110 324.5,-110 324.5,-129"/>
<text text-anchor="middle" x="293.5" y="-117" font-family="Helvetica,sans-Serif" font-size="10.00">sys/time.h</text>
</a>
</g>
</g>
<!-- Node4&#45;&gt;Node11 -->
<g id="edge10_Node000004_Node000011" class="edge">
<title>Node4&#45;&gt;Node11</title>
<g id="a_edge10_Node000004_Node000011"><a xlink:title=" ">
<path fill="none" stroke="#63b8ff" d="M429.47,-164.98C402.39,-156.13 359.79,-142.19 329.49,-132.28"/>
<polygon fill="#63b8ff" stroke="#63b8ff" points="330.32,-128.87 319.73,-129.08 328.15,-135.52 330.32,-128.87"/>
</a>
</g>
</g>
<!-- Node12 -->
<g id="Node000012" class="node">
<title>Node12</title>
<g id="a_Node000012"><a xlink:title=" ">
<polygon fill="#e0e0e0" stroke="#999999" points="410.5,-129 342.5,-129 342.5,-110 410.5,-110 410.5,-129"/>
<text text-anchor="middle" x="376.5" y="-117" font-family="Helvetica,sans-Serif" font-size="10.00">sys/types.h</text>
</a>
</g>
</g>
<!-- Node4&#45;&gt;Node12 -->
<g id="edge11_Node000004_Node000012" class="edge">
<title>Node4&#45;&gt;Node12</title>
<g id="a_edge11_Node000004_Node000012"><a xlink:title=" ">
<path fill="none" stroke="#63b8ff" d="M442.81,-164.98C430.67,-156.84 412.14,-144.41 397.75,-134.76"/>
<polygon fill="#63b8ff" stroke="#63b8ff" points="399.68,-131.84 389.42,-129.17 395.78,-137.65 399.68,-131.84"/>
</a>
</g>
</g>
<!-- Node13 -->
<g id="Node000013" class="node">
<title>Node13</title>
<g id="a_Node000013"><a xlink:title=" ">
<polygon fill="#e0e0e0" stroke="#999999" points="482.5,-129 428.5,-129 428.5,-110 482.5,-110 482.5,-129"/>
<text text-anchor="middle" x="455.5" y="-117" font-family="Helvetica,sans-Serif" font-size="10.00">sys/un.h</text>
</a>
</g>
</g>
<!-- Node4&#45;&gt;Node13 -->
<g id="edge12_Node000004_Node000013" class="edge">
<title>Node4&#45;&gt;Node13</title>
<g id="a_edge12_Node000004_Node000013"><a xlink:title=" ">
<path fill="none" stroke="#63b8ff" d="M455.5,-164.75C455.5,-157.8 455.5,-147.85 455.5,-139.13"/>
<polygon fill="#63b8ff" stroke="#63b8ff" points="459,-139.09 455.5,-129.09 452,-139.09 459,-139.09"/>
</a>
</g>
</g>
<!-- Node14 -->
<g id="Node000014" class="node">
<title>Node14</title>
<g id="a_Node000014"><a xlink:href="Arena_8h.html" target="_top" xlink:title="Arena&#45;based memory allocator for efficient bulk memory management.">
<polygon fill="white" stroke="#666666" points="138.5,-129 66.5,-129 66.5,-110 138.5,-110 138.5,-129"/>
<text text-anchor="middle" x="102.5" y="-117" font-family="Helvetica,sans-Serif" font-size="10.00">core/Arena.h</text>
</a>
</g>
</g>
<!-- Node4&#45;&gt;Node14 -->
<g id="edge13_Node000004_Node000014" class="edge">
<title>Node4&#45;&gt;Node14</title>
<g id="a_edge13_Node000004_Node000014"><a xlink:title=" ">
<path fill="none" stroke="#63b8ff" d="M394.79,-164.99C333.57,-156.32 236.39,-142.29 152.5,-129 151.23,-128.8 149.94,-128.59 148.64,-128.38"/>
<polygon fill="#63b8ff" stroke="#63b8ff" points="148.97,-124.89 138.53,-126.73 147.84,-131.8 148.97,-124.89"/>
</a>
</g>
</g>
<!-- Node16 -->
<g id="Node000016" class="node">
<title>Node16</title>
<g id="a_Node000016"><a xlink:href="SocketConfig_8h.html" target="_top" xlink:title="Compile&#45;time configuration and platform detection for the socket library.">
<polygon fill="white" stroke="#666666" points="720.5,-129 614.5,-129 614.5,-110 720.5,-110 720.5,-129"/>
<text text-anchor="middle" x="667.5" y="-117" font-family="Helvetica,sans-Serif" font-size="10.00">core/SocketConfig.h</text>
</a>
</g>
</g>
<!-- Node4&#45;&gt;Node16 -->
<g id="edge17_Node000004_Node000016" class="edge">
<title>Node4&#45;&gt;Node16</title>
<g id="a_edge17_Node000004_Node000016"><a xlink:title=" ">
<path fill="none" stroke="#63b8ff" d="M489.56,-164.98C525.92,-155.89 583.67,-141.46 623.47,-131.51"/>
<polygon fill="#63b8ff" stroke="#63b8ff" points="624.32,-134.9 633.17,-129.08 622.62,-128.11 624.32,-134.9"/>
</a>
</g>
</g>
<!-- Node14&#45;&gt;Node2 -->
<g id="edge15_Node000014_Node000002" class="edge">
<title>Node14&#45;&gt;Node2</title>
<g id="a_edge15_Node000014_Node000002"><a xlink:title=" ">
<path fill="none" stroke="#63b8ff" d="M92.22,-109.98C82.66,-102.07 68.22,-90.11 56.72,-80.58"/>
<polygon fill="#63b8ff" stroke="#63b8ff" points="58.9,-77.85 48.97,-74.17 54.44,-83.24 58.9,-77.85"/>
</a>
</g>
</g>
<!-- Node14&#45;&gt;Node15 -->
<g id="edge14_Node000014_Node000015" class="edge">
<title>Node14&#45;&gt;Node15</title>
<g id="a_edge14_Node000014_Node000015"><a xlink:title=" ">
<path fill="none" stroke="#63b8ff" d="M135.76,-109.98C173.42,-100.34 234.58,-84.68 273.38,-74.75"/>
<polygon fill="#63b8ff" stroke="#63b8ff" points="274.4,-78.1 283.22,-72.23 272.66,-71.32 274.4,-78.1"/>
</a>
</g>
</g>
<!-- Node16&#45;&gt;Node7 -->
<g id="edge19_Node000016_Node000007" class="edge">
<title>Node16&#45;&gt;Node7</title>
<g id="a_edge19_Node000016_Node000007"><a xlink:title=" ">
<path fill="none" stroke="#63b8ff" d="M692.24,-109.98C718.71,-100.88 760.78,-86.4 789.69,-76.45"/>
<polygon fill="#63b8ff" stroke="#63b8ff" points="791,-79.7 799.32,-73.13 788.72,-73.08 791,-79.7"/>
</a>
</g>
</g>
<!-- Node16&#45;&gt;Node9 -->
<g id="edge20_Node000016_Node000009" class="edge">
<title>Node16&#45;&gt;Node9</title>
<g id="a_edge20_Node000016_Node000009"><a xlink:title=" ">
<path fill="none" stroke="#63b8ff" d="M620.3,-109.94C574.22,-101.53 501.86,-88.18 429.29,-74.13"/>
<polygon fill="#63b8ff" stroke="#63b8ff" points="429.53,-70.61 419.05,-72.14 428.2,-77.48 429.53,-70.61"/>
</a>
</g>
</g>
<!-- Node16&#45;&gt;Node10 -->
<g id="edge24_Node000016_Node000010" class="edge">
<title>Node16&#45;&gt;Node10</title>
<g id="a_edge24_Node000016_Node000010"><a xlink:title=" ">
<path fill="none" stroke="#63b8ff" d="M704.61,-109.98C744.64,-100.8 808.45,-86.16 851.84,-76.21"/>
<polygon fill="#63b8ff" stroke="#63b8ff" points="852.9,-79.55 861.86,-73.91 851.33,-72.73 852.9,-79.55"/>
</a>
</g>
</g>
<!-- Node16&#45;&gt;Node15 -->
<g id="edge22_Node000016_Node000015" class="edge">
<title>Node16&#45;&gt;Node15</title>
<g id="a_edge22_Node000016_Node000015"><a xlink:title=" ">
<path fill="none" stroke="#63b8ff" d="M614.35,-111.78C540.76,-102.36 410.52,-85.32 345.94,-73.87"/>
<polygon fill="#63b8ff" stroke="#63b8ff" points="346.25,-70.37 335.79,-72.01 344.99,-77.25 346.25,-70.37"/>
</a>
</g>
</g>
<!-- Node17 -->
<g id="Node000017" class="node">
<title>Node17</title>
<g id="a_Node000017"><a xlink:title=" ">
<polygon fill="#e0e0e0" stroke="#999999" points="628,-74 581,-74 581,-55 628,-55 628,-74"/>
<text text-anchor="middle" x="604.5" y="-62" font-family="Helvetica,sans-Serif" font-size="10.00">errno.h</text>
</a>
</g>
</g>
<!-- Node16&#45;&gt;Node17 -->
<g id="edge18_Node000016_Node000017" class="edge">
<title>Node16&#45;&gt;Node17</title>
<g id="a_edge18_Node000016_Node000017"><a xlink:title=" ">
<path fill="none" stroke="#63b8ff" d="M657.38,-109.98C648.06,-102.15 634.03,-90.34 622.76,-80.86"/>
<polygon fill="#63b8ff" stroke="#63b8ff" points="624.71,-77.93 614.81,-74.17 620.21,-83.29 624.71,-77.93"/>
</a>
</g>
</g>
<!-- Node18 -->
<g id="Node000018" class="node">
<title>Node18</title>
<g id="a_Node000018"><a xlink:title=" ">
<polygon fill="#e0e0e0" stroke="#999999" points="717,-74 646,-74 646,-55 717,-55 717,-74"/>
<text text-anchor="middle" x="681.5" y="-62" font-family="Helvetica,sans-Serif" font-size="10.00">netinet/tcp.h</text>
</a>
</g>
</g>
<!-- Node16&#45;&gt;Node18 -->
<g id="edge21_Node000016_Node000018" class="edge">
<title>Node16&#45;&gt;Node18</title>
<g id="a_edge21_Node000016_Node000018"><a xlink:title=" ">
<path fill="none" stroke="#63b8ff" d="M669.81,-109.75C671.67,-102.72 674.34,-92.62 676.65,-83.84"/>
<polygon fill="#63b8ff" stroke="#63b8ff" points="680.06,-84.65 679.23,-74.09 673.29,-82.86 680.06,-84.65"/>
</a>
</g>
</g>
<!-- Node19 -->
<g id="Node000019" class="node">
<title>Node19</title>
<g id="a_Node000019"><a xlink:title=" ">
<polygon fill="#e0e0e0" stroke="#999999" points="781.5,-74 735.5,-74 735.5,-55 781.5,-55 781.5,-74"/>
<text text-anchor="middle" x="758.5" y="-62" font-family="Helvetica,sans-Serif" font-size="10.00">stdio.h</text>
</a>
</g>
</g>
<!-- Node16&#45;&gt;Node19 -->
<g id="edge23_Node000016_Node000019" class="edge">
<title>Node16&#45;&gt;Node19</title>
<g id="a_edge23_Node000016_Node000019"><a xlink:title=" ">
<path fill="none" stroke="#63b8ff" d="M682.12,-109.98C696.36,-101.69 718.25,-88.94 734.95,-79.22"/>
<polygon fill="#63b8ff" stroke="#63b8ff" points="736.73,-82.23 743.61,-74.17 733.21,-76.18 736.73,-82.23"/>
</a>
</g>
</g>
<!-- Node20 -->
<g id="Node000020" class="node">
<title>Node20</title>
<g id="a_Node000020"><a xlink:title=" ">
<polygon fill="#e0e0e0" stroke="#999999" points="493.5,-74 437.5,-74 437.5,-55 493.5,-55 493.5,-74"/>
<text text-anchor="middle" x="465.5" y="-62" font-family="Helvetica,sans-Serif" font-size="10.00">sys/uio.h</text>
</a>
</g>
</g>
<!-- Node16&#45;&gt;Node20 -->
<g id="edge25_Node000016_Node000020" class="edge">
<title>Node16&#45;&gt;Node20</title>
<g id="a_edge25_Node000016_Node000020"><a xlink:title=" ">
<path fill="none" stroke="#63b8ff" d="M635.05,-109.98C599.26,-100.6 541.75,-85.51 503.79,-75.55"/>
<polygon fill="#63b8ff" stroke="#63b8ff" points="504.2,-72.04 493.64,-72.88 502.42,-78.81 504.2,-72.04"/>
</a>
</g>
</g>
<!-- Node21 -->
<g id="Node000021" class="node">
<title>Node21</title>
<g id="a_Node000021"><a xlink:title=" ">
<polygon fill="#e0e0e0" stroke="#999999" points="563,-74 512,-74 512,-55 563,-55 563,-74"/>
<text text-anchor="middle" x="537.5" y="-62" font-family="Helvetica,sans-Serif" font-size="10.00">unistd.h</text>
</a>
</g>
</g>
<!-- Node16&#45;&gt;Node21 -->
<g id="edge26_Node000016_Node000021" class="edge">
<title>Node16&#45;&gt;Node21</title>
<g id="a_edge26_Node000016_Node000021"><a xlink:title=" ">
<path fill="none" stroke="#63b8ff" d="M646.61,-109.98C625.42,-101.34 592.37,-87.87 568.2,-78.02"/>
<polygon fill="#63b8ff" stroke="#63b8ff" points="569.35,-74.7 558.77,-74.17 566.71,-81.19 569.35,-74.7"/>
</a>
</g>
</g>
</g>
</svg>
