<?xml version="1.0" encoding="UTF-8" standalone="no"?>
<!DOCTYPE svg PUBLIC "-//W3C//DTD SVG 1.1//EN"
 "http://www.w3.org/Graphics/SVG/1.1/DTD/svg11.dtd">
<!-- Generated by graphviz version 2.43.0 (0)
 -->
<!-- Title: Socket&#45;private.h Pages: 1 -->
<svg width="1511pt" height="368pt"
 viewBox="0.00 0.00 1511.47 368.00" xmlns="http://www.w3.org/2000/svg" xmlns:xlink="http://www.w3.org/1999/xlink">
<g id="graph0" class="graph" transform="scale(1 1) rotate(0) translate(4 364)">
<title>Socket&#45;private.h</title>
<!-- Node1 -->
<g id="Node000001" class="node">
<title>Node1</title>
<g id="a_Node000001"><a xlink:title="Private implementation details for Socket module: internal structure and shared utilities....">
<polygon fill="#999999" stroke="#666666" points="709.97,-360 621.97,-360 621.97,-341 709.97,-341 709.97,-360"/>
<text text-anchor="middle" x="665.97" y="-348" font-family="Helvetica,sans-Serif" font-size="10.00">Socket&#45;private.h</text>
</a>
</g>
</g>
<!-- Node2 -->
<g id="Node000002" class="node">
<title>Node2</title>
<g id="a_Node000002"><a xlink:href="Arena_8h.html" target="_top" xlink:title="Arena&#45;based memory allocator for efficient bulk memory management.">
<polygon fill="white" stroke="#666666" points="384.97,-129 312.97,-129 312.97,-110 384.97,-110 384.97,-129"/>
<text text-anchor="middle" x="348.97" y="-117" font-family="Helvetica,sans-Serif" font-size="10.00">core/Arena.h</text>
</a>
</g>
</g>
<!-- Node1&#45;&gt;Node2 -->
<g id="edge1_Node000001_Node000002" class="edge">
<title>Node1&#45;&gt;Node2</title>
<g id="a_edge1_Node000001_Node000002"><a xlink:title=" ">
<path fill="none" stroke="#63b8ff" d="M649.89,-340.87C633.94,-332.19 608.93,-318.23 587.97,-305 544.48,-277.57 533.96,-270.03 492.97,-239 446.14,-203.56 393.39,-158.86 366.61,-135.81"/>
<polygon fill="#63b8ff" stroke="#63b8ff" points="368.72,-133.01 358.86,-129.12 364.15,-138.31 368.72,-133.01"/>
</a>
</g>
</g>
<!-- Node6 -->
<g id="Node000006" class="node">
<title>Node6</title>
<g id="a_Node000006"><a xlink:href="SocketConfig_8h.html" target="_top" xlink:title="Compile&#45;time and runtime configuration constants, limits, and platform adaptations.">
<polygon fill="white" stroke="#666666" points="1390.97,-129 1284.97,-129 1284.97,-110 1390.97,-110 1390.97,-129"/>
<text text-anchor="middle" x="1337.97" y="-117" font-family="Helvetica,sans-Serif" font-size="10.00">core/SocketConfig.h</text>
</a>
</g>
</g>
<!-- Node1&#45;&gt;Node6 -->
<g id="edge5_Node000001_Node000006" class="edge">
<title>Node1&#45;&gt;Node6</title>
<g id="a_edge5_Node000001_Node000006"><a xlink:title=" ">
<path fill="none" stroke="#63b8ff" d="M693.49,-340.98C769.74,-317.26 990.05,-248 1170.97,-184 1218.67,-167.12 1273.38,-145.97 1306.81,-132.85"/>
<polygon fill="#63b8ff" stroke="#63b8ff" points="1308.44,-135.96 1316.47,-129.04 1305.88,-129.45 1308.44,-135.96"/>
</a>
</g>
</g>
<!-- Node15 -->
<g id="Node000015" class="node">
<title>Node15</title>
<g id="a_Node000015"><a xlink:href="SocketRateLimit_8h.html" target="_top" xlink:title="Token bucket rate limiter for controlling operation rates.">
<polygon fill="white" stroke="#666666" points="150.47,-184 31.47,-184 31.47,-165 150.47,-165 150.47,-184"/>
<text text-anchor="middle" x="90.97" y="-172" font-family="Helvetica,sans-Serif" font-size="10.00">core/SocketRateLimit.h</text>
</a>
</g>
</g>
<!-- Node1&#45;&gt;Node15 -->
<g id="edge15_Node000001_Node000015" class="edge">
<title>Node1&#45;&gt;Node15</title>
<g id="a_edge15_Node000001_Node000015"><a xlink:title=" ">
<path fill="none" stroke="#63b8ff" d="M621.63,-345.36C567.89,-339.61 474.98,-327.3 397.97,-305 289.65,-273.64 168.28,-214.95 116.55,-188.74"/>
<polygon fill="#63b8ff" stroke="#63b8ff" points="117.93,-185.51 107.43,-184.09 114.75,-191.75 117.93,-185.51"/>
</a>
</g>
</g>
<!-- Node17 -->
<g id="Node000017" class="node">
<title>Node17</title>
<g id="a_Node000017"><a xlink:href="Socket_8h.html" target="_top" xlink:title="High&#45;level TCP/IP and Unix domain socket interface.">
<polygon fill="white" stroke="#666666" points="589.97,-239 501.97,-239 501.97,-220 589.97,-220 589.97,-239"/>
<text text-anchor="middle" x="545.97" y="-227" font-family="Helvetica,sans-Serif" font-size="10.00">socket/Socket.h</text>
</a>
</g>
</g>
<!-- Node1&#45;&gt;Node17 -->
<g id="edge20_Node000001_Node000017" class="edge">
<title>Node1&#45;&gt;Node17</title>
<g id="a_edge20_Node000001_Node000017"><a xlink:title=" ">
<path fill="none" stroke="#63b8ff" d="M657.33,-340.94C637.37,-321.14 587.73,-271.91 562,-246.4"/>
<polygon fill="#63b8ff" stroke="#63b8ff" points="564.41,-243.86 554.84,-239.3 559.48,-248.83 564.41,-243.86"/>
</a>
</g>
</g>
<!-- Node26 -->
<g id="Node000026" class="node">
<title>Node26</title>
<g id="a_Node000026"><a xlink:href="SocketCommon-private_8h.html" target="_top" xlink:title="Private declarations for SocketCommon module providing shared socket infrastructure.">
<polygon fill="white" stroke="#666666" points="769.47,-305 650.47,-305 650.47,-275 769.47,-275 769.47,-305"/>
<text text-anchor="start" x="658.47" y="-293" font-family="Helvetica,sans-Serif" font-size="10.00">socket/SocketCommon</text>
<text text-anchor="middle" x="709.97" y="-282" font-family="Helvetica,sans-Serif" font-size="10.00">&#45;private.h</text>
</a>
</g>
</g>
<!-- Node1&#45;&gt;Node26 -->
<g id="edge42_Node000001_Node000026" class="edge">
<title>Node1&#45;&gt;Node26</title>
<g id="a_edge42_Node000001_Node000026"><a xlink:title=" ">
<path fill="none" stroke="#63b8ff" d="M672.46,-340.87C677.93,-333.59 686.01,-322.85 693.27,-313.2"/>
<polygon fill="#63b8ff" stroke="#63b8ff" points="696.14,-315.21 699.35,-305.11 690.54,-311 696.14,-315.21"/>
</a>
</g>
</g>
<!-- Node32 -->
<g id="Node000032" class="node">
<title>Node32</title>
<g id="a_Node000032"><a xlink:title=" ">
<polygon fill="#e0e0e0" stroke="#999999" points="1288.97,-299.5 1220.97,-299.5 1220.97,-280.5 1288.97,-280.5 1288.97,-299.5"/>
<text text-anchor="middle" x="1254.97" y="-287.5" font-family="Helvetica,sans-Serif" font-size="10.00">stdatomic.h</text>
</a>
</g>
</g>
<!-- Node1&#45;&gt;Node32 -->
<g id="edge60_Node000001_Node000032" class="edge">
<title>Node1&#45;&gt;Node32</title>
<g id="a_edge60_Node000001_Node000032"><a xlink:title=" ">
<path fill="none" stroke="#63b8ff" d="M710.19,-348.87C803.01,-346.9 1024.64,-338.73 1206.97,-305 1211.09,-304.24 1215.38,-303.26 1219.61,-302.18"/>
<polygon fill="#63b8ff" stroke="#63b8ff" points="1220.57,-305.55 1229.29,-299.53 1218.72,-298.8 1220.57,-305.55"/>
</a>
</g>
</g>
<!-- Node3 -->
<g id="Node000003" class="node">
<title>Node3</title>
<g id="a_Node000003"><a xlink:title=" ">
<polygon fill="#e0e0e0" stroke="#999999" points="374.97,-74 322.97,-74 322.97,-55 374.97,-55 374.97,-74"/>
<text text-anchor="middle" x="348.97" y="-62" font-family="Helvetica,sans-Serif" font-size="10.00">stddef.h</text>
</a>
</g>
</g>
<!-- Node2&#45;&gt;Node3 -->
<g id="edge2_Node000002_Node000003" class="edge">
<title>Node2&#45;&gt;Node3</title>
<g id="a_edge2_Node000002_Node000003"><a xlink:title=" ">
<path fill="none" stroke="#63b8ff" d="M348.97,-109.75C348.97,-102.8 348.97,-92.85 348.97,-84.13"/>
<polygon fill="#63b8ff" stroke="#63b8ff" points="352.47,-84.09 348.97,-74.09 345.47,-84.09 352.47,-84.09"/>
</a>
</g>
</g>
<!-- Node4 -->
<g id="Node000004" class="node">
<title>Node4</title>
<g id="a_Node000004"><a xlink:href="Except_8h.html" target="_top" xlink:title="Structured exception handling for C with TRY/EXCEPT/FINALLY blocks.">
<polygon fill="white" stroke="#666666" points="208.47,-74 131.47,-74 131.47,-55 208.47,-55 208.47,-74"/>
<text text-anchor="middle" x="169.97" y="-62" font-family="Helvetica,sans-Serif" font-size="10.00">core/Except.h</text>
</a>
</g>
</g>
<!-- Node2&#45;&gt;Node4 -->
<g id="edge3_Node000002_Node000004" class="edge">
<title>Node2&#45;&gt;Node4</title>
<g id="a_edge3_Node000002_Node000004"><a xlink:title=" ">
<path fill="none" stroke="#63b8ff" d="M320.21,-109.98C290.02,-101.05 242.39,-86.94 208.87,-77.02"/>
<polygon fill="#63b8ff" stroke="#63b8ff" points="209.53,-73.57 198.95,-74.08 207.54,-80.28 209.53,-73.57"/>
</a>
</g>
</g>
<!-- Node5 -->
<g id="Node000005" class="node">
<title>Node5</title>
<g id="a_Node000005"><a xlink:title=" ">
<polygon fill="#e0e0e0" stroke="#999999" points="196.97,-19 142.97,-19 142.97,0 196.97,0 196.97,-19"/>
<text text-anchor="middle" x="169.97" y="-7" font-family="Helvetica,sans-Serif" font-size="10.00">setjmp.h</text>
</a>
</g>
</g>
<!-- Node4&#45;&gt;Node5 -->
<g id="edge4_Node000004_Node000005" class="edge">
<title>Node4&#45;&gt;Node5</title>
<g id="a_edge4_Node000004_Node000005"><a xlink:title=" ">
<path fill="none" stroke="#63b8ff" d="M169.97,-54.75C169.97,-47.8 169.97,-37.85 169.97,-29.13"/>
<polygon fill="#63b8ff" stroke="#63b8ff" points="173.47,-29.09 169.97,-19.09 166.47,-29.09 173.47,-29.09"/>
</a>
</g>
</g>
<!-- Node6&#45;&gt;Node3 -->
<g id="edge10_Node000006_Node000003" class="edge">
<title>Node6&#45;&gt;Node3</title>
<g id="a_edge10_Node000006_Node000003"><a xlink:title=" ">
<path fill="none" stroke="#63b8ff" d="M1284.9,-110.91C1281.88,-110.58 1278.89,-110.27 1275.97,-110 930.27,-78.07 509.79,-68.36 385.32,-66.09"/>
<polygon fill="#63b8ff" stroke="#63b8ff" points="385.26,-62.59 375.2,-65.91 385.14,-69.59 385.26,-62.59"/>
</a>
</g>
</g>
<!-- Node7 -->
<g id="Node000007" class="node">
<title>Node7</title>
<g id="a_Node000007"><a xlink:title=" ">
<polygon fill="#e0e0e0" stroke="#999999" points="1503.47,-74 1456.47,-74 1456.47,-55 1503.47,-55 1503.47,-74"/>
<text text-anchor="middle" x="1479.97" y="-62" font-family="Helvetica,sans-Serif" font-size="10.00">errno.h</text>
</a>
</g>
</g>
<!-- Node6&#45;&gt;Node7 -->
<g id="edge6_Node000006_Node000007" class="edge">
<title>Node6&#45;&gt;Node7</title>
<g id="a_edge6_Node000006_Node000007"><a xlink:title=" ">
<path fill="none" stroke="#63b8ff" d="M1360.78,-109.98C1384.14,-101.27 1420.67,-87.63 1447.13,-77.75"/>
<polygon fill="#63b8ff" stroke="#63b8ff" points="1448.59,-80.95 1456.74,-74.17 1446.14,-74.39 1448.59,-80.95"/>
</a>
</g>
</g>
<!-- Node8 -->
<g id="Node000008" class="node">
<title>Node8</title>
<g id="a_Node000008"><a xlink:title=" ">
<polygon fill="#e0e0e0" stroke="#999999" points="912.97,-74 868.97,-74 868.97,-55 912.97,-55 912.97,-74"/>
<text text-anchor="middle" x="890.97" y="-62" font-family="Helvetica,sans-Serif" font-size="10.00">fcntl.h</text>
</a>
</g>
</g>
<!-- Node6&#45;&gt;Node8 -->
<g id="edge7_Node000006_Node000008" class="edge">
<title>Node6&#45;&gt;Node8</title>
<g id="a_edge7_Node000006_Node000008"><a xlink:title=" ">
<path fill="none" stroke="#63b8ff" d="M1284.87,-111.15C1281.86,-110.75 1278.88,-110.37 1275.97,-110 1145.39,-93.5 989.58,-76.24 923.33,-69.01"/>
<polygon fill="#63b8ff" stroke="#63b8ff" points="923.44,-65.5 913.12,-67.89 922.68,-72.46 923.44,-65.5"/>
</a>
</g>
</g>
<!-- Node9 -->
<g id="Node000009" class="node">
<title>Node9</title>
<g id="a_Node000009"><a xlink:title=" ">
<polygon fill="#e0e0e0" stroke="#999999" points="1092.47,-74 1027.47,-74 1027.47,-55 1092.47,-55 1092.47,-74"/>
<text text-anchor="middle" x="1059.97" y="-62" font-family="Helvetica,sans-Serif" font-size="10.00">netinet/in.h</text>
</a>
</g>
</g>
<!-- Node6&#45;&gt;Node9 -->
<g id="edge8_Node000006_Node000009" class="edge">
<title>Node6&#45;&gt;Node9</title>
<g id="a_edge8_Node000006_Node000009"><a xlink:title=" ">
<path fill="none" stroke="#63b8ff" d="M1293.3,-109.98C1240.78,-99.97 1154.24,-83.47 1102.61,-73.63"/>
<polygon fill="#63b8ff" stroke="#63b8ff" points="1103.25,-70.19 1092.77,-71.75 1101.94,-77.06 1103.25,-70.19"/>
</a>
</g>
</g>
<!-- Node10 -->
<g id="Node000010" class="node">
<title>Node10</title>
<g id="a_Node000010"><a xlink:title=" ">
<polygon fill="#e0e0e0" stroke="#999999" points="1373.47,-74 1302.47,-74 1302.47,-55 1373.47,-55 1373.47,-74"/>
<text text-anchor="middle" x="1337.97" y="-62" font-family="Helvetica,sans-Serif" font-size="10.00">netinet/tcp.h</text>
</a>
</g>
</g>
<!-- Node6&#45;&gt;Node10 -->
<g id="edge9_Node000006_Node000010" class="edge">
<title>Node6&#45;&gt;Node10</title>
<g id="a_edge9_Node000006_Node000010"><a xlink:title=" ">
<path fill="none" stroke="#63b8ff" d="M1337.97,-109.75C1337.97,-102.8 1337.97,-92.85 1337.97,-84.13"/>
<polygon fill="#63b8ff" stroke="#63b8ff" points="1341.47,-84.09 1337.97,-74.09 1334.47,-84.09 1341.47,-84.09"/>
</a>
</g>
</g>
<!-- Node11 -->
<g id="Node000011" class="node">
<title>Node11</title>
<g id="a_Node000011"><a xlink:title=" ">
<polygon fill="#e0e0e0" stroke="#999999" points="1437.97,-74 1391.97,-74 1391.97,-55 1437.97,-55 1437.97,-74"/>
<text text-anchor="middle" x="1414.97" y="-62" font-family="Helvetica,sans-Serif" font-size="10.00">stdio.h</text>
</a>
</g>
</g>
<!-- Node6&#45;&gt;Node11 -->
<g id="edge11_Node000006_Node000011" class="edge">
<title>Node6&#45;&gt;Node11</title>
<g id="a_edge11_Node000006_Node000011"><a xlink:title=" ">
<path fill="none" stroke="#63b8ff" d="M1350.34,-109.98C1362.05,-101.92 1379.88,-89.65 1393.85,-80.03"/>
<polygon fill="#63b8ff" stroke="#63b8ff" points="1396.12,-82.72 1402.37,-74.17 1392.15,-76.96 1396.12,-82.72"/>
</a>
</g>
</g>
<!-- Node12 -->
<g id="Node000012" class="node">
<title>Node12</title>
<g id="a_Node000012"><a xlink:title=" ">
<polygon fill="#e0e0e0" stroke="#999999" points="801.47,-74 728.47,-74 728.47,-55 801.47,-55 801.47,-74"/>
<text text-anchor="middle" x="764.97" y="-62" font-family="Helvetica,sans-Serif" font-size="10.00">sys/socket.h</text>
</a>
</g>
</g>
<!-- Node6&#45;&gt;Node12 -->
<g id="edge12_Node000006_Node000012" class="edge">
<title>Node6&#45;&gt;Node12</title>
<g id="a_edge12_Node000006_Node000012"><a xlink:title=" ">
<path fill="none" stroke="#63b8ff" d="M1284.89,-111.05C1281.87,-110.68 1278.88,-110.33 1275.97,-110 1091.53,-89.39 1044.83,-90.27 859.97,-74 844.28,-72.62 827.15,-71.09 811.8,-69.72"/>
<polygon fill="#63b8ff" stroke="#63b8ff" points="811.78,-66.2 801.5,-68.79 811.15,-73.17 811.78,-66.2"/>
</a>
</g>
</g>
<!-- Node13 -->
<g id="Node000013" class="node">
<title>Node13</title>
<g id="a_Node000013"><a xlink:title=" ">
<polygon fill="#e0e0e0" stroke="#999999" points="1214.97,-74 1158.97,-74 1158.97,-55 1214.97,-55 1214.97,-74"/>
<text text-anchor="middle" x="1186.97" y="-62" font-family="Helvetica,sans-Serif" font-size="10.00">sys/uio.h</text>
</a>
</g>
</g>
<!-- Node6&#45;&gt;Node13 -->
<g id="edge13_Node000006_Node000013" class="edge">
<title>Node6&#45;&gt;Node13</title>
<g id="a_edge13_Node000006_Node000013"><a xlink:title=" ">
<path fill="none" stroke="#63b8ff" d="M1313.7,-109.98C1288.65,-101.19 1249.33,-87.39 1221.14,-77.49"/>
<polygon fill="#63b8ff" stroke="#63b8ff" points="1222.26,-74.18 1211.67,-74.17 1219.94,-80.78 1222.26,-74.18"/>
</a>
</g>
</g>
<!-- Node14 -->
<g id="Node000014" class="node">
<title>Node14</title>
<g id="a_Node000014"><a xlink:title=" ">
<polygon fill="#e0e0e0" stroke="#999999" points="1284.47,-74 1233.47,-74 1233.47,-55 1284.47,-55 1284.47,-74"/>
<text text-anchor="middle" x="1258.97" y="-62" font-family="Helvetica,sans-Serif" font-size="10.00">unistd.h</text>
</a>
</g>
</g>
<!-- Node6&#45;&gt;Node14 -->
<g id="edge14_Node000006_Node000014" class="edge">
<title>Node6&#45;&gt;Node14</title>
<g id="a_edge14_Node000006_Node000014"><a xlink:title=" ">
<path fill="none" stroke="#63b8ff" d="M1325.27,-109.98C1313.14,-101.84 1294.61,-89.41 1280.22,-79.76"/>
<polygon fill="#63b8ff" stroke="#63b8ff" points="1282.14,-76.84 1271.89,-74.17 1278.24,-82.65 1282.14,-76.84"/>
</a>
</g>
</g>
<!-- Node15&#45;&gt;Node2 -->
<g id="edge16_Node000015_Node000002" class="edge">
<title>Node15&#45;&gt;Node2</title>
<g id="a_edge16_Node000015_Node000002"><a xlink:title=" ">
<path fill="none" stroke="#63b8ff" d="M132.42,-164.98C178.96,-155.42 254.3,-139.95 302.72,-130"/>
<polygon fill="#63b8ff" stroke="#63b8ff" points="303.53,-133.41 312.62,-127.97 302.12,-126.55 303.53,-133.41"/>
</a>
</g>
</g>
<!-- Node15&#45;&gt;Node3 -->
<g id="edge18_Node000015_Node000003" class="edge">
<title>Node15&#45;&gt;Node3</title>
<g id="a_edge18_Node000015_Node000003"><a xlink:title=" ">
<path fill="none" stroke="#63b8ff" d="M88.03,-164.92C84.03,-151.48 78.78,-125.42 91.97,-110 106.18,-93.38 245.27,-76.51 312.69,-69.22"/>
<polygon fill="#63b8ff" stroke="#63b8ff" points="313.29,-72.68 322.86,-68.14 312.55,-65.72 313.29,-72.68"/>
</a>
</g>
</g>
<!-- Node15&#45;&gt;Node4 -->
<g id="edge17_Node000015_Node000004" class="edge">
<title>Node15&#45;&gt;Node4</title>
<g id="a_edge17_Node000015_Node000004"><a xlink:title=" ">
<path fill="none" stroke="#63b8ff" d="M68.31,-164.98C41.94,-153.76 4.01,-132.76 20.97,-110 43.84,-79.29 87.1,-68.95 121.14,-65.84"/>
<polygon fill="#63b8ff" stroke="#63b8ff" points="121.66,-69.31 131.38,-65.09 121.15,-62.33 121.66,-69.31"/>
</a>
</g>
</g>
<!-- Node16 -->
<g id="Node000016" class="node">
<title>Node16</title>
<g id="a_Node000016"><a xlink:title=" ">
<polygon fill="#e0e0e0" stroke="#999999" points="150.47,-129 101.47,-129 101.47,-110 150.47,-110 150.47,-129"/>
<text text-anchor="middle" x="125.97" y="-117" font-family="Helvetica,sans-Serif" font-size="10.00">stdint.h</text>
</a>
</g>
</g>
<!-- Node15&#45;&gt;Node16 -->
<g id="edge19_Node000015_Node000016" class="edge">
<title>Node15&#45;&gt;Node16</title>
<g id="a_edge19_Node000015_Node000016"><a xlink:title=" ">
<path fill="none" stroke="#63b8ff" d="M96.74,-164.75C101.59,-157.42 108.64,-146.73 114.61,-137.7"/>
<polygon fill="#63b8ff" stroke="#63b8ff" points="117.7,-139.36 120.29,-129.09 111.86,-135.5 117.7,-139.36"/>
</a>
</g>
</g>
<!-- Node17&#45;&gt;Node4 -->
<g id="edge21_Node000017_Node000004" class="edge">
<title>Node17&#45;&gt;Node4</title>
<g id="a_edge21_Node000017_Node000004"><a xlink:title=" ">
<path fill="none" stroke="#63b8ff" d="M501.72,-227.8C381.73,-225.49 56.85,-216.28 21.97,-184 -2.35,-161.5 -7.01,-136.43 12.97,-110 26.14,-92.57 80.46,-79.98 121.54,-72.74"/>
<polygon fill="#63b8ff" stroke="#63b8ff" points="122.14,-76.19 131.4,-71.05 120.96,-69.29 122.14,-76.19"/>
</a>
</g>
</g>
<!-- Node17&#45;&gt;Node6 -->
<g id="edge22_Node000017_Node000006" class="edge">
<title>Node17&#45;&gt;Node6</title>
<g id="a_edge22_Node000017_Node000006"><a xlink:title=" ">
<path fill="none" stroke="#63b8ff" d="M590.34,-226.84C703.76,-222.29 1002.09,-208.3 1097.97,-184 1118.22,-178.87 1121.13,-171.55 1140.97,-165 1185.99,-150.12 1238.41,-138.55 1277.86,-130.94"/>
<polygon fill="#63b8ff" stroke="#63b8ff" points="1278.68,-134.34 1287.85,-129.04 1277.38,-127.46 1278.68,-134.34"/>
</a>
</g>
</g>
<!-- Node18 -->
<g id="Node000018" class="node">
<title>Node18</title>
<g id="a_Node000018"><a xlink:href="SocketDNS_8h.html" target="_top" xlink:title="Asynchronous DNS resolution API for non&#45;blocking network applications.">
<polygon fill="white" stroke="#666666" points="264.97,-184 168.97,-184 168.97,-165 264.97,-165 264.97,-184"/>
<text text-anchor="middle" x="216.97" y="-172" font-family="Helvetica,sans-Serif" font-size="10.00">dns/SocketDNS.h</text>
</a>
</g>
</g>
<!-- Node17&#45;&gt;Node18 -->
<g id="edge23_Node000017_Node000018" class="edge">
<title>Node17&#45;&gt;Node18</title>
<g id="a_edge23_Node000017_Node000018"><a xlink:title=" ">
<path fill="none" stroke="#63b8ff" d="M501.94,-221.41C443.43,-211.98 339.93,-195.31 275.07,-184.86"/>
<polygon fill="#63b8ff" stroke="#63b8ff" points="275.43,-181.37 265,-183.24 274.32,-188.28 275.43,-181.37"/>
</a>
</g>
</g>
<!-- Node20 -->
<g id="Node000020" class="node">
<title>Node20</title>
<g id="a_Node000020"><a xlink:href="SocketCommon_8h.html" target="_top" xlink:title="Common utilities shared between Socket and SocketDgram modules.">
<polygon fill="white" stroke="#666666" points="773.97,-184 645.97,-184 645.97,-165 773.97,-165 773.97,-184"/>
<text text-anchor="middle" x="709.97" y="-172" font-family="Helvetica,sans-Serif" font-size="10.00">socket/SocketCommon.h</text>
</a>
</g>
</g>
<!-- Node17&#45;&gt;Node20 -->
<g id="edge29_Node000017_Node000020" class="edge">
<title>Node17&#45;&gt;Node20</title>
<g id="a_edge29_Node000017_Node000020"><a xlink:title=" ">
<path fill="none" stroke="#63b8ff" d="M572.31,-219.98C599.73,-211.13 642.86,-197.19 673.53,-187.28"/>
<polygon fill="#63b8ff" stroke="#63b8ff" points="674.97,-190.49 683.41,-184.08 672.82,-183.83 674.97,-190.49"/>
</a>
</g>
</g>
<!-- Node18&#45;&gt;Node3 -->
<g id="edge26_Node000018_Node000003" class="edge">
<title>Node18&#45;&gt;Node3</title>
<g id="a_edge26_Node000018_Node000003"><a xlink:title=" ">
<path fill="none" stroke="#63b8ff" d="M211.07,-164.79C202.97,-151.64 190.74,-126.51 202.97,-110 228.05,-76.13 278.32,-67.17 312.8,-65.24"/>
<polygon fill="#63b8ff" stroke="#63b8ff" points="313.09,-68.73 322.95,-64.85 312.82,-61.74 313.09,-68.73"/>
</a>
</g>
</g>
<!-- Node18&#45;&gt;Node4 -->
<g id="edge24_Node000018_Node000004" class="edge">
<title>Node18&#45;&gt;Node4</title>
<g id="a_edge24_Node000018_Node000004"><a xlink:title=" ">
<path fill="none" stroke="#63b8ff" d="M178.75,-165C145.91,-156.82 102.26,-143.59 91.97,-129 76.7,-107.37 106.88,-89.08 134.03,-77.77"/>
<polygon fill="#63b8ff" stroke="#63b8ff" points="135.4,-80.99 143.42,-74.07 132.84,-74.48 135.4,-80.99"/>
</a>
</g>
</g>
<!-- Node18&#45;&gt;Node12 -->
<g id="edge28_Node000018_Node000012" class="edge">
<title>Node18&#45;&gt;Node12</title>
<g id="a_edge28_Node000018_Node000012"><a xlink:title=" ">
<path fill="none" stroke="#63b8ff" d="M216.72,-164.88C216.85,-150.9 219.35,-123.49 235.97,-110 272.99,-79.94 595.91,-69.4 718.25,-66.46"/>
<polygon fill="#63b8ff" stroke="#63b8ff" points="718.51,-69.96 728.43,-66.23 718.35,-62.96 718.51,-69.96"/>
</a>
</g>
</g>
<!-- Node18&#45;&gt;Node16 -->
<g id="edge27_Node000018_Node000016" class="edge">
<title>Node18&#45;&gt;Node16</title>
<g id="a_edge27_Node000018_Node000016"><a xlink:title=" ">
<path fill="none" stroke="#63b8ff" d="M202.34,-164.98C188.1,-156.69 166.21,-143.94 149.51,-134.22"/>
<polygon fill="#63b8ff" stroke="#63b8ff" points="151.25,-131.18 140.85,-129.17 147.73,-137.23 151.25,-131.18"/>
</a>
</g>
</g>
<!-- Node19 -->
<g id="Node000019" class="node">
<title>Node19</title>
<g id="a_Node000019"><a xlink:title=" ">
<polygon fill="#e0e0e0" stroke="#999999" points="294.47,-129 245.47,-129 245.47,-110 294.47,-110 294.47,-129"/>
<text text-anchor="middle" x="269.97" y="-117" font-family="Helvetica,sans-Serif" font-size="10.00">netdb.h</text>
</a>
</g>
</g>
<!-- Node18&#45;&gt;Node19 -->
<g id="edge25_Node000018_Node000019" class="edge">
<title>Node18&#45;&gt;Node19</title>
<g id="a_edge25_Node000018_Node000019"><a xlink:title=" ">
<path fill="none" stroke="#63b8ff" d="M225.72,-164.75C233.43,-157.03 244.87,-145.6 254.18,-136.28"/>
<polygon fill="#63b8ff" stroke="#63b8ff" points="256.78,-138.64 261.38,-129.09 251.83,-133.69 256.78,-138.64"/>
</a>
</g>
</g>
<!-- Node20&#45;&gt;Node2 -->
<g id="edge39_Node000020_Node000002" class="edge">
<title>Node20&#45;&gt;Node2</title>
<g id="a_edge39_Node000020_Node000002"><a xlink:title=" ">
<path fill="none" stroke="#63b8ff" d="M647.05,-164.99C584.18,-156.37 484.78,-142.43 398.97,-129 397.69,-128.8 396.4,-128.6 395.1,-128.39"/>
<polygon fill="#63b8ff" stroke="#63b8ff" points="395.43,-124.9 385,-126.74 394.3,-131.81 395.43,-124.9"/>
</a>
</g>
</g>
<!-- Node20&#45;&gt;Node4 -->
<g id="edge40_Node000020_Node000004" class="edge">
<title>Node20&#45;&gt;Node4</title>
<g id="a_edge40_Node000020_Node000004"><a xlink:title=" ">
<path fill="none" stroke="#63b8ff" d="M645.68,-165.51C576.33,-156.49 470.64,-141.44 431.97,-129 413.99,-123.22 411.83,-116.12 393.97,-110 335.38,-89.94 264.9,-77.79 218.85,-71.37"/>
<polygon fill="#63b8ff" stroke="#63b8ff" points="219.21,-67.89 208.83,-70.01 218.27,-74.82 219.21,-67.89"/>
</a>
</g>
</g>
<!-- Node20&#45;&gt;Node6 -->
<g id="edge41_Node000020_Node000006" class="edge">
<title>Node20&#45;&gt;Node6</title>
<g id="a_edge41_Node000020_Node000006"><a xlink:title=" ">
<path fill="none" stroke="#63b8ff" d="M774.16,-169.67C877.39,-163.23 1086.89,-149.07 1274.82,-129.06"/>
<polygon fill="#63b8ff" stroke="#63b8ff" points="1275.32,-132.53 1284.89,-127.98 1274.57,-125.57 1275.32,-132.53"/>
</a>
</g>
</g>
<!-- Node20&#45;&gt;Node8 -->
<g id="edge32_Node000020_Node000008" class="edge">
<title>Node20&#45;&gt;Node8</title>
<g id="a_edge32_Node000020_Node000008"><a xlink:title=" ">
<path fill="none" stroke="#63b8ff" d="M724.47,-164.84C755.79,-146.16 829.97,-101.9 867.84,-79.3"/>
<polygon fill="#63b8ff" stroke="#63b8ff" points="869.85,-82.18 876.64,-74.05 866.26,-76.17 869.85,-82.18"/>
</a>
</g>
</g>
<!-- Node20&#45;&gt;Node9 -->
<g id="edge34_Node000020_Node000009" class="edge">
<title>Node20&#45;&gt;Node9</title>
<g id="a_edge34_Node000020_Node000009"><a xlink:title=" ">
<path fill="none" stroke="#63b8ff" d="M730.06,-164.98C770.76,-147.73 859.14,-110.27 859.97,-110 913.22,-92.96 976.47,-80.07 1017.37,-72.66"/>
<polygon fill="#63b8ff" stroke="#63b8ff" points="1018.04,-76.09 1027.27,-70.89 1016.81,-69.2 1018.04,-76.09"/>
</a>
</g>
</g>
<!-- Node20&#45;&gt;Node12 -->
<g id="edge35_Node000020_Node000012" class="edge">
<title>Node20&#45;&gt;Node12</title>
<g id="a_edge35_Node000020_Node000012"><a xlink:title=" ">
<path fill="none" stroke="#63b8ff" d="M718.84,-164.71C726.95,-156.24 738.73,-142.71 745.97,-129 753.44,-114.83 758.4,-97.29 761.38,-84.24"/>
<polygon fill="#63b8ff" stroke="#63b8ff" points="764.87,-84.63 763.49,-74.12 758.02,-83.2 764.87,-84.63"/>
</a>
</g>
</g>
<!-- Node20&#45;&gt;Node19 -->
<g id="edge33_Node000020_Node000019" class="edge">
<title>Node20&#45;&gt;Node19</title>
<g id="a_edge33_Node000020_Node000019"><a xlink:title=" ">
<path fill="none" stroke="#63b8ff" d="M645.94,-169.18C567.65,-163.3 431.01,-151.09 304.62,-128.87"/>
<polygon fill="#63b8ff" stroke="#63b8ff" points="305.22,-125.42 294.76,-127.11 303.99,-132.31 305.22,-125.42"/>
</a>
</g>
</g>
<!-- Node21 -->
<g id="Node000021" class="node">
<title>Node21</title>
<g id="a_Node000021"><a xlink:title=" ">
<polygon fill="#e0e0e0" stroke="#999999" points="498.47,-129 441.47,-129 441.47,-110 498.47,-110 498.47,-129"/>
<text text-anchor="middle" x="469.97" y="-117" font-family="Helvetica,sans-Serif" font-size="10.00">pthread.h</text>
</a>
</g>
</g>
<!-- Node20&#45;&gt;Node21 -->
<g id="edge30_Node000020_Node000021" class="edge">
<title>Node20&#45;&gt;Node21</title>
<g id="a_edge30_Node000020_Node000021"><a xlink:title=" ">
<path fill="none" stroke="#63b8ff" d="M670.85,-164.92C632.22,-156.44 571.18,-143.02 508.64,-129.14"/>
<polygon fill="#63b8ff" stroke="#63b8ff" points="509.12,-125.66 498.6,-126.91 507.6,-132.5 509.12,-125.66"/>
</a>
</g>
</g>
<!-- Node22 -->
<g id="Node000022" class="node">
<title>Node22</title>
<g id="a_Node000022"><a xlink:title=" ">
<polygon fill="#e0e0e0" stroke="#999999" points="924.97,-129 868.97,-129 868.97,-110 924.97,-110 924.97,-129"/>
<text text-anchor="middle" x="896.97" y="-117" font-family="Helvetica,sans-Serif" font-size="10.00">stdbool.h</text>
</a>
</g>
</g>
<!-- Node20&#45;&gt;Node22 -->
<g id="edge31_Node000020_Node000022" class="edge">
<title>Node20&#45;&gt;Node22</title>
<g id="a_edge31_Node000020_Node000022"><a xlink:title=" ">
<path fill="none" stroke="#63b8ff" d="M740.01,-164.98C772.33,-155.82 823.82,-141.23 858.94,-131.28"/>
<polygon fill="#63b8ff" stroke="#63b8ff" points="860.16,-134.57 868.83,-128.47 858.25,-127.83 860.16,-134.57"/>
</a>
</g>
</g>
<!-- Node23 -->
<g id="Node000023" class="node">
<title>Node23</title>
<g id="a_Node000023"><a xlink:title=" ">
<polygon fill="#e0e0e0" stroke="#999999" points="578.97,-129 516.97,-129 516.97,-110 578.97,-110 578.97,-129"/>
<text text-anchor="middle" x="547.97" y="-117" font-family="Helvetica,sans-Serif" font-size="10.00">sys/time.h</text>
</a>
</g>
</g>
<!-- Node20&#45;&gt;Node23 -->
<g id="edge36_Node000020_Node000023" class="edge">
<title>Node20&#45;&gt;Node23</title>
<g id="a_edge36_Node000020_Node000023"><a xlink:title=" ">
<path fill="none" stroke="#63b8ff" d="M683.94,-164.98C656.86,-156.13 614.26,-142.19 583.96,-132.28"/>
<polygon fill="#63b8ff" stroke="#63b8ff" points="584.79,-128.87 574.2,-129.08 582.61,-135.52 584.79,-128.87"/>
</a>
</g>
</g>
<!-- Node24 -->
<g id="Node000024" class="node">
<title>Node24</title>
<g id="a_Node000024"><a xlink:title=" ">
<polygon fill="#e0e0e0" stroke="#999999" points="664.97,-129 596.97,-129 596.97,-110 664.97,-110 664.97,-129"/>
<text text-anchor="middle" x="630.97" y="-117" font-family="Helvetica,sans-Serif" font-size="10.00">sys/types.h</text>
</a>
</g>
</g>
<!-- Node20&#45;&gt;Node24 -->
<g id="edge37_Node000020_Node000024" class="edge">
<title>Node20&#45;&gt;Node24</title>
<g id="a_edge37_Node000020_Node000024"><a xlink:title=" ">
<path fill="none" stroke="#63b8ff" d="M697.27,-164.98C685.14,-156.84 666.61,-144.41 652.22,-134.76"/>
<polygon fill="#63b8ff" stroke="#63b8ff" points="654.14,-131.84 643.89,-129.17 650.24,-137.65 654.14,-131.84"/>
</a>
</g>
</g>
<!-- Node25 -->
<g id="Node000025" class="node">
<title>Node25</title>
<g id="a_Node000025"><a xlink:title=" ">
<polygon fill="#e0e0e0" stroke="#999999" points="736.97,-129 682.97,-129 682.97,-110 736.97,-110 736.97,-129"/>
<text text-anchor="middle" x="709.97" y="-117" font-family="Helvetica,sans-Serif" font-size="10.00">sys/un.h</text>
</a>
</g>
</g>
<!-- Node20&#45;&gt;Node25 -->
<g id="edge38_Node000020_Node000025" class="edge">
<title>Node20&#45;&gt;Node25</title>
<g id="a_edge38_Node000020_Node000025"><a xlink:title=" ">
<path fill="none" stroke="#63b8ff" d="M709.97,-164.75C709.97,-157.8 709.97,-147.85 709.97,-139.13"/>
<polygon fill="#63b8ff" stroke="#63b8ff" points="713.47,-139.09 709.97,-129.09 706.47,-139.09 713.47,-139.09"/>
</a>
</g>
</g>
<!-- Node26&#45;&gt;Node2 -->
<g id="edge43_Node000026_Node000002" class="edge">
<title>Node26&#45;&gt;Node2</title>
<g id="a_edge43_Node000026_Node000002"><a xlink:title=" ">
<path fill="none" stroke="#63b8ff" d="M689.73,-274.9C667.95,-260.08 631.98,-236.67 598.97,-220 525.03,-182.68 433.6,-149.33 384.37,-132.35"/>
<polygon fill="#63b8ff" stroke="#63b8ff" points="385.41,-129.01 374.81,-129.08 383.14,-135.63 385.41,-129.01"/>
</a>
</g>
</g>
<!-- Node26&#45;&gt;Node6 -->
<g id="edge44_Node000026_Node000006" class="edge">
<title>Node26&#45;&gt;Node6</title>
<g id="a_edge44_Node000026_Node000006"><a xlink:title=" ">
<path fill="none" stroke="#63b8ff" d="M769.79,-277.28C852.67,-260.34 1006.6,-226.37 1133.97,-184 1154.56,-177.15 1158.47,-172.16 1178.97,-165 1216.69,-151.82 1260.48,-139.79 1292.54,-131.58"/>
<polygon fill="#63b8ff" stroke="#63b8ff" points="1293.68,-134.9 1302.52,-129.05 1291.96,-128.11 1293.68,-134.9"/>
</a>
</g>
</g>
<!-- Node26&#45;&gt;Node17 -->
<g id="edge57_Node000026_Node000017" class="edge">
<title>Node26&#45;&gt;Node17</title>
<g id="a_edge57_Node000026_Node000017"><a xlink:title=" ">
<path fill="none" stroke="#63b8ff" d="M670.68,-274.99C642.95,-265.1 606.18,-251.98 579.76,-242.56"/>
<polygon fill="#63b8ff" stroke="#63b8ff" points="580.78,-239.2 570.18,-239.14 578.43,-245.8 580.78,-239.2"/>
</a>
</g>
</g>
<!-- Node26&#45;&gt;Node20 -->
<g id="edge58_Node000026_Node000020" class="edge">
<title>Node26&#45;&gt;Node20</title>
<g id="a_edge58_Node000026_Node000020"><a xlink:title=" ">
<path fill="none" stroke="#63b8ff" d="M709.97,-274.63C709.97,-254.21 709.97,-216.81 709.97,-194.24"/>
<polygon fill="#63b8ff" stroke="#63b8ff" points="713.47,-194.23 709.97,-184.23 706.47,-194.23 713.47,-194.23"/>
</a>
</g>
</g>
<!-- Node26&#45;&gt;Node22 -->
<g id="edge59_Node000026_Node000022" class="edge">
<title>Node26&#45;&gt;Node22</title>
<g id="a_edge59_Node000026_Node000022"><a xlink:title=" ">
<path fill="none" stroke="#63b8ff" d="M725.59,-274.92C760.21,-243.73 843.18,-168.97 879.47,-136.27"/>
<polygon fill="#63b8ff" stroke="#63b8ff" points="882.16,-138.55 887.25,-129.25 877.48,-133.35 882.16,-138.55"/>
</a>
</g>
</g>
<!-- Node27 -->
<g id="Node000027" class="node">
<title>Node27</title>
<g id="a_Node000027"><a xlink:href="SocketUtil_8h.html" target="_top" xlink:title="Consolidated utility header for logging, metrics, events, and error handling.">
<polygon fill="white" stroke="#666666" points="1088.97,-184 996.97,-184 996.97,-165 1088.97,-165 1088.97,-184"/>
<text text-anchor="middle" x="1042.97" y="-172" font-family="Helvetica,sans-Serif" font-size="10.00">core/SocketUtil.h</text>
</a>
</g>
</g>
<!-- Node26&#45;&gt;Node27 -->
<g id="edge45_Node000026_Node000027" class="edge">
<title>Node26&#45;&gt;Node27</title>
<g id="a_edge45_Node000026_Node000027"><a xlink:title=" ">
<path fill="none" stroke="#63b8ff" d="M754.21,-274.98C785.05,-265.13 827.1,-251.52 863.97,-239 915.19,-221.6 974.28,-200.42 1010.12,-187.45"/>
<polygon fill="#63b8ff" stroke="#63b8ff" points="1011.37,-190.72 1019.58,-184.02 1008.98,-184.14 1011.37,-190.72"/>
</a>
</g>
</g>
<!-- Node27&#45;&gt;Node2 -->
<g id="edge54_Node000027_Node000002" class="edge">
<title>Node27&#45;&gt;Node2</title>
<g id="a_edge54_Node000027_Node000002"><a xlink:title=" ">
<path fill="none" stroke="#63b8ff" d="M996.94,-170.61C895.06,-164.11 642.81,-147.47 431.97,-129 420.13,-127.96 407.37,-126.72 395.48,-125.51"/>
<polygon fill="#63b8ff" stroke="#63b8ff" points="395.61,-122 385.3,-124.45 394.89,-128.96 395.61,-122"/>
</a>
</g>
</g>
<!-- Node27&#45;&gt;Node3 -->
<g id="edge49_Node000027_Node000003" class="edge">
<title>Node27&#45;&gt;Node3</title>
<g id="a_edge49_Node000027_Node000003"><a xlink:title=" ">
<path fill="none" stroke="#63b8ff" d="M1035.68,-164.54C1023.3,-150.07 996.62,-121.98 966.97,-110 913.06,-88.22 509.43,-71.49 385.23,-66.81"/>
<polygon fill="#63b8ff" stroke="#63b8ff" points="385.22,-63.31 375.09,-66.44 384.96,-70.31 385.22,-63.31"/>
</a>
</g>
</g>
<!-- Node27&#45;&gt;Node4 -->
<g id="edge55_Node000027_Node000004" class="edge">
<title>Node27&#45;&gt;Node4</title>
<g id="a_edge55_Node000027_Node000004"><a xlink:title=" ">
<path fill="none" stroke="#63b8ff" d="M1028.47,-165C999.11,-147.78 935.26,-110.39 933.97,-110 801.83,-70.17 451.74,-82.07 313.97,-74 282.26,-72.14 246.64,-70.04 218.75,-68.39"/>
<polygon fill="#63b8ff" stroke="#63b8ff" points="218.66,-64.88 208.47,-67.78 218.25,-71.87 218.66,-64.88"/>
</a>
</g>
</g>
<!-- Node27&#45;&gt;Node6 -->
<g id="edge56_Node000027_Node000006" class="edge">
<title>Node27&#45;&gt;Node6</title>
<g id="a_edge56_Node000027_Node000006"><a xlink:title=" ">
<path fill="none" stroke="#63b8ff" d="M1089.06,-165.22C1140.62,-155.95 1224.23,-140.93 1280.14,-130.89"/>
<polygon fill="#63b8ff" stroke="#63b8ff" points="1281.02,-134.29 1290.24,-129.07 1279.78,-127.4 1281.02,-134.29"/>
</a>
</g>
</g>
<!-- Node27&#45;&gt;Node7 -->
<g id="edge46_Node000027_Node000007" class="edge">
<title>Node27&#45;&gt;Node7</title>
<g id="a_edge46_Node000027_Node000007"><a xlink:title=" ">
<path fill="none" stroke="#63b8ff" d="M1089.07,-171.9C1176.34,-168.26 1362.03,-157.33 1418.97,-129 1440.05,-118.51 1457.84,-97.66 1468.68,-82.71"/>
<polygon fill="#63b8ff" stroke="#63b8ff" points="1471.68,-84.52 1474.49,-74.31 1465.92,-80.54 1471.68,-84.52"/>
</a>
</g>
</g>
<!-- Node27&#45;&gt;Node11 -->
<g id="edge51_Node000027_Node000011" class="edge">
<title>Node27&#45;&gt;Node11</title>
<g id="a_edge51_Node000027_Node000011"><a xlink:title=" ">
<path fill="none" stroke="#63b8ff" d="M1089.04,-174.06C1174.98,-174.11 1355.11,-169.26 1399.97,-129 1412.2,-118.02 1415.39,-99.07 1415.85,-84.72"/>
<polygon fill="#63b8ff" stroke="#63b8ff" points="1419.34,-84.41 1415.75,-74.44 1412.34,-84.47 1419.34,-84.41"/>
</a>
</g>
</g>
<!-- Node27&#45;&gt;Node16 -->
<g id="edge50_Node000027_Node000016" class="edge">
<title>Node27&#45;&gt;Node16</title>
<g id="a_edge50_Node000027_Node000016"><a xlink:title=" ">
<path fill="none" stroke="#63b8ff" d="M996.55,-171.3C872.86,-165.36 525.09,-148.14 235.97,-129 210.84,-127.34 182.5,-125.14 160.88,-123.4"/>
<polygon fill="#63b8ff" stroke="#63b8ff" points="161.11,-119.9 150.86,-122.58 160.54,-126.88 161.11,-119.9"/>
</a>
</g>
</g>
<!-- Node28 -->
<g id="Node000028" class="node">
<title>Node28</title>
<g id="a_Node000028"><a xlink:title=" ">
<polygon fill="#e0e0e0" stroke="#999999" points="1066.97,-129 1018.97,-129 1018.97,-110 1066.97,-110 1066.97,-129"/>
<text text-anchor="middle" x="1042.97" y="-117" font-family="Helvetica,sans-Serif" font-size="10.00">limits.h</text>
</a>
</g>
</g>
<!-- Node27&#45;&gt;Node28 -->
<g id="edge47_Node000027_Node000028" class="edge">
<title>Node27&#45;&gt;Node28</title>
<g id="a_edge47_Node000027_Node000028"><a xlink:title=" ">
<path fill="none" stroke="#63b8ff" d="M1042.97,-164.75C1042.97,-157.8 1042.97,-147.85 1042.97,-139.13"/>
<polygon fill="#63b8ff" stroke="#63b8ff" points="1046.47,-139.09 1042.97,-129.09 1039.47,-139.09 1046.47,-139.09"/>
</a>
</g>
</g>
<!-- Node29 -->
<g id="Node000029" class="node">
<title>Node29</title>
<g id="a_Node000029"><a xlink:title=" ">
<polygon fill="#e0e0e0" stroke="#999999" points="1136.97,-129 1084.97,-129 1084.97,-110 1136.97,-110 1136.97,-129"/>
<text text-anchor="middle" x="1110.97" y="-117" font-family="Helvetica,sans-Serif" font-size="10.00">stdarg.h</text>
</a>
</g>
</g>
<!-- Node27&#45;&gt;Node29 -->
<g id="edge48_Node000027_Node000029" class="edge">
<title>Node27&#45;&gt;Node29</title>
<g id="a_edge48_Node000027_Node000029"><a xlink:title=" ">
<path fill="none" stroke="#63b8ff" d="M1053.89,-164.98C1064.04,-157.07 1079.39,-145.11 1091.61,-135.58"/>
<polygon fill="#63b8ff" stroke="#63b8ff" points="1094.11,-138.08 1099.84,-129.17 1089.8,-132.56 1094.11,-138.08"/>
</a>
</g>
</g>
<!-- Node30 -->
<g id="Node000030" class="node">
<title>Node30</title>
<g id="a_Node000030"><a xlink:title=" ">
<polygon fill="#e0e0e0" stroke="#999999" points="1204.47,-129 1155.47,-129 1155.47,-110 1204.47,-110 1204.47,-129"/>
<text text-anchor="middle" x="1179.97" y="-117" font-family="Helvetica,sans-Serif" font-size="10.00">string.h</text>
</a>
</g>
</g>
<!-- Node27&#45;&gt;Node30 -->
<g id="edge52_Node000027_Node000030" class="edge">
<title>Node27&#45;&gt;Node30</title>
<g id="a_edge52_Node000027_Node000030"><a xlink:title=" ">
<path fill="none" stroke="#63b8ff" d="M1064.98,-164.98C1087.41,-156.3 1122.45,-142.75 1147.95,-132.88"/>
<polygon fill="#63b8ff" stroke="#63b8ff" points="1149.49,-136.04 1157.55,-129.17 1146.96,-129.51 1149.49,-136.04"/>
</a>
</g>
</g>
<!-- Node31 -->
<g id="Node000031" class="node">
<title>Node31</title>
<g id="a_Node000031"><a xlink:title=" ">
<polygon fill="#e0e0e0" stroke="#999999" points="1266.97,-129 1222.97,-129 1222.97,-110 1266.97,-110 1266.97,-129"/>
<text text-anchor="middle" x="1244.97" y="-117" font-family="Helvetica,sans-Serif" font-size="10.00">time.h</text>
</a>
</g>
</g>
<!-- Node27&#45;&gt;Node31 -->
<g id="edge53_Node000027_Node000031" class="edge">
<title>Node27&#45;&gt;Node31</title>
<g id="a_edge53_Node000027_Node000031"><a xlink:title=" ">
<path fill="none" stroke="#63b8ff" d="M1075.88,-164.92C1110.13,-155.99 1165.32,-141.56 1212.97,-129 1213.07,-128.97 1213.17,-128.95 1213.27,-128.92"/>
<polygon fill="#63b8ff" stroke="#63b8ff" points="1214.16,-132.3 1222.93,-126.36 1212.37,-125.54 1214.16,-132.3"/>
</a>
</g>
</g>
</g>
</svg>
