<?xml version="1.0" encoding="UTF-8" standalone="no"?>
<!DOCTYPE svg PUBLIC "-//W3C//DTD SVG 1.1//EN"
 "http://www.w3.org/Graphics/SVG/1.1/DTD/svg11.dtd">
<!-- Generated by graphviz version 2.43.0 (0)
 -->
<!-- Title: SocketTLS.h Pages: 1 -->
<svg width="1016pt" height="192pt"
 viewBox="0.00 0.00 1015.50 192.00" xmlns="http://www.w3.org/2000/svg" xmlns:xlink="http://www.w3.org/1999/xlink">
<g id="graph0" class="graph" transform="scale(1 1) rotate(0) translate(4 188)">
<title>SocketTLS.h</title>
<!-- Node1 -->
<g id="Node000001" class="node">
<title>Node1</title>
<g id="a_Node000001"><a xlink:title="TLS/SSL socket integration with TLS 1.3 support.">
<polygon fill="#999999" stroke="#666666" points="550,-184 476,-184 476,-165 550,-165 550,-184"/>
<text text-anchor="middle" x="513" y="-172" font-family="Helvetica,sans-Serif" font-size="10.00">SocketTLS.h</text>
</a>
</g>
</g>
<!-- Node2 -->
<g id="Node000002" class="node">
<title>Node2</title>
<g id="a_Node000002"><a xlink:href="SocketDTLSContext_8h.html" target="_top" xlink:title="DTLS context management with cookie protection and secure defaults.">
<polygon fill="white" stroke="#666666" points="280,-129 164,-129 164,-110 280,-110 280,-129"/>
<text text-anchor="middle" x="222" y="-117" font-family="Helvetica,sans-Serif" font-size="10.00">SocketDTLSContext.h</text>
</a>
</g>
</g>
<!-- Node1&#45;&gt;Node2 -->
<g id="edge1_Node000001_Node000002" class="edge">
<title>Node1&#45;&gt;Node2</title>
<g id="a_edge1_Node000001_Node000002"><a xlink:title=" ">
<path fill="none" stroke="#63b8ff" d="M465.81,-164.91C411.6,-155.03 323.18,-138.93 269.03,-129.07"/>
<polygon fill="#63b8ff" stroke="#63b8ff" points="465.38,-168.39 475.85,-166.73 466.64,-161.5 465.38,-168.39"/>
</a>
</g>
</g>
<!-- Node4 -->
<g id="Node000004" class="node">
<title>Node4</title>
<g id="a_Node000004"><a xlink:href="SocketTLS-private_8h.html" target="_top" xlink:title="TLS internal shared definitions and helper functions.">
<polygon fill="white" stroke="#666666" points="319,-74 213,-74 213,-55 319,-55 319,-74"/>
<text text-anchor="middle" x="266" y="-62" font-family="Helvetica,sans-Serif" font-size="10.00">SocketTLS&#45;private.h</text>
</a>
</g>
</g>
<!-- Node1&#45;&gt;Node4 -->
<g id="edge3_Node000001_Node000004" class="edge">
<title>Node1&#45;&gt;Node4</title>
<g id="a_edge3_Node000001_Node000004"><a xlink:title=" ">
<path fill="none" stroke="#63b8ff" d="M483.74,-160.71C432.71,-138.4 328.78,-92.95 285.55,-74.05"/>
<polygon fill="#63b8ff" stroke="#63b8ff" points="482.64,-164.05 493.2,-164.84 485.44,-157.63 482.64,-164.05"/>
</a>
</g>
</g>
<!-- Node5 -->
<g id="Node000005" class="node">
<title>Node5</title>
<g id="a_Node000005"><a xlink:href="SocketTLSContext_8h.html" target="_top" xlink:title="TLS context management with secure defaults and certificate handling.">
<polygon fill="white" stroke="#666666" points="601,-129 493,-129 493,-110 601,-110 601,-129"/>
<text text-anchor="middle" x="547" y="-117" font-family="Helvetica,sans-Serif" font-size="10.00">SocketTLSContext.h</text>
</a>
</g>
</g>
<!-- Node1&#45;&gt;Node5 -->
<g id="edge4_Node000001_Node000005" class="edge">
<title>Node1&#45;&gt;Node5</title>
<g id="a_edge4_Node000001_Node000005"><a xlink:title=" ">
<path fill="none" stroke="#63b8ff" d="M524.16,-156.1C529.97,-147.04 536.82,-136.37 541.49,-129.09"/>
<polygon fill="#63b8ff" stroke="#63b8ff" points="521.07,-154.44 518.61,-164.75 526.96,-158.22 521.07,-154.44"/>
</a>
</g>
</g>
<!-- Node18 -->
<g id="Node000018" class="node">
<title>Node18</title>
<g id="a_Node000018"><a xlink:href="proxy__connect_8c.html" target="_top" xlink:title=" ">
<polygon fill="white" stroke="#666666" points="1007.5,-19 918.5,-19 918.5,0 1007.5,0 1007.5,-19"/>
<text text-anchor="middle" x="963" y="-7" font-family="Helvetica,sans-Serif" font-size="10.00">proxy_connect.c</text>
</a>
</g>
</g>
<!-- Node1&#45;&gt;Node18 -->
<g id="edge20_Node000001_Node000018" class="edge">
<title>Node1&#45;&gt;Node18</title>
<g id="a_edge20_Node000001_Node000018"><a xlink:title=" ">
<path fill="none" stroke="#63b8ff" d="M560.57,-172.85C641.72,-169.51 808.98,-152.76 921,-74 940.89,-60.01 953.89,-33.33 959.62,-19.42"/>
<polygon fill="#63b8ff" stroke="#63b8ff" points="560.04,-169.36 550.17,-173.22 560.29,-176.36 560.04,-169.36"/>
</a>
</g>
</g>
<!-- Node3 -->
<g id="Node000003" class="node">
<title>Node3</title>
<g id="a_Node000003"><a xlink:href="SocketDTLS-private_8h.html" target="_top" xlink:title="DTLS internal shared definitions and helper functions.">
<polygon fill="white" stroke="#666666" points="194.5,-74 81.5,-74 81.5,-55 194.5,-55 194.5,-74"/>
<text text-anchor="middle" x="138" y="-62" font-family="Helvetica,sans-Serif" font-size="10.00">SocketDTLS&#45;private.h</text>
</a>
</g>
</g>
<!-- Node2&#45;&gt;Node3 -->
<g id="edge2_Node000002_Node000003" class="edge">
<title>Node2&#45;&gt;Node3</title>
<g id="a_edge2_Node000002_Node000003"><a xlink:title=" ">
<path fill="none" stroke="#63b8ff" d="M199.69,-104.42C184.45,-94.81 164.73,-82.37 151.74,-74.17"/>
<polygon fill="#63b8ff" stroke="#63b8ff" points="198.18,-107.61 208.5,-109.98 201.91,-101.69 198.18,-107.61"/>
</a>
</g>
</g>
<!-- Node5&#45;&gt;Node4 -->
<g id="edge18_Node000005_Node000004" class="edge">
<title>Node5&#45;&gt;Node4</title>
<g id="a_edge18_Node000005_Node000004"><a xlink:title=" ">
<path fill="none" stroke="#63b8ff" d="M492,-108.13C439.32,-98.19 360.76,-83.37 311.5,-74.08"/>
<polygon fill="#63b8ff" stroke="#63b8ff" points="491.38,-111.57 501.85,-109.98 492.67,-104.69 491.38,-111.57"/>
</a>
</g>
</g>
<!-- Node6 -->
<g id="Node000006" class="node">
<title>Node6</title>
<g id="a_Node000006"><a xlink:href="SocketHTTPClient_8h.html" target="_top" xlink:title="Public API for the HTTP client module, including types, functions, and configuration.">
<polygon fill="white" stroke="#666666" points="444.5,-74 337.5,-74 337.5,-55 444.5,-55 444.5,-74"/>
<text text-anchor="middle" x="391" y="-62" font-family="Helvetica,sans-Serif" font-size="10.00">SocketHTTPClient.h</text>
</a>
</g>
</g>
<!-- Node5&#45;&gt;Node6 -->
<g id="edge5_Node000005_Node000006" class="edge">
<title>Node5&#45;&gt;Node6</title>
<g id="a_edge5_Node000005_Node000006"><a xlink:title=" ">
<path fill="none" stroke="#63b8ff" d="M512.18,-106.67C483.09,-96.79 442.3,-82.93 416.26,-74.08"/>
<polygon fill="#63b8ff" stroke="#63b8ff" points="511.34,-110.08 521.94,-109.98 513.59,-103.45 511.34,-110.08"/>
</a>
</g>
</g>
<!-- Node11 -->
<g id="Node000011" class="node">
<title>Node11</title>
<g id="a_Node000011"><a xlink:href="SocketHTTPServer_8h.html" target="_top" xlink:title="High&#45;level HTTP server supporting HTTP/1.1 and HTTP/2 protocols.">
<polygon fill="white" stroke="#666666" points="602,-74 492,-74 492,-55 602,-55 602,-74"/>
<text text-anchor="middle" x="547" y="-62" font-family="Helvetica,sans-Serif" font-size="10.00">SocketHTTPServer.h</text>
</a>
</g>
</g>
<!-- Node5&#45;&gt;Node11 -->
<g id="edge10_Node000005_Node000011" class="edge">
<title>Node5&#45;&gt;Node11</title>
<g id="a_edge10_Node000005_Node000011"><a xlink:title=" ">
<path fill="none" stroke="#63b8ff" d="M547,-99.66C547,-90.93 547,-80.99 547,-74.09"/>
<polygon fill="#63b8ff" stroke="#63b8ff" points="543.5,-99.75 547,-109.75 550.5,-99.75 543.5,-99.75"/>
</a>
</g>
</g>
<!-- Node15 -->
<g id="Node000015" class="node">
<title>Node15</title>
<g id="a_Node000015"><a xlink:href="SocketPool-private_8h.html" target="_top" xlink:title="Private implementation details and internal structures for SocketPool module.">
<polygon fill="white" stroke="#666666" points="727.5,-74 620.5,-74 620.5,-55 727.5,-55 727.5,-74"/>
<text text-anchor="middle" x="674" y="-62" font-family="Helvetica,sans-Serif" font-size="10.00">SocketPool&#45;private.h</text>
</a>
</g>
</g>
<!-- Node5&#45;&gt;Node15 -->
<g id="edge14_Node000005_Node000015" class="edge">
<title>Node5&#45;&gt;Node15</title>
<g id="a_edge14_Node000005_Node000015"><a xlink:title=" ">
<path fill="none" stroke="#63b8ff" d="M576.88,-106.03C600.37,-96.23 632.47,-82.83 653.22,-74.17"/>
<polygon fill="#63b8ff" stroke="#63b8ff" points="575.29,-102.9 567.4,-109.98 577.98,-109.36 575.29,-102.9"/>
</a>
</g>
</g>
<!-- Node16 -->
<g id="Node000016" class="node">
<title>Node16</title>
<g id="a_Node000016"><a xlink:href="SocketProxy_8h.html" target="_top" xlink:title="Proxy tunneling module for HTTP CONNECT and SOCKS protocols.">
<polygon fill="white" stroke="#666666" points="884,-74 804,-74 804,-55 884,-55 884,-74"/>
<text text-anchor="middle" x="844" y="-62" font-family="Helvetica,sans-Serif" font-size="10.00">SocketProxy.h</text>
</a>
</g>
</g>
<!-- Node5&#45;&gt;Node16 -->
<g id="edge15_Node000005_Node000016" class="edge">
<title>Node5&#45;&gt;Node16</title>
<g id="a_edge15_Node000005_Node000016"><a xlink:title=" ">
<path fill="none" stroke="#63b8ff" d="M604.91,-108.17C663.4,-97.73 752.24,-81.87 803.56,-72.72"/>
<polygon fill="#63b8ff" stroke="#63b8ff" points="603.95,-104.78 594.72,-109.98 605.18,-111.67 603.95,-104.78"/>
</a>
</g>
</g>
<!-- Node5&#45;&gt;Node18 -->
<g id="edge19_Node000005_Node000018" class="edge">
<title>Node5&#45;&gt;Node18</title>
<g id="a_edge19_Node000005_Node000018"><a xlink:title=" ">
<path fill="none" stroke="#63b8ff" d="M611.18,-114.85C697.07,-109.18 844.25,-96.49 893,-74 920.71,-61.21 945.11,-33.49 956.38,-19.28"/>
<polygon fill="#63b8ff" stroke="#63b8ff" points="610.78,-111.37 601.02,-115.5 611.23,-118.35 610.78,-111.37"/>
</a>
</g>
</g>
<!-- Node7 -->
<g id="Node000007" class="node">
<title>Node7</title>
<g id="a_Node000007"><a xlink:href="SocketHTTPClient-private_8h.html" target="_top" xlink:title="Internal HTTP client structures and connection pooling.">
<polygon fill="white" stroke="#666666" points="140,-19 0,-19 0,0 140,0 140,-19"/>
<text text-anchor="middle" x="70" y="-7" font-family="Helvetica,sans-Serif" font-size="10.00">SocketHTTPClient&#45;private.h</text>
</a>
</g>
</g>
<!-- Node6&#45;&gt;Node7 -->
<g id="edge6_Node000006_Node000007" class="edge">
<title>Node6&#45;&gt;Node7</title>
<g id="a_edge6_Node000006_Node000007"><a xlink:title=" ">
<path fill="none" stroke="#63b8ff" d="M329.28,-53.31C269,-43.36 178.31,-28.38 121.71,-19.04"/>
<polygon fill="#63b8ff" stroke="#63b8ff" points="328.99,-56.81 339.43,-54.98 330.13,-49.9 328.99,-56.81"/>
</a>
</g>
</g>
<!-- Node8 -->
<g id="Node000008" class="node">
<title>Node8</title>
<g id="a_Node000008"><a xlink:href="http2__client_8c.html" target="_top" xlink:title=" ">
<polygon fill="white" stroke="#666666" points="233.5,-19 158.5,-19 158.5,0 233.5,0 233.5,-19"/>
<text text-anchor="middle" x="196" y="-7" font-family="Helvetica,sans-Serif" font-size="10.00">http2_client.c</text>
</a>
</g>
</g>
<!-- Node6&#45;&gt;Node8 -->
<g id="edge7_Node000006_Node000008" class="edge">
<title>Node6&#45;&gt;Node8</title>
<g id="a_edge7_Node000006_Node000008"><a xlink:title=" ">
<path fill="none" stroke="#63b8ff" d="M349.83,-52.31C313.34,-42.39 260.83,-28.12 227.58,-19.08"/>
<polygon fill="#63b8ff" stroke="#63b8ff" points="349.1,-55.74 359.67,-54.98 350.94,-48.98 349.1,-55.74"/>
</a>
</g>
</g>
<!-- Node9 -->
<g id="Node000009" class="node">
<title>Node9</title>
<g id="a_Node000009"><a xlink:href="http__get_8c.html" target="_top" xlink:title=" ">
<polygon fill="white" stroke="#666666" points="311,-19 251,-19 251,0 311,0 311,-19"/>
<text text-anchor="middle" x="281" y="-7" font-family="Helvetica,sans-Serif" font-size="10.00">http_get.c</text>
</a>
</g>
</g>
<!-- Node6&#45;&gt;Node9 -->
<g id="edge8_Node000006_Node000009" class="edge">
<title>Node6&#45;&gt;Node9</title>
<g id="a_edge8_Node000006_Node000009"><a xlink:title=" ">
<path fill="none" stroke="#63b8ff" d="M364.3,-50.63C344.03,-40.87 316.73,-27.71 298.99,-19.17"/>
<polygon fill="#63b8ff" stroke="#63b8ff" points="362.8,-53.8 373.33,-54.98 365.84,-47.49 362.8,-53.8"/>
</a>
</g>
</g>
<!-- Node10 -->
<g id="Node000010" class="node">
<title>Node10</title>
<g id="a_Node000010"><a xlink:href="http__post_8c.html" target="_top" xlink:title=" ">
<polygon fill="white" stroke="#666666" points="394.5,-19 329.5,-19 329.5,0 394.5,0 394.5,-19"/>
<text text-anchor="middle" x="362" y="-7" font-family="Helvetica,sans-Serif" font-size="10.00">http_post.c</text>
</a>
</g>
</g>
<!-- Node6&#45;&gt;Node10 -->
<g id="edge9_Node000006_Node000010" class="edge">
<title>Node6&#45;&gt;Node10</title>
<g id="a_edge9_Node000006_Node000010"><a xlink:title=" ">
<path fill="none" stroke="#63b8ff" d="M381.32,-45.82C376.4,-36.82 370.64,-26.29 366.7,-19.09"/>
<polygon fill="#63b8ff" stroke="#63b8ff" points="378.34,-47.66 386.21,-54.75 384.48,-44.3 378.34,-47.66"/>
</a>
</g>
</g>
<!-- Node12 -->
<g id="Node000012" class="node">
<title>Node12</title>
<g id="a_Node000012"><a xlink:href="SocketHTTPServer-private_8h.html" target="_top" xlink:title="Private implementation details for HTTP server connection and state management.">
<polygon fill="white" stroke="#666666" points="555.5,-19 412.5,-19 412.5,0 555.5,0 555.5,-19"/>
<text text-anchor="middle" x="484" y="-7" font-family="Helvetica,sans-Serif" font-size="10.00">SocketHTTPServer&#45;private.h</text>
</a>
</g>
</g>
<!-- Node11&#45;&gt;Node12 -->
<g id="edge11_Node000011_Node000012" class="edge">
<title>Node11&#45;&gt;Node12</title>
<g id="a_edge11_Node000011_Node000012"><a xlink:title=" ">
<path fill="none" stroke="#63b8ff" d="M528.96,-48.32C517.73,-38.87 503.68,-27.06 494.31,-19.17"/>
<polygon fill="#63b8ff" stroke="#63b8ff" points="526.97,-51.23 536.88,-54.98 531.48,-45.87 526.97,-51.23"/>
</a>
</g>
</g>
<!-- Node13 -->
<g id="Node000013" class="node">
<title>Node13</title>
<g id="a_Node000013"><a xlink:href="http__server_8c.html" target="_top" xlink:title=" ">
<polygon fill="white" stroke="#666666" points="646.5,-19 573.5,-19 573.5,0 646.5,0 646.5,-19"/>
<text text-anchor="middle" x="610" y="-7" font-family="Helvetica,sans-Serif" font-size="10.00">http_server.c</text>
</a>
</g>
</g>
<!-- Node11&#45;&gt;Node13 -->
<g id="edge12_Node000011_Node000013" class="edge">
<title>Node11&#45;&gt;Node13</title>
<g id="a_edge12_Node000011_Node000013"><a xlink:title=" ">
<path fill="none" stroke="#63b8ff" d="M565.04,-48.32C576.27,-38.87 590.32,-27.06 599.69,-19.17"/>
<polygon fill="#63b8ff" stroke="#63b8ff" points="562.52,-45.87 557.12,-54.98 567.03,-51.23 562.52,-45.87"/>
</a>
</g>
</g>
<!-- Node14 -->
<g id="Node000014" class="node">
<title>Node14</title>
<g id="a_Node000014"><a xlink:href="websocket__server_8c.html" target="_top" xlink:title=" ">
<polygon fill="white" stroke="#666666" points="769,-19 665,-19 665,0 769,0 769,-19"/>
<text text-anchor="middle" x="717" y="-7" font-family="Helvetica,sans-Serif" font-size="10.00">websocket_server.c</text>
</a>
</g>
</g>
<!-- Node11&#45;&gt;Node14 -->
<g id="edge13_Node000011_Node000014" class="edge">
<title>Node11&#45;&gt;Node14</title>
<g id="a_edge13_Node000011_Node000014"><a xlink:title=" ">
<path fill="none" stroke="#63b8ff" d="M584.12,-51.93C615.87,-42.03 660.85,-28.01 689.47,-19.08"/>
<polygon fill="#63b8ff" stroke="#63b8ff" points="582.82,-48.67 574.31,-54.98 584.9,-55.35 582.82,-48.67"/>
</a>
</g>
</g>
<!-- Node17 -->
<g id="Node000017" class="node">
<title>Node17</title>
<g id="a_Node000017"><a xlink:href="SocketProxy-private_8h.html" target="_top" xlink:title="Internal structures and functions for SocketProxy module.">
<polygon fill="white" stroke="#666666" points="900.5,-19 787.5,-19 787.5,0 900.5,0 900.5,-19"/>
<text text-anchor="middle" x="844" y="-7" font-family="Helvetica,sans-Serif" font-size="10.00">SocketProxy&#45;private.h</text>
</a>
</g>
</g>
<!-- Node16&#45;&gt;Node17 -->
<g id="edge16_Node000016_Node000017" class="edge">
<title>Node16&#45;&gt;Node17</title>
<g id="a_edge16_Node000016_Node000017"><a xlink:title=" ">
<path fill="none" stroke="#63b8ff" d="M844,-44.66C844,-35.93 844,-25.99 844,-19.09"/>
<polygon fill="#63b8ff" stroke="#63b8ff" points="840.5,-44.75 844,-54.75 847.5,-44.75 840.5,-44.75"/>
</a>
</g>
</g>
<!-- Node16&#45;&gt;Node18 -->
<g id="edge17_Node000016_Node000018" class="edge">
<title>Node16&#45;&gt;Node18</title>
<g id="a_edge17_Node000016_Node000018"><a xlink:title=" ">
<path fill="none" stroke="#63b8ff" d="M872.3,-50.9C894.28,-41.11 924.18,-27.79 943.53,-19.17"/>
<polygon fill="#63b8ff" stroke="#63b8ff" points="870.83,-47.72 863.12,-54.98 873.68,-54.11 870.83,-47.72"/>
</a>
</g>
</g>
</g>
</svg>
