<?xml version="1.0" encoding="UTF-8" standalone="no"?>
<!DOCTYPE svg PUBLIC "-//W3C//DTD SVG 1.1//EN"
 "http://www.w3.org/Graphics/SVG/1.1/DTD/svg11.dtd">
<!-- Generated by graphviz version 2.43.0 (0)
 -->
<!-- Title: SocketHTTP1.h Pages: 1 -->
<svg width="403pt" height="247pt"
 viewBox="0.00 0.00 402.65 247.00" xmlns="http://www.w3.org/2000/svg" xmlns:xlink="http://www.w3.org/1999/xlink">

<svg id="main" version="1.1" xmlns="http://www.w3.org/2000/svg" xmlns:xlink="http://www.w3.org/1999/xlink" xml:space="preserve" onload="init(evt)">
<style type="text/css"><![CDATA[
.node, .edge {opacity: 0.7;}
.node.selected, .edge.selected {opacity: 1;}
.edge:hover path { stroke: red; }
.edge:hover polygon { stroke: red; fill: red; }
]]></style>
<script type="application/ecmascript" xlink:href="svg.min.js"/>
<svg id="graph" class="graph">
<g id="graph0" class="graph" transform="scale(1 1) rotate(0) translate(4 243)">
<title>SocketHTTP1.h</title>
<!-- Node1 -->
<g id="Node000001" class="node">
<title>Node1</title>
<g id="a_Node000001"><a xlink:title=" ">
<polygon fill="#999999" stroke="#666666" points="202.6,-239 115.6,-239 115.6,-220 202.6,-220 202.6,-239"/>
<text text-anchor="middle" x="159.1" y="-227" font-family="Helvetica,sans-Serif" font-size="10.00">SocketHTTP1.h</text>
</a>
</g>
</g>
<!-- Node2 -->
<g id="Node000002" class="node">
<title>Node2</title>
<g id="a_Node000002"><a xlink:title=" ">
<polygon fill="#e0e0e0" stroke="#999999" points="208.1,-74 156.1,-74 156.1,-55 208.1,-55 208.1,-74"/>
<text text-anchor="middle" x="182.1" y="-62" font-family="Helvetica,sans-Serif" font-size="10.00">stddef.h</text>
</a>
</g>
</g>
<!-- Node1&#45;&gt;Node2 -->
<g id="edge1_Node000001_Node000002" class="edge">
<title>Node1&#45;&gt;Node2</title>
<g id="a_edge1_Node000001_Node000002"><a xlink:title=" ">
<path fill="none" stroke="#63b8ff" d="M130.02,-219.97C76.13,-202.7 -30.35,-160.88 9.1,-110 25.71,-88.57 100.36,-75.65 146,-69.62"/>
<polygon fill="#63b8ff" stroke="#63b8ff" points="146.62,-73.07 156.1,-68.33 145.73,-66.12 146.62,-73.07"/>
</a>
</g>
</g>
<!-- Node3 -->
<g id="Node000003" class="node">
<title>Node3</title>
<g id="a_Node000003"><a xlink:title=" ">
<polygon fill="#e0e0e0" stroke="#999999" points="67.6,-129 18.6,-129 18.6,-110 67.6,-110 67.6,-129"/>
<text text-anchor="middle" x="43.1" y="-117" font-family="Helvetica,sans-Serif" font-size="10.00">stdint.h</text>
</a>
</g>
</g>
<!-- Node1&#45;&gt;Node3 -->
<g id="edge2_Node000001_Node000003" class="edge">
<title>Node1&#45;&gt;Node3</title>
<g id="a_edge2_Node000001_Node000003"><a xlink:title=" ">
<path fill="none" stroke="#63b8ff" d="M149.61,-219.66C129.97,-201.38 84.65,-159.18 59.93,-136.17"/>
<polygon fill="#63b8ff" stroke="#63b8ff" points="62.1,-133.41 52.4,-129.16 57.33,-138.53 62.1,-133.41"/>
</a>
</g>
</g>
<!-- Node4 -->
<g id="Node000004" class="node">
<title>Node4</title>
<g id="a_Node000004"><a xlink:title=" ">
<polygon fill="#e0e0e0" stroke="#999999" points="154.1,-129 86.1,-129 86.1,-110 154.1,-110 154.1,-129"/>
<text text-anchor="middle" x="120.1" y="-117" font-family="Helvetica,sans-Serif" font-size="10.00">sys/types.h</text>
</a>
</g>
</g>
<!-- Node1&#45;&gt;Node4 -->
<g id="edge3_Node000001_Node000004" class="edge">
<title>Node1&#45;&gt;Node4</title>
<g id="a_edge3_Node000001_Node000004"><a xlink:title=" ">
<path fill="none" stroke="#63b8ff" d="M154.77,-219.78C150.46,-210.91 143.83,-196.7 139.1,-184 133.57,-169.15 128.49,-151.91 124.98,-139.14"/>
<polygon fill="#63b8ff" stroke="#63b8ff" points="128.3,-138 122.33,-129.25 121.54,-139.81 128.3,-138"/>
</a>
</g>
</g>
<!-- Node5 -->
<g id="Node000005" class="node">
<title>Node5</title>
<g id="a_Node000005"><a xlink:href="Arena_8h.html" target="_top" xlink:title=" ">
<polygon fill="white" stroke="#666666" points="382.1,-129 310.1,-129 310.1,-110 382.1,-110 382.1,-129"/>
<text text-anchor="middle" x="346.1" y="-117" font-family="Helvetica,sans-Serif" font-size="10.00">core/Arena.h</text>
</a>
</g>
</g>
<!-- Node1&#45;&gt;Node5 -->
<g id="edge4_Node000001_Node000005" class="edge">
<title>Node1&#45;&gt;Node5</title>
<g id="a_edge4_Node000001_Node000005"><a xlink:title=" ">
<path fill="none" stroke="#63b8ff" d="M181.11,-219.94C201.37,-211.73 232.01,-198.47 257.1,-184 282.59,-169.31 309.83,-149.13 327.37,-135.5"/>
<polygon fill="#63b8ff" stroke="#63b8ff" points="329.9,-137.96 335.59,-129.03 325.57,-132.46 329.9,-137.96"/>
</a>
</g>
</g>
<!-- Node6 -->
<g id="Node000006" class="node">
<title>Node6</title>
<g id="a_Node000006"><a xlink:href="Except_8h.html" target="_top" xlink:title=" ">
<polygon fill="white" stroke="#666666" points="384.6,-74 307.6,-74 307.6,-55 384.6,-55 384.6,-74"/>
<text text-anchor="middle" x="346.1" y="-62" font-family="Helvetica,sans-Serif" font-size="10.00">core/Except.h</text>
</a>
</g>
</g>
<!-- Node1&#45;&gt;Node6 -->
<g id="edge8_Node000001_Node000006" class="edge">
<title>Node1&#45;&gt;Node6</title>
<g id="a_edge8_Node000001_Node000006"><a xlink:title=" ">
<path fill="none" stroke="#63b8ff" d="M203.03,-224.45C258.47,-216.67 351.37,-194.09 391.1,-129 401.71,-111.62 384.23,-92.69 368.05,-80.06"/>
<polygon fill="#63b8ff" stroke="#63b8ff" points="370.01,-77.16 359.87,-74.08 365.87,-82.81 370.01,-77.16"/>
</a>
</g>
</g>
<!-- Node8 -->
<g id="Node000008" class="node">
<title>Node8</title>
<g id="a_Node000008"><a xlink:href="SocketHTTP_8h.html" target="_top" xlink:title=" ">
<polygon fill="white" stroke="#666666" points="248.1,-184 148.1,-184 148.1,-165 248.1,-165 248.1,-184"/>
<text text-anchor="middle" x="198.1" y="-172" font-family="Helvetica,sans-Serif" font-size="10.00">http/SocketHTTP.h</text>
</a>
</g>
</g>
<!-- Node1&#45;&gt;Node8 -->
<g id="edge9_Node000001_Node000008" class="edge">
<title>Node1&#45;&gt;Node8</title>
<g id="a_edge9_Node000001_Node000008"><a xlink:title=" ">
<path fill="none" stroke="#63b8ff" d="M165.54,-219.75C170.99,-212.34 178.96,-201.5 185.66,-192.41"/>
<polygon fill="#63b8ff" stroke="#63b8ff" points="188.67,-194.22 191.78,-184.09 183.03,-190.07 188.67,-194.22"/>
</a>
</g>
</g>
<!-- Node5&#45;&gt;Node2 -->
<g id="edge5_Node000005_Node000002" class="edge">
<title>Node5&#45;&gt;Node2</title>
<g id="a_edge5_Node000005_Node000002"><a xlink:title=" ">
<path fill="none" stroke="#63b8ff" d="M319.75,-109.98C292.17,-101.07 248.7,-87.02 217.99,-77.1"/>
<polygon fill="#63b8ff" stroke="#63b8ff" points="218.7,-73.65 208.11,-73.91 216.55,-80.31 218.7,-73.65"/>
</a>
</g>
</g>
<!-- Node5&#45;&gt;Node6 -->
<g id="edge6_Node000005_Node000006" class="edge">
<title>Node5&#45;&gt;Node6</title>
<g id="a_edge6_Node000005_Node000006"><a xlink:title=" ">
<path fill="none" stroke="#63b8ff" d="M346.1,-109.75C346.1,-102.8 346.1,-92.85 346.1,-84.13"/>
<polygon fill="#63b8ff" stroke="#63b8ff" points="349.6,-84.09 346.1,-74.09 342.6,-84.09 349.6,-84.09"/>
</a>
</g>
</g>
<!-- Node7 -->
<g id="Node000007" class="node">
<title>Node7</title>
<g id="a_Node000007"><a xlink:title=" ">
<polygon fill="#e0e0e0" stroke="#999999" points="373.1,-19 319.1,-19 319.1,0 373.1,0 373.1,-19"/>
<text text-anchor="middle" x="346.1" y="-7" font-family="Helvetica,sans-Serif" font-size="10.00">setjmp.h</text>
</a>
</g>
</g>
<!-- Node6&#45;&gt;Node7 -->
<g id="edge7_Node000006_Node000007" class="edge">
<title>Node6&#45;&gt;Node7</title>
<g id="a_edge7_Node000006_Node000007"><a xlink:title=" ">
<path fill="none" stroke="#63b8ff" d="M346.1,-54.75C346.1,-47.8 346.1,-37.85 346.1,-29.13"/>
<polygon fill="#63b8ff" stroke="#63b8ff" points="349.6,-29.09 346.1,-19.09 342.6,-29.09 349.6,-29.09"/>
</a>
</g>
</g>
<!-- Node8&#45;&gt;Node2 -->
<g id="edge10_Node000008_Node000002" class="edge">
<title>Node8&#45;&gt;Node2</title>
<g id="a_edge10_Node000008_Node000002"><a xlink:title=" ">
<path fill="none" stroke="#63b8ff" d="M196.79,-164.66C194.2,-147.17 188.37,-107.8 184.88,-84.27"/>
<polygon fill="#63b8ff" stroke="#63b8ff" points="188.31,-83.54 183.38,-74.16 181.39,-84.56 188.31,-83.54"/>
</a>
</g>
</g>
<!-- Node8&#45;&gt;Node3 -->
<g id="edge11_Node000008_Node000003" class="edge">
<title>Node8&#45;&gt;Node3</title>
<g id="a_edge11_Node000008_Node000003"><a xlink:title=" ">
<path fill="none" stroke="#63b8ff" d="M173.2,-164.98C147.25,-156.11 106.4,-142.14 77.4,-132.23"/>
<polygon fill="#63b8ff" stroke="#63b8ff" points="78.28,-128.83 67.69,-128.91 76.01,-135.45 78.28,-128.83"/>
</a>
</g>
</g>
<!-- Node8&#45;&gt;Node4 -->
<g id="edge12_Node000008_Node000004" class="edge">
<title>Node8&#45;&gt;Node4</title>
<g id="a_edge12_Node000008_Node000004"><a xlink:title=" ">
<path fill="none" stroke="#63b8ff" d="M185.57,-164.98C173.7,-156.92 155.64,-144.65 141.49,-135.03"/>
<polygon fill="#63b8ff" stroke="#63b8ff" points="143.1,-131.9 132.86,-129.17 139.16,-137.69 143.1,-131.9"/>
</a>
</g>
</g>
<!-- Node8&#45;&gt;Node5 -->
<g id="edge14_Node000008_Node000005" class="edge">
<title>Node8&#45;&gt;Node5</title>
<g id="a_edge14_Node000008_Node000005"><a xlink:title=" ">
<path fill="none" stroke="#63b8ff" d="M221.88,-164.98C246.33,-156.23 284.63,-142.51 312.24,-132.62"/>
<polygon fill="#63b8ff" stroke="#63b8ff" points="313.65,-135.84 321.89,-129.17 311.29,-129.25 313.65,-135.84"/>
</a>
</g>
</g>
<!-- Node8&#45;&gt;Node6 -->
<g id="edge15_Node000008_Node000006" class="edge">
<title>Node8&#45;&gt;Node6</title>
<g id="a_edge15_Node000008_Node000006"><a xlink:title=" ">
<path fill="none" stroke="#63b8ff" d="M211.19,-164.83C224.42,-156.01 245.38,-141.83 263.1,-129 285.5,-112.78 310.65,-93.36 327.34,-80.31"/>
<polygon fill="#63b8ff" stroke="#63b8ff" points="329.52,-83.04 335.23,-74.11 325.2,-77.53 329.52,-83.04"/>
</a>
</g>
</g>
<!-- Node9 -->
<g id="Node000009" class="node">
<title>Node9</title>
<g id="a_Node000009"><a xlink:title=" ">
<polygon fill="#e0e0e0" stroke="#999999" points="254.1,-129 210.1,-129 210.1,-110 254.1,-110 254.1,-129"/>
<text text-anchor="middle" x="232.1" y="-117" font-family="Helvetica,sans-Serif" font-size="10.00">time.h</text>
</a>
</g>
</g>
<!-- Node8&#45;&gt;Node9 -->
<g id="edge13_Node000008_Node000009" class="edge">
<title>Node8&#45;&gt;Node9</title>
<g id="a_edge13_Node000008_Node000009"><a xlink:title=" ">
<path fill="none" stroke="#63b8ff" d="M203.71,-164.75C208.42,-157.42 215.27,-146.73 221.07,-137.7"/>
<polygon fill="#63b8ff" stroke="#63b8ff" points="224.14,-139.4 226.59,-129.09 218.24,-135.62 224.14,-139.4"/>
</a>
</g>
</g>
</g>
</svg>
</svg>

<style type='text/css'>
<![CDATA[
[data-mouse-over-selected='false'] { opacity: 0.7; }
[data-mouse-over-selected='true']  { opacity: 1.0; }
]]>
</style>
<script type="application/ecmascript"><![CDATA[
document.addEventListener('DOMContentLoaded', (event) => {
  highlightEdges();
  highlightAdjacentNodes();
});
]]></script>
</svg>
