<?xml version="1.0" encoding="UTF-8" standalone="no"?>
<!DOCTYPE svg PUBLIC "-//W3C//DTD SVG 1.1//EN"
 "http://www.w3.org/Graphics/SVG/1.1/DTD/svg11.dtd">
<!-- Generated by graphviz version 2.43.0 (0)
 -->
<!-- Title: SocketConfig.h Pages: 1 -->
<!--zoomable 357 -->

<svg id="main" version="1.1" xmlns="http://www.w3.org/2000/svg" xmlns:xlink="http://www.w3.org/1999/xlink" xml:space="preserve" onload="init(evt)">
<style type="text/css"><![CDATA[
.node, .edge {opacity: 0.7;}
.node.selected, .edge.selected {opacity: 1;}
.edge:hover path { stroke: red; }
.edge:hover polygon { stroke: red; fill: red; }
]]></style>

<defs>
  <circle id="rim" cx="0" cy="0" r="7"/>
  <circle id="rim2" cx="0" cy="0" r="3.5"/>
  <g id="zoomPlus">
    <use xlink:href="#rim" fill="#404040"><set attributeName="fill" to="#808080" begin="zoomplus.mouseover" end="zoomplus.mouseout"/></use>
    <path d="M-4,0h8M0,-4v8" fill="none" stroke="white" stroke-width="1.5" pointer-events="none"/>
  </g>
  <g id="zoomMin">
    <use xlink:href="#rim" fill="#404040"><set attributeName="fill" to="#808080" begin="zoomminus.mouseover" end="zoomminus.mouseout"/></use>
    <path d="M-4,0h8" fill="none" stroke="white" stroke-width="1.5" pointer-events="none"/>
  </g>
  <g id="arrowUp" transform="translate(30 24)">
    <use xlink:href="#rim"/>
    <path pointer-events="none" fill="none" stroke="white" stroke-width="1.5" d="M0,-3.0v7 M-2.5,-0.5L0,-3.0L2.5,-0.5"/>
  </g>
  <g id="arrowRight" transform="rotate(90) translate(36 -43)">
    <use xlink:href="#rim"/>
    <path pointer-events="none" fill="none" stroke="white" stroke-width="1.5" d="M0,-3.0v7 M-2.5,-0.5L0,-3.0L2.5,-0.5"/>
  </g>
  <g id="arrowDown" transform="rotate(180) translate(-30 -48)">
    <use xlink:href="#rim"/>
    <path pointer-events="none" fill="none" stroke="white" stroke-width="1.5" d="M0,-3.0v7 M-2.5,-0.5L0,-3.0L2.5,-0.5"/>
  </g>
  <g id="arrowLeft" transform="rotate(270) translate(-36 17)">
    <use xlink:href="#rim"/>
    <path pointer-events="none" fill="none" stroke="white" stroke-width="1.5" d="M0,-3.0v7 M-2.5,-0.5L0,-3.0L2.5,-0.5"/>
  </g>
  <g id="resetDef">
    <use xlink:href="#rim2" fill="#404040"><set attributeName="fill" to="#808080" begin="reset.mouseover" end="reset.mouseout"/></use>
  </g>
</defs>
<script type="application/ecmascript">
var viewWidth = 1745;
var viewHeight = 357;
var sectionId = 'dynsection-1';
</script>
<script type="application/ecmascript" xlink:href="svg.min.js"/>
<svg id="graph" class="graph">
<g id="viewport">
<title>SocketConfig.h</title>
<!-- Node1 -->
<g id="Node000001" class="node">
<title>Node1</title>
<g id="a_Node000001"><a xlink:title=" ">
<polygon fill="#999999" stroke="#666666" points="1597,-349 1513,-349 1513,-330 1597,-330 1597,-349"/>
<text text-anchor="middle" x="1555" y="-337" font-family="Helvetica,sans-Serif" font-size="10.00">SocketConfig.h</text>
</a>
</g>
</g>
<!-- Node2 -->
<g id="Node000002" class="node">
<title>Node2</title>
<g id="a_Node000002"><a xlink:href="Socket_8h.html" target="_top" xlink:title=" ">
<polygon fill="white" stroke="#666666" points="938,-239 882,-239 882,-220 938,-220 938,-239"/>
<text text-anchor="middle" x="910" y="-227" font-family="Helvetica,sans-Serif" font-size="10.00">Socket.h</text>
</a>
</g>
</g>
<!-- Node1&#45;&gt;Node2 -->
<g id="edge1_Node000001_Node000002" class="edge">
<title>Node1&#45;&gt;Node2</title>
<g id="a_edge1_Node000001_Node000002"><a xlink:title=" ">
<path fill="none" stroke="#63b8ff" d="M1502.56,-329.72C1372.32,-307.91 1037.48,-251.85 938.17,-235.22"/>
<polygon fill="#63b8ff" stroke="#63b8ff" points="1502.24,-333.21 1512.68,-331.41 1503.4,-326.31 1502.24,-333.21"/>
</a>
</g>
</g>
<!-- Node26 -->
<g id="Node000026" class="node">
<title>Node26</title>
<g id="a_Node000026"><a xlink:href="SocketCommon_8h.html" target="_top" xlink:title=" ">
<polygon fill="white" stroke="#666666" points="1501.5,-294 1406.5,-294 1406.5,-275 1501.5,-275 1501.5,-294"/>
<text text-anchor="middle" x="1454" y="-282" font-family="Helvetica,sans-Serif" font-size="10.00">SocketCommon.h</text>
</a>
</g>
</g>
<!-- Node1&#45;&gt;Node26 -->
<g id="edge41_Node000001_Node000026" class="edge">
<title>Node1&#45;&gt;Node26</title>
<g id="a_edge41_Node000001_Node000026"><a xlink:title=" ">
<path fill="none" stroke="#63b8ff" d="M1529.72,-325.23C1511.2,-315.51 1486.58,-302.6 1470.52,-294.17"/>
<polygon fill="#63b8ff" stroke="#63b8ff" points="1528.29,-328.44 1538.77,-329.98 1531.54,-322.24 1528.29,-328.44"/>
</a>
</g>
</g>
<!-- Node29 -->
<g id="Node000029" class="node">
<title>Node29</title>
<g id="a_Node000029"><a xlink:href="SocketSYNProtect_8h.html" target="_top" xlink:title=" ">
<polygon fill="white" stroke="#666666" points="1691,-239 1583,-239 1583,-220 1691,-220 1691,-239"/>
<text text-anchor="middle" x="1637" y="-227" font-family="Helvetica,sans-Serif" font-size="10.00">SocketSYNProtect.h</text>
</a>
</g>
</g>
<!-- Node1&#45;&gt;Node29 -->
<g id="edge45_Node000001_Node000029" class="edge">
<title>Node1&#45;&gt;Node29</title>
<g id="a_edge45_Node000001_Node000029"><a xlink:title=" ">
<path fill="none" stroke="#63b8ff" d="M1572.56,-323.19C1581.36,-315.02 1591.86,-304.51 1600,-294 1614.07,-275.85 1626.65,-251.83 1632.87,-239.17"/>
<polygon fill="#63b8ff" stroke="#63b8ff" points="1570.13,-320.66 1565.06,-329.96 1574.83,-325.85 1570.13,-320.66"/>
</a>
</g>
</g>
<!-- Node30 -->
<g id="Node000030" class="node">
<title>Node30</title>
<g id="a_Node000030"><a xlink:href="SocketSecurity_8h.html" target="_top" xlink:title=" ">
<polygon fill="white" stroke="#666666" points="1737,-294 1647,-294 1647,-275 1737,-275 1737,-294"/>
<text text-anchor="middle" x="1692" y="-282" font-family="Helvetica,sans-Serif" font-size="10.00">SocketSecurity.h</text>
</a>
</g>
</g>
<!-- Node1&#45;&gt;Node30 -->
<g id="edge47_Node000001_Node000030" class="edge">
<title>Node1&#45;&gt;Node30</title>
<g id="a_edge47_Node000001_Node000030"><a xlink:title=" ">
<path fill="none" stroke="#63b8ff" d="M1586.56,-326.29C1611.95,-316.47 1647,-302.91 1669.59,-294.17"/>
<polygon fill="#63b8ff" stroke="#63b8ff" points="1585.08,-323.11 1577.01,-329.98 1587.6,-329.64 1585.08,-323.11"/>
</a>
</g>
</g>
<!-- Node31 -->
<g id="Node000031" class="node">
<title>Node31</title>
<g id="a_Node000031"><a xlink:href="SocketUtil_8h.html" target="_top" xlink:title=" ">
<polygon fill="white" stroke="#666666" points="1590.5,-294 1519.5,-294 1519.5,-275 1590.5,-275 1590.5,-294"/>
<text text-anchor="middle" x="1555" y="-282" font-family="Helvetica,sans-Serif" font-size="10.00">SocketUtil.h</text>
</a>
</g>
</g>
<!-- Node1&#45;&gt;Node31 -->
<g id="edge48_Node000001_Node000031" class="edge">
<title>Node1&#45;&gt;Node31</title>
<g id="a_edge48_Node000001_Node000031"><a xlink:title=" ">
<path fill="none" stroke="#63b8ff" d="M1555,-319.66C1555,-310.93 1555,-300.99 1555,-294.09"/>
<polygon fill="#63b8ff" stroke="#63b8ff" points="1551.5,-319.75 1555,-329.75 1558.5,-319.75 1551.5,-319.75"/>
</a>
</g>
</g>
<!-- Node3 -->
<g id="Node000003" class="node">
<title>Node3</title>
<g id="a_Node000003"><a xlink:href="SocketAsync_8h.html" target="_top" xlink:title=" ">
<polygon fill="white" stroke="#666666" points="1078.5,-184 995.5,-184 995.5,-165 1078.5,-165 1078.5,-184"/>
<text text-anchor="middle" x="1037" y="-172" font-family="Helvetica,sans-Serif" font-size="10.00">SocketAsync.h</text>
</a>
</g>
</g>
<!-- Node2&#45;&gt;Node3 -->
<g id="edge2_Node000002_Node000003" class="edge">
<title>Node2&#45;&gt;Node3</title>
<g id="a_edge2_Node000002_Node000003"><a xlink:title=" ">
<path fill="none" stroke="#63b8ff" d="M939.88,-216.03C963.37,-206.23 995.47,-192.83 1016.22,-184.17"/>
<polygon fill="#63b8ff" stroke="#63b8ff" points="938.29,-212.9 930.4,-219.98 940.98,-219.36 938.29,-212.9"/>
</a>
</g>
</g>
<!-- Node4 -->
<g id="Node000004" class="node">
<title>Node4</title>
<g id="a_Node000004"><a xlink:href="SocketHTTP2_8h.html" target="_top" xlink:title=" ">
<polygon fill="white" stroke="#666666" points="1183.5,-184 1096.5,-184 1096.5,-165 1183.5,-165 1183.5,-184"/>
<text text-anchor="middle" x="1140" y="-172" font-family="Helvetica,sans-Serif" font-size="10.00">SocketHTTP2.h</text>
</a>
</g>
</g>
<!-- Node2&#45;&gt;Node4 -->
<g id="edge3_Node000002_Node000004" class="edge">
<title>Node2&#45;&gt;Node4</title>
<g id="a_edge3_Node000002_Node000004"><a xlink:title=" ">
<path fill="none" stroke="#63b8ff" d="M947.98,-219.75C990.88,-209.86 1060.24,-193.88 1102.81,-184.07"/>
<polygon fill="#63b8ff" stroke="#63b8ff" points="947.16,-216.34 938.2,-222 948.73,-223.17 947.16,-216.34"/>
</a>
</g>
</g>
<!-- Node5 -->
<g id="Node000005" class="node">
<title>Node5</title>
<g id="a_Node000005"><a xlink:href="SocketHTTPServer_8h.html" target="_top" xlink:title=" ">
<polygon fill="white" stroke="#666666" points="461,-74 351,-74 351,-55 461,-55 461,-74"/>
<text text-anchor="middle" x="406" y="-62" font-family="Helvetica,sans-Serif" font-size="10.00">SocketHTTPServer.h</text>
</a>
</g>
</g>
<!-- Node2&#45;&gt;Node5 -->
<g id="edge4_Node000002_Node000005" class="edge">
<title>Node2&#45;&gt;Node5</title>
<g id="a_edge4_Node000002_Node000005"><a xlink:title=" ">
<path fill="none" stroke="#63b8ff" d="M871.69,-227.63C789.73,-225.18 591.56,-216.14 429,-184 347.35,-167.86 299.46,-195.94 250,-129 221.2,-90.02 295.09,-74.9 350.77,-69.08"/>
<polygon fill="#63b8ff" stroke="#63b8ff" points="871.69,-231.13 881.79,-227.91 871.89,-224.13 871.69,-231.13"/>
</a>
</g>
</g>
<!-- Node7 -->
<g id="Node000007" class="node">
<title>Node7</title>
<g id="a_Node000007"><a xlink:href="websocket__server_8c.html" target="_top" xlink:title=" ">
<polygon fill="white" stroke="#666666" points="567,-19 463,-19 463,0 567,0 567,-19"/>
<text text-anchor="middle" x="515" y="-7" font-family="Helvetica,sans-Serif" font-size="10.00">websocket_server.c</text>
</a>
</g>
</g>
<!-- Node2&#45;&gt;Node7 -->
<g id="edge40_Node000002_Node000007" class="edge">
<title>Node2&#45;&gt;Node7</title>
<g id="a_edge40_Node000002_Node000007"><a xlink:title=" ">
<path fill="none" stroke="#63b8ff" d="M871.54,-227.47C743.84,-223.83 339.08,-210.29 287,-184 258.3,-169.51 251.13,-159.17 240,-129 216.34,-64.9 341.14,-55.34 342,-55 384.02,-38.55 434.16,-26.42 469.61,-19.02"/>
<polygon fill="#63b8ff" stroke="#63b8ff" points="871.54,-230.97 881.64,-227.76 871.74,-223.98 871.54,-230.97"/>
</a>
</g>
</g>
<!-- Node8 -->
<g id="Node000008" class="node">
<title>Node8</title>
<g id="a_Node000008"><a xlink:href="SocketHappyEyeballs_8h.html" target="_top" xlink:title=" ">
<polygon fill="white" stroke="#666666" points="851,-74 729,-74 729,-55 851,-55 851,-74"/>
<text text-anchor="middle" x="790" y="-62" font-family="Helvetica,sans-Serif" font-size="10.00">SocketHappyEyeballs.h</text>
</a>
</g>
</g>
<!-- Node2&#45;&gt;Node8 -->
<g id="edge7_Node000002_Node000008" class="edge">
<title>Node2&#45;&gt;Node8</title>
<g id="a_edge7_Node000002_Node000008"><a xlink:title=" ">
<path fill="none" stroke="#63b8ff" d="M900.22,-210.8C886.69,-186.94 860.86,-143.56 834,-110 823.27,-96.6 809.03,-82.79 799.69,-74.18"/>
<polygon fill="#63b8ff" stroke="#63b8ff" points="897.29,-212.74 905.23,-219.75 903.4,-209.32 897.29,-212.74"/>
</a>
</g>
</g>
<!-- Node9 -->
<g id="Node000009" class="node">
<title>Node9</title>
<g id="a_Node000009"><a xlink:href="SocketIO_8h.html" target="_top" xlink:title=" ">
<polygon fill="white" stroke="#666666" points="1268,-184 1202,-184 1202,-165 1268,-165 1268,-184"/>
<text text-anchor="middle" x="1235" y="-172" font-family="Helvetica,sans-Serif" font-size="10.00">SocketIO.h</text>
</a>
</g>
</g>
<!-- Node2&#45;&gt;Node9 -->
<g id="edge8_Node000002_Node000009" class="edge">
<title>Node2&#45;&gt;Node9</title>
<g id="a_edge8_Node000002_Node000009"><a xlink:title=" ">
<path fill="none" stroke="#63b8ff" d="M948.28,-222.94C1002.59,-214.94 1105.08,-199.44 1192,-184 1195.15,-183.44 1198.42,-182.84 1201.69,-182.22"/>
<polygon fill="#63b8ff" stroke="#63b8ff" points="947.46,-219.52 938.08,-224.44 948.48,-226.45 947.46,-219.52"/>
</a>
</g>
</g>
<!-- Node10 -->
<g id="Node000010" class="node">
<title>Node10</title>
<g id="a_Node000010"><a xlink:href="SocketPoll_8h.html" target="_top" xlink:title=" ">
<polygon fill="white" stroke="#666666" points="825,-129 753,-129 753,-110 825,-110 825,-129"/>
<text text-anchor="middle" x="789" y="-117" font-family="Helvetica,sans-Serif" font-size="10.00">SocketPoll.h</text>
</a>
</g>
</g>
<!-- Node2&#45;&gt;Node10 -->
<g id="edge9_Node000002_Node000010" class="edge">
<title>Node2&#45;&gt;Node10</title>
<g id="a_edge9_Node000002_Node000010"><a xlink:title=" ">
<path fill="none" stroke="#63b8ff" d="M883.65,-214.88C869.58,-206.93 852.45,-196.08 839,-184 820,-166.94 802.74,-142.04 794.36,-129.07"/>
<polygon fill="#63b8ff" stroke="#63b8ff" points="882.36,-218.17 892.81,-219.91 885.73,-212.03 882.36,-218.17"/>
</a>
</g>
</g>
<!-- Node11 -->
<g id="Node000011" class="node">
<title>Node11</title>
<g id="a_Node000011"><a xlink:href="SocketPoll__backend_8h.html" target="_top" xlink:title=" ">
<polygon fill="white" stroke="#666666" points="983,-74 869,-74 869,-55 983,-55 983,-74"/>
<text text-anchor="middle" x="926" y="-62" font-family="Helvetica,sans-Serif" font-size="10.00">SocketPoll_backend.h</text>
</a>
</g>
</g>
<!-- Node2&#45;&gt;Node11 -->
<g id="edge17_Node000002_Node000011" class="edge">
<title>Node2&#45;&gt;Node11</title>
<g id="a_edge17_Node000002_Node000011"><a xlink:title=" ">
<path fill="none" stroke="#63b8ff" d="M909.64,-209.55C909.45,-186.06 910.01,-144.87 915,-110 916.81,-97.4 920.65,-83.16 923.28,-74.26"/>
<polygon fill="#63b8ff" stroke="#63b8ff" points="906.14,-209.87 909.77,-219.82 913.14,-209.78 906.14,-209.87"/>
</a>
</g>
</g>
<!-- Node12 -->
<g id="Node000012" class="node">
<title>Node12</title>
<g id="a_Node000012"><a xlink:href="SocketProxy_8h.html" target="_top" xlink:title=" ">
<polygon fill="white" stroke="#666666" points="673,-74 593,-74 593,-55 673,-55 673,-74"/>
<text text-anchor="middle" x="633" y="-62" font-family="Helvetica,sans-Serif" font-size="10.00">SocketProxy.h</text>
</a>
</g>
</g>
<!-- Node2&#45;&gt;Node12 -->
<g id="edge20_Node000002_Node000012" class="edge">
<title>Node2&#45;&gt;Node12</title>
<g id="a_edge20_Node000002_Node000012"><a xlink:title=" ">
<path fill="none" stroke="#63b8ff" d="M871.79,-227.19C805.41,-224.13 672.61,-214.3 639,-184 607.48,-155.59 622.8,-96.17 629.99,-74.04"/>
<polygon fill="#63b8ff" stroke="#63b8ff" points="871.71,-230.69 881.85,-227.63 872.01,-223.7 871.71,-230.69"/>
</a>
</g>
</g>
<!-- Node13 -->
<g id="Node000013" class="node">
<title>Node13</title>
<g id="a_Node000013"><a xlink:href="proxy__connect_8c.html" target="_top" xlink:title=" ">
<polygon fill="white" stroke="#666666" points="676.5,-19 587.5,-19 587.5,0 676.5,0 676.5,-19"/>
<text text-anchor="middle" x="632" y="-7" font-family="Helvetica,sans-Serif" font-size="10.00">proxy_connect.c</text>
</a>
</g>
</g>
<!-- Node2&#45;&gt;Node13 -->
<g id="edge38_Node000002_Node000013" class="edge">
<title>Node2&#45;&gt;Node13</title>
<g id="a_edge38_Node000002_Node000013"><a xlink:title=" ">
<path fill="none" stroke="#63b8ff" d="M922.46,-211.86C950.46,-173.49 1014.27,-80.19 992,-55 971.41,-31.7 768.32,-17.87 676.58,-12.76"/>
<polygon fill="#63b8ff" stroke="#63b8ff" points="919.6,-209.84 916.47,-219.96 925.23,-214 919.6,-209.84"/>
</a>
</g>
</g>
<!-- Node14 -->
<g id="Node000014" class="node">
<title>Node14</title>
<g id="a_Node000014"><a xlink:href="graceful__shutdown_8c.html" target="_top" xlink:title=" ">
<polygon fill="white" stroke="#666666" points="1146.5,-74 1039.5,-74 1039.5,-55 1146.5,-55 1146.5,-74"/>
<text text-anchor="middle" x="1093" y="-62" font-family="Helvetica,sans-Serif" font-size="10.00">graceful_shutdown.c</text>
</a>
</g>
</g>
<!-- Node2&#45;&gt;Node14 -->
<g id="edge37_Node000002_Node000014" class="edge">
<title>Node2&#45;&gt;Node14</title>
<g id="a_edge37_Node000002_Node000014"><a xlink:title=" ">
<path fill="none" stroke="#63b8ff" d="M927.19,-213.19C964.79,-179.7 1053.34,-100.82 1083.07,-74.34"/>
<polygon fill="#63b8ff" stroke="#63b8ff" points="924.72,-210.7 919.58,-219.97 929.38,-215.93 924.72,-210.7"/>
</a>
</g>
</g>
<!-- Node15 -->
<g id="Node000015" class="node">
<title>Node15</title>
<g id="a_Node000015"><a xlink:href="SocketPool_8h.html" target="_top" xlink:title=" ">
<polygon fill="white" stroke="#666666" points="1413.5,-129 1338.5,-129 1338.5,-110 1413.5,-110 1413.5,-129"/>
<text text-anchor="middle" x="1376" y="-117" font-family="Helvetica,sans-Serif" font-size="10.00">SocketPool.h</text>
</a>
</g>
</g>
<!-- Node2&#45;&gt;Node15 -->
<g id="edge18_Node000002_Node000015" class="edge">
<title>Node2&#45;&gt;Node15</title>
<g id="a_edge18_Node000002_Node000015"><a xlink:title=" ">
<path fill="none" stroke="#63b8ff" d="M948.4,-229.39C1016.65,-229.78 1162.64,-225.16 1277,-184 1295.44,-177.36 1341.91,-144.96 1363.99,-129.18"/>
<polygon fill="#63b8ff" stroke="#63b8ff" points="948.17,-225.89 938.13,-229.29 948.1,-232.89 948.17,-225.89"/>
</a>
</g>
</g>
<!-- Node16 -->
<g id="Node000016" class="node">
<title>Node16</title>
<g id="a_Node000016"><a xlink:href="SocketReconnect_8h.html" target="_top" xlink:title=" ">
<polygon fill="white" stroke="#666666" points="1427.5,-184 1324.5,-184 1324.5,-165 1427.5,-165 1427.5,-184"/>
<text text-anchor="middle" x="1376" y="-172" font-family="Helvetica,sans-Serif" font-size="10.00">SocketReconnect.h</text>
</a>
</g>
</g>
<!-- Node2&#45;&gt;Node16 -->
<g id="edge21_Node000002_Node000016" class="edge">
<title>Node2&#45;&gt;Node16</title>
<g id="a_edge21_Node000002_Node000016"><a xlink:title=" ">
<path fill="none" stroke="#63b8ff" d="M948.43,-224.45C1019.74,-216.88 1177.36,-199.92 1310,-184 1314.7,-183.44 1319.59,-182.83 1324.49,-182.22"/>
<polygon fill="#63b8ff" stroke="#63b8ff" points="947.72,-221 938.15,-225.54 948.46,-227.96 947.72,-221"/>
</a>
</g>
</g>
<!-- Node17 -->
<g id="Node000017" class="node">
<title>Node17</title>
<g id="a_Node000017"><a xlink:href="SocketTLS_8h.html" target="_top" xlink:title=" ">
<polygon fill="white" stroke="#666666" points="512,-184 438,-184 438,-165 512,-165 512,-184"/>
<text text-anchor="middle" x="475" y="-172" font-family="Helvetica,sans-Serif" font-size="10.00">SocketTLS.h</text>
</a>
</g>
</g>
<!-- Node2&#45;&gt;Node17 -->
<g id="edge23_Node000002_Node000017" class="edge">
<title>Node2&#45;&gt;Node17</title>
<g id="a_edge23_Node000002_Node000017"><a xlink:title=" ">
<path fill="none" stroke="#63b8ff" d="M871.81,-223.85C789.03,-213.76 593.96,-189.99 512.14,-180.03"/>
<polygon fill="#63b8ff" stroke="#63b8ff" points="871.44,-227.33 881.79,-225.06 872.29,-220.38 871.44,-227.33"/>
</a>
</g>
</g>
<!-- Node24 -->
<g id="Node000024" class="node">
<title>Node24</title>
<g id="a_Node000024"><a xlink:href="SocketWS_8h.html" target="_top" xlink:title=" ">
<polygon fill="white" stroke="#666666" points="720,-184 648,-184 648,-165 720,-165 720,-184"/>
<text text-anchor="middle" x="684" y="-172" font-family="Helvetica,sans-Serif" font-size="10.00">SocketWS.h</text>
</a>
</g>
</g>
<!-- Node2&#45;&gt;Node24 -->
<g id="edge34_Node000002_Node000024" class="edge">
<title>Node2&#45;&gt;Node24</title>
<g id="a_edge34_Node000002_Node000024"><a xlink:title=" ">
<path fill="none" stroke="#63b8ff" d="M871.93,-219.57C829.67,-209.66 761.95,-193.78 720.38,-184.03"/>
<polygon fill="#63b8ff" stroke="#63b8ff" points="871.3,-223.02 881.83,-221.89 872.9,-216.2 871.3,-223.02"/>
</a>
</g>
</g>
<!-- Node25 -->
<g id="Node000025" class="node">
<title>Node25</title>
<g id="a_Node000025"><a xlink:href="websocket__client_8c.html" target="_top" xlink:title=" ">
<polygon fill="white" stroke="#666666" points="734.5,-129 633.5,-129 633.5,-110 734.5,-110 734.5,-129"/>
<text text-anchor="middle" x="684" y="-117" font-family="Helvetica,sans-Serif" font-size="10.00">websocket_client.c</text>
</a>
</g>
</g>
<!-- Node2&#45;&gt;Node25 -->
<g id="edge39_Node000002_Node000025" class="edge">
<title>Node2&#45;&gt;Node25</title>
<g id="a_edge39_Node000002_Node000025"><a xlink:title=" ">
<path fill="none" stroke="#63b8ff" d="M882.64,-215.43C835.75,-193.02 741.28,-147.87 701.89,-129.05"/>
<polygon fill="#63b8ff" stroke="#63b8ff" points="881.36,-218.69 891.89,-219.84 884.37,-212.37 881.36,-218.69"/>
</a>
</g>
</g>
<!-- Node6 -->
<g id="Node000006" class="node">
<title>Node6</title>
<g id="a_Node000006"><a xlink:href="http__server_8c.html" target="_top" xlink:title=" ">
<polygon fill="white" stroke="#666666" points="442.5,-19 369.5,-19 369.5,0 442.5,0 442.5,-19"/>
<text text-anchor="middle" x="406" y="-7" font-family="Helvetica,sans-Serif" font-size="10.00">http_server.c</text>
</a>
</g>
</g>
<!-- Node5&#45;&gt;Node6 -->
<g id="edge5_Node000005_Node000006" class="edge">
<title>Node5&#45;&gt;Node6</title>
<g id="a_edge5_Node000005_Node000006"><a xlink:title=" ">
<path fill="none" stroke="#63b8ff" d="M406,-44.66C406,-35.93 406,-25.99 406,-19.09"/>
<polygon fill="#63b8ff" stroke="#63b8ff" points="402.5,-44.75 406,-54.75 409.5,-44.75 402.5,-44.75"/>
</a>
</g>
</g>
<!-- Node5&#45;&gt;Node7 -->
<g id="edge6_Node000005_Node000007" class="edge">
<title>Node5&#45;&gt;Node7</title>
<g id="a_edge6_Node000005_Node000007"><a xlink:title=" ">
<path fill="none" stroke="#63b8ff" d="M432.73,-50.5C452.79,-40.75 479.68,-27.68 497.17,-19.17"/>
<polygon fill="#63b8ff" stroke="#63b8ff" points="430.98,-47.46 423.51,-54.98 434.04,-53.76 430.98,-47.46"/>
</a>
</g>
</g>
<!-- Node10&#45;&gt;Node5 -->
<g id="edge10_Node000010_Node000005" class="edge">
<title>Node10&#45;&gt;Node5</title>
<g id="a_edge10_Node000010_Node000005"><a xlink:title=" ">
<path fill="none" stroke="#63b8ff" d="M743.3,-110.05C743.2,-110.03 743.1,-110.02 743,-110 644.05,-94.34 528.15,-79.88 461.29,-71.92"/>
<polygon fill="#63b8ff" stroke="#63b8ff" points="742.43,-113.45 752.87,-111.64 743.58,-106.55 742.43,-113.45"/>
</a>
</g>
</g>
<!-- Node10&#45;&gt;Node7 -->
<g id="edge16_Node000010_Node000007" class="edge">
<title>Node10&#45;&gt;Node7</title>
<g id="a_edge16_Node000010_Node000007"><a xlink:title=" ">
<path fill="none" stroke="#63b8ff" d="M767.01,-104.47C740.98,-88.04 699.01,-62.15 682,-55 642.31,-38.31 594.64,-26.35 560.41,-19.06"/>
<polygon fill="#63b8ff" stroke="#63b8ff" points="765.17,-107.45 775.49,-109.84 768.91,-101.54 765.17,-107.45"/>
</a>
</g>
</g>
<!-- Node10&#45;&gt;Node8 -->
<g id="edge11_Node000010_Node000008" class="edge">
<title>Node10&#45;&gt;Node8</title>
<g id="a_edge11_Node000010_Node000008"><a xlink:title=" ">
<path fill="none" stroke="#63b8ff" d="M789.36,-99.66C789.52,-90.93 789.71,-80.99 789.84,-74.09"/>
<polygon fill="#63b8ff" stroke="#63b8ff" points="785.85,-99.68 789.17,-109.75 792.85,-99.82 785.85,-99.68"/>
</a>
</g>
</g>
<!-- Node10&#45;&gt;Node11 -->
<g id="edge12_Node000010_Node000011" class="edge">
<title>Node10&#45;&gt;Node11</title>
<g id="a_edge12_Node000010_Node000011"><a xlink:title=" ">
<path fill="none" stroke="#63b8ff" d="M820.56,-106.29C845.95,-96.47 881,-82.91 903.59,-74.17"/>
<polygon fill="#63b8ff" stroke="#63b8ff" points="819.08,-103.11 811.01,-109.98 821.6,-109.64 819.08,-103.11"/>
</a>
</g>
</g>
<!-- Node10&#45;&gt;Node12 -->
<g id="edge13_Node000010_Node000012" class="edge">
<title>Node10&#45;&gt;Node12</title>
<g id="a_edge13_Node000010_Node000012"><a xlink:title=" ">
<path fill="none" stroke="#63b8ff" d="M754.18,-106.67C725.09,-96.79 684.3,-82.93 658.26,-74.08"/>
<polygon fill="#63b8ff" stroke="#63b8ff" points="753.34,-110.08 763.94,-109.98 755.59,-103.45 753.34,-110.08"/>
</a>
</g>
</g>
<!-- Node10&#45;&gt;Node14 -->
<g id="edge15_Node000010_Node000014" class="edge">
<title>Node10&#45;&gt;Node14</title>
<g id="a_edge15_Node000010_Node000014"><a xlink:title=" ">
<path fill="none" stroke="#63b8ff" d="M835.13,-110.46C891.54,-100.62 986.6,-84.05 1044.2,-74.01"/>
<polygon fill="#63b8ff" stroke="#63b8ff" points="834.32,-107.05 825.07,-112.21 835.52,-113.94 834.32,-107.05"/>
</a>
</g>
</g>
<!-- Node12&#45;&gt;Node13 -->
<g id="edge14_Node000012_Node000013" class="edge">
<title>Node12&#45;&gt;Node13</title>
<g id="a_edge14_Node000012_Node000013"><a xlink:title=" ">
<path fill="none" stroke="#63b8ff" d="M632.64,-44.66C632.48,-35.93 632.29,-25.99 632.16,-19.09"/>
<polygon fill="#63b8ff" stroke="#63b8ff" points="629.15,-44.82 632.83,-54.75 636.15,-44.68 629.15,-44.82"/>
</a>
</g>
</g>
<!-- Node15&#45;&gt;Node14 -->
<g id="edge19_Node000015_Node000014" class="edge">
<title>Node15&#45;&gt;Node14</title>
<g id="a_edge19_Node000015_Node000014"><a xlink:title=" ">
<path fill="none" stroke="#63b8ff" d="M1328.29,-109.56C1275.42,-99.66 1190.76,-83.81 1138.71,-74.06"/>
<polygon fill="#63b8ff" stroke="#63b8ff" points="1327.95,-113.06 1338.42,-111.46 1329.23,-106.18 1327.95,-113.06"/>
</a>
</g>
</g>
<!-- Node16&#45;&gt;Node15 -->
<g id="edge22_Node000016_Node000015" class="edge">
<title>Node16&#45;&gt;Node15</title>
<g id="a_edge22_Node000016_Node000015"><a xlink:title=" ">
<path fill="none" stroke="#63b8ff" d="M1376,-154.66C1376,-145.93 1376,-135.99 1376,-129.09"/>
<polygon fill="#63b8ff" stroke="#63b8ff" points="1372.5,-154.75 1376,-164.75 1379.5,-154.75 1372.5,-154.75"/>
</a>
</g>
</g>
<!-- Node17&#45;&gt;Node13 -->
<g id="edge33_Node000017_Node000013" class="edge">
<title>Node17&#45;&gt;Node13</title>
<g id="a_edge33_Node000017_Node000013"><a xlink:title=" ">
<path fill="none" stroke="#63b8ff" d="M489.06,-157.41C509.46,-134.27 548.69,-90.45 584,-55 596.83,-42.12 612.37,-27.96 622.23,-19.15"/>
<polygon fill="#63b8ff" stroke="#63b8ff" points="486.41,-155.13 482.44,-164.95 491.67,-159.75 486.41,-155.13"/>
</a>
</g>
</g>
<!-- Node18 -->
<g id="Node000018" class="node">
<title>Node18</title>
<g id="a_Node000018"><a xlink:href="SocketDTLSContext_8h.html" target="_top" xlink:title=" ">
<polygon fill="white" stroke="#666666" points="375,-129 259,-129 259,-110 375,-110 375,-129"/>
<text text-anchor="middle" x="317" y="-117" font-family="Helvetica,sans-Serif" font-size="10.00">SocketDTLSContext.h</text>
</a>
</g>
</g>
<!-- Node17&#45;&gt;Node18 -->
<g id="edge24_Node000017_Node000018" class="edge">
<title>Node17&#45;&gt;Node18</title>
<g id="a_edge24_Node000017_Node000018"><a xlink:title=" ">
<path fill="none" stroke="#63b8ff" d="M440.12,-161.8C410.63,-151.91 369.07,-137.97 342.58,-129.08"/>
<polygon fill="#63b8ff" stroke="#63b8ff" points="439.02,-165.12 449.61,-164.98 441.25,-158.49 439.02,-165.12"/>
</a>
</g>
</g>
<!-- Node19 -->
<g id="Node000019" class="node">
<title>Node19</title>
<g id="a_Node000019"><a xlink:href="SocketTLSContext_8h.html" target="_top" xlink:title=" ">
<polygon fill="white" stroke="#666666" points="501,-129 393,-129 393,-110 501,-110 501,-129"/>
<text text-anchor="middle" x="447" y="-117" font-family="Helvetica,sans-Serif" font-size="10.00">SocketTLSContext.h</text>
</a>
</g>
</g>
<!-- Node17&#45;&gt;Node19 -->
<g id="edge25_Node000017_Node000019" class="edge">
<title>Node17&#45;&gt;Node19</title>
<g id="a_edge25_Node000017_Node000019"><a xlink:title=" ">
<path fill="none" stroke="#63b8ff" d="M465.66,-155.82C460.91,-146.82 455.34,-136.29 451.54,-129.09"/>
<polygon fill="#63b8ff" stroke="#63b8ff" points="462.61,-157.54 470.38,-164.75 468.8,-154.27 462.61,-157.54"/>
</a>
</g>
</g>
<!-- Node19&#45;&gt;Node5 -->
<g id="edge30_Node000019_Node000005" class="edge">
<title>Node19&#45;&gt;Node5</title>
<g id="a_edge30_Node000019_Node000005"><a xlink:title=" ">
<path fill="none" stroke="#63b8ff" d="M433.98,-101.67C426.88,-92.5 418.4,-81.52 412.64,-74.09"/>
<polygon fill="#63b8ff" stroke="#63b8ff" points="431.34,-103.98 440.23,-109.75 436.88,-99.7 431.34,-103.98"/>
</a>
</g>
</g>
<!-- Node19&#45;&gt;Node12 -->
<g id="edge31_Node000019_Node000012" class="edge">
<title>Node19&#45;&gt;Node12</title>
<g id="a_edge31_Node000019_Node000012"><a xlink:title=" ">
<path fill="none" stroke="#63b8ff" d="M486.71,-107.18C521.5,-97.27 571.29,-83.08 602.88,-74.08"/>
<polygon fill="#63b8ff" stroke="#63b8ff" points="485.54,-103.88 476.88,-109.98 487.46,-110.61 485.54,-103.88"/>
</a>
</g>
</g>
<!-- Node19&#45;&gt;Node13 -->
<g id="edge32_Node000019_Node000013" class="edge">
<title>Node19&#45;&gt;Node13</title>
<g id="a_edge32_Node000019_Node000013"><a xlink:title=" ">
<path fill="none" stroke="#63b8ff" d="M460.61,-102.06C473.02,-87.95 492.5,-67.91 513,-55 539.69,-38.19 573.69,-26.28 598.51,-19.03"/>
<polygon fill="#63b8ff" stroke="#63b8ff" points="457.69,-100.08 453.85,-109.96 463.01,-104.63 457.69,-100.08"/>
</a>
</g>
</g>
<!-- Node20 -->
<g id="Node000020" class="node">
<title>Node20</title>
<g id="a_Node000020"><a xlink:href="SocketHTTPClient_8h.html" target="_top" xlink:title=" ">
<polygon fill="white" stroke="#666666" points="164.5,-74 57.5,-74 57.5,-55 164.5,-55 164.5,-74"/>
<text text-anchor="middle" x="111" y="-62" font-family="Helvetica,sans-Serif" font-size="10.00">SocketHTTPClient.h</text>
</a>
</g>
</g>
<!-- Node19&#45;&gt;Node20 -->
<g id="edge26_Node000019_Node000020" class="edge">
<title>Node19&#45;&gt;Node20</title>
<g id="a_edge26_Node000019_Node000020"><a xlink:title=" ">
<path fill="none" stroke="#63b8ff" d="M382.76,-108.37C319.47,-98.38 223.89,-83.31 164.57,-73.95"/>
<polygon fill="#63b8ff" stroke="#63b8ff" points="382.59,-111.88 393.02,-109.98 383.68,-104.97 382.59,-111.88"/>
</a>
</g>
</g>
<!-- Node21 -->
<g id="Node000021" class="node">
<title>Node21</title>
<g id="a_Node000021"><a xlink:href="http2__client_8c.html" target="_top" xlink:title=" ">
<polygon fill="white" stroke="#666666" points="236.5,-19 161.5,-19 161.5,0 236.5,0 236.5,-19"/>
<text text-anchor="middle" x="199" y="-7" font-family="Helvetica,sans-Serif" font-size="10.00">http2_client.c</text>
</a>
</g>
</g>
<!-- Node20&#45;&gt;Node21 -->
<g id="edge27_Node000020_Node000021" class="edge">
<title>Node20&#45;&gt;Node21</title>
<g id="a_edge27_Node000020_Node000021"><a xlink:title=" ">
<path fill="none" stroke="#63b8ff" d="M133.92,-49.7C149.95,-40.04 170.87,-27.44 184.6,-19.17"/>
<polygon fill="#63b8ff" stroke="#63b8ff" points="131.9,-46.83 125.14,-54.98 135.51,-52.82 131.9,-46.83"/>
</a>
</g>
</g>
<!-- Node22 -->
<g id="Node000022" class="node">
<title>Node22</title>
<g id="a_Node000022"><a xlink:href="http__get_8c.html" target="_top" xlink:title=" ">
<polygon fill="white" stroke="#666666" points="60,-19 0,-19 0,0 60,0 60,-19"/>
<text text-anchor="middle" x="30" y="-7" font-family="Helvetica,sans-Serif" font-size="10.00">http_get.c</text>
</a>
</g>
</g>
<!-- Node20&#45;&gt;Node22 -->
<g id="edge28_Node000020_Node000022" class="edge">
<title>Node20&#45;&gt;Node22</title>
<g id="a_edge28_Node000020_Node000022"><a xlink:title=" ">
<path fill="none" stroke="#63b8ff" d="M89.49,-49.42C74.79,-39.81 55.78,-27.37 43.25,-19.17"/>
<polygon fill="#63b8ff" stroke="#63b8ff" points="87.7,-52.44 97.99,-54.98 91.53,-46.58 87.7,-52.44"/>
</a>
</g>
</g>
<!-- Node23 -->
<g id="Node000023" class="node">
<title>Node23</title>
<g id="a_Node000023"><a xlink:href="http__post_8c.html" target="_top" xlink:title=" ">
<polygon fill="white" stroke="#666666" points="143.5,-19 78.5,-19 78.5,0 143.5,0 143.5,-19"/>
<text text-anchor="middle" x="111" y="-7" font-family="Helvetica,sans-Serif" font-size="10.00">http_post.c</text>
</a>
</g>
</g>
<!-- Node20&#45;&gt;Node23 -->
<g id="edge29_Node000020_Node000023" class="edge">
<title>Node20&#45;&gt;Node23</title>
<g id="a_edge29_Node000020_Node000023"><a xlink:title=" ">
<path fill="none" stroke="#63b8ff" d="M111,-44.66C111,-35.93 111,-25.99 111,-19.09"/>
<polygon fill="#63b8ff" stroke="#63b8ff" points="107.5,-44.75 111,-54.75 114.5,-44.75 107.5,-44.75"/>
</a>
</g>
</g>
<!-- Node24&#45;&gt;Node7 -->
<g id="edge36_Node000024_Node000007" class="edge">
<title>Node24&#45;&gt;Node7</title>
<g id="a_edge36_Node000024_Node000007"><a xlink:title=" ">
<path fill="none" stroke="#63b8ff" d="M662.67,-159.17C650.85,-150.86 636.14,-139.92 624,-129 582.02,-91.23 538.43,-39.29 521.9,-19.05"/>
<polygon fill="#63b8ff" stroke="#63b8ff" points="660.83,-162.15 671.05,-164.95 664.81,-156.39 660.83,-162.15"/>
</a>
</g>
</g>
<!-- Node24&#45;&gt;Node25 -->
<g id="edge35_Node000024_Node000025" class="edge">
<title>Node24&#45;&gt;Node25</title>
<g id="a_edge35_Node000024_Node000025"><a xlink:title=" ">
<path fill="none" stroke="#63b8ff" d="M684,-154.66C684,-145.93 684,-135.99 684,-129.09"/>
<polygon fill="#63b8ff" stroke="#63b8ff" points="680.5,-154.75 684,-164.75 687.5,-154.75 680.5,-154.75"/>
</a>
</g>
</g>
<!-- Node26&#45;&gt;Node2 -->
<g id="edge42_Node000026_Node000002" class="edge">
<title>Node26&#45;&gt;Node2</title>
<g id="a_edge42_Node000026_Node000002"><a xlink:title=" ">
<path fill="none" stroke="#63b8ff" d="M1396.1,-277.86C1280.24,-266.57 1023.65,-241.57 938.26,-233.25"/>
<polygon fill="#63b8ff" stroke="#63b8ff" points="1395.91,-281.36 1406.2,-278.84 1396.59,-274.39 1395.91,-281.36"/>
</a>
</g>
</g>
<!-- Node27 -->
<g id="Node000027" class="node">
<title>Node27</title>
<g id="a_Node000027"><a xlink:href="SocketDgram_8h.html" target="_top" xlink:title=" ">
<polygon fill="white" stroke="#666666" points="1511.5,-239 1426.5,-239 1426.5,-220 1511.5,-220 1511.5,-239"/>
<text text-anchor="middle" x="1469" y="-227" font-family="Helvetica,sans-Serif" font-size="10.00">SocketDgram.h</text>
</a>
</g>
</g>
<!-- Node26&#45;&gt;Node27 -->
<g id="edge43_Node000026_Node000027" class="edge">
<title>Node26&#45;&gt;Node27</title>
<g id="a_edge43_Node000026_Node000027"><a xlink:title=" ">
<path fill="none" stroke="#63b8ff" d="M1459.25,-264.95C1461.74,-256.15 1464.6,-246.06 1466.57,-239.09"/>
<polygon fill="#63b8ff" stroke="#63b8ff" points="1455.83,-264.17 1456.48,-274.75 1462.57,-266.08 1455.83,-264.17"/>
</a>
</g>
</g>
<!-- Node28 -->
<g id="Node000028" class="node">
<title>Node28</title>
<g id="a_Node000028"><a xlink:href="SocketDTLS_8h.html" target="_top" xlink:title=" ">
<polygon fill="white" stroke="#666666" points="1526.5,-184 1445.5,-184 1445.5,-165 1526.5,-165 1526.5,-184"/>
<text text-anchor="middle" x="1486" y="-172" font-family="Helvetica,sans-Serif" font-size="10.00">SocketDTLS.h</text>
</a>
</g>
</g>
<!-- Node27&#45;&gt;Node28 -->
<g id="edge44_Node000027_Node000028" class="edge">
<title>Node27&#45;&gt;Node28</title>
<g id="a_edge44_Node000027_Node000028"><a xlink:title=" ">
<path fill="none" stroke="#63b8ff" d="M1474.95,-209.95C1477.77,-201.15 1481.01,-191.06 1483.25,-184.09"/>
<polygon fill="#63b8ff" stroke="#63b8ff" points="1471.53,-209.16 1471.81,-219.75 1478.19,-211.29 1471.53,-209.16"/>
</a>
</g>
</g>
<!-- Node29&#45;&gt;Node15 -->
<g id="edge46_Node000029_Node000015" class="edge">
<title>Node29&#45;&gt;Node15</title>
<g id="a_edge46_Node000029_Node000015"><a xlink:title=" ">
<path fill="none" stroke="#63b8ff" d="M1623.63,-211.8C1611.06,-197.24 1590.93,-176.67 1569,-165 1519.21,-138.51 1454.01,-127.7 1413.57,-123.35"/>
<polygon fill="#63b8ff" stroke="#63b8ff" points="1621.02,-214.14 1630.12,-219.57 1626.39,-209.65 1621.02,-214.14"/>
</a>
</g>
</g>
<!-- Node31&#45;&gt;Node15 -->
<g id="edge49_Node000031_Node000015" class="edge">
<title>Node31&#45;&gt;Node15</title>
<g id="a_edge49_Node000031_Node000015"><a xlink:title=" ">
<path fill="none" stroke="#63b8ff" d="M1557.68,-264.77C1560.25,-238.99 1560.67,-192.61 1536,-165 1505.26,-130.6 1450.45,-121.82 1413.66,-120.07"/>
<polygon fill="#63b8ff" stroke="#63b8ff" points="1554.2,-264.39 1556.47,-274.74 1561.15,-265.23 1554.2,-264.39"/>
</a>
</g>
</g>
</g>
</svg>

<g id="navigator" transform="translate(0 0)" fill="#404254">
  <rect fill="#f2f5e9" fill-opacity="0.5" stroke="#606060" stroke-width=".5" x="0" y="0" width="60" height="60"/>
  <use id="zoomplus" xlink:href="#zoomPlus" x="17" y="9" onmousedown="handleZoom(evt,'in')"/>
  <use id="zoomminus" xlink:href="#zoomMin" x="42" y="9" onmousedown="handleZoom(evt,'out')"/>
  <use id="reset" xlink:href="#resetDef" x="30" y="36" onmousedown="handleReset()"/>
   <use id="arrowup" xlink:href="#arrowUp" x="0" y="0" onmousedown="handlePan(0,-1)"/>
  <use id="arrowright" xlink:href="#arrowRight" x="0" y="0" onmousedown="handlePan(1,0)"/>
  <use id="arrowdown" xlink:href="#arrowDown" x="0" y="0" onmousedown="handlePan(0,1)"/>
  <use id="arrowleft" xlink:href="#arrowLeft" x="0" y="0" onmousedown="handlePan(-1,0)"/>
</g>
<svg viewBox="0 0 15 15" width="100%" height="30px" preserveAspectRatio="xMaxYMin meet">
 <g id="arrow_out" transform="scale(0.3 0.3)">
  <a xlink:href="SocketConfig_8h__dep__incl_org.svg" target="_base">
   <rect id="button" ry="5" rx="5" y="6" x="6" height="38" width="38"
        fill="#f2f5e9" fill-opacity="0.5" stroke="#606060" stroke-width="1.0"/>
   <path id="arrow"
     d="M 11.500037,31.436501 C 11.940474,20.09759 22.043105,11.32322 32.158766,21.979434 L 37.068811,17.246167 C 37.068811,17.246167 37.088388,32 37.088388,32 L 22.160133,31.978069 C 22.160133,31.978069 26.997745,27.140456 26.997745,27.140456 C 18.528582,18.264221 13.291696,25.230495 11.500037,31.436501 z"
     style="fill:#404040;"/>
  </a>
 </g>
</svg>

<style type='text/css'>
<![CDATA[
[data-mouse-over-selected='false'] { opacity: 0.7; }
[data-mouse-over-selected='true']  { opacity: 1.0; }
]]>
</style>
<script type="application/ecmascript"><![CDATA[
document.addEventListener('DOMContentLoaded', (event) => {
  highlightEdges();
  highlightAdjacentNodes();
});
]]></script>
</svg>
