<?xml version="1.0" encoding="UTF-8" standalone="no"?>
<!DOCTYPE svg PUBLIC "-//W3C//DTD SVG 1.1//EN"
 "http://www.w3.org/Graphics/SVG/1.1/DTD/svg11.dtd">
<!-- Generated by graphviz version 2.43.0 (0)
 -->
<!-- Title: SocketTLSContext.h Pages: 1 -->
<svg width="1268pt" height="357pt"
 viewBox="0.00 0.00 1267.50 357.00" xmlns="http://www.w3.org/2000/svg" xmlns:xlink="http://www.w3.org/1999/xlink">
<g id="graph0" class="graph" transform="scale(1 1) rotate(0) translate(4 353)">
<title>SocketTLSContext.h</title>
<!-- Node1 -->
<g id="Node000001" class="node">
<title>Node1</title>
<g id="a_Node000001"><a xlink:title="TLS context management with secure defaults and certificate handling.">
<polygon fill="#999999" stroke="#666666" points="314,-349 206,-349 206,-330 314,-330 314,-349"/>
<text text-anchor="middle" x="260" y="-337" font-family="Helvetica,sans-Serif" font-size="10.00">SocketTLSContext.h</text>
</a>
</g>
</g>
<!-- Node2 -->
<g id="Node000002" class="node">
<title>Node2</title>
<g id="a_Node000002"><a xlink:href="Arena_8h.html" target="_top" xlink:title="Arena&#45;based memory allocator for efficient bulk memory management.">
<polygon fill="white" stroke="#666666" points="176,-129 104,-129 104,-110 176,-110 176,-129"/>
<text text-anchor="middle" x="140" y="-117" font-family="Helvetica,sans-Serif" font-size="10.00">core/Arena.h</text>
</a>
</g>
</g>
<!-- Node1&#45;&gt;Node2 -->
<g id="edge1_Node000001_Node000002" class="edge">
<title>Node1&#45;&gt;Node2</title>
<g id="a_edge1_Node000001_Node000002"><a xlink:title=" ">
<path fill="none" stroke="#63b8ff" d="M226.76,-330C207.54,-323.35 184.55,-312.13 171,-294 135.94,-247.1 135.97,-173.37 138.23,-139.13"/>
<polygon fill="#63b8ff" stroke="#63b8ff" points="141.72,-139.37 139.03,-129.12 134.74,-138.81 141.72,-139.37"/>
</a>
</g>
</g>
<!-- Node4 -->
<g id="Node000004" class="node">
<title>Node4</title>
<g id="a_Node000004"><a xlink:href="Except_8h.html" target="_top" xlink:title="Structured exception handling for C with TRY/EXCEPT/FINALLY blocks.">
<polygon fill="white" stroke="#666666" points="146.5,-74 69.5,-74 69.5,-55 146.5,-55 146.5,-74"/>
<text text-anchor="middle" x="108" y="-62" font-family="Helvetica,sans-Serif" font-size="10.00">core/Except.h</text>
</a>
</g>
</g>
<!-- Node1&#45;&gt;Node4 -->
<g id="edge5_Node000001_Node000004" class="edge">
<title>Node1&#45;&gt;Node4</title>
<g id="a_edge5_Node000001_Node000004"><a xlink:title=" ">
<path fill="none" stroke="#63b8ff" d="M205.81,-338.89C129.61,-336.28 0,-318.85 0,-230.5 0,-230.5 0,-230.5 0,-173.5 0,-128.37 47.74,-95.51 79.74,-78.55"/>
<polygon fill="#63b8ff" stroke="#63b8ff" points="81.36,-81.65 88.69,-74 78.19,-75.41 81.36,-81.65"/>
</a>
</g>
</g>
<!-- Node6 -->
<g id="Node000006" class="node">
<title>Node6</title>
<g id="a_Node000006"><a xlink:href="SocketTLS_8h.html" target="_top" xlink:title="TLS/SSL socket integration with TLS 1.3 support.">
<polygon fill="white" stroke="#666666" points="267.5,-294 180.5,-294 180.5,-275 267.5,-275 267.5,-294"/>
<text text-anchor="middle" x="224" y="-282" font-family="Helvetica,sans-Serif" font-size="10.00">tls/SocketTLS.h</text>
</a>
</g>
</g>
<!-- Node1&#45;&gt;Node6 -->
<g id="edge6_Node000001_Node000006" class="edge">
<title>Node1&#45;&gt;Node6</title>
<g id="a_edge6_Node000001_Node000006"><a xlink:title=" ">
<path fill="none" stroke="#63b8ff" d="M254.06,-329.75C249.02,-322.34 241.66,-311.5 235.49,-302.41"/>
<polygon fill="#63b8ff" stroke="#63b8ff" points="238.35,-300.39 229.83,-294.09 232.56,-304.33 238.35,-300.39"/>
</a>
</g>
</g>
<!-- Node25 -->
<g id="Node000025" class="node">
<title>Node25</title>
<g id="a_Node000025"><a xlink:href="SocketTLSConfig_8h.html" target="_top" xlink:title="TLS configuration constants, structure, and secure defaults.">
<polygon fill="white" stroke="#666666" points="468,-294 352,-294 352,-275 468,-275 468,-294"/>
<text text-anchor="middle" x="410" y="-282" font-family="Helvetica,sans-Serif" font-size="10.00">tls/SocketTLSConfig.h</text>
</a>
</g>
</g>
<!-- Node1&#45;&gt;Node25 -->
<g id="edge38_Node000001_Node000025" class="edge">
<title>Node1&#45;&gt;Node25</title>
<g id="a_edge38_Node000001_Node000025"><a xlink:title=" ">
<path fill="none" stroke="#63b8ff" d="M284.1,-329.98C308.88,-321.23 347.7,-307.51 375.69,-297.62"/>
<polygon fill="#63b8ff" stroke="#63b8ff" points="377.2,-300.8 385.46,-294.17 374.87,-294.2 377.2,-300.8"/>
</a>
</g>
</g>
<!-- Node27 -->
<g id="Node000027" class="node">
<title>Node27</title>
<g id="a_Node000027"><a xlink:title=" ">
<polygon fill="#e0e0e0" stroke="#999999" points="360,-239 286,-239 286,-220 360,-220 360,-239"/>
<text text-anchor="middle" x="323" y="-227" font-family="Helvetica,sans-Serif" font-size="10.00">openssl/ssl.h</text>
</a>
</g>
</g>
<!-- Node1&#45;&gt;Node27 -->
<g id="edge43_Node000001_Node000027" class="edge">
<title>Node1&#45;&gt;Node27</title>
<g id="a_edge43_Node000001_Node000027"><a xlink:title=" ">
<path fill="none" stroke="#63b8ff" d="M265.16,-329.66C275.54,-311.85 299.16,-271.37 312.79,-248.01"/>
<polygon fill="#63b8ff" stroke="#63b8ff" points="315.93,-249.56 317.95,-239.16 309.89,-246.03 315.93,-249.56"/>
</a>
</g>
</g>
<!-- Node30 -->
<g id="Node000030" class="node">
<title>Node30</title>
<g id="a_Node000030"><a xlink:title=" ">
<polygon fill="#e0e0e0" stroke="#999999" points="586,-294 486,-294 486,-275 586,-275 586,-294"/>
<text text-anchor="middle" x="536" y="-282" font-family="Helvetica,sans-Serif" font-size="10.00">openssl/x509_vfy.h</text>
</a>
</g>
</g>
<!-- Node1&#45;&gt;Node30 -->
<g id="edge44_Node000001_Node000030" class="edge">
<title>Node1&#45;&gt;Node30</title>
<g id="a_edge44_Node000001_Node000030"><a xlink:title=" ">
<path fill="none" stroke="#63b8ff" d="M304.34,-329.98C352.49,-320.74 429.42,-305.97 481.29,-296.01"/>
<polygon fill="#63b8ff" stroke="#63b8ff" points="482.15,-299.41 491.31,-294.08 480.83,-292.53 482.15,-299.41"/>
</a>
</g>
</g>
<!-- Node3 -->
<g id="Node000003" class="node">
<title>Node3</title>
<g id="a_Node000003"><a xlink:title=" ">
<polygon fill="#e0e0e0" stroke="#999999" points="661,-74 609,-74 609,-55 661,-55 661,-74"/>
<text text-anchor="middle" x="635" y="-62" font-family="Helvetica,sans-Serif" font-size="10.00">stddef.h</text>
</a>
</g>
</g>
<!-- Node2&#45;&gt;Node3 -->
<g id="edge2_Node000002_Node000003" class="edge">
<title>Node2&#45;&gt;Node3</title>
<g id="a_edge2_Node000002_Node000003"><a xlink:title=" ">
<path fill="none" stroke="#63b8ff" d="M176.4,-114.6C268,-104.8 507.25,-79.18 598.72,-69.38"/>
<polygon fill="#63b8ff" stroke="#63b8ff" points="599.3,-72.84 608.87,-68.3 598.56,-65.88 599.3,-72.84"/>
</a>
</g>
</g>
<!-- Node2&#45;&gt;Node4 -->
<g id="edge3_Node000002_Node000004" class="edge">
<title>Node2&#45;&gt;Node4</title>
<g id="a_edge3_Node000002_Node000004"><a xlink:title=" ">
<path fill="none" stroke="#63b8ff" d="M134.72,-109.75C130.29,-102.42 123.84,-91.73 118.38,-82.7"/>
<polygon fill="#63b8ff" stroke="#63b8ff" points="121.35,-80.84 113.19,-74.09 115.36,-84.46 121.35,-80.84"/>
</a>
</g>
</g>
<!-- Node5 -->
<g id="Node000005" class="node">
<title>Node5</title>
<g id="a_Node000005"><a xlink:title=" ">
<polygon fill="#e0e0e0" stroke="#999999" points="135,-19 81,-19 81,0 135,0 135,-19"/>
<text text-anchor="middle" x="108" y="-7" font-family="Helvetica,sans-Serif" font-size="10.00">setjmp.h</text>
</a>
</g>
</g>
<!-- Node4&#45;&gt;Node5 -->
<g id="edge4_Node000004_Node000005" class="edge">
<title>Node4&#45;&gt;Node5</title>
<g id="a_edge4_Node000004_Node000005"><a xlink:title=" ">
<path fill="none" stroke="#63b8ff" d="M108,-54.75C108,-47.8 108,-37.85 108,-29.13"/>
<polygon fill="#63b8ff" stroke="#63b8ff" points="111.5,-29.09 108,-19.09 104.5,-29.09 111.5,-29.09"/>
</a>
</g>
</g>
<!-- Node6&#45;&gt;Node4 -->
<g id="edge7_Node000006_Node000004" class="edge">
<title>Node6&#45;&gt;Node4</title>
<g id="a_edge7_Node000006_Node000004"><a xlink:title=" ">
<path fill="none" stroke="#63b8ff" d="M210.39,-274.79C179.67,-254.1 106.23,-198.47 88,-129 83.88,-113.3 90.3,-95.71 96.94,-83.03"/>
<polygon fill="#63b8ff" stroke="#63b8ff" points="100.15,-84.46 102.11,-74.05 94.09,-80.97 100.15,-84.46"/>
</a>
</g>
</g>
<!-- Node7 -->
<g id="Node000007" class="node">
<title>Node7</title>
<g id="a_Node000007"><a xlink:href="Socket_8h.html" target="_top" xlink:title="High&#45;level TCP/IP and Unix domain socket interface.">
<polygon fill="white" stroke="#666666" points="268,-239 180,-239 180,-220 268,-220 268,-239"/>
<text text-anchor="middle" x="224" y="-227" font-family="Helvetica,sans-Serif" font-size="10.00">socket/Socket.h</text>
</a>
</g>
</g>
<!-- Node6&#45;&gt;Node7 -->
<g id="edge8_Node000006_Node000007" class="edge">
<title>Node6&#45;&gt;Node7</title>
<g id="a_edge8_Node000006_Node000007"><a xlink:title=" ">
<path fill="none" stroke="#63b8ff" d="M224,-274.75C224,-267.8 224,-257.85 224,-249.13"/>
<polygon fill="#63b8ff" stroke="#63b8ff" points="227.5,-249.09 224,-239.09 220.5,-249.09 227.5,-249.09"/>
</a>
</g>
</g>
<!-- Node7&#45;&gt;Node4 -->
<g id="edge9_Node000007_Node000004" class="edge">
<title>Node7&#45;&gt;Node4</title>
<g id="a_edge9_Node000007_Node000004"><a xlink:title=" ">
<path fill="none" stroke="#63b8ff" d="M203.59,-219.94C173.33,-206 117.71,-175.2 95,-129 87.95,-114.66 92.72,-96.68 98.37,-83.52"/>
<polygon fill="#63b8ff" stroke="#63b8ff" points="101.69,-84.69 102.88,-74.16 95.39,-81.65 101.69,-84.69"/>
</a>
</g>
</g>
<!-- Node8 -->
<g id="Node000008" class="node">
<title>Node8</title>
<g id="a_Node000008"><a xlink:href="SocketConfig_8h.html" target="_top" xlink:title="Compile&#45;time configuration and platform detection for the socket library.">
<polygon fill="white" stroke="#666666" points="992,-129 886,-129 886,-110 992,-110 992,-129"/>
<text text-anchor="middle" x="939" y="-117" font-family="Helvetica,sans-Serif" font-size="10.00">core/SocketConfig.h</text>
</a>
</g>
</g>
<!-- Node7&#45;&gt;Node8 -->
<g id="edge10_Node000007_Node000008" class="edge">
<title>Node7&#45;&gt;Node8</title>
<g id="a_edge10_Node000007_Node000008"><a xlink:title=" ">
<path fill="none" stroke="#63b8ff" d="M268.23,-221.28C271.2,-220.84 274.14,-220.41 277,-220 406.02,-201.68 439.07,-203 568,-184 680.14,-167.48 810.66,-144.19 883.15,-130.89"/>
<polygon fill="#63b8ff" stroke="#63b8ff" points="884.21,-134.25 893.42,-129 882.95,-127.37 884.21,-134.25"/>
</a>
</g>
</g>
<!-- Node17 -->
<g id="Node000017" class="node">
<title>Node17</title>
<g id="a_Node000017"><a xlink:href="SocketDNS_8h.html" target="_top" xlink:title="Asynchronous DNS resolution API.">
<polygon fill="white" stroke="#666666" points="754,-129 658,-129 658,-110 754,-110 754,-129"/>
<text text-anchor="middle" x="706" y="-117" font-family="Helvetica,sans-Serif" font-size="10.00">dns/SocketDNS.h</text>
</a>
</g>
</g>
<!-- Node7&#45;&gt;Node17 -->
<g id="edge20_Node000007_Node000017" class="edge">
<title>Node7&#45;&gt;Node17</title>
<g id="a_edge20_Node000007_Node000017"><a xlink:title=" ">
<path fill="none" stroke="#63b8ff" d="M268.24,-221.36C271.2,-220.89 274.14,-220.44 277,-220 386.66,-203.22 416.25,-210.39 524,-184 578.97,-170.54 640.73,-147.15 676.32,-132.83"/>
<polygon fill="#63b8ff" stroke="#63b8ff" points="677.69,-136.05 685.64,-129.04 675.06,-129.56 677.69,-136.05"/>
</a>
</g>
</g>
<!-- Node19 -->
<g id="Node000019" class="node">
<title>Node19</title>
<g id="a_Node000019"><a xlink:href="SocketCommon_8h.html" target="_top" xlink:title="Common utilities shared between Socket and SocketDgram modules.">
<polygon fill="white" stroke="#666666" points="515,-184 387,-184 387,-165 515,-165 515,-184"/>
<text text-anchor="middle" x="451" y="-172" font-family="Helvetica,sans-Serif" font-size="10.00">socket/SocketCommon.h</text>
</a>
</g>
</g>
<!-- Node7&#45;&gt;Node19 -->
<g id="edge25_Node000007_Node000019" class="edge">
<title>Node7&#45;&gt;Node19</title>
<g id="a_edge25_Node000007_Node000019"><a xlink:title=" ">
<path fill="none" stroke="#63b8ff" d="M260.47,-219.98C299.57,-210.86 361.77,-196.33 404.39,-186.38"/>
<polygon fill="#63b8ff" stroke="#63b8ff" points="405.3,-189.76 414.24,-184.08 403.71,-182.95 405.3,-189.76"/>
</a>
</g>
</g>
<!-- Node8&#45;&gt;Node3 -->
<g id="edge15_Node000008_Node000003" class="edge">
<title>Node8&#45;&gt;Node3</title>
<g id="a_edge15_Node000008_Node000003"><a xlink:title=" ">
<path fill="none" stroke="#63b8ff" d="M885.92,-110.77C833.83,-102.93 751.93,-89.97 671.14,-73.9"/>
<polygon fill="#63b8ff" stroke="#63b8ff" points="671.79,-70.46 661.3,-71.93 670.42,-77.32 671.79,-70.46"/>
</a>
</g>
</g>
<!-- Node9 -->
<g id="Node000009" class="node">
<title>Node9</title>
<g id="a_Node000009"><a xlink:title=" ">
<polygon fill="#e0e0e0" stroke="#999999" points="1170.5,-74 1123.5,-74 1123.5,-55 1170.5,-55 1170.5,-74"/>
<text text-anchor="middle" x="1147" y="-62" font-family="Helvetica,sans-Serif" font-size="10.00">errno.h</text>
</a>
</g>
</g>
<!-- Node8&#45;&gt;Node9 -->
<g id="edge11_Node000008_Node000009" class="edge">
<title>Node8&#45;&gt;Node9</title>
<g id="a_edge11_Node000008_Node000009"><a xlink:title=" ">
<path fill="none" stroke="#63b8ff" d="M973.43,-109.92C1006.92,-101.55 1059.5,-88.34 1113.5,-74.37"/>
<polygon fill="#63b8ff" stroke="#63b8ff" points="1114.44,-77.74 1123.24,-71.84 1112.68,-70.96 1114.44,-77.74"/>
</a>
</g>
</g>
<!-- Node10 -->
<g id="Node000010" class="node">
<title>Node10</title>
<g id="a_Node000010"><a xlink:title=" ">
<polygon fill="#e0e0e0" stroke="#999999" points="898,-74 854,-74 854,-55 898,-55 898,-74"/>
<text text-anchor="middle" x="876" y="-62" font-family="Helvetica,sans-Serif" font-size="10.00">fcntl.h</text>
</a>
</g>
</g>
<!-- Node8&#45;&gt;Node10 -->
<g id="edge12_Node000008_Node000010" class="edge">
<title>Node8&#45;&gt;Node10</title>
<g id="a_edge12_Node000008_Node000010"><a xlink:title=" ">
<path fill="none" stroke="#63b8ff" d="M928.88,-109.98C919.56,-102.15 905.53,-90.34 894.26,-80.86"/>
<polygon fill="#63b8ff" stroke="#63b8ff" points="896.21,-77.93 886.31,-74.17 891.71,-83.29 896.21,-77.93"/>
</a>
</g>
</g>
<!-- Node11 -->
<g id="Node000011" class="node">
<title>Node11</title>
<g id="a_Node000011"><a xlink:title=" ">
<polygon fill="#e0e0e0" stroke="#999999" points="835.5,-74 770.5,-74 770.5,-55 835.5,-55 835.5,-74"/>
<text text-anchor="middle" x="803" y="-62" font-family="Helvetica,sans-Serif" font-size="10.00">netinet/in.h</text>
</a>
</g>
</g>
<!-- Node8&#45;&gt;Node11 -->
<g id="edge13_Node000008_Node000011" class="edge">
<title>Node8&#45;&gt;Node11</title>
<g id="a_edge13_Node000008_Node000011"><a xlink:title=" ">
<path fill="none" stroke="#63b8ff" d="M917.15,-109.98C894.88,-101.3 860.1,-87.75 834.78,-77.88"/>
<polygon fill="#63b8ff" stroke="#63b8ff" points="835.84,-74.54 825.25,-74.17 833.29,-81.06 835.84,-74.54"/>
</a>
</g>
</g>
<!-- Node12 -->
<g id="Node000012" class="node">
<title>Node12</title>
<g id="a_Node000012"><a xlink:title=" ">
<polygon fill="#e0e0e0" stroke="#999999" points="1259.5,-74 1188.5,-74 1188.5,-55 1259.5,-55 1259.5,-74"/>
<text text-anchor="middle" x="1224" y="-62" font-family="Helvetica,sans-Serif" font-size="10.00">netinet/tcp.h</text>
</a>
</g>
</g>
<!-- Node8&#45;&gt;Node12 -->
<g id="edge14_Node000008_Node000012" class="edge">
<title>Node8&#45;&gt;Node12</title>
<g id="a_edge14_Node000008_Node000012"><a xlink:title=" ">
<path fill="none" stroke="#63b8ff" d="M985.67,-110C1032.06,-101.53 1105.51,-88.04 1178.21,-74.33"/>
<polygon fill="#63b8ff" stroke="#63b8ff" points="1179.29,-77.69 1188.46,-72.39 1177.99,-70.81 1179.29,-77.69"/>
</a>
</g>
</g>
<!-- Node13 -->
<g id="Node000013" class="node">
<title>Node13</title>
<g id="a_Node000013"><a xlink:title=" ">
<polygon fill="#e0e0e0" stroke="#999999" points="962,-74 916,-74 916,-55 962,-55 962,-74"/>
<text text-anchor="middle" x="939" y="-62" font-family="Helvetica,sans-Serif" font-size="10.00">stdio.h</text>
</a>
</g>
</g>
<!-- Node8&#45;&gt;Node13 -->
<g id="edge16_Node000008_Node000013" class="edge">
<title>Node8&#45;&gt;Node13</title>
<g id="a_edge16_Node000008_Node000013"><a xlink:title=" ">
<path fill="none" stroke="#63b8ff" d="M939,-109.75C939,-102.8 939,-92.85 939,-84.13"/>
<polygon fill="#63b8ff" stroke="#63b8ff" points="942.5,-84.09 939,-74.09 935.5,-84.09 942.5,-84.09"/>
</a>
</g>
</g>
<!-- Node14 -->
<g id="Node000014" class="node">
<title>Node14</title>
<g id="a_Node000014"><a xlink:title=" ">
<polygon fill="#e0e0e0" stroke="#999999" points="752.5,-74 679.5,-74 679.5,-55 752.5,-55 752.5,-74"/>
<text text-anchor="middle" x="716" y="-62" font-family="Helvetica,sans-Serif" font-size="10.00">sys/socket.h</text>
</a>
</g>
</g>
<!-- Node8&#45;&gt;Node14 -->
<g id="edge17_Node000008_Node000014" class="edge">
<title>Node8&#45;&gt;Node14</title>
<g id="a_edge17_Node000008_Node000014"><a xlink:title=" ">
<path fill="none" stroke="#63b8ff" d="M903.17,-109.98C864.84,-100.87 803.92,-86.4 762.05,-76.45"/>
<polygon fill="#63b8ff" stroke="#63b8ff" points="762.65,-72.99 752.11,-74.08 761.03,-79.8 762.65,-72.99"/>
</a>
</g>
</g>
<!-- Node15 -->
<g id="Node000015" class="node">
<title>Node15</title>
<g id="a_Node000015"><a xlink:title=" ">
<polygon fill="#e0e0e0" stroke="#999999" points="1036,-74 980,-74 980,-55 1036,-55 1036,-74"/>
<text text-anchor="middle" x="1008" y="-62" font-family="Helvetica,sans-Serif" font-size="10.00">sys/uio.h</text>
</a>
</g>
</g>
<!-- Node8&#45;&gt;Node15 -->
<g id="edge18_Node000008_Node000015" class="edge">
<title>Node8&#45;&gt;Node15</title>
<g id="a_edge18_Node000008_Node000015"><a xlink:title=" ">
<path fill="none" stroke="#63b8ff" d="M950.09,-109.98C960.49,-102 976.26,-89.88 988.72,-80.31"/>
<polygon fill="#63b8ff" stroke="#63b8ff" points="990.91,-83.04 996.71,-74.17 986.65,-77.49 990.91,-83.04"/>
</a>
</g>
</g>
<!-- Node16 -->
<g id="Node000016" class="node">
<title>Node16</title>
<g id="a_Node000016"><a xlink:title=" ">
<polygon fill="#e0e0e0" stroke="#999999" points="1105.5,-74 1054.5,-74 1054.5,-55 1105.5,-55 1105.5,-74"/>
<text text-anchor="middle" x="1080" y="-62" font-family="Helvetica,sans-Serif" font-size="10.00">unistd.h</text>
</a>
</g>
</g>
<!-- Node8&#45;&gt;Node16 -->
<g id="edge19_Node000008_Node000016" class="edge">
<title>Node8&#45;&gt;Node16</title>
<g id="a_edge19_Node000008_Node000016"><a xlink:title=" ">
<path fill="none" stroke="#63b8ff" d="M961.65,-109.98C984.85,-101.27 1021.12,-87.63 1047.4,-77.75"/>
<polygon fill="#63b8ff" stroke="#63b8ff" points="1048.8,-80.97 1056.93,-74.17 1046.34,-74.41 1048.8,-80.97"/>
</a>
</g>
</g>
<!-- Node17&#45;&gt;Node3 -->
<g id="edge23_Node000017_Node000003" class="edge">
<title>Node17&#45;&gt;Node3</title>
<g id="a_edge23_Node000017_Node000003"><a xlink:title=" ">
<path fill="none" stroke="#63b8ff" d="M694.59,-109.98C683.89,-102 667.66,-89.88 654.84,-80.31"/>
<polygon fill="#63b8ff" stroke="#63b8ff" points="656.72,-77.35 646.61,-74.17 652.53,-82.96 656.72,-77.35"/>
</a>
</g>
</g>
<!-- Node17&#45;&gt;Node4 -->
<g id="edge21_Node000017_Node000004" class="edge">
<title>Node17&#45;&gt;Node4</title>
<g id="a_edge21_Node000017_Node000004"><a xlink:title=" ">
<path fill="none" stroke="#63b8ff" d="M657.83,-111.09C654.84,-110.7 651.88,-110.33 649,-110 468.08,-89.09 252.01,-74.39 156.96,-68.44"/>
<polygon fill="#63b8ff" stroke="#63b8ff" points="156.99,-64.94 146.79,-67.81 156.55,-71.92 156.99,-64.94"/>
</a>
</g>
</g>
<!-- Node17&#45;&gt;Node14 -->
<g id="edge24_Node000017_Node000014" class="edge">
<title>Node17&#45;&gt;Node14</title>
<g id="a_edge24_Node000017_Node000014"><a xlink:title=" ">
<path fill="none" stroke="#63b8ff" d="M707.65,-109.75C708.96,-102.8 710.84,-92.85 712.48,-84.13"/>
<polygon fill="#63b8ff" stroke="#63b8ff" points="715.96,-84.56 714.38,-74.09 709.09,-83.27 715.96,-84.56"/>
</a>
</g>
</g>
<!-- Node18 -->
<g id="Node000018" class="node">
<title>Node18</title>
<g id="a_Node000018"><a xlink:title=" ">
<polygon fill="#e0e0e0" stroke="#999999" points="428.5,-74 379.5,-74 379.5,-55 428.5,-55 428.5,-74"/>
<text text-anchor="middle" x="404" y="-62" font-family="Helvetica,sans-Serif" font-size="10.00">netdb.h</text>
</a>
</g>
</g>
<!-- Node17&#45;&gt;Node18 -->
<g id="edge22_Node000017_Node000018" class="edge">
<title>Node17&#45;&gt;Node18</title>
<g id="a_edge22_Node000017_Node000018"><a xlink:title=" ">
<path fill="none" stroke="#63b8ff" d="M657.81,-110.04C596.61,-99.3 492.5,-81.03 438.61,-71.57"/>
<polygon fill="#63b8ff" stroke="#63b8ff" points="438.99,-68.09 428.53,-69.81 437.78,-74.98 438.99,-68.09"/>
</a>
</g>
</g>
<!-- Node19&#45;&gt;Node2 -->
<g id="edge35_Node000019_Node000002" class="edge">
<title>Node19&#45;&gt;Node2</title>
<g id="a_edge35_Node000019_Node000002"><a xlink:title=" ">
<path fill="none" stroke="#63b8ff" d="M401.03,-164.98C341.75,-154.88 243.72,-138.18 186.15,-128.37"/>
<polygon fill="#63b8ff" stroke="#63b8ff" points="186.69,-124.91 176.24,-126.68 185.51,-131.81 186.69,-124.91"/>
</a>
</g>
</g>
<!-- Node19&#45;&gt;Node4 -->
<g id="edge36_Node000019_Node000004" class="edge">
<title>Node19&#45;&gt;Node4</title>
<g id="a_edge36_Node000019_Node000004"><a xlink:title=" ">
<path fill="none" stroke="#63b8ff" d="M399.69,-164.99C358.84,-157.53 300.49,-145.31 251,-129 208.54,-115 161.56,-92.76 133.43,-78.65"/>
<polygon fill="#63b8ff" stroke="#63b8ff" points="134.81,-75.43 124.31,-74.03 131.65,-81.67 134.81,-75.43"/>
</a>
</g>
</g>
<!-- Node19&#45;&gt;Node8 -->
<g id="edge37_Node000019_Node000008" class="edge">
<title>Node19&#45;&gt;Node8</title>
<g id="a_edge37_Node000019_Node000008"><a xlink:title=" ">
<path fill="none" stroke="#63b8ff" d="M515.24,-167.13C597.84,-158.84 745.7,-143.68 872,-129 873.28,-128.85 874.57,-128.7 875.87,-128.55"/>
<polygon fill="#63b8ff" stroke="#63b8ff" points="876.47,-132 885.98,-127.33 875.64,-125.05 876.47,-132"/>
</a>
</g>
</g>
<!-- Node19&#45;&gt;Node10 -->
<g id="edge28_Node000019_Node000010" class="edge">
<title>Node19&#45;&gt;Node10</title>
<g id="a_edge28_Node000019_Node000010"><a xlink:title=" ">
<path fill="none" stroke="#63b8ff" d="M515.31,-169.63C601.75,-163.69 750.31,-150.68 800,-129 824.73,-118.21 847.7,-96.78 861.78,-81.82"/>
<polygon fill="#63b8ff" stroke="#63b8ff" points="864.5,-84.03 868.64,-74.28 859.32,-79.32 864.5,-84.03"/>
</a>
</g>
</g>
<!-- Node19&#45;&gt;Node11 -->
<g id="edge30_Node000019_Node000011" class="edge">
<title>Node19&#45;&gt;Node11</title>
<g id="a_edge30_Node000019_Node000011"><a xlink:title=" ">
<path fill="none" stroke="#63b8ff" d="M515.12,-172.42C598.84,-169.74 739.37,-160.53 779,-129 792.67,-118.12 798.55,-98.55 801.09,-84.01"/>
<polygon fill="#63b8ff" stroke="#63b8ff" points="804.56,-84.47 802.45,-74.09 797.62,-83.52 804.56,-84.47"/>
</a>
</g>
</g>
<!-- Node19&#45;&gt;Node14 -->
<g id="edge31_Node000019_Node000014" class="edge">
<title>Node19&#45;&gt;Node14</title>
<g id="a_edge31_Node000019_Node000014"><a xlink:title=" ">
<path fill="none" stroke="#63b8ff" d="M515.17,-173.82C596.97,-172.7 731.58,-165.22 763,-129 776.9,-112.97 756.84,-93.13 738.79,-79.93"/>
<polygon fill="#63b8ff" stroke="#63b8ff" points="740.46,-76.84 730.24,-74.04 736.49,-82.6 740.46,-76.84"/>
</a>
</g>
</g>
<!-- Node19&#45;&gt;Node18 -->
<g id="edge29_Node000019_Node000018" class="edge">
<title>Node19&#45;&gt;Node18</title>
<g id="a_edge29_Node000019_Node000018"><a xlink:title=" ">
<path fill="none" stroke="#63b8ff" d="M386.89,-166.98C338.06,-160.53 276.63,-148.71 261,-129 229.9,-89.77 317.7,-74.11 369.31,-68.42"/>
<polygon fill="#63b8ff" stroke="#63b8ff" points="369.83,-71.89 379.42,-67.38 369.11,-64.92 369.83,-71.89"/>
</a>
</g>
</g>
<!-- Node20 -->
<g id="Node000020" class="node">
<title>Node20</title>
<g id="a_Node000020"><a xlink:title=" ">
<polygon fill="#e0e0e0" stroke="#999999" points="327.5,-129 270.5,-129 270.5,-110 327.5,-110 327.5,-129"/>
<text text-anchor="middle" x="299" y="-117" font-family="Helvetica,sans-Serif" font-size="10.00">pthread.h</text>
</a>
</g>
</g>
<!-- Node19&#45;&gt;Node20 -->
<g id="edge26_Node000019_Node000020" class="edge">
<title>Node19&#45;&gt;Node20</title>
<g id="a_edge26_Node000019_Node000020"><a xlink:title=" ">
<path fill="none" stroke="#63b8ff" d="M426.58,-164.98C401.28,-156.16 361.55,-142.31 333.14,-132.41"/>
<polygon fill="#63b8ff" stroke="#63b8ff" points="334.21,-129.07 323.61,-129.08 331.9,-135.68 334.21,-129.07"/>
</a>
</g>
</g>
<!-- Node21 -->
<g id="Node000021" class="node">
<title>Node21</title>
<g id="a_Node000021"><a xlink:title=" ">
<polygon fill="#e0e0e0" stroke="#999999" points="402,-129 346,-129 346,-110 402,-110 402,-129"/>
<text text-anchor="middle" x="374" y="-117" font-family="Helvetica,sans-Serif" font-size="10.00">stdbool.h</text>
</a>
</g>
</g>
<!-- Node19&#45;&gt;Node21 -->
<g id="edge27_Node000019_Node000021" class="edge">
<title>Node19&#45;&gt;Node21</title>
<g id="a_edge27_Node000019_Node000021"><a xlink:title=" ">
<path fill="none" stroke="#63b8ff" d="M438.63,-164.98C426.91,-156.92 409.08,-144.65 395.11,-135.03"/>
<polygon fill="#63b8ff" stroke="#63b8ff" points="396.82,-131.96 386.6,-129.17 392.85,-137.72 396.82,-131.96"/>
</a>
</g>
</g>
<!-- Node22 -->
<g id="Node000022" class="node">
<title>Node22</title>
<g id="a_Node000022"><a xlink:title=" ">
<polygon fill="#e0e0e0" stroke="#999999" points="482,-129 420,-129 420,-110 482,-110 482,-129"/>
<text text-anchor="middle" x="451" y="-117" font-family="Helvetica,sans-Serif" font-size="10.00">sys/time.h</text>
</a>
</g>
</g>
<!-- Node19&#45;&gt;Node22 -->
<g id="edge32_Node000019_Node000022" class="edge">
<title>Node19&#45;&gt;Node22</title>
<g id="a_edge32_Node000019_Node000022"><a xlink:title=" ">
<path fill="none" stroke="#63b8ff" d="M451,-164.75C451,-157.8 451,-147.85 451,-139.13"/>
<polygon fill="#63b8ff" stroke="#63b8ff" points="454.5,-139.09 451,-129.09 447.5,-139.09 454.5,-139.09"/>
</a>
</g>
</g>
<!-- Node23 -->
<g id="Node000023" class="node">
<title>Node23</title>
<g id="a_Node000023"><a xlink:title=" ">
<polygon fill="#e0e0e0" stroke="#999999" points="568,-129 500,-129 500,-110 568,-110 568,-129"/>
<text text-anchor="middle" x="534" y="-117" font-family="Helvetica,sans-Serif" font-size="10.00">sys/types.h</text>
</a>
</g>
</g>
<!-- Node19&#45;&gt;Node23 -->
<g id="edge33_Node000019_Node000023" class="edge">
<title>Node19&#45;&gt;Node23</title>
<g id="a_edge33_Node000019_Node000023"><a xlink:title=" ">
<path fill="none" stroke="#63b8ff" d="M464.34,-164.98C477.09,-156.84 496.55,-144.41 511.67,-134.76"/>
<polygon fill="#63b8ff" stroke="#63b8ff" points="513.88,-137.5 520.42,-129.17 510.11,-131.6 513.88,-137.5"/>
</a>
</g>
</g>
<!-- Node24 -->
<g id="Node000024" class="node">
<title>Node24</title>
<g id="a_Node000024"><a xlink:title=" ">
<polygon fill="#e0e0e0" stroke="#999999" points="640,-129 586,-129 586,-110 640,-110 640,-129"/>
<text text-anchor="middle" x="613" y="-117" font-family="Helvetica,sans-Serif" font-size="10.00">sys/un.h</text>
</a>
</g>
</g>
<!-- Node19&#45;&gt;Node24 -->
<g id="edge34_Node000019_Node000024" class="edge">
<title>Node19&#45;&gt;Node24</title>
<g id="a_edge34_Node000019_Node000024"><a xlink:title=" ">
<path fill="none" stroke="#63b8ff" d="M477.03,-164.98C504.11,-156.13 546.71,-142.19 577.01,-132.28"/>
<polygon fill="#63b8ff" stroke="#63b8ff" points="578.35,-135.52 586.77,-129.08 576.18,-128.87 578.35,-135.52"/>
</a>
</g>
</g>
<!-- Node26 -->
<g id="Node000026" class="node">
<title>Node26</title>
<g id="a_Node000026"><a xlink:title=" ">
<polygon fill="#e0e0e0" stroke="#999999" points="562,-239 490,-239 490,-220 562,-220 562,-239"/>
<text text-anchor="middle" x="526" y="-227" font-family="Helvetica,sans-Serif" font-size="10.00">openssl/err.h</text>
</a>
</g>
</g>
<!-- Node25&#45;&gt;Node26 -->
<g id="edge39_Node000025_Node000026" class="edge">
<title>Node25&#45;&gt;Node26</title>
<g id="a_edge39_Node000025_Node000026"><a xlink:title=" ">
<path fill="none" stroke="#63b8ff" d="M428.64,-274.98C447.3,-266.46 476.25,-253.23 497.74,-243.41"/>
<polygon fill="#63b8ff" stroke="#63b8ff" points="499.38,-246.51 507.02,-239.17 496.47,-240.14 499.38,-246.51"/>
</a>
</g>
</g>
<!-- Node25&#45;&gt;Node27 -->
<g id="edge40_Node000025_Node000027" class="edge">
<title>Node25&#45;&gt;Node27</title>
<g id="a_edge40_Node000025_Node000027"><a xlink:title=" ">
<path fill="none" stroke="#63b8ff" d="M396.02,-274.98C382.53,-266.77 361.87,-254.18 345.96,-244.49"/>
<polygon fill="#63b8ff" stroke="#63b8ff" points="347.59,-241.38 337.23,-239.17 343.95,-247.36 347.59,-241.38"/>
</a>
</g>
</g>
<!-- Node28 -->
<g id="Node000028" class="node">
<title>Node28</title>
<g id="a_Node000028"><a xlink:title=" ">
<polygon fill="#e0e0e0" stroke="#999999" points="663.5,-239 580.5,-239 580.5,-220 663.5,-220 663.5,-239"/>
<text text-anchor="middle" x="622" y="-227" font-family="Helvetica,sans-Serif" font-size="10.00">openssl/x509.h</text>
</a>
</g>
</g>
<!-- Node25&#45;&gt;Node28 -->
<g id="edge41_Node000025_Node000028" class="edge">
<title>Node25&#45;&gt;Node28</title>
<g id="a_edge41_Node000025_Node000028"><a xlink:title=" ">
<path fill="none" stroke="#63b8ff" d="M444.06,-274.98C480.42,-265.89 538.17,-251.46 577.97,-241.51"/>
<polygon fill="#63b8ff" stroke="#63b8ff" points="578.82,-244.9 587.67,-239.08 577.12,-238.11 578.82,-244.9"/>
</a>
</g>
</g>
<!-- Node29 -->
<g id="Node000029" class="node">
<title>Node29</title>
<g id="a_Node000029"><a xlink:title=" ">
<polygon fill="#e0e0e0" stroke="#999999" points="471.5,-239 378.5,-239 378.5,-220 471.5,-220 471.5,-239"/>
<text text-anchor="middle" x="425" y="-227" font-family="Helvetica,sans-Serif" font-size="10.00">openssl/x509v3.h</text>
</a>
</g>
</g>
<!-- Node25&#45;&gt;Node29 -->
<g id="edge42_Node000025_Node000029" class="edge">
<title>Node25&#45;&gt;Node29</title>
<g id="a_edge42_Node000025_Node000029"><a xlink:title=" ">
<path fill="none" stroke="#63b8ff" d="M412.48,-274.75C414.46,-267.72 417.32,-257.62 419.81,-248.84"/>
<polygon fill="#63b8ff" stroke="#63b8ff" points="423.21,-249.66 422.57,-239.09 416.48,-247.76 423.21,-249.66"/>
</a>
</g>
</g>
</g>
</svg>
