<?xml version="1.0" encoding="UTF-8" standalone="no"?>
<!DOCTYPE svg PUBLIC "-//W3C//DTD SVG 1.1//EN"
 "http://www.w3.org/Graphics/SVG/1.1/DTD/svg11.dtd">
<!-- Generated by graphviz version 2.43.0 (0)
 -->
<!-- Title: SocketTLS.h Pages: 1 -->
<!--zoomable 302 -->

<svg id="main" version="1.1" xmlns="http://www.w3.org/2000/svg" xmlns:xlink="http://www.w3.org/1999/xlink" xml:space="preserve" onload="init(evt)">
<style type="text/css"><![CDATA[
.node, .edge {opacity: 0.7;}
.node.selected, .edge.selected {opacity: 1;}
.edge:hover path { stroke: red; }
.edge:hover polygon { stroke: red; fill: red; }
]]></style>

<defs>
  <circle id="rim" cx="0" cy="0" r="7"/>
  <circle id="rim2" cx="0" cy="0" r="3.5"/>
  <g id="zoomPlus">
    <use xlink:href="#rim" fill="#404040"><set attributeName="fill" to="#808080" begin="zoomplus.mouseover" end="zoomplus.mouseout"/></use>
    <path d="M-4,0h8M0,-4v8" fill="none" stroke="white" stroke-width="1.5" pointer-events="none"/>
  </g>
  <g id="zoomMin">
    <use xlink:href="#rim" fill="#404040"><set attributeName="fill" to="#808080" begin="zoomminus.mouseover" end="zoomminus.mouseout"/></use>
    <path d="M-4,0h8" fill="none" stroke="white" stroke-width="1.5" pointer-events="none"/>
  </g>
  <g id="arrowUp" transform="translate(30 24)">
    <use xlink:href="#rim"/>
    <path pointer-events="none" fill="none" stroke="white" stroke-width="1.5" d="M0,-3.0v7 M-2.5,-0.5L0,-3.0L2.5,-0.5"/>
  </g>
  <g id="arrowRight" transform="rotate(90) translate(36 -43)">
    <use xlink:href="#rim"/>
    <path pointer-events="none" fill="none" stroke="white" stroke-width="1.5" d="M0,-3.0v7 M-2.5,-0.5L0,-3.0L2.5,-0.5"/>
  </g>
  <g id="arrowDown" transform="rotate(180) translate(-30 -48)">
    <use xlink:href="#rim"/>
    <path pointer-events="none" fill="none" stroke="white" stroke-width="1.5" d="M0,-3.0v7 M-2.5,-0.5L0,-3.0L2.5,-0.5"/>
  </g>
  <g id="arrowLeft" transform="rotate(270) translate(-36 17)">
    <use xlink:href="#rim"/>
    <path pointer-events="none" fill="none" stroke="white" stroke-width="1.5" d="M0,-3.0v7 M-2.5,-0.5L0,-3.0L2.5,-0.5"/>
  </g>
  <g id="resetDef">
    <use xlink:href="#rim2" fill="#404040"><set attributeName="fill" to="#808080" begin="reset.mouseover" end="reset.mouseout"/></use>
  </g>
</defs>
<script type="application/ecmascript">
var viewWidth = 1095;
var viewHeight = 302;
var sectionId = 'dynsection-0';
</script>
<script type="application/ecmascript" xlink:href="svg.min.js"/>
<svg id="graph" class="graph">
<g id="viewport">
<title>SocketTLS.h</title>
<!-- Node1 -->
<g id="Node000001" class="node">
<title>Node1</title>
<g id="a_Node000001"><a xlink:title=" ">
<polygon fill="#999999" stroke="#666666" points="956,-294 882,-294 882,-275 956,-275 956,-294"/>
<text text-anchor="middle" x="919" y="-282" font-family="Helvetica,sans-Serif" font-size="10.00">SocketTLS.h</text>
</a>
</g>
</g>
<!-- Node2 -->
<g id="Node000002" class="node">
<title>Node2</title>
<g id="a_Node000002"><a xlink:href="Except_8h.html" target="_top" xlink:title=" ">
<polygon fill="white" stroke="#666666" points="927.5,-74 850.5,-74 850.5,-55 927.5,-55 927.5,-74"/>
<text text-anchor="middle" x="889" y="-62" font-family="Helvetica,sans-Serif" font-size="10.00">core/Except.h</text>
</a>
</g>
</g>
<!-- Node1&#45;&gt;Node2 -->
<g id="edge1_Node000001_Node000002" class="edge">
<title>Node1&#45;&gt;Node2</title>
<g id="a_edge1_Node000001_Node000002"><a xlink:title=" ">
<path fill="none" stroke="#63b8ff" d="M938.15,-274.82C990.28,-250.05 1127.44,-176.46 1075,-110 1058.2,-88.71 987.09,-76.47 937.83,-70.4"/>
<polygon fill="#63b8ff" stroke="#63b8ff" points="938.02,-66.9 927.67,-69.2 937.19,-73.85 938.02,-66.9"/>
</a>
</g>
</g>
<!-- Node4 -->
<g id="Node000004" class="node">
<title>Node4</title>
<g id="a_Node000004"><a xlink:href="Socket_8h.html" target="_top" xlink:title=" ">
<polygon fill="white" stroke="#666666" points="767,-239 679,-239 679,-220 767,-220 767,-239"/>
<text text-anchor="middle" x="723" y="-227" font-family="Helvetica,sans-Serif" font-size="10.00">socket/Socket.h</text>
</a>
</g>
</g>
<!-- Node1&#45;&gt;Node4 -->
<g id="edge3_Node000001_Node000004" class="edge">
<title>Node1&#45;&gt;Node4</title>
<g id="a_edge3_Node000001_Node000004"><a xlink:title=" ">
<path fill="none" stroke="#63b8ff" d="M887.51,-274.98C854.18,-265.97 801.4,-251.7 764.65,-241.76"/>
<polygon fill="#63b8ff" stroke="#63b8ff" points="765.3,-238.31 754.74,-239.08 763.48,-245.07 765.3,-238.31"/>
</a>
</g>
</g>
<!-- Node3 -->
<g id="Node000003" class="node">
<title>Node3</title>
<g id="a_Node000003"><a xlink:title=" ">
<polygon fill="#e0e0e0" stroke="#999999" points="916,-19 862,-19 862,0 916,0 916,-19"/>
<text text-anchor="middle" x="889" y="-7" font-family="Helvetica,sans-Serif" font-size="10.00">setjmp.h</text>
</a>
</g>
</g>
<!-- Node2&#45;&gt;Node3 -->
<g id="edge2_Node000002_Node000003" class="edge">
<title>Node2&#45;&gt;Node3</title>
<g id="a_edge2_Node000002_Node000003"><a xlink:title=" ">
<path fill="none" stroke="#63b8ff" d="M889,-54.75C889,-47.8 889,-37.85 889,-29.13"/>
<polygon fill="#63b8ff" stroke="#63b8ff" points="892.5,-29.09 889,-19.09 885.5,-29.09 892.5,-29.09"/>
</a>
</g>
</g>
<!-- Node4&#45;&gt;Node2 -->
<g id="edge4_Node000004_Node000002" class="edge">
<title>Node4&#45;&gt;Node2</title>
<g id="a_edge4_Node000004_Node000002"><a xlink:title=" ">
<path fill="none" stroke="#63b8ff" d="M767.2,-221.97C849.91,-208.73 1022.94,-175.99 1058,-129 1090.96,-84.83 998.92,-71.38 938.04,-67.29"/>
<polygon fill="#63b8ff" stroke="#63b8ff" points="938.01,-63.78 927.82,-66.67 937.59,-70.77 938.01,-63.78"/>
</a>
</g>
</g>
<!-- Node5 -->
<g id="Node000005" class="node">
<title>Node5</title>
<g id="a_Node000005"><a xlink:href="SocketConfig_8h.html" target="_top" xlink:title=" ">
<polygon fill="white" stroke="#666666" points="267,-129 161,-129 161,-110 267,-110 267,-129"/>
<text text-anchor="middle" x="214" y="-117" font-family="Helvetica,sans-Serif" font-size="10.00">core/SocketConfig.h</text>
</a>
</g>
</g>
<!-- Node4&#45;&gt;Node5 -->
<g id="edge5_Node000004_Node000005" class="edge">
<title>Node4&#45;&gt;Node5</title>
<g id="a_edge5_Node000004_Node000005"><a xlink:title=" ">
<path fill="none" stroke="#63b8ff" d="M682.63,-219.94C590.57,-200.4 365.24,-152.59 264.32,-131.18"/>
<polygon fill="#63b8ff" stroke="#63b8ff" points="264.88,-127.72 254.37,-129.07 263.43,-134.57 264.88,-127.72"/>
</a>
</g>
</g>
<!-- Node14 -->
<g id="Node000014" class="node">
<title>Node14</title>
<g id="a_Node000014"><a xlink:href="SocketDNS_8h.html" target="_top" xlink:title=" ">
<polygon fill="white" stroke="#666666" points="771,-129 675,-129 675,-110 771,-110 771,-129"/>
<text text-anchor="middle" x="723" y="-117" font-family="Helvetica,sans-Serif" font-size="10.00">dns/SocketDNS.h</text>
</a>
</g>
</g>
<!-- Node4&#45;&gt;Node14 -->
<g id="edge14_Node000004_Node000014" class="edge">
<title>Node4&#45;&gt;Node14</title>
<g id="a_edge14_Node000004_Node000014"><a xlink:title=" ">
<path fill="none" stroke="#63b8ff" d="M723,-219.66C723,-202.17 723,-162.8 723,-139.27"/>
<polygon fill="#63b8ff" stroke="#63b8ff" points="726.5,-139.16 723,-129.16 719.5,-139.16 726.5,-139.16"/>
</a>
</g>
</g>
<!-- Node16 -->
<g id="Node000016" class="node">
<title>Node16</title>
<g id="a_Node000016"><a xlink:href="SocketCommon_8h.html" target="_top" xlink:title=" ">
<polygon fill="white" stroke="#666666" points="673,-184 545,-184 545,-165 673,-165 673,-184"/>
<text text-anchor="middle" x="609" y="-172" font-family="Helvetica,sans-Serif" font-size="10.00">socket/SocketCommon.h</text>
</a>
</g>
</g>
<!-- Node4&#45;&gt;Node16 -->
<g id="edge19_Node000004_Node000016" class="edge">
<title>Node4&#45;&gt;Node16</title>
<g id="a_edge19_Node000004_Node000016"><a xlink:title=" ">
<path fill="none" stroke="#63b8ff" d="M704.68,-219.98C686.34,-211.46 657.89,-198.23 636.77,-188.41"/>
<polygon fill="#63b8ff" stroke="#63b8ff" points="638.19,-185.21 627.65,-184.17 635.24,-191.56 638.19,-185.21"/>
</a>
</g>
</g>
<!-- Node6 -->
<g id="Node000006" class="node">
<title>Node6</title>
<g id="a_Node000006"><a xlink:title=" ">
<polygon fill="#e0e0e0" stroke="#999999" points="190.5,-74 143.5,-74 143.5,-55 190.5,-55 190.5,-74"/>
<text text-anchor="middle" x="167" y="-62" font-family="Helvetica,sans-Serif" font-size="10.00">errno.h</text>
</a>
</g>
</g>
<!-- Node5&#45;&gt;Node6 -->
<g id="edge6_Node000005_Node000006" class="edge">
<title>Node5&#45;&gt;Node6</title>
<g id="a_edge6_Node000005_Node000006"><a xlink:title=" ">
<path fill="none" stroke="#63b8ff" d="M206.24,-109.75C199.53,-102.18 189.66,-91.05 181.49,-81.84"/>
<polygon fill="#63b8ff" stroke="#63b8ff" points="183.87,-79.25 174.62,-74.09 178.63,-83.89 183.87,-79.25"/>
</a>
</g>
</g>
<!-- Node7 -->
<g id="Node000007" class="node">
<title>Node7</title>
<g id="a_Node000007"><a xlink:title=" ">
<polygon fill="#e0e0e0" stroke="#999999" points="317,-74 273,-74 273,-55 317,-55 317,-74"/>
<text text-anchor="middle" x="295" y="-62" font-family="Helvetica,sans-Serif" font-size="10.00">fcntl.h</text>
</a>
</g>
</g>
<!-- Node5&#45;&gt;Node7 -->
<g id="edge7_Node000005_Node000007" class="edge">
<title>Node5&#45;&gt;Node7</title>
<g id="a_edge7_Node000005_Node000007"><a xlink:title=" ">
<path fill="none" stroke="#63b8ff" d="M227.01,-109.98C239.46,-101.84 258.46,-89.41 273.21,-79.76"/>
<polygon fill="#63b8ff" stroke="#63b8ff" points="275.3,-82.57 281.75,-74.17 271.46,-76.72 275.3,-82.57"/>
</a>
</g>
</g>
<!-- Node8 -->
<g id="Node000008" class="node">
<title>Node8</title>
<g id="a_Node000008"><a xlink:title=" ">
<polygon fill="#e0e0e0" stroke="#999999" points="400.5,-74 335.5,-74 335.5,-55 400.5,-55 400.5,-74"/>
<text text-anchor="middle" x="368" y="-62" font-family="Helvetica,sans-Serif" font-size="10.00">netinet/in.h</text>
</a>
</g>
</g>
<!-- Node5&#45;&gt;Node8 -->
<g id="edge8_Node000005_Node000008" class="edge">
<title>Node5&#45;&gt;Node8</title>
<g id="a_edge8_Node000005_Node000008"><a xlink:title=" ">
<path fill="none" stroke="#63b8ff" d="M238.74,-109.98C264.37,-101.16 304.63,-87.31 333.41,-77.41"/>
<polygon fill="#63b8ff" stroke="#63b8ff" points="334.75,-80.65 343.06,-74.08 332.47,-74.03 334.75,-80.65"/>
</a>
</g>
</g>
<!-- Node9 -->
<g id="Node000009" class="node">
<title>Node9</title>
<g id="a_Node000009"><a xlink:title=" ">
<polygon fill="#e0e0e0" stroke="#999999" points="749,-74 697,-74 697,-55 749,-55 749,-74"/>
<text text-anchor="middle" x="723" y="-62" font-family="Helvetica,sans-Serif" font-size="10.00">stddef.h</text>
</a>
</g>
</g>
<!-- Node5&#45;&gt;Node9 -->
<g id="edge9_Node000005_Node000009" class="edge">
<title>Node5&#45;&gt;Node9</title>
<g id="a_edge9_Node000005_Node000009"><a xlink:title=" ">
<path fill="none" stroke="#63b8ff" d="M267.12,-115.56C354.48,-110.25 533.77,-97.4 684,-74 684.9,-73.86 685.81,-73.71 686.72,-73.56"/>
<polygon fill="#63b8ff" stroke="#63b8ff" points="687.47,-76.98 696.65,-71.69 686.17,-70.1 687.47,-76.98"/>
</a>
</g>
</g>
<!-- Node10 -->
<g id="Node000010" class="node">
<title>Node10</title>
<g id="a_Node000010"><a xlink:title=" ">
<polygon fill="#e0e0e0" stroke="#999999" points="255,-74 209,-74 209,-55 255,-55 255,-74"/>
<text text-anchor="middle" x="232" y="-62" font-family="Helvetica,sans-Serif" font-size="10.00">stdio.h</text>
</a>
</g>
</g>
<!-- Node5&#45;&gt;Node10 -->
<g id="edge10_Node000005_Node000010" class="edge">
<title>Node5&#45;&gt;Node10</title>
<g id="a_edge10_Node000005_Node000010"><a xlink:title=" ">
<path fill="none" stroke="#63b8ff" d="M216.97,-109.75C219.36,-102.72 222.79,-92.62 225.77,-83.84"/>
<polygon fill="#63b8ff" stroke="#63b8ff" points="229.18,-84.68 229.08,-74.09 222.55,-82.43 229.18,-84.68"/>
</a>
</g>
</g>
<!-- Node11 -->
<g id="Node000011" class="node">
<title>Node11</title>
<g id="a_Node000011"><a xlink:title=" ">
<polygon fill="#e0e0e0" stroke="#999999" points="491.5,-74 418.5,-74 418.5,-55 491.5,-55 491.5,-74"/>
<text text-anchor="middle" x="455" y="-62" font-family="Helvetica,sans-Serif" font-size="10.00">sys/socket.h</text>
</a>
</g>
</g>
<!-- Node5&#45;&gt;Node11 -->
<g id="edge11_Node000005_Node000011" class="edge">
<title>Node5&#45;&gt;Node11</title>
<g id="a_edge11_Node000005_Node000011"><a xlink:title=" ">
<path fill="none" stroke="#63b8ff" d="M252.72,-109.98C295.15,-100.65 363.19,-85.69 408.49,-75.73"/>
<polygon fill="#63b8ff" stroke="#63b8ff" points="409.34,-79.13 418.35,-73.56 407.83,-72.29 409.34,-79.13"/>
</a>
</g>
</g>
<!-- Node12 -->
<g id="Node000012" class="node">
<title>Node12</title>
<g id="a_Node000012"><a xlink:title=" ">
<polygon fill="#e0e0e0" stroke="#999999" points="56,-74 0,-74 0,-55 56,-55 56,-74"/>
<text text-anchor="middle" x="28" y="-62" font-family="Helvetica,sans-Serif" font-size="10.00">sys/uio.h</text>
</a>
</g>
</g>
<!-- Node5&#45;&gt;Node12 -->
<g id="edge12_Node000005_Node000012" class="edge">
<title>Node5&#45;&gt;Node12</title>
<g id="a_edge12_Node000005_Node000012"><a xlink:title=" ">
<path fill="none" stroke="#63b8ff" d="M184.12,-109.98C152.06,-100.85 101.05,-86.32 66.13,-76.36"/>
<polygon fill="#63b8ff" stroke="#63b8ff" points="66.86,-72.93 56.29,-73.56 64.94,-79.67 66.86,-72.93"/>
</a>
</g>
</g>
<!-- Node13 -->
<g id="Node000013" class="node">
<title>Node13</title>
<g id="a_Node000013"><a xlink:title=" ">
<polygon fill="#e0e0e0" stroke="#999999" points="125.5,-74 74.5,-74 74.5,-55 125.5,-55 125.5,-74"/>
<text text-anchor="middle" x="100" y="-62" font-family="Helvetica,sans-Serif" font-size="10.00">unistd.h</text>
</a>
</g>
</g>
<!-- Node5&#45;&gt;Node13 -->
<g id="edge13_Node000005_Node000013" class="edge">
<title>Node5&#45;&gt;Node13</title>
<g id="a_edge13_Node000005_Node000013"><a xlink:title=" ">
<path fill="none" stroke="#63b8ff" d="M195.68,-109.98C177.34,-101.46 148.89,-88.23 127.77,-78.41"/>
<polygon fill="#63b8ff" stroke="#63b8ff" points="129.19,-75.21 118.65,-74.17 126.24,-81.56 129.19,-75.21"/>
</a>
</g>
</g>
<!-- Node14&#45;&gt;Node2 -->
<g id="edge15_Node000014_Node000002" class="edge">
<title>Node14&#45;&gt;Node2</title>
<g id="a_edge15_Node000014_Node000002"><a xlink:title=" ">
<path fill="none" stroke="#63b8ff" d="M749.67,-109.98C777.54,-101.09 821.45,-87.07 852.52,-77.15"/>
<polygon fill="#63b8ff" stroke="#63b8ff" points="853.66,-80.46 862.12,-74.08 851.53,-73.79 853.66,-80.46"/>
</a>
</g>
</g>
<!-- Node14&#45;&gt;Node9 -->
<g id="edge17_Node000014_Node000009" class="edge">
<title>Node14&#45;&gt;Node9</title>
<g id="a_edge17_Node000014_Node000009"><a xlink:title=" ">
<path fill="none" stroke="#63b8ff" d="M723,-109.75C723,-102.8 723,-92.85 723,-84.13"/>
<polygon fill="#63b8ff" stroke="#63b8ff" points="726.5,-84.09 723,-74.09 719.5,-84.09 726.5,-84.09"/>
</a>
</g>
</g>
<!-- Node14&#45;&gt;Node11 -->
<g id="edge18_Node000014_Node000011" class="edge">
<title>Node14&#45;&gt;Node11</title>
<g id="a_edge18_Node000014_Node000011"><a xlink:title=" ">
<path fill="none" stroke="#63b8ff" d="M679.94,-109.98C631.21,-100.35 552.11,-84.71 501.87,-74.77"/>
<polygon fill="#63b8ff" stroke="#63b8ff" points="502.4,-71.31 491.91,-72.8 501.04,-78.17 502.4,-71.31"/>
</a>
</g>
</g>
<!-- Node15 -->
<g id="Node000015" class="node">
<title>Node15</title>
<g id="a_Node000015"><a xlink:title=" ">
<polygon fill="#e0e0e0" stroke="#999999" points="675.5,-74 626.5,-74 626.5,-55 675.5,-55 675.5,-74"/>
<text text-anchor="middle" x="651" y="-62" font-family="Helvetica,sans-Serif" font-size="10.00">netdb.h</text>
</a>
</g>
</g>
<!-- Node14&#45;&gt;Node15 -->
<g id="edge16_Node000014_Node000015" class="edge">
<title>Node14&#45;&gt;Node15</title>
<g id="a_edge16_Node000014_Node000015"><a xlink:title=" ">
<path fill="none" stroke="#63b8ff" d="M711.43,-109.98C700.58,-102 684.12,-89.88 671.12,-80.31"/>
<polygon fill="#63b8ff" stroke="#63b8ff" points="672.91,-77.28 662.78,-74.17 668.76,-82.92 672.91,-77.28"/>
</a>
</g>
</g>
<!-- Node16&#45;&gt;Node2 -->
<g id="edge32_Node000016_Node000002" class="edge">
<title>Node16&#45;&gt;Node2</title>
<g id="a_edge32_Node000016_Node000002"><a xlink:title=" ">
<path fill="none" stroke="#63b8ff" d="M673.11,-170.2C740.78,-165.42 841.52,-154.21 870,-129 882.51,-117.93 886.94,-98.99 888.43,-84.67"/>
<polygon fill="#63b8ff" stroke="#63b8ff" points="891.95,-84.62 889.1,-74.41 884.96,-84.17 891.95,-84.62"/>
</a>
</g>
</g>
<!-- Node16&#45;&gt;Node5 -->
<g id="edge33_Node000016_Node000005" class="edge">
<title>Node16&#45;&gt;Node5</title>
<g id="a_edge33_Node000016_Node000005"><a xlink:title=" ">
<path fill="none" stroke="#63b8ff" d="M545.54,-164.98C471.8,-155.09 350.88,-138.87 277.24,-128.99"/>
<polygon fill="#63b8ff" stroke="#63b8ff" points="277.55,-125.5 267.18,-127.63 276.62,-132.43 277.55,-125.5"/>
</a>
</g>
</g>
<!-- Node16&#45;&gt;Node7 -->
<g id="edge22_Node000016_Node000007" class="edge">
<title>Node16&#45;&gt;Node7</title>
<g id="a_edge22_Node000016_Node000007"><a xlink:title=" ">
<path fill="none" stroke="#63b8ff" d="M544.89,-168.24C477.3,-161.75 376.09,-149.04 343,-129 325.14,-118.18 311.64,-98.01 303.57,-83.29"/>
<polygon fill="#63b8ff" stroke="#63b8ff" points="306.56,-81.45 298.87,-74.16 300.34,-84.65 306.56,-81.45"/>
</a>
</g>
</g>
<!-- Node16&#45;&gt;Node8 -->
<g id="edge24_Node000016_Node000008" class="edge">
<title>Node16&#45;&gt;Node8</title>
<g id="a_edge24_Node000016_Node000008"><a xlink:title=" ">
<path fill="none" stroke="#63b8ff" d="M609.05,-164.64C608.63,-150.82 605.66,-124.25 590,-110 531.7,-56.96 492.53,-87.69 410.85,-74.17"/>
<polygon fill="#63b8ff" stroke="#63b8ff" points="411.14,-70.67 400.67,-72.3 409.87,-77.55 411.14,-70.67"/>
</a>
</g>
</g>
<!-- Node16&#45;&gt;Node11 -->
<g id="edge25_Node000016_Node000011" class="edge">
<title>Node16&#45;&gt;Node11</title>
<g id="a_edge25_Node000016_Node000011"><a xlink:title=" ">
<path fill="none" stroke="#63b8ff" d="M544.71,-171.51C476.78,-167.9 376.17,-157.71 352,-129 331.29,-104.39 372.19,-86.51 408.42,-76.1"/>
<polygon fill="#63b8ff" stroke="#63b8ff" points="409.73,-79.37 418.46,-73.37 407.89,-72.62 409.73,-79.37"/>
</a>
</g>
</g>
<!-- Node16&#45;&gt;Node15 -->
<g id="edge23_Node000016_Node000015" class="edge">
<title>Node16&#45;&gt;Node15</title>
<g id="a_edge23_Node000016_Node000015"><a xlink:title=" ">
<path fill="none" stroke="#63b8ff" d="M612.44,-164.66C619.3,-147.01 634.83,-107.09 643.95,-83.64"/>
<polygon fill="#63b8ff" stroke="#63b8ff" points="647.27,-84.75 647.63,-74.16 640.75,-82.21 647.27,-84.75"/>
</a>
</g>
</g>
<!-- Node17 -->
<g id="Node000017" class="node">
<title>Node17</title>
<g id="a_Node000017"><a xlink:title=" ">
<polygon fill="#e0e0e0" stroke="#999999" points="973,-129 917,-129 917,-110 973,-110 973,-129"/>
<text text-anchor="middle" x="945" y="-117" font-family="Helvetica,sans-Serif" font-size="10.00">stdbool.h</text>
</a>
</g>
</g>
<!-- Node16&#45;&gt;Node17 -->
<g id="edge20_Node000016_Node000017" class="edge">
<title>Node16&#45;&gt;Node17</title>
<g id="a_edge20_Node000016_Node000017"><a xlink:title=" ">
<path fill="none" stroke="#63b8ff" d="M671.38,-164.97C730.99,-156.61 823.32,-143.08 903,-129 904.1,-128.81 905.21,-128.61 906.34,-128.4"/>
<polygon fill="#63b8ff" stroke="#63b8ff" points="907.4,-131.76 916.57,-126.45 906.09,-124.88 907.4,-131.76"/>
</a>
</g>
</g>
<!-- Node18 -->
<g id="Node000018" class="node">
<title>Node18</title>
<g id="a_Node000018"><a xlink:title=" ">
<polygon fill="#e0e0e0" stroke="#999999" points="1048.5,-129 991.5,-129 991.5,-110 1048.5,-110 1048.5,-129"/>
<text text-anchor="middle" x="1020" y="-117" font-family="Helvetica,sans-Serif" font-size="10.00">pthread.h</text>
</a>
</g>
</g>
<!-- Node16&#45;&gt;Node18 -->
<g id="edge21_Node000016_Node000018" class="edge">
<title>Node16&#45;&gt;Node18</title>
<g id="a_edge21_Node000016_Node000018"><a xlink:title=" ">
<path fill="none" stroke="#63b8ff" d="M673.31,-167.83C745.76,-160.98 867.21,-148.17 981.46,-128.92"/>
<polygon fill="#63b8ff" stroke="#63b8ff" points="982.16,-132.35 991.43,-127.22 980.98,-125.45 982.16,-132.35"/>
</a>
</g>
</g>
<!-- Node19 -->
<g id="Node000019" class="node">
<title>Node19</title>
<g id="a_Node000019"><a xlink:title=" ">
<polygon fill="#e0e0e0" stroke="#999999" points="423,-129 361,-129 361,-110 423,-110 423,-129"/>
<text text-anchor="middle" x="392" y="-117" font-family="Helvetica,sans-Serif" font-size="10.00">sys/time.h</text>
</a>
</g>
</g>
<!-- Node16&#45;&gt;Node19 -->
<g id="edge26_Node000016_Node000019" class="edge">
<title>Node16&#45;&gt;Node19</title>
<g id="a_edge26_Node000016_Node000019"><a xlink:title=" ">
<path fill="none" stroke="#63b8ff" d="M574.14,-164.98C535.7,-155.6 473.92,-140.51 433.14,-130.55"/>
<polygon fill="#63b8ff" stroke="#63b8ff" points="433.8,-127.11 423.26,-128.13 432.14,-133.91 433.8,-127.11"/>
</a>
</g>
</g>
<!-- Node20 -->
<g id="Node000020" class="node">
<title>Node20</title>
<g id="a_Node000020"><a xlink:title=" ">
<polygon fill="#e0e0e0" stroke="#999999" points="509,-129 441,-129 441,-110 509,-110 509,-129"/>
<text text-anchor="middle" x="475" y="-117" font-family="Helvetica,sans-Serif" font-size="10.00">sys/types.h</text>
</a>
</g>
</g>
<!-- Node16&#45;&gt;Node20 -->
<g id="edge27_Node000016_Node000020" class="edge">
<title>Node16&#45;&gt;Node20</title>
<g id="a_edge27_Node000016_Node000020"><a xlink:title=" ">
<path fill="none" stroke="#63b8ff" d="M587.47,-164.98C565.53,-156.3 531.26,-142.75 506.31,-132.88"/>
<polygon fill="#63b8ff" stroke="#63b8ff" points="507.51,-129.59 496.92,-129.17 504.93,-136.1 507.51,-129.59"/>
</a>
</g>
</g>
<!-- Node21 -->
<g id="Node000021" class="node">
<title>Node21</title>
<g id="a_Node000021"><a xlink:title=" ">
<polygon fill="#e0e0e0" stroke="#999999" points="581,-129 527,-129 527,-110 581,-110 581,-129"/>
<text text-anchor="middle" x="554" y="-117" font-family="Helvetica,sans-Serif" font-size="10.00">sys/un.h</text>
</a>
</g>
</g>
<!-- Node16&#45;&gt;Node21 -->
<g id="edge28_Node000016_Node000021" class="edge">
<title>Node16&#45;&gt;Node21</title>
<g id="a_edge28_Node000016_Node000021"><a xlink:title=" ">
<path fill="none" stroke="#63b8ff" d="M599.92,-164.75C591.91,-157.03 580.04,-145.6 570.38,-136.28"/>
<polygon fill="#63b8ff" stroke="#63b8ff" points="572.54,-133.51 562.91,-129.09 567.69,-138.55 572.54,-133.51"/>
</a>
</g>
</g>
<!-- Node22 -->
<g id="Node000022" class="node">
<title>Node22</title>
<g id="a_Node000022"><a xlink:href="Arena_8h.html" target="_top" xlink:title=" ">
<polygon fill="white" stroke="#666666" points="861,-129 789,-129 789,-110 861,-110 861,-129"/>
<text text-anchor="middle" x="825" y="-117" font-family="Helvetica,sans-Serif" font-size="10.00">core/Arena.h</text>
</a>
</g>
</g>
<!-- Node16&#45;&gt;Node22 -->
<g id="edge29_Node000016_Node000022" class="edge">
<title>Node16&#45;&gt;Node22</title>
<g id="a_edge29_Node000016_Node000022"><a xlink:title=" ">
<path fill="none" stroke="#63b8ff" d="M643.7,-164.98C680.75,-155.89 739.59,-141.46 780.13,-131.51"/>
<polygon fill="#63b8ff" stroke="#63b8ff" points="781.15,-134.86 790.02,-129.08 779.48,-128.07 781.15,-134.86"/>
</a>
</g>
</g>
<!-- Node22&#45;&gt;Node2 -->
<g id="edge31_Node000022_Node000002" class="edge">
<title>Node22&#45;&gt;Node2</title>
<g id="a_edge31_Node000022_Node000002"><a xlink:title=" ">
<path fill="none" stroke="#63b8ff" d="M835.28,-109.98C844.84,-102.07 859.28,-90.11 870.78,-80.58"/>
<polygon fill="#63b8ff" stroke="#63b8ff" points="873.06,-83.24 878.53,-74.17 868.6,-77.85 873.06,-83.24"/>
</a>
</g>
</g>
<!-- Node22&#45;&gt;Node9 -->
<g id="edge30_Node000022_Node000009" class="edge">
<title>Node22&#45;&gt;Node9</title>
<g id="a_edge30_Node000022_Node000009"><a xlink:title=" ">
<path fill="none" stroke="#63b8ff" d="M808.61,-109.98C792.43,-101.57 767.43,-88.59 748.62,-78.81"/>
<polygon fill="#63b8ff" stroke="#63b8ff" points="750.17,-75.68 739.69,-74.17 746.95,-81.89 750.17,-75.68"/>
</a>
</g>
</g>
</g>
</svg>

<g id="navigator" transform="translate(0 0)" fill="#404254">
  <rect fill="#f2f5e9" fill-opacity="0.5" stroke="#606060" stroke-width=".5" x="0" y="0" width="60" height="60"/>
  <use id="zoomplus" xlink:href="#zoomPlus" x="17" y="9" onmousedown="handleZoom(evt,'in')"/>
  <use id="zoomminus" xlink:href="#zoomMin" x="42" y="9" onmousedown="handleZoom(evt,'out')"/>
  <use id="reset" xlink:href="#resetDef" x="30" y="36" onmousedown="handleReset()"/>
   <use id="arrowup" xlink:href="#arrowUp" x="0" y="0" onmousedown="handlePan(0,-1)"/>
  <use id="arrowright" xlink:href="#arrowRight" x="0" y="0" onmousedown="handlePan(1,0)"/>
  <use id="arrowdown" xlink:href="#arrowDown" x="0" y="0" onmousedown="handlePan(0,1)"/>
  <use id="arrowleft" xlink:href="#arrowLeft" x="0" y="0" onmousedown="handlePan(-1,0)"/>
</g>
<svg viewBox="0 0 15 15" width="100%" height="30px" preserveAspectRatio="xMaxYMin meet">
 <g id="arrow_out" transform="scale(0.3 0.3)">
  <a xlink:href="SocketTLS_8h__incl_org.svg" target="_base">
   <rect id="button" ry="5" rx="5" y="6" x="6" height="38" width="38"
        fill="#f2f5e9" fill-opacity="0.5" stroke="#606060" stroke-width="1.0"/>
   <path id="arrow"
     d="M 11.500037,31.436501 C 11.940474,20.09759 22.043105,11.32322 32.158766,21.979434 L 37.068811,17.246167 C 37.068811,17.246167 37.088388,32 37.088388,32 L 22.160133,31.978069 C 22.160133,31.978069 26.997745,27.140456 26.997745,27.140456 C 18.528582,18.264221 13.291696,25.230495 11.500037,31.436501 z"
     style="fill:#404040;"/>
  </a>
 </g>
</svg>

<style type='text/css'>
<![CDATA[
[data-mouse-over-selected='false'] { opacity: 0.7; }
[data-mouse-over-selected='true']  { opacity: 1.0; }
]]>
</style>
<script type="application/ecmascript"><![CDATA[
document.addEventListener('DOMContentLoaded', (event) => {
  highlightEdges();
  highlightAdjacentNodes();
});
]]></script>
</svg>
