<?xml version="1.0" encoding="UTF-8" standalone="no"?>
<!DOCTYPE svg PUBLIC "-//W3C//DTD SVG 1.1//EN"
 "http://www.w3.org/Graphics/SVG/1.1/DTD/svg11.dtd">
<!-- Generated by graphviz version 2.43.0 (0)
 -->
<!-- Title: SocketProxy.h Pages: 1 -->
<!--zoomable 412 -->

<svg id="main" version="1.1" xmlns="http://www.w3.org/2000/svg" xmlns:xlink="http://www.w3.org/1999/xlink" xml:space="preserve" onload="init(evt)">
<style type="text/css"><![CDATA[
.node, .edge {opacity: 0.7;}
.node.selected, .edge.selected {opacity: 1;}
.edge:hover path { stroke: red; }
.edge:hover polygon { stroke: red; fill: red; }
]]></style>

<defs>
  <circle id="rim" cx="0" cy="0" r="7"/>
  <circle id="rim2" cx="0" cy="0" r="3.5"/>
  <g id="zoomPlus">
    <use xlink:href="#rim" fill="#404040"><set attributeName="fill" to="#808080" begin="zoomplus.mouseover" end="zoomplus.mouseout"/></use>
    <path d="M-4,0h8M0,-4v8" fill="none" stroke="white" stroke-width="1.5" pointer-events="none"/>
  </g>
  <g id="zoomMin">
    <use xlink:href="#rim" fill="#404040"><set attributeName="fill" to="#808080" begin="zoomminus.mouseover" end="zoomminus.mouseout"/></use>
    <path d="M-4,0h8" fill="none" stroke="white" stroke-width="1.5" pointer-events="none"/>
  </g>
  <g id="arrowUp" transform="translate(30 24)">
    <use xlink:href="#rim"/>
    <path pointer-events="none" fill="none" stroke="white" stroke-width="1.5" d="M0,-3.0v7 M-2.5,-0.5L0,-3.0L2.5,-0.5"/>
  </g>
  <g id="arrowRight" transform="rotate(90) translate(36 -43)">
    <use xlink:href="#rim"/>
    <path pointer-events="none" fill="none" stroke="white" stroke-width="1.5" d="M0,-3.0v7 M-2.5,-0.5L0,-3.0L2.5,-0.5"/>
  </g>
  <g id="arrowDown" transform="rotate(180) translate(-30 -48)">
    <use xlink:href="#rim"/>
    <path pointer-events="none" fill="none" stroke="white" stroke-width="1.5" d="M0,-3.0v7 M-2.5,-0.5L0,-3.0L2.5,-0.5"/>
  </g>
  <g id="arrowLeft" transform="rotate(270) translate(-36 17)">
    <use xlink:href="#rim"/>
    <path pointer-events="none" fill="none" stroke="white" stroke-width="1.5" d="M0,-3.0v7 M-2.5,-0.5L0,-3.0L2.5,-0.5"/>
  </g>
  <g id="resetDef">
    <use xlink:href="#rim2" fill="#404040"><set attributeName="fill" to="#808080" begin="reset.mouseover" end="reset.mouseout"/></use>
  </g>
</defs>
<script type="application/ecmascript">
var viewWidth = 1262;
var viewHeight = 412;
var sectionId = 'dynsection-0';
</script>
<script type="application/ecmascript" xlink:href="svg.min.js"/>
<svg id="graph" class="graph">
<g id="viewport">
<title>SocketProxy.h</title>
<!-- Node1 -->
<g id="Node000001" class="node">
<title>Node1</title>
<g id="a_Node000001"><a xlink:title=" ">
<polygon fill="#999999" stroke="#666666" points="294,-404 214,-404 214,-385 294,-385 294,-404"/>
<text text-anchor="middle" x="254" y="-392" font-family="Helvetica,sans-Serif" font-size="10.00">SocketProxy.h</text>
</a>
</g>
</g>
<!-- Node2 -->
<g id="Node000002" class="node">
<title>Node2</title>
<g id="a_Node000002"><a xlink:title=" ">
<polygon fill="#e0e0e0" stroke="#999999" points="52,-74 0,-74 0,-55 52,-55 52,-74"/>
<text text-anchor="middle" x="26" y="-62" font-family="Helvetica,sans-Serif" font-size="10.00">stddef.h</text>
</a>
</g>
</g>
<!-- Node1&#45;&gt;Node2 -->
<g id="edge1_Node000001_Node000002" class="edge">
<title>Node1&#45;&gt;Node2</title>
<g id="a_edge1_Node000001_Node000002"><a xlink:title=" ">
<path fill="none" stroke="#63b8ff" d="M213.93,-393.36C144.22,-390.77 8,-374.35 8,-285.5 8,-285.5 8,-285.5 8,-173.5 8,-141.61 15.73,-105.14 21.06,-83.78"/>
<polygon fill="#63b8ff" stroke="#63b8ff" points="24.45,-84.66 23.57,-74.1 17.67,-82.9 24.45,-84.66"/>
</a>
</g>
</g>
<!-- Node3 -->
<g id="Node000003" class="node">
<title>Node3</title>
<g id="a_Node000003"><a xlink:href="Arena_8h.html" target="_top" xlink:title=" ">
<polygon fill="white" stroke="#666666" points="252,-129 180,-129 180,-110 252,-110 252,-129"/>
<text text-anchor="middle" x="216" y="-117" font-family="Helvetica,sans-Serif" font-size="10.00">core/Arena.h</text>
</a>
</g>
</g>
<!-- Node1&#45;&gt;Node3 -->
<g id="edge2_Node000001_Node000003" class="edge">
<title>Node1&#45;&gt;Node3</title>
<g id="a_edge2_Node000001_Node000003"><a xlink:title=" ">
<path fill="none" stroke="#63b8ff" d="M248.72,-384.9C238.27,-367.07 216,-324.46 216,-285.5 216,-285.5 216,-285.5 216,-228.5 216,-197.19 216,-160.77 216,-139.23"/>
<polygon fill="#63b8ff" stroke="#63b8ff" points="219.5,-139.18 216,-129.18 212.5,-139.18 219.5,-139.18"/>
</a>
</g>
</g>
<!-- Node4 -->
<g id="Node000004" class="node">
<title>Node4</title>
<g id="a_Node000004"><a xlink:href="Except_8h.html" target="_top" xlink:title=" ">
<polygon fill="white" stroke="#666666" points="1058.5,-74 981.5,-74 981.5,-55 1058.5,-55 1058.5,-74"/>
<text text-anchor="middle" x="1020" y="-62" font-family="Helvetica,sans-Serif" font-size="10.00">core/Except.h</text>
</a>
</g>
</g>
<!-- Node1&#45;&gt;Node4 -->
<g id="edge6_Node000001_Node000004" class="edge">
<title>Node1&#45;&gt;Node4</title>
<g id="a_edge6_Node000001_Node000004"><a xlink:title=" ">
<path fill="none" stroke="#63b8ff" d="M294.13,-393.45C480.67,-392.73 1254,-383.78 1254,-285.5 1254,-285.5 1254,-285.5 1254,-173.5 1254,-92.64 1137.38,-72.12 1068.8,-67.05"/>
<polygon fill="#63b8ff" stroke="#63b8ff" points="1068.85,-63.54 1058.64,-66.38 1068.39,-70.53 1068.85,-63.54"/>
</a>
</g>
</g>
<!-- Node6 -->
<g id="Node000006" class="node">
<title>Node6</title>
<g id="a_Node000006"><a xlink:href="SocketDNS_8h.html" target="_top" xlink:title=" ">
<polygon fill="white" stroke="#666666" points="186,-184 90,-184 90,-165 186,-165 186,-184"/>
<text text-anchor="middle" x="138" y="-172" font-family="Helvetica,sans-Serif" font-size="10.00">dns/SocketDNS.h</text>
</a>
</g>
</g>
<!-- Node1&#45;&gt;Node6 -->
<g id="edge7_Node000001_Node000006" class="edge">
<title>Node1&#45;&gt;Node6</title>
<g id="a_edge7_Node000001_Node000006"><a xlink:title=" ">
<path fill="none" stroke="#63b8ff" d="M240.34,-384.77C228.72,-376.73 212.32,-363.82 202,-349 167.21,-299.03 148.84,-227.89 141.66,-194.36"/>
<polygon fill="#63b8ff" stroke="#63b8ff" points="145.01,-193.26 139.58,-184.16 138.15,-194.66 145.01,-193.26"/>
</a>
</g>
</g>
<!-- Node9 -->
<g id="Node000009" class="node">
<title>Node9</title>
<g id="a_Node000009"><a xlink:href="SocketPoll_8h.html" target="_top" xlink:title=" ">
<polygon fill="white" stroke="#666666" points="1176,-294 1086,-294 1086,-275 1176,-275 1176,-294"/>
<text text-anchor="middle" x="1131" y="-282" font-family="Helvetica,sans-Serif" font-size="10.00">poll/SocketPoll.h</text>
</a>
</g>
</g>
<!-- Node1&#45;&gt;Node9 -->
<g id="edge12_Node000001_Node000009" class="edge">
<title>Node1&#45;&gt;Node9</title>
<g id="a_edge12_Node000001_Node000009"><a xlink:title=" ">
<path fill="none" stroke="#63b8ff" d="M294.04,-388.95C412.82,-375.37 773.48,-333.65 1072,-294 1073.27,-293.83 1074.55,-293.66 1075.85,-293.48"/>
<polygon fill="#63b8ff" stroke="#63b8ff" points="1076.49,-296.93 1085.92,-292.1 1075.53,-289.99 1076.49,-296.93"/>
</a>
</g>
</g>
<!-- Node12 -->
<g id="Node000012" class="node">
<title>Node12</title>
<g id="a_Node000012"><a xlink:href="Socket_8h.html" target="_top" xlink:title=" ">
<polygon fill="white" stroke="#666666" points="588,-239 500,-239 500,-220 588,-220 588,-239"/>
<text text-anchor="middle" x="544" y="-227" font-family="Helvetica,sans-Serif" font-size="10.00">socket/Socket.h</text>
</a>
</g>
</g>
<!-- Node1&#45;&gt;Node12 -->
<g id="edge43_Node000001_Node000012" class="edge">
<title>Node1&#45;&gt;Node12</title>
<g id="a_edge43_Node000001_Node000012"><a xlink:title=" ">
<path fill="none" stroke="#63b8ff" d="M255.41,-384.99C259.53,-362.93 273.72,-303.67 311,-275 338.39,-253.94 429.97,-241.37 489.83,-235.21"/>
<polygon fill="#63b8ff" stroke="#63b8ff" points="490.28,-238.68 499.88,-234.2 489.58,-231.71 490.28,-238.68"/>
</a>
</g>
</g>
<!-- Node27 -->
<g id="Node000027" class="node">
<title>Node27</title>
<g id="a_Node000027"><a xlink:href="SocketTLSContext_8h.html" target="_top" xlink:title=" ">
<polygon fill="white" stroke="#666666" points="470,-349 348,-349 348,-330 470,-330 470,-349"/>
<text text-anchor="middle" x="409" y="-337" font-family="Helvetica,sans-Serif" font-size="10.00">tls/SocketTLSContext.h</text>
</a>
</g>
</g>
<!-- Node1&#45;&gt;Node27 -->
<g id="edge44_Node000001_Node000027" class="edge">
<title>Node1&#45;&gt;Node27</title>
<g id="a_edge44_Node000001_Node000027"><a xlink:title=" ">
<path fill="none" stroke="#63b8ff" d="M278.9,-384.98C304.7,-376.16 345.22,-362.31 374.18,-352.41"/>
<polygon fill="#63b8ff" stroke="#63b8ff" points="375.57,-355.63 383.9,-349.08 373.31,-349.01 375.57,-355.63"/>
</a>
</g>
</g>
<!-- Node3&#45;&gt;Node2 -->
<g id="edge3_Node000003_Node000002" class="edge">
<title>Node3&#45;&gt;Node2</title>
<g id="a_edge3_Node000003_Node000002"><a xlink:title=" ">
<path fill="none" stroke="#63b8ff" d="M185.47,-109.98C151.87,-100.61 97.88,-85.55 62.17,-75.59"/>
<polygon fill="#63b8ff" stroke="#63b8ff" points="62.74,-72.12 52.17,-72.8 60.86,-78.86 62.74,-72.12"/>
</a>
</g>
</g>
<!-- Node3&#45;&gt;Node4 -->
<g id="edge4_Node000003_Node000004" class="edge">
<title>Node3&#45;&gt;Node4</title>
<g id="a_edge4_Node000003_Node000004"><a xlink:title=" ">
<path fill="none" stroke="#63b8ff" d="M252.33,-114.46C266.84,-112.93 283.7,-111.26 299,-110 551.67,-89.27 854.87,-73.53 971.25,-67.83"/>
<polygon fill="#63b8ff" stroke="#63b8ff" points="971.46,-71.32 981.27,-67.34 971.11,-64.33 971.46,-71.32"/>
</a>
</g>
</g>
<!-- Node5 -->
<g id="Node000005" class="node">
<title>Node5</title>
<g id="a_Node000005"><a xlink:title=" ">
<polygon fill="#e0e0e0" stroke="#999999" points="1047,-19 993,-19 993,0 1047,0 1047,-19"/>
<text text-anchor="middle" x="1020" y="-7" font-family="Helvetica,sans-Serif" font-size="10.00">setjmp.h</text>
</a>
</g>
</g>
<!-- Node4&#45;&gt;Node5 -->
<g id="edge5_Node000004_Node000005" class="edge">
<title>Node4&#45;&gt;Node5</title>
<g id="a_edge5_Node000004_Node000005"><a xlink:title=" ">
<path fill="none" stroke="#63b8ff" d="M1020,-54.75C1020,-47.8 1020,-37.85 1020,-29.13"/>
<polygon fill="#63b8ff" stroke="#63b8ff" points="1023.5,-29.09 1020,-19.09 1016.5,-29.09 1023.5,-29.09"/>
</a>
</g>
</g>
<!-- Node6&#45;&gt;Node2 -->
<g id="edge10_Node000006_Node000002" class="edge">
<title>Node6&#45;&gt;Node2</title>
<g id="a_edge10_Node000006_Node000002"><a xlink:title=" ">
<path fill="none" stroke="#63b8ff" d="M128.83,-164.66C109.87,-146.38 66.11,-104.18 42.25,-81.17"/>
<polygon fill="#63b8ff" stroke="#63b8ff" points="44.61,-78.58 34.98,-74.16 39.75,-83.62 44.61,-78.58"/>
</a>
</g>
</g>
<!-- Node6&#45;&gt;Node4 -->
<g id="edge8_Node000006_Node000004" class="edge">
<title>Node6&#45;&gt;Node4</title>
<g id="a_edge8_Node000006_Node000004"><a xlink:title=" ">
<path fill="none" stroke="#63b8ff" d="M186.18,-166.11C242.86,-157.39 339.81,-142.37 423,-129 474.15,-120.78 486.62,-116.61 538,-110 695.99,-89.68 884.26,-75.06 971.36,-68.83"/>
<polygon fill="#63b8ff" stroke="#63b8ff" points="971.74,-72.31 981.47,-68.11 971.25,-65.33 971.74,-72.31"/>
</a>
</g>
</g>
<!-- Node7 -->
<g id="Node000007" class="node">
<title>Node7</title>
<g id="a_Node000007"><a xlink:title=" ">
<polygon fill="#e0e0e0" stroke="#999999" points="161.5,-129 112.5,-129 112.5,-110 161.5,-110 161.5,-129"/>
<text text-anchor="middle" x="137" y="-117" font-family="Helvetica,sans-Serif" font-size="10.00">netdb.h</text>
</a>
</g>
</g>
<!-- Node6&#45;&gt;Node7 -->
<g id="edge9_Node000006_Node000007" class="edge">
<title>Node6&#45;&gt;Node7</title>
<g id="a_edge9_Node000006_Node000007"><a xlink:title=" ">
<path fill="none" stroke="#63b8ff" d="M137.83,-164.75C137.7,-157.8 137.52,-147.85 137.35,-139.13"/>
<polygon fill="#63b8ff" stroke="#63b8ff" points="140.85,-139.02 137.16,-129.09 133.85,-139.15 140.85,-139.02"/>
</a>
</g>
</g>
<!-- Node8 -->
<g id="Node000008" class="node">
<title>Node8</title>
<g id="a_Node000008"><a xlink:title=" ">
<polygon fill="#e0e0e0" stroke="#999999" points="143.5,-74 70.5,-74 70.5,-55 143.5,-55 143.5,-74"/>
<text text-anchor="middle" x="107" y="-62" font-family="Helvetica,sans-Serif" font-size="10.00">sys/socket.h</text>
</a>
</g>
</g>
<!-- Node6&#45;&gt;Node8 -->
<g id="edge11_Node000006_Node000008" class="edge">
<title>Node6&#45;&gt;Node8</title>
<g id="a_edge11_Node000006_Node000008"><a xlink:title=" ">
<path fill="none" stroke="#63b8ff" d="M128.12,-164.75C119.61,-156.5 107.95,-143.3 103,-129 98.03,-114.63 99.56,-97.35 102.04,-84.45"/>
<polygon fill="#63b8ff" stroke="#63b8ff" points="105.51,-84.95 104.32,-74.42 98.69,-83.39 105.51,-84.95"/>
</a>
</g>
</g>
<!-- Node9&#45;&gt;Node4 -->
<g id="edge13_Node000009_Node000004" class="edge">
<title>Node9&#45;&gt;Node4</title>
<g id="a_edge13_Node000009_Node000004"><a xlink:title=" ">
<path fill="none" stroke="#63b8ff" d="M1128.03,-274.71C1116.14,-239.55 1072.62,-110.91 1072,-110 1064.09,-98.32 1052.33,-87.9 1041.99,-80.08"/>
<polygon fill="#63b8ff" stroke="#63b8ff" points="1043.92,-77.16 1033.76,-74.16 1039.83,-82.84 1043.92,-77.16"/>
</a>
</g>
</g>
<!-- Node10 -->
<g id="Node000010" class="node">
<title>Node10</title>
<g id="a_Node000010"><a xlink:href="SocketTimer_8h.html" target="_top" xlink:title=" ">
<polygon fill="white" stroke="#666666" points="1225.5,-239 1124.5,-239 1124.5,-220 1225.5,-220 1225.5,-239"/>
<text text-anchor="middle" x="1175" y="-227" font-family="Helvetica,sans-Serif" font-size="10.00">core/SocketTimer.h</text>
</a>
</g>
</g>
<!-- Node9&#45;&gt;Node10 -->
<g id="edge14_Node000009_Node000010" class="edge">
<title>Node9&#45;&gt;Node10</title>
<g id="a_edge14_Node000009_Node000010"><a xlink:title=" ">
<path fill="none" stroke="#63b8ff" d="M1138.27,-274.75C1144.54,-267.18 1153.79,-256.05 1161.43,-246.84"/>
<polygon fill="#63b8ff" stroke="#63b8ff" points="1164.17,-249.02 1167.87,-239.09 1158.79,-244.55 1164.17,-249.02"/>
</a>
</g>
</g>
<!-- Node9&#45;&gt;Node12 -->
<g id="edge17_Node000009_Node000012" class="edge">
<title>Node9&#45;&gt;Node12</title>
<g id="a_edge17_Node000009_Node000012"><a xlink:title=" ">
<path fill="none" stroke="#63b8ff" d="M1085.91,-279.43C979.46,-269.82 712.85,-245.75 598.01,-235.38"/>
<polygon fill="#63b8ff" stroke="#63b8ff" points="598.31,-231.89 588.04,-234.48 597.68,-238.86 598.31,-231.89"/>
</a>
</g>
</g>
<!-- Node10&#45;&gt;Node4 -->
<g id="edge15_Node000010_Node000004" class="edge">
<title>Node10&#45;&gt;Node4</title>
<g id="a_edge15_Node000010_Node000004"><a xlink:title=" ">
<path fill="none" stroke="#63b8ff" d="M1179.06,-219.77C1184.34,-207.02 1191.92,-182.9 1183,-165 1159.47,-117.82 1102.28,-90.86 1062.32,-77.2"/>
<polygon fill="#63b8ff" stroke="#63b8ff" points="1063.16,-73.8 1052.57,-74.02 1060.98,-80.45 1063.16,-73.8"/>
</a>
</g>
</g>
<!-- Node11 -->
<g id="Node000011" class="node">
<title>Node11</title>
<g id="a_Node000011"><a xlink:title=" ">
<polygon fill="#e0e0e0" stroke="#999999" points="1173.5,-184 1124.5,-184 1124.5,-165 1173.5,-165 1173.5,-184"/>
<text text-anchor="middle" x="1149" y="-172" font-family="Helvetica,sans-Serif" font-size="10.00">stdint.h</text>
</a>
</g>
</g>
<!-- Node10&#45;&gt;Node11 -->
<g id="edge16_Node000010_Node000011" class="edge">
<title>Node10&#45;&gt;Node11</title>
<g id="a_edge16_Node000010_Node000011"><a xlink:title=" ">
<path fill="none" stroke="#63b8ff" d="M1170.71,-219.75C1167.19,-212.57 1162.09,-202.18 1157.72,-193.27"/>
<polygon fill="#63b8ff" stroke="#63b8ff" points="1160.76,-191.53 1153.21,-184.09 1154.48,-194.61 1160.76,-191.53"/>
</a>
</g>
</g>
<!-- Node12&#45;&gt;Node4 -->
<g id="edge18_Node000012_Node000004" class="edge">
<title>Node12&#45;&gt;Node4</title>
<g id="a_edge18_Node000012_Node000004"><a xlink:title=" ">
<path fill="none" stroke="#63b8ff" d="M588.16,-225.75C666.99,-219.21 835.06,-197.67 957,-129 977.62,-117.39 996.01,-97.1 1007.52,-82.58"/>
<polygon fill="#63b8ff" stroke="#63b8ff" points="1010.47,-84.49 1013.76,-74.42 1004.91,-80.24 1010.47,-84.49"/>
</a>
</g>
</g>
<!-- Node12&#45;&gt;Node6 -->
<g id="edge29_Node000012_Node000006" class="edge">
<title>Node12&#45;&gt;Node6</title>
<g id="a_edge29_Node000012_Node000006"><a xlink:title=" ">
<path fill="none" stroke="#63b8ff" d="M499.78,-222.73C426.16,-213.12 278.49,-193.84 196.41,-183.12"/>
<polygon fill="#63b8ff" stroke="#63b8ff" points="196.61,-179.62 186.25,-181.8 195.71,-186.56 196.61,-179.62"/>
</a>
</g>
</g>
<!-- Node13 -->
<g id="Node000013" class="node">
<title>Node13</title>
<g id="a_Node000013"><a xlink:href="SocketConfig_8h.html" target="_top" xlink:title=" ">
<polygon fill="white" stroke="#666666" points="414,-129 308,-129 308,-110 414,-110 414,-129"/>
<text text-anchor="middle" x="361" y="-117" font-family="Helvetica,sans-Serif" font-size="10.00">core/SocketConfig.h</text>
</a>
</g>
</g>
<!-- Node12&#45;&gt;Node13 -->
<g id="edge19_Node000012_Node000013" class="edge">
<title>Node12&#45;&gt;Node13</title>
<g id="a_edge19_Node000012_Node000013"><a xlink:title=" ">
<path fill="none" stroke="#63b8ff" d="M529.33,-219.84C497.67,-201.16 422.67,-156.9 384.38,-134.3"/>
<polygon fill="#63b8ff" stroke="#63b8ff" points="385.87,-131.12 375.48,-129.05 382.32,-137.14 385.87,-131.12"/>
</a>
</g>
</g>
<!-- Node21 -->
<g id="Node000021" class="node">
<title>Node21</title>
<g id="a_Node000021"><a xlink:href="SocketCommon_8h.html" target="_top" xlink:title=" ">
<polygon fill="white" stroke="#666666" points="608,-184 480,-184 480,-165 608,-165 608,-184"/>
<text text-anchor="middle" x="544" y="-172" font-family="Helvetica,sans-Serif" font-size="10.00">socket/SocketCommon.h</text>
</a>
</g>
</g>
<!-- Node12&#45;&gt;Node21 -->
<g id="edge30_Node000012_Node000021" class="edge">
<title>Node12&#45;&gt;Node21</title>
<g id="a_edge30_Node000012_Node000021"><a xlink:title=" ">
<path fill="none" stroke="#63b8ff" d="M544,-219.75C544,-212.8 544,-202.85 544,-194.13"/>
<polygon fill="#63b8ff" stroke="#63b8ff" points="547.5,-194.09 544,-184.09 540.5,-194.09 547.5,-194.09"/>
</a>
</g>
</g>
<!-- Node13&#45;&gt;Node2 -->
<g id="edge24_Node000013_Node000002" class="edge">
<title>Node13&#45;&gt;Node2</title>
<g id="a_edge24_Node000013_Node000002"><a xlink:title=" ">
<path fill="none" stroke="#63b8ff" d="M307.91,-112.11C249.88,-104.79 153.96,-91.73 62.32,-74.11"/>
<polygon fill="#63b8ff" stroke="#63b8ff" points="62.8,-70.64 52.32,-72.16 61.46,-77.51 62.8,-70.64"/>
</a>
</g>
</g>
<!-- Node13&#45;&gt;Node8 -->
<g id="edge26_Node000013_Node000008" class="edge">
<title>Node13&#45;&gt;Node8</title>
<g id="a_edge26_Node000013_Node000008"><a xlink:title=" ">
<path fill="none" stroke="#63b8ff" d="M320.19,-109.98C274.73,-100.5 201.36,-85.19 153.65,-75.23"/>
<polygon fill="#63b8ff" stroke="#63b8ff" points="154.09,-71.75 143.59,-73.13 152.66,-78.6 154.09,-71.75"/>
</a>
</g>
</g>
<!-- Node14 -->
<g id="Node000014" class="node">
<title>Node14</title>
<g id="a_Node000014"><a xlink:title=" ">
<polygon fill="#e0e0e0" stroke="#999999" points="505.5,-74 458.5,-74 458.5,-55 505.5,-55 505.5,-74"/>
<text text-anchor="middle" x="482" y="-62" font-family="Helvetica,sans-Serif" font-size="10.00">errno.h</text>
</a>
</g>
</g>
<!-- Node13&#45;&gt;Node14 -->
<g id="edge20_Node000013_Node000014" class="edge">
<title>Node13&#45;&gt;Node14</title>
<g id="a_edge20_Node000013_Node000014"><a xlink:title=" ">
<path fill="none" stroke="#63b8ff" d="M380.44,-109.98C399.99,-101.42 430.38,-88.11 452.82,-78.28"/>
<polygon fill="#63b8ff" stroke="#63b8ff" points="454.45,-81.39 462.21,-74.17 451.64,-74.98 454.45,-81.39"/>
</a>
</g>
</g>
<!-- Node15 -->
<g id="Node000015" class="node">
<title>Node15</title>
<g id="a_Node000015"><a xlink:title=" ">
<polygon fill="#e0e0e0" stroke="#999999" points="651,-74 607,-74 607,-55 651,-55 651,-74"/>
<text text-anchor="middle" x="629" y="-62" font-family="Helvetica,sans-Serif" font-size="10.00">fcntl.h</text>
</a>
</g>
</g>
<!-- Node13&#45;&gt;Node15 -->
<g id="edge21_Node000013_Node000015" class="edge">
<title>Node13&#45;&gt;Node15</title>
<g id="a_edge21_Node000013_Node000015"><a xlink:title=" ">
<path fill="none" stroke="#63b8ff" d="M413.04,-109.99C458.97,-102.2 527.93,-89.81 596.58,-74.18"/>
<polygon fill="#63b8ff" stroke="#63b8ff" points="597.74,-77.5 606.7,-71.85 596.17,-70.68 597.74,-77.5"/>
</a>
</g>
</g>
<!-- Node16 -->
<g id="Node000016" class="node">
<title>Node16</title>
<g id="a_Node000016"><a xlink:title=" ">
<polygon fill="#e0e0e0" stroke="#999999" points="588.5,-74 523.5,-74 523.5,-55 588.5,-55 588.5,-74"/>
<text text-anchor="middle" x="556" y="-62" font-family="Helvetica,sans-Serif" font-size="10.00">netinet/in.h</text>
</a>
</g>
</g>
<!-- Node13&#45;&gt;Node16 -->
<g id="edge22_Node000013_Node000016" class="edge">
<title>Node13&#45;&gt;Node16</title>
<g id="a_edge22_Node000013_Node000016"><a xlink:title=" ">
<path fill="none" stroke="#63b8ff" d="M392.33,-109.98C425.49,-100.97 478,-86.7 514.56,-76.76"/>
<polygon fill="#63b8ff" stroke="#63b8ff" points="515.69,-80.08 524.42,-74.08 513.86,-73.33 515.69,-80.08"/>
</a>
</g>
</g>
<!-- Node17 -->
<g id="Node000017" class="node">
<title>Node17</title>
<g id="a_Node000017"><a xlink:title=" ">
<polygon fill="#e0e0e0" stroke="#999999" points="232.5,-74 161.5,-74 161.5,-55 232.5,-55 232.5,-74"/>
<text text-anchor="middle" x="197" y="-62" font-family="Helvetica,sans-Serif" font-size="10.00">netinet/tcp.h</text>
</a>
</g>
</g>
<!-- Node13&#45;&gt;Node17 -->
<g id="edge23_Node000013_Node000017" class="edge">
<title>Node13&#45;&gt;Node17</title>
<g id="a_edge23_Node000013_Node000017"><a xlink:title=" ">
<path fill="none" stroke="#63b8ff" d="M334.65,-109.98C307.24,-101.13 264.11,-87.19 233.44,-77.28"/>
<polygon fill="#63b8ff" stroke="#63b8ff" points="234.15,-73.83 223.56,-74.08 232,-80.49 234.15,-73.83"/>
</a>
</g>
</g>
<!-- Node18 -->
<g id="Node000018" class="node">
<title>Node18</title>
<g id="a_Node000018"><a xlink:title=" ">
<polygon fill="#e0e0e0" stroke="#999999" points="297,-74 251,-74 251,-55 297,-55 297,-74"/>
<text text-anchor="middle" x="274" y="-62" font-family="Helvetica,sans-Serif" font-size="10.00">stdio.h</text>
</a>
</g>
</g>
<!-- Node13&#45;&gt;Node18 -->
<g id="edge25_Node000013_Node000018" class="edge">
<title>Node13&#45;&gt;Node18</title>
<g id="a_edge25_Node000013_Node000018"><a xlink:title=" ">
<path fill="none" stroke="#63b8ff" d="M347.02,-109.98C333.53,-101.77 312.87,-89.18 296.96,-79.49"/>
<polygon fill="#63b8ff" stroke="#63b8ff" points="298.59,-76.38 288.23,-74.17 294.95,-82.36 298.59,-76.38"/>
</a>
</g>
</g>
<!-- Node19 -->
<g id="Node000019" class="node">
<title>Node19</title>
<g id="a_Node000019"><a xlink:title=" ">
<polygon fill="#e0e0e0" stroke="#999999" points="371,-74 315,-74 315,-55 371,-55 371,-74"/>
<text text-anchor="middle" x="343" y="-62" font-family="Helvetica,sans-Serif" font-size="10.00">sys/uio.h</text>
</a>
</g>
</g>
<!-- Node13&#45;&gt;Node19 -->
<g id="edge27_Node000013_Node000019" class="edge">
<title>Node13&#45;&gt;Node19</title>
<g id="a_edge27_Node000013_Node000019"><a xlink:title=" ">
<path fill="none" stroke="#63b8ff" d="M358.03,-109.75C355.64,-102.72 352.21,-92.62 349.23,-83.84"/>
<polygon fill="#63b8ff" stroke="#63b8ff" points="352.45,-82.43 345.92,-74.09 345.82,-84.68 352.45,-82.43"/>
</a>
</g>
</g>
<!-- Node20 -->
<g id="Node000020" class="node">
<title>Node20</title>
<g id="a_Node000020"><a xlink:title=" ">
<polygon fill="#e0e0e0" stroke="#999999" points="440.5,-74 389.5,-74 389.5,-55 440.5,-55 440.5,-74"/>
<text text-anchor="middle" x="415" y="-62" font-family="Helvetica,sans-Serif" font-size="10.00">unistd.h</text>
</a>
</g>
</g>
<!-- Node13&#45;&gt;Node20 -->
<g id="edge28_Node000013_Node000020" class="edge">
<title>Node13&#45;&gt;Node20</title>
<g id="a_edge28_Node000013_Node000020"><a xlink:title=" ">
<path fill="none" stroke="#63b8ff" d="M369.92,-109.75C377.78,-102.03 389.43,-90.6 398.92,-81.28"/>
<polygon fill="#63b8ff" stroke="#63b8ff" points="401.56,-83.59 406.25,-74.09 396.66,-78.6 401.56,-83.59"/>
</a>
</g>
</g>
<!-- Node21&#45;&gt;Node3 -->
<g id="edge40_Node000021_Node000003" class="edge">
<title>Node21&#45;&gt;Node3</title>
<g id="a_edge40_Node000021_Node000003"><a xlink:title=" ">
<path fill="none" stroke="#63b8ff" d="M489.9,-165C433.86,-156.16 343.76,-141.83 266,-129 264.73,-128.79 263.44,-128.58 262.14,-128.36"/>
<polygon fill="#63b8ff" stroke="#63b8ff" points="262.48,-124.87 252.04,-126.67 261.33,-131.77 262.48,-124.87"/>
</a>
</g>
</g>
<!-- Node21&#45;&gt;Node4 -->
<g id="edge41_Node000021_Node000004" class="edge">
<title>Node21&#45;&gt;Node4</title>
<g id="a_edge41_Node000021_Node000004"><a xlink:title=" ">
<path fill="none" stroke="#63b8ff" d="M608.38,-169.64C701.4,-163.45 868.44,-149.82 925,-129 954.92,-117.99 984.71,-95.78 1002.75,-80.77"/>
<polygon fill="#63b8ff" stroke="#63b8ff" points="1005.27,-83.21 1010.6,-74.06 1000.73,-77.89 1005.27,-83.21"/>
</a>
</g>
</g>
<!-- Node21&#45;&gt;Node7 -->
<g id="edge34_Node000021_Node000007" class="edge">
<title>Node21&#45;&gt;Node7</title>
<g id="a_edge34_Node000021_Node000007"><a xlink:title=" ">
<path fill="none" stroke="#63b8ff" d="M479.94,-168.34C407.46,-161.94 285.73,-149.52 171.75,-128.91"/>
<polygon fill="#63b8ff" stroke="#63b8ff" points="172.27,-125.45 161.8,-127.09 171.01,-132.33 172.27,-125.45"/>
</a>
</g>
</g>
<!-- Node21&#45;&gt;Node8 -->
<g id="edge36_Node000021_Node000008" class="edge">
<title>Node21&#45;&gt;Node8</title>
<g id="a_edge36_Node000021_Node000008"><a xlink:title=" ">
<path fill="none" stroke="#63b8ff" d="M479.82,-166.9C429.66,-160.54 358.67,-148.89 299,-129 281.09,-123.03 278.59,-116.87 261,-110 225.72,-96.21 184.42,-84.51 153.48,-76.57"/>
<polygon fill="#63b8ff" stroke="#63b8ff" points="153.95,-73.08 143.4,-74.02 152.24,-79.87 153.95,-73.08"/>
</a>
</g>
</g>
<!-- Node21&#45;&gt;Node13 -->
<g id="edge42_Node000021_Node000013" class="edge">
<title>Node21&#45;&gt;Node13</title>
<g id="a_edge42_Node000021_Node000013"><a xlink:title=" ">
<path fill="none" stroke="#63b8ff" d="M514.6,-164.98C483.61,-156.01 434.62,-141.82 400.33,-131.89"/>
<polygon fill="#63b8ff" stroke="#63b8ff" points="401.21,-128.5 390.63,-129.08 399.26,-135.23 401.21,-128.5"/>
</a>
</g>
</g>
<!-- Node21&#45;&gt;Node15 -->
<g id="edge33_Node000021_Node000015" class="edge">
<title>Node21&#45;&gt;Node15</title>
<g id="a_edge33_Node000021_Node000015"><a xlink:title=" ">
<path fill="none" stroke="#63b8ff" d="M540.11,-164.94C534.86,-151.98 527.33,-127.1 538,-110 544.84,-99.03 573.83,-85.99 597.28,-76.87"/>
<polygon fill="#63b8ff" stroke="#63b8ff" points="598.8,-80.04 606.91,-73.22 596.32,-73.49 598.8,-80.04"/>
</a>
</g>
</g>
<!-- Node21&#45;&gt;Node16 -->
<g id="edge35_Node000021_Node000016" class="edge">
<title>Node21&#45;&gt;Node16</title>
<g id="a_edge35_Node000021_Node000016"><a xlink:title=" ">
<path fill="none" stroke="#63b8ff" d="M517.2,-164.98C488.95,-154.48 450.52,-134.92 466,-110 476.55,-93.01 495.73,-82.31 513.68,-75.67"/>
<polygon fill="#63b8ff" stroke="#63b8ff" points="515.09,-78.89 523.46,-72.39 512.86,-72.26 515.09,-78.89"/>
</a>
</g>
</g>
<!-- Node22 -->
<g id="Node000022" class="node">
<title>Node22</title>
<g id="a_Node000022"><a xlink:title=" ">
<polygon fill="#e0e0e0" stroke="#999999" points="916,-129 860,-129 860,-110 916,-110 916,-129"/>
<text text-anchor="middle" x="888" y="-117" font-family="Helvetica,sans-Serif" font-size="10.00">stdbool.h</text>
</a>
</g>
</g>
<!-- Node21&#45;&gt;Node22 -->
<g id="edge31_Node000021_Node000022" class="edge">
<title>Node21&#45;&gt;Node22</title>
<g id="a_edge31_Node000021_Node000022"><a xlink:title=" ">
<path fill="none" stroke="#63b8ff" d="M608.05,-165.77C668.08,-158.17 760.51,-145.57 849.75,-129.1"/>
<polygon fill="#63b8ff" stroke="#63b8ff" points="850.58,-132.51 859.77,-127.24 849.3,-125.63 850.58,-132.51"/>
</a>
</g>
</g>
<!-- Node23 -->
<g id="Node000023" class="node">
<title>Node23</title>
<g id="a_Node000023"><a xlink:title=" ">
<polygon fill="#e0e0e0" stroke="#999999" points="603.5,-129 546.5,-129 546.5,-110 603.5,-110 603.5,-129"/>
<text text-anchor="middle" x="575" y="-117" font-family="Helvetica,sans-Serif" font-size="10.00">pthread.h</text>
</a>
</g>
</g>
<!-- Node21&#45;&gt;Node23 -->
<g id="edge32_Node000021_Node000023" class="edge">
<title>Node21&#45;&gt;Node23</title>
<g id="a_edge32_Node000021_Node000023"><a xlink:title=" ">
<path fill="none" stroke="#63b8ff" d="M549.12,-164.75C553.36,-157.49 559.53,-146.95 564.78,-137.98"/>
<polygon fill="#63b8ff" stroke="#63b8ff" points="567.95,-139.49 569.98,-129.09 561.91,-135.95 567.95,-139.49"/>
</a>
</g>
</g>
<!-- Node24 -->
<g id="Node000024" class="node">
<title>Node24</title>
<g id="a_Node000024"><a xlink:title=" ">
<polygon fill="#e0e0e0" stroke="#999999" points="684,-129 622,-129 622,-110 684,-110 684,-129"/>
<text text-anchor="middle" x="653" y="-117" font-family="Helvetica,sans-Serif" font-size="10.00">sys/time.h</text>
</a>
</g>
</g>
<!-- Node21&#45;&gt;Node24 -->
<g id="edge37_Node000021_Node000024" class="edge">
<title>Node21&#45;&gt;Node24</title>
<g id="a_edge37_Node000021_Node000024"><a xlink:title=" ">
<path fill="none" stroke="#63b8ff" d="M561.51,-164.98C578.97,-156.5 606.01,-143.35 626.17,-133.54"/>
<polygon fill="#63b8ff" stroke="#63b8ff" points="627.71,-136.69 635.17,-129.17 624.64,-130.4 627.71,-136.69"/>
</a>
</g>
</g>
<!-- Node25 -->
<g id="Node000025" class="node">
<title>Node25</title>
<g id="a_Node000025"><a xlink:title=" ">
<polygon fill="#e0e0e0" stroke="#999999" points="770,-129 702,-129 702,-110 770,-110 770,-129"/>
<text text-anchor="middle" x="736" y="-117" font-family="Helvetica,sans-Serif" font-size="10.00">sys/types.h</text>
</a>
</g>
</g>
<!-- Node21&#45;&gt;Node25 -->
<g id="edge38_Node000021_Node000025" class="edge">
<title>Node21&#45;&gt;Node25</title>
<g id="a_edge38_Node000021_Node000025"><a xlink:title=" ">
<path fill="none" stroke="#63b8ff" d="M574.85,-164.98C607.5,-155.97 659.2,-141.7 695.2,-131.76"/>
<polygon fill="#63b8ff" stroke="#63b8ff" points="696.2,-135.12 704.91,-129.08 694.34,-128.37 696.2,-135.12"/>
</a>
</g>
</g>
<!-- Node26 -->
<g id="Node000026" class="node">
<title>Node26</title>
<g id="a_Node000026"><a xlink:title=" ">
<polygon fill="#e0e0e0" stroke="#999999" points="842,-129 788,-129 788,-110 842,-110 842,-129"/>
<text text-anchor="middle" x="815" y="-117" font-family="Helvetica,sans-Serif" font-size="10.00">sys/un.h</text>
</a>
</g>
</g>
<!-- Node21&#45;&gt;Node26 -->
<g id="edge39_Node000021_Node000026" class="edge">
<title>Node21&#45;&gt;Node26</title>
<g id="a_edge39_Node000021_Node000026"><a xlink:title=" ">
<path fill="none" stroke="#63b8ff" d="M592.74,-164.93C638.21,-156.78 708.19,-143.87 778.05,-129.13"/>
<polygon fill="#63b8ff" stroke="#63b8ff" points="778.85,-132.54 787.9,-127.04 777.39,-125.69 778.85,-132.54"/>
</a>
</g>
</g>
<!-- Node27&#45;&gt;Node3 -->
<g id="edge45_Node000027_Node000003" class="edge">
<title>Node27&#45;&gt;Node3</title>
<g id="a_edge45_Node000027_Node000003"><a xlink:title=" ">
<path fill="none" stroke="#63b8ff" d="M377.32,-329.88C356.51,-322.93 329.77,-311.41 311,-294 262.62,-249.1 233.34,-173.83 221.75,-139.09"/>
<polygon fill="#63b8ff" stroke="#63b8ff" points="225,-137.78 218.6,-129.33 218.34,-139.92 225,-137.78"/>
</a>
</g>
</g>
<!-- Node27&#45;&gt;Node4 -->
<g id="edge46_Node000027_Node000004" class="edge">
<title>Node27&#45;&gt;Node4</title>
<g id="a_edge46_Node000027_Node000004"><a xlink:title=" ">
<path fill="none" stroke="#63b8ff" d="M470.06,-334.72C631.62,-323.91 1058,-289.75 1058,-230.5 1058,-230.5 1058,-230.5 1058,-173.5 1058,-140.02 1041.55,-103.84 1030.3,-83.01"/>
<polygon fill="#63b8ff" stroke="#63b8ff" points="1033.24,-81.1 1025.28,-74.1 1027.13,-84.53 1033.24,-81.1"/>
</a>
</g>
</g>
<!-- Node28 -->
<g id="Node000028" class="node">
<title>Node28</title>
<g id="a_Node000028"><a xlink:href="SocketTLS_8h.html" target="_top" xlink:title=" ">
<polygon fill="white" stroke="#666666" points="617.5,-294 530.5,-294 530.5,-275 617.5,-275 617.5,-294"/>
<text text-anchor="middle" x="574" y="-282" font-family="Helvetica,sans-Serif" font-size="10.00">tls/SocketTLS.h</text>
</a>
</g>
</g>
<!-- Node27&#45;&gt;Node28 -->
<g id="edge47_Node000027_Node000028" class="edge">
<title>Node27&#45;&gt;Node28</title>
<g id="a_edge47_Node000027_Node000028"><a xlink:title=" ">
<path fill="none" stroke="#63b8ff" d="M435.51,-329.98C463.21,-321.09 506.86,-307.07 537.74,-297.15"/>
<polygon fill="#63b8ff" stroke="#63b8ff" points="538.83,-300.47 547.28,-294.08 536.69,-293.81 538.83,-300.47"/>
</a>
</g>
</g>
<!-- Node29 -->
<g id="Node000029" class="node">
<title>Node29</title>
<g id="a_Node000029"><a xlink:title=" ">
<polygon fill="#e0e0e0" stroke="#999999" points="394,-294 320,-294 320,-275 394,-275 394,-294"/>
<text text-anchor="middle" x="357" y="-282" font-family="Helvetica,sans-Serif" font-size="10.00">openssl/ssl.h</text>
</a>
</g>
</g>
<!-- Node27&#45;&gt;Node29 -->
<g id="edge50_Node000027_Node000029" class="edge">
<title>Node27&#45;&gt;Node29</title>
<g id="a_edge50_Node000027_Node000029"><a xlink:title=" ">
<path fill="none" stroke="#63b8ff" d="M400.41,-329.75C392.84,-322.03 381.62,-310.6 372.49,-301.28"/>
<polygon fill="#63b8ff" stroke="#63b8ff" points="374.93,-298.78 365.43,-294.09 369.93,-303.68 374.93,-298.78"/>
</a>
</g>
</g>
<!-- Node30 -->
<g id="Node000030" class="node">
<title>Node30</title>
<g id="a_Node000030"><a xlink:title=" ">
<polygon fill="#e0e0e0" stroke="#999999" points="512,-294 412,-294 412,-275 512,-275 512,-294"/>
<text text-anchor="middle" x="462" y="-282" font-family="Helvetica,sans-Serif" font-size="10.00">openssl/x509_vfy.h</text>
</a>
</g>
</g>
<!-- Node27&#45;&gt;Node30 -->
<g id="edge51_Node000027_Node000030" class="edge">
<title>Node27&#45;&gt;Node30</title>
<g id="a_edge51_Node000027_Node000030"><a xlink:title=" ">
<path fill="none" stroke="#63b8ff" d="M417.75,-329.75C425.47,-322.03 436.9,-310.6 446.22,-301.28"/>
<polygon fill="#63b8ff" stroke="#63b8ff" points="448.81,-303.64 453.41,-294.09 443.86,-298.69 448.81,-303.64"/>
</a>
</g>
</g>
<!-- Node28&#45;&gt;Node4 -->
<g id="edge48_Node000028_Node000004" class="edge">
<title>Node28&#45;&gt;Node4</title>
<g id="a_edge48_Node000028_Node000004"><a xlink:title=" ">
<path fill="none" stroke="#63b8ff" d="M617.69,-277.75C699.03,-264.94 875.19,-227.06 983,-129 996.69,-116.55 1006.74,-97.82 1012.89,-83.93"/>
<polygon fill="#63b8ff" stroke="#63b8ff" points="1016.23,-85.01 1016.82,-74.43 1009.76,-82.33 1016.23,-85.01"/>
</a>
</g>
</g>
<!-- Node28&#45;&gt;Node12 -->
<g id="edge49_Node000028_Node000012" class="edge">
<title>Node28&#45;&gt;Node12</title>
<g id="a_edge49_Node000028_Node000012"><a xlink:title=" ">
<path fill="none" stroke="#63b8ff" d="M569.05,-274.75C564.94,-267.49 558.97,-256.95 553.9,-247.98"/>
<polygon fill="#63b8ff" stroke="#63b8ff" points="556.83,-246.07 548.86,-239.09 550.74,-249.52 556.83,-246.07"/>
</a>
</g>
</g>
</g>
</svg>

<g id="navigator" transform="translate(0 0)" fill="#404254">
  <rect fill="#f2f5e9" fill-opacity="0.5" stroke="#606060" stroke-width=".5" x="0" y="0" width="60" height="60"/>
  <use id="zoomplus" xlink:href="#zoomPlus" x="17" y="9" onmousedown="handleZoom(evt,'in')"/>
  <use id="zoomminus" xlink:href="#zoomMin" x="42" y="9" onmousedown="handleZoom(evt,'out')"/>
  <use id="reset" xlink:href="#resetDef" x="30" y="36" onmousedown="handleReset()"/>
   <use id="arrowup" xlink:href="#arrowUp" x="0" y="0" onmousedown="handlePan(0,-1)"/>
  <use id="arrowright" xlink:href="#arrowRight" x="0" y="0" onmousedown="handlePan(1,0)"/>
  <use id="arrowdown" xlink:href="#arrowDown" x="0" y="0" onmousedown="handlePan(0,1)"/>
  <use id="arrowleft" xlink:href="#arrowLeft" x="0" y="0" onmousedown="handlePan(-1,0)"/>
</g>
<svg viewBox="0 0 15 15" width="100%" height="30px" preserveAspectRatio="xMaxYMin meet">
 <g id="arrow_out" transform="scale(0.3 0.3)">
  <a xlink:href="SocketProxy_8h__incl_org.svg" target="_base">
   <rect id="button" ry="5" rx="5" y="6" x="6" height="38" width="38"
        fill="#f2f5e9" fill-opacity="0.5" stroke="#606060" stroke-width="1.0"/>
   <path id="arrow"
     d="M 11.500037,31.436501 C 11.940474,20.09759 22.043105,11.32322 32.158766,21.979434 L 37.068811,17.246167 C 37.068811,17.246167 37.088388,32 37.088388,32 L 22.160133,31.978069 C 22.160133,31.978069 26.997745,27.140456 26.997745,27.140456 C 18.528582,18.264221 13.291696,25.230495 11.500037,31.436501 z"
     style="fill:#404040;"/>
  </a>
 </g>
</svg>

<style type='text/css'>
<![CDATA[
[data-mouse-over-selected='false'] { opacity: 0.7; }
[data-mouse-over-selected='true']  { opacity: 1.0; }
]]>
</style>
<script type="application/ecmascript"><![CDATA[
document.addEventListener('DOMContentLoaded', (event) => {
  highlightEdges();
  highlightAdjacentNodes();
});
]]></script>
</svg>
