<?xml version="1.0" encoding="UTF-8" standalone="no"?>
<!DOCTYPE svg PUBLIC "-//W3C//DTD SVG 1.1//EN"
 "http://www.w3.org/Graphics/SVG/1.1/DTD/svg11.dtd">
<!-- Generated by graphviz version 2.43.0 (0)
 -->
<!-- Title: SocketHTTPClient.h Pages: 1 -->
<svg width="1788pt" height="423pt"
 viewBox="0.00 0.00 1788.36 423.00" xmlns="http://www.w3.org/2000/svg" xmlns:xlink="http://www.w3.org/1999/xlink">
<g id="graph0" class="graph" transform="scale(1 1) rotate(0) translate(4 419)">
<title>SocketHTTPClient.h</title>
<!-- Node1 -->
<g id="Node000001" class="node">
<title>Node1</title>
<g id="a_Node000001"><a xlink:title="Public API for the HTTP client module, including types, functions, and configuration.">
<polygon fill="#999999" stroke="#666666" points="263.36,-415 156.36,-415 156.36,-396 263.36,-396 263.36,-415"/>
<text text-anchor="middle" x="209.86" y="-403" font-family="Helvetica,sans-Serif" font-size="10.00">SocketHTTPClient.h</text>
</a>
</g>
</g>
<!-- Node2 -->
<g id="Node000002" class="node">
<title>Node2</title>
<g id="a_Node000002"><a xlink:title=" ">
<polygon fill="#e0e0e0" stroke="#999999" points="382.86,-74 330.86,-74 330.86,-55 382.86,-55 382.86,-74"/>
<text text-anchor="middle" x="356.86" y="-62" font-family="Helvetica,sans-Serif" font-size="10.00">stddef.h</text>
</a>
</g>
</g>
<!-- Node1&#45;&gt;Node2 -->
<g id="edge1_Node000001_Node000002" class="edge">
<title>Node1&#45;&gt;Node2</title>
<g id="a_edge1_Node000001_Node000002"><a xlink:title=" ">
<path fill="none" stroke="#63b8ff" d="M156.3,-397.52C94.38,-386.09 0.86,-357 0.86,-285.5 0.86,-285.5 0.86,-285.5 0.86,-173.5 0.86,-144.04 -2.57,-129.11 19.86,-110 64.47,-71.98 242.78,-66.17 320.42,-65.48"/>
<polygon fill="#63b8ff" stroke="#63b8ff" points="320.71,-68.97 330.68,-65.41 320.66,-61.97 320.71,-68.97"/>
</a>
</g>
</g>
<!-- Node3 -->
<g id="Node000003" class="node">
<title>Node3</title>
<g id="a_Node000003"><a xlink:title=" ">
<polygon fill="#e0e0e0" stroke="#999999" points="78.36,-129 29.36,-129 29.36,-110 78.36,-110 78.36,-129"/>
<text text-anchor="middle" x="53.86" y="-117" font-family="Helvetica,sans-Serif" font-size="10.00">stdint.h</text>
</a>
</g>
</g>
<!-- Node1&#45;&gt;Node3 -->
<g id="edge2_Node000001_Node000003" class="edge">
<title>Node1&#45;&gt;Node3</title>
<g id="a_edge2_Node000001_Node000003"><a xlink:title=" ">
<path fill="none" stroke="#63b8ff" d="M178.29,-395.96C132.7,-381.49 53.86,-347.5 53.86,-285.5 53.86,-285.5 53.86,-285.5 53.86,-228.5 53.86,-197.19 53.86,-160.77 53.86,-139.23"/>
<polygon fill="#63b8ff" stroke="#63b8ff" points="57.36,-139.18 53.86,-129.18 50.36,-139.18 57.36,-139.18"/>
</a>
</g>
</g>
<!-- Node4 -->
<g id="Node000004" class="node">
<title>Node4</title>
<g id="a_Node000004"><a xlink:title=" ">
<polygon fill="#e0e0e0" stroke="#999999" points="302.86,-129 234.86,-129 234.86,-110 302.86,-110 302.86,-129"/>
<text text-anchor="middle" x="268.86" y="-117" font-family="Helvetica,sans-Serif" font-size="10.00">sys/types.h</text>
</a>
</g>
</g>
<!-- Node1&#45;&gt;Node4 -->
<g id="edge3_Node000001_Node000004" class="edge">
<title>Node1&#45;&gt;Node4</title>
<g id="a_edge3_Node000001_Node000004"><a xlink:title=" ">
<path fill="none" stroke="#63b8ff" d="M214.67,-395.85C224.89,-376.63 247.86,-328.66 247.86,-285.5 247.86,-285.5 247.86,-285.5 247.86,-228.5 247.86,-196.46 256.87,-160.03 263.09,-138.73"/>
<polygon fill="#63b8ff" stroke="#63b8ff" points="266.47,-139.65 266.02,-129.07 259.77,-137.62 266.47,-139.65"/>
</a>
</g>
</g>
<!-- Node5 -->
<g id="Node000005" class="node">
<title>Node5</title>
<g id="a_Node000005"><a xlink:title=" ">
<polygon fill="#e0e0e0" stroke="#999999" points="140.86,-129 96.86,-129 96.86,-110 140.86,-110 140.86,-129"/>
<text text-anchor="middle" x="118.86" y="-117" font-family="Helvetica,sans-Serif" font-size="10.00">time.h</text>
</a>
</g>
</g>
<!-- Node1&#45;&gt;Node5 -->
<g id="edge4_Node000001_Node000005" class="edge">
<title>Node1&#45;&gt;Node5</title>
<g id="a_edge4_Node000001_Node000005"><a xlink:title=" ">
<path fill="none" stroke="#63b8ff" d="M190.37,-395.87C156.86,-379.55 91.86,-340.78 91.86,-285.5 91.86,-285.5 91.86,-285.5 91.86,-228.5 91.86,-196.09 103.44,-159.81 111.43,-138.63"/>
<polygon fill="#63b8ff" stroke="#63b8ff" points="114.71,-139.86 115.1,-129.27 108.19,-137.3 114.71,-139.86"/>
</a>
</g>
</g>
<!-- Node6 -->
<g id="Node000006" class="node">
<title>Node6</title>
<g id="a_Node000006"><a xlink:href="Arena_8h.html" target="_top" xlink:title="Arena&#45;based memory allocator for efficient bulk memory management.">
<polygon fill="white" stroke="#666666" points="392.86,-129 320.86,-129 320.86,-110 392.86,-110 392.86,-129"/>
<text text-anchor="middle" x="356.86" y="-117" font-family="Helvetica,sans-Serif" font-size="10.00">core/Arena.h</text>
</a>
</g>
</g>
<!-- Node1&#45;&gt;Node6 -->
<g id="edge5_Node000001_Node000006" class="edge">
<title>Node1&#45;&gt;Node6</title>
<g id="a_edge5_Node000001_Node000006"><a xlink:title=" ">
<path fill="none" stroke="#63b8ff" d="M213.75,-395.93C223.29,-375.06 248.73,-320 271.86,-275 297.77,-224.58 330.67,-166.27 346.89,-137.86"/>
<polygon fill="#63b8ff" stroke="#63b8ff" points="349.96,-139.54 351.89,-129.12 343.88,-136.06 349.96,-139.54"/>
</a>
</g>
</g>
<!-- Node7 -->
<g id="Node000007" class="node">
<title>Node7</title>
<g id="a_Node000007"><a xlink:href="Except_8h.html" target="_top" xlink:title="Structured exception handling for C with TRY/EXCEPT/FINALLY blocks.">
<polygon fill="white" stroke="#666666" points="831.36,-74 754.36,-74 754.36,-55 831.36,-55 831.36,-74"/>
<text text-anchor="middle" x="792.86" y="-62" font-family="Helvetica,sans-Serif" font-size="10.00">core/Except.h</text>
</a>
</g>
</g>
<!-- Node1&#45;&gt;Node7 -->
<g id="edge9_Node000001_Node000007" class="edge">
<title>Node1&#45;&gt;Node7</title>
<g id="a_edge9_Node000001_Node000007"><a xlink:title=" ">
<path fill="none" stroke="#63b8ff" d="M217.57,-395.96C249.59,-360.54 370.79,-226.75 380.86,-220 499.17,-140.6 663.79,-94.88 744.43,-75.92"/>
<polygon fill="#63b8ff" stroke="#63b8ff" points="745.36,-79.3 754.31,-73.63 743.78,-72.48 745.36,-79.3"/>
</a>
</g>
</g>
<!-- Node9 -->
<g id="Node000009" class="node">
<title>Node9</title>
<g id="a_Node000009"><a xlink:href="SocketHTTP_8h.html" target="_top" xlink:title="Protocol&#45;agnostic HTTP types, header handling, URI parsing, and utilities.">
<polygon fill="white" stroke="#666666" points="219.86,-184 119.86,-184 119.86,-165 219.86,-165 219.86,-184"/>
<text text-anchor="middle" x="169.86" y="-172" font-family="Helvetica,sans-Serif" font-size="10.00">http/SocketHTTP.h</text>
</a>
</g>
</g>
<!-- Node1&#45;&gt;Node9 -->
<g id="edge10_Node000001_Node000009" class="edge">
<title>Node1&#45;&gt;Node9</title>
<g id="a_edge10_Node000001_Node000009"><a xlink:title=" ">
<path fill="none" stroke="#63b8ff" d="M206.63,-395.75C203.47,-386.86 198.71,-372.64 195.86,-360 182.32,-300.17 174.57,-227.73 171.46,-194.2"/>
<polygon fill="#63b8ff" stroke="#63b8ff" points="174.93,-193.7 170.56,-184.05 167.96,-194.32 174.93,-193.7"/>
</a>
</g>
</g>
<!-- Node10 -->
<g id="Node000010" class="node">
<title>Node10</title>
<g id="a_Node000010"><a xlink:href="SocketHTTPClient-config_8h.html" target="_top" xlink:title="Configuration constants for HTTP client with compile&#45;time override support.">
<polygon fill="white" stroke="#666666" points="433.36,-360 314.36,-360 314.36,-330 433.36,-330 433.36,-360"/>
<text text-anchor="start" x="322.36" y="-348" font-family="Helvetica,sans-Serif" font-size="10.00">http/SocketHTTPClient</text>
<text text-anchor="middle" x="373.86" y="-337" font-family="Helvetica,sans-Serif" font-size="10.00">&#45;config.h</text>
</a>
</g>
</g>
<!-- Node1&#45;&gt;Node10 -->
<g id="edge17_Node000001_Node000010" class="edge">
<title>Node1&#45;&gt;Node10</title>
<g id="a_edge17_Node000001_Node000010"><a xlink:title=" ">
<path fill="none" stroke="#63b8ff" d="M233.7,-395.99C257.51,-387.5 294.79,-374.2 324.92,-363.45"/>
<polygon fill="#63b8ff" stroke="#63b8ff" points="326.18,-366.72 334.43,-360.06 323.83,-360.13 326.18,-366.72"/>
</a>
</g>
</g>
<!-- Node11 -->
<g id="Node000011" class="node">
<title>Node11</title>
<g id="a_Node000011"><a xlink:href="SocketTLSContext_8h.html" target="_top" xlink:title="TLS context management with secure defaults and certificate handling.">
<polygon fill="white" stroke="#666666" points="573.86,-354.5 451.86,-354.5 451.86,-335.5 573.86,-335.5 573.86,-354.5"/>
<text text-anchor="middle" x="512.86" y="-342.5" font-family="Helvetica,sans-Serif" font-size="10.00">tls/SocketTLSContext.h</text>
</a>
</g>
</g>
<!-- Node1&#45;&gt;Node11 -->
<g id="edge18_Node000001_Node000011" class="edge">
<title>Node1&#45;&gt;Node11</title>
<g id="a_edge18_Node000001_Node000011"><a xlink:title=" ">
<path fill="none" stroke="#63b8ff" d="M255.42,-395.92C302.4,-387.04 377.78,-372.72 442.86,-360 448.54,-358.89 454.49,-357.72 460.41,-356.54"/>
<polygon fill="#63b8ff" stroke="#63b8ff" points="461.17,-359.96 470.3,-354.57 459.81,-353.09 461.17,-359.96"/>
</a>
</g>
</g>
<!-- Node6&#45;&gt;Node2 -->
<g id="edge6_Node000006_Node000002" class="edge">
<title>Node6&#45;&gt;Node2</title>
<g id="a_edge6_Node000006_Node000002"><a xlink:title=" ">
<path fill="none" stroke="#63b8ff" d="M356.86,-109.75C356.86,-102.8 356.86,-92.85 356.86,-84.13"/>
<polygon fill="#63b8ff" stroke="#63b8ff" points="360.36,-84.09 356.86,-74.09 353.36,-84.09 360.36,-84.09"/>
</a>
</g>
</g>
<!-- Node6&#45;&gt;Node7 -->
<g id="edge7_Node000006_Node000007" class="edge">
<title>Node6&#45;&gt;Node7</title>
<g id="a_edge7_Node000006_Node000007"><a xlink:title=" ">
<path fill="none" stroke="#63b8ff" d="M392.87,-112.14C397.57,-111.38 402.32,-110.65 406.86,-110 527.64,-92.78 670.41,-77.68 743.83,-70.3"/>
<polygon fill="#63b8ff" stroke="#63b8ff" points="744.54,-73.75 754.14,-69.27 743.84,-66.78 744.54,-73.75"/>
</a>
</g>
</g>
<!-- Node8 -->
<g id="Node000008" class="node">
<title>Node8</title>
<g id="a_Node000008"><a xlink:title=" ">
<polygon fill="#e0e0e0" stroke="#999999" points="819.86,-19 765.86,-19 765.86,0 819.86,0 819.86,-19"/>
<text text-anchor="middle" x="792.86" y="-7" font-family="Helvetica,sans-Serif" font-size="10.00">setjmp.h</text>
</a>
</g>
</g>
<!-- Node7&#45;&gt;Node8 -->
<g id="edge8_Node000007_Node000008" class="edge">
<title>Node7&#45;&gt;Node8</title>
<g id="a_edge8_Node000007_Node000008"><a xlink:title=" ">
<path fill="none" stroke="#63b8ff" d="M792.86,-54.75C792.86,-47.8 792.86,-37.85 792.86,-29.13"/>
<polygon fill="#63b8ff" stroke="#63b8ff" points="796.36,-29.09 792.86,-19.09 789.36,-29.09 796.36,-29.09"/>
</a>
</g>
</g>
<!-- Node9&#45;&gt;Node2 -->
<g id="edge11_Node000009_Node000002" class="edge">
<title>Node9&#45;&gt;Node2</title>
<g id="a_edge11_Node000009_Node000002"><a xlink:title=" ">
<path fill="none" stroke="#63b8ff" d="M170.52,-164.72C172.05,-151.02 176.98,-124.61 192.86,-110 227.82,-77.81 283.72,-68.51 320.37,-66.04"/>
<polygon fill="#63b8ff" stroke="#63b8ff" points="320.82,-69.52 330.62,-65.49 320.44,-62.53 320.82,-69.52"/>
</a>
</g>
</g>
<!-- Node9&#45;&gt;Node3 -->
<g id="edge12_Node000009_Node000003" class="edge">
<title>Node9&#45;&gt;Node3</title>
<g id="a_edge12_Node000009_Node000003"><a xlink:title=" ">
<path fill="none" stroke="#63b8ff" d="M151.22,-164.98C132.56,-156.46 103.6,-143.23 82.12,-133.41"/>
<polygon fill="#63b8ff" stroke="#63b8ff" points="83.38,-130.14 72.83,-129.17 80.47,-136.51 83.38,-130.14"/>
</a>
</g>
</g>
<!-- Node9&#45;&gt;Node4 -->
<g id="edge13_Node000009_Node000004" class="edge">
<title>Node9&#45;&gt;Node4</title>
<g id="a_edge13_Node000009_Node000004"><a xlink:title=" ">
<path fill="none" stroke="#63b8ff" d="M185.76,-164.98C201.4,-156.61 225.51,-143.7 243.74,-133.95"/>
<polygon fill="#63b8ff" stroke="#63b8ff" points="245.5,-136.98 252.66,-129.17 242.19,-130.8 245.5,-136.98"/>
</a>
</g>
</g>
<!-- Node9&#45;&gt;Node5 -->
<g id="edge14_Node000009_Node000005" class="edge">
<title>Node9&#45;&gt;Node5</title>
<g id="a_edge14_Node000009_Node000005"><a xlink:title=" ">
<path fill="none" stroke="#63b8ff" d="M161.43,-164.75C154.08,-157.11 143.22,-145.82 134.31,-136.56"/>
<polygon fill="#63b8ff" stroke="#63b8ff" points="136.58,-133.87 127.12,-129.09 131.53,-138.72 136.58,-133.87"/>
</a>
</g>
</g>
<!-- Node9&#45;&gt;Node6 -->
<g id="edge15_Node000009_Node000006" class="edge">
<title>Node9&#45;&gt;Node6</title>
<g id="a_edge15_Node000009_Node000006"><a xlink:title=" ">
<path fill="none" stroke="#63b8ff" d="M199.9,-164.98C231.57,-156.01 281.62,-141.82 316.67,-131.89"/>
<polygon fill="#63b8ff" stroke="#63b8ff" points="317.91,-135.18 326.58,-129.08 316,-128.44 317.91,-135.18"/>
</a>
</g>
</g>
<!-- Node9&#45;&gt;Node7 -->
<g id="edge16_Node000009_Node000007" class="edge">
<title>Node9&#45;&gt;Node7</title>
<g id="a_edge16_Node000009_Node000007"><a xlink:title=" ">
<path fill="none" stroke="#63b8ff" d="M174.64,-164.59C182.92,-150.2 201.4,-122.22 225.86,-110 271.61,-87.15 614.66,-72.14 743.84,-67.25"/>
<polygon fill="#63b8ff" stroke="#63b8ff" points="744.36,-70.73 754.22,-66.86 744.1,-63.73 744.36,-70.73"/>
</a>
</g>
</g>
<!-- Node11&#45;&gt;Node6 -->
<g id="edge19_Node000011_Node000006" class="edge">
<title>Node11&#45;&gt;Node6</title>
<g id="a_edge19_Node000011_Node000006"><a xlink:title=" ">
<path fill="none" stroke="#63b8ff" d="M492.97,-335.38C474.19,-326.66 445.84,-311.91 424.86,-294 401.04,-273.68 394.11,-267.36 380.86,-239 365.5,-206.15 359.94,-163.68 357.95,-139.53"/>
<polygon fill="#63b8ff" stroke="#63b8ff" points="361.42,-139 357.23,-129.27 354.44,-139.49 361.42,-139"/>
</a>
</g>
</g>
<!-- Node11&#45;&gt;Node7 -->
<g id="edge20_Node000011_Node000007" class="edge">
<title>Node11&#45;&gt;Node7</title>
<g id="a_edge20_Node000011_Node000007"><a xlink:title=" ">
<path fill="none" stroke="#63b8ff" d="M573.95,-339.66C637.51,-331.43 733.55,-307.64 775.86,-239 805.97,-190.14 800.8,-118.46 796.09,-84.58"/>
<polygon fill="#63b8ff" stroke="#63b8ff" points="799.49,-83.62 794.51,-74.27 792.57,-84.69 799.49,-83.62"/>
</a>
</g>
</g>
<!-- Node12 -->
<g id="Node000012" class="node">
<title>Node12</title>
<g id="a_Node000012"><a xlink:href="SocketTLS_8h.html" target="_top" xlink:title="TLS/SSL socket integration with TLS 1.3 support.">
<polygon fill="white" stroke="#666666" points="910.36,-294 823.36,-294 823.36,-275 910.36,-275 910.36,-294"/>
<text text-anchor="middle" x="866.86" y="-282" font-family="Helvetica,sans-Serif" font-size="10.00">tls/SocketTLS.h</text>
</a>
</g>
</g>
<!-- Node11&#45;&gt;Node12 -->
<g id="edge21_Node000011_Node000012" class="edge">
<title>Node11&#45;&gt;Node12</title>
<g id="a_edge21_Node000011_Node000012"><a xlink:title=" ">
<path fill="none" stroke="#63b8ff" d="M564.33,-335.49C630.72,-324.52 745.66,-305.53 813.13,-294.38"/>
<polygon fill="#63b8ff" stroke="#63b8ff" points="813.84,-297.81 823.13,-292.73 812.7,-290.9 813.84,-297.81"/>
</a>
</g>
</g>
<!-- Node30 -->
<g id="Node000030" class="node">
<title>Node30</title>
<g id="a_Node000030"><a xlink:href="SocketTLSConfig_8h.html" target="_top" xlink:title="TLS configuration constants, structure, and secure defaults.">
<polygon fill="white" stroke="#666666" points="679.86,-294 563.86,-294 563.86,-275 679.86,-275 679.86,-294"/>
<text text-anchor="middle" x="621.86" y="-282" font-family="Helvetica,sans-Serif" font-size="10.00">tls/SocketTLSConfig.h</text>
</a>
</g>
</g>
<!-- Node11&#45;&gt;Node30 -->
<g id="edge53_Node000011_Node000030" class="edge">
<title>Node11&#45;&gt;Node30</title>
<g id="a_edge53_Node000011_Node000030"><a xlink:title=" ">
<path fill="none" stroke="#63b8ff" d="M528.94,-335.37C546.81,-325.78 575.89,-310.17 596.77,-298.97"/>
<polygon fill="#63b8ff" stroke="#63b8ff" points="598.55,-301.98 605.71,-294.17 595.24,-295.81 598.55,-301.98"/>
</a>
</g>
</g>
<!-- Node32 -->
<g id="Node000032" class="node">
<title>Node32</title>
<g id="a_Node000032"><a xlink:title=" ">
<polygon fill="#e0e0e0" stroke="#999999" points="463.86,-239 389.86,-239 389.86,-220 463.86,-220 463.86,-239"/>
<text text-anchor="middle" x="426.86" y="-227" font-family="Helvetica,sans-Serif" font-size="10.00">openssl/ssl.h</text>
</a>
</g>
</g>
<!-- Node11&#45;&gt;Node32 -->
<g id="edge58_Node000011_Node000032" class="edge">
<title>Node11&#45;&gt;Node32</title>
<g id="a_edge58_Node000011_Node000032"><a xlink:title=" ">
<path fill="none" stroke="#63b8ff" d="M490.81,-335.46C473.26,-327.47 449.61,-313.78 436.86,-294 428.26,-280.66 426.13,-262.55 425.93,-249.08"/>
<polygon fill="#63b8ff" stroke="#63b8ff" points="429.43,-249.14 426.12,-239.07 422.43,-249 429.43,-249.14"/>
</a>
</g>
</g>
<!-- Node35 -->
<g id="Node000035" class="node">
<title>Node35</title>
<g id="a_Node000035"><a xlink:title=" ">
<polygon fill="#e0e0e0" stroke="#999999" points="545.86,-294 445.86,-294 445.86,-275 545.86,-275 545.86,-294"/>
<text text-anchor="middle" x="495.86" y="-282" font-family="Helvetica,sans-Serif" font-size="10.00">openssl/x509_vfy.h</text>
</a>
</g>
</g>
<!-- Node11&#45;&gt;Node35 -->
<g id="edge59_Node000011_Node000035" class="edge">
<title>Node11&#45;&gt;Node35</title>
<g id="a_edge59_Node000011_Node000035"><a xlink:title=" ">
<path fill="none" stroke="#63b8ff" d="M510.35,-335.37C507.96,-327.16 504.3,-314.54 501.25,-304.05"/>
<polygon fill="#63b8ff" stroke="#63b8ff" points="504.53,-302.79 498.37,-294.17 497.8,-304.75 504.53,-302.79"/>
</a>
</g>
</g>
<!-- Node12&#45;&gt;Node7 -->
<g id="edge22_Node000012_Node000007" class="edge">
<title>Node12&#45;&gt;Node7</title>
<g id="a_edge22_Node000012_Node000007"><a xlink:title=" ">
<path fill="none" stroke="#63b8ff" d="M863.95,-274.95C853.04,-242.81 814.31,-128.72 799.08,-83.83"/>
<polygon fill="#63b8ff" stroke="#63b8ff" points="802.35,-82.57 795.82,-74.22 795.72,-84.82 802.35,-82.57"/>
</a>
</g>
</g>
<!-- Node13 -->
<g id="Node000013" class="node">
<title>Node13</title>
<g id="a_Node000013"><a xlink:href="Socket_8h.html" target="_top" xlink:title="High&#45;level TCP/IP and Unix domain socket interface.">
<polygon fill="white" stroke="#666666" points="969.86,-239 881.86,-239 881.86,-220 969.86,-220 969.86,-239"/>
<text text-anchor="middle" x="925.86" y="-227" font-family="Helvetica,sans-Serif" font-size="10.00">socket/Socket.h</text>
</a>
</g>
</g>
<!-- Node12&#45;&gt;Node13 -->
<g id="edge23_Node000012_Node000013" class="edge">
<title>Node12&#45;&gt;Node13</title>
<g id="a_edge23_Node000012_Node000013"><a xlink:title=" ">
<path fill="none" stroke="#63b8ff" d="M876.34,-274.98C885.06,-267.15 898.2,-255.34 908.75,-245.86"/>
<polygon fill="#63b8ff" stroke="#63b8ff" points="911.1,-248.46 916.2,-239.17 906.43,-243.25 911.1,-248.46"/>
</a>
</g>
</g>
<!-- Node13&#45;&gt;Node7 -->
<g id="edge24_Node000013_Node000007" class="edge">
<title>Node13&#45;&gt;Node7</title>
<g id="a_edge24_Node000013_Node000007"><a xlink:title=" ">
<path fill="none" stroke="#63b8ff" d="M918.71,-219.74C897.51,-193.76 834.74,-116.83 806.68,-82.44"/>
<polygon fill="#63b8ff" stroke="#63b8ff" points="809.08,-79.84 800.04,-74.31 803.65,-84.27 809.08,-79.84"/>
</a>
</g>
</g>
<!-- Node14 -->
<g id="Node000014" class="node">
<title>Node14</title>
<g id="a_Node000014"><a xlink:href="SocketConfig_8h.html" target="_top" xlink:title="Compile&#45;time configuration and platform detection for the socket library.">
<polygon fill="white" stroke="#666666" points="1589.86,-129 1483.86,-129 1483.86,-110 1589.86,-110 1589.86,-129"/>
<text text-anchor="middle" x="1536.86" y="-117" font-family="Helvetica,sans-Serif" font-size="10.00">core/SocketConfig.h</text>
</a>
</g>
</g>
<!-- Node13&#45;&gt;Node14 -->
<g id="edge25_Node000013_Node000014" class="edge">
<title>Node13&#45;&gt;Node14</title>
<g id="a_edge25_Node000013_Node000014"><a xlink:title=" ">
<path fill="none" stroke="#63b8ff" d="M969.96,-223.98C1034.22,-217.09 1157.23,-202.76 1260.86,-184 1344.26,-168.9 1440.49,-145.34 1494.45,-131.56"/>
<polygon fill="#63b8ff" stroke="#63b8ff" points="1495.53,-134.9 1504.35,-129.03 1493.79,-128.12 1495.53,-134.9"/>
</a>
</g>
</g>
<!-- Node23 -->
<g id="Node000023" class="node">
<title>Node23</title>
<g id="a_Node000023"><a xlink:href="SocketDNS_8h.html" target="_top" xlink:title="Asynchronous DNS resolution API.">
<polygon fill="white" stroke="#666666" points="973.86,-129 877.86,-129 877.86,-110 973.86,-110 973.86,-129"/>
<text text-anchor="middle" x="925.86" y="-117" font-family="Helvetica,sans-Serif" font-size="10.00">dns/SocketDNS.h</text>
</a>
</g>
</g>
<!-- Node13&#45;&gt;Node23 -->
<g id="edge35_Node000013_Node000023" class="edge">
<title>Node13&#45;&gt;Node23</title>
<g id="a_edge35_Node000013_Node000023"><a xlink:title=" ">
<path fill="none" stroke="#63b8ff" d="M925.86,-219.66C925.86,-202.17 925.86,-162.8 925.86,-139.27"/>
<polygon fill="#63b8ff" stroke="#63b8ff" points="929.36,-139.16 925.86,-129.16 922.36,-139.16 929.36,-139.16"/>
</a>
</g>
</g>
<!-- Node25 -->
<g id="Node000025" class="node">
<title>Node25</title>
<g id="a_Node000025"><a xlink:href="SocketCommon_8h.html" target="_top" xlink:title="Common utilities shared between Socket and SocketDgram modules.">
<polygon fill="white" stroke="#666666" points="1251.86,-184 1123.86,-184 1123.86,-165 1251.86,-165 1251.86,-184"/>
<text text-anchor="middle" x="1187.86" y="-172" font-family="Helvetica,sans-Serif" font-size="10.00">socket/SocketCommon.h</text>
</a>
</g>
</g>
<!-- Node13&#45;&gt;Node25 -->
<g id="edge40_Node000013_Node000025" class="edge">
<title>Node13&#45;&gt;Node25</title>
<g id="a_edge40_Node000013_Node000025"><a xlink:title=" ">
<path fill="none" stroke="#63b8ff" d="M967.95,-219.98C1013.56,-210.76 1086.38,-196.03 1135.61,-186.07"/>
<polygon fill="#63b8ff" stroke="#63b8ff" points="1136.32,-189.5 1145.43,-184.08 1134.94,-182.63 1136.32,-189.5"/>
</a>
</g>
</g>
<!-- Node14&#45;&gt;Node2 -->
<g id="edge30_Node000014_Node000002" class="edge">
<title>Node14&#45;&gt;Node2</title>
<g id="a_edge30_Node000014_Node000002"><a xlink:title=" ">
<path fill="none" stroke="#63b8ff" d="M1483.69,-113.55C1468.57,-112.26 1452.07,-110.96 1436.86,-110 1027.94,-84.21 530.94,-70.04 393.55,-66.43"/>
<polygon fill="#63b8ff" stroke="#63b8ff" points="393.28,-62.92 383.19,-66.16 393.1,-69.92 393.28,-62.92"/>
</a>
</g>
</g>
<!-- Node15 -->
<g id="Node000015" class="node">
<title>Node15</title>
<g id="a_Node000015"><a xlink:title=" ">
<polygon fill="#e0e0e0" stroke="#999999" points="1483.36,-74 1436.36,-74 1436.36,-55 1483.36,-55 1483.36,-74"/>
<text text-anchor="middle" x="1459.86" y="-62" font-family="Helvetica,sans-Serif" font-size="10.00">errno.h</text>
</a>
</g>
</g>
<!-- Node14&#45;&gt;Node15 -->
<g id="edge26_Node000014_Node000015" class="edge">
<title>Node14&#45;&gt;Node15</title>
<g id="a_edge26_Node000014_Node000015"><a xlink:title=" ">
<path fill="none" stroke="#63b8ff" d="M1524.48,-109.98C1512.77,-101.92 1494.94,-89.65 1480.97,-80.03"/>
<polygon fill="#63b8ff" stroke="#63b8ff" points="1482.67,-76.96 1472.45,-74.17 1478.71,-82.72 1482.67,-76.96"/>
</a>
</g>
</g>
<!-- Node16 -->
<g id="Node000016" class="node">
<title>Node16</title>
<g id="a_Node000016"><a xlink:title=" ">
<polygon fill="#e0e0e0" stroke="#999999" points="1329.86,-74 1285.86,-74 1285.86,-55 1329.86,-55 1329.86,-74"/>
<text text-anchor="middle" x="1307.86" y="-62" font-family="Helvetica,sans-Serif" font-size="10.00">fcntl.h</text>
</a>
</g>
</g>
<!-- Node14&#45;&gt;Node16 -->
<g id="edge27_Node000014_Node000016" class="edge">
<title>Node14&#45;&gt;Node16</title>
<g id="a_edge27_Node000014_Node000016"><a xlink:title=" ">
<path fill="none" stroke="#63b8ff" d="M1500.06,-109.98C1455.77,-99.73 1382.11,-82.69 1340,-72.94"/>
<polygon fill="#63b8ff" stroke="#63b8ff" points="1340.55,-69.47 1330.01,-70.63 1338.97,-76.29 1340.55,-69.47"/>
</a>
</g>
</g>
<!-- Node17 -->
<g id="Node000017" class="node">
<title>Node17</title>
<g id="a_Node000017"><a xlink:title=" ">
<polygon fill="#e0e0e0" stroke="#999999" points="1418.36,-74 1353.36,-74 1353.36,-55 1418.36,-55 1418.36,-74"/>
<text text-anchor="middle" x="1385.86" y="-62" font-family="Helvetica,sans-Serif" font-size="10.00">netinet/in.h</text>
</a>
</g>
</g>
<!-- Node14&#45;&gt;Node17 -->
<g id="edge28_Node000014_Node000017" class="edge">
<title>Node14&#45;&gt;Node17</title>
<g id="a_edge28_Node000014_Node000017"><a xlink:title=" ">
<path fill="none" stroke="#63b8ff" d="M1512.59,-109.98C1487.54,-101.19 1448.22,-87.39 1420.03,-77.49"/>
<polygon fill="#63b8ff" stroke="#63b8ff" points="1421.15,-74.18 1410.56,-74.17 1418.83,-80.78 1421.15,-74.18"/>
</a>
</g>
</g>
<!-- Node18 -->
<g id="Node000018" class="node">
<title>Node18</title>
<g id="a_Node000018"><a xlink:title=" ">
<polygon fill="#e0e0e0" stroke="#999999" points="1572.36,-74 1501.36,-74 1501.36,-55 1572.36,-55 1572.36,-74"/>
<text text-anchor="middle" x="1536.86" y="-62" font-family="Helvetica,sans-Serif" font-size="10.00">netinet/tcp.h</text>
</a>
</g>
</g>
<!-- Node14&#45;&gt;Node18 -->
<g id="edge29_Node000014_Node000018" class="edge">
<title>Node14&#45;&gt;Node18</title>
<g id="a_edge29_Node000014_Node000018"><a xlink:title=" ">
<path fill="none" stroke="#63b8ff" d="M1536.86,-109.75C1536.86,-102.8 1536.86,-92.85 1536.86,-84.13"/>
<polygon fill="#63b8ff" stroke="#63b8ff" points="1540.36,-84.09 1536.86,-74.09 1533.36,-84.09 1540.36,-84.09"/>
</a>
</g>
</g>
<!-- Node19 -->
<g id="Node000019" class="node">
<title>Node19</title>
<g id="a_Node000019"><a xlink:title=" ">
<polygon fill="#e0e0e0" stroke="#999999" points="1636.86,-74 1590.86,-74 1590.86,-55 1636.86,-55 1636.86,-74"/>
<text text-anchor="middle" x="1613.86" y="-62" font-family="Helvetica,sans-Serif" font-size="10.00">stdio.h</text>
</a>
</g>
</g>
<!-- Node14&#45;&gt;Node19 -->
<g id="edge31_Node000014_Node000019" class="edge">
<title>Node14&#45;&gt;Node19</title>
<g id="a_edge31_Node000014_Node000019"><a xlink:title=" ">
<path fill="none" stroke="#63b8ff" d="M1549.23,-109.98C1560.94,-101.92 1578.78,-89.65 1592.74,-80.03"/>
<polygon fill="#63b8ff" stroke="#63b8ff" points="1595.01,-82.72 1601.26,-74.17 1591.04,-76.96 1595.01,-82.72"/>
</a>
</g>
</g>
<!-- Node20 -->
<g id="Node000020" class="node">
<title>Node20</title>
<g id="a_Node000020"><a xlink:title=" ">
<polygon fill="#e0e0e0" stroke="#999999" points="1262.36,-74 1189.36,-74 1189.36,-55 1262.36,-55 1262.36,-74"/>
<text text-anchor="middle" x="1225.86" y="-62" font-family="Helvetica,sans-Serif" font-size="10.00">sys/socket.h</text>
</a>
</g>
</g>
<!-- Node14&#45;&gt;Node20 -->
<g id="edge32_Node000014_Node000020" class="edge">
<title>Node14&#45;&gt;Node20</title>
<g id="a_edge32_Node000014_Node000020"><a xlink:title=" ">
<path fill="none" stroke="#63b8ff" d="M1486.89,-109.98C1427.77,-99.91 1330.11,-83.27 1272.48,-73.45"/>
<polygon fill="#63b8ff" stroke="#63b8ff" points="1273,-69.98 1262.55,-71.75 1271.82,-76.88 1273,-69.98"/>
</a>
</g>
</g>
<!-- Node21 -->
<g id="Node000021" class="node">
<title>Node21</title>
<g id="a_Node000021"><a xlink:title=" ">
<polygon fill="#e0e0e0" stroke="#999999" points="1710.86,-74 1654.86,-74 1654.86,-55 1710.86,-55 1710.86,-74"/>
<text text-anchor="middle" x="1682.86" y="-62" font-family="Helvetica,sans-Serif" font-size="10.00">sys/uio.h</text>
</a>
</g>
</g>
<!-- Node14&#45;&gt;Node21 -->
<g id="edge33_Node000014_Node000021" class="edge">
<title>Node14&#45;&gt;Node21</title>
<g id="a_edge33_Node000014_Node000021"><a xlink:title=" ">
<path fill="none" stroke="#63b8ff" d="M1560.31,-109.98C1584.43,-101.23 1622.22,-87.51 1649.46,-77.62"/>
<polygon fill="#63b8ff" stroke="#63b8ff" points="1650.77,-80.87 1658.97,-74.17 1648.38,-74.29 1650.77,-80.87"/>
</a>
</g>
</g>
<!-- Node22 -->
<g id="Node000022" class="node">
<title>Node22</title>
<g id="a_Node000022"><a xlink:title=" ">
<polygon fill="#e0e0e0" stroke="#999999" points="1780.36,-74 1729.36,-74 1729.36,-55 1780.36,-55 1780.36,-74"/>
<text text-anchor="middle" x="1754.86" y="-62" font-family="Helvetica,sans-Serif" font-size="10.00">unistd.h</text>
</a>
</g>
</g>
<!-- Node14&#45;&gt;Node22 -->
<g id="edge34_Node000014_Node000022" class="edge">
<title>Node14&#45;&gt;Node22</title>
<g id="a_edge34_Node000014_Node000022"><a xlink:title=" ">
<path fill="none" stroke="#63b8ff" d="M1571.88,-109.98C1612.38,-100.14 1678.68,-84.02 1719.37,-74.13"/>
<polygon fill="#63b8ff" stroke="#63b8ff" points="1720.24,-77.52 1729.13,-71.75 1718.59,-70.72 1720.24,-77.52"/>
</a>
</g>
</g>
<!-- Node23&#45;&gt;Node2 -->
<g id="edge38_Node000023_Node000002" class="edge">
<title>Node23&#45;&gt;Node2</title>
<g id="a_edge38_Node000023_Node000002"><a xlink:title=" ">
<path fill="none" stroke="#63b8ff" d="M877.83,-114.03C766.29,-103.64 491.67,-78.06 392.94,-68.86"/>
<polygon fill="#63b8ff" stroke="#63b8ff" points="393.15,-65.37 382.87,-67.92 392.5,-72.34 393.15,-65.37"/>
</a>
</g>
</g>
<!-- Node23&#45;&gt;Node7 -->
<g id="edge36_Node000023_Node000007" class="edge">
<title>Node23&#45;&gt;Node7</title>
<g id="a_edge36_Node000023_Node000007"><a xlink:title=" ">
<path fill="none" stroke="#63b8ff" d="M904.49,-109.98C882.71,-101.3 848.69,-87.75 823.93,-77.88"/>
<polygon fill="#63b8ff" stroke="#63b8ff" points="825.2,-74.62 814.61,-74.17 822.61,-81.12 825.2,-74.62"/>
</a>
</g>
</g>
<!-- Node23&#45;&gt;Node20 -->
<g id="edge39_Node000023_Node000020" class="edge">
<title>Node23&#45;&gt;Node20</title>
<g id="a_edge39_Node000023_Node000020"><a xlink:title=" ">
<path fill="none" stroke="#63b8ff" d="M974.06,-109.98C1030.5,-100.01 1123.36,-83.61 1179.15,-73.75"/>
<polygon fill="#63b8ff" stroke="#63b8ff" points="1179.88,-77.18 1189.12,-71.99 1178.67,-70.28 1179.88,-77.18"/>
</a>
</g>
</g>
<!-- Node24 -->
<g id="Node000024" class="node">
<title>Node24</title>
<g id="a_Node000024"><a xlink:title=" ">
<polygon fill="#e0e0e0" stroke="#999999" points="1060.36,-74 1011.36,-74 1011.36,-55 1060.36,-55 1060.36,-74"/>
<text text-anchor="middle" x="1035.86" y="-62" font-family="Helvetica,sans-Serif" font-size="10.00">netdb.h</text>
</a>
</g>
</g>
<!-- Node23&#45;&gt;Node24 -->
<g id="edge37_Node000023_Node000024" class="edge">
<title>Node23&#45;&gt;Node24</title>
<g id="a_edge37_Node000023_Node000024"><a xlink:title=" ">
<path fill="none" stroke="#63b8ff" d="M943.53,-109.98C961.15,-101.5 988.43,-88.35 1008.78,-78.54"/>
<polygon fill="#63b8ff" stroke="#63b8ff" points="1010.37,-81.66 1017.86,-74.17 1007.33,-75.36 1010.37,-81.66"/>
</a>
</g>
</g>
<!-- Node25&#45;&gt;Node4 -->
<g id="edge48_Node000025_Node000004" class="edge">
<title>Node25&#45;&gt;Node4</title>
<g id="a_edge48_Node000025_Node000004"><a xlink:title=" ">
<path fill="none" stroke="#63b8ff" d="M1123.83,-173.41C980.32,-172.51 621.92,-166.48 313.09,-128.96"/>
<polygon fill="#63b8ff" stroke="#63b8ff" points="313.4,-125.47 303.05,-127.72 312.55,-132.42 313.4,-125.47"/>
</a>
</g>
</g>
<!-- Node25&#45;&gt;Node6 -->
<g id="edge50_Node000025_Node000006" class="edge">
<title>Node25&#45;&gt;Node6</title>
<g id="a_edge50_Node000025_Node000006"><a xlink:title=" ">
<path fill="none" stroke="#63b8ff" d="M1123.68,-169.41C962.47,-159.13 543.37,-132.4 403.25,-123.46"/>
<polygon fill="#63b8ff" stroke="#63b8ff" points="403.08,-119.94 392.88,-122.8 402.63,-126.93 403.08,-119.94"/>
</a>
</g>
</g>
<!-- Node25&#45;&gt;Node7 -->
<g id="edge51_Node000025_Node000007" class="edge">
<title>Node25&#45;&gt;Node7</title>
<g id="a_edge51_Node000025_Node000007"><a xlink:title=" ">
<path fill="none" stroke="#63b8ff" d="M1146.63,-164.98C1112.38,-157.31 1062.66,-144.83 1020.86,-129 1003.2,-122.31 1000.61,-116.42 982.86,-110 936.06,-93.08 880.42,-80.93 841.49,-73.64"/>
<polygon fill="#63b8ff" stroke="#63b8ff" points="841.93,-70.17 831.47,-71.81 840.67,-77.05 841.93,-70.17"/>
</a>
</g>
</g>
<!-- Node25&#45;&gt;Node14 -->
<g id="edge52_Node000025_Node000014" class="edge">
<title>Node25&#45;&gt;Node14</title>
<g id="a_edge52_Node000025_Node000014"><a xlink:title=" ">
<path fill="none" stroke="#63b8ff" d="M1243.93,-164.98C1306.66,-155.46 1408.06,-140.06 1473.59,-130.11"/>
<polygon fill="#63b8ff" stroke="#63b8ff" points="1474.42,-133.52 1483.78,-128.56 1473.37,-126.6 1474.42,-133.52"/>
</a>
</g>
</g>
<!-- Node25&#45;&gt;Node16 -->
<g id="edge43_Node000025_Node000016" class="edge">
<title>Node25&#45;&gt;Node16</title>
<g id="a_edge43_Node000025_Node000016"><a xlink:title=" ">
<path fill="none" stroke="#63b8ff" d="M1197.68,-164.66C1218.08,-146.3 1265.29,-103.81 1290.78,-80.87"/>
<polygon fill="#63b8ff" stroke="#63b8ff" points="1293.14,-83.45 1298.24,-74.16 1288.46,-78.25 1293.14,-83.45"/>
</a>
</g>
</g>
<!-- Node25&#45;&gt;Node17 -->
<g id="edge45_Node000025_Node000017" class="edge">
<title>Node25&#45;&gt;Node17</title>
<g id="a_edge45_Node000025_Node000017"><a xlink:title=" ">
<path fill="none" stroke="#63b8ff" d="M1251.96,-171.11C1317.76,-167.14 1413.71,-156.65 1436.86,-129 1450.94,-112.17 1429.2,-92.4 1409.89,-79.45"/>
<polygon fill="#63b8ff" stroke="#63b8ff" points="1411.65,-76.42 1401.33,-74.01 1407.9,-82.33 1411.65,-76.42"/>
</a>
</g>
</g>
<!-- Node25&#45;&gt;Node20 -->
<g id="edge46_Node000025_Node000020" class="edge">
<title>Node25&#45;&gt;Node20</title>
<g id="a_edge46_Node000025_Node000020"><a xlink:title=" ">
<path fill="none" stroke="#63b8ff" d="M1190.97,-164.66C1197.18,-147.01 1211.22,-107.09 1219.47,-83.64"/>
<polygon fill="#63b8ff" stroke="#63b8ff" points="1222.79,-84.75 1222.81,-74.16 1216.19,-82.43 1222.79,-84.75"/>
</a>
</g>
</g>
<!-- Node25&#45;&gt;Node24 -->
<g id="edge44_Node000025_Node000024" class="edge">
<title>Node25&#45;&gt;Node24</title>
<g id="a_edge44_Node000025_Node000024"><a xlink:title=" ">
<path fill="none" stroke="#63b8ff" d="M1187.69,-164.87C1186.96,-151.36 1183.58,-125.21 1168.86,-110 1142.95,-83.24 1100.51,-72.57 1070.56,-68.32"/>
<polygon fill="#63b8ff" stroke="#63b8ff" points="1070.88,-64.83 1060.53,-67.07 1070.02,-71.78 1070.88,-64.83"/>
</a>
</g>
</g>
<!-- Node26 -->
<g id="Node000026" class="node">
<title>Node26</title>
<g id="a_Node000026"><a xlink:title=" ">
<polygon fill="#e0e0e0" stroke="#999999" points="1159.36,-129 1102.36,-129 1102.36,-110 1159.36,-110 1159.36,-129"/>
<text text-anchor="middle" x="1130.86" y="-117" font-family="Helvetica,sans-Serif" font-size="10.00">pthread.h</text>
</a>
</g>
</g>
<!-- Node25&#45;&gt;Node26 -->
<g id="edge41_Node000025_Node000026" class="edge">
<title>Node25&#45;&gt;Node26</title>
<g id="a_edge41_Node000025_Node000026"><a xlink:title=" ">
<path fill="none" stroke="#63b8ff" d="M1178.7,-164.98C1170.35,-157.23 1157.82,-145.58 1147.68,-136.14"/>
<polygon fill="#63b8ff" stroke="#63b8ff" points="1149.89,-133.42 1140.18,-129.17 1145.12,-138.54 1149.89,-133.42"/>
</a>
</g>
</g>
<!-- Node27 -->
<g id="Node000027" class="node">
<title>Node27</title>
<g id="a_Node000027"><a xlink:title=" ">
<polygon fill="#e0e0e0" stroke="#999999" points="1347.86,-129 1291.86,-129 1291.86,-110 1347.86,-110 1347.86,-129"/>
<text text-anchor="middle" x="1319.86" y="-117" font-family="Helvetica,sans-Serif" font-size="10.00">stdbool.h</text>
</a>
</g>
</g>
<!-- Node25&#45;&gt;Node27 -->
<g id="edge42_Node000025_Node000027" class="edge">
<title>Node25&#45;&gt;Node27</title>
<g id="a_edge42_Node000025_Node000027"><a xlink:title=" ">
<path fill="none" stroke="#63b8ff" d="M1209.06,-164.98C1230.59,-156.34 1264.14,-142.87 1288.68,-133.02"/>
<polygon fill="#63b8ff" stroke="#63b8ff" points="1290.29,-136.14 1298.26,-129.17 1287.68,-129.65 1290.29,-136.14"/>
</a>
</g>
</g>
<!-- Node28 -->
<g id="Node000028" class="node">
<title>Node28</title>
<g id="a_Node000028"><a xlink:title=" ">
<polygon fill="#e0e0e0" stroke="#999999" points="1427.86,-129 1365.86,-129 1365.86,-110 1427.86,-110 1427.86,-129"/>
<text text-anchor="middle" x="1396.86" y="-117" font-family="Helvetica,sans-Serif" font-size="10.00">sys/time.h</text>
</a>
</g>
</g>
<!-- Node25&#45;&gt;Node28 -->
<g id="edge47_Node000025_Node000028" class="edge">
<title>Node25&#45;&gt;Node28</title>
<g id="a_edge47_Node000025_Node000028"><a xlink:title=" ">
<path fill="none" stroke="#63b8ff" d="M1221.44,-164.98C1258.06,-155.7 1316.68,-140.83 1355.96,-130.87"/>
<polygon fill="#63b8ff" stroke="#63b8ff" points="1356.92,-134.24 1365.75,-128.39 1355.19,-127.45 1356.92,-134.24"/>
</a>
</g>
</g>
<!-- Node29 -->
<g id="Node000029" class="node">
<title>Node29</title>
<g id="a_Node000029"><a xlink:title=" ">
<polygon fill="#e0e0e0" stroke="#999999" points="1083.86,-129 1029.86,-129 1029.86,-110 1083.86,-110 1083.86,-129"/>
<text text-anchor="middle" x="1056.86" y="-117" font-family="Helvetica,sans-Serif" font-size="10.00">sys/un.h</text>
</a>
</g>
</g>
<!-- Node25&#45;&gt;Node29 -->
<g id="edge49_Node000025_Node000029" class="edge">
<title>Node25&#45;&gt;Node29</title>
<g id="a_edge49_Node000025_Node000029"><a xlink:title=" ">
<path fill="none" stroke="#63b8ff" d="M1166.81,-164.98C1145.45,-156.34 1112.15,-142.87 1087.79,-133.02"/>
<polygon fill="#63b8ff" stroke="#63b8ff" points="1088.87,-129.68 1078.29,-129.17 1086.24,-136.17 1088.87,-129.68"/>
</a>
</g>
</g>
<!-- Node31 -->
<g id="Node000031" class="node">
<title>Node31</title>
<g id="a_Node000031"><a xlink:title=" ">
<polygon fill="#e0e0e0" stroke="#999999" points="553.86,-239 481.86,-239 481.86,-220 553.86,-220 553.86,-239"/>
<text text-anchor="middle" x="517.86" y="-227" font-family="Helvetica,sans-Serif" font-size="10.00">openssl/err.h</text>
</a>
</g>
</g>
<!-- Node30&#45;&gt;Node31 -->
<g id="edge54_Node000030_Node000031" class="edge">
<title>Node30&#45;&gt;Node31</title>
<g id="a_edge54_Node000030_Node000031"><a xlink:title=" ">
<path fill="none" stroke="#63b8ff" d="M605.15,-274.98C588.64,-266.57 563.16,-253.59 543.98,-243.81"/>
<polygon fill="#63b8ff" stroke="#63b8ff" points="545.37,-240.59 534.87,-239.17 542.19,-246.83 545.37,-240.59"/>
</a>
</g>
</g>
<!-- Node30&#45;&gt;Node32 -->
<g id="edge55_Node000030_Node000032" class="edge">
<title>Node30&#45;&gt;Node32</title>
<g id="a_edge55_Node000030_Node000032"><a xlink:title=" ">
<path fill="none" stroke="#63b8ff" d="M590.53,-274.98C557.36,-265.97 504.86,-251.7 468.29,-241.76"/>
<polygon fill="#63b8ff" stroke="#63b8ff" points="469,-238.33 458.43,-239.08 467.16,-245.08 469,-238.33"/>
</a>
</g>
</g>
<!-- Node33 -->
<g id="Node000033" class="node">
<title>Node33</title>
<g id="a_Node000033"><a xlink:title=" ">
<polygon fill="#e0e0e0" stroke="#999999" points="655.36,-239 572.36,-239 572.36,-220 655.36,-220 655.36,-239"/>
<text text-anchor="middle" x="613.86" y="-227" font-family="Helvetica,sans-Serif" font-size="10.00">openssl/x509.h</text>
</a>
</g>
</g>
<!-- Node30&#45;&gt;Node33 -->
<g id="edge56_Node000030_Node000033" class="edge">
<title>Node30&#45;&gt;Node33</title>
<g id="a_edge56_Node000030_Node000033"><a xlink:title=" ">
<path fill="none" stroke="#63b8ff" d="M620.53,-274.75C619.49,-267.8 617.98,-257.85 616.67,-249.13"/>
<polygon fill="#63b8ff" stroke="#63b8ff" points="620.11,-248.45 615.15,-239.09 613.18,-249.5 620.11,-248.45"/>
</a>
</g>
</g>
<!-- Node34 -->
<g id="Node000034" class="node">
<title>Node34</title>
<g id="a_Node000034"><a xlink:title=" ">
<polygon fill="#e0e0e0" stroke="#999999" points="766.36,-239 673.36,-239 673.36,-220 766.36,-220 766.36,-239"/>
<text text-anchor="middle" x="719.86" y="-227" font-family="Helvetica,sans-Serif" font-size="10.00">openssl/x509v3.h</text>
</a>
</g>
</g>
<!-- Node30&#45;&gt;Node34 -->
<g id="edge57_Node000030_Node000034" class="edge">
<title>Node30&#45;&gt;Node34</title>
<g id="a_edge57_Node000030_Node000034"><a xlink:title=" ">
<path fill="none" stroke="#63b8ff" d="M637.6,-274.98C653.08,-266.61 676.95,-253.7 694.99,-243.95"/>
<polygon fill="#63b8ff" stroke="#63b8ff" points="696.69,-247.01 703.82,-239.17 693.36,-240.85 696.69,-247.01"/>
</a>
</g>
</g>
</g>
</svg>
