<?xml version="1.0" encoding="UTF-8" standalone="no"?>
<!DOCTYPE svg PUBLIC "-//W3C//DTD SVG 1.1//EN"
 "http://www.w3.org/Graphics/SVG/1.1/DTD/svg11.dtd">
<!-- Generated by graphviz version 2.43.0 (0)
 -->
<!-- Title: Socket.h Pages: 1 -->
<svg width="1391pt" height="247pt"
 viewBox="0.00 0.00 1391.00 247.00" xmlns="http://www.w3.org/2000/svg" xmlns:xlink="http://www.w3.org/1999/xlink">
<g id="graph0" class="graph" transform="scale(1 1) rotate(0) translate(4 243)">
<title>Socket.h</title>
<!-- Node1 -->
<g id="Node000001" class="node">
<title>Node1</title>
<g id="a_Node000001"><a xlink:title=" ">
<polygon fill="#999999" stroke="#666666" points="682.5,-239 626.5,-239 626.5,-220 682.5,-220 682.5,-239"/>
<text text-anchor="middle" x="654.5" y="-227" font-family="Helvetica,sans-Serif" font-size="10.00">Socket.h</text>
</a>
</g>
</g>
<!-- Node2 -->
<g id="Node000002" class="node">
<title>Node2</title>
<g id="a_Node000002"><a xlink:href="SocketAsync_8h.html" target="_top" xlink:title=" ">
<polygon fill="white" stroke="#666666" points="83,-184 0,-184 0,-165 83,-165 83,-184"/>
<text text-anchor="middle" x="41.5" y="-172" font-family="Helvetica,sans-Serif" font-size="10.00">SocketAsync.h</text>
</a>
</g>
</g>
<!-- Node1&#45;&gt;Node2 -->
<g id="edge1_Node000001_Node000002" class="edge">
<title>Node1&#45;&gt;Node2</title>
<g id="a_edge1_Node000001_Node000002"><a xlink:title=" ">
<path fill="none" stroke="#63b8ff" d="M616.15,-226.66C524.96,-222.01 288.05,-208.42 91.5,-184 88.79,-183.66 86.01,-183.28 83.2,-182.88"/>
<polygon fill="#63b8ff" stroke="#63b8ff" points="616.13,-230.16 626.29,-227.17 616.48,-223.17 616.13,-230.16"/>
</a>
</g>
</g>
<!-- Node3 -->
<g id="Node000003" class="node">
<title>Node3</title>
<g id="a_Node000003"><a xlink:href="SocketHTTP2_8h.html" target="_top" xlink:title=" ">
<polygon fill="white" stroke="#666666" points="188,-184 101,-184 101,-165 188,-165 188,-184"/>
<text text-anchor="middle" x="144.5" y="-172" font-family="Helvetica,sans-Serif" font-size="10.00">SocketHTTP2.h</text>
</a>
</g>
</g>
<!-- Node1&#45;&gt;Node3 -->
<g id="edge2_Node000001_Node000003" class="edge">
<title>Node1&#45;&gt;Node3</title>
<g id="a_edge2_Node000001_Node000003"><a xlink:title=" ">
<path fill="none" stroke="#63b8ff" d="M616.11,-225.34C538.08,-218.78 355.37,-202.72 202.5,-184 197.85,-183.43 193,-182.79 188.17,-182.13"/>
<polygon fill="#63b8ff" stroke="#63b8ff" points="616.16,-228.85 626.41,-226.2 616.74,-221.88 616.16,-228.85"/>
</a>
</g>
</g>
<!-- Node4 -->
<g id="Node000004" class="node">
<title>Node4</title>
<g id="a_Node000004"><a xlink:href="SocketHTTPServer_8h.html" target="_top" xlink:title=" ">
<polygon fill="white" stroke="#666666" points="354.5,-74 244.5,-74 244.5,-55 354.5,-55 354.5,-74"/>
<text text-anchor="middle" x="299.5" y="-62" font-family="Helvetica,sans-Serif" font-size="10.00">SocketHTTPServer.h</text>
</a>
</g>
</g>
<!-- Node1&#45;&gt;Node4 -->
<g id="edge3_Node000001_Node000004" class="edge">
<title>Node1&#45;&gt;Node4</title>
<g id="a_edge3_Node000001_Node000004"><a xlink:title=" ">
<path fill="none" stroke="#63b8ff" d="M615.95,-227.91C561.6,-225.83 460.27,-217.34 381.5,-184 343.76,-168.03 328.16,-164.39 307.5,-129 297.42,-111.73 297.56,-87.35 298.53,-74.4"/>
<polygon fill="#63b8ff" stroke="#63b8ff" points="616.06,-231.41 626.17,-228.24 616.29,-224.42 616.06,-231.41"/>
</a>
</g>
</g>
<!-- Node6 -->
<g id="Node000006" class="node">
<title>Node6</title>
<g id="a_Node000006"><a xlink:href="websocket__server_8c.html" target="_top" xlink:title=" ">
<polygon fill="white" stroke="#666666" points="434.5,-19 330.5,-19 330.5,0 434.5,0 434.5,-19"/>
<text text-anchor="middle" x="382.5" y="-7" font-family="Helvetica,sans-Serif" font-size="10.00">websocket_server.c</text>
</a>
</g>
</g>
<!-- Node1&#45;&gt;Node6 -->
<g id="edge35_Node000001_Node000006" class="edge">
<title>Node1&#45;&gt;Node6</title>
<g id="a_edge35_Node000001_Node000006"><a xlink:title=" ">
<path fill="none" stroke="#63b8ff" d="M616.23,-226.37C542.63,-221.76 384.42,-209.17 336.5,-184 277.74,-153.14 259.59,-135.85 235.5,-74 232.44,-66.13 230.47,-61.78 235.5,-55 247.3,-39.1 294.87,-26.67 332.75,-19.04"/>
<polygon fill="#63b8ff" stroke="#63b8ff" points="616.26,-229.88 626.45,-227 616.68,-222.89 616.26,-229.88"/>
</a>
</g>
</g>
<!-- Node7 -->
<g id="Node000007" class="node">
<title>Node7</title>
<g id="a_Node000007"><a xlink:href="SocketHappyEyeballs_8h.html" target="_top" xlink:title=" ">
<polygon fill="white" stroke="#666666" points="487.5,-129 365.5,-129 365.5,-110 487.5,-110 487.5,-129"/>
<text text-anchor="middle" x="426.5" y="-117" font-family="Helvetica,sans-Serif" font-size="10.00">SocketHappyEyeballs.h</text>
</a>
</g>
</g>
<!-- Node1&#45;&gt;Node7 -->
<g id="edge6_Node000001_Node000007" class="edge">
<title>Node1&#45;&gt;Node7</title>
<g id="a_edge6_Node000001_Node000007"><a xlink:title=" ">
<path fill="none" stroke="#63b8ff" d="M626.9,-215.43C579.59,-193.02 484.29,-147.87 444.54,-129.05"/>
<polygon fill="#63b8ff" stroke="#63b8ff" points="625.69,-218.73 636.23,-219.84 628.69,-212.4 625.69,-218.73"/>
</a>
</g>
</g>
<!-- Node8 -->
<g id="Node000008" class="node">
<title>Node8</title>
<g id="a_Node000008"><a xlink:href="SocketIO_8h.html" target="_top" xlink:title=" ">
<polygon fill="white" stroke="#666666" points="1235.5,-184 1169.5,-184 1169.5,-165 1235.5,-165 1235.5,-184"/>
<text text-anchor="middle" x="1202.5" y="-172" font-family="Helvetica,sans-Serif" font-size="10.00">SocketIO.h</text>
</a>
</g>
</g>
<!-- Node1&#45;&gt;Node8 -->
<g id="edge7_Node000001_Node000008" class="edge">
<title>Node1&#45;&gt;Node8</title>
<g id="a_edge7_Node000001_Node000008"><a xlink:title=" ">
<path fill="none" stroke="#63b8ff" d="M692.66,-226.29C776.59,-221.17 983.5,-207.14 1155.5,-184 1160.02,-183.39 1164.77,-182.65 1169.44,-181.87"/>
<polygon fill="#63b8ff" stroke="#63b8ff" points="692.34,-222.8 682.57,-226.9 692.76,-229.79 692.34,-222.8"/>
</a>
</g>
</g>
<!-- Node9 -->
<g id="Node000009" class="node">
<title>Node9</title>
<g id="a_Node000009"><a xlink:href="SocketPoll_8h.html" target="_top" xlink:title=" ">
<polygon fill="white" stroke="#666666" points="462.5,-184 390.5,-184 390.5,-165 462.5,-165 462.5,-184"/>
<text text-anchor="middle" x="426.5" y="-172" font-family="Helvetica,sans-Serif" font-size="10.00">SocketPoll.h</text>
</a>
</g>
</g>
<!-- Node1&#45;&gt;Node9 -->
<g id="edge8_Node000001_Node000009" class="edge">
<title>Node1&#45;&gt;Node9</title>
<g id="a_edge8_Node000001_Node000009"><a xlink:title=" ">
<path fill="none" stroke="#63b8ff" d="M616.33,-219.63C573.58,-209.69 504.79,-193.7 462.81,-183.94"/>
<polygon fill="#63b8ff" stroke="#63b8ff" points="615.55,-223.04 626.08,-221.89 617.14,-216.22 615.55,-223.04"/>
</a>
</g>
</g>
<!-- Node10 -->
<g id="Node000010" class="node">
<title>Node10</title>
<g id="a_Node000010"><a xlink:href="SocketPoll__backend_8h.html" target="_top" xlink:title=" ">
<polygon fill="white" stroke="#666666" points="619.5,-129 505.5,-129 505.5,-110 619.5,-110 619.5,-129"/>
<text text-anchor="middle" x="562.5" y="-117" font-family="Helvetica,sans-Serif" font-size="10.00">SocketPoll_backend.h</text>
</a>
</g>
</g>
<!-- Node1&#45;&gt;Node10 -->
<g id="edge13_Node000001_Node000010" class="edge">
<title>Node1&#45;&gt;Node10</title>
<g id="a_edge13_Node000001_Node000010"><a xlink:title=" ">
<path fill="none" stroke="#63b8ff" d="M637.41,-212.8C628.73,-204.53 618.2,-194.04 609.5,-184 593.33,-165.34 576.66,-141.53 568.19,-129.03"/>
<polygon fill="#63b8ff" stroke="#63b8ff" points="635.08,-215.41 644.76,-219.7 639.86,-210.3 635.08,-215.41"/>
</a>
</g>
</g>
<!-- Node11 -->
<g id="Node000011" class="node">
<title>Node11</title>
<g id="a_Node000011"><a xlink:href="SocketPool_8h.html" target="_top" xlink:title=" ">
<polygon fill="white" stroke="#666666" points="1383,-129 1308,-129 1308,-110 1383,-110 1383,-129"/>
<text text-anchor="middle" x="1345.5" y="-117" font-family="Helvetica,sans-Serif" font-size="10.00">SocketPool.h</text>
</a>
</g>
</g>
<!-- Node1&#45;&gt;Node11 -->
<g id="edge14_Node000001_Node000011" class="edge">
<title>Node1&#45;&gt;Node11</title>
<g id="a_edge14_Node000001_Node000011"><a xlink:title=" ">
<path fill="none" stroke="#63b8ff" d="M692.84,-227.54C837.52,-223.75 1343.26,-208.74 1366.5,-184 1381.13,-168.43 1363.88,-142.44 1353.02,-129.05"/>
<polygon fill="#63b8ff" stroke="#63b8ff" points="692.58,-224.05 682.67,-227.81 692.76,-231.05 692.58,-224.05"/>
</a>
</g>
</g>
<!-- Node12 -->
<g id="Node000012" class="node">
<title>Node12</title>
<g id="a_Node000012"><a xlink:href="SocketProxy_8h.html" target="_top" xlink:title=" ">
<polygon fill="white" stroke="#666666" points="1113.5,-74 1033.5,-74 1033.5,-55 1113.5,-55 1113.5,-74"/>
<text text-anchor="middle" x="1073.5" y="-62" font-family="Helvetica,sans-Serif" font-size="10.00">SocketProxy.h</text>
</a>
</g>
</g>
<!-- Node1&#45;&gt;Node12 -->
<g id="edge15_Node000001_Node000012" class="edge">
<title>Node1&#45;&gt;Node12</title>
<g id="a_edge15_Node000001_Node000012"><a xlink:title=" ">
<path fill="none" stroke="#63b8ff" d="M692.85,-225.74C789.23,-217.9 1037.24,-191.88 1084.5,-129 1096.73,-112.72 1086.01,-87.49 1078.79,-74.27"/>
<polygon fill="#63b8ff" stroke="#63b8ff" points="692.36,-222.26 682.67,-226.54 692.92,-229.24 692.36,-222.26"/>
</a>
</g>
</g>
<!-- Node13 -->
<g id="Node000013" class="node">
<title>Node13</title>
<g id="a_Node000013"><a xlink:href="proxy__connect_8c.html" target="_top" xlink:title=" ">
<polygon fill="white" stroke="#666666" points="1067,-19 978,-19 978,0 1067,0 1067,-19"/>
<text text-anchor="middle" x="1022.5" y="-7" font-family="Helvetica,sans-Serif" font-size="10.00">proxy_connect.c</text>
</a>
</g>
</g>
<!-- Node1&#45;&gt;Node13 -->
<g id="edge33_Node000001_Node000013" class="edge">
<title>Node1&#45;&gt;Node13</title>
<g id="a_edge33_Node000001_Node000013"><a xlink:title=" ">
<path fill="none" stroke="#63b8ff" d="M693.03,-229.11C760.14,-229 901.98,-223.57 1013.5,-184 1056.97,-168.58 1072.2,-164.62 1101.5,-129 1123.22,-102.6 1141.12,-83.67 1122.5,-55 1110.18,-36.04 1087.71,-25.09 1067.18,-18.8"/>
<polygon fill="#63b8ff" stroke="#63b8ff" points="692.92,-225.61 682.92,-229.08 692.91,-232.61 692.92,-225.61"/>
</a>
</g>
</g>
<!-- Node14 -->
<g id="Node000014" class="node">
<title>Node14</title>
<g id="a_Node000014"><a xlink:href="SocketReconnect_8h.html" target="_top" xlink:title=" ">
<polygon fill="white" stroke="#666666" points="1357,-184 1254,-184 1254,-165 1357,-165 1357,-184"/>
<text text-anchor="middle" x="1305.5" y="-172" font-family="Helvetica,sans-Serif" font-size="10.00">SocketReconnect.h</text>
</a>
</g>
</g>
<!-- Node1&#45;&gt;Node14 -->
<g id="edge17_Node000001_Node000014" class="edge">
<title>Node1&#45;&gt;Node14</title>
<g id="a_edge17_Node000001_Node000014"><a xlink:title=" ">
<path fill="none" stroke="#63b8ff" d="M692.66,-226.46C786.65,-221.25 1036.75,-206.29 1244.5,-184 1247.58,-183.67 1250.75,-183.3 1253.94,-182.92"/>
<polygon fill="#63b8ff" stroke="#63b8ff" points="692.3,-222.97 682.5,-227.02 692.68,-229.96 692.3,-222.97"/>
</a>
</g>
</g>
<!-- Node15 -->
<g id="Node000015" class="node">
<title>Node15</title>
<g id="a_Node000015"><a xlink:href="SocketTLS_8h.html" target="_top" xlink:title=" ">
<polygon fill="white" stroke="#666666" points="885.5,-184 811.5,-184 811.5,-165 885.5,-165 885.5,-184"/>
<text text-anchor="middle" x="848.5" y="-172" font-family="Helvetica,sans-Serif" font-size="10.00">SocketTLS.h</text>
</a>
</g>
</g>
<!-- Node1&#45;&gt;Node15 -->
<g id="edge19_Node000001_Node000015" class="edge">
<title>Node1&#45;&gt;Node15</title>
<g id="a_edge19_Node000001_Node000015"><a xlink:title=" ">
<path fill="none" stroke="#63b8ff" d="M692.49,-218.12C728.96,-208.16 783.38,-193.29 817.37,-184.01"/>
<polygon fill="#63b8ff" stroke="#63b8ff" points="691.43,-214.78 682.71,-220.79 693.28,-221.53 691.43,-214.78"/>
</a>
</g>
</g>
<!-- Node22 -->
<g id="Node000022" class="node">
<title>Node22</title>
<g id="a_Node000022"><a xlink:href="SocketWS_8h.html" target="_top" xlink:title=" ">
<polygon fill="white" stroke="#666666" points="690.5,-184 618.5,-184 618.5,-165 690.5,-165 690.5,-184"/>
<text text-anchor="middle" x="654.5" y="-172" font-family="Helvetica,sans-Serif" font-size="10.00">SocketWS.h</text>
</a>
</g>
</g>
<!-- Node1&#45;&gt;Node22 -->
<g id="edge30_Node000001_Node000022" class="edge">
<title>Node1&#45;&gt;Node22</title>
<g id="a_edge30_Node000001_Node000022"><a xlink:title=" ">
<path fill="none" stroke="#63b8ff" d="M654.5,-209.66C654.5,-200.93 654.5,-190.99 654.5,-184.09"/>
<polygon fill="#63b8ff" stroke="#63b8ff" points="651,-209.75 654.5,-219.75 658,-209.75 651,-209.75"/>
</a>
</g>
</g>
<!-- Node23 -->
<g id="Node000023" class="node">
<title>Node23</title>
<g id="a_Node000023"><a xlink:href="websocket__client_8c.html" target="_top" xlink:title=" ">
<polygon fill="white" stroke="#666666" points="777,-129 676,-129 676,-110 777,-110 777,-129"/>
<text text-anchor="middle" x="726.5" y="-117" font-family="Helvetica,sans-Serif" font-size="10.00">websocket_client.c</text>
</a>
</g>
</g>
<!-- Node1&#45;&gt;Node23 -->
<g id="edge34_Node000001_Node000023" class="edge">
<title>Node1&#45;&gt;Node23</title>
<g id="a_edge34_Node000001_Node000023"><a xlink:title=" ">
<path fill="none" stroke="#63b8ff" d="M672.96,-213.29C681.84,-205.27 692.13,-194.86 699.5,-184 711.61,-166.16 720.04,-142.01 723.98,-129.25"/>
<polygon fill="#63b8ff" stroke="#63b8ff" points="670.58,-210.72 665.33,-219.93 675.17,-216.01 670.58,-210.72"/>
</a>
</g>
</g>
<!-- Node5 -->
<g id="Node000005" class="node">
<title>Node5</title>
<g id="a_Node000005"><a xlink:href="http__server_8c.html" target="_top" xlink:title=" ">
<polygon fill="white" stroke="#666666" points="312,-19 239,-19 239,0 312,0 312,-19"/>
<text text-anchor="middle" x="275.5" y="-7" font-family="Helvetica,sans-Serif" font-size="10.00">http_server.c</text>
</a>
</g>
</g>
<!-- Node4&#45;&gt;Node5 -->
<g id="edge4_Node000004_Node000005" class="edge">
<title>Node4&#45;&gt;Node5</title>
<g id="a_edge4_Node000004_Node000005"><a xlink:title=" ">
<path fill="none" stroke="#63b8ff" d="M291.36,-45.53C287.32,-36.6 282.62,-26.22 279.39,-19.09"/>
<polygon fill="#63b8ff" stroke="#63b8ff" points="288.22,-47.08 295.54,-54.75 294.6,-44.19 288.22,-47.08"/>
</a>
</g>
</g>
<!-- Node4&#45;&gt;Node6 -->
<g id="edge5_Node000004_Node000006" class="edge">
<title>Node4&#45;&gt;Node6</title>
<g id="a_edge5_Node000004_Node000006"><a xlink:title=" ">
<path fill="none" stroke="#63b8ff" d="M321.54,-49.42C336.61,-39.81 356.09,-27.37 368.92,-19.17"/>
<polygon fill="#63b8ff" stroke="#63b8ff" points="319.38,-46.65 312.84,-54.98 323.15,-52.55 319.38,-46.65"/>
</a>
</g>
</g>
<!-- Node9&#45;&gt;Node4 -->
<g id="edge9_Node000009_Node000004" class="edge">
<title>Node9&#45;&gt;Node4</title>
<g id="a_edge9_Node000009_Node000004"><a xlink:title=" ">
<path fill="none" stroke="#63b8ff" d="M380.62,-162.4C360.85,-155.6 338.8,-145.03 323.5,-129 308.53,-113.31 302.68,-87.37 300.57,-74.02"/>
<polygon fill="#63b8ff" stroke="#63b8ff" points="379.81,-165.82 390.41,-165.53 381.95,-159.15 379.81,-165.82"/>
</a>
</g>
</g>
<!-- Node9&#45;&gt;Node6 -->
<g id="edge12_Node000009_Node000006" class="edge">
<title>Node9&#45;&gt;Node6</title>
<g id="a_edge12_Node000009_Node000006"><a xlink:title=" ">
<path fill="none" stroke="#63b8ff" d="M392.39,-160.54C378.67,-153.44 364.27,-143.15 356.5,-129 352.43,-121.6 355.42,-118.38 356.5,-110 358.81,-92.03 373.81,-39.99 379.92,-19.22"/>
<polygon fill="#63b8ff" stroke="#63b8ff" points="391.16,-163.83 401.69,-164.95 394.16,-157.51 391.16,-163.83"/>
</a>
</g>
</g>
<!-- Node9&#45;&gt;Node7 -->
<g id="edge10_Node000009_Node000007" class="edge">
<title>Node9&#45;&gt;Node7</title>
<g id="a_edge10_Node000009_Node000007"><a xlink:title=" ">
<path fill="none" stroke="#63b8ff" d="M426.5,-154.66C426.5,-145.93 426.5,-135.99 426.5,-129.09"/>
<polygon fill="#63b8ff" stroke="#63b8ff" points="423,-154.75 426.5,-164.75 430,-154.75 423,-154.75"/>
</a>
</g>
</g>
<!-- Node9&#45;&gt;Node10 -->
<g id="edge11_Node000009_Node000010" class="edge">
<title>Node9&#45;&gt;Node10</title>
<g id="a_edge11_Node000009_Node000010"><a xlink:title=" ">
<path fill="none" stroke="#63b8ff" d="M457.83,-161.29C483.04,-151.47 517.83,-137.91 540.25,-129.17"/>
<polygon fill="#63b8ff" stroke="#63b8ff" points="456.4,-158.09 448.35,-164.98 458.94,-164.61 456.4,-158.09"/>
</a>
</g>
</g>
<!-- Node12&#45;&gt;Node13 -->
<g id="edge16_Node000012_Node000013" class="edge">
<title>Node12&#45;&gt;Node13</title>
<g id="a_edge16_Node000012_Node000013"><a xlink:title=" ">
<path fill="none" stroke="#63b8ff" d="M1058.12,-47.52C1049.13,-38.18 1038.14,-26.75 1030.76,-19.09"/>
<polygon fill="#63b8ff" stroke="#63b8ff" points="1055.62,-49.97 1065.08,-54.75 1060.67,-45.12 1055.62,-49.97"/>
</a>
</g>
</g>
<!-- Node14&#45;&gt;Node11 -->
<g id="edge18_Node000014_Node000011" class="edge">
<title>Node14&#45;&gt;Node11</title>
<g id="a_edge18_Node000014_Node000011"><a xlink:title=" ">
<path fill="none" stroke="#63b8ff" d="M1318.2,-156.67C1325.13,-147.5 1333.41,-136.52 1339.02,-129.09"/>
<polygon fill="#63b8ff" stroke="#63b8ff" points="1315.34,-154.66 1312.11,-164.75 1320.92,-158.87 1315.34,-154.66"/>
</a>
</g>
</g>
<!-- Node15&#45;&gt;Node13 -->
<g id="edge29_Node000015_Node000013" class="edge">
<title>Node15&#45;&gt;Node13</title>
<g id="a_edge29_Node000015_Node000013"><a xlink:title=" ">
<path fill="none" stroke="#63b8ff" d="M834.06,-156.58C824.58,-143.3 815.45,-124.67 824.5,-110 857.82,-55.97 930.44,-30.25 977.86,-18.8"/>
<polygon fill="#63b8ff" stroke="#63b8ff" points="831.56,-159.07 840.47,-164.81 837.08,-154.77 831.56,-159.07"/>
</a>
</g>
</g>
<!-- Node16 -->
<g id="Node000016" class="node">
<title>Node16</title>
<g id="a_Node000016"><a xlink:href="SocketDTLSContext_8h.html" target="_top" xlink:title=" ">
<polygon fill="white" stroke="#666666" points="949.5,-129 833.5,-129 833.5,-110 949.5,-110 949.5,-129"/>
<text text-anchor="middle" x="891.5" y="-117" font-family="Helvetica,sans-Serif" font-size="10.00">SocketDTLSContext.h</text>
</a>
</g>
</g>
<!-- Node15&#45;&gt;Node16 -->
<g id="edge20_Node000015_Node000016" class="edge">
<title>Node15&#45;&gt;Node16</title>
<g id="a_edge20_Node000015_Node000016"><a xlink:title=" ">
<path fill="none" stroke="#63b8ff" d="M861.92,-156.96C869.41,-147.72 878.44,-136.6 884.53,-129.09"/>
<polygon fill="#63b8ff" stroke="#63b8ff" points="859.18,-154.78 855.6,-164.75 864.62,-159.19 859.18,-154.78"/>
</a>
</g>
</g>
<!-- Node17 -->
<g id="Node000017" class="node">
<title>Node17</title>
<g id="a_Node000017"><a xlink:href="SocketTLSContext_8h.html" target="_top" xlink:title=" ">
<polygon fill="white" stroke="#666666" points="1075.5,-129 967.5,-129 967.5,-110 1075.5,-110 1075.5,-129"/>
<text text-anchor="middle" x="1021.5" y="-117" font-family="Helvetica,sans-Serif" font-size="10.00">SocketTLSContext.h</text>
</a>
</g>
</g>
<!-- Node15&#45;&gt;Node17 -->
<g id="edge21_Node000015_Node000017" class="edge">
<title>Node15&#45;&gt;Node17</title>
<g id="a_edge21_Node000015_Node000017"><a xlink:title=" ">
<path fill="none" stroke="#63b8ff" d="M886.27,-161.93C918.59,-152.03 964.36,-138.01 993.49,-129.08"/>
<polygon fill="#63b8ff" stroke="#63b8ff" points="884.83,-158.71 876.3,-164.98 886.88,-165.4 884.83,-158.71"/>
</a>
</g>
</g>
<!-- Node17&#45;&gt;Node4 -->
<g id="edge26_Node000017_Node000004" class="edge">
<title>Node17&#45;&gt;Node4</title>
<g id="a_edge26_Node000017_Node000004"><a xlink:title=" ">
<path fill="none" stroke="#63b8ff" d="M957.01,-109.92C727.38,-87.01 466.41,-73.27 354.71,-67.98"/>
<polygon fill="#63b8ff" stroke="#63b8ff" points="956.93,-113.43 967.23,-110.94 957.63,-106.46 956.93,-113.43"/>
</a>
</g>
</g>
<!-- Node17&#45;&gt;Node12 -->
<g id="edge27_Node000017_Node000012" class="edge">
<title>Node17&#45;&gt;Node12</title>
<g id="a_edge27_Node000017_Node000012"><a xlink:title=" ">
<path fill="none" stroke="#63b8ff" d="M1037.18,-102.52C1046.34,-93.18 1057.55,-81.75 1065.07,-74.09"/>
<polygon fill="#63b8ff" stroke="#63b8ff" points="1034.59,-100.16 1030.09,-109.75 1039.59,-105.06 1034.59,-100.16"/>
</a>
</g>
</g>
<!-- Node17&#45;&gt;Node13 -->
<g id="edge28_Node000017_Node000013" class="edge">
<title>Node17&#45;&gt;Node13</title>
<g id="a_edge28_Node000017_Node000013"><a xlink:title=" ">
<path fill="none" stroke="#63b8ff" d="M1021.68,-99.48C1021.89,-75.84 1022.26,-36.5 1022.42,-19.16"/>
<polygon fill="#63b8ff" stroke="#63b8ff" points="1018.17,-99.63 1021.58,-109.66 1025.17,-99.69 1018.17,-99.63"/>
</a>
</g>
</g>
<!-- Node18 -->
<g id="Node000018" class="node">
<title>Node18</title>
<g id="a_Node000018"><a xlink:href="SocketHTTPClient_8h.html" target="_top" xlink:title=" ">
<polygon fill="white" stroke="#666666" points="1277,-74 1170,-74 1170,-55 1277,-55 1277,-74"/>
<text text-anchor="middle" x="1223.5" y="-62" font-family="Helvetica,sans-Serif" font-size="10.00">SocketHTTPClient.h</text>
</a>
</g>
</g>
<!-- Node17&#45;&gt;Node18 -->
<g id="edge22_Node000017_Node000018" class="edge">
<title>Node17&#45;&gt;Node18</title>
<g id="a_edge22_Node000017_Node000018"><a xlink:title=" ">
<path fill="none" stroke="#63b8ff" d="M1063.66,-107.44C1101.48,-97.52 1156.19,-83.16 1190.79,-74.08"/>
<polygon fill="#63b8ff" stroke="#63b8ff" points="1062.74,-104.06 1053.95,-109.98 1064.52,-110.83 1062.74,-104.06"/>
</a>
</g>
</g>
<!-- Node19 -->
<g id="Node000019" class="node">
<title>Node19</title>
<g id="a_Node000019"><a xlink:href="http2__client_8c.html" target="_top" xlink:title=" ">
<polygon fill="white" stroke="#666666" points="1176,-19 1101,-19 1101,0 1176,0 1176,-19"/>
<text text-anchor="middle" x="1138.5" y="-7" font-family="Helvetica,sans-Serif" font-size="10.00">http2_client.c</text>
</a>
</g>
</g>
<!-- Node18&#45;&gt;Node19 -->
<g id="edge23_Node000018_Node000019" class="edge">
<title>Node18&#45;&gt;Node19</title>
<g id="a_edge23_Node000018_Node000019"><a xlink:title=" ">
<path fill="none" stroke="#63b8ff" d="M1200.93,-49.42C1185.5,-39.81 1165.55,-27.37 1152.41,-19.17"/>
<polygon fill="#63b8ff" stroke="#63b8ff" points="1199.51,-52.66 1209.84,-54.98 1203.21,-46.72 1199.51,-52.66"/>
</a>
</g>
</g>
<!-- Node20 -->
<g id="Node000020" class="node">
<title>Node20</title>
<g id="a_Node000020"><a xlink:href="http__get_8c.html" target="_top" xlink:title=" ">
<polygon fill="white" stroke="#666666" points="1253.5,-19 1193.5,-19 1193.5,0 1253.5,0 1253.5,-19"/>
<text text-anchor="middle" x="1223.5" y="-7" font-family="Helvetica,sans-Serif" font-size="10.00">http_get.c</text>
</a>
</g>
</g>
<!-- Node18&#45;&gt;Node20 -->
<g id="edge24_Node000018_Node000020" class="edge">
<title>Node18&#45;&gt;Node20</title>
<g id="a_edge24_Node000018_Node000020"><a xlink:title=" ">
<path fill="none" stroke="#63b8ff" d="M1223.5,-44.66C1223.5,-35.93 1223.5,-25.99 1223.5,-19.09"/>
<polygon fill="#63b8ff" stroke="#63b8ff" points="1220,-44.75 1223.5,-54.75 1227,-44.75 1220,-44.75"/>
</a>
</g>
</g>
<!-- Node21 -->
<g id="Node000021" class="node">
<title>Node21</title>
<g id="a_Node000021"><a xlink:href="http__post_8c.html" target="_top" xlink:title=" ">
<polygon fill="white" stroke="#666666" points="1337,-19 1272,-19 1272,0 1337,0 1337,-19"/>
<text text-anchor="middle" x="1304.5" y="-7" font-family="Helvetica,sans-Serif" font-size="10.00">http_post.c</text>
</a>
</g>
</g>
<!-- Node18&#45;&gt;Node21 -->
<g id="edge25_Node000018_Node000021" class="edge">
<title>Node18&#45;&gt;Node21</title>
<g id="a_edge25_Node000018_Node000021"><a xlink:title=" ">
<path fill="none" stroke="#63b8ff" d="M1245.01,-49.42C1259.71,-39.81 1278.72,-27.37 1291.25,-19.17"/>
<polygon fill="#63b8ff" stroke="#63b8ff" points="1242.97,-46.58 1236.51,-54.98 1246.8,-52.44 1242.97,-46.58"/>
</a>
</g>
</g>
<!-- Node22&#45;&gt;Node6 -->
<g id="edge32_Node000022_Node000006" class="edge">
<title>Node22&#45;&gt;Node6</title>
<g id="a_edge32_Node000022_Node000006"><a xlink:title=" ">
<path fill="none" stroke="#63b8ff" d="M650.99,-154.97C647.47,-140.99 640.76,-122.2 628.5,-110 574.8,-56.53 488.54,-30.69 433.73,-19.05"/>
<polygon fill="#63b8ff" stroke="#63b8ff" points="647.61,-155.91 653.17,-164.93 654.45,-154.41 647.61,-155.91"/>
</a>
</g>
</g>
<!-- Node22&#45;&gt;Node23 -->
<g id="edge31_Node000022_Node000023" class="edge">
<title>Node22&#45;&gt;Node23</title>
<g id="a_edge31_Node000022_Node000023"><a xlink:title=" ">
<path fill="none" stroke="#63b8ff" d="M674.37,-158.88C687.32,-149.34 703.8,-137.21 714.72,-129.17"/>
<polygon fill="#63b8ff" stroke="#63b8ff" points="672.05,-156.24 666.07,-164.98 676.2,-161.88 672.05,-156.24"/>
</a>
</g>
</g>
</g>
</svg>
