<?xml version="1.0" encoding="UTF-8" standalone="no"?>
<!DOCTYPE svg PUBLIC "-//W3C//DTD SVG 1.1//EN"
 "http://www.w3.org/Graphics/SVG/1.1/DTD/svg11.dtd">
<!-- Generated by graphviz version 2.43.0 (0)
 -->
<!-- Title: SocketWS.h Pages: 1 -->
<!--zoomable 302 -->

<svg id="main" version="1.1" xmlns="http://www.w3.org/2000/svg" xmlns:xlink="http://www.w3.org/1999/xlink" xml:space="preserve" onload="init(evt)">
<style type="text/css"><![CDATA[
.node, .edge {opacity: 0.7;}
.node.selected, .edge.selected {opacity: 1;}
.edge:hover path { stroke: red; }
.edge:hover polygon { stroke: red; fill: red; }
]]></style>

<defs>
  <circle id="rim" cx="0" cy="0" r="7"/>
  <circle id="rim2" cx="0" cy="0" r="3.5"/>
  <g id="zoomPlus">
    <use xlink:href="#rim" fill="#404040"><set attributeName="fill" to="#808080" begin="zoomplus.mouseover" end="zoomplus.mouseout"/></use>
    <path d="M-4,0h8M0,-4v8" fill="none" stroke="white" stroke-width="1.5" pointer-events="none"/>
  </g>
  <g id="zoomMin">
    <use xlink:href="#rim" fill="#404040"><set attributeName="fill" to="#808080" begin="zoomminus.mouseover" end="zoomminus.mouseout"/></use>
    <path d="M-4,0h8" fill="none" stroke="white" stroke-width="1.5" pointer-events="none"/>
  </g>
  <g id="arrowUp" transform="translate(30 24)">
    <use xlink:href="#rim"/>
    <path pointer-events="none" fill="none" stroke="white" stroke-width="1.5" d="M0,-3.0v7 M-2.5,-0.5L0,-3.0L2.5,-0.5"/>
  </g>
  <g id="arrowRight" transform="rotate(90) translate(36 -43)">
    <use xlink:href="#rim"/>
    <path pointer-events="none" fill="none" stroke="white" stroke-width="1.5" d="M0,-3.0v7 M-2.5,-0.5L0,-3.0L2.5,-0.5"/>
  </g>
  <g id="arrowDown" transform="rotate(180) translate(-30 -48)">
    <use xlink:href="#rim"/>
    <path pointer-events="none" fill="none" stroke="white" stroke-width="1.5" d="M0,-3.0v7 M-2.5,-0.5L0,-3.0L2.5,-0.5"/>
  </g>
  <g id="arrowLeft" transform="rotate(270) translate(-36 17)">
    <use xlink:href="#rim"/>
    <path pointer-events="none" fill="none" stroke="white" stroke-width="1.5" d="M0,-3.0v7 M-2.5,-0.5L0,-3.0L2.5,-0.5"/>
  </g>
  <g id="resetDef">
    <use xlink:href="#rim2" fill="#404040"><set attributeName="fill" to="#808080" begin="reset.mouseover" end="reset.mouseout"/></use>
  </g>
</defs>
<script type="application/ecmascript">
var viewWidth = 1202;
var viewHeight = 302;
var sectionId = 'dynsection-0';
</script>
<script type="application/ecmascript" xlink:href="svg.min.js"/>
<svg id="graph" class="graph">
<g id="viewport">
<title>SocketWS.h</title>
<!-- Node1 -->
<g id="Node000001" class="node">
<title>Node1</title>
<g id="a_Node000001"><a xlink:title="WebSocket Protocol (RFC 6455) implementation with compression support.">
<polygon fill="#999999" stroke="#666666" points="241.64,-294 169.64,-294 169.64,-275 241.64,-275 241.64,-294"/>
<text text-anchor="middle" x="205.64" y="-282" font-family="Helvetica,sans-Serif" font-size="10.00">SocketWS.h</text>
</a>
</g>
</g>
<!-- Node2 -->
<g id="Node000002" class="node">
<title>Node2</title>
<g id="a_Node000002"><a xlink:title=" ">
<polygon fill="#e0e0e0" stroke="#999999" points="401.64,-74 349.64,-74 349.64,-55 401.64,-55 401.64,-74"/>
<text text-anchor="middle" x="375.64" y="-62" font-family="Helvetica,sans-Serif" font-size="10.00">stddef.h</text>
</a>
</g>
</g>
<!-- Node1&#45;&gt;Node2 -->
<g id="edge1_Node000001_Node000002" class="edge">
<title>Node1&#45;&gt;Node2</title>
<g id="a_edge1_Node000001_Node000002"><a xlink:title=" ">
<path fill="none" stroke="#63b8ff" d="M217.4,-274.81C245.69,-253.31 317.99,-194.6 356.64,-129 364.77,-115.2 369.67,-97.63 372.46,-84.47"/>
<polygon fill="#63b8ff" stroke="#63b8ff" points="375.97,-84.72 374.39,-74.25 369.09,-83.43 375.97,-84.72"/>
</a>
</g>
</g>
<!-- Node3 -->
<g id="Node000003" class="node">
<title>Node3</title>
<g id="a_Node000003"><a xlink:title=" ">
<polygon fill="#e0e0e0" stroke="#999999" points="143.14,-129 94.14,-129 94.14,-110 143.14,-110 143.14,-129"/>
<text text-anchor="middle" x="118.64" y="-117" font-family="Helvetica,sans-Serif" font-size="10.00">stdint.h</text>
</a>
</g>
</g>
<!-- Node1&#45;&gt;Node3 -->
<g id="edge2_Node000001_Node000003" class="edge">
<title>Node1&#45;&gt;Node3</title>
<g id="a_edge2_Node000001_Node000003"><a xlink:title=" ">
<path fill="none" stroke="#63b8ff" d="M200.07,-274.91C189.15,-257.92 164.46,-218.64 146.64,-184 138.97,-169.1 131.37,-151.65 126.03,-138.82"/>
<polygon fill="#63b8ff" stroke="#63b8ff" points="129.15,-137.21 122.12,-129.28 122.67,-139.86 129.15,-137.21"/>
</a>
</g>
</g>
<!-- Node4 -->
<g id="Node000004" class="node">
<title>Node4</title>
<g id="a_Node000004"><a xlink:href="Except_8h.html" target="_top" xlink:title="Structured exception handling for C with TRY/EXCEPT/FINALLY blocks.">
<polygon fill="white" stroke="#666666" points="248.14,-74 171.14,-74 171.14,-55 248.14,-55 248.14,-74"/>
<text text-anchor="middle" x="209.64" y="-62" font-family="Helvetica,sans-Serif" font-size="10.00">core/Except.h</text>
</a>
</g>
</g>
<!-- Node1&#45;&gt;Node4 -->
<g id="edge3_Node000001_Node000004" class="edge">
<title>Node1&#45;&gt;Node4</title>
<g id="a_edge3_Node000001_Node000004"><a xlink:title=" ">
<path fill="none" stroke="#63b8ff" d="M180.73,-274.87C116.53,-251.33 -45.6,-182.85 12.64,-110 30.85,-87.21 108.62,-75.25 160.83,-69.66"/>
<polygon fill="#63b8ff" stroke="#63b8ff" points="161.32,-73.13 170.91,-68.63 160.6,-66.17 161.32,-73.13"/>
</a>
</g>
</g>
<!-- Node6 -->
<g id="Node000006" class="node">
<title>Node6</title>
<g id="a_Node000006"><a xlink:href="SocketHTTP_8h.html" target="_top" xlink:title="Protocol&#45;agnostic HTTP types, header handling, URI parsing, and utilities.">
<polygon fill="white" stroke="#666666" points="255.64,-184 155.64,-184 155.64,-165 255.64,-165 255.64,-184"/>
<text text-anchor="middle" x="205.64" y="-172" font-family="Helvetica,sans-Serif" font-size="10.00">http/SocketHTTP.h</text>
</a>
</g>
</g>
<!-- Node1&#45;&gt;Node6 -->
<g id="edge5_Node000001_Node000006" class="edge">
<title>Node1&#45;&gt;Node6</title>
<g id="a_edge5_Node000001_Node000006"><a xlink:title=" ">
<path fill="none" stroke="#63b8ff" d="M205.64,-274.66C205.64,-257.17 205.64,-217.8 205.64,-194.27"/>
<polygon fill="#63b8ff" stroke="#63b8ff" points="209.14,-194.16 205.64,-184.16 202.14,-194.16 209.14,-194.16"/>
</a>
</g>
</g>
<!-- Node10 -->
<g id="Node000010" class="node">
<title>Node10</title>
<g id="a_Node000010"><a xlink:href="Socket_8h.html" target="_top" xlink:title="High&#45;level TCP/IP and Unix domain socket interface.">
<polygon fill="white" stroke="#666666" points="495.64,-239 407.64,-239 407.64,-220 495.64,-220 495.64,-239"/>
<text text-anchor="middle" x="451.64" y="-227" font-family="Helvetica,sans-Serif" font-size="10.00">socket/Socket.h</text>
</a>
</g>
</g>
<!-- Node1&#45;&gt;Node10 -->
<g id="edge14_Node000001_Node000010" class="edge">
<title>Node1&#45;&gt;Node10</title>
<g id="a_edge14_Node000001_Node000010"><a xlink:title=" ">
<path fill="none" stroke="#63b8ff" d="M241.67,-275.74C283.94,-266.63 354.27,-251.48 401.77,-241.24"/>
<polygon fill="#63b8ff" stroke="#63b8ff" points="402.79,-244.6 411.83,-239.08 401.32,-237.76 402.79,-244.6"/>
</a>
</g>
</g>
<!-- Node5 -->
<g id="Node000005" class="node">
<title>Node5</title>
<g id="a_Node000005"><a xlink:title=" ">
<polygon fill="#e0e0e0" stroke="#999999" points="236.64,-19 182.64,-19 182.64,0 236.64,0 236.64,-19"/>
<text text-anchor="middle" x="209.64" y="-7" font-family="Helvetica,sans-Serif" font-size="10.00">setjmp.h</text>
</a>
</g>
</g>
<!-- Node4&#45;&gt;Node5 -->
<g id="edge4_Node000004_Node000005" class="edge">
<title>Node4&#45;&gt;Node5</title>
<g id="a_edge4_Node000004_Node000005"><a xlink:title=" ">
<path fill="none" stroke="#63b8ff" d="M209.64,-54.75C209.64,-47.8 209.64,-37.85 209.64,-29.13"/>
<polygon fill="#63b8ff" stroke="#63b8ff" points="213.14,-29.09 209.64,-19.09 206.14,-29.09 213.14,-29.09"/>
</a>
</g>
</g>
<!-- Node6&#45;&gt;Node2 -->
<g id="edge6_Node000006_Node000002" class="edge">
<title>Node6&#45;&gt;Node2</title>
<g id="a_edge6_Node000006_Node000002"><a xlink:title=" ">
<path fill="none" stroke="#63b8ff" d="M212.21,-164.57C222.5,-151.13 243.62,-125.63 266.64,-110 289.07,-94.76 317.53,-83.37 339.74,-75.92"/>
<polygon fill="#63b8ff" stroke="#63b8ff" points="341.03,-79.19 349.46,-72.78 338.87,-72.53 341.03,-79.19"/>
</a>
</g>
</g>
<!-- Node6&#45;&gt;Node3 -->
<g id="edge7_Node000006_Node000003" class="edge">
<title>Node6&#45;&gt;Node3</title>
<g id="a_edge7_Node000006_Node000003"><a xlink:title=" ">
<path fill="none" stroke="#63b8ff" d="M191.66,-164.98C178.17,-156.77 157.5,-144.18 141.59,-134.49"/>
<polygon fill="#63b8ff" stroke="#63b8ff" points="143.23,-131.38 132.87,-129.17 139.59,-137.36 143.23,-131.38"/>
</a>
</g>
</g>
<!-- Node6&#45;&gt;Node4 -->
<g id="edge13_Node000006_Node000004" class="edge">
<title>Node6&#45;&gt;Node4</title>
<g id="a_edge13_Node000006_Node000004"><a xlink:title=" ">
<path fill="none" stroke="#63b8ff" d="M202.58,-164.88C198.63,-152.66 192.62,-129.63 195.64,-110 196.99,-101.19 199.76,-91.74 202.49,-83.82"/>
<polygon fill="#63b8ff" stroke="#63b8ff" points="205.87,-84.77 206.04,-74.18 199.3,-82.35 205.87,-84.77"/>
</a>
</g>
</g>
<!-- Node7 -->
<g id="Node000007" class="node">
<title>Node7</title>
<g id="a_Node000007"><a xlink:title=" ">
<polygon fill="#e0e0e0" stroke="#999999" points="509.64,-129 441.64,-129 441.64,-110 509.64,-110 509.64,-129"/>
<text text-anchor="middle" x="475.64" y="-117" font-family="Helvetica,sans-Serif" font-size="10.00">sys/types.h</text>
</a>
</g>
</g>
<!-- Node6&#45;&gt;Node7 -->
<g id="edge8_Node000006_Node000007" class="edge">
<title>Node6&#45;&gt;Node7</title>
<g id="a_edge8_Node000006_Node000007"><a xlink:title=" ">
<path fill="none" stroke="#63b8ff" d="M249.02,-164.98C299.08,-155.16 380.98,-139.08 431.4,-129.18"/>
<polygon fill="#63b8ff" stroke="#63b8ff" points="432.22,-132.59 441.36,-127.23 430.87,-125.72 432.22,-132.59"/>
</a>
</g>
</g>
<!-- Node8 -->
<g id="Node000008" class="node">
<title>Node8</title>
<g id="a_Node000008"><a xlink:title=" ">
<polygon fill="#e0e0e0" stroke="#999999" points="75.64,-129 31.64,-129 31.64,-110 75.64,-110 75.64,-129"/>
<text text-anchor="middle" x="53.64" y="-117" font-family="Helvetica,sans-Serif" font-size="10.00">time.h</text>
</a>
</g>
</g>
<!-- Node6&#45;&gt;Node8 -->
<g id="edge9_Node000006_Node000008" class="edge">
<title>Node6&#45;&gt;Node8</title>
<g id="a_edge9_Node000006_Node000008"><a xlink:title=" ">
<path fill="none" stroke="#63b8ff" d="M181.21,-164.98C155.24,-155.93 114.05,-141.56 85.53,-131.62"/>
<polygon fill="#63b8ff" stroke="#63b8ff" points="86.61,-128.29 76.02,-128.3 84.31,-134.9 86.61,-128.29"/>
</a>
</g>
</g>
<!-- Node9 -->
<g id="Node000009" class="node">
<title>Node9</title>
<g id="a_Node000009"><a xlink:href="Arena_8h.html" target="_top" xlink:title="Arena&#45;based memory allocator for efficient bulk memory management.">
<polygon fill="white" stroke="#666666" points="347.64,-129 275.64,-129 275.64,-110 347.64,-110 347.64,-129"/>
<text text-anchor="middle" x="311.64" y="-117" font-family="Helvetica,sans-Serif" font-size="10.00">core/Arena.h</text>
</a>
</g>
</g>
<!-- Node6&#45;&gt;Node9 -->
<g id="edge10_Node000006_Node000009" class="edge">
<title>Node6&#45;&gt;Node9</title>
<g id="a_edge10_Node000006_Node000009"><a xlink:title=" ">
<path fill="none" stroke="#63b8ff" d="M222.67,-164.98C239.57,-156.54 265.7,-143.47 285.28,-133.68"/>
<polygon fill="#63b8ff" stroke="#63b8ff" points="286.92,-136.77 294.3,-129.17 283.79,-130.51 286.92,-136.77"/>
</a>
</g>
</g>
<!-- Node9&#45;&gt;Node2 -->
<g id="edge11_Node000009_Node000002" class="edge">
<title>Node9&#45;&gt;Node2</title>
<g id="a_edge11_Node000009_Node000002"><a xlink:title=" ">
<path fill="none" stroke="#63b8ff" d="M321.92,-109.98C331.47,-102.07 345.92,-90.11 357.42,-80.58"/>
<polygon fill="#63b8ff" stroke="#63b8ff" points="359.7,-83.24 365.17,-74.17 355.23,-77.85 359.7,-83.24"/>
</a>
</g>
</g>
<!-- Node9&#45;&gt;Node4 -->
<g id="edge12_Node000009_Node000004" class="edge">
<title>Node9&#45;&gt;Node4</title>
<g id="a_edge12_Node000009_Node000004"><a xlink:title=" ">
<path fill="none" stroke="#63b8ff" d="M295.25,-109.98C279.06,-101.57 254.07,-88.59 235.26,-78.81"/>
<polygon fill="#63b8ff" stroke="#63b8ff" points="236.81,-75.68 226.32,-74.17 233.58,-81.89 236.81,-75.68"/>
</a>
</g>
</g>
<!-- Node10&#45;&gt;Node4 -->
<g id="edge15_Node000010_Node000004" class="edge">
<title>Node10&#45;&gt;Node4</title>
<g id="a_edge15_Node000010_Node000004"><a xlink:title=" ">
<path fill="none" stroke="#63b8ff" d="M407.3,-225.67C306.3,-218.14 64.64,-193.57 22.64,-129 -10.94,-77.37 94.68,-66.93 160.68,-65.3"/>
<polygon fill="#63b8ff" stroke="#63b8ff" points="160.98,-68.79 170.91,-65.11 160.85,-61.79 160.98,-68.79"/>
</a>
</g>
</g>
<!-- Node11 -->
<g id="Node000011" class="node">
<title>Node11</title>
<g id="a_Node000011"><a xlink:href="SocketConfig_8h.html" target="_top" xlink:title="Compile&#45;time and runtime configuration constants, limits, and platform adaptations.">
<polygon fill="white" stroke="#666666" points="967.64,-129 861.64,-129 861.64,-110 967.64,-110 967.64,-129"/>
<text text-anchor="middle" x="914.64" y="-117" font-family="Helvetica,sans-Serif" font-size="10.00">core/SocketConfig.h</text>
</a>
</g>
</g>
<!-- Node10&#45;&gt;Node11 -->
<g id="edge16_Node000010_Node000011" class="edge">
<title>Node10&#45;&gt;Node11</title>
<g id="a_edge16_Node000010_Node000011"><a xlink:title=" ">
<path fill="none" stroke="#63b8ff" d="M495.67,-229.19C565.26,-228.94 704.02,-223 813.64,-184 845.28,-172.74 877.36,-150.27 896.63,-135.3"/>
<polygon fill="#63b8ff" stroke="#63b8ff" points="898.88,-137.98 904.53,-129.02 894.53,-132.5 898.88,-137.98"/>
</a>
</g>
</g>
<!-- Node20 -->
<g id="Node000020" class="node">
<title>Node20</title>
<g id="a_Node000020"><a xlink:href="SocketDNS_8h.html" target="_top" xlink:title="Asynchronous DNS resolution API for non&#45;blocking network applications.">
<polygon fill="white" stroke="#666666" points="499.64,-184 403.64,-184 403.64,-165 499.64,-165 499.64,-184"/>
<text text-anchor="middle" x="451.64" y="-172" font-family="Helvetica,sans-Serif" font-size="10.00">dns/SocketDNS.h</text>
</a>
</g>
</g>
<!-- Node10&#45;&gt;Node20 -->
<g id="edge26_Node000010_Node000020" class="edge">
<title>Node10&#45;&gt;Node20</title>
<g id="a_edge26_Node000010_Node000020"><a xlink:title=" ">
<path fill="none" stroke="#63b8ff" d="M451.64,-219.75C451.64,-212.8 451.64,-202.85 451.64,-194.13"/>
<polygon fill="#63b8ff" stroke="#63b8ff" points="455.14,-194.09 451.64,-184.09 448.14,-194.09 455.14,-194.09"/>
</a>
</g>
</g>
<!-- Node22 -->
<g id="Node000022" class="node">
<title>Node22</title>
<g id="a_Node000022"><a xlink:href="SocketCommon_8h.html" target="_top" xlink:title="Common utilities shared between Socket and SocketDgram modules.">
<polygon fill="white" stroke="#666666" points="804.64,-184 676.64,-184 676.64,-165 804.64,-165 804.64,-184"/>
<text text-anchor="middle" x="740.64" y="-172" font-family="Helvetica,sans-Serif" font-size="10.00">socket/SocketCommon.h</text>
</a>
</g>
</g>
<!-- Node10&#45;&gt;Node22 -->
<g id="edge32_Node000010_Node000022" class="edge">
<title>Node10&#45;&gt;Node22</title>
<g id="a_edge32_Node000010_Node000022"><a xlink:title=" ">
<path fill="none" stroke="#63b8ff" d="M495.84,-220.39C546.31,-211.14 628.97,-195.98 684.08,-185.87"/>
<polygon fill="#63b8ff" stroke="#63b8ff" points="684.83,-189.29 694.04,-184.05 683.57,-182.41 684.83,-189.29"/>
</a>
</g>
</g>
<!-- Node11&#45;&gt;Node2 -->
<g id="edge21_Node000011_Node000002" class="edge">
<title>Node11&#45;&gt;Node2</title>
<g id="a_edge21_Node000011_Node000002"><a xlink:title=" ">
<path fill="none" stroke="#63b8ff" d="M861.56,-111.07C858.54,-110.69 855.55,-110.34 852.64,-110 688.36,-91.08 491.53,-74.71 411.81,-68.34"/>
<polygon fill="#63b8ff" stroke="#63b8ff" points="412.04,-64.84 401.79,-67.54 411.48,-71.82 412.04,-64.84"/>
</a>
</g>
</g>
<!-- Node12 -->
<g id="Node000012" class="node">
<title>Node12</title>
<g id="a_Node000012"><a xlink:title=" ">
<polygon fill="#e0e0e0" stroke="#999999" points="756.14,-74 709.14,-74 709.14,-55 756.14,-55 756.14,-74"/>
<text text-anchor="middle" x="732.64" y="-62" font-family="Helvetica,sans-Serif" font-size="10.00">errno.h</text>
</a>
</g>
</g>
<!-- Node11&#45;&gt;Node12 -->
<g id="edge17_Node000011_Node000012" class="edge">
<title>Node11&#45;&gt;Node12</title>
<g id="a_edge17_Node000011_Node000012"><a xlink:title=" ">
<path fill="none" stroke="#63b8ff" d="M885.39,-109.98C852.89,-100.52 800.47,-85.25 766.28,-75.3"/>
<polygon fill="#63b8ff" stroke="#63b8ff" points="766.88,-71.83 756.3,-72.39 764.92,-78.55 766.88,-71.83"/>
</a>
</g>
</g>
<!-- Node13 -->
<g id="Node000013" class="node">
<title>Node13</title>
<g id="a_Node000013"><a xlink:title=" ">
<polygon fill="#e0e0e0" stroke="#999999" points="1045.64,-74 1001.64,-74 1001.64,-55 1045.64,-55 1045.64,-74"/>
<text text-anchor="middle" x="1023.64" y="-62" font-family="Helvetica,sans-Serif" font-size="10.00">fcntl.h</text>
</a>
</g>
</g>
<!-- Node11&#45;&gt;Node13 -->
<g id="edge18_Node000011_Node000013" class="edge">
<title>Node11&#45;&gt;Node13</title>
<g id="a_edge18_Node000011_Node000013"><a xlink:title=" ">
<path fill="none" stroke="#63b8ff" d="M932.15,-109.98C949.6,-101.5 976.65,-88.35 996.81,-78.54"/>
<polygon fill="#63b8ff" stroke="#63b8ff" points="998.34,-81.69 1005.8,-74.17 995.28,-75.4 998.34,-81.69"/>
</a>
</g>
</g>
<!-- Node14 -->
<g id="Node000014" class="node">
<title>Node14</title>
<g id="a_Node000014"><a xlink:title=" ">
<polygon fill="#e0e0e0" stroke="#999999" points="1129.14,-74 1064.14,-74 1064.14,-55 1129.14,-55 1129.14,-74"/>
<text text-anchor="middle" x="1096.64" y="-62" font-family="Helvetica,sans-Serif" font-size="10.00">netinet/in.h</text>
</a>
</g>
</g>
<!-- Node11&#45;&gt;Node14 -->
<g id="edge19_Node000011_Node000014" class="edge">
<title>Node11&#45;&gt;Node14</title>
<g id="a_edge19_Node000011_Node000014"><a xlink:title=" ">
<path fill="none" stroke="#63b8ff" d="M943.88,-109.98C974.7,-101.01 1023.41,-86.82 1057.52,-76.89"/>
<polygon fill="#63b8ff" stroke="#63b8ff" points="1058.54,-80.24 1067.17,-74.08 1056.59,-73.52 1058.54,-80.24"/>
</a>
</g>
</g>
<!-- Node15 -->
<g id="Node000015" class="node">
<title>Node15</title>
<g id="a_Node000015"><a xlink:title=" ">
<polygon fill="#e0e0e0" stroke="#999999" points="845.14,-74 774.14,-74 774.14,-55 845.14,-55 845.14,-74"/>
<text text-anchor="middle" x="809.64" y="-62" font-family="Helvetica,sans-Serif" font-size="10.00">netinet/tcp.h</text>
</a>
</g>
</g>
<!-- Node11&#45;&gt;Node15 -->
<g id="edge20_Node000011_Node000015" class="edge">
<title>Node11&#45;&gt;Node15</title>
<g id="a_edge20_Node000011_Node000015"><a xlink:title=" ">
<path fill="none" stroke="#63b8ff" d="M897.77,-109.98C881.03,-101.54 855.14,-88.47 835.74,-78.68"/>
<polygon fill="#63b8ff" stroke="#63b8ff" points="837.32,-75.55 826.81,-74.17 834.16,-81.8 837.32,-75.55"/>
</a>
</g>
</g>
<!-- Node16 -->
<g id="Node000016" class="node">
<title>Node16</title>
<g id="a_Node000016"><a xlink:title=" ">
<polygon fill="#e0e0e0" stroke="#999999" points="909.64,-74 863.64,-74 863.64,-55 909.64,-55 909.64,-74"/>
<text text-anchor="middle" x="886.64" y="-62" font-family="Helvetica,sans-Serif" font-size="10.00">stdio.h</text>
</a>
</g>
</g>
<!-- Node11&#45;&gt;Node16 -->
<g id="edge22_Node000011_Node000016" class="edge">
<title>Node11&#45;&gt;Node16</title>
<g id="a_edge22_Node000011_Node000016"><a xlink:title=" ">
<path fill="none" stroke="#63b8ff" d="M910.01,-109.75C906.18,-102.49 900.61,-91.95 895.87,-82.98"/>
<polygon fill="#63b8ff" stroke="#63b8ff" points="898.94,-81.3 891.17,-74.09 892.75,-84.57 898.94,-81.3"/>
</a>
</g>
</g>
<!-- Node17 -->
<g id="Node000017" class="node">
<title>Node17</title>
<g id="a_Node000017"><a xlink:title=" ">
<polygon fill="#e0e0e0" stroke="#999999" points="622.14,-74 549.14,-74 549.14,-55 622.14,-55 622.14,-74"/>
<text text-anchor="middle" x="585.64" y="-62" font-family="Helvetica,sans-Serif" font-size="10.00">sys/socket.h</text>
</a>
</g>
</g>
<!-- Node11&#45;&gt;Node17 -->
<g id="edge23_Node000011_Node000017" class="edge">
<title>Node11&#45;&gt;Node17</title>
<g id="a_edge23_Node000011_Node000017"><a xlink:title=" ">
<path fill="none" stroke="#63b8ff" d="M861.63,-110.6C806.82,-102.33 718.52,-88.74 632.24,-74.06"/>
<polygon fill="#63b8ff" stroke="#63b8ff" points="632.73,-70.6 622.28,-72.36 631.55,-77.5 632.73,-70.6"/>
</a>
</g>
</g>
<!-- Node18 -->
<g id="Node000018" class="node">
<title>Node18</title>
<g id="a_Node000018"><a xlink:title=" ">
<polygon fill="#e0e0e0" stroke="#999999" points="983.64,-74 927.64,-74 927.64,-55 983.64,-55 983.64,-74"/>
<text text-anchor="middle" x="955.64" y="-62" font-family="Helvetica,sans-Serif" font-size="10.00">sys/uio.h</text>
</a>
</g>
</g>
<!-- Node11&#45;&gt;Node18 -->
<g id="edge24_Node000011_Node000018" class="edge">
<title>Node11&#45;&gt;Node18</title>
<g id="a_edge24_Node000011_Node000018"><a xlink:title=" ">
<path fill="none" stroke="#63b8ff" d="M921.41,-109.75C927.2,-102.26 935.69,-91.28 942.77,-82.13"/>
<polygon fill="#63b8ff" stroke="#63b8ff" points="945.64,-84.14 948.99,-74.09 940.1,-79.86 945.64,-84.14"/>
</a>
</g>
</g>
<!-- Node19 -->
<g id="Node000019" class="node">
<title>Node19</title>
<g id="a_Node000019"><a xlink:title=" ">
<polygon fill="#e0e0e0" stroke="#999999" points="691.14,-74 640.14,-74 640.14,-55 691.14,-55 691.14,-74"/>
<text text-anchor="middle" x="665.64" y="-62" font-family="Helvetica,sans-Serif" font-size="10.00">unistd.h</text>
</a>
</g>
</g>
<!-- Node11&#45;&gt;Node19 -->
<g id="edge25_Node000011_Node000019" class="edge">
<title>Node11&#45;&gt;Node19</title>
<g id="a_edge25_Node000011_Node000019"><a xlink:title=" ">
<path fill="none" stroke="#63b8ff" d="M871.51,-109.97C830.34,-101.73 766.32,-88.66 701.25,-74.08"/>
<polygon fill="#63b8ff" stroke="#63b8ff" points="701.75,-70.6 691.23,-71.82 700.21,-77.43 701.75,-70.6"/>
</a>
</g>
</g>
<!-- Node20&#45;&gt;Node2 -->
<g id="edge29_Node000020_Node000002" class="edge">
<title>Node20&#45;&gt;Node2</title>
<g id="a_edge29_Node000020_Node000002"><a xlink:title=" ">
<path fill="none" stroke="#63b8ff" d="M445.42,-164.66C432.77,-146.69 403.88,-105.64 387.52,-82.38"/>
<polygon fill="#63b8ff" stroke="#63b8ff" points="390.35,-80.32 381.73,-74.16 384.62,-84.35 390.35,-80.32"/>
</a>
</g>
</g>
<!-- Node20&#45;&gt;Node3 -->
<g id="edge30_Node000020_Node000003" class="edge">
<title>Node20&#45;&gt;Node3</title>
<g id="a_edge30_Node000020_Node000003"><a xlink:title=" ">
<path fill="none" stroke="#63b8ff" d="M403.57,-165.85C335.61,-155.03 213.05,-135.53 153.29,-126.02"/>
<polygon fill="#63b8ff" stroke="#63b8ff" points="153.66,-122.53 143.23,-124.41 152.56,-129.44 153.66,-122.53"/>
</a>
</g>
</g>
<!-- Node20&#45;&gt;Node4 -->
<g id="edge27_Node000020_Node000004" class="edge">
<title>Node20&#45;&gt;Node4</title>
<g id="a_edge27_Node000020_Node000004"><a xlink:title=" ">
<path fill="none" stroke="#63b8ff" d="M403.46,-169.84C364.27,-165.07 308.77,-154.12 266.64,-129 247.43,-117.55 231.06,-97.53 220.85,-83.02"/>
<polygon fill="#63b8ff" stroke="#63b8ff" points="223.56,-80.77 215.07,-74.43 217.75,-84.68 223.56,-80.77"/>
</a>
</g>
</g>
<!-- Node20&#45;&gt;Node17 -->
<g id="edge31_Node000020_Node000017" class="edge">
<title>Node20&#45;&gt;Node17</title>
<g id="a_edge31_Node000020_Node000017"><a xlink:title=" ">
<path fill="none" stroke="#63b8ff" d="M465.99,-164.97C479.9,-156.47 501.38,-142.74 518.64,-129 537.32,-114.12 556.97,-95.04 570.11,-81.69"/>
<polygon fill="#63b8ff" stroke="#63b8ff" points="572.93,-83.82 577.39,-74.22 567.91,-78.94 572.93,-83.82"/>
</a>
</g>
</g>
<!-- Node21 -->
<g id="Node000021" class="node">
<title>Node21</title>
<g id="a_Node000021"><a xlink:title=" ">
<polygon fill="#e0e0e0" stroke="#999999" points="615.14,-129 566.14,-129 566.14,-110 615.14,-110 615.14,-129"/>
<text text-anchor="middle" x="590.64" y="-117" font-family="Helvetica,sans-Serif" font-size="10.00">netdb.h</text>
</a>
</g>
</g>
<!-- Node20&#45;&gt;Node21 -->
<g id="edge28_Node000020_Node000021" class="edge">
<title>Node20&#45;&gt;Node21</title>
<g id="a_edge28_Node000020_Node000021"><a xlink:title=" ">
<path fill="none" stroke="#63b8ff" d="M473.97,-164.98C496.83,-156.27 532.59,-142.63 558.5,-132.75"/>
<polygon fill="#63b8ff" stroke="#63b8ff" points="559.8,-136 567.9,-129.17 557.31,-129.46 559.8,-136"/>
</a>
</g>
</g>
<!-- Node22&#45;&gt;Node4 -->
<g id="edge43_Node000022_Node000004" class="edge">
<title>Node22&#45;&gt;Node4</title>
<g id="a_edge43_Node000022_Node000004"><a xlink:title=" ">
<path fill="none" stroke="#63b8ff" d="M724.34,-164.95C707.54,-156.09 680.65,-141.79 657.64,-129 642.84,-120.78 640.73,-115.24 624.64,-110 590.5,-98.89 360.48,-78.31 258.34,-69.58"/>
<polygon fill="#63b8ff" stroke="#63b8ff" points="258.54,-66.09 248.28,-68.73 257.95,-73.06 258.54,-66.09"/>
</a>
</g>
</g>
<!-- Node22&#45;&gt;Node7 -->
<g id="edge40_Node000022_Node000007" class="edge">
<title>Node22&#45;&gt;Node7</title>
<g id="a_edge40_Node000022_Node000007"><a xlink:title=" ">
<path fill="none" stroke="#63b8ff" d="M698.06,-164.98C649.16,-155.2 569.32,-139.24 519.77,-129.33"/>
<polygon fill="#63b8ff" stroke="#63b8ff" points="520.18,-125.84 509.68,-127.31 518.8,-132.7 520.18,-125.84"/>
</a>
</g>
</g>
<!-- Node22&#45;&gt;Node9 -->
<g id="edge42_Node000022_Node000009" class="edge">
<title>Node22&#45;&gt;Node9</title>
<g id="a_edge42_Node000022_Node000009"><a xlink:title=" ">
<path fill="none" stroke="#63b8ff" d="M676.41,-165.57C589.12,-154.78 435.11,-135.75 358.15,-126.25"/>
<polygon fill="#63b8ff" stroke="#63b8ff" points="358.17,-122.72 347.81,-124.97 357.31,-129.67 358.17,-122.72"/>
</a>
</g>
</g>
<!-- Node22&#45;&gt;Node11 -->
<g id="edge44_Node000022_Node000011" class="edge">
<title>Node22&#45;&gt;Node11</title>
<g id="a_edge44_Node000022_Node000011"><a xlink:title=" ">
<path fill="none" stroke="#63b8ff" d="M768.59,-164.98C797.93,-156.05 844.23,-141.94 876.82,-132.02"/>
<polygon fill="#63b8ff" stroke="#63b8ff" points="877.91,-135.34 886.46,-129.08 875.88,-128.65 877.91,-135.34"/>
</a>
</g>
</g>
<!-- Node22&#45;&gt;Node13 -->
<g id="edge35_Node000022_Node000013" class="edge">
<title>Node22&#45;&gt;Node13</title>
<g id="a_edge35_Node000022_Node000013"><a xlink:title=" ">
<path fill="none" stroke="#63b8ff" d="M804.79,-166.72C864.58,-159.47 948.6,-146.58 976.64,-129 994.2,-117.99 1007.4,-97.85 1015.28,-83.2"/>
<polygon fill="#63b8ff" stroke="#63b8ff" points="1018.48,-84.61 1019.86,-74.11 1012.23,-81.46 1018.48,-84.61"/>
</a>
</g>
</g>
<!-- Node22&#45;&gt;Node14 -->
<g id="edge37_Node000022_Node000014" class="edge">
<title>Node22&#45;&gt;Node14</title>
<g id="a_edge37_Node000022_Node000014"><a xlink:title=" ">
<path fill="none" stroke="#63b8ff" d="M804.87,-169.91C858.74,-165.18 936.87,-154.24 1000.64,-129 1030.34,-117.24 1060.37,-95.41 1078.75,-80.67"/>
<polygon fill="#63b8ff" stroke="#63b8ff" points="1081.27,-83.13 1086.78,-74.08 1076.83,-77.72 1081.27,-83.13"/>
</a>
</g>
</g>
<!-- Node22&#45;&gt;Node17 -->
<g id="edge38_Node000022_Node000017" class="edge">
<title>Node22&#45;&gt;Node17</title>
<g id="a_edge38_Node000022_Node000017"><a xlink:title=" ">
<path fill="none" stroke="#63b8ff" d="M730.14,-164.93C714.64,-152.4 684.53,-128.53 657.64,-110 641.85,-99.13 623.46,-87.78 609.22,-79.27"/>
<polygon fill="#63b8ff" stroke="#63b8ff" points="610.91,-76.2 600.53,-74.12 607.35,-82.22 610.91,-76.2"/>
</a>
</g>
</g>
<!-- Node22&#45;&gt;Node21 -->
<g id="edge36_Node000022_Node000021" class="edge">
<title>Node22&#45;&gt;Node21</title>
<g id="a_edge36_Node000022_Node000021"><a xlink:title=" ">
<path fill="none" stroke="#63b8ff" d="M716.54,-164.98C691.75,-156.23 652.93,-142.51 624.95,-132.62"/>
<polygon fill="#63b8ff" stroke="#63b8ff" points="625.77,-129.2 615.17,-129.17 623.44,-135.8 625.77,-129.2"/>
</a>
</g>
</g>
<!-- Node23 -->
<g id="Node000023" class="node">
<title>Node23</title>
<g id="a_Node000023"><a xlink:title=" ">
<polygon fill="#e0e0e0" stroke="#999999" points="1119.14,-129 1062.14,-129 1062.14,-110 1119.14,-110 1119.14,-129"/>
<text text-anchor="middle" x="1090.64" y="-117" font-family="Helvetica,sans-Serif" font-size="10.00">pthread.h</text>
</a>
</g>
</g>
<!-- Node22&#45;&gt;Node23 -->
<g id="edge33_Node000022_Node000023" class="edge">
<title>Node22&#45;&gt;Node23</title>
<g id="a_edge33_Node000022_Node000023"><a xlink:title=" ">
<path fill="none" stroke="#63b8ff" d="M804.88,-165.16C867.1,-156.86 964.03,-143.31 1047.64,-129 1049.09,-128.75 1050.57,-128.49 1052.06,-128.22"/>
<polygon fill="#63b8ff" stroke="#63b8ff" points="1052.8,-131.65 1061.99,-126.37 1051.52,-124.76 1052.8,-131.65"/>
</a>
</g>
</g>
<!-- Node24 -->
<g id="Node000024" class="node">
<title>Node24</title>
<g id="a_Node000024"><a xlink:title=" ">
<polygon fill="#e0e0e0" stroke="#999999" points="1193.64,-129 1137.64,-129 1137.64,-110 1193.64,-110 1193.64,-129"/>
<text text-anchor="middle" x="1165.64" y="-117" font-family="Helvetica,sans-Serif" font-size="10.00">stdbool.h</text>
</a>
</g>
</g>
<!-- Node22&#45;&gt;Node24 -->
<g id="edge34_Node000022_Node000024" class="edge">
<title>Node22&#45;&gt;Node24</title>
<g id="a_edge34_Node000022_Node000024"><a xlink:title=" ">
<path fill="none" stroke="#63b8ff" d="M804.8,-168.35C879.89,-161.83 1008.12,-149.16 1127.38,-129.04"/>
<polygon fill="#63b8ff" stroke="#63b8ff" points="1128.15,-132.46 1137.42,-127.32 1126.97,-125.56 1128.15,-132.46"/>
</a>
</g>
</g>
<!-- Node25 -->
<g id="Node000025" class="node">
<title>Node25</title>
<g id="a_Node000025"><a xlink:title=" ">
<polygon fill="#e0e0e0" stroke="#999999" points="771.64,-129 709.64,-129 709.64,-110 771.64,-110 771.64,-129"/>
<text text-anchor="middle" x="740.64" y="-117" font-family="Helvetica,sans-Serif" font-size="10.00">sys/time.h</text>
</a>
</g>
</g>
<!-- Node22&#45;&gt;Node25 -->
<g id="edge39_Node000022_Node000025" class="edge">
<title>Node22&#45;&gt;Node25</title>
<g id="a_edge39_Node000022_Node000025"><a xlink:title=" ">
<path fill="none" stroke="#63b8ff" d="M740.64,-164.75C740.64,-157.8 740.64,-147.85 740.64,-139.13"/>
<polygon fill="#63b8ff" stroke="#63b8ff" points="744.14,-139.09 740.64,-129.09 737.14,-139.09 744.14,-139.09"/>
</a>
</g>
</g>
<!-- Node26 -->
<g id="Node000026" class="node">
<title>Node26</title>
<g id="a_Node000026"><a xlink:title=" ">
<polygon fill="#e0e0e0" stroke="#999999" points="843.64,-129 789.64,-129 789.64,-110 843.64,-110 843.64,-129"/>
<text text-anchor="middle" x="816.64" y="-117" font-family="Helvetica,sans-Serif" font-size="10.00">sys/un.h</text>
</a>
</g>
</g>
<!-- Node22&#45;&gt;Node26 -->
<g id="edge41_Node000022_Node000026" class="edge">
<title>Node22&#45;&gt;Node26</title>
<g id="a_edge41_Node000022_Node000026"><a xlink:title=" ">
<path fill="none" stroke="#63b8ff" d="M752.85,-164.98C764.41,-156.92 782.01,-144.65 795.8,-135.03"/>
<polygon fill="#63b8ff" stroke="#63b8ff" points="798,-137.76 804.2,-129.17 794,-132.02 798,-137.76"/>
</a>
</g>
</g>
</g>
</svg>

<g id="navigator" transform="translate(0 0)" fill="#404254">
  <rect fill="#f2f5e9" fill-opacity="0.5" stroke="#606060" stroke-width=".5" x="0" y="0" width="60" height="60"/>
  <use id="zoomplus" xlink:href="#zoomPlus" x="17" y="9" onmousedown="handleZoom(evt,'in')"/>
  <use id="zoomminus" xlink:href="#zoomMin" x="42" y="9" onmousedown="handleZoom(evt,'out')"/>
  <use id="reset" xlink:href="#resetDef" x="30" y="36" onmousedown="handleReset()"/>
   <use id="arrowup" xlink:href="#arrowUp" x="0" y="0" onmousedown="handlePan(0,-1)"/>
  <use id="arrowright" xlink:href="#arrowRight" x="0" y="0" onmousedown="handlePan(1,0)"/>
  <use id="arrowdown" xlink:href="#arrowDown" x="0" y="0" onmousedown="handlePan(0,1)"/>
  <use id="arrowleft" xlink:href="#arrowLeft" x="0" y="0" onmousedown="handlePan(-1,0)"/>
</g>
<svg viewBox="0 0 15 15" width="100%" height="30px" preserveAspectRatio="xMaxYMin meet">
 <g id="arrow_out" transform="scale(0.3 0.3)">
  <a xlink:href="SocketWS_8h__incl_org.svg" target="_base">
   <rect id="button" ry="5" rx="5" y="6" x="6" height="38" width="38"
        fill="#f2f5e9" fill-opacity="0.5" stroke="#606060" stroke-width="1.0"/>
   <path id="arrow"
     d="M 11.500037,31.436501 C 11.940474,20.09759 22.043105,11.32322 32.158766,21.979434 L 37.068811,17.246167 C 37.068811,17.246167 37.088388,32 37.088388,32 L 22.160133,31.978069 C 22.160133,31.978069 26.997745,27.140456 26.997745,27.140456 C 18.528582,18.264221 13.291696,25.230495 11.500037,31.436501 z"
     style="fill:#404040;"/>
  </a>
 </g>
</svg>

<style type='text/css'>
<![CDATA[
[data-mouse-over-selected='false'] { opacity: 0.7; }
[data-mouse-over-selected='true']  { opacity: 1.0; }
]]>
</style>
<script type="application/ecmascript"><![CDATA[
document.addEventListener('DOMContentLoaded', (event) => {
  highlightEdges();
  highlightAdjacentNodes();
});
]]></script>
</svg>
