<?xml version="1.0" encoding="UTF-8" standalone="no"?>
<!DOCTYPE svg PUBLIC "-//W3C//DTD SVG 1.1//EN"
 "http://www.w3.org/Graphics/SVG/1.1/DTD/svg11.dtd">
<!-- Generated by graphviz version 2.43.0 (0)
 -->
<!-- Title: SocketUtil.h Pages: 1 -->
<!--zoomable 137 -->

<svg id="main" version="1.1" xmlns="http://www.w3.org/2000/svg" xmlns:xlink="http://www.w3.org/1999/xlink" xml:space="preserve" onload="init(evt)">
<style type="text/css"><![CDATA[
.node, .edge {opacity: 0.7;}
.node.selected, .edge.selected {opacity: 1;}
.edge:hover path { stroke: red; }
.edge:hover polygon { stroke: red; fill: red; }
]]></style>

<defs>
  <circle id="rim" cx="0" cy="0" r="7"/>
  <circle id="rim2" cx="0" cy="0" r="3.5"/>
  <g id="zoomPlus">
    <use xlink:href="#rim" fill="#404040"><set attributeName="fill" to="#808080" begin="zoomplus.mouseover" end="zoomplus.mouseout"/></use>
    <path d="M-4,0h8M0,-4v8" fill="none" stroke="white" stroke-width="1.5" pointer-events="none"/>
  </g>
  <g id="zoomMin">
    <use xlink:href="#rim" fill="#404040"><set attributeName="fill" to="#808080" begin="zoomminus.mouseover" end="zoomminus.mouseout"/></use>
    <path d="M-4,0h8" fill="none" stroke="white" stroke-width="1.5" pointer-events="none"/>
  </g>
  <g id="arrowUp" transform="translate(30 24)">
    <use xlink:href="#rim"/>
    <path pointer-events="none" fill="none" stroke="white" stroke-width="1.5" d="M0,-3.0v7 M-2.5,-0.5L0,-3.0L2.5,-0.5"/>
  </g>
  <g id="arrowRight" transform="rotate(90) translate(36 -43)">
    <use xlink:href="#rim"/>
    <path pointer-events="none" fill="none" stroke="white" stroke-width="1.5" d="M0,-3.0v7 M-2.5,-0.5L0,-3.0L2.5,-0.5"/>
  </g>
  <g id="arrowDown" transform="rotate(180) translate(-30 -48)">
    <use xlink:href="#rim"/>
    <path pointer-events="none" fill="none" stroke="white" stroke-width="1.5" d="M0,-3.0v7 M-2.5,-0.5L0,-3.0L2.5,-0.5"/>
  </g>
  <g id="arrowLeft" transform="rotate(270) translate(-36 17)">
    <use xlink:href="#rim"/>
    <path pointer-events="none" fill="none" stroke="white" stroke-width="1.5" d="M0,-3.0v7 M-2.5,-0.5L0,-3.0L2.5,-0.5"/>
  </g>
  <g id="resetDef">
    <use xlink:href="#rim2" fill="#404040"><set attributeName="fill" to="#808080" begin="reset.mouseover" end="reset.mouseout"/></use>
  </g>
</defs>
<script type="application/ecmascript">
var viewWidth = 732;
var viewHeight = 137;
var sectionId = 'dynsection-0';
</script>
<script type="application/ecmascript" xlink:href="svg.min.js"/>
<svg id="graph" class="graph">
<g id="viewport">
<title>SocketUtil.h</title>
<!-- Node1 -->
<g id="Node000001" class="node">
<title>Node1</title>
<g id="a_Node000001"><a xlink:title=" ">
<polygon fill="#999999" stroke="#666666" points="323,-129 252,-129 252,-110 323,-110 323,-129"/>
<text text-anchor="middle" x="287.5" y="-117" font-family="Helvetica,sans-Serif" font-size="10.00">SocketUtil.h</text>
</a>
</g>
</g>
<!-- Node2 -->
<g id="Node000002" class="node">
<title>Node2</title>
<g id="a_Node000002"><a xlink:title=" ">
<polygon fill="#e0e0e0" stroke="#999999" points="47,-19 0,-19 0,0 47,0 47,-19"/>
<text text-anchor="middle" x="23.5" y="-7" font-family="Helvetica,sans-Serif" font-size="10.00">errno.h</text>
</a>
</g>
</g>
<!-- Node1&#45;&gt;Node2 -->
<g id="edge1_Node000001_Node000002" class="edge">
<title>Node1&#45;&gt;Node2</title>
<g id="a_edge1_Node000001_Node000002"><a xlink:title=" ">
<path fill="none" stroke="#63b8ff" d="M251.8,-110.78C220.03,-103.31 172.68,-90.68 133.5,-74 101.01,-60.17 66.13,-38.8 44.56,-24.73"/>
<polygon fill="#63b8ff" stroke="#63b8ff" points="46.45,-21.78 36.18,-19.19 42.59,-27.62 46.45,-21.78"/>
</a>
</g>
</g>
<!-- Node3 -->
<g id="Node000003" class="node">
<title>Node3</title>
<g id="a_Node000003"><a xlink:title=" ">
<polygon fill="#e0e0e0" stroke="#999999" points="362.5,-74 310.5,-74 310.5,-55 362.5,-55 362.5,-74"/>
<text text-anchor="middle" x="336.5" y="-62" font-family="Helvetica,sans-Serif" font-size="10.00">stdarg.h</text>
</a>
</g>
</g>
<!-- Node1&#45;&gt;Node3 -->
<g id="edge2_Node000001_Node000003" class="edge">
<title>Node1&#45;&gt;Node3</title>
<g id="a_edge2_Node000001_Node000003"><a xlink:title=" ">
<path fill="none" stroke="#63b8ff" d="M295.59,-109.75C302.66,-102.11 313.09,-90.82 321.65,-81.56"/>
<polygon fill="#63b8ff" stroke="#63b8ff" points="324.34,-83.81 328.56,-74.09 319.2,-79.06 324.34,-83.81"/>
</a>
</g>
</g>
<!-- Node4 -->
<g id="Node000004" class="node">
<title>Node4</title>
<g id="a_Node000004"><a xlink:title=" ">
<polygon fill="#e0e0e0" stroke="#999999" points="117.5,-19 65.5,-19 65.5,0 117.5,0 117.5,-19"/>
<text text-anchor="middle" x="91.5" y="-7" font-family="Helvetica,sans-Serif" font-size="10.00">stddef.h</text>
</a>
</g>
</g>
<!-- Node1&#45;&gt;Node4 -->
<g id="edge3_Node000001_Node000004" class="edge">
<title>Node1&#45;&gt;Node4</title>
<g id="a_edge3_Node000001_Node000004"><a xlink:title=" ">
<path fill="none" stroke="#63b8ff" d="M252.49,-109.97C226.51,-102.73 190.82,-90.82 162.5,-74 140.63,-61.01 119.41,-40.71 105.95,-26.57"/>
<polygon fill="#63b8ff" stroke="#63b8ff" points="108.35,-24.01 98.98,-19.06 103.22,-28.77 108.35,-24.01"/>
</a>
</g>
</g>
<!-- Node5 -->
<g id="Node000005" class="node">
<title>Node5</title>
<g id="a_Node000005"><a xlink:title=" ">
<polygon fill="#e0e0e0" stroke="#999999" points="430,-74 381,-74 381,-55 430,-55 430,-74"/>
<text text-anchor="middle" x="405.5" y="-62" font-family="Helvetica,sans-Serif" font-size="10.00">stdint.h</text>
</a>
</g>
</g>
<!-- Node1&#45;&gt;Node5 -->
<g id="edge4_Node000001_Node000005" class="edge">
<title>Node1&#45;&gt;Node5</title>
<g id="a_edge4_Node000001_Node000005"><a xlink:title=" ">
<path fill="none" stroke="#63b8ff" d="M306.46,-109.98C325.53,-101.42 355.16,-88.11 377.05,-78.28"/>
<polygon fill="#63b8ff" stroke="#63b8ff" points="378.51,-81.46 386.2,-74.17 375.64,-75.07 378.51,-81.46"/>
</a>
</g>
</g>
<!-- Node6 -->
<g id="Node000006" class="node">
<title>Node6</title>
<g id="a_Node000006"><a xlink:title=" ">
<polygon fill="#e0e0e0" stroke="#999999" points="181.5,-19 135.5,-19 135.5,0 181.5,0 181.5,-19"/>
<text text-anchor="middle" x="158.5" y="-7" font-family="Helvetica,sans-Serif" font-size="10.00">stdio.h</text>
</a>
</g>
</g>
<!-- Node1&#45;&gt;Node6 -->
<g id="edge5_Node000001_Node000006" class="edge">
<title>Node1&#45;&gt;Node6</title>
<g id="a_edge5_Node000001_Node000006"><a xlink:title=" ">
<path fill="none" stroke="#63b8ff" d="M251.91,-112.44C227.77,-106.55 196.85,-95.25 177.5,-74 166.36,-61.77 161.74,-43.25 159.83,-29.36"/>
<polygon fill="#63b8ff" stroke="#63b8ff" points="163.27,-28.62 158.78,-19.03 156.31,-29.33 163.27,-28.62"/>
</a>
</g>
</g>
<!-- Node7 -->
<g id="Node000007" class="node">
<title>Node7</title>
<g id="a_Node000007"><a xlink:title=" ">
<polygon fill="#e0e0e0" stroke="#999999" points="497,-74 448,-74 448,-55 497,-55 497,-74"/>
<text text-anchor="middle" x="472.5" y="-62" font-family="Helvetica,sans-Serif" font-size="10.00">string.h</text>
</a>
</g>
</g>
<!-- Node1&#45;&gt;Node7 -->
<g id="edge6_Node000001_Node000007" class="edge">
<title>Node1&#45;&gt;Node7</title>
<g id="a_edge6_Node000001_Node000007"><a xlink:title=" ">
<path fill="none" stroke="#63b8ff" d="M317.22,-109.98C350.23,-100.53 403.41,-85.29 438.17,-75.34"/>
<polygon fill="#63b8ff" stroke="#63b8ff" points="439.23,-78.67 447.88,-72.55 437.3,-71.94 439.23,-78.67"/>
</a>
</g>
</g>
<!-- Node8 -->
<g id="Node000008" class="node">
<title>Node8</title>
<g id="a_Node000008"><a xlink:href="Except_8h.html" target="_top" xlink:title=" ">
<polygon fill="white" stroke="#666666" points="663,-74 586,-74 586,-55 663,-55 663,-74"/>
<text text-anchor="middle" x="624.5" y="-62" font-family="Helvetica,sans-Serif" font-size="10.00">core/Except.h</text>
</a>
</g>
</g>
<!-- Node1&#45;&gt;Node8 -->
<g id="edge7_Node000001_Node000008" class="edge">
<title>Node1&#45;&gt;Node8</title>
<g id="a_edge7_Node000001_Node000008"><a xlink:title=" ">
<path fill="none" stroke="#63b8ff" d="M323.25,-112.88C383.91,-103.34 507.09,-83.96 575.66,-73.18"/>
<polygon fill="#63b8ff" stroke="#63b8ff" points="576.44,-76.6 585.77,-71.59 575.35,-69.69 576.44,-76.6"/>
</a>
</g>
</g>
<!-- Node10 -->
<g id="Node000010" class="node">
<title>Node10</title>
<g id="a_Node000010"><a xlink:href="SocketConfig_8h.html" target="_top" xlink:title=" ">
<polygon fill="white" stroke="#666666" points="292.5,-74 186.5,-74 186.5,-55 292.5,-55 292.5,-74"/>
<text text-anchor="middle" x="239.5" y="-62" font-family="Helvetica,sans-Serif" font-size="10.00">core/SocketConfig.h</text>
</a>
</g>
</g>
<!-- Node1&#45;&gt;Node10 -->
<g id="edge9_Node000001_Node000010" class="edge">
<title>Node1&#45;&gt;Node10</title>
<g id="a_edge9_Node000001_Node000010"><a xlink:title=" ">
<path fill="none" stroke="#63b8ff" d="M279.57,-109.75C272.65,-102.11 262.43,-90.82 254.05,-81.56"/>
<polygon fill="#63b8ff" stroke="#63b8ff" points="256.59,-79.15 247.28,-74.09 251.4,-83.85 256.59,-79.15"/>
</a>
</g>
</g>
<!-- Node9 -->
<g id="Node000009" class="node">
<title>Node9</title>
<g id="a_Node000009"><a xlink:title=" ">
<polygon fill="#e0e0e0" stroke="#999999" points="723.5,-19 669.5,-19 669.5,0 723.5,0 723.5,-19"/>
<text text-anchor="middle" x="696.5" y="-7" font-family="Helvetica,sans-Serif" font-size="10.00">setjmp.h</text>
</a>
</g>
</g>
<!-- Node8&#45;&gt;Node9 -->
<g id="edge8_Node000008_Node000009" class="edge">
<title>Node8&#45;&gt;Node9</title>
<g id="a_edge8_Node000008_Node000009"><a xlink:title=" ">
<path fill="none" stroke="#63b8ff" d="M636.07,-54.98C646.92,-47 663.38,-34.88 676.38,-25.31"/>
<polygon fill="#63b8ff" stroke="#63b8ff" points="678.74,-27.92 684.72,-19.17 674.59,-22.28 678.74,-27.92"/>
</a>
</g>
</g>
<!-- Node10&#45;&gt;Node2 -->
<g id="edge10_Node000010_Node000002" class="edge">
<title>Node10&#45;&gt;Node2</title>
<g id="a_edge10_Node000010_Node000002"><a xlink:title=" ">
<path fill="none" stroke="#63b8ff" d="M203.7,-54.95C168.8,-46.57 113.98,-33.33 57.16,-19.14"/>
<polygon fill="#63b8ff" stroke="#63b8ff" points="57.83,-15.7 47.28,-16.67 56.13,-22.49 57.83,-15.7"/>
</a>
</g>
</g>
<!-- Node10&#45;&gt;Node4 -->
<g id="edge14_Node000010_Node000004" class="edge">
<title>Node10&#45;&gt;Node4</title>
<g id="a_edge14_Node000010_Node000004"><a xlink:title=" ">
<path fill="none" stroke="#63b8ff" d="M215.72,-54.98C191.27,-46.23 152.97,-32.51 125.35,-22.62"/>
<polygon fill="#63b8ff" stroke="#63b8ff" points="126.31,-19.25 115.71,-19.17 123.95,-25.84 126.31,-19.25"/>
</a>
</g>
</g>
<!-- Node10&#45;&gt;Node6 -->
<g id="edge15_Node000010_Node000006" class="edge">
<title>Node10&#45;&gt;Node6</title>
<g id="a_edge15_Node000010_Node000006"><a xlink:title=" ">
<path fill="none" stroke="#63b8ff" d="M226.49,-54.98C214.04,-46.84 195.04,-34.41 180.29,-24.76"/>
<polygon fill="#63b8ff" stroke="#63b8ff" points="182.04,-21.72 171.75,-19.17 178.2,-27.57 182.04,-21.72"/>
</a>
</g>
</g>
<!-- Node11 -->
<g id="Node000011" class="node">
<title>Node11</title>
<g id="a_Node000011"><a xlink:title=" ">
<polygon fill="#e0e0e0" stroke="#999999" points="243.5,-19 199.5,-19 199.5,0 243.5,0 243.5,-19"/>
<text text-anchor="middle" x="221.5" y="-7" font-family="Helvetica,sans-Serif" font-size="10.00">fcntl.h</text>
</a>
</g>
</g>
<!-- Node10&#45;&gt;Node11 -->
<g id="edge11_Node000010_Node000011" class="edge">
<title>Node10&#45;&gt;Node11</title>
<g id="a_edge11_Node000010_Node000011"><a xlink:title=" ">
<path fill="none" stroke="#63b8ff" d="M236.53,-54.75C234.14,-47.72 230.71,-37.62 227.73,-28.84"/>
<polygon fill="#63b8ff" stroke="#63b8ff" points="230.95,-27.43 224.42,-19.09 224.32,-29.68 230.95,-27.43"/>
</a>
</g>
</g>
<!-- Node12 -->
<g id="Node000012" class="node">
<title>Node12</title>
<g id="a_Node000012"><a xlink:title=" ">
<polygon fill="#e0e0e0" stroke="#999999" points="327,-19 262,-19 262,0 327,0 327,-19"/>
<text text-anchor="middle" x="294.5" y="-7" font-family="Helvetica,sans-Serif" font-size="10.00">netinet/in.h</text>
</a>
</g>
</g>
<!-- Node10&#45;&gt;Node12 -->
<g id="edge12_Node000010_Node000012" class="edge">
<title>Node10&#45;&gt;Node12</title>
<g id="a_edge12_Node000010_Node000012"><a xlink:title=" ">
<path fill="none" stroke="#63b8ff" d="M248.58,-54.75C256.59,-47.03 268.46,-35.6 278.12,-26.28"/>
<polygon fill="#63b8ff" stroke="#63b8ff" points="280.81,-28.55 285.59,-19.09 275.96,-23.51 280.81,-28.55"/>
</a>
</g>
</g>
<!-- Node13 -->
<g id="Node000013" class="node">
<title>Node13</title>
<g id="a_Node000013"><a xlink:title=" ">
<polygon fill="#e0e0e0" stroke="#999999" points="416,-19 345,-19 345,0 416,0 416,-19"/>
<text text-anchor="middle" x="380.5" y="-7" font-family="Helvetica,sans-Serif" font-size="10.00">netinet/tcp.h</text>
</a>
</g>
</g>
<!-- Node10&#45;&gt;Node13 -->
<g id="edge13_Node000010_Node000013" class="edge">
<title>Node10&#45;&gt;Node13</title>
<g id="a_edge13_Node000010_Node000013"><a xlink:title=" ">
<path fill="none" stroke="#63b8ff" d="M262.15,-54.98C285.35,-46.27 321.62,-32.63 347.9,-22.75"/>
<polygon fill="#63b8ff" stroke="#63b8ff" points="349.3,-25.97 357.43,-19.17 346.84,-19.41 349.3,-25.97"/>
</a>
</g>
</g>
<!-- Node14 -->
<g id="Node000014" class="node">
<title>Node14</title>
<g id="a_Node000014"><a xlink:title=" ">
<polygon fill="#e0e0e0" stroke="#999999" points="507,-19 434,-19 434,0 507,0 507,-19"/>
<text text-anchor="middle" x="470.5" y="-7" font-family="Helvetica,sans-Serif" font-size="10.00">sys/socket.h</text>
</a>
</g>
</g>
<!-- Node10&#45;&gt;Node14 -->
<g id="edge16_Node000010_Node000014" class="edge">
<title>Node10&#45;&gt;Node14</title>
<g id="a_edge16_Node000010_Node000014"><a xlink:title=" ">
<path fill="none" stroke="#63b8ff" d="M276.61,-54.98C316.64,-45.8 380.45,-31.16 423.84,-21.21"/>
<polygon fill="#63b8ff" stroke="#63b8ff" points="424.9,-24.55 433.86,-18.91 423.33,-17.73 424.9,-24.55"/>
</a>
</g>
</g>
<!-- Node15 -->
<g id="Node000015" class="node">
<title>Node15</title>
<g id="a_Node000015"><a xlink:title=" ">
<polygon fill="#e0e0e0" stroke="#999999" points="581.5,-19 525.5,-19 525.5,0 581.5,0 581.5,-19"/>
<text text-anchor="middle" x="553.5" y="-7" font-family="Helvetica,sans-Serif" font-size="10.00">sys/uio.h</text>
</a>
</g>
</g>
<!-- Node10&#45;&gt;Node15 -->
<g id="edge17_Node000010_Node000015" class="edge">
<title>Node10&#45;&gt;Node15</title>
<g id="a_edge17_Node000010_Node000015"><a xlink:title=" ">
<path fill="none" stroke="#63b8ff" d="M292.53,-56.05C346.29,-48.26 432.09,-35.17 515.38,-19.11"/>
<polygon fill="#63b8ff" stroke="#63b8ff" points="516.11,-22.54 525.26,-17.19 514.78,-15.66 516.11,-22.54"/>
</a>
</g>
</g>
<!-- Node16 -->
<g id="Node000016" class="node">
<title>Node16</title>
<g id="a_Node000016"><a xlink:title=" ">
<polygon fill="#e0e0e0" stroke="#999999" points="651,-19 600,-19 600,0 651,0 651,-19"/>
<text text-anchor="middle" x="625.5" y="-7" font-family="Helvetica,sans-Serif" font-size="10.00">unistd.h</text>
</a>
</g>
</g>
<!-- Node10&#45;&gt;Node16 -->
<g id="edge18_Node000010_Node000016" class="edge">
<title>Node10&#45;&gt;Node16</title>
<g id="a_edge18_Node000010_Node000016"><a xlink:title=" ">
<path fill="none" stroke="#63b8ff" d="M292.59,-56.18C295.61,-55.78 298.59,-55.38 301.5,-55 426.58,-38.64 461.43,-42.12 589.74,-18.93"/>
<polygon fill="#63b8ff" stroke="#63b8ff" points="590.75,-22.3 599.96,-17.06 589.49,-15.41 590.75,-22.3"/>
</a>
</g>
</g>
</g>
</svg>

<g id="navigator" transform="translate(0 0)" fill="#404254">
  <rect fill="#f2f5e9" fill-opacity="0.5" stroke="#606060" stroke-width=".5" x="0" y="0" width="60" height="60"/>
  <use id="zoomplus" xlink:href="#zoomPlus" x="17" y="9" onmousedown="handleZoom(evt,'in')"/>
  <use id="zoomminus" xlink:href="#zoomMin" x="42" y="9" onmousedown="handleZoom(evt,'out')"/>
  <use id="reset" xlink:href="#resetDef" x="30" y="36" onmousedown="handleReset()"/>
   <use id="arrowup" xlink:href="#arrowUp" x="0" y="0" onmousedown="handlePan(0,-1)"/>
  <use id="arrowright" xlink:href="#arrowRight" x="0" y="0" onmousedown="handlePan(1,0)"/>
  <use id="arrowdown" xlink:href="#arrowDown" x="0" y="0" onmousedown="handlePan(0,1)"/>
  <use id="arrowleft" xlink:href="#arrowLeft" x="0" y="0" onmousedown="handlePan(-1,0)"/>
</g>
<svg viewBox="0 0 15 15" width="100%" height="30px" preserveAspectRatio="xMaxYMin meet">
 <g id="arrow_out" transform="scale(0.3 0.3)">
  <a xlink:href="SocketUtil_8h__incl_org.svg" target="_base">
   <rect id="button" ry="5" rx="5" y="6" x="6" height="38" width="38"
        fill="#f2f5e9" fill-opacity="0.5" stroke="#606060" stroke-width="1.0"/>
   <path id="arrow"
     d="M 11.500037,31.436501 C 11.940474,20.09759 22.043105,11.32322 32.158766,21.979434 L 37.068811,17.246167 C 37.068811,17.246167 37.088388,32 37.088388,32 L 22.160133,31.978069 C 22.160133,31.978069 26.997745,27.140456 26.997745,27.140456 C 18.528582,18.264221 13.291696,25.230495 11.500037,31.436501 z"
     style="fill:#404040;"/>
  </a>
 </g>
</svg>

<style type='text/css'>
<![CDATA[
[data-mouse-over-selected='false'] { opacity: 0.7; }
[data-mouse-over-selected='true']  { opacity: 1.0; }
]]>
</style>
<script type="application/ecmascript"><![CDATA[
document.addEventListener('DOMContentLoaded', (event) => {
  highlightEdges();
  highlightAdjacentNodes();
});
]]></script>
</svg>
