<?xml version="1.0" encoding="UTF-8" standalone="no"?>
<!DOCTYPE svg PUBLIC "-//W3C//DTD SVG 1.1//EN"
 "http://www.w3.org/Graphics/SVG/1.1/DTD/svg11.dtd">
<!-- Generated by graphviz version 2.43.0 (0)
 -->
<!-- Title: SocketHappyEyeballs.h Pages: 1 -->
<!--zoomable 357 -->

<svg id="main" version="1.1" xmlns="http://www.w3.org/2000/svg" xmlns:xlink="http://www.w3.org/1999/xlink" xml:space="preserve" onload="init(evt)">
<style type="text/css"><![CDATA[
.node, .edge {opacity: 0.7;}
.node.selected, .edge.selected {opacity: 1;}
.edge:hover path { stroke: red; }
.edge:hover polygon { stroke: red; fill: red; }
]]></style>

<defs>
  <circle id="rim" cx="0" cy="0" r="7"/>
  <circle id="rim2" cx="0" cy="0" r="3.5"/>
  <g id="zoomPlus">
    <use xlink:href="#rim" fill="#404040"><set attributeName="fill" to="#808080" begin="zoomplus.mouseover" end="zoomplus.mouseout"/></use>
    <path d="M-4,0h8M0,-4v8" fill="none" stroke="white" stroke-width="1.5" pointer-events="none"/>
  </g>
  <g id="zoomMin">
    <use xlink:href="#rim" fill="#404040"><set attributeName="fill" to="#808080" begin="zoomminus.mouseover" end="zoomminus.mouseout"/></use>
    <path d="M-4,0h8" fill="none" stroke="white" stroke-width="1.5" pointer-events="none"/>
  </g>
  <g id="arrowUp" transform="translate(30 24)">
    <use xlink:href="#rim"/>
    <path pointer-events="none" fill="none" stroke="white" stroke-width="1.5" d="M0,-3.0v7 M-2.5,-0.5L0,-3.0L2.5,-0.5"/>
  </g>
  <g id="arrowRight" transform="rotate(90) translate(36 -43)">
    <use xlink:href="#rim"/>
    <path pointer-events="none" fill="none" stroke="white" stroke-width="1.5" d="M0,-3.0v7 M-2.5,-0.5L0,-3.0L2.5,-0.5"/>
  </g>
  <g id="arrowDown" transform="rotate(180) translate(-30 -48)">
    <use xlink:href="#rim"/>
    <path pointer-events="none" fill="none" stroke="white" stroke-width="1.5" d="M0,-3.0v7 M-2.5,-0.5L0,-3.0L2.5,-0.5"/>
  </g>
  <g id="arrowLeft" transform="rotate(270) translate(-36 17)">
    <use xlink:href="#rim"/>
    <path pointer-events="none" fill="none" stroke="white" stroke-width="1.5" d="M0,-3.0v7 M-2.5,-0.5L0,-3.0L2.5,-0.5"/>
  </g>
  <g id="resetDef">
    <use xlink:href="#rim2" fill="#404040"><set attributeName="fill" to="#808080" begin="reset.mouseover" end="reset.mouseout"/></use>
  </g>
</defs>
<script type="application/ecmascript">
var viewWidth = 1291;
var viewHeight = 357;
var sectionId = 'dynsection-0';
</script>
<script type="application/ecmascript" xlink:href="svg.min.js"/>
<svg id="graph" class="graph">
<g id="viewport">
<title>SocketHappyEyeballs.h</title>
<!-- Node1 -->
<g id="Node000001" class="node">
<title>Node1</title>
<g id="a_Node000001"><a xlink:title=" ">
<polygon fill="#999999" stroke="#666666" points="247,-349 125,-349 125,-330 247,-330 247,-349"/>
<text text-anchor="middle" x="186" y="-337" font-family="Helvetica,sans-Serif" font-size="10.00">SocketHappyEyeballs.h</text>
</a>
</g>
</g>
<!-- Node2 -->
<g id="Node000002" class="node">
<title>Node2</title>
<g id="a_Node000002"><a xlink:href="Except_8h.html" target="_top" xlink:title=" ">
<polygon fill="white" stroke="#666666" points="234.5,-74 157.5,-74 157.5,-55 234.5,-55 234.5,-74"/>
<text text-anchor="middle" x="196" y="-62" font-family="Helvetica,sans-Serif" font-size="10.00">core/Except.h</text>
</a>
</g>
</g>
<!-- Node1&#45;&gt;Node2 -->
<g id="edge1_Node000001_Node000002" class="edge">
<title>Node1&#45;&gt;Node2</title>
<g id="a_edge1_Node000001_Node000002"><a xlink:title=" ">
<path fill="none" stroke="#63b8ff" d="M129.18,-329.98C74.48,-318.17 0,-290.99 0,-230.5 0,-230.5 0,-230.5 0,-173.5 0,-106.43 89.13,-80.7 147.18,-71.06"/>
<polygon fill="#63b8ff" stroke="#63b8ff" points="147.93,-74.49 157.28,-69.49 146.86,-67.57 147.93,-74.49"/>
</a>
</g>
</g>
<!-- Node4 -->
<g id="Node000004" class="node">
<title>Node4</title>
<g id="a_Node000004"><a xlink:href="SocketDNS_8h.html" target="_top" xlink:title=" ">
<polygon fill="white" stroke="#666666" points="328,-184 232,-184 232,-165 328,-165 328,-184"/>
<text text-anchor="middle" x="280" y="-172" font-family="Helvetica,sans-Serif" font-size="10.00">dns/SocketDNS.h</text>
</a>
</g>
</g>
<!-- Node1&#45;&gt;Node4 -->
<g id="edge3_Node000001_Node000004" class="edge">
<title>Node1&#45;&gt;Node4</title>
<g id="a_edge3_Node000001_Node000004"><a xlink:title=" ">
<path fill="none" stroke="#63b8ff" d="M189.81,-329.66C200.21,-305.68 229.15,-239.87 242,-220 248.54,-209.89 257.17,-199.61 264.55,-191.47"/>
<polygon fill="#63b8ff" stroke="#63b8ff" points="267.12,-193.84 271.39,-184.15 262.01,-189.07 267.12,-193.84"/>
</a>
</g>
</g>
<!-- Node8 -->
<g id="Node000008" class="node">
<title>Node8</title>
<g id="a_Node000008"><a xlink:href="SocketPoll_8h.html" target="_top" xlink:title=" ">
<polygon fill="white" stroke="#666666" points="195,-294 105,-294 105,-275 195,-275 195,-294"/>
<text text-anchor="middle" x="150" y="-282" font-family="Helvetica,sans-Serif" font-size="10.00">poll/SocketPoll.h</text>
</a>
</g>
</g>
<!-- Node1&#45;&gt;Node8 -->
<g id="edge8_Node000001_Node000008" class="edge">
<title>Node1&#45;&gt;Node8</title>
<g id="a_edge8_Node000001_Node000008"><a xlink:title=" ">
<path fill="none" stroke="#63b8ff" d="M180.06,-329.75C175.02,-322.34 167.66,-311.5 161.49,-302.41"/>
<polygon fill="#63b8ff" stroke="#63b8ff" points="164.35,-300.39 155.83,-294.09 158.56,-304.33 164.35,-300.39"/>
</a>
</g>
</g>
<!-- Node11 -->
<g id="Node000011" class="node">
<title>Node11</title>
<g id="a_Node000011"><a xlink:href="Socket_8h.html" target="_top" xlink:title=" ">
<polygon fill="white" stroke="#666666" points="339,-239 251,-239 251,-220 339,-220 339,-239"/>
<text text-anchor="middle" x="295" y="-227" font-family="Helvetica,sans-Serif" font-size="10.00">socket/Socket.h</text>
</a>
</g>
</g>
<!-- Node1&#45;&gt;Node11 -->
<g id="edge40_Node000001_Node000011" class="edge">
<title>Node1&#45;&gt;Node11</title>
<g id="a_edge40_Node000001_Node000011"><a xlink:title=" ">
<path fill="none" stroke="#63b8ff" d="M196.46,-329.96C206.99,-321.24 223.56,-307.14 237,-294 252.59,-278.76 269.26,-260.25 280.71,-247.15"/>
<polygon fill="#63b8ff" stroke="#63b8ff" points="283.51,-249.27 287.42,-239.42 278.23,-244.68 283.51,-249.27"/>
</a>
</g>
</g>
<!-- Node3 -->
<g id="Node000003" class="node">
<title>Node3</title>
<g id="a_Node000003"><a xlink:title=" ">
<polygon fill="#e0e0e0" stroke="#999999" points="223,-19 169,-19 169,0 223,0 223,-19"/>
<text text-anchor="middle" x="196" y="-7" font-family="Helvetica,sans-Serif" font-size="10.00">setjmp.h</text>
</a>
</g>
</g>
<!-- Node2&#45;&gt;Node3 -->
<g id="edge2_Node000002_Node000003" class="edge">
<title>Node2&#45;&gt;Node3</title>
<g id="a_edge2_Node000002_Node000003"><a xlink:title=" ">
<path fill="none" stroke="#63b8ff" d="M196,-54.75C196,-47.8 196,-37.85 196,-29.13"/>
<polygon fill="#63b8ff" stroke="#63b8ff" points="199.5,-29.09 196,-19.09 192.5,-29.09 199.5,-29.09"/>
</a>
</g>
</g>
<!-- Node4&#45;&gt;Node2 -->
<g id="edge4_Node000004_Node000002" class="edge">
<title>Node4&#45;&gt;Node2</title>
<g id="a_edge4_Node000004_Node000002"><a xlink:title=" ">
<path fill="none" stroke="#63b8ff" d="M273.13,-164.66C259.09,-146.61 226.94,-105.28 208.89,-82.08"/>
<polygon fill="#63b8ff" stroke="#63b8ff" points="211.64,-79.9 202.73,-74.16 206.11,-84.2 211.64,-79.9"/>
</a>
</g>
</g>
<!-- Node5 -->
<g id="Node000005" class="node">
<title>Node5</title>
<g id="a_Node000005"><a xlink:title=" ">
<polygon fill="#e0e0e0" stroke="#999999" points="349.5,-129 300.5,-129 300.5,-110 349.5,-110 349.5,-129"/>
<text text-anchor="middle" x="325" y="-117" font-family="Helvetica,sans-Serif" font-size="10.00">netdb.h</text>
</a>
</g>
</g>
<!-- Node4&#45;&gt;Node5 -->
<g id="edge5_Node000004_Node000005" class="edge">
<title>Node4&#45;&gt;Node5</title>
<g id="a_edge5_Node000004_Node000005"><a xlink:title=" ">
<path fill="none" stroke="#63b8ff" d="M287.43,-164.75C293.85,-157.18 303.31,-146.05 311.12,-136.84"/>
<polygon fill="#63b8ff" stroke="#63b8ff" points="313.9,-138.98 317.71,-129.09 308.57,-134.45 313.9,-138.98"/>
</a>
</g>
</g>
<!-- Node6 -->
<g id="Node000006" class="node">
<title>Node6</title>
<g id="a_Node000006"><a xlink:title=" ">
<polygon fill="#e0e0e0" stroke="#999999" points="468,-74 416,-74 416,-55 468,-55 468,-74"/>
<text text-anchor="middle" x="442" y="-62" font-family="Helvetica,sans-Serif" font-size="10.00">stddef.h</text>
</a>
</g>
</g>
<!-- Node4&#45;&gt;Node6 -->
<g id="edge6_Node000004_Node000006" class="edge">
<title>Node4&#45;&gt;Node6</title>
<g id="a_edge6_Node000004_Node000006"><a xlink:title=" ">
<path fill="none" stroke="#63b8ff" d="M279.03,-164.89C278.02,-151.42 278.16,-125.32 292,-110 320.79,-78.12 371.25,-68.65 405.62,-66.06"/>
<polygon fill="#63b8ff" stroke="#63b8ff" points="405.96,-69.55 415.73,-65.46 405.54,-62.56 405.96,-69.55"/>
</a>
</g>
</g>
<!-- Node7 -->
<g id="Node000007" class="node">
<title>Node7</title>
<g id="a_Node000007"><a xlink:title=" ">
<polygon fill="#e0e0e0" stroke="#999999" points="738.5,-74 665.5,-74 665.5,-55 738.5,-55 738.5,-74"/>
<text text-anchor="middle" x="702" y="-62" font-family="Helvetica,sans-Serif" font-size="10.00">sys/socket.h</text>
</a>
</g>
</g>
<!-- Node4&#45;&gt;Node7 -->
<g id="edge7_Node000004_Node000007" class="edge">
<title>Node4&#45;&gt;Node7</title>
<g id="a_edge7_Node000004_Node000007"><a xlink:title=" ">
<path fill="none" stroke="#63b8ff" d="M328.21,-166.67C370.78,-159.81 434.11,-147.57 487,-129 504.82,-122.74 507.29,-116.56 525,-110 567.99,-94.06 618.94,-81.92 655.11,-74.38"/>
<polygon fill="#63b8ff" stroke="#63b8ff" points="656.27,-77.72 665.37,-72.28 654.87,-70.86 656.27,-77.72"/>
</a>
</g>
</g>
<!-- Node8&#45;&gt;Node2 -->
<g id="edge9_Node000008_Node000002" class="edge">
<title>Node8&#45;&gt;Node2</title>
<g id="a_edge9_Node000008_Node000002"><a xlink:title=" ">
<path fill="none" stroke="#63b8ff" d="M151.8,-274.95C158.57,-242.88 182.56,-129.2 192.07,-84.12"/>
<polygon fill="#63b8ff" stroke="#63b8ff" points="195.52,-84.73 194.16,-74.22 188.67,-83.29 195.52,-84.73"/>
</a>
</g>
</g>
<!-- Node9 -->
<g id="Node000009" class="node">
<title>Node9</title>
<g id="a_Node000009"><a xlink:href="SocketTimer_8h.html" target="_top" xlink:title=" ">
<polygon fill="white" stroke="#666666" points="129.5,-239 28.5,-239 28.5,-220 129.5,-220 129.5,-239"/>
<text text-anchor="middle" x="79" y="-227" font-family="Helvetica,sans-Serif" font-size="10.00">core/SocketTimer.h</text>
</a>
</g>
</g>
<!-- Node8&#45;&gt;Node9 -->
<g id="edge10_Node000008_Node000009" class="edge">
<title>Node8&#45;&gt;Node9</title>
<g id="a_edge10_Node000008_Node000009"><a xlink:title=" ">
<path fill="none" stroke="#63b8ff" d="M138.59,-274.98C127.89,-267 111.66,-254.88 98.84,-245.31"/>
<polygon fill="#63b8ff" stroke="#63b8ff" points="100.72,-242.35 90.61,-239.17 96.53,-247.96 100.72,-242.35"/>
</a>
</g>
</g>
<!-- Node8&#45;&gt;Node11 -->
<g id="edge13_Node000008_Node000011" class="edge">
<title>Node8&#45;&gt;Node11</title>
<g id="a_edge13_Node000008_Node000011"><a xlink:title=" ">
<path fill="none" stroke="#63b8ff" d="M173.3,-274.98C197.25,-266.23 234.78,-252.51 261.83,-242.62"/>
<polygon fill="#63b8ff" stroke="#63b8ff" points="263.09,-245.89 271.28,-239.17 260.69,-239.32 263.09,-245.89"/>
</a>
</g>
</g>
<!-- Node9&#45;&gt;Node2 -->
<g id="edge11_Node000009_Node000002" class="edge">
<title>Node9&#45;&gt;Node2</title>
<g id="a_edge11_Node000009_Node000002"><a xlink:title=" ">
<path fill="none" stroke="#63b8ff" d="M75.01,-219.8C69.8,-207.09 62.31,-183.02 71,-165 90.89,-123.74 137.13,-94.31 167.45,-78.62"/>
<polygon fill="#63b8ff" stroke="#63b8ff" points="169.3,-81.6 176.68,-74 166.17,-75.34 169.3,-81.6"/>
</a>
</g>
</g>
<!-- Node10 -->
<g id="Node000010" class="node">
<title>Node10</title>
<g id="a_Node000010"><a xlink:title=" ">
<polygon fill="#e0e0e0" stroke="#999999" points="129.5,-184 80.5,-184 80.5,-165 129.5,-165 129.5,-184"/>
<text text-anchor="middle" x="105" y="-172" font-family="Helvetica,sans-Serif" font-size="10.00">stdint.h</text>
</a>
</g>
</g>
<!-- Node9&#45;&gt;Node10 -->
<g id="edge12_Node000009_Node000010" class="edge">
<title>Node9&#45;&gt;Node10</title>
<g id="a_edge12_Node000009_Node000010"><a xlink:title=" ">
<path fill="none" stroke="#63b8ff" d="M83.29,-219.75C86.81,-212.57 91.91,-202.18 96.28,-193.27"/>
<polygon fill="#63b8ff" stroke="#63b8ff" points="99.52,-194.61 100.79,-184.09 93.24,-191.53 99.52,-194.61"/>
</a>
</g>
</g>
<!-- Node11&#45;&gt;Node2 -->
<g id="edge14_Node000011_Node000002" class="edge">
<title>Node11&#45;&gt;Node2</title>
<g id="a_edge14_Node000011_Node000002"><a xlink:title=" ">
<path fill="none" stroke="#63b8ff" d="M272.1,-219.98C255.96,-212.81 235.13,-200.98 223,-184 201.5,-153.92 196.78,-109.49 195.95,-84.46"/>
<polygon fill="#63b8ff" stroke="#63b8ff" points="199.44,-84.1 195.79,-74.15 192.44,-84.21 199.44,-84.1"/>
</a>
</g>
</g>
<!-- Node11&#45;&gt;Node4 -->
<g id="edge24_Node000011_Node000004" class="edge">
<title>Node11&#45;&gt;Node4</title>
<g id="a_edge24_Node000011_Node000004"><a xlink:title=" ">
<path fill="none" stroke="#63b8ff" d="M292.52,-219.75C290.54,-212.72 287.68,-202.62 285.19,-193.84"/>
<polygon fill="#63b8ff" stroke="#63b8ff" points="288.52,-192.76 282.43,-184.09 281.79,-194.66 288.52,-192.76"/>
</a>
</g>
</g>
<!-- Node12 -->
<g id="Node000012" class="node">
<title>Node12</title>
<g id="a_Node000012"><a xlink:href="SocketConfig_8h.html" target="_top" xlink:title=" ">
<polygon fill="white" stroke="#666666" points="1142,-129 1036,-129 1036,-110 1142,-110 1142,-129"/>
<text text-anchor="middle" x="1089" y="-117" font-family="Helvetica,sans-Serif" font-size="10.00">core/SocketConfig.h</text>
</a>
</g>
</g>
<!-- Node11&#45;&gt;Node12 -->
<g id="edge15_Node000011_Node000012" class="edge">
<title>Node11&#45;&gt;Node12</title>
<g id="a_edge15_Node000011_Node000012"><a xlink:title=" ">
<path fill="none" stroke="#63b8ff" d="M339.2,-225.99C424.02,-220.82 615.4,-207.47 775,-184 870.97,-169.89 981.92,-145.53 1042.89,-131.44"/>
<polygon fill="#63b8ff" stroke="#63b8ff" points="1044.01,-134.77 1052.96,-129.1 1042.43,-127.95 1044.01,-134.77"/>
</a>
</g>
</g>
<!-- Node19 -->
<g id="Node000019" class="node">
<title>Node19</title>
<g id="a_Node000019"><a xlink:href="SocketCommon_8h.html" target="_top" xlink:title=" ">
<polygon fill="white" stroke="#666666" points="766,-184 638,-184 638,-165 766,-165 766,-184"/>
<text text-anchor="middle" x="702" y="-172" font-family="Helvetica,sans-Serif" font-size="10.00">socket/SocketCommon.h</text>
</a>
</g>
</g>
<!-- Node11&#45;&gt;Node19 -->
<g id="edge25_Node000011_Node000019" class="edge">
<title>Node11&#45;&gt;Node19</title>
<g id="a_edge25_Node000011_Node000019"><a xlink:title=" ">
<path fill="none" stroke="#63b8ff" d="M339.33,-222.73C408.62,-213.7 543.37,-196.16 627.69,-185.18"/>
<polygon fill="#63b8ff" stroke="#63b8ff" points="628.25,-188.63 637.71,-183.87 627.34,-181.69 628.25,-188.63"/>
</a>
</g>
</g>
<!-- Node12&#45;&gt;Node6 -->
<g id="edge19_Node000012_Node000006" class="edge">
<title>Node12&#45;&gt;Node6</title>
<g id="a_edge19_Node000012_Node000006"><a xlink:title=" ">
<path fill="none" stroke="#63b8ff" d="M1035.81,-113.94C1020.68,-112.66 1004.19,-111.26 989,-110 796.67,-94 566.26,-75.46 478.42,-68.42"/>
<polygon fill="#63b8ff" stroke="#63b8ff" points="478.44,-64.91 468.19,-67.6 477.88,-71.89 478.44,-64.91"/>
</a>
</g>
</g>
<!-- Node12&#45;&gt;Node7 -->
<g id="edge21_Node000012_Node000007" class="edge">
<title>Node12&#45;&gt;Node7</title>
<g id="a_edge21_Node000012_Node000007"><a xlink:title=" ">
<path fill="none" stroke="#63b8ff" d="M1035.6,-111.19C959.51,-100.77 821.13,-81.81 748.83,-71.91"/>
<polygon fill="#63b8ff" stroke="#63b8ff" points="749.04,-68.41 738.66,-70.52 748.09,-75.34 749.04,-68.41"/>
</a>
</g>
</g>
<!-- Node13 -->
<g id="Node000013" class="node">
<title>Node13</title>
<g id="a_Node000013"><a xlink:title=" ">
<polygon fill="#e0e0e0" stroke="#999999" points="1282.5,-74 1235.5,-74 1235.5,-55 1282.5,-55 1282.5,-74"/>
<text text-anchor="middle" x="1259" y="-62" font-family="Helvetica,sans-Serif" font-size="10.00">errno.h</text>
</a>
</g>
</g>
<!-- Node12&#45;&gt;Node13 -->
<g id="edge16_Node000012_Node000013" class="edge">
<title>Node12&#45;&gt;Node13</title>
<g id="a_edge16_Node000012_Node000013"><a xlink:title=" ">
<path fill="none" stroke="#63b8ff" d="M1116.31,-109.98C1146.04,-100.72 1193.59,-85.89 1225.54,-75.93"/>
<polygon fill="#63b8ff" stroke="#63b8ff" points="1226.81,-79.2 1235.32,-72.88 1224.73,-72.52 1226.81,-79.2"/>
</a>
</g>
</g>
<!-- Node14 -->
<g id="Node000014" class="node">
<title>Node14</title>
<g id="a_Node000014"><a xlink:title=" ">
<polygon fill="#e0e0e0" stroke="#999999" points="879,-74 835,-74 835,-55 879,-55 879,-74"/>
<text text-anchor="middle" x="857" y="-62" font-family="Helvetica,sans-Serif" font-size="10.00">fcntl.h</text>
</a>
</g>
</g>
<!-- Node12&#45;&gt;Node14 -->
<g id="edge17_Node000012_Node000014" class="edge">
<title>Node12&#45;&gt;Node14</title>
<g id="a_edge17_Node000012_Node000014"><a xlink:title=" ">
<path fill="none" stroke="#63b8ff" d="M1051.73,-109.98C1006.64,-99.69 931.52,-82.52 888.96,-72.8"/>
<polygon fill="#63b8ff" stroke="#63b8ff" points="889.66,-69.37 879.14,-70.56 888.1,-76.2 889.66,-69.37"/>
</a>
</g>
</g>
<!-- Node15 -->
<g id="Node000015" class="node">
<title>Node15</title>
<g id="a_Node000015"><a xlink:title=" ">
<polygon fill="#e0e0e0" stroke="#999999" points="1009.5,-74 944.5,-74 944.5,-55 1009.5,-55 1009.5,-74"/>
<text text-anchor="middle" x="977" y="-62" font-family="Helvetica,sans-Serif" font-size="10.00">netinet/in.h</text>
</a>
</g>
</g>
<!-- Node12&#45;&gt;Node15 -->
<g id="edge18_Node000012_Node000015" class="edge">
<title>Node12&#45;&gt;Node15</title>
<g id="a_edge18_Node000012_Node000015"><a xlink:title=" ">
<path fill="none" stroke="#63b8ff" d="M1071.01,-109.98C1053.07,-101.5 1025.28,-88.35 1004.57,-78.54"/>
<polygon fill="#63b8ff" stroke="#63b8ff" points="1005.86,-75.28 995.32,-74.17 1002.86,-81.61 1005.86,-75.28"/>
</a>
</g>
</g>
<!-- Node16 -->
<g id="Node000016" class="node">
<title>Node16</title>
<g id="a_Node000016"><a xlink:title=" ">
<polygon fill="#e0e0e0" stroke="#999999" points="1074,-74 1028,-74 1028,-55 1074,-55 1074,-74"/>
<text text-anchor="middle" x="1051" y="-62" font-family="Helvetica,sans-Serif" font-size="10.00">stdio.h</text>
</a>
</g>
</g>
<!-- Node12&#45;&gt;Node16 -->
<g id="edge20_Node000012_Node000016" class="edge">
<title>Node12&#45;&gt;Node16</title>
<g id="a_edge20_Node000012_Node000016"><a xlink:title=" ">
<path fill="none" stroke="#63b8ff" d="M1082.73,-109.75C1077.41,-102.34 1069.64,-91.5 1063.12,-82.41"/>
<polygon fill="#63b8ff" stroke="#63b8ff" points="1065.83,-80.18 1057.16,-74.09 1060.14,-84.26 1065.83,-80.18"/>
</a>
</g>
</g>
<!-- Node17 -->
<g id="Node000017" class="node">
<title>Node17</title>
<g id="a_Node000017"><a xlink:title=" ">
<polygon fill="#e0e0e0" stroke="#999999" points="1148,-74 1092,-74 1092,-55 1148,-55 1148,-74"/>
<text text-anchor="middle" x="1120" y="-62" font-family="Helvetica,sans-Serif" font-size="10.00">sys/uio.h</text>
</a>
</g>
</g>
<!-- Node12&#45;&gt;Node17 -->
<g id="edge22_Node000012_Node000017" class="edge">
<title>Node12&#45;&gt;Node17</title>
<g id="a_edge22_Node000012_Node000017"><a xlink:title=" ">
<path fill="none" stroke="#63b8ff" d="M1094.12,-109.75C1098.36,-102.49 1104.53,-91.95 1109.78,-82.98"/>
<polygon fill="#63b8ff" stroke="#63b8ff" points="1112.95,-84.49 1114.98,-74.09 1106.91,-80.95 1112.95,-84.49"/>
</a>
</g>
</g>
<!-- Node18 -->
<g id="Node000018" class="node">
<title>Node18</title>
<g id="a_Node000018"><a xlink:title=" ">
<polygon fill="#e0e0e0" stroke="#999999" points="1217.5,-74 1166.5,-74 1166.5,-55 1217.5,-55 1217.5,-74"/>
<text text-anchor="middle" x="1192" y="-62" font-family="Helvetica,sans-Serif" font-size="10.00">unistd.h</text>
</a>
</g>
</g>
<!-- Node12&#45;&gt;Node18 -->
<g id="edge23_Node000012_Node000018" class="edge">
<title>Node12&#45;&gt;Node18</title>
<g id="a_edge23_Node000012_Node000018"><a xlink:title=" ">
<path fill="none" stroke="#63b8ff" d="M1105.55,-109.98C1121.89,-101.57 1147.13,-88.59 1166.13,-78.81"/>
<polygon fill="#63b8ff" stroke="#63b8ff" points="1167.86,-81.86 1175.15,-74.17 1164.66,-75.63 1167.86,-81.86"/>
</a>
</g>
</g>
<!-- Node19&#45;&gt;Node2 -->
<g id="edge38_Node000019_Node000002" class="edge">
<title>Node19&#45;&gt;Node2</title>
<g id="a_edge38_Node000019_Node000002"><a xlink:title=" ">
<path fill="none" stroke="#63b8ff" d="M637.89,-170.09C575.25,-165.38 477.79,-154.37 397,-129 378.98,-123.34 376.64,-116.74 359,-110 321.38,-95.62 277.23,-83.87 244.37,-76.06"/>
<polygon fill="#63b8ff" stroke="#63b8ff" points="245.09,-72.63 234.56,-73.76 243.5,-79.45 245.09,-72.63"/>
</a>
</g>
</g>
<!-- Node19&#45;&gt;Node5 -->
<g id="edge29_Node000019_Node000005" class="edge">
<title>Node19&#45;&gt;Node5</title>
<g id="a_edge29_Node000019_Node000005"><a xlink:title=" ">
<path fill="none" stroke="#63b8ff" d="M637.9,-166.68C569.74,-159.05 458.89,-145.56 364,-129 362.55,-128.75 361.07,-128.48 359.58,-128.2"/>
<polygon fill="#63b8ff" stroke="#63b8ff" points="360.19,-124.75 349.7,-126.21 358.81,-131.61 360.19,-124.75"/>
</a>
</g>
</g>
<!-- Node19&#45;&gt;Node7 -->
<g id="edge31_Node000019_Node000007" class="edge">
<title>Node19&#45;&gt;Node7</title>
<g id="a_edge31_Node000019_Node000007"><a xlink:title=" ">
<path fill="none" stroke="#63b8ff" d="M702,-164.66C702,-147.17 702,-107.8 702,-84.27"/>
<polygon fill="#63b8ff" stroke="#63b8ff" points="705.5,-84.16 702,-74.16 698.5,-84.16 705.5,-84.16"/>
</a>
</g>
</g>
<!-- Node19&#45;&gt;Node12 -->
<g id="edge39_Node000019_Node000012" class="edge">
<title>Node19&#45;&gt;Node12</title>
<g id="a_edge39_Node000019_Node000012"><a xlink:title=" ">
<path fill="none" stroke="#63b8ff" d="M764.18,-164.98C835.96,-155.15 953.41,-139.07 1025.68,-129.17"/>
<polygon fill="#63b8ff" stroke="#63b8ff" points="1026.57,-132.58 1036,-127.76 1025.62,-125.65 1026.57,-132.58"/>
</a>
</g>
</g>
<!-- Node19&#45;&gt;Node14 -->
<g id="edge28_Node000019_Node000014" class="edge">
<title>Node19&#45;&gt;Node14</title>
<g id="a_edge28_Node000019_Node000014"><a xlink:title=" ">
<path fill="none" stroke="#63b8ff" d="M708.08,-164.65C717.62,-151.31 737.26,-125.94 759,-110 779.24,-95.16 805.21,-83.64 825.34,-76.05"/>
<polygon fill="#63b8ff" stroke="#63b8ff" points="826.78,-79.24 834.98,-72.53 824.39,-72.67 826.78,-79.24"/>
</a>
</g>
</g>
<!-- Node19&#45;&gt;Node15 -->
<g id="edge30_Node000019_Node000015" class="edge">
<title>Node19&#45;&gt;Node15</title>
<g id="a_edge30_Node000019_Node000015"><a xlink:title=" ">
<path fill="none" stroke="#63b8ff" d="M766.3,-172.88C841.97,-170.62 960.91,-161.78 989,-129 999.81,-116.39 994.1,-97.12 987.37,-83.12"/>
<polygon fill="#63b8ff" stroke="#63b8ff" points="990.3,-81.19 982.5,-74.02 984.13,-84.49 990.3,-81.19"/>
</a>
</g>
</g>
<!-- Node20 -->
<g id="Node000020" class="node">
<title>Node20</title>
<g id="a_Node000020"><a xlink:title=" ">
<polygon fill="#e0e0e0" stroke="#999999" points="824,-129 768,-129 768,-110 824,-110 824,-129"/>
<text text-anchor="middle" x="796" y="-117" font-family="Helvetica,sans-Serif" font-size="10.00">stdbool.h</text>
</a>
</g>
</g>
<!-- Node19&#45;&gt;Node20 -->
<g id="edge26_Node000019_Node000020" class="edge">
<title>Node19&#45;&gt;Node20</title>
<g id="a_edge26_Node000019_Node000020"><a xlink:title=" ">
<path fill="none" stroke="#63b8ff" d="M717.1,-164.98C731.82,-156.69 754.42,-143.94 771.67,-134.22"/>
<polygon fill="#63b8ff" stroke="#63b8ff" points="773.63,-137.13 780.62,-129.17 770.19,-131.03 773.63,-137.13"/>
</a>
</g>
</g>
<!-- Node21 -->
<g id="Node000021" class="node">
<title>Node21</title>
<g id="a_Node000021"><a xlink:title=" ">
<polygon fill="#e0e0e0" stroke="#999999" points="899.5,-129 842.5,-129 842.5,-110 899.5,-110 899.5,-129"/>
<text text-anchor="middle" x="871" y="-117" font-family="Helvetica,sans-Serif" font-size="10.00">pthread.h</text>
</a>
</g>
</g>
<!-- Node19&#45;&gt;Node21 -->
<g id="edge27_Node000019_Node000021" class="edge">
<title>Node19&#45;&gt;Node21</title>
<g id="a_edge27_Node000019_Node000021"><a xlink:title=" ">
<path fill="none" stroke="#63b8ff" d="M729.15,-164.98C757.53,-156.09 802.23,-142.07 833.86,-132.15"/>
<polygon fill="#63b8ff" stroke="#63b8ff" points="835.14,-135.41 843.63,-129.08 833.05,-128.73 835.14,-135.41"/>
</a>
</g>
</g>
<!-- Node22 -->
<g id="Node000022" class="node">
<title>Node22</title>
<g id="a_Node000022"><a xlink:title=" ">
<polygon fill="#e0e0e0" stroke="#999999" points="980,-129 918,-129 918,-110 980,-110 980,-129"/>
<text text-anchor="middle" x="949" y="-117" font-family="Helvetica,sans-Serif" font-size="10.00">sys/time.h</text>
</a>
</g>
</g>
<!-- Node19&#45;&gt;Node22 -->
<g id="edge32_Node000019_Node000022" class="edge">
<title>Node19&#45;&gt;Node22</title>
<g id="a_edge32_Node000019_Node000022"><a xlink:title=" ">
<path fill="none" stroke="#63b8ff" d="M741.68,-164.98C787.2,-155.22 861.47,-139.28 907.67,-129.37"/>
<polygon fill="#63b8ff" stroke="#63b8ff" points="908.6,-132.75 917.64,-127.23 907.13,-125.9 908.6,-132.75"/>
</a>
</g>
</g>
<!-- Node23 -->
<g id="Node000023" class="node">
<title>Node23</title>
<g id="a_Node000023"><a xlink:title=" ">
<polygon fill="#e0e0e0" stroke="#999999" points="602,-129 534,-129 534,-110 602,-110 602,-129"/>
<text text-anchor="middle" x="568" y="-117" font-family="Helvetica,sans-Serif" font-size="10.00">sys/types.h</text>
</a>
</g>
</g>
<!-- Node19&#45;&gt;Node23 -->
<g id="edge33_Node000019_Node000023" class="edge">
<title>Node19&#45;&gt;Node23</title>
<g id="a_edge33_Node000019_Node000023"><a xlink:title=" ">
<path fill="none" stroke="#63b8ff" d="M680.47,-164.98C658.53,-156.3 624.26,-142.75 599.31,-132.88"/>
<polygon fill="#63b8ff" stroke="#63b8ff" points="600.51,-129.59 589.92,-129.17 597.93,-136.1 600.51,-129.59"/>
</a>
</g>
</g>
<!-- Node24 -->
<g id="Node000024" class="node">
<title>Node24</title>
<g id="a_Node000024"><a xlink:title=" ">
<polygon fill="#e0e0e0" stroke="#999999" points="674,-129 620,-129 620,-110 674,-110 674,-129"/>
<text text-anchor="middle" x="647" y="-117" font-family="Helvetica,sans-Serif" font-size="10.00">sys/un.h</text>
</a>
</g>
</g>
<!-- Node19&#45;&gt;Node24 -->
<g id="edge34_Node000019_Node000024" class="edge">
<title>Node19&#45;&gt;Node24</title>
<g id="a_edge34_Node000019_Node000024"><a xlink:title=" ">
<path fill="none" stroke="#63b8ff" d="M692.92,-164.75C684.91,-157.03 673.04,-145.6 663.38,-136.28"/>
<polygon fill="#63b8ff" stroke="#63b8ff" points="665.54,-133.51 655.91,-129.09 660.69,-138.55 665.54,-133.51"/>
</a>
</g>
</g>
<!-- Node25 -->
<g id="Node000025" class="node">
<title>Node25</title>
<g id="a_Node000025"><a xlink:href="Arena_8h.html" target="_top" xlink:title=" ">
<polygon fill="white" stroke="#666666" points="478,-129 406,-129 406,-110 478,-110 478,-129"/>
<text text-anchor="middle" x="442" y="-117" font-family="Helvetica,sans-Serif" font-size="10.00">core/Arena.h</text>
</a>
</g>
</g>
<!-- Node19&#45;&gt;Node25 -->
<g id="edge35_Node000019_Node000025" class="edge">
<title>Node19&#45;&gt;Node25</title>
<g id="a_edge35_Node000019_Node000025"><a xlink:title=" ">
<path fill="none" stroke="#63b8ff" d="M660.23,-164.98C613.19,-155.4 536.97,-139.86 488.19,-129.92"/>
<polygon fill="#63b8ff" stroke="#63b8ff" points="488.72,-126.45 478.22,-127.88 487.32,-133.31 488.72,-126.45"/>
</a>
</g>
</g>
<!-- Node25&#45;&gt;Node2 -->
<g id="edge37_Node000025_Node000002" class="edge">
<title>Node25&#45;&gt;Node2</title>
<g id="a_edge37_Node000025_Node000002"><a xlink:title=" ">
<path fill="none" stroke="#63b8ff" d="M405.97,-110.74C363.32,-101.55 292.12,-86.21 244.62,-75.97"/>
<polygon fill="#63b8ff" stroke="#63b8ff" points="245.08,-72.49 234.56,-73.81 243.6,-79.34 245.08,-72.49"/>
</a>
</g>
</g>
<!-- Node25&#45;&gt;Node6 -->
<g id="edge36_Node000025_Node000006" class="edge">
<title>Node25&#45;&gt;Node6</title>
<g id="a_edge36_Node000025_Node000006"><a xlink:title=" ">
<path fill="none" stroke="#63b8ff" d="M442,-109.75C442,-102.8 442,-92.85 442,-84.13"/>
<polygon fill="#63b8ff" stroke="#63b8ff" points="445.5,-84.09 442,-74.09 438.5,-84.09 445.5,-84.09"/>
</a>
</g>
</g>
</g>
</svg>

<g id="navigator" transform="translate(0 0)" fill="#404254">
  <rect fill="#f2f5e9" fill-opacity="0.5" stroke="#606060" stroke-width=".5" x="0" y="0" width="60" height="60"/>
  <use id="zoomplus" xlink:href="#zoomPlus" x="17" y="9" onmousedown="handleZoom(evt,'in')"/>
  <use id="zoomminus" xlink:href="#zoomMin" x="42" y="9" onmousedown="handleZoom(evt,'out')"/>
  <use id="reset" xlink:href="#resetDef" x="30" y="36" onmousedown="handleReset()"/>
   <use id="arrowup" xlink:href="#arrowUp" x="0" y="0" onmousedown="handlePan(0,-1)"/>
  <use id="arrowright" xlink:href="#arrowRight" x="0" y="0" onmousedown="handlePan(1,0)"/>
  <use id="arrowdown" xlink:href="#arrowDown" x="0" y="0" onmousedown="handlePan(0,1)"/>
  <use id="arrowleft" xlink:href="#arrowLeft" x="0" y="0" onmousedown="handlePan(-1,0)"/>
</g>
<svg viewBox="0 0 15 15" width="100%" height="30px" preserveAspectRatio="xMaxYMin meet">
 <g id="arrow_out" transform="scale(0.3 0.3)">
  <a xlink:href="SocketHappyEyeballs_8h__incl_org.svg" target="_base">
   <rect id="button" ry="5" rx="5" y="6" x="6" height="38" width="38"
        fill="#f2f5e9" fill-opacity="0.5" stroke="#606060" stroke-width="1.0"/>
   <path id="arrow"
     d="M 11.500037,31.436501 C 11.940474,20.09759 22.043105,11.32322 32.158766,21.979434 L 37.068811,17.246167 C 37.068811,17.246167 37.088388,32 37.088388,32 L 22.160133,31.978069 C 22.160133,31.978069 26.997745,27.140456 26.997745,27.140456 C 18.528582,18.264221 13.291696,25.230495 11.500037,31.436501 z"
     style="fill:#404040;"/>
  </a>
 </g>
</svg>

<style type='text/css'>
<![CDATA[
[data-mouse-over-selected='false'] { opacity: 0.7; }
[data-mouse-over-selected='true']  { opacity: 1.0; }
]]>
</style>
<script type="application/ecmascript"><![CDATA[
document.addEventListener('DOMContentLoaded', (event) => {
  highlightEdges();
  highlightAdjacentNodes();
});
]]></script>
</svg>
