<?xml version="1.0" encoding="UTF-8" standalone="no"?>
<!DOCTYPE svg PUBLIC "-//W3C//DTD SVG 1.1//EN"
 "http://www.w3.org/Graphics/SVG/1.1/DTD/svg11.dtd">
<!-- Generated by graphviz version 2.43.0 (0)
 -->
<!-- Title: SocketHappyEyeballs&#45;private.h Pages: 1 -->
<!--zoomable 423 -->

<svg id="main" version="1.1" xmlns="http://www.w3.org/2000/svg" xmlns:xlink="http://www.w3.org/1999/xlink" xml:space="preserve" onload="init(evt)">
<style type="text/css"><![CDATA[
.node, .edge {opacity: 0.7;}
.node.selected, .edge.selected {opacity: 1;}
.edge:hover path { stroke: red; }
.edge:hover polygon { stroke: red; fill: red; }
]]></style>

<defs>
  <circle id="rim" cx="0" cy="0" r="7"/>
  <circle id="rim2" cx="0" cy="0" r="3.5"/>
  <g id="zoomPlus">
    <use xlink:href="#rim" fill="#404040"><set attributeName="fill" to="#808080" begin="zoomplus.mouseover" end="zoomplus.mouseout"/></use>
    <path d="M-4,0h8M0,-4v8" fill="none" stroke="white" stroke-width="1.5" pointer-events="none"/>
  </g>
  <g id="zoomMin">
    <use xlink:href="#rim" fill="#404040"><set attributeName="fill" to="#808080" begin="zoomminus.mouseover" end="zoomminus.mouseout"/></use>
    <path d="M-4,0h8" fill="none" stroke="white" stroke-width="1.5" pointer-events="none"/>
  </g>
  <g id="arrowUp" transform="translate(30 24)">
    <use xlink:href="#rim"/>
    <path pointer-events="none" fill="none" stroke="white" stroke-width="1.5" d="M0,-3.0v7 M-2.5,-0.5L0,-3.0L2.5,-0.5"/>
  </g>
  <g id="arrowRight" transform="rotate(90) translate(36 -43)">
    <use xlink:href="#rim"/>
    <path pointer-events="none" fill="none" stroke="white" stroke-width="1.5" d="M0,-3.0v7 M-2.5,-0.5L0,-3.0L2.5,-0.5"/>
  </g>
  <g id="arrowDown" transform="rotate(180) translate(-30 -48)">
    <use xlink:href="#rim"/>
    <path pointer-events="none" fill="none" stroke="white" stroke-width="1.5" d="M0,-3.0v7 M-2.5,-0.5L0,-3.0L2.5,-0.5"/>
  </g>
  <g id="arrowLeft" transform="rotate(270) translate(-36 17)">
    <use xlink:href="#rim"/>
    <path pointer-events="none" fill="none" stroke="white" stroke-width="1.5" d="M0,-3.0v7 M-2.5,-0.5L0,-3.0L2.5,-0.5"/>
  </g>
  <g id="resetDef">
    <use xlink:href="#rim2" fill="#404040"><set attributeName="fill" to="#808080" begin="reset.mouseover" end="reset.mouseout"/></use>
  </g>
</defs>
<script type="application/ecmascript">
var viewWidth = 1748;
var viewHeight = 423;
var sectionId = 'dynsection-0';
</script>
<script type="application/ecmascript" xlink:href="svg.min.js"/>
<svg id="graph" class="graph">
<g id="viewport">
<title>SocketHappyEyeballs&#45;private.h</title>
<!-- Node1 -->
<g id="Node000001" class="node">
<title>Node1</title>
<g id="a_Node000001"><a xlink:title="Internal structures and state for Happy Eyeballs connection racing (RFC 8305).">
<polygon fill="#999999" stroke="#666666" points="1418.5,-415 1305.5,-415 1305.5,-385 1418.5,-385 1418.5,-415"/>
<text text-anchor="start" x="1313.5" y="-403" font-family="Helvetica,sans-Serif" font-size="10.00">SocketHappyEyeballs</text>
<text text-anchor="middle" x="1362" y="-392" font-family="Helvetica,sans-Serif" font-size="10.00">&#45;private.h</text>
</a>
</g>
</g>
<!-- Node2 -->
<g id="Node000002" class="node">
<title>Node2</title>
<g id="a_Node000002"><a xlink:href="Arena_8h.html" target="_top" xlink:title="Arena&#45;based memory allocator for efficient bulk memory management.">
<polygon fill="white" stroke="#666666" points="680,-129 608,-129 608,-110 680,-110 680,-129"/>
<text text-anchor="middle" x="644" y="-117" font-family="Helvetica,sans-Serif" font-size="10.00">core/Arena.h</text>
</a>
</g>
</g>
<!-- Node1&#45;&gt;Node2 -->
<g id="edge1_Node000001_Node000002" class="edge">
<title>Node1&#45;&gt;Node2</title>
<g id="a_edge1_Node000001_Node000002"><a xlink:title=" ">
<path fill="none" stroke="#63b8ff" d="M1305.34,-395.72C1139.38,-385.35 666,-350.12 666,-285.5 666,-285.5 666,-285.5 666,-228.5 666,-196.4 656.55,-159.99 650.04,-138.71"/>
<polygon fill="#63b8ff" stroke="#63b8ff" points="653.34,-137.53 646.97,-129.06 646.67,-139.65 653.34,-137.53"/>
</a>
</g>
</g>
<!-- Node6 -->
<g id="Node000006" class="node">
<title>Node6</title>
<g id="a_Node000006"><a xlink:href="SocketDNS-private_8h.html" target="_top" xlink:title="Internal structures, enums, and prototypes for asynchronous DNS resolver implementation.">
<polygon fill="white" stroke="#666666" points="914,-239 786,-239 786,-220 914,-220 914,-239"/>
<text text-anchor="middle" x="850" y="-227" font-family="Helvetica,sans-Serif" font-size="10.00">dns/SocketDNS&#45;private.h</text>
</a>
</g>
</g>
<!-- Node1&#45;&gt;Node6 -->
<g id="edge5_Node000001_Node000006" class="edge">
<title>Node1&#45;&gt;Node6</title>
<g id="a_edge5_Node000001_Node000006"><a xlink:title=" ">
<path fill="none" stroke="#63b8ff" d="M1319.23,-384.92C1220.31,-352.37 977.22,-272.37 885.66,-242.24"/>
<polygon fill="#63b8ff" stroke="#63b8ff" points="886.61,-238.86 876.02,-239.06 884.42,-245.51 886.61,-238.86"/>
</a>
</g>
</g>
<!-- Node7 -->
<g id="Node000007" class="node">
<title>Node7</title>
<g id="a_Node000007"><a xlink:title=" ">
<polygon fill="#e0e0e0" stroke="#999999" points="1363.5,-129 1314.5,-129 1314.5,-110 1363.5,-110 1363.5,-129"/>
<text text-anchor="middle" x="1339" y="-117" font-family="Helvetica,sans-Serif" font-size="10.00">netdb.h</text>
</a>
</g>
</g>
<!-- Node1&#45;&gt;Node7 -->
<g id="edge70_Node000001_Node000007" class="edge">
<title>Node1&#45;&gt;Node7</title>
<g id="a_edge70_Node000001_Node000007"><a xlink:title=" ">
<path fill="none" stroke="#63b8ff" d="M1358.95,-384.63C1356.95,-374.67 1354.45,-361.08 1353,-349 1343.69,-271.59 1340.43,-178.64 1339.41,-139.42"/>
<polygon fill="#63b8ff" stroke="#63b8ff" points="1342.91,-139.16 1339.17,-129.25 1335.91,-139.33 1342.91,-139.16"/>
</a>
</g>
</g>
<!-- Node12 -->
<g id="Node000012" class="node">
<title>Node12</title>
<g id="a_Node000012"><a xlink:title=" ">
<polygon fill="#e0e0e0" stroke="#999999" points="110,-129 66,-129 66,-110 110,-110 110,-129"/>
<text text-anchor="middle" x="88" y="-117" font-family="Helvetica,sans-Serif" font-size="10.00">time.h</text>
</a>
</g>
</g>
<!-- Node1&#45;&gt;Node12 -->
<g id="edge72_Node000001_Node000012" class="edge">
<title>Node1&#45;&gt;Node12</title>
<g id="a_edge72_Node000001_Node000012"><a xlink:title=" ">
<path fill="none" stroke="#63b8ff" d="M1305.21,-397.29C1047.44,-389.17 0,-352.09 0,-285.5 0,-285.5 0,-285.5 0,-228.5 0,-187.39 38.79,-153.26 64.86,-134.97"/>
<polygon fill="#63b8ff" stroke="#63b8ff" points="67.13,-137.66 73.47,-129.17 63.22,-131.85 67.13,-137.66"/>
</a>
</g>
</g>
<!-- Node24 -->
<g id="Node000024" class="node">
<title>Node24</title>
<g id="a_Node000024"><a xlink:title=" ">
<polygon fill="#e0e0e0" stroke="#999999" points="1583.5,-129 1534.5,-129 1534.5,-110 1583.5,-110 1583.5,-129"/>
<text text-anchor="middle" x="1559" y="-117" font-family="Helvetica,sans-Serif" font-size="10.00">stdint.h</text>
</a>
</g>
</g>
<!-- Node1&#45;&gt;Node24 -->
<g id="edge71_Node000001_Node000024" class="edge">
<title>Node1&#45;&gt;Node24</title>
<g id="a_edge71_Node000001_Node000024"><a xlink:title=" ">
<path fill="none" stroke="#63b8ff" d="M1373.96,-384.87C1396.92,-357.49 1448.33,-294.97 1487,-239 1511.07,-204.17 1536.05,-161.27 1549.33,-137.82"/>
<polygon fill="#63b8ff" stroke="#63b8ff" points="1552.41,-139.48 1554.27,-129.05 1546.31,-136.04 1552.41,-139.48"/>
</a>
</g>
</g>
<!-- Node29 -->
<g id="Node000029" class="node">
<title>Node29</title>
<g id="a_Node000029"><a xlink:href="SocketDNS_8h.html" target="_top" xlink:title="Asynchronous DNS resolution API.">
<polygon fill="white" stroke="#666666" points="1478,-184 1382,-184 1382,-165 1478,-165 1478,-184"/>
<text text-anchor="middle" x="1430" y="-172" font-family="Helvetica,sans-Serif" font-size="10.00">dns/SocketDNS.h</text>
</a>
</g>
</g>
<!-- Node1&#45;&gt;Node29 -->
<g id="edge49_Node000001_Node000029" class="edge">
<title>Node1&#45;&gt;Node29</title>
<g id="a_edge49_Node000001_Node000029"><a xlink:title=" ">
<path fill="none" stroke="#63b8ff" d="M1360.22,-384.58C1356.99,-352.86 1352.86,-275.46 1381,-220 1387.03,-208.11 1397.66,-197.86 1407.48,-190.2"/>
<polygon fill="#63b8ff" stroke="#63b8ff" points="1409.75,-192.88 1415.77,-184.16 1405.62,-187.22 1409.75,-192.88"/>
</a>
</g>
</g>
<!-- Node30 -->
<g id="Node000030" class="node">
<title>Node30</title>
<g id="a_Node000030"><a xlink:href="SocketPoll_8h.html" target="_top" xlink:title="Cross&#45;platform high&#45;level interface for monitoring multiple sockets for I/O events.">
<polygon fill="white" stroke="#666666" points="1668,-294 1578,-294 1578,-275 1668,-275 1668,-294"/>
<text text-anchor="middle" x="1623" y="-282" font-family="Helvetica,sans-Serif" font-size="10.00">poll/SocketPoll.h</text>
</a>
</g>
</g>
<!-- Node1&#45;&gt;Node30 -->
<g id="edge54_Node000001_Node000030" class="edge">
<title>Node1&#45;&gt;Node30</title>
<g id="a_edge54_Node000001_Node000030"><a xlink:title=" ">
<path fill="none" stroke="#63b8ff" d="M1418.77,-398.68C1501.89,-396.87 1650.51,-388.1 1684,-349 1699.47,-330.94 1673.61,-311.38 1650.94,-298.81"/>
<polygon fill="#63b8ff" stroke="#63b8ff" points="1652.35,-295.6 1641.87,-294.04 1649.09,-301.79 1652.35,-295.6"/>
</a>
</g>
</g>
<!-- Node32 -->
<g id="Node000032" class="node">
<title>Node32</title>
<g id="a_Node000032"><a xlink:href="Socket_8h.html" target="_top" xlink:title="High&#45;level TCP/IP and Unix domain socket interface.">
<polygon fill="white" stroke="#666666" points="1478,-239 1390,-239 1390,-220 1478,-220 1478,-239"/>
<text text-anchor="middle" x="1434" y="-227" font-family="Helvetica,sans-Serif" font-size="10.00">socket/Socket.h</text>
</a>
</g>
</g>
<!-- Node1&#45;&gt;Node32 -->
<g id="edge64_Node000001_Node000032" class="edge">
<title>Node1&#45;&gt;Node32</title>
<g id="a_edge64_Node000001_Node000032"><a xlink:title=" ">
<path fill="none" stroke="#63b8ff" d="M1368.01,-384.92C1381.01,-354.52 1411.68,-282.73 1426.17,-248.83"/>
<polygon fill="#63b8ff" stroke="#63b8ff" points="1429.55,-249.83 1430.26,-239.25 1423.11,-247.08 1429.55,-249.83"/>
</a>
</g>
</g>
<!-- Node33 -->
<g id="Node000033" class="node">
<title>Node33</title>
<g id="a_Node000033"><a xlink:href="SocketHappyEyeballs_8h.html" target="_top" xlink:title="Happy Eyeballs (RFC 8305) implementation for fast dual&#45;stack connections.">
<polygon fill="white" stroke="#666666" points="1675,-349 1521,-349 1521,-330 1675,-330 1675,-349"/>
<text text-anchor="middle" x="1598" y="-337" font-family="Helvetica,sans-Serif" font-size="10.00">socket/SocketHappyEyeballs.h</text>
</a>
</g>
</g>
<!-- Node1&#45;&gt;Node33 -->
<g id="edge65_Node000001_Node000033" class="edge">
<title>Node1&#45;&gt;Node33</title>
<g id="a_edge65_Node000001_Node000033"><a xlink:title=" ">
<path fill="none" stroke="#63b8ff" d="M1418.53,-384.99C1459.96,-374.72 1515.43,-360.97 1553.67,-351.49"/>
<polygon fill="#63b8ff" stroke="#63b8ff" points="1554.63,-354.86 1563.49,-349.05 1552.94,-348.06 1554.63,-354.86"/>
</a>
</g>
</g>
<!-- Node3 -->
<g id="Node000003" class="node">
<title>Node3</title>
<g id="a_Node000003"><a xlink:title=" ">
<polygon fill="#e0e0e0" stroke="#999999" points="627,-74 575,-74 575,-55 627,-55 627,-74"/>
<text text-anchor="middle" x="601" y="-62" font-family="Helvetica,sans-Serif" font-size="10.00">stddef.h</text>
</a>
</g>
</g>
<!-- Node2&#45;&gt;Node3 -->
<g id="edge2_Node000002_Node000003" class="edge">
<title>Node2&#45;&gt;Node3</title>
<g id="a_edge2_Node000002_Node000003"><a xlink:title=" ">
<path fill="none" stroke="#63b8ff" d="M636.9,-109.75C630.83,-102.26 621.91,-91.28 614.49,-82.13"/>
<polygon fill="#63b8ff" stroke="#63b8ff" points="616.99,-79.65 607.97,-74.09 611.55,-84.06 616.99,-79.65"/>
</a>
</g>
</g>
<!-- Node4 -->
<g id="Node000004" class="node">
<title>Node4</title>
<g id="a_Node000004"><a xlink:href="Except_8h.html" target="_top" xlink:title="Structured exception handling for C with TRY/EXCEPT/FINALLY blocks.">
<polygon fill="white" stroke="#666666" points="1506.5,-74 1429.5,-74 1429.5,-55 1506.5,-55 1506.5,-74"/>
<text text-anchor="middle" x="1468" y="-62" font-family="Helvetica,sans-Serif" font-size="10.00">core/Except.h</text>
</a>
</g>
</g>
<!-- Node2&#45;&gt;Node4 -->
<g id="edge3_Node000002_Node000004" class="edge">
<title>Node2&#45;&gt;Node4</title>
<g id="a_edge3_Node000002_Node000004"><a xlink:title=" ">
<path fill="none" stroke="#63b8ff" d="M680.29,-111.23C683.23,-110.77 686.16,-110.35 689,-110 831.47,-92.55 1271.87,-73.5 1419.33,-67.45"/>
<polygon fill="#63b8ff" stroke="#63b8ff" points="1419.58,-70.94 1429.43,-67.04 1419.29,-63.95 1419.58,-70.94"/>
</a>
</g>
</g>
<!-- Node5 -->
<g id="Node000005" class="node">
<title>Node5</title>
<g id="a_Node000005"><a xlink:title=" ">
<polygon fill="#e0e0e0" stroke="#999999" points="1495,-19 1441,-19 1441,0 1495,0 1495,-19"/>
<text text-anchor="middle" x="1468" y="-7" font-family="Helvetica,sans-Serif" font-size="10.00">setjmp.h</text>
</a>
</g>
</g>
<!-- Node4&#45;&gt;Node5 -->
<g id="edge4_Node000004_Node000005" class="edge">
<title>Node4&#45;&gt;Node5</title>
<g id="a_edge4_Node000004_Node000005"><a xlink:title=" ">
<path fill="none" stroke="#63b8ff" d="M1468,-54.75C1468,-47.8 1468,-37.85 1468,-29.13"/>
<polygon fill="#63b8ff" stroke="#63b8ff" points="1471.5,-29.09 1468,-19.09 1464.5,-29.09 1471.5,-29.09"/>
</a>
</g>
</g>
<!-- Node6&#45;&gt;Node4 -->
<g id="edge13_Node000006_Node000004" class="edge">
<title>Node6&#45;&gt;Node4</title>
<g id="a_edge13_Node000006_Node000004"><a xlink:title=" ">
<path fill="none" stroke="#63b8ff" d="M914.06,-222.05C969.74,-215.5 1052.18,-203.49 1122,-184 1206.9,-160.3 1222.48,-138.16 1306,-110 1344.82,-96.91 1389.82,-84.79 1422.52,-76.51"/>
<polygon fill="#63b8ff" stroke="#63b8ff" points="1423.4,-79.9 1432.25,-74.07 1421.7,-73.11 1423.4,-79.9"/>
</a>
</g>
</g>
<!-- Node6&#45;&gt;Node7 -->
<g id="edge6_Node000006_Node000007" class="edge">
<title>Node6&#45;&gt;Node7</title>
<g id="a_edge6_Node000006_Node000007"><a xlink:title=" ">
<path fill="none" stroke="#63b8ff" d="M914.08,-228.33C1020.7,-227.02 1229.06,-219.78 1292,-184 1310.02,-173.76 1323.14,-153.48 1330.87,-138.58"/>
<polygon fill="#63b8ff" stroke="#63b8ff" points="1334.15,-139.84 1335.35,-129.32 1327.85,-136.8 1334.15,-139.84"/>
</a>
</g>
</g>
<!-- Node8 -->
<g id="Node000008" class="node">
<title>Node8</title>
<g id="a_Node000008"><a xlink:title=" ">
<polygon fill="#e0e0e0" stroke="#999999" points="755.5,-129 698.5,-129 698.5,-110 755.5,-110 755.5,-129"/>
<text text-anchor="middle" x="727" y="-117" font-family="Helvetica,sans-Serif" font-size="10.00">pthread.h</text>
</a>
</g>
</g>
<!-- Node6&#45;&gt;Node8 -->
<g id="edge7_Node000006_Node000008" class="edge">
<title>Node6&#45;&gt;Node8</title>
<g id="a_edge7_Node000006_Node000008"><a xlink:title=" ">
<path fill="none" stroke="#63b8ff" d="M839.93,-219.66C819.02,-201.3 770.63,-158.81 744.5,-135.87"/>
<polygon fill="#63b8ff" stroke="#63b8ff" points="746.68,-133.13 736.86,-129.16 742.07,-138.39 746.68,-133.13"/>
</a>
</g>
</g>
<!-- Node9 -->
<g id="Node000009" class="node">
<title>Node9</title>
<g id="a_Node000009"><a xlink:title=" ">
<polygon fill="#e0e0e0" stroke="#999999" points="830,-129 774,-129 774,-110 830,-110 830,-129"/>
<text text-anchor="middle" x="802" y="-117" font-family="Helvetica,sans-Serif" font-size="10.00">stdbool.h</text>
</a>
</g>
</g>
<!-- Node6&#45;&gt;Node9 -->
<g id="edge8_Node000006_Node000009" class="edge">
<title>Node6&#45;&gt;Node9</title>
<g id="a_edge8_Node000006_Node000009"><a xlink:title=" ">
<path fill="none" stroke="#63b8ff" d="M846.07,-219.66C838.19,-201.93 820.32,-161.73 809.92,-138.32"/>
<polygon fill="#63b8ff" stroke="#63b8ff" points="813.11,-136.87 805.85,-129.16 806.71,-139.72 813.11,-136.87"/>
</a>
</g>
</g>
<!-- Node10 -->
<g id="Node000010" class="node">
<title>Node10</title>
<g id="a_Node000010"><a xlink:title=" ">
<polygon fill="#e0e0e0" stroke="#999999" points="1167.5,-74 1094.5,-74 1094.5,-55 1167.5,-55 1167.5,-74"/>
<text text-anchor="middle" x="1131" y="-62" font-family="Helvetica,sans-Serif" font-size="10.00">sys/socket.h</text>
</a>
</g>
</g>
<!-- Node6&#45;&gt;Node10 -->
<g id="edge9_Node000006_Node000010" class="edge">
<title>Node6&#45;&gt;Node10</title>
<g id="a_edge9_Node000006_Node000010"><a xlink:title=" ">
<path fill="none" stroke="#63b8ff" d="M911.03,-219.95C1000.25,-206.01 1159.17,-175.22 1191,-129 1204.1,-109.98 1180.39,-91.12 1159.03,-78.96"/>
<polygon fill="#63b8ff" stroke="#63b8ff" points="1160.6,-75.83 1150.13,-74.18 1157.28,-82 1160.6,-75.83"/>
</a>
</g>
</g>
<!-- Node11 -->
<g id="Node000011" class="node">
<title>Node11</title>
<g id="a_Node000011"><a xlink:title=" ">
<polygon fill="#e0e0e0" stroke="#999999" points="910,-129 848,-129 848,-110 910,-110 910,-129"/>
<text text-anchor="middle" x="879" y="-117" font-family="Helvetica,sans-Serif" font-size="10.00">sys/time.h</text>
</a>
</g>
</g>
<!-- Node6&#45;&gt;Node11 -->
<g id="edge10_Node000006_Node000011" class="edge">
<title>Node6&#45;&gt;Node11</title>
<g id="a_edge10_Node000006_Node000011"><a xlink:title=" ">
<path fill="none" stroke="#63b8ff" d="M852.37,-219.66C857.09,-202.09 867.74,-162.45 874.04,-138.95"/>
<polygon fill="#63b8ff" stroke="#63b8ff" points="877.46,-139.72 876.68,-129.16 870.7,-137.91 877.46,-139.72"/>
</a>
</g>
</g>
<!-- Node6&#45;&gt;Node12 -->
<g id="edge11_Node000006_Node000012" class="edge">
<title>Node6&#45;&gt;Node12</title>
<g id="a_edge11_Node000006_Node000012"><a xlink:title=" ">
<path fill="none" stroke="#63b8ff" d="M785.67,-227.08C684.67,-223.98 483.1,-214.22 315,-184 244.15,-171.26 163.5,-146.05 119.96,-131.52"/>
<polygon fill="#63b8ff" stroke="#63b8ff" points="120.82,-128.12 110.22,-128.24 118.59,-134.75 120.82,-128.12"/>
</a>
</g>
</g>
<!-- Node13 -->
<g id="Node000013" class="node">
<title>Node13</title>
<g id="a_Node000013"><a xlink:title=" ">
<polygon fill="#e0e0e0" stroke="#999999" points="73.5,-74 22.5,-74 22.5,-55 73.5,-55 73.5,-74"/>
<text text-anchor="middle" x="48" y="-62" font-family="Helvetica,sans-Serif" font-size="10.00">unistd.h</text>
</a>
</g>
</g>
<!-- Node6&#45;&gt;Node13 -->
<g id="edge12_Node000006_Node000013" class="edge">
<title>Node6&#45;&gt;Node13</title>
<g id="a_edge12_Node000006_Node000013"><a xlink:title=" ">
<path fill="none" stroke="#63b8ff" d="M785.88,-228.9C672.48,-228.5 429.59,-222.68 229,-184 150.19,-168.8 108.77,-190.33 57,-129 46.68,-116.77 45.11,-98.25 45.72,-84.36"/>
<polygon fill="#63b8ff" stroke="#63b8ff" points="49.24,-84.29 46.6,-74.03 42.26,-83.7 49.24,-84.29"/>
</a>
</g>
</g>
<!-- Node14 -->
<g id="Node000014" class="node">
<title>Node14</title>
<g id="a_Node000014"><a xlink:href="SocketConfig_8h.html" target="_top" xlink:title="Compile&#45;time configuration and platform detection for the socket library.">
<polygon fill="white" stroke="#666666" points="310,-129 204,-129 204,-110 310,-110 310,-129"/>
<text text-anchor="middle" x="257" y="-117" font-family="Helvetica,sans-Serif" font-size="10.00">core/SocketConfig.h</text>
</a>
</g>
</g>
<!-- Node6&#45;&gt;Node14 -->
<g id="edge14_Node000006_Node000014" class="edge">
<title>Node6&#45;&gt;Node14</title>
<g id="a_edge14_Node000006_Node000014"><a xlink:title=" ">
<path fill="none" stroke="#63b8ff" d="M785.68,-226.51C670.49,-222.31 433.8,-210.65 356,-184 324.82,-173.32 293.59,-150.86 274.78,-135.72"/>
<polygon fill="#63b8ff" stroke="#63b8ff" points="276.77,-132.82 266.83,-129.16 272.31,-138.22 276.77,-132.82"/>
</a>
</g>
</g>
<!-- Node21 -->
<g id="Node000021" class="node">
<title>Node21</title>
<g id="a_Node000021"><a xlink:href="SocketUtil_8h.html" target="_top" xlink:title="Consolidated utility header for logging, metrics, events, and error handling.">
<polygon fill="white" stroke="#666666" points="520,-184 428,-184 428,-165 520,-165 520,-184"/>
<text text-anchor="middle" x="474" y="-172" font-family="Helvetica,sans-Serif" font-size="10.00">core/SocketUtil.h</text>
</a>
</g>
</g>
<!-- Node6&#45;&gt;Node21 -->
<g id="edge24_Node000006_Node000021" class="edge">
<title>Node6&#45;&gt;Node21</title>
<g id="a_edge24_Node000006_Node000021"><a xlink:title=" ">
<path fill="none" stroke="#63b8ff" d="M789.59,-219.98C717.96,-209.89 599.56,-193.2 529.95,-183.39"/>
<polygon fill="#63b8ff" stroke="#63b8ff" points="530.43,-179.92 520.04,-181.99 529.45,-186.85 530.43,-179.92"/>
</a>
</g>
</g>
<!-- Node26 -->
<g id="Node000026" class="node">
<title>Node26</title>
<g id="a_Node000026"><a xlink:href="SocketCommon_8h.html" target="_top" xlink:title="Common utilities shared between Socket and SocketDgram modules.">
<polygon fill="white" stroke="#666666" points="1038,-184 910,-184 910,-165 1038,-165 1038,-184"/>
<text text-anchor="middle" x="974" y="-172" font-family="Helvetica,sans-Serif" font-size="10.00">socket/SocketCommon.h</text>
</a>
</g>
</g>
<!-- Node6&#45;&gt;Node26 -->
<g id="edge36_Node000006_Node000026" class="edge">
<title>Node6&#45;&gt;Node26</title>
<g id="a_edge36_Node000006_Node000026"><a xlink:title=" ">
<path fill="none" stroke="#63b8ff" d="M869.92,-219.98C890.05,-211.38 921.38,-197.99 944.41,-188.15"/>
<polygon fill="#63b8ff" stroke="#63b8ff" points="945.9,-191.32 953.71,-184.17 943.14,-184.88 945.9,-191.32"/>
</a>
</g>
</g>
<!-- Node14&#45;&gt;Node3 -->
<g id="edge19_Node000014_Node000003" class="edge">
<title>Node14&#45;&gt;Node3</title>
<g id="a_edge19_Node000014_Node000003"><a xlink:title=" ">
<path fill="none" stroke="#63b8ff" d="M310.11,-111.13C369.78,-102.72 469.48,-88.28 555,-74 558.2,-73.46 561.53,-72.89 564.86,-72.3"/>
<polygon fill="#63b8ff" stroke="#63b8ff" points="565.54,-75.73 574.76,-70.51 564.29,-68.85 565.54,-75.73"/>
</a>
</g>
</g>
<!-- Node14&#45;&gt;Node10 -->
<g id="edge21_Node000014_Node000010" class="edge">
<title>Node14&#45;&gt;Node10</title>
<g id="a_edge21_Node000014_Node000010"><a xlink:title=" ">
<path fill="none" stroke="#63b8ff" d="M310.07,-110.94C313.09,-110.59 316.08,-110.28 319,-110 608.85,-82.24 958.69,-70.32 1083.74,-66.74"/>
<polygon fill="#63b8ff" stroke="#63b8ff" points="1084.2,-70.23 1094.1,-66.45 1084,-63.23 1084.2,-70.23"/>
</a>
</g>
</g>
<!-- Node14&#45;&gt;Node13 -->
<g id="edge23_Node000014_Node000013" class="edge">
<title>Node14&#45;&gt;Node13</title>
<g id="a_edge23_Node000014_Node000013"><a xlink:title=" ">
<path fill="none" stroke="#63b8ff" d="M223.42,-109.98C185.08,-100.26 122.61,-84.42 83.49,-74.5"/>
<polygon fill="#63b8ff" stroke="#63b8ff" points="84.15,-71.06 73.59,-71.99 82.42,-77.84 84.15,-71.06"/>
</a>
</g>
</g>
<!-- Node15 -->
<g id="Node000015" class="node">
<title>Node15</title>
<g id="a_Node000015"><a xlink:title=" ">
<polygon fill="#e0e0e0" stroke="#999999" points="208.5,-74 161.5,-74 161.5,-55 208.5,-55 208.5,-74"/>
<text text-anchor="middle" x="185" y="-62" font-family="Helvetica,sans-Serif" font-size="10.00">errno.h</text>
</a>
</g>
</g>
<!-- Node14&#45;&gt;Node15 -->
<g id="edge15_Node000014_Node000015" class="edge">
<title>Node14&#45;&gt;Node15</title>
<g id="a_edge15_Node000014_Node000015"><a xlink:title=" ">
<path fill="none" stroke="#63b8ff" d="M245.43,-109.98C234.58,-102 218.12,-89.88 205.12,-80.31"/>
<polygon fill="#63b8ff" stroke="#63b8ff" points="206.91,-77.28 196.78,-74.17 202.76,-82.92 206.91,-77.28"/>
</a>
</g>
</g>
<!-- Node16 -->
<g id="Node000016" class="node">
<title>Node16</title>
<g id="a_Node000016"><a xlink:title=" ">
<polygon fill="#e0e0e0" stroke="#999999" points="546,-74 502,-74 502,-55 546,-55 546,-74"/>
<text text-anchor="middle" x="524" y="-62" font-family="Helvetica,sans-Serif" font-size="10.00">fcntl.h</text>
</a>
</g>
</g>
<!-- Node14&#45;&gt;Node16 -->
<g id="edge16_Node000014_Node000016" class="edge">
<title>Node14&#45;&gt;Node16</title>
<g id="a_edge16_Node000014_Node000016"><a xlink:title=" ">
<path fill="none" stroke="#63b8ff" d="M299.9,-109.98C353.46,-99.35 443.86,-81.41 491.84,-71.88"/>
<polygon fill="#63b8ff" stroke="#63b8ff" points="492.56,-75.31 501.68,-69.93 491.19,-68.44 492.56,-75.31"/>
</a>
</g>
</g>
<!-- Node17 -->
<g id="Node000017" class="node">
<title>Node17</title>
<g id="a_Node000017"><a xlink:title=" ">
<polygon fill="#e0e0e0" stroke="#999999" points="461.5,-74 396.5,-74 396.5,-55 461.5,-55 461.5,-74"/>
<text text-anchor="middle" x="429" y="-62" font-family="Helvetica,sans-Serif" font-size="10.00">netinet/in.h</text>
</a>
</g>
</g>
<!-- Node14&#45;&gt;Node17 -->
<g id="edge17_Node000014_Node000017" class="edge">
<title>Node14&#45;&gt;Node17</title>
<g id="a_edge17_Node000014_Node000017"><a xlink:title=" ">
<path fill="none" stroke="#63b8ff" d="M284.63,-109.98C313.51,-101.09 359.01,-87.07 391.2,-77.15"/>
<polygon fill="#63b8ff" stroke="#63b8ff" points="392.62,-80.37 401.15,-74.08 390.56,-73.68 392.62,-80.37"/>
</a>
</g>
</g>
<!-- Node18 -->
<g id="Node000018" class="node">
<title>Node18</title>
<g id="a_Node000018"><a xlink:title=" ">
<polygon fill="#e0e0e0" stroke="#999999" points="297.5,-74 226.5,-74 226.5,-55 297.5,-55 297.5,-74"/>
<text text-anchor="middle" x="262" y="-62" font-family="Helvetica,sans-Serif" font-size="10.00">netinet/tcp.h</text>
</a>
</g>
</g>
<!-- Node14&#45;&gt;Node18 -->
<g id="edge18_Node000014_Node000018" class="edge">
<title>Node14&#45;&gt;Node18</title>
<g id="a_edge18_Node000014_Node000018"><a xlink:title=" ">
<path fill="none" stroke="#63b8ff" d="M257.83,-109.75C258.48,-102.8 259.42,-92.85 260.24,-84.13"/>
<polygon fill="#63b8ff" stroke="#63b8ff" points="263.73,-84.37 261.19,-74.09 256.77,-83.72 263.73,-84.37"/>
</a>
</g>
</g>
<!-- Node19 -->
<g id="Node000019" class="node">
<title>Node19</title>
<g id="a_Node000019"><a xlink:title=" ">
<polygon fill="#e0e0e0" stroke="#999999" points="143,-74 97,-74 97,-55 143,-55 143,-74"/>
<text text-anchor="middle" x="120" y="-62" font-family="Helvetica,sans-Serif" font-size="10.00">stdio.h</text>
</a>
</g>
</g>
<!-- Node14&#45;&gt;Node19 -->
<g id="edge20_Node000014_Node000019" class="edge">
<title>Node14&#45;&gt;Node19</title>
<g id="a_edge20_Node000014_Node000019"><a xlink:title=" ">
<path fill="none" stroke="#63b8ff" d="M234.99,-109.98C212.55,-101.3 177.52,-87.75 152.01,-77.88"/>
<polygon fill="#63b8ff" stroke="#63b8ff" points="153,-74.51 142.41,-74.17 150.48,-81.04 153,-74.51"/>
</a>
</g>
</g>
<!-- Node20 -->
<g id="Node000020" class="node">
<title>Node20</title>
<g id="a_Node000020"><a xlink:title=" ">
<polygon fill="#e0e0e0" stroke="#999999" points="372,-74 316,-74 316,-55 372,-55 372,-74"/>
<text text-anchor="middle" x="344" y="-62" font-family="Helvetica,sans-Serif" font-size="10.00">sys/uio.h</text>
</a>
</g>
</g>
<!-- Node14&#45;&gt;Node20 -->
<g id="edge22_Node000014_Node000020" class="edge">
<title>Node14&#45;&gt;Node20</title>
<g id="a_edge22_Node000014_Node000020"><a xlink:title=" ">
<path fill="none" stroke="#63b8ff" d="M270.98,-109.98C284.47,-101.77 305.13,-89.18 321.04,-79.49"/>
<polygon fill="#63b8ff" stroke="#63b8ff" points="323.05,-82.36 329.77,-74.17 319.41,-76.38 323.05,-82.36"/>
</a>
</g>
</g>
<!-- Node21&#45;&gt;Node2 -->
<g id="edge33_Node000021_Node000002" class="edge">
<title>Node21&#45;&gt;Node2</title>
<g id="a_edge33_Node000021_Node000002"><a xlink:title=" ">
<path fill="none" stroke="#63b8ff" d="M501.31,-164.98C529.85,-156.09 574.83,-142.07 606.64,-132.15"/>
<polygon fill="#63b8ff" stroke="#63b8ff" points="607.97,-135.4 616.47,-129.08 605.88,-128.72 607.97,-135.4"/>
</a>
</g>
</g>
<!-- Node21&#45;&gt;Node3 -->
<g id="edge28_Node000021_Node000003" class="edge">
<title>Node21&#45;&gt;Node3</title>
<g id="a_edge28_Node000021_Node000003"><a xlink:title=" ">
<path fill="none" stroke="#63b8ff" d="M484.39,-164.66C505.99,-146.3 555.95,-103.81 582.93,-80.87"/>
<polygon fill="#63b8ff" stroke="#63b8ff" points="585.47,-83.3 590.82,-74.16 580.93,-77.97 585.47,-83.3"/>
</a>
</g>
</g>
<!-- Node21&#45;&gt;Node4 -->
<g id="edge34_Node000021_Node000004" class="edge">
<title>Node21&#45;&gt;Node4</title>
<g id="a_edge34_Node000021_Node000004"><a xlink:title=" ">
<path fill="none" stroke="#63b8ff" d="M488.86,-164.96C516.78,-149.07 576.3,-116.05 599,-110 678.21,-88.88 1247.87,-71.58 1419.31,-66.81"/>
<polygon fill="#63b8ff" stroke="#63b8ff" points="1419.41,-70.31 1429.31,-66.53 1419.22,-63.31 1419.41,-70.31"/>
</a>
</g>
</g>
<!-- Node21&#45;&gt;Node12 -->
<g id="edge32_Node000021_Node000012" class="edge">
<title>Node21&#45;&gt;Node12</title>
<g id="a_edge32_Node000021_Node000012"><a xlink:title=" ">
<path fill="none" stroke="#63b8ff" d="M427.9,-169.2C360.73,-162.59 232.19,-148.59 124,-129 122.72,-128.77 121.42,-128.52 120.1,-128.26"/>
<polygon fill="#63b8ff" stroke="#63b8ff" points="120.52,-124.77 110.01,-126.08 119.05,-131.61 120.52,-124.77"/>
</a>
</g>
</g>
<!-- Node21&#45;&gt;Node14 -->
<g id="edge35_Node000021_Node000014" class="edge">
<title>Node21&#45;&gt;Node14</title>
<g id="a_edge35_Node000021_Node000014"><a xlink:title=" ">
<path fill="none" stroke="#63b8ff" d="M439.14,-164.98C401.91,-155.89 342.8,-141.46 302.07,-131.51"/>
<polygon fill="#63b8ff" stroke="#63b8ff" points="302.68,-128.05 292.14,-129.08 301.02,-134.85 302.68,-128.05"/>
</a>
</g>
</g>
<!-- Node21&#45;&gt;Node15 -->
<g id="edge25_Node000021_Node000015" class="edge">
<title>Node21&#45;&gt;Node15</title>
<g id="a_edge25_Node000021_Node000015"><a xlink:title=" ">
<path fill="none" stroke="#63b8ff" d="M427.77,-172.5C357.06,-169.96 226.88,-160.94 195,-129 183.55,-117.53 181.87,-98.65 182.57,-84.45"/>
<polygon fill="#63b8ff" stroke="#63b8ff" points="186.07,-84.57 183.49,-74.29 179.1,-83.94 186.07,-84.57"/>
</a>
</g>
</g>
<!-- Node21&#45;&gt;Node19 -->
<g id="edge30_Node000021_Node000019" class="edge">
<title>Node21&#45;&gt;Node19</title>
<g id="a_edge30_Node000021_Node000019"><a xlink:title=" ">
<path fill="none" stroke="#63b8ff" d="M427.95,-170.06C356.82,-164.15 224.03,-150.58 182,-129 160.89,-118.16 142.74,-97.38 131.62,-82.54"/>
<polygon fill="#63b8ff" stroke="#63b8ff" points="134.32,-80.3 125.65,-74.21 128.64,-84.38 134.32,-80.3"/>
</a>
</g>
</g>
<!-- Node22 -->
<g id="Node000022" class="node">
<title>Node22</title>
<g id="a_Node000022"><a xlink:title=" ">
<polygon fill="#e0e0e0" stroke="#999999" points="376,-129 328,-129 328,-110 376,-110 376,-129"/>
<text text-anchor="middle" x="352" y="-117" font-family="Helvetica,sans-Serif" font-size="10.00">limits.h</text>
</a>
</g>
</g>
<!-- Node21&#45;&gt;Node22 -->
<g id="edge26_Node000021_Node000022" class="edge">
<title>Node21&#45;&gt;Node22</title>
<g id="a_edge26_Node000021_Node000022"><a xlink:title=" ">
<path fill="none" stroke="#63b8ff" d="M454.4,-164.98C434.68,-156.42 404.05,-143.11 381.42,-133.28"/>
<polygon fill="#63b8ff" stroke="#63b8ff" points="382.52,-129.94 371.96,-129.17 379.74,-136.37 382.52,-129.94"/>
</a>
</g>
</g>
<!-- Node23 -->
<g id="Node000023" class="node">
<title>Node23</title>
<g id="a_Node000023"><a xlink:title=" ">
<polygon fill="#e0e0e0" stroke="#999999" points="446,-129 394,-129 394,-110 446,-110 446,-129"/>
<text text-anchor="middle" x="420" y="-117" font-family="Helvetica,sans-Serif" font-size="10.00">stdarg.h</text>
</a>
</g>
</g>
<!-- Node21&#45;&gt;Node23 -->
<g id="edge27_Node000021_Node000023" class="edge">
<title>Node21&#45;&gt;Node23</title>
<g id="a_edge27_Node000021_Node000023"><a xlink:title=" ">
<path fill="none" stroke="#63b8ff" d="M465.08,-164.75C457.22,-157.03 445.57,-145.6 436.08,-136.28"/>
<polygon fill="#63b8ff" stroke="#63b8ff" points="438.34,-133.6 428.75,-129.09 433.44,-138.59 438.34,-133.6"/>
</a>
</g>
</g>
<!-- Node21&#45;&gt;Node24 -->
<g id="edge29_Node000021_Node000024" class="edge">
<title>Node21&#45;&gt;Node24</title>
<g id="a_edge29_Node000021_Node000024"><a xlink:title=" ">
<path fill="none" stroke="#63b8ff" d="M520.27,-171.24C701.96,-162.36 1364.33,-130.01 1524.13,-122.2"/>
<polygon fill="#63b8ff" stroke="#63b8ff" points="1524.52,-125.69 1534.34,-121.7 1524.18,-118.7 1524.52,-125.69"/>
</a>
</g>
</g>
<!-- Node25 -->
<g id="Node000025" class="node">
<title>Node25</title>
<g id="a_Node000025"><a xlink:title=" ">
<polygon fill="#e0e0e0" stroke="#999999" points="513.5,-129 464.5,-129 464.5,-110 513.5,-110 513.5,-129"/>
<text text-anchor="middle" x="489" y="-117" font-family="Helvetica,sans-Serif" font-size="10.00">string.h</text>
</a>
</g>
</g>
<!-- Node21&#45;&gt;Node25 -->
<g id="edge31_Node000021_Node000025" class="edge">
<title>Node21&#45;&gt;Node25</title>
<g id="a_edge31_Node000021_Node000025"><a xlink:title=" ">
<path fill="none" stroke="#63b8ff" d="M476.48,-164.75C478.46,-157.72 481.32,-147.62 483.81,-138.84"/>
<polygon fill="#63b8ff" stroke="#63b8ff" points="487.21,-139.66 486.57,-129.09 480.48,-137.76 487.21,-139.66"/>
</a>
</g>
</g>
<!-- Node26&#45;&gt;Node2 -->
<g id="edge46_Node000026_Node000002" class="edge">
<title>Node26&#45;&gt;Node2</title>
<g id="a_edge46_Node000026_Node000002"><a xlink:title=" ">
<path fill="none" stroke="#63b8ff" d="M915.78,-164.96C860.31,-156.71 774.21,-143.56 690.29,-129.18"/>
<polygon fill="#63b8ff" stroke="#63b8ff" points="690.78,-125.71 680.33,-127.47 689.59,-132.61 690.78,-125.71"/>
</a>
</g>
</g>
<!-- Node26&#45;&gt;Node4 -->
<g id="edge47_Node000026_Node000004" class="edge">
<title>Node26&#45;&gt;Node4</title>
<g id="a_edge47_Node000026_Node000004"><a xlink:title=" ">
<path fill="none" stroke="#63b8ff" d="M1017.31,-164.99C1061.16,-156.29 1130.9,-142.21 1191,-129 1227.12,-121.06 1235.97,-118.32 1272,-110 1322.51,-98.34 1380.41,-85.23 1420.11,-76.27"/>
<polygon fill="#63b8ff" stroke="#63b8ff" points="1421.06,-79.65 1430.04,-74.03 1419.52,-72.82 1421.06,-79.65"/>
</a>
</g>
</g>
<!-- Node26&#45;&gt;Node7 -->
<g id="edge40_Node000026_Node000007" class="edge">
<title>Node26&#45;&gt;Node7</title>
<g id="a_edge40_Node000026_Node000007"><a xlink:title=" ">
<path fill="none" stroke="#63b8ff" d="M1032.64,-164.98C1109.41,-153.84 1241.55,-134.65 1304.16,-125.56"/>
<polygon fill="#63b8ff" stroke="#63b8ff" points="1304.91,-128.99 1314.3,-124.09 1303.9,-122.06 1304.91,-128.99"/>
</a>
</g>
</g>
<!-- Node26&#45;&gt;Node8 -->
<g id="edge37_Node000026_Node000008" class="edge">
<title>Node26&#45;&gt;Node8</title>
<g id="a_edge37_Node000026_Node000008"><a xlink:title=" ">
<path fill="none" stroke="#63b8ff" d="M933.12,-164.93C893.03,-156.49 829.9,-143.12 765.54,-129.1"/>
<polygon fill="#63b8ff" stroke="#63b8ff" points="766.14,-125.65 755.63,-126.94 764.65,-132.49 766.14,-125.65"/>
</a>
</g>
</g>
<!-- Node26&#45;&gt;Node9 -->
<g id="edge38_Node000026_Node000009" class="edge">
<title>Node26&#45;&gt;Node9</title>
<g id="a_edge38_Node000026_Node000009"><a xlink:title=" ">
<path fill="none" stroke="#63b8ff" d="M946.37,-164.98C917.49,-156.09 871.99,-142.07 839.8,-132.15"/>
<polygon fill="#63b8ff" stroke="#63b8ff" points="840.44,-128.68 829.85,-129.08 838.38,-135.37 840.44,-128.68"/>
</a>
</g>
</g>
<!-- Node26&#45;&gt;Node10 -->
<g id="edge42_Node000026_Node000010" class="edge">
<title>Node26&#45;&gt;Node10</title>
<g id="a_edge42_Node000026_Node000010"><a xlink:title=" ">
<path fill="none" stroke="#63b8ff" d="M980.37,-164.66C990.33,-151.35 1010.78,-126.01 1033,-110 1052.07,-96.27 1076.05,-85.29 1095.52,-77.67"/>
<polygon fill="#63b8ff" stroke="#63b8ff" points="1096.84,-80.91 1104.95,-74.1 1094.36,-74.37 1096.84,-80.91"/>
</a>
</g>
</g>
<!-- Node26&#45;&gt;Node11 -->
<g id="edge43_Node000026_Node000011" class="edge">
<title>Node26&#45;&gt;Node11</title>
<g id="a_edge43_Node000026_Node000011"><a xlink:title=" ">
<path fill="none" stroke="#63b8ff" d="M958.74,-164.98C943.87,-156.69 921.02,-143.94 903.58,-134.22"/>
<polygon fill="#63b8ff" stroke="#63b8ff" points="904.98,-130.99 894.54,-129.17 901.57,-137.1 904.98,-130.99"/>
</a>
</g>
</g>
<!-- Node26&#45;&gt;Node14 -->
<g id="edge48_Node000026_Node000014" class="edge">
<title>Node26&#45;&gt;Node14</title>
<g id="a_edge48_Node000026_Node000014"><a xlink:title=" ">
<path fill="none" stroke="#63b8ff" d="M909.73,-170.59C794.01,-165.04 542.75,-151.53 320.31,-129.06"/>
<polygon fill="#63b8ff" stroke="#63b8ff" points="320.37,-125.55 310.07,-128.02 319.67,-132.51 320.37,-125.55"/>
</a>
</g>
</g>
<!-- Node26&#45;&gt;Node16 -->
<g id="edge39_Node000026_Node000016" class="edge">
<title>Node26&#45;&gt;Node16</title>
<g id="a_edge39_Node000026_Node000016"><a xlink:title=" ">
<path fill="none" stroke="#63b8ff" d="M973.79,-164.86C972.95,-150.85 969.08,-123.39 952,-110 884.21,-56.83 651.23,-86.56 566,-74 562.76,-73.52 559.4,-72.96 556.04,-72.35"/>
<polygon fill="#63b8ff" stroke="#63b8ff" points="556.64,-68.9 546.16,-70.44 555.31,-75.77 556.64,-68.9"/>
</a>
</g>
</g>
<!-- Node26&#45;&gt;Node17 -->
<g id="edge41_Node000026_Node000017" class="edge">
<title>Node26&#45;&gt;Node17</title>
<g id="a_edge41_Node000026_Node000017"><a xlink:title=" ">
<path fill="none" stroke="#63b8ff" d="M969.34,-164.61C961.26,-150.25 943.18,-122.3 919,-110 834.33,-66.92 587.45,-84.26 493,-74 486.11,-73.25 478.82,-72.37 471.72,-71.46"/>
<polygon fill="#63b8ff" stroke="#63b8ff" points="471.89,-67.95 461.52,-70.12 470.98,-74.9 471.89,-67.95"/>
</a>
</g>
</g>
<!-- Node27 -->
<g id="Node000027" class="node">
<title>Node27</title>
<g id="a_Node000027"><a xlink:title=" ">
<polygon fill="#e0e0e0" stroke="#999999" points="1110,-129 1042,-129 1042,-110 1110,-110 1110,-129"/>
<text text-anchor="middle" x="1076" y="-117" font-family="Helvetica,sans-Serif" font-size="10.00">sys/types.h</text>
</a>
</g>
</g>
<!-- Node26&#45;&gt;Node27 -->
<g id="edge44_Node000026_Node000027" class="edge">
<title>Node26&#45;&gt;Node27</title>
<g id="a_edge44_Node000026_Node000027"><a xlink:title=" ">
<path fill="none" stroke="#63b8ff" d="M990.39,-164.98C1006.57,-156.57 1031.57,-143.59 1050.38,-133.81"/>
<polygon fill="#63b8ff" stroke="#63b8ff" points="1052.05,-136.89 1059.31,-129.17 1048.83,-130.68 1052.05,-136.89"/>
</a>
</g>
</g>
<!-- Node28 -->
<g id="Node000028" class="node">
<title>Node28</title>
<g id="a_Node000028"><a xlink:title=" ">
<polygon fill="#e0e0e0" stroke="#999999" points="1182,-129 1128,-129 1128,-110 1182,-110 1182,-129"/>
<text text-anchor="middle" x="1155" y="-117" font-family="Helvetica,sans-Serif" font-size="10.00">sys/un.h</text>
</a>
</g>
</g>
<!-- Node26&#45;&gt;Node28 -->
<g id="edge45_Node000026_Node000028" class="edge">
<title>Node26&#45;&gt;Node28</title>
<g id="a_edge45_Node000026_Node000028"><a xlink:title=" ">
<path fill="none" stroke="#63b8ff" d="M1003.08,-164.98C1034.23,-155.86 1083.77,-141.36 1117.76,-131.41"/>
<polygon fill="#63b8ff" stroke="#63b8ff" points="1119.15,-134.64 1127.77,-128.47 1117.19,-127.93 1119.15,-134.64"/>
</a>
</g>
</g>
<!-- Node29&#45;&gt;Node3 -->
<g id="edge52_Node000029_Node000003" class="edge">
<title>Node29&#45;&gt;Node3</title>
<g id="a_edge52_Node000029_Node000003"><a xlink:title=" ">
<path fill="none" stroke="#63b8ff" d="M1425.38,-165C1417.07,-150.66 1398.1,-122.07 1373,-110 1306.24,-77.88 780.69,-68.07 637.13,-65.97"/>
<polygon fill="#63b8ff" stroke="#63b8ff" points="637.13,-62.47 627.08,-65.83 637.03,-69.47 637.13,-62.47"/>
</a>
</g>
</g>
<!-- Node29&#45;&gt;Node4 -->
<g id="edge50_Node000029_Node000004" class="edge">
<title>Node29&#45;&gt;Node4</title>
<g id="a_edge50_Node000029_Node000004"><a xlink:title=" ">
<path fill="none" stroke="#63b8ff" d="M1433.11,-164.66C1439.32,-147.01 1453.37,-107.09 1461.62,-83.64"/>
<polygon fill="#63b8ff" stroke="#63b8ff" points="1464.94,-84.75 1464.95,-74.16 1458.33,-82.43 1464.94,-84.75"/>
</a>
</g>
</g>
<!-- Node29&#45;&gt;Node7 -->
<g id="edge51_Node000029_Node000007" class="edge">
<title>Node29&#45;&gt;Node7</title>
<g id="a_edge51_Node000029_Node000007"><a xlink:title=" ">
<path fill="none" stroke="#63b8ff" d="M1415.38,-164.98C1401.14,-156.69 1379.25,-143.94 1362.55,-134.22"/>
<polygon fill="#63b8ff" stroke="#63b8ff" points="1364.29,-131.18 1353.89,-129.17 1360.77,-137.23 1364.29,-131.18"/>
</a>
</g>
</g>
<!-- Node29&#45;&gt;Node10 -->
<g id="edge53_Node000029_Node000010" class="edge">
<title>Node29&#45;&gt;Node10</title>
<g id="a_edge53_Node000029_Node000010"><a xlink:title=" ">
<path fill="none" stroke="#63b8ff" d="M1429.41,-164.96C1427.95,-151.11 1422.98,-123.87 1406,-110 1371.89,-82.13 1247.1,-71.39 1177.94,-67.52"/>
<polygon fill="#63b8ff" stroke="#63b8ff" points="1177.92,-64.01 1167.74,-66.97 1177.54,-71 1177.92,-64.01"/>
</a>
</g>
</g>
<!-- Node30&#45;&gt;Node4 -->
<g id="edge55_Node000030_Node000004" class="edge">
<title>Node30&#45;&gt;Node4</title>
<g id="a_edge55_Node000030_Node000004"><a xlink:title=" ">
<path fill="none" stroke="#63b8ff" d="M1633.25,-274.92C1655.2,-255.47 1703.16,-206.48 1683,-165 1652.93,-103.14 1570.41,-79.64 1516.79,-70.78"/>
<polygon fill="#63b8ff" stroke="#63b8ff" points="1517.22,-67.31 1506.8,-69.24 1516.15,-74.22 1517.22,-67.31"/>
</a>
</g>
</g>
<!-- Node31 -->
<g id="Node000031" class="node">
<title>Node31</title>
<g id="a_Node000031"><a xlink:href="SocketTimer_8h.html" target="_top" xlink:title="High&#45;performance timer subsystem integrated with the event loop.">
<polygon fill="white" stroke="#666666" points="1673.5,-184 1572.5,-184 1572.5,-165 1673.5,-165 1673.5,-184"/>
<text text-anchor="middle" x="1623" y="-172" font-family="Helvetica,sans-Serif" font-size="10.00">core/SocketTimer.h</text>
</a>
</g>
</g>
<!-- Node30&#45;&gt;Node31 -->
<g id="edge56_Node000030_Node000031" class="edge">
<title>Node30&#45;&gt;Node31</title>
<g id="a_edge56_Node000030_Node000031"><a xlink:title=" ">
<path fill="none" stroke="#63b8ff" d="M1623,-274.66C1623,-257.17 1623,-217.8 1623,-194.27"/>
<polygon fill="#63b8ff" stroke="#63b8ff" points="1626.5,-194.16 1623,-184.16 1619.5,-194.16 1626.5,-194.16"/>
</a>
</g>
</g>
<!-- Node30&#45;&gt;Node32 -->
<g id="edge59_Node000030_Node000032" class="edge">
<title>Node30&#45;&gt;Node32</title>
<g id="a_edge59_Node000030_Node000032"><a xlink:title=" ">
<path fill="none" stroke="#63b8ff" d="M1592.63,-274.98C1560.63,-266.01 1510.04,-251.82 1474.62,-241.89"/>
<polygon fill="#63b8ff" stroke="#63b8ff" points="1475.18,-238.41 1464.6,-239.08 1473.29,-245.15 1475.18,-238.41"/>
</a>
</g>
</g>
<!-- Node31&#45;&gt;Node4 -->
<g id="edge57_Node000031_Node000004" class="edge">
<title>Node31&#45;&gt;Node4</title>
<g id="a_edge57_Node000031_Node000004"><a xlink:title=" ">
<path fill="none" stroke="#63b8ff" d="M1621.16,-164.83C1617.85,-151.27 1609.63,-125.06 1593,-110 1571.82,-90.82 1541.82,-79.78 1516.52,-73.5"/>
<polygon fill="#63b8ff" stroke="#63b8ff" points="1517.25,-70.07 1506.72,-71.24 1515.68,-76.9 1517.25,-70.07"/>
</a>
</g>
</g>
<!-- Node31&#45;&gt;Node24 -->
<g id="edge58_Node000031_Node000024" class="edge">
<title>Node31&#45;&gt;Node24</title>
<g id="a_edge58_Node000031_Node000024"><a xlink:title=" ">
<path fill="none" stroke="#63b8ff" d="M1612.72,-164.98C1603.16,-157.07 1588.72,-145.11 1577.22,-135.58"/>
<polygon fill="#63b8ff" stroke="#63b8ff" points="1579.4,-132.85 1569.47,-129.17 1574.94,-138.24 1579.4,-132.85"/>
</a>
</g>
</g>
<!-- Node32&#45;&gt;Node4 -->
<g id="edge60_Node000032_Node000004" class="edge">
<title>Node32&#45;&gt;Node4</title>
<g id="a_edge60_Node000032_Node000004"><a xlink:title=" ">
<path fill="none" stroke="#63b8ff" d="M1450.58,-219.87C1463.17,-212.3 1479.54,-200.01 1487,-184 1502.49,-150.77 1487.71,-107.24 1476.95,-83.26"/>
<polygon fill="#63b8ff" stroke="#63b8ff" points="1480.01,-81.53 1472.55,-74 1473.68,-84.54 1480.01,-81.53"/>
</a>
</g>
</g>
<!-- Node32&#45;&gt;Node14 -->
<g id="edge61_Node000032_Node000014" class="edge">
<title>Node32&#45;&gt;Node14</title>
<g id="a_edge61_Node000032_Node000014"><a xlink:title=" ">
<path fill="none" stroke="#63b8ff" d="M1389.8,-227.42C1206.95,-222.83 514.72,-204.27 419,-184 368.87,-173.38 314.04,-148.95 282.75,-133.68"/>
<polygon fill="#63b8ff" stroke="#63b8ff" points="283.97,-130.38 273.46,-129.07 280.86,-136.65 283.97,-130.38"/>
</a>
</g>
</g>
<!-- Node32&#45;&gt;Node26 -->
<g id="edge63_Node000032_Node000026" class="edge">
<title>Node32&#45;&gt;Node26</title>
<g id="a_edge63_Node000032_Node000026"><a xlink:title=" ">
<path fill="none" stroke="#63b8ff" d="M1389.89,-223.42C1310.95,-214.32 1144.72,-195.17 1048.03,-184.03"/>
<polygon fill="#63b8ff" stroke="#63b8ff" points="1048.37,-180.55 1038.03,-182.88 1047.57,-187.5 1048.37,-180.55"/>
</a>
</g>
</g>
<!-- Node32&#45;&gt;Node29 -->
<g id="edge62_Node000032_Node000029" class="edge">
<title>Node32&#45;&gt;Node29</title>
<g id="a_edge62_Node000032_Node000029"><a xlink:title=" ">
<path fill="none" stroke="#63b8ff" d="M1433.34,-219.75C1432.82,-212.8 1432.06,-202.85 1431.41,-194.13"/>
<polygon fill="#63b8ff" stroke="#63b8ff" points="1434.89,-193.8 1430.65,-184.09 1427.91,-194.32 1434.89,-193.8"/>
</a>
</g>
</g>
<!-- Node33&#45;&gt;Node4 -->
<g id="edge66_Node000033_Node000004" class="edge">
<title>Node33&#45;&gt;Node4</title>
<g id="a_edge66_Node000033_Node000004"><a xlink:title=" ">
<path fill="none" stroke="#63b8ff" d="M1629.16,-330C1670.96,-316.48 1740,-285.79 1740,-230.5 1740,-230.5 1740,-230.5 1740,-173.5 1740,-126.7 1698.35,-129.93 1656,-110 1611.29,-88.96 1555.77,-77.4 1516.7,-71.37"/>
<polygon fill="#63b8ff" stroke="#63b8ff" points="1517.04,-67.89 1506.63,-69.89 1516.01,-74.81 1517.04,-67.89"/>
</a>
</g>
</g>
<!-- Node33&#45;&gt;Node29 -->
<g id="edge67_Node000033_Node000029" class="edge">
<title>Node33&#45;&gt;Node29</title>
<g id="a_edge67_Node000033_Node000029"><a xlink:title=" ">
<path fill="none" stroke="#63b8ff" d="M1590.62,-329.73C1573.4,-309.48 1528.82,-258.22 1487,-220 1475.45,-209.44 1461.63,-198.61 1450.49,-190.28"/>
<polygon fill="#63b8ff" stroke="#63b8ff" points="1452.35,-187.31 1442.23,-184.19 1448.2,-192.94 1452.35,-187.31"/>
</a>
</g>
</g>
<!-- Node33&#45;&gt;Node30 -->
<g id="edge68_Node000033_Node000030" class="edge">
<title>Node33&#45;&gt;Node30</title>
<g id="a_edge68_Node000033_Node000030"><a xlink:title=" ">
<path fill="none" stroke="#63b8ff" d="M1602.13,-329.75C1605.51,-322.57 1610.42,-312.18 1614.62,-303.27"/>
<polygon fill="#63b8ff" stroke="#63b8ff" points="1617.85,-304.63 1618.95,-294.09 1611.52,-301.64 1617.85,-304.63"/>
</a>
</g>
</g>
<!-- Node33&#45;&gt;Node32 -->
<g id="edge69_Node000033_Node000032" class="edge">
<title>Node33&#45;&gt;Node32</title>
<g id="a_edge69_Node000033_Node000032"><a xlink:title=" ">
<path fill="none" stroke="#63b8ff" d="M1568.37,-329.91C1546.09,-322.57 1515.49,-310.56 1492,-294 1473.78,-281.16 1457.09,-261.7 1446.33,-247.71"/>
<polygon fill="#63b8ff" stroke="#63b8ff" points="1448.95,-245.36 1440.17,-239.43 1443.33,-249.54 1448.95,-245.36"/>
</a>
</g>
</g>
</g>
</svg>

<g id="navigator" transform="translate(0 0)" fill="#404254">
  <rect fill="#f2f5e9" fill-opacity="0.5" stroke="#606060" stroke-width=".5" x="0" y="0" width="60" height="60"/>
  <use id="zoomplus" xlink:href="#zoomPlus" x="17" y="9" onmousedown="handleZoom(evt,'in')"/>
  <use id="zoomminus" xlink:href="#zoomMin" x="42" y="9" onmousedown="handleZoom(evt,'out')"/>
  <use id="reset" xlink:href="#resetDef" x="30" y="36" onmousedown="handleReset()"/>
   <use id="arrowup" xlink:href="#arrowUp" x="0" y="0" onmousedown="handlePan(0,-1)"/>
  <use id="arrowright" xlink:href="#arrowRight" x="0" y="0" onmousedown="handlePan(1,0)"/>
  <use id="arrowdown" xlink:href="#arrowDown" x="0" y="0" onmousedown="handlePan(0,1)"/>
  <use id="arrowleft" xlink:href="#arrowLeft" x="0" y="0" onmousedown="handlePan(-1,0)"/>
</g>
<svg viewBox="0 0 15 15" width="100%" height="30px" preserveAspectRatio="xMaxYMin meet">
 <g id="arrow_out" transform="scale(0.3 0.3)">
  <a xlink:href="SocketHappyEyeballs-private_8h__incl_org.svg" target="_base">
   <rect id="button" ry="5" rx="5" y="6" x="6" height="38" width="38"
        fill="#f2f5e9" fill-opacity="0.5" stroke="#606060" stroke-width="1.0"/>
   <path id="arrow"
     d="M 11.500037,31.436501 C 11.940474,20.09759 22.043105,11.32322 32.158766,21.979434 L 37.068811,17.246167 C 37.068811,17.246167 37.088388,32 37.088388,32 L 22.160133,31.978069 C 22.160133,31.978069 26.997745,27.140456 26.997745,27.140456 C 18.528582,18.264221 13.291696,25.230495 11.500037,31.436501 z"
     style="fill:#404040;"/>
  </a>
 </g>
</svg>

<style type='text/css'>
<![CDATA[
[data-mouse-over-selected='false'] { opacity: 0.7; }
[data-mouse-over-selected='true']  { opacity: 1.0; }
]]>
</style>
<script type="application/ecmascript"><![CDATA[
document.addEventListener('DOMContentLoaded', (event) => {
  highlightEdges();
  highlightAdjacentNodes();
});
]]></script>
</svg>
