<?xml version="1.0" encoding="UTF-8" standalone="no"?>
<!DOCTYPE svg PUBLIC "-//W3C//DTD SVG 1.1//EN"
 "http://www.w3.org/Graphics/SVG/1.1/DTD/svg11.dtd">
<!-- Generated by graphviz version 2.43.0 (0)
 -->
<!-- Title: SocketBuf.h Pages: 1 -->
<svg width="833pt" height="137pt"
 viewBox="0.00 0.00 832.50 137.00" xmlns="http://www.w3.org/2000/svg" xmlns:xlink="http://www.w3.org/1999/xlink">
<g id="graph0" class="graph" transform="scale(1 1) rotate(0) translate(4 133)">
<title>SocketBuf.h</title>
<!-- Node1 -->
<g id="Node000001" class="node">
<title>Node1</title>
<g id="a_Node000001"><a xlink:title="Circular buffer for efficient socket I/O operations.">
<polygon fill="#999999" stroke="#666666" points="503,-129 432,-129 432,-110 503,-110 503,-129"/>
<text text-anchor="middle" x="467.5" y="-117" font-family="Helvetica,sans-Serif" font-size="10.00">SocketBuf.h</text>
</a>
</g>
</g>
<!-- Node2 -->
<g id="Node000002" class="node">
<title>Node2</title>
<g id="a_Node000002"><a xlink:href="SocketHTTP2-private_8h.html" target="_top" xlink:title="Internal HTTP/2 connection and stream structures.">
<polygon fill="white" stroke="#666666" points="119,-74 0,-74 0,-55 119,-55 119,-74"/>
<text text-anchor="middle" x="59.5" y="-62" font-family="Helvetica,sans-Serif" font-size="10.00">SocketHTTP2&#45;private.h</text>
</a>
</g>
</g>
<!-- Node1&#45;&gt;Node2 -->
<g id="edge1_Node000001_Node000002" class="edge">
<title>Node1&#45;&gt;Node2</title>
<g id="a_edge1_Node000001_Node000002"><a xlink:title=" ">
<path fill="none" stroke="#63b8ff" d="M421.68,-112.55C347.56,-102.92 201.37,-83.93 119.2,-73.25"/>
<polygon fill="#63b8ff" stroke="#63b8ff" points="421.28,-116.03 431.65,-113.84 422.18,-109.08 421.28,-116.03"/>
</a>
</g>
</g>
<!-- Node3 -->
<g id="Node000003" class="node">
<title>Node3</title>
<g id="a_Node000003"><a xlink:href="SocketHTTPClient-private_8h.html" target="_top" xlink:title="Internal HTTP client structures and connection pooling.">
<polygon fill="white" stroke="#666666" points="277.5,-74 137.5,-74 137.5,-55 277.5,-55 277.5,-74"/>
<text text-anchor="middle" x="207.5" y="-62" font-family="Helvetica,sans-Serif" font-size="10.00">SocketHTTPClient&#45;private.h</text>
</a>
</g>
</g>
<!-- Node1&#45;&gt;Node3 -->
<g id="edge2_Node000001_Node000003" class="edge">
<title>Node1&#45;&gt;Node3</title>
<g id="a_edge2_Node000001_Node000003"><a xlink:title=" ">
<path fill="none" stroke="#63b8ff" d="M421.95,-109.22C373.3,-99.3 296.83,-83.71 249.56,-74.07"/>
<polygon fill="#63b8ff" stroke="#63b8ff" points="421.4,-112.67 431.89,-111.24 422.79,-105.81 421.4,-112.67"/>
</a>
</g>
</g>
<!-- Node4 -->
<g id="Node000004" class="node">
<title>Node4</title>
<g id="a_Node000004"><a xlink:href="SocketHTTPServer-private_8h.html" target="_top" xlink:title="Private implementation details for HTTP server connection and state management.">
<polygon fill="white" stroke="#666666" points="439,-74 296,-74 296,-55 439,-55 439,-74"/>
<text text-anchor="middle" x="367.5" y="-62" font-family="Helvetica,sans-Serif" font-size="10.00">SocketHTTPServer&#45;private.h</text>
</a>
</g>
</g>
<!-- Node1&#45;&gt;Node4 -->
<g id="edge3_Node000001_Node000004" class="edge">
<title>Node1&#45;&gt;Node4</title>
<g id="a_edge3_Node000001_Node000004"><a xlink:title=" ">
<path fill="none" stroke="#63b8ff" d="M442.47,-105.23C424.13,-95.51 399.76,-82.6 383.86,-74.17"/>
<polygon fill="#63b8ff" stroke="#63b8ff" points="440.96,-108.39 451.43,-109.98 444.24,-102.21 440.96,-108.39"/>
</a>
</g>
</g>
<!-- Node5 -->
<g id="Node000005" class="node">
<title>Node5</title>
<g id="a_Node000005"><a xlink:href="SocketPool-private_8h.html" target="_top" xlink:title="Private implementation details and internal structures for SocketPool module.">
<polygon fill="white" stroke="#666666" points="494,-19 387,-19 387,0 494,0 494,-19"/>
<text text-anchor="middle" x="440.5" y="-7" font-family="Helvetica,sans-Serif" font-size="10.00">SocketPool&#45;private.h</text>
</a>
</g>
</g>
<!-- Node1&#45;&gt;Node5 -->
<g id="edge4_Node000001_Node000005" class="edge">
<title>Node1&#45;&gt;Node5</title>
<g id="a_edge4_Node000001_Node000005"><a xlink:title=" ">
<path fill="none" stroke="#63b8ff" d="M462.83,-99.8C456.93,-76.2 447.02,-36.58 442.66,-19.16"/>
<polygon fill="#63b8ff" stroke="#63b8ff" points="459.47,-100.81 465.29,-109.66 466.26,-99.11 459.47,-100.81"/>
</a>
</g>
</g>
<!-- Node6 -->
<g id="Node000006" class="node">
<title>Node6</title>
<g id="a_Node000006"><a xlink:href="SocketPool_8h.html" target="_top" xlink:title="Connection pooling with automatic lifecycle management.">
<polygon fill="white" stroke="#666666" points="571,-74 496,-74 496,-55 571,-55 571,-74"/>
<text text-anchor="middle" x="533.5" y="-62" font-family="Helvetica,sans-Serif" font-size="10.00">SocketPool.h</text>
</a>
</g>
</g>
<!-- Node1&#45;&gt;Node6 -->
<g id="edge5_Node000001_Node000006" class="edge">
<title>Node1&#45;&gt;Node6</title>
<g id="a_edge5_Node000001_Node000006"><a xlink:title=" ">
<path fill="none" stroke="#63b8ff" d="M486.05,-103.6C497.88,-94.11 512.79,-82.13 522.7,-74.17"/>
<polygon fill="#63b8ff" stroke="#63b8ff" points="483.71,-100.99 478.1,-109.98 488.09,-106.45 483.71,-100.99"/>
</a>
</g>
</g>
<!-- Node9 -->
<g id="Node000009" class="node">
<title>Node9</title>
<g id="a_Node000009"><a xlink:href="SocketProxy-private_8h.html" target="_top" xlink:title="Internal structures and functions for SocketProxy module.">
<polygon fill="white" stroke="#666666" points="702,-74 589,-74 589,-55 702,-55 702,-74"/>
<text text-anchor="middle" x="645.5" y="-62" font-family="Helvetica,sans-Serif" font-size="10.00">SocketProxy&#45;private.h</text>
</a>
</g>
</g>
<!-- Node1&#45;&gt;Node9 -->
<g id="edge9_Node000001_Node000009" class="edge">
<title>Node1&#45;&gt;Node9</title>
<g id="a_edge9_Node000001_Node000009"><a xlink:title=" ">
<path fill="none" stroke="#63b8ff" d="M505.94,-107.06C539.2,-97.15 586.58,-83.04 616.68,-74.08"/>
<polygon fill="#63b8ff" stroke="#63b8ff" points="504.68,-103.78 496.1,-109.98 506.68,-110.49 504.68,-103.78"/>
</a>
</g>
</g>
<!-- Node10 -->
<g id="Node000010" class="node">
<title>Node10</title>
<g id="a_Node000010"><a xlink:href="SocketWS-private_8h.html" target="_top" xlink:title="Internal implementation details for WebSocket module.">
<polygon fill="white" stroke="#666666" points="824.5,-74 720.5,-74 720.5,-55 824.5,-55 824.5,-74"/>
<text text-anchor="middle" x="772.5" y="-62" font-family="Helvetica,sans-Serif" font-size="10.00">SocketWS&#45;private.h</text>
</a>
</g>
</g>
<!-- Node1&#45;&gt;Node10 -->
<g id="edge10_Node000001_Node000010" class="edge">
<title>Node1&#45;&gt;Node10</title>
<g id="a_edge10_Node000001_Node000010"><a xlink:title=" ">
<path fill="none" stroke="#63b8ff" d="M513.16,-110.56C569.7,-100.74 665.59,-84.08 723.58,-74"/>
<polygon fill="#63b8ff" stroke="#63b8ff" points="512.34,-107.16 503.08,-112.32 513.54,-114.05 512.34,-107.16"/>
</a>
</g>
</g>
<!-- Node6&#45;&gt;Node5 -->
<g id="edge6_Node000006_Node000005" class="edge">
<title>Node6&#45;&gt;Node5</title>
<g id="a_edge6_Node000006_Node000005"><a xlink:title=" ">
<path fill="none" stroke="#63b8ff" d="M509.75,-49.97C492.75,-40.28 470.37,-27.52 455.71,-19.17"/>
<polygon fill="#63b8ff" stroke="#63b8ff" points="508.14,-53.07 518.56,-54.98 511.6,-46.99 508.14,-53.07"/>
</a>
</g>
</g>
<!-- Node7 -->
<g id="Node000007" class="node">
<title>Node7</title>
<g id="a_Node000007"><a xlink:href="connection__pool_8c.html" target="_top" xlink:title=" ">
<polygon fill="white" stroke="#666666" points="607,-19 512,-19 512,0 607,0 607,-19"/>
<text text-anchor="middle" x="559.5" y="-7" font-family="Helvetica,sans-Serif" font-size="10.00">connection_pool.c</text>
</a>
</g>
</g>
<!-- Node6&#45;&gt;Node7 -->
<g id="edge7_Node000006_Node000007" class="edge">
<title>Node6&#45;&gt;Node7</title>
<g id="a_edge7_Node000006_Node000007"><a xlink:title=" ">
<path fill="none" stroke="#63b8ff" d="M542.32,-45.53C546.7,-36.6 551.79,-26.22 555.29,-19.09"/>
<polygon fill="#63b8ff" stroke="#63b8ff" points="539.06,-44.23 537.79,-54.75 545.34,-47.31 539.06,-44.23"/>
</a>
</g>
</g>
<!-- Node8 -->
<g id="Node000008" class="node">
<title>Node8</title>
<g id="a_Node000008"><a xlink:href="graceful__shutdown_8c.html" target="_top" xlink:title=" ">
<polygon fill="white" stroke="#666666" points="732,-19 625,-19 625,0 732,0 732,-19"/>
<text text-anchor="middle" x="678.5" y="-7" font-family="Helvetica,sans-Serif" font-size="10.00">graceful_shutdown.c</text>
</a>
</g>
</g>
<!-- Node6&#45;&gt;Node8 -->
<g id="edge8_Node000006_Node000008" class="edge">
<title>Node6&#45;&gt;Node8</title>
<g id="a_edge8_Node000006_Node000008"><a xlink:title=" ">
<path fill="none" stroke="#63b8ff" d="M566.19,-51.55C593.12,-41.71 630.66,-27.98 654.78,-19.17"/>
<polygon fill="#63b8ff" stroke="#63b8ff" points="564.99,-48.26 556.8,-54.98 567.39,-54.84 564.99,-48.26"/>
</a>
</g>
</g>
</g>
</svg>
