<?xml version="1.0" encoding="UTF-8" standalone="no"?>
<!DOCTYPE svg PUBLIC "-//W3C//DTD SVG 1.1//EN"
 "http://www.w3.org/Graphics/SVG/1.1/DTD/svg11.dtd">
<!-- Generated by graphviz version 2.43.0 (0)
 -->
<!-- Title: SocketPool.h Pages: 1 -->
<!--zoomable 357 -->

<svg id="main" version="1.1" xmlns="http://www.w3.org/2000/svg" xmlns:xlink="http://www.w3.org/1999/xlink" xml:space="preserve" onload="init(evt)">
<style type="text/css"><![CDATA[
.node, .edge {opacity: 0.7;}
.node.selected, .edge.selected {opacity: 1;}
.edge:hover path { stroke: red; }
.edge:hover polygon { stroke: red; fill: red; }
]]></style>

<defs>
  <circle id="rim" cx="0" cy="0" r="7"/>
  <circle id="rim2" cx="0" cy="0" r="3.5"/>
  <g id="zoomPlus">
    <use xlink:href="#rim" fill="#404040"><set attributeName="fill" to="#808080" begin="zoomplus.mouseover" end="zoomplus.mouseout"/></use>
    <path d="M-4,0h8M0,-4v8" fill="none" stroke="white" stroke-width="1.5" pointer-events="none"/>
  </g>
  <g id="zoomMin">
    <use xlink:href="#rim" fill="#404040"><set attributeName="fill" to="#808080" begin="zoomminus.mouseover" end="zoomminus.mouseout"/></use>
    <path d="M-4,0h8" fill="none" stroke="white" stroke-width="1.5" pointer-events="none"/>
  </g>
  <g id="arrowUp" transform="translate(30 24)">
    <use xlink:href="#rim"/>
    <path pointer-events="none" fill="none" stroke="white" stroke-width="1.5" d="M0,-3.0v7 M-2.5,-0.5L0,-3.0L2.5,-0.5"/>
  </g>
  <g id="arrowRight" transform="rotate(90) translate(36 -43)">
    <use xlink:href="#rim"/>
    <path pointer-events="none" fill="none" stroke="white" stroke-width="1.5" d="M0,-3.0v7 M-2.5,-0.5L0,-3.0L2.5,-0.5"/>
  </g>
  <g id="arrowDown" transform="rotate(180) translate(-30 -48)">
    <use xlink:href="#rim"/>
    <path pointer-events="none" fill="none" stroke="white" stroke-width="1.5" d="M0,-3.0v7 M-2.5,-0.5L0,-3.0L2.5,-0.5"/>
  </g>
  <g id="arrowLeft" transform="rotate(270) translate(-36 17)">
    <use xlink:href="#rim"/>
    <path pointer-events="none" fill="none" stroke="white" stroke-width="1.5" d="M0,-3.0v7 M-2.5,-0.5L0,-3.0L2.5,-0.5"/>
  </g>
  <g id="resetDef">
    <use xlink:href="#rim2" fill="#404040"><set attributeName="fill" to="#808080" begin="reset.mouseover" end="reset.mouseout"/></use>
  </g>
</defs>
<script type="application/ecmascript">
var viewWidth = 1606;
var viewHeight = 357;
var sectionId = 'dynsection-0';
</script>
<script type="application/ecmascript" xlink:href="svg.min.js"/>
<svg id="graph" class="graph">
<g id="viewport">
<title>SocketPool.h</title>
<!-- Node1 -->
<g id="Node000001" class="node">
<title>Node1</title>
<g id="a_Node000001"><a xlink:title=" ">
<polygon fill="#999999" stroke="#666666" points="1329,-349 1254,-349 1254,-330 1329,-330 1329,-349"/>
<text text-anchor="middle" x="1291.5" y="-337" font-family="Helvetica,sans-Serif" font-size="10.00">SocketPool.h</text>
</a>
</g>
</g>
<!-- Node2 -->
<g id="Node000002" class="node">
<title>Node2</title>
<g id="a_Node000002"><a xlink:href="Arena_8h.html" target="_top" xlink:title=" ">
<polygon fill="white" stroke="#666666" points="1389.5,-129 1317.5,-129 1317.5,-110 1389.5,-110 1389.5,-129"/>
<text text-anchor="middle" x="1353.5" y="-117" font-family="Helvetica,sans-Serif" font-size="10.00">core/Arena.h</text>
</a>
</g>
</g>
<!-- Node1&#45;&gt;Node2 -->
<g id="edge1_Node000001_Node000002" class="edge">
<title>Node1&#45;&gt;Node2</title>
<g id="a_edge1_Node000001_Node000002"><a xlink:title=" ">
<path fill="none" stroke="#63b8ff" d="M1294.27,-330C1297.16,-321.06 1301.78,-306.58 1305.5,-294 1322.14,-237.7 1340.2,-170.6 1348.64,-138.87"/>
<polygon fill="#63b8ff" stroke="#63b8ff" points="1352.03,-139.76 1351.21,-129.2 1345.26,-137.96 1352.03,-139.76"/>
</a>
</g>
</g>
<!-- Node3 -->
<g id="Node000003" class="node">
<title>Node3</title>
<g id="a_Node000003"><a xlink:title=" ">
<polygon fill="#e0e0e0" stroke="#999999" points="1379.5,-74 1327.5,-74 1327.5,-55 1379.5,-55 1379.5,-74"/>
<text text-anchor="middle" x="1353.5" y="-62" font-family="Helvetica,sans-Serif" font-size="10.00">stddef.h</text>
</a>
</g>
</g>
<!-- Node1&#45;&gt;Node3 -->
<g id="edge53_Node000001_Node000003" class="edge">
<title>Node1&#45;&gt;Node3</title>
<g id="a_edge53_Node000001_Node000003"><a xlink:title=" ">
<path fill="none" stroke="#63b8ff" d="M1329.1,-337.68C1395.24,-334.02 1525.5,-315.96 1525.5,-230.5 1525.5,-230.5 1525.5,-230.5 1525.5,-173.5 1525.5,-109.83 1439.94,-82.25 1389.51,-71.52"/>
<polygon fill="#63b8ff" stroke="#63b8ff" points="1390.12,-68.08 1379.62,-69.54 1388.74,-74.94 1390.12,-68.08"/>
</a>
</g>
</g>
<!-- Node4 -->
<g id="Node000004" class="node">
<title>Node4</title>
<g id="a_Node000004"><a xlink:href="Except_8h.html" target="_top" xlink:title=" ">
<polygon fill="white" stroke="#666666" points="1178,-74 1101,-74 1101,-55 1178,-55 1178,-74"/>
<text text-anchor="middle" x="1139.5" y="-62" font-family="Helvetica,sans-Serif" font-size="10.00">core/Except.h</text>
</a>
</g>
</g>
<!-- Node1&#45;&gt;Node4 -->
<g id="edge5_Node000001_Node000004" class="edge">
<title>Node1&#45;&gt;Node4</title>
<g id="a_edge5_Node000001_Node000004"><a xlink:title=" ">
<path fill="none" stroke="#63b8ff" d="M1292.67,-329.85C1296.62,-297 1306.24,-178.44 1250.5,-110 1234.97,-90.93 1210.04,-79.98 1187.74,-73.72"/>
<polygon fill="#63b8ff" stroke="#63b8ff" points="1188.61,-70.33 1178.05,-71.24 1186.87,-77.11 1188.61,-70.33"/>
</a>
</g>
</g>
<!-- Node6 -->
<g id="Node000006" class="node">
<title>Node6</title>
<g id="a_Node000006"><a xlink:href="SocketUtil_8h.html" target="_top" xlink:title=" ">
<polygon fill="white" stroke="#666666" points="283.5,-184 191.5,-184 191.5,-165 283.5,-165 283.5,-184"/>
<text text-anchor="middle" x="237.5" y="-172" font-family="Helvetica,sans-Serif" font-size="10.00">core/SocketUtil.h</text>
</a>
</g>
</g>
<!-- Node1&#45;&gt;Node6 -->
<g id="edge6_Node000001_Node000006" class="edge">
<title>Node1&#45;&gt;Node6</title>
<g id="a_edge6_Node000001_Node000006"><a xlink:title=" ">
<path fill="none" stroke="#63b8ff" d="M1253.65,-333.48C1193.87,-325.5 1073.97,-309.26 972.5,-294 718.89,-255.87 416.86,-205.66 293.83,-185"/>
<polygon fill="#63b8ff" stroke="#63b8ff" points="294.32,-181.53 283.88,-183.33 293.17,-188.44 294.32,-181.53"/>
</a>
</g>
</g>
<!-- Node18 -->
<g id="Node000018" class="node">
<title>Node18</title>
<g id="a_Node000018"><a xlink:href="Socket_8h.html" target="_top" xlink:title=" ">
<polygon fill="white" stroke="#666666" points="982.5,-239 894.5,-239 894.5,-220 982.5,-220 982.5,-239"/>
<text text-anchor="middle" x="938.5" y="-227" font-family="Helvetica,sans-Serif" font-size="10.00">socket/Socket.h</text>
</a>
</g>
</g>
<!-- Node1&#45;&gt;Node18 -->
<g id="edge23_Node000001_Node000018" class="edge">
<title>Node1&#45;&gt;Node18</title>
<g id="a_edge23_Node000001_Node000018"><a xlink:title=" ">
<path fill="none" stroke="#63b8ff" d="M1254.68,-329.92C1219.68,-321.55 1165.68,-308.05 1119.5,-294 1066.64,-277.92 1006.28,-256.01 970.34,-242.59"/>
<polygon fill="#63b8ff" stroke="#63b8ff" points="971.47,-239.27 960.87,-239.03 969.01,-245.82 971.47,-239.27"/>
</a>
</g>
</g>
<!-- Node19 -->
<g id="Node000019" class="node">
<title>Node19</title>
<g id="a_Node000019"><a xlink:href="SocketDNS_8h.html" target="_top" xlink:title=" ">
<polygon fill="white" stroke="#666666" points="642.5,-184 546.5,-184 546.5,-165 642.5,-165 642.5,-184"/>
<text text-anchor="middle" x="594.5" y="-172" font-family="Helvetica,sans-Serif" font-size="10.00">dns/SocketDNS.h</text>
</a>
</g>
</g>
<!-- Node1&#45;&gt;Node19 -->
<g id="edge55_Node000001_Node000019" class="edge">
<title>Node1&#45;&gt;Node19</title>
<g id="a_edge55_Node000001_Node000019"><a xlink:title=" ">
<path fill="none" stroke="#63b8ff" d="M1253.99,-332.02C1208,-323.91 1127.75,-309.23 1059.5,-294 901.6,-258.77 715.68,-208.8 635.11,-186.73"/>
<polygon fill="#63b8ff" stroke="#63b8ff" points="635.93,-183.32 625.36,-184.05 634.08,-190.07 635.93,-183.32"/>
</a>
</g>
</g>
<!-- Node27 -->
<g id="Node000027" class="node">
<title>Node27</title>
<g id="a_Node000027"><a xlink:href="SocketBuf_8h.html" target="_top" xlink:title=" ">
<polygon fill="white" stroke="#666666" points="1459,-184 1356,-184 1356,-165 1459,-165 1459,-184"/>
<text text-anchor="middle" x="1407.5" y="-172" font-family="Helvetica,sans-Serif" font-size="10.00">socket/SocketBuf.h</text>
</a>
</g>
</g>
<!-- Node1&#45;&gt;Node27 -->
<g id="edge44_Node000001_Node000027" class="edge">
<title>Node1&#45;&gt;Node27</title>
<g id="a_edge44_Node000001_Node000027"><a xlink:title=" ">
<path fill="none" stroke="#63b8ff" d="M1304.21,-329.72C1315.52,-321.45 1332.01,-308.24 1343.5,-294 1369.34,-261.98 1389.89,-218 1400.22,-193.62"/>
<polygon fill="#63b8ff" stroke="#63b8ff" points="1403.53,-194.77 1404.12,-184.19 1397.06,-192.09 1403.53,-194.77"/>
</a>
</g>
</g>
<!-- Node28 -->
<g id="Node000028" class="node">
<title>Node28</title>
<g id="a_Node000028"><a xlink:href="SocketReconnect_8h.html" target="_top" xlink:title=" ">
<polygon fill="white" stroke="#666666" points="1263,-294 1128,-294 1128,-275 1263,-275 1263,-294"/>
<text text-anchor="middle" x="1195.5" y="-282" font-family="Helvetica,sans-Serif" font-size="10.00">socket/SocketReconnect.h</text>
</a>
</g>
</g>
<!-- Node1&#45;&gt;Node28 -->
<g id="edge48_Node000001_Node000028" class="edge">
<title>Node1&#45;&gt;Node28</title>
<g id="a_edge48_Node000001_Node000028"><a xlink:title=" ">
<path fill="none" stroke="#63b8ff" d="M1276.08,-329.98C1261.05,-321.69 1237.96,-308.94 1220.34,-299.22"/>
<polygon fill="#63b8ff" stroke="#63b8ff" points="1221.65,-295.94 1211.2,-294.17 1218.27,-302.07 1221.65,-295.94"/>
</a>
</g>
</g>
<!-- Node29 -->
<g id="Node000029" class="node">
<title>Node29</title>
<g id="a_Node000029"><a xlink:title=" ">
<polygon fill="#e0e0e0" stroke="#999999" points="1597.5,-294 1553.5,-294 1553.5,-275 1597.5,-275 1597.5,-294"/>
<text text-anchor="middle" x="1575.5" y="-282" font-family="Helvetica,sans-Serif" font-size="10.00">time.h</text>
</a>
</g>
</g>
<!-- Node1&#45;&gt;Node29 -->
<g id="edge54_Node000001_Node000029" class="edge">
<title>Node1&#45;&gt;Node29</title>
<g id="a_edge54_Node000001_Node000029"><a xlink:title=" ">
<path fill="none" stroke="#63b8ff" d="M1329.02,-332.42C1377.69,-324.38 1465.19,-309.43 1539.5,-294 1540.77,-293.74 1542.07,-293.46 1543.38,-293.18"/>
<polygon fill="#63b8ff" stroke="#63b8ff" points="1544.47,-296.52 1553.46,-290.9 1542.93,-289.69 1544.47,-296.52"/>
</a>
</g>
</g>
<!-- Node2&#45;&gt;Node3 -->
<g id="edge2_Node000002_Node000003" class="edge">
<title>Node2&#45;&gt;Node3</title>
<g id="a_edge2_Node000002_Node000003"><a xlink:title=" ">
<path fill="none" stroke="#63b8ff" d="M1353.5,-109.75C1353.5,-102.8 1353.5,-92.85 1353.5,-84.13"/>
<polygon fill="#63b8ff" stroke="#63b8ff" points="1357,-84.09 1353.5,-74.09 1350,-84.09 1357,-84.09"/>
</a>
</g>
</g>
<!-- Node2&#45;&gt;Node4 -->
<g id="edge3_Node000002_Node000004" class="edge">
<title>Node2&#45;&gt;Node4</title>
<g id="a_edge3_Node000002_Node000004"><a xlink:title=" ">
<path fill="none" stroke="#63b8ff" d="M1319.12,-109.98C1282.41,-100.89 1224.12,-86.46 1183.95,-76.51"/>
<polygon fill="#63b8ff" stroke="#63b8ff" points="1184.7,-73.09 1174.15,-74.08 1183.02,-79.88 1184.7,-73.09"/>
</a>
</g>
</g>
<!-- Node5 -->
<g id="Node000005" class="node">
<title>Node5</title>
<g id="a_Node000005"><a xlink:title=" ">
<polygon fill="#e0e0e0" stroke="#999999" points="1166.5,-19 1112.5,-19 1112.5,0 1166.5,0 1166.5,-19"/>
<text text-anchor="middle" x="1139.5" y="-7" font-family="Helvetica,sans-Serif" font-size="10.00">setjmp.h</text>
</a>
</g>
</g>
<!-- Node4&#45;&gt;Node5 -->
<g id="edge4_Node000004_Node000005" class="edge">
<title>Node4&#45;&gt;Node5</title>
<g id="a_edge4_Node000004_Node000005"><a xlink:title=" ">
<path fill="none" stroke="#63b8ff" d="M1139.5,-54.75C1139.5,-47.8 1139.5,-37.85 1139.5,-29.13"/>
<polygon fill="#63b8ff" stroke="#63b8ff" points="1143,-29.09 1139.5,-19.09 1136,-29.09 1143,-29.09"/>
</a>
</g>
</g>
<!-- Node6&#45;&gt;Node3 -->
<g id="edge9_Node000006_Node000003" class="edge">
<title>Node6&#45;&gt;Node3</title>
<g id="a_edge9_Node000006_Node000003"><a xlink:title=" ">
<path fill="none" stroke="#63b8ff" d="M283.69,-167.01C336.75,-159.26 426.31,-145.28 502.5,-129 535.29,-121.99 542.38,-115.2 575.5,-110 612.5,-104.19 1167.7,-75.13 1316.85,-67.39"/>
<polygon fill="#63b8ff" stroke="#63b8ff" points="1317.47,-70.87 1327.27,-66.85 1317.1,-63.88 1317.47,-70.87"/>
</a>
</g>
</g>
<!-- Node6&#45;&gt;Node4 -->
<g id="edge13_Node000006_Node000004" class="edge">
<title>Node6&#45;&gt;Node4</title>
<g id="a_edge13_Node000006_Node000004"><a xlink:title=" ">
<path fill="none" stroke="#63b8ff" d="M271.78,-164.89C328.24,-151.06 444.52,-124.02 544.5,-110 746.08,-81.74 988.77,-70.64 1090.69,-67.01"/>
<polygon fill="#63b8ff" stroke="#63b8ff" points="1090.81,-70.51 1100.68,-66.67 1090.56,-63.52 1090.81,-70.51"/>
</a>
</g>
</g>
<!-- Node7 -->
<g id="Node000007" class="node">
<title>Node7</title>
<g id="a_Node000007"><a xlink:title=" ">
<polygon fill="#e0e0e0" stroke="#999999" points="128,-74 81,-74 81,-55 128,-55 128,-74"/>
<text text-anchor="middle" x="104.5" y="-62" font-family="Helvetica,sans-Serif" font-size="10.00">errno.h</text>
</a>
</g>
</g>
<!-- Node6&#45;&gt;Node7 -->
<g id="edge7_Node000006_Node000007" class="edge">
<title>Node6&#45;&gt;Node7</title>
<g id="a_edge7_Node000006_Node000007"><a xlink:title=" ">
<path fill="none" stroke="#63b8ff" d="M191.34,-172.38C159.08,-168.87 118.05,-158.4 96.5,-129 86.97,-116 90.81,-97.35 95.92,-83.62"/>
<polygon fill="#63b8ff" stroke="#63b8ff" points="99.21,-84.84 99.88,-74.26 92.76,-82.11 99.21,-84.84"/>
</a>
</g>
</g>
<!-- Node8 -->
<g id="Node000008" class="node">
<title>Node8</title>
<g id="a_Node000008"><a xlink:title=" ">
<polygon fill="#e0e0e0" stroke="#999999" points="263.5,-129 211.5,-129 211.5,-110 263.5,-110 263.5,-129"/>
<text text-anchor="middle" x="237.5" y="-117" font-family="Helvetica,sans-Serif" font-size="10.00">stdarg.h</text>
</a>
</g>
</g>
<!-- Node6&#45;&gt;Node8 -->
<g id="edge8_Node000006_Node000008" class="edge">
<title>Node6&#45;&gt;Node8</title>
<g id="a_edge8_Node000006_Node000008"><a xlink:title=" ">
<path fill="none" stroke="#63b8ff" d="M237.5,-164.75C237.5,-157.8 237.5,-147.85 237.5,-139.13"/>
<polygon fill="#63b8ff" stroke="#63b8ff" points="241,-139.09 237.5,-129.09 234,-139.09 241,-139.09"/>
</a>
</g>
</g>
<!-- Node9 -->
<g id="Node000009" class="node">
<title>Node9</title>
<g id="a_Node000009"><a xlink:title=" ">
<polygon fill="#e0e0e0" stroke="#999999" points="49,-129 0,-129 0,-110 49,-110 49,-129"/>
<text text-anchor="middle" x="24.5" y="-117" font-family="Helvetica,sans-Serif" font-size="10.00">stdint.h</text>
</a>
</g>
</g>
<!-- Node6&#45;&gt;Node9 -->
<g id="edge10_Node000006_Node000009" class="edge">
<title>Node6&#45;&gt;Node9</title>
<g id="a_edge10_Node000006_Node000009"><a xlink:title=" ">
<path fill="none" stroke="#63b8ff" d="M203.28,-164.98C163.58,-155.11 98.5,-138.91 58.77,-129.03"/>
<polygon fill="#63b8ff" stroke="#63b8ff" points="59.56,-125.62 49.01,-126.6 57.87,-132.41 59.56,-125.62"/>
</a>
</g>
</g>
<!-- Node10 -->
<g id="Node000010" class="node">
<title>Node10</title>
<g id="a_Node000010"><a xlink:title=" ">
<polygon fill="#e0e0e0" stroke="#999999" points="212.5,-74 166.5,-74 166.5,-55 212.5,-55 212.5,-74"/>
<text text-anchor="middle" x="189.5" y="-62" font-family="Helvetica,sans-Serif" font-size="10.00">stdio.h</text>
</a>
</g>
</g>
<!-- Node6&#45;&gt;Node10 -->
<g id="edge11_Node000006_Node000010" class="edge">
<title>Node6&#45;&gt;Node10</title>
<g id="a_edge11_Node000006_Node000010"><a xlink:title=" ">
<path fill="none" stroke="#63b8ff" d="M228.6,-164.8C220.54,-156.39 208.95,-142.91 202.5,-129 195.91,-114.79 192.64,-97.25 191.03,-84.21"/>
<polygon fill="#63b8ff" stroke="#63b8ff" points="194.5,-83.7 190,-74.11 187.54,-84.41 194.5,-83.7"/>
</a>
</g>
</g>
<!-- Node11 -->
<g id="Node000011" class="node">
<title>Node11</title>
<g id="a_Node000011"><a xlink:title=" ">
<polygon fill="#e0e0e0" stroke="#999999" points="155,-129 106,-129 106,-110 155,-110 155,-129"/>
<text text-anchor="middle" x="130.5" y="-117" font-family="Helvetica,sans-Serif" font-size="10.00">string.h</text>
</a>
</g>
</g>
<!-- Node6&#45;&gt;Node11 -->
<g id="edge12_Node000006_Node000011" class="edge">
<title>Node6&#45;&gt;Node11</title>
<g id="a_edge12_Node000006_Node000011"><a xlink:title=" ">
<path fill="none" stroke="#63b8ff" d="M220.31,-164.98C203.25,-156.54 176.87,-143.47 157.1,-133.68"/>
<polygon fill="#63b8ff" stroke="#63b8ff" points="158.52,-130.47 148,-129.17 155.41,-136.75 158.52,-130.47"/>
</a>
</g>
</g>
<!-- Node12 -->
<g id="Node000012" class="node">
<title>Node12</title>
<g id="a_Node000012"><a xlink:href="SocketConfig_8h.html" target="_top" xlink:title=" ">
<polygon fill="white" stroke="#666666" points="387.5,-129 281.5,-129 281.5,-110 387.5,-110 387.5,-129"/>
<text text-anchor="middle" x="334.5" y="-117" font-family="Helvetica,sans-Serif" font-size="10.00">core/SocketConfig.h</text>
</a>
</g>
</g>
<!-- Node6&#45;&gt;Node12 -->
<g id="edge14_Node000006_Node000012" class="edge">
<title>Node6&#45;&gt;Node12</title>
<g id="a_edge14_Node000006_Node000012"><a xlink:title=" ">
<path fill="none" stroke="#63b8ff" d="M253.08,-164.98C268.27,-156.69 291.6,-143.94 309.4,-134.22"/>
<polygon fill="#63b8ff" stroke="#63b8ff" points="311.53,-137.04 318.63,-129.17 308.18,-130.89 311.53,-137.04"/>
</a>
</g>
</g>
<!-- Node12&#45;&gt;Node3 -->
<g id="edge18_Node000012_Node000003" class="edge">
<title>Node12&#45;&gt;Node3</title>
<g id="a_edge18_Node000012_Node000003"><a xlink:title=" ">
<path fill="none" stroke="#63b8ff" d="M387.85,-115.73C569.81,-106.26 1163.23,-75.4 1316.9,-67.4"/>
<polygon fill="#63b8ff" stroke="#63b8ff" points="1317.38,-70.88 1327.19,-66.87 1317.02,-63.89 1317.38,-70.88"/>
</a>
</g>
</g>
<!-- Node12&#45;&gt;Node7 -->
<g id="edge15_Node000012_Node000007" class="edge">
<title>Node12&#45;&gt;Node7</title>
<g id="a_edge15_Node000012_Node000007"><a xlink:title=" ">
<path fill="none" stroke="#63b8ff" d="M297.55,-109.98C253.44,-99.82 180.32,-82.97 137.86,-73.19"/>
<polygon fill="#63b8ff" stroke="#63b8ff" points="138.55,-69.75 128.02,-70.92 136.98,-76.58 138.55,-69.75"/>
</a>
</g>
</g>
<!-- Node12&#45;&gt;Node10 -->
<g id="edge19_Node000012_Node000010" class="edge">
<title>Node12&#45;&gt;Node10</title>
<g id="a_edge19_Node000012_Node000010"><a xlink:title=" ">
<path fill="none" stroke="#63b8ff" d="M311.2,-109.98C287.1,-101.18 249.27,-87.35 222.19,-77.45"/>
<polygon fill="#63b8ff" stroke="#63b8ff" points="223.33,-74.14 212.74,-73.99 220.93,-80.71 223.33,-74.14"/>
</a>
</g>
</g>
<!-- Node13 -->
<g id="Node000013" class="node">
<title>Node13</title>
<g id="a_Node000013"><a xlink:title=" ">
<polygon fill="#e0e0e0" stroke="#999999" points="562.5,-74 518.5,-74 518.5,-55 562.5,-55 562.5,-74"/>
<text text-anchor="middle" x="540.5" y="-62" font-family="Helvetica,sans-Serif" font-size="10.00">fcntl.h</text>
</a>
</g>
</g>
<!-- Node12&#45;&gt;Node13 -->
<g id="edge16_Node000012_Node000013" class="edge">
<title>Node12&#45;&gt;Node13</title>
<g id="a_edge16_Node000012_Node000013"><a xlink:title=" ">
<path fill="none" stroke="#63b8ff" d="M367.6,-109.98C406.27,-100.03 469.84,-83.68 508.17,-73.82"/>
<polygon fill="#63b8ff" stroke="#63b8ff" points="509.46,-77.1 518.28,-71.22 507.72,-70.32 509.46,-77.1"/>
</a>
</g>
</g>
<!-- Node14 -->
<g id="Node000014" class="node">
<title>Node14</title>
<g id="a_Node000014"><a xlink:title=" ">
<polygon fill="#e0e0e0" stroke="#999999" points="691,-74 626,-74 626,-55 691,-55 691,-74"/>
<text text-anchor="middle" x="658.5" y="-62" font-family="Helvetica,sans-Serif" font-size="10.00">netinet/in.h</text>
</a>
</g>
</g>
<!-- Node12&#45;&gt;Node14 -->
<g id="edge17_Node000012_Node000014" class="edge">
<title>Node12&#45;&gt;Node14</title>
<g id="a_edge17_Node000012_Node000014"><a xlink:title=" ">
<path fill="none" stroke="#63b8ff" d="M386.56,-109.98C450.17,-99.58 556.62,-82.16 615.71,-72.5"/>
<polygon fill="#63b8ff" stroke="#63b8ff" points="616.51,-75.91 625.82,-70.85 615.38,-69.01 616.51,-75.91"/>
</a>
</g>
</g>
<!-- Node15 -->
<g id="Node000015" class="node">
<title>Node15</title>
<g id="a_Node000015"><a xlink:title=" ">
<polygon fill="#e0e0e0" stroke="#999999" points="454,-74 381,-74 381,-55 454,-55 454,-74"/>
<text text-anchor="middle" x="417.5" y="-62" font-family="Helvetica,sans-Serif" font-size="10.00">sys/socket.h</text>
</a>
</g>
</g>
<!-- Node12&#45;&gt;Node15 -->
<g id="edge20_Node000012_Node000015" class="edge">
<title>Node12&#45;&gt;Node15</title>
<g id="a_edge20_Node000012_Node000015"><a xlink:title=" ">
<path fill="none" stroke="#63b8ff" d="M347.84,-109.98C360.59,-101.84 380.05,-89.41 395.17,-79.76"/>
<polygon fill="#63b8ff" stroke="#63b8ff" points="397.38,-82.5 403.92,-74.17 393.61,-76.6 397.38,-82.5"/>
</a>
</g>
</g>
<!-- Node16 -->
<g id="Node000016" class="node">
<title>Node16</title>
<g id="a_Node000016"><a xlink:title=" ">
<polygon fill="#e0e0e0" stroke="#999999" points="362.5,-74 306.5,-74 306.5,-55 362.5,-55 362.5,-74"/>
<text text-anchor="middle" x="334.5" y="-62" font-family="Helvetica,sans-Serif" font-size="10.00">sys/uio.h</text>
</a>
</g>
</g>
<!-- Node12&#45;&gt;Node16 -->
<g id="edge21_Node000012_Node000016" class="edge">
<title>Node12&#45;&gt;Node16</title>
<g id="a_edge21_Node000012_Node000016"><a xlink:title=" ">
<path fill="none" stroke="#63b8ff" d="M334.5,-109.75C334.5,-102.8 334.5,-92.85 334.5,-84.13"/>
<polygon fill="#63b8ff" stroke="#63b8ff" points="338,-84.09 334.5,-74.09 331,-84.09 338,-84.09"/>
</a>
</g>
</g>
<!-- Node17 -->
<g id="Node000017" class="node">
<title>Node17</title>
<g id="a_Node000017"><a xlink:title=" ">
<polygon fill="#e0e0e0" stroke="#999999" points="288,-74 237,-74 237,-55 288,-55 288,-74"/>
<text text-anchor="middle" x="262.5" y="-62" font-family="Helvetica,sans-Serif" font-size="10.00">unistd.h</text>
</a>
</g>
</g>
<!-- Node12&#45;&gt;Node17 -->
<g id="edge22_Node000012_Node000017" class="edge">
<title>Node12&#45;&gt;Node17</title>
<g id="a_edge22_Node000012_Node000017"><a xlink:title=" ">
<path fill="none" stroke="#63b8ff" d="M322.93,-109.98C312.08,-102 295.62,-89.88 282.62,-80.31"/>
<polygon fill="#63b8ff" stroke="#63b8ff" points="284.41,-77.28 274.28,-74.17 280.26,-82.92 284.41,-77.28"/>
</a>
</g>
</g>
<!-- Node18&#45;&gt;Node4 -->
<g id="edge24_Node000018_Node000004" class="edge">
<title>Node18&#45;&gt;Node4</title>
<g id="a_edge24_Node000018_Node000004"><a xlink:title=" ">
<path fill="none" stroke="#63b8ff" d="M968.68,-219.96C1009.15,-206.98 1080.5,-178.4 1120.5,-129 1130.8,-116.28 1135.52,-98.1 1137.68,-84.45"/>
<polygon fill="#63b8ff" stroke="#63b8ff" points="1141.18,-84.63 1138.96,-74.27 1134.24,-83.76 1141.18,-84.63"/>
</a>
</g>
</g>
<!-- Node18&#45;&gt;Node12 -->
<g id="edge25_Node000018_Node000012" class="edge">
<title>Node18&#45;&gt;Node12</title>
<g id="a_edge25_Node000018_Node000012"><a xlink:title=" ">
<path fill="none" stroke="#63b8ff" d="M894.45,-226.39C820.16,-222.22 665.52,-210.86 537.5,-184 475.83,-171.06 406.18,-147.16 366.58,-132.65"/>
<polygon fill="#63b8ff" stroke="#63b8ff" points="367.55,-129.28 356.95,-129.09 365.12,-135.84 367.55,-129.28"/>
</a>
</g>
</g>
<!-- Node18&#45;&gt;Node19 -->
<g id="edge26_Node000018_Node000019" class="edge">
<title>Node18&#45;&gt;Node19</title>
<g id="a_edge26_Node000018_Node000019"><a xlink:title=" ">
<path fill="none" stroke="#63b8ff" d="M894.23,-221.68C832.7,-212.2 721.2,-195.02 652.91,-184.5"/>
<polygon fill="#63b8ff" stroke="#63b8ff" points="653.16,-181 642.75,-182.93 652.1,-187.92 653.16,-181"/>
</a>
</g>
</g>
<!-- Node21 -->
<g id="Node000021" class="node">
<title>Node21</title>
<g id="a_Node000021"><a xlink:href="SocketCommon_8h.html" target="_top" xlink:title=" ">
<polygon fill="white" stroke="#666666" points="948.5,-184 820.5,-184 820.5,-165 948.5,-165 948.5,-184"/>
<text text-anchor="middle" x="884.5" y="-172" font-family="Helvetica,sans-Serif" font-size="10.00">socket/SocketCommon.h</text>
</a>
</g>
</g>
<!-- Node18&#45;&gt;Node21 -->
<g id="edge31_Node000018_Node000021" class="edge">
<title>Node18&#45;&gt;Node21</title>
<g id="a_edge31_Node000018_Node000021"><a xlink:title=" ">
<path fill="none" stroke="#63b8ff" d="M929.58,-219.75C921.72,-212.03 910.07,-200.6 900.58,-191.28"/>
<polygon fill="#63b8ff" stroke="#63b8ff" points="902.84,-188.6 893.25,-184.09 897.94,-193.59 902.84,-188.6"/>
</a>
</g>
</g>
<!-- Node19&#45;&gt;Node3 -->
<g id="edge29_Node000019_Node000003" class="edge">
<title>Node19&#45;&gt;Node3</title>
<g id="a_edge29_Node000019_Node000003"><a xlink:title=" ">
<path fill="none" stroke="#63b8ff" d="M589.83,-164.78C583.24,-151.15 573.49,-124.84 587.5,-110 590.67,-106.64 1165.25,-75.6 1317.07,-67.45"/>
<polygon fill="#63b8ff" stroke="#63b8ff" points="1317.46,-70.93 1327.25,-66.9 1317.08,-63.94 1317.46,-70.93"/>
</a>
</g>
</g>
<!-- Node19&#45;&gt;Node4 -->
<g id="edge27_Node000019_Node000004" class="edge">
<title>Node19&#45;&gt;Node4</title>
<g id="a_edge27_Node000019_Node000004"><a xlink:title=" ">
<path fill="none" stroke="#63b8ff" d="M581.85,-164.83C564.53,-151.95 537.35,-127.42 553.5,-110 589.67,-70.98 955.98,-66 1090.39,-65.5"/>
<polygon fill="#63b8ff" stroke="#63b8ff" points="1090.8,-69 1100.79,-65.47 1090.78,-62 1090.8,-69"/>
</a>
</g>
</g>
<!-- Node19&#45;&gt;Node15 -->
<g id="edge30_Node000019_Node000015" class="edge">
<title>Node19&#45;&gt;Node15</title>
<g id="a_edge30_Node000019_Node000015"><a xlink:title=" ">
<path fill="none" stroke="#63b8ff" d="M560.31,-164.93C535.89,-157.78 502.99,-146.01 477.5,-129 458.46,-116.29 441.01,-96.49 429.9,-82.38"/>
<polygon fill="#63b8ff" stroke="#63b8ff" points="432.41,-79.9 423.56,-74.07 426.84,-84.14 432.41,-79.9"/>
</a>
</g>
</g>
<!-- Node20 -->
<g id="Node000020" class="node">
<title>Node20</title>
<g id="a_Node000020"><a xlink:title=" ">
<polygon fill="#e0e0e0" stroke="#999999" points="645,-129 596,-129 596,-110 645,-110 645,-129"/>
<text text-anchor="middle" x="620.5" y="-117" font-family="Helvetica,sans-Serif" font-size="10.00">netdb.h</text>
</a>
</g>
</g>
<!-- Node19&#45;&gt;Node20 -->
<g id="edge28_Node000019_Node000020" class="edge">
<title>Node19&#45;&gt;Node20</title>
<g id="a_edge28_Node000019_Node000020"><a xlink:title=" ">
<path fill="none" stroke="#63b8ff" d="M598.79,-164.75C602.31,-157.57 607.41,-147.18 611.78,-138.27"/>
<polygon fill="#63b8ff" stroke="#63b8ff" points="615.02,-139.61 616.29,-129.09 608.74,-136.53 615.02,-139.61"/>
</a>
</g>
</g>
<!-- Node21&#45;&gt;Node2 -->
<g id="edge41_Node000021_Node000002" class="edge">
<title>Node21&#45;&gt;Node2</title>
<g id="a_edge41_Node000021_Node000002"><a xlink:title=" ">
<path fill="none" stroke="#63b8ff" d="M948.73,-166.24C1044.7,-155.4 1223.22,-135.22 1307.36,-125.71"/>
<polygon fill="#63b8ff" stroke="#63b8ff" points="1307.84,-129.18 1317.38,-124.58 1307.05,-122.23 1307.84,-129.18"/>
</a>
</g>
</g>
<!-- Node21&#45;&gt;Node4 -->
<g id="edge42_Node000021_Node000004" class="edge">
<title>Node21&#45;&gt;Node4</title>
<g id="a_edge42_Node000021_Node000004"><a xlink:title=" ">
<path fill="none" stroke="#63b8ff" d="M907.91,-164.87C930.74,-156.29 966.33,-142.51 996.5,-129 1013.73,-121.28 1017.35,-117.91 1034.5,-110 1059.18,-98.62 1087.58,-86.65 1108.61,-77.99"/>
<polygon fill="#63b8ff" stroke="#63b8ff" points="1110.08,-81.17 1118.01,-74.15 1107.43,-74.69 1110.08,-81.17"/>
</a>
</g>
</g>
<!-- Node21&#45;&gt;Node12 -->
<g id="edge43_Node000021_Node000012" class="edge">
<title>Node21&#45;&gt;Node12</title>
<g id="a_edge43_Node000021_Node000012"><a xlink:title=" ">
<path fill="none" stroke="#63b8ff" d="M820.33,-167.32C714.2,-157.09 503.38,-136.77 397.81,-126.6"/>
<polygon fill="#63b8ff" stroke="#63b8ff" points="397.91,-123.09 387.62,-125.62 397.24,-130.06 397.91,-123.09"/>
</a>
</g>
</g>
<!-- Node21&#45;&gt;Node13 -->
<g id="edge34_Node000021_Node000013" class="edge">
<title>Node21&#45;&gt;Node13</title>
<g id="a_edge34_Node000021_Node000013"><a xlink:title=" ">
<path fill="none" stroke="#63b8ff" d="M850.13,-164.99C818.64,-156.86 770.91,-143.69 730.5,-129 710.86,-121.86 707.09,-117.26 687.5,-110 648.58,-95.57 602.65,-82.24 572.62,-74"/>
<polygon fill="#63b8ff" stroke="#63b8ff" points="573.26,-70.55 562.69,-71.31 571.43,-77.31 573.26,-70.55"/>
</a>
</g>
</g>
<!-- Node21&#45;&gt;Node14 -->
<g id="edge36_Node000021_Node000014" class="edge">
<title>Node21&#45;&gt;Node14</title>
<g id="a_edge36_Node000021_Node000014"><a xlink:title=" ">
<path fill="none" stroke="#63b8ff" d="M858.91,-164.85C835.3,-156.57 799.46,-143.27 769.5,-129 737.75,-113.88 702.8,-93.17 680.77,-79.57"/>
<polygon fill="#63b8ff" stroke="#63b8ff" points="682.5,-76.52 672.16,-74.21 678.8,-82.46 682.5,-76.52"/>
</a>
</g>
</g>
<!-- Node21&#45;&gt;Node15 -->
<g id="edge37_Node000021_Node000015" class="edge">
<title>Node21&#45;&gt;Node15</title>
<g id="a_edge37_Node000021_Node000015"><a xlink:title=" ">
<path fill="none" stroke="#63b8ff" d="M825.81,-165C785.91,-158.07 732.41,-146.54 687.5,-129 671.74,-122.84 670.37,-115.87 654.5,-110 591.03,-86.54 513.22,-74.97 464.49,-69.62"/>
<polygon fill="#63b8ff" stroke="#63b8ff" points="464.56,-66.11 454.25,-68.54 463.83,-73.07 464.56,-66.11"/>
</a>
</g>
</g>
<!-- Node21&#45;&gt;Node20 -->
<g id="edge35_Node000021_Node000020" class="edge">
<title>Node21&#45;&gt;Node20</title>
<g id="a_edge35_Node000021_Node000020"><a xlink:title=" ">
<path fill="none" stroke="#63b8ff" d="M840.05,-164.97C794.63,-156.19 722.07,-142.01 659.5,-129 658.06,-128.7 656.59,-128.39 655.1,-128.08"/>
<polygon fill="#63b8ff" stroke="#63b8ff" points="655.75,-124.64 645.24,-125.97 654.29,-131.48 655.75,-124.64"/>
</a>
</g>
</g>
<!-- Node22 -->
<g id="Node000022" class="node">
<title>Node22</title>
<g id="a_Node000022"><a xlink:title=" ">
<polygon fill="#e0e0e0" stroke="#999999" points="1223.5,-129 1167.5,-129 1167.5,-110 1223.5,-110 1223.5,-129"/>
<text text-anchor="middle" x="1195.5" y="-117" font-family="Helvetica,sans-Serif" font-size="10.00">stdbool.h</text>
</a>
</g>
</g>
<!-- Node21&#45;&gt;Node22 -->
<g id="edge32_Node000021_Node000022" class="edge">
<title>Node21&#45;&gt;Node22</title>
<g id="a_edge32_Node000021_Node000022"><a xlink:title=" ">
<path fill="none" stroke="#63b8ff" d="M934.47,-164.98C996.7,-154.38 1101.63,-136.5 1157.62,-126.95"/>
<polygon fill="#63b8ff" stroke="#63b8ff" points="1158.22,-130.4 1167.49,-125.27 1157.04,-123.5 1158.22,-130.4"/>
</a>
</g>
</g>
<!-- Node23 -->
<g id="Node000023" class="node">
<title>Node23</title>
<g id="a_Node000023"><a xlink:title=" ">
<polygon fill="#e0e0e0" stroke="#999999" points="835,-129 778,-129 778,-110 835,-110 835,-129"/>
<text text-anchor="middle" x="806.5" y="-117" font-family="Helvetica,sans-Serif" font-size="10.00">pthread.h</text>
</a>
</g>
</g>
<!-- Node21&#45;&gt;Node23 -->
<g id="edge33_Node000021_Node000023" class="edge">
<title>Node21&#45;&gt;Node23</title>
<g id="a_edge33_Node000021_Node000023"><a xlink:title=" ">
<path fill="none" stroke="#63b8ff" d="M871.97,-164.98C860.1,-156.92 842.04,-144.65 827.89,-135.03"/>
<polygon fill="#63b8ff" stroke="#63b8ff" points="829.5,-131.9 819.26,-129.17 825.56,-137.69 829.5,-131.9"/>
</a>
</g>
</g>
<!-- Node24 -->
<g id="Node000024" class="node">
<title>Node24</title>
<g id="a_Node000024"><a xlink:title=" ">
<polygon fill="#e0e0e0" stroke="#999999" points="915.5,-129 853.5,-129 853.5,-110 915.5,-110 915.5,-129"/>
<text text-anchor="middle" x="884.5" y="-117" font-family="Helvetica,sans-Serif" font-size="10.00">sys/time.h</text>
</a>
</g>
</g>
<!-- Node21&#45;&gt;Node24 -->
<g id="edge38_Node000021_Node000024" class="edge">
<title>Node21&#45;&gt;Node24</title>
<g id="a_edge38_Node000021_Node000024"><a xlink:title=" ">
<path fill="none" stroke="#63b8ff" d="M884.5,-164.75C884.5,-157.8 884.5,-147.85 884.5,-139.13"/>
<polygon fill="#63b8ff" stroke="#63b8ff" points="888,-139.09 884.5,-129.09 881,-139.09 888,-139.09"/>
</a>
</g>
</g>
<!-- Node25 -->
<g id="Node000025" class="node">
<title>Node25</title>
<g id="a_Node000025"><a xlink:title=" ">
<polygon fill="#e0e0e0" stroke="#999999" points="1111.5,-129 1043.5,-129 1043.5,-110 1111.5,-110 1111.5,-129"/>
<text text-anchor="middle" x="1077.5" y="-117" font-family="Helvetica,sans-Serif" font-size="10.00">sys/types.h</text>
</a>
</g>
</g>
<!-- Node21&#45;&gt;Node25 -->
<g id="edge39_Node000021_Node000025" class="edge">
<title>Node21&#45;&gt;Node25</title>
<g id="a_edge39_Node000021_Node000025"><a xlink:title=" ">
<path fill="none" stroke="#63b8ff" d="M915.51,-164.98C948.33,-155.97 1000.3,-141.7 1036.49,-131.76"/>
<polygon fill="#63b8ff" stroke="#63b8ff" points="1037.53,-135.11 1046.25,-129.08 1035.68,-128.36 1037.53,-135.11"/>
</a>
</g>
</g>
<!-- Node26 -->
<g id="Node000026" class="node">
<title>Node26</title>
<g id="a_Node000026"><a xlink:title=" ">
<polygon fill="#e0e0e0" stroke="#999999" points="987.5,-129 933.5,-129 933.5,-110 987.5,-110 987.5,-129"/>
<text text-anchor="middle" x="960.5" y="-117" font-family="Helvetica,sans-Serif" font-size="10.00">sys/un.h</text>
</a>
</g>
</g>
<!-- Node21&#45;&gt;Node26 -->
<g id="edge40_Node000021_Node000026" class="edge">
<title>Node21&#45;&gt;Node26</title>
<g id="a_edge40_Node000021_Node000026"><a xlink:title=" ">
<path fill="none" stroke="#63b8ff" d="M896.71,-164.98C908.28,-156.92 925.88,-144.65 939.66,-135.03"/>
<polygon fill="#63b8ff" stroke="#63b8ff" points="941.87,-137.76 948.07,-129.17 937.86,-132.02 941.87,-137.76"/>
</a>
</g>
</g>
<!-- Node27&#45;&gt;Node2 -->
<g id="edge45_Node000027_Node000002" class="edge">
<title>Node27&#45;&gt;Node2</title>
<g id="a_edge45_Node000027_Node000002"><a xlink:title=" ">
<path fill="none" stroke="#63b8ff" d="M1398.58,-164.75C1390.72,-157.03 1379.07,-145.6 1369.58,-136.28"/>
<polygon fill="#63b8ff" stroke="#63b8ff" points="1371.84,-133.6 1362.25,-129.09 1366.94,-138.59 1371.84,-133.6"/>
</a>
</g>
</g>
<!-- Node27&#45;&gt;Node3 -->
<g id="edge46_Node000027_Node000003" class="edge">
<title>Node27&#45;&gt;Node3</title>
<g id="a_edge46_Node000027_Node000003"><a xlink:title=" ">
<path fill="none" stroke="#63b8ff" d="M1407.97,-164.77C1408.3,-152.03 1407.5,-127.91 1398.5,-110 1392.76,-98.58 1382.94,-88.34 1373.93,-80.58"/>
<polygon fill="#63b8ff" stroke="#63b8ff" points="1376,-77.75 1366.03,-74.18 1371.6,-83.19 1376,-77.75"/>
</a>
</g>
</g>
<!-- Node27&#45;&gt;Node22 -->
<g id="edge47_Node000027_Node000022" class="edge">
<title>Node27&#45;&gt;Node22</title>
<g id="a_edge47_Node000027_Node000022"><a xlink:title=" ">
<path fill="none" stroke="#63b8ff" d="M1373.44,-164.98C1335.21,-155.43 1273.36,-139.97 1233.57,-130.02"/>
<polygon fill="#63b8ff" stroke="#63b8ff" points="1234.26,-126.58 1223.71,-127.55 1232.56,-133.37 1234.26,-126.58"/>
</a>
</g>
</g>
<!-- Node28&#45;&gt;Node3 -->
<g id="edge51_Node000028_Node000003" class="edge">
<title>Node28&#45;&gt;Node3</title>
<g id="a_edge51_Node000028_Node000003"><a xlink:title=" ">
<path fill="none" stroke="#63b8ff" d="M1263.27,-279.81C1328.04,-272.25 1422.44,-249.82 1468.5,-184 1498.61,-140.98 1426.77,-98.87 1383.45,-78.38"/>
<polygon fill="#63b8ff" stroke="#63b8ff" points="1384.72,-75.11 1374.17,-74.11 1381.79,-81.47 1384.72,-75.11"/>
</a>
</g>
</g>
<!-- Node28&#45;&gt;Node4 -->
<g id="edge49_Node000028_Node000004" class="edge">
<title>Node28&#45;&gt;Node4</title>
<g id="a_edge49_Node000028_Node000004"><a xlink:title=" ">
<path fill="none" stroke="#63b8ff" d="M1201.49,-274.78C1219.09,-247.97 1267.31,-165.24 1232.5,-110 1222.44,-94.03 1204.88,-83.66 1187.71,-77"/>
<polygon fill="#63b8ff" stroke="#63b8ff" points="1188.86,-73.69 1178.26,-73.66 1186.53,-80.29 1188.86,-73.69"/>
</a>
</g>
</g>
<!-- Node28&#45;&gt;Node18 -->
<g id="edge50_Node000028_Node000018" class="edge">
<title>Node28&#45;&gt;Node18</title>
<g id="a_edge50_Node000028_Node000018"><a xlink:title=" ">
<path fill="none" stroke="#63b8ff" d="M1154.21,-274.98C1109.57,-265.78 1038.34,-251.09 990.05,-241.13"/>
<polygon fill="#63b8ff" stroke="#63b8ff" points="990.62,-237.67 980.12,-239.08 989.2,-244.53 990.62,-237.67"/>
</a>
</g>
</g>
<!-- Node28&#45;&gt;Node25 -->
<g id="edge52_Node000028_Node000025" class="edge">
<title>Node28&#45;&gt;Node25</title>
<g id="a_edge52_Node000028_Node000025"><a xlink:title=" ">
<path fill="none" stroke="#63b8ff" d="M1189.16,-274.74C1170.35,-248.76 1114.66,-171.83 1089.76,-137.44"/>
<polygon fill="#63b8ff" stroke="#63b8ff" points="1092.57,-135.35 1083.88,-129.31 1086.9,-139.46 1092.57,-135.35"/>
</a>
</g>
</g>
</g>
</svg>

<g id="navigator" transform="translate(0 0)" fill="#404254">
  <rect fill="#f2f5e9" fill-opacity="0.5" stroke="#606060" stroke-width=".5" x="0" y="0" width="60" height="60"/>
  <use id="zoomplus" xlink:href="#zoomPlus" x="17" y="9" onmousedown="handleZoom(evt,'in')"/>
  <use id="zoomminus" xlink:href="#zoomMin" x="42" y="9" onmousedown="handleZoom(evt,'out')"/>
  <use id="reset" xlink:href="#resetDef" x="30" y="36" onmousedown="handleReset()"/>
   <use id="arrowup" xlink:href="#arrowUp" x="0" y="0" onmousedown="handlePan(0,-1)"/>
  <use id="arrowright" xlink:href="#arrowRight" x="0" y="0" onmousedown="handlePan(1,0)"/>
  <use id="arrowdown" xlink:href="#arrowDown" x="0" y="0" onmousedown="handlePan(0,1)"/>
  <use id="arrowleft" xlink:href="#arrowLeft" x="0" y="0" onmousedown="handlePan(-1,0)"/>
</g>
<svg viewBox="0 0 15 15" width="100%" height="30px" preserveAspectRatio="xMaxYMin meet">
 <g id="arrow_out" transform="scale(0.3 0.3)">
  <a xlink:href="SocketPool_8h__incl_org.svg" target="_base">
   <rect id="button" ry="5" rx="5" y="6" x="6" height="38" width="38"
        fill="#f2f5e9" fill-opacity="0.5" stroke="#606060" stroke-width="1.0"/>
   <path id="arrow"
     d="M 11.500037,31.436501 C 11.940474,20.09759 22.043105,11.32322 32.158766,21.979434 L 37.068811,17.246167 C 37.068811,17.246167 37.088388,32 37.088388,32 L 22.160133,31.978069 C 22.160133,31.978069 26.997745,27.140456 26.997745,27.140456 C 18.528582,18.264221 13.291696,25.230495 11.500037,31.436501 z"
     style="fill:#404040;"/>
  </a>
 </g>
</svg>

<style type='text/css'>
<![CDATA[
[data-mouse-over-selected='false'] { opacity: 0.7; }
[data-mouse-over-selected='true']  { opacity: 1.0; }
]]>
</style>
<script type="application/ecmascript"><![CDATA[
document.addEventListener('DOMContentLoaded', (event) => {
  highlightEdges();
  highlightAdjacentNodes();
});
]]></script>
</svg>
