<?xml version="1.0" encoding="UTF-8" standalone="no"?>
<!DOCTYPE svg PUBLIC "-//W3C//DTD SVG 1.1//EN"
 "http://www.w3.org/Graphics/SVG/1.1/DTD/svg11.dtd">
<!-- Generated by graphviz version 2.43.0 (0)
 -->
<!-- Title: SocketTLSContext.h Pages: 1 -->
<!--zoomable 357 -->

<svg id="main" version="1.1" xmlns="http://www.w3.org/2000/svg" xmlns:xlink="http://www.w3.org/1999/xlink" xml:space="preserve" onload="init(evt)">
<style type="text/css"><![CDATA[
.node, .edge {opacity: 0.7;}
.node.selected, .edge.selected {opacity: 1;}
.edge:hover path { stroke: red; }
.edge:hover polygon { stroke: red; fill: red; }
]]></style>

<defs>
  <circle id="rim" cx="0" cy="0" r="7"/>
  <circle id="rim2" cx="0" cy="0" r="3.5"/>
  <g id="zoomPlus">
    <use xlink:href="#rim" fill="#404040"><set attributeName="fill" to="#808080" begin="zoomplus.mouseover" end="zoomplus.mouseout"/></use>
    <path d="M-4,0h8M0,-4v8" fill="none" stroke="white" stroke-width="1.5" pointer-events="none"/>
  </g>
  <g id="zoomMin">
    <use xlink:href="#rim" fill="#404040"><set attributeName="fill" to="#808080" begin="zoomminus.mouseover" end="zoomminus.mouseout"/></use>
    <path d="M-4,0h8" fill="none" stroke="white" stroke-width="1.5" pointer-events="none"/>
  </g>
  <g id="arrowUp" transform="translate(30 24)">
    <use xlink:href="#rim"/>
    <path pointer-events="none" fill="none" stroke="white" stroke-width="1.5" d="M0,-3.0v7 M-2.5,-0.5L0,-3.0L2.5,-0.5"/>
  </g>
  <g id="arrowRight" transform="rotate(90) translate(36 -43)">
    <use xlink:href="#rim"/>
    <path pointer-events="none" fill="none" stroke="white" stroke-width="1.5" d="M0,-3.0v7 M-2.5,-0.5L0,-3.0L2.5,-0.5"/>
  </g>
  <g id="arrowDown" transform="rotate(180) translate(-30 -48)">
    <use xlink:href="#rim"/>
    <path pointer-events="none" fill="none" stroke="white" stroke-width="1.5" d="M0,-3.0v7 M-2.5,-0.5L0,-3.0L2.5,-0.5"/>
  </g>
  <g id="arrowLeft" transform="rotate(270) translate(-36 17)">
    <use xlink:href="#rim"/>
    <path pointer-events="none" fill="none" stroke="white" stroke-width="1.5" d="M0,-3.0v7 M-2.5,-0.5L0,-3.0L2.5,-0.5"/>
  </g>
  <g id="resetDef">
    <use xlink:href="#rim2" fill="#404040"><set attributeName="fill" to="#808080" begin="reset.mouseover" end="reset.mouseout"/></use>
  </g>
</defs>
<script type="application/ecmascript">
var viewWidth = 983;
var viewHeight = 357;
var sectionId = 'dynsection-0';
</script>
<script type="application/ecmascript" xlink:href="svg.min.js"/>
<svg id="graph" class="graph">
<g id="viewport">
<title>SocketTLSContext.h</title>
<!-- Node1 -->
<g id="Node000001" class="node">
<title>Node1</title>
<g id="a_Node000001"><a xlink:title="TLS context management with secure defaults and certificate handling.">
<polygon fill="#999999" stroke="#666666" points="439,-349 331,-349 331,-330 439,-330 439,-349"/>
<text text-anchor="middle" x="385" y="-337" font-family="Helvetica,sans-Serif" font-size="10.00">SocketTLSContext.h</text>
</a>
</g>
</g>
<!-- Node2 -->
<g id="Node000002" class="node">
<title>Node2</title>
<g id="a_Node000002"><a xlink:href="Arena_8h.html" target="_top" xlink:title="Arena&#45;based memory allocator for efficient bulk memory management.">
<polygon fill="white" stroke="#666666" points="214,-129 142,-129 142,-110 214,-110 214,-129"/>
<text text-anchor="middle" x="178" y="-117" font-family="Helvetica,sans-Serif" font-size="10.00">core/Arena.h</text>
</a>
</g>
</g>
<!-- Node1&#45;&gt;Node2 -->
<g id="edge1_Node000001_Node000002" class="edge">
<title>Node1&#45;&gt;Node2</title>
<g id="a_edge1_Node000001_Node000002"><a xlink:title=" ">
<path fill="none" stroke="#63b8ff" d="M330.85,-333.44C275.3,-324.83 193.15,-301.6 165,-239 150.13,-205.93 161.7,-162.64 170.48,-138.59"/>
<polygon fill="#63b8ff" stroke="#63b8ff" points="173.85,-139.59 174.22,-129 167.33,-137.05 173.85,-139.59"/>
</a>
</g>
</g>
<!-- Node4 -->
<g id="Node000004" class="node">
<title>Node4</title>
<g id="a_Node000004"><a xlink:href="Except_8h.html" target="_top" xlink:title="Structured exception handling for C with TRY/EXCEPT/FINALLY blocks.">
<polygon fill="white" stroke="#666666" points="125.5,-74 48.5,-74 48.5,-55 125.5,-55 125.5,-74"/>
<text text-anchor="middle" x="87" y="-62" font-family="Helvetica,sans-Serif" font-size="10.00">core/Except.h</text>
</a>
</g>
</g>
<!-- Node1&#45;&gt;Node4 -->
<g id="edge5_Node000001_Node000004" class="edge">
<title>Node1&#45;&gt;Node4</title>
<g id="a_edge5_Node000001_Node000004"><a xlink:title=" ">
<path fill="none" stroke="#63b8ff" d="M330.66,-334.63C224.53,-325.56 0,-298.36 0,-230.5 0,-230.5 0,-230.5 0,-173.5 0,-132.58 38.35,-98.39 64.12,-80.03"/>
<polygon fill="#63b8ff" stroke="#63b8ff" points="66.35,-82.75 72.63,-74.21 62.4,-76.97 66.35,-82.75"/>
</a>
</g>
</g>
<!-- Node6 -->
<g id="Node000006" class="node">
<title>Node6</title>
<g id="a_Node000006"><a xlink:href="SocketTLS_8h.html" target="_top" xlink:title="High&#45;level TLS/SSL integration for secure Socket I/O with TLS 1.3 enforcement.">
<polygon fill="white" stroke="#666666" points="323.5,-294 236.5,-294 236.5,-275 323.5,-275 323.5,-294"/>
<text text-anchor="middle" x="280" y="-282" font-family="Helvetica,sans-Serif" font-size="10.00">tls/SocketTLS.h</text>
</a>
</g>
</g>
<!-- Node1&#45;&gt;Node6 -->
<g id="edge6_Node000001_Node000006" class="edge">
<title>Node1&#45;&gt;Node6</title>
<g id="a_edge6_Node000001_Node000006"><a xlink:title=" ">
<path fill="none" stroke="#63b8ff" d="M368.13,-329.98C351.39,-321.54 325.5,-308.47 306.11,-298.68"/>
<polygon fill="#63b8ff" stroke="#63b8ff" points="307.68,-295.55 297.18,-294.17 304.53,-301.8 307.68,-295.55"/>
</a>
</g>
</g>
<!-- Node28 -->
<g id="Node000028" class="node">
<title>Node28</title>
<g id="a_Node000028"><a xlink:href="SocketTLSConfig_8h.html" target="_top" xlink:title="TLS configuration constants, structure, and secure defaults.">
<polygon fill="white" stroke="#666666" points="548,-294 432,-294 432,-275 548,-275 548,-294"/>
<text text-anchor="middle" x="490" y="-282" font-family="Helvetica,sans-Serif" font-size="10.00">tls/SocketTLSConfig.h</text>
</a>
</g>
</g>
<!-- Node1&#45;&gt;Node28 -->
<g id="edge41_Node000001_Node000028" class="edge">
<title>Node1&#45;&gt;Node28</title>
<g id="a_edge41_Node000001_Node000028"><a xlink:title=" ">
<path fill="none" stroke="#63b8ff" d="M401.87,-329.98C418.61,-321.54 444.5,-308.47 463.89,-298.68"/>
<polygon fill="#63b8ff" stroke="#63b8ff" points="465.47,-301.8 472.82,-294.17 462.32,-295.55 465.47,-301.8"/>
</a>
</g>
</g>
<!-- Node31 -->
<g id="Node000031" class="node">
<title>Node31</title>
<g id="a_Node000031"><a xlink:title=" ">
<polygon fill="#e0e0e0" stroke="#999999" points="837,-239 763,-239 763,-220 837,-220 837,-239"/>
<text text-anchor="middle" x="800" y="-227" font-family="Helvetica,sans-Serif" font-size="10.00">openssl/ssl.h</text>
</a>
</g>
</g>
<!-- Node1&#45;&gt;Node31 -->
<g id="edge47_Node000001_Node000031" class="edge">
<title>Node1&#45;&gt;Node31</title>
<g id="a_edge47_Node000001_Node000031"><a xlink:title=" ">
<path fill="none" stroke="#63b8ff" d="M428.18,-329.97C463.44,-322.38 514.25,-310.01 557,-294 574.68,-287.38 577.19,-281.27 595,-275 623.58,-264.93 701.62,-249.15 752.75,-239.34"/>
<polygon fill="#63b8ff" stroke="#63b8ff" points="753.43,-242.77 762.59,-237.46 752.11,-235.9 753.43,-242.77"/>
</a>
</g>
</g>
<!-- Node33 -->
<g id="Node000033" class="node">
<title>Node33</title>
<g id="a_Node000033"><a xlink:title=" ">
<polygon fill="#e0e0e0" stroke="#999999" points="704,-294 604,-294 604,-275 704,-275 704,-294"/>
<text text-anchor="middle" x="654" y="-282" font-family="Helvetica,sans-Serif" font-size="10.00">openssl/x509_vfy.h</text>
</a>
</g>
</g>
<!-- Node1&#45;&gt;Node33 -->
<g id="edge48_Node000001_Node000033" class="edge">
<title>Node1&#45;&gt;Node33</title>
<g id="a_edge48_Node000001_Node000033"><a xlink:title=" ">
<path fill="none" stroke="#63b8ff" d="M428.22,-329.98C475.04,-320.76 549.81,-306.03 600.36,-296.07"/>
<polygon fill="#63b8ff" stroke="#63b8ff" points="601.31,-299.45 610.44,-294.08 599.95,-292.58 601.31,-299.45"/>
</a>
</g>
</g>
<!-- Node3 -->
<g id="Node000003" class="node">
<title>Node3</title>
<g id="a_Node000003"><a xlink:title=" ">
<polygon fill="#e0e0e0" stroke="#999999" points="269,-74 217,-74 217,-55 269,-55 269,-74"/>
<text text-anchor="middle" x="243" y="-62" font-family="Helvetica,sans-Serif" font-size="10.00">stddef.h</text>
</a>
</g>
</g>
<!-- Node2&#45;&gt;Node3 -->
<g id="edge2_Node000002_Node000003" class="edge">
<title>Node2&#45;&gt;Node3</title>
<g id="a_edge2_Node000002_Node000003"><a xlink:title=" ">
<path fill="none" stroke="#63b8ff" d="M188.44,-109.98C198.15,-102.07 212.82,-90.11 224.5,-80.58"/>
<polygon fill="#63b8ff" stroke="#63b8ff" points="226.83,-83.2 232.37,-74.17 222.4,-77.78 226.83,-83.2"/>
</a>
</g>
</g>
<!-- Node2&#45;&gt;Node4 -->
<g id="edge3_Node000002_Node000004" class="edge">
<title>Node2&#45;&gt;Node4</title>
<g id="a_edge3_Node000002_Node000004"><a xlink:title=" ">
<path fill="none" stroke="#63b8ff" d="M163.38,-109.98C149.14,-101.69 127.25,-88.94 110.55,-79.22"/>
<polygon fill="#63b8ff" stroke="#63b8ff" points="112.29,-76.18 101.89,-74.17 108.77,-82.23 112.29,-76.18"/>
</a>
</g>
</g>
<!-- Node5 -->
<g id="Node000005" class="node">
<title>Node5</title>
<g id="a_Node000005"><a xlink:title=" ">
<polygon fill="#e0e0e0" stroke="#999999" points="114,-19 60,-19 60,0 114,0 114,-19"/>
<text text-anchor="middle" x="87" y="-7" font-family="Helvetica,sans-Serif" font-size="10.00">setjmp.h</text>
</a>
</g>
</g>
<!-- Node4&#45;&gt;Node5 -->
<g id="edge4_Node000004_Node000005" class="edge">
<title>Node4&#45;&gt;Node5</title>
<g id="a_edge4_Node000004_Node000005"><a xlink:title=" ">
<path fill="none" stroke="#63b8ff" d="M87,-54.75C87,-47.8 87,-37.85 87,-29.13"/>
<polygon fill="#63b8ff" stroke="#63b8ff" points="90.5,-29.09 87,-19.09 83.5,-29.09 90.5,-29.09"/>
</a>
</g>
</g>
<!-- Node6&#45;&gt;Node4 -->
<g id="edge7_Node000006_Node000004" class="edge">
<title>Node6&#45;&gt;Node4</title>
<g id="a_edge7_Node000006_Node000004"><a xlink:title=" ">
<path fill="none" stroke="#63b8ff" d="M240.85,-274.98C216.97,-268.27 186.94,-256.98 165,-239 120.18,-202.26 114.65,-183.51 95,-129 89.81,-114.61 87.89,-97.33 87.22,-84.43"/>
<polygon fill="#63b8ff" stroke="#63b8ff" points="90.72,-84.3 86.91,-74.41 83.72,-84.52 90.72,-84.3"/>
</a>
</g>
</g>
<!-- Node7 -->
<g id="Node000007" class="node">
<title>Node7</title>
<g id="a_Node000007"><a xlink:href="Socket_8h.html" target="_top" xlink:title="High&#45;level TCP/IP and Unix domain socket interface.">
<polygon fill="white" stroke="#666666" points="324,-239 236,-239 236,-220 324,-220 324,-239"/>
<text text-anchor="middle" x="280" y="-227" font-family="Helvetica,sans-Serif" font-size="10.00">socket/Socket.h</text>
</a>
</g>
</g>
<!-- Node6&#45;&gt;Node7 -->
<g id="edge8_Node000006_Node000007" class="edge">
<title>Node6&#45;&gt;Node7</title>
<g id="a_edge8_Node000006_Node000007"><a xlink:title=" ">
<path fill="none" stroke="#63b8ff" d="M280,-274.75C280,-267.8 280,-257.85 280,-249.13"/>
<polygon fill="#63b8ff" stroke="#63b8ff" points="283.5,-249.09 280,-239.09 276.5,-249.09 283.5,-249.09"/>
</a>
</g>
</g>
<!-- Node26 -->
<g id="Node000026" class="node">
<title>Node26</title>
<g id="a_Node000026"><a xlink:title=" ">
<polygon fill="#e0e0e0" stroke="#999999" points="425.5,-239 342.5,-239 342.5,-220 425.5,-220 425.5,-239"/>
<text text-anchor="middle" x="384" y="-227" font-family="Helvetica,sans-Serif" font-size="10.00">openssl/x509.h</text>
</a>
</g>
</g>
<!-- Node6&#45;&gt;Node26 -->
<g id="edge39_Node000006_Node000026" class="edge">
<title>Node6&#45;&gt;Node26</title>
<g id="a_edge39_Node000006_Node000026"><a xlink:title=" ">
<path fill="none" stroke="#63b8ff" d="M296.71,-274.98C313.21,-266.57 338.7,-253.59 357.88,-243.81"/>
<polygon fill="#63b8ff" stroke="#63b8ff" points="359.67,-246.83 366.99,-239.17 356.49,-240.59 359.67,-246.83"/>
</a>
</g>
</g>
<!-- Node27 -->
<g id="Node000027" class="node">
<title>Node27</title>
<g id="a_Node000027"><a xlink:title=" ">
<polygon fill="#e0e0e0" stroke="#999999" points="218,-239 174,-239 174,-220 218,-220 218,-239"/>
<text text-anchor="middle" x="196" y="-227" font-family="Helvetica,sans-Serif" font-size="10.00">time.h</text>
</a>
</g>
</g>
<!-- Node6&#45;&gt;Node27 -->
<g id="edge40_Node000006_Node000027" class="edge">
<title>Node6&#45;&gt;Node27</title>
<g id="a_edge40_Node000006_Node000027"><a xlink:title=" ">
<path fill="none" stroke="#63b8ff" d="M266.5,-274.98C253.6,-266.84 233.9,-254.41 218.6,-244.76"/>
<polygon fill="#63b8ff" stroke="#63b8ff" points="220.07,-241.55 209.74,-239.17 216.33,-247.47 220.07,-241.55"/>
</a>
</g>
</g>
<!-- Node7&#45;&gt;Node4 -->
<g id="edge9_Node000007_Node000004" class="edge">
<title>Node7&#45;&gt;Node4</title>
<g id="a_edge9_Node000007_Node000004"><a xlink:title=" ">
<path fill="none" stroke="#63b8ff" d="M253.81,-219.91C216.49,-206.37 148.18,-176.6 109,-129 98.46,-116.19 92.84,-98.02 89.93,-84.4"/>
<polygon fill="#63b8ff" stroke="#63b8ff" points="93.31,-83.45 88.07,-74.24 86.43,-84.71 93.31,-83.45"/>
</a>
</g>
</g>
<!-- Node8 -->
<g id="Node000008" class="node">
<title>Node8</title>
<g id="a_Node000008"><a xlink:href="SocketConfig_8h.html" target="_top" xlink:title="Compile&#45;time and runtime configuration constants, limits, and platform adaptations.">
<polygon fill="white" stroke="#666666" points="686,-129 580,-129 580,-110 686,-110 686,-129"/>
<text text-anchor="middle" x="633" y="-117" font-family="Helvetica,sans-Serif" font-size="10.00">core/SocketConfig.h</text>
</a>
</g>
</g>
<!-- Node7&#45;&gt;Node8 -->
<g id="edge10_Node000007_Node000008" class="edge">
<title>Node7&#45;&gt;Node8</title>
<g id="a_edge10_Node000007_Node000008"><a xlink:title=" ">
<path fill="none" stroke="#63b8ff" d="M324.23,-221.3C327.2,-220.85 330.14,-220.41 333,-220 395.31,-211.01 566,-224.74 614,-184 626.88,-173.07 631.23,-153.8 632.61,-139.35"/>
<polygon fill="#63b8ff" stroke="#63b8ff" points="636.12,-139.22 633.18,-129.04 629.13,-138.83 636.12,-139.22"/>
</a>
</g>
</g>
<!-- Node17 -->
<g id="Node000017" class="node">
<title>Node17</title>
<g id="a_Node000017"><a xlink:href="SocketDNS_8h.html" target="_top" xlink:title="Asynchronous DNS resolution API for non&#45;blocking network applications.">
<polygon fill="white" stroke="#666666" points="328,-129 232,-129 232,-110 328,-110 328,-129"/>
<text text-anchor="middle" x="280" y="-117" font-family="Helvetica,sans-Serif" font-size="10.00">dns/SocketDNS.h</text>
</a>
</g>
</g>
<!-- Node7&#45;&gt;Node17 -->
<g id="edge20_Node000007_Node000017" class="edge">
<title>Node7&#45;&gt;Node17</title>
<g id="a_edge20_Node000007_Node000017"><a xlink:title=" ">
<path fill="none" stroke="#63b8ff" d="M280,-219.66C280,-202.17 280,-162.8 280,-139.27"/>
<polygon fill="#63b8ff" stroke="#63b8ff" points="283.5,-139.16 280,-129.16 276.5,-139.16 283.5,-139.16"/>
</a>
</g>
</g>
<!-- Node20 -->
<g id="Node000020" class="node">
<title>Node20</title>
<g id="a_Node000020"><a xlink:href="SocketCommon_8h.html" target="_top" xlink:title="Common utilities shared between Socket and SocketDgram modules.">
<polygon fill="white" stroke="#666666" points="605,-184 477,-184 477,-165 605,-165 605,-184"/>
<text text-anchor="middle" x="541" y="-172" font-family="Helvetica,sans-Serif" font-size="10.00">socket/SocketCommon.h</text>
</a>
</g>
</g>
<!-- Node7&#45;&gt;Node20 -->
<g id="edge26_Node000007_Node000020" class="edge">
<title>Node7&#45;&gt;Node20</title>
<g id="a_edge26_Node000007_Node000020"><a xlink:title=" ">
<path fill="none" stroke="#63b8ff" d="M321.93,-219.98C367.27,-210.78 439.61,-196.09 488.65,-186.13"/>
<polygon fill="#63b8ff" stroke="#63b8ff" points="489.63,-189.5 498.74,-184.08 488.24,-182.64 489.63,-189.5"/>
</a>
</g>
</g>
<!-- Node8&#45;&gt;Node3 -->
<g id="edge15_Node000008_Node000003" class="edge">
<title>Node8&#45;&gt;Node3</title>
<g id="a_edge15_Node000008_Node000003"><a xlink:title=" ">
<path fill="none" stroke="#63b8ff" d="M579.78,-113.73C512.14,-107.25 391.63,-94.29 279.44,-74.08"/>
<polygon fill="#63b8ff" stroke="#63b8ff" points="279.77,-70.58 269.3,-72.23 278.51,-77.47 279.77,-70.58"/>
</a>
</g>
</g>
<!-- Node9 -->
<g id="Node000009" class="node">
<title>Node9</title>
<g id="a_Node000009"><a xlink:title=" ">
<polygon fill="#e0e0e0" stroke="#999999" points="789.5,-74 742.5,-74 742.5,-55 789.5,-55 789.5,-74"/>
<text text-anchor="middle" x="766" y="-62" font-family="Helvetica,sans-Serif" font-size="10.00">errno.h</text>
</a>
</g>
</g>
<!-- Node8&#45;&gt;Node9 -->
<g id="edge11_Node000008_Node000009" class="edge">
<title>Node8&#45;&gt;Node9</title>
<g id="a_edge11_Node000008_Node000009"><a xlink:title=" ">
<path fill="none" stroke="#63b8ff" d="M654.37,-109.98C676.15,-101.3 710.16,-87.75 734.92,-77.88"/>
<polygon fill="#63b8ff" stroke="#63b8ff" points="736.25,-81.12 744.24,-74.17 733.66,-74.62 736.25,-81.12"/>
</a>
</g>
</g>
<!-- Node10 -->
<g id="Node000010" class="node">
<title>Node10</title>
<g id="a_Node000010"><a xlink:title=" ">
<polygon fill="#e0e0e0" stroke="#999999" points="852,-74 808,-74 808,-55 852,-55 852,-74"/>
<text text-anchor="middle" x="830" y="-62" font-family="Helvetica,sans-Serif" font-size="10.00">fcntl.h</text>
</a>
</g>
</g>
<!-- Node8&#45;&gt;Node10 -->
<g id="edge12_Node000008_Node000010" class="edge">
<title>Node8&#45;&gt;Node10</title>
<g id="a_edge12_Node000008_Node000010"><a xlink:title=" ">
<path fill="none" stroke="#63b8ff" d="M665.15,-109.94C696.64,-101.54 746.25,-88.28 798.25,-74.19"/>
<polygon fill="#63b8ff" stroke="#63b8ff" points="799.25,-77.55 807.99,-71.55 797.42,-70.79 799.25,-77.55"/>
</a>
</g>
</g>
<!-- Node11 -->
<g id="Node000011" class="node">
<title>Node11</title>
<g id="a_Node000011"><a xlink:title=" ">
<polygon fill="#e0e0e0" stroke="#999999" points="974.5,-74 909.5,-74 909.5,-55 974.5,-55 974.5,-74"/>
<text text-anchor="middle" x="942" y="-62" font-family="Helvetica,sans-Serif" font-size="10.00">netinet/in.h</text>
</a>
</g>
</g>
<!-- Node8&#45;&gt;Node11 -->
<g id="edge13_Node000008_Node000011" class="edge">
<title>Node8&#45;&gt;Node11</title>
<g id="a_edge13_Node000008_Node000011"><a xlink:title=" ">
<path fill="none" stroke="#63b8ff" d="M682.65,-109.98C742.55,-99.71 842.28,-82.6 899.03,-72.87"/>
<polygon fill="#63b8ff" stroke="#63b8ff" points="899.84,-76.28 909.1,-71.14 898.66,-69.38 899.84,-76.28"/>
</a>
</g>
</g>
<!-- Node12 -->
<g id="Node000012" class="node">
<title>Node12</title>
<g id="a_Node000012"><a xlink:title=" ">
<polygon fill="#e0e0e0" stroke="#999999" points="516.5,-74 445.5,-74 445.5,-55 516.5,-55 516.5,-74"/>
<text text-anchor="middle" x="481" y="-62" font-family="Helvetica,sans-Serif" font-size="10.00">netinet/tcp.h</text>
</a>
</g>
</g>
<!-- Node8&#45;&gt;Node12 -->
<g id="edge14_Node000008_Node000012" class="edge">
<title>Node8&#45;&gt;Node12</title>
<g id="a_edge14_Node000008_Node000012"><a xlink:title=" ">
<path fill="none" stroke="#63b8ff" d="M608.58,-109.98C583.28,-101.16 543.55,-87.31 515.14,-77.41"/>
<polygon fill="#63b8ff" stroke="#63b8ff" points="516.21,-74.07 505.61,-74.08 513.9,-80.68 516.21,-74.07"/>
</a>
</g>
</g>
<!-- Node13 -->
<g id="Node000013" class="node">
<title>Node13</title>
<g id="a_Node000013"><a xlink:title=" ">
<polygon fill="#e0e0e0" stroke="#999999" points="581,-74 535,-74 535,-55 581,-55 581,-74"/>
<text text-anchor="middle" x="558" y="-62" font-family="Helvetica,sans-Serif" font-size="10.00">stdio.h</text>
</a>
</g>
</g>
<!-- Node8&#45;&gt;Node13 -->
<g id="edge16_Node000008_Node000013" class="edge">
<title>Node8&#45;&gt;Node13</title>
<g id="a_edge16_Node000008_Node000013"><a xlink:title=" ">
<path fill="none" stroke="#63b8ff" d="M620.95,-109.98C609.54,-101.92 592.17,-89.65 578.57,-80.03"/>
<polygon fill="#63b8ff" stroke="#63b8ff" points="580.46,-77.08 570.27,-74.17 576.42,-82.8 580.46,-77.08"/>
</a>
</g>
</g>
<!-- Node14 -->
<g id="Node000014" class="node">
<title>Node14</title>
<g id="a_Node000014"><a xlink:title=" ">
<polygon fill="#e0e0e0" stroke="#999999" points="427.5,-74 354.5,-74 354.5,-55 427.5,-55 427.5,-74"/>
<text text-anchor="middle" x="391" y="-62" font-family="Helvetica,sans-Serif" font-size="10.00">sys/socket.h</text>
</a>
</g>
</g>
<!-- Node8&#45;&gt;Node14 -->
<g id="edge17_Node000008_Node000014" class="edge">
<title>Node8&#45;&gt;Node14</title>
<g id="a_edge17_Node000008_Node000014"><a xlink:title=" ">
<path fill="none" stroke="#63b8ff" d="M594.12,-109.98C551.51,-100.65 483.19,-85.69 437.71,-75.73"/>
<polygon fill="#63b8ff" stroke="#63b8ff" points="438.32,-72.28 427.8,-73.56 436.82,-79.12 438.32,-72.28"/>
</a>
</g>
</g>
<!-- Node15 -->
<g id="Node000015" class="node">
<title>Node15</title>
<g id="a_Node000015"><a xlink:title=" ">
<polygon fill="#e0e0e0" stroke="#999999" points="655,-74 599,-74 599,-55 655,-55 655,-74"/>
<text text-anchor="middle" x="627" y="-62" font-family="Helvetica,sans-Serif" font-size="10.00">sys/uio.h</text>
</a>
</g>
</g>
<!-- Node8&#45;&gt;Node15 -->
<g id="edge18_Node000008_Node000015" class="edge">
<title>Node8&#45;&gt;Node15</title>
<g id="a_edge18_Node000008_Node000015"><a xlink:title=" ">
<path fill="none" stroke="#63b8ff" d="M632.01,-109.75C631.22,-102.8 630.1,-92.85 629.11,-84.13"/>
<polygon fill="#63b8ff" stroke="#63b8ff" points="632.58,-83.63 627.97,-74.09 625.62,-84.42 632.58,-83.63"/>
</a>
</g>
</g>
<!-- Node16 -->
<g id="Node000016" class="node">
<title>Node16</title>
<g id="a_Node000016"><a xlink:title=" ">
<polygon fill="#e0e0e0" stroke="#999999" points="724.5,-74 673.5,-74 673.5,-55 724.5,-55 724.5,-74"/>
<text text-anchor="middle" x="699" y="-62" font-family="Helvetica,sans-Serif" font-size="10.00">unistd.h</text>
</a>
</g>
</g>
<!-- Node8&#45;&gt;Node16 -->
<g id="edge19_Node000008_Node000016" class="edge">
<title>Node8&#45;&gt;Node16</title>
<g id="a_edge19_Node000008_Node000016"><a xlink:title=" ">
<path fill="none" stroke="#63b8ff" d="M643.6,-109.98C653.46,-102.07 668.35,-90.11 680.22,-80.58"/>
<polygon fill="#63b8ff" stroke="#63b8ff" points="682.6,-83.16 688.2,-74.17 678.21,-77.7 682.6,-83.16"/>
</a>
</g>
</g>
<!-- Node17&#45;&gt;Node3 -->
<g id="edge23_Node000017_Node000003" class="edge">
<title>Node17&#45;&gt;Node3</title>
<g id="a_edge23_Node000017_Node000003"><a xlink:title=" ">
<path fill="none" stroke="#63b8ff" d="M273.89,-109.75C268.72,-102.34 261.15,-91.5 254.81,-82.41"/>
<polygon fill="#63b8ff" stroke="#63b8ff" points="257.59,-80.29 249,-74.09 251.85,-84.29 257.59,-80.29"/>
</a>
</g>
</g>
<!-- Node17&#45;&gt;Node4 -->
<g id="edge21_Node000017_Node000004" class="edge">
<title>Node17&#45;&gt;Node4</title>
<g id="a_edge21_Node000017_Node000004"><a xlink:title=" ">
<path fill="none" stroke="#63b8ff" d="M248.99,-109.98C216.17,-100.97 164.2,-86.7 128.01,-76.76"/>
<polygon fill="#63b8ff" stroke="#63b8ff" points="128.82,-73.36 118.25,-74.08 126.97,-80.11 128.82,-73.36"/>
</a>
</g>
</g>
<!-- Node17&#45;&gt;Node14 -->
<g id="edge25_Node000017_Node000014" class="edge">
<title>Node17&#45;&gt;Node14</title>
<g id="a_edge25_Node000017_Node000014"><a xlink:title=" ">
<path fill="none" stroke="#63b8ff" d="M297.83,-109.98C315.61,-101.5 343.15,-88.35 363.68,-78.54"/>
<polygon fill="#63b8ff" stroke="#63b8ff" points="365.33,-81.64 372.84,-74.17 362.31,-75.32 365.33,-81.64"/>
</a>
</g>
</g>
<!-- Node18 -->
<g id="Node000018" class="node">
<title>Node18</title>
<g id="a_Node000018"><a xlink:title=" ">
<polygon fill="#e0e0e0" stroke="#999999" points="336.5,-74 287.5,-74 287.5,-55 336.5,-55 336.5,-74"/>
<text text-anchor="middle" x="312" y="-62" font-family="Helvetica,sans-Serif" font-size="10.00">netdb.h</text>
</a>
</g>
</g>
<!-- Node17&#45;&gt;Node18 -->
<g id="edge22_Node000017_Node000018" class="edge">
<title>Node17&#45;&gt;Node18</title>
<g id="a_edge22_Node000017_Node000018"><a xlink:title=" ">
<path fill="none" stroke="#63b8ff" d="M285.28,-109.75C289.71,-102.42 296.16,-91.73 301.62,-82.7"/>
<polygon fill="#63b8ff" stroke="#63b8ff" points="304.64,-84.46 306.81,-74.09 298.65,-80.84 304.64,-84.46"/>
</a>
</g>
</g>
<!-- Node19 -->
<g id="Node000019" class="node">
<title>Node19</title>
<g id="a_Node000019"><a xlink:title=" ">
<polygon fill="#e0e0e0" stroke="#999999" points="198.5,-74 149.5,-74 149.5,-55 198.5,-55 198.5,-74"/>
<text text-anchor="middle" x="174" y="-62" font-family="Helvetica,sans-Serif" font-size="10.00">stdint.h</text>
</a>
</g>
</g>
<!-- Node17&#45;&gt;Node19 -->
<g id="edge24_Node000017_Node000019" class="edge">
<title>Node17&#45;&gt;Node19</title>
<g id="a_edge24_Node000017_Node000019"><a xlink:title=" ">
<path fill="none" stroke="#63b8ff" d="M262.97,-109.98C246.07,-101.54 219.94,-88.47 200.36,-78.68"/>
<polygon fill="#63b8ff" stroke="#63b8ff" points="201.85,-75.51 191.34,-74.17 198.72,-81.77 201.85,-75.51"/>
</a>
</g>
</g>
<!-- Node20&#45;&gt;Node2 -->
<g id="edge36_Node000020_Node000002" class="edge">
<title>Node20&#45;&gt;Node2</title>
<g id="a_edge36_Node000020_Node000002"><a xlink:title=" ">
<path fill="none" stroke="#63b8ff" d="M476.91,-165.44C414.79,-157.43 317.66,-144.35 224.23,-129.14"/>
<polygon fill="#63b8ff" stroke="#63b8ff" points="224.76,-125.68 214.32,-127.51 223.63,-132.59 224.76,-125.68"/>
</a>
</g>
</g>
<!-- Node20&#45;&gt;Node4 -->
<g id="edge37_Node000020_Node000004" class="edge">
<title>Node20&#45;&gt;Node4</title>
<g id="a_edge37_Node000020_Node000004"><a xlink:title=" ">
<path fill="none" stroke="#63b8ff" d="M476.6,-172.75C376.67,-170.56 189.84,-162.02 133,-129 115.21,-118.67 102.39,-98.4 94.88,-83.54"/>
<polygon fill="#63b8ff" stroke="#63b8ff" points="97.95,-81.85 90.53,-74.29 91.62,-84.83 97.95,-81.85"/>
</a>
</g>
</g>
<!-- Node20&#45;&gt;Node8 -->
<g id="edge38_Node000020_Node000008" class="edge">
<title>Node20&#45;&gt;Node8</title>
<g id="a_edge38_Node000020_Node000008"><a xlink:title=" ">
<path fill="none" stroke="#63b8ff" d="M555.78,-164.98C570.18,-156.69 592.31,-143.94 609.19,-134.22"/>
<polygon fill="#63b8ff" stroke="#63b8ff" points="611.03,-137.19 617.95,-129.17 607.54,-131.13 611.03,-137.19"/>
</a>
</g>
</g>
<!-- Node20&#45;&gt;Node10 -->
<g id="edge29_Node000020_Node000010" class="edge">
<title>Node20&#45;&gt;Node10</title>
<g id="a_edge29_Node000020_Node000010"><a xlink:title=" ">
<path fill="none" stroke="#63b8ff" d="M577.05,-164.96C608.63,-157.03 655.52,-144.19 695,-129 712.99,-122.08 716.59,-118.28 734,-110 756.85,-99.14 782.9,-87.08 802.09,-78.26"/>
<polygon fill="#63b8ff" stroke="#63b8ff" points="803.56,-81.44 811.19,-74.09 800.64,-75.08 803.56,-81.44"/>
</a>
</g>
</g>
<!-- Node20&#45;&gt;Node11 -->
<g id="edge31_Node000020_Node000011" class="edge">
<title>Node20&#45;&gt;Node11</title>
<g id="a_edge31_Node000020_Node000011"><a xlink:title=" ">
<path fill="none" stroke="#63b8ff" d="M605.13,-171.37C717.31,-166.99 939.53,-155.08 963,-129 974.6,-116.12 965.53,-96.66 955.95,-82.68"/>
<polygon fill="#63b8ff" stroke="#63b8ff" points="958.57,-80.35 949.79,-74.41 952.96,-84.52 958.57,-80.35"/>
</a>
</g>
</g>
<!-- Node20&#45;&gt;Node14 -->
<g id="edge32_Node000020_Node000014" class="edge">
<title>Node20&#45;&gt;Node14</title>
<g id="a_edge32_Node000020_Node000014"><a xlink:title=" ">
<path fill="none" stroke="#63b8ff" d="M479.67,-164.96C437.91,-157.74 387.94,-145.87 375,-129 364.77,-115.66 371.69,-96.55 379.37,-82.78"/>
<polygon fill="#63b8ff" stroke="#63b8ff" points="382.36,-84.59 384.6,-74.24 376.4,-80.93 382.36,-84.59"/>
</a>
</g>
</g>
<!-- Node20&#45;&gt;Node18 -->
<g id="edge30_Node000020_Node000018" class="edge">
<title>Node20&#45;&gt;Node18</title>
<g id="a_edge30_Node000020_Node000018"><a xlink:title=" ">
<path fill="none" stroke="#63b8ff" d="M542.78,-164.8C545,-151.19 546.99,-124.91 533,-110 476.96,-50.26 431.5,-89.45 346.8,-74.1"/>
<polygon fill="#63b8ff" stroke="#63b8ff" points="347.32,-70.64 336.83,-72.07 345.93,-77.49 347.32,-70.64"/>
</a>
</g>
</g>
<!-- Node21 -->
<g id="Node000021" class="node">
<title>Node21</title>
<g id="a_Node000021"><a xlink:title=" ">
<polygon fill="#e0e0e0" stroke="#999999" points="799.5,-129 742.5,-129 742.5,-110 799.5,-110 799.5,-129"/>
<text text-anchor="middle" x="771" y="-117" font-family="Helvetica,sans-Serif" font-size="10.00">pthread.h</text>
</a>
</g>
</g>
<!-- Node20&#45;&gt;Node21 -->
<g id="edge27_Node000020_Node000021" class="edge">
<title>Node20&#45;&gt;Node21</title>
<g id="a_edge27_Node000020_Node000021"><a xlink:title=" ">
<path fill="none" stroke="#63b8ff" d="M577.95,-164.98C620.39,-155.21 689.68,-139.24 732.68,-129.33"/>
<polygon fill="#63b8ff" stroke="#63b8ff" points="733.53,-132.73 742.49,-127.07 731.96,-125.9 733.53,-132.73"/>
</a>
</g>
</g>
<!-- Node22 -->
<g id="Node000022" class="node">
<title>Node22</title>
<g id="a_Node000022"><a xlink:title=" ">
<polygon fill="#e0e0e0" stroke="#999999" points="874,-129 818,-129 818,-110 874,-110 874,-129"/>
<text text-anchor="middle" x="846" y="-117" font-family="Helvetica,sans-Serif" font-size="10.00">stdbool.h</text>
</a>
</g>
</g>
<!-- Node20&#45;&gt;Node22 -->
<g id="edge28_Node000020_Node000022" class="edge">
<title>Node20&#45;&gt;Node22</title>
<g id="a_edge28_Node000020_Node000022"><a xlink:title=" ">
<path fill="none" stroke="#63b8ff" d="M598.69,-164.97C650.86,-157.01 730,-144.36 807.79,-129.14"/>
<polygon fill="#63b8ff" stroke="#63b8ff" points="808.62,-132.54 817.76,-127.18 807.27,-125.68 808.62,-132.54"/>
</a>
</g>
</g>
<!-- Node23 -->
<g id="Node000023" class="node">
<title>Node23</title>
<g id="a_Node000023"><a xlink:title=" ">
<polygon fill="#e0e0e0" stroke="#999999" points="954,-129 892,-129 892,-110 954,-110 954,-129"/>
<text text-anchor="middle" x="923" y="-117" font-family="Helvetica,sans-Serif" font-size="10.00">sys/time.h</text>
</a>
</g>
</g>
<!-- Node20&#45;&gt;Node23 -->
<g id="edge33_Node000020_Node000023" class="edge">
<title>Node20&#45;&gt;Node23</title>
<g id="a_edge33_Node000020_Node000023"><a xlink:title=" ">
<path fill="none" stroke="#63b8ff" d="M605.21,-166.7C671.96,-159.28 779.66,-146.32 881.74,-129.1"/>
<polygon fill="#63b8ff" stroke="#63b8ff" points="882.33,-132.55 891.6,-127.42 881.16,-125.65 882.33,-132.55"/>
</a>
</g>
</g>
<!-- Node24 -->
<g id="Node000024" class="node">
<title>Node24</title>
<g id="a_Node000024"><a xlink:title=" ">
<polygon fill="#e0e0e0" stroke="#999999" points="452,-129 384,-129 384,-110 452,-110 452,-129"/>
<text text-anchor="middle" x="418" y="-117" font-family="Helvetica,sans-Serif" font-size="10.00">sys/types.h</text>
</a>
</g>
</g>
<!-- Node20&#45;&gt;Node24 -->
<g id="edge34_Node000020_Node000024" class="edge">
<title>Node20&#45;&gt;Node24</title>
<g id="a_edge34_Node000020_Node000024"><a xlink:title=" ">
<path fill="none" stroke="#63b8ff" d="M521.24,-164.98C501.27,-156.38 470.2,-142.99 447.35,-133.15"/>
<polygon fill="#63b8ff" stroke="#63b8ff" points="448.69,-129.91 438.12,-129.17 445.92,-136.34 448.69,-129.91"/>
</a>
</g>
</g>
<!-- Node25 -->
<g id="Node000025" class="node">
<title>Node25</title>
<g id="a_Node000025"><a xlink:title=" ">
<polygon fill="#e0e0e0" stroke="#999999" points="524,-129 470,-129 470,-110 524,-110 524,-129"/>
<text text-anchor="middle" x="497" y="-117" font-family="Helvetica,sans-Serif" font-size="10.00">sys/un.h</text>
</a>
</g>
</g>
<!-- Node20&#45;&gt;Node25 -->
<g id="edge35_Node000020_Node000025" class="edge">
<title>Node20&#45;&gt;Node25</title>
<g id="a_edge35_Node000020_Node000025"><a xlink:title=" ">
<path fill="none" stroke="#63b8ff" d="M533.73,-164.75C527.46,-157.18 518.21,-146.05 510.57,-136.84"/>
<polygon fill="#63b8ff" stroke="#63b8ff" points="513.21,-134.55 504.13,-129.09 507.83,-139.02 513.21,-134.55"/>
</a>
</g>
</g>
<!-- Node28&#45;&gt;Node26 -->
<g id="edge45_Node000028_Node000026" class="edge">
<title>Node28&#45;&gt;Node26</title>
<g id="a_edge45_Node000028_Node000026"><a xlink:title=" ">
<path fill="none" stroke="#63b8ff" d="M472.97,-274.98C456.07,-266.54 429.94,-253.47 410.36,-243.68"/>
<polygon fill="#63b8ff" stroke="#63b8ff" points="411.85,-240.51 401.34,-239.17 408.72,-246.77 411.85,-240.51"/>
</a>
</g>
</g>
<!-- Node29 -->
<g id="Node000029" class="node">
<title>Node29</title>
<g id="a_Node000029"><a xlink:title=" ">
<polygon fill="#e0e0e0" stroke="#999999" points="627,-239 555,-239 555,-220 627,-220 627,-239"/>
<text text-anchor="middle" x="591" y="-227" font-family="Helvetica,sans-Serif" font-size="10.00">openssl/err.h</text>
</a>
</g>
</g>
<!-- Node28&#45;&gt;Node29 -->
<g id="edge42_Node000028_Node000029" class="edge">
<title>Node28&#45;&gt;Node29</title>
<g id="a_edge42_Node000028_Node000029"><a xlink:title=" ">
<path fill="none" stroke="#63b8ff" d="M506.23,-274.98C522.18,-266.61 546.78,-253.7 565.38,-243.95"/>
<polygon fill="#63b8ff" stroke="#63b8ff" points="567.25,-246.92 574.48,-239.17 564,-240.72 567.25,-246.92"/>
</a>
</g>
</g>
<!-- Node30 -->
<g id="Node000030" class="node">
<title>Node30</title>
<g id="a_Node000030"><a xlink:title=" ">
<polygon fill="#e0e0e0" stroke="#999999" points="744.5,-239 645.5,-239 645.5,-220 744.5,-220 744.5,-239"/>
<text text-anchor="middle" x="695" y="-227" font-family="Helvetica,sans-Serif" font-size="10.00">openssl/opensslv.h</text>
</a>
</g>
</g>
<!-- Node28&#45;&gt;Node30 -->
<g id="edge43_Node000028_Node000030" class="edge">
<title>Node28&#45;&gt;Node30</title>
<g id="a_edge43_Node000028_Node000030"><a xlink:title=" ">
<path fill="none" stroke="#63b8ff" d="M522.94,-274.98C557.95,-265.93 613.47,-251.58 651.93,-241.64"/>
<polygon fill="#63b8ff" stroke="#63b8ff" points="653,-244.97 661.81,-239.08 651.25,-238.2 653,-244.97"/>
</a>
</g>
</g>
<!-- Node28&#45;&gt;Node31 -->
<g id="edge44_Node000028_Node000031" class="edge">
<title>Node28&#45;&gt;Node31</title>
<g id="a_edge44_Node000028_Node000031"><a xlink:title=" ">
<path fill="none" stroke="#63b8ff" d="M542.14,-274.96C593.23,-266.53 673.61,-253.13 752.71,-239.21"/>
<polygon fill="#63b8ff" stroke="#63b8ff" points="753.61,-242.6 762.85,-237.42 752.4,-235.71 753.61,-242.6"/>
</a>
</g>
</g>
<!-- Node32 -->
<g id="Node000032" class="node">
<title>Node32</title>
<g id="a_Node000032"><a xlink:title=" ">
<polygon fill="#e0e0e0" stroke="#999999" points="536.5,-239 443.5,-239 443.5,-220 536.5,-220 536.5,-239"/>
<text text-anchor="middle" x="490" y="-227" font-family="Helvetica,sans-Serif" font-size="10.00">openssl/x509v3.h</text>
</a>
</g>
</g>
<!-- Node28&#45;&gt;Node32 -->
<g id="edge46_Node000028_Node000032" class="edge">
<title>Node28&#45;&gt;Node32</title>
<g id="a_edge46_Node000028_Node000032"><a xlink:title=" ">
<path fill="none" stroke="#63b8ff" d="M490,-274.75C490,-267.8 490,-257.85 490,-249.13"/>
<polygon fill="#63b8ff" stroke="#63b8ff" points="493.5,-249.09 490,-239.09 486.5,-249.09 493.5,-249.09"/>
</a>
</g>
</g>
</g>
</svg>

<g id="navigator" transform="translate(0 0)" fill="#404254">
  <rect fill="#f2f5e9" fill-opacity="0.5" stroke="#606060" stroke-width=".5" x="0" y="0" width="60" height="60"/>
  <use id="zoomplus" xlink:href="#zoomPlus" x="17" y="9" onmousedown="handleZoom(evt,'in')"/>
  <use id="zoomminus" xlink:href="#zoomMin" x="42" y="9" onmousedown="handleZoom(evt,'out')"/>
  <use id="reset" xlink:href="#resetDef" x="30" y="36" onmousedown="handleReset()"/>
   <use id="arrowup" xlink:href="#arrowUp" x="0" y="0" onmousedown="handlePan(0,-1)"/>
  <use id="arrowright" xlink:href="#arrowRight" x="0" y="0" onmousedown="handlePan(1,0)"/>
  <use id="arrowdown" xlink:href="#arrowDown" x="0" y="0" onmousedown="handlePan(0,1)"/>
  <use id="arrowleft" xlink:href="#arrowLeft" x="0" y="0" onmousedown="handlePan(-1,0)"/>
</g>
<svg viewBox="0 0 15 15" width="100%" height="30px" preserveAspectRatio="xMaxYMin meet">
 <g id="arrow_out" transform="scale(0.3 0.3)">
  <a xlink:href="SocketTLSContext_8h__incl_org.svg" target="_base">
   <rect id="button" ry="5" rx="5" y="6" x="6" height="38" width="38"
        fill="#f2f5e9" fill-opacity="0.5" stroke="#606060" stroke-width="1.0"/>
   <path id="arrow"
     d="M 11.500037,31.436501 C 11.940474,20.09759 22.043105,11.32322 32.158766,21.979434 L 37.068811,17.246167 C 37.068811,17.246167 37.088388,32 37.088388,32 L 22.160133,31.978069 C 22.160133,31.978069 26.997745,27.140456 26.997745,27.140456 C 18.528582,18.264221 13.291696,25.230495 11.500037,31.436501 z"
     style="fill:#404040;"/>
  </a>
 </g>
</svg>

<style type='text/css'>
<![CDATA[
[data-mouse-over-selected='false'] { opacity: 0.7; }
[data-mouse-over-selected='true']  { opacity: 1.0; }
]]>
</style>
<script type="application/ecmascript"><![CDATA[
document.addEventListener('DOMContentLoaded', (event) => {
  highlightEdges();
  highlightAdjacentNodes();
});
]]></script>
</svg>
