<?xml version="1.0" encoding="UTF-8" standalone="no"?>
<!DOCTYPE svg PUBLIC "-//W3C//DTD SVG 1.1//EN"
 "http://www.w3.org/Graphics/SVG/1.1/DTD/svg11.dtd">
<!-- Generated by graphviz version 2.43.0 (0)
 -->
<!-- Title: SocketDNS&#45;private.h Pages: 1 -->
<!--zoomable 247 -->

<svg id="main" version="1.1" xmlns="http://www.w3.org/2000/svg" xmlns:xlink="http://www.w3.org/1999/xlink" xml:space="preserve" onload="init(evt)">
<style type="text/css"><![CDATA[
.node, .edge {opacity: 0.7;}
.node.selected, .edge.selected {opacity: 1;}
.edge:hover path { stroke: red; }
.edge:hover polygon { stroke: red; fill: red; }
]]></style>

<defs>
  <circle id="rim" cx="0" cy="0" r="7"/>
  <circle id="rim2" cx="0" cy="0" r="3.5"/>
  <g id="zoomPlus">
    <use xlink:href="#rim" fill="#404040"><set attributeName="fill" to="#808080" begin="zoomplus.mouseover" end="zoomplus.mouseout"/></use>
    <path d="M-4,0h8M0,-4v8" fill="none" stroke="white" stroke-width="1.5" pointer-events="none"/>
  </g>
  <g id="zoomMin">
    <use xlink:href="#rim" fill="#404040"><set attributeName="fill" to="#808080" begin="zoomminus.mouseover" end="zoomminus.mouseout"/></use>
    <path d="M-4,0h8" fill="none" stroke="white" stroke-width="1.5" pointer-events="none"/>
  </g>
  <g id="arrowUp" transform="translate(30 24)">
    <use xlink:href="#rim"/>
    <path pointer-events="none" fill="none" stroke="white" stroke-width="1.5" d="M0,-3.0v7 M-2.5,-0.5L0,-3.0L2.5,-0.5"/>
  </g>
  <g id="arrowRight" transform="rotate(90) translate(36 -43)">
    <use xlink:href="#rim"/>
    <path pointer-events="none" fill="none" stroke="white" stroke-width="1.5" d="M0,-3.0v7 M-2.5,-0.5L0,-3.0L2.5,-0.5"/>
  </g>
  <g id="arrowDown" transform="rotate(180) translate(-30 -48)">
    <use xlink:href="#rim"/>
    <path pointer-events="none" fill="none" stroke="white" stroke-width="1.5" d="M0,-3.0v7 M-2.5,-0.5L0,-3.0L2.5,-0.5"/>
  </g>
  <g id="arrowLeft" transform="rotate(270) translate(-36 17)">
    <use xlink:href="#rim"/>
    <path pointer-events="none" fill="none" stroke="white" stroke-width="1.5" d="M0,-3.0v7 M-2.5,-0.5L0,-3.0L2.5,-0.5"/>
  </g>
  <g id="resetDef">
    <use xlink:href="#rim2" fill="#404040"><set attributeName="fill" to="#808080" begin="reset.mouseover" end="reset.mouseout"/></use>
  </g>
</defs>
<script type="application/ecmascript">
var viewWidth = 1407;
var viewHeight = 247;
var sectionId = 'dynsection-0';
</script>
<script type="application/ecmascript" xlink:href="svg.min.js"/>
<svg id="graph" class="graph">
<g id="viewport">
<title>SocketDNS&#45;private.h</title>
<!-- Node1 -->
<g id="Node000001" class="node">
<title>Node1</title>
<g id="a_Node000001"><a xlink:title="Internal structures, enums, and prototypes for asynchronous DNS resolver implementation.">
<polygon fill="#999999" stroke="#666666" points="542.87,-239 432.87,-239 432.87,-220 542.87,-220 542.87,-239"/>
<text text-anchor="middle" x="487.87" y="-227" font-family="Helvetica,sans-Serif" font-size="10.00">SocketDNS&#45;private.h</text>
</a>
</g>
</g>
<!-- Node2 -->
<g id="Node000002" class="node">
<title>Node2</title>
<g id="a_Node000002"><a xlink:title=" ">
<polygon fill="#e0e0e0" stroke="#999999" points="142.37,-129 93.37,-129 93.37,-110 142.37,-110 142.37,-129"/>
<text text-anchor="middle" x="117.87" y="-117" font-family="Helvetica,sans-Serif" font-size="10.00">netdb.h</text>
</a>
</g>
</g>
<!-- Node1&#45;&gt;Node2 -->
<g id="edge1_Node000001_Node000002" class="edge">
<title>Node1&#45;&gt;Node2</title>
<g id="a_edge1_Node000001_Node000002"><a xlink:title=" ">
<path fill="none" stroke="#63b8ff" d="M448.11,-219.99C410.65,-211.71 353.1,-198.32 303.87,-184 249.36,-168.14 187.15,-146.08 150.27,-132.57"/>
<polygon fill="#63b8ff" stroke="#63b8ff" points="151.15,-129.17 140.56,-129 148.74,-135.74 151.15,-129.17"/>
</a>
</g>
</g>
<!-- Node3 -->
<g id="Node000003" class="node">
<title>Node3</title>
<g id="a_Node000003"><a xlink:title=" ">
<polygon fill="#e0e0e0" stroke="#999999" points="217.37,-129 160.37,-129 160.37,-110 217.37,-110 217.37,-129"/>
<text text-anchor="middle" x="188.87" y="-117" font-family="Helvetica,sans-Serif" font-size="10.00">pthread.h</text>
</a>
</g>
</g>
<!-- Node1&#45;&gt;Node3 -->
<g id="edge2_Node000001_Node000003" class="edge">
<title>Node1&#45;&gt;Node3</title>
<g id="a_edge2_Node000001_Node000003"><a xlink:title=" ">
<path fill="none" stroke="#63b8ff" d="M462.59,-219.99C436.53,-211.17 394.77,-196.89 358.87,-184 310.43,-166.6 254.58,-145.55 220.5,-132.59"/>
<polygon fill="#63b8ff" stroke="#63b8ff" points="221.67,-129.29 211.08,-129 219.18,-135.83 221.67,-129.29"/>
</a>
</g>
</g>
<!-- Node4 -->
<g id="Node000004" class="node">
<title>Node4</title>
<g id="a_Node000004"><a xlink:title=" ">
<polygon fill="#e0e0e0" stroke="#999999" points="291.87,-129 235.87,-129 235.87,-110 291.87,-110 291.87,-129"/>
<text text-anchor="middle" x="263.87" y="-117" font-family="Helvetica,sans-Serif" font-size="10.00">stdbool.h</text>
</a>
</g>
</g>
<!-- Node1&#45;&gt;Node4 -->
<g id="edge3_Node000001_Node000004" class="edge">
<title>Node1&#45;&gt;Node4</title>
<g id="a_edge3_Node000001_Node000004"><a xlink:title=" ">
<path fill="none" stroke="#63b8ff" d="M469.92,-219.84C430.66,-200.92 337.01,-155.77 290.72,-133.45"/>
<polygon fill="#63b8ff" stroke="#63b8ff" points="292.12,-130.24 281.6,-129.05 289.08,-136.54 292.12,-130.24"/>
</a>
</g>
</g>
<!-- Node5 -->
<g id="Node000005" class="node">
<title>Node5</title>
<g id="a_Node000005"><a xlink:title=" ">
<polygon fill="#e0e0e0" stroke="#999999" points="356.37,-74 283.37,-74 283.37,-55 356.37,-55 356.37,-74"/>
<text text-anchor="middle" x="319.87" y="-62" font-family="Helvetica,sans-Serif" font-size="10.00">sys/socket.h</text>
</a>
</g>
</g>
<!-- Node1&#45;&gt;Node5 -->
<g id="edge4_Node000001_Node000005" class="edge">
<title>Node1&#45;&gt;Node5</title>
<g id="a_edge4_Node000001_Node000005"><a xlink:title=" ">
<path fill="none" stroke="#63b8ff" d="M432.69,-224.77C347.83,-218.49 189.55,-204.44 136.87,-184 97.32,-168.66 78.39,-166.66 58.87,-129 54.98,-121.5 53.42,-116.45 58.87,-110 85.71,-78.2 205.14,-69.12 272.77,-66.53"/>
<polygon fill="#63b8ff" stroke="#63b8ff" points="273.28,-70.02 283.15,-66.17 273.04,-63.02 273.28,-70.02"/>
</a>
</g>
</g>
<!-- Node6 -->
<g id="Node000006" class="node">
<title>Node6</title>
<g id="a_Node000006"><a xlink:title=" ">
<polygon fill="#e0e0e0" stroke="#999999" points="643.87,-129 581.87,-129 581.87,-110 643.87,-110 643.87,-129"/>
<text text-anchor="middle" x="612.87" y="-117" font-family="Helvetica,sans-Serif" font-size="10.00">sys/time.h</text>
</a>
</g>
</g>
<!-- Node1&#45;&gt;Node6 -->
<g id="edge5_Node000001_Node000006" class="edge">
<title>Node1&#45;&gt;Node6</title>
<g id="a_edge5_Node000001_Node000006"><a xlink:title=" ">
<path fill="none" stroke="#63b8ff" d="M505.49,-219.92C521.01,-211.89 543.74,-198.91 560.87,-184 576.76,-170.17 591.65,-151.13 601.38,-137.51"/>
<polygon fill="#63b8ff" stroke="#63b8ff" points="604.41,-139.29 607.25,-129.08 598.66,-135.29 604.41,-139.29"/>
</a>
</g>
</g>
<!-- Node7 -->
<g id="Node000007" class="node">
<title>Node7</title>
<g id="a_Node000007"><a xlink:title=" ">
<polygon fill="#e0e0e0" stroke="#999999" points="957.87,-129 913.87,-129 913.87,-110 957.87,-110 957.87,-129"/>
<text text-anchor="middle" x="935.87" y="-117" font-family="Helvetica,sans-Serif" font-size="10.00">time.h</text>
</a>
</g>
</g>
<!-- Node1&#45;&gt;Node7 -->
<g id="edge6_Node000001_Node000007" class="edge">
<title>Node1&#45;&gt;Node7</title>
<g id="a_edge6_Node000001_Node000007"><a xlink:title=" ">
<path fill="none" stroke="#63b8ff" d="M523.4,-219.94C608.37,-199.45 822.29,-147.88 903.72,-128.25"/>
<polygon fill="#63b8ff" stroke="#63b8ff" points="904.96,-131.55 913.86,-125.8 903.32,-124.75 904.96,-131.55"/>
</a>
</g>
</g>
<!-- Node8 -->
<g id="Node000008" class="node">
<title>Node8</title>
<g id="a_Node000008"><a xlink:title=" ">
<polygon fill="#e0e0e0" stroke="#999999" points="450.37,-74 399.37,-74 399.37,-55 450.37,-55 450.37,-74"/>
<text text-anchor="middle" x="424.87" y="-62" font-family="Helvetica,sans-Serif" font-size="10.00">unistd.h</text>
</a>
</g>
</g>
<!-- Node1&#45;&gt;Node8 -->
<g id="edge7_Node000001_Node000008" class="edge">
<title>Node1&#45;&gt;Node8</title>
<g id="a_edge7_Node000001_Node000008"><a xlink:title=" ">
<path fill="none" stroke="#63b8ff" d="M432.69,-223.58C331.8,-213.26 124.2,-185.52 83.87,-129 34.58,-59.94 -178.5,-147.29 364.87,-74 372.7,-72.94 381.1,-71.78 389.06,-70.65"/>
<polygon fill="#63b8ff" stroke="#63b8ff" points="389.78,-74.09 399.18,-69.22 388.79,-67.16 389.78,-74.09"/>
</a>
</g>
</g>
<!-- Node9 -->
<g id="Node000009" class="node">
<title>Node9</title>
<g id="a_Node000009"><a xlink:href="Except_8h.html" target="_top" xlink:title="Structured exception handling for C with TRY/EXCEPT/FINALLY blocks.">
<polygon fill="white" stroke="#666666" points="1214.37,-74 1137.37,-74 1137.37,-55 1214.37,-55 1214.37,-74"/>
<text text-anchor="middle" x="1175.87" y="-62" font-family="Helvetica,sans-Serif" font-size="10.00">core/Except.h</text>
</a>
</g>
</g>
<!-- Node1&#45;&gt;Node9 -->
<g id="edge8_Node000001_Node000009" class="edge">
<title>Node1&#45;&gt;Node9</title>
<g id="a_edge8_Node000001_Node000009"><a xlink:title=" ">
<path fill="none" stroke="#63b8ff" d="M543.07,-226.77C730.75,-220.3 1335.56,-194.49 1389.87,-129 1436,-73.37 1301.37,-65.09 1224.85,-64.7"/>
<polygon fill="#63b8ff" stroke="#63b8ff" points="1224.46,-61.2 1214.46,-64.69 1224.46,-68.2 1224.46,-61.2"/>
</a>
</g>
</g>
<!-- Node11 -->
<g id="Node000011" class="node">
<title>Node11</title>
<g id="a_Node000011"><a xlink:href="SocketConfig_8h.html" target="_top" xlink:title="Compile&#45;time and runtime configuration constants, limits, and platform adaptations.">
<polygon fill="white" stroke="#666666" points="767.87,-129 661.87,-129 661.87,-110 767.87,-110 767.87,-129"/>
<text text-anchor="middle" x="714.87" y="-117" font-family="Helvetica,sans-Serif" font-size="10.00">core/SocketConfig.h</text>
</a>
</g>
</g>
<!-- Node1&#45;&gt;Node11 -->
<g id="edge10_Node000001_Node000011" class="edge">
<title>Node1&#45;&gt;Node11</title>
<g id="a_edge10_Node000001_Node000011"><a xlink:title=" ">
<path fill="none" stroke="#63b8ff" d="M506.68,-219.9C526.06,-211 557.14,-196.67 583.87,-184 620.28,-166.74 662.14,-146.35 688.55,-133.42"/>
<polygon fill="#63b8ff" stroke="#63b8ff" points="690.1,-136.56 697.54,-129.02 687.02,-130.28 690.1,-136.56"/>
</a>
</g>
</g>
<!-- Node19 -->
<g id="Node000019" class="node">
<title>Node19</title>
<g id="a_Node000019"><a xlink:href="SocketUtil_8h.html" target="_top" xlink:title="Consolidated utility header for logging, metrics, events, and error handling.">
<polygon fill="white" stroke="#666666" points="1088.87,-184 996.87,-184 996.87,-165 1088.87,-165 1088.87,-184"/>
<text text-anchor="middle" x="1042.87" y="-172" font-family="Helvetica,sans-Serif" font-size="10.00">core/SocketUtil.h</text>
</a>
</g>
</g>
<!-- Node1&#45;&gt;Node19 -->
<g id="edge20_Node000001_Node000019" class="edge">
<title>Node1&#45;&gt;Node19</title>
<g id="a_edge20_Node000001_Node000019"><a xlink:title=" ">
<path fill="none" stroke="#63b8ff" d="M543.11,-223.22C648.99,-213.11 879.42,-191.11 986.31,-180.9"/>
<polygon fill="#63b8ff" stroke="#63b8ff" points="986.95,-184.36 996.57,-179.92 986.28,-177.39 986.95,-184.36"/>
</a>
</g>
</g>
<!-- Node25 -->
<g id="Node000025" class="node">
<title>Node25</title>
<g id="a_Node000025"><a xlink:href="SocketCommon_8h.html" target="_top" xlink:title="Common utilities shared between Socket and SocketDgram modules.">
<polygon fill="white" stroke="#666666" points="551.87,-184 423.87,-184 423.87,-165 551.87,-165 551.87,-184"/>
<text text-anchor="middle" x="487.87" y="-172" font-family="Helvetica,sans-Serif" font-size="10.00">socket/SocketCommon.h</text>
</a>
</g>
</g>
<!-- Node1&#45;&gt;Node25 -->
<g id="edge34_Node000001_Node000025" class="edge">
<title>Node1&#45;&gt;Node25</title>
<g id="a_edge34_Node000001_Node000025"><a xlink:title=" ">
<path fill="none" stroke="#63b8ff" d="M487.87,-219.75C487.87,-212.8 487.87,-202.85 487.87,-194.13"/>
<polygon fill="#63b8ff" stroke="#63b8ff" points="491.37,-194.09 487.87,-184.09 484.37,-194.09 491.37,-194.09"/>
</a>
</g>
</g>
<!-- Node10 -->
<g id="Node000010" class="node">
<title>Node10</title>
<g id="a_Node000010"><a xlink:title=" ">
<polygon fill="#e0e0e0" stroke="#999999" points="1202.87,-19 1148.87,-19 1148.87,0 1202.87,0 1202.87,-19"/>
<text text-anchor="middle" x="1175.87" y="-7" font-family="Helvetica,sans-Serif" font-size="10.00">setjmp.h</text>
</a>
</g>
</g>
<!-- Node9&#45;&gt;Node10 -->
<g id="edge9_Node000009_Node000010" class="edge">
<title>Node9&#45;&gt;Node10</title>
<g id="a_edge9_Node000009_Node000010"><a xlink:title=" ">
<path fill="none" stroke="#63b8ff" d="M1175.87,-54.75C1175.87,-47.8 1175.87,-37.85 1175.87,-29.13"/>
<polygon fill="#63b8ff" stroke="#63b8ff" points="1179.37,-29.09 1175.87,-19.09 1172.37,-29.09 1179.37,-29.09"/>
</a>
</g>
</g>
<!-- Node11&#45;&gt;Node5 -->
<g id="edge17_Node000011_Node000005" class="edge">
<title>Node11&#45;&gt;Node5</title>
<g id="a_edge17_Node000011_Node000005"><a xlink:title=" ">
<path fill="none" stroke="#63b8ff" d="M661.77,-111.21C658.76,-110.8 655.78,-110.39 652.87,-110 551.03,-96.21 431.64,-80.33 367.09,-71.76"/>
<polygon fill="#63b8ff" stroke="#63b8ff" points="367.2,-68.24 356.83,-70.4 366.28,-75.18 367.2,-68.24"/>
</a>
</g>
</g>
<!-- Node11&#45;&gt;Node8 -->
<g id="edge19_Node000011_Node000008" class="edge">
<title>Node11&#45;&gt;Node8</title>
<g id="a_edge19_Node000011_Node000008"><a xlink:title=" ">
<path fill="none" stroke="#63b8ff" d="M668.27,-109.98C610.46,-99.42 513.11,-81.63 460.76,-72.06"/>
<polygon fill="#63b8ff" stroke="#63b8ff" points="461.07,-68.56 450.61,-70.2 459.82,-75.44 461.07,-68.56"/>
</a>
</g>
</g>
<!-- Node12 -->
<g id="Node000012" class="node">
<title>Node12</title>
<g id="a_Node000012"><a xlink:title=" ">
<polygon fill="#e0e0e0" stroke="#999999" points="970.37,-74 923.37,-74 923.37,-55 970.37,-55 970.37,-74"/>
<text text-anchor="middle" x="946.87" y="-62" font-family="Helvetica,sans-Serif" font-size="10.00">errno.h</text>
</a>
</g>
</g>
<!-- Node11&#45;&gt;Node12 -->
<g id="edge11_Node000011_Node000012" class="edge">
<title>Node11&#45;&gt;Node12</title>
<g id="a_edge11_Node000011_Node000012"><a xlink:title=" ">
<path fill="none" stroke="#63b8ff" d="M752.14,-109.98C796.64,-99.82 870.38,-82.97 913.21,-73.19"/>
<polygon fill="#63b8ff" stroke="#63b8ff" points="914.17,-76.56 923.14,-70.92 912.62,-69.73 914.17,-76.56"/>
</a>
</g>
</g>
<!-- Node13 -->
<g id="Node000013" class="node">
<title>Node13</title>
<g id="a_Node000013"><a xlink:title=" ">
<polygon fill="#e0e0e0" stroke="#999999" points="537.87,-74 493.87,-74 493.87,-55 537.87,-55 537.87,-74"/>
<text text-anchor="middle" x="515.87" y="-62" font-family="Helvetica,sans-Serif" font-size="10.00">fcntl.h</text>
</a>
</g>
</g>
<!-- Node11&#45;&gt;Node13 -->
<g id="edge12_Node000011_Node000013" class="edge">
<title>Node11&#45;&gt;Node13</title>
<g id="a_edge12_Node000011_Node000013"><a xlink:title=" ">
<path fill="none" stroke="#63b8ff" d="M682.33,-109.97C650.45,-101.59 600.24,-88.35 547.71,-74.21"/>
<polygon fill="#63b8ff" stroke="#63b8ff" points="548.44,-70.78 537.88,-71.56 546.62,-77.54 548.44,-70.78"/>
</a>
</g>
</g>
<!-- Node14 -->
<g id="Node000014" class="node">
<title>Node14</title>
<g id="a_Node000014"><a xlink:title=" ">
<polygon fill="#e0e0e0" stroke="#999999" points="621.37,-74 556.37,-74 556.37,-55 621.37,-55 621.37,-74"/>
<text text-anchor="middle" x="588.87" y="-62" font-family="Helvetica,sans-Serif" font-size="10.00">netinet/in.h</text>
</a>
</g>
</g>
<!-- Node11&#45;&gt;Node14 -->
<g id="edge13_Node000011_Node000014" class="edge">
<title>Node11&#45;&gt;Node14</title>
<g id="a_edge13_Node000011_Node000014"><a xlink:title=" ">
<path fill="none" stroke="#63b8ff" d="M694.62,-109.98C674.17,-101.38 642.34,-87.99 618.94,-78.15"/>
<polygon fill="#63b8ff" stroke="#63b8ff" points="620.06,-74.82 609.48,-74.17 617.34,-81.27 620.06,-74.82"/>
</a>
</g>
</g>
<!-- Node15 -->
<g id="Node000015" class="node">
<title>Node15</title>
<g id="a_Node000015"><a xlink:title=" ">
<polygon fill="#e0e0e0" stroke="#999999" points="710.37,-74 639.37,-74 639.37,-55 710.37,-55 710.37,-74"/>
<text text-anchor="middle" x="674.87" y="-62" font-family="Helvetica,sans-Serif" font-size="10.00">netinet/tcp.h</text>
</a>
</g>
</g>
<!-- Node11&#45;&gt;Node15 -->
<g id="edge14_Node000011_Node000015" class="edge">
<title>Node11&#45;&gt;Node15</title>
<g id="a_edge14_Node000011_Node000015"><a xlink:title=" ">
<path fill="none" stroke="#63b8ff" d="M708.26,-109.75C702.61,-102.26 694.32,-91.28 687.42,-82.13"/>
<polygon fill="#63b8ff" stroke="#63b8ff" points="690.17,-79.96 681.35,-74.09 684.58,-84.18 690.17,-79.96"/>
</a>
</g>
</g>
<!-- Node16 -->
<g id="Node000016" class="node">
<title>Node16</title>
<g id="a_Node000016"><a xlink:title=" ">
<polygon fill="#e0e0e0" stroke="#999999" points="854.87,-74 802.87,-74 802.87,-55 854.87,-55 854.87,-74"/>
<text text-anchor="middle" x="828.87" y="-62" font-family="Helvetica,sans-Serif" font-size="10.00">stddef.h</text>
</a>
</g>
</g>
<!-- Node11&#45;&gt;Node16 -->
<g id="edge15_Node000011_Node000016" class="edge">
<title>Node11&#45;&gt;Node16</title>
<g id="a_edge15_Node000011_Node000016"><a xlink:title=" ">
<path fill="none" stroke="#63b8ff" d="M733.18,-109.98C751.52,-101.46 779.98,-88.23 801.1,-78.41"/>
<polygon fill="#63b8ff" stroke="#63b8ff" points="802.63,-81.56 810.22,-74.17 799.68,-75.21 802.63,-81.56"/>
</a>
</g>
</g>
<!-- Node17 -->
<g id="Node000017" class="node">
<title>Node17</title>
<g id="a_Node000017"><a xlink:title=" ">
<polygon fill="#e0e0e0" stroke="#999999" points="1059.87,-74 1013.87,-74 1013.87,-55 1059.87,-55 1059.87,-74"/>
<text text-anchor="middle" x="1036.87" y="-62" font-family="Helvetica,sans-Serif" font-size="10.00">stdio.h</text>
</a>
</g>
</g>
<!-- Node11&#45;&gt;Node17 -->
<g id="edge16_Node000011_Node000017" class="edge">
<title>Node11&#45;&gt;Node17</title>
<g id="a_edge16_Node000011_Node000017"><a xlink:title=" ">
<path fill="none" stroke="#63b8ff" d="M766.6,-109.98C833.24,-99.02 947.17,-80.26 1003.42,-71.01"/>
<polygon fill="#63b8ff" stroke="#63b8ff" points="1004.25,-74.42 1013.55,-69.34 1003.12,-67.51 1004.25,-74.42"/>
</a>
</g>
</g>
<!-- Node18 -->
<g id="Node000018" class="node">
<title>Node18</title>
<g id="a_Node000018"><a xlink:title=" ">
<polygon fill="#e0e0e0" stroke="#999999" points="784.87,-74 728.87,-74 728.87,-55 784.87,-55 784.87,-74"/>
<text text-anchor="middle" x="756.87" y="-62" font-family="Helvetica,sans-Serif" font-size="10.00">sys/uio.h</text>
</a>
</g>
</g>
<!-- Node11&#45;&gt;Node18 -->
<g id="edge18_Node000011_Node000018" class="edge">
<title>Node11&#45;&gt;Node18</title>
<g id="a_edge18_Node000011_Node000018"><a xlink:title=" ">
<path fill="none" stroke="#63b8ff" d="M721.8,-109.75C727.74,-102.26 736.44,-91.28 743.69,-82.13"/>
<polygon fill="#63b8ff" stroke="#63b8ff" points="746.59,-84.1 750.06,-74.09 741.11,-79.75 746.59,-84.1"/>
</a>
</g>
</g>
<!-- Node19&#45;&gt;Node7 -->
<g id="edge28_Node000019_Node000007" class="edge">
<title>Node19&#45;&gt;Node7</title>
<g id="a_edge28_Node000019_Node000007"><a xlink:title=" ">
<path fill="none" stroke="#63b8ff" d="M1025.68,-164.98C1008.62,-156.54 982.24,-143.47 962.47,-133.68"/>
<polygon fill="#63b8ff" stroke="#63b8ff" points="963.89,-130.47 953.37,-129.17 960.78,-136.75 963.89,-130.47"/>
</a>
</g>
</g>
<!-- Node19&#45;&gt;Node9 -->
<g id="edge32_Node000019_Node000009" class="edge">
<title>Node19&#45;&gt;Node9</title>
<g id="a_edge32_Node000019_Node000009"><a xlink:title=" ">
<path fill="none" stroke="#63b8ff" d="M1089.06,-168C1134.88,-161.48 1200.43,-148.91 1215.87,-129 1227.99,-113.36 1211.65,-93.93 1196.36,-80.71"/>
<polygon fill="#63b8ff" stroke="#63b8ff" points="1198.13,-77.64 1188.15,-74.07 1193.72,-83.08 1198.13,-77.64"/>
</a>
</g>
</g>
<!-- Node19&#45;&gt;Node11 -->
<g id="edge33_Node000019_Node000011" class="edge">
<title>Node19&#45;&gt;Node11</title>
<g id="a_edge33_Node000019_Node000011"><a xlink:title=" ">
<path fill="none" stroke="#63b8ff" d="M996.57,-166.02C939.33,-156.77 841.65,-140.99 777.68,-130.65"/>
<polygon fill="#63b8ff" stroke="#63b8ff" points="778.15,-127.18 767.72,-129.04 777.03,-134.09 778.15,-127.18"/>
</a>
</g>
</g>
<!-- Node19&#45;&gt;Node12 -->
<g id="edge21_Node000019_Node000012" class="edge">
<title>Node19&#45;&gt;Node12</title>
<g id="a_edge21_Node000019_Node000012"><a xlink:title=" ">
<path fill="none" stroke="#63b8ff" d="M1037.99,-164.74C1030.66,-151.96 1015.92,-127.8 999.87,-110 990.06,-99.13 977.58,-88.52 967.19,-80.39"/>
<polygon fill="#63b8ff" stroke="#63b8ff" points="969.14,-77.47 959.07,-74.19 964.9,-83.04 969.14,-77.47"/>
</a>
</g>
</g>
<!-- Node19&#45;&gt;Node16 -->
<g id="edge24_Node000019_Node000016" class="edge">
<title>Node19&#45;&gt;Node16</title>
<g id="a_edge24_Node000019_Node000016"><a xlink:title=" ">
<path fill="none" stroke="#63b8ff" d="M1034.79,-164.88C1021.71,-151.4 994.57,-125.28 966.87,-110 934.47,-92.14 893.8,-80.12 865.02,-73.12"/>
<polygon fill="#63b8ff" stroke="#63b8ff" points="865.53,-69.64 855,-70.77 863.93,-76.46 865.53,-69.64"/>
</a>
</g>
</g>
<!-- Node19&#45;&gt;Node17 -->
<g id="edge26_Node000019_Node000017" class="edge">
<title>Node19&#45;&gt;Node17</title>
<g id="a_edge26_Node000019_Node000017"><a xlink:title=" ">
<path fill="none" stroke="#63b8ff" d="M1042.38,-164.66C1041.41,-147.17 1039.22,-107.8 1037.91,-84.27"/>
<polygon fill="#63b8ff" stroke="#63b8ff" points="1041.4,-83.95 1037.35,-74.16 1034.41,-84.34 1041.4,-83.95"/>
</a>
</g>
</g>
<!-- Node20 -->
<g id="Node000020" class="node">
<title>Node20</title>
<g id="a_Node000020"><a xlink:title=" ">
<polygon fill="#e0e0e0" stroke="#999999" points="1310.87,-129 1262.87,-129 1262.87,-110 1310.87,-110 1310.87,-129"/>
<text text-anchor="middle" x="1286.87" y="-117" font-family="Helvetica,sans-Serif" font-size="10.00">limits.h</text>
</a>
</g>
</g>
<!-- Node19&#45;&gt;Node20 -->
<g id="edge22_Node000019_Node000020" class="edge">
<title>Node19&#45;&gt;Node20</title>
<g id="a_edge22_Node000019_Node000020"><a xlink:title=" ">
<path fill="none" stroke="#63b8ff" d="M1082.76,-164.97C1124.28,-156.08 1191.16,-141.69 1248.87,-129 1250.13,-128.72 1251.42,-128.44 1252.72,-128.15"/>
<polygon fill="#63b8ff" stroke="#63b8ff" points="1253.75,-131.51 1262.75,-125.92 1252.23,-124.67 1253.75,-131.51"/>
</a>
</g>
</g>
<!-- Node21 -->
<g id="Node000021" class="node">
<title>Node21</title>
<g id="a_Node000021"><a xlink:title=" ">
<polygon fill="#e0e0e0" stroke="#999999" points="1380.87,-129 1328.87,-129 1328.87,-110 1380.87,-110 1380.87,-129"/>
<text text-anchor="middle" x="1354.87" y="-117" font-family="Helvetica,sans-Serif" font-size="10.00">stdarg.h</text>
</a>
</g>
</g>
<!-- Node19&#45;&gt;Node21 -->
<g id="edge23_Node000019_Node000021" class="edge">
<title>Node19&#45;&gt;Node21</title>
<g id="a_edge23_Node000019_Node000021"><a xlink:title=" ">
<path fill="none" stroke="#63b8ff" d="M1089.14,-167.21C1142.26,-159.73 1232.19,-146.3 1318.57,-129.13"/>
<polygon fill="#63b8ff" stroke="#63b8ff" points="1319.43,-132.53 1328.54,-127.13 1318.05,-125.67 1319.43,-132.53"/>
</a>
</g>
</g>
<!-- Node22 -->
<g id="Node000022" class="node">
<title>Node22</title>
<g id="a_Node000022"><a xlink:title=" ">
<polygon fill="#e0e0e0" stroke="#999999" points="1139.37,-129 1090.37,-129 1090.37,-110 1139.37,-110 1139.37,-129"/>
<text text-anchor="middle" x="1114.87" y="-117" font-family="Helvetica,sans-Serif" font-size="10.00">stdint.h</text>
</a>
</g>
</g>
<!-- Node19&#45;&gt;Node22 -->
<g id="edge25_Node000019_Node000022" class="edge">
<title>Node19&#45;&gt;Node22</title>
<g id="a_edge25_Node000019_Node000022"><a xlink:title=" ">
<path fill="none" stroke="#63b8ff" d="M1054.44,-164.98C1065.29,-157 1081.75,-144.88 1094.75,-135.31"/>
<polygon fill="#63b8ff" stroke="#63b8ff" points="1097.11,-137.92 1103.09,-129.17 1092.96,-132.28 1097.11,-137.92"/>
</a>
</g>
</g>
<!-- Node23 -->
<g id="Node000023" class="node">
<title>Node23</title>
<g id="a_Node000023"><a xlink:title=" ">
<polygon fill="#e0e0e0" stroke="#999999" points="1206.37,-129 1157.37,-129 1157.37,-110 1206.37,-110 1206.37,-129"/>
<text text-anchor="middle" x="1181.87" y="-117" font-family="Helvetica,sans-Serif" font-size="10.00">string.h</text>
</a>
</g>
</g>
<!-- Node19&#45;&gt;Node23 -->
<g id="edge27_Node000019_Node000023" class="edge">
<title>Node19&#45;&gt;Node23</title>
<g id="a_edge27_Node000019_Node000023"><a xlink:title=" ">
<path fill="none" stroke="#63b8ff" d="M1065.2,-164.98C1088.07,-156.27 1123.83,-142.63 1149.73,-132.75"/>
<polygon fill="#63b8ff" stroke="#63b8ff" points="1151.03,-136 1159.13,-129.17 1148.54,-129.46 1151.03,-136"/>
</a>
</g>
</g>
<!-- Node24 -->
<g id="Node000024" class="node">
<title>Node24</title>
<g id="a_Node000024"><a xlink:href="Arena_8h.html" target="_top" xlink:title="Arena&#45;based memory allocator for efficient bulk memory management.">
<polygon fill="white" stroke="#666666" points="857.87,-129 785.87,-129 785.87,-110 857.87,-110 857.87,-129"/>
<text text-anchor="middle" x="821.87" y="-117" font-family="Helvetica,sans-Serif" font-size="10.00">core/Arena.h</text>
</a>
</g>
</g>
<!-- Node19&#45;&gt;Node24 -->
<g id="edge29_Node000019_Node000024" class="edge">
<title>Node19&#45;&gt;Node24</title>
<g id="a_edge29_Node000019_Node000024"><a xlink:title=" ">
<path fill="none" stroke="#63b8ff" d="M1007.36,-164.98C969.37,-155.87 909,-141.4 867.51,-131.45"/>
<polygon fill="#63b8ff" stroke="#63b8ff" points="868.19,-128.01 857.65,-129.08 866.56,-134.82 868.19,-128.01"/>
</a>
</g>
</g>
<!-- Node24&#45;&gt;Node9 -->
<g id="edge31_Node000024_Node000009" class="edge">
<title>Node24&#45;&gt;Node9</title>
<g id="a_edge31_Node000024_Node000009"><a xlink:title=" ">
<path fill="none" stroke="#63b8ff" d="M857.9,-112.27C862.6,-111.49 867.35,-110.72 871.87,-110 961.76,-95.78 1066.88,-80.75 1126.99,-72.3"/>
<polygon fill="#63b8ff" stroke="#63b8ff" points="1127.54,-75.76 1136.95,-70.9 1126.56,-68.83 1127.54,-75.76"/>
</a>
</g>
</g>
<!-- Node24&#45;&gt;Node16 -->
<g id="edge30_Node000024_Node000016" class="edge">
<title>Node24&#45;&gt;Node16</title>
<g id="a_edge30_Node000024_Node000016"><a xlink:title=" ">
<path fill="none" stroke="#63b8ff" d="M823.02,-109.75C823.94,-102.8 825.26,-92.85 826.41,-84.13"/>
<polygon fill="#63b8ff" stroke="#63b8ff" points="829.89,-84.46 827.73,-74.09 822.95,-83.54 829.89,-84.46"/>
</a>
</g>
</g>
<!-- Node25&#45;&gt;Node2 -->
<g id="edge38_Node000025_Node000002" class="edge">
<title>Node25&#45;&gt;Node2</title>
<g id="a_edge38_Node000025_Node000002"><a xlink:title=" ">
<path fill="none" stroke="#63b8ff" d="M423.83,-167.37C357.96,-160.54 252.24,-148.13 152.59,-129.15"/>
<polygon fill="#63b8ff" stroke="#63b8ff" points="153.14,-125.69 142.66,-127.23 151.82,-132.56 153.14,-125.69"/>
</a>
</g>
</g>
<!-- Node25&#45;&gt;Node3 -->
<g id="edge35_Node000025_Node000003" class="edge">
<title>Node25&#45;&gt;Node3</title>
<g id="a_edge35_Node000025_Node000003"><a xlink:title=" ">
<path fill="none" stroke="#63b8ff" d="M432.98,-164.98C382.23,-156.91 304.49,-144.07 227.36,-129.01"/>
<polygon fill="#63b8ff" stroke="#63b8ff" points="227.96,-125.56 217.47,-127.06 226.61,-132.43 227.96,-125.56"/>
</a>
</g>
</g>
<!-- Node25&#45;&gt;Node4 -->
<g id="edge36_Node000025_Node000004" class="edge">
<title>Node25&#45;&gt;Node4</title>
<g id="a_edge36_Node000025_Node000004"><a xlink:title=" ">
<path fill="none" stroke="#63b8ff" d="M451.88,-164.98C410.75,-155.25 343.72,-139.39 301.8,-129.47"/>
<polygon fill="#63b8ff" stroke="#63b8ff" points="302.51,-126.05 291.97,-127.15 300.89,-132.86 302.51,-126.05"/>
</a>
</g>
</g>
<!-- Node25&#45;&gt;Node5 -->
<g id="edge40_Node000025_Node000005" class="edge">
<title>Node25&#45;&gt;Node5</title>
<g id="a_edge40_Node000025_Node000005"><a xlink:title=" ">
<path fill="none" stroke="#63b8ff" d="M423.55,-168.14C394.25,-162.54 361.21,-151.33 338.87,-129 327.05,-117.19 322.53,-98.35 320.82,-84.25"/>
<polygon fill="#63b8ff" stroke="#63b8ff" points="324.3,-83.86 319.98,-74.19 317.33,-84.45 324.3,-83.86"/>
</a>
</g>
</g>
<!-- Node25&#45;&gt;Node6 -->
<g id="edge41_Node000025_Node000006" class="edge">
<title>Node25&#45;&gt;Node6</title>
<g id="a_edge41_Node000025_Node000006"><a xlink:title=" ">
<path fill="none" stroke="#63b8ff" d="M507.95,-164.98C528.24,-156.38 559.82,-142.99 583.04,-133.15"/>
<polygon fill="#63b8ff" stroke="#63b8ff" points="584.58,-136.3 592.42,-129.17 581.85,-129.85 584.58,-136.3"/>
</a>
</g>
</g>
<!-- Node25&#45;&gt;Node9 -->
<g id="edge45_Node000025_Node000009" class="edge">
<title>Node25&#45;&gt;Node9</title>
<g id="a_edge45_Node000025_Node000009"><a xlink:title=" ">
<path fill="none" stroke="#63b8ff" d="M551.92,-172.69C628.39,-170.2 759.43,-161.09 866.87,-129 884.96,-123.6 886.9,-115.82 904.87,-110 980.29,-85.57 1072.07,-74.1 1127.14,-69.07"/>
<polygon fill="#63b8ff" stroke="#63b8ff" points="1127.66,-72.53 1137.31,-68.17 1127.04,-65.56 1127.66,-72.53"/>
</a>
</g>
</g>
<!-- Node25&#45;&gt;Node11 -->
<g id="edge46_Node000025_Node000011" class="edge">
<title>Node25&#45;&gt;Node11</title>
<g id="a_edge46_Node000025_Node000011"><a xlink:title=" ">
<path fill="none" stroke="#63b8ff" d="M524.34,-164.98C563.44,-155.86 625.63,-141.33 668.26,-131.38"/>
<polygon fill="#63b8ff" stroke="#63b8ff" points="669.17,-134.76 678.11,-129.08 667.58,-127.95 669.17,-134.76"/>
</a>
</g>
</g>
<!-- Node25&#45;&gt;Node13 -->
<g id="edge37_Node000025_Node000013" class="edge">
<title>Node25&#45;&gt;Node13</title>
<g id="a_edge37_Node000025_Node000013"><a xlink:title=" ">
<path fill="none" stroke="#63b8ff" d="M490.16,-164.66C494.71,-147.09 504.99,-107.45 511.08,-83.95"/>
<polygon fill="#63b8ff" stroke="#63b8ff" points="514.5,-84.72 513.62,-74.16 507.73,-82.96 514.5,-84.72"/>
</a>
</g>
</g>
<!-- Node25&#45;&gt;Node14 -->
<g id="edge39_Node000025_Node000014" class="edge">
<title>Node25&#45;&gt;Node14</title>
<g id="a_edge39_Node000025_Node000014"><a xlink:title=" ">
<path fill="none" stroke="#63b8ff" d="M496.13,-164.66C513.16,-146.46 552.35,-104.55 573.94,-81.47"/>
<polygon fill="#63b8ff" stroke="#63b8ff" points="576.5,-83.85 580.77,-74.16 571.38,-79.07 576.5,-83.85"/>
</a>
</g>
</g>
<!-- Node25&#45;&gt;Node24 -->
<g id="edge44_Node000025_Node000024" class="edge">
<title>Node25&#45;&gt;Node24</title>
<g id="a_edge44_Node000025_Node000024"><a xlink:title=" ">
<path fill="none" stroke="#63b8ff" d="M547.19,-164.97C603.45,-156.74 690.61,-143.64 775.47,-129.19"/>
<polygon fill="#63b8ff" stroke="#63b8ff" points="776.27,-132.61 785.54,-127.47 775.09,-125.71 776.27,-132.61"/>
</a>
</g>
</g>
<!-- Node26 -->
<g id="Node000026" class="node">
<title>Node26</title>
<g id="a_Node000026"><a xlink:title=" ">
<polygon fill="#e0e0e0" stroke="#999999" points="415.87,-129 347.87,-129 347.87,-110 415.87,-110 415.87,-129"/>
<text text-anchor="middle" x="381.87" y="-117" font-family="Helvetica,sans-Serif" font-size="10.00">sys/types.h</text>
</a>
</g>
</g>
<!-- Node25&#45;&gt;Node26 -->
<g id="edge42_Node000025_Node000026" class="edge">
<title>Node25&#45;&gt;Node26</title>
<g id="a_edge42_Node000025_Node000026"><a xlink:title=" ">
<path fill="none" stroke="#63b8ff" d="M470.84,-164.98C453.94,-156.54 427.8,-143.47 408.22,-133.68"/>
<polygon fill="#63b8ff" stroke="#63b8ff" points="409.72,-130.51 399.21,-129.17 406.59,-136.77 409.72,-130.51"/>
</a>
</g>
</g>
<!-- Node27 -->
<g id="Node000027" class="node">
<title>Node27</title>
<g id="a_Node000027"><a xlink:title=" ">
<polygon fill="#e0e0e0" stroke="#999999" points="487.87,-129 433.87,-129 433.87,-110 487.87,-110 487.87,-129"/>
<text text-anchor="middle" x="460.87" y="-117" font-family="Helvetica,sans-Serif" font-size="10.00">sys/un.h</text>
</a>
</g>
</g>
<!-- Node25&#45;&gt;Node27 -->
<g id="edge43_Node000025_Node000027" class="edge">
<title>Node25&#45;&gt;Node27</title>
<g id="a_edge43_Node000025_Node000027"><a xlink:title=" ">
<path fill="none" stroke="#63b8ff" d="M483.41,-164.75C479.75,-157.57 474.46,-147.18 469.92,-138.27"/>
<polygon fill="#63b8ff" stroke="#63b8ff" points="472.9,-136.41 465.24,-129.09 466.66,-139.59 472.9,-136.41"/>
</a>
</g>
</g>
</g>
</svg>

<g id="navigator" transform="translate(0 0)" fill="#404254">
  <rect fill="#f2f5e9" fill-opacity="0.5" stroke="#606060" stroke-width=".5" x="0" y="0" width="60" height="60"/>
  <use id="zoomplus" xlink:href="#zoomPlus" x="17" y="9" onmousedown="handleZoom(evt,'in')"/>
  <use id="zoomminus" xlink:href="#zoomMin" x="42" y="9" onmousedown="handleZoom(evt,'out')"/>
  <use id="reset" xlink:href="#resetDef" x="30" y="36" onmousedown="handleReset()"/>
   <use id="arrowup" xlink:href="#arrowUp" x="0" y="0" onmousedown="handlePan(0,-1)"/>
  <use id="arrowright" xlink:href="#arrowRight" x="0" y="0" onmousedown="handlePan(1,0)"/>
  <use id="arrowdown" xlink:href="#arrowDown" x="0" y="0" onmousedown="handlePan(0,1)"/>
  <use id="arrowleft" xlink:href="#arrowLeft" x="0" y="0" onmousedown="handlePan(-1,0)"/>
</g>
<svg viewBox="0 0 15 15" width="100%" height="30px" preserveAspectRatio="xMaxYMin meet">
 <g id="arrow_out" transform="scale(0.3 0.3)">
  <a xlink:href="SocketDNS-private_8h__incl_org.svg" target="_base">
   <rect id="button" ry="5" rx="5" y="6" x="6" height="38" width="38"
        fill="#f2f5e9" fill-opacity="0.5" stroke="#606060" stroke-width="1.0"/>
   <path id="arrow"
     d="M 11.500037,31.436501 C 11.940474,20.09759 22.043105,11.32322 32.158766,21.979434 L 37.068811,17.246167 C 37.068811,17.246167 37.088388,32 37.088388,32 L 22.160133,31.978069 C 22.160133,31.978069 26.997745,27.140456 26.997745,27.140456 C 18.528582,18.264221 13.291696,25.230495 11.500037,31.436501 z"
     style="fill:#404040;"/>
  </a>
 </g>
</svg>

<style type='text/css'>
<![CDATA[
[data-mouse-over-selected='false'] { opacity: 0.7; }
[data-mouse-over-selected='true']  { opacity: 1.0; }
]]>
</style>
<script type="application/ecmascript"><![CDATA[
document.addEventListener('DOMContentLoaded', (event) => {
  highlightEdges();
  highlightAdjacentNodes();
});
]]></script>
</svg>
