<?xml version="1.0" encoding="UTF-8" standalone="no"?>
<!DOCTYPE svg PUBLIC "-//W3C//DTD SVG 1.1//EN"
 "http://www.w3.org/Graphics/SVG/1.1/DTD/svg11.dtd">
<!-- Generated by graphviz version 2.43.0 (0)
 -->
<!-- Title: SocketDNS.h Pages: 1 -->
<!--zoomable 302 -->

<svg id="main" version="1.1" xmlns="http://www.w3.org/2000/svg" xmlns:xlink="http://www.w3.org/1999/xlink" xml:space="preserve" onload="init(evt)">
<style type="text/css"><![CDATA[
.node, .edge {opacity: 0.7;}
.node.selected, .edge.selected {opacity: 1;}
.edge:hover path { stroke: red; }
.edge:hover polygon { stroke: red; fill: red; }
]]></style>

<defs>
  <circle id="rim" cx="0" cy="0" r="7"/>
  <circle id="rim2" cx="0" cy="0" r="3.5"/>
  <g id="zoomPlus">
    <use xlink:href="#rim" fill="#404040"><set attributeName="fill" to="#808080" begin="zoomplus.mouseover" end="zoomplus.mouseout"/></use>
    <path d="M-4,0h8M0,-4v8" fill="none" stroke="white" stroke-width="1.5" pointer-events="none"/>
  </g>
  <g id="zoomMin">
    <use xlink:href="#rim" fill="#404040"><set attributeName="fill" to="#808080" begin="zoomminus.mouseover" end="zoomminus.mouseout"/></use>
    <path d="M-4,0h8" fill="none" stroke="white" stroke-width="1.5" pointer-events="none"/>
  </g>
  <g id="arrowUp" transform="translate(30 24)">
    <use xlink:href="#rim"/>
    <path pointer-events="none" fill="none" stroke="white" stroke-width="1.5" d="M0,-3.0v7 M-2.5,-0.5L0,-3.0L2.5,-0.5"/>
  </g>
  <g id="arrowRight" transform="rotate(90) translate(36 -43)">
    <use xlink:href="#rim"/>
    <path pointer-events="none" fill="none" stroke="white" stroke-width="1.5" d="M0,-3.0v7 M-2.5,-0.5L0,-3.0L2.5,-0.5"/>
  </g>
  <g id="arrowDown" transform="rotate(180) translate(-30 -48)">
    <use xlink:href="#rim"/>
    <path pointer-events="none" fill="none" stroke="white" stroke-width="1.5" d="M0,-3.0v7 M-2.5,-0.5L0,-3.0L2.5,-0.5"/>
  </g>
  <g id="arrowLeft" transform="rotate(270) translate(-36 17)">
    <use xlink:href="#rim"/>
    <path pointer-events="none" fill="none" stroke="white" stroke-width="1.5" d="M0,-3.0v7 M-2.5,-0.5L0,-3.0L2.5,-0.5"/>
  </g>
  <g id="resetDef">
    <use xlink:href="#rim2" fill="#404040"><set attributeName="fill" to="#808080" begin="reset.mouseover" end="reset.mouseout"/></use>
  </g>
</defs>
<script type="application/ecmascript">
var viewWidth = 1173;
var viewHeight = 302;
var sectionId = 'dynsection-1';
</script>
<script type="application/ecmascript" xlink:href="svg.min.js"/>
<svg id="graph" class="graph">
<g id="viewport">
<title>SocketDNS.h</title>
<!-- Node1 -->
<g id="Node000001" class="node">
<title>Node1</title>
<g id="a_Node000001"><a xlink:title=" ">
<polygon fill="#999999" stroke="#666666" points="655.5,-294 578.5,-294 578.5,-275 655.5,-275 655.5,-294"/>
<text text-anchor="middle" x="617" y="-282" font-family="Helvetica,sans-Serif" font-size="10.00">SocketDNS.h</text>
</a>
</g>
</g>
<!-- Node2 -->
<g id="Node000002" class="node">
<title>Node2</title>
<g id="a_Node000002"><a xlink:href="Socket_8h.html" target="_top" xlink:title=" ">
<polygon fill="white" stroke="#666666" points="645,-239 589,-239 589,-220 645,-220 645,-239"/>
<text text-anchor="middle" x="617" y="-227" font-family="Helvetica,sans-Serif" font-size="10.00">Socket.h</text>
</a>
</g>
</g>
<!-- Node1&#45;&gt;Node2 -->
<g id="edge1_Node000001_Node000002" class="edge">
<title>Node1&#45;&gt;Node2</title>
<g id="a_edge1_Node000001_Node000002"><a xlink:title=" ">
<path fill="none" stroke="#63b8ff" d="M617,-264.66C617,-255.93 617,-245.99 617,-239.09"/>
<polygon fill="#63b8ff" stroke="#63b8ff" points="613.5,-264.75 617,-274.75 620.5,-264.75 613.5,-264.75"/>
</a>
</g>
</g>
<!-- Node8 -->
<g id="Node000008" class="node">
<title>Node8</title>
<g id="a_Node000008"><a xlink:href="SocketHappyEyeballs_8h.html" target="_top" xlink:title=" ">
<polygon fill="white" stroke="#666666" points="122,-129 0,-129 0,-110 122,-110 122,-129"/>
<text text-anchor="middle" x="61" y="-117" font-family="Helvetica,sans-Serif" font-size="10.00">SocketHappyEyeballs.h</text>
</a>
</g>
</g>
<!-- Node1&#45;&gt;Node8 -->
<g id="edge37_Node000001_Node000008" class="edge">
<title>Node1&#45;&gt;Node8</title>
<g id="a_edge37_Node000001_Node000008"><a xlink:title=" ">
<path fill="none" stroke="#63b8ff" d="M568.25,-278.58C456.13,-266.54 183.68,-232.96 107,-184 85.66,-170.37 71.05,-143.03 64.65,-129.09"/>
<polygon fill="#63b8ff" stroke="#63b8ff" points="567.96,-282.07 578.27,-279.64 568.7,-275.11 567.96,-282.07"/>
</a>
</g>
</g>
<!-- Node12 -->
<g id="Node000012" class="node">
<title>Node12</title>
<g id="a_Node000012"><a xlink:href="SocketPool_8h.html" target="_top" xlink:title=" ">
<polygon fill="white" stroke="#666666" points="1151.5,-129 1076.5,-129 1076.5,-110 1151.5,-110 1151.5,-129"/>
<text text-anchor="middle" x="1114" y="-117" font-family="Helvetica,sans-Serif" font-size="10.00">SocketPool.h</text>
</a>
</g>
</g>
<!-- Node1&#45;&gt;Node12 -->
<g id="edge38_Node000001_Node000012" class="edge">
<title>Node1&#45;&gt;Node12</title>
<g id="a_edge38_Node000001_Node000012"><a xlink:title=" ">
<path fill="none" stroke="#63b8ff" d="M665.86,-281.32C779.93,-275.1 1058.42,-253.01 1115,-184 1127.86,-168.31 1121.72,-142.37 1117.25,-129.02"/>
<polygon fill="#63b8ff" stroke="#63b8ff" points="665.47,-277.83 655.67,-281.86 665.84,-284.82 665.47,-277.83"/>
</a>
</g>
</g>
<!-- Node3 -->
<g id="Node000003" class="node">
<title>Node3</title>
<g id="a_Node000003"><a xlink:href="SocketAsync_8h.html" target="_top" xlink:title=" ">
<polygon fill="white" stroke="#666666" points="728.5,-184 645.5,-184 645.5,-165 728.5,-165 728.5,-184"/>
<text text-anchor="middle" x="687" y="-172" font-family="Helvetica,sans-Serif" font-size="10.00">SocketAsync.h</text>
</a>
</g>
</g>
<!-- Node2&#45;&gt;Node3 -->
<g id="edge2_Node000002_Node000003" class="edge">
<title>Node2&#45;&gt;Node3</title>
<g id="a_edge2_Node000002_Node000003"><a xlink:title=" ">
<path fill="none" stroke="#63b8ff" d="M636.31,-213.88C648.91,-204.34 664.93,-192.21 675.55,-184.17"/>
<polygon fill="#63b8ff" stroke="#63b8ff" points="634.11,-211.16 628.25,-219.98 638.33,-216.74 634.11,-211.16"/>
</a>
</g>
</g>
<!-- Node4 -->
<g id="Node000004" class="node">
<title>Node4</title>
<g id="a_Node000004"><a xlink:href="SocketHTTP2_8h.html" target="_top" xlink:title=" ">
<polygon fill="white" stroke="#666666" points="833.5,-184 746.5,-184 746.5,-165 833.5,-165 833.5,-184"/>
<text text-anchor="middle" x="790" y="-172" font-family="Helvetica,sans-Serif" font-size="10.00">SocketHTTP2.h</text>
</a>
</g>
</g>
<!-- Node2&#45;&gt;Node4 -->
<g id="edge3_Node000002_Node000004" class="edge">
<title>Node2&#45;&gt;Node4</title>
<g id="a_edge3_Node000002_Node000004"><a xlink:title=" ">
<path fill="none" stroke="#63b8ff" d="M654.77,-216.93C687.09,-207.03 732.86,-193.01 761.99,-184.08"/>
<polygon fill="#63b8ff" stroke="#63b8ff" points="653.33,-213.71 644.8,-219.98 655.38,-220.4 653.33,-213.71"/>
</a>
</g>
</g>
<!-- Node5 -->
<g id="Node000005" class="node">
<title>Node5</title>
<g id="a_Node000005"><a xlink:href="SocketHTTPServer_8h.html" target="_top" xlink:title=" ">
<polygon fill="white" stroke="#666666" points="633,-74 523,-74 523,-55 633,-55 633,-74"/>
<text text-anchor="middle" x="578" y="-62" font-family="Helvetica,sans-Serif" font-size="10.00">SocketHTTPServer.h</text>
</a>
</g>
</g>
<!-- Node2&#45;&gt;Node5 -->
<g id="edge4_Node000002_Node000005" class="edge">
<title>Node2&#45;&gt;Node5</title>
<g id="a_edge4_Node000002_Node000005"><a xlink:title=" ">
<path fill="none" stroke="#63b8ff" d="M612.53,-209.83C604.12,-174.67 586.23,-99.9 580.11,-74.31"/>
<polygon fill="#63b8ff" stroke="#63b8ff" points="609.17,-210.83 614.9,-219.74 615.98,-209.2 609.17,-210.83"/>
</a>
</g>
</g>
<!-- Node7 -->
<g id="Node000007" class="node">
<title>Node7</title>
<g id="a_Node000007"><a xlink:href="websocket__server_8c.html" target="_top" xlink:title=" ">
<polygon fill="white" stroke="#666666" points="465,-19 361,-19 361,0 465,0 465,-19"/>
<text text-anchor="middle" x="413" y="-7" font-family="Helvetica,sans-Serif" font-size="10.00">websocket_server.c</text>
</a>
</g>
</g>
<!-- Node2&#45;&gt;Node7 -->
<g id="edge36_Node000002_Node000007" class="edge">
<title>Node2&#45;&gt;Node7</title>
<g id="a_edge36_Node000002_Node000007"><a xlink:title=" ">
<path fill="none" stroke="#63b8ff" d="M578.96,-221.05C556.9,-214.79 530.32,-203.6 514,-184 492.41,-158.07 512.09,-140.19 497,-110 477.7,-71.38 440.44,-35 422.76,-19.02"/>
<polygon fill="#63b8ff" stroke="#63b8ff" points="578.17,-224.46 588.73,-223.59 579.93,-217.69 578.17,-224.46"/>
</a>
</g>
</g>
<!-- Node2&#45;&gt;Node8 -->
<g id="edge7_Node000002_Node000008" class="edge">
<title>Node2&#45;&gt;Node8</title>
<g id="a_edge7_Node000002_Node000008"><a xlink:title=" ">
<path fill="none" stroke="#63b8ff" d="M578.87,-227.65C480.84,-225.03 222.18,-215.28 143,-184 111.85,-171.69 82.68,-143.75 69.05,-129.39"/>
<polygon fill="#63b8ff" stroke="#63b8ff" points="578.84,-231.15 588.93,-227.91 579.02,-224.15 578.84,-231.15"/>
</a>
</g>
</g>
<!-- Node9 -->
<g id="Node000009" class="node">
<title>Node9</title>
<g id="a_Node000009"><a xlink:href="SocketIO_8h.html" target="_top" xlink:title=" ">
<polygon fill="white" stroke="#666666" points="589,-184 523,-184 523,-165 589,-165 589,-184"/>
<text text-anchor="middle" x="556" y="-172" font-family="Helvetica,sans-Serif" font-size="10.00">SocketIO.h</text>
</a>
</g>
</g>
<!-- Node2&#45;&gt;Node9 -->
<g id="edge8_Node000002_Node000009" class="edge">
<title>Node2&#45;&gt;Node9</title>
<g id="a_edge8_Node000002_Node000009"><a xlink:title=" ">
<path fill="none" stroke="#63b8ff" d="M599.53,-213.32C588.66,-203.87 575.06,-192.06 565.98,-184.17"/>
<polygon fill="#63b8ff" stroke="#63b8ff" points="597.35,-216.07 607.2,-219.98 601.95,-210.78 597.35,-216.07"/>
</a>
</g>
</g>
<!-- Node10 -->
<g id="Node000010" class="node">
<title>Node10</title>
<g id="a_Node000010"><a xlink:href="SocketPoll_8h.html" target="_top" xlink:title=" ">
<polygon fill="white" stroke="#666666" points="224,-184 152,-184 152,-165 224,-165 224,-184"/>
<text text-anchor="middle" x="188" y="-172" font-family="Helvetica,sans-Serif" font-size="10.00">SocketPoll.h</text>
</a>
</g>
</g>
<!-- Node2&#45;&gt;Node10 -->
<g id="edge9_Node000002_Node000010" class="edge">
<title>Node2&#45;&gt;Node10</title>
<g id="a_edge9_Node000002_Node000010"><a xlink:title=" ">
<path fill="none" stroke="#63b8ff" d="M578.71,-223.77C496.58,-213.62 304.49,-189.89 224.24,-179.98"/>
<polygon fill="#63b8ff" stroke="#63b8ff" points="578.5,-227.27 588.85,-225.02 579.36,-220.32 578.5,-227.27"/>
</a>
</g>
</g>
<!-- Node11 -->
<g id="Node000011" class="node">
<title>Node11</title>
<g id="a_Node000011"><a xlink:href="SocketPoll__backend_8h.html" target="_top" xlink:title=" ">
<polygon fill="white" stroke="#666666" points="330,-129 216,-129 216,-110 330,-110 330,-129"/>
<text text-anchor="middle" x="273" y="-117" font-family="Helvetica,sans-Serif" font-size="10.00">SocketPoll_backend.h</text>
</a>
</g>
</g>
<!-- Node2&#45;&gt;Node11 -->
<g id="edge14_Node000002_Node000011" class="edge">
<title>Node2&#45;&gt;Node11</title>
<g id="a_edge14_Node000002_Node000011"><a xlink:title=" ">
<path fill="none" stroke="#63b8ff" d="M578.71,-228.48C524.79,-227.08 424.53,-219.4 348,-184 319.2,-170.68 292.66,-143.19 280.3,-129.16"/>
<polygon fill="#63b8ff" stroke="#63b8ff" points="578.79,-231.98 588.86,-228.68 578.93,-224.98 578.79,-231.98"/>
</a>
</g>
</g>
<!-- Node2&#45;&gt;Node12 -->
<g id="edge15_Node000002_Node000012" class="edge">
<title>Node2&#45;&gt;Node12</title>
<g id="a_edge15_Node000002_Node000012"><a xlink:title=" ">
<path fill="none" stroke="#63b8ff" d="M655.21,-227.37C762.55,-223.86 1061.23,-211.67 1095,-184 1111.56,-170.43 1114.08,-143.06 1114.23,-129.1"/>
<polygon fill="#63b8ff" stroke="#63b8ff" points="655.02,-223.87 645.14,-227.69 655.24,-230.87 655.02,-223.87"/>
</a>
</g>
</g>
<!-- Node13 -->
<g id="Node000013" class="node">
<title>Node13</title>
<g id="a_Node000013"><a xlink:href="SocketProxy_8h.html" target="_top" xlink:title=" ">
<polygon fill="white" stroke="#666666" points="895,-74 815,-74 815,-55 895,-55 895,-74"/>
<text text-anchor="middle" x="855" y="-62" font-family="Helvetica,sans-Serif" font-size="10.00">SocketProxy.h</text>
</a>
</g>
</g>
<!-- Node2&#45;&gt;Node13 -->
<g id="edge16_Node000002_Node000013" class="edge">
<title>Node2&#45;&gt;Node13</title>
<g id="a_edge16_Node000002_Node000013"><a xlink:title=" ">
<path fill="none" stroke="#63b8ff" d="M655.54,-226.31C713.34,-222.18 818.35,-211.07 843,-184 871.54,-152.66 862.07,-95.52 857.16,-74"/>
<polygon fill="#63b8ff" stroke="#63b8ff" points="655.07,-222.84 645.33,-227.01 655.54,-229.82 655.07,-222.84"/>
</a>
</g>
</g>
<!-- Node14 -->
<g id="Node000014" class="node">
<title>Node14</title>
<g id="a_Node000014"><a xlink:href="proxy__connect_8c.html" target="_top" xlink:title=" ">
<polygon fill="white" stroke="#666666" points="956.5,-19 867.5,-19 867.5,0 956.5,0 956.5,-19"/>
<text text-anchor="middle" x="912" y="-7" font-family="Helvetica,sans-Serif" font-size="10.00">proxy_connect.c</text>
</a>
</g>
</g>
<!-- Node2&#45;&gt;Node14 -->
<g id="edge34_Node000002_Node000014" class="edge">
<title>Node2&#45;&gt;Node14</title>
<g id="a_edge34_Node000002_Node000014"><a xlink:title=" ">
<path fill="none" stroke="#63b8ff" d="M655.39,-228.81C757.82,-229.04 1035.22,-225.7 1115,-184 1143.24,-169.24 1150.12,-158.95 1161,-129 1192.37,-42.6 1036.62,-19.14 956.79,-12.82"/>
<polygon fill="#63b8ff" stroke="#63b8ff" points="655.2,-225.31 645.19,-228.77 655.18,-232.31 655.2,-225.31"/>
</a>
</g>
</g>
<!-- Node15 -->
<g id="Node000015" class="node">
<title>Node15</title>
<g id="a_Node000015"><a xlink:href="SocketReconnect_8h.html" target="_top" xlink:title=" ">
<polygon fill="white" stroke="#666666" points="1085.5,-184 982.5,-184 982.5,-165 1085.5,-165 1085.5,-184"/>
<text text-anchor="middle" x="1034" y="-172" font-family="Helvetica,sans-Serif" font-size="10.00">SocketReconnect.h</text>
</a>
</g>
</g>
<!-- Node2&#45;&gt;Node15 -->
<g id="edge18_Node000002_Node000015" class="edge">
<title>Node2&#45;&gt;Node15</title>
<g id="a_edge18_Node000002_Node000015"><a xlink:title=" ">
<path fill="none" stroke="#63b8ff" d="M655.39,-223.88C720.67,-215.99 857.48,-199.27 973,-184 976.07,-183.59 979.23,-183.17 982.42,-182.74"/>
<polygon fill="#63b8ff" stroke="#63b8ff" points="654.68,-220.44 645.17,-225.12 655.52,-227.39 654.68,-220.44"/>
</a>
</g>
</g>
<!-- Node16 -->
<g id="Node000016" class="node">
<title>Node16</title>
<g id="a_Node000016"><a xlink:href="SocketTLS_8h.html" target="_top" xlink:title=" ">
<polygon fill="white" stroke="#666666" points="964,-184 890,-184 890,-165 964,-165 964,-184"/>
<text text-anchor="middle" x="927" y="-172" font-family="Helvetica,sans-Serif" font-size="10.00">SocketTLS.h</text>
</a>
</g>
</g>
<!-- Node2&#45;&gt;Node16 -->
<g id="edge20_Node000002_Node000016" class="edge">
<title>Node2&#45;&gt;Node16</title>
<g id="a_edge20_Node000002_Node000016"><a xlink:title=" ">
<path fill="none" stroke="#63b8ff" d="M655.23,-221.96C715.14,-211.72 830.44,-192.01 889.75,-181.87"/>
<polygon fill="#63b8ff" stroke="#63b8ff" points="654.32,-218.57 645.06,-223.7 655.5,-225.47 654.32,-218.57"/>
</a>
</g>
</g>
<!-- Node23 -->
<g id="Node000023" class="node">
<title>Node23</title>
<g id="a_Node000023"><a xlink:href="SocketWS_8h.html" target="_top" xlink:title=" ">
<polygon fill="white" stroke="#666666" points="429,-184 357,-184 357,-165 429,-165 429,-184"/>
<text text-anchor="middle" x="393" y="-172" font-family="Helvetica,sans-Serif" font-size="10.00">SocketWS.h</text>
</a>
</g>
</g>
<!-- Node2&#45;&gt;Node23 -->
<g id="edge31_Node000002_Node000023" class="edge">
<title>Node2&#45;&gt;Node23</title>
<g id="a_edge31_Node000002_Node000023"><a xlink:title=" ">
<path fill="none" stroke="#63b8ff" d="M578.81,-219.46C536.97,-209.57 470.36,-193.8 429.29,-184.09"/>
<polygon fill="#63b8ff" stroke="#63b8ff" points="578.09,-222.89 588.63,-221.79 579.7,-216.08 578.09,-222.89"/>
</a>
</g>
</g>
<!-- Node24 -->
<g id="Node000024" class="node">
<title>Node24</title>
<g id="a_Node000024"><a xlink:href="websocket__client_8c.html" target="_top" xlink:title=" ">
<polygon fill="white" stroke="#666666" points="487.5,-129 386.5,-129 386.5,-110 487.5,-110 487.5,-129"/>
<text text-anchor="middle" x="437" y="-117" font-family="Helvetica,sans-Serif" font-size="10.00">websocket_client.c</text>
</a>
</g>
</g>
<!-- Node2&#45;&gt;Node24 -->
<g id="edge35_Node000002_Node000024" class="edge">
<title>Node2&#45;&gt;Node24</title>
<g id="a_edge35_Node000002_Node000024"><a xlink:title=" ">
<path fill="none" stroke="#63b8ff" d="M578.59,-222.77C549.53,-216.9 509.83,-205.49 481,-184 461.21,-169.25 447.14,-142.9 440.79,-129.24"/>
<polygon fill="#63b8ff" stroke="#63b8ff" points="578.3,-226.27 588.78,-224.68 579.6,-219.39 578.3,-226.27"/>
</a>
</g>
</g>
<!-- Node6 -->
<g id="Node000006" class="node">
<title>Node6</title>
<g id="a_Node000006"><a xlink:href="http__server_8c.html" target="_top" xlink:title=" ">
<polygon fill="white" stroke="#666666" points="574.5,-19 501.5,-19 501.5,0 574.5,0 574.5,-19"/>
<text text-anchor="middle" x="538" y="-7" font-family="Helvetica,sans-Serif" font-size="10.00">http_server.c</text>
</a>
</g>
</g>
<!-- Node5&#45;&gt;Node6 -->
<g id="edge5_Node000005_Node000006" class="edge">
<title>Node5&#45;&gt;Node6</title>
<g id="a_edge5_Node000005_Node000006"><a xlink:title=" ">
<path fill="none" stroke="#63b8ff" d="M565.3,-46.67C558.37,-37.5 550.09,-26.52 544.48,-19.09"/>
<polygon fill="#63b8ff" stroke="#63b8ff" points="562.58,-48.87 571.39,-54.75 568.16,-44.66 562.58,-48.87"/>
</a>
</g>
</g>
<!-- Node5&#45;&gt;Node7 -->
<g id="edge6_Node000005_Node000007" class="edge">
<title>Node5&#45;&gt;Node7</title>
<g id="a_edge6_Node000005_Node000007"><a xlink:title=" ">
<path fill="none" stroke="#63b8ff" d="M541.57,-51.8C510.78,-41.91 467.38,-27.97 439.72,-19.08"/>
<polygon fill="#63b8ff" stroke="#63b8ff" points="540.9,-55.26 551.49,-54.98 543.04,-48.59 540.9,-55.26"/>
</a>
</g>
</g>
<!-- Node10&#45;&gt;Node5 -->
<g id="edge10_Node000010_Node000005" class="edge">
<title>Node10&#45;&gt;Node5</title>
<g id="a_edge10_Node000010_Node000005"><a xlink:title=" ">
<path fill="none" stroke="#63b8ff" d="M188.37,-154.62C189.73,-140.15 194.08,-120.88 207,-110 253.59,-70.78 431.39,-65.15 522.89,-64.94"/>
<polygon fill="#63b8ff" stroke="#63b8ff" points="184.86,-154.77 187.81,-164.94 191.85,-155.15 184.86,-154.77"/>
</a>
</g>
</g>
<!-- Node10&#45;&gt;Node7 -->
<g id="edge13_Node000010_Node000007" class="edge">
<title>Node10&#45;&gt;Node7</title>
<g id="a_edge13_Node000010_Node000007"><a xlink:title=" ">
<path fill="none" stroke="#63b8ff" d="M184.01,-154.7C182.22,-141.12 182.16,-122.97 191,-110 229.54,-53.46 308.2,-28.64 360.77,-18.03"/>
<polygon fill="#63b8ff" stroke="#63b8ff" points="180.61,-155.56 185.77,-164.81 187.5,-154.36 180.61,-155.56"/>
</a>
</g>
</g>
<!-- Node10&#45;&gt;Node8 -->
<g id="edge11_Node000010_Node000008" class="edge">
<title>Node10&#45;&gt;Node8</title>
<g id="a_edge11_Node000010_Node000008"><a xlink:title=" ">
<path fill="none" stroke="#63b8ff" d="M158.12,-161.03C134.63,-151.23 102.53,-137.83 81.78,-129.17"/>
<polygon fill="#63b8ff" stroke="#63b8ff" points="157.02,-164.36 167.6,-164.98 159.71,-157.9 157.02,-164.36"/>
</a>
</g>
</g>
<!-- Node10&#45;&gt;Node11 -->
<g id="edge12_Node000010_Node000011" class="edge">
<title>Node10&#45;&gt;Node11</title>
<g id="a_edge12_Node000010_Node000011"><a xlink:title=" ">
<path fill="none" stroke="#63b8ff" d="M210.57,-159.42C226,-149.81 245.95,-137.37 259.09,-129.17"/>
<polygon fill="#63b8ff" stroke="#63b8ff" points="208.29,-156.72 201.66,-164.98 211.99,-162.66 208.29,-156.72"/>
</a>
</g>
</g>
<!-- Node13&#45;&gt;Node14 -->
<g id="edge17_Node000013_Node000014" class="edge">
<title>Node13&#45;&gt;Node14</title>
<g id="a_edge17_Node000013_Node000014"><a xlink:title=" ">
<path fill="none" stroke="#63b8ff" d="M871.62,-48.04C881.73,-38.64 894.28,-26.98 902.68,-19.17"/>
<polygon fill="#63b8ff" stroke="#63b8ff" points="869.1,-45.61 864.16,-54.98 873.86,-50.74 869.1,-45.61"/>
</a>
</g>
</g>
<!-- Node15&#45;&gt;Node12 -->
<g id="edge19_Node000015_Node000012" class="edge">
<title>Node15&#45;&gt;Node12</title>
<g id="a_edge19_Node000015_Node000012"><a xlink:title=" ">
<path fill="none" stroke="#63b8ff" d="M1055.25,-159.42C1069.76,-149.81 1088.54,-137.37 1100.91,-129.17"/>
<polygon fill="#63b8ff" stroke="#63b8ff" points="1053.26,-156.54 1046.85,-164.98 1057.12,-162.38 1053.26,-156.54"/>
</a>
</g>
</g>
<!-- Node16&#45;&gt;Node14 -->
<g id="edge30_Node000016_Node000014" class="edge">
<title>Node16&#45;&gt;Node14</title>
<g id="a_edge30_Node000016_Node000014"><a xlink:title=" ">
<path fill="none" stroke="#63b8ff" d="M925.24,-154.37C921.99,-119.03 915.16,-44.79 912.81,-19.31"/>
<polygon fill="#63b8ff" stroke="#63b8ff" points="921.79,-155.1 926.19,-164.74 928.76,-154.46 921.79,-155.1"/>
</a>
</g>
</g>
<!-- Node17 -->
<g id="Node000017" class="node">
<title>Node17</title>
<g id="a_Node000017"><a xlink:href="SocketDTLSContext_8h.html" target="_top" xlink:title=" ">
<polygon fill="white" stroke="#666666" points="1058,-129 942,-129 942,-110 1058,-110 1058,-129"/>
<text text-anchor="middle" x="1000" y="-117" font-family="Helvetica,sans-Serif" font-size="10.00">SocketDTLSContext.h</text>
</a>
</g>
</g>
<!-- Node16&#45;&gt;Node17 -->
<g id="edge21_Node000016_Node000017" class="edge">
<title>Node16&#45;&gt;Node17</title>
<g id="a_edge21_Node000016_Node000017"><a xlink:title=" ">
<path fill="none" stroke="#63b8ff" d="M947.14,-158.88C960.28,-149.34 976.98,-137.21 988.06,-129.17"/>
<polygon fill="#63b8ff" stroke="#63b8ff" points="944.76,-156.28 938.73,-164.98 948.88,-161.94 944.76,-156.28"/>
</a>
</g>
</g>
<!-- Node18 -->
<g id="Node000018" class="node">
<title>Node18</title>
<g id="a_Node000018"><a xlink:href="SocketTLSContext_8h.html" target="_top" xlink:title=" ">
<polygon fill="white" stroke="#666666" points="834,-129 726,-129 726,-110 834,-110 834,-129"/>
<text text-anchor="middle" x="780" y="-117" font-family="Helvetica,sans-Serif" font-size="10.00">SocketTLSContext.h</text>
</a>
</g>
</g>
<!-- Node16&#45;&gt;Node18 -->
<g id="edge22_Node000016_Node000018" class="edge">
<title>Node16&#45;&gt;Node18</title>
<g id="a_edge22_Node000016_Node000018"><a xlink:title=" ">
<path fill="none" stroke="#63b8ff" d="M893.86,-161.55C866.56,-151.71 828.5,-137.98 804.05,-129.17"/>
<polygon fill="#63b8ff" stroke="#63b8ff" points="892.79,-164.89 903.38,-164.98 895.16,-158.3 892.79,-164.89"/>
</a>
</g>
</g>
<!-- Node18&#45;&gt;Node5 -->
<g id="edge27_Node000018_Node000005" class="edge">
<title>Node18&#45;&gt;Node5</title>
<g id="a_edge27_Node000018_Node000005"><a xlink:title=" ">
<path fill="none" stroke="#63b8ff" d="M737.84,-107.44C700.02,-97.52 645.31,-83.16 610.71,-74.08"/>
<polygon fill="#63b8ff" stroke="#63b8ff" points="736.98,-110.83 747.55,-109.98 738.76,-104.06 736.98,-110.83"/>
</a>
</g>
</g>
<!-- Node18&#45;&gt;Node13 -->
<g id="edge28_Node000018_Node000013" class="edge">
<title>Node18&#45;&gt;Node13</title>
<g id="a_edge28_Node000018_Node000013"><a xlink:title=" ">
<path fill="none" stroke="#63b8ff" d="M800.31,-104.15C813.86,-94.57 831.24,-82.29 842.73,-74.17"/>
<polygon fill="#63b8ff" stroke="#63b8ff" points="798.2,-101.36 792.05,-109.98 802.24,-107.07 798.2,-101.36"/>
</a>
</g>
</g>
<!-- Node18&#45;&gt;Node14 -->
<g id="edge29_Node000018_Node000014" class="edge">
<title>Node18&#45;&gt;Node14</title>
<g id="a_edge29_Node000018_Node000014"><a xlink:title=" ">
<path fill="none" stroke="#63b8ff" d="M783.55,-100.01C787.1,-86.06 793.82,-67.28 806,-55 824.05,-36.78 850.69,-25.64 872.75,-19.06"/>
<polygon fill="#63b8ff" stroke="#63b8ff" points="780.1,-99.43 781.35,-109.95 786.93,-100.94 780.1,-99.43"/>
</a>
</g>
</g>
<!-- Node19 -->
<g id="Node000019" class="node">
<title>Node19</title>
<g id="a_Node000019"><a xlink:href="SocketHTTPClient_8h.html" target="_top" xlink:title=" ">
<polygon fill="white" stroke="#666666" points="758.5,-74 651.5,-74 651.5,-55 758.5,-55 758.5,-74"/>
<text text-anchor="middle" x="705" y="-62" font-family="Helvetica,sans-Serif" font-size="10.00">SocketHTTPClient.h</text>
</a>
</g>
</g>
<!-- Node18&#45;&gt;Node19 -->
<g id="edge23_Node000018_Node000019" class="edge">
<title>Node18&#45;&gt;Node19</title>
<g id="a_edge23_Node000018_Node000019"><a xlink:title=" ">
<path fill="none" stroke="#63b8ff" d="M759.69,-104.15C746.14,-94.57 728.76,-82.29 717.27,-74.17"/>
<polygon fill="#63b8ff" stroke="#63b8ff" points="757.76,-107.07 767.95,-109.98 761.8,-101.36 757.76,-107.07"/>
</a>
</g>
</g>
<!-- Node20 -->
<g id="Node000020" class="node">
<title>Node20</title>
<g id="a_Node000020"><a xlink:href="http2__client_8c.html" target="_top" xlink:title=" ">
<polygon fill="white" stroke="#666666" points="667.5,-19 592.5,-19 592.5,0 667.5,0 667.5,-19"/>
<text text-anchor="middle" x="630" y="-7" font-family="Helvetica,sans-Serif" font-size="10.00">http2_client.c</text>
</a>
</g>
</g>
<!-- Node19&#45;&gt;Node20 -->
<g id="edge24_Node000019_Node000020" class="edge">
<title>Node19&#45;&gt;Node20</title>
<g id="a_edge24_Node000019_Node000020"><a xlink:title=" ">
<path fill="none" stroke="#63b8ff" d="M684.69,-49.15C671.14,-39.57 653.76,-27.29 642.27,-19.17"/>
<polygon fill="#63b8ff" stroke="#63b8ff" points="682.76,-52.07 692.95,-54.98 686.8,-46.36 682.76,-52.07"/>
</a>
</g>
</g>
<!-- Node21 -->
<g id="Node000021" class="node">
<title>Node21</title>
<g id="a_Node000021"><a xlink:href="http__get_8c.html" target="_top" xlink:title=" ">
<polygon fill="white" stroke="#666666" points="745,-19 685,-19 685,0 745,0 745,-19"/>
<text text-anchor="middle" x="715" y="-7" font-family="Helvetica,sans-Serif" font-size="10.00">http_get.c</text>
</a>
</g>
</g>
<!-- Node19&#45;&gt;Node21 -->
<g id="edge25_Node000019_Node000021" class="edge">
<title>Node19&#45;&gt;Node21</title>
<g id="a_edge25_Node000019_Node000021"><a xlink:title=" ">
<path fill="none" stroke="#63b8ff" d="M708.55,-44.66C710.2,-35.93 712.08,-25.99 713.38,-19.09"/>
<polygon fill="#63b8ff" stroke="#63b8ff" points="705.07,-44.27 706.65,-54.75 711.94,-45.57 705.07,-44.27"/>
</a>
</g>
</g>
<!-- Node22 -->
<g id="Node000022" class="node">
<title>Node22</title>
<g id="a_Node000022"><a xlink:href="http__post_8c.html" target="_top" xlink:title=" ">
<polygon fill="white" stroke="#666666" points="828.5,-19 763.5,-19 763.5,0 828.5,0 828.5,-19"/>
<text text-anchor="middle" x="796" y="-7" font-family="Helvetica,sans-Serif" font-size="10.00">http_post.c</text>
</a>
</g>
</g>
<!-- Node19&#45;&gt;Node22 -->
<g id="edge26_Node000019_Node000022" class="edge">
<title>Node19&#45;&gt;Node22</title>
<g id="a_edge26_Node000019_Node000022"><a xlink:title=" ">
<path fill="none" stroke="#63b8ff" d="M728.7,-49.7C745.28,-40.04 766.91,-27.44 781.11,-19.17"/>
<polygon fill="#63b8ff" stroke="#63b8ff" points="726.5,-46.93 719.62,-54.98 730.02,-52.98 726.5,-46.93"/>
</a>
</g>
</g>
<!-- Node23&#45;&gt;Node7 -->
<g id="edge33_Node000023_Node000007" class="edge">
<title>Node23&#45;&gt;Node7</title>
<g id="a_edge33_Node000023_Node000007"><a xlink:title=" ">
<path fill="none" stroke="#63b8ff" d="M384.81,-155.58C380,-142.92 375.35,-125.53 378,-110 383.98,-74.98 401,-35.9 408.89,-19.02"/>
<polygon fill="#63b8ff" stroke="#63b8ff" points="381.64,-157.07 388.73,-164.94 388.1,-154.37 381.64,-157.07"/>
</a>
</g>
</g>
<!-- Node23&#45;&gt;Node24 -->
<g id="edge32_Node000023_Node000024" class="edge">
<title>Node23&#45;&gt;Node24</title>
<g id="a_edge32_Node000023_Node000024"><a xlink:title=" ">
<path fill="none" stroke="#63b8ff" d="M406.73,-156.96C414.4,-147.72 423.63,-136.6 429.87,-129.09"/>
<polygon fill="#63b8ff" stroke="#63b8ff" points="403.96,-154.82 400.27,-164.75 409.35,-159.29 403.96,-154.82"/>
</a>
</g>
</g>
</g>
</svg>

<g id="navigator" transform="translate(0 0)" fill="#404254">
  <rect fill="#f2f5e9" fill-opacity="0.5" stroke="#606060" stroke-width=".5" x="0" y="0" width="60" height="60"/>
  <use id="zoomplus" xlink:href="#zoomPlus" x="17" y="9" onmousedown="handleZoom(evt,'in')"/>
  <use id="zoomminus" xlink:href="#zoomMin" x="42" y="9" onmousedown="handleZoom(evt,'out')"/>
  <use id="reset" xlink:href="#resetDef" x="30" y="36" onmousedown="handleReset()"/>
   <use id="arrowup" xlink:href="#arrowUp" x="0" y="0" onmousedown="handlePan(0,-1)"/>
  <use id="arrowright" xlink:href="#arrowRight" x="0" y="0" onmousedown="handlePan(1,0)"/>
  <use id="arrowdown" xlink:href="#arrowDown" x="0" y="0" onmousedown="handlePan(0,1)"/>
  <use id="arrowleft" xlink:href="#arrowLeft" x="0" y="0" onmousedown="handlePan(-1,0)"/>
</g>
<svg viewBox="0 0 15 15" width="100%" height="30px" preserveAspectRatio="xMaxYMin meet">
 <g id="arrow_out" transform="scale(0.3 0.3)">
  <a xlink:href="SocketDNS_8h__dep__incl_org.svg" target="_base">
   <rect id="button" ry="5" rx="5" y="6" x="6" height="38" width="38"
        fill="#f2f5e9" fill-opacity="0.5" stroke="#606060" stroke-width="1.0"/>
   <path id="arrow"
     d="M 11.500037,31.436501 C 11.940474,20.09759 22.043105,11.32322 32.158766,21.979434 L 37.068811,17.246167 C 37.068811,17.246167 37.088388,32 37.088388,32 L 22.160133,31.978069 C 22.160133,31.978069 26.997745,27.140456 26.997745,27.140456 C 18.528582,18.264221 13.291696,25.230495 11.500037,31.436501 z"
     style="fill:#404040;"/>
  </a>
 </g>
</svg>

<style type='text/css'>
<![CDATA[
[data-mouse-over-selected='false'] { opacity: 0.7; }
[data-mouse-over-selected='true']  { opacity: 1.0; }
]]>
</style>
<script type="application/ecmascript"><![CDATA[
document.addEventListener('DOMContentLoaded', (event) => {
  highlightEdges();
  highlightAdjacentNodes();
});
]]></script>
</svg>
