<?xml version="1.0" encoding="UTF-8" standalone="no"?>
<!DOCTYPE svg PUBLIC "-//W3C//DTD SVG 1.1//EN"
 "http://www.w3.org/Graphics/SVG/1.1/DTD/svg11.dtd">
<!-- Generated by graphviz version 2.43.0 (0)
 -->
<!-- Title: SocketIO.h Pages: 1 -->
<!--zoomable 302 -->

<svg id="main" version="1.1" xmlns="http://www.w3.org/2000/svg" xmlns:xlink="http://www.w3.org/1999/xlink" xml:space="preserve" onload="init(evt)">
<style type="text/css"><![CDATA[
.node, .edge {opacity: 0.7;}
.node.selected, .edge.selected {opacity: 1;}
.edge:hover path { stroke: red; }
.edge:hover polygon { stroke: red; fill: red; }
]]></style>

<defs>
  <circle id="rim" cx="0" cy="0" r="7"/>
  <circle id="rim2" cx="0" cy="0" r="3.5"/>
  <g id="zoomPlus">
    <use xlink:href="#rim" fill="#404040"><set attributeName="fill" to="#808080" begin="zoomplus.mouseover" end="zoomplus.mouseout"/></use>
    <path d="M-4,0h8M0,-4v8" fill="none" stroke="white" stroke-width="1.5" pointer-events="none"/>
  </g>
  <g id="zoomMin">
    <use xlink:href="#rim" fill="#404040"><set attributeName="fill" to="#808080" begin="zoomminus.mouseover" end="zoomminus.mouseout"/></use>
    <path d="M-4,0h8" fill="none" stroke="white" stroke-width="1.5" pointer-events="none"/>
  </g>
  <g id="arrowUp" transform="translate(30 24)">
    <use xlink:href="#rim"/>
    <path pointer-events="none" fill="none" stroke="white" stroke-width="1.5" d="M0,-3.0v7 M-2.5,-0.5L0,-3.0L2.5,-0.5"/>
  </g>
  <g id="arrowRight" transform="rotate(90) translate(36 -43)">
    <use xlink:href="#rim"/>
    <path pointer-events="none" fill="none" stroke="white" stroke-width="1.5" d="M0,-3.0v7 M-2.5,-0.5L0,-3.0L2.5,-0.5"/>
  </g>
  <g id="arrowDown" transform="rotate(180) translate(-30 -48)">
    <use xlink:href="#rim"/>
    <path pointer-events="none" fill="none" stroke="white" stroke-width="1.5" d="M0,-3.0v7 M-2.5,-0.5L0,-3.0L2.5,-0.5"/>
  </g>
  <g id="arrowLeft" transform="rotate(270) translate(-36 17)">
    <use xlink:href="#rim"/>
    <path pointer-events="none" fill="none" stroke="white" stroke-width="1.5" d="M0,-3.0v7 M-2.5,-0.5L0,-3.0L2.5,-0.5"/>
  </g>
  <g id="resetDef">
    <use xlink:href="#rim2" fill="#404040"><set attributeName="fill" to="#808080" begin="reset.mouseover" end="reset.mouseout"/></use>
  </g>
</defs>
<script type="application/ecmascript">
var viewWidth = 1117;
var viewHeight = 302;
var sectionId = 'dynsection-0';
</script>
<script type="application/ecmascript" xlink:href="svg.min.js"/>
<svg id="graph" class="graph">
<g id="viewport">
<title>SocketIO.h</title>
<!-- Node1 -->
<g id="Node000001" class="node">
<title>Node1</title>
<g id="a_Node000001"><a xlink:title="Internal I/O abstraction layer for socket operations with TLS support.">
<polygon fill="#999999" stroke="#666666" points="1001.5,-294 935.5,-294 935.5,-275 1001.5,-275 1001.5,-294"/>
<text text-anchor="middle" x="968.5" y="-282" font-family="Helvetica,sans-Serif" font-size="10.00">SocketIO.h</text>
</a>
</g>
</g>
<!-- Node2 -->
<g id="Node000002" class="node">
<title>Node2</title>
<g id="a_Node000002"><a xlink:href="Socket_8h.html" target="_top" xlink:title="High&#45;level TCP/IP and Unix domain socket interface.">
<polygon fill="white" stroke="#666666" points="563.5,-239 475.5,-239 475.5,-220 563.5,-220 563.5,-239"/>
<text text-anchor="middle" x="519.5" y="-227" font-family="Helvetica,sans-Serif" font-size="10.00">socket/Socket.h</text>
</a>
</g>
</g>
<!-- Node1&#45;&gt;Node2 -->
<g id="edge1_Node000001_Node000002" class="edge">
<title>Node1&#45;&gt;Node2</title>
<g id="a_edge1_Node000001_Node000002"><a xlink:title=" ">
<path fill="none" stroke="#63b8ff" d="M935.48,-279.6C858.77,-270.55 667.87,-248.01 573.74,-236.9"/>
<polygon fill="#63b8ff" stroke="#63b8ff" points="573.91,-233.4 563.57,-235.7 573.09,-240.35 573.91,-233.4"/>
</a>
</g>
</g>
<!-- Node6 -->
<g id="Node000006" class="node">
<title>Node6</title>
<g id="a_Node000006"><a xlink:title=" ">
<polygon fill="#e0e0e0" stroke="#999999" points="992,-74 945,-74 945,-55 992,-55 992,-74"/>
<text text-anchor="middle" x="968.5" y="-62" font-family="Helvetica,sans-Serif" font-size="10.00">errno.h</text>
</a>
</g>
</g>
<!-- Node1&#45;&gt;Node6 -->
<g id="edge35_Node000001_Node000006" class="edge">
<title>Node1&#45;&gt;Node6</title>
<g id="a_edge35_Node000001_Node000006"><a xlink:title=" ">
<path fill="none" stroke="#63b8ff" d="M968.5,-274.95C968.5,-242.95 968.5,-129.68 968.5,-84.4"/>
<polygon fill="#63b8ff" stroke="#63b8ff" points="972,-84.22 968.5,-74.22 965,-84.22 972,-84.22"/>
</a>
</g>
</g>
<!-- Node10 -->
<g id="Node000010" class="node">
<title>Node10</title>
<g id="a_Node000010"><a xlink:title=" ">
<polygon fill="#e0e0e0" stroke="#999999" points="186.5,-74 134.5,-74 134.5,-55 186.5,-55 186.5,-74"/>
<text text-anchor="middle" x="160.5" y="-62" font-family="Helvetica,sans-Serif" font-size="10.00">stddef.h</text>
</a>
</g>
</g>
<!-- Node1&#45;&gt;Node10 -->
<g id="edge36_Node000001_Node000010" class="edge">
<title>Node1&#45;&gt;Node10</title>
<g id="a_edge36_Node000001_Node000010"><a xlink:title=" ">
<path fill="none" stroke="#63b8ff" d="M935.35,-281.64C799.45,-273.68 285.04,-240.37 133.5,-184 89.56,-167.66 66.43,-169.89 43.5,-129 39.37,-121.63 38.71,-116.95 43.5,-110 53.03,-96.18 93.69,-82.83 124.42,-74.42"/>
<polygon fill="#63b8ff" stroke="#63b8ff" points="125.64,-77.71 134.4,-71.76 123.84,-70.95 125.64,-77.71"/>
</a>
</g>
</g>
<!-- Node13 -->
<g id="Node000013" class="node">
<title>Node13</title>
<g id="a_Node000013"><a xlink:title=" ">
<polygon fill="#e0e0e0" stroke="#999999" points="1066.5,-74 1010.5,-74 1010.5,-55 1066.5,-55 1066.5,-74"/>
<text text-anchor="middle" x="1038.5" y="-62" font-family="Helvetica,sans-Serif" font-size="10.00">sys/uio.h</text>
</a>
</g>
</g>
<!-- Node1&#45;&gt;Node13 -->
<g id="edge37_Node000001_Node000013" class="edge">
<title>Node1&#45;&gt;Node13</title>
<g id="a_edge37_Node000001_Node000013"><a xlink:title=" ">
<path fill="none" stroke="#63b8ff" d="M971.24,-274.95C981.57,-242.81 1018.2,-128.72 1032.61,-83.83"/>
<polygon fill="#63b8ff" stroke="#63b8ff" points="1035.97,-84.81 1035.7,-74.22 1029.31,-82.67 1035.97,-84.81"/>
</a>
</g>
</g>
<!-- Node25 -->
<g id="Node000025" class="node">
<title>Node25</title>
<g id="a_Node000025"><a xlink:title=" ">
<polygon fill="#e0e0e0" stroke="#999999" points="1108.5,-239 1034.5,-239 1034.5,-220 1108.5,-220 1108.5,-239"/>
<text text-anchor="middle" x="1071.5" y="-227" font-family="Helvetica,sans-Serif" font-size="10.00">openssl/ssl.h</text>
</a>
</g>
</g>
<!-- Node1&#45;&gt;Node25 -->
<g id="edge38_Node000001_Node000025" class="edge">
<title>Node1&#45;&gt;Node25</title>
<g id="a_edge38_Node000001_Node000025"><a xlink:title=" ">
<path fill="none" stroke="#63b8ff" d="M985.05,-274.98C1001.39,-266.57 1026.63,-253.59 1045.63,-243.81"/>
<polygon fill="#63b8ff" stroke="#63b8ff" points="1047.36,-246.86 1054.65,-239.17 1044.16,-240.63 1047.36,-246.86"/>
</a>
</g>
</g>
<!-- Node3 -->
<g id="Node000003" class="node">
<title>Node3</title>
<g id="a_Node000003"><a xlink:href="Except_8h.html" target="_top" xlink:title="Structured exception handling for C with TRY/EXCEPT/FINALLY blocks.">
<polygon fill="white" stroke="#666666" points="282,-74 205,-74 205,-55 282,-55 282,-74"/>
<text text-anchor="middle" x="243.5" y="-62" font-family="Helvetica,sans-Serif" font-size="10.00">core/Except.h</text>
</a>
</g>
</g>
<!-- Node2&#45;&gt;Node3 -->
<g id="edge2_Node000002_Node000003" class="edge">
<title>Node2&#45;&gt;Node3</title>
<g id="a_edge2_Node000002_Node000003"><a xlink:title=" ">
<path fill="none" stroke="#63b8ff" d="M475.48,-221.53C394.97,-207.77 229.12,-174.49 195.5,-129 182.94,-112 202.53,-92.64 220.33,-79.82"/>
<polygon fill="#63b8ff" stroke="#63b8ff" points="222.47,-82.59 228.78,-74.08 218.54,-76.8 222.47,-82.59"/>
</a>
</g>
</g>
<!-- Node5 -->
<g id="Node000005" class="node">
<title>Node5</title>
<g id="a_Node000005"><a xlink:href="SocketConfig_8h.html" target="_top" xlink:title="Compile&#45;time and runtime configuration constants, limits, and platform adaptations.">
<polygon fill="white" stroke="#666666" points="940.5,-129 834.5,-129 834.5,-110 940.5,-110 940.5,-129"/>
<text text-anchor="middle" x="887.5" y="-117" font-family="Helvetica,sans-Serif" font-size="10.00">core/SocketConfig.h</text>
</a>
</g>
</g>
<!-- Node2&#45;&gt;Node5 -->
<g id="edge4_Node000002_Node000005" class="edge">
<title>Node2&#45;&gt;Node5</title>
<g id="a_edge4_Node000002_Node000005"><a xlink:title=" ">
<path fill="none" stroke="#63b8ff" d="M548.68,-219.94C614.44,-200.64 774.22,-153.74 848.43,-131.97"/>
<polygon fill="#63b8ff" stroke="#63b8ff" points="849.7,-135.24 858.31,-129.07 847.73,-128.52 849.7,-135.24"/>
</a>
</g>
</g>
<!-- Node15 -->
<g id="Node000015" class="node">
<title>Node15</title>
<g id="a_Node000015"><a xlink:href="SocketDNS_8h.html" target="_top" xlink:title="Asynchronous DNS resolution API for non&#45;blocking network applications.">
<polygon fill="white" stroke="#666666" points="148.5,-129 52.5,-129 52.5,-110 148.5,-110 148.5,-129"/>
<text text-anchor="middle" x="100.5" y="-117" font-family="Helvetica,sans-Serif" font-size="10.00">dns/SocketDNS.h</text>
</a>
</g>
</g>
<!-- Node2&#45;&gt;Node15 -->
<g id="edge14_Node000002_Node000015" class="edge">
<title>Node2&#45;&gt;Node15</title>
<g id="a_edge14_Node000002_Node000015"><a xlink:title=" ">
<path fill="none" stroke="#63b8ff" d="M475.41,-226.63C392.44,-222.51 216.56,-210.83 162.5,-184 141.24,-173.45 123.12,-152.61 112.06,-137.68"/>
<polygon fill="#63b8ff" stroke="#63b8ff" points="114.75,-135.43 106.11,-129.29 109.04,-139.47 114.75,-135.43"/>
</a>
</g>
</g>
<!-- Node18 -->
<g id="Node000018" class="node">
<title>Node18</title>
<g id="a_Node000018"><a xlink:href="SocketCommon_8h.html" target="_top" xlink:title="Common utilities shared between Socket and SocketDgram modules.">
<polygon fill="white" stroke="#666666" points="583.5,-184 455.5,-184 455.5,-165 583.5,-165 583.5,-184"/>
<text text-anchor="middle" x="519.5" y="-172" font-family="Helvetica,sans-Serif" font-size="10.00">socket/SocketCommon.h</text>
</a>
</g>
</g>
<!-- Node2&#45;&gt;Node18 -->
<g id="edge20_Node000002_Node000018" class="edge">
<title>Node2&#45;&gt;Node18</title>
<g id="a_edge20_Node000002_Node000018"><a xlink:title=" ">
<path fill="none" stroke="#63b8ff" d="M519.5,-219.75C519.5,-212.8 519.5,-202.85 519.5,-194.13"/>
<polygon fill="#63b8ff" stroke="#63b8ff" points="523,-194.09 519.5,-184.09 516,-194.09 523,-194.09"/>
</a>
</g>
</g>
<!-- Node4 -->
<g id="Node000004" class="node">
<title>Node4</title>
<g id="a_Node000004"><a xlink:title=" ">
<polygon fill="#e0e0e0" stroke="#999999" points="270.5,-19 216.5,-19 216.5,0 270.5,0 270.5,-19"/>
<text text-anchor="middle" x="243.5" y="-7" font-family="Helvetica,sans-Serif" font-size="10.00">setjmp.h</text>
</a>
</g>
</g>
<!-- Node3&#45;&gt;Node4 -->
<g id="edge3_Node000003_Node000004" class="edge">
<title>Node3&#45;&gt;Node4</title>
<g id="a_edge3_Node000003_Node000004"><a xlink:title=" ">
<path fill="none" stroke="#63b8ff" d="M243.5,-54.75C243.5,-47.8 243.5,-37.85 243.5,-29.13"/>
<polygon fill="#63b8ff" stroke="#63b8ff" points="247,-29.09 243.5,-19.09 240,-29.09 247,-29.09"/>
</a>
</g>
</g>
<!-- Node5&#45;&gt;Node6 -->
<g id="edge5_Node000005_Node000006" class="edge">
<title>Node5&#45;&gt;Node6</title>
<g id="a_edge5_Node000005_Node000006"><a xlink:title=" ">
<path fill="none" stroke="#63b8ff" d="M900.51,-109.98C912.96,-101.84 931.96,-89.41 946.71,-79.76"/>
<polygon fill="#63b8ff" stroke="#63b8ff" points="948.8,-82.57 955.25,-74.17 944.96,-76.72 948.8,-82.57"/>
</a>
</g>
</g>
<!-- Node7 -->
<g id="Node000007" class="node">
<title>Node7</title>
<g id="a_Node000007"><a xlink:title=" ">
<polygon fill="#e0e0e0" stroke="#999999" points="703.5,-74 659.5,-74 659.5,-55 703.5,-55 703.5,-74"/>
<text text-anchor="middle" x="681.5" y="-62" font-family="Helvetica,sans-Serif" font-size="10.00">fcntl.h</text>
</a>
</g>
</g>
<!-- Node5&#45;&gt;Node7 -->
<g id="edge6_Node000005_Node000007" class="edge">
<title>Node5&#45;&gt;Node7</title>
<g id="a_edge6_Node000005_Node000007"><a xlink:title=" ">
<path fill="none" stroke="#63b8ff" d="M853.79,-109.98C818.72,-101.09 762.23,-86.7 713.5,-74 713.4,-73.97 713.3,-73.95 713.2,-73.92"/>
<polygon fill="#63b8ff" stroke="#63b8ff" points="714.09,-70.54 703.53,-71.38 712.31,-77.31 714.09,-70.54"/>
</a>
</g>
</g>
<!-- Node8 -->
<g id="Node000008" class="node">
<title>Node8</title>
<g id="a_Node000008"><a xlink:title=" ">
<polygon fill="#e0e0e0" stroke="#999999" points="631,-74 566,-74 566,-55 631,-55 631,-74"/>
<text text-anchor="middle" x="598.5" y="-62" font-family="Helvetica,sans-Serif" font-size="10.00">netinet/in.h</text>
</a>
</g>
</g>
<!-- Node5&#45;&gt;Node8 -->
<g id="edge7_Node000005_Node000008" class="edge">
<title>Node5&#45;&gt;Node8</title>
<g id="a_edge7_Node000005_Node000008"><a xlink:title=" ">
<path fill="none" stroke="#63b8ff" d="M841.07,-109.98C785.91,-99.87 694.64,-83.13 641.18,-73.33"/>
<polygon fill="#63b8ff" stroke="#63b8ff" points="641.8,-69.88 631.34,-71.52 640.54,-76.77 641.8,-69.88"/>
</a>
</g>
</g>
<!-- Node9 -->
<g id="Node000009" class="node">
<title>Node9</title>
<g id="a_Node000009"><a xlink:title=" ">
<polygon fill="#e0e0e0" stroke="#999999" points="793,-74 722,-74 722,-55 793,-55 793,-74"/>
<text text-anchor="middle" x="757.5" y="-62" font-family="Helvetica,sans-Serif" font-size="10.00">netinet/tcp.h</text>
</a>
</g>
</g>
<!-- Node5&#45;&gt;Node9 -->
<g id="edge8_Node000005_Node000009" class="edge">
<title>Node5&#45;&gt;Node9</title>
<g id="a_edge8_Node000005_Node000009"><a xlink:title=" ">
<path fill="none" stroke="#63b8ff" d="M866.61,-109.98C845.42,-101.34 812.37,-87.87 788.2,-78.02"/>
<polygon fill="#63b8ff" stroke="#63b8ff" points="789.35,-74.7 778.77,-74.17 786.71,-81.19 789.35,-74.7"/>
</a>
</g>
</g>
<!-- Node5&#45;&gt;Node10 -->
<g id="edge9_Node000005_Node000010" class="edge">
<title>Node5&#45;&gt;Node10</title>
<g id="a_edge9_Node000005_Node000010"><a xlink:title=" ">
<path fill="none" stroke="#63b8ff" d="M834.32,-113.74C819.2,-112.45 802.71,-111.11 787.5,-110 527.94,-91.08 457.93,-112.7 196.94,-73.94"/>
<polygon fill="#63b8ff" stroke="#63b8ff" points="197.18,-70.43 186.77,-72.41 196.14,-77.36 197.18,-70.43"/>
</a>
</g>
</g>
<!-- Node11 -->
<g id="Node000011" class="node">
<title>Node11</title>
<g id="a_Node000011"><a xlink:title=" ">
<polygon fill="#e0e0e0" stroke="#999999" points="857.5,-74 811.5,-74 811.5,-55 857.5,-55 857.5,-74"/>
<text text-anchor="middle" x="834.5" y="-62" font-family="Helvetica,sans-Serif" font-size="10.00">stdio.h</text>
</a>
</g>
</g>
<!-- Node5&#45;&gt;Node11 -->
<g id="edge10_Node000005_Node000011" class="edge">
<title>Node5&#45;&gt;Node11</title>
<g id="a_edge10_Node000005_Node000011"><a xlink:title=" ">
<path fill="none" stroke="#63b8ff" d="M878.75,-109.75C871.03,-102.03 859.6,-90.6 850.28,-81.28"/>
<polygon fill="#63b8ff" stroke="#63b8ff" points="852.64,-78.69 843.09,-74.09 847.69,-83.64 852.64,-78.69"/>
</a>
</g>
</g>
<!-- Node12 -->
<g id="Node000012" class="node">
<title>Node12</title>
<g id="a_Node000012"><a xlink:title=" ">
<polygon fill="#e0e0e0" stroke="#999999" points="537,-74 464,-74 464,-55 537,-55 537,-74"/>
<text text-anchor="middle" x="500.5" y="-62" font-family="Helvetica,sans-Serif" font-size="10.00">sys/socket.h</text>
</a>
</g>
</g>
<!-- Node5&#45;&gt;Node12 -->
<g id="edge11_Node000005_Node000012" class="edge">
<title>Node5&#45;&gt;Node12</title>
<g id="a_edge11_Node000005_Node000012"><a xlink:title=" ">
<path fill="none" stroke="#63b8ff" d="M834.31,-111.56C769.07,-102.99 655.09,-87.86 557.5,-74 554.23,-73.54 550.86,-73.05 547.46,-72.56"/>
<polygon fill="#63b8ff" stroke="#63b8ff" points="547.69,-69.05 537.28,-71.06 546.67,-75.98 547.69,-69.05"/>
</a>
</g>
</g>
<!-- Node5&#45;&gt;Node13 -->
<g id="edge12_Node000005_Node000013" class="edge">
<title>Node5&#45;&gt;Node13</title>
<g id="a_edge12_Node000005_Node000013"><a xlink:title=" ">
<path fill="none" stroke="#63b8ff" d="M911.76,-109.98C936.82,-101.19 976.13,-87.39 1004.33,-77.49"/>
<polygon fill="#63b8ff" stroke="#63b8ff" points="1005.52,-80.78 1013.8,-74.17 1003.2,-74.18 1005.52,-80.78"/>
</a>
</g>
</g>
<!-- Node14 -->
<g id="Node000014" class="node">
<title>Node14</title>
<g id="a_Node000014"><a xlink:title=" ">
<polygon fill="#e0e0e0" stroke="#999999" points="927,-74 876,-74 876,-55 927,-55 927,-74"/>
<text text-anchor="middle" x="901.5" y="-62" font-family="Helvetica,sans-Serif" font-size="10.00">unistd.h</text>
</a>
</g>
</g>
<!-- Node5&#45;&gt;Node14 -->
<g id="edge13_Node000005_Node000014" class="edge">
<title>Node5&#45;&gt;Node14</title>
<g id="a_edge13_Node000005_Node000014"><a xlink:title=" ">
<path fill="none" stroke="#63b8ff" d="M889.81,-109.75C891.67,-102.72 894.34,-92.62 896.65,-83.84"/>
<polygon fill="#63b8ff" stroke="#63b8ff" points="900.06,-84.65 899.23,-74.09 893.29,-82.86 900.06,-84.65"/>
</a>
</g>
</g>
<!-- Node15&#45;&gt;Node3 -->
<g id="edge15_Node000015_Node000003" class="edge">
<title>Node15&#45;&gt;Node3</title>
<g id="a_edge15_Node000015_Node000003"><a xlink:title=" ">
<path fill="none" stroke="#63b8ff" d="M123.48,-109.98C147,-101.27 183.79,-87.63 210.44,-77.75"/>
<polygon fill="#63b8ff" stroke="#63b8ff" points="211.95,-80.93 220.11,-74.17 209.51,-74.36 211.95,-80.93"/>
</a>
</g>
</g>
<!-- Node15&#45;&gt;Node10 -->
<g id="edge17_Node000015_Node000010" class="edge">
<title>Node15&#45;&gt;Node10</title>
<g id="a_edge17_Node000015_Node000010"><a xlink:title=" ">
<path fill="none" stroke="#63b8ff" d="M110.14,-109.98C119.01,-102.15 132.37,-90.34 143.11,-80.86"/>
<polygon fill="#63b8ff" stroke="#63b8ff" points="145.51,-83.41 150.68,-74.17 140.87,-78.17 145.51,-83.41"/>
</a>
</g>
</g>
<!-- Node15&#45;&gt;Node12 -->
<g id="edge19_Node000015_Node000012" class="edge">
<title>Node15&#45;&gt;Node12</title>
<g id="a_edge19_Node000015_Node000012"><a xlink:title=" ">
<path fill="none" stroke="#63b8ff" d="M148.75,-112.11C226.15,-101.85 377.1,-81.85 453.62,-71.71"/>
<polygon fill="#63b8ff" stroke="#63b8ff" points="454.45,-75.13 463.91,-70.35 453.53,-68.19 454.45,-75.13"/>
</a>
</g>
</g>
<!-- Node16 -->
<g id="Node000016" class="node">
<title>Node16</title>
<g id="a_Node000016"><a xlink:title=" ">
<polygon fill="#e0e0e0" stroke="#999999" points="49,-74 0,-74 0,-55 49,-55 49,-74"/>
<text text-anchor="middle" x="24.5" y="-62" font-family="Helvetica,sans-Serif" font-size="10.00">netdb.h</text>
</a>
</g>
</g>
<!-- Node15&#45;&gt;Node16 -->
<g id="edge16_Node000015_Node000016" class="edge">
<title>Node15&#45;&gt;Node16</title>
<g id="a_edge16_Node000015_Node000016"><a xlink:title=" ">
<path fill="none" stroke="#63b8ff" d="M88.29,-109.98C76.72,-101.92 59.12,-89.65 45.34,-80.03"/>
<polygon fill="#63b8ff" stroke="#63b8ff" points="47.14,-77.02 36.93,-74.17 43.13,-82.76 47.14,-77.02"/>
</a>
</g>
</g>
<!-- Node17 -->
<g id="Node000017" class="node">
<title>Node17</title>
<g id="a_Node000017"><a xlink:title=" ">
<polygon fill="#e0e0e0" stroke="#999999" points="116,-74 67,-74 67,-55 116,-55 116,-74"/>
<text text-anchor="middle" x="91.5" y="-62" font-family="Helvetica,sans-Serif" font-size="10.00">stdint.h</text>
</a>
</g>
</g>
<!-- Node15&#45;&gt;Node17 -->
<g id="edge18_Node000015_Node000017" class="edge">
<title>Node15&#45;&gt;Node17</title>
<g id="a_edge18_Node000015_Node000017"><a xlink:title=" ">
<path fill="none" stroke="#63b8ff" d="M99.01,-109.75C97.83,-102.8 96.14,-92.85 94.66,-84.13"/>
<polygon fill="#63b8ff" stroke="#63b8ff" points="98.08,-83.36 92.96,-74.09 91.18,-84.53 98.08,-83.36"/>
</a>
</g>
</g>
<!-- Node18&#45;&gt;Node3 -->
<g id="edge33_Node000018_Node000003" class="edge">
<title>Node18&#45;&gt;Node3</title>
<g id="a_edge33_Node000018_Node000003"><a xlink:title=" ">
<path fill="none" stroke="#63b8ff" d="M511.58,-164.57C498.73,-150.66 471.88,-123.97 443.5,-110 395.15,-86.2 333.98,-74.98 292.09,-69.79"/>
<polygon fill="#63b8ff" stroke="#63b8ff" points="292.49,-66.31 282.15,-68.63 291.67,-73.27 292.49,-66.31"/>
</a>
</g>
</g>
<!-- Node18&#45;&gt;Node5 -->
<g id="edge34_Node000018_Node000005" class="edge">
<title>Node18&#45;&gt;Node5</title>
<g id="a_edge34_Node000018_Node000005"><a xlink:title=" ">
<path fill="none" stroke="#63b8ff" d="M578.63,-164.98C645.88,-155.3 755.27,-139.54 824.21,-129.62"/>
<polygon fill="#63b8ff" stroke="#63b8ff" points="825.09,-133.02 834.49,-128.13 824.1,-126.1 825.09,-133.02"/>
</a>
</g>
</g>
<!-- Node18&#45;&gt;Node7 -->
<g id="edge23_Node000018_Node000007" class="edge">
<title>Node18&#45;&gt;Node7</title>
<g id="a_edge23_Node000018_Node000007"><a xlink:title=" ">
<path fill="none" stroke="#63b8ff" d="M583.65,-172.05C654.47,-168.94 761.88,-159.22 787.5,-129 792.96,-122.56 792.17,-117.03 787.5,-110 778.89,-97.05 741.47,-83.37 713.52,-74.65"/>
<polygon fill="#63b8ff" stroke="#63b8ff" points="714.3,-71.24 703.72,-71.68 712.27,-77.93 714.3,-71.24"/>
</a>
</g>
</g>
<!-- Node18&#45;&gt;Node8 -->
<g id="edge25_Node000018_Node000008" class="edge">
<title>Node18&#45;&gt;Node8</title>
<g id="a_edge25_Node000018_Node000008"><a xlink:title=" ">
<path fill="none" stroke="#63b8ff" d="M524.09,-164.97C530.95,-152.47 544.57,-128.66 558.5,-110 565.87,-100.14 574.98,-89.87 582.65,-81.69"/>
<polygon fill="#63b8ff" stroke="#63b8ff" points="585.34,-83.94 589.72,-74.29 580.28,-79.1 585.34,-83.94"/>
</a>
</g>
</g>
<!-- Node18&#45;&gt;Node12 -->
<g id="edge26_Node000018_Node000012" class="edge">
<title>Node18&#45;&gt;Node12</title>
<g id="a_edge26_Node000018_Node000012"><a xlink:title=" ">
<path fill="none" stroke="#63b8ff" d="M517.95,-164.66C514.87,-147.17 507.94,-107.8 503.8,-84.27"/>
<polygon fill="#63b8ff" stroke="#63b8ff" points="507.2,-83.4 502.02,-74.16 500.31,-84.61 507.2,-83.4"/>
</a>
</g>
</g>
<!-- Node18&#45;&gt;Node16 -->
<g id="edge24_Node000018_Node000016" class="edge">
<title>Node18&#45;&gt;Node16</title>
<g id="a_edge24_Node000018_Node000016"><a xlink:title=" ">
<path fill="none" stroke="#63b8ff" d="M455.22,-171.44C332.6,-166.95 74.67,-154.55 43.5,-129 30.44,-118.29 26.11,-98.99 24.79,-84.47"/>
<polygon fill="#63b8ff" stroke="#63b8ff" points="28.27,-83.92 24.27,-74.1 21.28,-84.27 28.27,-83.92"/>
</a>
</g>
</g>
<!-- Node19 -->
<g id="Node000019" class="node">
<title>Node19</title>
<g id="a_Node000019"><a xlink:title=" ">
<polygon fill="#e0e0e0" stroke="#999999" points="624,-129 567,-129 567,-110 624,-110 624,-129"/>
<text text-anchor="middle" x="595.5" y="-117" font-family="Helvetica,sans-Serif" font-size="10.00">pthread.h</text>
</a>
</g>
</g>
<!-- Node18&#45;&gt;Node19 -->
<g id="edge21_Node000018_Node000019" class="edge">
<title>Node18&#45;&gt;Node19</title>
<g id="a_edge21_Node000018_Node000019"><a xlink:title=" ">
<path fill="none" stroke="#63b8ff" d="M531.71,-164.98C543.28,-156.92 560.88,-144.65 574.66,-135.03"/>
<polygon fill="#63b8ff" stroke="#63b8ff" points="576.87,-137.76 583.07,-129.17 572.86,-132.02 576.87,-137.76"/>
</a>
</g>
</g>
<!-- Node20 -->
<g id="Node000020" class="node">
<title>Node20</title>
<g id="a_Node000020"><a xlink:title=" ">
<polygon fill="#e0e0e0" stroke="#999999" points="698.5,-129 642.5,-129 642.5,-110 698.5,-110 698.5,-129"/>
<text text-anchor="middle" x="670.5" y="-117" font-family="Helvetica,sans-Serif" font-size="10.00">stdbool.h</text>
</a>
</g>
</g>
<!-- Node18&#45;&gt;Node20 -->
<g id="edge22_Node000018_Node000020" class="edge">
<title>Node18&#45;&gt;Node20</title>
<g id="a_edge22_Node000018_Node000020"><a xlink:title=" ">
<path fill="none" stroke="#63b8ff" d="M543.76,-164.98C568.82,-156.19 608.13,-142.39 636.33,-132.49"/>
<polygon fill="#63b8ff" stroke="#63b8ff" points="637.52,-135.78 645.8,-129.17 635.2,-129.18 637.52,-135.78"/>
</a>
</g>
</g>
<!-- Node21 -->
<g id="Node000021" class="node">
<title>Node21</title>
<g id="a_Node000021"><a xlink:title=" ">
<polygon fill="#e0e0e0" stroke="#999999" points="778.5,-129 716.5,-129 716.5,-110 778.5,-110 778.5,-129"/>
<text text-anchor="middle" x="747.5" y="-117" font-family="Helvetica,sans-Serif" font-size="10.00">sys/time.h</text>
</a>
</g>
</g>
<!-- Node18&#45;&gt;Node21 -->
<g id="edge27_Node000018_Node000021" class="edge">
<title>Node18&#45;&gt;Node21</title>
<g id="a_edge27_Node000018_Node000021"><a xlink:title=" ">
<path fill="none" stroke="#63b8ff" d="M556.13,-164.98C597.27,-155.42 663.86,-139.94 706.65,-130"/>
<polygon fill="#63b8ff" stroke="#63b8ff" points="707.5,-133.39 716.45,-127.72 705.92,-126.57 707.5,-133.39"/>
</a>
</g>
</g>
<!-- Node22 -->
<g id="Node000022" class="node">
<title>Node22</title>
<g id="a_Node000022"><a xlink:title=" ">
<polygon fill="#e0e0e0" stroke="#999999" points="362.5,-129 294.5,-129 294.5,-110 362.5,-110 362.5,-129"/>
<text text-anchor="middle" x="328.5" y="-117" font-family="Helvetica,sans-Serif" font-size="10.00">sys/types.h</text>
</a>
</g>
</g>
<!-- Node18&#45;&gt;Node22 -->
<g id="edge28_Node000018_Node000022" class="edge">
<title>Node18&#45;&gt;Node22</title>
<g id="a_edge28_Node000018_Node000022"><a xlink:title=" ">
<path fill="none" stroke="#63b8ff" d="M488.81,-164.98C456.33,-155.97 404.9,-141.7 369.09,-131.76"/>
<polygon fill="#63b8ff" stroke="#63b8ff" points="370,-128.38 359.43,-129.08 368.13,-135.13 370,-128.38"/>
</a>
</g>
</g>
<!-- Node23 -->
<g id="Node000023" class="node">
<title>Node23</title>
<g id="a_Node000023"><a xlink:title=" ">
<polygon fill="#e0e0e0" stroke="#999999" points="434.5,-129 380.5,-129 380.5,-110 434.5,-110 434.5,-129"/>
<text text-anchor="middle" x="407.5" y="-117" font-family="Helvetica,sans-Serif" font-size="10.00">sys/un.h</text>
</a>
</g>
</g>
<!-- Node18&#45;&gt;Node23 -->
<g id="edge29_Node000018_Node000023" class="edge">
<title>Node18&#45;&gt;Node23</title>
<g id="a_edge29_Node000018_Node000023"><a xlink:title=" ">
<path fill="none" stroke="#63b8ff" d="M501.51,-164.98C483.57,-156.5 455.78,-143.35 435.07,-133.54"/>
<polygon fill="#63b8ff" stroke="#63b8ff" points="436.36,-130.28 425.82,-129.17 433.36,-136.61 436.36,-130.28"/>
</a>
</g>
</g>
<!-- Node24 -->
<g id="Node000024" class="node">
<title>Node24</title>
<g id="a_Node000024"><a xlink:href="Arena_8h.html" target="_top" xlink:title="Arena&#45;based memory allocator for efficient bulk memory management.">
<polygon fill="white" stroke="#666666" points="276.5,-129 204.5,-129 204.5,-110 276.5,-110 276.5,-129"/>
<text text-anchor="middle" x="240.5" y="-117" font-family="Helvetica,sans-Serif" font-size="10.00">core/Arena.h</text>
</a>
</g>
</g>
<!-- Node18&#45;&gt;Node24 -->
<g id="edge30_Node000018_Node000024" class="edge">
<title>Node18&#45;&gt;Node24</title>
<g id="a_edge30_Node000018_Node000024"><a xlink:title=" ">
<path fill="none" stroke="#63b8ff" d="M474.67,-164.98C423.12,-155.19 338.9,-139.19 286.75,-129.29"/>
<polygon fill="#63b8ff" stroke="#63b8ff" points="287.25,-125.82 276.77,-127.39 285.94,-132.7 287.25,-125.82"/>
</a>
</g>
</g>
<!-- Node24&#45;&gt;Node3 -->
<g id="edge32_Node000024_Node000003" class="edge">
<title>Node24&#45;&gt;Node3</title>
<g id="a_edge32_Node000024_Node000003"><a xlink:title=" ">
<path fill="none" stroke="#63b8ff" d="M241,-109.75C241.39,-102.8 241.95,-92.85 242.45,-84.13"/>
<polygon fill="#63b8ff" stroke="#63b8ff" points="245.94,-84.27 243.01,-74.09 238.95,-83.88 245.94,-84.27"/>
</a>
</g>
</g>
<!-- Node24&#45;&gt;Node10 -->
<g id="edge31_Node000024_Node000010" class="edge">
<title>Node24&#45;&gt;Node10</title>
<g id="a_edge31_Node000024_Node000010"><a xlink:title=" ">
<path fill="none" stroke="#63b8ff" d="M227.65,-109.98C215.36,-101.84 196.59,-89.41 182.02,-79.76"/>
<polygon fill="#63b8ff" stroke="#63b8ff" points="183.86,-76.78 173.59,-74.17 179.99,-82.61 183.86,-76.78"/>
</a>
</g>
</g>
</g>
</svg>

<g id="navigator" transform="translate(0 0)" fill="#404254">
  <rect fill="#f2f5e9" fill-opacity="0.5" stroke="#606060" stroke-width=".5" x="0" y="0" width="60" height="60"/>
  <use id="zoomplus" xlink:href="#zoomPlus" x="17" y="9" onmousedown="handleZoom(evt,'in')"/>
  <use id="zoomminus" xlink:href="#zoomMin" x="42" y="9" onmousedown="handleZoom(evt,'out')"/>
  <use id="reset" xlink:href="#resetDef" x="30" y="36" onmousedown="handleReset()"/>
   <use id="arrowup" xlink:href="#arrowUp" x="0" y="0" onmousedown="handlePan(0,-1)"/>
  <use id="arrowright" xlink:href="#arrowRight" x="0" y="0" onmousedown="handlePan(1,0)"/>
  <use id="arrowdown" xlink:href="#arrowDown" x="0" y="0" onmousedown="handlePan(0,1)"/>
  <use id="arrowleft" xlink:href="#arrowLeft" x="0" y="0" onmousedown="handlePan(-1,0)"/>
</g>
<svg viewBox="0 0 15 15" width="100%" height="30px" preserveAspectRatio="xMaxYMin meet">
 <g id="arrow_out" transform="scale(0.3 0.3)">
  <a xlink:href="SocketIO_8h__incl_org.svg" target="_base">
   <rect id="button" ry="5" rx="5" y="6" x="6" height="38" width="38"
        fill="#f2f5e9" fill-opacity="0.5" stroke="#606060" stroke-width="1.0"/>
   <path id="arrow"
     d="M 11.500037,31.436501 C 11.940474,20.09759 22.043105,11.32322 32.158766,21.979434 L 37.068811,17.246167 C 37.068811,17.246167 37.088388,32 37.088388,32 L 22.160133,31.978069 C 22.160133,31.978069 26.997745,27.140456 26.997745,27.140456 C 18.528582,18.264221 13.291696,25.230495 11.500037,31.436501 z"
     style="fill:#404040;"/>
  </a>
 </g>
</svg>

<style type='text/css'>
<![CDATA[
[data-mouse-over-selected='false'] { opacity: 0.7; }
[data-mouse-over-selected='true']  { opacity: 1.0; }
]]>
</style>
<script type="application/ecmascript"><![CDATA[
document.addEventListener('DOMContentLoaded', (event) => {
  highlightEdges();
  highlightAdjacentNodes();
});
]]></script>
</svg>
