<?xml version="1.0" encoding="UTF-8" standalone="no"?>
<!DOCTYPE svg PUBLIC "-//W3C//DTD SVG 1.1//EN"
 "http://www.w3.org/Graphics/SVG/1.1/DTD/svg11.dtd">
<!-- Generated by graphviz version 2.43.0 (0)
 -->
<!-- Title: SocketDNS&#45;private.h Pages: 1 -->
<svg width="1336pt" height="247pt"
 viewBox="0.00 0.00 1335.65 247.00" xmlns="http://www.w3.org/2000/svg" xmlns:xlink="http://www.w3.org/1999/xlink">
<g id="graph0" class="graph" transform="scale(1 1) rotate(0) translate(4 243)">
<title>SocketDNS&#45;private.h</title>
<!-- Node1 -->
<g id="Node000001" class="node">
<title>Node1</title>
<g id="a_Node000001"><a xlink:title="Internal structures, enums, and prototypes for asynchronous DNS resolver implementation.">
<polygon fill="#999999" stroke="#666666" points="723.11,-239 613.11,-239 613.11,-220 723.11,-220 723.11,-239"/>
<text text-anchor="middle" x="668.11" y="-227" font-family="Helvetica,sans-Serif" font-size="10.00">SocketDNS&#45;private.h</text>
</a>
</g>
</g>
<!-- Node2 -->
<g id="Node000002" class="node">
<title>Node2</title>
<g id="a_Node000002"><a xlink:title=" ">
<polygon fill="#e0e0e0" stroke="#999999" points="649.61,-129 600.61,-129 600.61,-110 649.61,-110 649.61,-129"/>
<text text-anchor="middle" x="625.11" y="-117" font-family="Helvetica,sans-Serif" font-size="10.00">netdb.h</text>
</a>
</g>
</g>
<!-- Node1&#45;&gt;Node2 -->
<g id="edge1_Node000001_Node000002" class="edge">
<title>Node1&#45;&gt;Node2</title>
<g id="a_edge1_Node000001_Node000002"><a xlink:title=" ">
<path fill="none" stroke="#63b8ff" d="M664.59,-219.66C657.56,-202.01 641.67,-162.09 632.33,-138.64"/>
<polygon fill="#63b8ff" stroke="#63b8ff" points="635.51,-137.15 628.56,-129.16 629.01,-139.74 635.51,-137.15"/>
</a>
</g>
</g>
<!-- Node3 -->
<g id="Node000003" class="node">
<title>Node3</title>
<g id="a_Node000003"><a xlink:title=" ">
<polygon fill="#e0e0e0" stroke="#999999" points="724.61,-129 667.61,-129 667.61,-110 724.61,-110 724.61,-129"/>
<text text-anchor="middle" x="696.11" y="-117" font-family="Helvetica,sans-Serif" font-size="10.00">pthread.h</text>
</a>
</g>
</g>
<!-- Node1&#45;&gt;Node3 -->
<g id="edge2_Node000001_Node000003" class="edge">
<title>Node1&#45;&gt;Node3</title>
<g id="a_edge2_Node000001_Node000003"><a xlink:title=" ">
<path fill="none" stroke="#63b8ff" d="M670.4,-219.66C674.96,-202.09 685.24,-162.45 691.33,-138.95"/>
<polygon fill="#63b8ff" stroke="#63b8ff" points="694.74,-139.72 693.87,-129.16 687.97,-137.96 694.74,-139.72"/>
</a>
</g>
</g>
<!-- Node4 -->
<g id="Node000004" class="node">
<title>Node4</title>
<g id="a_Node000004"><a xlink:title=" ">
<polygon fill="#e0e0e0" stroke="#999999" points="799.11,-129 743.11,-129 743.11,-110 799.11,-110 799.11,-129"/>
<text text-anchor="middle" x="771.11" y="-117" font-family="Helvetica,sans-Serif" font-size="10.00">stdbool.h</text>
</a>
</g>
</g>
<!-- Node1&#45;&gt;Node4 -->
<g id="edge3_Node000001_Node000004" class="edge">
<title>Node1&#45;&gt;Node4</title>
<g id="a_edge3_Node000001_Node000004"><a xlink:title=" ">
<path fill="none" stroke="#63b8ff" d="M676.54,-219.66C693.9,-201.46 733.87,-159.55 755.88,-136.47"/>
<polygon fill="#63b8ff" stroke="#63b8ff" points="758.48,-138.81 762.85,-129.16 753.42,-133.98 758.48,-138.81"/>
</a>
</g>
</g>
<!-- Node5 -->
<g id="Node000005" class="node">
<title>Node5</title>
<g id="a_Node000005"><a xlink:title=" ">
<polygon fill="#e0e0e0" stroke="#999999" points="73.61,-129 24.61,-129 24.61,-110 73.61,-110 73.61,-129"/>
<text text-anchor="middle" x="49.11" y="-117" font-family="Helvetica,sans-Serif" font-size="10.00">stdint.h</text>
</a>
</g>
</g>
<!-- Node1&#45;&gt;Node5 -->
<g id="edge4_Node000001_Node000005" class="edge">
<title>Node1&#45;&gt;Node5</title>
<g id="a_edge4_Node000001_Node000005"><a xlink:title=" ">
<path fill="none" stroke="#63b8ff" d="M612.79,-226.13C532.25,-221.89 378.34,-210.8 250.11,-184 188.82,-171.19 119.67,-147.14 80.54,-132.59"/>
<polygon fill="#63b8ff" stroke="#63b8ff" points="81.62,-129.26 71.03,-129.02 79.17,-135.81 81.62,-129.26"/>
</a>
</g>
</g>
<!-- Node6 -->
<g id="Node000006" class="node">
<title>Node6</title>
<g id="a_Node000006"><a xlink:title=" ">
<polygon fill="#e0e0e0" stroke="#999999" points="1259.61,-74 1186.61,-74 1186.61,-55 1259.61,-55 1259.61,-74"/>
<text text-anchor="middle" x="1223.11" y="-62" font-family="Helvetica,sans-Serif" font-size="10.00">sys/socket.h</text>
</a>
</g>
</g>
<!-- Node1&#45;&gt;Node6 -->
<g id="edge5_Node000001_Node000006" class="edge">
<title>Node1&#45;&gt;Node6</title>
<g id="a_edge5_Node000001_Node000006"><a xlink:title=" ">
<path fill="none" stroke="#63b8ff" d="M723.29,-229.04C866.96,-229.15 1246.67,-220.58 1322.11,-129 1341.61,-105.33 1304.16,-87.58 1269.87,-76.95"/>
<polygon fill="#63b8ff" stroke="#63b8ff" points="1270.45,-73.47 1259.87,-74.01 1268.47,-80.19 1270.45,-73.47"/>
</a>
</g>
</g>
<!-- Node7 -->
<g id="Node000007" class="node">
<title>Node7</title>
<g id="a_Node000007"><a xlink:title=" ">
<polygon fill="#e0e0e0" stroke="#999999" points="1313.11,-129 1251.11,-129 1251.11,-110 1313.11,-110 1313.11,-129"/>
<text text-anchor="middle" x="1282.11" y="-117" font-family="Helvetica,sans-Serif" font-size="10.00">sys/time.h</text>
</a>
</g>
</g>
<!-- Node1&#45;&gt;Node7 -->
<g id="edge6_Node000001_Node000007" class="edge">
<title>Node1&#45;&gt;Node7</title>
<g id="a_edge6_Node000001_Node000007"><a xlink:title=" ">
<path fill="none" stroke="#63b8ff" d="M723.13,-221.81C785.78,-213.92 891.11,-199.87 981.11,-184 1074.64,-167.51 1183.47,-143.29 1241.21,-130.03"/>
<polygon fill="#63b8ff" stroke="#63b8ff" points="1242.09,-133.42 1251.05,-127.77 1240.51,-126.6 1242.09,-133.42"/>
</a>
</g>
</g>
<!-- Node8 -->
<g id="Node000008" class="node">
<title>Node8</title>
<g id="a_Node000008"><a xlink:title=" ">
<polygon fill="#e0e0e0" stroke="#999999" points="136.11,-129 92.11,-129 92.11,-110 136.11,-110 136.11,-129"/>
<text text-anchor="middle" x="114.11" y="-117" font-family="Helvetica,sans-Serif" font-size="10.00">time.h</text>
</a>
</g>
</g>
<!-- Node1&#45;&gt;Node8 -->
<g id="edge7_Node000001_Node000008" class="edge">
<title>Node1&#45;&gt;Node8</title>
<g id="a_edge7_Node000001_Node000008"><a xlink:title=" ">
<path fill="none" stroke="#63b8ff" d="M612.82,-224.18C544.46,-218.19 424.8,-205.58 324.11,-184 259.74,-170.2 186.55,-146.09 145.81,-131.88"/>
<polygon fill="#63b8ff" stroke="#63b8ff" points="146.77,-128.51 136.17,-128.49 144.45,-135.11 146.77,-128.51"/>
</a>
</g>
</g>
<!-- Node9 -->
<g id="Node000009" class="node">
<title>Node9</title>
<g id="a_Node000009"><a xlink:title=" ">
<polygon fill="#e0e0e0" stroke="#999999" points="387.61,-74 336.61,-74 336.61,-55 387.61,-55 387.61,-74"/>
<text text-anchor="middle" x="362.11" y="-62" font-family="Helvetica,sans-Serif" font-size="10.00">unistd.h</text>
</a>
</g>
</g>
<!-- Node1&#45;&gt;Node9 -->
<g id="edge8_Node000001_Node000009" class="edge">
<title>Node1&#45;&gt;Node9</title>
<g id="a_edge8_Node000001_Node000009"><a xlink:title=" ">
<path fill="none" stroke="#63b8ff" d="M613,-227.89C521.04,-225.9 330.92,-217.66 174.11,-184 101,-168.31 58.49,-189.91 15.11,-129 10.21,-122.12 9.53,-116.34 15.11,-110 25.34,-98.37 239.6,-77.02 326.23,-68.82"/>
<polygon fill="#63b8ff" stroke="#63b8ff" points="326.75,-72.29 336.38,-67.87 326.1,-65.32 326.75,-72.29"/>
</a>
</g>
</g>
<!-- Node10 -->
<g id="Node000010" class="node">
<title>Node10</title>
<g id="a_Node000010"><a xlink:href="Except_8h.html" target="_top" xlink:title="Structured exception handling for C with TRY/EXCEPT/FINALLY blocks.">
<polygon fill="white" stroke="#666666" points="241.61,-74 164.61,-74 164.61,-55 241.61,-55 241.61,-74"/>
<text text-anchor="middle" x="203.11" y="-62" font-family="Helvetica,sans-Serif" font-size="10.00">core/Except.h</text>
</a>
</g>
</g>
<!-- Node1&#45;&gt;Node10 -->
<g id="edge9_Node000001_Node000010" class="edge">
<title>Node1&#45;&gt;Node10</title>
<g id="a_edge9_Node000001_Node000010"><a xlink:title=" ">
<path fill="none" stroke="#63b8ff" d="M613.01,-226.99C471.35,-222.77 102.11,-209.42 53.11,-184 18.94,-166.27 -15.89,-140.09 8.11,-110 26.07,-87.48 102.68,-75.45 154.36,-69.78"/>
<polygon fill="#63b8ff" stroke="#63b8ff" points="154.76,-73.26 164.34,-68.73 154.02,-66.3 154.76,-73.26"/>
</a>
</g>
</g>
<!-- Node12 -->
<g id="Node000012" class="node">
<title>Node12</title>
<g id="a_Node000012"><a xlink:href="SocketConfig_8h.html" target="_top" xlink:title="Compile&#45;time and runtime configuration constants, limits, and platform adaptations.">
<polygon fill="white" stroke="#666666" points="961.11,-129 855.11,-129 855.11,-110 961.11,-110 961.11,-129"/>
<text text-anchor="middle" x="908.11" y="-117" font-family="Helvetica,sans-Serif" font-size="10.00">core/SocketConfig.h</text>
</a>
</g>
</g>
<!-- Node1&#45;&gt;Node12 -->
<g id="edge11_Node000001_Node000012" class="edge">
<title>Node1&#45;&gt;Node12</title>
<g id="a_edge11_Node000001_Node000012"><a xlink:title=" ">
<path fill="none" stroke="#63b8ff" d="M687.35,-219.84C729.58,-200.84 830.58,-155.39 879.96,-133.17"/>
<polygon fill="#63b8ff" stroke="#63b8ff" points="881.43,-136.34 889.12,-129.05 878.56,-129.96 881.43,-136.34"/>
</a>
</g>
</g>
<!-- Node20 -->
<g id="Node000020" class="node">
<title>Node20</title>
<g id="a_Node000020"><a xlink:href="SocketUtil_8h.html" target="_top" xlink:title="Consolidated utility header for logging, metrics, events, and error handling.">
<polygon fill="white" stroke="#666666" points="425.11,-184 333.11,-184 333.11,-165 425.11,-165 425.11,-184"/>
<text text-anchor="middle" x="379.11" y="-172" font-family="Helvetica,sans-Serif" font-size="10.00">core/SocketUtil.h</text>
</a>
</g>
</g>
<!-- Node1&#45;&gt;Node20 -->
<g id="edge21_Node000001_Node000020" class="edge">
<title>Node1&#45;&gt;Node20</title>
<g id="a_edge21_Node000001_Node000020"><a xlink:title=" ">
<path fill="none" stroke="#63b8ff" d="M621.68,-219.98C571.01,-210.69 489.89,-195.82 435.58,-185.86"/>
<polygon fill="#63b8ff" stroke="#63b8ff" points="435.9,-182.36 425.43,-183.99 434.63,-189.24 435.9,-182.36"/>
</a>
</g>
</g>
<!-- Node25 -->
<g id="Node000025" class="node">
<title>Node25</title>
<g id="a_Node000025"><a xlink:href="SocketCommon_8h.html" target="_top" xlink:title="Common utilities shared between Socket and SocketDgram modules.">
<polygon fill="white" stroke="#666666" points="972.11,-184 844.11,-184 844.11,-165 972.11,-165 972.11,-184"/>
<text text-anchor="middle" x="908.11" y="-172" font-family="Helvetica,sans-Serif" font-size="10.00">socket/SocketCommon.h</text>
</a>
</g>
</g>
<!-- Node1&#45;&gt;Node25 -->
<g id="edge35_Node000001_Node000025" class="edge">
<title>Node1&#45;&gt;Node25</title>
<g id="a_edge35_Node000001_Node000025"><a xlink:title=" ">
<path fill="none" stroke="#63b8ff" d="M706.67,-219.98C748.19,-210.82 814.32,-196.21 859.4,-186.26"/>
<polygon fill="#63b8ff" stroke="#63b8ff" points="860.24,-189.66 869.25,-184.08 858.73,-182.82 860.24,-189.66"/>
</a>
</g>
</g>
<!-- Node11 -->
<g id="Node000011" class="node">
<title>Node11</title>
<g id="a_Node000011"><a xlink:title=" ">
<polygon fill="#e0e0e0" stroke="#999999" points="230.11,-19 176.11,-19 176.11,0 230.11,0 230.11,-19"/>
<text text-anchor="middle" x="203.11" y="-7" font-family="Helvetica,sans-Serif" font-size="10.00">setjmp.h</text>
</a>
</g>
</g>
<!-- Node10&#45;&gt;Node11 -->
<g id="edge10_Node000010_Node000011" class="edge">
<title>Node10&#45;&gt;Node11</title>
<g id="a_edge10_Node000010_Node000011"><a xlink:title=" ">
<path fill="none" stroke="#63b8ff" d="M203.11,-54.75C203.11,-47.8 203.11,-37.85 203.11,-29.13"/>
<polygon fill="#63b8ff" stroke="#63b8ff" points="206.61,-29.09 203.11,-19.09 199.61,-29.09 206.61,-29.09"/>
</a>
</g>
</g>
<!-- Node12&#45;&gt;Node6 -->
<g id="edge18_Node000012_Node000006" class="edge">
<title>Node12&#45;&gt;Node6</title>
<g id="a_edge18_Node000012_Node000006"><a xlink:title=" ">
<path fill="none" stroke="#63b8ff" d="M958.72,-109.98C1018.77,-99.88 1118.06,-83.18 1176.36,-73.37"/>
<polygon fill="#63b8ff" stroke="#63b8ff" points="1177.12,-76.79 1186.4,-71.68 1175.96,-69.88 1177.12,-76.79"/>
</a>
</g>
</g>
<!-- Node12&#45;&gt;Node9 -->
<g id="edge20_Node000012_Node000009" class="edge">
<title>Node12&#45;&gt;Node9</title>
<g id="a_edge20_Node000012_Node000009"><a xlink:title=" ">
<path fill="none" stroke="#63b8ff" d="M855.1,-111.59C850.37,-111.03 845.66,-110.49 841.11,-110 661,-90.6 615.32,-92.48 435.11,-74 422.94,-72.75 409.64,-71.25 397.77,-69.85"/>
<polygon fill="#63b8ff" stroke="#63b8ff" points="398.11,-66.37 387.77,-68.66 397.28,-73.32 398.11,-66.37"/>
</a>
</g>
</g>
<!-- Node13 -->
<g id="Node000013" class="node">
<title>Node13</title>
<g id="a_Node000013"><a xlink:title=" ">
<polygon fill="#e0e0e0" stroke="#999999" points="601.61,-74 554.61,-74 554.61,-55 601.61,-55 601.61,-74"/>
<text text-anchor="middle" x="578.11" y="-62" font-family="Helvetica,sans-Serif" font-size="10.00">errno.h</text>
</a>
</g>
</g>
<!-- Node12&#45;&gt;Node13 -->
<g id="edge12_Node000012_Node000013" class="edge">
<title>Node12&#45;&gt;Node13</title>
<g id="a_edge12_Node000012_Node000013"><a xlink:title=" ">
<path fill="none" stroke="#63b8ff" d="M855.09,-109.98C786.48,-98.97 668.97,-80.09 611.6,-70.88"/>
<polygon fill="#63b8ff" stroke="#63b8ff" points="612.04,-67.4 601.61,-69.27 610.93,-74.32 612.04,-67.4"/>
</a>
</g>
</g>
<!-- Node14 -->
<g id="Node000014" class="node">
<title>Node14</title>
<g id="a_Node000014"><a xlink:title=" ">
<polygon fill="#e0e0e0" stroke="#999999" points="1005.11,-74 961.11,-74 961.11,-55 1005.11,-55 1005.11,-74"/>
<text text-anchor="middle" x="983.11" y="-62" font-family="Helvetica,sans-Serif" font-size="10.00">fcntl.h</text>
</a>
</g>
</g>
<!-- Node12&#45;&gt;Node14 -->
<g id="edge13_Node000012_Node000014" class="edge">
<title>Node12&#45;&gt;Node14</title>
<g id="a_edge13_Node000012_Node000014"><a xlink:title=" ">
<path fill="none" stroke="#63b8ff" d="M920.16,-109.98C931.57,-101.92 948.94,-89.65 962.55,-80.03"/>
<polygon fill="#63b8ff" stroke="#63b8ff" points="964.69,-82.8 970.84,-74.17 960.65,-77.08 964.69,-82.8"/>
</a>
</g>
</g>
<!-- Node15 -->
<g id="Node000015" class="node">
<title>Node15</title>
<g id="a_Node000015"><a xlink:title=" ">
<polygon fill="#e0e0e0" stroke="#999999" points="1128.61,-74 1063.61,-74 1063.61,-55 1128.61,-55 1128.61,-74"/>
<text text-anchor="middle" x="1096.11" y="-62" font-family="Helvetica,sans-Serif" font-size="10.00">netinet/in.h</text>
</a>
</g>
</g>
<!-- Node12&#45;&gt;Node15 -->
<g id="edge14_Node000012_Node000015" class="edge">
<title>Node12&#45;&gt;Node15</title>
<g id="a_edge14_Node000012_Node000015"><a xlink:title=" ">
<path fill="none" stroke="#63b8ff" d="M938.32,-109.98C970.15,-101.01 1020.47,-86.82 1055.71,-76.89"/>
<polygon fill="#63b8ff" stroke="#63b8ff" points="1056.99,-80.16 1065.67,-74.08 1055.09,-73.43 1056.99,-80.16"/>
</a>
</g>
</g>
<!-- Node16 -->
<g id="Node000016" class="node">
<title>Node16</title>
<g id="a_Node000016"><a xlink:title=" ">
<polygon fill="#e0e0e0" stroke="#999999" points="864.61,-74 793.61,-74 793.61,-55 864.61,-55 864.61,-74"/>
<text text-anchor="middle" x="829.11" y="-62" font-family="Helvetica,sans-Serif" font-size="10.00">netinet/tcp.h</text>
</a>
</g>
</g>
<!-- Node12&#45;&gt;Node16 -->
<g id="edge15_Node000012_Node000016" class="edge">
<title>Node12&#45;&gt;Node16</title>
<g id="a_edge15_Node000012_Node000016"><a xlink:title=" ">
<path fill="none" stroke="#63b8ff" d="M895.42,-109.98C883.28,-101.84 864.75,-89.41 850.36,-79.76"/>
<polygon fill="#63b8ff" stroke="#63b8ff" points="852.29,-76.84 842.03,-74.17 848.39,-82.65 852.29,-76.84"/>
</a>
</g>
</g>
<!-- Node17 -->
<g id="Node000017" class="node">
<title>Node17</title>
<g id="a_Node000017"><a xlink:title=" ">
<polygon fill="#e0e0e0" stroke="#999999" points="496.11,-74 444.11,-74 444.11,-55 496.11,-55 496.11,-74"/>
<text text-anchor="middle" x="470.11" y="-62" font-family="Helvetica,sans-Serif" font-size="10.00">stddef.h</text>
</a>
</g>
</g>
<!-- Node12&#45;&gt;Node17 -->
<g id="edge16_Node000012_Node000017" class="edge">
<title>Node12&#45;&gt;Node17</title>
<g id="a_edge16_Node000012_Node000017"><a xlink:title=" ">
<path fill="none" stroke="#63b8ff" d="M855.08,-111.74C850.36,-111.15 845.65,-110.56 841.11,-110 718.27,-94.84 572.46,-77.56 506.15,-69.74"/>
<polygon fill="#63b8ff" stroke="#63b8ff" points="506.55,-66.26 496.21,-68.57 505.73,-73.21 506.55,-66.26"/>
</a>
</g>
</g>
<!-- Node18 -->
<g id="Node000018" class="node">
<title>Node18</title>
<g id="a_Node000018"><a xlink:title=" ">
<polygon fill="#e0e0e0" stroke="#999999" points="739.11,-74 693.11,-74 693.11,-55 739.11,-55 739.11,-74"/>
<text text-anchor="middle" x="716.11" y="-62" font-family="Helvetica,sans-Serif" font-size="10.00">stdio.h</text>
</a>
</g>
</g>
<!-- Node12&#45;&gt;Node18 -->
<g id="edge17_Node000012_Node000018" class="edge">
<title>Node12&#45;&gt;Node18</title>
<g id="a_edge17_Node000012_Node000018"><a xlink:title=" ">
<path fill="none" stroke="#63b8ff" d="M877.26,-109.98C842.24,-100.32 785.31,-84.6 749.34,-74.67"/>
<polygon fill="#63b8ff" stroke="#63b8ff" points="749.91,-71.2 739.33,-71.91 748.04,-77.95 749.91,-71.2"/>
</a>
</g>
</g>
<!-- Node19 -->
<g id="Node000019" class="node">
<title>Node19</title>
<g id="a_Node000019"><a xlink:title=" ">
<polygon fill="#e0e0e0" stroke="#999999" points="939.11,-74 883.11,-74 883.11,-55 939.11,-55 939.11,-74"/>
<text text-anchor="middle" x="911.11" y="-62" font-family="Helvetica,sans-Serif" font-size="10.00">sys/uio.h</text>
</a>
</g>
</g>
<!-- Node12&#45;&gt;Node19 -->
<g id="edge19_Node000012_Node000019" class="edge">
<title>Node12&#45;&gt;Node19</title>
<g id="a_edge19_Node000012_Node000019"><a xlink:title=" ">
<path fill="none" stroke="#63b8ff" d="M908.61,-109.75C909,-102.8 909.56,-92.85 910.06,-84.13"/>
<polygon fill="#63b8ff" stroke="#63b8ff" points="913.55,-84.27 910.62,-74.09 906.56,-83.88 913.55,-84.27"/>
</a>
</g>
</g>
<!-- Node20&#45;&gt;Node5 -->
<g id="edge26_Node000020_Node000005" class="edge">
<title>Node20&#45;&gt;Node5</title>
<g id="a_edge26_Node000020_Node000005"><a xlink:title=" ">
<path fill="none" stroke="#63b8ff" d="M332.98,-167.96C276.55,-160.87 177.92,-147.48 83.89,-128.98"/>
<polygon fill="#63b8ff" stroke="#63b8ff" points="84.42,-125.52 73.93,-127 83.06,-132.38 84.42,-125.52"/>
</a>
</g>
</g>
<!-- Node20&#45;&gt;Node8 -->
<g id="edge29_Node000020_Node000008" class="edge">
<title>Node20&#45;&gt;Node8</title>
<g id="a_edge29_Node000020_Node000008"><a xlink:title=" ">
<path fill="none" stroke="#63b8ff" d="M332.95,-165.09C286.62,-156.52 213.26,-142.59 150.11,-129 148.84,-128.73 147.54,-128.44 146.24,-128.15"/>
<polygon fill="#63b8ff" stroke="#63b8ff" points="146.69,-124.67 136.16,-125.85 145.13,-131.49 146.69,-124.67"/>
</a>
</g>
</g>
<!-- Node20&#45;&gt;Node10 -->
<g id="edge33_Node000020_Node000010" class="edge">
<title>Node20&#45;&gt;Node10</title>
<g id="a_edge33_Node000020_Node000010"><a xlink:title=" ">
<path fill="none" stroke="#63b8ff" d="M332.96,-169.56C281.03,-164.05 201.51,-152.04 183.11,-129 172.45,-115.64 180.78,-96.53 189.71,-82.77"/>
<polygon fill="#63b8ff" stroke="#63b8ff" points="192.84,-84.41 195.77,-74.23 187.13,-80.36 192.84,-84.41"/>
</a>
</g>
</g>
<!-- Node20&#45;&gt;Node12 -->
<g id="edge34_Node000020_Node000012" class="edge">
<title>Node20&#45;&gt;Node12</title>
<g id="a_edge34_Node000020_Node000012"><a xlink:title=" ">
<path fill="none" stroke="#63b8ff" d="M425.13,-168.89C519.86,-159.4 736.79,-137.66 844.71,-126.85"/>
<polygon fill="#63b8ff" stroke="#63b8ff" points="845.21,-130.32 854.81,-125.84 844.51,-123.35 845.21,-130.32"/>
</a>
</g>
</g>
<!-- Node20&#45;&gt;Node13 -->
<g id="edge22_Node000020_Node000013" class="edge">
<title>Node20&#45;&gt;Node13</title>
<g id="a_edge22_Node000020_Node000013"><a xlink:title=" ">
<path fill="none" stroke="#63b8ff" d="M422.1,-164.95C450.04,-158.11 486.46,-146.67 515.11,-129 535.25,-116.58 553.73,-96.44 565.4,-82.18"/>
<polygon fill="#63b8ff" stroke="#63b8ff" points="568.27,-84.2 571.73,-74.18 562.78,-79.85 568.27,-84.2"/>
</a>
</g>
</g>
<!-- Node20&#45;&gt;Node17 -->
<g id="edge25_Node000020_Node000017" class="edge">
<title>Node20&#45;&gt;Node17</title>
<g id="a_edge25_Node000020_Node000017"><a xlink:title=" ">
<path fill="none" stroke="#63b8ff" d="M384.65,-164.95C392.9,-152.44 409.16,-128.6 425.11,-110 433.76,-99.91 444.29,-89.42 452.98,-81.16"/>
<polygon fill="#63b8ff" stroke="#63b8ff" points="455.43,-83.66 460.34,-74.28 450.65,-78.55 455.43,-83.66"/>
</a>
</g>
</g>
<!-- Node20&#45;&gt;Node18 -->
<g id="edge27_Node000020_Node000018" class="edge">
<title>Node20&#45;&gt;Node18</title>
<g id="a_edge27_Node000020_Node000018"><a xlink:title=" ">
<path fill="none" stroke="#63b8ff" d="M413.84,-164.98C446.84,-156.64 497.72,-143.17 541.11,-129 563.71,-121.62 568.8,-118.21 591.11,-110 622.41,-98.48 658.29,-85.76 683.55,-76.88"/>
<polygon fill="#63b8ff" stroke="#63b8ff" points="684.74,-80.17 693.02,-73.56 682.42,-73.57 684.74,-80.17"/>
</a>
</g>
</g>
<!-- Node21 -->
<g id="Node000021" class="node">
<title>Node21</title>
<g id="a_Node000021"><a xlink:title=" ">
<polygon fill="#e0e0e0" stroke="#999999" points="240.11,-129 192.11,-129 192.11,-110 240.11,-110 240.11,-129"/>
<text text-anchor="middle" x="216.11" y="-117" font-family="Helvetica,sans-Serif" font-size="10.00">limits.h</text>
</a>
</g>
</g>
<!-- Node20&#45;&gt;Node21 -->
<g id="edge23_Node000020_Node000021" class="edge">
<title>Node20&#45;&gt;Node21</title>
<g id="a_edge23_Node000020_Node000021"><a xlink:title=" ">
<path fill="none" stroke="#63b8ff" d="M352.92,-164.98C325.03,-155.91 280.77,-141.52 250.18,-131.58"/>
<polygon fill="#63b8ff" stroke="#63b8ff" points="250.96,-128.15 240.37,-128.39 248.8,-134.81 250.96,-128.15"/>
</a>
</g>
</g>
<!-- Node22 -->
<g id="Node000022" class="node">
<title>Node22</title>
<g id="a_Node000022"><a xlink:title=" ">
<polygon fill="#e0e0e0" stroke="#999999" points="310.11,-129 258.11,-129 258.11,-110 310.11,-110 310.11,-129"/>
<text text-anchor="middle" x="284.11" y="-117" font-family="Helvetica,sans-Serif" font-size="10.00">stdarg.h</text>
</a>
</g>
</g>
<!-- Node20&#45;&gt;Node22 -->
<g id="edge24_Node000020_Node000022" class="edge">
<title>Node20&#45;&gt;Node22</title>
<g id="a_edge24_Node000020_Node000022"><a xlink:title=" ">
<path fill="none" stroke="#63b8ff" d="M363.85,-164.98C348.98,-156.69 326.13,-143.94 308.69,-134.22"/>
<polygon fill="#63b8ff" stroke="#63b8ff" points="310.09,-130.99 299.65,-129.17 306.68,-137.1 310.09,-130.99"/>
</a>
</g>
</g>
<!-- Node23 -->
<g id="Node000023" class="node">
<title>Node23</title>
<g id="a_Node000023"><a xlink:title=" ">
<polygon fill="#e0e0e0" stroke="#999999" points="377.61,-129 328.61,-129 328.61,-110 377.61,-110 377.61,-129"/>
<text text-anchor="middle" x="353.11" y="-117" font-family="Helvetica,sans-Serif" font-size="10.00">string.h</text>
</a>
</g>
</g>
<!-- Node20&#45;&gt;Node23 -->
<g id="edge28_Node000020_Node000023" class="edge">
<title>Node20&#45;&gt;Node23</title>
<g id="a_edge28_Node000020_Node000023"><a xlink:title=" ">
<path fill="none" stroke="#63b8ff" d="M374.82,-164.75C371.3,-157.57 366.2,-147.18 361.83,-138.27"/>
<polygon fill="#63b8ff" stroke="#63b8ff" points="364.87,-136.53 357.32,-129.09 358.59,-139.61 364.87,-136.53"/>
</a>
</g>
</g>
<!-- Node24 -->
<g id="Node000024" class="node">
<title>Node24</title>
<g id="a_Node000024"><a xlink:href="Arena_8h.html" target="_top" xlink:title="Arena&#45;based memory allocator for efficient bulk memory management.">
<polygon fill="white" stroke="#666666" points="506.11,-129 434.11,-129 434.11,-110 506.11,-110 506.11,-129"/>
<text text-anchor="middle" x="470.11" y="-117" font-family="Helvetica,sans-Serif" font-size="10.00">core/Arena.h</text>
</a>
</g>
</g>
<!-- Node20&#45;&gt;Node24 -->
<g id="edge30_Node000020_Node000024" class="edge">
<title>Node20&#45;&gt;Node24</title>
<g id="a_edge30_Node000020_Node000024"><a xlink:title=" ">
<path fill="none" stroke="#63b8ff" d="M393.73,-164.98C407.97,-156.69 429.86,-143.94 446.56,-134.22"/>
<polygon fill="#63b8ff" stroke="#63b8ff" points="448.34,-137.23 455.22,-129.17 444.82,-131.18 448.34,-137.23"/>
</a>
</g>
</g>
<!-- Node24&#45;&gt;Node10 -->
<g id="edge32_Node000024_Node000010" class="edge">
<title>Node24&#45;&gt;Node10</title>
<g id="a_edge32_Node000024_Node000010"><a xlink:title=" ">
<path fill="none" stroke="#63b8ff" d="M434.1,-111.35C387.13,-102.03 304.75,-85.68 252.12,-75.23"/>
<polygon fill="#63b8ff" stroke="#63b8ff" points="252.5,-71.73 242.01,-73.22 251.13,-78.6 252.5,-71.73"/>
</a>
</g>
</g>
<!-- Node24&#45;&gt;Node17 -->
<g id="edge31_Node000024_Node000017" class="edge">
<title>Node24&#45;&gt;Node17</title>
<g id="a_edge31_Node000024_Node000017"><a xlink:title=" ">
<path fill="none" stroke="#63b8ff" d="M470.11,-109.75C470.11,-102.8 470.11,-92.85 470.11,-84.13"/>
<polygon fill="#63b8ff" stroke="#63b8ff" points="473.61,-84.09 470.11,-74.09 466.61,-84.09 473.61,-84.09"/>
</a>
</g>
</g>
<!-- Node25&#45;&gt;Node2 -->
<g id="edge39_Node000025_Node000002" class="edge">
<title>Node25&#45;&gt;Node2</title>
<g id="a_edge39_Node000025_Node000002"><a xlink:title=" ">
<path fill="none" stroke="#63b8ff" d="M853.25,-164.97C804.73,-157.14 731.8,-144.7 660.04,-129.3"/>
<polygon fill="#63b8ff" stroke="#63b8ff" points="660.44,-125.81 649.93,-127.11 658.96,-132.65 660.44,-125.81"/>
</a>
</g>
</g>
<!-- Node25&#45;&gt;Node3 -->
<g id="edge36_Node000025_Node000003" class="edge">
<title>Node25&#45;&gt;Node3</title>
<g id="a_edge36_Node000025_Node000003"><a xlink:title=" ">
<path fill="none" stroke="#63b8ff" d="M874.05,-164.98C835.93,-155.46 774.32,-140.05 734.52,-130.1"/>
<polygon fill="#63b8ff" stroke="#63b8ff" points="735.2,-126.66 724.65,-127.63 733.5,-133.46 735.2,-126.66"/>
</a>
</g>
</g>
<!-- Node25&#45;&gt;Node4 -->
<g id="edge37_Node000025_Node000004" class="edge">
<title>Node25&#45;&gt;Node4</title>
<g id="a_edge37_Node000025_Node000004"><a xlink:title=" ">
<path fill="none" stroke="#63b8ff" d="M886.1,-164.98C863.66,-156.3 828.63,-142.75 803.12,-132.88"/>
<polygon fill="#63b8ff" stroke="#63b8ff" points="804.11,-129.51 793.52,-129.17 801.59,-136.04 804.11,-129.51"/>
</a>
</g>
</g>
<!-- Node25&#45;&gt;Node6 -->
<g id="edge41_Node000025_Node000006" class="edge">
<title>Node25&#45;&gt;Node6</title>
<g id="a_edge41_Node000025_Node000006"><a xlink:title=" ">
<path fill="none" stroke="#63b8ff" d="M972.22,-169.09C1042.09,-163.25 1148.43,-151.03 1182.11,-129 1198.55,-118.25 1209.78,-98.36 1216.27,-83.7"/>
<polygon fill="#63b8ff" stroke="#63b8ff" points="1219.63,-84.73 1220.17,-74.15 1213.15,-82.09 1219.63,-84.73"/>
</a>
</g>
</g>
<!-- Node25&#45;&gt;Node7 -->
<g id="edge42_Node000025_Node000007" class="edge">
<title>Node25&#45;&gt;Node7</title>
<g id="a_edge42_Node000025_Node000007"><a xlink:title=" ">
<path fill="none" stroke="#63b8ff" d="M972.25,-165.83C1038.67,-157.65 1145.36,-143.86 1237.11,-129 1238.21,-128.82 1239.32,-128.64 1240.45,-128.45"/>
<polygon fill="#63b8ff" stroke="#63b8ff" points="1241.43,-131.83 1250.68,-126.65 1240.22,-124.94 1241.43,-131.83"/>
</a>
</g>
</g>
<!-- Node25&#45;&gt;Node10 -->
<g id="edge46_Node000025_Node000010" class="edge">
<title>Node25&#45;&gt;Node10</title>
<g id="a_edge46_Node000025_Node000010"><a xlink:title=" ">
<path fill="none" stroke="#63b8ff" d="M896.35,-164.99C874.22,-149.16 826.95,-116.24 808.11,-110 801.52,-107.82 394.91,-79.01 252.07,-68.94"/>
<polygon fill="#63b8ff" stroke="#63b8ff" points="252.07,-65.44 241.85,-68.22 251.58,-72.42 252.07,-65.44"/>
</a>
</g>
</g>
<!-- Node25&#45;&gt;Node12 -->
<g id="edge47_Node000025_Node000012" class="edge">
<title>Node25&#45;&gt;Node12</title>
<g id="a_edge47_Node000025_Node000012"><a xlink:title=" ">
<path fill="none" stroke="#63b8ff" d="M908.11,-164.75C908.11,-157.8 908.11,-147.85 908.11,-139.13"/>
<polygon fill="#63b8ff" stroke="#63b8ff" points="911.61,-139.09 908.11,-129.09 904.61,-139.09 911.61,-139.09"/>
</a>
</g>
</g>
<!-- Node25&#45;&gt;Node14 -->
<g id="edge38_Node000025_Node000014" class="edge">
<title>Node25&#45;&gt;Node14</title>
<g id="a_edge38_Node000025_Node000014"><a xlink:title=" ">
<path fill="none" stroke="#63b8ff" d="M926.79,-164.9C940.9,-157.42 959.59,-145.23 970.11,-129 978.73,-115.71 981.8,-97.83 982.82,-84.44"/>
<polygon fill="#63b8ff" stroke="#63b8ff" points="986.33,-84.19 983.27,-74.04 979.34,-83.88 986.33,-84.19"/>
</a>
</g>
</g>
<!-- Node25&#45;&gt;Node15 -->
<g id="edge40_Node000025_Node000015" class="edge">
<title>Node25&#45;&gt;Node15</title>
<g id="a_edge40_Node000025_Node000015"><a xlink:title=" ">
<path fill="none" stroke="#63b8ff" d="M972.34,-171.57C1040.54,-168 1141.81,-157.85 1166.11,-129 1182.49,-109.55 1153.39,-90.38 1127.87,-78.28"/>
<polygon fill="#63b8ff" stroke="#63b8ff" points="1129.27,-75.07 1118.72,-74.15 1126.39,-81.45 1129.27,-75.07"/>
</a>
</g>
</g>
<!-- Node25&#45;&gt;Node24 -->
<g id="edge45_Node000025_Node000024" class="edge">
<title>Node25&#45;&gt;Node24</title>
<g id="a_edge45_Node000025_Node000024"><a xlink:title=" ">
<path fill="none" stroke="#63b8ff" d="M843.95,-165.74C754.58,-154.92 594.78,-135.59 516.25,-126.08"/>
<polygon fill="#63b8ff" stroke="#63b8ff" points="516.52,-122.59 506.17,-124.86 515.68,-129.54 516.52,-122.59"/>
</a>
</g>
</g>
<!-- Node26 -->
<g id="Node000026" class="node">
<title>Node26</title>
<g id="a_Node000026"><a xlink:title=" ">
<polygon fill="#e0e0e0" stroke="#999999" points="1085.11,-129 1017.11,-129 1017.11,-110 1085.11,-110 1085.11,-129"/>
<text text-anchor="middle" x="1051.11" y="-117" font-family="Helvetica,sans-Serif" font-size="10.00">sys/types.h</text>
</a>
</g>
</g>
<!-- Node25&#45;&gt;Node26 -->
<g id="edge43_Node000025_Node000026" class="edge">
<title>Node25&#45;&gt;Node26</title>
<g id="a_edge43_Node000025_Node000026"><a xlink:title=" ">
<path fill="none" stroke="#63b8ff" d="M931.09,-164.98C954.61,-156.27 991.4,-142.63 1018.05,-132.75"/>
<polygon fill="#63b8ff" stroke="#63b8ff" points="1019.56,-135.93 1027.72,-129.17 1017.12,-129.36 1019.56,-135.93"/>
</a>
</g>
</g>
<!-- Node27 -->
<g id="Node000027" class="node">
<title>Node27</title>
<g id="a_Node000027"><a xlink:title=" ">
<polygon fill="#e0e0e0" stroke="#999999" points="1157.11,-129 1103.11,-129 1103.11,-110 1157.11,-110 1157.11,-129"/>
<text text-anchor="middle" x="1130.11" y="-117" font-family="Helvetica,sans-Serif" font-size="10.00">sys/un.h</text>
</a>
</g>
</g>
<!-- Node25&#45;&gt;Node27 -->
<g id="edge44_Node000025_Node000027" class="edge">
<title>Node25&#45;&gt;Node27</title>
<g id="a_edge44_Node000025_Node000027"><a xlink:title=" ">
<path fill="none" stroke="#63b8ff" d="M943.78,-164.98C984.68,-155.22 1051.42,-139.29 1092.95,-129.37"/>
<polygon fill="#63b8ff" stroke="#63b8ff" points="1094.01,-132.72 1102.93,-126.99 1092.39,-125.91 1094.01,-132.72"/>
</a>
</g>
</g>
</g>
</svg>
