<?xml version="1.0" encoding="UTF-8" standalone="no"?>
<!DOCTYPE svg PUBLIC "-//W3C//DTD SVG 1.1//EN"
 "http://www.w3.org/Graphics/SVG/1.1/DTD/svg11.dtd">
<!-- Generated by graphviz version 2.43.0 (0)
 -->
<!-- Title: Socket&#45;private.h Pages: 1 -->
<svg width="1467pt" height="368pt"
 viewBox="0.00 0.00 1466.76 368.00" xmlns="http://www.w3.org/2000/svg" xmlns:xlink="http://www.w3.org/1999/xlink">
<g id="graph0" class="graph" transform="scale(1 1) rotate(0) translate(4 364)">
<title>Socket&#45;private.h</title>
<!-- Node1 -->
<g id="Node000001" class="node">
<title>Node1</title>
<g id="a_Node000001"><a xlink:title="Private implementation details for Socket module: internal structure and shared utilities....">
<polygon fill="#999999" stroke="#666666" points="565.76,-360 477.76,-360 477.76,-341 565.76,-341 565.76,-360"/>
<text text-anchor="middle" x="521.76" y="-348" font-family="Helvetica,sans-Serif" font-size="10.00">Socket&#45;private.h</text>
</a>
</g>
</g>
<!-- Node2 -->
<g id="Node000002" class="node">
<title>Node2</title>
<g id="a_Node000002"><a xlink:href="Arena_8h.html" target="_top" xlink:title="Arena&#45;based memory allocator for efficient bulk memory management.">
<polygon fill="white" stroke="#666666" points="186.76,-129 114.76,-129 114.76,-110 186.76,-110 186.76,-129"/>
<text text-anchor="middle" x="150.76" y="-117" font-family="Helvetica,sans-Serif" font-size="10.00">core/Arena.h</text>
</a>
</g>
</g>
<!-- Node1&#45;&gt;Node2 -->
<g id="edge1_Node000001_Node000002" class="edge">
<title>Node1&#45;&gt;Node2</title>
<g id="a_edge1_Node000001_Node000002"><a xlink:title=" ">
<path fill="none" stroke="#63b8ff" d="M507.67,-340.8C451.54,-306.16 243.56,-177.78 173.77,-134.7"/>
<polygon fill="#63b8ff" stroke="#63b8ff" points="175.21,-131.48 164.86,-129.21 171.54,-137.44 175.21,-131.48"/>
</a>
</g>
</g>
<!-- Node6 -->
<g id="Node000006" class="node">
<title>Node6</title>
<g id="a_Node000006"><a xlink:href="SocketConfig_8h.html" target="_top" xlink:title="Compile&#45;time and runtime configuration constants, limits, and platform adaptations.">
<polygon fill="white" stroke="#666666" points="804.76,-129 698.76,-129 698.76,-110 804.76,-110 804.76,-129"/>
<text text-anchor="middle" x="751.76" y="-117" font-family="Helvetica,sans-Serif" font-size="10.00">core/SocketConfig.h</text>
</a>
</g>
</g>
<!-- Node1&#45;&gt;Node6 -->
<g id="edge5_Node000001_Node000006" class="edge">
<title>Node1&#45;&gt;Node6</title>
<g id="a_edge5_Node000001_Node000006"><a xlink:title=" ">
<path fill="none" stroke="#63b8ff" d="M514.48,-340.85C503.38,-326.55 484.72,-297.34 496.76,-275 540.71,-193.41 647.91,-150.38 708.39,-131.88"/>
<polygon fill="#63b8ff" stroke="#63b8ff" points="709.45,-135.21 718.04,-129.01 707.46,-128.5 709.45,-135.21"/>
</a>
</g>
</g>
<!-- Node15 -->
<g id="Node000015" class="node">
<title>Node15</title>
<g id="a_Node000015"><a xlink:href="SocketRateLimit_8h.html" target="_top" xlink:title="Token bucket rate limiter for controlling operation rates.">
<polygon fill="white" stroke="#666666" points="131.26,-184 12.26,-184 12.26,-165 131.26,-165 131.26,-184"/>
<text text-anchor="middle" x="71.76" y="-172" font-family="Helvetica,sans-Serif" font-size="10.00">core/SocketRateLimit.h</text>
</a>
</g>
</g>
<!-- Node1&#45;&gt;Node15 -->
<g id="edge15_Node000001_Node000015" class="edge">
<title>Node1&#45;&gt;Node15</title>
<g id="a_edge15_Node000001_Node000015"><a xlink:title=" ">
<path fill="none" stroke="#63b8ff" d="M477.52,-346.48C403.04,-340.86 256.19,-327.29 209.76,-305 154.17,-278.31 105.92,-221.15 84.12,-192.54"/>
<polygon fill="#63b8ff" stroke="#63b8ff" points="86.78,-190.25 78,-184.33 81.17,-194.44 86.78,-190.25"/>
</a>
</g>
</g>
<!-- Node17 -->
<g id="Node000017" class="node">
<title>Node17</title>
<g id="a_Node000017"><a xlink:href="Socket_8h.html" target="_top" xlink:title="High&#45;level TCP/IP and Unix domain socket interface.">
<polygon fill="white" stroke="#666666" points="722.76,-239 634.76,-239 634.76,-220 722.76,-220 722.76,-239"/>
<text text-anchor="middle" x="678.76" y="-227" font-family="Helvetica,sans-Serif" font-size="10.00">socket/Socket.h</text>
</a>
</g>
</g>
<!-- Node1&#45;&gt;Node17 -->
<g id="edge20_Node000001_Node000017" class="edge">
<title>Node1&#45;&gt;Node17</title>
<g id="a_edge20_Node000001_Node000017"><a xlink:title=" ">
<path fill="none" stroke="#63b8ff" d="M560.98,-340.93C584.43,-334.24 613.67,-322.99 634.76,-305 652.57,-289.81 665.01,-265.5 672.01,-248.81"/>
<polygon fill="#63b8ff" stroke="#63b8ff" points="675.42,-249.7 675.82,-239.11 668.9,-247.13 675.42,-249.7"/>
</a>
</g>
</g>
<!-- Node26 -->
<g id="Node000026" class="node">
<title>Node26</title>
<g id="a_Node000026"><a xlink:href="SocketCommon-private_8h.html" target="_top" xlink:title="Private declarations for SocketCommon module providing shared socket infrastructure.">
<polygon fill="white" stroke="#666666" points="625.26,-305 506.26,-305 506.26,-275 625.26,-275 625.26,-305"/>
<text text-anchor="start" x="514.26" y="-293" font-family="Helvetica,sans-Serif" font-size="10.00">socket/SocketCommon</text>
<text text-anchor="middle" x="565.76" y="-282" font-family="Helvetica,sans-Serif" font-size="10.00">&#45;private.h</text>
</a>
</g>
</g>
<!-- Node1&#45;&gt;Node26 -->
<g id="edge41_Node000001_Node000026" class="edge">
<title>Node1&#45;&gt;Node26</title>
<g id="a_edge41_Node000001_Node000026"><a xlink:title=" ">
<path fill="none" stroke="#63b8ff" d="M528.25,-340.87C533.73,-333.59 541.8,-322.85 549.06,-313.2"/>
<polygon fill="#63b8ff" stroke="#63b8ff" points="551.93,-315.21 555.14,-305.11 546.34,-311 551.93,-315.21"/>
</a>
</g>
</g>
<!-- Node32 -->
<g id="Node000032" class="node">
<title>Node32</title>
<g id="a_Node000032"><a xlink:title=" ">
<polygon fill="#e0e0e0" stroke="#999999" points="749.76,-299.5 681.76,-299.5 681.76,-280.5 749.76,-280.5 749.76,-299.5"/>
<text text-anchor="middle" x="715.76" y="-287.5" font-family="Helvetica,sans-Serif" font-size="10.00">stdatomic.h</text>
</a>
</g>
</g>
<!-- Node1&#45;&gt;Node32 -->
<g id="edge59_Node000001_Node000032" class="edge">
<title>Node1&#45;&gt;Node32</title>
<g id="a_edge59_Node000001_Node000032"><a xlink:title=" ">
<path fill="none" stroke="#63b8ff" d="M549.97,-340.99C583.73,-330.81 640.41,-313.72 677.94,-302.4"/>
<polygon fill="#63b8ff" stroke="#63b8ff" points="678.95,-305.75 687.52,-299.52 676.93,-299.05 678.95,-305.75"/>
</a>
</g>
</g>
<!-- Node3 -->
<g id="Node000003" class="node">
<title>Node3</title>
<g id="a_Node000003"><a xlink:title=" ">
<polygon fill="#e0e0e0" stroke="#999999" points="240.76,-74 188.76,-74 188.76,-55 240.76,-55 240.76,-74"/>
<text text-anchor="middle" x="214.76" y="-62" font-family="Helvetica,sans-Serif" font-size="10.00">stddef.h</text>
</a>
</g>
</g>
<!-- Node2&#45;&gt;Node3 -->
<g id="edge2_Node000002_Node000003" class="edge">
<title>Node2&#45;&gt;Node3</title>
<g id="a_edge2_Node000002_Node000003"><a xlink:title=" ">
<path fill="none" stroke="#63b8ff" d="M161.04,-109.98C170.6,-102.07 185.04,-90.11 196.54,-80.58"/>
<polygon fill="#63b8ff" stroke="#63b8ff" points="198.82,-83.24 204.29,-74.17 194.36,-77.85 198.82,-83.24"/>
</a>
</g>
</g>
<!-- Node4 -->
<g id="Node000004" class="node">
<title>Node4</title>
<g id="a_Node000004"><a xlink:href="Except_8h.html" target="_top" xlink:title="Structured exception handling for C with TRY/EXCEPT/FINALLY blocks.">
<polygon fill="white" stroke="#666666" points="564.26,-74 487.26,-74 487.26,-55 564.26,-55 564.26,-74"/>
<text text-anchor="middle" x="525.76" y="-62" font-family="Helvetica,sans-Serif" font-size="10.00">core/Except.h</text>
</a>
</g>
</g>
<!-- Node2&#45;&gt;Node4 -->
<g id="edge3_Node000002_Node000004" class="edge">
<title>Node2&#45;&gt;Node4</title>
<g id="a_edge3_Node000002_Node000004"><a xlink:title=" ">
<path fill="none" stroke="#63b8ff" d="M187.06,-113.37C254.82,-103.79 400.6,-83.19 476.92,-72.4"/>
<polygon fill="#63b8ff" stroke="#63b8ff" points="477.8,-75.81 487.21,-70.95 476.82,-68.88 477.8,-75.81"/>
</a>
</g>
</g>
<!-- Node5 -->
<g id="Node000005" class="node">
<title>Node5</title>
<g id="a_Node000005"><a xlink:title=" ">
<polygon fill="#e0e0e0" stroke="#999999" points="552.76,-19 498.76,-19 498.76,0 552.76,0 552.76,-19"/>
<text text-anchor="middle" x="525.76" y="-7" font-family="Helvetica,sans-Serif" font-size="10.00">setjmp.h</text>
</a>
</g>
</g>
<!-- Node4&#45;&gt;Node5 -->
<g id="edge4_Node000004_Node000005" class="edge">
<title>Node4&#45;&gt;Node5</title>
<g id="a_edge4_Node000004_Node000005"><a xlink:title=" ">
<path fill="none" stroke="#63b8ff" d="M525.76,-54.75C525.76,-47.8 525.76,-37.85 525.76,-29.13"/>
<polygon fill="#63b8ff" stroke="#63b8ff" points="529.26,-29.09 525.76,-19.09 522.26,-29.09 529.26,-29.09"/>
</a>
</g>
</g>
<!-- Node6&#45;&gt;Node3 -->
<g id="edge10_Node000006_Node000003" class="edge">
<title>Node6&#45;&gt;Node3</title>
<g id="a_edge10_Node000006_Node000003"><a xlink:title=" ">
<path fill="none" stroke="#63b8ff" d="M698.31,-113.22C589.23,-102.46 343.52,-78.21 250.95,-69.07"/>
<polygon fill="#63b8ff" stroke="#63b8ff" points="251.25,-65.58 240.95,-68.08 250.56,-72.55 251.25,-65.58"/>
</a>
</g>
</g>
<!-- Node7 -->
<g id="Node000007" class="node">
<title>Node7</title>
<g id="a_Node000007"><a xlink:title=" ">
<polygon fill="#e0e0e0" stroke="#999999" points="701.26,-74 654.26,-74 654.26,-55 701.26,-55 701.26,-74"/>
<text text-anchor="middle" x="677.76" y="-62" font-family="Helvetica,sans-Serif" font-size="10.00">errno.h</text>
</a>
</g>
</g>
<!-- Node6&#45;&gt;Node7 -->
<g id="edge6_Node000006_Node000007" class="edge">
<title>Node6&#45;&gt;Node7</title>
<g id="a_edge6_Node000006_Node000007"><a xlink:title=" ">
<path fill="none" stroke="#63b8ff" d="M739.87,-109.98C728.61,-101.92 711.47,-89.65 698.05,-80.03"/>
<polygon fill="#63b8ff" stroke="#63b8ff" points="700.03,-77.15 689.87,-74.17 695.96,-82.84 700.03,-77.15"/>
</a>
</g>
</g>
<!-- Node8 -->
<g id="Node000008" class="node">
<title>Node8</title>
<g id="a_Node000008"><a xlink:title=" ">
<polygon fill="#e0e0e0" stroke="#999999" points="995.76,-74 951.76,-74 951.76,-55 995.76,-55 995.76,-74"/>
<text text-anchor="middle" x="973.76" y="-62" font-family="Helvetica,sans-Serif" font-size="10.00">fcntl.h</text>
</a>
</g>
</g>
<!-- Node6&#45;&gt;Node8 -->
<g id="edge7_Node000006_Node000008" class="edge">
<title>Node6&#45;&gt;Node8</title>
<g id="a_edge7_Node000006_Node000008"><a xlink:title=" ">
<path fill="none" stroke="#63b8ff" d="M790.28,-109.99C826.89,-101.79 883.73,-88.8 941.74,-74.19"/>
<polygon fill="#63b8ff" stroke="#63b8ff" points="942.6,-77.58 951.44,-71.73 940.88,-70.79 942.6,-77.58"/>
</a>
</g>
</g>
<!-- Node9 -->
<g id="Node000009" class="node">
<title>Node9</title>
<g id="a_Node000009"><a xlink:title=" ">
<polygon fill="#e0e0e0" stroke="#999999" points="1079.26,-74 1014.26,-74 1014.26,-55 1079.26,-55 1079.26,-74"/>
<text text-anchor="middle" x="1046.76" y="-62" font-family="Helvetica,sans-Serif" font-size="10.00">netinet/in.h</text>
</a>
</g>
</g>
<!-- Node6&#45;&gt;Node9 -->
<g id="edge8_Node000006_Node000009" class="edge">
<title>Node6&#45;&gt;Node9</title>
<g id="a_edge8_Node000006_Node000009"><a xlink:title=" ">
<path fill="none" stroke="#63b8ff" d="M802.71,-109.93C851.66,-101.61 927.96,-88.41 1003.98,-74.11"/>
<polygon fill="#63b8ff" stroke="#63b8ff" points="1005.04,-77.47 1014.22,-72.17 1003.74,-70.59 1005.04,-77.47"/>
</a>
</g>
</g>
<!-- Node10 -->
<g id="Node000010" class="node">
<title>Node10</title>
<g id="a_Node000010"><a xlink:title=" ">
<polygon fill="#e0e0e0" stroke="#999999" points="859.26,-74 788.26,-74 788.26,-55 859.26,-55 859.26,-74"/>
<text text-anchor="middle" x="823.76" y="-62" font-family="Helvetica,sans-Serif" font-size="10.00">netinet/tcp.h</text>
</a>
</g>
</g>
<!-- Node6&#45;&gt;Node10 -->
<g id="edge9_Node000006_Node000010" class="edge">
<title>Node6&#45;&gt;Node10</title>
<g id="a_edge9_Node000006_Node000010"><a xlink:title=" ">
<path fill="none" stroke="#63b8ff" d="M763.33,-109.98C774.18,-102 790.64,-89.88 803.64,-80.31"/>
<polygon fill="#63b8ff" stroke="#63b8ff" points="806,-82.92 811.98,-74.17 801.85,-77.28 806,-82.92"/>
</a>
</g>
</g>
<!-- Node11 -->
<g id="Node000011" class="node">
<title>Node11</title>
<g id="a_Node000011"><a xlink:title=" ">
<polygon fill="#e0e0e0" stroke="#999999" points="635.76,-74 589.76,-74 589.76,-55 635.76,-55 635.76,-74"/>
<text text-anchor="middle" x="612.76" y="-62" font-family="Helvetica,sans-Serif" font-size="10.00">stdio.h</text>
</a>
</g>
</g>
<!-- Node6&#45;&gt;Node11 -->
<g id="edge11_Node000006_Node000011" class="edge">
<title>Node6&#45;&gt;Node11</title>
<g id="a_edge11_Node000006_Node000011"><a xlink:title=" ">
<path fill="none" stroke="#63b8ff" d="M729.43,-109.98C706.56,-101.27 670.8,-87.63 644.9,-77.75"/>
<polygon fill="#63b8ff" stroke="#63b8ff" points="646.09,-74.46 635.5,-74.17 643.6,-81 646.09,-74.46"/>
</a>
</g>
</g>
<!-- Node12 -->
<g id="Node000012" class="node">
<title>Node12</title>
<g id="a_Node000012"><a xlink:title=" ">
<polygon fill="#e0e0e0" stroke="#999999" points="1170.26,-74 1097.26,-74 1097.26,-55 1170.26,-55 1170.26,-74"/>
<text text-anchor="middle" x="1133.76" y="-62" font-family="Helvetica,sans-Serif" font-size="10.00">sys/socket.h</text>
</a>
</g>
</g>
<!-- Node6&#45;&gt;Node12 -->
<g id="edge12_Node000006_Node000012" class="edge">
<title>Node6&#45;&gt;Node12</title>
<g id="a_edge12_Node000006_Node000012"><a xlink:title=" ">
<path fill="none" stroke="#63b8ff" d="M804.86,-111.2C807.87,-110.79 810.85,-110.39 813.76,-110 932.71,-94.06 965.34,-93.47 1086.88,-74.23"/>
<polygon fill="#63b8ff" stroke="#63b8ff" points="1087.63,-77.66 1096.95,-72.63 1086.53,-70.74 1087.63,-77.66"/>
</a>
</g>
</g>
<!-- Node13 -->
<g id="Node000013" class="node">
<title>Node13</title>
<g id="a_Node000013"><a xlink:title=" ">
<polygon fill="#e0e0e0" stroke="#999999" points="933.76,-74 877.76,-74 877.76,-55 933.76,-55 933.76,-74"/>
<text text-anchor="middle" x="905.76" y="-62" font-family="Helvetica,sans-Serif" font-size="10.00">sys/uio.h</text>
</a>
</g>
</g>
<!-- Node6&#45;&gt;Node13 -->
<g id="edge13_Node000006_Node000013" class="edge">
<title>Node6&#45;&gt;Node13</title>
<g id="a_edge13_Node000006_Node000013"><a xlink:title=" ">
<path fill="none" stroke="#63b8ff" d="M776.5,-109.98C802.13,-101.16 842.39,-87.31 871.17,-77.41"/>
<polygon fill="#63b8ff" stroke="#63b8ff" points="872.51,-80.65 880.82,-74.08 870.23,-74.03 872.51,-80.65"/>
</a>
</g>
</g>
<!-- Node14 -->
<g id="Node000014" class="node">
<title>Node14</title>
<g id="a_Node000014"><a xlink:title=" ">
<polygon fill="#e0e0e0" stroke="#999999" points="770.26,-74 719.26,-74 719.26,-55 770.26,-55 770.26,-74"/>
<text text-anchor="middle" x="744.76" y="-62" font-family="Helvetica,sans-Serif" font-size="10.00">unistd.h</text>
</a>
</g>
</g>
<!-- Node6&#45;&gt;Node14 -->
<g id="edge14_Node000006_Node000014" class="edge">
<title>Node6&#45;&gt;Node14</title>
<g id="a_edge14_Node000006_Node000014"><a xlink:title=" ">
<path fill="none" stroke="#63b8ff" d="M750.6,-109.75C749.69,-102.8 748.37,-92.85 747.22,-84.13"/>
<polygon fill="#63b8ff" stroke="#63b8ff" points="750.67,-83.54 745.89,-74.09 743.73,-84.46 750.67,-83.54"/>
</a>
</g>
</g>
<!-- Node15&#45;&gt;Node2 -->
<g id="edge16_Node000015_Node000002" class="edge">
<title>Node15&#45;&gt;Node2</title>
<g id="a_edge16_Node000015_Node000002"><a xlink:title=" ">
<path fill="none" stroke="#63b8ff" d="M84.45,-164.98C96.59,-156.84 115.12,-144.41 129.51,-134.76"/>
<polygon fill="#63b8ff" stroke="#63b8ff" points="131.48,-137.65 137.84,-129.17 127.58,-131.84 131.48,-137.65"/>
</a>
</g>
</g>
<!-- Node15&#45;&gt;Node3 -->
<g id="edge18_Node000015_Node000003" class="edge">
<title>Node15&#45;&gt;Node3</title>
<g id="a_edge18_Node000015_Node000003"><a xlink:title=" ">
<path fill="none" stroke="#63b8ff" d="M50.58,-165C24.9,-153.46 -12.9,-131.79 4.76,-110 26.21,-83.53 124.11,-72.17 178.34,-67.84"/>
<polygon fill="#63b8ff" stroke="#63b8ff" points="178.86,-71.31 188.57,-67.07 178.33,-64.33 178.86,-71.31"/>
</a>
</g>
</g>
<!-- Node15&#45;&gt;Node4 -->
<g id="edge17_Node000015_Node000004" class="edge">
<title>Node15&#45;&gt;Node4</title>
<g id="a_edge17_Node000015_Node000004"><a xlink:title=" ">
<path fill="none" stroke="#63b8ff" d="M61.03,-164.86C46.07,-151.81 22.42,-126.81 37.76,-110 66.99,-77.98 359.09,-68.74 476.89,-66.3"/>
<polygon fill="#63b8ff" stroke="#63b8ff" points="477.14,-69.8 487.07,-66.1 477,-62.8 477.14,-69.8"/>
</a>
</g>
</g>
<!-- Node16 -->
<g id="Node000016" class="node">
<title>Node16</title>
<g id="a_Node000016"><a xlink:title=" ">
<polygon fill="#e0e0e0" stroke="#999999" points="96.26,-129 47.26,-129 47.26,-110 96.26,-110 96.26,-129"/>
<text text-anchor="middle" x="71.76" y="-117" font-family="Helvetica,sans-Serif" font-size="10.00">stdint.h</text>
</a>
</g>
</g>
<!-- Node15&#45;&gt;Node16 -->
<g id="edge19_Node000015_Node000016" class="edge">
<title>Node15&#45;&gt;Node16</title>
<g id="a_edge19_Node000015_Node000016"><a xlink:title=" ">
<path fill="none" stroke="#63b8ff" d="M71.76,-164.75C71.76,-157.8 71.76,-147.85 71.76,-139.13"/>
<polygon fill="#63b8ff" stroke="#63b8ff" points="75.26,-139.09 71.76,-129.09 68.26,-139.09 75.26,-139.09"/>
</a>
</g>
</g>
<!-- Node17&#45;&gt;Node4 -->
<g id="edge21_Node000017_Node000004" class="edge">
<title>Node17&#45;&gt;Node4</title>
<g id="a_edge21_Node000017_Node000004"><a xlink:title=" ">
<path fill="none" stroke="#63b8ff" d="M670.53,-219.74C646.04,-193.65 573.32,-116.17 541.25,-82"/>
<polygon fill="#63b8ff" stroke="#63b8ff" points="543.42,-79.2 534.03,-74.31 538.32,-83.99 543.42,-79.2"/>
</a>
</g>
</g>
<!-- Node17&#45;&gt;Node6 -->
<g id="edge22_Node000017_Node000006" class="edge">
<title>Node17&#45;&gt;Node6</title>
<g id="a_edge22_Node000017_Node000006"><a xlink:title=" ">
<path fill="none" stroke="#63b8ff" d="M684.73,-219.66C696.83,-201.77 724.38,-161 740.14,-137.69"/>
<polygon fill="#63b8ff" stroke="#63b8ff" points="743.21,-139.4 745.91,-129.16 737.41,-135.48 743.21,-139.4"/>
</a>
</g>
</g>
<!-- Node18 -->
<g id="Node000018" class="node">
<title>Node18</title>
<g id="a_Node000018"><a xlink:href="SocketDNS_8h.html" target="_top" xlink:title="Asynchronous DNS resolution API for non&#45;blocking network applications.">
<polygon fill="white" stroke="#666666" points="918.76,-129 822.76,-129 822.76,-110 918.76,-110 918.76,-129"/>
<text text-anchor="middle" x="870.76" y="-117" font-family="Helvetica,sans-Serif" font-size="10.00">dns/SocketDNS.h</text>
</a>
</g>
</g>
<!-- Node17&#45;&gt;Node18 -->
<g id="edge23_Node000017_Node000018" class="edge">
<title>Node17&#45;&gt;Node18</title>
<g id="a_edge23_Node000017_Node000018"><a xlink:title=" ">
<path fill="none" stroke="#63b8ff" d="M694.15,-219.84C727.51,-201.08 806.72,-156.52 846.74,-134.01"/>
<polygon fill="#63b8ff" stroke="#63b8ff" points="848.57,-137 855.57,-129.05 845.13,-130.9 848.57,-137"/>
</a>
</g>
</g>
<!-- Node20 -->
<g id="Node000020" class="node">
<title>Node20</title>
<g id="a_Node000020"><a xlink:href="SocketCommon_8h.html" target="_top" xlink:title="Common utilities shared between Socket and SocketDgram modules.">
<polygon fill="white" stroke="#666666" points="1140.76,-184 1012.76,-184 1012.76,-165 1140.76,-165 1140.76,-184"/>
<text text-anchor="middle" x="1076.76" y="-172" font-family="Helvetica,sans-Serif" font-size="10.00">socket/SocketCommon.h</text>
</a>
</g>
</g>
<!-- Node17&#45;&gt;Node20 -->
<g id="edge28_Node000017_Node000020" class="edge">
<title>Node17&#45;&gt;Node20</title>
<g id="a_edge28_Node000017_Node000020"><a xlink:title=" ">
<path fill="none" stroke="#63b8ff" d="M722.87,-222.63C790.49,-213.62 920.52,-196.31 1002.74,-185.36"/>
<polygon fill="#63b8ff" stroke="#63b8ff" points="1003.32,-188.81 1012.77,-184.02 1002.4,-181.87 1003.32,-188.81"/>
</a>
</g>
</g>
<!-- Node18&#45;&gt;Node3 -->
<g id="edge26_Node000018_Node000003" class="edge">
<title>Node18&#45;&gt;Node3</title>
<g id="a_edge26_Node000018_Node000003"><a xlink:title=" ">
<path fill="none" stroke="#63b8ff" d="M822.59,-111.06C819.61,-110.68 816.64,-110.32 813.76,-110 600.96,-86.26 344.16,-71.97 250.85,-67.25"/>
<polygon fill="#63b8ff" stroke="#63b8ff" points="250.97,-63.75 240.8,-66.75 250.62,-70.74 250.97,-63.75"/>
</a>
</g>
</g>
<!-- Node18&#45;&gt;Node4 -->
<g id="edge24_Node000018_Node000004" class="edge">
<title>Node18&#45;&gt;Node4</title>
<g id="a_edge24_Node000018_Node000004"><a xlink:title=" ">
<path fill="none" stroke="#63b8ff" d="M822.52,-111.11C764.97,-102.3 665.84,-87.1 580.76,-74 578.71,-73.68 576.61,-73.36 574.5,-73.04"/>
<polygon fill="#63b8ff" stroke="#63b8ff" points="574.94,-69.56 564.52,-71.5 573.87,-76.48 574.94,-69.56"/>
</a>
</g>
</g>
<!-- Node18&#45;&gt;Node12 -->
<g id="edge27_Node000018_Node000012" class="edge">
<title>Node18&#45;&gt;Node12</title>
<g id="a_edge27_Node000018_Node000012"><a xlink:title=" ">
<path fill="none" stroke="#63b8ff" d="M913.02,-109.98C960.6,-100.4 1037.7,-84.86 1087.04,-74.92"/>
<polygon fill="#63b8ff" stroke="#63b8ff" points="1088.01,-78.29 1097.12,-72.88 1086.63,-71.43 1088.01,-78.29"/>
</a>
</g>
</g>
<!-- Node19 -->
<g id="Node000019" class="node">
<title>Node19</title>
<g id="a_Node000019"><a xlink:title=" ">
<polygon fill="#e0e0e0" stroke="#999999" points="1321.26,-74 1272.26,-74 1272.26,-55 1321.26,-55 1321.26,-74"/>
<text text-anchor="middle" x="1296.76" y="-62" font-family="Helvetica,sans-Serif" font-size="10.00">netdb.h</text>
</a>
</g>
</g>
<!-- Node18&#45;&gt;Node19 -->
<g id="edge25_Node000018_Node000019" class="edge">
<title>Node18&#45;&gt;Node19</title>
<g id="a_edge25_Node000018_Node000019"><a xlink:title=" ">
<path fill="none" stroke="#63b8ff" d="M918.95,-111.22C921.93,-110.8 924.88,-110.39 927.76,-110 1050.43,-93.46 1196.44,-76.72 1261.94,-69.37"/>
<polygon fill="#63b8ff" stroke="#63b8ff" points="1262.57,-72.82 1272.12,-68.23 1261.79,-65.87 1262.57,-72.82"/>
</a>
</g>
</g>
<!-- Node20&#45;&gt;Node2 -->
<g id="edge38_Node000020_Node000002" class="edge">
<title>Node20&#45;&gt;Node2</title>
<g id="a_edge38_Node000020_Node000002"><a xlink:title=" ">
<path fill="none" stroke="#63b8ff" d="M1012.71,-171.2C871.77,-165.9 524.17,-151.52 233.76,-129 221.92,-128.08 209.15,-126.88 197.26,-125.67"/>
<polygon fill="#63b8ff" stroke="#63b8ff" points="197.4,-122.17 187.09,-124.61 196.67,-129.13 197.4,-122.17"/>
</a>
</g>
</g>
<!-- Node20&#45;&gt;Node4 -->
<g id="edge39_Node000020_Node000004" class="edge">
<title>Node20&#45;&gt;Node4</title>
<g id="a_edge39_Node000020_Node000004"><a xlink:title=" ">
<path fill="none" stroke="#63b8ff" d="M1012.53,-171.12C935.02,-167.1 801.22,-156.51 689.76,-129 639.79,-116.67 584.53,-93.05 552.6,-78.35"/>
<polygon fill="#63b8ff" stroke="#63b8ff" points="554.02,-75.15 543.47,-74.09 551.06,-81.49 554.02,-75.15"/>
</a>
</g>
</g>
<!-- Node20&#45;&gt;Node6 -->
<g id="edge40_Node000020_Node000006" class="edge">
<title>Node20&#45;&gt;Node6</title>
<g id="a_edge40_Node000020_Node000006"><a xlink:title=" ">
<path fill="none" stroke="#63b8ff" d="M1024.54,-164.98C967.18,-155.63 875.1,-140.61 814.02,-130.65"/>
<polygon fill="#63b8ff" stroke="#63b8ff" points="814.55,-127.19 804.12,-129.04 813.42,-134.1 814.55,-127.19"/>
</a>
</g>
</g>
<!-- Node20&#45;&gt;Node8 -->
<g id="edge31_Node000020_Node000008" class="edge">
<title>Node20&#45;&gt;Node8</title>
<g id="a_edge31_Node000020_Node000008"><a xlink:title=" ">
<path fill="none" stroke="#63b8ff" d="M1081.43,-164.85C1087.79,-151.79 1097.14,-126.77 1085.76,-110 1080.98,-102.95 1036.94,-86.86 1005.54,-76.08"/>
<polygon fill="#63b8ff" stroke="#63b8ff" points="1006.45,-72.7 995.86,-72.79 1004.2,-79.32 1006.45,-72.7"/>
</a>
</g>
</g>
<!-- Node20&#45;&gt;Node9 -->
<g id="edge33_Node000020_Node000009" class="edge">
<title>Node20&#45;&gt;Node9</title>
<g id="a_edge33_Node000020_Node000009"><a xlink:title=" ">
<path fill="none" stroke="#63b8ff" d="M1089.55,-164.93C1105.71,-152.97 1130.15,-130.43 1118.76,-110 1110.72,-95.58 1095.86,-85.24 1081.72,-78.18"/>
<polygon fill="#63b8ff" stroke="#63b8ff" points="1083.16,-74.99 1072.61,-74.01 1080.25,-81.36 1083.16,-74.99"/>
</a>
</g>
</g>
<!-- Node20&#45;&gt;Node12 -->
<g id="edge34_Node000020_Node000012" class="edge">
<title>Node20&#45;&gt;Node12</title>
<g id="a_edge34_Node000020_Node000012"><a xlink:title=" ">
<path fill="none" stroke="#63b8ff" d="M1140.87,-170.66C1204.5,-166.34 1295.65,-155.57 1317.76,-129 1357.16,-81.66 1247.2,-69.54 1180.58,-66.49"/>
<polygon fill="#63b8ff" stroke="#63b8ff" points="1180.43,-62.98 1170.29,-66.07 1180.14,-69.97 1180.43,-62.98"/>
</a>
</g>
</g>
<!-- Node20&#45;&gt;Node19 -->
<g id="edge32_Node000020_Node000019" class="edge">
<title>Node20&#45;&gt;Node19</title>
<g id="a_edge32_Node000020_Node000019"><a xlink:title=" ">
<path fill="none" stroke="#63b8ff" d="M1140.93,-171.62C1209.39,-168.1 1311.32,-158 1335.76,-129 1348.61,-113.75 1331.85,-93.85 1316.48,-80.42"/>
<polygon fill="#63b8ff" stroke="#63b8ff" points="1318.67,-77.69 1308.73,-74.05 1314.23,-83.1 1318.67,-77.69"/>
</a>
</g>
</g>
<!-- Node21 -->
<g id="Node000021" class="node">
<title>Node21</title>
<g id="a_Node000021"><a xlink:title=" ">
<polygon fill="#e0e0e0" stroke="#999999" points="1228.26,-129 1171.26,-129 1171.26,-110 1228.26,-110 1228.26,-129"/>
<text text-anchor="middle" x="1199.76" y="-117" font-family="Helvetica,sans-Serif" font-size="10.00">pthread.h</text>
</a>
</g>
</g>
<!-- Node20&#45;&gt;Node21 -->
<g id="edge29_Node000020_Node000021" class="edge">
<title>Node20&#45;&gt;Node21</title>
<g id="a_edge29_Node000020_Node000021"><a xlink:title=" ">
<path fill="none" stroke="#63b8ff" d="M1096.52,-164.98C1116.49,-156.38 1147.56,-142.99 1170.41,-133.15"/>
<polygon fill="#63b8ff" stroke="#63b8ff" points="1171.84,-136.34 1179.64,-129.17 1169.07,-129.91 1171.84,-136.34"/>
</a>
</g>
</g>
<!-- Node22 -->
<g id="Node000022" class="node">
<title>Node22</title>
<g id="a_Node000022"><a xlink:title=" ">
<polygon fill="#e0e0e0" stroke="#999999" points="1458.76,-129 1402.76,-129 1402.76,-110 1458.76,-110 1458.76,-129"/>
<text text-anchor="middle" x="1430.76" y="-117" font-family="Helvetica,sans-Serif" font-size="10.00">stdbool.h</text>
</a>
</g>
</g>
<!-- Node20&#45;&gt;Node22 -->
<g id="edge30_Node000020_Node000022" class="edge">
<title>Node20&#45;&gt;Node22</title>
<g id="a_edge30_Node000020_Node000022"><a xlink:title=" ">
<path fill="none" stroke="#63b8ff" d="M1140.87,-165.46C1204.06,-157.28 1303.3,-143.73 1388.76,-129 1389.86,-128.81 1390.97,-128.61 1392.1,-128.41"/>
<polygon fill="#63b8ff" stroke="#63b8ff" points="1393.16,-131.77 1402.34,-126.48 1391.86,-124.9 1393.16,-131.77"/>
</a>
</g>
</g>
<!-- Node23 -->
<g id="Node000023" class="node">
<title>Node23</title>
<g id="a_Node000023"><a xlink:title=" ">
<polygon fill="#e0e0e0" stroke="#999999" points="1308.76,-129 1246.76,-129 1246.76,-110 1308.76,-110 1308.76,-129"/>
<text text-anchor="middle" x="1277.76" y="-117" font-family="Helvetica,sans-Serif" font-size="10.00">sys/time.h</text>
</a>
</g>
</g>
<!-- Node20&#45;&gt;Node23 -->
<g id="edge35_Node000020_Node000023" class="edge">
<title>Node20&#45;&gt;Node23</title>
<g id="a_edge35_Node000020_Node000023"><a xlink:title=" ">
<path fill="none" stroke="#63b8ff" d="M1109.05,-164.98C1143.79,-155.82 1199.11,-141.24 1236.87,-131.28"/>
<polygon fill="#63b8ff" stroke="#63b8ff" points="1237.76,-134.67 1246.54,-128.73 1235.98,-127.9 1237.76,-134.67"/>
</a>
</g>
</g>
<!-- Node24 -->
<g id="Node000024" class="node">
<title>Node24</title>
<g id="a_Node000024"><a xlink:title=" ">
<polygon fill="#e0e0e0" stroke="#999999" points="1004.76,-129 936.76,-129 936.76,-110 1004.76,-110 1004.76,-129"/>
<text text-anchor="middle" x="970.76" y="-117" font-family="Helvetica,sans-Serif" font-size="10.00">sys/types.h</text>
</a>
</g>
</g>
<!-- Node20&#45;&gt;Node24 -->
<g id="edge36_Node000020_Node000024" class="edge">
<title>Node20&#45;&gt;Node24</title>
<g id="a_edge36_Node000020_Node000024"><a xlink:title=" ">
<path fill="none" stroke="#63b8ff" d="M1059.73,-164.98C1042.83,-156.54 1016.7,-143.47 997.12,-133.68"/>
<polygon fill="#63b8ff" stroke="#63b8ff" points="998.61,-130.51 988.1,-129.17 995.48,-136.77 998.61,-130.51"/>
</a>
</g>
</g>
<!-- Node25 -->
<g id="Node000025" class="node">
<title>Node25</title>
<g id="a_Node000025"><a xlink:title=" ">
<polygon fill="#e0e0e0" stroke="#999999" points="1076.76,-129 1022.76,-129 1022.76,-110 1076.76,-110 1076.76,-129"/>
<text text-anchor="middle" x="1049.76" y="-117" font-family="Helvetica,sans-Serif" font-size="10.00">sys/un.h</text>
</a>
</g>
</g>
<!-- Node20&#45;&gt;Node25 -->
<g id="edge37_Node000020_Node000025" class="edge">
<title>Node20&#45;&gt;Node25</title>
<g id="a_edge37_Node000020_Node000025"><a xlink:title=" ">
<path fill="none" stroke="#63b8ff" d="M1072.3,-164.75C1068.65,-157.57 1063.35,-147.18 1058.81,-138.27"/>
<polygon fill="#63b8ff" stroke="#63b8ff" points="1061.79,-136.41 1054.14,-129.09 1055.56,-139.59 1061.79,-136.41"/>
</a>
</g>
</g>
<!-- Node26&#45;&gt;Node2 -->
<g id="edge42_Node000026_Node000002" class="edge">
<title>Node26&#45;&gt;Node2</title>
<g id="a_edge42_Node000026_Node000002"><a xlink:title=" ">
<path fill="none" stroke="#63b8ff" d="M531.09,-274.92C451.48,-242.6 256.67,-163.5 181.26,-132.88"/>
<polygon fill="#63b8ff" stroke="#63b8ff" points="182.43,-129.58 171.85,-129.06 179.8,-136.07 182.43,-129.58"/>
</a>
</g>
</g>
<!-- Node26&#45;&gt;Node6 -->
<g id="edge43_Node000026_Node000006" class="edge">
<title>Node26&#45;&gt;Node6</title>
<g id="a_edge43_Node000026_Node000006"><a xlink:title=" ">
<path fill="none" stroke="#63b8ff" d="M576.77,-274.83C588.3,-260.38 607.27,-237.64 625.76,-220 660.4,-186.96 705.28,-153.47 731.06,-135"/>
<polygon fill="#63b8ff" stroke="#63b8ff" points="733.21,-137.77 739.33,-129.12 729.15,-132.06 733.21,-137.77"/>
</a>
</g>
</g>
<!-- Node26&#45;&gt;Node17 -->
<g id="edge56_Node000026_Node000017" class="edge">
<title>Node26&#45;&gt;Node17</title>
<g id="a_edge56_Node000026_Node000017"><a xlink:title=" ">
<path fill="none" stroke="#63b8ff" d="M592.83,-274.99C611.01,-265.58 634.83,-253.24 652.78,-243.95"/>
<polygon fill="#63b8ff" stroke="#63b8ff" points="654.8,-246.84 662.07,-239.14 651.58,-240.63 654.8,-246.84"/>
</a>
</g>
</g>
<!-- Node26&#45;&gt;Node20 -->
<g id="edge57_Node000026_Node000020" class="edge">
<title>Node26&#45;&gt;Node20</title>
<g id="a_edge57_Node000026_Node000020"><a xlink:title=" ">
<path fill="none" stroke="#63b8ff" d="M625.38,-275.76C727.62,-253.05 934.45,-207.11 1028.39,-186.24"/>
<polygon fill="#63b8ff" stroke="#63b8ff" points="1029.19,-189.65 1038.19,-184.07 1027.67,-182.82 1029.19,-189.65"/>
</a>
</g>
</g>
<!-- Node26&#45;&gt;Node22 -->
<g id="edge58_Node000026_Node000022" class="edge">
<title>Node26&#45;&gt;Node22</title>
<g id="a_edge58_Node000026_Node000022"><a xlink:title=" ">
<path fill="none" stroke="#63b8ff" d="M625.63,-279.21C731.6,-261.66 959.01,-223.02 1149.76,-184 1236.99,-166.16 1338.79,-142.42 1392.71,-129.62"/>
<polygon fill="#63b8ff" stroke="#63b8ff" points="1393.61,-133 1402.52,-127.28 1391.99,-126.19 1393.61,-133"/>
</a>
</g>
</g>
<!-- Node27 -->
<g id="Node000027" class="node">
<title>Node27</title>
<g id="a_Node000027"><a xlink:href="SocketUtil_8h.html" target="_top" xlink:title="Consolidated utility header for logging, metrics, events, and error handling.">
<polygon fill="white" stroke="#666666" points="449.76,-184 357.76,-184 357.76,-165 449.76,-165 449.76,-184"/>
<text text-anchor="middle" x="403.76" y="-172" font-family="Helvetica,sans-Serif" font-size="10.00">core/SocketUtil.h</text>
</a>
</g>
</g>
<!-- Node26&#45;&gt;Node27 -->
<g id="edge44_Node000026_Node000027" class="edge">
<title>Node26&#45;&gt;Node27</title>
<g id="a_edge44_Node000026_Node000027"><a xlink:title=" ">
<path fill="none" stroke="#63b8ff" d="M545.57,-274.85C514.69,-253.22 456.03,-212.12 424.7,-190.17"/>
<polygon fill="#63b8ff" stroke="#63b8ff" points="426.48,-187.14 416.28,-184.27 422.46,-192.88 426.48,-187.14"/>
</a>
</g>
</g>
<!-- Node27&#45;&gt;Node2 -->
<g id="edge53_Node000027_Node000002" class="edge">
<title>Node27&#45;&gt;Node2</title>
<g id="a_edge53_Node000027_Node000002"><a xlink:title=" ">
<path fill="none" stroke="#63b8ff" d="M363.11,-164.98C317.69,-155.47 244.32,-140.1 196.82,-130.15"/>
<polygon fill="#63b8ff" stroke="#63b8ff" points="197.31,-126.67 186.8,-128.05 195.87,-133.53 197.31,-126.67"/>
</a>
</g>
</g>
<!-- Node27&#45;&gt;Node3 -->
<g id="edge48_Node000027_Node000003" class="edge">
<title>Node27&#45;&gt;Node3</title>
<g id="a_edge48_Node000027_Node000003"><a xlink:title=" ">
<path fill="none" stroke="#63b8ff" d="M357.38,-166.57C313.33,-159.1 251.32,-145.96 233.76,-129 221.74,-117.39 217.25,-98.53 215.6,-84.37"/>
<polygon fill="#63b8ff" stroke="#63b8ff" points="219.08,-83.95 214.81,-74.25 212.1,-84.5 219.08,-83.95"/>
</a>
</g>
</g>
<!-- Node27&#45;&gt;Node4 -->
<g id="edge54_Node000027_Node000004" class="edge">
<title>Node27&#45;&gt;Node4</title>
<g id="a_edge54_Node000027_Node000004"><a xlink:title=" ">
<path fill="none" stroke="#63b8ff" d="M436.8,-164.94C457.25,-158.16 482.75,-146.8 499.76,-129 511.58,-116.63 518.32,-98.16 521.96,-84.32"/>
<polygon fill="#63b8ff" stroke="#63b8ff" points="525.41,-84.95 524.25,-74.42 518.59,-83.37 525.41,-84.95"/>
</a>
</g>
</g>
<!-- Node27&#45;&gt;Node6 -->
<g id="edge55_Node000027_Node000006" class="edge">
<title>Node27&#45;&gt;Node6</title>
<g id="a_edge55_Node000027_Node000006"><a xlink:title=" ">
<path fill="none" stroke="#63b8ff" d="M449.97,-166.46C511.17,-157.14 619.38,-140.66 688.23,-130.18"/>
<polygon fill="#63b8ff" stroke="#63b8ff" points="689.15,-133.58 698.51,-128.61 688.1,-126.66 689.15,-133.58"/>
</a>
</g>
</g>
<!-- Node27&#45;&gt;Node7 -->
<g id="edge45_Node000027_Node000007" class="edge">
<title>Node27&#45;&gt;Node7</title>
<g id="a_edge45_Node000027_Node000007"><a xlink:title=" ">
<path fill="none" stroke="#63b8ff" d="M437.35,-164.96C467.29,-156.94 512.08,-143.97 549.76,-129 586.96,-114.22 628.13,-92.84 653.48,-79.05"/>
<polygon fill="#63b8ff" stroke="#63b8ff" points="655.29,-82.05 662.38,-74.17 651.92,-75.91 655.29,-82.05"/>
</a>
</g>
</g>
<!-- Node27&#45;&gt;Node11 -->
<g id="edge50_Node000027_Node000011" class="edge">
<title>Node27&#45;&gt;Node11</title>
<g id="a_edge50_Node000027_Node000011"><a xlink:title=" ">
<path fill="none" stroke="#63b8ff" d="M432,-164.89C456.22,-157 491.71,-144.26 520.76,-129 547.78,-114.8 576.32,-94.09 594.32,-80.22"/>
<polygon fill="#63b8ff" stroke="#63b8ff" points="596.53,-82.93 602.25,-74.02 592.22,-77.41 596.53,-82.93"/>
</a>
</g>
</g>
<!-- Node27&#45;&gt;Node16 -->
<g id="edge49_Node000027_Node000016" class="edge">
<title>Node27&#45;&gt;Node16</title>
<g id="a_edge49_Node000027_Node000016"><a xlink:title=" ">
<path fill="none" stroke="#63b8ff" d="M357.58,-168.01C300.8,-160.95 201.35,-147.58 106.62,-128.99"/>
<polygon fill="#63b8ff" stroke="#63b8ff" points="107.07,-125.51 96.58,-127 105.71,-132.38 107.07,-125.51"/>
</a>
</g>
</g>
<!-- Node28 -->
<g id="Node000028" class="node">
<title>Node28</title>
<g id="a_Node000028"><a xlink:title=" ">
<polygon fill="#e0e0e0" stroke="#999999" points="290.76,-129 242.76,-129 242.76,-110 290.76,-110 290.76,-129"/>
<text text-anchor="middle" x="266.76" y="-117" font-family="Helvetica,sans-Serif" font-size="10.00">limits.h</text>
</a>
</g>
</g>
<!-- Node27&#45;&gt;Node28 -->
<g id="edge46_Node000027_Node000028" class="edge">
<title>Node27&#45;&gt;Node28</title>
<g id="a_edge46_Node000027_Node000028"><a xlink:title=" ">
<path fill="none" stroke="#63b8ff" d="M381.75,-164.98C359.31,-156.3 324.28,-142.75 298.77,-132.88"/>
<polygon fill="#63b8ff" stroke="#63b8ff" points="299.76,-129.51 289.17,-129.17 297.24,-136.04 299.76,-129.51"/>
</a>
</g>
</g>
<!-- Node29 -->
<g id="Node000029" class="node">
<title>Node29</title>
<g id="a_Node000029"><a xlink:title=" ">
<polygon fill="#e0e0e0" stroke="#999999" points="360.76,-129 308.76,-129 308.76,-110 360.76,-110 360.76,-129"/>
<text text-anchor="middle" x="334.76" y="-117" font-family="Helvetica,sans-Serif" font-size="10.00">stdarg.h</text>
</a>
</g>
</g>
<!-- Node27&#45;&gt;Node29 -->
<g id="edge47_Node000027_Node000029" class="edge">
<title>Node27&#45;&gt;Node29</title>
<g id="a_edge47_Node000027_Node000029"><a xlink:title=" ">
<path fill="none" stroke="#63b8ff" d="M392.67,-164.98C382.27,-157 366.5,-144.88 354.04,-135.31"/>
<polygon fill="#63b8ff" stroke="#63b8ff" points="356.11,-132.49 346.05,-129.17 351.85,-138.04 356.11,-132.49"/>
</a>
</g>
</g>
<!-- Node30 -->
<g id="Node000030" class="node">
<title>Node30</title>
<g id="a_Node000030"><a xlink:title=" ">
<polygon fill="#e0e0e0" stroke="#999999" points="428.26,-129 379.26,-129 379.26,-110 428.26,-110 428.26,-129"/>
<text text-anchor="middle" x="403.76" y="-117" font-family="Helvetica,sans-Serif" font-size="10.00">string.h</text>
</a>
</g>
</g>
<!-- Node27&#45;&gt;Node30 -->
<g id="edge51_Node000027_Node000030" class="edge">
<title>Node27&#45;&gt;Node30</title>
<g id="a_edge51_Node000027_Node000030"><a xlink:title=" ">
<path fill="none" stroke="#63b8ff" d="M403.76,-164.75C403.76,-157.8 403.76,-147.85 403.76,-139.13"/>
<polygon fill="#63b8ff" stroke="#63b8ff" points="407.26,-139.09 403.76,-129.09 400.26,-139.09 407.26,-139.09"/>
</a>
</g>
</g>
<!-- Node31 -->
<g id="Node000031" class="node">
<title>Node31</title>
<g id="a_Node000031"><a xlink:title=" ">
<polygon fill="#e0e0e0" stroke="#999999" points="490.76,-129 446.76,-129 446.76,-110 490.76,-110 490.76,-129"/>
<text text-anchor="middle" x="468.76" y="-117" font-family="Helvetica,sans-Serif" font-size="10.00">time.h</text>
</a>
</g>
</g>
<!-- Node27&#45;&gt;Node31 -->
<g id="edge52_Node000027_Node000031" class="edge">
<title>Node27&#45;&gt;Node31</title>
<g id="a_edge52_Node000027_Node000031"><a xlink:title=" ">
<path fill="none" stroke="#63b8ff" d="M414.2,-164.98C423.91,-157.07 438.58,-145.11 450.26,-135.58"/>
<polygon fill="#63b8ff" stroke="#63b8ff" points="452.59,-138.2 458.13,-129.17 448.16,-132.78 452.59,-138.2"/>
</a>
</g>
</g>
</g>
</svg>
