<?xml version="1.0" encoding="UTF-8" standalone="no"?>
<!DOCTYPE svg PUBLIC "-//W3C//DTD SVG 1.1//EN"
 "http://www.w3.org/Graphics/SVG/1.1/DTD/svg11.dtd">
<!-- Generated by graphviz version 2.43.0 (0)
 -->
<!-- Title: SocketReconnect&#45;private.h Pages: 1 -->
<svg width="1503pt" height="357pt"
 viewBox="0.00 0.00 1503.28 357.00" xmlns="http://www.w3.org/2000/svg" xmlns:xlink="http://www.w3.org/1999/xlink">
<g id="graph0" class="graph" transform="scale(1 1) rotate(0) translate(4 353)">
<title>SocketReconnect&#45;private.h</title>
<!-- Node1 -->
<g id="Node000001" class="node">
<title>Node1</title>
<g id="a_Node000001"><a xlink:title="Private header for SocketReconnect module internals.">
<polygon fill="#999999" stroke="#666666" points="591.84,-349 456.84,-349 456.84,-330 591.84,-330 591.84,-349"/>
<text text-anchor="middle" x="524.34" y="-337" font-family="Helvetica,sans-Serif" font-size="10.00">SocketReconnect&#45;private.h</text>
</a>
</g>
</g>
<!-- Node2 -->
<g id="Node000002" class="node">
<title>Node2</title>
<g id="a_Node000002"><a xlink:href="Arena_8h.html" target="_top" xlink:title="Arena&#45;based memory allocator for efficient bulk memory management.">
<polygon fill="white" stroke="#666666" points="618.34,-129 546.34,-129 546.34,-110 618.34,-110 618.34,-129"/>
<text text-anchor="middle" x="582.34" y="-117" font-family="Helvetica,sans-Serif" font-size="10.00">core/Arena.h</text>
</a>
</g>
</g>
<!-- Node1&#45;&gt;Node2 -->
<g id="edge1_Node000001_Node000002" class="edge">
<title>Node1&#45;&gt;Node2</title>
<g id="a_edge1_Node000001_Node000002"><a xlink:title=" ">
<path fill="none" stroke="#63b8ff" d="M526.61,-329.95C535.15,-297.88 565.39,-184.2 577.39,-139.12"/>
<polygon fill="#63b8ff" stroke="#63b8ff" points="580.83,-139.79 580.02,-129.22 574.06,-137.99 580.83,-139.79"/>
</a>
</g>
</g>
<!-- Node6 -->
<g id="Node000006" class="node">
<title>Node6</title>
<g id="a_Node000006"><a xlink:href="SocketCrypto_8h.html" target="_top" xlink:title="Cryptographic utility functions for secure operations.">
<polygon fill="white" stroke="#666666" points="516.84,-184 409.84,-184 409.84,-165 516.84,-165 516.84,-184"/>
<text text-anchor="middle" x="463.34" y="-172" font-family="Helvetica,sans-Serif" font-size="10.00">core/SocketCrypto.h</text>
</a>
</g>
</g>
<!-- Node1&#45;&gt;Node6 -->
<g id="edge5_Node000001_Node000006" class="edge">
<title>Node1&#45;&gt;Node6</title>
<g id="a_edge5_Node000001_Node000006"><a xlink:title=" ">
<path fill="none" stroke="#63b8ff" d="M521.06,-329.74C511.46,-304.09 483.28,-228.78 470.18,-193.78"/>
<polygon fill="#63b8ff" stroke="#63b8ff" points="473.42,-192.45 466.63,-184.31 466.86,-194.9 473.42,-192.45"/>
</a>
</g>
</g>
<!-- Node7 -->
<g id="Node000007" class="node">
<title>Node7</title>
<g id="a_Node000007"><a xlink:title=" ">
<polygon fill="#e0e0e0" stroke="#999999" points="413.84,-129 364.84,-129 364.84,-110 413.84,-110 413.84,-129"/>
<text text-anchor="middle" x="389.34" y="-117" font-family="Helvetica,sans-Serif" font-size="10.00">stdint.h</text>
</a>
</g>
</g>
<!-- Node1&#45;&gt;Node7 -->
<g id="edge58_Node000001_Node000007" class="edge">
<title>Node1&#45;&gt;Node7</title>
<g id="a_edge58_Node000001_Node000007"><a xlink:title=" ">
<path fill="none" stroke="#63b8ff" d="M514.64,-329.88C490.8,-308.09 429.2,-247.95 400.34,-184 393.93,-169.8 391.24,-152.27 390.12,-139.22"/>
<polygon fill="#63b8ff" stroke="#63b8ff" points="393.6,-138.87 389.48,-129.11 386.62,-139.31 393.6,-138.87"/>
</a>
</g>
</g>
<!-- Node9 -->
<g id="Node000009" class="node">
<title>Node9</title>
<g id="a_Node000009"><a xlink:href="SocketUtil_8h.html" target="_top" xlink:title="Consolidated utility header for logging, metrics, events, and error handling.">
<polygon fill="white" stroke="#666666" points="319.34,-184 227.34,-184 227.34,-165 319.34,-165 319.34,-184"/>
<text text-anchor="middle" x="273.34" y="-172" font-family="Helvetica,sans-Serif" font-size="10.00">core/SocketUtil.h</text>
</a>
</g>
</g>
<!-- Node1&#45;&gt;Node9 -->
<g id="edge10_Node000001_Node000009" class="edge">
<title>Node1&#45;&gt;Node9</title>
<g id="a_edge10_Node000001_Node000009"><a xlink:title=" ">
<path fill="none" stroke="#63b8ff" d="M461.67,-329.98C431.28,-323.64 395.39,-312.71 367.34,-294 327.8,-267.63 297.19,-219.32 282.64,-193.27"/>
<polygon fill="#63b8ff" stroke="#63b8ff" points="285.55,-191.3 277.71,-184.18 279.4,-194.64 285.55,-191.3"/>
</a>
</g>
</g>
<!-- Node23 -->
<g id="Node000023" class="node">
<title>Node23</title>
<g id="a_Node000023"><a xlink:href="Socket_8h.html" target="_top" xlink:title="High&#45;level TCP/IP and Unix domain socket interface.">
<polygon fill="white" stroke="#666666" points="907.34,-239 819.34,-239 819.34,-220 907.34,-220 907.34,-239"/>
<text text-anchor="middle" x="863.34" y="-227" font-family="Helvetica,sans-Serif" font-size="10.00">socket/Socket.h</text>
</a>
</g>
</g>
<!-- Node1&#45;&gt;Node23 -->
<g id="edge31_Node000001_Node000023" class="edge">
<title>Node1&#45;&gt;Node23</title>
<g id="a_edge31_Node000001_Node000023"><a xlink:title=" ">
<path fill="none" stroke="#63b8ff" d="M592.14,-330.43C637.1,-323.77 696.88,-312.36 747.34,-294 782.42,-281.24 819.73,-259.07 842.29,-244.59"/>
<polygon fill="#63b8ff" stroke="#63b8ff" points="844.26,-247.49 850.73,-239.09 840.44,-241.62 844.26,-247.49"/>
</a>
</g>
</g>
<!-- Node31 -->
<g id="Node000031" class="node">
<title>Node31</title>
<g id="a_Node000031"><a xlink:href="SocketReconnect_8h.html" target="_top" xlink:title="Automatic reconnection framework for resilient TCP connections with backoff and circuit breaker patte...">
<polygon fill="white" stroke="#666666" points="737.84,-294 602.84,-294 602.84,-275 737.84,-275 737.84,-294"/>
<text text-anchor="middle" x="670.34" y="-282" font-family="Helvetica,sans-Serif" font-size="10.00">socket/SocketReconnect.h</text>
</a>
</g>
</g>
<!-- Node1&#45;&gt;Node31 -->
<g id="edge53_Node000001_Node000031" class="edge">
<title>Node1&#45;&gt;Node31</title>
<g id="a_edge53_Node000001_Node000031"><a xlink:title=" ">
<path fill="none" stroke="#63b8ff" d="M547.8,-329.98C571.92,-321.23 609.7,-307.51 636.94,-297.62"/>
<polygon fill="#63b8ff" stroke="#63b8ff" points="638.25,-300.87 646.45,-294.17 635.86,-294.29 638.25,-300.87"/>
</a>
</g>
</g>
<!-- Node3 -->
<g id="Node000003" class="node">
<title>Node3</title>
<g id="a_Node000003"><a xlink:title=" ">
<polygon fill="#e0e0e0" stroke="#999999" points="557.34,-74 505.34,-74 505.34,-55 557.34,-55 557.34,-74"/>
<text text-anchor="middle" x="531.34" y="-62" font-family="Helvetica,sans-Serif" font-size="10.00">stddef.h</text>
</a>
</g>
</g>
<!-- Node2&#45;&gt;Node3 -->
<g id="edge2_Node000002_Node000003" class="edge">
<title>Node2&#45;&gt;Node3</title>
<g id="a_edge2_Node000002_Node000003"><a xlink:title=" ">
<path fill="none" stroke="#63b8ff" d="M573.92,-109.75C566.56,-102.11 555.71,-90.82 546.8,-81.56"/>
<polygon fill="#63b8ff" stroke="#63b8ff" points="549.06,-78.87 539.6,-74.09 544.02,-83.72 549.06,-78.87"/>
</a>
</g>
</g>
<!-- Node4 -->
<g id="Node000004" class="node">
<title>Node4</title>
<g id="a_Node000004"><a xlink:href="Except_8h.html" target="_top" xlink:title="Structured exception handling for C with TRY/EXCEPT/FINALLY blocks.">
<polygon fill="white" stroke="#666666" points="804.84,-74 727.84,-74 727.84,-55 804.84,-55 804.84,-74"/>
<text text-anchor="middle" x="766.34" y="-62" font-family="Helvetica,sans-Serif" font-size="10.00">core/Except.h</text>
</a>
</g>
</g>
<!-- Node2&#45;&gt;Node4 -->
<g id="edge3_Node000002_Node000004" class="edge">
<title>Node2&#45;&gt;Node4</title>
<g id="a_edge3_Node000002_Node000004"><a xlink:title=" ">
<path fill="none" stroke="#63b8ff" d="M611.9,-109.98C643.06,-101.01 692.31,-86.82 726.8,-76.89"/>
<polygon fill="#63b8ff" stroke="#63b8ff" points="727.9,-80.21 736.54,-74.08 725.97,-73.49 727.9,-80.21"/>
</a>
</g>
</g>
<!-- Node5 -->
<g id="Node000005" class="node">
<title>Node5</title>
<g id="a_Node000005"><a xlink:title=" ">
<polygon fill="#e0e0e0" stroke="#999999" points="793.34,-19 739.34,-19 739.34,0 793.34,0 793.34,-19"/>
<text text-anchor="middle" x="766.34" y="-7" font-family="Helvetica,sans-Serif" font-size="10.00">setjmp.h</text>
</a>
</g>
</g>
<!-- Node4&#45;&gt;Node5 -->
<g id="edge4_Node000004_Node000005" class="edge">
<title>Node4&#45;&gt;Node5</title>
<g id="a_edge4_Node000004_Node000005"><a xlink:title=" ">
<path fill="none" stroke="#63b8ff" d="M766.34,-54.75C766.34,-47.8 766.34,-37.85 766.34,-29.13"/>
<polygon fill="#63b8ff" stroke="#63b8ff" points="769.84,-29.09 766.34,-19.09 762.84,-29.09 769.84,-29.09"/>
</a>
</g>
</g>
<!-- Node6&#45;&gt;Node3 -->
<g id="edge6_Node000006_Node000003" class="edge">
<title>Node6&#45;&gt;Node3</title>
<g id="a_edge6_Node000006_Node000003"><a xlink:title=" ">
<path fill="none" stroke="#63b8ff" d="M461.42,-164.62C459.11,-151.69 456.66,-127.35 466.34,-110 473.95,-96.35 487.72,-86.02 500.63,-78.77"/>
<polygon fill="#63b8ff" stroke="#63b8ff" points="502.51,-81.73 509.78,-74.02 499.29,-75.52 502.51,-81.73"/>
</a>
</g>
</g>
<!-- Node6&#45;&gt;Node4 -->
<g id="edge9_Node000006_Node000004" class="edge">
<title>Node6&#45;&gt;Node4</title>
<g id="a_edge9_Node000006_Node000004"><a xlink:title=" ">
<path fill="none" stroke="#63b8ff" d="M470.55,-164.93C482.77,-151.02 508.99,-123.71 537.34,-110 595.25,-81.99 669.46,-71.6 717.45,-67.76"/>
<polygon fill="#63b8ff" stroke="#63b8ff" points="717.86,-71.24 727.57,-67.01 717.34,-64.26 717.86,-71.24"/>
</a>
</g>
</g>
<!-- Node6&#45;&gt;Node7 -->
<g id="edge7_Node000006_Node000007" class="edge">
<title>Node6&#45;&gt;Node7</title>
<g id="a_edge7_Node000006_Node000007"><a xlink:title=" ">
<path fill="none" stroke="#63b8ff" d="M451.45,-164.98C440.19,-156.92 423.05,-144.65 409.63,-135.03"/>
<polygon fill="#63b8ff" stroke="#63b8ff" points="411.61,-132.15 401.44,-129.17 407.54,-137.84 411.61,-132.15"/>
</a>
</g>
</g>
<!-- Node8 -->
<g id="Node000008" class="node">
<title>Node8</title>
<g id="a_Node000008"><a xlink:title=" ">
<polygon fill="#e0e0e0" stroke="#999999" points="704.34,-129 636.34,-129 636.34,-110 704.34,-110 704.34,-129"/>
<text text-anchor="middle" x="670.34" y="-117" font-family="Helvetica,sans-Serif" font-size="10.00">sys/types.h</text>
</a>
</g>
</g>
<!-- Node6&#45;&gt;Node8 -->
<g id="edge8_Node000006_Node000008" class="edge">
<title>Node6&#45;&gt;Node8</title>
<g id="a_edge8_Node000006_Node000008"><a xlink:title=" ">
<path fill="none" stroke="#63b8ff" d="M496.6,-164.98C531.95,-155.93 588.01,-141.58 626.85,-131.64"/>
<polygon fill="#63b8ff" stroke="#63b8ff" points="628,-134.95 636.82,-129.08 626.26,-128.17 628,-134.95"/>
</a>
</g>
</g>
<!-- Node9&#45;&gt;Node2 -->
<g id="edge19_Node000009_Node000002" class="edge">
<title>Node9&#45;&gt;Node2</title>
<g id="a_edge19_Node000009_Node000002"><a xlink:title=" ">
<path fill="none" stroke="#63b8ff" d="M319.6,-165.57C377.89,-155.57 477.48,-138.48 535.87,-128.47"/>
<polygon fill="#63b8ff" stroke="#63b8ff" points="536.66,-131.89 545.92,-126.75 535.48,-124.99 536.66,-131.89"/>
</a>
</g>
</g>
<!-- Node9&#45;&gt;Node3 -->
<g id="edge14_Node000009_Node000003" class="edge">
<title>Node9&#45;&gt;Node3</title>
<g id="a_edge14_Node000009_Node000003"><a xlink:title=" ">
<path fill="none" stroke="#63b8ff" d="M277.41,-164.95C284.48,-151.07 300.42,-123.79 322.34,-110 375.86,-76.32 450.76,-67.76 494.85,-65.8"/>
<polygon fill="#63b8ff" stroke="#63b8ff" points="495.22,-69.29 505.09,-65.44 494.98,-62.3 495.22,-69.29"/>
</a>
</g>
</g>
<!-- Node9&#45;&gt;Node4 -->
<g id="edge20_Node000009_Node000004" class="edge">
<title>Node9&#45;&gt;Node4</title>
<g id="a_edge20_Node000009_Node000004"><a xlink:title=" ">
<path fill="none" stroke="#63b8ff" d="M283.15,-164.79C301.2,-148.95 339.31,-116.47 355.34,-110 420.06,-83.9 623.6,-71.77 717.73,-67.45"/>
<polygon fill="#63b8ff" stroke="#63b8ff" points="718,-70.94 727.84,-67 717.69,-63.95 718,-70.94"/>
</a>
</g>
</g>
<!-- Node9&#45;&gt;Node7 -->
<g id="edge15_Node000009_Node000007" class="edge">
<title>Node9&#45;&gt;Node7</title>
<g id="a_edge15_Node000009_Node000007"><a xlink:title=" ">
<path fill="none" stroke="#63b8ff" d="M291.98,-164.98C310.64,-156.46 339.59,-143.23 361.08,-133.41"/>
<polygon fill="#63b8ff" stroke="#63b8ff" points="362.72,-136.51 370.36,-129.17 359.81,-130.14 362.72,-136.51"/>
</a>
</g>
</g>
<!-- Node10 -->
<g id="Node000010" class="node">
<title>Node10</title>
<g id="a_Node000010"><a xlink:title=" ">
<polygon fill="#e0e0e0" stroke="#999999" points="52.84,-74 5.84,-74 5.84,-55 52.84,-55 52.84,-74"/>
<text text-anchor="middle" x="29.34" y="-62" font-family="Helvetica,sans-Serif" font-size="10.00">errno.h</text>
</a>
</g>
</g>
<!-- Node9&#45;&gt;Node10 -->
<g id="edge11_Node000009_Node000010" class="edge">
<title>Node9&#45;&gt;Node10</title>
<g id="a_edge11_Node000009_Node000010"><a xlink:title=" ">
<path fill="none" stroke="#63b8ff" d="M227.2,-172.74C158.2,-170.51 33.24,-161.92 5.34,-129 -6.15,-115.45 4.21,-95.84 14.67,-82.01"/>
<polygon fill="#63b8ff" stroke="#63b8ff" points="17.4,-84.21 21.01,-74.25 11.97,-79.78 17.4,-84.21"/>
</a>
</g>
</g>
<!-- Node11 -->
<g id="Node000011" class="node">
<title>Node11</title>
<g id="a_Node000011"><a xlink:title=" ">
<polygon fill="#e0e0e0" stroke="#999999" points="70.34,-129 22.34,-129 22.34,-110 70.34,-110 70.34,-129"/>
<text text-anchor="middle" x="46.34" y="-117" font-family="Helvetica,sans-Serif" font-size="10.00">limits.h</text>
</a>
</g>
</g>
<!-- Node9&#45;&gt;Node11 -->
<g id="edge12_Node000009_Node000011" class="edge">
<title>Node9&#45;&gt;Node11</title>
<g id="a_edge12_Node000009_Node000011"><a xlink:title=" ">
<path fill="none" stroke="#63b8ff" d="M234.62,-164.94C197.48,-156.65 139.57,-143.55 80.37,-129.2"/>
<polygon fill="#63b8ff" stroke="#63b8ff" points="81.01,-125.76 70.47,-126.79 79.36,-132.56 81.01,-125.76"/>
</a>
</g>
</g>
<!-- Node12 -->
<g id="Node000012" class="node">
<title>Node12</title>
<g id="a_Node000012"><a xlink:title=" ">
<polygon fill="#e0e0e0" stroke="#999999" points="140.34,-129 88.34,-129 88.34,-110 140.34,-110 140.34,-129"/>
<text text-anchor="middle" x="114.34" y="-117" font-family="Helvetica,sans-Serif" font-size="10.00">stdarg.h</text>
</a>
</g>
</g>
<!-- Node9&#45;&gt;Node12 -->
<g id="edge13_Node000009_Node000012" class="edge">
<title>Node9&#45;&gt;Node12</title>
<g id="a_edge13_Node000009_Node000012"><a xlink:title=" ">
<path fill="none" stroke="#63b8ff" d="M247.79,-164.98C221.21,-156.13 179.4,-142.19 149.67,-132.28"/>
<polygon fill="#63b8ff" stroke="#63b8ff" points="150.68,-128.92 140.09,-129.08 148.47,-135.56 150.68,-128.92"/>
</a>
</g>
</g>
<!-- Node13 -->
<g id="Node000013" class="node">
<title>Node13</title>
<g id="a_Node000013"><a xlink:title=" ">
<polygon fill="#e0e0e0" stroke="#999999" points="364.34,-74 318.34,-74 318.34,-55 364.34,-55 364.34,-74"/>
<text text-anchor="middle" x="341.34" y="-62" font-family="Helvetica,sans-Serif" font-size="10.00">stdio.h</text>
</a>
</g>
</g>
<!-- Node9&#45;&gt;Node13 -->
<g id="edge16_Node000009_Node000013" class="edge">
<title>Node9&#45;&gt;Node13</title>
<g id="a_edge16_Node000009_Node000013"><a xlink:title=" ">
<path fill="none" stroke="#63b8ff" d="M227.18,-172.47C159.95,-169.88 40.17,-160.81 13.34,-129 7.89,-122.54 7.78,-116.36 13.34,-110 51.35,-66.48 232.06,-63.87 307.81,-64.76"/>
<polygon fill="#63b8ff" stroke="#63b8ff" points="308.14,-68.26 318.19,-64.91 308.25,-61.26 308.14,-68.26"/>
</a>
</g>
</g>
<!-- Node14 -->
<g id="Node000014" class="node">
<title>Node14</title>
<g id="a_Node000014"><a xlink:title=" ">
<polygon fill="#e0e0e0" stroke="#999999" points="207.84,-129 158.84,-129 158.84,-110 207.84,-110 207.84,-129"/>
<text text-anchor="middle" x="183.34" y="-117" font-family="Helvetica,sans-Serif" font-size="10.00">string.h</text>
</a>
</g>
</g>
<!-- Node9&#45;&gt;Node14 -->
<g id="edge17_Node000009_Node000014" class="edge">
<title>Node9&#45;&gt;Node14</title>
<g id="a_edge17_Node000009_Node000014"><a xlink:title=" ">
<path fill="none" stroke="#63b8ff" d="M258.88,-164.98C244.92,-156.77 223.55,-144.18 207.09,-134.49"/>
<polygon fill="#63b8ff" stroke="#63b8ff" points="208.46,-131.23 198.06,-129.17 204.9,-137.26 208.46,-131.23"/>
</a>
</g>
</g>
<!-- Node15 -->
<g id="Node000015" class="node">
<title>Node15</title>
<g id="a_Node000015"><a xlink:title=" ">
<polygon fill="#e0e0e0" stroke="#999999" points="270.34,-129 226.34,-129 226.34,-110 270.34,-110 270.34,-129"/>
<text text-anchor="middle" x="248.34" y="-117" font-family="Helvetica,sans-Serif" font-size="10.00">time.h</text>
</a>
</g>
</g>
<!-- Node9&#45;&gt;Node15 -->
<g id="edge18_Node000009_Node000015" class="edge">
<title>Node9&#45;&gt;Node15</title>
<g id="a_edge18_Node000009_Node000015"><a xlink:title=" ">
<path fill="none" stroke="#63b8ff" d="M269.21,-164.75C265.83,-157.57 260.92,-147.18 256.72,-138.27"/>
<polygon fill="#63b8ff" stroke="#63b8ff" points="259.82,-136.64 252.39,-129.09 253.49,-139.63 259.82,-136.64"/>
</a>
</g>
</g>
<!-- Node16 -->
<g id="Node000016" class="node">
<title>Node16</title>
<g id="a_Node000016"><a xlink:href="SocketConfig_8h.html" target="_top" xlink:title="Compile&#45;time and runtime configuration constants, limits, and platform adaptations.">
<polygon fill="white" stroke="#666666" points="980.34,-129 874.34,-129 874.34,-110 980.34,-110 980.34,-129"/>
<text text-anchor="middle" x="927.34" y="-117" font-family="Helvetica,sans-Serif" font-size="10.00">core/SocketConfig.h</text>
</a>
</g>
</g>
<!-- Node9&#45;&gt;Node16 -->
<g id="edge21_Node000009_Node000016" class="edge">
<title>Node9&#45;&gt;Node16</title>
<g id="a_edge21_Node000009_Node000016"><a xlink:title=" ">
<path fill="none" stroke="#63b8ff" d="M319.59,-169.75C434.45,-160.44 732.87,-136.26 863.98,-125.63"/>
<polygon fill="#63b8ff" stroke="#63b8ff" points="864.58,-129.1 874.26,-124.8 864.01,-122.12 864.58,-129.1"/>
</a>
</g>
</g>
<!-- Node16&#45;&gt;Node3 -->
<g id="edge26_Node000016_Node000003" class="edge">
<title>Node16&#45;&gt;Node3</title>
<g id="a_edge26_Node000016_Node000003"><a xlink:title=" ">
<path fill="none" stroke="#63b8ff" d="M873.93,-111.35C792,-100.39 637.45,-79.7 567.43,-70.33"/>
<polygon fill="#63b8ff" stroke="#63b8ff" points="567.72,-66.84 557.34,-68.98 566.79,-73.78 567.72,-66.84"/>
</a>
</g>
</g>
<!-- Node16&#45;&gt;Node10 -->
<g id="edge22_Node000016_Node000010" class="edge">
<title>Node16&#45;&gt;Node10</title>
<g id="a_edge22_Node000016_Node000010"><a xlink:title=" ">
<path fill="none" stroke="#63b8ff" d="M874.19,-115.36C707.82,-105.54 200.08,-75.58 63.48,-67.52"/>
<polygon fill="#63b8ff" stroke="#63b8ff" points="63.4,-64 53.21,-66.91 62.99,-70.99 63.4,-64"/>
</a>
</g>
</g>
<!-- Node16&#45;&gt;Node13 -->
<g id="edge27_Node000016_Node000013" class="edge">
<title>Node16&#45;&gt;Node13</title>
<g id="a_edge27_Node000016_Node000013"><a xlink:title=" ">
<path fill="none" stroke="#63b8ff" d="M874.3,-113.7C755.63,-102.97 471.51,-77.27 374.48,-68.5"/>
<polygon fill="#63b8ff" stroke="#63b8ff" points="374.65,-65 364.37,-67.58 374.02,-71.97 374.65,-65"/>
</a>
</g>
</g>
<!-- Node17 -->
<g id="Node000017" class="node">
<title>Node17</title>
<g id="a_Node000017"><a xlink:title=" ">
<polygon fill="#e0e0e0" stroke="#999999" points="1413.34,-74 1369.34,-74 1369.34,-55 1413.34,-55 1413.34,-74"/>
<text text-anchor="middle" x="1391.34" y="-62" font-family="Helvetica,sans-Serif" font-size="10.00">fcntl.h</text>
</a>
</g>
</g>
<!-- Node16&#45;&gt;Node17 -->
<g id="edge23_Node000016_Node000017" class="edge">
<title>Node16&#45;&gt;Node17</title>
<g id="a_edge23_Node000016_Node000017"><a xlink:title=" ">
<path fill="none" stroke="#63b8ff" d="M980.57,-112.42C1077.42,-101.36 1279.73,-78.25 1358.74,-69.22"/>
<polygon fill="#63b8ff" stroke="#63b8ff" points="1359.51,-72.66 1369.05,-68.05 1358.71,-65.7 1359.51,-72.66"/>
</a>
</g>
</g>
<!-- Node18 -->
<g id="Node000018" class="node">
<title>Node18</title>
<g id="a_Node000018"><a xlink:title=" ">
<polygon fill="#e0e0e0" stroke="#999999" points="1120.84,-74 1055.84,-74 1055.84,-55 1120.84,-55 1120.84,-74"/>
<text text-anchor="middle" x="1088.34" y="-62" font-family="Helvetica,sans-Serif" font-size="10.00">netinet/in.h</text>
</a>
</g>
</g>
<!-- Node16&#45;&gt;Node18 -->
<g id="edge24_Node000016_Node000018" class="edge">
<title>Node16&#45;&gt;Node18</title>
<g id="a_edge24_Node000016_Node000018"><a xlink:title=" ">
<path fill="none" stroke="#63b8ff" d="M953.21,-109.98C980.12,-101.13 1022.46,-87.19 1052.57,-77.28"/>
<polygon fill="#63b8ff" stroke="#63b8ff" points="1053.86,-80.53 1062.27,-74.08 1051.68,-73.88 1053.86,-80.53"/>
</a>
</g>
</g>
<!-- Node19 -->
<g id="Node000019" class="node">
<title>Node19</title>
<g id="a_Node000019"><a xlink:title=" ">
<polygon fill="#e0e0e0" stroke="#999999" points="962.84,-74 891.84,-74 891.84,-55 962.84,-55 962.84,-74"/>
<text text-anchor="middle" x="927.34" y="-62" font-family="Helvetica,sans-Serif" font-size="10.00">netinet/tcp.h</text>
</a>
</g>
</g>
<!-- Node16&#45;&gt;Node19 -->
<g id="edge25_Node000016_Node000019" class="edge">
<title>Node16&#45;&gt;Node19</title>
<g id="a_edge25_Node000016_Node000019"><a xlink:title=" ">
<path fill="none" stroke="#63b8ff" d="M927.34,-109.75C927.34,-102.8 927.34,-92.85 927.34,-84.13"/>
<polygon fill="#63b8ff" stroke="#63b8ff" points="930.84,-84.09 927.34,-74.09 923.84,-84.09 930.84,-84.09"/>
</a>
</g>
</g>
<!-- Node20 -->
<g id="Node000020" class="node">
<title>Node20</title>
<g id="a_Node000020"><a xlink:title=" ">
<polygon fill="#e0e0e0" stroke="#999999" points="1211.84,-74 1138.84,-74 1138.84,-55 1211.84,-55 1211.84,-74"/>
<text text-anchor="middle" x="1175.34" y="-62" font-family="Helvetica,sans-Serif" font-size="10.00">sys/socket.h</text>
</a>
</g>
</g>
<!-- Node16&#45;&gt;Node20 -->
<g id="edge28_Node000016_Node000020" class="edge">
<title>Node16&#45;&gt;Node20</title>
<g id="a_edge28_Node000016_Node000020"><a xlink:title=" ">
<path fill="none" stroke="#63b8ff" d="M967.18,-109.98C1011.32,-100.55 1082.39,-85.36 1128.98,-75.41"/>
<polygon fill="#63b8ff" stroke="#63b8ff" points="1129.78,-78.82 1138.82,-73.3 1128.31,-71.97 1129.78,-78.82"/>
</a>
</g>
</g>
<!-- Node21 -->
<g id="Node000021" class="node">
<title>Node21</title>
<g id="a_Node000021"><a xlink:title=" ">
<polygon fill="#e0e0e0" stroke="#999999" points="1037.34,-74 981.34,-74 981.34,-55 1037.34,-55 1037.34,-74"/>
<text text-anchor="middle" x="1009.34" y="-62" font-family="Helvetica,sans-Serif" font-size="10.00">sys/uio.h</text>
</a>
</g>
</g>
<!-- Node16&#45;&gt;Node21 -->
<g id="edge29_Node000016_Node000021" class="edge">
<title>Node16&#45;&gt;Node21</title>
<g id="a_edge29_Node000016_Node000021"><a xlink:title=" ">
<path fill="none" stroke="#63b8ff" d="M940.51,-109.98C953.11,-101.84 972.34,-89.41 987.28,-79.76"/>
<polygon fill="#63b8ff" stroke="#63b8ff" points="989.43,-82.54 995.92,-74.17 985.63,-76.66 989.43,-82.54"/>
</a>
</g>
</g>
<!-- Node22 -->
<g id="Node000022" class="node">
<title>Node22</title>
<g id="a_Node000022"><a xlink:title=" ">
<polygon fill="#e0e0e0" stroke="#999999" points="873.84,-74 822.84,-74 822.84,-55 873.84,-55 873.84,-74"/>
<text text-anchor="middle" x="848.34" y="-62" font-family="Helvetica,sans-Serif" font-size="10.00">unistd.h</text>
</a>
</g>
</g>
<!-- Node16&#45;&gt;Node22 -->
<g id="edge30_Node000016_Node000022" class="edge">
<title>Node16&#45;&gt;Node22</title>
<g id="a_edge30_Node000016_Node000022"><a xlink:title=" ">
<path fill="none" stroke="#63b8ff" d="M914.65,-109.98C902.51,-101.84 883.98,-89.41 869.59,-79.76"/>
<polygon fill="#63b8ff" stroke="#63b8ff" points="871.52,-76.84 861.26,-74.17 867.62,-82.65 871.52,-76.84"/>
</a>
</g>
</g>
<!-- Node23&#45;&gt;Node4 -->
<g id="edge32_Node000023_Node000004" class="edge">
<title>Node23&#45;&gt;Node4</title>
<g id="a_edge32_Node000023_Node000004"><a xlink:title=" ">
<path fill="none" stroke="#63b8ff" d="M855.32,-219.71C847.62,-211.02 835.91,-197.15 827.34,-184 805.21,-150.06 784.82,-107.12 774.14,-83.36"/>
<polygon fill="#63b8ff" stroke="#63b8ff" points="777.31,-81.89 770.06,-74.16 770.91,-84.72 777.31,-81.89"/>
</a>
</g>
</g>
<!-- Node23&#45;&gt;Node16 -->
<g id="edge33_Node000023_Node000016" class="edge">
<title>Node23&#45;&gt;Node16</title>
<g id="a_edge33_Node000023_Node000016"><a xlink:title=" ">
<path fill="none" stroke="#63b8ff" d="M892.84,-219.97C910.28,-213.24 930.93,-201.93 941.34,-184 949.47,-170 944.1,-151.75 937.8,-138.41"/>
<polygon fill="#63b8ff" stroke="#63b8ff" points="940.76,-136.54 933.01,-129.32 934.57,-139.8 940.76,-136.54"/>
</a>
</g>
</g>
<!-- Node24 -->
<g id="Node000024" class="node">
<title>Node24</title>
<g id="a_Node000024"><a xlink:href="SocketDNS_8h.html" target="_top" xlink:title="Asynchronous DNS resolution API for non&#45;blocking network applications.">
<polygon fill="white" stroke="#666666" points="932.34,-184 836.34,-184 836.34,-165 932.34,-165 932.34,-184"/>
<text text-anchor="middle" x="884.34" y="-172" font-family="Helvetica,sans-Serif" font-size="10.00">dns/SocketDNS.h</text>
</a>
</g>
</g>
<!-- Node23&#45;&gt;Node24 -->
<g id="edge34_Node000023_Node000024" class="edge">
<title>Node23&#45;&gt;Node24</title>
<g id="a_edge34_Node000023_Node000024"><a xlink:title=" ">
<path fill="none" stroke="#63b8ff" d="M866.81,-219.75C869.62,-212.65 873.68,-202.4 877.18,-193.56"/>
<polygon fill="#63b8ff" stroke="#63b8ff" points="880.51,-194.68 880.94,-184.09 874,-192.1 880.51,-194.68"/>
</a>
</g>
</g>
<!-- Node26 -->
<g id="Node000026" class="node">
<title>Node26</title>
<g id="a_Node000026"><a xlink:href="SocketCommon_8h.html" target="_top" xlink:title="Common utilities shared between Socket and SocketDgram modules.">
<polygon fill="white" stroke="#666666" points="1233.34,-184 1105.34,-184 1105.34,-165 1233.34,-165 1233.34,-184"/>
<text text-anchor="middle" x="1169.34" y="-172" font-family="Helvetica,sans-Serif" font-size="10.00">socket/SocketCommon.h</text>
</a>
</g>
</g>
<!-- Node23&#45;&gt;Node26 -->
<g id="edge40_Node000023_Node000026" class="edge">
<title>Node23&#45;&gt;Node26</title>
<g id="a_edge40_Node000023_Node000026"><a xlink:title=" ">
<path fill="none" stroke="#63b8ff" d="M907.51,-220.85C960.86,-211.61 1050.82,-196.03 1110.14,-185.75"/>
<polygon fill="#63b8ff" stroke="#63b8ff" points="1110.86,-189.18 1120.12,-184.03 1109.67,-182.28 1110.86,-189.18"/>
</a>
</g>
</g>
<!-- Node24&#45;&gt;Node3 -->
<g id="edge37_Node000024_Node000003" class="edge">
<title>Node24&#45;&gt;Node3</title>
<g id="a_edge37_Node000024_Node000003"><a xlink:title=" ">
<path fill="none" stroke="#63b8ff" d="M863.81,-164.99C831.97,-152.01 768.59,-126.95 713.34,-110 663.31,-94.65 604.29,-81.02 567.33,-73.01"/>
<polygon fill="#63b8ff" stroke="#63b8ff" points="568.03,-69.58 557.52,-70.9 566.56,-76.42 568.03,-69.58"/>
</a>
</g>
</g>
<!-- Node24&#45;&gt;Node4 -->
<g id="edge35_Node000024_Node000004" class="edge">
<title>Node24&#45;&gt;Node4</title>
<g id="a_edge35_Node000024_Node000004"><a xlink:title=" ">
<path fill="none" stroke="#63b8ff" d="M876.63,-164.95C865.21,-152.43 842.92,-128.59 822.34,-110 810.85,-99.62 797.27,-88.8 786.36,-80.43"/>
<polygon fill="#63b8ff" stroke="#63b8ff" points="788.35,-77.55 778.27,-74.29 784.12,-83.12 788.35,-77.55"/>
</a>
</g>
</g>
<!-- Node24&#45;&gt;Node7 -->
<g id="edge38_Node000024_Node000007" class="edge">
<title>Node24&#45;&gt;Node7</title>
<g id="a_edge38_Node000024_Node000007"><a xlink:title=" ">
<path fill="none" stroke="#63b8ff" d="M835.97,-168.32C736.37,-157.66 510.47,-133.47 423.94,-124.21"/>
<polygon fill="#63b8ff" stroke="#63b8ff" points="424.18,-120.71 413.86,-123.13 423.43,-127.67 424.18,-120.71"/>
</a>
</g>
</g>
<!-- Node24&#45;&gt;Node20 -->
<g id="edge39_Node000024_Node000020" class="edge">
<title>Node24&#45;&gt;Node20</title>
<g id="a_edge39_Node000024_Node000020"><a xlink:title=" ">
<path fill="none" stroke="#63b8ff" d="M905.4,-164.96C926.7,-156.22 960.51,-142.12 989.34,-129 1006.89,-121.01 1010.39,-117.04 1028.34,-110 1062.43,-96.64 1102.24,-84.81 1131.83,-76.71"/>
<polygon fill="#63b8ff" stroke="#63b8ff" points="1133.1,-79.99 1141.84,-74 1131.27,-73.23 1133.1,-79.99"/>
</a>
</g>
</g>
<!-- Node25 -->
<g id="Node000025" class="node">
<title>Node25</title>
<g id="a_Node000025"><a xlink:title=" ">
<polygon fill="#e0e0e0" stroke="#999999" points="1085.84,-129 1036.84,-129 1036.84,-110 1085.84,-110 1085.84,-129"/>
<text text-anchor="middle" x="1061.34" y="-117" font-family="Helvetica,sans-Serif" font-size="10.00">netdb.h</text>
</a>
</g>
</g>
<!-- Node24&#45;&gt;Node25 -->
<g id="edge36_Node000024_Node000025" class="edge">
<title>Node24&#45;&gt;Node25</title>
<g id="a_edge36_Node000024_Node000025"><a xlink:title=" ">
<path fill="none" stroke="#63b8ff" d="M912.78,-164.98C943.86,-155.68 993.66,-140.76 1026.93,-130.8"/>
<polygon fill="#63b8ff" stroke="#63b8ff" points="1028.11,-134.1 1036.68,-127.88 1026.1,-127.4 1028.11,-134.1"/>
</a>
</g>
</g>
<!-- Node26&#45;&gt;Node2 -->
<g id="edge50_Node000026_Node000002" class="edge">
<title>Node26&#45;&gt;Node2</title>
<g id="a_edge50_Node000026_Node000002"><a xlink:title=" ">
<path fill="none" stroke="#63b8ff" d="M1105.28,-170.42C1005.51,-165.14 806.81,-152.7 628.71,-129.05"/>
<polygon fill="#63b8ff" stroke="#63b8ff" points="629.01,-125.56 618.64,-127.69 628.08,-132.49 629.01,-125.56"/>
</a>
</g>
</g>
<!-- Node26&#45;&gt;Node4 -->
<g id="edge51_Node000026_Node000004" class="edge">
<title>Node26&#45;&gt;Node4</title>
<g id="a_edge51_Node000026_Node000004"><a xlink:title=" ">
<path fill="none" stroke="#63b8ff" d="M1162.22,-164.72C1150.14,-150.52 1124.11,-122.79 1095.34,-110 983.21,-60.15 940.96,-91.3 815.1,-73.98"/>
<polygon fill="#63b8ff" stroke="#63b8ff" points="815.48,-70.5 805.09,-72.53 814.48,-77.43 815.48,-70.5"/>
</a>
</g>
</g>
<!-- Node26&#45;&gt;Node8 -->
<g id="edge48_Node000026_Node000008" class="edge">
<title>Node26&#45;&gt;Node8</title>
<g id="a_edge48_Node000026_Node000008"><a xlink:title=" ">
<path fill="none" stroke="#63b8ff" d="M1105.12,-166.68C1002.2,-155.75 802.9,-134.58 714.45,-125.19"/>
<polygon fill="#63b8ff" stroke="#63b8ff" points="714.8,-121.7 704.48,-124.13 714.06,-128.66 714.8,-121.7"/>
</a>
</g>
</g>
<!-- Node26&#45;&gt;Node16 -->
<g id="edge52_Node000026_Node000016" class="edge">
<title>Node26&#45;&gt;Node16</title>
<g id="a_edge52_Node000026_Node000016"><a xlink:title=" ">
<path fill="none" stroke="#63b8ff" d="M1130.46,-164.98C1088.6,-155.82 1021.91,-141.21 976.45,-131.26"/>
<polygon fill="#63b8ff" stroke="#63b8ff" points="977.04,-127.8 966.53,-129.08 975.54,-134.64 977.04,-127.8"/>
</a>
</g>
</g>
<!-- Node26&#45;&gt;Node17 -->
<g id="edge43_Node000026_Node000017" class="edge">
<title>Node26&#45;&gt;Node17</title>
<g id="a_edge43_Node000026_Node000017"><a xlink:title=" ">
<path fill="none" stroke="#63b8ff" d="M1233.35,-174.09C1317.04,-173.34 1456.84,-166.33 1489.34,-129 1512.27,-102.65 1459.94,-83.01 1423.27,-72.98"/>
<polygon fill="#63b8ff" stroke="#63b8ff" points="1423.98,-69.54 1413.42,-70.4 1422.21,-76.32 1423.98,-69.54"/>
</a>
</g>
</g>
<!-- Node26&#45;&gt;Node18 -->
<g id="edge45_Node000026_Node000018" class="edge">
<title>Node26&#45;&gt;Node18</title>
<g id="a_edge45_Node000026_Node000018"><a xlink:title=" ">
<path fill="none" stroke="#63b8ff" d="M1180.4,-165C1195.23,-152.54 1218.29,-128.78 1205.34,-110 1196.44,-97.1 1160.45,-84.61 1130.7,-76.17"/>
<polygon fill="#63b8ff" stroke="#63b8ff" points="1131.47,-72.75 1120.9,-73.46 1129.61,-79.5 1131.47,-72.75"/>
</a>
</g>
</g>
<!-- Node26&#45;&gt;Node20 -->
<g id="edge46_Node000026_Node000020" class="edge">
<title>Node26&#45;&gt;Node20</title>
<g id="a_edge46_Node000026_Node000020"><a xlink:title=" ">
<path fill="none" stroke="#63b8ff" d="M1233.59,-173.53C1313.46,-172.05 1442.99,-164.11 1473.34,-129 1478.86,-122.61 1478.85,-116.4 1473.34,-110 1457.18,-91.25 1302.05,-75.9 1222.25,-69.17"/>
<polygon fill="#63b8ff" stroke="#63b8ff" points="1222.24,-65.66 1211.98,-68.32 1221.66,-72.64 1222.24,-65.66"/>
</a>
</g>
</g>
<!-- Node26&#45;&gt;Node25 -->
<g id="edge44_Node000026_Node000025" class="edge">
<title>Node26&#45;&gt;Node25</title>
<g id="a_edge44_Node000026_Node000025"><a xlink:title=" ">
<path fill="none" stroke="#63b8ff" d="M1151.99,-164.98C1134.77,-156.54 1108.14,-143.47 1088.19,-133.68"/>
<polygon fill="#63b8ff" stroke="#63b8ff" points="1089.53,-130.43 1079.01,-129.17 1086.44,-136.72 1089.53,-130.43"/>
</a>
</g>
</g>
<!-- Node27 -->
<g id="Node000027" class="node">
<title>Node27</title>
<g id="a_Node000027"><a xlink:title=" ">
<polygon fill="#e0e0e0" stroke="#999999" points="1309.84,-129 1252.84,-129 1252.84,-110 1309.84,-110 1309.84,-129"/>
<text text-anchor="middle" x="1281.34" y="-117" font-family="Helvetica,sans-Serif" font-size="10.00">pthread.h</text>
</a>
</g>
</g>
<!-- Node26&#45;&gt;Node27 -->
<g id="edge41_Node000026_Node000027" class="edge">
<title>Node26&#45;&gt;Node27</title>
<g id="a_edge41_Node000026_Node000027"><a xlink:title=" ">
<path fill="none" stroke="#63b8ff" d="M1187.33,-164.98C1205.27,-156.5 1233.05,-143.35 1253.77,-133.54"/>
<polygon fill="#63b8ff" stroke="#63b8ff" points="1255.47,-136.61 1263.02,-129.17 1252.48,-130.28 1255.47,-136.61"/>
</a>
</g>
</g>
<!-- Node28 -->
<g id="Node000028" class="node">
<title>Node28</title>
<g id="a_Node000028"><a xlink:title=" ">
<polygon fill="#e0e0e0" stroke="#999999" points="1384.34,-129 1328.34,-129 1328.34,-110 1384.34,-110 1384.34,-129"/>
<text text-anchor="middle" x="1356.34" y="-117" font-family="Helvetica,sans-Serif" font-size="10.00">stdbool.h</text>
</a>
</g>
</g>
<!-- Node26&#45;&gt;Node28 -->
<g id="edge42_Node000026_Node000028" class="edge">
<title>Node26&#45;&gt;Node28</title>
<g id="a_edge42_Node000026_Node000028"><a xlink:title=" ">
<path fill="none" stroke="#63b8ff" d="M1199.38,-164.98C1231.71,-155.82 1283.19,-141.23 1318.32,-131.28"/>
<polygon fill="#63b8ff" stroke="#63b8ff" points="1319.54,-134.57 1328.2,-128.47 1317.63,-127.83 1319.54,-134.57"/>
</a>
</g>
</g>
<!-- Node29 -->
<g id="Node000029" class="node">
<title>Node29</title>
<g id="a_Node000029"><a xlink:title=" ">
<polygon fill="#e0e0e0" stroke="#999999" points="1464.34,-129 1402.34,-129 1402.34,-110 1464.34,-110 1464.34,-129"/>
<text text-anchor="middle" x="1433.34" y="-117" font-family="Helvetica,sans-Serif" font-size="10.00">sys/time.h</text>
</a>
</g>
</g>
<!-- Node26&#45;&gt;Node29 -->
<g id="edge47_Node000026_Node000029" class="edge">
<title>Node26&#45;&gt;Node29</title>
<g id="a_edge47_Node000026_Node000029"><a xlink:title=" ">
<path fill="none" stroke="#63b8ff" d="M1213.15,-164.97C1256.22,-156.55 1324.08,-143.18 1392.28,-129.2"/>
<polygon fill="#63b8ff" stroke="#63b8ff" points="1393.25,-132.57 1402.34,-127.13 1391.84,-125.71 1393.25,-132.57"/>
</a>
</g>
</g>
<!-- Node30 -->
<g id="Node000030" class="node">
<title>Node30</title>
<g id="a_Node000030"><a xlink:title=" ">
<polygon fill="#e0e0e0" stroke="#999999" points="1196.34,-129 1142.34,-129 1142.34,-110 1196.34,-110 1196.34,-129"/>
<text text-anchor="middle" x="1169.34" y="-117" font-family="Helvetica,sans-Serif" font-size="10.00">sys/un.h</text>
</a>
</g>
</g>
<!-- Node26&#45;&gt;Node30 -->
<g id="edge49_Node000026_Node000030" class="edge">
<title>Node26&#45;&gt;Node30</title>
<g id="a_edge49_Node000026_Node000030"><a xlink:title=" ">
<path fill="none" stroke="#63b8ff" d="M1169.34,-164.75C1169.34,-157.8 1169.34,-147.85 1169.34,-139.13"/>
<polygon fill="#63b8ff" stroke="#63b8ff" points="1172.84,-139.09 1169.34,-129.09 1165.84,-139.09 1172.84,-139.09"/>
</a>
</g>
</g>
<!-- Node31&#45;&gt;Node3 -->
<g id="edge56_Node000031_Node000003" class="edge">
<title>Node31&#45;&gt;Node3</title>
<g id="a_edge56_Node000031_Node000003"><a xlink:title=" ">
<path fill="none" stroke="#63b8ff" d="M659.22,-274.88C632.62,-253.52 565.48,-195.11 537.34,-129 531.3,-114.82 530.06,-97.28 530.18,-84.23"/>
<polygon fill="#63b8ff" stroke="#63b8ff" points="533.68,-84.24 530.55,-74.12 526.68,-83.98 533.68,-84.24"/>
</a>
</g>
</g>
<!-- Node31&#45;&gt;Node4 -->
<g id="edge54_Node000031_Node000004" class="edge">
<title>Node31&#45;&gt;Node4</title>
<g id="a_edge54_Node000031_Node000004"><a xlink:title=" ">
<path fill="none" stroke="#63b8ff" d="M674.1,-274.95C688.29,-242.74 738.71,-128.23 758.39,-83.55"/>
<polygon fill="#63b8ff" stroke="#63b8ff" points="761.67,-84.79 762.5,-74.22 755.26,-81.97 761.67,-84.79"/>
</a>
</g>
</g>
<!-- Node31&#45;&gt;Node8 -->
<g id="edge57_Node000031_Node000008" class="edge">
<title>Node31&#45;&gt;Node8</title>
<g id="a_edge57_Node000031_Node000008"><a xlink:title=" ">
<path fill="none" stroke="#63b8ff" d="M670.34,-274.74C670.34,-249.31 670.34,-175.08 670.34,-139.69"/>
<polygon fill="#63b8ff" stroke="#63b8ff" points="673.84,-139.31 670.34,-129.31 666.84,-139.31 673.84,-139.31"/>
</a>
</g>
</g>
<!-- Node31&#45;&gt;Node23 -->
<g id="edge55_Node000031_Node000023" class="edge">
<title>Node31&#45;&gt;Node23</title>
<g id="a_edge55_Node000031_Node000023"><a xlink:title=" ">
<path fill="none" stroke="#63b8ff" d="M701.35,-274.98C734.17,-265.97 786.13,-251.7 822.33,-241.76"/>
<polygon fill="#63b8ff" stroke="#63b8ff" points="823.37,-245.11 832.09,-239.08 821.52,-238.36 823.37,-245.11"/>
</a>
</g>
</g>
</g>
</svg>
