<?xml version="1.0" encoding="UTF-8" standalone="no"?>
<!DOCTYPE svg PUBLIC "-//W3C//DTD SVG 1.1//EN"
 "http://www.w3.org/Graphics/SVG/1.1/DTD/svg11.dtd">
<!-- Generated by graphviz version 2.43.0 (0)
 -->
<!-- Title: SocketAsync.h Pages: 1 -->
<!--zoomable 302 -->

<svg id="main" version="1.1" xmlns="http://www.w3.org/2000/svg" xmlns:xlink="http://www.w3.org/1999/xlink" xml:space="preserve" onload="init(evt)">
<style type="text/css"><![CDATA[
.node, .edge {opacity: 0.7;}
.node.selected, .edge.selected {opacity: 1;}
.edge:hover path { stroke: red; }
.edge:hover polygon { stroke: red; fill: red; }
]]></style>

<defs>
  <circle id="rim" cx="0" cy="0" r="7"/>
  <circle id="rim2" cx="0" cy="0" r="3.5"/>
  <g id="zoomPlus">
    <use xlink:href="#rim" fill="#404040"><set attributeName="fill" to="#808080" begin="zoomplus.mouseover" end="zoomplus.mouseout"/></use>
    <path d="M-4,0h8M0,-4v8" fill="none" stroke="white" stroke-width="1.5" pointer-events="none"/>
  </g>
  <g id="zoomMin">
    <use xlink:href="#rim" fill="#404040"><set attributeName="fill" to="#808080" begin="zoomminus.mouseover" end="zoomminus.mouseout"/></use>
    <path d="M-4,0h8" fill="none" stroke="white" stroke-width="1.5" pointer-events="none"/>
  </g>
  <g id="arrowUp" transform="translate(30 24)">
    <use xlink:href="#rim"/>
    <path pointer-events="none" fill="none" stroke="white" stroke-width="1.5" d="M0,-3.0v7 M-2.5,-0.5L0,-3.0L2.5,-0.5"/>
  </g>
  <g id="arrowRight" transform="rotate(90) translate(36 -43)">
    <use xlink:href="#rim"/>
    <path pointer-events="none" fill="none" stroke="white" stroke-width="1.5" d="M0,-3.0v7 M-2.5,-0.5L0,-3.0L2.5,-0.5"/>
  </g>
  <g id="arrowDown" transform="rotate(180) translate(-30 -48)">
    <use xlink:href="#rim"/>
    <path pointer-events="none" fill="none" stroke="white" stroke-width="1.5" d="M0,-3.0v7 M-2.5,-0.5L0,-3.0L2.5,-0.5"/>
  </g>
  <g id="arrowLeft" transform="rotate(270) translate(-36 17)">
    <use xlink:href="#rim"/>
    <path pointer-events="none" fill="none" stroke="white" stroke-width="1.5" d="M0,-3.0v7 M-2.5,-0.5L0,-3.0L2.5,-0.5"/>
  </g>
  <g id="resetDef">
    <use xlink:href="#rim2" fill="#404040"><set attributeName="fill" to="#808080" begin="reset.mouseover" end="reset.mouseout"/></use>
  </g>
</defs>
<script type="application/ecmascript">
var viewWidth = 1204;
var viewHeight = 302;
var sectionId = 'dynsection-0';
</script>
<script type="application/ecmascript" xlink:href="svg.min.js"/>
<svg id="graph" class="graph">
<g id="viewport">
<title>SocketAsync.h</title>
<!-- Node1 -->
<g id="Node000001" class="node">
<title>Node1</title>
<g id="a_Node000001"><a xlink:title="Platform&#45;optimized asynchronous I/O for high&#45;performance networking.">
<polygon fill="#999999" stroke="#666666" points="1163,-294 1080,-294 1080,-275 1163,-275 1163,-294"/>
<text text-anchor="middle" x="1121.5" y="-282" font-family="Helvetica,sans-Serif" font-size="10.00">SocketAsync.h</text>
</a>
</g>
</g>
<!-- Node2 -->
<g id="Node000002" class="node">
<title>Node2</title>
<g id="a_Node000002"><a xlink:href="Except_8h.html" target="_top" xlink:title="Structured exception handling for C with TRY/EXCEPT/FINALLY blocks.">
<polygon fill="white" stroke="#666666" points="1196,-74 1119,-74 1119,-55 1196,-55 1196,-74"/>
<text text-anchor="middle" x="1157.5" y="-62" font-family="Helvetica,sans-Serif" font-size="10.00">core/Except.h</text>
</a>
</g>
</g>
<!-- Node1&#45;&gt;Node2 -->
<g id="edge1_Node000001_Node000002" class="edge">
<title>Node1&#45;&gt;Node2</title>
<g id="a_edge1_Node000001_Node000002"><a xlink:title=" ">
<path fill="none" stroke="#63b8ff" d="M1123,-274.79C1127.04,-251.29 1138.45,-184.57 1147.5,-129 1149.95,-113.99 1152.62,-96.96 1154.59,-84.32"/>
<polygon fill="#63b8ff" stroke="#63b8ff" points="1158.1,-84.55 1156.17,-74.13 1151.18,-83.48 1158.1,-84.55"/>
</a>
</g>
</g>
<!-- Node4 -->
<g id="Node000004" class="node">
<title>Node4</title>
<g id="a_Node000004"><a xlink:href="Socket_8h.html" target="_top" xlink:title="High&#45;level TCP/IP and Unix domain socket interface.">
<polygon fill="white" stroke="#666666" points="1070.5,-239 982.5,-239 982.5,-220 1070.5,-220 1070.5,-239"/>
<text text-anchor="middle" x="1026.5" y="-227" font-family="Helvetica,sans-Serif" font-size="10.00">socket/Socket.h</text>
</a>
</g>
</g>
<!-- Node1&#45;&gt;Node4 -->
<g id="edge3_Node000001_Node000004" class="edge">
<title>Node1&#45;&gt;Node4</title>
<g id="a_edge3_Node000001_Node000004"><a xlink:title=" ">
<path fill="none" stroke="#63b8ff" d="M1106.24,-274.98C1091.37,-266.69 1068.52,-253.94 1051.08,-244.22"/>
<polygon fill="#63b8ff" stroke="#63b8ff" points="1052.48,-240.99 1042.04,-239.17 1049.07,-247.1 1052.48,-240.99"/>
</a>
</g>
</g>
<!-- Node3 -->
<g id="Node000003" class="node">
<title>Node3</title>
<g id="a_Node000003"><a xlink:title=" ">
<polygon fill="#e0e0e0" stroke="#999999" points="1184.5,-19 1130.5,-19 1130.5,0 1184.5,0 1184.5,-19"/>
<text text-anchor="middle" x="1157.5" y="-7" font-family="Helvetica,sans-Serif" font-size="10.00">setjmp.h</text>
</a>
</g>
</g>
<!-- Node2&#45;&gt;Node3 -->
<g id="edge2_Node000002_Node000003" class="edge">
<title>Node2&#45;&gt;Node3</title>
<g id="a_edge2_Node000002_Node000003"><a xlink:title=" ">
<path fill="none" stroke="#63b8ff" d="M1157.5,-54.75C1157.5,-47.8 1157.5,-37.85 1157.5,-29.13"/>
<polygon fill="#63b8ff" stroke="#63b8ff" points="1161,-29.09 1157.5,-19.09 1154,-29.09 1161,-29.09"/>
</a>
</g>
</g>
<!-- Node4&#45;&gt;Node2 -->
<g id="edge4_Node000004_Node000002" class="edge">
<title>Node4&#45;&gt;Node2</title>
<g id="a_edge4_Node000004_Node000002"><a xlink:title=" ">
<path fill="none" stroke="#63b8ff" d="M1037.47,-219.93C1057.46,-203.86 1100.29,-167.34 1127.5,-129 1137.52,-114.88 1145.66,-96.88 1150.92,-83.65"/>
<polygon fill="#63b8ff" stroke="#63b8ff" points="1154.21,-84.83 1154.5,-74.23 1147.67,-82.34 1154.21,-84.83"/>
</a>
</g>
</g>
<!-- Node5 -->
<g id="Node000005" class="node">
<title>Node5</title>
<g id="a_Node000005"><a xlink:href="SocketConfig_8h.html" target="_top" xlink:title="Compile&#45;time and runtime configuration constants, limits, and platform adaptations.">
<polygon fill="white" stroke="#666666" points="368.5,-129 262.5,-129 262.5,-110 368.5,-110 368.5,-129"/>
<text text-anchor="middle" x="315.5" y="-117" font-family="Helvetica,sans-Serif" font-size="10.00">core/SocketConfig.h</text>
</a>
</g>
</g>
<!-- Node4&#45;&gt;Node5 -->
<g id="edge5_Node000004_Node000005" class="edge">
<title>Node4&#45;&gt;Node5</title>
<g id="a_edge5_Node000004_Node000005"><a xlink:title=" ">
<path fill="none" stroke="#63b8ff" d="M982.27,-225.03C907.61,-218.86 751.97,-204.66 621.5,-184 528.29,-169.24 420.48,-145.22 360.94,-131.34"/>
<polygon fill="#63b8ff" stroke="#63b8ff" points="361.64,-127.91 351.1,-129.04 360.04,-134.73 361.64,-127.91"/>
</a>
</g>
</g>
<!-- Node15 -->
<g id="Node000015" class="node">
<title>Node15</title>
<g id="a_Node000015"><a xlink:href="SocketDNS_8h.html" target="_top" xlink:title="Asynchronous DNS resolution API for non&#45;blocking network applications.">
<polygon fill="white" stroke="#666666" points="1074.5,-129 978.5,-129 978.5,-110 1074.5,-110 1074.5,-129"/>
<text text-anchor="middle" x="1026.5" y="-117" font-family="Helvetica,sans-Serif" font-size="10.00">dns/SocketDNS.h</text>
</a>
</g>
</g>
<!-- Node4&#45;&gt;Node15 -->
<g id="edge15_Node000004_Node000015" class="edge">
<title>Node4&#45;&gt;Node15</title>
<g id="a_edge15_Node000004_Node000015"><a xlink:title=" ">
<path fill="none" stroke="#63b8ff" d="M1026.5,-219.66C1026.5,-202.17 1026.5,-162.8 1026.5,-139.27"/>
<polygon fill="#63b8ff" stroke="#63b8ff" points="1030,-139.16 1026.5,-129.16 1023,-139.16 1030,-139.16"/>
</a>
</g>
</g>
<!-- Node18 -->
<g id="Node000018" class="node">
<title>Node18</title>
<g id="a_Node000018"><a xlink:href="SocketCommon_8h.html" target="_top" xlink:title="Common utilities shared between Socket and SocketDgram modules.">
<polygon fill="white" stroke="#666666" points="758.5,-184 630.5,-184 630.5,-165 758.5,-165 758.5,-184"/>
<text text-anchor="middle" x="694.5" y="-172" font-family="Helvetica,sans-Serif" font-size="10.00">socket/SocketCommon.h</text>
</a>
</g>
</g>
<!-- Node4&#45;&gt;Node18 -->
<g id="edge21_Node000004_Node000018" class="edge">
<title>Node4&#45;&gt;Node18</title>
<g id="a_edge21_Node000004_Node000018"><a xlink:title=" ">
<path fill="none" stroke="#63b8ff" d="M982.41,-221.46C924.9,-212.28 823.88,-196.15 758.08,-185.65"/>
<polygon fill="#63b8ff" stroke="#63b8ff" points="758.26,-182.14 747.84,-184.01 757.16,-189.05 758.26,-182.14"/>
</a>
</g>
</g>
<!-- Node6 -->
<g id="Node000006" class="node">
<title>Node6</title>
<g id="a_Node000006"><a xlink:title=" ">
<polygon fill="#e0e0e0" stroke="#999999" points="116,-74 69,-74 69,-55 116,-55 116,-74"/>
<text text-anchor="middle" x="92.5" y="-62" font-family="Helvetica,sans-Serif" font-size="10.00">errno.h</text>
</a>
</g>
</g>
<!-- Node5&#45;&gt;Node6 -->
<g id="edge6_Node000005_Node000006" class="edge">
<title>Node5&#45;&gt;Node6</title>
<g id="a_edge6_Node000005_Node000006"><a xlink:title=" ">
<path fill="none" stroke="#63b8ff" d="M277.37,-109.98C240.87,-101.74 184.01,-88.7 126.27,-74.39"/>
<polygon fill="#63b8ff" stroke="#63b8ff" points="126.79,-70.91 116.24,-71.89 125.1,-77.71 126.79,-70.91"/>
</a>
</g>
</g>
<!-- Node7 -->
<g id="Node000007" class="node">
<title>Node7</title>
<g id="a_Node000007"><a xlink:title=" ">
<polygon fill="#e0e0e0" stroke="#999999" points="405.5,-74 361.5,-74 361.5,-55 405.5,-55 405.5,-74"/>
<text text-anchor="middle" x="383.5" y="-62" font-family="Helvetica,sans-Serif" font-size="10.00">fcntl.h</text>
</a>
</g>
</g>
<!-- Node5&#45;&gt;Node7 -->
<g id="edge7_Node000005_Node000007" class="edge">
<title>Node5&#45;&gt;Node7</title>
<g id="a_edge7_Node000005_Node000007"><a xlink:title=" ">
<path fill="none" stroke="#63b8ff" d="M326.43,-109.98C336.58,-102.07 351.92,-90.11 364.15,-80.58"/>
<polygon fill="#63b8ff" stroke="#63b8ff" points="366.64,-83.08 372.38,-74.17 362.34,-77.56 366.64,-83.08"/>
</a>
</g>
</g>
<!-- Node8 -->
<g id="Node000008" class="node">
<title>Node8</title>
<g id="a_Node000008"><a xlink:title=" ">
<polygon fill="#e0e0e0" stroke="#999999" points="489,-74 424,-74 424,-55 489,-55 489,-74"/>
<text text-anchor="middle" x="456.5" y="-62" font-family="Helvetica,sans-Serif" font-size="10.00">netinet/in.h</text>
</a>
</g>
</g>
<!-- Node5&#45;&gt;Node8 -->
<g id="edge8_Node000005_Node000008" class="edge">
<title>Node5&#45;&gt;Node8</title>
<g id="a_edge8_Node000005_Node000008"><a xlink:title=" ">
<path fill="none" stroke="#63b8ff" d="M338.15,-109.98C361.35,-101.27 397.62,-87.63 423.9,-77.75"/>
<polygon fill="#63b8ff" stroke="#63b8ff" points="425.3,-80.97 433.43,-74.17 422.84,-74.41 425.3,-80.97"/>
</a>
</g>
</g>
<!-- Node9 -->
<g id="Node000009" class="node">
<title>Node9</title>
<g id="a_Node000009"><a xlink:title=" ">
<polygon fill="#e0e0e0" stroke="#999999" points="205,-74 134,-74 134,-55 205,-55 205,-74"/>
<text text-anchor="middle" x="169.5" y="-62" font-family="Helvetica,sans-Serif" font-size="10.00">netinet/tcp.h</text>
</a>
</g>
</g>
<!-- Node5&#45;&gt;Node9 -->
<g id="edge9_Node000005_Node000009" class="edge">
<title>Node5&#45;&gt;Node9</title>
<g id="a_edge9_Node000005_Node000009"><a xlink:title=" ">
<path fill="none" stroke="#63b8ff" d="M292.04,-109.98C267.92,-101.23 230.13,-87.51 202.9,-77.62"/>
<polygon fill="#63b8ff" stroke="#63b8ff" points="203.98,-74.29 193.38,-74.17 201.59,-80.87 203.98,-74.29"/>
</a>
</g>
</g>
<!-- Node10 -->
<g id="Node000010" class="node">
<title>Node10</title>
<g id="a_Node000010"><a xlink:title=" ">
<polygon fill="#e0e0e0" stroke="#999999" points="650.5,-74 598.5,-74 598.5,-55 650.5,-55 650.5,-74"/>
<text text-anchor="middle" x="624.5" y="-62" font-family="Helvetica,sans-Serif" font-size="10.00">stddef.h</text>
</a>
</g>
</g>
<!-- Node5&#45;&gt;Node10 -->
<g id="edge10_Node000005_Node000010" class="edge">
<title>Node5&#45;&gt;Node10</title>
<g id="a_edge10_Node000005_Node000010"><a xlink:title=" ">
<path fill="none" stroke="#63b8ff" d="M368.54,-110.98C421.6,-103.21 505.73,-90.2 588.39,-73.89"/>
<polygon fill="#63b8ff" stroke="#63b8ff" points="589.08,-77.32 598.2,-71.93 587.71,-70.45 589.08,-77.32"/>
</a>
</g>
</g>
<!-- Node11 -->
<g id="Node000011" class="node">
<title>Node11</title>
<g id="a_Node000011"><a xlink:title=" ">
<polygon fill="#e0e0e0" stroke="#999999" points="269.5,-74 223.5,-74 223.5,-55 269.5,-55 269.5,-74"/>
<text text-anchor="middle" x="246.5" y="-62" font-family="Helvetica,sans-Serif" font-size="10.00">stdio.h</text>
</a>
</g>
</g>
<!-- Node5&#45;&gt;Node11 -->
<g id="edge11_Node000005_Node000011" class="edge">
<title>Node5&#45;&gt;Node11</title>
<g id="a_edge11_Node000005_Node000011"><a xlink:title=" ">
<path fill="none" stroke="#63b8ff" d="M304.41,-109.98C294.01,-102 278.24,-89.88 265.78,-80.31"/>
<polygon fill="#63b8ff" stroke="#63b8ff" points="267.85,-77.49 257.79,-74.17 263.59,-83.04 267.85,-77.49"/>
</a>
</g>
</g>
<!-- Node12 -->
<g id="Node000012" class="node">
<title>Node12</title>
<g id="a_Node000012"><a xlink:title=" ">
<polygon fill="#e0e0e0" stroke="#999999" points="580,-74 507,-74 507,-55 580,-55 580,-74"/>
<text text-anchor="middle" x="543.5" y="-62" font-family="Helvetica,sans-Serif" font-size="10.00">sys/socket.h</text>
</a>
</g>
</g>
<!-- Node5&#45;&gt;Node12 -->
<g id="edge12_Node000005_Node000012" class="edge">
<title>Node5&#45;&gt;Node12</title>
<g id="a_edge12_Node000005_Node000012"><a xlink:title=" ">
<path fill="none" stroke="#63b8ff" d="M352.13,-109.98C391.52,-100.83 454.24,-86.25 497.07,-76.29"/>
<polygon fill="#63b8ff" stroke="#63b8ff" points="498.01,-79.67 506.96,-73.99 496.43,-72.85 498.01,-79.67"/>
</a>
</g>
</g>
<!-- Node13 -->
<g id="Node000013" class="node">
<title>Node13</title>
<g id="a_Node000013"><a xlink:title=" ">
<polygon fill="#e0e0e0" stroke="#999999" points="343.5,-74 287.5,-74 287.5,-55 343.5,-55 343.5,-74"/>
<text text-anchor="middle" x="315.5" y="-62" font-family="Helvetica,sans-Serif" font-size="10.00">sys/uio.h</text>
</a>
</g>
</g>
<!-- Node5&#45;&gt;Node13 -->
<g id="edge13_Node000005_Node000013" class="edge">
<title>Node5&#45;&gt;Node13</title>
<g id="a_edge13_Node000005_Node000013"><a xlink:title=" ">
<path fill="none" stroke="#63b8ff" d="M315.5,-109.75C315.5,-102.8 315.5,-92.85 315.5,-84.13"/>
<polygon fill="#63b8ff" stroke="#63b8ff" points="319,-84.09 315.5,-74.09 312,-84.09 319,-84.09"/>
</a>
</g>
</g>
<!-- Node14 -->
<g id="Node000014" class="node">
<title>Node14</title>
<g id="a_Node000014"><a xlink:title=" ">
<polygon fill="#e0e0e0" stroke="#999999" points="51,-74 0,-74 0,-55 51,-55 51,-74"/>
<text text-anchor="middle" x="25.5" y="-62" font-family="Helvetica,sans-Serif" font-size="10.00">unistd.h</text>
</a>
</g>
</g>
<!-- Node5&#45;&gt;Node14 -->
<g id="edge14_Node000005_Node000014" class="edge">
<title>Node5&#45;&gt;Node14</title>
<g id="a_edge14_Node000005_Node000014"><a xlink:title=" ">
<path fill="none" stroke="#63b8ff" d="M262.33,-110.42C212.63,-102.6 136.15,-89.91 61.16,-74.23"/>
<polygon fill="#63b8ff" stroke="#63b8ff" points="61.58,-70.75 51.07,-72.11 60.14,-77.59 61.58,-70.75"/>
</a>
</g>
</g>
<!-- Node15&#45;&gt;Node2 -->
<g id="edge16_Node000015_Node000002" class="edge">
<title>Node15&#45;&gt;Node2</title>
<g id="a_edge16_Node000015_Node000002"><a xlink:title=" ">
<path fill="none" stroke="#63b8ff" d="M1047.55,-109.98C1068.91,-101.34 1102.2,-87.87 1126.56,-78.02"/>
<polygon fill="#63b8ff" stroke="#63b8ff" points="1128.11,-81.17 1136.07,-74.17 1125.49,-74.68 1128.11,-81.17"/>
</a>
</g>
</g>
<!-- Node15&#45;&gt;Node10 -->
<g id="edge18_Node000015_Node000010" class="edge">
<title>Node15&#45;&gt;Node10</title>
<g id="a_edge18_Node000015_Node000010"><a xlink:title=" ">
<path fill="none" stroke="#63b8ff" d="M978.31,-111.25C975.33,-110.82 972.37,-110.4 969.5,-110 857.26,-94.39 724.2,-77.76 661.15,-69.99"/>
<polygon fill="#63b8ff" stroke="#63b8ff" points="661.28,-66.48 650.93,-68.73 660.42,-73.42 661.28,-66.48"/>
</a>
</g>
</g>
<!-- Node15&#45;&gt;Node12 -->
<g id="edge20_Node000015_Node000012" class="edge">
<title>Node15&#45;&gt;Node12</title>
<g id="a_edge20_Node000015_Node000012"><a xlink:title=" ">
<path fill="none" stroke="#63b8ff" d="M978.32,-111.13C975.34,-110.73 972.38,-110.35 969.5,-110 804.31,-89.87 759.22,-97.14 590.1,-73.95"/>
<polygon fill="#63b8ff" stroke="#63b8ff" points="590.5,-70.47 580.11,-72.57 589.54,-77.41 590.5,-70.47"/>
</a>
</g>
</g>
<!-- Node16 -->
<g id="Node000016" class="node">
<title>Node16</title>
<g id="a_Node000016"><a xlink:title=" ">
<polygon fill="#e0e0e0" stroke="#999999" points="1101,-74 1052,-74 1052,-55 1101,-55 1101,-74"/>
<text text-anchor="middle" x="1076.5" y="-62" font-family="Helvetica,sans-Serif" font-size="10.00">netdb.h</text>
</a>
</g>
</g>
<!-- Node15&#45;&gt;Node16 -->
<g id="edge17_Node000015_Node000016" class="edge">
<title>Node15&#45;&gt;Node16</title>
<g id="a_edge17_Node000015_Node000016"><a xlink:title=" ">
<path fill="none" stroke="#63b8ff" d="M1034.76,-109.75C1041.96,-102.11 1052.61,-90.82 1061.35,-81.56"/>
<polygon fill="#63b8ff" stroke="#63b8ff" points="1064.08,-83.76 1068.4,-74.09 1058.99,-78.96 1064.08,-83.76"/>
</a>
</g>
</g>
<!-- Node17 -->
<g id="Node000017" class="node">
<title>Node17</title>
<g id="a_Node000017"><a xlink:title=" ">
<polygon fill="#e0e0e0" stroke="#999999" points="1034,-74 985,-74 985,-55 1034,-55 1034,-74"/>
<text text-anchor="middle" x="1009.5" y="-62" font-family="Helvetica,sans-Serif" font-size="10.00">stdint.h</text>
</a>
</g>
</g>
<!-- Node15&#45;&gt;Node17 -->
<g id="edge19_Node000015_Node000017" class="edge">
<title>Node15&#45;&gt;Node17</title>
<g id="a_edge19_Node000015_Node000017"><a xlink:title=" ">
<path fill="none" stroke="#63b8ff" d="M1023.69,-109.75C1021.44,-102.72 1018.2,-92.62 1015.38,-83.84"/>
<polygon fill="#63b8ff" stroke="#63b8ff" points="1018.64,-82.54 1012.25,-74.09 1011.98,-84.68 1018.64,-82.54"/>
</a>
</g>
</g>
<!-- Node18&#45;&gt;Node2 -->
<g id="edge34_Node000018_Node000002" class="edge">
<title>Node18&#45;&gt;Node2</title>
<g id="a_edge34_Node000018_Node000002"><a xlink:title=" ">
<path fill="none" stroke="#63b8ff" d="M758.79,-172.08C858.09,-168.95 1043.37,-159.15 1101.5,-129 1121.41,-118.67 1137.48,-98.1 1147.21,-83.16"/>
<polygon fill="#63b8ff" stroke="#63b8ff" points="1150.4,-84.67 1152.67,-74.32 1144.44,-80.99 1150.4,-84.67"/>
</a>
</g>
</g>
<!-- Node18&#45;&gt;Node5 -->
<g id="edge35_Node000018_Node000005" class="edge">
<title>Node18&#45;&gt;Node5</title>
<g id="a_edge35_Node000018_Node000005"><a xlink:title=" ">
<path fill="none" stroke="#63b8ff" d="M633.61,-164.98C563.7,-155.21 449.59,-139.25 378.72,-129.34"/>
<polygon fill="#63b8ff" stroke="#63b8ff" points="378.98,-125.84 368.59,-127.92 378.01,-132.78 378.98,-125.84"/>
</a>
</g>
</g>
<!-- Node18&#45;&gt;Node7 -->
<g id="edge24_Node000018_Node000007" class="edge">
<title>Node18&#45;&gt;Node7</title>
<g id="a_edge24_Node000018_Node000007"><a xlink:title=" ">
<path fill="none" stroke="#63b8ff" d="M630.37,-169.06C583.07,-163.91 518.07,-152.82 465.5,-129 439.76,-117.34 414.76,-96.11 399.27,-81.43"/>
<polygon fill="#63b8ff" stroke="#63b8ff" points="401.3,-78.52 391.7,-74.05 396.42,-83.53 401.3,-78.52"/>
</a>
</g>
</g>
<!-- Node18&#45;&gt;Node8 -->
<g id="edge26_Node000018_Node000008" class="edge">
<title>Node18&#45;&gt;Node8</title>
<g id="a_edge26_Node000018_Node000008"><a xlink:title=" ">
<path fill="none" stroke="#63b8ff" d="M630.26,-166.52C576.67,-159.53 505.62,-147.19 483.5,-129 469.93,-117.84 463.05,-98.63 459.65,-84.26"/>
<polygon fill="#63b8ff" stroke="#63b8ff" points="463.07,-83.53 457.67,-74.42 456.21,-84.91 463.07,-83.53"/>
</a>
</g>
</g>
<!-- Node18&#45;&gt;Node12 -->
<g id="edge27_Node000018_Node000012" class="edge">
<title>Node18&#45;&gt;Node12</title>
<g id="a_edge27_Node000018_Node000012"><a xlink:title=" ">
<path fill="none" stroke="#63b8ff" d="M630.24,-168.07C577.48,-162.12 508.75,-150.43 491.5,-129 477.71,-111.86 499.46,-92.31 518.9,-79.48"/>
<polygon fill="#63b8ff" stroke="#63b8ff" points="520.9,-82.35 527.53,-74.09 517.19,-76.41 520.9,-82.35"/>
</a>
</g>
</g>
<!-- Node18&#45;&gt;Node16 -->
<g id="edge25_Node000018_Node000016" class="edge">
<title>Node18&#45;&gt;Node16</title>
<g id="a_edge25_Node000018_Node000016"><a xlink:title=" ">
<path fill="none" stroke="#63b8ff" d="M758.59,-170.75C863.47,-165.6 1062.29,-152.78 1083.5,-129 1094.33,-116.86 1090.45,-97.8 1085.17,-83.72"/>
<polygon fill="#63b8ff" stroke="#63b8ff" points="1088.22,-81.95 1081.07,-74.13 1081.78,-84.7 1088.22,-81.95"/>
</a>
</g>
</g>
<!-- Node19 -->
<g id="Node000019" class="node">
<title>Node19</title>
<g id="a_Node000019"><a xlink:title=" ">
<polygon fill="#e0e0e0" stroke="#999999" points="648,-129 591,-129 591,-110 648,-110 648,-129"/>
<text text-anchor="middle" x="619.5" y="-117" font-family="Helvetica,sans-Serif" font-size="10.00">pthread.h</text>
</a>
</g>
</g>
<!-- Node18&#45;&gt;Node19 -->
<g id="edge22_Node000018_Node000019" class="edge">
<title>Node18&#45;&gt;Node19</title>
<g id="a_edge22_Node000018_Node000019"><a xlink:title=" ">
<path fill="none" stroke="#63b8ff" d="M682.45,-164.98C671.04,-156.92 653.67,-144.65 640.07,-135.03"/>
<polygon fill="#63b8ff" stroke="#63b8ff" points="641.96,-132.08 631.77,-129.17 637.92,-137.8 641.96,-132.08"/>
</a>
</g>
</g>
<!-- Node20 -->
<g id="Node000020" class="node">
<title>Node20</title>
<g id="a_Node000020"><a xlink:title=" ">
<polygon fill="#e0e0e0" stroke="#999999" points="722.5,-129 666.5,-129 666.5,-110 722.5,-110 722.5,-129"/>
<text text-anchor="middle" x="694.5" y="-117" font-family="Helvetica,sans-Serif" font-size="10.00">stdbool.h</text>
</a>
</g>
</g>
<!-- Node18&#45;&gt;Node20 -->
<g id="edge23_Node000018_Node000020" class="edge">
<title>Node18&#45;&gt;Node20</title>
<g id="a_edge23_Node000018_Node000020"><a xlink:title=" ">
<path fill="none" stroke="#63b8ff" d="M694.5,-164.75C694.5,-157.8 694.5,-147.85 694.5,-139.13"/>
<polygon fill="#63b8ff" stroke="#63b8ff" points="698,-139.09 694.5,-129.09 691,-139.09 698,-139.09"/>
</a>
</g>
</g>
<!-- Node21 -->
<g id="Node000021" class="node">
<title>Node21</title>
<g id="a_Node000021"><a xlink:title=" ">
<polygon fill="#e0e0e0" stroke="#999999" points="802.5,-129 740.5,-129 740.5,-110 802.5,-110 802.5,-129"/>
<text text-anchor="middle" x="771.5" y="-117" font-family="Helvetica,sans-Serif" font-size="10.00">sys/time.h</text>
</a>
</g>
</g>
<!-- Node18&#45;&gt;Node21 -->
<g id="edge28_Node000018_Node000021" class="edge">
<title>Node18&#45;&gt;Node21</title>
<g id="a_edge28_Node000018_Node000021"><a xlink:title=" ">
<path fill="none" stroke="#63b8ff" d="M706.87,-164.98C718.59,-156.92 736.42,-144.65 750.39,-135.03"/>
<polygon fill="#63b8ff" stroke="#63b8ff" points="752.65,-137.72 758.9,-129.17 748.68,-131.96 752.65,-137.72"/>
</a>
</g>
</g>
<!-- Node22 -->
<g id="Node000022" class="node">
<title>Node22</title>
<g id="a_Node000022"><a xlink:title=" ">
<polygon fill="#e0e0e0" stroke="#999999" points="888.5,-129 820.5,-129 820.5,-110 888.5,-110 888.5,-129"/>
<text text-anchor="middle" x="854.5" y="-117" font-family="Helvetica,sans-Serif" font-size="10.00">sys/types.h</text>
</a>
</g>
</g>
<!-- Node18&#45;&gt;Node22 -->
<g id="edge29_Node000018_Node000022" class="edge">
<title>Node18&#45;&gt;Node22</title>
<g id="a_edge29_Node000018_Node000022"><a xlink:title=" ">
<path fill="none" stroke="#63b8ff" d="M720.21,-164.98C746.95,-156.13 789.03,-142.19 818.95,-132.28"/>
<polygon fill="#63b8ff" stroke="#63b8ff" points="820.2,-135.55 828.59,-129.08 818,-128.9 820.2,-135.55"/>
</a>
</g>
</g>
<!-- Node23 -->
<g id="Node000023" class="node">
<title>Node23</title>
<g id="a_Node000023"><a xlink:title=" ">
<polygon fill="#e0e0e0" stroke="#999999" points="960.5,-129 906.5,-129 906.5,-110 960.5,-110 960.5,-129"/>
<text text-anchor="middle" x="933.5" y="-117" font-family="Helvetica,sans-Serif" font-size="10.00">sys/un.h</text>
</a>
</g>
</g>
<!-- Node18&#45;&gt;Node23 -->
<g id="edge30_Node000018_Node000023" class="edge">
<title>Node18&#45;&gt;Node23</title>
<g id="a_edge30_Node000018_Node000023"><a xlink:title=" ">
<path fill="none" stroke="#63b8ff" d="M734.22,-164.99C773.09,-156.62 834.25,-143.33 896.4,-129.22"/>
<polygon fill="#63b8ff" stroke="#63b8ff" points="897.41,-132.58 906.38,-126.95 895.86,-125.76 897.41,-132.58"/>
</a>
</g>
</g>
<!-- Node24 -->
<g id="Node000024" class="node">
<title>Node24</title>
<g id="a_Node000024"><a xlink:href="Arena_8h.html" target="_top" xlink:title="Arena&#45;based memory allocator for efficient bulk memory management.">
<polygon fill="white" stroke="#666666" points="572.5,-129 500.5,-129 500.5,-110 572.5,-110 572.5,-129"/>
<text text-anchor="middle" x="536.5" y="-117" font-family="Helvetica,sans-Serif" font-size="10.00">core/Arena.h</text>
</a>
</g>
</g>
<!-- Node18&#45;&gt;Node24 -->
<g id="edge31_Node000018_Node000024" class="edge">
<title>Node18&#45;&gt;Node24</title>
<g id="a_edge31_Node000018_Node000024"><a xlink:title=" ">
<path fill="none" stroke="#63b8ff" d="M669.11,-164.98C642.7,-156.13 601.15,-142.19 571.61,-132.28"/>
<polygon fill="#63b8ff" stroke="#63b8ff" points="572.68,-128.94 562.08,-129.08 570.45,-135.58 572.68,-128.94"/>
</a>
</g>
</g>
<!-- Node24&#45;&gt;Node2 -->
<g id="edge33_Node000024_Node000002" class="edge">
<title>Node24&#45;&gt;Node2</title>
<g id="a_edge33_Node000024_Node000002"><a xlink:title=" ">
<path fill="none" stroke="#63b8ff" d="M572.79,-111.26C575.73,-110.79 578.66,-110.36 581.5,-110 811.5,-80.54 874.26,-101.92 1108.58,-73.96"/>
<polygon fill="#63b8ff" stroke="#63b8ff" points="1109.27,-77.4 1118.78,-72.72 1108.43,-70.45 1109.27,-77.4"/>
</a>
</g>
</g>
<!-- Node24&#45;&gt;Node10 -->
<g id="edge32_Node000024_Node000010" class="edge">
<title>Node24&#45;&gt;Node10</title>
<g id="a_edge32_Node000024_Node000010"><a xlink:title=" ">
<path fill="none" stroke="#63b8ff" d="M550.64,-109.98C564.29,-101.77 585.19,-89.18 601.28,-79.49"/>
<polygon fill="#63b8ff" stroke="#63b8ff" points="603.34,-82.33 610.1,-74.17 599.73,-76.33 603.34,-82.33"/>
</a>
</g>
</g>
</g>
</svg>

<g id="navigator" transform="translate(0 0)" fill="#404254">
  <rect fill="#f2f5e9" fill-opacity="0.5" stroke="#606060" stroke-width=".5" x="0" y="0" width="60" height="60"/>
  <use id="zoomplus" xlink:href="#zoomPlus" x="17" y="9" onmousedown="handleZoom(evt,'in')"/>
  <use id="zoomminus" xlink:href="#zoomMin" x="42" y="9" onmousedown="handleZoom(evt,'out')"/>
  <use id="reset" xlink:href="#resetDef" x="30" y="36" onmousedown="handleReset()"/>
   <use id="arrowup" xlink:href="#arrowUp" x="0" y="0" onmousedown="handlePan(0,-1)"/>
  <use id="arrowright" xlink:href="#arrowRight" x="0" y="0" onmousedown="handlePan(1,0)"/>
  <use id="arrowdown" xlink:href="#arrowDown" x="0" y="0" onmousedown="handlePan(0,1)"/>
  <use id="arrowleft" xlink:href="#arrowLeft" x="0" y="0" onmousedown="handlePan(-1,0)"/>
</g>
<svg viewBox="0 0 15 15" width="100%" height="30px" preserveAspectRatio="xMaxYMin meet">
 <g id="arrow_out" transform="scale(0.3 0.3)">
  <a xlink:href="SocketAsync_8h__incl_org.svg" target="_base">
   <rect id="button" ry="5" rx="5" y="6" x="6" height="38" width="38"
        fill="#f2f5e9" fill-opacity="0.5" stroke="#606060" stroke-width="1.0"/>
   <path id="arrow"
     d="M 11.500037,31.436501 C 11.940474,20.09759 22.043105,11.32322 32.158766,21.979434 L 37.068811,17.246167 C 37.068811,17.246167 37.088388,32 37.088388,32 L 22.160133,31.978069 C 22.160133,31.978069 26.997745,27.140456 26.997745,27.140456 C 18.528582,18.264221 13.291696,25.230495 11.500037,31.436501 z"
     style="fill:#404040;"/>
  </a>
 </g>
</svg>

<style type='text/css'>
<![CDATA[
[data-mouse-over-selected='false'] { opacity: 0.7; }
[data-mouse-over-selected='true']  { opacity: 1.0; }
]]>
</style>
<script type="application/ecmascript"><![CDATA[
document.addEventListener('DOMContentLoaded', (event) => {
  highlightEdges();
  highlightAdjacentNodes();
});
]]></script>
</svg>
