<?xml version="1.0" encoding="UTF-8" standalone="no"?>
<!DOCTYPE svg PUBLIC "-//W3C//DTD SVG 1.1//EN"
 "http://www.w3.org/Graphics/SVG/1.1/DTD/svg11.dtd">
<!-- Generated by graphviz version 2.43.0 (0)
 -->
<!-- Title: SocketHTTPServer.h Pages: 1 -->
<svg width="1636pt" height="412pt"
 viewBox="0.00 0.00 1635.50 412.00" xmlns="http://www.w3.org/2000/svg" xmlns:xlink="http://www.w3.org/1999/xlink">
<g id="graph0" class="graph" transform="scale(1 1) rotate(0) translate(4 408)">
<title>SocketHTTPServer.h</title>
<!-- Node1 -->
<g id="Node000001" class="node">
<title>Node1</title>
<g id="a_Node000001"><a xlink:title=" ">
<polygon fill="#999999" stroke="#666666" points="281,-404 171,-404 171,-385 281,-385 281,-404"/>
<text text-anchor="middle" x="226" y="-392" font-family="Helvetica,sans-Serif" font-size="10.00">SocketHTTPServer.h</text>
</a>
</g>
</g>
<!-- Node2 -->
<g id="Node000002" class="node">
<title>Node2</title>
<g id="a_Node000002"><a xlink:title=" ">
<polygon fill="#e0e0e0" stroke="#999999" points="382,-74 330,-74 330,-55 382,-55 382,-74"/>
<text text-anchor="middle" x="356" y="-62" font-family="Helvetica,sans-Serif" font-size="10.00">stddef.h</text>
</a>
</g>
</g>
<!-- Node1&#45;&gt;Node2 -->
<g id="edge1_Node000001_Node000002" class="edge">
<title>Node1&#45;&gt;Node2</title>
<g id="a_edge1_Node000001_Node000002"><a xlink:title=" ">
<path fill="none" stroke="#63b8ff" d="M170.71,-390.59C103.81,-383.74 0,-360.95 0,-285.5 0,-285.5 0,-285.5 0,-173.5 0,-137.85 18.22,-127.98 49,-110 94.34,-83.51 248.72,-71.56 319.73,-67.36"/>
<polygon fill="#63b8ff" stroke="#63b8ff" points="320.19,-70.84 329.98,-66.78 319.79,-63.85 320.19,-70.84"/>
</a>
</g>
</g>
<!-- Node3 -->
<g id="Node000003" class="node">
<title>Node3</title>
<g id="a_Node000003"><a xlink:title=" ">
<polygon fill="#e0e0e0" stroke="#999999" points="215.5,-129 166.5,-129 166.5,-110 215.5,-110 215.5,-129"/>
<text text-anchor="middle" x="191" y="-117" font-family="Helvetica,sans-Serif" font-size="10.00">stdint.h</text>
</a>
</g>
</g>
<!-- Node1&#45;&gt;Node3 -->
<g id="edge2_Node000001_Node000003" class="edge">
<title>Node1&#45;&gt;Node3</title>
<g id="a_edge2_Node000001_Node000003"><a xlink:title=" ">
<path fill="none" stroke="#63b8ff" d="M209.97,-384.95C197.59,-377.35 181.35,-364.97 174,-349 140.93,-277.17 169.47,-179.13 183.87,-138.88"/>
<polygon fill="#63b8ff" stroke="#63b8ff" points="187.22,-139.93 187.42,-129.33 180.66,-137.49 187.22,-139.93"/>
</a>
</g>
</g>
<!-- Node4 -->
<g id="Node000004" class="node">
<title>Node4</title>
<g id="a_Node000004"><a xlink:title=" ">
<polygon fill="#e0e0e0" stroke="#999999" points="302,-129 234,-129 234,-110 302,-110 302,-129"/>
<text text-anchor="middle" x="268" y="-117" font-family="Helvetica,sans-Serif" font-size="10.00">sys/types.h</text>
</a>
</g>
</g>
<!-- Node1&#45;&gt;Node4 -->
<g id="edge3_Node000001_Node000004" class="edge">
<title>Node1&#45;&gt;Node4</title>
<g id="a_edge3_Node000001_Node000004"><a xlink:title=" ">
<path fill="none" stroke="#63b8ff" d="M227.35,-384.73C233.25,-346.38 256.84,-193.03 265.12,-139.25"/>
<polygon fill="#63b8ff" stroke="#63b8ff" points="268.61,-139.52 266.68,-129.11 261.7,-138.46 268.61,-139.52"/>
</a>
</g>
</g>
<!-- Node5 -->
<g id="Node000005" class="node">
<title>Node5</title>
<g id="a_Node000005"><a xlink:href="Arena_8h.html" target="_top" xlink:title=" ">
<polygon fill="white" stroke="#666666" points="392,-129 320,-129 320,-110 392,-110 392,-129"/>
<text text-anchor="middle" x="356" y="-117" font-family="Helvetica,sans-Serif" font-size="10.00">core/Arena.h</text>
</a>
</g>
</g>
<!-- Node1&#45;&gt;Node5 -->
<g id="edge4_Node000001_Node000005" class="edge">
<title>Node1&#45;&gt;Node5</title>
<g id="a_edge4_Node000001_Node000005"><a xlink:title=" ">
<path fill="none" stroke="#63b8ff" d="M226.35,-384.96C228.11,-352.53 238.36,-235.24 296,-165 305.96,-152.86 319.93,-142.24 331.88,-134.43"/>
<polygon fill="#63b8ff" stroke="#63b8ff" points="333.91,-137.29 340.53,-129.02 330.2,-131.36 333.91,-137.29"/>
</a>
</g>
</g>
<!-- Node6 -->
<g id="Node000006" class="node">
<title>Node6</title>
<g id="a_Node000006"><a xlink:href="Except_8h.html" target="_top" xlink:title=" ">
<polygon fill="white" stroke="#666666" points="553.5,-74 476.5,-74 476.5,-55 553.5,-55 553.5,-74"/>
<text text-anchor="middle" x="515" y="-62" font-family="Helvetica,sans-Serif" font-size="10.00">core/Except.h</text>
</a>
</g>
</g>
<!-- Node1&#45;&gt;Node6 -->
<g id="edge8_Node000001_Node000006" class="edge">
<title>Node1&#45;&gt;Node6</title>
<g id="a_edge8_Node000001_Node000006"><a xlink:title=" ">
<path fill="none" stroke="#63b8ff" d="M281.11,-388.66C383.08,-378.42 594.65,-350.68 637,-294 642.05,-287.24 640.77,-282.56 637,-275 606.95,-214.8 546.31,-244.08 516,-184 499.84,-151.97 505.23,-108.59 510.31,-84.19"/>
<polygon fill="#63b8ff" stroke="#63b8ff" points="513.79,-84.67 512.62,-74.14 506.97,-83.11 513.79,-84.67"/>
</a>
</g>
</g>
<!-- Node8 -->
<g id="Node000008" class="node">
<title>Node8</title>
<g id="a_Node000008"><a xlink:href="SocketHTTP_8h.html" target="_top" xlink:title=" ">
<polygon fill="white" stroke="#666666" points="138,-184 38,-184 38,-165 138,-165 138,-184"/>
<text text-anchor="middle" x="88" y="-172" font-family="Helvetica,sans-Serif" font-size="10.00">http/SocketHTTP.h</text>
</a>
</g>
</g>
<!-- Node1&#45;&gt;Node8 -->
<g id="edge9_Node000001_Node000008" class="edge">
<title>Node1&#45;&gt;Node8</title>
<g id="a_edge9_Node000001_Node000008"><a xlink:title=" ">
<path fill="none" stroke="#63b8ff" d="M193.86,-384.93C174.49,-378.18 150.77,-366.87 136,-349 97.9,-302.9 89.94,-228.77 88.35,-194.28"/>
<polygon fill="#63b8ff" stroke="#63b8ff" points="91.84,-194.08 88.02,-184.2 84.85,-194.31 91.84,-194.08"/>
</a>
</g>
</g>
<!-- Node10 -->
<g id="Node000010" class="node">
<title>Node10</title>
<g id="a_Node000010"><a xlink:href="SocketPoll_8h.html" target="_top" xlink:title=" ">
<polygon fill="white" stroke="#666666" points="774,-294 684,-294 684,-275 774,-275 774,-294"/>
<text text-anchor="middle" x="729" y="-282" font-family="Helvetica,sans-Serif" font-size="10.00">poll/SocketPoll.h</text>
</a>
</g>
</g>
<!-- Node1&#45;&gt;Node10 -->
<g id="edge16_Node000001_Node000010" class="edge">
<title>Node1&#45;&gt;Node10</title>
<g id="a_edge16_Node000001_Node000010"><a xlink:title=" ">
<path fill="none" stroke="#63b8ff" d="M281.27,-392.78C384.69,-390.66 603.05,-382.26 670,-349 690.76,-338.69 707.9,-317.8 718.26,-302.79"/>
<polygon fill="#63b8ff" stroke="#63b8ff" points="721.23,-304.63 723.8,-294.35 715.38,-300.79 721.23,-304.63"/>
</a>
</g>
</g>
<!-- Node12 -->
<g id="Node000012" class="node">
<title>Node12</title>
<g id="a_Node000012"><a xlink:href="Socket_8h.html" target="_top" xlink:title=" ">
<polygon fill="white" stroke="#666666" points="846,-239 758,-239 758,-220 846,-220 846,-239"/>
<text text-anchor="middle" x="802" y="-227" font-family="Helvetica,sans-Serif" font-size="10.00">socket/Socket.h</text>
</a>
</g>
</g>
<!-- Node1&#45;&gt;Node12 -->
<g id="edge51_Node000001_Node000012" class="edge">
<title>Node1&#45;&gt;Node12</title>
<g id="a_edge51_Node000001_Node000012"><a xlink:title=" ">
<path fill="none" stroke="#63b8ff" d="M281.28,-391.49C388.45,-387.06 620.57,-374.76 696,-349 739.29,-334.22 755.36,-330.45 783,-294 792.89,-280.96 797.65,-262.82 799.94,-249.26"/>
<polygon fill="#63b8ff" stroke="#63b8ff" points="803.43,-249.55 801.33,-239.17 796.49,-248.6 803.43,-249.55"/>
</a>
</g>
</g>
<!-- Node29 -->
<g id="Node000029" class="node">
<title>Node29</title>
<g id="a_Node000029"><a xlink:href="SocketTLSContext_8h.html" target="_top" xlink:title=" ">
<polygon fill="white" stroke="#666666" points="442,-349 320,-349 320,-330 442,-330 442,-349"/>
<text text-anchor="middle" x="381" y="-337" font-family="Helvetica,sans-Serif" font-size="10.00">tls/SocketTLSContext.h</text>
</a>
</g>
</g>
<!-- Node1&#45;&gt;Node29 -->
<g id="edge52_Node000001_Node000029" class="edge">
<title>Node1&#45;&gt;Node29</title>
<g id="a_edge52_Node000001_Node000029"><a xlink:title=" ">
<path fill="none" stroke="#63b8ff" d="M250.9,-384.98C276.7,-376.16 317.22,-362.31 346.18,-352.41"/>
<polygon fill="#63b8ff" stroke="#63b8ff" points="347.57,-355.63 355.9,-349.08 345.31,-349.01 347.57,-355.63"/>
</a>
</g>
</g>
<!-- Node5&#45;&gt;Node2 -->
<g id="edge5_Node000005_Node000002" class="edge">
<title>Node5&#45;&gt;Node2</title>
<g id="a_edge5_Node000005_Node000002"><a xlink:title=" ">
<path fill="none" stroke="#63b8ff" d="M356,-109.75C356,-102.8 356,-92.85 356,-84.13"/>
<polygon fill="#63b8ff" stroke="#63b8ff" points="359.5,-84.09 356,-74.09 352.5,-84.09 359.5,-84.09"/>
</a>
</g>
</g>
<!-- Node5&#45;&gt;Node6 -->
<g id="edge6_Node000005_Node000006" class="edge">
<title>Node5&#45;&gt;Node6</title>
<g id="a_edge6_Node000005_Node000006"><a xlink:title=" ">
<path fill="none" stroke="#63b8ff" d="M381.55,-109.98C408.12,-101.13 449.94,-87.19 479.67,-77.28"/>
<polygon fill="#63b8ff" stroke="#63b8ff" points="480.87,-80.56 489.25,-74.08 478.66,-73.92 480.87,-80.56"/>
</a>
</g>
</g>
<!-- Node7 -->
<g id="Node000007" class="node">
<title>Node7</title>
<g id="a_Node000007"><a xlink:title=" ">
<polygon fill="#e0e0e0" stroke="#999999" points="542,-19 488,-19 488,0 542,0 542,-19"/>
<text text-anchor="middle" x="515" y="-7" font-family="Helvetica,sans-Serif" font-size="10.00">setjmp.h</text>
</a>
</g>
</g>
<!-- Node6&#45;&gt;Node7 -->
<g id="edge7_Node000006_Node000007" class="edge">
<title>Node6&#45;&gt;Node7</title>
<g id="a_edge7_Node000006_Node000007"><a xlink:title=" ">
<path fill="none" stroke="#63b8ff" d="M515,-54.75C515,-47.8 515,-37.85 515,-29.13"/>
<polygon fill="#63b8ff" stroke="#63b8ff" points="518.5,-29.09 515,-19.09 511.5,-29.09 518.5,-29.09"/>
</a>
</g>
</g>
<!-- Node8&#45;&gt;Node2 -->
<g id="edge10_Node000008_Node000002" class="edge">
<title>Node8&#45;&gt;Node2</title>
<g id="a_edge10_Node000008_Node000002"><a xlink:title=" ">
<path fill="none" stroke="#63b8ff" d="M78.07,-164.89C64.24,-151.87 42.42,-126.91 57,-110 90.49,-71.15 247.15,-65.69 319.37,-65.27"/>
<polygon fill="#63b8ff" stroke="#63b8ff" points="319.8,-68.77 329.8,-65.24 319.79,-61.77 319.8,-68.77"/>
</a>
</g>
</g>
<!-- Node8&#45;&gt;Node3 -->
<g id="edge11_Node000008_Node000003" class="edge">
<title>Node8&#45;&gt;Node3</title>
<g id="a_edge11_Node000008_Node000003"><a xlink:title=" ">
<path fill="none" stroke="#63b8ff" d="M104.55,-164.98C120.89,-156.57 146.13,-143.59 165.13,-133.81"/>
<polygon fill="#63b8ff" stroke="#63b8ff" points="166.86,-136.86 174.15,-129.17 163.66,-130.63 166.86,-136.86"/>
</a>
</g>
</g>
<!-- Node8&#45;&gt;Node4 -->
<g id="edge12_Node000008_Node000004" class="edge">
<title>Node8&#45;&gt;Node4</title>
<g id="a_edge12_Node000008_Node000004"><a xlink:title=" ">
<path fill="none" stroke="#63b8ff" d="M116.92,-164.98C147.27,-156.05 195.17,-141.94 228.88,-132.02"/>
<polygon fill="#63b8ff" stroke="#63b8ff" points="230.25,-135.26 238.85,-129.08 228.27,-128.55 230.25,-135.26"/>
</a>
</g>
</g>
<!-- Node8&#45;&gt;Node5 -->
<g id="edge14_Node000008_Node000005" class="edge">
<title>Node8&#45;&gt;Node5</title>
<g id="a_edge14_Node000008_Node000005"><a xlink:title=" ">
<path fill="none" stroke="#63b8ff" d="M131.06,-164.98C180.06,-155.29 259.79,-139.53 309.99,-129.6"/>
<polygon fill="#63b8ff" stroke="#63b8ff" points="310.79,-133.01 319.92,-127.63 309.43,-126.14 310.79,-133.01"/>
</a>
</g>
</g>
<!-- Node8&#45;&gt;Node6 -->
<g id="edge15_Node000008_Node000006" class="edge">
<title>Node8&#45;&gt;Node6</title>
<g id="a_edge15_Node000008_Node000006"><a xlink:title=" ">
<path fill="none" stroke="#63b8ff" d="M94.62,-164.71C105.88,-150.48 130.26,-122.73 158,-110 185.43,-97.41 374.98,-78.46 466.18,-69.93"/>
<polygon fill="#63b8ff" stroke="#63b8ff" points="466.64,-73.41 476.27,-69 465.99,-66.44 466.64,-73.41"/>
</a>
</g>
</g>
<!-- Node9 -->
<g id="Node000009" class="node">
<title>Node9</title>
<g id="a_Node000009"><a xlink:title=" ">
<polygon fill="#e0e0e0" stroke="#999999" points="110,-129 66,-129 66,-110 110,-110 110,-129"/>
<text text-anchor="middle" x="88" y="-117" font-family="Helvetica,sans-Serif" font-size="10.00">time.h</text>
</a>
</g>
</g>
<!-- Node8&#45;&gt;Node9 -->
<g id="edge13_Node000008_Node000009" class="edge">
<title>Node8&#45;&gt;Node9</title>
<g id="a_edge13_Node000008_Node000009"><a xlink:title=" ">
<path fill="none" stroke="#63b8ff" d="M88,-164.75C88,-157.8 88,-147.85 88,-139.13"/>
<polygon fill="#63b8ff" stroke="#63b8ff" points="91.5,-139.09 88,-129.09 84.5,-139.09 91.5,-139.09"/>
</a>
</g>
</g>
<!-- Node10&#45;&gt;Node6 -->
<g id="edge17_Node000010_Node000006" class="edge">
<title>Node10&#45;&gt;Node6</title>
<g id="a_edge17_Node000010_Node000006"><a xlink:title=" ">
<path fill="none" stroke="#63b8ff" d="M723.17,-274.97C709.18,-254.77 672.1,-202.91 635,-165 626.09,-155.89 565.37,-106.35 533.87,-80.79"/>
<polygon fill="#63b8ff" stroke="#63b8ff" points="535.8,-77.85 525.83,-74.26 531.39,-83.28 535.8,-77.85"/>
</a>
</g>
</g>
<!-- Node11 -->
<g id="Node000011" class="node">
<title>Node11</title>
<g id="a_Node000011"><a xlink:href="SocketTimer_8h.html" target="_top" xlink:title=" ">
<polygon fill="white" stroke="#666666" points="625.5,-184 524.5,-184 524.5,-165 625.5,-165 625.5,-184"/>
<text text-anchor="middle" x="575" y="-172" font-family="Helvetica,sans-Serif" font-size="10.00">core/SocketTimer.h</text>
</a>
</g>
</g>
<!-- Node10&#45;&gt;Node11 -->
<g id="edge18_Node000010_Node000011" class="edge">
<title>Node10&#45;&gt;Node11</title>
<g id="a_edge18_Node000010_Node000011"><a xlink:title=" ">
<path fill="none" stroke="#63b8ff" d="M707.46,-274.97C688.76,-267.06 661.39,-254.23 640,-239 620.63,-225.21 601.54,-205.65 589.11,-191.89"/>
<polygon fill="#63b8ff" stroke="#63b8ff" points="591.54,-189.35 582.29,-184.18 586.29,-193.99 591.54,-189.35"/>
</a>
</g>
</g>
<!-- Node10&#45;&gt;Node12 -->
<g id="edge21_Node000010_Node000012" class="edge">
<title>Node10&#45;&gt;Node12</title>
<g id="a_edge21_Node000010_Node000012"><a xlink:title=" ">
<path fill="none" stroke="#63b8ff" d="M740.73,-274.98C751.73,-267 768.42,-254.88 781.6,-245.31"/>
<polygon fill="#63b8ff" stroke="#63b8ff" points="784.02,-247.88 790.06,-239.17 779.91,-242.21 784.02,-247.88"/>
</a>
</g>
</g>
<!-- Node11&#45;&gt;Node3 -->
<g id="edge20_Node000011_Node000003" class="edge">
<title>Node11&#45;&gt;Node3</title>
<g id="a_edge20_Node000011_Node000003"><a xlink:title=" ">
<path fill="none" stroke="#63b8ff" d="M524.28,-168.96C457.94,-162.59 337.94,-149.64 225.93,-128.96"/>
<polygon fill="#63b8ff" stroke="#63b8ff" points="226.28,-125.46 215.81,-127.06 224.99,-132.34 226.28,-125.46"/>
</a>
</g>
</g>
<!-- Node11&#45;&gt;Node6 -->
<g id="edge19_Node000011_Node000006" class="edge">
<title>Node11&#45;&gt;Node6</title>
<g id="a_edge19_Node000011_Node000006"><a xlink:title=" ">
<path fill="none" stroke="#63b8ff" d="M570.09,-164.66C560.2,-146.85 537.7,-106.37 524.73,-83.01"/>
<polygon fill="#63b8ff" stroke="#63b8ff" points="527.73,-81.2 519.81,-74.16 521.61,-84.6 527.73,-81.2"/>
</a>
</g>
</g>
<!-- Node12&#45;&gt;Node6 -->
<g id="edge22_Node000012_Node000006" class="edge">
<title>Node12&#45;&gt;Node6</title>
<g id="a_edge22_Node000012_Node000006"><a xlink:title=" ">
<path fill="none" stroke="#63b8ff" d="M786.97,-219.97C740.1,-193.35 596.3,-111.67 538.96,-79.11"/>
<polygon fill="#63b8ff" stroke="#63b8ff" points="540.65,-76.04 530.22,-74.15 537.19,-82.13 540.65,-76.04"/>
</a>
</g>
</g>
<!-- Node13 -->
<g id="Node000013" class="node">
<title>Node13</title>
<g id="a_Node000013"><a xlink:href="SocketConfig_8h.html" target="_top" xlink:title=" ">
<polygon fill="white" stroke="#666666" points="1350,-129 1244,-129 1244,-110 1350,-110 1350,-129"/>
<text text-anchor="middle" x="1297" y="-117" font-family="Helvetica,sans-Serif" font-size="10.00">core/SocketConfig.h</text>
</a>
</g>
</g>
<!-- Node12&#45;&gt;Node13 -->
<g id="edge23_Node000012_Node000013" class="edge">
<title>Node12&#45;&gt;Node13</title>
<g id="a_edge23_Node000012_Node000013"><a xlink:title=" ">
<path fill="none" stroke="#63b8ff" d="M841.26,-219.94C930.7,-200.42 1149.48,-152.69 1247.77,-131.24"/>
<polygon fill="#63b8ff" stroke="#63b8ff" points="1248.72,-134.62 1257.74,-129.07 1247.22,-127.78 1248.72,-134.62"/>
</a>
</g>
</g>
<!-- Node22 -->
<g id="Node000022" class="node">
<title>Node22</title>
<g id="a_Node000022"><a xlink:href="SocketDNS_8h.html" target="_top" xlink:title=" ">
<polygon fill="white" stroke="#666666" points="1074,-129 978,-129 978,-110 1074,-110 1074,-129"/>
<text text-anchor="middle" x="1026" y="-117" font-family="Helvetica,sans-Serif" font-size="10.00">dns/SocketDNS.h</text>
</a>
</g>
</g>
<!-- Node12&#45;&gt;Node22 -->
<g id="edge33_Node000012_Node000022" class="edge">
<title>Node12&#45;&gt;Node22</title>
<g id="a_edge33_Node000012_Node000022"><a xlink:title=" ">
<path fill="none" stroke="#63b8ff" d="M846.27,-223.56C881.35,-218.08 930.52,-206.79 968,-184 987.26,-172.29 1003.97,-152.32 1014.44,-137.89"/>
<polygon fill="#63b8ff" stroke="#63b8ff" points="1017.54,-139.56 1020.39,-129.36 1011.8,-135.56 1017.54,-139.56"/>
</a>
</g>
</g>
<!-- Node24 -->
<g id="Node000024" class="node">
<title>Node24</title>
<g id="a_Node000024"><a xlink:href="SocketCommon_8h.html" target="_top" xlink:title=" ">
<polygon fill="white" stroke="#666666" points="959,-184 831,-184 831,-165 959,-165 959,-184"/>
<text text-anchor="middle" x="895" y="-172" font-family="Helvetica,sans-Serif" font-size="10.00">socket/SocketCommon.h</text>
</a>
</g>
</g>
<!-- Node12&#45;&gt;Node24 -->
<g id="edge38_Node000012_Node000024" class="edge">
<title>Node12&#45;&gt;Node24</title>
<g id="a_edge38_Node000012_Node000024"><a xlink:title=" ">
<path fill="none" stroke="#63b8ff" d="M816.94,-219.98C831.5,-211.69 853.87,-198.94 870.93,-189.22"/>
<polygon fill="#63b8ff" stroke="#63b8ff" points="872.83,-192.16 879.79,-184.17 869.36,-186.08 872.83,-192.16"/>
</a>
</g>
</g>
<!-- Node13&#45;&gt;Node2 -->
<g id="edge28_Node000013_Node000002" class="edge">
<title>Node13&#45;&gt;Node2</title>
<g id="a_edge28_Node000013_Node000002"><a xlink:title=" ">
<path fill="none" stroke="#63b8ff" d="M1243.63,-116.05C1111.9,-109.9 760.69,-92.96 468,-74 442.75,-72.36 414.32,-70.2 392.42,-68.47"/>
<polygon fill="#63b8ff" stroke="#63b8ff" points="392.49,-64.96 382.24,-67.66 391.93,-71.94 392.49,-64.96"/>
</a>
</g>
</g>
<!-- Node14 -->
<g id="Node000014" class="node">
<title>Node14</title>
<g id="a_Node000014"><a xlink:title=" ">
<polygon fill="#e0e0e0" stroke="#999999" points="1627.5,-74 1580.5,-74 1580.5,-55 1627.5,-55 1627.5,-74"/>
<text text-anchor="middle" x="1604" y="-62" font-family="Helvetica,sans-Serif" font-size="10.00">errno.h</text>
</a>
</g>
</g>
<!-- Node13&#45;&gt;Node14 -->
<g id="edge24_Node000013_Node000014" class="edge">
<title>Node13&#45;&gt;Node14</title>
<g id="a_edge24_Node000013_Node000014"><a xlink:title=" ">
<path fill="none" stroke="#63b8ff" d="M1350.01,-111.51C1403.43,-104.12 1488.41,-91.38 1570.33,-74.19"/>
<polygon fill="#63b8ff" stroke="#63b8ff" points="1571.24,-77.58 1580.3,-72.08 1569.79,-70.73 1571.24,-77.58"/>
</a>
</g>
</g>
<!-- Node15 -->
<g id="Node000015" class="node">
<title>Node15</title>
<g id="a_Node000015"><a xlink:title=" ">
<polygon fill="#e0e0e0" stroke="#999999" points="1182,-74 1138,-74 1138,-55 1182,-55 1182,-74"/>
<text text-anchor="middle" x="1160" y="-62" font-family="Helvetica,sans-Serif" font-size="10.00">fcntl.h</text>
</a>
</g>
</g>
<!-- Node13&#45;&gt;Node15 -->
<g id="edge25_Node000013_Node000015" class="edge">
<title>Node13&#45;&gt;Node15</title>
<g id="a_edge25_Node000013_Node000015"><a xlink:title=" ">
<path fill="none" stroke="#63b8ff" d="M1274.99,-109.98C1252.55,-101.3 1217.52,-87.75 1192.01,-77.88"/>
<polygon fill="#63b8ff" stroke="#63b8ff" points="1193,-74.51 1182.41,-74.17 1190.48,-81.04 1193,-74.51"/>
</a>
</g>
</g>
<!-- Node16 -->
<g id="Node000016" class="node">
<title>Node16</title>
<g id="a_Node000016"><a xlink:title=" ">
<polygon fill="#e0e0e0" stroke="#999999" points="1265.5,-74 1200.5,-74 1200.5,-55 1265.5,-55 1265.5,-74"/>
<text text-anchor="middle" x="1233" y="-62" font-family="Helvetica,sans-Serif" font-size="10.00">netinet/in.h</text>
</a>
</g>
</g>
<!-- Node13&#45;&gt;Node16 -->
<g id="edge26_Node000013_Node000016" class="edge">
<title>Node13&#45;&gt;Node16</title>
<g id="a_edge26_Node000013_Node000016"><a xlink:title=" ">
<path fill="none" stroke="#63b8ff" d="M1286.72,-109.98C1277.16,-102.07 1262.72,-90.11 1251.22,-80.58"/>
<polygon fill="#63b8ff" stroke="#63b8ff" points="1253.4,-77.85 1243.47,-74.17 1248.94,-83.24 1253.4,-77.85"/>
</a>
</g>
</g>
<!-- Node17 -->
<g id="Node000017" class="node">
<title>Node17</title>
<g id="a_Node000017"><a xlink:title=" ">
<polygon fill="#e0e0e0" stroke="#999999" points="1354.5,-74 1283.5,-74 1283.5,-55 1354.5,-55 1354.5,-74"/>
<text text-anchor="middle" x="1319" y="-62" font-family="Helvetica,sans-Serif" font-size="10.00">netinet/tcp.h</text>
</a>
</g>
</g>
<!-- Node13&#45;&gt;Node17 -->
<g id="edge27_Node000013_Node000017" class="edge">
<title>Node13&#45;&gt;Node17</title>
<g id="a_edge27_Node000013_Node000017"><a xlink:title=" ">
<path fill="none" stroke="#63b8ff" d="M1300.63,-109.75C1303.58,-102.65 1307.83,-92.4 1311.51,-83.56"/>
<polygon fill="#63b8ff" stroke="#63b8ff" points="1314.83,-84.67 1315.43,-74.09 1308.37,-81.98 1314.83,-84.67"/>
</a>
</g>
</g>
<!-- Node18 -->
<g id="Node000018" class="node">
<title>Node18</title>
<g id="a_Node000018"><a xlink:title=" ">
<polygon fill="#e0e0e0" stroke="#999999" points="1419,-74 1373,-74 1373,-55 1419,-55 1419,-74"/>
<text text-anchor="middle" x="1396" y="-62" font-family="Helvetica,sans-Serif" font-size="10.00">stdio.h</text>
</a>
</g>
</g>
<!-- Node13&#45;&gt;Node18 -->
<g id="edge29_Node000013_Node000018" class="edge">
<title>Node13&#45;&gt;Node18</title>
<g id="a_edge29_Node000013_Node000018"><a xlink:title=" ">
<path fill="none" stroke="#63b8ff" d="M1312.91,-109.98C1328.55,-101.61 1352.66,-88.7 1370.88,-78.95"/>
<polygon fill="#63b8ff" stroke="#63b8ff" points="1372.64,-81.98 1379.8,-74.17 1369.34,-75.8 1372.64,-81.98"/>
</a>
</g>
</g>
<!-- Node19 -->
<g id="Node000019" class="node">
<title>Node19</title>
<g id="a_Node000019"><a xlink:title=" ">
<polygon fill="#e0e0e0" stroke="#999999" points="1119.5,-74 1046.5,-74 1046.5,-55 1119.5,-55 1119.5,-74"/>
<text text-anchor="middle" x="1083" y="-62" font-family="Helvetica,sans-Serif" font-size="10.00">sys/socket.h</text>
</a>
</g>
</g>
<!-- Node13&#45;&gt;Node19 -->
<g id="edge30_Node000013_Node000019" class="edge">
<title>Node13&#45;&gt;Node19</title>
<g id="a_edge30_Node000013_Node000019"><a xlink:title=" ">
<path fill="none" stroke="#63b8ff" d="M1262.62,-109.98C1225.91,-100.89 1167.62,-86.46 1127.45,-76.51"/>
<polygon fill="#63b8ff" stroke="#63b8ff" points="1128.2,-73.09 1117.65,-74.08 1126.52,-79.88 1128.2,-73.09"/>
</a>
</g>
</g>
<!-- Node20 -->
<g id="Node000020" class="node">
<title>Node20</title>
<g id="a_Node000020"><a xlink:title=" ">
<polygon fill="#e0e0e0" stroke="#999999" points="1493,-74 1437,-74 1437,-55 1493,-55 1493,-74"/>
<text text-anchor="middle" x="1465" y="-62" font-family="Helvetica,sans-Serif" font-size="10.00">sys/uio.h</text>
</a>
</g>
</g>
<!-- Node13&#45;&gt;Node20 -->
<g id="edge31_Node000013_Node000020" class="edge">
<title>Node13&#45;&gt;Node20</title>
<g id="a_edge31_Node000013_Node000020"><a xlink:title=" ">
<path fill="none" stroke="#63b8ff" d="M1323.99,-109.98C1352.2,-101.09 1396.64,-87.07 1428.08,-77.15"/>
<polygon fill="#63b8ff" stroke="#63b8ff" points="1429.31,-80.43 1437.8,-74.08 1427.21,-73.75 1429.31,-80.43"/>
</a>
</g>
</g>
<!-- Node21 -->
<g id="Node000021" class="node">
<title>Node21</title>
<g id="a_Node000021"><a xlink:title=" ">
<polygon fill="#e0e0e0" stroke="#999999" points="1562.5,-74 1511.5,-74 1511.5,-55 1562.5,-55 1562.5,-74"/>
<text text-anchor="middle" x="1537" y="-62" font-family="Helvetica,sans-Serif" font-size="10.00">unistd.h</text>
</a>
</g>
</g>
<!-- Node13&#45;&gt;Node21 -->
<g id="edge32_Node000013_Node000021" class="edge">
<title>Node13&#45;&gt;Node21</title>
<g id="a_edge32_Node000013_Node000021"><a xlink:title=" ">
<path fill="none" stroke="#63b8ff" d="M1337.91,-109.93C1377.23,-101.62 1438.58,-88.48 1501.32,-74.11"/>
<polygon fill="#63b8ff" stroke="#63b8ff" points="1502.44,-77.44 1511.4,-71.79 1500.87,-70.62 1502.44,-77.44"/>
</a>
</g>
</g>
<!-- Node22&#45;&gt;Node2 -->
<g id="edge36_Node000022_Node000002" class="edge">
<title>Node22&#45;&gt;Node2</title>
<g id="a_edge36_Node000022_Node000002"><a xlink:title=" ">
<path fill="none" stroke="#63b8ff" d="M977.68,-114.06C962.72,-112.72 946.18,-111.27 931,-110 825.38,-101.19 501.23,-76.52 392.21,-68.24"/>
<polygon fill="#63b8ff" stroke="#63b8ff" points="392.28,-64.74 382.05,-67.47 391.75,-71.72 392.28,-64.74"/>
</a>
</g>
</g>
<!-- Node22&#45;&gt;Node6 -->
<g id="edge34_Node000022_Node000006" class="edge">
<title>Node22&#45;&gt;Node6</title>
<g id="a_edge34_Node000022_Node000006"><a xlink:title=" ">
<path fill="none" stroke="#63b8ff" d="M977.96,-111.73C973.25,-111.12 968.53,-110.54 964,-110 818.71,-92.85 646.44,-77.04 563.88,-69.74"/>
<polygon fill="#63b8ff" stroke="#63b8ff" points="564.06,-66.24 553.79,-68.85 563.45,-73.22 564.06,-66.24"/>
</a>
</g>
</g>
<!-- Node22&#45;&gt;Node19 -->
<g id="edge37_Node000022_Node000019" class="edge">
<title>Node22&#45;&gt;Node19</title>
<g id="a_edge37_Node000022_Node000019"><a xlink:title=" ">
<path fill="none" stroke="#63b8ff" d="M1035.16,-109.98C1043.5,-102.23 1056.03,-90.58 1066.18,-81.14"/>
<polygon fill="#63b8ff" stroke="#63b8ff" points="1068.74,-83.54 1073.68,-74.17 1063.97,-78.42 1068.74,-83.54"/>
</a>
</g>
</g>
<!-- Node23 -->
<g id="Node000023" class="node">
<title>Node23</title>
<g id="a_Node000023"><a xlink:title=" ">
<polygon fill="#e0e0e0" stroke="#999999" points="1028.5,-74 979.5,-74 979.5,-55 1028.5,-55 1028.5,-74"/>
<text text-anchor="middle" x="1004" y="-62" font-family="Helvetica,sans-Serif" font-size="10.00">netdb.h</text>
</a>
</g>
</g>
<!-- Node22&#45;&gt;Node23 -->
<g id="edge35_Node000022_Node000023" class="edge">
<title>Node22&#45;&gt;Node23</title>
<g id="a_edge35_Node000022_Node000023"><a xlink:title=" ">
<path fill="none" stroke="#63b8ff" d="M1022.37,-109.75C1019.42,-102.65 1015.17,-92.4 1011.49,-83.56"/>
<polygon fill="#63b8ff" stroke="#63b8ff" points="1014.63,-81.98 1007.57,-74.09 1008.17,-84.67 1014.63,-81.98"/>
</a>
</g>
</g>
<!-- Node24&#45;&gt;Node4 -->
<g id="edge46_Node000024_Node000004" class="edge">
<title>Node24&#45;&gt;Node4</title>
<g id="a_edge46_Node000024_Node000004"><a xlink:title=" ">
<path fill="none" stroke="#63b8ff" d="M830.79,-171.11C724.81,-166.62 506.52,-155.04 312.31,-129.01"/>
<polygon fill="#63b8ff" stroke="#63b8ff" points="312.59,-125.52 302.21,-127.64 311.64,-132.46 312.59,-125.52"/>
</a>
</g>
</g>
<!-- Node24&#45;&gt;Node5 -->
<g id="edge48_Node000024_Node000005" class="edge">
<title>Node24&#45;&gt;Node5</title>
<g id="a_edge48_Node000024_Node000005"><a xlink:title=" ">
<path fill="none" stroke="#63b8ff" d="M830.79,-167.19C720.63,-156.35 498.23,-134.49 402.05,-125.03"/>
<polygon fill="#63b8ff" stroke="#63b8ff" points="402.35,-121.54 392.05,-124.04 401.66,-128.51 402.35,-121.54"/>
</a>
</g>
</g>
<!-- Node24&#45;&gt;Node6 -->
<g id="edge49_Node000024_Node000006" class="edge">
<title>Node24&#45;&gt;Node6</title>
<g id="a_edge49_Node000024_Node000006"><a xlink:title=" ">
<path fill="none" stroke="#63b8ff" d="M906.15,-164.95C921.72,-152.01 946.42,-127.15 931,-110 906.83,-83.1 668.49,-71.12 563.84,-67.13"/>
<polygon fill="#63b8ff" stroke="#63b8ff" points="563.67,-63.62 553.55,-66.75 563.41,-70.62 563.67,-63.62"/>
</a>
</g>
</g>
<!-- Node24&#45;&gt;Node13 -->
<g id="edge50_Node000024_Node000013" class="edge">
<title>Node24&#45;&gt;Node13</title>
<g id="a_edge50_Node000024_Node000013"><a xlink:title=" ">
<path fill="none" stroke="#63b8ff" d="M959.14,-165.04C1034.51,-155.11 1158.77,-138.72 1233.75,-128.84"/>
<polygon fill="#63b8ff" stroke="#63b8ff" points="1234.54,-132.27 1244,-127.49 1233.62,-125.33 1234.54,-132.27"/>
</a>
</g>
</g>
<!-- Node24&#45;&gt;Node15 -->
<g id="edge41_Node000024_Node000015" class="edge">
<title>Node24&#45;&gt;Node15</title>
<g id="a_edge41_Node000024_Node000015"><a xlink:title=" ">
<path fill="none" stroke="#63b8ff" d="M959.43,-172.84C1006.01,-169.57 1068.62,-159.18 1115,-129 1132.11,-117.86 1144.7,-97.74 1152.15,-83.13"/>
<polygon fill="#63b8ff" stroke="#63b8ff" points="1155.32,-84.6 1156.47,-74.07 1149.01,-81.59 1155.32,-84.6"/>
</a>
</g>
</g>
<!-- Node24&#45;&gt;Node16 -->
<g id="edge43_Node000024_Node000016" class="edge">
<title>Node24&#45;&gt;Node16</title>
<g id="a_edge43_Node000024_Node000016"><a xlink:title=" ">
<path fill="none" stroke="#63b8ff" d="M959.16,-168.92C1009.34,-163.65 1080.07,-152.49 1138,-129 1167.39,-117.09 1197.11,-95.29 1215.3,-80.6"/>
<polygon fill="#63b8ff" stroke="#63b8ff" points="1217.77,-83.1 1223.25,-74.04 1213.31,-77.71 1217.77,-83.1"/>
</a>
</g>
</g>
<!-- Node24&#45;&gt;Node19 -->
<g id="edge44_Node000024_Node000019" class="edge">
<title>Node24&#45;&gt;Node19</title>
<g id="a_edge44_Node000024_Node000019"><a xlink:title=" ">
<path fill="none" stroke="#63b8ff" d="M959.05,-168.17C1012.14,-162.27 1081.61,-150.6 1099,-129 1109.55,-115.91 1102.57,-96.75 1094.8,-82.91"/>
<polygon fill="#63b8ff" stroke="#63b8ff" points="1097.72,-80.98 1089.49,-74.31 1091.76,-84.66 1097.72,-80.98"/>
</a>
</g>
</g>
<!-- Node24&#45;&gt;Node23 -->
<g id="edge42_Node000024_Node000023" class="edge">
<title>Node24&#45;&gt;Node23</title>
<g id="a_edge42_Node000024_Node000023"><a xlink:title=" ">
<path fill="none" stroke="#63b8ff" d="M959.42,-166.75C1007.58,-160.22 1067.65,-148.4 1083,-129 1100.11,-107.36 1066.64,-88.41 1038.12,-76.97"/>
<polygon fill="#63b8ff" stroke="#63b8ff" points="1039.31,-73.68 1028.71,-73.39 1036.81,-80.22 1039.31,-73.68"/>
</a>
</g>
</g>
<!-- Node25 -->
<g id="Node000025" class="node">
<title>Node25</title>
<g id="a_Node000025"><a xlink:title=" ">
<polygon fill="#e0e0e0" stroke="#999999" points="694,-129 638,-129 638,-110 694,-110 694,-129"/>
<text text-anchor="middle" x="666" y="-117" font-family="Helvetica,sans-Serif" font-size="10.00">stdbool.h</text>
</a>
</g>
</g>
<!-- Node24&#45;&gt;Node25 -->
<g id="edge39_Node000024_Node000025" class="edge">
<title>Node24&#45;&gt;Node25</title>
<g id="a_edge39_Node000024_Node000025"><a xlink:title=" ">
<path fill="none" stroke="#63b8ff" d="M858.21,-164.98C815.84,-155.18 746.58,-139.15 703.79,-129.25"/>
<polygon fill="#63b8ff" stroke="#63b8ff" points="704.57,-125.83 694.04,-126.99 702.99,-132.65 704.57,-125.83"/>
</a>
</g>
</g>
<!-- Node26 -->
<g id="Node000026" class="node">
<title>Node26</title>
<g id="a_Node000026"><a xlink:title=" ">
<polygon fill="#e0e0e0" stroke="#999999" points="769.5,-129 712.5,-129 712.5,-110 769.5,-110 769.5,-129"/>
<text text-anchor="middle" x="741" y="-117" font-family="Helvetica,sans-Serif" font-size="10.00">pthread.h</text>
</a>
</g>
</g>
<!-- Node24&#45;&gt;Node26 -->
<g id="edge40_Node000024_Node000026" class="edge">
<title>Node24&#45;&gt;Node26</title>
<g id="a_edge40_Node000024_Node000026"><a xlink:title=" ">
<path fill="none" stroke="#63b8ff" d="M870.26,-164.98C844.63,-156.16 804.37,-142.31 775.59,-132.41"/>
<polygon fill="#63b8ff" stroke="#63b8ff" points="776.53,-129.03 765.94,-129.08 774.25,-135.65 776.53,-129.03"/>
</a>
</g>
</g>
<!-- Node27 -->
<g id="Node000027" class="node">
<title>Node27</title>
<g id="a_Node000027"><a xlink:title=" ">
<polygon fill="#e0e0e0" stroke="#999999" points="850,-129 788,-129 788,-110 850,-110 850,-129"/>
<text text-anchor="middle" x="819" y="-117" font-family="Helvetica,sans-Serif" font-size="10.00">sys/time.h</text>
</a>
</g>
</g>
<!-- Node24&#45;&gt;Node27 -->
<g id="edge45_Node000024_Node000027" class="edge">
<title>Node24&#45;&gt;Node27</title>
<g id="a_edge45_Node000024_Node000027"><a xlink:title=" ">
<path fill="none" stroke="#63b8ff" d="M882.79,-164.98C871.22,-156.92 853.62,-144.65 839.84,-135.03"/>
<polygon fill="#63b8ff" stroke="#63b8ff" points="841.64,-132.02 831.43,-129.17 837.63,-137.76 841.64,-132.02"/>
</a>
</g>
</g>
<!-- Node28 -->
<g id="Node000028" class="node">
<title>Node28</title>
<g id="a_Node000028"><a xlink:title=" ">
<polygon fill="#e0e0e0" stroke="#999999" points="922,-129 868,-129 868,-110 922,-110 922,-129"/>
<text text-anchor="middle" x="895" y="-117" font-family="Helvetica,sans-Serif" font-size="10.00">sys/un.h</text>
</a>
</g>
</g>
<!-- Node24&#45;&gt;Node28 -->
<g id="edge47_Node000024_Node000028" class="edge">
<title>Node24&#45;&gt;Node28</title>
<g id="a_edge47_Node000024_Node000028"><a xlink:title=" ">
<path fill="none" stroke="#63b8ff" d="M895,-164.75C895,-157.8 895,-147.85 895,-139.13"/>
<polygon fill="#63b8ff" stroke="#63b8ff" points="898.5,-139.09 895,-129.09 891.5,-139.09 898.5,-139.09"/>
</a>
</g>
</g>
<!-- Node29&#45;&gt;Node5 -->
<g id="edge53_Node000029_Node000005" class="edge">
<title>Node29&#45;&gt;Node5</title>
<g id="a_edge53_Node000029_Node000005"><a xlink:title=" ">
<path fill="none" stroke="#63b8ff" d="M337.19,-329.97C317.06,-323.62 295.04,-312.69 283,-294 248.58,-240.56 308.61,-168.16 339.43,-136.47"/>
<polygon fill="#63b8ff" stroke="#63b8ff" points="341.98,-138.87 346.56,-129.32 337.02,-133.93 341.98,-138.87"/>
</a>
</g>
</g>
<!-- Node29&#45;&gt;Node6 -->
<g id="edge54_Node000029_Node000006" class="edge">
<title>Node29&#45;&gt;Node6</title>
<g id="a_edge54_Node000029_Node000006"><a xlink:title=" ">
<path fill="none" stroke="#63b8ff" d="M386.42,-329.92C397.14,-312.12 420,-269.57 420,-230.5 420,-230.5 420,-230.5 420,-173.5 420,-130.91 462.16,-97.14 490.31,-79.33"/>
<polygon fill="#63b8ff" stroke="#63b8ff" points="492.16,-82.31 498.88,-74.12 488.52,-76.32 492.16,-82.31"/>
</a>
</g>
</g>
<!-- Node30 -->
<g id="Node000030" class="node">
<title>Node30</title>
<g id="a_Node000030"><a xlink:href="SocketTLS_8h.html" target="_top" xlink:title=" ">
<polygon fill="white" stroke="#666666" points="627.5,-294 540.5,-294 540.5,-275 627.5,-275 627.5,-294"/>
<text text-anchor="middle" x="584" y="-282" font-family="Helvetica,sans-Serif" font-size="10.00">tls/SocketTLS.h</text>
</a>
</g>
</g>
<!-- Node29&#45;&gt;Node30 -->
<g id="edge55_Node000029_Node000030" class="edge">
<title>Node29&#45;&gt;Node30</title>
<g id="a_edge55_Node000029_Node000030"><a xlink:title=" ">
<path fill="none" stroke="#63b8ff" d="M413.62,-329.98C448.29,-320.93 503.26,-306.58 541.35,-296.64"/>
<polygon fill="#63b8ff" stroke="#63b8ff" points="542.34,-299.99 551.13,-294.08 540.57,-293.22 542.34,-299.99"/>
</a>
</g>
</g>
<!-- Node31 -->
<g id="Node000031" class="node">
<title>Node31</title>
<g id="a_Node000031"><a xlink:title=" ">
<polygon fill="#e0e0e0" stroke="#999999" points="522,-294 448,-294 448,-275 522,-275 522,-294"/>
<text text-anchor="middle" x="485" y="-282" font-family="Helvetica,sans-Serif" font-size="10.00">openssl/ssl.h</text>
</a>
</g>
</g>
<!-- Node29&#45;&gt;Node31 -->
<g id="edge58_Node000029_Node000031" class="edge">
<title>Node29&#45;&gt;Node31</title>
<g id="a_edge58_Node000029_Node000031"><a xlink:title=" ">
<path fill="none" stroke="#63b8ff" d="M397.71,-329.98C414.21,-321.57 439.7,-308.59 458.88,-298.81"/>
<polygon fill="#63b8ff" stroke="#63b8ff" points="460.67,-301.83 467.99,-294.17 457.49,-295.59 460.67,-301.83"/>
</a>
</g>
</g>
<!-- Node32 -->
<g id="Node000032" class="node">
<title>Node32</title>
<g id="a_Node000032"><a xlink:title=" ">
<polygon fill="#e0e0e0" stroke="#999999" points="392,-294 292,-294 292,-275 392,-275 392,-294"/>
<text text-anchor="middle" x="342" y="-282" font-family="Helvetica,sans-Serif" font-size="10.00">openssl/x509_vfy.h</text>
</a>
</g>
</g>
<!-- Node29&#45;&gt;Node32 -->
<g id="edge59_Node000029_Node000032" class="edge">
<title>Node29&#45;&gt;Node32</title>
<g id="a_edge59_Node000029_Node000032"><a xlink:title=" ">
<path fill="none" stroke="#63b8ff" d="M374.56,-329.75C369.11,-322.34 361.14,-311.5 354.44,-302.41"/>
<polygon fill="#63b8ff" stroke="#63b8ff" points="357.07,-300.07 348.32,-294.09 351.43,-304.22 357.07,-300.07"/>
</a>
</g>
</g>
<!-- Node30&#45;&gt;Node6 -->
<g id="edge56_Node000030_Node000006" class="edge">
<title>Node30&#45;&gt;Node6</title>
<g id="a_edge56_Node000030_Node000006"><a xlink:title=" ">
<path fill="none" stroke="#63b8ff" d="M568.14,-274.81C543.26,-260.06 496.41,-227.44 482,-184 471.65,-152.78 471.68,-141.23 482,-110 485.46,-99.54 492.43,-89.53 499.08,-81.66"/>
<polygon fill="#63b8ff" stroke="#63b8ff" points="501.86,-83.8 505.98,-74.04 496.67,-79.1 501.86,-83.8"/>
</a>
</g>
</g>
<!-- Node30&#45;&gt;Node12 -->
<g id="edge57_Node000030_Node000012" class="edge">
<title>Node30&#45;&gt;Node12</title>
<g id="a_edge57_Node000030_Node000012"><a xlink:title=" ">
<path fill="none" stroke="#63b8ff" d="M619.03,-274.98C656.5,-265.87 716.05,-251.4 756.98,-241.45"/>
<polygon fill="#63b8ff" stroke="#63b8ff" points="757.81,-244.85 766.7,-239.08 756.16,-238.04 757.81,-244.85"/>
</a>
</g>
</g>
</g>
</svg>
