<?xml version="1.0" encoding="UTF-8" standalone="no"?>
<!DOCTYPE svg PUBLIC "-//W3C//DTD SVG 1.1//EN"
 "http://www.w3.org/Graphics/SVG/1.1/DTD/svg11.dtd">
<!-- Generated by graphviz version 2.43.0 (0)
 -->
<!-- Title: SocketPool.h Pages: 1 -->
<!--zoomable 357 -->

<svg id="main" version="1.1" xmlns="http://www.w3.org/2000/svg" xmlns:xlink="http://www.w3.org/1999/xlink" xml:space="preserve" onload="init(evt)">
<style type="text/css"><![CDATA[
.node, .edge {opacity: 0.7;}
.node.selected, .edge.selected {opacity: 1;}
.edge:hover path { stroke: red; }
.edge:hover polygon { stroke: red; fill: red; }
]]></style>

<defs>
  <circle id="rim" cx="0" cy="0" r="7"/>
  <circle id="rim2" cx="0" cy="0" r="3.5"/>
  <g id="zoomPlus">
    <use xlink:href="#rim" fill="#404040"><set attributeName="fill" to="#808080" begin="zoomplus.mouseover" end="zoomplus.mouseout"/></use>
    <path d="M-4,0h8M0,-4v8" fill="none" stroke="white" stroke-width="1.5" pointer-events="none"/>
  </g>
  <g id="zoomMin">
    <use xlink:href="#rim" fill="#404040"><set attributeName="fill" to="#808080" begin="zoomminus.mouseover" end="zoomminus.mouseout"/></use>
    <path d="M-4,0h8" fill="none" stroke="white" stroke-width="1.5" pointer-events="none"/>
  </g>
  <g id="arrowUp" transform="translate(30 24)">
    <use xlink:href="#rim"/>
    <path pointer-events="none" fill="none" stroke="white" stroke-width="1.5" d="M0,-3.0v7 M-2.5,-0.5L0,-3.0L2.5,-0.5"/>
  </g>
  <g id="arrowRight" transform="rotate(90) translate(36 -43)">
    <use xlink:href="#rim"/>
    <path pointer-events="none" fill="none" stroke="white" stroke-width="1.5" d="M0,-3.0v7 M-2.5,-0.5L0,-3.0L2.5,-0.5"/>
  </g>
  <g id="arrowDown" transform="rotate(180) translate(-30 -48)">
    <use xlink:href="#rim"/>
    <path pointer-events="none" fill="none" stroke="white" stroke-width="1.5" d="M0,-3.0v7 M-2.5,-0.5L0,-3.0L2.5,-0.5"/>
  </g>
  <g id="arrowLeft" transform="rotate(270) translate(-36 17)">
    <use xlink:href="#rim"/>
    <path pointer-events="none" fill="none" stroke="white" stroke-width="1.5" d="M0,-3.0v7 M-2.5,-0.5L0,-3.0L2.5,-0.5"/>
  </g>
  <g id="resetDef">
    <use xlink:href="#rim2" fill="#404040"><set attributeName="fill" to="#808080" begin="reset.mouseover" end="reset.mouseout"/></use>
  </g>
</defs>
<script type="application/ecmascript">
var viewWidth = 1734;
var viewHeight = 357;
var sectionId = 'dynsection-0';
</script>
<script type="application/ecmascript" xlink:href="svg.min.js"/>
<svg id="graph" class="graph">
<g id="viewport">
<title>SocketPool.h</title>
<!-- Node1 -->
<g id="Node000001" class="node">
<title>Node1</title>
<g id="a_Node000001"><a xlink:title=" ">
<polygon fill="#999999" stroke="#666666" points="794.5,-349 719.5,-349 719.5,-330 794.5,-330 794.5,-349"/>
<text text-anchor="middle" x="757" y="-337" font-family="Helvetica,sans-Serif" font-size="10.00">SocketPool.h</text>
</a>
</g>
</g>
<!-- Node2 -->
<g id="Node000002" class="node">
<title>Node2</title>
<g id="a_Node000002"><a xlink:href="Arena_8h.html" target="_top" xlink:title=" ">
<polygon fill="white" stroke="#666666" points="786,-129 714,-129 714,-110 786,-110 786,-129"/>
<text text-anchor="middle" x="750" y="-117" font-family="Helvetica,sans-Serif" font-size="10.00">core/Arena.h</text>
</a>
</g>
</g>
<!-- Node1&#45;&gt;Node2 -->
<g id="edge1_Node000001_Node000002" class="edge">
<title>Node1&#45;&gt;Node2</title>
<g id="a_edge1_Node000001_Node000002"><a xlink:title=" ">
<path fill="none" stroke="#63b8ff" d="M756.73,-329.95C755.7,-297.95 752.06,-184.68 750.61,-139.4"/>
<polygon fill="#63b8ff" stroke="#63b8ff" points="754.1,-139.11 750.28,-129.22 747.1,-139.33 754.1,-139.11"/>
</a>
</g>
</g>
<!-- Node3 -->
<g id="Node000003" class="node">
<title>Node3</title>
<g id="a_Node000003"><a xlink:title=" ">
<polygon fill="#e0e0e0" stroke="#999999" points="737,-74 685,-74 685,-55 737,-55 737,-74"/>
<text text-anchor="middle" x="711" y="-62" font-family="Helvetica,sans-Serif" font-size="10.00">stddef.h</text>
</a>
</g>
</g>
<!-- Node1&#45;&gt;Node3 -->
<g id="edge64_Node000001_Node000003" class="edge">
<title>Node1&#45;&gt;Node3</title>
<g id="a_edge64_Node000001_Node000003"><a xlink:title=" ">
<path fill="none" stroke="#63b8ff" d="M719.46,-337.15C566.71,-331.17 0,-304.01 0,-230.5 0,-230.5 0,-230.5 0,-173.5 0,-122.71 46.92,-126.36 95,-110 208.86,-71.27 515.21,-84.69 635,-74 648.02,-72.84 662.26,-71.31 674.86,-69.88"/>
<polygon fill="#63b8ff" stroke="#63b8ff" points="675.47,-73.33 685,-68.7 674.66,-66.38 675.47,-73.33"/>
</a>
</g>
</g>
<!-- Node4 -->
<g id="Node000004" class="node">
<title>Node4</title>
<g id="a_Node000004"><a xlink:href="Except_8h.html" target="_top" xlink:title=" ">
<polygon fill="white" stroke="#666666" points="1409.5,-74 1332.5,-74 1332.5,-55 1409.5,-55 1409.5,-74"/>
<text text-anchor="middle" x="1371" y="-62" font-family="Helvetica,sans-Serif" font-size="10.00">core/Except.h</text>
</a>
</g>
</g>
<!-- Node1&#45;&gt;Node4 -->
<g id="edge5_Node000001_Node000004" class="edge">
<title>Node1&#45;&gt;Node4</title>
<g id="a_edge5_Node000001_Node000004"><a xlink:title=" ">
<path fill="none" stroke="#63b8ff" d="M794.69,-338.33C973.31,-337.05 1726,-325.98 1726,-230.5 1726,-230.5 1726,-230.5 1726,-173.5 1726,-133.11 1697.13,-128.04 1661,-110 1619.63,-89.35 1491.06,-75.6 1419.79,-69.36"/>
<polygon fill="#63b8ff" stroke="#63b8ff" points="1419.98,-65.86 1409.71,-68.49 1419.38,-72.84 1419.98,-65.86"/>
</a>
</g>
</g>
<!-- Node6 -->
<g id="Node000006" class="node">
<title>Node6</title>
<g id="a_Node000006"><a xlink:href="SocketSYNProtect_8h.html" target="_top" xlink:title=" ">
<polygon fill="white" stroke="#666666" points="704,-184 574,-184 574,-165 704,-165 704,-184"/>
<text text-anchor="middle" x="639" y="-172" font-family="Helvetica,sans-Serif" font-size="10.00">core/SocketSYNProtect.h</text>
</a>
</g>
</g>
<!-- Node1&#45;&gt;Node6 -->
<g id="edge6_Node000001_Node000006" class="edge">
<title>Node1&#45;&gt;Node6</title>
<g id="a_edge6_Node000001_Node000006"><a xlink:title=" ">
<path fill="none" stroke="#63b8ff" d="M750.63,-330C743.96,-321.06 733.18,-306.59 724,-294 697.77,-258.04 667.49,-215.59 651.08,-192.52"/>
<polygon fill="#63b8ff" stroke="#63b8ff" points="653.78,-190.28 645.14,-184.16 648.08,-194.34 653.78,-190.28"/>
</a>
</g>
</g>
<!-- Node17 -->
<g id="Node000017" class="node">
<title>Node17</title>
<g id="a_Node000017"><a xlink:href="SocketUtil_8h.html" target="_top" xlink:title=" ">
<polygon fill="white" stroke="#666666" points="386,-184 294,-184 294,-165 386,-165 386,-184"/>
<text text-anchor="middle" x="340" y="-172" font-family="Helvetica,sans-Serif" font-size="10.00">core/SocketUtil.h</text>
</a>
</g>
</g>
<!-- Node1&#45;&gt;Node17 -->
<g id="edge21_Node000001_Node000017" class="edge">
<title>Node1&#45;&gt;Node17</title>
<g id="a_edge21_Node000001_Node000017"><a xlink:title=" ">
<path fill="none" stroke="#63b8ff" d="M719.39,-335.74C650.2,-330.19 505.71,-316.27 461,-294 412.5,-269.84 371.13,-219.06 351.75,-192.51"/>
<polygon fill="#63b8ff" stroke="#63b8ff" points="354.49,-190.32 345.84,-184.21 348.79,-194.38 354.49,-190.32"/>
</a>
</g>
</g>
<!-- Node21 -->
<g id="Node000021" class="node">
<title>Node21</title>
<g id="a_Node000021"><a xlink:title=" ">
<polygon fill="#e0e0e0" stroke="#999999" points="390,-129 346,-129 346,-110 390,-110 390,-129"/>
<text text-anchor="middle" x="368" y="-117" font-family="Helvetica,sans-Serif" font-size="10.00">time.h</text>
</a>
</g>
</g>
<!-- Node1&#45;&gt;Node21 -->
<g id="edge65_Node000001_Node000021" class="edge">
<title>Node1&#45;&gt;Node21</title>
<g id="a_edge65_Node000001_Node000021"><a xlink:title=" ">
<path fill="none" stroke="#63b8ff" d="M741.75,-329.95C682.33,-296.65 465.98,-175.41 392.56,-134.27"/>
<polygon fill="#63b8ff" stroke="#63b8ff" points="394,-131.06 383.57,-129.22 390.58,-137.17 394,-131.06"/>
</a>
</g>
</g>
<!-- Node22 -->
<g id="Node000022" class="node">
<title>Node22</title>
<g id="a_Node000022"><a xlink:href="Socket_8h.html" target="_top" xlink:title=" ">
<polygon fill="white" stroke="#666666" points="1180,-239 1092,-239 1092,-220 1180,-220 1180,-239"/>
<text text-anchor="middle" x="1136" y="-227" font-family="Helvetica,sans-Serif" font-size="10.00">socket/Socket.h</text>
</a>
</g>
</g>
<!-- Node1&#45;&gt;Node22 -->
<g id="edge33_Node000001_Node000022" class="edge">
<title>Node1&#45;&gt;Node22</title>
<g id="a_edge33_Node000001_Node000022"><a xlink:title=" ">
<path fill="none" stroke="#63b8ff" d="M787.06,-329.94C854.92,-310.6 1020.01,-263.55 1096.23,-241.83"/>
<polygon fill="#63b8ff" stroke="#63b8ff" points="1097.28,-245.17 1105.94,-239.07 1095.36,-238.44 1097.28,-245.17"/>
</a>
</g>
</g>
<!-- Node23 -->
<g id="Node000023" class="node">
<title>Node23</title>
<g id="a_Node000023"><a xlink:href="SocketDNS_8h.html" target="_top" xlink:title=" ">
<polygon fill="white" stroke="#666666" points="1622,-184 1526,-184 1526,-165 1622,-165 1622,-184"/>
<text text-anchor="middle" x="1574" y="-172" font-family="Helvetica,sans-Serif" font-size="10.00">dns/SocketDNS.h</text>
</a>
</g>
</g>
<!-- Node1&#45;&gt;Node23 -->
<g id="edge66_Node000001_Node000023" class="edge">
<title>Node1&#45;&gt;Node23</title>
<g id="a_edge66_Node000001_Node000023"><a xlink:title=" ">
<path fill="none" stroke="#63b8ff" d="M794.66,-337.62C873.23,-335.17 1060.04,-326.16 1213,-294 1338.97,-267.52 1482.65,-212.56 1543.85,-187.92"/>
<polygon fill="#63b8ff" stroke="#63b8ff" points="1545.33,-191.09 1553.28,-184.1 1542.7,-184.61 1545.33,-191.09"/>
</a>
</g>
</g>
<!-- Node31 -->
<g id="Node000031" class="node">
<title>Node31</title>
<g id="a_Node000031"><a xlink:href="SocketBuf_8h.html" target="_top" xlink:title=" ">
<polygon fill="white" stroke="#666666" points="945.5,-184 842.5,-184 842.5,-165 945.5,-165 945.5,-184"/>
<text text-anchor="middle" x="894" y="-172" font-family="Helvetica,sans-Serif" font-size="10.00">socket/SocketBuf.h</text>
</a>
</g>
</g>
<!-- Node1&#45;&gt;Node31 -->
<g id="edge54_Node000001_Node000031" class="edge">
<title>Node1&#45;&gt;Node31</title>
<g id="a_edge54_Node000001_Node000031"><a xlink:title=" ">
<path fill="none" stroke="#63b8ff" d="M764.37,-329.74C786.29,-303.65 851.41,-226.17 880.13,-192"/>
<polygon fill="#63b8ff" stroke="#63b8ff" points="882.84,-194.21 886.6,-184.31 877.48,-189.71 882.84,-194.21"/>
</a>
</g>
</g>
<!-- Node32 -->
<g id="Node000032" class="node">
<title>Node32</title>
<g id="a_Node000032"><a xlink:href="SocketReconnect_8h.html" target="_top" xlink:title=" ">
<polygon fill="white" stroke="#666666" points="1203.5,-294 1068.5,-294 1068.5,-275 1203.5,-275 1203.5,-294"/>
<text text-anchor="middle" x="1136" y="-282" font-family="Helvetica,sans-Serif" font-size="10.00">socket/SocketReconnect.h</text>
</a>
</g>
</g>
<!-- Node1&#45;&gt;Node32 -->
<g id="edge59_Node000001_Node000032" class="edge">
<title>Node1&#45;&gt;Node32</title>
<g id="a_edge59_Node000001_Node000032"><a xlink:title=" ">
<path fill="none" stroke="#63b8ff" d="M794.73,-333.22C857.66,-324.42 985.05,-306.61 1065.14,-295.41"/>
<polygon fill="#63b8ff" stroke="#63b8ff" points="1065.72,-298.86 1075.14,-294.01 1064.75,-291.93 1065.72,-298.86"/>
</a>
</g>
</g>
<!-- Node2&#45;&gt;Node3 -->
<g id="edge2_Node000002_Node000003" class="edge">
<title>Node2&#45;&gt;Node3</title>
<g id="a_edge2_Node000002_Node000003"><a xlink:title=" ">
<path fill="none" stroke="#63b8ff" d="M743.56,-109.75C738.11,-102.34 730.14,-91.5 723.44,-82.41"/>
<polygon fill="#63b8ff" stroke="#63b8ff" points="726.07,-80.07 717.32,-74.09 720.43,-84.22 726.07,-80.07"/>
</a>
</g>
</g>
<!-- Node2&#45;&gt;Node4 -->
<g id="edge3_Node000002_Node000004" class="edge">
<title>Node2&#45;&gt;Node4</title>
<g id="a_edge3_Node000002_Node000004"><a xlink:title=" ">
<path fill="none" stroke="#63b8ff" d="M786.17,-115.91C898.5,-107.84 1238.37,-83.2 1322.23,-74.01"/>
<polygon fill="#63b8ff" stroke="#63b8ff" points="1322.8,-77.47 1332.32,-72.82 1321.98,-70.51 1322.8,-77.47"/>
</a>
</g>
</g>
<!-- Node5 -->
<g id="Node000005" class="node">
<title>Node5</title>
<g id="a_Node000005"><a xlink:title=" ">
<polygon fill="#e0e0e0" stroke="#999999" points="1398,-19 1344,-19 1344,0 1398,0 1398,-19"/>
<text text-anchor="middle" x="1371" y="-7" font-family="Helvetica,sans-Serif" font-size="10.00">setjmp.h</text>
</a>
</g>
</g>
<!-- Node4&#45;&gt;Node5 -->
<g id="edge4_Node000004_Node000005" class="edge">
<title>Node4&#45;&gt;Node5</title>
<g id="a_edge4_Node000004_Node000005"><a xlink:title=" ">
<path fill="none" stroke="#63b8ff" d="M1371,-54.75C1371,-47.8 1371,-37.85 1371,-29.13"/>
<polygon fill="#63b8ff" stroke="#63b8ff" points="1374.5,-29.09 1371,-19.09 1367.5,-29.09 1374.5,-29.09"/>
</a>
</g>
</g>
<!-- Node6&#45;&gt;Node2 -->
<g id="edge7_Node000006_Node000002" class="edge">
<title>Node6&#45;&gt;Node2</title>
<g id="a_edge7_Node000006_Node000002"><a xlink:title=" ">
<path fill="none" stroke="#63b8ff" d="M656.83,-164.98C674.61,-156.5 702.15,-143.35 722.68,-133.54"/>
<polygon fill="#63b8ff" stroke="#63b8ff" points="724.33,-136.64 731.84,-129.17 721.31,-130.32 724.33,-136.64"/>
</a>
</g>
</g>
<!-- Node6&#45;&gt;Node3 -->
<g id="edge19_Node000006_Node000003" class="edge">
<title>Node6&#45;&gt;Node3</title>
<g id="a_edge19_Node000006_Node000003"><a xlink:title=" ">
<path fill="none" stroke="#63b8ff" d="M642.66,-164.92C648.19,-152.36 659.38,-128.46 672,-110 678.87,-99.95 687.73,-89.67 695.28,-81.52"/>
<polygon fill="#63b8ff" stroke="#63b8ff" points="697.9,-83.84 702.26,-74.18 692.83,-79.02 697.9,-83.84"/>
</a>
</g>
</g>
<!-- Node6&#45;&gt;Node4 -->
<g id="edge8_Node000006_Node000004" class="edge">
<title>Node6&#45;&gt;Node4</title>
<g id="a_edge8_Node000006_Node000004"><a xlink:title=" ">
<path fill="none" stroke="#63b8ff" d="M644.7,-164.97C654.85,-150.61 677.61,-121.97 705,-110 828.42,-56.05 1171.31,-88.74 1322.23,-73.97"/>
<polygon fill="#63b8ff" stroke="#63b8ff" points="1322.76,-77.43 1332.33,-72.88 1322.01,-70.48 1322.76,-77.43"/>
</a>
</g>
</g>
<!-- Node7 -->
<g id="Node000007" class="node">
<title>Node7</title>
<g id="a_Node000007"><a xlink:href="SocketConfig_8h.html" target="_top" xlink:title=" ">
<polygon fill="white" stroke="#666666" points="582,-129 476,-129 476,-110 582,-110 582,-129"/>
<text text-anchor="middle" x="529" y="-117" font-family="Helvetica,sans-Serif" font-size="10.00">core/SocketConfig.h</text>
</a>
</g>
</g>
<!-- Node6&#45;&gt;Node7 -->
<g id="edge9_Node000006_Node000007" class="edge">
<title>Node6&#45;&gt;Node7</title>
<g id="a_edge9_Node000006_Node000007"><a xlink:title=" ">
<path fill="none" stroke="#63b8ff" d="M621.33,-164.98C603.71,-156.5 576.42,-143.35 556.07,-133.54"/>
<polygon fill="#63b8ff" stroke="#63b8ff" points="557.52,-130.36 546.99,-129.17 554.48,-136.66 557.52,-130.36"/>
</a>
</g>
</g>
<!-- Node16 -->
<g id="Node000016" class="node">
<title>Node16</title>
<g id="a_Node000016"><a xlink:title=" ">
<polygon fill="#e0e0e0" stroke="#999999" points="457.5,-129 408.5,-129 408.5,-110 457.5,-110 457.5,-129"/>
<text text-anchor="middle" x="433" y="-117" font-family="Helvetica,sans-Serif" font-size="10.00">stdint.h</text>
</a>
</g>
</g>
<!-- Node6&#45;&gt;Node16 -->
<g id="edge20_Node000006_Node000016" class="edge">
<title>Node6&#45;&gt;Node16</title>
<g id="a_edge20_Node000006_Node000016"><a xlink:title=" ">
<path fill="none" stroke="#63b8ff" d="M605.9,-164.98C567.9,-155.21 505.86,-139.25 467.34,-129.34"/>
<polygon fill="#63b8ff" stroke="#63b8ff" points="468.17,-125.93 457.61,-126.83 466.42,-132.71 468.17,-125.93"/>
</a>
</g>
</g>
<!-- Node7&#45;&gt;Node3 -->
<g id="edge14_Node000007_Node000003" class="edge">
<title>Node7&#45;&gt;Node3</title>
<g id="a_edge14_Node000007_Node000003"><a xlink:title=" ">
<path fill="none" stroke="#63b8ff" d="M558.24,-109.98C590.07,-100.72 640.98,-85.89 675.18,-75.93"/>
<polygon fill="#63b8ff" stroke="#63b8ff" points="676.16,-79.29 684.78,-73.13 674.2,-72.57 676.16,-79.29"/>
</a>
</g>
</g>
<!-- Node8 -->
<g id="Node000008" class="node">
<title>Node8</title>
<g id="a_Node000008"><a xlink:title=" ">
<polygon fill="#e0e0e0" stroke="#999999" points="128.5,-74 81.5,-74 81.5,-55 128.5,-55 128.5,-74"/>
<text text-anchor="middle" x="105" y="-62" font-family="Helvetica,sans-Serif" font-size="10.00">errno.h</text>
</a>
</g>
</g>
<!-- Node7&#45;&gt;Node8 -->
<g id="edge10_Node000007_Node000008" class="edge">
<title>Node7&#45;&gt;Node8</title>
<g id="a_edge10_Node000007_Node000008"><a xlink:title=" ">
<path fill="none" stroke="#63b8ff" d="M475.73,-111.27C472.44,-110.84 469.17,-110.41 466,-110 345.82,-94.49 202.97,-77.23 138.96,-69.55"/>
<polygon fill="#63b8ff" stroke="#63b8ff" points="139.01,-66.04 128.66,-68.32 138.18,-72.99 139.01,-66.04"/>
</a>
</g>
</g>
<!-- Node9 -->
<g id="Node000009" class="node">
<title>Node9</title>
<g id="a_Node000009"><a xlink:title=" ">
<polygon fill="#e0e0e0" stroke="#999999" points="847,-74 803,-74 803,-55 847,-55 847,-74"/>
<text text-anchor="middle" x="825" y="-62" font-family="Helvetica,sans-Serif" font-size="10.00">fcntl.h</text>
</a>
</g>
</g>
<!-- Node7&#45;&gt;Node9 -->
<g id="edge11_Node000007_Node000009" class="edge">
<title>Node7&#45;&gt;Node9</title>
<g id="a_edge11_Node000007_Node000009"><a xlink:title=" ">
<path fill="none" stroke="#63b8ff" d="M576.56,-109.98C637.25,-99.12 740.63,-80.61 792.82,-71.26"/>
<polygon fill="#63b8ff" stroke="#63b8ff" points="793.62,-74.67 802.85,-69.47 792.39,-67.78 793.62,-74.67"/>
</a>
</g>
</g>
<!-- Node10 -->
<g id="Node000010" class="node">
<title>Node10</title>
<g id="a_Node000010"><a xlink:title=" ">
<polygon fill="#e0e0e0" stroke="#999999" points="977.5,-74 912.5,-74 912.5,-55 977.5,-55 977.5,-74"/>
<text text-anchor="middle" x="945" y="-62" font-family="Helvetica,sans-Serif" font-size="10.00">netinet/in.h</text>
</a>
</g>
</g>
<!-- Node7&#45;&gt;Node10 -->
<g id="edge12_Node000007_Node000010" class="edge">
<title>Node7&#45;&gt;Node10</title>
<g id="a_edge12_Node000007_Node000010"><a xlink:title=" ">
<path fill="none" stroke="#63b8ff" d="M582.11,-111.73C665.48,-101.11 825.43,-80.73 902.04,-70.97"/>
<polygon fill="#63b8ff" stroke="#63b8ff" points="902.8,-74.41 912.28,-69.67 901.91,-67.46 902.8,-74.41"/>
</a>
</g>
</g>
<!-- Node11 -->
<g id="Node000011" class="node">
<title>Node11</title>
<g id="a_Node000011"><a xlink:title=" ">
<polygon fill="#e0e0e0" stroke="#999999" points="482.5,-74 411.5,-74 411.5,-55 482.5,-55 482.5,-74"/>
<text text-anchor="middle" x="447" y="-62" font-family="Helvetica,sans-Serif" font-size="10.00">netinet/tcp.h</text>
</a>
</g>
</g>
<!-- Node7&#45;&gt;Node11 -->
<g id="edge13_Node000007_Node000011" class="edge">
<title>Node7&#45;&gt;Node11</title>
<g id="a_edge13_Node000007_Node000011"><a xlink:title=" ">
<path fill="none" stroke="#63b8ff" d="M515.83,-109.98C503.23,-101.84 484,-89.41 469.06,-79.76"/>
<polygon fill="#63b8ff" stroke="#63b8ff" points="470.71,-76.66 460.41,-74.17 466.91,-82.54 470.71,-76.66"/>
</a>
</g>
</g>
<!-- Node12 -->
<g id="Node000012" class="node">
<title>Node12</title>
<g id="a_Node000012"><a xlink:title=" ">
<polygon fill="#e0e0e0" stroke="#999999" points="326,-74 280,-74 280,-55 326,-55 326,-74"/>
<text text-anchor="middle" x="303" y="-62" font-family="Helvetica,sans-Serif" font-size="10.00">stdio.h</text>
</a>
</g>
</g>
<!-- Node7&#45;&gt;Node12 -->
<g id="edge15_Node000007_Node000012" class="edge">
<title>Node7&#45;&gt;Node12</title>
<g id="a_edge15_Node000007_Node000012"><a xlink:title=" ">
<path fill="none" stroke="#63b8ff" d="M492.69,-109.98C449.44,-99.84 377.81,-83.04 336.05,-73.25"/>
<polygon fill="#63b8ff" stroke="#63b8ff" points="336.65,-69.8 326.11,-70.92 335.05,-76.61 336.65,-69.8"/>
</a>
</g>
</g>
<!-- Node13 -->
<g id="Node000013" class="node">
<title>Node13</title>
<g id="a_Node000013"><a xlink:title=" ">
<polygon fill="#e0e0e0" stroke="#999999" points="1314.5,-74 1241.5,-74 1241.5,-55 1314.5,-55 1314.5,-74"/>
<text text-anchor="middle" x="1278" y="-62" font-family="Helvetica,sans-Serif" font-size="10.00">sys/socket.h</text>
</a>
</g>
</g>
<!-- Node7&#45;&gt;Node13 -->
<g id="edge16_Node000007_Node000013" class="edge">
<title>Node7&#45;&gt;Node13</title>
<g id="a_edge16_Node000007_Node000013"><a xlink:title=" ">
<path fill="none" stroke="#63b8ff" d="M582.14,-114.08C598.74,-112.73 617.13,-111.27 634,-110 857.61,-93.22 1125.09,-75.49 1231.26,-68.54"/>
<polygon fill="#63b8ff" stroke="#63b8ff" points="1231.57,-72.03 1241.32,-67.88 1231.11,-65.04 1231.57,-72.03"/>
</a>
</g>
</g>
<!-- Node14 -->
<g id="Node000014" class="node">
<title>Node14</title>
<g id="a_Node000014"><a xlink:title=" ">
<polygon fill="#e0e0e0" stroke="#999999" points="557,-74 501,-74 501,-55 557,-55 557,-74"/>
<text text-anchor="middle" x="529" y="-62" font-family="Helvetica,sans-Serif" font-size="10.00">sys/uio.h</text>
</a>
</g>
</g>
<!-- Node7&#45;&gt;Node14 -->
<g id="edge17_Node000007_Node000014" class="edge">
<title>Node7&#45;&gt;Node14</title>
<g id="a_edge17_Node000007_Node000014"><a xlink:title=" ">
<path fill="none" stroke="#63b8ff" d="M529,-109.75C529,-102.8 529,-92.85 529,-84.13"/>
<polygon fill="#63b8ff" stroke="#63b8ff" points="532.5,-84.09 529,-74.09 525.5,-84.09 532.5,-84.09"/>
</a>
</g>
</g>
<!-- Node15 -->
<g id="Node000015" class="node">
<title>Node15</title>
<g id="a_Node000015"><a xlink:title=" ">
<polygon fill="#e0e0e0" stroke="#999999" points="626.5,-74 575.5,-74 575.5,-55 626.5,-55 626.5,-74"/>
<text text-anchor="middle" x="601" y="-62" font-family="Helvetica,sans-Serif" font-size="10.00">unistd.h</text>
</a>
</g>
</g>
<!-- Node7&#45;&gt;Node15 -->
<g id="edge18_Node000007_Node000015" class="edge">
<title>Node7&#45;&gt;Node15</title>
<g id="a_edge18_Node000007_Node000015"><a xlink:title=" ">
<path fill="none" stroke="#63b8ff" d="M540.57,-109.98C551.42,-102 567.88,-89.88 580.88,-80.31"/>
<polygon fill="#63b8ff" stroke="#63b8ff" points="583.24,-82.92 589.22,-74.17 579.09,-77.28 583.24,-82.92"/>
</a>
</g>
</g>
<!-- Node17&#45;&gt;Node2 -->
<g id="edge30_Node000017_Node000002" class="edge">
<title>Node17&#45;&gt;Node2</title>
<g id="a_edge30_Node000017_Node000002"><a xlink:title=" ">
<path fill="none" stroke="#63b8ff" d="M386.24,-167.52C465.1,-157.33 624.75,-136.69 703.68,-126.49"/>
<polygon fill="#63b8ff" stroke="#63b8ff" points="704.34,-129.93 713.81,-125.18 703.44,-122.99 704.34,-129.93"/>
</a>
</g>
</g>
<!-- Node17&#45;&gt;Node3 -->
<g id="edge25_Node000017_Node000003" class="edge">
<title>Node17&#45;&gt;Node3</title>
<g id="a_edge25_Node000017_Node000003"><a xlink:title=" ">
<path fill="none" stroke="#63b8ff" d="M336.22,-164.86C330.96,-151.35 323.52,-125.18 337,-110 338.4,-108.42 580.99,-80.42 674.67,-69.66"/>
<polygon fill="#63b8ff" stroke="#63b8ff" points="675.28,-73.12 684.82,-68.5 674.48,-66.16 675.28,-73.12"/>
</a>
</g>
</g>
<!-- Node17&#45;&gt;Node4 -->
<g id="edge31_Node000017_Node000004" class="edge">
<title>Node17&#45;&gt;Node4</title>
<g id="a_edge31_Node000017_Node000004"><a xlink:title=" ">
<path fill="none" stroke="#63b8ff" d="M386.39,-165.98C436.87,-157.64 519.87,-143.44 591,-129 628.09,-121.47 636.53,-115.29 674,-110 957.14,-70.05 1034.84,-106.92 1322.02,-74.08"/>
<polygon fill="#63b8ff" stroke="#63b8ff" points="1322.8,-77.52 1332.33,-72.88 1321.99,-70.56 1322.8,-77.52"/>
</a>
</g>
</g>
<!-- Node17&#45;&gt;Node7 -->
<g id="edge32_Node000017_Node000007" class="edge">
<title>Node17&#45;&gt;Node7</title>
<g id="a_edge32_Node000017_Node000007"><a xlink:title=" ">
<path fill="none" stroke="#63b8ff" d="M370.37,-164.98C402.37,-156.01 452.96,-141.82 488.38,-131.89"/>
<polygon fill="#63b8ff" stroke="#63b8ff" points="489.71,-135.15 498.4,-129.08 487.82,-128.41 489.71,-135.15"/>
</a>
</g>
</g>
<!-- Node17&#45;&gt;Node8 -->
<g id="edge22_Node000017_Node000008" class="edge">
<title>Node17&#45;&gt;Node8</title>
<g id="a_edge22_Node000017_Node000008"><a xlink:title=" ">
<path fill="none" stroke="#63b8ff" d="M293.82,-172.36C227.26,-169.64 109.43,-160.4 83,-129 71.78,-115.67 81.13,-96.29 90.87,-82.45"/>
<polygon fill="#63b8ff" stroke="#63b8ff" points="93.83,-84.35 97.12,-74.28 88.27,-80.1 93.83,-84.35"/>
</a>
</g>
</g>
<!-- Node17&#45;&gt;Node12 -->
<g id="edge27_Node000017_Node000012" class="edge">
<title>Node17&#45;&gt;Node12</title>
<g id="a_edge27_Node000017_Node000012"><a xlink:title=" ">
<path fill="none" stroke="#63b8ff" d="M293.84,-171.92C230,-168.65 119.83,-158.74 95,-129 46.79,-71.24 199.66,-64.93 269.78,-64.96"/>
<polygon fill="#63b8ff" stroke="#63b8ff" points="269.87,-68.46 279.89,-65.01 269.91,-61.46 269.87,-68.46"/>
</a>
</g>
</g>
<!-- Node17&#45;&gt;Node16 -->
<g id="edge26_Node000017_Node000016" class="edge">
<title>Node17&#45;&gt;Node16</title>
<g id="a_edge26_Node000017_Node000016"><a xlink:title=" ">
<path fill="none" stroke="#63b8ff" d="M354.94,-164.98C369.5,-156.69 391.87,-143.94 408.93,-134.22"/>
<polygon fill="#63b8ff" stroke="#63b8ff" points="410.83,-137.16 417.79,-129.17 407.36,-131.08 410.83,-137.16"/>
</a>
</g>
</g>
<!-- Node18 -->
<g id="Node000018" class="node">
<title>Node18</title>
<g id="a_Node000018"><a xlink:title=" ">
<polygon fill="#e0e0e0" stroke="#999999" points="152,-129 104,-129 104,-110 152,-110 152,-129"/>
<text text-anchor="middle" x="128" y="-117" font-family="Helvetica,sans-Serif" font-size="10.00">limits.h</text>
</a>
</g>
</g>
<!-- Node17&#45;&gt;Node18 -->
<g id="edge23_Node000017_Node000018" class="edge">
<title>Node17&#45;&gt;Node18</title>
<g id="a_edge23_Node000017_Node000018"><a xlink:title=" ">
<path fill="none" stroke="#63b8ff" d="M305.33,-164.97C271.3,-156.58 217.65,-143.3 162.16,-129.28"/>
<polygon fill="#63b8ff" stroke="#63b8ff" points="162.7,-125.8 152.14,-126.74 160.98,-132.59 162.7,-125.8"/>
</a>
</g>
</g>
<!-- Node19 -->
<g id="Node000019" class="node">
<title>Node19</title>
<g id="a_Node000019"><a xlink:title=" ">
<polygon fill="#e0e0e0" stroke="#999999" points="222,-129 170,-129 170,-110 222,-110 222,-129"/>
<text text-anchor="middle" x="196" y="-117" font-family="Helvetica,sans-Serif" font-size="10.00">stdarg.h</text>
</a>
</g>
</g>
<!-- Node17&#45;&gt;Node19 -->
<g id="edge24_Node000017_Node000019" class="edge">
<title>Node17&#45;&gt;Node19</title>
<g id="a_edge24_Node000017_Node000019"><a xlink:title=" ">
<path fill="none" stroke="#63b8ff" d="M316.86,-164.98C293.18,-156.27 256.13,-142.63 229.29,-132.75"/>
<polygon fill="#63b8ff" stroke="#63b8ff" points="230.15,-129.34 219.56,-129.17 227.73,-135.91 230.15,-129.34"/>
</a>
</g>
</g>
<!-- Node20 -->
<g id="Node000020" class="node">
<title>Node20</title>
<g id="a_Node000020"><a xlink:title=" ">
<polygon fill="#e0e0e0" stroke="#999999" points="289.5,-129 240.5,-129 240.5,-110 289.5,-110 289.5,-129"/>
<text text-anchor="middle" x="265" y="-117" font-family="Helvetica,sans-Serif" font-size="10.00">string.h</text>
</a>
</g>
</g>
<!-- Node17&#45;&gt;Node20 -->
<g id="edge28_Node000017_Node000020" class="edge">
<title>Node17&#45;&gt;Node20</title>
<g id="a_edge28_Node000017_Node000020"><a xlink:title=" ">
<path fill="none" stroke="#63b8ff" d="M327.95,-164.98C316.54,-156.92 299.17,-144.65 285.57,-135.03"/>
<polygon fill="#63b8ff" stroke="#63b8ff" points="287.46,-132.08 277.27,-129.17 283.42,-137.8 287.46,-132.08"/>
</a>
</g>
</g>
<!-- Node17&#45;&gt;Node21 -->
<g id="edge29_Node000017_Node000021" class="edge">
<title>Node17&#45;&gt;Node21</title>
<g id="a_edge29_Node000017_Node000021"><a xlink:title=" ">
<path fill="none" stroke="#63b8ff" d="M344.62,-164.75C348.46,-157.49 354.02,-146.95 358.76,-137.98"/>
<polygon fill="#63b8ff" stroke="#63b8ff" points="361.89,-139.57 363.46,-129.09 355.7,-136.3 361.89,-139.57"/>
</a>
</g>
</g>
<!-- Node22&#45;&gt;Node4 -->
<g id="edge34_Node000022_Node000004" class="edge">
<title>Node22&#45;&gt;Node4</title>
<g id="a_edge34_Node000022_Node000004"><a xlink:title=" ">
<path fill="none" stroke="#63b8ff" d="M1180.13,-223.66C1271.37,-212.64 1475.73,-182.43 1517,-129 1545.59,-91.98 1472.59,-76.16 1419.81,-69.68"/>
<polygon fill="#63b8ff" stroke="#63b8ff" points="1419.9,-66.17 1409.56,-68.51 1419.1,-73.12 1419.9,-66.17"/>
</a>
</g>
</g>
<!-- Node22&#45;&gt;Node7 -->
<g id="edge35_Node000022_Node000007" class="edge">
<title>Node22&#45;&gt;Node7</title>
<g id="a_edge35_Node000022_Node000007"><a xlink:title=" ">
<path fill="none" stroke="#63b8ff" d="M1091.58,-227.42C965.06,-224.01 609.05,-212.01 565,-184 548.99,-173.82 539.4,-153.84 534.19,-139"/>
<polygon fill="#63b8ff" stroke="#63b8ff" points="537.48,-137.8 531.14,-129.31 530.8,-139.9 537.48,-137.8"/>
</a>
</g>
</g>
<!-- Node22&#45;&gt;Node23 -->
<g id="edge36_Node000022_Node000023" class="edge">
<title>Node22&#45;&gt;Node23</title>
<g id="a_edge36_Node000022_Node000023"><a xlink:title=" ">
<path fill="none" stroke="#63b8ff" d="M1180,-223.18C1259.4,-213.57 1426.63,-193.33 1515.53,-182.57"/>
<polygon fill="#63b8ff" stroke="#63b8ff" points="1516.21,-186.02 1525.72,-181.34 1515.37,-179.07 1516.21,-186.02"/>
</a>
</g>
</g>
<!-- Node25 -->
<g id="Node000025" class="node">
<title>Node25</title>
<g id="a_Node000025"><a xlink:href="SocketCommon_8h.html" target="_top" xlink:title=" ">
<polygon fill="white" stroke="#666666" points="1200,-184 1072,-184 1072,-165 1200,-165 1200,-184"/>
<text text-anchor="middle" x="1136" y="-172" font-family="Helvetica,sans-Serif" font-size="10.00">socket/SocketCommon.h</text>
</a>
</g>
</g>
<!-- Node22&#45;&gt;Node25 -->
<g id="edge41_Node000022_Node000025" class="edge">
<title>Node22&#45;&gt;Node25</title>
<g id="a_edge41_Node000022_Node000025"><a xlink:title=" ">
<path fill="none" stroke="#63b8ff" d="M1136,-219.75C1136,-212.8 1136,-202.85 1136,-194.13"/>
<polygon fill="#63b8ff" stroke="#63b8ff" points="1139.5,-194.09 1136,-184.09 1132.5,-194.09 1139.5,-194.09"/>
</a>
</g>
</g>
<!-- Node23&#45;&gt;Node3 -->
<g id="edge39_Node000023_Node000003" class="edge">
<title>Node23&#45;&gt;Node3</title>
<g id="a_edge39_Node000023_Node000003"><a xlink:title=" ">
<path fill="none" stroke="#63b8ff" d="M1569.39,-164.97C1561.1,-150.61 1542.14,-121.98 1517,-110 1444.38,-75.41 874.2,-80.1 794,-74 778.66,-72.83 761.76,-71.17 747.24,-69.63"/>
<polygon fill="#63b8ff" stroke="#63b8ff" points="747.46,-66.13 737.14,-68.53 746.7,-73.09 747.46,-66.13"/>
</a>
</g>
</g>
<!-- Node23&#45;&gt;Node4 -->
<g id="edge37_Node000023_Node000004" class="edge">
<title>Node23&#45;&gt;Node4</title>
<g id="a_edge37_Node000023_Node000004"><a xlink:title=" ">
<path fill="none" stroke="#63b8ff" d="M1590.09,-164.81C1610.81,-152.53 1642.32,-129.42 1626,-110 1600.2,-79.31 1486.46,-69.78 1419.92,-66.83"/>
<polygon fill="#63b8ff" stroke="#63b8ff" points="1419.8,-63.32 1409.66,-66.41 1419.51,-70.31 1419.8,-63.32"/>
</a>
</g>
</g>
<!-- Node23&#45;&gt;Node13 -->
<g id="edge40_Node000023_Node000013" class="edge">
<title>Node23&#45;&gt;Node13</title>
<g id="a_edge40_Node000023_Node000013"><a xlink:title=" ">
<path fill="none" stroke="#63b8ff" d="M1573.41,-164.96C1571.96,-151.09 1566.99,-123.85 1550,-110 1473.61,-47.76 1427.2,-88.51 1324.74,-73.94"/>
<polygon fill="#63b8ff" stroke="#63b8ff" points="1325.07,-70.45 1314.64,-72.36 1323.98,-77.37 1325.07,-70.45"/>
</a>
</g>
</g>
<!-- Node24 -->
<g id="Node000024" class="node">
<title>Node24</title>
<g id="a_Node000024"><a xlink:title=" ">
<polygon fill="#e0e0e0" stroke="#999999" points="1507.5,-129 1458.5,-129 1458.5,-110 1507.5,-110 1507.5,-129"/>
<text text-anchor="middle" x="1483" y="-117" font-family="Helvetica,sans-Serif" font-size="10.00">netdb.h</text>
</a>
</g>
</g>
<!-- Node23&#45;&gt;Node24 -->
<g id="edge38_Node000023_Node000024" class="edge">
<title>Node23&#45;&gt;Node24</title>
<g id="a_edge38_Node000023_Node000024"><a xlink:title=" ">
<path fill="none" stroke="#63b8ff" d="M1559.38,-164.98C1545.14,-156.69 1523.25,-143.94 1506.55,-134.22"/>
<polygon fill="#63b8ff" stroke="#63b8ff" points="1508.29,-131.18 1497.89,-129.17 1504.77,-137.23 1508.29,-131.18"/>
</a>
</g>
</g>
<!-- Node25&#45;&gt;Node2 -->
<g id="edge51_Node000025_Node000002" class="edge">
<title>Node25&#45;&gt;Node2</title>
<g id="a_edge51_Node000025_Node000002"><a xlink:title=" ">
<path fill="none" stroke="#63b8ff" d="M1073.98,-164.98C996.45,-154.34 865.51,-136.36 796.22,-126.85"/>
<polygon fill="#63b8ff" stroke="#63b8ff" points="796.43,-123.34 786.05,-125.45 795.48,-130.28 796.43,-123.34"/>
</a>
</g>
</g>
<!-- Node25&#45;&gt;Node4 -->
<g id="edge52_Node000025_Node000004" class="edge">
<title>Node25&#45;&gt;Node4</title>
<g id="a_edge52_Node000025_Node000004"><a xlink:title=" ">
<path fill="none" stroke="#63b8ff" d="M1195.48,-164.98C1228.63,-158.47 1269.8,-147.39 1303,-129 1324.73,-116.96 1344.9,-96.47 1357.53,-82.02"/>
<polygon fill="#63b8ff" stroke="#63b8ff" points="1360.26,-84.22 1364.06,-74.33 1354.92,-79.69 1360.26,-84.22"/>
</a>
</g>
</g>
<!-- Node25&#45;&gt;Node7 -->
<g id="edge53_Node000025_Node000007" class="edge">
<title>Node25&#45;&gt;Node7</title>
<g id="a_edge53_Node000025_Node000007"><a xlink:title=" ">
<path fill="none" stroke="#63b8ff" d="M1071.9,-167.9C955.05,-157.7 708.74,-136.19 592.41,-126.04"/>
<polygon fill="#63b8ff" stroke="#63b8ff" points="592.5,-122.53 582.24,-125.15 591.89,-129.5 592.5,-122.53"/>
</a>
</g>
</g>
<!-- Node25&#45;&gt;Node9 -->
<g id="edge44_Node000025_Node000009" class="edge">
<title>Node25&#45;&gt;Node9</title>
<g id="a_edge44_Node000025_Node000009"><a xlink:title=" ">
<path fill="none" stroke="#63b8ff" d="M1113.77,-164.92C1091.28,-156.15 1055.56,-142.03 1025,-129 1006.15,-120.96 1002.25,-117.02 983,-110 940.12,-94.36 889.05,-80.87 856.82,-72.97"/>
<polygon fill="#63b8ff" stroke="#63b8ff" points="857.6,-69.55 847.05,-70.6 855.95,-76.36 857.6,-69.55"/>
</a>
</g>
</g>
<!-- Node25&#45;&gt;Node10 -->
<g id="edge46_Node000025_Node000010" class="edge">
<title>Node25&#45;&gt;Node10</title>
<g id="a_edge46_Node000025_Node000010"><a xlink:title=" ">
<path fill="none" stroke="#63b8ff" d="M1120.69,-164.84C1087.5,-146.08 1008.7,-101.52 968.89,-79.01"/>
<polygon fill="#63b8ff" stroke="#63b8ff" points="970.54,-75.92 960.12,-74.05 967.1,-82.02 970.54,-75.92"/>
</a>
</g>
</g>
<!-- Node25&#45;&gt;Node13 -->
<g id="edge47_Node000025_Node000013" class="edge">
<title>Node25&#45;&gt;Node13</title>
<g id="a_edge47_Node000025_Node000013"><a xlink:title=" ">
<path fill="none" stroke="#63b8ff" d="M1200.01,-171.69C1231.51,-167.15 1266.95,-155.81 1287,-129 1296.67,-116.07 1292.5,-97.41 1287.06,-83.66"/>
<polygon fill="#63b8ff" stroke="#63b8ff" points="1290.14,-81.98 1282.86,-74.28 1283.75,-84.84 1290.14,-81.98"/>
</a>
</g>
</g>
<!-- Node25&#45;&gt;Node24 -->
<g id="edge45_Node000025_Node000024" class="edge">
<title>Node25&#45;&gt;Node24</title>
<g id="a_edge45_Node000025_Node000024"><a xlink:title=" ">
<path fill="none" stroke="#63b8ff" d="M1200.17,-166.35C1261.43,-159.08 1356.51,-146.64 1448.18,-128.97"/>
<polygon fill="#63b8ff" stroke="#63b8ff" points="1449.04,-132.37 1458.18,-127.02 1447.7,-125.5 1449.04,-132.37"/>
</a>
</g>
</g>
<!-- Node26 -->
<g id="Node000026" class="node">
<title>Node26</title>
<g id="a_Node000026"><a xlink:title=" ">
<polygon fill="#e0e0e0" stroke="#999999" points="974,-129 918,-129 918,-110 974,-110 974,-129"/>
<text text-anchor="middle" x="946" y="-117" font-family="Helvetica,sans-Serif" font-size="10.00">stdbool.h</text>
</a>
</g>
</g>
<!-- Node25&#45;&gt;Node26 -->
<g id="edge42_Node000025_Node000026" class="edge">
<title>Node25&#45;&gt;Node26</title>
<g id="a_edge42_Node000025_Node000026"><a xlink:title=" ">
<path fill="none" stroke="#63b8ff" d="M1105.47,-164.98C1072.53,-155.8 1020.02,-141.15 984.32,-131.19"/>
<polygon fill="#63b8ff" stroke="#63b8ff" points="984.85,-127.7 974.28,-128.39 982.97,-134.45 984.85,-127.7"/>
</a>
</g>
</g>
<!-- Node27 -->
<g id="Node000027" class="node">
<title>Node27</title>
<g id="a_Node000027"><a xlink:title=" ">
<polygon fill="#e0e0e0" stroke="#999999" points="1125.5,-129 1068.5,-129 1068.5,-110 1125.5,-110 1125.5,-129"/>
<text text-anchor="middle" x="1097" y="-117" font-family="Helvetica,sans-Serif" font-size="10.00">pthread.h</text>
</a>
</g>
</g>
<!-- Node25&#45;&gt;Node27 -->
<g id="edge43_Node000025_Node000027" class="edge">
<title>Node25&#45;&gt;Node27</title>
<g id="a_edge43_Node000025_Node000027"><a xlink:title=" ">
<path fill="none" stroke="#63b8ff" d="M1129.56,-164.75C1124.11,-157.34 1116.14,-146.5 1109.44,-137.41"/>
<polygon fill="#63b8ff" stroke="#63b8ff" points="1112.07,-135.07 1103.32,-129.09 1106.43,-139.22 1112.07,-135.07"/>
</a>
</g>
</g>
<!-- Node28 -->
<g id="Node000028" class="node">
<title>Node28</title>
<g id="a_Node000028"><a xlink:title=" ">
<polygon fill="#e0e0e0" stroke="#999999" points="1206,-129 1144,-129 1144,-110 1206,-110 1206,-129"/>
<text text-anchor="middle" x="1175" y="-117" font-family="Helvetica,sans-Serif" font-size="10.00">sys/time.h</text>
</a>
</g>
</g>
<!-- Node25&#45;&gt;Node28 -->
<g id="edge48_Node000025_Node000028" class="edge">
<title>Node25&#45;&gt;Node28</title>
<g id="a_edge48_Node000025_Node000028"><a xlink:title=" ">
<path fill="none" stroke="#63b8ff" d="M1142.44,-164.75C1147.89,-157.34 1155.86,-146.5 1162.56,-137.41"/>
<polygon fill="#63b8ff" stroke="#63b8ff" points="1165.57,-139.22 1168.68,-129.09 1159.93,-135.07 1165.57,-139.22"/>
</a>
</g>
</g>
<!-- Node29 -->
<g id="Node000029" class="node">
<title>Node29</title>
<g id="a_Node000029"><a xlink:title=" ">
<polygon fill="#e0e0e0" stroke="#999999" points="1440,-129 1372,-129 1372,-110 1440,-110 1440,-129"/>
<text text-anchor="middle" x="1406" y="-117" font-family="Helvetica,sans-Serif" font-size="10.00">sys/types.h</text>
</a>
</g>
</g>
<!-- Node25&#45;&gt;Node29 -->
<g id="edge49_Node000025_Node000029" class="edge">
<title>Node25&#45;&gt;Node29</title>
<g id="a_edge49_Node000025_Node000029"><a xlink:title=" ">
<path fill="none" stroke="#63b8ff" d="M1179.38,-164.98C1229.45,-155.16 1311.34,-139.08 1361.77,-129.18"/>
<polygon fill="#63b8ff" stroke="#63b8ff" points="1362.58,-132.59 1371.72,-127.23 1361.23,-125.72 1362.58,-132.59"/>
</a>
</g>
</g>
<!-- Node30 -->
<g id="Node000030" class="node">
<title>Node30</title>
<g id="a_Node000030"><a xlink:title=" ">
<polygon fill="#e0e0e0" stroke="#999999" points="1278,-129 1224,-129 1224,-110 1278,-110 1278,-129"/>
<text text-anchor="middle" x="1251" y="-117" font-family="Helvetica,sans-Serif" font-size="10.00">sys/un.h</text>
</a>
</g>
</g>
<!-- Node25&#45;&gt;Node30 -->
<g id="edge50_Node000025_Node000030" class="edge">
<title>Node25&#45;&gt;Node30</title>
<g id="a_edge50_Node000025_Node000030"><a xlink:title=" ">
<path fill="none" stroke="#63b8ff" d="M1154.48,-164.98C1172.98,-156.46 1201.68,-143.23 1222.98,-133.41"/>
<polygon fill="#63b8ff" stroke="#63b8ff" points="1224.57,-136.53 1232.19,-129.17 1221.64,-130.18 1224.57,-136.53"/>
</a>
</g>
</g>
<!-- Node31&#45;&gt;Node2 -->
<g id="edge55_Node000031_Node000002" class="edge">
<title>Node31&#45;&gt;Node2</title>
<g id="a_edge55_Node000031_Node000002"><a xlink:title=" ">
<path fill="none" stroke="#63b8ff" d="M870.86,-164.98C847.18,-156.27 810.13,-142.63 783.29,-132.75"/>
<polygon fill="#63b8ff" stroke="#63b8ff" points="784.15,-129.34 773.56,-129.17 781.73,-135.91 784.15,-129.34"/>
</a>
</g>
</g>
<!-- Node31&#45;&gt;Node3 -->
<g id="edge56_Node000031_Node000003" class="edge">
<title>Node31&#45;&gt;Node3</title>
<g id="a_edge56_Node000031_Node000003"><a xlink:title=" ">
<path fill="none" stroke="#63b8ff" d="M887.14,-164.97C876,-151.61 852.71,-125.66 828,-110 802.78,-94.02 770.94,-82.38 746.84,-75.02"/>
<polygon fill="#63b8ff" stroke="#63b8ff" points="747.61,-71.6 737.03,-72.12 745.63,-78.31 747.61,-71.6"/>
</a>
</g>
</g>
<!-- Node31&#45;&gt;Node4 -->
<g id="edge58_Node000031_Node000004" class="edge">
<title>Node31&#45;&gt;Node4</title>
<g id="a_edge58_Node000031_Node000004"><a xlink:title=" ">
<path fill="none" stroke="#63b8ff" d="M893.18,-164.94C892.36,-151.06 893.06,-123.78 909,-110 942.24,-81.27 1244.96,-80.16 1321.97,-73.85"/>
<polygon fill="#63b8ff" stroke="#63b8ff" points="1322.73,-77.29 1332.32,-72.79 1322.01,-70.33 1322.73,-77.29"/>
</a>
</g>
</g>
<!-- Node31&#45;&gt;Node26 -->
<g id="edge57_Node000031_Node000026" class="edge">
<title>Node31&#45;&gt;Node26</title>
<g id="a_edge57_Node000031_Node000026"><a xlink:title=" ">
<path fill="none" stroke="#63b8ff" d="M902.59,-164.75C910.16,-157.03 921.38,-145.6 930.51,-136.28"/>
<polygon fill="#63b8ff" stroke="#63b8ff" points="933.07,-138.68 937.57,-129.09 928.07,-133.78 933.07,-138.68"/>
</a>
</g>
</g>
<!-- Node32&#45;&gt;Node3 -->
<g id="edge62_Node000032_Node000003" class="edge">
<title>Node32&#45;&gt;Node3</title>
<g id="a_edge62_Node000032_Node000003"><a xlink:title=" ">
<path fill="none" stroke="#63b8ff" d="M1068.27,-275.98C1001.92,-265.49 901.23,-240.86 834,-184 805.61,-159.99 821.26,-136.32 795,-110 781.07,-96.04 761.83,-85.41 745.28,-78.05"/>
<polygon fill="#63b8ff" stroke="#63b8ff" points="746.48,-74.76 735.91,-74.09 743.76,-81.21 746.48,-74.76"/>
</a>
</g>
</g>
<!-- Node32&#45;&gt;Node4 -->
<g id="edge60_Node000032_Node000004" class="edge">
<title>Node32&#45;&gt;Node4</title>
<g id="a_edge60_Node000032_Node000004"><a xlink:title=" ">
<path fill="none" stroke="#63b8ff" d="M1203.61,-279C1324.77,-269.53 1571.76,-243.3 1631,-184 1654.5,-160.48 1663.52,-135.34 1642,-110 1614.08,-77.12 1490.22,-68.49 1420.01,-66.25"/>
<polygon fill="#63b8ff" stroke="#63b8ff" points="1419.73,-62.74 1409.64,-65.96 1419.53,-69.74 1419.73,-62.74"/>
</a>
</g>
</g>
<!-- Node32&#45;&gt;Node22 -->
<g id="edge61_Node000032_Node000022" class="edge">
<title>Node32&#45;&gt;Node22</title>
<g id="a_edge61_Node000032_Node000022"><a xlink:title=" ">
<path fill="none" stroke="#63b8ff" d="M1136,-274.75C1136,-267.8 1136,-257.85 1136,-249.13"/>
<polygon fill="#63b8ff" stroke="#63b8ff" points="1139.5,-249.09 1136,-239.09 1132.5,-249.09 1139.5,-249.09"/>
</a>
</g>
</g>
<!-- Node32&#45;&gt;Node29 -->
<g id="edge63_Node000032_Node000029" class="edge">
<title>Node32&#45;&gt;Node29</title>
<g id="a_edge63_Node000032_Node000029"><a xlink:title=" ">
<path fill="none" stroke="#63b8ff" d="M1150.14,-274.97C1194.05,-248.46 1328.4,-167.35 1382.78,-134.52"/>
<polygon fill="#63b8ff" stroke="#63b8ff" points="1384.93,-137.31 1391.68,-129.15 1381.31,-131.32 1384.93,-137.31"/>
</a>
</g>
</g>
</g>
</svg>

<g id="navigator" transform="translate(0 0)" fill="#404254">
  <rect fill="#f2f5e9" fill-opacity="0.5" stroke="#606060" stroke-width=".5" x="0" y="0" width="60" height="60"/>
  <use id="zoomplus" xlink:href="#zoomPlus" x="17" y="9" onmousedown="handleZoom(evt,'in')"/>
  <use id="zoomminus" xlink:href="#zoomMin" x="42" y="9" onmousedown="handleZoom(evt,'out')"/>
  <use id="reset" xlink:href="#resetDef" x="30" y="36" onmousedown="handleReset()"/>
   <use id="arrowup" xlink:href="#arrowUp" x="0" y="0" onmousedown="handlePan(0,-1)"/>
  <use id="arrowright" xlink:href="#arrowRight" x="0" y="0" onmousedown="handlePan(1,0)"/>
  <use id="arrowdown" xlink:href="#arrowDown" x="0" y="0" onmousedown="handlePan(0,1)"/>
  <use id="arrowleft" xlink:href="#arrowLeft" x="0" y="0" onmousedown="handlePan(-1,0)"/>
</g>
<svg viewBox="0 0 15 15" width="100%" height="30px" preserveAspectRatio="xMaxYMin meet">
 <g id="arrow_out" transform="scale(0.3 0.3)">
  <a xlink:href="SocketPool_8h__incl_org.svg" target="_base">
   <rect id="button" ry="5" rx="5" y="6" x="6" height="38" width="38"
        fill="#f2f5e9" fill-opacity="0.5" stroke="#606060" stroke-width="1.0"/>
   <path id="arrow"
     d="M 11.500037,31.436501 C 11.940474,20.09759 22.043105,11.32322 32.158766,21.979434 L 37.068811,17.246167 C 37.068811,17.246167 37.088388,32 37.088388,32 L 22.160133,31.978069 C 22.160133,31.978069 26.997745,27.140456 26.997745,27.140456 C 18.528582,18.264221 13.291696,25.230495 11.500037,31.436501 z"
     style="fill:#404040;"/>
  </a>
 </g>
</svg>

<style type='text/css'>
<![CDATA[
[data-mouse-over-selected='false'] { opacity: 0.7; }
[data-mouse-over-selected='true']  { opacity: 1.0; }
]]>
</style>
<script type="application/ecmascript"><![CDATA[
document.addEventListener('DOMContentLoaded', (event) => {
  highlightEdges();
  highlightAdjacentNodes();
});
]]></script>
</svg>
