<?xml version="1.0" encoding="UTF-8" standalone="no"?>
<!DOCTYPE svg PUBLIC "-//W3C//DTD SVG 1.1//EN"
 "http://www.w3.org/Graphics/SVG/1.1/DTD/svg11.dtd">
<!-- Generated by graphviz version 2.43.0 (0)
 -->
<!-- Title: SocketHTTPClient.h Pages: 1 -->
<svg width="403pt" height="82pt"
 viewBox="0.00 0.00 402.50 82.00" xmlns="http://www.w3.org/2000/svg" xmlns:xlink="http://www.w3.org/1999/xlink">
<g id="graph0" class="graph" transform="scale(1 1) rotate(0) translate(4 78)">
<title>SocketHTTPClient.h</title>
<!-- Node1 -->
<g id="Node000001" class="node">
<title>Node1</title>
<g id="a_Node000001"><a xlink:title="Public API for the HTTP client module, including types, functions, and configuration.">
<polygon fill="#999999" stroke="#666666" points="291.5,-74 184.5,-74 184.5,-55 291.5,-55 291.5,-74"/>
<text text-anchor="middle" x="238" y="-62" font-family="Helvetica,sans-Serif" font-size="10.00">SocketHTTPClient.h</text>
</a>
</g>
</g>
<!-- Node2 -->
<g id="Node000002" class="node">
<title>Node2</title>
<g id="a_Node000002"><a xlink:href="SocketHTTPClient-private_8h.html" target="_top" xlink:title="Internal HTTP client structures and connection pooling.">
<polygon fill="white" stroke="#666666" points="140,-19 0,-19 0,0 140,0 140,-19"/>
<text text-anchor="middle" x="70" y="-7" font-family="Helvetica,sans-Serif" font-size="10.00">SocketHTTPClient&#45;private.h</text>
</a>
</g>
</g>
<!-- Node1&#45;&gt;Node2 -->
<g id="edge1_Node000001_Node000002" class="edge">
<title>Node1&#45;&gt;Node2</title>
<g id="a_edge1_Node000001_Node000002"><a xlink:title=" ">
<path fill="none" stroke="#63b8ff" d="M201.32,-51.93C169.94,-42.03 125.49,-28.01 97.2,-19.08"/>
<polygon fill="#63b8ff" stroke="#63b8ff" points="200.42,-55.31 211.01,-54.98 202.52,-48.64 200.42,-55.31"/>
</a>
</g>
</g>
<!-- Node3 -->
<g id="Node000003" class="node">
<title>Node3</title>
<g id="a_Node000003"><a xlink:href="http2__client_8c.html" target="_top" xlink:title=" ">
<polygon fill="white" stroke="#666666" points="233.5,-19 158.5,-19 158.5,0 233.5,0 233.5,-19"/>
<text text-anchor="middle" x="196" y="-7" font-family="Helvetica,sans-Serif" font-size="10.00">http2_client.c</text>
</a>
</g>
</g>
<!-- Node1&#45;&gt;Node3 -->
<g id="edge2_Node000001_Node000003" class="edge">
<title>Node1&#45;&gt;Node3</title>
<g id="a_edge2_Node000001_Node000003"><a xlink:title=" ">
<path fill="none" stroke="#63b8ff" d="M224.67,-46.67C217.39,-37.5 208.7,-26.52 202.81,-19.09"/>
<polygon fill="#63b8ff" stroke="#63b8ff" points="222.11,-49.08 231.06,-54.75 227.6,-44.74 222.11,-49.08"/>
</a>
</g>
</g>
<!-- Node4 -->
<g id="Node000004" class="node">
<title>Node4</title>
<g id="a_Node000004"><a xlink:href="http__get_8c.html" target="_top" xlink:title=" ">
<polygon fill="white" stroke="#666666" points="311,-19 251,-19 251,0 311,0 311,-19"/>
<text text-anchor="middle" x="281" y="-7" font-family="Helvetica,sans-Serif" font-size="10.00">http_get.c</text>
</a>
</g>
</g>
<!-- Node1&#45;&gt;Node4 -->
<g id="edge3_Node000001_Node000004" class="edge">
<title>Node1&#45;&gt;Node4</title>
<g id="a_edge3_Node000001_Node000004"><a xlink:title=" ">
<path fill="none" stroke="#63b8ff" d="M251.42,-46.96C258.91,-37.72 267.94,-26.6 274.03,-19.09"/>
<polygon fill="#63b8ff" stroke="#63b8ff" points="248.68,-44.78 245.1,-54.75 254.12,-49.19 248.68,-44.78"/>
</a>
</g>
</g>
<!-- Node5 -->
<g id="Node000005" class="node">
<title>Node5</title>
<g id="a_Node000005"><a xlink:href="http__post_8c.html" target="_top" xlink:title=" ">
<polygon fill="white" stroke="#666666" points="394.5,-19 329.5,-19 329.5,0 394.5,0 394.5,-19"/>
<text text-anchor="middle" x="362" y="-7" font-family="Helvetica,sans-Serif" font-size="10.00">http_post.c</text>
</a>
</g>
</g>
<!-- Node1&#45;&gt;Node5 -->
<g id="edge4_Node000001_Node000005" class="edge">
<title>Node1&#45;&gt;Node5</title>
<g id="a_edge4_Node000001_Node000005"><a xlink:title=" ">
<path fill="none" stroke="#63b8ff" d="M267.18,-51.03C290.11,-41.23 321.45,-27.83 341.71,-19.17"/>
<polygon fill="#63b8ff" stroke="#63b8ff" points="265.74,-47.84 257.92,-54.98 268.49,-54.27 265.74,-47.84"/>
</a>
</g>
</g>
</g>
</svg>
