<?xml version="1.0" encoding="UTF-8" standalone="no"?>
<!DOCTYPE svg PUBLIC "-//W3C//DTD SVG 1.1//EN"
 "http://www.w3.org/Graphics/SVG/1.1/DTD/svg11.dtd">
<!-- Generated by graphviz version 2.43.0 (0)
 -->
<!-- Title: SocketHappyEyeballs.h Pages: 1 -->
<svg width="1341pt" height="357pt"
 viewBox="0.00 0.00 1340.50 357.00" xmlns="http://www.w3.org/2000/svg" xmlns:xlink="http://www.w3.org/1999/xlink">
<g id="graph0" class="graph" transform="scale(1 1) rotate(0) translate(4 353)">
<title>SocketHappyEyeballs.h</title>
<!-- Node1 -->
<g id="Node000001" class="node">
<title>Node1</title>
<g id="a_Node000001"><a xlink:title="Happy Eyeballs (RFC 8305) implementation for fast dual&#45;stack connections.">
<polygon fill="#999999" stroke="#666666" points="247,-349 125,-349 125,-330 247,-330 247,-349"/>
<text text-anchor="middle" x="186" y="-337" font-family="Helvetica,sans-Serif" font-size="10.00">SocketHappyEyeballs.h</text>
</a>
</g>
</g>
<!-- Node2 -->
<g id="Node000002" class="node">
<title>Node2</title>
<g id="a_Node000002"><a xlink:href="Except_8h.html" target="_top" xlink:title="Structured exception handling for C with TRY/EXCEPT/FINALLY blocks.">
<polygon fill="white" stroke="#666666" points="234.5,-74 157.5,-74 157.5,-55 234.5,-55 234.5,-74"/>
<text text-anchor="middle" x="196" y="-62" font-family="Helvetica,sans-Serif" font-size="10.00">core/Except.h</text>
</a>
</g>
</g>
<!-- Node1&#45;&gt;Node2 -->
<g id="edge1_Node000001_Node000002" class="edge">
<title>Node1&#45;&gt;Node2</title>
<g id="a_edge1_Node000001_Node000002"><a xlink:title=" ">
<path fill="none" stroke="#63b8ff" d="M129.18,-329.98C74.48,-318.17 0,-290.99 0,-230.5 0,-230.5 0,-230.5 0,-173.5 0,-106.43 89.13,-80.7 147.18,-71.06"/>
<polygon fill="#63b8ff" stroke="#63b8ff" points="147.93,-74.49 157.28,-69.49 146.86,-67.57 147.93,-74.49"/>
</a>
</g>
</g>
<!-- Node4 -->
<g id="Node000004" class="node">
<title>Node4</title>
<g id="a_Node000004"><a xlink:href="SocketDNS_8h.html" target="_top" xlink:title="Asynchronous DNS resolution API.">
<polygon fill="white" stroke="#666666" points="328,-184 232,-184 232,-165 328,-165 328,-184"/>
<text text-anchor="middle" x="280" y="-172" font-family="Helvetica,sans-Serif" font-size="10.00">dns/SocketDNS.h</text>
</a>
</g>
</g>
<!-- Node1&#45;&gt;Node4 -->
<g id="edge3_Node000001_Node000004" class="edge">
<title>Node1&#45;&gt;Node4</title>
<g id="a_edge3_Node000001_Node000004"><a xlink:title=" ">
<path fill="none" stroke="#63b8ff" d="M189.81,-329.66C200.21,-305.68 229.15,-239.87 242,-220 248.54,-209.89 257.17,-199.61 264.55,-191.47"/>
<polygon fill="#63b8ff" stroke="#63b8ff" points="267.12,-193.84 271.39,-184.15 262.01,-189.07 267.12,-193.84"/>
</a>
</g>
</g>
<!-- Node8 -->
<g id="Node000008" class="node">
<title>Node8</title>
<g id="a_Node000008"><a xlink:href="SocketPoll_8h.html" target="_top" xlink:title="Cross&#45;platform high&#45;level interface for monitoring multiple sockets for I/O events.">
<polygon fill="white" stroke="#666666" points="195,-294 105,-294 105,-275 195,-275 195,-294"/>
<text text-anchor="middle" x="150" y="-282" font-family="Helvetica,sans-Serif" font-size="10.00">poll/SocketPoll.h</text>
</a>
</g>
</g>
<!-- Node1&#45;&gt;Node8 -->
<g id="edge8_Node000001_Node000008" class="edge">
<title>Node1&#45;&gt;Node8</title>
<g id="a_edge8_Node000001_Node000008"><a xlink:title=" ">
<path fill="none" stroke="#63b8ff" d="M180.06,-329.75C175.02,-322.34 167.66,-311.5 161.49,-302.41"/>
<polygon fill="#63b8ff" stroke="#63b8ff" points="164.35,-300.39 155.83,-294.09 158.56,-304.33 164.35,-300.39"/>
</a>
</g>
</g>
<!-- Node11 -->
<g id="Node000011" class="node">
<title>Node11</title>
<g id="a_Node000011"><a xlink:href="Socket_8h.html" target="_top" xlink:title="High&#45;level TCP/IP and Unix domain socket interface.">
<polygon fill="white" stroke="#666666" points="339,-239 251,-239 251,-220 339,-220 339,-239"/>
<text text-anchor="middle" x="295" y="-227" font-family="Helvetica,sans-Serif" font-size="10.00">socket/Socket.h</text>
</a>
</g>
</g>
<!-- Node1&#45;&gt;Node11 -->
<g id="edge41_Node000001_Node000011" class="edge">
<title>Node1&#45;&gt;Node11</title>
<g id="a_edge41_Node000001_Node000011"><a xlink:title=" ">
<path fill="none" stroke="#63b8ff" d="M196.46,-329.96C206.99,-321.24 223.56,-307.14 237,-294 252.59,-278.76 269.26,-260.25 280.71,-247.15"/>
<polygon fill="#63b8ff" stroke="#63b8ff" points="283.51,-249.27 287.42,-239.42 278.23,-244.68 283.51,-249.27"/>
</a>
</g>
</g>
<!-- Node3 -->
<g id="Node000003" class="node">
<title>Node3</title>
<g id="a_Node000003"><a xlink:title=" ">
<polygon fill="#e0e0e0" stroke="#999999" points="223,-19 169,-19 169,0 223,0 223,-19"/>
<text text-anchor="middle" x="196" y="-7" font-family="Helvetica,sans-Serif" font-size="10.00">setjmp.h</text>
</a>
</g>
</g>
<!-- Node2&#45;&gt;Node3 -->
<g id="edge2_Node000002_Node000003" class="edge">
<title>Node2&#45;&gt;Node3</title>
<g id="a_edge2_Node000002_Node000003"><a xlink:title=" ">
<path fill="none" stroke="#63b8ff" d="M196,-54.75C196,-47.8 196,-37.85 196,-29.13"/>
<polygon fill="#63b8ff" stroke="#63b8ff" points="199.5,-29.09 196,-19.09 192.5,-29.09 199.5,-29.09"/>
</a>
</g>
</g>
<!-- Node4&#45;&gt;Node2 -->
<g id="edge4_Node000004_Node000002" class="edge">
<title>Node4&#45;&gt;Node2</title>
<g id="a_edge4_Node000004_Node000002"><a xlink:title=" ">
<path fill="none" stroke="#63b8ff" d="M273.13,-164.66C259.09,-146.61 226.94,-105.28 208.89,-82.08"/>
<polygon fill="#63b8ff" stroke="#63b8ff" points="211.64,-79.9 202.73,-74.16 206.11,-84.2 211.64,-79.9"/>
</a>
</g>
</g>
<!-- Node5 -->
<g id="Node000005" class="node">
<title>Node5</title>
<g id="a_Node000005"><a xlink:title=" ">
<polygon fill="#e0e0e0" stroke="#999999" points="349.5,-129 300.5,-129 300.5,-110 349.5,-110 349.5,-129"/>
<text text-anchor="middle" x="325" y="-117" font-family="Helvetica,sans-Serif" font-size="10.00">netdb.h</text>
</a>
</g>
</g>
<!-- Node4&#45;&gt;Node5 -->
<g id="edge5_Node000004_Node000005" class="edge">
<title>Node4&#45;&gt;Node5</title>
<g id="a_edge5_Node000004_Node000005"><a xlink:title=" ">
<path fill="none" stroke="#63b8ff" d="M287.43,-164.75C293.85,-157.18 303.31,-146.05 311.12,-136.84"/>
<polygon fill="#63b8ff" stroke="#63b8ff" points="313.9,-138.98 317.71,-129.09 308.57,-134.45 313.9,-138.98"/>
</a>
</g>
</g>
<!-- Node6 -->
<g id="Node000006" class="node">
<title>Node6</title>
<g id="a_Node000006"><a xlink:title=" ">
<polygon fill="#e0e0e0" stroke="#999999" points="468,-74 416,-74 416,-55 468,-55 468,-74"/>
<text text-anchor="middle" x="442" y="-62" font-family="Helvetica,sans-Serif" font-size="10.00">stddef.h</text>
</a>
</g>
</g>
<!-- Node4&#45;&gt;Node6 -->
<g id="edge6_Node000004_Node000006" class="edge">
<title>Node4&#45;&gt;Node6</title>
<g id="a_edge6_Node000004_Node000006"><a xlink:title=" ">
<path fill="none" stroke="#63b8ff" d="M279.03,-164.89C278.02,-151.42 278.16,-125.32 292,-110 320.79,-78.12 371.25,-68.65 405.62,-66.06"/>
<polygon fill="#63b8ff" stroke="#63b8ff" points="405.96,-69.55 415.73,-65.46 405.54,-62.56 405.96,-69.55"/>
</a>
</g>
</g>
<!-- Node7 -->
<g id="Node000007" class="node">
<title>Node7</title>
<g id="a_Node000007"><a xlink:title=" ">
<polygon fill="#e0e0e0" stroke="#999999" points="738.5,-74 665.5,-74 665.5,-55 738.5,-55 738.5,-74"/>
<text text-anchor="middle" x="702" y="-62" font-family="Helvetica,sans-Serif" font-size="10.00">sys/socket.h</text>
</a>
</g>
</g>
<!-- Node4&#45;&gt;Node7 -->
<g id="edge7_Node000004_Node000007" class="edge">
<title>Node4&#45;&gt;Node7</title>
<g id="a_edge7_Node000004_Node000007"><a xlink:title=" ">
<path fill="none" stroke="#63b8ff" d="M328.21,-166.67C370.78,-159.81 434.11,-147.57 487,-129 504.82,-122.74 507.29,-116.56 525,-110 567.99,-94.06 618.94,-81.92 655.11,-74.38"/>
<polygon fill="#63b8ff" stroke="#63b8ff" points="656.27,-77.72 665.37,-72.28 654.87,-70.86 656.27,-77.72"/>
</a>
</g>
</g>
<!-- Node8&#45;&gt;Node2 -->
<g id="edge9_Node000008_Node000002" class="edge">
<title>Node8&#45;&gt;Node2</title>
<g id="a_edge9_Node000008_Node000002"><a xlink:title=" ">
<path fill="none" stroke="#63b8ff" d="M151.8,-274.95C158.57,-242.88 182.56,-129.2 192.07,-84.12"/>
<polygon fill="#63b8ff" stroke="#63b8ff" points="195.52,-84.73 194.16,-74.22 188.67,-83.29 195.52,-84.73"/>
</a>
</g>
</g>
<!-- Node9 -->
<g id="Node000009" class="node">
<title>Node9</title>
<g id="a_Node000009"><a xlink:href="SocketTimer_8h.html" target="_top" xlink:title="High&#45;performance timer subsystem integrated with the event loop.">
<polygon fill="white" stroke="#666666" points="129.5,-239 28.5,-239 28.5,-220 129.5,-220 129.5,-239"/>
<text text-anchor="middle" x="79" y="-227" font-family="Helvetica,sans-Serif" font-size="10.00">core/SocketTimer.h</text>
</a>
</g>
</g>
<!-- Node8&#45;&gt;Node9 -->
<g id="edge10_Node000008_Node000009" class="edge">
<title>Node8&#45;&gt;Node9</title>
<g id="a_edge10_Node000008_Node000009"><a xlink:title=" ">
<path fill="none" stroke="#63b8ff" d="M138.59,-274.98C127.89,-267 111.66,-254.88 98.84,-245.31"/>
<polygon fill="#63b8ff" stroke="#63b8ff" points="100.72,-242.35 90.61,-239.17 96.53,-247.96 100.72,-242.35"/>
</a>
</g>
</g>
<!-- Node8&#45;&gt;Node11 -->
<g id="edge13_Node000008_Node000011" class="edge">
<title>Node8&#45;&gt;Node11</title>
<g id="a_edge13_Node000008_Node000011"><a xlink:title=" ">
<path fill="none" stroke="#63b8ff" d="M173.3,-274.98C197.25,-266.23 234.78,-252.51 261.83,-242.62"/>
<polygon fill="#63b8ff" stroke="#63b8ff" points="263.09,-245.89 271.28,-239.17 260.69,-239.32 263.09,-245.89"/>
</a>
</g>
</g>
<!-- Node9&#45;&gt;Node2 -->
<g id="edge11_Node000009_Node000002" class="edge">
<title>Node9&#45;&gt;Node2</title>
<g id="a_edge11_Node000009_Node000002"><a xlink:title=" ">
<path fill="none" stroke="#63b8ff" d="M75.01,-219.8C69.8,-207.09 62.31,-183.02 71,-165 90.89,-123.74 137.13,-94.31 167.45,-78.62"/>
<polygon fill="#63b8ff" stroke="#63b8ff" points="169.3,-81.6 176.68,-74 166.17,-75.34 169.3,-81.6"/>
</a>
</g>
</g>
<!-- Node10 -->
<g id="Node000010" class="node">
<title>Node10</title>
<g id="a_Node000010"><a xlink:title=" ">
<polygon fill="#e0e0e0" stroke="#999999" points="129.5,-184 80.5,-184 80.5,-165 129.5,-165 129.5,-184"/>
<text text-anchor="middle" x="105" y="-172" font-family="Helvetica,sans-Serif" font-size="10.00">stdint.h</text>
</a>
</g>
</g>
<!-- Node9&#45;&gt;Node10 -->
<g id="edge12_Node000009_Node000010" class="edge">
<title>Node9&#45;&gt;Node10</title>
<g id="a_edge12_Node000009_Node000010"><a xlink:title=" ">
<path fill="none" stroke="#63b8ff" d="M83.29,-219.75C86.81,-212.57 91.91,-202.18 96.28,-193.27"/>
<polygon fill="#63b8ff" stroke="#63b8ff" points="99.52,-194.61 100.79,-184.09 93.24,-191.53 99.52,-194.61"/>
</a>
</g>
</g>
<!-- Node11&#45;&gt;Node2 -->
<g id="edge14_Node000011_Node000002" class="edge">
<title>Node11&#45;&gt;Node2</title>
<g id="a_edge14_Node000011_Node000002"><a xlink:title=" ">
<path fill="none" stroke="#63b8ff" d="M272.1,-219.98C255.96,-212.81 235.13,-200.98 223,-184 201.5,-153.92 196.78,-109.49 195.95,-84.46"/>
<polygon fill="#63b8ff" stroke="#63b8ff" points="199.44,-84.1 195.79,-74.15 192.44,-84.21 199.44,-84.1"/>
</a>
</g>
</g>
<!-- Node11&#45;&gt;Node4 -->
<g id="edge25_Node000011_Node000004" class="edge">
<title>Node11&#45;&gt;Node4</title>
<g id="a_edge25_Node000011_Node000004"><a xlink:title=" ">
<path fill="none" stroke="#63b8ff" d="M292.52,-219.75C290.54,-212.72 287.68,-202.62 285.19,-193.84"/>
<polygon fill="#63b8ff" stroke="#63b8ff" points="288.52,-192.76 282.43,-184.09 281.79,-194.66 288.52,-192.76"/>
</a>
</g>
</g>
<!-- Node12 -->
<g id="Node000012" class="node">
<title>Node12</title>
<g id="a_Node000012"><a xlink:href="SocketConfig_8h.html" target="_top" xlink:title="Compile&#45;time configuration and platform detection for the socket library.">
<polygon fill="white" stroke="#666666" points="1142,-129 1036,-129 1036,-110 1142,-110 1142,-129"/>
<text text-anchor="middle" x="1089" y="-117" font-family="Helvetica,sans-Serif" font-size="10.00">core/SocketConfig.h</text>
</a>
</g>
</g>
<!-- Node11&#45;&gt;Node12 -->
<g id="edge15_Node000011_Node000012" class="edge">
<title>Node11&#45;&gt;Node12</title>
<g id="a_edge15_Node000011_Node000012"><a xlink:title=" ">
<path fill="none" stroke="#63b8ff" d="M339.2,-225.99C424.02,-220.82 615.4,-207.47 775,-184 870.97,-169.89 981.92,-145.53 1042.89,-131.44"/>
<polygon fill="#63b8ff" stroke="#63b8ff" points="1044.01,-134.77 1052.96,-129.1 1042.43,-127.95 1044.01,-134.77"/>
</a>
</g>
</g>
<!-- Node20 -->
<g id="Node000020" class="node">
<title>Node20</title>
<g id="a_Node000020"><a xlink:href="SocketCommon_8h.html" target="_top" xlink:title="Common utilities shared between Socket and SocketDgram modules.">
<polygon fill="white" stroke="#666666" points="766,-184 638,-184 638,-165 766,-165 766,-184"/>
<text text-anchor="middle" x="702" y="-172" font-family="Helvetica,sans-Serif" font-size="10.00">socket/SocketCommon.h</text>
</a>
</g>
</g>
<!-- Node11&#45;&gt;Node20 -->
<g id="edge26_Node000011_Node000020" class="edge">
<title>Node11&#45;&gt;Node20</title>
<g id="a_edge26_Node000011_Node000020"><a xlink:title=" ">
<path fill="none" stroke="#63b8ff" d="M339.33,-222.73C408.62,-213.7 543.37,-196.16 627.69,-185.18"/>
<polygon fill="#63b8ff" stroke="#63b8ff" points="628.25,-188.63 637.71,-183.87 627.34,-181.69 628.25,-188.63"/>
</a>
</g>
</g>
<!-- Node12&#45;&gt;Node6 -->
<g id="edge20_Node000012_Node000006" class="edge">
<title>Node12&#45;&gt;Node6</title>
<g id="a_edge20_Node000012_Node000006"><a xlink:title=" ">
<path fill="none" stroke="#63b8ff" d="M1035.81,-113.94C1020.68,-112.66 1004.19,-111.26 989,-110 796.67,-94 566.26,-75.46 478.42,-68.42"/>
<polygon fill="#63b8ff" stroke="#63b8ff" points="478.44,-64.91 468.19,-67.6 477.88,-71.89 478.44,-64.91"/>
</a>
</g>
</g>
<!-- Node12&#45;&gt;Node7 -->
<g id="edge22_Node000012_Node000007" class="edge">
<title>Node12&#45;&gt;Node7</title>
<g id="a_edge22_Node000012_Node000007"><a xlink:title=" ">
<path fill="none" stroke="#63b8ff" d="M1035.6,-111.19C959.51,-100.77 821.13,-81.81 748.83,-71.91"/>
<polygon fill="#63b8ff" stroke="#63b8ff" points="749.04,-68.41 738.66,-70.52 748.09,-75.34 749.04,-68.41"/>
</a>
</g>
</g>
<!-- Node13 -->
<g id="Node000013" class="node">
<title>Node13</title>
<g id="a_Node000013"><a xlink:title=" ">
<polygon fill="#e0e0e0" stroke="#999999" points="1035.5,-74 988.5,-74 988.5,-55 1035.5,-55 1035.5,-74"/>
<text text-anchor="middle" x="1012" y="-62" font-family="Helvetica,sans-Serif" font-size="10.00">errno.h</text>
</a>
</g>
</g>
<!-- Node12&#45;&gt;Node13 -->
<g id="edge16_Node000012_Node000013" class="edge">
<title>Node12&#45;&gt;Node13</title>
<g id="a_edge16_Node000012_Node000013"><a xlink:title=" ">
<path fill="none" stroke="#63b8ff" d="M1076.63,-109.98C1064.91,-101.92 1047.08,-89.65 1033.11,-80.03"/>
<polygon fill="#63b8ff" stroke="#63b8ff" points="1034.82,-76.96 1024.6,-74.17 1030.85,-82.72 1034.82,-76.96"/>
</a>
</g>
</g>
<!-- Node14 -->
<g id="Node000014" class="node">
<title>Node14</title>
<g id="a_Node000014"><a xlink:title=" ">
<polygon fill="#e0e0e0" stroke="#999999" points="844,-74 800,-74 800,-55 844,-55 844,-74"/>
<text text-anchor="middle" x="822" y="-62" font-family="Helvetica,sans-Serif" font-size="10.00">fcntl.h</text>
</a>
</g>
</g>
<!-- Node12&#45;&gt;Node14 -->
<g id="edge17_Node000012_Node000014" class="edge">
<title>Node12&#45;&gt;Node14</title>
<g id="a_edge17_Node000012_Node000014"><a xlink:title=" ">
<path fill="none" stroke="#63b8ff" d="M1046.1,-109.98C992.54,-99.35 902.14,-81.41 854.16,-71.88"/>
<polygon fill="#63b8ff" stroke="#63b8ff" points="854.81,-68.44 844.32,-69.93 853.44,-75.31 854.81,-68.44"/>
</a>
</g>
</g>
<!-- Node15 -->
<g id="Node000015" class="node">
<title>Node15</title>
<g id="a_Node000015"><a xlink:title=" ">
<polygon fill="#e0e0e0" stroke="#999999" points="970.5,-74 905.5,-74 905.5,-55 970.5,-55 970.5,-74"/>
<text text-anchor="middle" x="938" y="-62" font-family="Helvetica,sans-Serif" font-size="10.00">netinet/in.h</text>
</a>
</g>
</g>
<!-- Node12&#45;&gt;Node15 -->
<g id="edge18_Node000012_Node000015" class="edge">
<title>Node12&#45;&gt;Node15</title>
<g id="a_edge18_Node000012_Node000015"><a xlink:title=" ">
<path fill="none" stroke="#63b8ff" d="M1064.74,-109.98C1039.68,-101.19 1000.37,-87.39 972.17,-77.49"/>
<polygon fill="#63b8ff" stroke="#63b8ff" points="973.3,-74.18 962.7,-74.17 970.98,-80.78 973.3,-74.18"/>
</a>
</g>
</g>
<!-- Node16 -->
<g id="Node000016" class="node">
<title>Node16</title>
<g id="a_Node000016"><a xlink:title=" ">
<polygon fill="#e0e0e0" stroke="#999999" points="1124.5,-74 1053.5,-74 1053.5,-55 1124.5,-55 1124.5,-74"/>
<text text-anchor="middle" x="1089" y="-62" font-family="Helvetica,sans-Serif" font-size="10.00">netinet/tcp.h</text>
</a>
</g>
</g>
<!-- Node12&#45;&gt;Node16 -->
<g id="edge19_Node000012_Node000016" class="edge">
<title>Node12&#45;&gt;Node16</title>
<g id="a_edge19_Node000012_Node000016"><a xlink:title=" ">
<path fill="none" stroke="#63b8ff" d="M1089,-109.75C1089,-102.8 1089,-92.85 1089,-84.13"/>
<polygon fill="#63b8ff" stroke="#63b8ff" points="1092.5,-84.09 1089,-74.09 1085.5,-84.09 1092.5,-84.09"/>
</a>
</g>
</g>
<!-- Node17 -->
<g id="Node000017" class="node">
<title>Node17</title>
<g id="a_Node000017"><a xlink:title=" ">
<polygon fill="#e0e0e0" stroke="#999999" points="1189,-74 1143,-74 1143,-55 1189,-55 1189,-74"/>
<text text-anchor="middle" x="1166" y="-62" font-family="Helvetica,sans-Serif" font-size="10.00">stdio.h</text>
</a>
</g>
</g>
<!-- Node12&#45;&gt;Node17 -->
<g id="edge21_Node000012_Node000017" class="edge">
<title>Node12&#45;&gt;Node17</title>
<g id="a_edge21_Node000012_Node000017"><a xlink:title=" ">
<path fill="none" stroke="#63b8ff" d="M1101.37,-109.98C1113.09,-101.92 1130.92,-89.65 1144.89,-80.03"/>
<polygon fill="#63b8ff" stroke="#63b8ff" points="1147.15,-82.72 1153.4,-74.17 1143.18,-76.96 1147.15,-82.72"/>
</a>
</g>
</g>
<!-- Node18 -->
<g id="Node000018" class="node">
<title>Node18</title>
<g id="a_Node000018"><a xlink:title=" ">
<polygon fill="#e0e0e0" stroke="#999999" points="1263,-74 1207,-74 1207,-55 1263,-55 1263,-74"/>
<text text-anchor="middle" x="1235" y="-62" font-family="Helvetica,sans-Serif" font-size="10.00">sys/uio.h</text>
</a>
</g>
</g>
<!-- Node12&#45;&gt;Node18 -->
<g id="edge23_Node000012_Node000018" class="edge">
<title>Node12&#45;&gt;Node18</title>
<g id="a_edge23_Node000012_Node000018"><a xlink:title=" ">
<path fill="none" stroke="#63b8ff" d="M1112.46,-109.98C1136.58,-101.23 1174.37,-87.51 1201.6,-77.62"/>
<polygon fill="#63b8ff" stroke="#63b8ff" points="1202.91,-80.87 1211.12,-74.17 1200.52,-74.29 1202.91,-80.87"/>
</a>
</g>
</g>
<!-- Node19 -->
<g id="Node000019" class="node">
<title>Node19</title>
<g id="a_Node000019"><a xlink:title=" ">
<polygon fill="#e0e0e0" stroke="#999999" points="1332.5,-74 1281.5,-74 1281.5,-55 1332.5,-55 1332.5,-74"/>
<text text-anchor="middle" x="1307" y="-62" font-family="Helvetica,sans-Serif" font-size="10.00">unistd.h</text>
</a>
</g>
</g>
<!-- Node12&#45;&gt;Node19 -->
<g id="edge24_Node000012_Node000019" class="edge">
<title>Node12&#45;&gt;Node19</title>
<g id="a_edge24_Node000012_Node000019"><a xlink:title=" ">
<path fill="none" stroke="#63b8ff" d="M1124.03,-109.98C1164.52,-100.14 1230.82,-84.02 1271.51,-74.13"/>
<polygon fill="#63b8ff" stroke="#63b8ff" points="1272.39,-77.52 1281.28,-71.75 1270.73,-70.72 1272.39,-77.52"/>
</a>
</g>
</g>
<!-- Node20&#45;&gt;Node2 -->
<g id="edge39_Node000020_Node000002" class="edge">
<title>Node20&#45;&gt;Node2</title>
<g id="a_edge39_Node000020_Node000002"><a xlink:title=" ">
<path fill="none" stroke="#63b8ff" d="M637.89,-170.09C575.25,-165.38 477.79,-154.37 397,-129 378.98,-123.34 376.64,-116.74 359,-110 321.38,-95.62 277.23,-83.87 244.37,-76.06"/>
<polygon fill="#63b8ff" stroke="#63b8ff" points="245.09,-72.63 234.56,-73.76 243.5,-79.45 245.09,-72.63"/>
</a>
</g>
</g>
<!-- Node20&#45;&gt;Node5 -->
<g id="edge30_Node000020_Node000005" class="edge">
<title>Node20&#45;&gt;Node5</title>
<g id="a_edge30_Node000020_Node000005"><a xlink:title=" ">
<path fill="none" stroke="#63b8ff" d="M637.9,-166.68C569.74,-159.05 458.89,-145.56 364,-129 362.55,-128.75 361.07,-128.48 359.58,-128.2"/>
<polygon fill="#63b8ff" stroke="#63b8ff" points="360.19,-124.75 349.7,-126.21 358.81,-131.61 360.19,-124.75"/>
</a>
</g>
</g>
<!-- Node20&#45;&gt;Node7 -->
<g id="edge32_Node000020_Node000007" class="edge">
<title>Node20&#45;&gt;Node7</title>
<g id="a_edge32_Node000020_Node000007"><a xlink:title=" ">
<path fill="none" stroke="#63b8ff" d="M702,-164.66C702,-147.17 702,-107.8 702,-84.27"/>
<polygon fill="#63b8ff" stroke="#63b8ff" points="705.5,-84.16 702,-74.16 698.5,-84.16 705.5,-84.16"/>
</a>
</g>
</g>
<!-- Node20&#45;&gt;Node12 -->
<g id="edge40_Node000020_Node000012" class="edge">
<title>Node20&#45;&gt;Node12</title>
<g id="a_edge40_Node000020_Node000012"><a xlink:title=" ">
<path fill="none" stroke="#63b8ff" d="M764.18,-164.98C835.96,-155.15 953.41,-139.07 1025.68,-129.17"/>
<polygon fill="#63b8ff" stroke="#63b8ff" points="1026.57,-132.58 1036,-127.76 1025.62,-125.65 1026.57,-132.58"/>
</a>
</g>
</g>
<!-- Node20&#45;&gt;Node14 -->
<g id="edge29_Node000020_Node000014" class="edge">
<title>Node20&#45;&gt;Node14</title>
<g id="a_edge29_Node000020_Node000014"><a xlink:title=" ">
<path fill="none" stroke="#63b8ff" d="M708.99,-164.75C719.4,-151.99 739.91,-127.85 760,-110 772.31,-99.06 787.29,-88.25 799.43,-80.03"/>
<polygon fill="#63b8ff" stroke="#63b8ff" points="801.69,-82.73 808.08,-74.28 797.82,-76.9 801.69,-82.73"/>
</a>
</g>
</g>
<!-- Node20&#45;&gt;Node15 -->
<g id="edge31_Node000020_Node000015" class="edge">
<title>Node20&#45;&gt;Node15</title>
<g id="a_edge31_Node000020_Node000015"><a xlink:title=" ">
<path fill="none" stroke="#63b8ff" d="M766.3,-172.88C841.97,-170.62 960.91,-161.78 989,-129 1003.28,-112.33 981.49,-92.53 962.13,-79.52"/>
<polygon fill="#63b8ff" stroke="#63b8ff" points="963.85,-76.48 953.54,-74.06 960.1,-82.38 963.85,-76.48"/>
</a>
</g>
</g>
<!-- Node21 -->
<g id="Node000021" class="node">
<title>Node21</title>
<g id="a_Node000021"><a xlink:title=" ">
<polygon fill="#e0e0e0" stroke="#999999" points="825.5,-129 768.5,-129 768.5,-110 825.5,-110 825.5,-129"/>
<text text-anchor="middle" x="797" y="-117" font-family="Helvetica,sans-Serif" font-size="10.00">pthread.h</text>
</a>
</g>
</g>
<!-- Node20&#45;&gt;Node21 -->
<g id="edge27_Node000020_Node000021" class="edge">
<title>Node20&#45;&gt;Node21</title>
<g id="a_edge27_Node000020_Node000021"><a xlink:title=" ">
<path fill="none" stroke="#63b8ff" d="M717.26,-164.98C732.13,-156.69 754.98,-143.94 772.42,-134.22"/>
<polygon fill="#63b8ff" stroke="#63b8ff" points="774.43,-137.1 781.46,-129.17 771.02,-130.99 774.43,-137.1"/>
</a>
</g>
</g>
<!-- Node22 -->
<g id="Node000022" class="node">
<title>Node22</title>
<g id="a_Node000022"><a xlink:title=" ">
<polygon fill="#e0e0e0" stroke="#999999" points="900,-129 844,-129 844,-110 900,-110 900,-129"/>
<text text-anchor="middle" x="872" y="-117" font-family="Helvetica,sans-Serif" font-size="10.00">stdbool.h</text>
</a>
</g>
</g>
<!-- Node20&#45;&gt;Node22 -->
<g id="edge28_Node000020_Node000022" class="edge">
<title>Node20&#45;&gt;Node22</title>
<g id="a_edge28_Node000020_Node000022"><a xlink:title=" ">
<path fill="none" stroke="#63b8ff" d="M729.31,-164.98C757.85,-156.09 802.83,-142.07 834.64,-132.15"/>
<polygon fill="#63b8ff" stroke="#63b8ff" points="835.97,-135.4 844.47,-129.08 833.88,-128.72 835.97,-135.4"/>
</a>
</g>
</g>
<!-- Node23 -->
<g id="Node000023" class="node">
<title>Node23</title>
<g id="a_Node000023"><a xlink:title=" ">
<polygon fill="#e0e0e0" stroke="#999999" points="980,-129 918,-129 918,-110 980,-110 980,-129"/>
<text text-anchor="middle" x="949" y="-117" font-family="Helvetica,sans-Serif" font-size="10.00">sys/time.h</text>
</a>
</g>
</g>
<!-- Node20&#45;&gt;Node23 -->
<g id="edge33_Node000020_Node000023" class="edge">
<title>Node20&#45;&gt;Node23</title>
<g id="a_edge33_Node000020_Node000023"><a xlink:title=" ">
<path fill="none" stroke="#63b8ff" d="M741.68,-164.98C787.2,-155.22 861.47,-139.28 907.67,-129.37"/>
<polygon fill="#63b8ff" stroke="#63b8ff" points="908.6,-132.75 917.64,-127.23 907.13,-125.9 908.6,-132.75"/>
</a>
</g>
</g>
<!-- Node24 -->
<g id="Node000024" class="node">
<title>Node24</title>
<g id="a_Node000024"><a xlink:title=" ">
<polygon fill="#e0e0e0" stroke="#999999" points="602,-129 534,-129 534,-110 602,-110 602,-129"/>
<text text-anchor="middle" x="568" y="-117" font-family="Helvetica,sans-Serif" font-size="10.00">sys/types.h</text>
</a>
</g>
</g>
<!-- Node20&#45;&gt;Node24 -->
<g id="edge34_Node000020_Node000024" class="edge">
<title>Node20&#45;&gt;Node24</title>
<g id="a_edge34_Node000020_Node000024"><a xlink:title=" ">
<path fill="none" stroke="#63b8ff" d="M680.47,-164.98C658.53,-156.3 624.26,-142.75 599.31,-132.88"/>
<polygon fill="#63b8ff" stroke="#63b8ff" points="600.51,-129.59 589.92,-129.17 597.93,-136.1 600.51,-129.59"/>
</a>
</g>
</g>
<!-- Node25 -->
<g id="Node000025" class="node">
<title>Node25</title>
<g id="a_Node000025"><a xlink:title=" ">
<polygon fill="#e0e0e0" stroke="#999999" points="674,-129 620,-129 620,-110 674,-110 674,-129"/>
<text text-anchor="middle" x="647" y="-117" font-family="Helvetica,sans-Serif" font-size="10.00">sys/un.h</text>
</a>
</g>
</g>
<!-- Node20&#45;&gt;Node25 -->
<g id="edge35_Node000020_Node000025" class="edge">
<title>Node20&#45;&gt;Node25</title>
<g id="a_edge35_Node000020_Node000025"><a xlink:title=" ">
<path fill="none" stroke="#63b8ff" d="M692.92,-164.75C684.91,-157.03 673.04,-145.6 663.38,-136.28"/>
<polygon fill="#63b8ff" stroke="#63b8ff" points="665.54,-133.51 655.91,-129.09 660.69,-138.55 665.54,-133.51"/>
</a>
</g>
</g>
<!-- Node26 -->
<g id="Node000026" class="node">
<title>Node26</title>
<g id="a_Node000026"><a xlink:href="Arena_8h.html" target="_top" xlink:title="Arena&#45;based memory allocator for efficient bulk memory management.">
<polygon fill="white" stroke="#666666" points="478,-129 406,-129 406,-110 478,-110 478,-129"/>
<text text-anchor="middle" x="442" y="-117" font-family="Helvetica,sans-Serif" font-size="10.00">core/Arena.h</text>
</a>
</g>
</g>
<!-- Node20&#45;&gt;Node26 -->
<g id="edge36_Node000020_Node000026" class="edge">
<title>Node20&#45;&gt;Node26</title>
<g id="a_edge36_Node000020_Node000026"><a xlink:title=" ">
<path fill="none" stroke="#63b8ff" d="M660.23,-164.98C613.19,-155.4 536.97,-139.86 488.19,-129.92"/>
<polygon fill="#63b8ff" stroke="#63b8ff" points="488.72,-126.45 478.22,-127.88 487.32,-133.31 488.72,-126.45"/>
</a>
</g>
</g>
<!-- Node26&#45;&gt;Node2 -->
<g id="edge38_Node000026_Node000002" class="edge">
<title>Node26&#45;&gt;Node2</title>
<g id="a_edge38_Node000026_Node000002"><a xlink:title=" ">
<path fill="none" stroke="#63b8ff" d="M405.97,-110.74C363.32,-101.55 292.12,-86.21 244.62,-75.97"/>
<polygon fill="#63b8ff" stroke="#63b8ff" points="245.08,-72.49 234.56,-73.81 243.6,-79.34 245.08,-72.49"/>
</a>
</g>
</g>
<!-- Node26&#45;&gt;Node6 -->
<g id="edge37_Node000026_Node000006" class="edge">
<title>Node26&#45;&gt;Node6</title>
<g id="a_edge37_Node000026_Node000006"><a xlink:title=" ">
<path fill="none" stroke="#63b8ff" d="M442,-109.75C442,-102.8 442,-92.85 442,-84.13"/>
<polygon fill="#63b8ff" stroke="#63b8ff" points="445.5,-84.09 442,-74.09 438.5,-84.09 445.5,-84.09"/>
</a>
</g>
</g>
</g>
</svg>
