<?xml version="1.0" encoding="UTF-8" standalone="no"?>
<!DOCTYPE svg PUBLIC "-//W3C//DTD SVG 1.1//EN"
 "http://www.w3.org/Graphics/SVG/1.1/DTD/svg11.dtd">
<!-- Generated by graphviz version 2.43.0 (0)
 -->
<!-- Title: SocketPool.h Pages: 1 -->
<svg width="1394pt" height="357pt"
 viewBox="0.00 0.00 1393.50 357.00" xmlns="http://www.w3.org/2000/svg" xmlns:xlink="http://www.w3.org/1999/xlink">
<g id="graph0" class="graph" transform="scale(1 1) rotate(0) translate(4 353)">
<title>SocketPool.h</title>
<!-- Node1 -->
<g id="Node000001" class="node">
<title>Node1</title>
<g id="a_Node000001"><a xlink:title="Connection pooling with automatic lifecycle management.">
<polygon fill="#999999" stroke="#666666" points="417.5,-349 342.5,-349 342.5,-330 417.5,-330 417.5,-349"/>
<text text-anchor="middle" x="380" y="-337" font-family="Helvetica,sans-Serif" font-size="10.00">SocketPool.h</text>
</a>
</g>
</g>
<!-- Node2 -->
<g id="Node000002" class="node">
<title>Node2</title>
<g id="a_Node000002"><a xlink:href="Arena_8h.html" target="_top" xlink:title="Arena&#45;based memory allocator for efficient bulk memory management.">
<polygon fill="white" stroke="#666666" points="320,-129 248,-129 248,-110 320,-110 320,-129"/>
<text text-anchor="middle" x="284" y="-117" font-family="Helvetica,sans-Serif" font-size="10.00">core/Arena.h</text>
</a>
</g>
</g>
<!-- Node1&#45;&gt;Node2 -->
<g id="edge1_Node000001_Node000002" class="edge">
<title>Node1&#45;&gt;Node2</title>
<g id="a_edge1_Node000001_Node000002"><a xlink:title=" ">
<path fill="none" stroke="#63b8ff" d="M375.73,-329.67C371.43,-320.72 364.63,-306.46 359,-294 333.5,-237.58 304.85,-170.08 291.54,-138.48"/>
<polygon fill="#63b8ff" stroke="#63b8ff" points="294.75,-137.07 287.65,-129.21 288.29,-139.78 294.75,-137.07"/>
</a>
</g>
</g>
<!-- Node3 -->
<g id="Node000003" class="node">
<title>Node3</title>
<g id="a_Node000003"><a xlink:title=" ">
<polygon fill="#e0e0e0" stroke="#999999" points="246,-74 194,-74 194,-55 246,-55 246,-74"/>
<text text-anchor="middle" x="220" y="-62" font-family="Helvetica,sans-Serif" font-size="10.00">stddef.h</text>
</a>
</g>
</g>
<!-- Node1&#45;&gt;Node3 -->
<g id="edge56_Node000001_Node000003" class="edge">
<title>Node1&#45;&gt;Node3</title>
<g id="a_edge56_Node000001_Node000003"><a xlink:title=" ">
<path fill="none" stroke="#63b8ff" d="M342.17,-335.83C246.06,-328.03 0,-301.14 0,-230.5 0,-230.5 0,-230.5 0,-173.5 0,-92.65 121.2,-72.32 183.68,-67.21"/>
<polygon fill="#63b8ff" stroke="#63b8ff" points="184.18,-70.69 193.9,-66.47 183.67,-63.7 184.18,-70.69"/>
</a>
</g>
</g>
<!-- Node4 -->
<g id="Node000004" class="node">
<title>Node4</title>
<g id="a_Node000004"><a xlink:href="Except_8h.html" target="_top" xlink:title="Structured exception handling for C with TRY/EXCEPT/FINALLY blocks.">
<polygon fill="white" stroke="#666666" points="568.5,-74 491.5,-74 491.5,-55 568.5,-55 568.5,-74"/>
<text text-anchor="middle" x="530" y="-62" font-family="Helvetica,sans-Serif" font-size="10.00">core/Except.h</text>
</a>
</g>
</g>
<!-- Node1&#45;&gt;Node4 -->
<g id="edge5_Node000001_Node000004" class="edge">
<title>Node1&#45;&gt;Node4</title>
<g id="a_edge5_Node000001_Node000004"><a xlink:title=" ">
<path fill="none" stroke="#63b8ff" d="M417.81,-337.72C528.15,-334.42 842,-317.4 842,-230.5 842,-230.5 842,-230.5 842,-173.5 842,-140.38 830.51,-128.45 803,-110 767.15,-85.96 647.03,-73.74 578.67,-68.59"/>
<polygon fill="#63b8ff" stroke="#63b8ff" points="578.79,-65.09 568.57,-67.85 578.28,-72.07 578.79,-65.09"/>
</a>
</g>
</g>
<!-- Node6 -->
<g id="Node000006" class="node">
<title>Node6</title>
<g id="a_Node000006"><a xlink:href="SocketSYNProtect_8h.html" target="_top" xlink:title="SYN flood protection using IP reputation and adaptive rate limiting.">
<polygon fill="white" stroke="#666666" points="250,-184 120,-184 120,-165 250,-165 250,-184"/>
<text text-anchor="middle" x="185" y="-172" font-family="Helvetica,sans-Serif" font-size="10.00">core/SocketSYNProtect.h</text>
</a>
</g>
</g>
<!-- Node1&#45;&gt;Node6 -->
<g id="edge6_Node000001_Node000006" class="edge">
<title>Node1&#45;&gt;Node6</title>
<g id="a_edge6_Node000001_Node000006"><a xlink:title=" ">
<path fill="none" stroke="#63b8ff" d="M354.14,-329.87C334.04,-322.38 306.1,-310.18 285,-294 246.35,-264.38 212.39,-217.45 195.79,-192.47"/>
<polygon fill="#63b8ff" stroke="#63b8ff" points="198.7,-190.51 190.31,-184.05 192.83,-194.34 198.7,-190.51"/>
</a>
</g>
</g>
<!-- Node17 -->
<g id="Node000017" class="node">
<title>Node17</title>
<g id="a_Node000017"><a xlink:href="SocketDNS_8h.html" target="_top" xlink:title="Asynchronous DNS resolution API for non&#45;blocking network applications.">
<polygon fill="white" stroke="#666666" points="434,-184 338,-184 338,-165 434,-165 434,-184"/>
<text text-anchor="middle" x="386" y="-172" font-family="Helvetica,sans-Serif" font-size="10.00">dns/SocketDNS.h</text>
</a>
</g>
</g>
<!-- Node1&#45;&gt;Node17 -->
<g id="edge21_Node000001_Node000017" class="edge">
<title>Node1&#45;&gt;Node17</title>
<g id="a_edge21_Node000001_Node000017"><a xlink:title=" ">
<path fill="none" stroke="#63b8ff" d="M376.4,-329.82C372.94,-320.99 367.97,-306.81 366,-294 361.01,-261.49 359.11,-252.16 366,-220 367.97,-210.8 372,-201.2 375.93,-193.29"/>
<polygon fill="#63b8ff" stroke="#63b8ff" points="379.09,-194.79 380.68,-184.32 372.91,-191.51 379.09,-194.79"/>
</a>
</g>
</g>
<!-- Node19 -->
<g id="Node000019" class="node">
<title>Node19</title>
<g id="a_Node000019"><a xlink:href="Socket_8h.html" target="_top" xlink:title="High&#45;level TCP/IP and Unix domain socket interface.">
<polygon fill="white" stroke="#666666" points="803,-239 715,-239 715,-220 803,-220 803,-239"/>
<text text-anchor="middle" x="759" y="-227" font-family="Helvetica,sans-Serif" font-size="10.00">socket/Socket.h</text>
</a>
</g>
</g>
<!-- Node1&#45;&gt;Node19 -->
<g id="edge27_Node000001_Node000019" class="edge">
<title>Node1&#45;&gt;Node19</title>
<g id="a_edge27_Node000001_Node000019"><a xlink:title=" ">
<path fill="none" stroke="#63b8ff" d="M417.55,-330.72C455.88,-322.53 516.96,-308.79 569,-294 624.89,-278.12 688.76,-255.92 726.38,-242.41"/>
<polygon fill="#63b8ff" stroke="#63b8ff" points="727.59,-245.7 735.81,-239.01 725.22,-239.11 727.59,-245.7"/>
</a>
</g>
</g>
<!-- Node26 -->
<g id="Node000026" class="node">
<title>Node26</title>
<g id="a_Node000026"><a xlink:href="SocketBuf_8h.html" target="_top" xlink:title="Circular buffer for efficient socket I/O operations.">
<polygon fill="white" stroke="#666666" points="623.5,-184 520.5,-184 520.5,-165 623.5,-165 623.5,-184"/>
<text text-anchor="middle" x="572" y="-172" font-family="Helvetica,sans-Serif" font-size="10.00">socket/SocketBuf.h</text>
</a>
</g>
</g>
<!-- Node1&#45;&gt;Node26 -->
<g id="edge44_Node000001_Node000026" class="edge">
<title>Node1&#45;&gt;Node26</title>
<g id="a_edge44_Node000001_Node000026"><a xlink:title=" ">
<path fill="none" stroke="#63b8ff" d="M383.3,-329.84C388.62,-316.77 400.12,-291.73 416,-275 453.44,-235.56 509.58,-204.77 543.32,-188.44"/>
<polygon fill="#63b8ff" stroke="#63b8ff" points="545.08,-191.48 552.61,-184.03 542.08,-185.15 545.08,-191.48"/>
</a>
</g>
</g>
<!-- Node27 -->
<g id="Node000027" class="node">
<title>Node27</title>
<g id="a_Node000027"><a xlink:href="SocketReconnect_8h.html" target="_top" xlink:title="Automatic reconnection framework for resilient TCP connections with backoff and circuit breaker patte...">
<polygon fill="white" stroke="#666666" points="559.5,-294 424.5,-294 424.5,-275 559.5,-275 559.5,-294"/>
<text text-anchor="middle" x="492" y="-282" font-family="Helvetica,sans-Serif" font-size="10.00">socket/SocketReconnect.h</text>
</a>
</g>
</g>
<!-- Node1&#45;&gt;Node27 -->
<g id="edge51_Node000001_Node000027" class="edge">
<title>Node1&#45;&gt;Node27</title>
<g id="a_edge51_Node000001_Node000027"><a xlink:title=" ">
<path fill="none" stroke="#63b8ff" d="M397.99,-329.98C415.93,-321.5 443.72,-308.35 464.43,-298.54"/>
<polygon fill="#63b8ff" stroke="#63b8ff" points="466.14,-301.61 473.68,-294.17 463.14,-295.28 466.14,-301.61"/>
</a>
</g>
</g>
<!-- Node28 -->
<g id="Node000028" class="node">
<title>Node28</title>
<g id="a_Node000028"><a xlink:title=" ">
<polygon fill="#e0e0e0" stroke="#999999" points="914,-294 870,-294 870,-275 914,-275 914,-294"/>
<text text-anchor="middle" x="892" y="-282" font-family="Helvetica,sans-Serif" font-size="10.00">time.h</text>
</a>
</g>
</g>
<!-- Node1&#45;&gt;Node28 -->
<g id="edge57_Node000001_Node000028" class="edge">
<title>Node1&#45;&gt;Node28</title>
<g id="a_edge57_Node000001_Node000028"><a xlink:title=" ">
<path fill="none" stroke="#63b8ff" d="M417.56,-336.76C498.26,-332.64 694.03,-320.56 856,-294 857.25,-293.8 858.52,-293.57 859.8,-293.33"/>
<polygon fill="#63b8ff" stroke="#63b8ff" points="860.55,-296.75 869.63,-291.29 859.13,-289.9 860.55,-296.75"/>
</a>
</g>
</g>
<!-- Node2&#45;&gt;Node3 -->
<g id="edge2_Node000002_Node000003" class="edge">
<title>Node2&#45;&gt;Node3</title>
<g id="a_edge2_Node000002_Node000003"><a xlink:title=" ">
<path fill="none" stroke="#63b8ff" d="M273.72,-109.98C264.16,-102.07 249.72,-90.11 238.22,-80.58"/>
<polygon fill="#63b8ff" stroke="#63b8ff" points="240.4,-77.85 230.47,-74.17 235.94,-83.24 240.4,-77.85"/>
</a>
</g>
</g>
<!-- Node2&#45;&gt;Node4 -->
<g id="edge3_Node000002_Node000004" class="edge">
<title>Node2&#45;&gt;Node4</title>
<g id="a_edge3_Node000002_Node000004"><a xlink:title=" ">
<path fill="none" stroke="#63b8ff" d="M320.03,-110.74C362.68,-101.55 433.88,-86.21 481.38,-75.97"/>
<polygon fill="#63b8ff" stroke="#63b8ff" points="482.4,-79.34 491.44,-73.81 480.92,-72.49 482.4,-79.34"/>
</a>
</g>
</g>
<!-- Node5 -->
<g id="Node000005" class="node">
<title>Node5</title>
<g id="a_Node000005"><a xlink:title=" ">
<polygon fill="#e0e0e0" stroke="#999999" points="557,-19 503,-19 503,0 557,0 557,-19"/>
<text text-anchor="middle" x="530" y="-7" font-family="Helvetica,sans-Serif" font-size="10.00">setjmp.h</text>
</a>
</g>
</g>
<!-- Node4&#45;&gt;Node5 -->
<g id="edge4_Node000004_Node000005" class="edge">
<title>Node4&#45;&gt;Node5</title>
<g id="a_edge4_Node000004_Node000005"><a xlink:title=" ">
<path fill="none" stroke="#63b8ff" d="M530,-54.75C530,-47.8 530,-37.85 530,-29.13"/>
<polygon fill="#63b8ff" stroke="#63b8ff" points="533.5,-29.09 530,-19.09 526.5,-29.09 533.5,-29.09"/>
</a>
</g>
</g>
<!-- Node6&#45;&gt;Node2 -->
<g id="edge7_Node000006_Node000002" class="edge">
<title>Node6&#45;&gt;Node2</title>
<g id="a_edge7_Node000006_Node000002"><a xlink:title=" ">
<path fill="none" stroke="#63b8ff" d="M200.91,-164.98C216.55,-156.61 240.66,-143.7 258.88,-133.95"/>
<polygon fill="#63b8ff" stroke="#63b8ff" points="260.64,-136.98 267.8,-129.17 257.34,-130.8 260.64,-136.98"/>
</a>
</g>
</g>
<!-- Node6&#45;&gt;Node3 -->
<g id="edge19_Node000006_Node000003" class="edge">
<title>Node6&#45;&gt;Node3</title>
<g id="a_edge19_Node000006_Node000003"><a xlink:title=" ">
<path fill="none" stroke="#63b8ff" d="M154.95,-164.97C123.96,-154.58 82.43,-135.25 100,-110 118.68,-83.15 155.55,-72.47 183.52,-68.23"/>
<polygon fill="#63b8ff" stroke="#63b8ff" points="184.28,-71.66 193.74,-66.91 183.38,-64.72 184.28,-71.66"/>
</a>
</g>
</g>
<!-- Node6&#45;&gt;Node4 -->
<g id="edge8_Node000006_Node000004" class="edge">
<title>Node6&#45;&gt;Node4</title>
<g id="a_edge8_Node000006_Node000004"><a xlink:title=" ">
<path fill="none" stroke="#63b8ff" d="M169.1,-164.88C148.2,-152.48 116,-129.01 133,-110 155.85,-84.44 380.29,-71.82 481.24,-67.39"/>
<polygon fill="#63b8ff" stroke="#63b8ff" points="481.64,-70.88 491.48,-66.95 481.34,-63.89 481.64,-70.88"/>
</a>
</g>
</g>
<!-- Node7 -->
<g id="Node000007" class="node">
<title>Node7</title>
<g id="a_Node000007"><a xlink:href="SocketConfig_8h.html" target="_top" xlink:title="Compile&#45;time and runtime configuration constants, limits, and platform adaptations.">
<polygon fill="white" stroke="#666666" points="1200,-129 1094,-129 1094,-110 1200,-110 1200,-129"/>
<text text-anchor="middle" x="1147" y="-117" font-family="Helvetica,sans-Serif" font-size="10.00">core/SocketConfig.h</text>
</a>
</g>
</g>
<!-- Node6&#45;&gt;Node7 -->
<g id="edge9_Node000006_Node000007" class="edge">
<title>Node6&#45;&gt;Node7</title>
<g id="a_edge9_Node000006_Node000007"><a xlink:title=" ">
<path fill="none" stroke="#63b8ff" d="M250.23,-169.53C274.9,-168.06 303.24,-166.41 329,-165 648.04,-147.59 728.21,-150.53 1047,-129 1058.88,-128.2 1071.55,-127.22 1083.74,-126.21"/>
<polygon fill="#63b8ff" stroke="#63b8ff" points="1084.16,-129.69 1093.83,-125.36 1083.57,-122.71 1084.16,-129.69"/>
</a>
</g>
</g>
<!-- Node16 -->
<g id="Node000016" class="node">
<title>Node16</title>
<g id="a_Node000016"><a xlink:title=" ">
<polygon fill="#e0e0e0" stroke="#999999" points="191.5,-129 142.5,-129 142.5,-110 191.5,-110 191.5,-129"/>
<text text-anchor="middle" x="167" y="-117" font-family="Helvetica,sans-Serif" font-size="10.00">stdint.h</text>
</a>
</g>
</g>
<!-- Node6&#45;&gt;Node16 -->
<g id="edge20_Node000006_Node000016" class="edge">
<title>Node6&#45;&gt;Node16</title>
<g id="a_edge20_Node000006_Node000016"><a xlink:title=" ">
<path fill="none" stroke="#63b8ff" d="M182.03,-164.75C179.64,-157.72 176.21,-147.62 173.23,-138.84"/>
<polygon fill="#63b8ff" stroke="#63b8ff" points="176.45,-137.43 169.92,-129.09 169.82,-139.68 176.45,-137.43"/>
</a>
</g>
</g>
<!-- Node7&#45;&gt;Node3 -->
<g id="edge14_Node000007_Node000003" class="edge">
<title>Node7&#45;&gt;Node3</title>
<g id="a_edge14_Node000007_Node000003"><a xlink:title=" ">
<path fill="none" stroke="#63b8ff" d="M1093.83,-113.67C1078.7,-112.38 1062.21,-111.06 1047,-110 741.33,-88.79 371.51,-72.06 256.14,-67.04"/>
<polygon fill="#63b8ff" stroke="#63b8ff" points="256.23,-63.54 246.09,-66.61 255.93,-70.54 256.23,-63.54"/>
</a>
</g>
</g>
<!-- Node8 -->
<g id="Node000008" class="node">
<title>Node8</title>
<g id="a_Node000008"><a xlink:title=" ">
<polygon fill="#e0e0e0" stroke="#999999" points="1016.5,-74 969.5,-74 969.5,-55 1016.5,-55 1016.5,-74"/>
<text text-anchor="middle" x="993" y="-62" font-family="Helvetica,sans-Serif" font-size="10.00">errno.h</text>
</a>
</g>
</g>
<!-- Node7&#45;&gt;Node8 -->
<g id="edge10_Node000007_Node000008" class="edge">
<title>Node7&#45;&gt;Node8</title>
<g id="a_edge10_Node000007_Node000008"><a xlink:title=" ">
<path fill="none" stroke="#63b8ff" d="M1122.26,-109.98C1096.25,-101.03 1055.17,-86.9 1026.32,-76.97"/>
<polygon fill="#63b8ff" stroke="#63b8ff" points="1027.26,-73.59 1016.67,-73.65 1024.99,-80.21 1027.26,-73.59"/>
</a>
</g>
</g>
<!-- Node9 -->
<g id="Node000009" class="node">
<title>Node9</title>
<g id="a_Node000009"><a xlink:title=" ">
<polygon fill="#e0e0e0" stroke="#999999" points="1302,-74 1258,-74 1258,-55 1302,-55 1302,-74"/>
<text text-anchor="middle" x="1280" y="-62" font-family="Helvetica,sans-Serif" font-size="10.00">fcntl.h</text>
</a>
</g>
</g>
<!-- Node7&#45;&gt;Node9 -->
<g id="edge11_Node000007_Node000009" class="edge">
<title>Node7&#45;&gt;Node9</title>
<g id="a_edge11_Node000007_Node000009"><a xlink:title=" ">
<path fill="none" stroke="#63b8ff" d="M1168.37,-109.98C1190.15,-101.3 1224.16,-87.75 1248.92,-77.88"/>
<polygon fill="#63b8ff" stroke="#63b8ff" points="1250.25,-81.12 1258.24,-74.17 1247.66,-74.62 1250.25,-81.12"/>
</a>
</g>
</g>
<!-- Node10 -->
<g id="Node000010" class="node">
<title>Node10</title>
<g id="a_Node000010"><a xlink:title=" ">
<polygon fill="#e0e0e0" stroke="#999999" points="1385.5,-74 1320.5,-74 1320.5,-55 1385.5,-55 1385.5,-74"/>
<text text-anchor="middle" x="1353" y="-62" font-family="Helvetica,sans-Serif" font-size="10.00">netinet/in.h</text>
</a>
</g>
</g>
<!-- Node7&#45;&gt;Node10 -->
<g id="edge12_Node000007_Node000010" class="edge">
<title>Node7&#45;&gt;Node10</title>
<g id="a_edge12_Node000007_Node000010"><a xlink:title=" ">
<path fill="none" stroke="#63b8ff" d="M1180.1,-109.98C1215.49,-100.88 1271.73,-86.41 1310.41,-76.46"/>
<polygon fill="#63b8ff" stroke="#63b8ff" points="1311.51,-79.79 1320.32,-73.91 1309.77,-73.01 1311.51,-79.79"/>
</a>
</g>
</g>
<!-- Node11 -->
<g id="Node000011" class="node">
<title>Node11</title>
<g id="a_Node000011"><a xlink:title=" ">
<polygon fill="#e0e0e0" stroke="#999999" points="1105.5,-74 1034.5,-74 1034.5,-55 1105.5,-55 1105.5,-74"/>
<text text-anchor="middle" x="1070" y="-62" font-family="Helvetica,sans-Serif" font-size="10.00">netinet/tcp.h</text>
</a>
</g>
</g>
<!-- Node7&#45;&gt;Node11 -->
<g id="edge13_Node000007_Node000011" class="edge">
<title>Node7&#45;&gt;Node11</title>
<g id="a_edge13_Node000007_Node000011"><a xlink:title=" ">
<path fill="none" stroke="#63b8ff" d="M1134.63,-109.98C1122.91,-101.92 1105.08,-89.65 1091.11,-80.03"/>
<polygon fill="#63b8ff" stroke="#63b8ff" points="1092.82,-76.96 1082.6,-74.17 1088.85,-82.72 1092.82,-76.96"/>
</a>
</g>
</g>
<!-- Node12 -->
<g id="Node000012" class="node">
<title>Node12</title>
<g id="a_Node000012"><a xlink:title=" ">
<polygon fill="#e0e0e0" stroke="#999999" points="1170,-74 1124,-74 1124,-55 1170,-55 1170,-74"/>
<text text-anchor="middle" x="1147" y="-62" font-family="Helvetica,sans-Serif" font-size="10.00">stdio.h</text>
</a>
</g>
</g>
<!-- Node7&#45;&gt;Node12 -->
<g id="edge15_Node000007_Node000012" class="edge">
<title>Node7&#45;&gt;Node12</title>
<g id="a_edge15_Node000007_Node000012"><a xlink:title=" ">
<path fill="none" stroke="#63b8ff" d="M1147,-109.75C1147,-102.8 1147,-92.85 1147,-84.13"/>
<polygon fill="#63b8ff" stroke="#63b8ff" points="1150.5,-84.09 1147,-74.09 1143.5,-84.09 1150.5,-84.09"/>
</a>
</g>
</g>
<!-- Node13 -->
<g id="Node000013" class="node">
<title>Node13</title>
<g id="a_Node000013"><a xlink:title=" ">
<polygon fill="#e0e0e0" stroke="#999999" points="876.5,-74 803.5,-74 803.5,-55 876.5,-55 876.5,-74"/>
<text text-anchor="middle" x="840" y="-62" font-family="Helvetica,sans-Serif" font-size="10.00">sys/socket.h</text>
</a>
</g>
</g>
<!-- Node7&#45;&gt;Node13 -->
<g id="edge16_Node000007_Node000013" class="edge">
<title>Node7&#45;&gt;Node13</title>
<g id="a_edge16_Node000007_Node000013"><a xlink:title=" ">
<path fill="none" stroke="#63b8ff" d="M1095.46,-109.93C1044.95,-101.48 965.49,-88.06 886.75,-74.11"/>
<polygon fill="#63b8ff" stroke="#63b8ff" points="887.11,-70.62 876.65,-72.32 885.88,-77.51 887.11,-70.62"/>
</a>
</g>
</g>
<!-- Node14 -->
<g id="Node000014" class="node">
<title>Node14</title>
<g id="a_Node000014"><a xlink:title=" ">
<polygon fill="#e0e0e0" stroke="#999999" points="951,-74 895,-74 895,-55 951,-55 951,-74"/>
<text text-anchor="middle" x="923" y="-62" font-family="Helvetica,sans-Serif" font-size="10.00">sys/uio.h</text>
</a>
</g>
</g>
<!-- Node7&#45;&gt;Node14 -->
<g id="edge17_Node000007_Node000014" class="edge">
<title>Node7&#45;&gt;Node14</title>
<g id="a_edge17_Node000007_Node000014"><a xlink:title=" ">
<path fill="none" stroke="#63b8ff" d="M1111.01,-109.98C1069.88,-100.25 1002.86,-84.39 960.93,-74.47"/>
<polygon fill="#63b8ff" stroke="#63b8ff" points="961.64,-71.05 951.1,-72.15 960.03,-77.86 961.64,-71.05"/>
</a>
</g>
</g>
<!-- Node15 -->
<g id="Node000015" class="node">
<title>Node15</title>
<g id="a_Node000015"><a xlink:title=" ">
<polygon fill="#e0e0e0" stroke="#999999" points="1239.5,-74 1188.5,-74 1188.5,-55 1239.5,-55 1239.5,-74"/>
<text text-anchor="middle" x="1214" y="-62" font-family="Helvetica,sans-Serif" font-size="10.00">unistd.h</text>
</a>
</g>
</g>
<!-- Node7&#45;&gt;Node15 -->
<g id="edge18_Node000007_Node000015" class="edge">
<title>Node7&#45;&gt;Node15</title>
<g id="a_edge18_Node000007_Node000015"><a xlink:title=" ">
<path fill="none" stroke="#63b8ff" d="M1157.76,-109.98C1167.77,-102.07 1182.89,-90.11 1194.93,-80.58"/>
<polygon fill="#63b8ff" stroke="#63b8ff" points="1197.37,-83.12 1203.04,-74.17 1193.03,-77.63 1197.37,-83.12"/>
</a>
</g>
</g>
<!-- Node17&#45;&gt;Node3 -->
<g id="edge24_Node000017_Node000003" class="edge">
<title>Node17&#45;&gt;Node3</title>
<g id="a_edge24_Node000017_Node000003"><a xlink:title=" ">
<path fill="none" stroke="#63b8ff" d="M337.65,-170.46C305.66,-165.96 264.98,-155.06 239,-129 227.21,-117.17 222.68,-98.33 220.97,-84.24"/>
<polygon fill="#63b8ff" stroke="#63b8ff" points="224.45,-83.85 220.12,-74.18 217.47,-84.44 224.45,-83.85"/>
</a>
</g>
</g>
<!-- Node17&#45;&gt;Node4 -->
<g id="edge22_Node000017_Node000004" class="edge">
<title>Node17&#45;&gt;Node4</title>
<g id="a_edge22_Node000017_Node000004"><a xlink:title=" ">
<path fill="none" stroke="#63b8ff" d="M386.36,-164.89C387.38,-151.43 391.26,-125.33 406,-110 425.8,-89.4 455.8,-78.31 481.34,-72.35"/>
<polygon fill="#63b8ff" stroke="#63b8ff" points="482.18,-75.75 491.23,-70.24 480.72,-68.9 482.18,-75.75"/>
</a>
</g>
</g>
<!-- Node17&#45;&gt;Node13 -->
<g id="edge26_Node000017_Node000013" class="edge">
<title>Node17&#45;&gt;Node13</title>
<g id="a_edge26_Node000017_Node000013"><a xlink:title=" ">
<path fill="none" stroke="#63b8ff" d="M411.21,-164.97C450.68,-151.84 529.65,-126.47 598,-110 665.27,-93.79 744.3,-80.28 793.27,-72.54"/>
<polygon fill="#63b8ff" stroke="#63b8ff" points="793.91,-75.98 803.25,-70.98 792.83,-69.07 793.91,-75.98"/>
</a>
</g>
</g>
<!-- Node17&#45;&gt;Node16 -->
<g id="edge25_Node000017_Node000016" class="edge">
<title>Node17&#45;&gt;Node16</title>
<g id="a_edge25_Node000017_Node000016"><a xlink:title=" ">
<path fill="none" stroke="#63b8ff" d="M350.81,-164.98C309.68,-155.03 242.07,-138.67 201.31,-128.8"/>
<polygon fill="#63b8ff" stroke="#63b8ff" points="202.11,-125.4 191.57,-126.45 200.46,-132.2 202.11,-125.4"/>
</a>
</g>
</g>
<!-- Node18 -->
<g id="Node000018" class="node">
<title>Node18</title>
<g id="a_Node000018"><a xlink:title=" ">
<polygon fill="#e0e0e0" stroke="#999999" points="463.5,-129 414.5,-129 414.5,-110 463.5,-110 463.5,-129"/>
<text text-anchor="middle" x="439" y="-117" font-family="Helvetica,sans-Serif" font-size="10.00">netdb.h</text>
</a>
</g>
</g>
<!-- Node17&#45;&gt;Node18 -->
<g id="edge23_Node000017_Node000018" class="edge">
<title>Node17&#45;&gt;Node18</title>
<g id="a_edge23_Node000017_Node000018"><a xlink:title=" ">
<path fill="none" stroke="#63b8ff" d="M394.75,-164.75C402.47,-157.03 413.9,-145.6 423.22,-136.28"/>
<polygon fill="#63b8ff" stroke="#63b8ff" points="425.81,-138.64 430.41,-129.09 420.86,-133.69 425.81,-138.64"/>
</a>
</g>
</g>
<!-- Node19&#45;&gt;Node4 -->
<g id="edge28_Node000019_Node000004" class="edge">
<title>Node19&#45;&gt;Node4</title>
<g id="a_edge28_Node000019_Node000004"><a xlink:title=" ">
<path fill="none" stroke="#63b8ff" d="M765.2,-219.89C779.72,-198.61 812.65,-142.89 785,-110 759.2,-79.31 645.46,-69.78 578.92,-66.83"/>
<polygon fill="#63b8ff" stroke="#63b8ff" points="578.8,-63.32 568.66,-66.41 578.51,-70.31 578.8,-63.32"/>
</a>
</g>
</g>
<!-- Node19&#45;&gt;Node7 -->
<g id="edge29_Node000019_Node000007" class="edge">
<title>Node19&#45;&gt;Node7</title>
<g id="a_edge29_Node000019_Node000007"><a xlink:title=" ">
<path fill="none" stroke="#63b8ff" d="M803.43,-223.98C853.87,-218.06 938.21,-205.8 1008,-184 1049.73,-170.97 1095.32,-148.41 1122.52,-133.98"/>
<polygon fill="#63b8ff" stroke="#63b8ff" points="1124.51,-136.88 1131.67,-129.07 1121.2,-130.72 1124.51,-136.88"/>
</a>
</g>
</g>
<!-- Node19&#45;&gt;Node17 -->
<g id="edge30_Node000019_Node000017" class="edge">
<title>Node19&#45;&gt;Node17</title>
<g id="a_edge30_Node000019_Node000017"><a xlink:title=" ">
<path fill="none" stroke="#63b8ff" d="M714.75,-222.21C647.38,-212.64 519.06,-194.41 444.21,-183.77"/>
<polygon fill="#63b8ff" stroke="#63b8ff" points="444.41,-180.26 434.02,-182.32 443.43,-187.2 444.41,-180.26"/>
</a>
</g>
</g>
<!-- Node20 -->
<g id="Node000020" class="node">
<title>Node20</title>
<g id="a_Node000020"><a xlink:href="SocketCommon_8h.html" target="_top" xlink:title="Common utilities shared between Socket and SocketDgram modules.">
<polygon fill="white" stroke="#666666" points="999,-184 871,-184 871,-165 999,-165 999,-184"/>
<text text-anchor="middle" x="935" y="-172" font-family="Helvetica,sans-Serif" font-size="10.00">socket/SocketCommon.h</text>
</a>
</g>
</g>
<!-- Node19&#45;&gt;Node20 -->
<g id="edge31_Node000019_Node000020" class="edge">
<title>Node19&#45;&gt;Node20</title>
<g id="a_edge31_Node000019_Node000020"><a xlink:title=" ">
<path fill="none" stroke="#63b8ff" d="M787.28,-219.98C816.95,-211.05 863.79,-196.94 896.75,-187.02"/>
<polygon fill="#63b8ff" stroke="#63b8ff" points="897.93,-190.32 906.5,-184.08 895.92,-183.61 897.93,-190.32"/>
</a>
</g>
</g>
<!-- Node20&#45;&gt;Node2 -->
<g id="edge41_Node000020_Node000002" class="edge">
<title>Node20&#45;&gt;Node2</title>
<g id="a_edge41_Node000020_Node000002"><a xlink:title=" ">
<path fill="none" stroke="#63b8ff" d="M870.8,-168.27C739.84,-157.61 444.64,-133.58 330.38,-124.28"/>
<polygon fill="#63b8ff" stroke="#63b8ff" points="330.47,-120.77 320.22,-123.45 329.91,-127.75 330.47,-120.77"/>
</a>
</g>
</g>
<!-- Node20&#45;&gt;Node4 -->
<g id="edge42_Node000020_Node000004" class="edge">
<title>Node20&#45;&gt;Node4</title>
<g id="a_edge42_Node000020_Node000004"><a xlink:title=" ">
<path fill="none" stroke="#63b8ff" d="M927.25,-164.75C914.15,-150.6 886.06,-122.94 856,-110 807.17,-88.99 656.99,-75 578.67,-68.94"/>
<polygon fill="#63b8ff" stroke="#63b8ff" points="578.81,-65.44 568.57,-68.17 578.27,-72.42 578.81,-65.44"/>
</a>
</g>
</g>
<!-- Node20&#45;&gt;Node7 -->
<g id="edge43_Node000020_Node000007" class="edge">
<title>Node20&#45;&gt;Node7</title>
<g id="a_edge43_Node000020_Node000007"><a xlink:title=" ">
<path fill="none" stroke="#63b8ff" d="M969.06,-164.98C1005.42,-155.89 1063.17,-141.46 1102.97,-131.51"/>
<polygon fill="#63b8ff" stroke="#63b8ff" points="1103.82,-134.9 1112.67,-129.08 1102.12,-128.11 1103.82,-134.9"/>
</a>
</g>
</g>
<!-- Node20&#45;&gt;Node9 -->
<g id="edge34_Node000020_Node000009" class="edge">
<title>Node20&#45;&gt;Node9</title>
<g id="a_edge34_Node000020_Node000009"><a xlink:title=" ">
<path fill="none" stroke="#63b8ff" d="M999.18,-169.97C1095.99,-163.97 1270.18,-150.34 1289,-129 1299.91,-116.64 1295.19,-97.33 1289.27,-83.25"/>
<polygon fill="#63b8ff" stroke="#63b8ff" points="1292.38,-81.65 1284.95,-74.1 1286.05,-84.64 1292.38,-81.65"/>
</a>
</g>
</g>
<!-- Node20&#45;&gt;Node10 -->
<g id="edge36_Node000020_Node000010" class="edge">
<title>Node20&#45;&gt;Node10</title>
<g id="a_edge36_Node000020_Node000010"><a xlink:title=" ">
<path fill="none" stroke="#63b8ff" d="M999.18,-171.86C1091.25,-168.5 1255.31,-158.46 1306,-129 1323.92,-118.58 1337.06,-98.34 1344.82,-83.5"/>
<polygon fill="#63b8ff" stroke="#63b8ff" points="1348.08,-84.79 1349.33,-74.27 1341.79,-81.72 1348.08,-84.79"/>
</a>
</g>
</g>
<!-- Node20&#45;&gt;Node13 -->
<g id="edge37_Node000020_Node000013" class="edge">
<title>Node20&#45;&gt;Node13</title>
<g id="a_edge37_Node000020_Node000013"><a xlink:title=" ">
<path fill="none" stroke="#63b8ff" d="M980.67,-164.97C1020.72,-155.45 1069.33,-137.65 1047,-110 1044.45,-106.85 947.24,-86.93 886.96,-74.84"/>
<polygon fill="#63b8ff" stroke="#63b8ff" points="887.38,-71.35 876.89,-72.82 886.01,-78.22 887.38,-71.35"/>
</a>
</g>
</g>
<!-- Node20&#45;&gt;Node18 -->
<g id="edge35_Node000020_Node000018" class="edge">
<title>Node20&#45;&gt;Node18</title>
<g id="a_edge35_Node000020_Node000018"><a xlink:title=" ">
<path fill="none" stroke="#63b8ff" d="M870.92,-166.65C764.79,-155.31 556.09,-133.01 473.67,-124.2"/>
<polygon fill="#63b8ff" stroke="#63b8ff" points="473.89,-120.71 463.57,-123.13 473.15,-127.67 473.89,-120.71"/>
</a>
</g>
</g>
<!-- Node21 -->
<g id="Node000021" class="node">
<title>Node21</title>
<g id="a_Node000021"><a xlink:title=" ">
<polygon fill="#e0e0e0" stroke="#999999" points="1037.5,-129 980.5,-129 980.5,-110 1037.5,-110 1037.5,-129"/>
<text text-anchor="middle" x="1009" y="-117" font-family="Helvetica,sans-Serif" font-size="10.00">pthread.h</text>
</a>
</g>
</g>
<!-- Node20&#45;&gt;Node21 -->
<g id="edge32_Node000020_Node000021" class="edge">
<title>Node20&#45;&gt;Node21</title>
<g id="a_edge32_Node000020_Node000021"><a xlink:title=" ">
<path fill="none" stroke="#63b8ff" d="M946.89,-164.98C958.15,-156.92 975.29,-144.65 988.71,-135.03"/>
<polygon fill="#63b8ff" stroke="#63b8ff" points="990.8,-137.84 996.89,-129.17 986.73,-132.15 990.8,-137.84"/>
</a>
</g>
</g>
<!-- Node22 -->
<g id="Node000022" class="node">
<title>Node22</title>
<g id="a_Node000022"><a xlink:title=" ">
<polygon fill="#e0e0e0" stroke="#999999" points="690,-129 634,-129 634,-110 690,-110 690,-129"/>
<text text-anchor="middle" x="662" y="-117" font-family="Helvetica,sans-Serif" font-size="10.00">stdbool.h</text>
</a>
</g>
</g>
<!-- Node20&#45;&gt;Node22 -->
<g id="edge33_Node000020_Node000022" class="edge">
<title>Node20&#45;&gt;Node22</title>
<g id="a_edge33_Node000020_Node000022"><a xlink:title=" ">
<path fill="none" stroke="#63b8ff" d="M886.53,-164.94C840.89,-156.74 770.37,-143.76 700.16,-129.18"/>
<polygon fill="#63b8ff" stroke="#63b8ff" points="700.76,-125.73 690.26,-127.11 699.33,-132.58 700.76,-125.73"/>
</a>
</g>
</g>
<!-- Node23 -->
<g id="Node000023" class="node">
<title>Node23</title>
<g id="a_Node000023"><a xlink:title=" ">
<polygon fill="#e0e0e0" stroke="#999999" points="1280,-129 1218,-129 1218,-110 1280,-110 1280,-129"/>
<text text-anchor="middle" x="1249" y="-117" font-family="Helvetica,sans-Serif" font-size="10.00">sys/time.h</text>
</a>
</g>
</g>
<!-- Node20&#45;&gt;Node23 -->
<g id="edge38_Node000020_Node000023" class="edge">
<title>Node20&#45;&gt;Node23</title>
<g id="a_edge38_Node000020_Node000023"><a xlink:title=" ">
<path fill="none" stroke="#63b8ff" d="M992.61,-164.97C1045.87,-156.9 1127.48,-144.06 1207.35,-129.24"/>
<polygon fill="#63b8ff" stroke="#63b8ff" points="1208.4,-132.6 1217.59,-127.33 1207.11,-125.72 1208.4,-132.6"/>
</a>
</g>
</g>
<!-- Node24 -->
<g id="Node000024" class="node">
<title>Node24</title>
<g id="a_Node000024"><a xlink:title=" ">
<polygon fill="#e0e0e0" stroke="#999999" points="776,-129 708,-129 708,-110 776,-110 776,-129"/>
<text text-anchor="middle" x="742" y="-117" font-family="Helvetica,sans-Serif" font-size="10.00">sys/types.h</text>
</a>
</g>
</g>
<!-- Node20&#45;&gt;Node24 -->
<g id="edge39_Node000020_Node000024" class="edge">
<title>Node20&#45;&gt;Node24</title>
<g id="a_edge39_Node000020_Node000024"><a xlink:title=" ">
<path fill="none" stroke="#63b8ff" d="M903.99,-164.98C871.17,-155.97 819.2,-141.7 783.01,-131.76"/>
<polygon fill="#63b8ff" stroke="#63b8ff" points="783.82,-128.36 773.25,-129.08 781.97,-135.11 783.82,-128.36"/>
</a>
</g>
</g>
<!-- Node25 -->
<g id="Node000025" class="node">
<title>Node25</title>
<g id="a_Node000025"><a xlink:title=" ">
<polygon fill="#e0e0e0" stroke="#999999" points="962,-129 908,-129 908,-110 962,-110 962,-129"/>
<text text-anchor="middle" x="935" y="-117" font-family="Helvetica,sans-Serif" font-size="10.00">sys/un.h</text>
</a>
</g>
</g>
<!-- Node20&#45;&gt;Node25 -->
<g id="edge40_Node000020_Node000025" class="edge">
<title>Node20&#45;&gt;Node25</title>
<g id="a_edge40_Node000020_Node000025"><a xlink:title=" ">
<path fill="none" stroke="#63b8ff" d="M935,-164.75C935,-157.8 935,-147.85 935,-139.13"/>
<polygon fill="#63b8ff" stroke="#63b8ff" points="938.5,-139.09 935,-129.09 931.5,-139.09 938.5,-139.09"/>
</a>
</g>
</g>
<!-- Node26&#45;&gt;Node2 -->
<g id="edge45_Node000026_Node000002" class="edge">
<title>Node26&#45;&gt;Node2</title>
<g id="a_edge45_Node000026_Node000002"><a xlink:title=" ">
<path fill="none" stroke="#63b8ff" d="M525.73,-164.98C471.95,-155.09 383.75,-138.86 330.06,-128.98"/>
<polygon fill="#63b8ff" stroke="#63b8ff" points="330.6,-125.52 320.13,-127.15 329.33,-132.4 330.6,-125.52"/>
</a>
</g>
</g>
<!-- Node26&#45;&gt;Node3 -->
<g id="edge47_Node000026_Node000003" class="edge">
<title>Node26&#45;&gt;Node3</title>
<g id="a_edge47_Node000026_Node000003"><a xlink:title=" ">
<path fill="none" stroke="#63b8ff" d="M537.47,-164.96C503.76,-156.46 451.1,-142.73 406,-129 351.99,-112.56 290.11,-90.85 253.08,-77.54"/>
<polygon fill="#63b8ff" stroke="#63b8ff" points="253.92,-74.13 243.33,-74.03 251.55,-80.71 253.92,-74.13"/>
</a>
</g>
</g>
<!-- Node26&#45;&gt;Node4 -->
<g id="edge49_Node000026_Node000004" class="edge">
<title>Node26&#45;&gt;Node4</title>
<g id="a_edge49_Node000026_Node000004"><a xlink:title=" ">
<path fill="none" stroke="#63b8ff" d="M568.56,-164.66C561.7,-147.01 546.17,-107.09 537.05,-83.64"/>
<polygon fill="#63b8ff" stroke="#63b8ff" points="540.25,-82.21 533.37,-74.16 533.73,-84.75 540.25,-82.21"/>
</a>
</g>
</g>
<!-- Node26&#45;&gt;Node14 -->
<g id="edge50_Node000026_Node000014" class="edge">
<title>Node26&#45;&gt;Node14</title>
<g id="a_edge50_Node000026_Node000014"><a xlink:title=" ">
<path fill="none" stroke="#63b8ff" d="M576.48,-164.76C584.25,-150.6 601.64,-122.95 625,-110 724.61,-54.78 768.41,-92.91 884.78,-73.99"/>
<polygon fill="#63b8ff" stroke="#63b8ff" points="885.52,-77.42 894.77,-72.26 884.32,-70.52 885.52,-77.42"/>
</a>
</g>
</g>
<!-- Node26&#45;&gt;Node22 -->
<g id="edge46_Node000026_Node000022" class="edge">
<title>Node26&#45;&gt;Node22</title>
<g id="a_edge46_Node000026_Node000022"><a xlink:title=" ">
<path fill="none" stroke="#63b8ff" d="M586.46,-164.98C600.42,-156.77 621.79,-144.18 638.25,-134.49"/>
<polygon fill="#63b8ff" stroke="#63b8ff" points="640.44,-137.26 647.28,-129.17 636.88,-131.23 640.44,-137.26"/>
</a>
</g>
</g>
<!-- Node26&#45;&gt;Node24 -->
<g id="edge48_Node000026_Node000024" class="edge">
<title>Node26&#45;&gt;Node24</title>
<g id="a_edge48_Node000026_Node000024"><a xlink:title=" ">
<path fill="none" stroke="#63b8ff" d="M599.31,-164.98C627.85,-156.09 672.83,-142.07 704.64,-132.15"/>
<polygon fill="#63b8ff" stroke="#63b8ff" points="705.97,-135.4 714.47,-129.08 703.88,-128.72 705.97,-135.4"/>
</a>
</g>
</g>
<!-- Node27&#45;&gt;Node3 -->
<g id="edge54_Node000027_Node000003" class="edge">
<title>Node27&#45;&gt;Node3</title>
<g id="a_edge54_Node000027_Node000003"><a xlink:title=" ">
<path fill="none" stroke="#63b8ff" d="M432.97,-275C338.13,-260.23 157.72,-227.25 111,-184 86.08,-160.93 72.32,-137.67 92,-110 112.67,-80.93 153.76,-70.68 183.83,-67.16"/>
<polygon fill="#63b8ff" stroke="#63b8ff" points="184.34,-70.63 193.95,-66.18 183.66,-63.66 184.34,-70.63"/>
</a>
</g>
</g>
<!-- Node27&#45;&gt;Node4 -->
<g id="edge52_Node000027_Node000004" class="edge">
<title>Node27&#45;&gt;Node4</title>
<g id="a_edge52_Node000027_Node000004"><a xlink:title=" ">
<path fill="none" stroke="#63b8ff" d="M493.42,-274.87C496.65,-255.31 504.81,-206.1 512,-165 516.95,-136.68 522.93,-103.87 526.6,-83.91"/>
<polygon fill="#63b8ff" stroke="#63b8ff" points="530.06,-84.48 528.43,-74.01 523.17,-83.21 530.06,-84.48"/>
</a>
</g>
</g>
<!-- Node27&#45;&gt;Node19 -->
<g id="edge53_Node000027_Node000019" class="edge">
<title>Node27&#45;&gt;Node19</title>
<g id="a_edge53_Node000027_Node000019"><a xlink:title=" ">
<path fill="none" stroke="#63b8ff" d="M534.9,-274.98C581.37,-265.76 655.59,-251.03 705.76,-241.07"/>
<polygon fill="#63b8ff" stroke="#63b8ff" points="706.64,-244.46 715.77,-239.08 705.28,-237.6 706.64,-244.46"/>
</a>
</g>
</g>
<!-- Node27&#45;&gt;Node24 -->
<g id="edge55_Node000027_Node000024" class="edge">
<title>Node27&#45;&gt;Node24</title>
<g id="a_edge55_Node000027_Node000024"><a xlink:title=" ">
<path fill="none" stroke="#63b8ff" d="M505.09,-274.97C545.66,-248.51 669.63,-167.68 720.19,-134.72"/>
<polygon fill="#63b8ff" stroke="#63b8ff" points="722.27,-137.54 728.74,-129.15 718.45,-131.68 722.27,-137.54"/>
</a>
</g>
</g>
</g>
</svg>
