<?xml version="1.0" encoding="UTF-8" standalone="no"?>
<!DOCTYPE svg PUBLIC "-//W3C//DTD SVG 1.1//EN"
 "http://www.w3.org/Graphics/SVG/1.1/DTD/svg11.dtd">
<!-- Generated by graphviz version 2.43.0 (0)
 -->
<!-- Title: SocketHTTP1.h Pages: 1 -->
<svg width="701pt" height="82pt"
 viewBox="0.00 0.00 700.50 82.00" xmlns="http://www.w3.org/2000/svg" xmlns:xlink="http://www.w3.org/1999/xlink">
<g id="graph0" class="graph" transform="scale(1 1) rotate(0) translate(4 78)">
<title>SocketHTTP1.h</title>
<!-- Node1 -->
<g id="Node000001" class="node">
<title>Node1</title>
<g id="a_Node000001"><a xlink:title="HTTP/1.1 message syntax parsing and serialization (RFC 9112).">
<polygon fill="#999999" stroke="#666666" points="411,-74 324,-74 324,-55 411,-55 411,-74"/>
<text text-anchor="middle" x="367.5" y="-62" font-family="Helvetica,sans-Serif" font-size="10.00">SocketHTTP1.h</text>
</a>
</g>
</g>
<!-- Node2 -->
<g id="Node000002" class="node">
<title>Node2</title>
<g id="a_Node000002"><a xlink:href="SocketHTTP1-private_8h.html" target="_top" xlink:title="Internal HTTP/1.1 parser structures and DFA state machine.">
<polygon fill="white" stroke="#666666" points="119,-19 0,-19 0,0 119,0 119,-19"/>
<text text-anchor="middle" x="59.5" y="-7" font-family="Helvetica,sans-Serif" font-size="10.00">SocketHTTP1&#45;private.h</text>
</a>
</g>
</g>
<!-- Node1&#45;&gt;Node2 -->
<g id="edge1_Node000001_Node000002" class="edge">
<title>Node1&#45;&gt;Node2</title>
<g id="a_edge1_Node000001_Node000002"><a xlink:title=" ">
<path fill="none" stroke="#63b8ff" d="M313.67,-54.24C255.94,-44.3 165.02,-28.66 109.01,-19.02"/>
<polygon fill="#63b8ff" stroke="#63b8ff" points="313.25,-57.72 323.7,-55.96 314.44,-50.82 313.25,-57.72"/>
</a>
</g>
</g>
<!-- Node3 -->
<g id="Node000003" class="node">
<title>Node3</title>
<g id="a_Node000003"><a xlink:href="SocketHTTPClient-private_8h.html" target="_top" xlink:title="Internal HTTP client structures and connection pooling.">
<polygon fill="white" stroke="#666666" points="277.5,-19 137.5,-19 137.5,0 277.5,0 277.5,-19"/>
<text text-anchor="middle" x="207.5" y="-7" font-family="Helvetica,sans-Serif" font-size="10.00">SocketHTTPClient&#45;private.h</text>
</a>
</g>
</g>
<!-- Node1&#45;&gt;Node3 -->
<g id="edge2_Node000001_Node000003" class="edge">
<title>Node1&#45;&gt;Node3</title>
<g id="a_edge2_Node000001_Node000003"><a xlink:title=" ">
<path fill="none" stroke="#63b8ff" d="M332.17,-51.8C302.31,-41.91 260.23,-27.97 233.41,-19.08"/>
<polygon fill="#63b8ff" stroke="#63b8ff" points="331.2,-55.16 341.79,-54.98 333.4,-48.52 331.2,-55.16"/>
</a>
</g>
</g>
<!-- Node4 -->
<g id="Node000004" class="node">
<title>Node4</title>
<g id="a_Node000004"><a xlink:href="SocketHTTPServer-private_8h.html" target="_top" xlink:title="Private implementation details for HTTP server connection and state management.">
<polygon fill="white" stroke="#666666" points="439,-19 296,-19 296,0 439,0 439,-19"/>
<text text-anchor="middle" x="367.5" y="-7" font-family="Helvetica,sans-Serif" font-size="10.00">SocketHTTPServer&#45;private.h</text>
</a>
</g>
</g>
<!-- Node1&#45;&gt;Node4 -->
<g id="edge3_Node000001_Node000004" class="edge">
<title>Node1&#45;&gt;Node4</title>
<g id="a_edge3_Node000001_Node000004"><a xlink:title=" ">
<path fill="none" stroke="#63b8ff" d="M367.5,-44.66C367.5,-35.93 367.5,-25.99 367.5,-19.09"/>
<polygon fill="#63b8ff" stroke="#63b8ff" points="364,-44.75 367.5,-54.75 371,-44.75 364,-44.75"/>
</a>
</g>
</g>
<!-- Node5 -->
<g id="Node000005" class="node">
<title>Node5</title>
<g id="a_Node000005"><a xlink:href="SocketProxy-private_8h.html" target="_top" xlink:title="Internal structures and functions for SocketProxy module.">
<polygon fill="white" stroke="#666666" points="570,-19 457,-19 457,0 570,0 570,-19"/>
<text text-anchor="middle" x="513.5" y="-7" font-family="Helvetica,sans-Serif" font-size="10.00">SocketProxy&#45;private.h</text>
</a>
</g>
</g>
<!-- Node1&#45;&gt;Node5 -->
<g id="edge4_Node000001_Node000005" class="edge">
<title>Node1&#45;&gt;Node5</title>
<g id="a_edge4_Node000001_Node000005"><a xlink:title=" ">
<path fill="none" stroke="#63b8ff" d="M400.42,-51.55C427.53,-41.71 465.33,-27.98 489.62,-19.17"/>
<polygon fill="#63b8ff" stroke="#63b8ff" points="399.16,-48.28 390.96,-54.98 401.55,-54.86 399.16,-48.28"/>
</a>
</g>
</g>
<!-- Node6 -->
<g id="Node000006" class="node">
<title>Node6</title>
<g id="a_Node000006"><a xlink:href="SocketWS-private_8h.html" target="_top" xlink:title="Internal implementation details for WebSocket module.">
<polygon fill="white" stroke="#666666" points="692.5,-19 588.5,-19 588.5,0 692.5,0 692.5,-19"/>
<text text-anchor="middle" x="640.5" y="-7" font-family="Helvetica,sans-Serif" font-size="10.00">SocketWS&#45;private.h</text>
</a>
</g>
</g>
<!-- Node1&#45;&gt;Node6 -->
<g id="edge5_Node000001_Node000006" class="edge">
<title>Node1&#45;&gt;Node6</title>
<g id="a_edge5_Node000001_Node000006"><a xlink:title=" ">
<path fill="none" stroke="#63b8ff" d="M420.97,-53.12C472.28,-43.16 548.82,-28.3 596.64,-19.01"/>
<polygon fill="#63b8ff" stroke="#63b8ff" points="420.21,-49.7 411.06,-55.04 421.54,-56.57 420.21,-49.7"/>
</a>
</g>
</g>
</g>
</svg>
