<?xml version="1.0" encoding="UTF-8" standalone="no"?>
<!DOCTYPE svg PUBLIC "-//W3C//DTD SVG 1.1//EN"
 "http://www.w3.org/Graphics/SVG/1.1/DTD/svg11.dtd">
<!-- Generated by graphviz version 2.43.0 (0)
 -->
<!-- Title: SocketPoll_backend.h Pages: 1 -->
<svg width="1240pt" height="357pt"
 viewBox="0.00 0.00 1240.15 357.00" xmlns="http://www.w3.org/2000/svg" xmlns:xlink="http://www.w3.org/1999/xlink">
<g id="graph0" class="graph" transform="scale(1 1) rotate(0) translate(4 353)">
<title>SocketPoll_backend.h</title>
<!-- Node1 -->
<g id="Node000001" class="node">
<title>Node1</title>
<g id="a_Node000001"><a xlink:title=" ">
<polygon fill="#999999" stroke="#666666" points="206.15,-349 92.15,-349 92.15,-330 206.15,-330 206.15,-349"/>
<text text-anchor="middle" x="149.15" y="-337" font-family="Helvetica,sans-Serif" font-size="10.00">SocketPoll_backend.h</text>
</a>
</g>
</g>
<!-- Node2 -->
<g id="Node000002" class="node">
<title>Node2</title>
<g id="a_Node000002"><a xlink:href="SocketPoll_8h.html" target="_top" xlink:title=" ">
<polygon fill="white" stroke="#666666" points="158.15,-294 68.15,-294 68.15,-275 158.15,-275 158.15,-294"/>
<text text-anchor="middle" x="113.15" y="-282" font-family="Helvetica,sans-Serif" font-size="10.00">poll/SocketPoll.h</text>
</a>
</g>
</g>
<!-- Node1&#45;&gt;Node2 -->
<g id="edge1_Node000001_Node000002" class="edge">
<title>Node1&#45;&gt;Node2</title>
<g id="a_edge1_Node000001_Node000002"><a xlink:title=" ">
<path fill="none" stroke="#63b8ff" d="M143.2,-329.75C138.17,-322.34 130.81,-311.5 124.63,-302.41"/>
<polygon fill="#63b8ff" stroke="#63b8ff" points="127.5,-300.39 118.98,-294.09 121.71,-304.33 127.5,-300.39"/>
</a>
</g>
</g>
<!-- Node7 -->
<g id="Node000007" class="node">
<title>Node7</title>
<g id="a_Node000007"><a xlink:href="Socket_8h.html" target="_top" xlink:title=" ">
<polygon fill="white" stroke="#666666" points="400.15,-239 312.15,-239 312.15,-220 400.15,-220 400.15,-239"/>
<text text-anchor="middle" x="356.15" y="-227" font-family="Helvetica,sans-Serif" font-size="10.00">socket/Socket.h</text>
</a>
</g>
</g>
<!-- Node1&#45;&gt;Node7 -->
<g id="edge38_Node000001_Node000007" class="edge">
<title>Node1&#45;&gt;Node7</title>
<g id="a_edge38_Node000001_Node000007"><a xlink:title=" ">
<path fill="none" stroke="#63b8ff" d="M165.74,-329.84C201.86,-311 287.83,-266.14 330.8,-243.73"/>
<polygon fill="#63b8ff" stroke="#63b8ff" points="332.52,-246.78 339.77,-239.05 329.28,-240.57 332.52,-246.78"/>
</a>
</g>
</g>
<!-- Node3 -->
<g id="Node000003" class="node">
<title>Node3</title>
<g id="a_Node000003"><a xlink:href="Except_8h.html" target="_top" xlink:title=" ">
<polygon fill="white" stroke="#666666" points="188.65,-74 111.65,-74 111.65,-55 188.65,-55 188.65,-74"/>
<text text-anchor="middle" x="150.15" y="-62" font-family="Helvetica,sans-Serif" font-size="10.00">core/Except.h</text>
</a>
</g>
</g>
<!-- Node2&#45;&gt;Node3 -->
<g id="edge2_Node000002_Node000003" class="edge">
<title>Node2&#45;&gt;Node3</title>
<g id="a_edge2_Node000002_Node000003"><a xlink:title=" ">
<path fill="none" stroke="#63b8ff" d="M89.66,-274.93C72.25,-267.6 48.91,-255.59 33.15,-239 9.03,-213.62 -10.11,-196 6.15,-165 29.24,-120.97 81.64,-92.58 116.45,-77.82"/>
<polygon fill="#63b8ff" stroke="#63b8ff" points="117.82,-81.04 125.76,-74.02 115.18,-74.56 117.82,-81.04"/>
</a>
</g>
</g>
<!-- Node5 -->
<g id="Node000005" class="node">
<title>Node5</title>
<g id="a_Node000005"><a xlink:href="SocketTimer_8h.html" target="_top" xlink:title=" ">
<polygon fill="white" stroke="#666666" points="143.65,-239 42.65,-239 42.65,-220 143.65,-220 143.65,-239"/>
<text text-anchor="middle" x="93.15" y="-227" font-family="Helvetica,sans-Serif" font-size="10.00">core/SocketTimer.h</text>
</a>
</g>
</g>
<!-- Node2&#45;&gt;Node5 -->
<g id="edge4_Node000002_Node000005" class="edge">
<title>Node2&#45;&gt;Node5</title>
<g id="a_edge4_Node000002_Node000005"><a xlink:title=" ">
<path fill="none" stroke="#63b8ff" d="M109.85,-274.75C107.17,-267.65 103.3,-257.4 99.96,-248.56"/>
<polygon fill="#63b8ff" stroke="#63b8ff" points="103.19,-247.21 96.39,-239.09 96.64,-249.68 103.19,-247.21"/>
</a>
</g>
</g>
<!-- Node2&#45;&gt;Node7 -->
<g id="edge7_Node000002_Node000007" class="edge">
<title>Node2&#45;&gt;Node7</title>
<g id="a_edge7_Node000002_Node000007"><a xlink:title=" ">
<path fill="none" stroke="#63b8ff" d="M152.19,-274.98C194.22,-265.82 261.19,-251.21 306.83,-241.26"/>
<polygon fill="#63b8ff" stroke="#63b8ff" points="307.78,-244.63 316.8,-239.08 306.28,-237.79 307.78,-244.63"/>
</a>
</g>
</g>
<!-- Node4 -->
<g id="Node000004" class="node">
<title>Node4</title>
<g id="a_Node000004"><a xlink:title=" ">
<polygon fill="#e0e0e0" stroke="#999999" points="177.15,-19 123.15,-19 123.15,0 177.15,0 177.15,-19"/>
<text text-anchor="middle" x="150.15" y="-7" font-family="Helvetica,sans-Serif" font-size="10.00">setjmp.h</text>
</a>
</g>
</g>
<!-- Node3&#45;&gt;Node4 -->
<g id="edge3_Node000003_Node000004" class="edge">
<title>Node3&#45;&gt;Node4</title>
<g id="a_edge3_Node000003_Node000004"><a xlink:title=" ">
<path fill="none" stroke="#63b8ff" d="M150.15,-54.75C150.15,-47.8 150.15,-37.85 150.15,-29.13"/>
<polygon fill="#63b8ff" stroke="#63b8ff" points="153.65,-29.09 150.15,-19.09 146.65,-29.09 153.65,-29.09"/>
</a>
</g>
</g>
<!-- Node5&#45;&gt;Node3 -->
<g id="edge5_Node000005_Node000003" class="edge">
<title>Node5&#45;&gt;Node3</title>
<g id="a_edge5_Node000005_Node000003"><a xlink:title=" ">
<path fill="none" stroke="#63b8ff" d="M93.62,-219.78C94.98,-199.61 99.98,-148.54 117.15,-110 121.63,-99.93 128.71,-89.97 135.16,-82.02"/>
<polygon fill="#63b8ff" stroke="#63b8ff" points="137.93,-84.17 141.77,-74.29 132.61,-79.62 137.93,-84.17"/>
</a>
</g>
</g>
<!-- Node6 -->
<g id="Node000006" class="node">
<title>Node6</title>
<g id="a_Node000006"><a xlink:title=" ">
<polygon fill="#e0e0e0" stroke="#999999" points="64.65,-184 15.65,-184 15.65,-165 64.65,-165 64.65,-184"/>
<text text-anchor="middle" x="40.15" y="-172" font-family="Helvetica,sans-Serif" font-size="10.00">stdint.h</text>
</a>
</g>
</g>
<!-- Node5&#45;&gt;Node6 -->
<g id="edge6_Node000005_Node000006" class="edge">
<title>Node5&#45;&gt;Node6</title>
<g id="a_edge6_Node000005_Node000006"><a xlink:title=" ">
<path fill="none" stroke="#63b8ff" d="M84.4,-219.75C76.68,-212.03 65.24,-200.6 55.93,-191.28"/>
<polygon fill="#63b8ff" stroke="#63b8ff" points="58.28,-188.69 48.74,-184.09 53.33,-193.64 58.28,-188.69"/>
</a>
</g>
</g>
<!-- Node7&#45;&gt;Node3 -->
<g id="edge8_Node000007_Node000003" class="edge">
<title>Node7&#45;&gt;Node3</title>
<g id="a_edge8_Node000007_Node000003"><a xlink:title=" ">
<path fill="none" stroke="#63b8ff" d="M332.88,-219.91C297.08,-205.72 228.05,-174.37 184.15,-129 171.54,-115.97 162.3,-97.32 156.67,-83.6"/>
<polygon fill="#63b8ff" stroke="#63b8ff" points="159.92,-82.32 153.06,-74.25 153.39,-84.84 159.92,-82.32"/>
</a>
</g>
</g>
<!-- Node8 -->
<g id="Node000008" class="node">
<title>Node8</title>
<g id="a_Node000008"><a xlink:href="SocketConfig_8h.html" target="_top" xlink:title=" ">
<polygon fill="white" stroke="#666666" points="1047.15,-129 941.15,-129 941.15,-110 1047.15,-110 1047.15,-129"/>
<text text-anchor="middle" x="994.15" y="-117" font-family="Helvetica,sans-Serif" font-size="10.00">core/SocketConfig.h</text>
</a>
</g>
</g>
<!-- Node7&#45;&gt;Node8 -->
<g id="edge9_Node000007_Node000008" class="edge">
<title>Node7&#45;&gt;Node8</title>
<g id="a_edge9_Node000007_Node000008"><a xlink:title=" ">
<path fill="none" stroke="#63b8ff" d="M400.57,-221.16C453.56,-212.38 544.84,-197.23 623.15,-184 733.15,-165.42 861.43,-143.38 934.69,-130.76"/>
<polygon fill="#63b8ff" stroke="#63b8ff" points="935.39,-134.19 944.65,-129.04 934.2,-127.29 935.39,-134.19"/>
</a>
</g>
</g>
<!-- Node17 -->
<g id="Node000017" class="node">
<title>Node17</title>
<g id="a_Node000017"><a xlink:href="SocketDNS_8h.html" target="_top" xlink:title=" ">
<polygon fill="white" stroke="#666666" points="809.15,-129 713.15,-129 713.15,-110 809.15,-110 809.15,-129"/>
<text text-anchor="middle" x="761.15" y="-117" font-family="Helvetica,sans-Serif" font-size="10.00">dns/SocketDNS.h</text>
</a>
</g>
</g>
<!-- Node7&#45;&gt;Node17 -->
<g id="edge18_Node000007_Node000017" class="edge">
<title>Node7&#45;&gt;Node17</title>
<g id="a_edge18_Node000007_Node000017"><a xlink:title=" ">
<path fill="none" stroke="#63b8ff" d="M400.15,-221.57C445.44,-214.02 517.83,-200.73 579.15,-184 633.3,-169.23 694.62,-146.55 730.47,-132.67"/>
<polygon fill="#63b8ff" stroke="#63b8ff" points="731.83,-135.9 739.88,-129.01 729.29,-129.38 731.83,-135.9"/>
</a>
</g>
</g>
<!-- Node19 -->
<g id="Node000019" class="node">
<title>Node19</title>
<g id="a_Node000019"><a xlink:href="SocketCommon_8h.html" target="_top" xlink:title=" ">
<polygon fill="white" stroke="#666666" points="570.15,-184 442.15,-184 442.15,-165 570.15,-165 570.15,-184"/>
<text text-anchor="middle" x="506.15" y="-172" font-family="Helvetica,sans-Serif" font-size="10.00">socket/SocketCommon.h</text>
</a>
</g>
</g>
<!-- Node7&#45;&gt;Node19 -->
<g id="edge23_Node000007_Node000019" class="edge">
<title>Node7&#45;&gt;Node19</title>
<g id="a_edge23_Node000007_Node000019"><a xlink:title=" ">
<path fill="none" stroke="#63b8ff" d="M380.25,-219.98C405.03,-211.23 443.85,-197.51 471.84,-187.62"/>
<polygon fill="#63b8ff" stroke="#63b8ff" points="473.35,-190.8 481.61,-184.17 471.01,-184.2 473.35,-190.8"/>
</a>
</g>
</g>
<!-- Node9 -->
<g id="Node000009" class="node">
<title>Node9</title>
<g id="a_Node000009"><a xlink:title=" ">
<polygon fill="#e0e0e0" stroke="#999999" points="1167.65,-74 1120.65,-74 1120.65,-55 1167.65,-55 1167.65,-74"/>
<text text-anchor="middle" x="1144.15" y="-62" font-family="Helvetica,sans-Serif" font-size="10.00">errno.h</text>
</a>
</g>
</g>
<!-- Node8&#45;&gt;Node9 -->
<g id="edge10_Node000008_Node000009" class="edge">
<title>Node8&#45;&gt;Node9</title>
<g id="a_edge10_Node000008_Node000009"><a xlink:title=" ">
<path fill="none" stroke="#63b8ff" d="M1018.25,-109.98C1043.33,-101.12 1082.78,-87.18 1110.83,-77.27"/>
<polygon fill="#63b8ff" stroke="#63b8ff" points="1112.34,-80.45 1120.6,-73.82 1110.01,-73.85 1112.34,-80.45"/>
</a>
</g>
</g>
<!-- Node10 -->
<g id="Node000010" class="node">
<title>Node10</title>
<g id="a_Node000010"><a xlink:title=" ">
<polygon fill="#e0e0e0" stroke="#999999" points="959.15,-74 915.15,-74 915.15,-55 959.15,-55 959.15,-74"/>
<text text-anchor="middle" x="937.15" y="-62" font-family="Helvetica,sans-Serif" font-size="10.00">fcntl.h</text>
</a>
</g>
</g>
<!-- Node8&#45;&gt;Node10 -->
<g id="edge11_Node000008_Node000010" class="edge">
<title>Node8&#45;&gt;Node10</title>
<g id="a_edge11_Node000008_Node000010"><a xlink:title=" ">
<path fill="none" stroke="#63b8ff" d="M984.99,-109.98C976.65,-102.23 964.12,-90.58 953.97,-81.14"/>
<polygon fill="#63b8ff" stroke="#63b8ff" points="956.18,-78.42 946.47,-74.17 951.41,-83.54 956.18,-78.42"/>
</a>
</g>
</g>
<!-- Node11 -->
<g id="Node000011" class="node">
<title>Node11</title>
<g id="a_Node000011"><a xlink:title=" ">
<polygon fill="#e0e0e0" stroke="#999999" points="896.65,-74 831.65,-74 831.65,-55 896.65,-55 896.65,-74"/>
<text text-anchor="middle" x="864.15" y="-62" font-family="Helvetica,sans-Serif" font-size="10.00">netinet/in.h</text>
</a>
</g>
</g>
<!-- Node8&#45;&gt;Node11 -->
<g id="edge12_Node000008_Node000011" class="edge">
<title>Node8&#45;&gt;Node11</title>
<g id="a_edge12_Node000008_Node000011"><a xlink:title=" ">
<path fill="none" stroke="#63b8ff" d="M973.26,-109.98C952.07,-101.34 919.02,-87.87 894.85,-78.02"/>
<polygon fill="#63b8ff" stroke="#63b8ff" points="896,-74.7 885.41,-74.17 893.35,-81.19 896,-74.7"/>
</a>
</g>
</g>
<!-- Node12 -->
<g id="Node000012" class="node">
<title>Node12</title>
<g id="a_Node000012"><a xlink:title=" ">
<polygon fill="#e0e0e0" stroke="#999999" points="722.15,-74 670.15,-74 670.15,-55 722.15,-55 722.15,-74"/>
<text text-anchor="middle" x="696.15" y="-62" font-family="Helvetica,sans-Serif" font-size="10.00">stddef.h</text>
</a>
</g>
</g>
<!-- Node8&#45;&gt;Node12 -->
<g id="edge13_Node000008_Node000012" class="edge">
<title>Node8&#45;&gt;Node12</title>
<g id="a_edge13_Node000008_Node000012"><a xlink:title=" ">
<path fill="none" stroke="#63b8ff" d="M940.77,-110.45C889.88,-102.55 810.85,-89.69 732.5,-73.95"/>
<polygon fill="#63b8ff" stroke="#63b8ff" points="732.95,-70.47 722.45,-71.91 731.56,-77.33 732.95,-70.47"/>
</a>
</g>
</g>
<!-- Node13 -->
<g id="Node000013" class="node">
<title>Node13</title>
<g id="a_Node000013"><a xlink:title=" ">
<polygon fill="#e0e0e0" stroke="#999999" points="1232.15,-74 1186.15,-74 1186.15,-55 1232.15,-55 1232.15,-74"/>
<text text-anchor="middle" x="1209.15" y="-62" font-family="Helvetica,sans-Serif" font-size="10.00">stdio.h</text>
</a>
</g>
</g>
<!-- Node8&#45;&gt;Node13 -->
<g id="edge14_Node000008_Node000013" class="edge">
<title>Node8&#45;&gt;Node13</title>
<g id="a_edge14_Node000008_Node000013"><a xlink:title=" ">
<path fill="none" stroke="#63b8ff" d="M1030.31,-109.94C1065.25,-101.62 1119.9,-88.47 1176.29,-74.18"/>
<polygon fill="#63b8ff" stroke="#63b8ff" points="1177.26,-77.54 1186.09,-71.69 1175.54,-70.76 1177.26,-77.54"/>
</a>
</g>
</g>
<!-- Node14 -->
<g id="Node000014" class="node">
<title>Node14</title>
<g id="a_Node000014"><a xlink:title=" ">
<polygon fill="#e0e0e0" stroke="#999999" points="813.65,-74 740.65,-74 740.65,-55 813.65,-55 813.65,-74"/>
<text text-anchor="middle" x="777.15" y="-62" font-family="Helvetica,sans-Serif" font-size="10.00">sys/socket.h</text>
</a>
</g>
</g>
<!-- Node8&#45;&gt;Node14 -->
<g id="edge15_Node000008_Node000014" class="edge">
<title>Node8&#45;&gt;Node14</title>
<g id="a_edge15_Node000008_Node000014"><a xlink:title=" ">
<path fill="none" stroke="#63b8ff" d="M959.28,-109.98C922.06,-100.89 862.95,-86.46 822.22,-76.51"/>
<polygon fill="#63b8ff" stroke="#63b8ff" points="822.83,-73.05 812.29,-74.08 821.17,-79.85 822.83,-73.05"/>
</a>
</g>
</g>
<!-- Node15 -->
<g id="Node000015" class="node">
<title>Node15</title>
<g id="a_Node000015"><a xlink:title=" ">
<polygon fill="#e0e0e0" stroke="#999999" points="1033.15,-74 977.15,-74 977.15,-55 1033.15,-55 1033.15,-74"/>
<text text-anchor="middle" x="1005.15" y="-62" font-family="Helvetica,sans-Serif" font-size="10.00">sys/uio.h</text>
</a>
</g>
</g>
<!-- Node8&#45;&gt;Node15 -->
<g id="edge16_Node000008_Node000015" class="edge">
<title>Node8&#45;&gt;Node15</title>
<g id="a_edge16_Node000008_Node000015"><a xlink:title=" ">
<path fill="none" stroke="#63b8ff" d="M995.96,-109.75C997.41,-102.8 999.47,-92.85 1001.28,-84.13"/>
<polygon fill="#63b8ff" stroke="#63b8ff" points="1004.76,-84.59 1003.36,-74.09 997.91,-83.17 1004.76,-84.59"/>
</a>
</g>
</g>
<!-- Node16 -->
<g id="Node000016" class="node">
<title>Node16</title>
<g id="a_Node000016"><a xlink:title=" ">
<polygon fill="#e0e0e0" stroke="#999999" points="1102.65,-74 1051.65,-74 1051.65,-55 1102.65,-55 1102.65,-74"/>
<text text-anchor="middle" x="1077.15" y="-62" font-family="Helvetica,sans-Serif" font-size="10.00">unistd.h</text>
</a>
</g>
</g>
<!-- Node8&#45;&gt;Node16 -->
<g id="edge17_Node000008_Node000016" class="edge">
<title>Node8&#45;&gt;Node16</title>
<g id="a_edge17_Node000008_Node000016"><a xlink:title=" ">
<path fill="none" stroke="#63b8ff" d="M1007.48,-109.98C1020.23,-101.84 1039.7,-89.41 1054.82,-79.76"/>
<polygon fill="#63b8ff" stroke="#63b8ff" points="1057.02,-82.5 1063.57,-74.17 1053.26,-76.6 1057.02,-82.5"/>
</a>
</g>
</g>
<!-- Node17&#45;&gt;Node3 -->
<g id="edge19_Node000017_Node000003" class="edge">
<title>Node17&#45;&gt;Node3</title>
<g id="a_edge19_Node000017_Node000003"><a xlink:title=" ">
<path fill="none" stroke="#63b8ff" d="M712.98,-111.08C709.99,-110.69 707.03,-110.33 704.15,-110 518.01,-88.67 295.51,-74.1 198.91,-68.3"/>
<polygon fill="#63b8ff" stroke="#63b8ff" points="199.05,-64.8 188.85,-67.7 198.63,-71.79 199.05,-64.8"/>
</a>
</g>
</g>
<!-- Node17&#45;&gt;Node12 -->
<g id="edge21_Node000017_Node000012" class="edge">
<title>Node17&#45;&gt;Node12</title>
<g id="a_edge21_Node000017_Node000012"><a xlink:title=" ">
<path fill="none" stroke="#63b8ff" d="M750.7,-109.98C741,-102.07 726.33,-90.11 714.65,-80.58"/>
<polygon fill="#63b8ff" stroke="#63b8ff" points="716.74,-77.78 706.78,-74.17 712.32,-83.2 716.74,-77.78"/>
</a>
</g>
</g>
<!-- Node17&#45;&gt;Node14 -->
<g id="edge22_Node000017_Node000014" class="edge">
<title>Node17&#45;&gt;Node14</title>
<g id="a_edge22_Node000017_Node000014"><a xlink:title=" ">
<path fill="none" stroke="#63b8ff" d="M763.79,-109.75C765.91,-102.72 768.96,-92.62 771.61,-83.84"/>
<polygon fill="#63b8ff" stroke="#63b8ff" points="775.02,-84.67 774.55,-74.09 768.31,-82.65 775.02,-84.67"/>
</a>
</g>
</g>
<!-- Node18 -->
<g id="Node000018" class="node">
<title>Node18</title>
<g id="a_Node000018"><a xlink:title=" ">
<polygon fill="#e0e0e0" stroke="#999999" points="459.65,-74 410.65,-74 410.65,-55 459.65,-55 459.65,-74"/>
<text text-anchor="middle" x="435.15" y="-62" font-family="Helvetica,sans-Serif" font-size="10.00">netdb.h</text>
</a>
</g>
</g>
<!-- Node17&#45;&gt;Node18 -->
<g id="edge20_Node000017_Node000018" class="edge">
<title>Node17&#45;&gt;Node18</title>
<g id="a_edge20_Node000017_Node000018"><a xlink:title=" ">
<path fill="none" stroke="#63b8ff" d="M713.05,-110.68C646.68,-99.89 528.63,-80.7 470.07,-71.18"/>
<polygon fill="#63b8ff" stroke="#63b8ff" points="470.29,-67.67 459.86,-69.52 469.17,-74.58 470.29,-67.67"/>
</a>
</g>
</g>
<!-- Node19&#45;&gt;Node3 -->
<g id="edge36_Node000019_Node000003" class="edge">
<title>Node19&#45;&gt;Node3</title>
<g id="a_edge36_Node000019_Node000003"><a xlink:title=" ">
<path fill="none" stroke="#63b8ff" d="M442.04,-168.49C368.21,-161.89 252.08,-148.78 213.15,-129 191.82,-118.17 173.35,-97.38 162.02,-82.54"/>
<polygon fill="#63b8ff" stroke="#63b8ff" points="164.66,-80.22 155.93,-74.21 159.01,-84.35 164.66,-80.22"/>
</a>
</g>
</g>
<!-- Node19&#45;&gt;Node8 -->
<g id="edge37_Node000019_Node000008" class="edge">
<title>Node19&#45;&gt;Node8</title>
<g id="a_edge37_Node000019_Node000008"><a xlink:title=" ">
<path fill="none" stroke="#63b8ff" d="M570.39,-167.13C652.99,-158.84 800.85,-143.68 927.15,-129 928.43,-128.85 929.72,-128.7 931.02,-128.55"/>
<polygon fill="#63b8ff" stroke="#63b8ff" points="931.62,-132 941.13,-127.33 930.78,-125.05 931.62,-132"/>
</a>
</g>
</g>
<!-- Node19&#45;&gt;Node10 -->
<g id="edge26_Node000019_Node000010" class="edge">
<title>Node19&#45;&gt;Node10</title>
<g id="a_edge26_Node000019_Node000010"><a xlink:title=" ">
<path fill="none" stroke="#63b8ff" d="M570.34,-169.37C656.65,-163.12 805.07,-149.75 855.15,-129 881.49,-118.08 906.63,-96.37 921.97,-81.39"/>
<polygon fill="#63b8ff" stroke="#63b8ff" points="924.48,-83.83 929.05,-74.27 919.51,-78.89 924.48,-83.83"/>
</a>
</g>
</g>
<!-- Node19&#45;&gt;Node11 -->
<g id="edge28_Node000019_Node000011" class="edge">
<title>Node19&#45;&gt;Node11</title>
<g id="a_edge28_Node000019_Node000011"><a xlink:title=" ">
<path fill="none" stroke="#63b8ff" d="M570.27,-171.93C653.62,-168.71 793.35,-158.88 834.15,-129 848.73,-118.32 856.48,-98.72 860.43,-84.11"/>
<polygon fill="#63b8ff" stroke="#63b8ff" points="863.89,-84.67 862.75,-74.14 857.07,-83.09 863.89,-84.67"/>
</a>
</g>
</g>
<!-- Node19&#45;&gt;Node14 -->
<g id="edge29_Node000019_Node000014" class="edge">
<title>Node19&#45;&gt;Node14</title>
<g id="a_edge29_Node000019_Node000014"><a xlink:title=" ">
<path fill="none" stroke="#63b8ff" d="M570.31,-173.82C652.11,-172.7 786.73,-165.22 818.15,-129 831.4,-113.72 813.83,-93.82 797.75,-80.4"/>
<polygon fill="#63b8ff" stroke="#63b8ff" points="799.68,-77.46 789.65,-74.04 795.35,-82.97 799.68,-77.46"/>
</a>
</g>
</g>
<!-- Node19&#45;&gt;Node18 -->
<g id="edge27_Node000019_Node000018" class="edge">
<title>Node19&#45;&gt;Node18</title>
<g id="a_edge27_Node000019_Node000018"><a xlink:title=" ">
<path fill="none" stroke="#63b8ff" d="M442.1,-172.59C368.21,-170.03 253.35,-160.87 226.15,-129 177.44,-71.94 328.84,-65.15 400.15,-65.01"/>
<polygon fill="#63b8ff" stroke="#63b8ff" points="400.45,-68.51 410.46,-65.03 400.47,-61.51 400.45,-68.51"/>
</a>
</g>
</g>
<!-- Node20 -->
<g id="Node000020" class="node">
<title>Node20</title>
<g id="a_Node000020"><a xlink:title=" ">
<polygon fill="#e0e0e0" stroke="#999999" points="381.15,-129 325.15,-129 325.15,-110 381.15,-110 381.15,-129"/>
<text text-anchor="middle" x="353.15" y="-117" font-family="Helvetica,sans-Serif" font-size="10.00">stdbool.h</text>
</a>
</g>
</g>
<!-- Node19&#45;&gt;Node20 -->
<g id="edge24_Node000019_Node000020" class="edge">
<title>Node19&#45;&gt;Node20</title>
<g id="a_edge24_Node000019_Node000020"><a xlink:title=" ">
<path fill="none" stroke="#63b8ff" d="M481.57,-164.98C456.1,-156.16 416.1,-142.31 387.52,-132.41"/>
<polygon fill="#63b8ff" stroke="#63b8ff" points="388.52,-129.05 377.92,-129.08 386.23,-135.66 388.52,-129.05"/>
</a>
</g>
</g>
<!-- Node21 -->
<g id="Node000021" class="node">
<title>Node21</title>
<g id="a_Node000021"><a xlink:title=" ">
<polygon fill="#e0e0e0" stroke="#999999" points="456.65,-129 399.65,-129 399.65,-110 456.65,-110 456.65,-129"/>
<text text-anchor="middle" x="428.15" y="-117" font-family="Helvetica,sans-Serif" font-size="10.00">pthread.h</text>
</a>
</g>
</g>
<!-- Node19&#45;&gt;Node21 -->
<g id="edge25_Node000019_Node000021" class="edge">
<title>Node19&#45;&gt;Node21</title>
<g id="a_edge25_Node000019_Node000021"><a xlink:title=" ">
<path fill="none" stroke="#63b8ff" d="M493.62,-164.98C481.75,-156.92 463.68,-144.65 449.54,-135.03"/>
<polygon fill="#63b8ff" stroke="#63b8ff" points="451.15,-131.9 440.91,-129.17 447.21,-137.69 451.15,-131.9"/>
</a>
</g>
</g>
<!-- Node22 -->
<g id="Node000022" class="node">
<title>Node22</title>
<g id="a_Node000022"><a xlink:title=" ">
<polygon fill="#e0e0e0" stroke="#999999" points="537.15,-129 475.15,-129 475.15,-110 537.15,-110 537.15,-129"/>
<text text-anchor="middle" x="506.15" y="-117" font-family="Helvetica,sans-Serif" font-size="10.00">sys/time.h</text>
</a>
</g>
</g>
<!-- Node19&#45;&gt;Node22 -->
<g id="edge30_Node000019_Node000022" class="edge">
<title>Node19&#45;&gt;Node22</title>
<g id="a_edge30_Node000019_Node000022"><a xlink:title=" ">
<path fill="none" stroke="#63b8ff" d="M506.15,-164.75C506.15,-157.8 506.15,-147.85 506.15,-139.13"/>
<polygon fill="#63b8ff" stroke="#63b8ff" points="509.65,-139.09 506.15,-129.09 502.65,-139.09 509.65,-139.09"/>
</a>
</g>
</g>
<!-- Node23 -->
<g id="Node000023" class="node">
<title>Node23</title>
<g id="a_Node000023"><a xlink:title=" ">
<polygon fill="#e0e0e0" stroke="#999999" points="623.15,-129 555.15,-129 555.15,-110 623.15,-110 623.15,-129"/>
<text text-anchor="middle" x="589.15" y="-117" font-family="Helvetica,sans-Serif" font-size="10.00">sys/types.h</text>
</a>
</g>
</g>
<!-- Node19&#45;&gt;Node23 -->
<g id="edge31_Node000019_Node000023" class="edge">
<title>Node19&#45;&gt;Node23</title>
<g id="a_edge31_Node000019_Node000023"><a xlink:title=" ">
<path fill="none" stroke="#63b8ff" d="M519.48,-164.98C532.23,-156.84 551.7,-144.41 566.82,-134.76"/>
<polygon fill="#63b8ff" stroke="#63b8ff" points="569.02,-137.5 575.57,-129.17 565.26,-131.6 569.02,-137.5"/>
</a>
</g>
</g>
<!-- Node24 -->
<g id="Node000024" class="node">
<title>Node24</title>
<g id="a_Node000024"><a xlink:title=" ">
<polygon fill="#e0e0e0" stroke="#999999" points="695.15,-129 641.15,-129 641.15,-110 695.15,-110 695.15,-129"/>
<text text-anchor="middle" x="668.15" y="-117" font-family="Helvetica,sans-Serif" font-size="10.00">sys/un.h</text>
</a>
</g>
</g>
<!-- Node19&#45;&gt;Node24 -->
<g id="edge32_Node000019_Node000024" class="edge">
<title>Node19&#45;&gt;Node24</title>
<g id="a_edge32_Node000019_Node000024"><a xlink:title=" ">
<path fill="none" stroke="#63b8ff" d="M532.18,-164.98C559.26,-156.13 601.86,-142.19 632.15,-132.28"/>
<polygon fill="#63b8ff" stroke="#63b8ff" points="633.5,-135.52 641.92,-129.08 631.32,-128.87 633.5,-135.52"/>
</a>
</g>
</g>
<!-- Node25 -->
<g id="Node000025" class="node">
<title>Node25</title>
<g id="a_Node000025"><a xlink:href="Arena_8h.html" target="_top" xlink:title=" ">
<polygon fill="white" stroke="#666666" points="307.15,-129 235.15,-129 235.15,-110 307.15,-110 307.15,-129"/>
<text text-anchor="middle" x="271.15" y="-117" font-family="Helvetica,sans-Serif" font-size="10.00">core/Arena.h</text>
</a>
</g>
</g>
<!-- Node19&#45;&gt;Node25 -->
<g id="edge33_Node000019_Node000025" class="edge">
<title>Node19&#45;&gt;Node25</title>
<g id="a_edge33_Node000019_Node000025"><a xlink:title=" ">
<path fill="none" stroke="#63b8ff" d="M468.39,-164.98C427.22,-155.7 361.33,-140.84 317.17,-130.88"/>
<polygon fill="#63b8ff" stroke="#63b8ff" points="317.79,-127.43 307.27,-128.65 316.25,-134.26 317.79,-127.43"/>
</a>
</g>
</g>
<!-- Node25&#45;&gt;Node3 -->
<g id="edge35_Node000025_Node000003" class="edge">
<title>Node25&#45;&gt;Node3</title>
<g id="a_edge35_Node000025_Node000003"><a xlink:title=" ">
<path fill="none" stroke="#63b8ff" d="M251.71,-109.98C232.15,-101.42 201.77,-88.11 179.32,-78.28"/>
<polygon fill="#63b8ff" stroke="#63b8ff" points="180.51,-74.98 169.94,-74.17 177.7,-81.39 180.51,-74.98"/>
</a>
</g>
</g>
<!-- Node25&#45;&gt;Node12 -->
<g id="edge34_Node000025_Node000012" class="edge">
<title>Node25&#45;&gt;Node12</title>
<g id="a_edge34_Node000025_Node000012"><a xlink:title=" ">
<path fill="none" stroke="#63b8ff" d="M307.46,-111.41C310.39,-110.91 313.32,-110.43 316.15,-110 441.74,-90.81 591.78,-75.45 659.63,-68.92"/>
<polygon fill="#63b8ff" stroke="#63b8ff" points="660.18,-72.38 669.8,-67.94 659.51,-65.41 660.18,-72.38"/>
</a>
</g>
</g>
</g>
</svg>
