<?xml version="1.0" encoding="UTF-8" standalone="no"?>
<!DOCTYPE svg PUBLIC "-//W3C//DTD SVG 1.1//EN"
 "http://www.w3.org/Graphics/SVG/1.1/DTD/svg11.dtd">
<!-- Generated by graphviz version 2.43.0 (0)
 -->
<!-- Title: SocketSYNProtect&#45;private.h Pages: 1 -->
<svg width="821pt" height="247pt"
 viewBox="0.00 0.00 820.50 247.00" xmlns="http://www.w3.org/2000/svg" xmlns:xlink="http://www.w3.org/1999/xlink">
<g id="graph0" class="graph" transform="scale(1 1) rotate(0) translate(4 243)">
<title>SocketSYNProtect&#45;private.h</title>
<!-- Node1 -->
<g id="Node000001" class="node">
<title>Node1</title>
<g id="a_Node000001"><a xlink:title="Internal SYN flood protection implementation details for the Security Modules group.">
<polygon fill="#999999" stroke="#666666" points="422.5,-239 282.5,-239 282.5,-220 422.5,-220 422.5,-239"/>
<text text-anchor="middle" x="352.5" y="-227" font-family="Helvetica,sans-Serif" font-size="10.00">SocketSYNProtect&#45;private.h</text>
</a>
</g>
</g>
<!-- Node2 -->
<g id="Node000002" class="node">
<title>Node2</title>
<g id="a_Node000002"><a xlink:href="Arena_8h.html" target="_top" xlink:title="Arena&#45;based memory allocator for efficient bulk memory management.">
<polygon fill="white" stroke="#666666" points="164.5,-129 92.5,-129 92.5,-110 164.5,-110 164.5,-129"/>
<text text-anchor="middle" x="128.5" y="-117" font-family="Helvetica,sans-Serif" font-size="10.00">core/Arena.h</text>
</a>
</g>
</g>
<!-- Node1&#45;&gt;Node2 -->
<g id="edge1_Node000001_Node000002" class="edge">
<title>Node1&#45;&gt;Node2</title>
<g id="a_edge1_Node000001_Node000002"><a xlink:title=" ">
<path fill="none" stroke="#63b8ff" d="M315.19,-219.98C286.66,-212.64 246.87,-200.6 214.5,-184 188.63,-170.73 162.21,-149.91 145.6,-135.76"/>
<polygon fill="#63b8ff" stroke="#63b8ff" points="147.72,-132.96 137.87,-129.04 143.13,-138.25 147.72,-132.96"/>
</a>
</g>
</g>
<!-- Node6 -->
<g id="Node000006" class="node">
<title>Node6</title>
<g id="a_Node000006"><a xlink:href="SocketRateLimit_8h.html" target="_top" xlink:title="Token bucket rate limiter for controlling operation rates.">
<polygon fill="white" stroke="#666666" points="167,-184 48,-184 48,-165 167,-165 167,-184"/>
<text text-anchor="middle" x="107.5" y="-172" font-family="Helvetica,sans-Serif" font-size="10.00">core/SocketRateLimit.h</text>
</a>
</g>
</g>
<!-- Node1&#45;&gt;Node6 -->
<g id="edge5_Node000001_Node000006" class="edge">
<title>Node1&#45;&gt;Node6</title>
<g id="a_edge5_Node000001_Node000006"><a xlink:title=" ">
<path fill="none" stroke="#63b8ff" d="M313.14,-219.98C270.76,-210.82 203.24,-196.21 157.22,-186.26"/>
<polygon fill="#63b8ff" stroke="#63b8ff" points="157.69,-182.78 147.17,-184.08 156.21,-189.62 157.69,-182.78"/>
</a>
</g>
</g>
<!-- Node8 -->
<g id="Node000008" class="node">
<title>Node8</title>
<g id="a_Node000008"><a xlink:href="SocketSYNProtect_8h.html" target="_top" xlink:title="SYN flood protection using IP reputation and adaptive rate limiting.">
<polygon fill="white" stroke="#666666" points="353.5,-184 223.5,-184 223.5,-165 353.5,-165 353.5,-184"/>
<text text-anchor="middle" x="288.5" y="-172" font-family="Helvetica,sans-Serif" font-size="10.00">core/SocketSYNProtect.h</text>
</a>
</g>
</g>
<!-- Node1&#45;&gt;Node8 -->
<g id="edge10_Node000001_Node000008" class="edge">
<title>Node1&#45;&gt;Node8</title>
<g id="a_edge10_Node000001_Node000008"><a xlink:title=" ">
<path fill="none" stroke="#63b8ff" d="M342.22,-219.98C332.66,-212.07 318.22,-200.11 306.72,-190.58"/>
<polygon fill="#63b8ff" stroke="#63b8ff" points="308.9,-187.85 298.97,-184.17 304.44,-193.24 308.9,-187.85"/>
</a>
</g>
</g>
<!-- Node18 -->
<g id="Node000018" class="node">
<title>Node18</title>
<g id="a_Node000018"><a xlink:href="SocketUtil_8h.html" target="_top" xlink:title="Consolidated utility header for logging, metrics, events, and error handling.">
<polygon fill="white" stroke="#666666" points="463.5,-184 371.5,-184 371.5,-165 463.5,-165 463.5,-184"/>
<text text-anchor="middle" x="417.5" y="-172" font-family="Helvetica,sans-Serif" font-size="10.00">core/SocketUtil.h</text>
</a>
</g>
</g>
<!-- Node1&#45;&gt;Node18 -->
<g id="edge25_Node000001_Node000018" class="edge">
<title>Node1&#45;&gt;Node18</title>
<g id="a_edge25_Node000001_Node000018"><a xlink:title=" ">
<path fill="none" stroke="#63b8ff" d="M362.94,-219.98C372.65,-212.07 387.32,-200.11 399,-190.58"/>
<polygon fill="#63b8ff" stroke="#63b8ff" points="401.33,-193.2 406.87,-184.17 396.9,-187.78 401.33,-193.2"/>
</a>
</g>
</g>
<!-- Node23 -->
<g id="Node000023" class="node">
<title>Node23</title>
<g id="a_Node000023"><a xlink:title=" ">
<polygon fill="#e0e0e0" stroke="#999999" points="539,-184 482,-184 482,-165 539,-165 539,-184"/>
<text text-anchor="middle" x="510.5" y="-172" font-family="Helvetica,sans-Serif" font-size="10.00">pthread.h</text>
</a>
</g>
</g>
<!-- Node1&#45;&gt;Node23 -->
<g id="edge37_Node000001_Node000023" class="edge">
<title>Node1&#45;&gt;Node23</title>
<g id="a_edge37_Node000001_Node000023"><a xlink:title=" ">
<path fill="none" stroke="#63b8ff" d="M377.89,-219.98C404.3,-211.13 445.85,-197.19 475.39,-187.28"/>
<polygon fill="#63b8ff" stroke="#63b8ff" points="476.55,-190.58 484.92,-184.08 474.32,-183.94 476.55,-190.58"/>
</a>
</g>
</g>
<!-- Node24 -->
<g id="Node000024" class="node">
<title>Node24</title>
<g id="a_Node000024"><a xlink:title=" ">
<polygon fill="#e0e0e0" stroke="#999999" points="625.5,-184 557.5,-184 557.5,-165 625.5,-165 625.5,-184"/>
<text text-anchor="middle" x="591.5" y="-172" font-family="Helvetica,sans-Serif" font-size="10.00">stdatomic.h</text>
</a>
</g>
</g>
<!-- Node1&#45;&gt;Node24 -->
<g id="edge38_Node000001_Node000024" class="edge">
<title>Node1&#45;&gt;Node24</title>
<g id="a_edge38_Node000001_Node000024"><a xlink:title=" ">
<path fill="none" stroke="#63b8ff" d="M390.9,-219.98C433.62,-210.51 502.53,-195.23 547.42,-185.27"/>
<polygon fill="#63b8ff" stroke="#63b8ff" points="548.45,-188.63 557.45,-183.05 546.93,-181.8 548.45,-188.63"/>
</a>
</g>
</g>
<!-- Node3 -->
<g id="Node000003" class="node">
<title>Node3</title>
<g id="a_Node000003"><a xlink:title=" ">
<polygon fill="#e0e0e0" stroke="#999999" points="159.5,-74 107.5,-74 107.5,-55 159.5,-55 159.5,-74"/>
<text text-anchor="middle" x="133.5" y="-62" font-family="Helvetica,sans-Serif" font-size="10.00">stddef.h</text>
</a>
</g>
</g>
<!-- Node2&#45;&gt;Node3 -->
<g id="edge2_Node000002_Node000003" class="edge">
<title>Node2&#45;&gt;Node3</title>
<g id="a_edge2_Node000002_Node000003"><a xlink:title=" ">
<path fill="none" stroke="#63b8ff" d="M129.33,-109.75C129.98,-102.8 130.92,-92.85 131.74,-84.13"/>
<polygon fill="#63b8ff" stroke="#63b8ff" points="135.23,-84.37 132.69,-74.09 128.27,-83.72 135.23,-84.37"/>
</a>
</g>
</g>
<!-- Node4 -->
<g id="Node000004" class="node">
<title>Node4</title>
<g id="a_Node000004"><a xlink:href="Except_8h.html" target="_top" xlink:title="Structured exception handling for C with TRY/EXCEPT/FINALLY blocks.">
<polygon fill="white" stroke="#666666" points="77,-74 0,-74 0,-55 77,-55 77,-74"/>
<text text-anchor="middle" x="38.5" y="-62" font-family="Helvetica,sans-Serif" font-size="10.00">core/Except.h</text>
</a>
</g>
</g>
<!-- Node2&#45;&gt;Node4 -->
<g id="edge3_Node000002_Node000004" class="edge">
<title>Node2&#45;&gt;Node4</title>
<g id="a_edge3_Node000002_Node000004"><a xlink:title=" ">
<path fill="none" stroke="#63b8ff" d="M114.04,-109.98C100.08,-101.77 78.71,-89.18 62.25,-79.49"/>
<polygon fill="#63b8ff" stroke="#63b8ff" points="63.62,-76.23 53.22,-74.17 60.06,-82.26 63.62,-76.23"/>
</a>
</g>
</g>
<!-- Node5 -->
<g id="Node000005" class="node">
<title>Node5</title>
<g id="a_Node000005"><a xlink:title=" ">
<polygon fill="#e0e0e0" stroke="#999999" points="65.5,-19 11.5,-19 11.5,0 65.5,0 65.5,-19"/>
<text text-anchor="middle" x="38.5" y="-7" font-family="Helvetica,sans-Serif" font-size="10.00">setjmp.h</text>
</a>
</g>
</g>
<!-- Node4&#45;&gt;Node5 -->
<g id="edge4_Node000004_Node000005" class="edge">
<title>Node4&#45;&gt;Node5</title>
<g id="a_edge4_Node000004_Node000005"><a xlink:title=" ">
<path fill="none" stroke="#63b8ff" d="M38.5,-54.75C38.5,-47.8 38.5,-37.85 38.5,-29.13"/>
<polygon fill="#63b8ff" stroke="#63b8ff" points="42,-29.09 38.5,-19.09 35,-29.09 42,-29.09"/>
</a>
</g>
</g>
<!-- Node6&#45;&gt;Node2 -->
<g id="edge6_Node000006_Node000002" class="edge">
<title>Node6&#45;&gt;Node2</title>
<g id="a_edge6_Node000006_Node000002"><a xlink:title=" ">
<path fill="none" stroke="#63b8ff" d="M110.97,-164.75C113.78,-157.65 117.84,-147.4 121.35,-138.56"/>
<polygon fill="#63b8ff" stroke="#63b8ff" points="124.67,-139.68 125.1,-129.09 118.16,-137.1 124.67,-139.68"/>
</a>
</g>
</g>
<!-- Node6&#45;&gt;Node3 -->
<g id="edge8_Node000006_Node000003" class="edge">
<title>Node6&#45;&gt;Node3</title>
<g id="a_edge8_Node000006_Node000003"><a xlink:title=" ">
<path fill="none" stroke="#63b8ff" d="M99.78,-164.74C89.87,-152.36 74.91,-129.14 83.5,-110 89,-97.74 99.73,-87.48 109.85,-79.91"/>
<polygon fill="#63b8ff" stroke="#63b8ff" points="111.85,-82.78 118.07,-74.2 107.86,-77.03 111.85,-82.78"/>
</a>
</g>
</g>
<!-- Node6&#45;&gt;Node4 -->
<g id="edge7_Node000006_Node000004" class="edge">
<title>Node6&#45;&gt;Node4</title>
<g id="a_edge7_Node000006_Node000004"><a xlink:title=" ">
<path fill="none" stroke="#63b8ff" d="M65.97,-164.94C46.19,-158.55 24.32,-147.6 12.5,-129 3.06,-114.16 13.16,-95.31 23.4,-82.02"/>
<polygon fill="#63b8ff" stroke="#63b8ff" points="26.22,-84.1 29.94,-74.18 20.85,-79.61 26.22,-84.1"/>
</a>
</g>
</g>
<!-- Node7 -->
<g id="Node000007" class="node">
<title>Node7</title>
<g id="a_Node000007"><a xlink:title=" ">
<polygon fill="#e0e0e0" stroke="#999999" points="232,-129 183,-129 183,-110 232,-110 232,-129"/>
<text text-anchor="middle" x="207.5" y="-117" font-family="Helvetica,sans-Serif" font-size="10.00">stdint.h</text>
</a>
</g>
</g>
<!-- Node6&#45;&gt;Node7 -->
<g id="edge9_Node000006_Node000007" class="edge">
<title>Node6&#45;&gt;Node7</title>
<g id="a_edge9_Node000006_Node000007"><a xlink:title=" ">
<path fill="none" stroke="#63b8ff" d="M123.57,-164.98C139.36,-156.61 163.72,-143.7 182.13,-133.95"/>
<polygon fill="#63b8ff" stroke="#63b8ff" points="183.94,-136.95 191.14,-129.17 180.67,-130.76 183.94,-136.95"/>
</a>
</g>
</g>
<!-- Node8&#45;&gt;Node2 -->
<g id="edge11_Node000008_Node000002" class="edge">
<title>Node8&#45;&gt;Node2</title>
<g id="a_edge11_Node000008_Node000002"><a xlink:title=" ">
<path fill="none" stroke="#63b8ff" d="M262.79,-164.98C236.05,-156.13 193.97,-142.19 164.05,-132.28"/>
<polygon fill="#63b8ff" stroke="#63b8ff" points="165,-128.9 154.41,-129.08 162.8,-135.55 165,-128.9"/>
</a>
</g>
</g>
<!-- Node8&#45;&gt;Node3 -->
<g id="edge23_Node000008_Node000003" class="edge">
<title>Node8&#45;&gt;Node3</title>
<g id="a_edge23_Node000008_Node000003"><a xlink:title=" ">
<path fill="none" stroke="#63b8ff" d="M284.02,-164.95C276.61,-151.56 260.61,-125.57 240.5,-110 219.39,-93.66 191.42,-82.3 169.37,-75.15"/>
<polygon fill="#63b8ff" stroke="#63b8ff" points="170.29,-71.77 159.71,-72.16 168.22,-78.46 170.29,-71.77"/>
</a>
</g>
</g>
<!-- Node8&#45;&gt;Node4 -->
<g id="edge12_Node000008_Node000004" class="edge">
<title>Node8&#45;&gt;Node4</title>
<g id="a_edge12_Node000008_Node000004"><a xlink:title=" ">
<path fill="none" stroke="#63b8ff" d="M223.31,-171.38C180.5,-167.24 124.97,-156.41 83.5,-129 66.46,-117.74 53.86,-97.65 46.39,-83.07"/>
<polygon fill="#63b8ff" stroke="#63b8ff" points="49.54,-81.54 42.05,-74.04 43.23,-84.57 49.54,-81.54"/>
</a>
</g>
</g>
<!-- Node8&#45;&gt;Node7 -->
<g id="edge24_Node000008_Node000007" class="edge">
<title>Node8&#45;&gt;Node7</title>
<g id="a_edge24_Node000008_Node000007"><a xlink:title=" ">
<path fill="none" stroke="#63b8ff" d="M275.49,-164.98C263.04,-156.84 244.04,-144.41 229.29,-134.76"/>
<polygon fill="#63b8ff" stroke="#63b8ff" points="231.04,-131.72 220.75,-129.17 227.2,-137.57 231.04,-131.72"/>
</a>
</g>
</g>
<!-- Node9 -->
<g id="Node000009" class="node">
<title>Node9</title>
<g id="a_Node000009"><a xlink:href="SocketConfig_8h.html" target="_top" xlink:title="Compile&#45;time and runtime configuration constants, limits, and platform adaptations.">
<polygon fill="white" stroke="#666666" points="470.5,-129 364.5,-129 364.5,-110 470.5,-110 470.5,-129"/>
<text text-anchor="middle" x="417.5" y="-117" font-family="Helvetica,sans-Serif" font-size="10.00">core/SocketConfig.h</text>
</a>
</g>
</g>
<!-- Node8&#45;&gt;Node9 -->
<g id="edge13_Node000008_Node000009" class="edge">
<title>Node8&#45;&gt;Node9</title>
<g id="a_edge13_Node000008_Node000009"><a xlink:title=" ">
<path fill="none" stroke="#63b8ff" d="M309.23,-164.98C330.26,-156.34 363.05,-142.87 387.04,-133.02"/>
<polygon fill="#63b8ff" stroke="#63b8ff" points="388.48,-136.21 396.4,-129.17 385.82,-129.73 388.48,-136.21"/>
</a>
</g>
</g>
<!-- Node9&#45;&gt;Node3 -->
<g id="edge18_Node000009_Node000003" class="edge">
<title>Node9&#45;&gt;Node3</title>
<g id="a_edge18_Node000009_Node000003"><a xlink:title=" ">
<path fill="none" stroke="#63b8ff" d="M364.37,-109.98C316.01,-102 242.41,-89.31 169.63,-74.14"/>
<polygon fill="#63b8ff" stroke="#63b8ff" points="170.34,-70.71 159.83,-72.08 168.9,-77.56 170.34,-70.71"/>
</a>
</g>
</g>
<!-- Node10 -->
<g id="Node000010" class="node">
<title>Node10</title>
<g id="a_Node000010"><a xlink:title=" ">
<polygon fill="#e0e0e0" stroke="#999999" points="695,-74 648,-74 648,-55 695,-55 695,-74"/>
<text text-anchor="middle" x="671.5" y="-62" font-family="Helvetica,sans-Serif" font-size="10.00">errno.h</text>
</a>
</g>
</g>
<!-- Node9&#45;&gt;Node10 -->
<g id="edge14_Node000009_Node000010" class="edge">
<title>Node9&#45;&gt;Node10</title>
<g id="a_edge14_Node000009_Node000010"><a xlink:title=" ">
<path fill="none" stroke="#63b8ff" d="M463.79,-109.92C506.51,-101.84 571.93,-89.05 637.99,-74.01"/>
<polygon fill="#63b8ff" stroke="#63b8ff" points="638.78,-77.43 647.74,-71.78 637.21,-70.6 638.78,-77.43"/>
</a>
</g>
</g>
<!-- Node11 -->
<g id="Node000011" class="node">
<title>Node11</title>
<g id="a_Node000011"><a xlink:title=" ">
<polygon fill="#e0e0e0" stroke="#999999" points="291.5,-74 247.5,-74 247.5,-55 291.5,-55 291.5,-74"/>
<text text-anchor="middle" x="269.5" y="-62" font-family="Helvetica,sans-Serif" font-size="10.00">fcntl.h</text>
</a>
</g>
</g>
<!-- Node9&#45;&gt;Node11 -->
<g id="edge15_Node000009_Node000011" class="edge">
<title>Node9&#45;&gt;Node11</title>
<g id="a_edge15_Node000009_Node000011"><a xlink:title=" ">
<path fill="none" stroke="#63b8ff" d="M393.72,-109.98C368.69,-101.02 329.13,-86.86 301.4,-76.92"/>
<polygon fill="#63b8ff" stroke="#63b8ff" points="302.36,-73.55 291.77,-73.47 300,-80.14 302.36,-73.55"/>
</a>
</g>
</g>
<!-- Node12 -->
<g id="Node000012" class="node">
<title>Node12</title>
<g id="a_Node000012"><a xlink:title=" ">
<polygon fill="#e0e0e0" stroke="#999999" points="375,-74 310,-74 310,-55 375,-55 375,-74"/>
<text text-anchor="middle" x="342.5" y="-62" font-family="Helvetica,sans-Serif" font-size="10.00">netinet/in.h</text>
</a>
</g>
</g>
<!-- Node9&#45;&gt;Node12 -->
<g id="edge16_Node000009_Node000012" class="edge">
<title>Node9&#45;&gt;Node12</title>
<g id="a_edge16_Node000009_Node000012"><a xlink:title=" ">
<path fill="none" stroke="#63b8ff" d="M405.45,-109.98C394.04,-101.92 376.67,-89.65 363.07,-80.03"/>
<polygon fill="#63b8ff" stroke="#63b8ff" points="364.96,-77.08 354.77,-74.17 360.92,-82.8 364.96,-77.08"/>
</a>
</g>
</g>
<!-- Node13 -->
<g id="Node000013" class="node">
<title>Node13</title>
<g id="a_Node000013"><a xlink:title=" ">
<polygon fill="#e0e0e0" stroke="#999999" points="464,-74 393,-74 393,-55 464,-55 464,-74"/>
<text text-anchor="middle" x="428.5" y="-62" font-family="Helvetica,sans-Serif" font-size="10.00">netinet/tcp.h</text>
</a>
</g>
</g>
<!-- Node9&#45;&gt;Node13 -->
<g id="edge17_Node000009_Node000013" class="edge">
<title>Node9&#45;&gt;Node13</title>
<g id="a_edge17_Node000009_Node000013"><a xlink:title=" ">
<path fill="none" stroke="#63b8ff" d="M419.32,-109.75C420.76,-102.8 422.82,-92.85 424.63,-84.13"/>
<polygon fill="#63b8ff" stroke="#63b8ff" points="428.11,-84.59 426.72,-74.09 421.26,-83.17 428.11,-84.59"/>
</a>
</g>
</g>
<!-- Node14 -->
<g id="Node000014" class="node">
<title>Node14</title>
<g id="a_Node000014"><a xlink:title=" ">
<polygon fill="#e0e0e0" stroke="#999999" points="759.5,-74 713.5,-74 713.5,-55 759.5,-55 759.5,-74"/>
<text text-anchor="middle" x="736.5" y="-62" font-family="Helvetica,sans-Serif" font-size="10.00">stdio.h</text>
</a>
</g>
</g>
<!-- Node9&#45;&gt;Node14 -->
<g id="edge19_Node000009_Node000014" class="edge">
<title>Node9&#45;&gt;Node14</title>
<g id="a_edge19_Node000009_Node000014"><a xlink:title=" ">
<path fill="none" stroke="#63b8ff" d="M470.74,-110.93C536.91,-101.42 647.07,-85.18 703.59,-73.96"/>
<polygon fill="#63b8ff" stroke="#63b8ff" points="704.41,-77.36 713.5,-71.92 703,-70.51 704.41,-77.36"/>
</a>
</g>
</g>
<!-- Node15 -->
<g id="Node000015" class="node">
<title>Node15</title>
<g id="a_Node000015"><a xlink:title=" ">
<polygon fill="#e0e0e0" stroke="#999999" points="555,-74 482,-74 482,-55 555,-55 555,-74"/>
<text text-anchor="middle" x="518.5" y="-62" font-family="Helvetica,sans-Serif" font-size="10.00">sys/socket.h</text>
</a>
</g>
</g>
<!-- Node9&#45;&gt;Node15 -->
<g id="edge20_Node000009_Node000015" class="edge">
<title>Node9&#45;&gt;Node15</title>
<g id="a_edge20_Node000009_Node000015"><a xlink:title=" ">
<path fill="none" stroke="#63b8ff" d="M433.73,-109.98C449.68,-101.61 474.28,-88.7 492.88,-78.95"/>
<polygon fill="#63b8ff" stroke="#63b8ff" points="494.75,-81.92 501.98,-74.17 491.5,-75.72 494.75,-81.92"/>
</a>
</g>
</g>
<!-- Node16 -->
<g id="Node000016" class="node">
<title>Node16</title>
<g id="a_Node000016"><a xlink:title=" ">
<polygon fill="#e0e0e0" stroke="#999999" points="629.5,-74 573.5,-74 573.5,-55 629.5,-55 629.5,-74"/>
<text text-anchor="middle" x="601.5" y="-62" font-family="Helvetica,sans-Serif" font-size="10.00">sys/uio.h</text>
</a>
</g>
</g>
<!-- Node9&#45;&gt;Node16 -->
<g id="edge21_Node000009_Node000016" class="edge">
<title>Node9&#45;&gt;Node16</title>
<g id="a_edge21_Node000009_Node000016"><a xlink:title=" ">
<path fill="none" stroke="#63b8ff" d="M447.06,-109.98C478.68,-100.88 528.94,-86.4 563.48,-76.45"/>
<polygon fill="#63b8ff" stroke="#63b8ff" points="564.58,-79.78 573.22,-73.65 562.64,-73.05 564.58,-79.78"/>
</a>
</g>
</g>
<!-- Node17 -->
<g id="Node000017" class="node">
<title>Node17</title>
<g id="a_Node000017"><a xlink:title=" ">
<polygon fill="#e0e0e0" stroke="#999999" points="229,-74 178,-74 178,-55 229,-55 229,-74"/>
<text text-anchor="middle" x="203.5" y="-62" font-family="Helvetica,sans-Serif" font-size="10.00">unistd.h</text>
</a>
</g>
</g>
<!-- Node9&#45;&gt;Node17 -->
<g id="edge22_Node000009_Node000017" class="edge">
<title>Node9&#45;&gt;Node17</title>
<g id="a_edge22_Node000009_Node000017"><a xlink:title=" ">
<path fill="none" stroke="#63b8ff" d="M383.12,-109.98C343.55,-100.19 278.91,-84.18 238.92,-74.27"/>
<polygon fill="#63b8ff" stroke="#63b8ff" points="239.62,-70.84 229.07,-71.83 237.93,-77.63 239.62,-70.84"/>
</a>
</g>
</g>
<!-- Node18&#45;&gt;Node2 -->
<g id="edge34_Node000018_Node000002" class="edge">
<title>Node18&#45;&gt;Node2</title>
<g id="a_edge34_Node000018_Node000002"><a xlink:title=" ">
<path fill="none" stroke="#63b8ff" d="M371.16,-165.14C324.18,-156.64 249.1,-143.01 174.84,-129.24"/>
<polygon fill="#63b8ff" stroke="#63b8ff" points="175.32,-125.77 164.85,-127.39 174.04,-132.65 175.32,-125.77"/>
</a>
</g>
</g>
<!-- Node18&#45;&gt;Node3 -->
<g id="edge29_Node000018_Node000003" class="edge">
<title>Node18&#45;&gt;Node3</title>
<g id="a_edge29_Node000018_Node000003"><a xlink:title=" ">
<path fill="none" stroke="#63b8ff" d="M397.86,-164.86C368.9,-152.23 312.94,-128.26 264.5,-110 232.61,-97.98 195.83,-85.62 169.38,-76.98"/>
<polygon fill="#63b8ff" stroke="#63b8ff" points="170.37,-73.62 159.78,-73.86 168.21,-80.28 170.37,-73.62"/>
</a>
</g>
</g>
<!-- Node18&#45;&gt;Node4 -->
<g id="edge35_Node000018_Node000004" class="edge">
<title>Node18&#45;&gt;Node4</title>
<g id="a_edge35_Node000018_Node000004"><a xlink:title=" ">
<path fill="none" stroke="#63b8ff" d="M382.98,-164.92C353.56,-157.11 310.46,-144.44 274.5,-129 258.59,-122.17 256.68,-116.15 240.5,-110 212.94,-99.53 137.64,-84.18 87.18,-74.52"/>
<polygon fill="#63b8ff" stroke="#63b8ff" points="87.6,-71.04 77.12,-72.61 86.29,-77.92 87.6,-71.04"/>
</a>
</g>
</g>
<!-- Node18&#45;&gt;Node7 -->
<g id="edge30_Node000018_Node000007" class="edge">
<title>Node18&#45;&gt;Node7</title>
<g id="a_edge30_Node000018_Node000007"><a xlink:title=" ">
<path fill="none" stroke="#63b8ff" d="M383.76,-164.98C344.91,-155.18 281.43,-139.16 242.18,-129.25"/>
<polygon fill="#63b8ff" stroke="#63b8ff" points="242.83,-125.81 232.28,-126.75 241.12,-132.59 242.83,-125.81"/>
</a>
</g>
</g>
<!-- Node18&#45;&gt;Node9 -->
<g id="edge36_Node000018_Node000009" class="edge">
<title>Node18&#45;&gt;Node9</title>
<g id="a_edge36_Node000018_Node000009"><a xlink:title=" ">
<path fill="none" stroke="#63b8ff" d="M417.5,-164.75C417.5,-157.8 417.5,-147.85 417.5,-139.13"/>
<polygon fill="#63b8ff" stroke="#63b8ff" points="421,-139.09 417.5,-129.09 414,-139.09 421,-139.09"/>
</a>
</g>
</g>
<!-- Node18&#45;&gt;Node10 -->
<g id="edge26_Node000018_Node000010" class="edge">
<title>Node18&#45;&gt;Node10</title>
<g id="a_edge26_Node000018_Node000010"><a xlink:title=" ">
<path fill="none" stroke="#63b8ff" d="M463.66,-166.04C538.39,-153.92 677.76,-131.06 679.5,-129 690.01,-116.55 685.86,-97.53 680.39,-83.55"/>
<polygon fill="#63b8ff" stroke="#63b8ff" points="683.42,-81.76 676.17,-74.04 677.02,-84.6 683.42,-81.76"/>
</a>
</g>
</g>
<!-- Node18&#45;&gt;Node14 -->
<g id="edge31_Node000018_Node000014" class="edge">
<title>Node18&#45;&gt;Node14</title>
<g id="a_edge31_Node000018_Node000014"><a xlink:title=" ">
<path fill="none" stroke="#63b8ff" d="M463.64,-166.26C542.59,-153.86 695.29,-129.8 696.5,-129 712.78,-118.26 723.69,-98.37 729.95,-83.7"/>
<polygon fill="#63b8ff" stroke="#63b8ff" points="733.31,-84.74 733.7,-74.15 726.79,-82.18 733.31,-84.74"/>
</a>
</g>
</g>
<!-- Node19 -->
<g id="Node000019" class="node">
<title>Node19</title>
<g id="a_Node000019"><a xlink:title=" ">
<polygon fill="#e0e0e0" stroke="#999999" points="812.5,-129 764.5,-129 764.5,-110 812.5,-110 812.5,-129"/>
<text text-anchor="middle" x="788.5" y="-117" font-family="Helvetica,sans-Serif" font-size="10.00">limits.h</text>
</a>
</g>
</g>
<!-- Node18&#45;&gt;Node19 -->
<g id="edge27_Node000018_Node000019" class="edge">
<title>Node18&#45;&gt;Node19</title>
<g id="a_edge27_Node000018_Node000019"><a xlink:title=" ">
<path fill="none" stroke="#63b8ff" d="M463.7,-166.28C466.68,-165.84 469.63,-165.41 472.5,-165 595.85,-147.48 627.8,-150.62 750.5,-129 751.77,-128.78 753.07,-128.54 754.37,-128.29"/>
<polygon fill="#63b8ff" stroke="#63b8ff" points="755.35,-131.66 764.44,-126.23 753.95,-124.8 755.35,-131.66"/>
</a>
</g>
</g>
<!-- Node20 -->
<g id="Node000020" class="node">
<title>Node20</title>
<g id="a_Node000020"><a xlink:title=" ">
<polygon fill="#e0e0e0" stroke="#999999" points="540.5,-129 488.5,-129 488.5,-110 540.5,-110 540.5,-129"/>
<text text-anchor="middle" x="514.5" y="-117" font-family="Helvetica,sans-Serif" font-size="10.00">stdarg.h</text>
</a>
</g>
</g>
<!-- Node18&#45;&gt;Node20 -->
<g id="edge28_Node000018_Node000020" class="edge">
<title>Node18&#45;&gt;Node20</title>
<g id="a_edge28_Node000018_Node000020"><a xlink:title=" ">
<path fill="none" stroke="#63b8ff" d="M433.08,-164.98C448.27,-156.69 471.6,-143.94 489.4,-134.22"/>
<polygon fill="#63b8ff" stroke="#63b8ff" points="491.53,-137.04 498.63,-129.17 488.18,-130.89 491.53,-137.04"/>
</a>
</g>
</g>
<!-- Node21 -->
<g id="Node000021" class="node">
<title>Node21</title>
<g id="a_Node000021"><a xlink:title=" ">
<polygon fill="#e0e0e0" stroke="#999999" points="608,-129 559,-129 559,-110 608,-110 608,-129"/>
<text text-anchor="middle" x="583.5" y="-117" font-family="Helvetica,sans-Serif" font-size="10.00">string.h</text>
</a>
</g>
</g>
<!-- Node18&#45;&gt;Node21 -->
<g id="edge32_Node000018_Node000021" class="edge">
<title>Node18&#45;&gt;Node21</title>
<g id="a_edge32_Node000018_Node000021"><a xlink:title=" ">
<path fill="none" stroke="#63b8ff" d="M444.17,-164.98C472.7,-155.88 518.05,-141.4 549.21,-131.45"/>
<polygon fill="#63b8ff" stroke="#63b8ff" points="550.33,-134.76 558.79,-128.39 548.2,-128.1 550.33,-134.76"/>
</a>
</g>
</g>
<!-- Node22 -->
<g id="Node000022" class="node">
<title>Node22</title>
<g id="a_Node000022"><a xlink:title=" ">
<polygon fill="#e0e0e0" stroke="#999999" points="670.5,-129 626.5,-129 626.5,-110 670.5,-110 670.5,-129"/>
<text text-anchor="middle" x="648.5" y="-117" font-family="Helvetica,sans-Serif" font-size="10.00">time.h</text>
</a>
</g>
</g>
<!-- Node18&#45;&gt;Node22 -->
<g id="edge33_Node000018_Node000022" class="edge">
<title>Node18&#45;&gt;Node22</title>
<g id="a_edge33_Node000018_Node000022"><a xlink:title=" ">
<path fill="none" stroke="#63b8ff" d="M458.01,-164.93C498.3,-156.3 561.82,-142.37 616.5,-129 616.6,-128.98 616.7,-128.95 616.8,-128.93"/>
<polygon fill="#63b8ff" stroke="#63b8ff" points="617.66,-132.32 626.5,-126.47 615.94,-125.53 617.66,-132.32"/>
</a>
</g>
</g>
</g>
</svg>
