<?xml version="1.0" encoding="UTF-8" standalone="no"?>
<!DOCTYPE svg PUBLIC "-//W3C//DTD SVG 1.1//EN"
 "http://www.w3.org/Graphics/SVG/1.1/DTD/svg11.dtd">
<!-- Generated by graphviz version 2.43.0 (0)
 -->
<!-- Title: SocketHTTP.h Pages: 1 -->
<svg width="1425pt" height="137pt"
 viewBox="0.00 0.00 1424.50 137.00" xmlns="http://www.w3.org/2000/svg" xmlns:xlink="http://www.w3.org/1999/xlink">
<g id="graph0" class="graph" transform="scale(1 1) rotate(0) translate(4 133)">
<title>SocketHTTP.h</title>
<!-- Node1 -->
<g id="Node000001" class="node">
<title>Node1</title>
<g id="a_Node000001"><a xlink:title="Protocol&#45;agnostic HTTP types, header handling, URI parsing, and utilities.">
<polygon fill="#999999" stroke="#666666" points="870.5,-129 790.5,-129 790.5,-110 870.5,-110 870.5,-129"/>
<text text-anchor="middle" x="830.5" y="-117" font-family="Helvetica,sans-Serif" font-size="10.00">SocketHTTP.h</text>
</a>
</g>
</g>
<!-- Node2 -->
<g id="Node000002" class="node">
<title>Node2</title>
<g id="a_Node000002"><a xlink:href="SocketHTTP-private_8h.html" target="_top" xlink:title="Internal HTTP core structures and helper functions.">
<polygon fill="white" stroke="#666666" points="673.5,-74 559.5,-74 559.5,-55 673.5,-55 673.5,-74"/>
<text text-anchor="middle" x="616.5" y="-62" font-family="Helvetica,sans-Serif" font-size="10.00">SocketHTTP&#45;private.h</text>
</a>
</g>
</g>
<!-- Node1&#45;&gt;Node2 -->
<g id="edge1_Node000001_Node000002" class="edge">
<title>Node1&#45;&gt;Node2</title>
<g id="a_edge1_Node000001_Node000002"><a xlink:title=" ">
<path fill="none" stroke="#63b8ff" d="M786.34,-107.56C746.26,-97.64 687.96,-83.2 651.15,-74.08"/>
<polygon fill="#63b8ff" stroke="#63b8ff" points="785.57,-110.98 796.12,-109.98 787.25,-104.18 785.57,-110.98"/>
</a>
</g>
</g>
<!-- Node4 -->
<g id="Node000004" class="node">
<title>Node4</title>
<g id="a_Node000004"><a xlink:href="SocketHTTP1_8h.html" target="_top" xlink:title="HTTP/1.1 message syntax parsing and serialization (RFC 9112).">
<polygon fill="white" stroke="#666666" points="801,-74 714,-74 714,-55 801,-55 801,-74"/>
<text text-anchor="middle" x="757.5" y="-62" font-family="Helvetica,sans-Serif" font-size="10.00">SocketHTTP1.h</text>
</a>
</g>
</g>
<!-- Node1&#45;&gt;Node4 -->
<g id="edge3_Node000001_Node000004" class="edge">
<title>Node1&#45;&gt;Node4</title>
<g id="a_edge3_Node000001_Node000004"><a xlink:title=" ">
<path fill="none" stroke="#63b8ff" d="M810.36,-103.88C797.22,-94.34 780.52,-82.21 769.44,-74.17"/>
<polygon fill="#63b8ff" stroke="#63b8ff" points="808.62,-106.94 818.77,-109.98 812.74,-101.28 808.62,-106.94"/>
</a>
</g>
</g>
<!-- Node5 -->
<g id="Node000005" class="node">
<title>Node5</title>
<g id="a_Node000005"><a xlink:href="SocketHTTPClient-private_8h.html" target="_top" xlink:title="Internal HTTP client structures and connection pooling.">
<polygon fill="white" stroke="#666666" points="277.5,-19 137.5,-19 137.5,0 277.5,0 277.5,-19"/>
<text text-anchor="middle" x="207.5" y="-7" font-family="Helvetica,sans-Serif" font-size="10.00">SocketHTTPClient&#45;private.h</text>
</a>
</g>
</g>
<!-- Node1&#45;&gt;Node5 -->
<g id="edge12_Node000001_Node000005" class="edge">
<title>Node1&#45;&gt;Node5</title>
<g id="a_edge12_Node000001_Node000005"><a xlink:title=" ">
<path fill="none" stroke="#63b8ff" d="M780.18,-118.89C692.51,-118.44 506.67,-112.5 355.5,-74 304.83,-61.1 249.22,-33.16 222.92,-19.04"/>
<polygon fill="#63b8ff" stroke="#63b8ff" points="780.37,-122.39 790.38,-118.91 780.39,-115.39 780.37,-122.39"/>
</a>
</g>
</g>
<!-- Node8 -->
<g id="Node000008" class="node">
<title>Node8</title>
<g id="a_Node000008"><a xlink:href="SocketWS-private_8h.html" target="_top" xlink:title="Internal implementation details for WebSocket module.">
<polygon fill="white" stroke="#666666" points="1174.5,-19 1070.5,-19 1070.5,0 1174.5,0 1174.5,-19"/>
<text text-anchor="middle" x="1122.5" y="-7" font-family="Helvetica,sans-Serif" font-size="10.00">SocketWS&#45;private.h</text>
</a>
</g>
</g>
<!-- Node1&#45;&gt;Node8 -->
<g id="edge22_Node000001_Node000008" class="edge">
<title>Node1&#45;&gt;Node8</title>
<g id="a_edge22_Node000001_Node000008"><a xlink:title=" ">
<path fill="none" stroke="#63b8ff" d="M877.37,-107.5C909.16,-99.51 951.9,-87.72 988.5,-74 1032.62,-57.47 1082.13,-32.12 1106.79,-19.01"/>
<polygon fill="#63b8ff" stroke="#63b8ff" points="876.32,-104.16 867.46,-109.96 878.01,-110.95 876.32,-104.16"/>
</a>
</g>
</g>
<!-- Node9 -->
<g id="Node000009" class="node">
<title>Node9</title>
<g id="a_Node000009"><a xlink:href="SocketHTTP2_8h.html" target="_top" xlink:title="HTTP/2 protocol implementation (RFC 9113) with multiplexing and flow control.">
<polygon fill="white" stroke="#666666" points="251,-74 164,-74 164,-55 251,-55 251,-74"/>
<text text-anchor="middle" x="207.5" y="-62" font-family="Helvetica,sans-Serif" font-size="10.00">SocketHTTP2.h</text>
</a>
</g>
</g>
<!-- Node1&#45;&gt;Node9 -->
<g id="edge9_Node000001_Node000009" class="edge">
<title>Node1&#45;&gt;Node9</title>
<g id="a_edge9_Node000001_Node000009"><a xlink:title=" ">
<path fill="none" stroke="#63b8ff" d="M780.3,-114.58C685.39,-107.11 473.1,-90.14 294.5,-74 280.44,-72.73 265.12,-71.26 251.3,-69.9"/>
<polygon fill="#63b8ff" stroke="#63b8ff" points="780.23,-118.08 790.48,-115.38 780.78,-111.1 780.23,-118.08"/>
</a>
</g>
</g>
<!-- Node11 -->
<g id="Node000011" class="node">
<title>Node11</title>
<g id="a_Node000011"><a xlink:href="SocketHTTPClient_8h.html" target="_top" xlink:title="Public API for the HTTP client module, including types, functions, and configuration.">
<polygon fill="white" stroke="#666666" points="472,-74 365,-74 365,-55 472,-55 472,-74"/>
<text text-anchor="middle" x="418.5" y="-62" font-family="Helvetica,sans-Serif" font-size="10.00">SocketHTTPClient.h</text>
</a>
</g>
</g>
<!-- Node1&#45;&gt;Node11 -->
<g id="edge13_Node000001_Node000011" class="edge">
<title>Node1&#45;&gt;Node11</title>
<g id="a_edge13_Node000001_Node000011"><a xlink:title=" ">
<path fill="none" stroke="#63b8ff" d="M780.17,-112.03C702.04,-101.97 552.26,-82.71 472.15,-72.4"/>
<polygon fill="#63b8ff" stroke="#63b8ff" points="779.88,-115.52 790.25,-113.32 780.77,-108.57 779.88,-115.52"/>
</a>
</g>
</g>
<!-- Node15 -->
<g id="Node000015" class="node">
<title>Node15</title>
<g id="a_Node000015"><a xlink:href="SocketHTTPServer_8h.html" target="_top" xlink:title="High&#45;level HTTP server supporting HTTP/1.1 and HTTP/2 protocols.">
<polygon fill="white" stroke="#666666" points="955.5,-74 845.5,-74 845.5,-55 955.5,-55 955.5,-74"/>
<text text-anchor="middle" x="900.5" y="-62" font-family="Helvetica,sans-Serif" font-size="10.00">SocketHTTPServer.h</text>
</a>
</g>
</g>
<!-- Node1&#45;&gt;Node15 -->
<g id="edge18_Node000001_Node000015" class="edge">
<title>Node1&#45;&gt;Node15</title>
<g id="a_edge18_Node000001_Node000015"><a xlink:title=" ">
<path fill="none" stroke="#63b8ff" d="M849.81,-103.88C862.41,-94.34 878.43,-82.21 889.05,-74.17"/>
<polygon fill="#63b8ff" stroke="#63b8ff" points="847.61,-101.16 841.75,-109.98 851.83,-106.74 847.61,-101.16"/>
</a>
</g>
</g>
<!-- Node16 -->
<g id="Node000016" class="node">
<title>Node16</title>
<g id="a_Node000016"><a xlink:href="http__server_8c.html" target="_top" xlink:title=" ">
<polygon fill="white" stroke="#666666" points="1052,-19 979,-19 979,0 1052,0 1052,-19"/>
<text text-anchor="middle" x="1015.5" y="-7" font-family="Helvetica,sans-Serif" font-size="10.00">http_server.c</text>
</a>
</g>
</g>
<!-- Node1&#45;&gt;Node16 -->
<g id="edge27_Node000001_Node000016" class="edge">
<title>Node1&#45;&gt;Node16</title>
<g id="a_edge27_Node000001_Node000016"><a xlink:title=" ">
<path fill="none" stroke="#63b8ff" d="M880.64,-109.07C907.25,-102.36 939.51,-91.37 964.5,-74 985.86,-59.15 1002.86,-32.84 1010.74,-19.22"/>
<polygon fill="#63b8ff" stroke="#63b8ff" points="879.66,-105.7 870.75,-111.43 881.29,-112.51 879.66,-105.7"/>
</a>
</g>
</g>
<!-- Node17 -->
<g id="Node000017" class="node">
<title>Node17</title>
<g id="a_Node000017"><a xlink:href="websocket__server_8c.html" target="_top" xlink:title=" ">
<polygon fill="white" stroke="#666666" points="1416.5,-19 1312.5,-19 1312.5,0 1416.5,0 1416.5,-19"/>
<text text-anchor="middle" x="1364.5" y="-7" font-family="Helvetica,sans-Serif" font-size="10.00">websocket_server.c</text>
</a>
</g>
</g>
<!-- Node1&#45;&gt;Node17 -->
<g id="edge28_Node000001_Node000017" class="edge">
<title>Node1&#45;&gt;Node17</title>
<g id="a_edge28_Node000001_Node000017"><a xlink:title=" ">
<path fill="none" stroke="#63b8ff" d="M880.77,-116.71C953.45,-113.18 1091.65,-102.95 1205.5,-74 1259.08,-60.37 1318.74,-33.03 1347.36,-19.09"/>
<polygon fill="#63b8ff" stroke="#63b8ff" points="880.36,-113.22 870.54,-117.18 880.69,-120.21 880.36,-113.22"/>
</a>
</g>
</g>
<!-- Node18 -->
<g id="Node000018" class="node">
<title>Node18</title>
<g id="a_Node000018"><a xlink:href="SocketWS_8h.html" target="_top" xlink:title="WebSocket Protocol (RFC 6455) implementation with compression support.">
<polygon fill="white" stroke="#666666" points="1196.5,-74 1124.5,-74 1124.5,-55 1196.5,-55 1196.5,-74"/>
<text text-anchor="middle" x="1160.5" y="-62" font-family="Helvetica,sans-Serif" font-size="10.00">SocketWS.h</text>
</a>
</g>
</g>
<!-- Node1&#45;&gt;Node18 -->
<g id="edge23_Node000001_Node000018" class="edge">
<title>Node1&#45;&gt;Node18</title>
<g id="a_edge23_Node000001_Node000018"><a xlink:title=" ">
<path fill="none" stroke="#63b8ff" d="M880.55,-110.46C947.6,-99.69 1064.98,-80.84 1124.18,-71.33"/>
<polygon fill="#63b8ff" stroke="#63b8ff" points="879.95,-107.01 870.63,-112.05 881.06,-113.92 879.95,-107.01"/>
</a>
</g>
</g>
<!-- Node3 -->
<g id="Node000003" class="node">
<title>Node3</title>
<g id="a_Node000003"><a xlink:href="SocketHTTP1-private_8h.html" target="_top" xlink:title="Internal HTTP/1.1 parser structures and DFA state machine.">
<polygon fill="white" stroke="#666666" points="669,-19 550,-19 550,0 669,0 669,-19"/>
<text text-anchor="middle" x="609.5" y="-7" font-family="Helvetica,sans-Serif" font-size="10.00">SocketHTTP1&#45;private.h</text>
</a>
</g>
</g>
<!-- Node2&#45;&gt;Node3 -->
<g id="edge2_Node000002_Node000003" class="edge">
<title>Node2&#45;&gt;Node3</title>
<g id="a_edge2_Node000002_Node000003"><a xlink:title=" ">
<path fill="none" stroke="#63b8ff" d="M614.01,-44.66C612.86,-35.93 611.55,-25.99 610.63,-19.09"/>
<polygon fill="#63b8ff" stroke="#63b8ff" points="610.56,-45.29 615.34,-54.75 617.5,-44.38 610.56,-45.29"/>
</a>
</g>
</g>
<!-- Node4&#45;&gt;Node3 -->
<g id="edge4_Node000004_Node000003" class="edge">
<title>Node4&#45;&gt;Node3</title>
<g id="a_edge4_Node000004_Node000003"><a xlink:title=" ">
<path fill="none" stroke="#63b8ff" d="M724.13,-51.55C696.65,-41.71 658.33,-27.98 633.71,-19.17"/>
<polygon fill="#63b8ff" stroke="#63b8ff" points="723.13,-54.91 733.72,-54.98 725.49,-48.32 723.13,-54.91"/>
</a>
</g>
</g>
<!-- Node4&#45;&gt;Node5 -->
<g id="edge5_Node000004_Node000005" class="edge">
<title>Node4&#45;&gt;Node5</title>
<g id="a_edge5_Node000004_Node000005"><a xlink:title=" ">
<path fill="none" stroke="#63b8ff" d="M703.61,-57.25C696.51,-56.47 689.33,-55.7 682.5,-55 506.69,-37.05 462.36,-36.45 286.5,-19 283.62,-18.71 280.68,-18.42 277.71,-18.11"/>
<polygon fill="#63b8ff" stroke="#63b8ff" points="703.57,-60.76 713.89,-58.39 704.34,-53.81 703.57,-60.76"/>
</a>
</g>
</g>
<!-- Node6 -->
<g id="Node000006" class="node">
<title>Node6</title>
<g id="a_Node000006"><a xlink:href="SocketHTTPServer-private_8h.html" target="_top" xlink:title="Private implementation details for HTTP server connection and state management.">
<polygon fill="white" stroke="#666666" points="961,-19 818,-19 818,0 961,0 961,-19"/>
<text text-anchor="middle" x="889.5" y="-7" font-family="Helvetica,sans-Serif" font-size="10.00">SocketHTTPServer&#45;private.h</text>
</a>
</g>
</g>
<!-- Node4&#45;&gt;Node6 -->
<g id="edge6_Node000004_Node000006" class="edge">
<title>Node4&#45;&gt;Node6</title>
<g id="a_edge6_Node000004_Node000006"><a xlink:title=" ">
<path fill="none" stroke="#63b8ff" d="M788.23,-51.16C812.67,-41.35 846.24,-27.87 867.91,-19.17"/>
<polygon fill="#63b8ff" stroke="#63b8ff" points="786.68,-48.01 778.71,-54.98 789.29,-54.51 786.68,-48.01"/>
</a>
</g>
</g>
<!-- Node7 -->
<g id="Node000007" class="node">
<title>Node7</title>
<g id="a_Node000007"><a xlink:href="SocketProxy-private_8h.html" target="_top" xlink:title="Internal structures and functions for SocketProxy module.">
<polygon fill="white" stroke="#666666" points="800,-19 687,-19 687,0 800,0 800,-19"/>
<text text-anchor="middle" x="743.5" y="-7" font-family="Helvetica,sans-Serif" font-size="10.00">SocketProxy&#45;private.h</text>
</a>
</g>
</g>
<!-- Node4&#45;&gt;Node7 -->
<g id="edge7_Node000004_Node000007" class="edge">
<title>Node4&#45;&gt;Node7</title>
<g id="a_edge7_Node000004_Node000007"><a xlink:title=" ">
<path fill="none" stroke="#63b8ff" d="M752.6,-44.95C750.28,-36.15 747.61,-26.06 745.77,-19.09"/>
<polygon fill="#63b8ff" stroke="#63b8ff" points="749.25,-45.97 755.19,-54.75 756.02,-44.19 749.25,-45.97"/>
</a>
</g>
</g>
<!-- Node4&#45;&gt;Node8 -->
<g id="edge8_Node000004_Node000008" class="edge">
<title>Node4&#45;&gt;Node8</title>
<g id="a_edge8_Node000004_Node000008"><a xlink:title=" ">
<path fill="none" stroke="#63b8ff" d="M811.48,-55.66C881.12,-45.55 1001.46,-28.08 1070.25,-18.09"/>
<polygon fill="#63b8ff" stroke="#63b8ff" points="810.56,-52.26 801.16,-57.16 811.56,-59.19 810.56,-52.26"/>
</a>
</g>
</g>
<!-- Node9&#45;&gt;Node5 -->
<g id="edge11_Node000009_Node000005" class="edge">
<title>Node9&#45;&gt;Node5</title>
<g id="a_edge11_Node000009_Node000005"><a xlink:title=" ">
<path fill="none" stroke="#63b8ff" d="M207.5,-44.66C207.5,-35.93 207.5,-25.99 207.5,-19.09"/>
<polygon fill="#63b8ff" stroke="#63b8ff" points="204,-44.75 207.5,-54.75 211,-44.75 204,-44.75"/>
</a>
</g>
</g>
<!-- Node10 -->
<g id="Node000010" class="node">
<title>Node10</title>
<g id="a_Node000010"><a xlink:href="SocketHTTP2-private_8h.html" target="_top" xlink:title="Internal HTTP/2 connection and stream structures.">
<polygon fill="white" stroke="#666666" points="119,-19 0,-19 0,0 119,0 119,-19"/>
<text text-anchor="middle" x="59.5" y="-7" font-family="Helvetica,sans-Serif" font-size="10.00">SocketHTTP2&#45;private.h</text>
</a>
</g>
</g>
<!-- Node9&#45;&gt;Node10 -->
<g id="edge10_Node000009_Node000010" class="edge">
<title>Node9&#45;&gt;Node10</title>
<g id="a_edge10_Node000009_Node000010"><a xlink:title=" ">
<path fill="none" stroke="#63b8ff" d="M174.13,-51.55C146.65,-41.71 108.33,-27.98 83.71,-19.17"/>
<polygon fill="#63b8ff" stroke="#63b8ff" points="173.13,-54.91 183.72,-54.98 175.49,-48.32 173.13,-54.91"/>
</a>
</g>
</g>
<!-- Node11&#45;&gt;Node5 -->
<g id="edge14_Node000011_Node000005" class="edge">
<title>Node11&#45;&gt;Node5</title>
<g id="a_edge14_Node000011_Node000005"><a xlink:title=" ">
<path fill="none" stroke="#63b8ff" d="M374.71,-52.5C335.2,-42.58 277.88,-28.18 241.67,-19.08"/>
<polygon fill="#63b8ff" stroke="#63b8ff" points="374.05,-55.94 384.6,-54.98 375.75,-49.15 374.05,-55.94"/>
</a>
</g>
</g>
<!-- Node12 -->
<g id="Node000012" class="node">
<title>Node12</title>
<g id="a_Node000012"><a xlink:href="http2__client_8c.html" target="_top" xlink:title=" ">
<polygon fill="white" stroke="#666666" points="371,-19 296,-19 296,0 371,0 371,-19"/>
<text text-anchor="middle" x="333.5" y="-7" font-family="Helvetica,sans-Serif" font-size="10.00">http2_client.c</text>
</a>
</g>
</g>
<!-- Node11&#45;&gt;Node12 -->
<g id="edge15_Node000011_Node000012" class="edge">
<title>Node11&#45;&gt;Node12</title>
<g id="a_edge15_Node000011_Node000012"><a xlink:title=" ">
<path fill="none" stroke="#63b8ff" d="M395.93,-49.42C380.5,-39.81 360.55,-27.37 347.41,-19.17"/>
<polygon fill="#63b8ff" stroke="#63b8ff" points="394.51,-52.66 404.84,-54.98 398.21,-46.72 394.51,-52.66"/>
</a>
</g>
</g>
<!-- Node13 -->
<g id="Node000013" class="node">
<title>Node13</title>
<g id="a_Node000013"><a xlink:href="http__get_8c.html" target="_top" xlink:title=" ">
<polygon fill="white" stroke="#666666" points="448.5,-19 388.5,-19 388.5,0 448.5,0 448.5,-19"/>
<text text-anchor="middle" x="418.5" y="-7" font-family="Helvetica,sans-Serif" font-size="10.00">http_get.c</text>
</a>
</g>
</g>
<!-- Node11&#45;&gt;Node13 -->
<g id="edge16_Node000011_Node000013" class="edge">
<title>Node11&#45;&gt;Node13</title>
<g id="a_edge16_Node000011_Node000013"><a xlink:title=" ">
<path fill="none" stroke="#63b8ff" d="M418.5,-44.66C418.5,-35.93 418.5,-25.99 418.5,-19.09"/>
<polygon fill="#63b8ff" stroke="#63b8ff" points="415,-44.75 418.5,-54.75 422,-44.75 415,-44.75"/>
</a>
</g>
</g>
<!-- Node14 -->
<g id="Node000014" class="node">
<title>Node14</title>
<g id="a_Node000014"><a xlink:href="http__post_8c.html" target="_top" xlink:title=" ">
<polygon fill="white" stroke="#666666" points="532,-19 467,-19 467,0 532,0 532,-19"/>
<text text-anchor="middle" x="499.5" y="-7" font-family="Helvetica,sans-Serif" font-size="10.00">http_post.c</text>
</a>
</g>
</g>
<!-- Node11&#45;&gt;Node14 -->
<g id="edge17_Node000011_Node000014" class="edge">
<title>Node11&#45;&gt;Node14</title>
<g id="a_edge17_Node000011_Node000014"><a xlink:title=" ">
<path fill="none" stroke="#63b8ff" d="M440.01,-49.42C454.71,-39.81 473.72,-27.37 486.25,-19.17"/>
<polygon fill="#63b8ff" stroke="#63b8ff" points="437.97,-46.58 431.51,-54.98 441.8,-52.44 437.97,-46.58"/>
</a>
</g>
</g>
<!-- Node15&#45;&gt;Node6 -->
<g id="edge19_Node000015_Node000006" class="edge">
<title>Node15&#45;&gt;Node6</title>
<g id="a_edge19_Node000015_Node000006"><a xlink:title=" ">
<path fill="none" stroke="#63b8ff" d="M896.65,-44.95C894.82,-36.15 892.73,-26.06 891.28,-19.09"/>
<polygon fill="#63b8ff" stroke="#63b8ff" points="893.22,-45.67 898.68,-54.75 900.08,-44.25 893.22,-45.67"/>
</a>
</g>
</g>
<!-- Node15&#45;&gt;Node16 -->
<g id="edge20_Node000015_Node000016" class="edge">
<title>Node15&#45;&gt;Node16</title>
<g id="a_edge20_Node000015_Node000016"><a xlink:title=" ">
<path fill="none" stroke="#63b8ff" d="M928.13,-50.77C949.34,-40.99 978.06,-27.75 996.69,-19.17"/>
<polygon fill="#63b8ff" stroke="#63b8ff" points="926.59,-47.62 918.98,-54.98 929.52,-53.98 926.59,-47.62"/>
</a>
</g>
</g>
<!-- Node15&#45;&gt;Node17 -->
<g id="edge21_Node000015_Node000017" class="edge">
<title>Node15&#45;&gt;Node17</title>
<g id="a_edge21_Node000015_Node000017"><a xlink:title=" ">
<path fill="none" stroke="#63b8ff" d="M966.02,-56.84C1045.82,-48.6 1184.68,-33.84 1303.5,-19 1306.36,-18.64 1309.3,-18.27 1312.27,-17.88"/>
<polygon fill="#63b8ff" stroke="#63b8ff" points="965.23,-53.41 955.64,-57.91 965.95,-60.37 965.23,-53.41"/>
</a>
</g>
</g>
<!-- Node18&#45;&gt;Node8 -->
<g id="edge24_Node000018_Node000008" class="edge">
<title>Node18&#45;&gt;Node8</title>
<g id="a_edge24_Node000018_Node000008"><a xlink:title=" ">
<path fill="none" stroke="#63b8ff" d="M1148.23,-46.39C1141.69,-37.27 1133.93,-26.45 1128.66,-19.09"/>
<polygon fill="#63b8ff" stroke="#63b8ff" points="1145.55,-48.66 1154.23,-54.75 1151.24,-44.58 1145.55,-48.66"/>
</a>
</g>
</g>
<!-- Node18&#45;&gt;Node17 -->
<g id="edge26_Node000018_Node000017" class="edge">
<title>Node18&#45;&gt;Node17</title>
<g id="a_edge26_Node000018_Node000017"><a xlink:title=" ">
<path fill="none" stroke="#63b8ff" d="M1203.08,-52.44C1241.27,-42.52 1296.52,-28.16 1331.47,-19.08"/>
<polygon fill="#63b8ff" stroke="#63b8ff" points="1202.07,-49.08 1193.28,-54.98 1203.83,-55.86 1202.07,-49.08"/>
</a>
</g>
</g>
<!-- Node19 -->
<g id="Node000019" class="node">
<title>Node19</title>
<g id="a_Node000019"><a xlink:href="websocket__client_8c.html" target="_top" xlink:title=" ">
<polygon fill="white" stroke="#666666" points="1294,-19 1193,-19 1193,0 1294,0 1294,-19"/>
<text text-anchor="middle" x="1243.5" y="-7" font-family="Helvetica,sans-Serif" font-size="10.00">websocket_client.c</text>
</a>
</g>
</g>
<!-- Node18&#45;&gt;Node19 -->
<g id="edge25_Node000018_Node000019" class="edge">
<title>Node18&#45;&gt;Node19</title>
<g id="a_edge25_Node000018_Node000019"><a xlink:title=" ">
<path fill="none" stroke="#63b8ff" d="M1182.54,-49.42C1197.61,-39.81 1217.09,-27.37 1229.92,-19.17"/>
<polygon fill="#63b8ff" stroke="#63b8ff" points="1180.38,-46.65 1173.84,-54.98 1184.15,-52.55 1180.38,-46.65"/>
</a>
</g>
</g>
</g>
</svg>
