<?xml version="1.0" encoding="UTF-8" standalone="no"?>
<!DOCTYPE svg PUBLIC "-//W3C//DTD SVG 1.1//EN"
 "http://www.w3.org/Graphics/SVG/1.1/DTD/svg11.dtd">
<!-- Generated by graphviz version 2.43.0 (0)
 -->
<!-- Title: SocketTLSContext.h Pages: 1 -->
<svg width="1301pt" height="357pt"
 viewBox="0.00 0.00 1301.00 357.00" xmlns="http://www.w3.org/2000/svg" xmlns:xlink="http://www.w3.org/1999/xlink">
<g id="graph0" class="graph" transform="scale(1 1) rotate(0) translate(4 353)">
<title>SocketTLSContext.h</title>
<!-- Node1 -->
<g id="Node000001" class="node">
<title>Node1</title>
<g id="a_Node000001"><a xlink:title=" ">
<polygon fill="#999999" stroke="#666666" points="1127,-349 1019,-349 1019,-330 1127,-330 1127,-349"/>
<text text-anchor="middle" x="1073" y="-337" font-family="Helvetica,sans-Serif" font-size="10.00">SocketTLSContext.h</text>
</a>
</g>
</g>
<!-- Node2 -->
<g id="Node000002" class="node">
<title>Node2</title>
<g id="a_Node000002"><a xlink:href="Arena_8h.html" target="_top" xlink:title=" ">
<polygon fill="white" stroke="#666666" points="897,-129 825,-129 825,-110 897,-110 897,-129"/>
<text text-anchor="middle" x="861" y="-117" font-family="Helvetica,sans-Serif" font-size="10.00">core/Arena.h</text>
</a>
</g>
</g>
<!-- Node1&#45;&gt;Node2 -->
<g id="edge1_Node000001_Node000002" class="edge">
<title>Node1&#45;&gt;Node2</title>
<g id="a_edge1_Node000001_Node000002"><a xlink:title=" ">
<path fill="none" stroke="#63b8ff" d="M1024.15,-329.94C999.31,-323.52 970.01,-312.54 949,-294 900.1,-250.85 874.9,-174.08 865.47,-138.96"/>
<polygon fill="#63b8ff" stroke="#63b8ff" points="868.82,-137.94 862.95,-129.12 862.04,-139.67 868.82,-137.94"/>
</a>
</g>
</g>
<!-- Node4 -->
<g id="Node000004" class="node">
<title>Node4</title>
<g id="a_Node000004"><a xlink:href="Except_8h.html" target="_top" xlink:title=" ">
<polygon fill="white" stroke="#666666" points="982.5,-74 905.5,-74 905.5,-55 982.5,-55 982.5,-74"/>
<text text-anchor="middle" x="944" y="-62" font-family="Helvetica,sans-Serif" font-size="10.00">core/Except.h</text>
</a>
</g>
</g>
<!-- Node1&#45;&gt;Node4 -->
<g id="edge5_Node000001_Node000004" class="edge">
<title>Node1&#45;&gt;Node4</title>
<g id="a_edge5_Node000001_Node000004"><a xlink:title=" ">
<path fill="none" stroke="#63b8ff" d="M1073,-329.82C1073,-311.48 1073,-267.44 1073,-230.5 1073,-230.5 1073,-230.5 1073,-173.5 1073,-124.7 1018.06,-93.6 979.89,-77.88"/>
<polygon fill="#63b8ff" stroke="#63b8ff" points="980.69,-74.43 970.11,-74.03 978.13,-80.95 980.69,-74.43"/>
</a>
</g>
</g>
<!-- Node6 -->
<g id="Node000006" class="node">
<title>Node6</title>
<g id="a_Node000006"><a xlink:href="SocketTLS_8h.html" target="_top" xlink:title=" ">
<polygon fill="white" stroke="#666666" points="1044.5,-294 957.5,-294 957.5,-275 1044.5,-275 1044.5,-294"/>
<text text-anchor="middle" x="1001" y="-282" font-family="Helvetica,sans-Serif" font-size="10.00">tls/SocketTLS.h</text>
</a>
</g>
</g>
<!-- Node1&#45;&gt;Node6 -->
<g id="edge6_Node000001_Node000006" class="edge">
<title>Node1&#45;&gt;Node6</title>
<g id="a_edge6_Node000001_Node000006"><a xlink:title=" ">
<path fill="none" stroke="#63b8ff" d="M1061.43,-329.98C1050.58,-322 1034.12,-309.88 1021.12,-300.31"/>
<polygon fill="#63b8ff" stroke="#63b8ff" points="1022.91,-297.28 1012.78,-294.17 1018.76,-302.92 1022.91,-297.28"/>
</a>
</g>
</g>
<!-- Node25 -->
<g id="Node000025" class="node">
<title>Node25</title>
<g id="a_Node000025"><a xlink:title=" ">
<polygon fill="#e0e0e0" stroke="#999999" points="1175,-294 1101,-294 1101,-275 1175,-275 1175,-294"/>
<text text-anchor="middle" x="1138" y="-282" font-family="Helvetica,sans-Serif" font-size="10.00">openssl/ssl.h</text>
</a>
</g>
</g>
<!-- Node1&#45;&gt;Node25 -->
<g id="edge38_Node000001_Node000025" class="edge">
<title>Node1&#45;&gt;Node25</title>
<g id="a_edge38_Node000001_Node000025"><a xlink:title=" ">
<path fill="none" stroke="#63b8ff" d="M1083.44,-329.98C1093.15,-322.07 1107.82,-310.11 1119.5,-300.58"/>
<polygon fill="#63b8ff" stroke="#63b8ff" points="1121.83,-303.2 1127.37,-294.17 1117.4,-297.78 1121.83,-303.2"/>
</a>
</g>
</g>
<!-- Node26 -->
<g id="Node000026" class="node">
<title>Node26</title>
<g id="a_Node000026"><a xlink:title=" ">
<polygon fill="#e0e0e0" stroke="#999999" points="1293,-294 1193,-294 1193,-275 1293,-275 1293,-294"/>
<text text-anchor="middle" x="1243" y="-282" font-family="Helvetica,sans-Serif" font-size="10.00">openssl/x509_vfy.h</text>
</a>
</g>
</g>
<!-- Node1&#45;&gt;Node26 -->
<g id="edge39_Node000001_Node000026" class="edge">
<title>Node1&#45;&gt;Node26</title>
<g id="a_edge39_Node000001_Node000026"><a xlink:title=" ">
<path fill="none" stroke="#63b8ff" d="M1100.31,-329.98C1128.85,-321.09 1173.83,-307.07 1205.64,-297.15"/>
<polygon fill="#63b8ff" stroke="#63b8ff" points="1206.97,-300.4 1215.47,-294.08 1204.88,-293.72 1206.97,-300.4"/>
</a>
</g>
</g>
<!-- Node3 -->
<g id="Node000003" class="node">
<title>Node3</title>
<g id="a_Node000003"><a xlink:title=" ">
<polygon fill="#e0e0e0" stroke="#999999" points="819,-74 767,-74 767,-55 819,-55 819,-74"/>
<text text-anchor="middle" x="793" y="-62" font-family="Helvetica,sans-Serif" font-size="10.00">stddef.h</text>
</a>
</g>
</g>
<!-- Node2&#45;&gt;Node3 -->
<g id="edge2_Node000002_Node000003" class="edge">
<title>Node2&#45;&gt;Node3</title>
<g id="a_edge2_Node000002_Node000003"><a xlink:title=" ">
<path fill="none" stroke="#63b8ff" d="M850.07,-109.98C839.92,-102.07 824.58,-90.11 812.35,-80.58"/>
<polygon fill="#63b8ff" stroke="#63b8ff" points="814.16,-77.56 804.12,-74.17 809.86,-83.08 814.16,-77.56"/>
</a>
</g>
</g>
<!-- Node2&#45;&gt;Node4 -->
<g id="edge3_Node000002_Node000004" class="edge">
<title>Node2&#45;&gt;Node4</title>
<g id="a_edge3_Node000002_Node000004"><a xlink:title=" ">
<path fill="none" stroke="#63b8ff" d="M874.34,-109.98C887.09,-101.84 906.55,-89.41 921.67,-79.76"/>
<polygon fill="#63b8ff" stroke="#63b8ff" points="923.88,-82.5 930.42,-74.17 920.11,-76.6 923.88,-82.5"/>
</a>
</g>
</g>
<!-- Node5 -->
<g id="Node000005" class="node">
<title>Node5</title>
<g id="a_Node000005"><a xlink:title=" ">
<polygon fill="#e0e0e0" stroke="#999999" points="971,-19 917,-19 917,0 971,0 971,-19"/>
<text text-anchor="middle" x="944" y="-7" font-family="Helvetica,sans-Serif" font-size="10.00">setjmp.h</text>
</a>
</g>
</g>
<!-- Node4&#45;&gt;Node5 -->
<g id="edge4_Node000004_Node000005" class="edge">
<title>Node4&#45;&gt;Node5</title>
<g id="a_edge4_Node000004_Node000005"><a xlink:title=" ">
<path fill="none" stroke="#63b8ff" d="M944,-54.75C944,-47.8 944,-37.85 944,-29.13"/>
<polygon fill="#63b8ff" stroke="#63b8ff" points="947.5,-29.09 944,-19.09 940.5,-29.09 947.5,-29.09"/>
</a>
</g>
</g>
<!-- Node6&#45;&gt;Node4 -->
<g id="edge7_Node000006_Node000004" class="edge">
<title>Node6&#45;&gt;Node4</title>
<g id="a_edge7_Node000006_Node000004"><a xlink:title=" ">
<path fill="none" stroke="#63b8ff" d="M998.77,-274.95C990.38,-242.88 960.65,-129.2 948.87,-84.12"/>
<polygon fill="#63b8ff" stroke="#63b8ff" points="952.2,-83.01 946.28,-74.22 945.42,-84.78 952.2,-83.01"/>
</a>
</g>
</g>
<!-- Node7 -->
<g id="Node000007" class="node">
<title>Node7</title>
<g id="a_Node000007"><a xlink:href="Socket_8h.html" target="_top" xlink:title=" ">
<polygon fill="white" stroke="#666666" points="803,-239 715,-239 715,-220 803,-220 803,-239"/>
<text text-anchor="middle" x="759" y="-227" font-family="Helvetica,sans-Serif" font-size="10.00">socket/Socket.h</text>
</a>
</g>
</g>
<!-- Node6&#45;&gt;Node7 -->
<g id="edge8_Node000006_Node000007" class="edge">
<title>Node6&#45;&gt;Node7</title>
<g id="a_edge8_Node000006_Node000007"><a xlink:title=" ">
<path fill="none" stroke="#63b8ff" d="M962.12,-274.98C920.26,-265.82 853.57,-251.21 808.12,-241.26"/>
<polygon fill="#63b8ff" stroke="#63b8ff" points="808.7,-237.8 798.19,-239.08 807.21,-244.64 808.7,-237.8"/>
</a>
</g>
</g>
<!-- Node7&#45;&gt;Node4 -->
<g id="edge9_Node000007_Node000004" class="edge">
<title>Node7&#45;&gt;Node4</title>
<g id="a_edge9_Node000007_Node000004"><a xlink:title=" ">
<path fill="none" stroke="#63b8ff" d="M786.97,-219.94C825.14,-206.77 892.91,-177.81 929,-129 938.57,-116.05 942.14,-97.89 943.42,-84.31"/>
<polygon fill="#63b8ff" stroke="#63b8ff" points="946.92,-84.39 944.04,-74.19 939.93,-83.96 946.92,-84.39"/>
</a>
</g>
</g>
<!-- Node8 -->
<g id="Node000008" class="node">
<title>Node8</title>
<g id="a_Node000008"><a xlink:href="SocketConfig_8h.html" target="_top" xlink:title=" ">
<polygon fill="white" stroke="#666666" points="229,-129 123,-129 123,-110 229,-110 229,-129"/>
<text text-anchor="middle" x="176" y="-117" font-family="Helvetica,sans-Serif" font-size="10.00">core/SocketConfig.h</text>
</a>
</g>
</g>
<!-- Node7&#45;&gt;Node8 -->
<g id="edge10_Node000007_Node000008" class="edge">
<title>Node7&#45;&gt;Node8</title>
<g id="a_edge10_Node000007_Node000008"><a xlink:title=" ">
<path fill="none" stroke="#63b8ff" d="M714.83,-224.39C650.18,-217.99 526.13,-204.24 422,-184 347.62,-169.55 262.3,-145.9 214.21,-131.9"/>
<polygon fill="#63b8ff" stroke="#63b8ff" points="215.11,-128.52 204.53,-129.07 213.14,-135.24 215.11,-128.52"/>
</a>
</g>
</g>
<!-- Node17 -->
<g id="Node000017" class="node">
<title>Node17</title>
<g id="a_Node000017"><a xlink:href="SocketDNS_8h.html" target="_top" xlink:title=" ">
<polygon fill="white" stroke="#666666" points="807,-129 711,-129 711,-110 807,-110 807,-129"/>
<text text-anchor="middle" x="759" y="-117" font-family="Helvetica,sans-Serif" font-size="10.00">dns/SocketDNS.h</text>
</a>
</g>
</g>
<!-- Node7&#45;&gt;Node17 -->
<g id="edge20_Node000007_Node000017" class="edge">
<title>Node7&#45;&gt;Node17</title>
<g id="a_edge20_Node000007_Node000017"><a xlink:title=" ">
<path fill="none" stroke="#63b8ff" d="M759,-219.66C759,-202.17 759,-162.8 759,-139.27"/>
<polygon fill="#63b8ff" stroke="#63b8ff" points="762.5,-139.16 759,-129.16 755.5,-139.16 762.5,-139.16"/>
</a>
</g>
</g>
<!-- Node19 -->
<g id="Node000019" class="node">
<title>Node19</title>
<g id="a_Node000019"><a xlink:href="SocketCommon_8h.html" target="_top" xlink:title=" ">
<polygon fill="white" stroke="#666666" points="559,-184 431,-184 431,-165 559,-165 559,-184"/>
<text text-anchor="middle" x="495" y="-172" font-family="Helvetica,sans-Serif" font-size="10.00">socket/SocketCommon.h</text>
</a>
</g>
</g>
<!-- Node7&#45;&gt;Node19 -->
<g id="edge25_Node000007_Node000019" class="edge">
<title>Node7&#45;&gt;Node19</title>
<g id="a_edge25_Node000007_Node000019"><a xlink:title=" ">
<path fill="none" stroke="#63b8ff" d="M716.58,-219.98C670.63,-210.76 597.25,-196.03 547.65,-186.07"/>
<polygon fill="#63b8ff" stroke="#63b8ff" points="548.24,-182.62 537.75,-184.08 546.86,-189.48 548.24,-182.62"/>
</a>
</g>
</g>
<!-- Node8&#45;&gt;Node3 -->
<g id="edge15_Node000008_Node000003" class="edge">
<title>Node8&#45;&gt;Node3</title>
<g id="a_edge15_Node000008_Node000003"><a xlink:title=" ">
<path fill="none" stroke="#63b8ff" d="M229.07,-110.99C232.09,-110.63 235.08,-110.3 238,-110 465.18,-86.59 527.32,-108.81 756.73,-73.93"/>
<polygon fill="#63b8ff" stroke="#63b8ff" points="757.37,-77.37 766.72,-72.39 756.31,-70.45 757.37,-77.37"/>
</a>
</g>
</g>
<!-- Node9 -->
<g id="Node000009" class="node">
<title>Node9</title>
<g id="a_Node000009"><a xlink:title=" ">
<polygon fill="#e0e0e0" stroke="#999999" points="192.5,-74 145.5,-74 145.5,-55 192.5,-55 192.5,-74"/>
<text text-anchor="middle" x="169" y="-62" font-family="Helvetica,sans-Serif" font-size="10.00">errno.h</text>
</a>
</g>
</g>
<!-- Node8&#45;&gt;Node9 -->
<g id="edge11_Node000008_Node000009" class="edge">
<title>Node8&#45;&gt;Node9</title>
<g id="a_edge11_Node000008_Node000009"><a xlink:title=" ">
<path fill="none" stroke="#63b8ff" d="M174.84,-109.75C173.93,-102.8 172.61,-92.85 171.46,-84.13"/>
<polygon fill="#63b8ff" stroke="#63b8ff" points="174.91,-83.54 170.13,-74.09 167.97,-84.46 174.91,-83.54"/>
</a>
</g>
</g>
<!-- Node10 -->
<g id="Node000010" class="node">
<title>Node10</title>
<g id="a_Node000010"><a xlink:title=" ">
<polygon fill="#e0e0e0" stroke="#999999" points="44,-74 0,-74 0,-55 44,-55 44,-74"/>
<text text-anchor="middle" x="22" y="-62" font-family="Helvetica,sans-Serif" font-size="10.00">fcntl.h</text>
</a>
</g>
</g>
<!-- Node8&#45;&gt;Node10 -->
<g id="edge12_Node000008_Node000010" class="edge">
<title>Node8&#45;&gt;Node10</title>
<g id="a_edge12_Node000008_Node000010"><a xlink:title=" ">
<path fill="none" stroke="#63b8ff" d="M151.26,-109.98C124.79,-100.88 82.72,-86.4 53.81,-76.45"/>
<polygon fill="#63b8ff" stroke="#63b8ff" points="54.78,-73.08 44.18,-73.13 52.5,-79.7 54.78,-73.08"/>
</a>
</g>
</g>
<!-- Node11 -->
<g id="Node000011" class="node">
<title>Node11</title>
<g id="a_Node000011"><a xlink:title=" ">
<polygon fill="#e0e0e0" stroke="#999999" points="127.5,-74 62.5,-74 62.5,-55 127.5,-55 127.5,-74"/>
<text text-anchor="middle" x="95" y="-62" font-family="Helvetica,sans-Serif" font-size="10.00">netinet/in.h</text>
</a>
</g>
</g>
<!-- Node8&#45;&gt;Node11 -->
<g id="edge13_Node000008_Node000011" class="edge">
<title>Node8&#45;&gt;Node11</title>
<g id="a_edge13_Node000008_Node000011"><a xlink:title=" ">
<path fill="none" stroke="#63b8ff" d="M162.99,-109.98C150.54,-101.84 131.54,-89.41 116.79,-79.76"/>
<polygon fill="#63b8ff" stroke="#63b8ff" points="118.54,-76.72 108.25,-74.17 114.7,-82.57 118.54,-76.72"/>
</a>
</g>
</g>
<!-- Node12 -->
<g id="Node000012" class="node">
<title>Node12</title>
<g id="a_Node000012"><a xlink:title=" ">
<polygon fill="#e0e0e0" stroke="#999999" points="281.5,-74 210.5,-74 210.5,-55 281.5,-55 281.5,-74"/>
<text text-anchor="middle" x="246" y="-62" font-family="Helvetica,sans-Serif" font-size="10.00">netinet/tcp.h</text>
</a>
</g>
</g>
<!-- Node8&#45;&gt;Node12 -->
<g id="edge14_Node000008_Node000012" class="edge">
<title>Node8&#45;&gt;Node12</title>
<g id="a_edge14_Node000008_Node000012"><a xlink:title=" ">
<path fill="none" stroke="#63b8ff" d="M187.25,-109.98C197.8,-102 213.8,-89.88 226.44,-80.31"/>
<polygon fill="#63b8ff" stroke="#63b8ff" points="228.69,-83 234.55,-74.17 224.46,-77.42 228.69,-83"/>
</a>
</g>
</g>
<!-- Node13 -->
<g id="Node000013" class="node">
<title>Node13</title>
<g id="a_Node000013"><a xlink:title=" ">
<polygon fill="#e0e0e0" stroke="#999999" points="346,-74 300,-74 300,-55 346,-55 346,-74"/>
<text text-anchor="middle" x="323" y="-62" font-family="Helvetica,sans-Serif" font-size="10.00">stdio.h</text>
</a>
</g>
</g>
<!-- Node8&#45;&gt;Node13 -->
<g id="edge16_Node000008_Node000013" class="edge">
<title>Node8&#45;&gt;Node13</title>
<g id="a_edge16_Node000008_Node000013"><a xlink:title=" ">
<path fill="none" stroke="#63b8ff" d="M199.62,-109.98C224.19,-101.12 262.86,-87.18 290.35,-77.27"/>
<polygon fill="#63b8ff" stroke="#63b8ff" points="291.71,-80.5 299.93,-73.82 289.33,-73.92 291.71,-80.5"/>
</a>
</g>
</g>
<!-- Node14 -->
<g id="Node000014" class="node">
<title>Node14</title>
<g id="a_Node000014"><a xlink:title=" ">
<polygon fill="#e0e0e0" stroke="#999999" points="681.5,-74 608.5,-74 608.5,-55 681.5,-55 681.5,-74"/>
<text text-anchor="middle" x="645" y="-62" font-family="Helvetica,sans-Serif" font-size="10.00">sys/socket.h</text>
</a>
</g>
</g>
<!-- Node8&#45;&gt;Node14 -->
<g id="edge17_Node000008_Node000014" class="edge">
<title>Node8&#45;&gt;Node14</title>
<g id="a_edge17_Node000008_Node000014"><a xlink:title=" ">
<path fill="none" stroke="#63b8ff" d="M229.09,-111.12C232.1,-110.74 235.09,-110.36 238,-110 368.38,-93.94 522.62,-77.88 598.33,-70.18"/>
<polygon fill="#63b8ff" stroke="#63b8ff" points="598.88,-73.65 608.48,-69.15 598.18,-66.68 598.88,-73.65"/>
</a>
</g>
</g>
<!-- Node15 -->
<g id="Node000015" class="node">
<title>Node15</title>
<g id="a_Node000015"><a xlink:title=" ">
<polygon fill="#e0e0e0" stroke="#999999" points="420,-74 364,-74 364,-55 420,-55 420,-74"/>
<text text-anchor="middle" x="392" y="-62" font-family="Helvetica,sans-Serif" font-size="10.00">sys/uio.h</text>
</a>
</g>
</g>
<!-- Node8&#45;&gt;Node15 -->
<g id="edge18_Node000008_Node000015" class="edge">
<title>Node8&#45;&gt;Node15</title>
<g id="a_edge18_Node000008_Node000015"><a xlink:title=" ">
<path fill="none" stroke="#63b8ff" d="M210.7,-109.98C249.95,-100.35 313.65,-84.72 354.15,-74.79"/>
<polygon fill="#63b8ff" stroke="#63b8ff" points="355.04,-78.17 363.92,-72.39 353.37,-71.37 355.04,-78.17"/>
</a>
</g>
</g>
<!-- Node16 -->
<g id="Node000016" class="node">
<title>Node16</title>
<g id="a_Node000016"><a xlink:title=" ">
<polygon fill="#e0e0e0" stroke="#999999" points="489.5,-74 438.5,-74 438.5,-55 489.5,-55 489.5,-74"/>
<text text-anchor="middle" x="464" y="-62" font-family="Helvetica,sans-Serif" font-size="10.00">unistd.h</text>
</a>
</g>
</g>
<!-- Node8&#45;&gt;Node16 -->
<g id="edge19_Node000008_Node000016" class="edge">
<title>Node8&#45;&gt;Node16</title>
<g id="a_edge19_Node000008_Node000016"><a xlink:title=" ">
<path fill="none" stroke="#63b8ff" d="M229.01,-110.19C278.12,-102.27 353.43,-89.53 428.34,-74.02"/>
<polygon fill="#63b8ff" stroke="#63b8ff" points="429.36,-77.38 438.43,-71.91 427.92,-70.53 429.36,-77.38"/>
</a>
</g>
</g>
<!-- Node17&#45;&gt;Node3 -->
<g id="edge23_Node000017_Node000003" class="edge">
<title>Node17&#45;&gt;Node3</title>
<g id="a_edge23_Node000017_Node000003"><a xlink:title=" ">
<path fill="none" stroke="#63b8ff" d="M764.61,-109.75C769.32,-102.42 776.17,-91.73 781.97,-82.7"/>
<polygon fill="#63b8ff" stroke="#63b8ff" points="785.04,-84.4 787.49,-74.09 779.14,-80.62 785.04,-84.4"/>
</a>
</g>
</g>
<!-- Node17&#45;&gt;Node4 -->
<g id="edge21_Node000017_Node000004" class="edge">
<title>Node17&#45;&gt;Node4</title>
<g id="a_edge21_Node000017_Node000004"><a xlink:title=" ">
<path fill="none" stroke="#63b8ff" d="M788.72,-109.98C820.05,-101.01 869.57,-86.82 904.24,-76.89"/>
<polygon fill="#63b8ff" stroke="#63b8ff" points="905.39,-80.2 914.04,-74.08 903.47,-73.47 905.39,-80.2"/>
</a>
</g>
</g>
<!-- Node17&#45;&gt;Node14 -->
<g id="edge24_Node000017_Node000014" class="edge">
<title>Node17&#45;&gt;Node14</title>
<g id="a_edge24_Node000017_Node000014"><a xlink:title=" ">
<path fill="none" stroke="#63b8ff" d="M740.68,-109.98C722.34,-101.46 693.89,-88.23 672.77,-78.41"/>
<polygon fill="#63b8ff" stroke="#63b8ff" points="674.19,-75.21 663.65,-74.17 671.24,-81.56 674.19,-75.21"/>
</a>
</g>
</g>
<!-- Node18 -->
<g id="Node000018" class="node">
<title>Node18</title>
<g id="a_Node000018"><a xlink:title=" ">
<polygon fill="#e0e0e0" stroke="#999999" points="748.5,-74 699.5,-74 699.5,-55 748.5,-55 748.5,-74"/>
<text text-anchor="middle" x="724" y="-62" font-family="Helvetica,sans-Serif" font-size="10.00">netdb.h</text>
</a>
</g>
</g>
<!-- Node17&#45;&gt;Node18 -->
<g id="edge22_Node000017_Node000018" class="edge">
<title>Node17&#45;&gt;Node18</title>
<g id="a_edge22_Node000017_Node000018"><a xlink:title=" ">
<path fill="none" stroke="#63b8ff" d="M753.22,-109.75C748.38,-102.42 741.32,-91.73 735.36,-82.7"/>
<polygon fill="#63b8ff" stroke="#63b8ff" points="738.1,-80.5 729.67,-74.09 732.26,-84.36 738.1,-80.5"/>
</a>
</g>
</g>
<!-- Node19&#45;&gt;Node2 -->
<g id="edge35_Node000019_Node000002" class="edge">
<title>Node19&#45;&gt;Node2</title>
<g id="a_edge35_Node000019_Node000002"><a xlink:title=" ">
<path fill="none" stroke="#63b8ff" d="M559.09,-165.55C621.76,-157.57 720.15,-144.47 814.66,-129.15"/>
<polygon fill="#63b8ff" stroke="#63b8ff" points="815.37,-132.58 824.68,-127.52 814.24,-125.68 815.37,-132.58"/>
</a>
</g>
</g>
<!-- Node19&#45;&gt;Node4 -->
<g id="edge36_Node000019_Node000004" class="edge">
<title>Node19&#45;&gt;Node4</title>
<g id="a_edge36_Node000019_Node000004"><a xlink:title=" ">
<path fill="none" stroke="#63b8ff" d="M559.41,-173.39C660.35,-172.1 850.1,-164.81 906,-129 922.19,-118.63 932.44,-98.68 938.16,-83.9"/>
<polygon fill="#63b8ff" stroke="#63b8ff" points="941.53,-84.85 941.54,-74.26 934.93,-82.53 941.53,-84.85"/>
</a>
</g>
</g>
<!-- Node19&#45;&gt;Node8 -->
<g id="edge37_Node000019_Node000008" class="edge">
<title>Node19&#45;&gt;Node8</title>
<g id="a_edge37_Node000019_Node000008"><a xlink:title=" ">
<path fill="none" stroke="#63b8ff" d="M443.75,-164.98C387.56,-155.65 297.43,-140.67 237.48,-130.71"/>
<polygon fill="#63b8ff" stroke="#63b8ff" points="237.83,-127.22 227.39,-129.04 236.68,-134.13 237.83,-127.22"/>
</a>
</g>
</g>
<!-- Node19&#45;&gt;Node10 -->
<g id="edge28_Node000019_Node000010" class="edge">
<title>Node19&#45;&gt;Node10</title>
<g id="a_edge28_Node000019_Node000010"><a xlink:title=" ">
<path fill="none" stroke="#63b8ff" d="M430.8,-170.79C334.15,-165.96 156.36,-153.94 98,-129 73.19,-118.4 50.23,-96.93 36.19,-81.9"/>
<polygon fill="#63b8ff" stroke="#63b8ff" points="38.64,-79.4 29.34,-74.33 33.45,-84.09 38.64,-79.4"/>
</a>
</g>
</g>
<!-- Node19&#45;&gt;Node11 -->
<g id="edge30_Node000019_Node000011" class="edge">
<title>Node19&#45;&gt;Node11</title>
<g id="a_edge30_Node000019_Node000011"><a xlink:title=" ">
<path fill="none" stroke="#63b8ff" d="M430.72,-174.26C334.84,-174.06 160.61,-168.12 114,-129 101.06,-118.14 96.71,-98.86 95.36,-84.39"/>
<polygon fill="#63b8ff" stroke="#63b8ff" points="98.84,-83.86 94.81,-74.06 91.85,-84.23 98.84,-83.86"/>
</a>
</g>
</g>
<!-- Node19&#45;&gt;Node14 -->
<g id="edge31_Node000019_Node000014" class="edge">
<title>Node19&#45;&gt;Node14</title>
<g id="a_edge31_Node000019_Node000014"><a xlink:title=" ">
<path fill="none" stroke="#63b8ff" d="M558.32,-164.96C600.65,-157.8 650.9,-146 664,-129 674.39,-115.52 666.44,-96.43 657.86,-82.7"/>
<polygon fill="#63b8ff" stroke="#63b8ff" points="660.58,-80.47 652.05,-74.19 654.8,-84.42 660.58,-80.47"/>
</a>
</g>
</g>
<!-- Node19&#45;&gt;Node18 -->
<g id="edge29_Node000019_Node000018" class="edge">
<title>Node19&#45;&gt;Node18</title>
<g id="a_edge29_Node000019_Node000018"><a xlink:title=" ">
<path fill="none" stroke="#63b8ff" d="M494.95,-164.65C495.39,-150.84 498.37,-124.28 514,-110 570.95,-57.96 609.65,-89.33 689.25,-74.13"/>
<polygon fill="#63b8ff" stroke="#63b8ff" points="690.11,-77.53 699.17,-72.04 688.66,-70.68 690.11,-77.53"/>
</a>
</g>
</g>
<!-- Node20 -->
<g id="Node000020" class="node">
<title>Node20</title>
<g id="a_Node000020"><a xlink:title=" ">
<polygon fill="#e0e0e0" stroke="#999999" points="579,-129 523,-129 523,-110 579,-110 579,-129"/>
<text text-anchor="middle" x="551" y="-117" font-family="Helvetica,sans-Serif" font-size="10.00">stdbool.h</text>
</a>
</g>
</g>
<!-- Node19&#45;&gt;Node20 -->
<g id="edge26_Node000019_Node000020" class="edge">
<title>Node19&#45;&gt;Node20</title>
<g id="a_edge26_Node000019_Node000020"><a xlink:title=" ">
<path fill="none" stroke="#63b8ff" d="M504,-164.98C512.19,-157.23 524.51,-145.58 534.47,-136.14"/>
<polygon fill="#63b8ff" stroke="#63b8ff" points="536.98,-138.59 541.84,-129.17 532.17,-133.5 536.98,-138.59"/>
</a>
</g>
</g>
<!-- Node21 -->
<g id="Node000021" class="node">
<title>Node21</title>
<g id="a_Node000021"><a xlink:title=" ">
<polygon fill="#e0e0e0" stroke="#999999" points="654.5,-129 597.5,-129 597.5,-110 654.5,-110 654.5,-129"/>
<text text-anchor="middle" x="626" y="-117" font-family="Helvetica,sans-Serif" font-size="10.00">pthread.h</text>
</a>
</g>
</g>
<!-- Node19&#45;&gt;Node21 -->
<g id="edge27_Node000019_Node000021" class="edge">
<title>Node19&#45;&gt;Node21</title>
<g id="a_edge27_Node000019_Node000021"><a xlink:title=" ">
<path fill="none" stroke="#63b8ff" d="M516.05,-164.98C537.41,-156.34 570.7,-142.87 595.06,-133.02"/>
<polygon fill="#63b8ff" stroke="#63b8ff" points="596.61,-136.17 604.57,-129.17 593.99,-129.68 596.61,-136.17"/>
</a>
</g>
</g>
<!-- Node22 -->
<g id="Node000022" class="node">
<title>Node22</title>
<g id="a_Node000022"><a xlink:title=" ">
<polygon fill="#e0e0e0" stroke="#999999" points="309,-129 247,-129 247,-110 309,-110 309,-129"/>
<text text-anchor="middle" x="278" y="-117" font-family="Helvetica,sans-Serif" font-size="10.00">sys/time.h</text>
</a>
</g>
</g>
<!-- Node19&#45;&gt;Node22 -->
<g id="edge32_Node000019_Node000022" class="edge">
<title>Node19&#45;&gt;Node22</title>
<g id="a_edge32_Node000019_Node000022"><a xlink:title=" ">
<path fill="none" stroke="#63b8ff" d="M460.14,-164.98C421.7,-155.6 359.92,-140.51 319.14,-130.55"/>
<polygon fill="#63b8ff" stroke="#63b8ff" points="319.8,-127.11 309.26,-128.13 318.14,-133.91 319.8,-127.11"/>
</a>
</g>
</g>
<!-- Node23 -->
<g id="Node000023" class="node">
<title>Node23</title>
<g id="a_Node000023"><a xlink:title=" ">
<polygon fill="#e0e0e0" stroke="#999999" points="395,-129 327,-129 327,-110 395,-110 395,-129"/>
<text text-anchor="middle" x="361" y="-117" font-family="Helvetica,sans-Serif" font-size="10.00">sys/types.h</text>
</a>
</g>
</g>
<!-- Node19&#45;&gt;Node23 -->
<g id="edge33_Node000019_Node000023" class="edge">
<title>Node19&#45;&gt;Node23</title>
<g id="a_edge33_Node000019_Node000023"><a xlink:title=" ">
<path fill="none" stroke="#63b8ff" d="M473.47,-164.98C451.53,-156.3 417.26,-142.75 392.31,-132.88"/>
<polygon fill="#63b8ff" stroke="#63b8ff" points="393.51,-129.59 382.92,-129.17 390.93,-136.1 393.51,-129.59"/>
</a>
</g>
</g>
<!-- Node24 -->
<g id="Node000024" class="node">
<title>Node24</title>
<g id="a_Node000024"><a xlink:title=" ">
<polygon fill="#e0e0e0" stroke="#999999" points="467,-129 413,-129 413,-110 467,-110 467,-129"/>
<text text-anchor="middle" x="440" y="-117" font-family="Helvetica,sans-Serif" font-size="10.00">sys/un.h</text>
</a>
</g>
</g>
<!-- Node19&#45;&gt;Node24 -->
<g id="edge34_Node000019_Node000024" class="edge">
<title>Node19&#45;&gt;Node24</title>
<g id="a_edge34_Node000019_Node000024"><a xlink:title=" ">
<path fill="none" stroke="#63b8ff" d="M485.92,-164.75C477.91,-157.03 466.04,-145.6 456.38,-136.28"/>
<polygon fill="#63b8ff" stroke="#63b8ff" points="458.54,-133.51 448.91,-129.09 453.69,-138.55 458.54,-133.51"/>
</a>
</g>
</g>
</g>
</svg>
