<?xml version="1.0" encoding="UTF-8" standalone="no"?>
<!DOCTYPE svg PUBLIC "-//W3C//DTD SVG 1.1//EN"
 "http://www.w3.org/Graphics/SVG/1.1/DTD/svg11.dtd">
<!-- Generated by graphviz version 2.43.0 (0)
 -->
<!-- Title: SocketHTTP2&#45;private.h Pages: 1 -->
<svg width="1763pt" height="357pt"
 viewBox="0.00 0.00 1763.00 357.00" xmlns="http://www.w3.org/2000/svg" xmlns:xlink="http://www.w3.org/1999/xlink">
<g id="graph0" class="graph" transform="scale(1 1) rotate(0) translate(4 353)">
<title>SocketHTTP2&#45;private.h</title>
<!-- Node1 -->
<g id="Node000001" class="node">
<title>Node1</title>
<g id="a_Node000001"><a xlink:title="Internal HTTP/2 connection and stream structures.">
<polygon fill="#999999" stroke="#666666" points="185.5,-349 66.5,-349 66.5,-330 185.5,-330 185.5,-349"/>
<text text-anchor="middle" x="126" y="-337" font-family="Helvetica,sans-Serif" font-size="10.00">SocketHTTP2&#45;private.h</text>
</a>
</g>
</g>
<!-- Node2 -->
<g id="Node000002" class="node">
<title>Node2</title>
<g id="a_Node000002"><a xlink:href="Except_8h.html" target="_top" xlink:title="Structured exception handling for C with TRY/EXCEPT/FINALLY blocks.">
<polygon fill="white" stroke="#666666" points="281.5,-74 204.5,-74 204.5,-55 281.5,-55 281.5,-74"/>
<text text-anchor="middle" x="243" y="-62" font-family="Helvetica,sans-Serif" font-size="10.00">core/Except.h</text>
</a>
</g>
</g>
<!-- Node1&#45;&gt;Node2 -->
<g id="edge1_Node000001_Node000002" class="edge">
<title>Node1&#45;&gt;Node2</title>
<g id="a_edge1_Node000001_Node000002"><a xlink:title=" ">
<path fill="none" stroke="#63b8ff" d="M100.8,-329.91C64.03,-315.58 0,-283.08 0,-230.5 0,-230.5 0,-230.5 0,-173.5 0,-89.24 123.53,-70.23 194.44,-66.26"/>
<polygon fill="#63b8ff" stroke="#63b8ff" points="194.68,-69.75 204.5,-65.78 194.34,-62.76 194.68,-69.75"/>
</a>
</g>
</g>
<!-- Node4 -->
<g id="Node000004" class="node">
<title>Node4</title>
<g id="a_Node000004"><a xlink:href="SocketRateLimit_8h.html" target="_top" xlink:title="Token bucket rate limiter for controlling operation rates.">
<polygon fill="white" stroke="#666666" points="223.5,-184 104.5,-184 104.5,-165 223.5,-165 223.5,-184"/>
<text text-anchor="middle" x="164" y="-172" font-family="Helvetica,sans-Serif" font-size="10.00">core/SocketRateLimit.h</text>
</a>
</g>
</g>
<!-- Node1&#45;&gt;Node4 -->
<g id="edge3_Node000001_Node000004" class="edge">
<title>Node1&#45;&gt;Node4</title>
<g id="a_edge3_Node000001_Node000004"><a xlink:title=" ">
<path fill="none" stroke="#63b8ff" d="M122.06,-329.98C113.33,-309.82 94.5,-258.01 112,-220 117.75,-207.52 128.91,-197.24 139.42,-189.71"/>
<polygon fill="#63b8ff" stroke="#63b8ff" points="141.57,-192.49 147.97,-184.05 137.7,-186.65 141.57,-192.49"/>
</a>
</g>
</g>
<!-- Node8 -->
<g id="Node000008" class="node">
<title>Node8</title>
<g id="a_Node000008"><a xlink:href="SocketHPACK_8h.html" target="_top" xlink:title="HPACK header compression/decompression module for HTTP/2 (RFC 7541).">
<polygon fill="white" stroke="#666666" points="389.5,-184 280.5,-184 280.5,-165 389.5,-165 389.5,-184"/>
<text text-anchor="middle" x="335" y="-172" font-family="Helvetica,sans-Serif" font-size="10.00">http/SocketHPACK.h</text>
</a>
</g>
</g>
<!-- Node1&#45;&gt;Node8 -->
<g id="edge10_Node000001_Node000008" class="edge">
<title>Node1&#45;&gt;Node8</title>
<g id="a_edge10_Node000001_Node000008"><a xlink:title=" ">
<path fill="none" stroke="#63b8ff" d="M136.94,-329.97C170.65,-303.68 273.21,-223.69 315.97,-190.34"/>
<polygon fill="#63b8ff" stroke="#63b8ff" points="318.18,-193.06 323.91,-184.15 313.88,-187.54 318.18,-193.06"/>
</a>
</g>
</g>
<!-- Node10 -->
<g id="Node000010" class="node">
<title>Node10</title>
<g id="a_Node000010"><a xlink:href="SocketHTTP2_8h.html" target="_top" xlink:title="HTTP/2 protocol implementation (RFC 9113) with multiplexing and flow control.">
<polygon fill="white" stroke="#666666" points="511.5,-294 404.5,-294 404.5,-275 511.5,-275 511.5,-294"/>
<text text-anchor="middle" x="458" y="-282" font-family="Helvetica,sans-Serif" font-size="10.00">http/SocketHTTP2.h</text>
</a>
</g>
</g>
<!-- Node1&#45;&gt;Node10 -->
<g id="edge16_Node000001_Node000010" class="edge">
<title>Node1&#45;&gt;Node10</title>
<g id="a_edge16_Node000001_Node000010"><a xlink:title=" ">
<path fill="none" stroke="#63b8ff" d="M179.34,-329.98C237.94,-320.63 332.01,-305.61 394.4,-295.65"/>
<polygon fill="#63b8ff" stroke="#63b8ff" points="395.19,-299.07 404.52,-294.04 394.09,-292.16 395.19,-299.07"/>
</a>
</g>
</g>
<!-- Node30 -->
<g id="Node000030" class="node">
<title>Node30</title>
<g id="a_Node000030"><a xlink:href="SocketBuf_8h.html" target="_top" xlink:title="Circular buffer for efficient socket I/O operations.">
<polygon fill="white" stroke="#666666" points="919.5,-184 816.5,-184 816.5,-165 919.5,-165 919.5,-184"/>
<text text-anchor="middle" x="868" y="-172" font-family="Helvetica,sans-Serif" font-size="10.00">socket/SocketBuf.h</text>
</a>
</g>
</g>
<!-- Node1&#45;&gt;Node30 -->
<g id="edge61_Node000001_Node000030" class="edge">
<title>Node1&#45;&gt;Node30</title>
<g id="a_edge61_Node000001_Node000030"><a xlink:title=" ">
<path fill="none" stroke="#63b8ff" d="M185.81,-339.39C303.94,-339.04 573.35,-327.62 777,-239 804.93,-226.85 833.08,-205.48 850.51,-190.92"/>
<polygon fill="#63b8ff" stroke="#63b8ff" points="852.83,-193.54 858.17,-184.39 848.29,-188.22 852.83,-193.54"/>
</a>
</g>
</g>
<!-- Node3 -->
<g id="Node000003" class="node">
<title>Node3</title>
<g id="a_Node000003"><a xlink:title=" ">
<polygon fill="#e0e0e0" stroke="#999999" points="270,-19 216,-19 216,0 270,0 270,-19"/>
<text text-anchor="middle" x="243" y="-7" font-family="Helvetica,sans-Serif" font-size="10.00">setjmp.h</text>
</a>
</g>
</g>
<!-- Node2&#45;&gt;Node3 -->
<g id="edge2_Node000002_Node000003" class="edge">
<title>Node2&#45;&gt;Node3</title>
<g id="a_edge2_Node000002_Node000003"><a xlink:title=" ">
<path fill="none" stroke="#63b8ff" d="M243,-54.75C243,-47.8 243,-37.85 243,-29.13"/>
<polygon fill="#63b8ff" stroke="#63b8ff" points="246.5,-29.09 243,-19.09 239.5,-29.09 246.5,-29.09"/>
</a>
</g>
</g>
<!-- Node4&#45;&gt;Node2 -->
<g id="edge7_Node000004_Node000002" class="edge">
<title>Node4&#45;&gt;Node2</title>
<g id="a_edge7_Node000004_Node000002"><a xlink:title=" ">
<path fill="none" stroke="#63b8ff" d="M155.36,-164.76C143.82,-152.01 126.16,-127.88 138,-110 150.69,-90.83 173.47,-79.9 194.58,-73.67"/>
<polygon fill="#63b8ff" stroke="#63b8ff" points="195.67,-77 204.43,-71.05 193.87,-70.24 195.67,-77"/>
</a>
</g>
</g>
<!-- Node5 -->
<g id="Node000005" class="node">
<title>Node5</title>
<g id="a_Node000005"><a xlink:href="Arena_8h.html" target="_top" xlink:title="Arena&#45;based memory allocator for efficient bulk memory management.">
<polygon fill="white" stroke="#666666" points="534,-129 462,-129 462,-110 534,-110 534,-129"/>
<text text-anchor="middle" x="498" y="-117" font-family="Helvetica,sans-Serif" font-size="10.00">core/Arena.h</text>
</a>
</g>
</g>
<!-- Node4&#45;&gt;Node5 -->
<g id="edge4_Node000004_Node000005" class="edge">
<title>Node4&#45;&gt;Node5</title>
<g id="a_edge4_Node000004_Node000005"><a xlink:title=" ">
<path fill="none" stroke="#63b8ff" d="M217.66,-164.98C282.51,-154.69 390.52,-137.55 451.82,-127.83"/>
<polygon fill="#63b8ff" stroke="#63b8ff" points="452.64,-131.24 461.97,-126.22 451.54,-124.33 452.64,-131.24"/>
</a>
</g>
</g>
<!-- Node6 -->
<g id="Node000006" class="node">
<title>Node6</title>
<g id="a_Node000006"><a xlink:title=" ">
<polygon fill="#e0e0e0" stroke="#999999" points="599,-74 547,-74 547,-55 599,-55 599,-74"/>
<text text-anchor="middle" x="573" y="-62" font-family="Helvetica,sans-Serif" font-size="10.00">stddef.h</text>
</a>
</g>
</g>
<!-- Node4&#45;&gt;Node6 -->
<g id="edge8_Node000004_Node000006" class="edge">
<title>Node4&#45;&gt;Node6</title>
<g id="a_edge8_Node000004_Node000006"><a xlink:title=" ">
<path fill="none" stroke="#63b8ff" d="M167.55,-164.74C173.79,-150.56 188.19,-122.86 210,-110 264.76,-77.7 455.98,-68.7 536.65,-66.32"/>
<polygon fill="#63b8ff" stroke="#63b8ff" points="536.93,-69.81 546.83,-66.03 536.74,-62.81 536.93,-69.81"/>
</a>
</g>
</g>
<!-- Node7 -->
<g id="Node000007" class="node">
<title>Node7</title>
<g id="a_Node000007"><a xlink:title=" ">
<polygon fill="#e0e0e0" stroke="#999999" points="267.5,-129 218.5,-129 218.5,-110 267.5,-110 267.5,-129"/>
<text text-anchor="middle" x="243" y="-117" font-family="Helvetica,sans-Serif" font-size="10.00">stdint.h</text>
</a>
</g>
</g>
<!-- Node4&#45;&gt;Node7 -->
<g id="edge9_Node000004_Node000007" class="edge">
<title>Node4&#45;&gt;Node7</title>
<g id="a_edge9_Node000004_Node000007"><a xlink:title=" ">
<path fill="none" stroke="#63b8ff" d="M176.69,-164.98C188.83,-156.84 207.36,-144.41 221.75,-134.76"/>
<polygon fill="#63b8ff" stroke="#63b8ff" points="223.72,-137.65 230.08,-129.17 219.82,-131.84 223.72,-137.65"/>
</a>
</g>
</g>
<!-- Node5&#45;&gt;Node2 -->
<g id="edge6_Node000005_Node000002" class="edge">
<title>Node5&#45;&gt;Node2</title>
<g id="a_edge6_Node000005_Node000002"><a xlink:title=" ">
<path fill="none" stroke="#63b8ff" d="M461.74,-110.96C417.1,-101.68 341.13,-85.9 291.51,-75.58"/>
<polygon fill="#63b8ff" stroke="#63b8ff" points="292.15,-72.14 281.64,-73.53 290.72,-78.99 292.15,-72.14"/>
</a>
</g>
</g>
<!-- Node5&#45;&gt;Node6 -->
<g id="edge5_Node000005_Node000006" class="edge">
<title>Node5&#45;&gt;Node6</title>
<g id="a_edge5_Node000005_Node000006"><a xlink:title=" ">
<path fill="none" stroke="#63b8ff" d="M510.05,-109.98C521.46,-101.92 538.83,-89.65 552.43,-80.03"/>
<polygon fill="#63b8ff" stroke="#63b8ff" points="554.58,-82.8 560.73,-74.17 550.54,-77.08 554.58,-82.8"/>
</a>
</g>
</g>
<!-- Node8&#45;&gt;Node2 -->
<g id="edge15_Node000008_Node000002" class="edge">
<title>Node8&#45;&gt;Node2</title>
<g id="a_edge15_Node000008_Node000002"><a xlink:title=" ">
<path fill="none" stroke="#63b8ff" d="M280.46,-168.36C254.63,-162.87 226,-151.68 210,-129 199.22,-113.72 212.52,-94.47 225.31,-81.19"/>
<polygon fill="#63b8ff" stroke="#63b8ff" points="227.84,-83.6 232.59,-74.14 222.97,-78.58 227.84,-83.6"/>
</a>
</g>
</g>
<!-- Node8&#45;&gt;Node5 -->
<g id="edge14_Node000008_Node000005" class="edge">
<title>Node8&#45;&gt;Node5</title>
<g id="a_edge14_Node000008_Node000005"><a xlink:title=" ">
<path fill="none" stroke="#63b8ff" d="M361.19,-164.98C388.44,-156.13 431.3,-142.19 461.78,-132.28"/>
<polygon fill="#63b8ff" stroke="#63b8ff" points="463.18,-135.5 471.61,-129.08 461.01,-128.85 463.18,-135.5"/>
</a>
</g>
</g>
<!-- Node8&#45;&gt;Node6 -->
<g id="edge11_Node000008_Node000006" class="edge">
<title>Node8&#45;&gt;Node6</title>
<g id="a_edge11_Node000008_Node000006"><a xlink:title=" ">
<path fill="none" stroke="#63b8ff" d="M334.8,-164.66C335,-150.86 337.53,-124.33 353,-110 379.25,-85.68 481.07,-73.35 536.52,-68.33"/>
<polygon fill="#63b8ff" stroke="#63b8ff" points="536.97,-71.8 546.63,-67.44 536.36,-64.83 536.97,-71.8"/>
</a>
</g>
</g>
<!-- Node8&#45;&gt;Node7 -->
<g id="edge12_Node000008_Node000007" class="edge">
<title>Node8&#45;&gt;Node7</title>
<g id="a_edge12_Node000008_Node000007"><a xlink:title=" ">
<path fill="none" stroke="#63b8ff" d="M320.22,-164.98C305.82,-156.69 283.69,-143.94 266.81,-134.22"/>
<polygon fill="#63b8ff" stroke="#63b8ff" points="268.46,-131.13 258.05,-129.17 264.97,-137.19 268.46,-131.13"/>
</a>
</g>
</g>
<!-- Node9 -->
<g id="Node000009" class="node">
<title>Node9</title>
<g id="a_Node000009"><a xlink:title=" ">
<polygon fill="#e0e0e0" stroke="#999999" points="620,-129 552,-129 552,-110 620,-110 620,-129"/>
<text text-anchor="middle" x="586" y="-117" font-family="Helvetica,sans-Serif" font-size="10.00">sys/types.h</text>
</a>
</g>
</g>
<!-- Node8&#45;&gt;Node9 -->
<g id="edge13_Node000008_Node000009" class="edge">
<title>Node8&#45;&gt;Node9</title>
<g id="a_edge13_Node000008_Node000009"><a xlink:title=" ">
<path fill="none" stroke="#63b8ff" d="M375.33,-164.98C420.9,-155.36 494.85,-139.75 541.92,-129.81"/>
<polygon fill="#63b8ff" stroke="#63b8ff" points="542.76,-133.21 551.82,-127.72 541.31,-126.36 542.76,-133.21"/>
</a>
</g>
</g>
<!-- Node10&#45;&gt;Node2 -->
<g id="edge21_Node000010_Node000002" class="edge">
<title>Node10&#45;&gt;Node2</title>
<g id="a_edge21_Node000010_Node000002"><a xlink:title=" ">
<path fill="none" stroke="#63b8ff" d="M404.37,-277.21C310.57,-264.98 122.95,-234.67 84,-184 68.54,-163.89 88.1,-126.03 105,-110 129.18,-87.06 165.26,-75.95 194.46,-70.56"/>
<polygon fill="#63b8ff" stroke="#63b8ff" points="195.19,-73.99 204.47,-68.89 194.03,-67.09 195.19,-73.99"/>
</a>
</g>
</g>
<!-- Node10&#45;&gt;Node5 -->
<g id="edge20_Node000010_Node000005" class="edge">
<title>Node10&#45;&gt;Node5</title>
<g id="a_edge20_Node000010_Node000005"><a xlink:title=" ">
<path fill="none" stroke="#63b8ff" d="M465.31,-274.93C478.71,-258.56 506.8,-221.19 517,-184 521.27,-168.41 515.14,-150.82 508.73,-138.11"/>
<polygon fill="#63b8ff" stroke="#63b8ff" points="511.64,-136.13 503.73,-129.09 505.52,-139.53 511.64,-136.13"/>
</a>
</g>
</g>
<!-- Node10&#45;&gt;Node6 -->
<g id="edge17_Node000010_Node000006" class="edge">
<title>Node10&#45;&gt;Node6</title>
<g id="a_edge17_Node000010_Node000006"><a xlink:title=" ">
<path fill="none" stroke="#63b8ff" d="M475.41,-274.99C512.97,-255.46 600.47,-203.34 629,-129 632.03,-121.12 632.67,-117.61 629,-110 622.78,-97.12 610.82,-86.82 599.54,-79.38"/>
<polygon fill="#63b8ff" stroke="#63b8ff" points="601.13,-76.25 590.77,-74.04 597.49,-82.23 601.13,-76.25"/>
</a>
</g>
</g>
<!-- Node10&#45;&gt;Node7 -->
<g id="edge18_Node000010_Node000007" class="edge">
<title>Node10&#45;&gt;Node7</title>
<g id="a_edge18_Node000010_Node000007"><a xlink:title=" ">
<path fill="none" stroke="#63b8ff" d="M430.15,-274.99C390.34,-261.56 317,-231.92 272,-184 260.09,-171.31 252.41,-152.88 247.97,-139.13"/>
<polygon fill="#63b8ff" stroke="#63b8ff" points="251.26,-137.93 245.08,-129.32 244.55,-139.9 251.26,-137.93"/>
</a>
</g>
</g>
<!-- Node10&#45;&gt;Node8 -->
<g id="edge22_Node000010_Node000008" class="edge">
<title>Node10&#45;&gt;Node8</title>
<g id="a_edge22_Node000010_Node000008"><a xlink:title=" ">
<path fill="none" stroke="#63b8ff" d="M447.93,-274.66C427.02,-256.3 378.63,-213.81 352.5,-190.87"/>
<polygon fill="#63b8ff" stroke="#63b8ff" points="354.68,-188.13 344.86,-184.16 350.07,-193.39 354.68,-188.13"/>
</a>
</g>
</g>
<!-- Node10&#45;&gt;Node9 -->
<g id="edge19_Node000010_Node000009" class="edge">
<title>Node10&#45;&gt;Node9</title>
<g id="a_edge19_Node000010_Node000009"><a xlink:title=" ">
<path fill="none" stroke="#63b8ff" d="M470.03,-274.83C481.18,-266.44 497.82,-252.98 510,-239 538.37,-206.43 563.8,-162.34 576.82,-138.17"/>
<polygon fill="#63b8ff" stroke="#63b8ff" points="580.02,-139.6 581.61,-129.12 573.84,-136.32 580.02,-139.6"/>
</a>
</g>
</g>
<!-- Node11 -->
<g id="Node000011" class="node">
<title>Node11</title>
<g id="a_Node000011"><a xlink:href="SocketHTTP_8h.html" target="_top" xlink:title="Protocol&#45;agnostic HTTP types, header handling, URI parsing, and utilities.">
<polygon fill="white" stroke="#666666" points="508,-184 408,-184 408,-165 508,-165 508,-184"/>
<text text-anchor="middle" x="458" y="-172" font-family="Helvetica,sans-Serif" font-size="10.00">http/SocketHTTP.h</text>
</a>
</g>
</g>
<!-- Node10&#45;&gt;Node11 -->
<g id="edge23_Node000010_Node000011" class="edge">
<title>Node10&#45;&gt;Node11</title>
<g id="a_edge23_Node000010_Node000011"><a xlink:title=" ">
<path fill="none" stroke="#63b8ff" d="M458,-274.66C458,-257.17 458,-217.8 458,-194.27"/>
<polygon fill="#63b8ff" stroke="#63b8ff" points="461.5,-194.16 458,-184.16 454.5,-194.16 461.5,-194.16"/>
</a>
</g>
</g>
<!-- Node13 -->
<g id="Node000013" class="node">
<title>Node13</title>
<g id="a_Node000013"><a xlink:href="Socket_8h.html" target="_top" xlink:title="High&#45;level TCP/IP and Unix domain socket interface.">
<polygon fill="white" stroke="#666666" points="768,-239 680,-239 680,-220 768,-220 768,-239"/>
<text text-anchor="middle" x="724" y="-227" font-family="Helvetica,sans-Serif" font-size="10.00">socket/Socket.h</text>
</a>
</g>
</g>
<!-- Node10&#45;&gt;Node13 -->
<g id="edge30_Node000010_Node000013" class="edge">
<title>Node10&#45;&gt;Node13</title>
<g id="a_edge30_Node000010_Node000013"><a xlink:title=" ">
<path fill="none" stroke="#63b8ff" d="M500.74,-274.98C547.04,-265.76 620.98,-251.03 670.96,-241.07"/>
<polygon fill="#63b8ff" stroke="#63b8ff" points="671.8,-244.47 680.93,-239.08 670.44,-237.6 671.8,-244.47"/>
</a>
</g>
</g>
<!-- Node11&#45;&gt;Node2 -->
<g id="edge29_Node000011_Node000002" class="edge">
<title>Node11&#45;&gt;Node2</title>
<g id="a_edge29_Node000011_Node000002"><a xlink:title=" ">
<path fill="none" stroke="#63b8ff" d="M435.52,-164.9C414.01,-156.46 380.82,-142.86 353,-129 321.74,-113.43 287.06,-92.82 265.15,-79.37"/>
<polygon fill="#63b8ff" stroke="#63b8ff" points="266.94,-76.36 256.59,-74.07 263.26,-82.31 266.94,-76.36"/>
</a>
</g>
</g>
<!-- Node11&#45;&gt;Node5 -->
<g id="edge28_Node000011_Node000005" class="edge">
<title>Node11&#45;&gt;Node5</title>
<g id="a_edge28_Node000011_Node000005"><a xlink:title=" ">
<path fill="none" stroke="#63b8ff" d="M464.61,-164.75C470.26,-157.26 478.54,-146.28 485.45,-137.13"/>
<polygon fill="#63b8ff" stroke="#63b8ff" points="488.29,-139.18 491.52,-129.09 482.7,-134.96 488.29,-139.18"/>
</a>
</g>
</g>
<!-- Node11&#45;&gt;Node6 -->
<g id="edge24_Node000011_Node000006" class="edge">
<title>Node11&#45;&gt;Node6</title>
<g id="a_edge24_Node000011_Node000006"><a xlink:title=" ">
<path fill="none" stroke="#63b8ff" d="M454.11,-164.79C448.88,-151.65 441.51,-126.52 453,-110 471.68,-83.15 508.55,-72.47 536.52,-68.23"/>
<polygon fill="#63b8ff" stroke="#63b8ff" points="537.28,-71.66 546.74,-66.91 536.38,-64.72 537.28,-71.66"/>
</a>
</g>
</g>
<!-- Node11&#45;&gt;Node7 -->
<g id="edge25_Node000011_Node000007" class="edge">
<title>Node11&#45;&gt;Node7</title>
<g id="a_edge25_Node000011_Node000007"><a xlink:title=" ">
<path fill="none" stroke="#63b8ff" d="M423.46,-164.98C383.38,-155.11 317.69,-138.91 277.6,-129.03"/>
<polygon fill="#63b8ff" stroke="#63b8ff" points="278.29,-125.59 267.74,-126.6 276.61,-132.39 278.29,-125.59"/>
</a>
</g>
</g>
<!-- Node11&#45;&gt;Node9 -->
<g id="edge26_Node000011_Node000009" class="edge">
<title>Node11&#45;&gt;Node9</title>
<g id="a_edge26_Node000011_Node000009"><a xlink:title=" ">
<path fill="none" stroke="#63b8ff" d="M478.57,-164.98C499.43,-156.34 531.97,-142.87 555.77,-133.02"/>
<polygon fill="#63b8ff" stroke="#63b8ff" points="557.16,-136.23 565.06,-129.17 554.48,-129.76 557.16,-136.23"/>
</a>
</g>
</g>
<!-- Node12 -->
<g id="Node000012" class="node">
<title>Node12</title>
<g id="a_Node000012"><a xlink:title=" ">
<polygon fill="#e0e0e0" stroke="#999999" points="406,-129 362,-129 362,-110 406,-110 406,-129"/>
<text text-anchor="middle" x="384" y="-117" font-family="Helvetica,sans-Serif" font-size="10.00">time.h</text>
</a>
</g>
</g>
<!-- Node11&#45;&gt;Node12 -->
<g id="edge27_Node000011_Node000012" class="edge">
<title>Node11&#45;&gt;Node12</title>
<g id="a_edge27_Node000011_Node000012"><a xlink:title=" ">
<path fill="none" stroke="#63b8ff" d="M446.11,-164.98C434.85,-156.92 417.71,-144.65 404.29,-135.03"/>
<polygon fill="#63b8ff" stroke="#63b8ff" points="406.27,-132.15 396.11,-129.17 402.2,-137.84 406.27,-132.15"/>
</a>
</g>
</g>
<!-- Node13&#45;&gt;Node2 -->
<g id="edge31_Node000013_Node000002" class="edge">
<title>Node13&#45;&gt;Node2</title>
<g id="a_edge31_Node000013_Node000002"><a xlink:title=" ">
<path fill="none" stroke="#63b8ff" d="M679.68,-228.76C543.12,-229.11 135.63,-226.54 96,-184 73.67,-160.03 103.77,-131.92 130,-110 148.59,-94.46 173.26,-83.91 194.8,-77"/>
<polygon fill="#63b8ff" stroke="#63b8ff" points="195.89,-80.32 204.45,-74.07 193.86,-73.62 195.89,-80.32"/>
</a>
</g>
</g>
<!-- Node14 -->
<g id="Node000014" class="node">
<title>Node14</title>
<g id="a_Node000014"><a xlink:href="SocketConfig_8h.html" target="_top" xlink:title="Compile&#45;time and runtime configuration constants, limits, and platform adaptations.">
<polygon fill="white" stroke="#666666" points="1494,-129 1388,-129 1388,-110 1494,-110 1494,-129"/>
<text text-anchor="middle" x="1441" y="-117" font-family="Helvetica,sans-Serif" font-size="10.00">core/SocketConfig.h</text>
</a>
</g>
</g>
<!-- Node13&#45;&gt;Node14 -->
<g id="edge32_Node000013_Node000014" class="edge">
<title>Node13&#45;&gt;Node14</title>
<g id="a_edge32_Node000013_Node000014"><a xlink:title=" ">
<path fill="none" stroke="#63b8ff" d="M768.16,-225.46C845.47,-219.78 1010.24,-206.09 1148,-184 1237.45,-169.66 1340.7,-145.46 1397.65,-131.45"/>
<polygon fill="#63b8ff" stroke="#63b8ff" points="1398.52,-134.83 1407.39,-129.04 1396.84,-128.04 1398.52,-134.83"/>
</a>
</g>
</g>
<!-- Node23 -->
<g id="Node000023" class="node">
<title>Node23</title>
<g id="a_Node000023"><a xlink:href="SocketDNS_8h.html" target="_top" xlink:title="Asynchronous DNS resolution API for non&#45;blocking network applications.">
<polygon fill="white" stroke="#666666" points="772,-184 676,-184 676,-165 772,-165 772,-184"/>
<text text-anchor="middle" x="724" y="-172" font-family="Helvetica,sans-Serif" font-size="10.00">dns/SocketDNS.h</text>
</a>
</g>
</g>
<!-- Node13&#45;&gt;Node23 -->
<g id="edge42_Node000013_Node000023" class="edge">
<title>Node13&#45;&gt;Node23</title>
<g id="a_edge42_Node000013_Node000023"><a xlink:title=" ">
<path fill="none" stroke="#63b8ff" d="M724,-219.75C724,-212.8 724,-202.85 724,-194.13"/>
<polygon fill="#63b8ff" stroke="#63b8ff" points="727.5,-194.09 724,-184.09 720.5,-194.09 727.5,-194.09"/>
</a>
</g>
</g>
<!-- Node25 -->
<g id="Node000025" class="node">
<title>Node25</title>
<g id="a_Node000025"><a xlink:href="SocketCommon_8h.html" target="_top" xlink:title="Common utilities shared between Socket and SocketDgram modules.">
<polygon fill="white" stroke="#666666" points="1139,-184 1011,-184 1011,-165 1139,-165 1139,-184"/>
<text text-anchor="middle" x="1075" y="-172" font-family="Helvetica,sans-Serif" font-size="10.00">socket/SocketCommon.h</text>
</a>
</g>
</g>
<!-- Node13&#45;&gt;Node25 -->
<g id="edge48_Node000013_Node000025" class="edge">
<title>Node13&#45;&gt;Node25</title>
<g id="a_edge48_Node000013_Node000025"><a xlink:title=" ">
<path fill="none" stroke="#63b8ff" d="M768.1,-221.84C828.64,-212.7 938.01,-196.19 1008.51,-185.54"/>
<polygon fill="#63b8ff" stroke="#63b8ff" points="1009.26,-188.97 1018.62,-184.01 1008.21,-182.05 1009.26,-188.97"/>
</a>
</g>
</g>
<!-- Node14&#45;&gt;Node6 -->
<g id="edge37_Node000014_Node000006" class="edge">
<title>Node14&#45;&gt;Node6</title>
<g id="a_edge37_Node000014_Node000006"><a xlink:title=" ">
<path fill="none" stroke="#63b8ff" d="M1387.68,-115.24C1226.26,-105.39 745.55,-76.04 609.34,-67.72"/>
<polygon fill="#63b8ff" stroke="#63b8ff" points="609.24,-64.21 599.04,-67.09 608.81,-71.19 609.24,-64.21"/>
</a>
</g>
</g>
<!-- Node15 -->
<g id="Node000015" class="node">
<title>Node15</title>
<g id="a_Node000015"><a xlink:title=" ">
<polygon fill="#e0e0e0" stroke="#999999" points="1457.5,-74 1410.5,-74 1410.5,-55 1457.5,-55 1457.5,-74"/>
<text text-anchor="middle" x="1434" y="-62" font-family="Helvetica,sans-Serif" font-size="10.00">errno.h</text>
</a>
</g>
</g>
<!-- Node14&#45;&gt;Node15 -->
<g id="edge33_Node000014_Node000015" class="edge">
<title>Node14&#45;&gt;Node15</title>
<g id="a_edge33_Node000014_Node000015"><a xlink:title=" ">
<path fill="none" stroke="#63b8ff" d="M1439.84,-109.75C1438.93,-102.8 1437.61,-92.85 1436.46,-84.13"/>
<polygon fill="#63b8ff" stroke="#63b8ff" points="1439.91,-83.54 1435.13,-74.09 1432.97,-84.46 1439.91,-83.54"/>
</a>
</g>
</g>
<!-- Node16 -->
<g id="Node000016" class="node">
<title>Node16</title>
<g id="a_Node000016"><a xlink:title=" ">
<polygon fill="#e0e0e0" stroke="#999999" points="1309,-74 1265,-74 1265,-55 1309,-55 1309,-74"/>
<text text-anchor="middle" x="1287" y="-62" font-family="Helvetica,sans-Serif" font-size="10.00">fcntl.h</text>
</a>
</g>
</g>
<!-- Node14&#45;&gt;Node16 -->
<g id="edge34_Node000014_Node000016" class="edge">
<title>Node14&#45;&gt;Node16</title>
<g id="a_edge34_Node000014_Node000016"><a xlink:title=" ">
<path fill="none" stroke="#63b8ff" d="M1416.26,-109.98C1389.79,-100.88 1347.72,-86.4 1318.81,-76.45"/>
<polygon fill="#63b8ff" stroke="#63b8ff" points="1319.78,-73.08 1309.18,-73.13 1317.5,-79.7 1319.78,-73.08"/>
</a>
</g>
</g>
<!-- Node17 -->
<g id="Node000017" class="node">
<title>Node17</title>
<g id="a_Node000017"><a xlink:title=" ">
<polygon fill="#e0e0e0" stroke="#999999" points="1392.5,-74 1327.5,-74 1327.5,-55 1392.5,-55 1392.5,-74"/>
<text text-anchor="middle" x="1360" y="-62" font-family="Helvetica,sans-Serif" font-size="10.00">netinet/in.h</text>
</a>
</g>
</g>
<!-- Node14&#45;&gt;Node17 -->
<g id="edge35_Node000014_Node000017" class="edge">
<title>Node14&#45;&gt;Node17</title>
<g id="a_edge35_Node000014_Node000017"><a xlink:title=" ">
<path fill="none" stroke="#63b8ff" d="M1427.99,-109.98C1415.54,-101.84 1396.54,-89.41 1381.79,-79.76"/>
<polygon fill="#63b8ff" stroke="#63b8ff" points="1383.54,-76.72 1373.25,-74.17 1379.7,-82.57 1383.54,-76.72"/>
</a>
</g>
</g>
<!-- Node18 -->
<g id="Node000018" class="node">
<title>Node18</title>
<g id="a_Node000018"><a xlink:title=" ">
<polygon fill="#e0e0e0" stroke="#999999" points="1546.5,-74 1475.5,-74 1475.5,-55 1546.5,-55 1546.5,-74"/>
<text text-anchor="middle" x="1511" y="-62" font-family="Helvetica,sans-Serif" font-size="10.00">netinet/tcp.h</text>
</a>
</g>
</g>
<!-- Node14&#45;&gt;Node18 -->
<g id="edge36_Node000014_Node000018" class="edge">
<title>Node14&#45;&gt;Node18</title>
<g id="a_edge36_Node000014_Node000018"><a xlink:title=" ">
<path fill="none" stroke="#63b8ff" d="M1452.25,-109.98C1462.8,-102 1478.8,-89.88 1491.44,-80.31"/>
<polygon fill="#63b8ff" stroke="#63b8ff" points="1493.69,-83 1499.55,-74.17 1489.46,-77.42 1493.69,-83"/>
</a>
</g>
</g>
<!-- Node19 -->
<g id="Node000019" class="node">
<title>Node19</title>
<g id="a_Node000019"><a xlink:title=" ">
<polygon fill="#e0e0e0" stroke="#999999" points="1611,-74 1565,-74 1565,-55 1611,-55 1611,-74"/>
<text text-anchor="middle" x="1588" y="-62" font-family="Helvetica,sans-Serif" font-size="10.00">stdio.h</text>
</a>
</g>
</g>
<!-- Node14&#45;&gt;Node19 -->
<g id="edge38_Node000014_Node000019" class="edge">
<title>Node14&#45;&gt;Node19</title>
<g id="a_edge38_Node000014_Node000019"><a xlink:title=" ">
<path fill="none" stroke="#63b8ff" d="M1464.62,-109.98C1489.19,-101.12 1527.86,-87.18 1555.35,-77.27"/>
<polygon fill="#63b8ff" stroke="#63b8ff" points="1556.71,-80.5 1564.93,-73.82 1554.33,-73.92 1556.71,-80.5"/>
</a>
</g>
</g>
<!-- Node20 -->
<g id="Node000020" class="node">
<title>Node20</title>
<g id="a_Node000020"><a xlink:title=" ">
<polygon fill="#e0e0e0" stroke="#999999" points="1246.5,-74 1173.5,-74 1173.5,-55 1246.5,-55 1246.5,-74"/>
<text text-anchor="middle" x="1210" y="-62" font-family="Helvetica,sans-Serif" font-size="10.00">sys/socket.h</text>
</a>
</g>
</g>
<!-- Node14&#45;&gt;Node20 -->
<g id="edge39_Node000014_Node000020" class="edge">
<title>Node14&#45;&gt;Node20</title>
<g id="a_edge39_Node000014_Node000020"><a xlink:title=" ">
<path fill="none" stroke="#63b8ff" d="M1403.89,-109.98C1363.86,-100.8 1300.05,-86.16 1256.66,-76.21"/>
<polygon fill="#63b8ff" stroke="#63b8ff" points="1257.17,-72.73 1246.64,-73.91 1255.6,-79.55 1257.17,-72.73"/>
</a>
</g>
</g>
<!-- Node21 -->
<g id="Node000021" class="node">
<title>Node21</title>
<g id="a_Node000021"><a xlink:title=" ">
<polygon fill="#e0e0e0" stroke="#999999" points="1755,-74 1699,-74 1699,-55 1755,-55 1755,-74"/>
<text text-anchor="middle" x="1727" y="-62" font-family="Helvetica,sans-Serif" font-size="10.00">sys/uio.h</text>
</a>
</g>
</g>
<!-- Node14&#45;&gt;Node21 -->
<g id="edge40_Node000014_Node000021" class="edge">
<title>Node14&#45;&gt;Node21</title>
<g id="a_edge40_Node000014_Node000021"><a xlink:title=" ">
<path fill="none" stroke="#63b8ff" d="M1493.12,-109.95C1541.43,-101.85 1615.53,-89 1688.88,-74.15"/>
<polygon fill="#63b8ff" stroke="#63b8ff" points="1689.65,-77.57 1698.75,-72.14 1688.25,-70.71 1689.65,-77.57"/>
</a>
</g>
</g>
<!-- Node22 -->
<g id="Node000022" class="node">
<title>Node22</title>
<g id="a_Node000022"><a xlink:title=" ">
<polygon fill="#e0e0e0" stroke="#999999" points="1680.5,-74 1629.5,-74 1629.5,-55 1680.5,-55 1680.5,-74"/>
<text text-anchor="middle" x="1655" y="-62" font-family="Helvetica,sans-Serif" font-size="10.00">unistd.h</text>
</a>
</g>
</g>
<!-- Node14&#45;&gt;Node22 -->
<g id="edge41_Node000014_Node000022" class="edge">
<title>Node14&#45;&gt;Node22</title>
<g id="a_edge41_Node000014_Node000022"><a xlink:title=" ">
<path fill="none" stroke="#63b8ff" d="M1475.38,-109.98C1514.95,-100.19 1579.59,-84.18 1619.58,-74.27"/>
<polygon fill="#63b8ff" stroke="#63b8ff" points="1620.57,-77.63 1629.43,-71.83 1618.88,-70.84 1620.57,-77.63"/>
</a>
</g>
</g>
<!-- Node23&#45;&gt;Node2 -->
<g id="edge43_Node000023_Node000002" class="edge">
<title>Node23&#45;&gt;Node2</title>
<g id="a_edge43_Node000023_Node000002"><a xlink:title=" ">
<path fill="none" stroke="#63b8ff" d="M714.61,-164.93C698.46,-150.78 663.82,-122.79 629,-110 568.17,-87.66 381.2,-73.78 291.72,-68.25"/>
<polygon fill="#63b8ff" stroke="#63b8ff" points="291.75,-64.75 281.56,-67.64 291.33,-71.74 291.75,-64.75"/>
</a>
</g>
</g>
<!-- Node23&#45;&gt;Node6 -->
<g id="edge45_Node000023_Node000006" class="edge">
<title>Node23&#45;&gt;Node6</title>
<g id="a_edge45_Node000023_Node000006"><a xlink:title=" ">
<path fill="none" stroke="#63b8ff" d="M723.06,-164.85C721.13,-151.32 715.52,-125.15 700,-110 675.46,-86.05 637.32,-74.94 609.24,-69.81"/>
<polygon fill="#63b8ff" stroke="#63b8ff" points="609.45,-66.3 599.02,-68.13 608.32,-73.21 609.45,-66.3"/>
</a>
</g>
</g>
<!-- Node23&#45;&gt;Node7 -->
<g id="edge46_Node000023_Node000007" class="edge">
<title>Node23&#45;&gt;Node7</title>
<g id="a_edge46_Node000023_Node000007"><a xlink:title=" ">
<path fill="none" stroke="#63b8ff" d="M675.68,-168.18C578.7,-157.49 362.4,-133.66 277.84,-124.34"/>
<polygon fill="#63b8ff" stroke="#63b8ff" points="278.05,-120.84 267.73,-123.22 277.29,-127.8 278.05,-120.84"/>
</a>
</g>
</g>
<!-- Node23&#45;&gt;Node20 -->
<g id="edge47_Node000023_Node000020" class="edge">
<title>Node23&#45;&gt;Node20</title>
<g id="a_edge47_Node000023_Node000020"><a xlink:title=" ">
<path fill="none" stroke="#63b8ff" d="M729.08,-164.66C737.82,-150.36 757.2,-122.51 782,-110 847.81,-76.81 1066.42,-68.35 1163.21,-66.21"/>
<polygon fill="#63b8ff" stroke="#63b8ff" points="1163.36,-69.71 1173.29,-66 1163.22,-62.71 1163.36,-69.71"/>
</a>
</g>
</g>
<!-- Node24 -->
<g id="Node000024" class="node">
<title>Node24</title>
<g id="a_Node000024"><a xlink:title=" ">
<polygon fill="#e0e0e0" stroke="#999999" points="839.5,-129 790.5,-129 790.5,-110 839.5,-110 839.5,-129"/>
<text text-anchor="middle" x="815" y="-117" font-family="Helvetica,sans-Serif" font-size="10.00">netdb.h</text>
</a>
</g>
</g>
<!-- Node23&#45;&gt;Node24 -->
<g id="edge44_Node000023_Node000024" class="edge">
<title>Node23&#45;&gt;Node24</title>
<g id="a_edge44_Node000023_Node000024"><a xlink:title=" ">
<path fill="none" stroke="#63b8ff" d="M738.62,-164.98C752.86,-156.69 774.75,-143.94 791.45,-134.22"/>
<polygon fill="#63b8ff" stroke="#63b8ff" points="793.23,-137.23 800.11,-129.17 789.71,-131.18 793.23,-137.23"/>
</a>
</g>
</g>
<!-- Node25&#45;&gt;Node2 -->
<g id="edge59_Node000025_Node000002" class="edge">
<title>Node25&#45;&gt;Node2</title>
<g id="a_edge59_Node000025_Node000002"><a xlink:title=" ">
<path fill="none" stroke="#63b8ff" d="M1068.12,-164.96C1055.95,-150.57 1029.05,-121.91 999,-110 933.59,-84.07 448.89,-70.39 291.91,-66.6"/>
<polygon fill="#63b8ff" stroke="#63b8ff" points="291.7,-63.1 281.62,-66.36 291.53,-70.09 291.7,-63.1"/>
</a>
</g>
</g>
<!-- Node25&#45;&gt;Node5 -->
<g id="edge58_Node000025_Node000005" class="edge">
<title>Node25&#45;&gt;Node5</title>
<g id="a_edge58_Node000025_Node000005"><a xlink:title=" ">
<path fill="none" stroke="#63b8ff" d="M1010.77,-168.96C893.68,-160.56 648.72,-142.32 544.52,-129.04"/>
<polygon fill="#63b8ff" stroke="#63b8ff" points="544.67,-125.53 534.3,-127.69 543.75,-132.47 544.67,-125.53"/>
</a>
</g>
</g>
<!-- Node25&#45;&gt;Node9 -->
<g id="edge56_Node000025_Node000009" class="edge">
<title>Node25&#45;&gt;Node9</title>
<g id="a_edge56_Node000025_Node000009"><a xlink:title=" ">
<path fill="none" stroke="#63b8ff" d="M1010.82,-166.54C909.98,-155.61 716.99,-134.7 630.2,-125.29"/>
<polygon fill="#63b8ff" stroke="#63b8ff" points="630.48,-121.8 620.16,-124.2 629.72,-128.76 630.48,-121.8"/>
</a>
</g>
</g>
<!-- Node25&#45;&gt;Node14 -->
<g id="edge60_Node000025_Node000014" class="edge">
<title>Node25&#45;&gt;Node14</title>
<g id="a_edge60_Node000025_Node000014"><a xlink:title=" ">
<path fill="none" stroke="#63b8ff" d="M1133.8,-164.98C1200.59,-155.31 1309.18,-139.59 1377.76,-129.66"/>
<polygon fill="#63b8ff" stroke="#63b8ff" points="1378.59,-133.07 1387.99,-128.18 1377.59,-126.15 1378.59,-133.07"/>
</a>
</g>
</g>
<!-- Node25&#45;&gt;Node16 -->
<g id="edge51_Node000025_Node000016" class="edge">
<title>Node25&#45;&gt;Node16</title>
<g id="a_edge51_Node000025_Node000016"><a xlink:title=" ">
<path fill="none" stroke="#63b8ff" d="M1139.18,-167.85C1192.46,-161.74 1262.41,-149.93 1281,-129 1291.67,-116.98 1292.17,-98.17 1290.6,-84.14"/>
<polygon fill="#63b8ff" stroke="#63b8ff" points="1294.04,-83.48 1289.05,-74.13 1287.12,-84.55 1294.04,-83.48"/>
</a>
</g>
</g>
<!-- Node25&#45;&gt;Node17 -->
<g id="edge53_Node000025_Node000017" class="edge">
<title>Node25&#45;&gt;Node17</title>
<g id="a_edge53_Node000025_Node000017"><a xlink:title=" ">
<path fill="none" stroke="#63b8ff" d="M1139.32,-170.97C1186.09,-166.77 1249.61,-156.03 1299,-129 1319.66,-117.69 1337.54,-97.01 1348.51,-82.32"/>
<polygon fill="#63b8ff" stroke="#63b8ff" points="1351.43,-84.25 1354.41,-74.08 1345.74,-80.17 1351.43,-84.25"/>
</a>
</g>
</g>
<!-- Node25&#45;&gt;Node20 -->
<g id="edge54_Node000025_Node000020" class="edge">
<title>Node25&#45;&gt;Node20</title>
<g id="a_edge54_Node000025_Node000020"><a xlink:title=" ">
<path fill="none" stroke="#63b8ff" d="M1139.11,-166.98C1187.94,-160.53 1249.37,-148.71 1265,-129 1278.97,-111.38 1256.16,-91.95 1235.81,-79.28"/>
<polygon fill="#63b8ff" stroke="#63b8ff" points="1237.46,-76.19 1227.06,-74.13 1233.9,-82.22 1237.46,-76.19"/>
</a>
</g>
</g>
<!-- Node25&#45;&gt;Node24 -->
<g id="edge52_Node000025_Node000024" class="edge">
<title>Node25&#45;&gt;Node24</title>
<g id="a_edge52_Node000025_Node000024"><a xlink:title=" ">
<path fill="none" stroke="#63b8ff" d="M1033.23,-164.98C982.27,-154.6 897.08,-137.23 849.62,-127.56"/>
<polygon fill="#63b8ff" stroke="#63b8ff" points="850.3,-124.12 839.81,-125.56 848.91,-130.98 850.3,-124.12"/>
</a>
</g>
</g>
<!-- Node26 -->
<g id="Node000026" class="node">
<title>Node26</title>
<g id="a_Node000026"><a xlink:title=" ">
<polygon fill="#e0e0e0" stroke="#999999" points="1103.5,-129 1046.5,-129 1046.5,-110 1103.5,-110 1103.5,-129"/>
<text text-anchor="middle" x="1075" y="-117" font-family="Helvetica,sans-Serif" font-size="10.00">pthread.h</text>
</a>
</g>
</g>
<!-- Node25&#45;&gt;Node26 -->
<g id="edge49_Node000025_Node000026" class="edge">
<title>Node25&#45;&gt;Node26</title>
<g id="a_edge49_Node000025_Node000026"><a xlink:title=" ">
<path fill="none" stroke="#63b8ff" d="M1075,-164.75C1075,-157.8 1075,-147.85 1075,-139.13"/>
<polygon fill="#63b8ff" stroke="#63b8ff" points="1078.5,-139.09 1075,-129.09 1071.5,-139.09 1078.5,-139.09"/>
</a>
</g>
</g>
<!-- Node27 -->
<g id="Node000027" class="node">
<title>Node27</title>
<g id="a_Node000027"><a xlink:title=" ">
<polygon fill="#e0e0e0" stroke="#999999" points="990,-129 934,-129 934,-110 990,-110 990,-129"/>
<text text-anchor="middle" x="962" y="-117" font-family="Helvetica,sans-Serif" font-size="10.00">stdbool.h</text>
</a>
</g>
</g>
<!-- Node25&#45;&gt;Node27 -->
<g id="edge50_Node000025_Node000027" class="edge">
<title>Node25&#45;&gt;Node27</title>
<g id="a_edge50_Node000025_Node000027"><a xlink:title=" ">
<path fill="none" stroke="#63b8ff" d="M1056.84,-164.98C1038.75,-156.5 1010.72,-143.35 989.81,-133.54"/>
<polygon fill="#63b8ff" stroke="#63b8ff" points="991.03,-130.25 980.49,-129.17 988.05,-136.59 991.03,-130.25"/>
</a>
</g>
</g>
<!-- Node28 -->
<g id="Node000028" class="node">
<title>Node28</title>
<g id="a_Node000028"><a xlink:title=" ">
<polygon fill="#e0e0e0" stroke="#999999" points="1184,-129 1122,-129 1122,-110 1184,-110 1184,-129"/>
<text text-anchor="middle" x="1153" y="-117" font-family="Helvetica,sans-Serif" font-size="10.00">sys/time.h</text>
</a>
</g>
</g>
<!-- Node25&#45;&gt;Node28 -->
<g id="edge55_Node000025_Node000028" class="edge">
<title>Node25&#45;&gt;Node28</title>
<g id="a_edge55_Node000025_Node000028"><a xlink:title=" ">
<path fill="none" stroke="#63b8ff" d="M1087.53,-164.98C1099.4,-156.92 1117.46,-144.65 1131.61,-135.03"/>
<polygon fill="#63b8ff" stroke="#63b8ff" points="1133.94,-137.69 1140.24,-129.17 1130,-131.9 1133.94,-137.69"/>
</a>
</g>
</g>
<!-- Node29 -->
<g id="Node000029" class="node">
<title>Node29</title>
<g id="a_Node000029"><a xlink:title=" ">
<polygon fill="#e0e0e0" stroke="#999999" points="1256,-129 1202,-129 1202,-110 1256,-110 1256,-129"/>
<text text-anchor="middle" x="1229" y="-117" font-family="Helvetica,sans-Serif" font-size="10.00">sys/un.h</text>
</a>
</g>
</g>
<!-- Node25&#45;&gt;Node29 -->
<g id="edge57_Node000025_Node000029" class="edge">
<title>Node25&#45;&gt;Node29</title>
<g id="a_edge57_Node000025_Node000029"><a xlink:title=" ">
<path fill="none" stroke="#63b8ff" d="M1099.74,-164.98C1125.37,-156.16 1165.63,-142.31 1194.41,-132.41"/>
<polygon fill="#63b8ff" stroke="#63b8ff" points="1195.75,-135.65 1204.06,-129.08 1193.47,-129.03 1195.75,-135.65"/>
</a>
</g>
</g>
<!-- Node30&#45;&gt;Node2 -->
<g id="edge66_Node000030_Node000002" class="edge">
<title>Node30&#45;&gt;Node2</title>
<g id="a_edge66_Node000030_Node000002"><a xlink:title=" ">
<path fill="none" stroke="#63b8ff" d="M868.26,-164.86C868.16,-150.85 865.69,-123.4 849,-110 827.36,-92.62 431.64,-73.74 291.61,-67.57"/>
<polygon fill="#63b8ff" stroke="#63b8ff" points="291.73,-64.07 281.59,-67.13 291.42,-71.07 291.73,-64.07"/>
</a>
</g>
</g>
<!-- Node30&#45;&gt;Node5 -->
<g id="edge62_Node000030_Node000005" class="edge">
<title>Node30&#45;&gt;Node5</title>
<g id="a_edge62_Node000030_Node000005"><a xlink:title=" ">
<path fill="none" stroke="#63b8ff" d="M816.38,-167.25C754.24,-159.55 646.49,-145.61 544.49,-129.17"/>
<polygon fill="#63b8ff" stroke="#63b8ff" points="544.75,-125.67 534.32,-127.52 543.63,-132.58 544.75,-125.67"/>
</a>
</g>
</g>
<!-- Node30&#45;&gt;Node6 -->
<g id="edge64_Node000030_Node000006" class="edge">
<title>Node30&#45;&gt;Node6</title>
<g id="a_edge64_Node000030_Node000006"><a xlink:title=" ">
<path fill="none" stroke="#63b8ff" d="M873.93,-164.98C882.42,-151.64 895.6,-125.7 882,-110 847.08,-69.69 683.2,-65.06 609.31,-65.07"/>
<polygon fill="#63b8ff" stroke="#63b8ff" points="609.07,-61.57 599.08,-65.1 609.09,-68.57 609.07,-61.57"/>
</a>
</g>
</g>
<!-- Node30&#45;&gt;Node9 -->
<g id="edge65_Node000030_Node000009" class="edge">
<title>Node30&#45;&gt;Node9</title>
<g id="a_edge65_Node000030_Node000009"><a xlink:title=" ">
<path fill="none" stroke="#63b8ff" d="M822.69,-164.98C769.71,-155.03 682.59,-138.65 630.12,-128.79"/>
<polygon fill="#63b8ff" stroke="#63b8ff" points="630.58,-125.32 620.11,-126.91 629.29,-132.2 630.58,-125.32"/>
</a>
</g>
</g>
<!-- Node30&#45;&gt;Node21 -->
<g id="edge67_Node000030_Node000021" class="edge">
<title>Node30&#45;&gt;Node21</title>
<g id="a_edge67_Node000030_Node000021"><a xlink:title=" ">
<path fill="none" stroke="#63b8ff" d="M919.63,-170.17C1065.92,-160.71 1474.44,-133.99 1503,-129 1572.08,-116.92 1650.4,-92.05 1693.72,-77.27"/>
<polygon fill="#63b8ff" stroke="#63b8ff" points="1694.87,-80.58 1703.18,-74.02 1692.59,-73.96 1694.87,-80.58"/>
</a>
</g>
</g>
<!-- Node30&#45;&gt;Node27 -->
<g id="edge63_Node000030_Node000027" class="edge">
<title>Node30&#45;&gt;Node27</title>
<g id="a_edge63_Node000030_Node000027"><a xlink:title=" ">
<path fill="none" stroke="#63b8ff" d="M883.1,-164.98C897.82,-156.69 920.42,-143.94 937.67,-134.22"/>
<polygon fill="#63b8ff" stroke="#63b8ff" points="939.63,-137.13 946.62,-129.17 936.19,-131.03 939.63,-137.13"/>
</a>
</g>
</g>
</g>
</svg>
