<?xml version="1.0" encoding="UTF-8" standalone="no"?>
<!DOCTYPE svg PUBLIC "-//W3C//DTD SVG 1.1//EN"
 "http://www.w3.org/Graphics/SVG/1.1/DTD/svg11.dtd">
<!-- Generated by graphviz version 2.43.0 (0)
 -->
<!-- Title: SocketReconnect.h Pages: 1 -->
<svg width="1075pt" height="302pt"
 viewBox="0.00 0.00 1075.00 302.00" xmlns="http://www.w3.org/2000/svg" xmlns:xlink="http://www.w3.org/1999/xlink">
<g id="graph0" class="graph" transform="scale(1 1) rotate(0) translate(4 298)">
<title>SocketReconnect.h</title>
<!-- Node1 -->
<g id="Node000001" class="node">
<title>Node1</title>
<g id="a_Node000001"><a xlink:title="Automatic reconnection framework for resilient TCP connections with backoff and circuit breaker patte...">
<polygon fill="#999999" stroke="#666666" points="211,-294 108,-294 108,-275 211,-275 211,-294"/>
<text text-anchor="middle" x="159.5" y="-282" font-family="Helvetica,sans-Serif" font-size="10.00">SocketReconnect.h</text>
</a>
</g>
</g>
<!-- Node2 -->
<g id="Node000002" class="node">
<title>Node2</title>
<g id="a_Node000002"><a xlink:href="Except_8h.html" target="_top" xlink:title="Structured exception handling for C with TRY/EXCEPT/FINALLY blocks.">
<polygon fill="white" stroke="#666666" points="77,-74 0,-74 0,-55 77,-55 77,-74"/>
<text text-anchor="middle" x="38.5" y="-62" font-family="Helvetica,sans-Serif" font-size="10.00">core/Except.h</text>
</a>
</g>
</g>
<!-- Node1&#45;&gt;Node2 -->
<g id="edge1_Node000001_Node000002" class="edge">
<title>Node1&#45;&gt;Node2</title>
<g id="a_edge1_Node000001_Node000002"><a xlink:title=" ">
<path fill="none" stroke="#63b8ff" d="M151.39,-274.93C130.94,-252.79 77.05,-191.03 51.5,-129 45.53,-114.51 42.21,-97 40.42,-84.04"/>
<polygon fill="#63b8ff" stroke="#63b8ff" points="43.89,-83.53 39.22,-74.01 36.94,-84.36 43.89,-83.53"/>
</a>
</g>
</g>
<!-- Node4 -->
<g id="Node000004" class="node">
<title>Node4</title>
<g id="a_Node000004"><a xlink:href="Socket_8h.html" target="_top" xlink:title="High&#45;level TCP/IP and Unix domain socket interface.">
<polygon fill="white" stroke="#666666" points="286.5,-239 198.5,-239 198.5,-220 286.5,-220 286.5,-239"/>
<text text-anchor="middle" x="242.5" y="-227" font-family="Helvetica,sans-Serif" font-size="10.00">socket/Socket.h</text>
</a>
</g>
</g>
<!-- Node1&#45;&gt;Node4 -->
<g id="edge3_Node000001_Node000004" class="edge">
<title>Node1&#45;&gt;Node4</title>
<g id="a_edge3_Node000001_Node000004"><a xlink:title=" ">
<path fill="none" stroke="#63b8ff" d="M172.84,-274.98C185.59,-266.84 205.05,-254.41 220.17,-244.76"/>
<polygon fill="#63b8ff" stroke="#63b8ff" points="222.38,-247.5 228.92,-239.17 218.61,-241.6 222.38,-247.5"/>
</a>
</g>
</g>
<!-- Node10 -->
<g id="Node000010" class="node">
<title>Node10</title>
<g id="a_Node000010"><a xlink:title=" ">
<polygon fill="#e0e0e0" stroke="#999999" points="174.5,-74 122.5,-74 122.5,-55 174.5,-55 174.5,-74"/>
<text text-anchor="middle" x="148.5" y="-62" font-family="Helvetica,sans-Serif" font-size="10.00">stddef.h</text>
</a>
</g>
</g>
<!-- Node1&#45;&gt;Node10 -->
<g id="edge36_Node000001_Node000010" class="edge">
<title>Node1&#45;&gt;Node10</title>
<g id="a_edge36_Node000001_Node000010"><a xlink:title=" ">
<path fill="none" stroke="#63b8ff" d="M154.46,-274.83C141.5,-251.96 107.17,-187.66 95.5,-129 93.85,-120.72 91.93,-117.65 95.5,-110 101.33,-97.49 112.59,-87.25 123.25,-79.76"/>
<polygon fill="#63b8ff" stroke="#63b8ff" points="125.44,-82.51 131.92,-74.13 121.62,-76.64 125.44,-82.51"/>
</a>
</g>
</g>
<!-- Node22 -->
<g id="Node000022" class="node">
<title>Node22</title>
<g id="a_Node000022"><a xlink:title=" ">
<polygon fill="#e0e0e0" stroke="#999999" points="954.5,-129 886.5,-129 886.5,-110 954.5,-110 954.5,-129"/>
<text text-anchor="middle" x="920.5" y="-117" font-family="Helvetica,sans-Serif" font-size="10.00">sys/types.h</text>
</a>
</g>
</g>
<!-- Node1&#45;&gt;Node22 -->
<g id="edge37_Node000001_Node000022" class="edge">
<title>Node1&#45;&gt;Node22</title>
<g id="a_edge37_Node000001_Node000022"><a xlink:title=" ">
<path fill="none" stroke="#63b8ff" d="M199.34,-274.97C329.3,-247.13 740.28,-159.1 876.3,-129.97"/>
<polygon fill="#63b8ff" stroke="#63b8ff" points="877.32,-133.33 886.36,-127.81 875.85,-126.48 877.32,-133.33"/>
</a>
</g>
</g>
<!-- Node3 -->
<g id="Node000003" class="node">
<title>Node3</title>
<g id="a_Node000003"><a xlink:title=" ">
<polygon fill="#e0e0e0" stroke="#999999" points="65.5,-19 11.5,-19 11.5,0 65.5,0 65.5,-19"/>
<text text-anchor="middle" x="38.5" y="-7" font-family="Helvetica,sans-Serif" font-size="10.00">setjmp.h</text>
</a>
</g>
</g>
<!-- Node2&#45;&gt;Node3 -->
<g id="edge2_Node000002_Node000003" class="edge">
<title>Node2&#45;&gt;Node3</title>
<g id="a_edge2_Node000002_Node000003"><a xlink:title=" ">
<path fill="none" stroke="#63b8ff" d="M38.5,-54.75C38.5,-47.8 38.5,-37.85 38.5,-29.13"/>
<polygon fill="#63b8ff" stroke="#63b8ff" points="42,-29.09 38.5,-19.09 35,-29.09 42,-29.09"/>
</a>
</g>
</g>
<!-- Node4&#45;&gt;Node2 -->
<g id="edge4_Node000004_Node000002" class="edge">
<title>Node4&#45;&gt;Node2</title>
<g id="a_edge4_Node000004_Node000002"><a xlink:title=" ">
<path fill="none" stroke="#63b8ff" d="M217.76,-219.91C180.92,-206 111.38,-175.37 68.5,-129 56.61,-116.14 48.62,-97.73 43.9,-84.04"/>
<polygon fill="#63b8ff" stroke="#63b8ff" points="47.16,-82.74 40.79,-74.27 40.48,-84.86 47.16,-82.74"/>
</a>
</g>
</g>
<!-- Node5 -->
<g id="Node000005" class="node">
<title>Node5</title>
<g id="a_Node000005"><a xlink:href="SocketConfig_8h.html" target="_top" xlink:title="Compile&#45;time and runtime configuration constants, limits, and platform adaptations.">
<polygon fill="white" stroke="#666666" points="868.5,-129 762.5,-129 762.5,-110 868.5,-110 868.5,-129"/>
<text text-anchor="middle" x="815.5" y="-117" font-family="Helvetica,sans-Serif" font-size="10.00">core/SocketConfig.h</text>
</a>
</g>
</g>
<!-- Node4&#45;&gt;Node5 -->
<g id="edge5_Node000004_Node000005" class="edge">
<title>Node4&#45;&gt;Node5</title>
<g id="a_edge5_Node000004_Node000005"><a xlink:title=" ">
<path fill="none" stroke="#63b8ff" d="M286.6,-222.35C342.22,-214.42 440.72,-199.74 524.5,-184 611.52,-167.65 712.31,-144.77 769.52,-131.4"/>
<polygon fill="#63b8ff" stroke="#63b8ff" points="770.41,-134.79 779.35,-129.1 768.81,-127.97 770.41,-134.79"/>
</a>
</g>
</g>
<!-- Node15 -->
<g id="Node000015" class="node">
<title>Node15</title>
<g id="a_Node000015"><a xlink:href="SocketDNS_8h.html" target="_top" xlink:title="Asynchronous DNS resolution API for non&#45;blocking network applications.">
<polygon fill="white" stroke="#666666" points="290.5,-129 194.5,-129 194.5,-110 290.5,-110 290.5,-129"/>
<text text-anchor="middle" x="242.5" y="-117" font-family="Helvetica,sans-Serif" font-size="10.00">dns/SocketDNS.h</text>
</a>
</g>
</g>
<!-- Node4&#45;&gt;Node15 -->
<g id="edge15_Node000004_Node000015" class="edge">
<title>Node4&#45;&gt;Node15</title>
<g id="a_edge15_Node000004_Node000015"><a xlink:title=" ">
<path fill="none" stroke="#63b8ff" d="M242.5,-219.66C242.5,-202.17 242.5,-162.8 242.5,-139.27"/>
<polygon fill="#63b8ff" stroke="#63b8ff" points="246,-139.16 242.5,-129.16 239,-139.16 246,-139.16"/>
</a>
</g>
</g>
<!-- Node18 -->
<g id="Node000018" class="node">
<title>Node18</title>
<g id="a_Node000018"><a xlink:href="SocketCommon_8h.html" target="_top" xlink:title="Common utilities shared between Socket and SocketDgram modules.">
<polygon fill="white" stroke="#666666" points="515.5,-184 387.5,-184 387.5,-165 515.5,-165 515.5,-184"/>
<text text-anchor="middle" x="451.5" y="-172" font-family="Helvetica,sans-Serif" font-size="10.00">socket/SocketCommon.h</text>
</a>
</g>
</g>
<!-- Node4&#45;&gt;Node18 -->
<g id="edge21_Node000004_Node000018" class="edge">
<title>Node4&#45;&gt;Node18</title>
<g id="a_edge21_Node000004_Node000018"><a xlink:title=" ">
<path fill="none" stroke="#63b8ff" d="M276.08,-219.98C311.85,-210.91 368.62,-196.52 407.84,-186.57"/>
<polygon fill="#63b8ff" stroke="#63b8ff" points="408.82,-189.93 417.66,-184.08 407.1,-183.15 408.82,-189.93"/>
</a>
</g>
</g>
<!-- Node6 -->
<g id="Node000006" class="node">
<title>Node6</title>
<g id="a_Node000006"><a xlink:title=" ">
<polygon fill="#e0e0e0" stroke="#999999" points="978,-74 931,-74 931,-55 978,-55 978,-74"/>
<text text-anchor="middle" x="954.5" y="-62" font-family="Helvetica,sans-Serif" font-size="10.00">errno.h</text>
</a>
</g>
</g>
<!-- Node5&#45;&gt;Node6 -->
<g id="edge6_Node000005_Node000006" class="edge">
<title>Node5&#45;&gt;Node6</title>
<g id="a_edge6_Node000005_Node000006"><a xlink:title=" ">
<path fill="none" stroke="#63b8ff" d="M837.83,-109.98C860.7,-101.27 896.46,-87.63 922.36,-77.75"/>
<polygon fill="#63b8ff" stroke="#63b8ff" points="923.66,-81 931.76,-74.17 921.17,-74.46 923.66,-81"/>
</a>
</g>
</g>
<!-- Node7 -->
<g id="Node000007" class="node">
<title>Node7</title>
<g id="a_Node000007"><a xlink:title=" ">
<polygon fill="#e0e0e0" stroke="#999999" points="705.5,-74 661.5,-74 661.5,-55 705.5,-55 705.5,-74"/>
<text text-anchor="middle" x="683.5" y="-62" font-family="Helvetica,sans-Serif" font-size="10.00">fcntl.h</text>
</a>
</g>
</g>
<!-- Node5&#45;&gt;Node7 -->
<g id="edge7_Node000005_Node000007" class="edge">
<title>Node5&#45;&gt;Node7</title>
<g id="a_edge7_Node000005_Node000007"><a xlink:title=" ">
<path fill="none" stroke="#63b8ff" d="M794.29,-109.98C772.77,-101.34 739.22,-87.87 714.67,-78.02"/>
<polygon fill="#63b8ff" stroke="#63b8ff" points="715.68,-74.65 705.09,-74.17 713.07,-81.14 715.68,-74.65"/>
</a>
</g>
</g>
<!-- Node8 -->
<g id="Node000008" class="node">
<title>Node8</title>
<g id="a_Node000008"><a xlink:title=" ">
<polygon fill="#e0e0e0" stroke="#999999" points="560,-74 495,-74 495,-55 560,-55 560,-74"/>
<text text-anchor="middle" x="527.5" y="-62" font-family="Helvetica,sans-Serif" font-size="10.00">netinet/in.h</text>
</a>
</g>
</g>
<!-- Node5&#45;&gt;Node8 -->
<g id="edge8_Node000005_Node000008" class="edge">
<title>Node5&#45;&gt;Node8</title>
<g id="a_edge8_Node000005_Node000008"><a xlink:title=" ">
<path fill="none" stroke="#63b8ff" d="M769.23,-109.98C714.37,-99.89 623.69,-83.2 570.37,-73.39"/>
<polygon fill="#63b8ff" stroke="#63b8ff" points="570.69,-69.89 560.22,-71.52 569.42,-76.77 570.69,-69.89"/>
</a>
</g>
</g>
<!-- Node9 -->
<g id="Node000009" class="node">
<title>Node9</title>
<g id="a_Node000009"><a xlink:title=" ">
<polygon fill="#e0e0e0" stroke="#999999" points="1067,-74 996,-74 996,-55 1067,-55 1067,-74"/>
<text text-anchor="middle" x="1031.5" y="-62" font-family="Helvetica,sans-Serif" font-size="10.00">netinet/tcp.h</text>
</a>
</g>
</g>
<!-- Node5&#45;&gt;Node9 -->
<g id="edge9_Node000005_Node000009" class="edge">
<title>Node5&#45;&gt;Node9</title>
<g id="a_edge9_Node000005_Node000009"><a xlink:title=" ">
<path fill="none" stroke="#63b8ff" d="M850.2,-109.98C887.25,-100.89 946.09,-86.46 986.63,-76.51"/>
<polygon fill="#63b8ff" stroke="#63b8ff" points="987.65,-79.86 996.52,-74.08 985.98,-73.07 987.65,-79.86"/>
</a>
</g>
</g>
<!-- Node5&#45;&gt;Node10 -->
<g id="edge10_Node000005_Node000010" class="edge">
<title>Node5&#45;&gt;Node10</title>
<g id="a_edge10_Node000005_Node000010"><a xlink:title=" ">
<path fill="none" stroke="#63b8ff" d="M762.32,-113.82C747.19,-112.53 730.7,-111.17 715.5,-110 483.19,-92.13 423.54,-104.15 192.5,-74 190,-73.67 187.43,-73.29 184.85,-72.88"/>
<polygon fill="#63b8ff" stroke="#63b8ff" points="185.39,-69.42 174.94,-71.15 184.19,-76.32 185.39,-69.42"/>
</a>
</g>
</g>
<!-- Node11 -->
<g id="Node000011" class="node">
<title>Node11</title>
<g id="a_Node000011"><a xlink:title=" ">
<polygon fill="#e0e0e0" stroke="#999999" points="769.5,-74 723.5,-74 723.5,-55 769.5,-55 769.5,-74"/>
<text text-anchor="middle" x="746.5" y="-62" font-family="Helvetica,sans-Serif" font-size="10.00">stdio.h</text>
</a>
</g>
</g>
<!-- Node5&#45;&gt;Node11 -->
<g id="edge11_Node000005_Node000011" class="edge">
<title>Node5&#45;&gt;Node11</title>
<g id="a_edge11_Node000005_Node000011"><a xlink:title=" ">
<path fill="none" stroke="#63b8ff" d="M804.41,-109.98C794.01,-102 778.24,-89.88 765.78,-80.31"/>
<polygon fill="#63b8ff" stroke="#63b8ff" points="767.85,-77.49 757.79,-74.17 763.59,-83.04 767.85,-77.49"/>
</a>
</g>
</g>
<!-- Node12 -->
<g id="Node000012" class="node">
<title>Node12</title>
<g id="a_Node000012"><a xlink:title=" ">
<polygon fill="#e0e0e0" stroke="#999999" points="409,-74 336,-74 336,-55 409,-55 409,-74"/>
<text text-anchor="middle" x="372.5" y="-62" font-family="Helvetica,sans-Serif" font-size="10.00">sys/socket.h</text>
</a>
</g>
</g>
<!-- Node5&#45;&gt;Node12 -->
<g id="edge12_Node000005_Node000012" class="edge">
<title>Node5&#45;&gt;Node12</title>
<g id="a_edge12_Node000005_Node000012"><a xlink:title=" ">
<path fill="none" stroke="#63b8ff" d="M762.06,-112.11C674.56,-101.64 502.17,-81.01 419.24,-71.09"/>
<polygon fill="#63b8ff" stroke="#63b8ff" points="419.44,-67.59 409.1,-69.88 418.61,-74.54 419.44,-67.59"/>
</a>
</g>
</g>
<!-- Node13 -->
<g id="Node000013" class="node">
<title>Node13</title>
<g id="a_Node000013"><a xlink:title=" ">
<polygon fill="#e0e0e0" stroke="#999999" points="843.5,-74 787.5,-74 787.5,-55 843.5,-55 843.5,-74"/>
<text text-anchor="middle" x="815.5" y="-62" font-family="Helvetica,sans-Serif" font-size="10.00">sys/uio.h</text>
</a>
</g>
</g>
<!-- Node5&#45;&gt;Node13 -->
<g id="edge13_Node000005_Node000013" class="edge">
<title>Node5&#45;&gt;Node13</title>
<g id="a_edge13_Node000005_Node000013"><a xlink:title=" ">
<path fill="none" stroke="#63b8ff" d="M815.5,-109.75C815.5,-102.8 815.5,-92.85 815.5,-84.13"/>
<polygon fill="#63b8ff" stroke="#63b8ff" points="819,-84.09 815.5,-74.09 812,-84.09 819,-84.09"/>
</a>
</g>
</g>
<!-- Node14 -->
<g id="Node000014" class="node">
<title>Node14</title>
<g id="a_Node000014"><a xlink:title=" ">
<polygon fill="#e0e0e0" stroke="#999999" points="913,-74 862,-74 862,-55 913,-55 913,-74"/>
<text text-anchor="middle" x="887.5" y="-62" font-family="Helvetica,sans-Serif" font-size="10.00">unistd.h</text>
</a>
</g>
</g>
<!-- Node5&#45;&gt;Node14 -->
<g id="edge14_Node000005_Node000014" class="edge">
<title>Node5&#45;&gt;Node14</title>
<g id="a_edge14_Node000005_Node000014"><a xlink:title=" ">
<path fill="none" stroke="#63b8ff" d="M827.07,-109.98C837.92,-102 854.38,-89.88 867.38,-80.31"/>
<polygon fill="#63b8ff" stroke="#63b8ff" points="869.74,-82.92 875.72,-74.17 865.59,-77.28 869.74,-82.92"/>
</a>
</g>
</g>
<!-- Node15&#45;&gt;Node2 -->
<g id="edge16_Node000015_Node000002" class="edge">
<title>Node15&#45;&gt;Node2</title>
<g id="a_edge16_Node000015_Node000002"><a xlink:title=" ">
<path fill="none" stroke="#63b8ff" d="M209.72,-109.98C174.88,-100.93 119.63,-86.58 81.36,-76.64"/>
<polygon fill="#63b8ff" stroke="#63b8ff" points="82.09,-73.21 71.53,-74.08 80.33,-79.98 82.09,-73.21"/>
</a>
</g>
</g>
<!-- Node15&#45;&gt;Node10 -->
<g id="edge18_Node000015_Node000010" class="edge">
<title>Node15&#45;&gt;Node10</title>
<g id="a_edge18_Node000015_Node000010"><a xlink:title=" ">
<path fill="none" stroke="#63b8ff" d="M227.4,-109.98C212.68,-101.69 190.08,-88.94 172.83,-79.22"/>
<polygon fill="#63b8ff" stroke="#63b8ff" points="174.31,-76.03 163.88,-74.17 170.87,-82.13 174.31,-76.03"/>
</a>
</g>
</g>
<!-- Node15&#45;&gt;Node12 -->
<g id="edge20_Node000015_Node000012" class="edge">
<title>Node15&#45;&gt;Node12</title>
<g id="a_edge20_Node000015_Node000012"><a xlink:title=" ">
<path fill="none" stroke="#63b8ff" d="M263.39,-109.98C284.58,-101.34 317.63,-87.87 341.8,-78.02"/>
<polygon fill="#63b8ff" stroke="#63b8ff" points="343.29,-81.19 351.23,-74.17 340.65,-74.7 343.29,-81.19"/>
</a>
</g>
</g>
<!-- Node16 -->
<g id="Node000016" class="node">
<title>Node16</title>
<g id="a_Node000016"><a xlink:title=" ">
<polygon fill="#e0e0e0" stroke="#999999" points="318,-74 269,-74 269,-55 318,-55 318,-74"/>
<text text-anchor="middle" x="293.5" y="-62" font-family="Helvetica,sans-Serif" font-size="10.00">netdb.h</text>
</a>
</g>
</g>
<!-- Node15&#45;&gt;Node16 -->
<g id="edge17_Node000015_Node000016" class="edge">
<title>Node15&#45;&gt;Node16</title>
<g id="a_edge17_Node000015_Node000016"><a xlink:title=" ">
<path fill="none" stroke="#63b8ff" d="M250.92,-109.75C258.27,-102.11 269.13,-90.82 278.04,-81.56"/>
<polygon fill="#63b8ff" stroke="#63b8ff" points="280.82,-83.72 285.24,-74.09 275.78,-78.87 280.82,-83.72"/>
</a>
</g>
</g>
<!-- Node17 -->
<g id="Node000017" class="node">
<title>Node17</title>
<g id="a_Node000017"><a xlink:title=" ">
<polygon fill="#e0e0e0" stroke="#999999" points="251,-74 202,-74 202,-55 251,-55 251,-74"/>
<text text-anchor="middle" x="226.5" y="-62" font-family="Helvetica,sans-Serif" font-size="10.00">stdint.h</text>
</a>
</g>
</g>
<!-- Node15&#45;&gt;Node17 -->
<g id="edge19_Node000015_Node000017" class="edge">
<title>Node15&#45;&gt;Node17</title>
<g id="a_edge19_Node000015_Node000017"><a xlink:title=" ">
<path fill="none" stroke="#63b8ff" d="M239.86,-109.75C237.74,-102.72 234.69,-92.62 232.04,-83.84"/>
<polygon fill="#63b8ff" stroke="#63b8ff" points="235.33,-82.65 229.09,-74.09 228.63,-84.67 235.33,-82.65"/>
</a>
</g>
</g>
<!-- Node18&#45;&gt;Node2 -->
<g id="edge34_Node000018_Node000002" class="edge">
<title>Node18&#45;&gt;Node2</title>
<g id="a_edge34_Node000018_Node000002"><a xlink:title=" ">
<path fill="none" stroke="#63b8ff" d="M387.29,-170.84C298.84,-166.26 144.83,-154.8 95.5,-129 75.47,-118.53 59.07,-97.98 49.08,-83.09"/>
<polygon fill="#63b8ff" stroke="#63b8ff" points="51.8,-80.84 43.48,-74.28 45.9,-84.6 51.8,-80.84"/>
</a>
</g>
</g>
<!-- Node18&#45;&gt;Node5 -->
<g id="edge35_Node000018_Node000005" class="edge">
<title>Node18&#45;&gt;Node5</title>
<g id="a_edge35_Node000018_Node000005"><a xlink:title=" ">
<path fill="none" stroke="#63b8ff" d="M509.98,-164.98C576.31,-155.33 684.09,-139.63 752.31,-129.7"/>
<polygon fill="#63b8ff" stroke="#63b8ff" points="753.1,-133.12 762.49,-128.22 752.09,-126.2 753.1,-133.12"/>
</a>
</g>
</g>
<!-- Node18&#45;&gt;Node7 -->
<g id="edge24_Node000018_Node000007" class="edge">
<title>Node18&#45;&gt;Node7</title>
<g id="a_edge24_Node000018_Node000007"><a xlink:title=" ">
<path fill="none" stroke="#63b8ff" d="M515.64,-171.87C585.42,-168.57 690.4,-158.68 715.5,-129 727.63,-114.66 714.04,-94.94 701.02,-81.29"/>
<polygon fill="#63b8ff" stroke="#63b8ff" points="703.21,-78.54 693.61,-74.05 698.31,-83.54 703.21,-78.54"/>
</a>
</g>
</g>
<!-- Node18&#45;&gt;Node8 -->
<g id="edge26_Node000018_Node000008" class="edge">
<title>Node18&#45;&gt;Node8</title>
<g id="a_edge26_Node000018_Node000008"><a xlink:title=" ">
<path fill="none" stroke="#63b8ff" d="M439.73,-164.88C424.27,-152.47 400.53,-128.99 413.5,-110 429.41,-86.72 459.46,-75.62 484.71,-70.32"/>
<polygon fill="#63b8ff" stroke="#63b8ff" points="485.64,-73.71 494.83,-68.45 484.36,-66.83 485.64,-73.71"/>
</a>
</g>
</g>
<!-- Node18&#45;&gt;Node12 -->
<g id="edge27_Node000018_Node000012" class="edge">
<title>Node18&#45;&gt;Node12</title>
<g id="a_edge27_Node000018_Node000012"><a xlink:title=" ">
<path fill="none" stroke="#63b8ff" d="M440.96,-164.72C431.22,-156.25 416.75,-142.73 406.5,-129 395.87,-114.77 386.57,-96.78 380.4,-83.59"/>
<polygon fill="#63b8ff" stroke="#63b8ff" points="383.46,-81.87 376.15,-74.2 377.08,-84.75 383.46,-81.87"/>
</a>
</g>
</g>
<!-- Node18&#45;&gt;Node16 -->
<g id="edge25_Node000018_Node000016" class="edge">
<title>Node18&#45;&gt;Node16</title>
<g id="a_edge25_Node000018_Node000016"><a xlink:title=" ">
<path fill="none" stroke="#63b8ff" d="M438.84,-164.84C411.8,-146.36 348.16,-102.86 314.78,-80.05"/>
<polygon fill="#63b8ff" stroke="#63b8ff" points="316.45,-76.95 306.22,-74.2 312.5,-82.73 316.45,-76.95"/>
</a>
</g>
</g>
<!-- Node19 -->
<g id="Node000019" class="node">
<title>Node19</title>
<g id="a_Node000019"><a xlink:title=" ">
<polygon fill="#e0e0e0" stroke="#999999" points="480,-129 423,-129 423,-110 480,-110 480,-129"/>
<text text-anchor="middle" x="451.5" y="-117" font-family="Helvetica,sans-Serif" font-size="10.00">pthread.h</text>
</a>
</g>
</g>
<!-- Node18&#45;&gt;Node19 -->
<g id="edge22_Node000018_Node000019" class="edge">
<title>Node18&#45;&gt;Node19</title>
<g id="a_edge22_Node000018_Node000019"><a xlink:title=" ">
<path fill="none" stroke="#63b8ff" d="M451.5,-164.75C451.5,-157.8 451.5,-147.85 451.5,-139.13"/>
<polygon fill="#63b8ff" stroke="#63b8ff" points="455,-139.09 451.5,-129.09 448,-139.09 455,-139.09"/>
</a>
</g>
</g>
<!-- Node20 -->
<g id="Node000020" class="node">
<title>Node20</title>
<g id="a_Node000020"><a xlink:title=" ">
<polygon fill="#e0e0e0" stroke="#999999" points="554.5,-129 498.5,-129 498.5,-110 554.5,-110 554.5,-129"/>
<text text-anchor="middle" x="526.5" y="-117" font-family="Helvetica,sans-Serif" font-size="10.00">stdbool.h</text>
</a>
</g>
</g>
<!-- Node18&#45;&gt;Node20 -->
<g id="edge23_Node000018_Node000020" class="edge">
<title>Node18&#45;&gt;Node20</title>
<g id="a_edge23_Node000018_Node000020"><a xlink:title=" ">
<path fill="none" stroke="#63b8ff" d="M463.55,-164.98C474.96,-156.92 492.33,-144.65 505.93,-135.03"/>
<polygon fill="#63b8ff" stroke="#63b8ff" points="508.08,-137.8 514.23,-129.17 504.04,-132.08 508.08,-137.8"/>
</a>
</g>
</g>
<!-- Node21 -->
<g id="Node000021" class="node">
<title>Node21</title>
<g id="a_Node000021"><a xlink:title=" ">
<polygon fill="#e0e0e0" stroke="#999999" points="634.5,-129 572.5,-129 572.5,-110 634.5,-110 634.5,-129"/>
<text text-anchor="middle" x="603.5" y="-117" font-family="Helvetica,sans-Serif" font-size="10.00">sys/time.h</text>
</a>
</g>
</g>
<!-- Node18&#45;&gt;Node21 -->
<g id="edge28_Node000018_Node000021" class="edge">
<title>Node18&#45;&gt;Node21</title>
<g id="a_edge28_Node000018_Node000021"><a xlink:title=" ">
<path fill="none" stroke="#63b8ff" d="M475.92,-164.98C501.22,-156.16 540.95,-142.31 569.36,-132.41"/>
<polygon fill="#63b8ff" stroke="#63b8ff" points="570.6,-135.68 578.89,-129.08 568.29,-129.07 570.6,-135.68"/>
</a>
</g>
</g>
<!-- Node18&#45;&gt;Node22 -->
<g id="edge29_Node000018_Node000022" class="edge">
<title>Node18&#45;&gt;Node22</title>
<g id="a_edge29_Node000018_Node000022"><a xlink:title=" ">
<path fill="none" stroke="#63b8ff" d="M515.6,-168.64C597.13,-162.04 742.43,-148.92 876.26,-129.06"/>
<polygon fill="#63b8ff" stroke="#63b8ff" points="876.91,-132.5 886.28,-127.56 875.87,-125.58 876.91,-132.5"/>
</a>
</g>
</g>
<!-- Node23 -->
<g id="Node000023" class="node">
<title>Node23</title>
<g id="a_Node000023"><a xlink:title=" ">
<polygon fill="#e0e0e0" stroke="#999999" points="706.5,-129 652.5,-129 652.5,-110 706.5,-110 706.5,-129"/>
<text text-anchor="middle" x="679.5" y="-117" font-family="Helvetica,sans-Serif" font-size="10.00">sys/un.h</text>
</a>
</g>
</g>
<!-- Node18&#45;&gt;Node23 -->
<g id="edge30_Node000018_Node000023" class="edge">
<title>Node18&#45;&gt;Node23</title>
<g id="a_edge30_Node000018_Node000023"><a xlink:title=" ">
<path fill="none" stroke="#63b8ff" d="M488.68,-164.93C525.32,-156.47 583.18,-143.09 642.47,-129.23"/>
<polygon fill="#63b8ff" stroke="#63b8ff" points="643.44,-132.6 652.38,-126.92 641.84,-125.79 643.44,-132.6"/>
</a>
</g>
</g>
<!-- Node24 -->
<g id="Node000024" class="node">
<title>Node24</title>
<g id="a_Node000024"><a xlink:href="Arena_8h.html" target="_top" xlink:title="Arena&#45;based memory allocator for efficient bulk memory management.">
<polygon fill="white" stroke="#666666" points="176.5,-129 104.5,-129 104.5,-110 176.5,-110 176.5,-129"/>
<text text-anchor="middle" x="140.5" y="-117" font-family="Helvetica,sans-Serif" font-size="10.00">core/Arena.h</text>
</a>
</g>
</g>
<!-- Node18&#45;&gt;Node24 -->
<g id="edge31_Node000018_Node000024" class="edge">
<title>Node18&#45;&gt;Node24</title>
<g id="a_edge31_Node000018_Node000024"><a xlink:title=" ">
<path fill="none" stroke="#63b8ff" d="M398.45,-164.96C346.93,-156.59 266.21,-143.28 186.99,-129.24"/>
<polygon fill="#63b8ff" stroke="#63b8ff" points="187.3,-125.74 176.84,-127.43 186.07,-132.63 187.3,-125.74"/>
</a>
</g>
</g>
<!-- Node24&#45;&gt;Node2 -->
<g id="edge33_Node000024_Node000002" class="edge">
<title>Node24&#45;&gt;Node2</title>
<g id="a_edge33_Node000024_Node000002"><a xlink:title=" ">
<path fill="none" stroke="#63b8ff" d="M124.11,-109.98C107.93,-101.57 82.93,-88.59 64.12,-78.81"/>
<polygon fill="#63b8ff" stroke="#63b8ff" points="65.67,-75.68 55.19,-74.17 62.45,-81.89 65.67,-75.68"/>
</a>
</g>
</g>
<!-- Node24&#45;&gt;Node10 -->
<g id="edge32_Node000024_Node000010" class="edge">
<title>Node24&#45;&gt;Node10</title>
<g id="a_edge32_Node000024_Node000010"><a xlink:title=" ">
<path fill="none" stroke="#63b8ff" d="M141.82,-109.75C142.87,-102.8 144.37,-92.85 145.69,-84.13"/>
<polygon fill="#63b8ff" stroke="#63b8ff" points="149.17,-84.5 147.2,-74.09 142.25,-83.45 149.17,-84.5"/>
</a>
</g>
</g>
</g>
</svg>
