<?xml version="1.0" encoding="UTF-8" standalone="no"?>
<!DOCTYPE svg PUBLIC "-//W3C//DTD SVG 1.1//EN"
 "http://www.w3.org/Graphics/SVG/1.1/DTD/svg11.dtd">
<!-- Generated by graphviz version 2.43.0 (0)
 -->
<!-- Title: SocketDNS.h Pages: 1 -->
<svg width="681pt" height="192pt"
 viewBox="0.00 0.00 681.28 192.00" xmlns="http://www.w3.org/2000/svg" xmlns:xlink="http://www.w3.org/1999/xlink">
<g id="graph0" class="graph" transform="scale(1 1) rotate(0) translate(4 188)">
<title>SocketDNS.h</title>
<!-- Node1 -->
<g id="Node000001" class="node">
<title>Node1</title>
<g id="a_Node000001"><a xlink:title=" ">
<polygon fill="#999999" stroke="#666666" points="385.78,-184 308.78,-184 308.78,-165 385.78,-165 385.78,-184"/>
<text text-anchor="middle" x="347.28" y="-172" font-family="Helvetica,sans-Serif" font-size="10.00">SocketDNS.h</text>
</a>
</g>
</g>
<!-- Node2 -->
<g id="Node000002" class="node">
<title>Node2</title>
<g id="a_Node000002"><a xlink:href="Socket_8h.html" target="_top" xlink:title=" ">
<polygon fill="white" stroke="#666666" points="375.28,-129 319.28,-129 319.28,-110 375.28,-110 375.28,-129"/>
<text text-anchor="middle" x="347.28" y="-117" font-family="Helvetica,sans-Serif" font-size="10.00">Socket.h</text>
</a>
</g>
</g>
<!-- Node1&#45;&gt;Node2 -->
<g id="edge1_Node000001_Node000002" class="edge">
<title>Node1&#45;&gt;Node2</title>
<g id="a_edge1_Node000001_Node000002"><a xlink:title=" ">
<path fill="none" stroke="#63b8ff" d="M347.28,-154.66C347.28,-145.93 347.28,-135.99 347.28,-129.09"/>
<polygon fill="#63b8ff" stroke="#63b8ff" points="343.78,-154.75 347.28,-164.75 350.78,-154.75 343.78,-154.75"/>
</a>
</g>
</g>
<!-- Node4 -->
<g id="Node000004" class="node">
<title>Node4</title>
<g id="a_Node000004"><a xlink:href="SocketHappyEyeballs_8h.html" target="_top" xlink:title=" ">
<polygon fill="white" stroke="#666666" points="673.28,-19 551.28,-19 551.28,0 673.28,0 673.28,-19"/>
<text text-anchor="middle" x="612.28" y="-7" font-family="Helvetica,sans-Serif" font-size="10.00">SocketHappyEyeballs.h</text>
</a>
</g>
</g>
<!-- Node1&#45;&gt;Node4 -->
<g id="edge14_Node000001_Node000004" class="edge">
<title>Node1&#45;&gt;Node4</title>
<g id="a_edge14_Node000001_Node000004"><a xlink:title=" ">
<path fill="none" stroke="#63b8ff" d="M395.99,-166.61C451.47,-156.21 541.16,-131.24 593.28,-74 607.54,-58.34 611.12,-32.39 612,-19.03"/>
<polygon fill="#63b8ff" stroke="#63b8ff" points="395.27,-163.18 386.05,-168.38 396.51,-170.07 395.27,-163.18"/>
</a>
</g>
</g>
<!-- Node8 -->
<g id="Node000008" class="node">
<title>Node8</title>
<g id="a_Node000008"><a xlink:href="SocketPool_8h.html" target="_top" xlink:title=" ">
<polygon fill="white" stroke="#666666" points="145.78,-19 70.78,-19 70.78,0 145.78,0 145.78,-19"/>
<text text-anchor="middle" x="108.28" y="-7" font-family="Helvetica,sans-Serif" font-size="10.00">SocketPool.h</text>
</a>
</g>
</g>
<!-- Node1&#45;&gt;Node8 -->
<g id="edge15_Node000001_Node000008" class="edge">
<title>Node1&#45;&gt;Node8</title>
<g id="a_edge15_Node000001_Node000008"><a xlink:title=" ">
<path fill="none" stroke="#63b8ff" d="M298.52,-166.54C212.77,-153.21 40.64,-121.11 5.28,-74 -15.52,-46.28 33.28,-27.91 70.6,-18.36"/>
<polygon fill="#63b8ff" stroke="#63b8ff" points="298.12,-170.02 308.54,-168.08 299.18,-163.11 298.12,-170.02"/>
</a>
</g>
</g>
<!-- Node3 -->
<g id="Node000003" class="node">
<title>Node3</title>
<g id="a_Node000003"><a xlink:href="SocketAsync_8h.html" target="_top" xlink:title=" ">
<polygon fill="white" stroke="#666666" points="340.78,-74 257.78,-74 257.78,-55 340.78,-55 340.78,-74"/>
<text text-anchor="middle" x="299.28" y="-62" font-family="Helvetica,sans-Serif" font-size="10.00">SocketAsync.h</text>
</a>
</g>
</g>
<!-- Node2&#45;&gt;Node3 -->
<g id="edge2_Node000002_Node000003" class="edge">
<title>Node2&#45;&gt;Node3</title>
<g id="a_edge2_Node000002_Node000003"><a xlink:title=" ">
<path fill="none" stroke="#63b8ff" d="M332.55,-102.24C324.14,-92.95 313.93,-81.68 307.06,-74.09"/>
<polygon fill="#63b8ff" stroke="#63b8ff" points="330.05,-104.69 339.36,-109.75 335.24,-99.99 330.05,-104.69"/>
</a>
</g>
</g>
<!-- Node2&#45;&gt;Node4 -->
<g id="edge3_Node000002_Node000004" class="edge">
<title>Node2&#45;&gt;Node4</title>
<g id="a_edge3_Node000002_Node000004"><a xlink:title=" ">
<path fill="none" stroke="#63b8ff" d="M385.56,-114.44C441.09,-107.97 540.58,-93.96 570.28,-74 590.69,-60.29 603.61,-32.98 609.16,-19.07"/>
<polygon fill="#63b8ff" stroke="#63b8ff" points="384.95,-110.99 375.41,-115.6 385.74,-117.95 384.95,-110.99"/>
</a>
</g>
</g>
<!-- Node5 -->
<g id="Node000005" class="node">
<title>Node5</title>
<g id="a_Node000005"><a xlink:href="SocketIO_8h.html" target="_top" xlink:title=" ">
<polygon fill="white" stroke="#666666" points="80.28,-74 14.28,-74 14.28,-55 80.28,-55 80.28,-74"/>
<text text-anchor="middle" x="47.28" y="-62" font-family="Helvetica,sans-Serif" font-size="10.00">SocketIO.h</text>
</a>
</g>
</g>
<!-- Node2&#45;&gt;Node5 -->
<g id="edge4_Node000002_Node000005" class="edge">
<title>Node2&#45;&gt;Node5</title>
<g id="a_edge4_Node000002_Node000005"><a xlink:title=" ">
<path fill="none" stroke="#63b8ff" d="M309.25,-111.87C259.74,-103.22 170.52,-87.6 94.28,-74 89.79,-73.2 85.06,-72.35 80.4,-71.51"/>
<polygon fill="#63b8ff" stroke="#63b8ff" points="308.74,-115.33 319.2,-113.61 309.95,-108.44 308.74,-115.33"/>
</a>
</g>
</g>
<!-- Node6 -->
<g id="Node000006" class="node">
<title>Node6</title>
<g id="a_Node000006"><a xlink:href="SocketPoll_8h.html" target="_top" xlink:title=" ">
<polygon fill="white" stroke="#666666" points="561.28,-74 489.28,-74 489.28,-55 561.28,-55 561.28,-74"/>
<text text-anchor="middle" x="525.28" y="-62" font-family="Helvetica,sans-Serif" font-size="10.00">SocketPoll.h</text>
</a>
</g>
</g>
<!-- Node2&#45;&gt;Node6 -->
<g id="edge5_Node000002_Node000006" class="edge">
<title>Node2&#45;&gt;Node6</title>
<g id="a_edge5_Node000002_Node000006"><a xlink:title=" ">
<path fill="none" stroke="#63b8ff" d="M385.34,-107.17C418.68,-97.24 466.41,-83.03 496.62,-74.03"/>
<polygon fill="#63b8ff" stroke="#63b8ff" points="384.07,-103.89 375.49,-110.1 386.07,-110.6 384.07,-103.89"/>
</a>
</g>
</g>
<!-- Node7 -->
<g id="Node000007" class="node">
<title>Node7</title>
<g id="a_Node000007"><a xlink:href="SocketPoll__backend_8h.html" target="_top" xlink:title=" ">
<polygon fill="white" stroke="#666666" points="533.28,-19 419.28,-19 419.28,0 533.28,0 533.28,-19"/>
<text text-anchor="middle" x="476.28" y="-7" font-family="Helvetica,sans-Serif" font-size="10.00">SocketPoll_backend.h</text>
</a>
</g>
</g>
<!-- Node2&#45;&gt;Node7 -->
<g id="edge8_Node000002_Node000007" class="edge">
<title>Node2&#45;&gt;Node7</title>
<g id="a_edge8_Node000002_Node000007"><a xlink:title=" ">
<path fill="none" stroke="#63b8ff" d="M384.97,-107.21C403.91,-100.07 426.19,-89.26 442.28,-74 458.8,-58.34 469.02,-32.85 473.54,-19.43"/>
<polygon fill="#63b8ff" stroke="#63b8ff" points="383.66,-103.96 375.42,-110.62 386.02,-110.55 383.66,-103.96"/>
</a>
</g>
</g>
<!-- Node2&#45;&gt;Node8 -->
<g id="edge9_Node000002_Node000008" class="edge">
<title>Node2&#45;&gt;Node8</title>
<g id="a_edge9_Node000002_Node000008"><a xlink:title=" ">
<path fill="none" stroke="#63b8ff" d="M308.7,-115.43C252.87,-110.22 153.37,-97.82 127.28,-74 111.64,-59.73 108.67,-33.17 108.23,-19.36"/>
<polygon fill="#63b8ff" stroke="#63b8ff" points="308.64,-118.94 318.91,-116.35 309.27,-111.97 308.64,-118.94"/>
</a>
</g>
</g>
<!-- Node9 -->
<g id="Node000009" class="node">
<title>Node9</title>
<g id="a_Node000009"><a xlink:href="SocketReconnect_8h.html" target="_top" xlink:title=" ">
<polygon fill="white" stroke="#666666" points="239.78,-74 136.78,-74 136.78,-55 239.78,-55 239.78,-74"/>
<text text-anchor="middle" x="188.28" y="-62" font-family="Helvetica,sans-Serif" font-size="10.00">SocketReconnect.h</text>
</a>
</g>
</g>
<!-- Node2&#45;&gt;Node9 -->
<g id="edge10_Node000002_Node000009" class="edge">
<title>Node2&#45;&gt;Node9</title>
<g id="a_edge10_Node000002_Node000009"><a xlink:title=" ">
<path fill="none" stroke="#63b8ff" d="M312.18,-106.8C282.5,-96.91 240.68,-82.97 214.03,-74.08"/>
<polygon fill="#63b8ff" stroke="#63b8ff" points="311.14,-110.14 321.74,-109.98 313.36,-103.5 311.14,-110.14"/>
</a>
</g>
</g>
<!-- Node10 -->
<g id="Node000010" class="node">
<title>Node10</title>
<g id="a_Node000010"><a xlink:href="SocketTLS_8h.html" target="_top" xlink:title=" ">
<polygon fill="white" stroke="#666666" points="433.28,-74 359.28,-74 359.28,-55 433.28,-55 433.28,-74"/>
<text text-anchor="middle" x="396.28" y="-62" font-family="Helvetica,sans-Serif" font-size="10.00">SocketTLS.h</text>
</a>
</g>
</g>
<!-- Node2&#45;&gt;Node10 -->
<g id="edge12_Node000002_Node000010" class="edge">
<title>Node2&#45;&gt;Node10</title>
<g id="a_edge12_Node000002_Node000010"><a xlink:title=" ">
<path fill="none" stroke="#63b8ff" d="M362.32,-102.24C370.9,-92.95 381.33,-81.68 388.34,-74.09"/>
<polygon fill="#63b8ff" stroke="#63b8ff" points="359.59,-100.03 355.37,-109.75 364.73,-104.78 359.59,-100.03"/>
</a>
</g>
</g>
<!-- Node6&#45;&gt;Node4 -->
<g id="edge6_Node000006_Node000004" class="edge">
<title>Node6&#45;&gt;Node4</title>
<g id="a_edge6_Node000006_Node000004"><a xlink:title=" ">
<path fill="none" stroke="#63b8ff" d="M547.94,-49.7C563.79,-40.04 584.47,-27.44 598.05,-19.17"/>
<polygon fill="#63b8ff" stroke="#63b8ff" points="545.98,-46.79 539.26,-54.98 549.62,-52.77 545.98,-46.79"/>
</a>
</g>
</g>
<!-- Node6&#45;&gt;Node7 -->
<g id="edge7_Node000006_Node000007" class="edge">
<title>Node6&#45;&gt;Node7</title>
<g id="a_edge7_Node000006_Node000007"><a xlink:title=" ">
<path fill="none" stroke="#63b8ff" d="M510.25,-47.24C501.66,-37.95 491.24,-26.68 484.22,-19.09"/>
<polygon fill="#63b8ff" stroke="#63b8ff" points="507.83,-49.78 517.19,-54.75 512.97,-45.03 507.83,-49.78"/>
</a>
</g>
</g>
<!-- Node9&#45;&gt;Node8 -->
<g id="edge11_Node000009_Node000008" class="edge">
<title>Node9&#45;&gt;Node8</title>
<g id="a_edge11_Node000009_Node000008"><a xlink:title=" ">
<path fill="none" stroke="#63b8ff" d="M167.04,-49.42C152.52,-39.81 133.74,-27.37 121.37,-19.17"/>
<polygon fill="#63b8ff" stroke="#63b8ff" points="165.16,-52.38 175.43,-54.98 169.02,-46.54 165.16,-52.38"/>
</a>
</g>
</g>
<!-- Node11 -->
<g id="Node000011" class="node">
<title>Node11</title>
<g id="a_Node000011"><a xlink:href="SocketTLSContext_8h.html" target="_top" xlink:title=" ">
<polygon fill="white" stroke="#666666" points="401.28,-19 293.28,-19 293.28,0 401.28,0 401.28,-19"/>
<text text-anchor="middle" x="347.28" y="-7" font-family="Helvetica,sans-Serif" font-size="10.00">SocketTLSContext.h</text>
</a>
</g>
</g>
<!-- Node10&#45;&gt;Node11 -->
<g id="edge13_Node000010_Node000011" class="edge">
<title>Node10&#45;&gt;Node11</title>
<g id="a_edge13_Node000010_Node000011"><a xlink:title=" ">
<path fill="none" stroke="#63b8ff" d="M381.25,-47.24C372.66,-37.95 362.24,-26.68 355.22,-19.09"/>
<polygon fill="#63b8ff" stroke="#63b8ff" points="378.83,-49.78 388.19,-54.75 383.97,-45.03 378.83,-49.78"/>
</a>
</g>
</g>
</g>
</svg>
