<?xml version="1.0" encoding="UTF-8" standalone="no"?>
<!DOCTYPE svg PUBLIC "-//W3C//DTD SVG 1.1//EN"
 "http://www.w3.org/Graphics/SVG/1.1/DTD/svg11.dtd">
<!-- Generated by graphviz version 2.43.0 (0)
 -->
<!-- Title: SocketHPACK.h Pages: 1 -->
<svg width="376pt" height="137pt"
 viewBox="0.00 0.00 376.00 137.00" xmlns="http://www.w3.org/2000/svg" xmlns:xlink="http://www.w3.org/1999/xlink">
<g id="graph0" class="graph" transform="scale(1 1) rotate(0) translate(4 133)">
<title>SocketHPACK.h</title>
<!-- Node1 -->
<g id="Node000001" class="node">
<title>Node1</title>
<g id="a_Node000001"><a xlink:title="HPACK header compression (RFC 7541) for HTTP/2.">
<polygon fill="#999999" stroke="#666666" points="194.5,-129 105.5,-129 105.5,-110 194.5,-110 194.5,-129"/>
<text text-anchor="middle" x="150" y="-117" font-family="Helvetica,sans-Serif" font-size="10.00">SocketHPACK.h</text>
</a>
</g>
</g>
<!-- Node2 -->
<g id="Node000002" class="node">
<title>Node2</title>
<g id="a_Node000002"><a xlink:href="SocketHPACK-private_8h.html" target="_top" xlink:title="Internal HPACK header compression structures and constants.">
<polygon fill="white" stroke="#666666" points="122,-74 0,-74 0,-55 122,-55 122,-74"/>
<text text-anchor="middle" x="61" y="-62" font-family="Helvetica,sans-Serif" font-size="10.00">SocketHPACK&#45;private.h</text>
</a>
</g>
</g>
<!-- Node1&#45;&gt;Node2 -->
<g id="edge1_Node000001_Node000002" class="edge">
<title>Node1&#45;&gt;Node2</title>
<g id="a_edge1_Node000001_Node000002"><a xlink:title=" ">
<path fill="none" stroke="#63b8ff" d="M126.82,-104.7C110.61,-95.04 89.45,-82.44 75.56,-74.17"/>
<polygon fill="#63b8ff" stroke="#63b8ff" points="125.32,-107.88 135.7,-109.98 128.9,-101.86 125.32,-107.88"/>
</a>
</g>
</g>
<!-- Node3 -->
<g id="Node000003" class="node">
<title>Node3</title>
<g id="a_Node000003"><a xlink:href="SocketHTTP2-private_8h.html" target="_top" xlink:title="Internal HTTP/2 connection and stream structures.">
<polygon fill="white" stroke="#666666" points="209.5,-19 90.5,-19 90.5,0 209.5,0 209.5,-19"/>
<text text-anchor="middle" x="150" y="-7" font-family="Helvetica,sans-Serif" font-size="10.00">SocketHTTP2&#45;private.h</text>
</a>
</g>
</g>
<!-- Node1&#45;&gt;Node3 -->
<g id="edge2_Node000001_Node000003" class="edge">
<title>Node1&#45;&gt;Node3</title>
<g id="a_edge2_Node000001_Node000003"><a xlink:title=" ">
<path fill="none" stroke="#63b8ff" d="M150,-99.48C150,-75.84 150,-36.5 150,-19.16"/>
<polygon fill="#63b8ff" stroke="#63b8ff" points="146.5,-99.66 150,-109.66 153.5,-99.66 146.5,-99.66"/>
</a>
</g>
</g>
<!-- Node4 -->
<g id="Node000004" class="node">
<title>Node4</title>
<g id="a_Node000004"><a xlink:href="SocketHTTP2_8h.html" target="_top" xlink:title="HTTP/2 protocol implementation (RFC 9113) with multiplexing and flow control.">
<polygon fill="white" stroke="#666666" points="265.5,-74 178.5,-74 178.5,-55 265.5,-55 265.5,-74"/>
<text text-anchor="middle" x="222" y="-62" font-family="Helvetica,sans-Serif" font-size="10.00">SocketHTTP2.h</text>
</a>
</g>
</g>
<!-- Node1&#45;&gt;Node4 -->
<g id="edge3_Node000001_Node000004" class="edge">
<title>Node1&#45;&gt;Node4</title>
<g id="a_edge3_Node000001_Node000004"><a xlink:title=" ">
<path fill="none" stroke="#63b8ff" d="M169.87,-103.88C182.82,-94.34 199.3,-82.21 210.22,-74.17"/>
<polygon fill="#63b8ff" stroke="#63b8ff" points="167.55,-101.24 161.57,-109.98 171.7,-106.88 167.55,-101.24"/>
</a>
</g>
</g>
<!-- Node4&#45;&gt;Node3 -->
<g id="edge4_Node000004_Node000003" class="edge">
<title>Node4&#45;&gt;Node3</title>
<g id="a_edge4_Node000004_Node000003"><a xlink:title=" ">
<path fill="none" stroke="#63b8ff" d="M202.13,-48.88C189.18,-39.34 172.7,-27.21 161.78,-19.17"/>
<polygon fill="#63b8ff" stroke="#63b8ff" points="200.3,-51.88 210.43,-54.98 204.45,-46.24 200.3,-51.88"/>
</a>
</g>
</g>
<!-- Node5 -->
<g id="Node000005" class="node">
<title>Node5</title>
<g id="a_Node000005"><a xlink:href="SocketHTTPClient-private_8h.html" target="_top" xlink:title="Internal HTTP client structures and connection pooling.">
<polygon fill="white" stroke="#666666" points="368,-19 228,-19 228,0 368,0 368,-19"/>
<text text-anchor="middle" x="298" y="-7" font-family="Helvetica,sans-Serif" font-size="10.00">SocketHTTPClient&#45;private.h</text>
</a>
</g>
</g>
<!-- Node4&#45;&gt;Node5 -->
<g id="edge5_Node000004_Node000005" class="edge">
<title>Node4&#45;&gt;Node5</title>
<g id="a_edge5_Node000004_Node000005"><a xlink:title=" ">
<path fill="none" stroke="#63b8ff" d="M242.58,-49.15C256.31,-39.57 273.93,-27.29 285.57,-19.17"/>
<polygon fill="#63b8ff" stroke="#63b8ff" points="240.41,-46.39 234.21,-54.98 244.42,-52.14 240.41,-46.39"/>
</a>
</g>
</g>
</g>
</svg>
