<?xml version="1.0" encoding="UTF-8" standalone="no"?>
<!DOCTYPE svg PUBLIC "-//W3C//DTD SVG 1.1//EN"
 "http://www.w3.org/Graphics/SVG/1.1/DTD/svg11.dtd">
<!-- Generated by graphviz version 2.43.0 (0)
 -->
<!-- Title: SocketCommon.h Pages: 1 -->
<svg width="851pt" height="192pt"
 viewBox="0.00 0.00 851.00 192.00" xmlns="http://www.w3.org/2000/svg" xmlns:xlink="http://www.w3.org/1999/xlink">
<g id="graph0" class="graph" transform="scale(1 1) rotate(0) translate(4 188)">
<title>SocketCommon.h</title>
<!-- Node1 -->
<g id="Node000001" class="node">
<title>Node1</title>
<g id="a_Node000001"><a xlink:title="Common utilities shared between Socket and SocketDgram modules.">
<polygon fill="#999999" stroke="#666666" points="392,-184 297,-184 297,-165 392,-165 392,-184"/>
<text text-anchor="middle" x="344.5" y="-172" font-family="Helvetica,sans-Serif" font-size="10.00">SocketCommon.h</text>
</a>
</g>
</g>
<!-- Node2 -->
<g id="Node000002" class="node">
<title>Node2</title>
<g id="a_Node000002"><a xlink:title=" ">
<polygon fill="#e0e0e0" stroke="#999999" points="57,-129 0,-129 0,-110 57,-110 57,-129"/>
<text text-anchor="middle" x="28.5" y="-117" font-family="Helvetica,sans-Serif" font-size="10.00">pthread.h</text>
</a>
</g>
</g>
<!-- Node1&#45;&gt;Node2 -->
<g id="edge1_Node000001_Node000002" class="edge">
<title>Node1&#45;&gt;Node2</title>
<g id="a_edge1_Node000001_Node000002"><a xlink:title=" ">
<path fill="none" stroke="#63b8ff" d="M296.63,-166.75C243.17,-159.01 153.85,-145.47 67.11,-129.01"/>
<polygon fill="#63b8ff" stroke="#63b8ff" points="67.57,-125.53 57.09,-127.09 66.26,-132.41 67.57,-125.53"/>
</a>
</g>
</g>
<!-- Node3 -->
<g id="Node000003" class="node">
<title>Node3</title>
<g id="a_Node000003"><a xlink:title=" ">
<polygon fill="#e0e0e0" stroke="#999999" points="131.5,-129 75.5,-129 75.5,-110 131.5,-110 131.5,-129"/>
<text text-anchor="middle" x="103.5" y="-117" font-family="Helvetica,sans-Serif" font-size="10.00">stdbool.h</text>
</a>
</g>
</g>
<!-- Node1&#45;&gt;Node3 -->
<g id="edge2_Node000001_Node000003" class="edge">
<title>Node1&#45;&gt;Node3</title>
<g id="a_edge2_Node000001_Node000003"><a xlink:title=" ">
<path fill="none" stroke="#63b8ff" d="M305.78,-164.98C260.6,-155.05 186.38,-138.73 141.51,-128.86"/>
<polygon fill="#63b8ff" stroke="#63b8ff" points="142.1,-125.41 131.58,-126.68 140.6,-132.24 142.1,-125.41"/>
</a>
</g>
</g>
<!-- Node4 -->
<g id="Node000004" class="node">
<title>Node4</title>
<g id="a_Node000004"><a xlink:title=" ">
<polygon fill="#e0e0e0" stroke="#999999" points="306.5,-74 262.5,-74 262.5,-55 306.5,-55 306.5,-74"/>
<text text-anchor="middle" x="284.5" y="-62" font-family="Helvetica,sans-Serif" font-size="10.00">fcntl.h</text>
</a>
</g>
</g>
<!-- Node1&#45;&gt;Node4 -->
<g id="edge3_Node000001_Node000004" class="edge">
<title>Node1&#45;&gt;Node4</title>
<g id="a_edge3_Node000001_Node000004"><a xlink:title=" ">
<path fill="none" stroke="#63b8ff" d="M339.59,-164.66C329.7,-146.85 307.2,-106.37 294.23,-83.01"/>
<polygon fill="#63b8ff" stroke="#63b8ff" points="297.23,-81.2 289.31,-74.16 291.11,-84.6 297.23,-81.2"/>
</a>
</g>
</g>
<!-- Node5 -->
<g id="Node000005" class="node">
<title>Node5</title>
<g id="a_Node000005"><a xlink:title=" ">
<polygon fill="#e0e0e0" stroke="#999999" points="565,-129 516,-129 516,-110 565,-110 565,-129"/>
<text text-anchor="middle" x="540.5" y="-117" font-family="Helvetica,sans-Serif" font-size="10.00">netdb.h</text>
</a>
</g>
</g>
<!-- Node1&#45;&gt;Node5 -->
<g id="edge4_Node000001_Node000005" class="edge">
<title>Node1&#45;&gt;Node5</title>
<g id="a_edge4_Node000001_Node000005"><a xlink:title=" ">
<path fill="none" stroke="#63b8ff" d="M375.99,-164.98C411.6,-155.36 469.39,-139.73 506.14,-129.79"/>
<polygon fill="#63b8ff" stroke="#63b8ff" points="507.17,-133.14 515.91,-127.15 505.35,-126.38 507.17,-133.14"/>
</a>
</g>
</g>
<!-- Node6 -->
<g id="Node000006" class="node">
<title>Node6</title>
<g id="a_Node000006"><a xlink:title=" ">
<polygon fill="#e0e0e0" stroke="#999999" points="390,-74 325,-74 325,-55 390,-55 390,-74"/>
<text text-anchor="middle" x="357.5" y="-62" font-family="Helvetica,sans-Serif" font-size="10.00">netinet/in.h</text>
</a>
</g>
</g>
<!-- Node1&#45;&gt;Node6 -->
<g id="edge5_Node000001_Node000006" class="edge">
<title>Node1&#45;&gt;Node6</title>
<g id="a_edge5_Node000001_Node000006"><a xlink:title=" ">
<path fill="none" stroke="#63b8ff" d="M344.91,-164.84C345.55,-152.6 346.98,-129.52 349.5,-110 350.59,-101.53 352.2,-92.23 353.69,-84.33"/>
<polygon fill="#63b8ff" stroke="#63b8ff" points="357.16,-84.81 355.65,-74.33 350.29,-83.47 357.16,-84.81"/>
</a>
</g>
</g>
<!-- Node7 -->
<g id="Node000007" class="node">
<title>Node7</title>
<g id="a_Node000007"><a xlink:title=" ">
<polygon fill="#e0e0e0" stroke="#999999" points="481,-74 408,-74 408,-55 481,-55 481,-74"/>
<text text-anchor="middle" x="444.5" y="-62" font-family="Helvetica,sans-Serif" font-size="10.00">sys/socket.h</text>
</a>
</g>
</g>
<!-- Node1&#45;&gt;Node7 -->
<g id="edge6_Node000001_Node000007" class="edge">
<title>Node1&#45;&gt;Node7</title>
<g id="a_edge6_Node000001_Node000007"><a xlink:title=" ">
<path fill="none" stroke="#63b8ff" d="M348.22,-164.96C354.14,-152.04 366.67,-127.21 382.5,-110 393.44,-98.11 408.02,-87.45 420.29,-79.55"/>
<polygon fill="#63b8ff" stroke="#63b8ff" points="422.48,-82.31 429.13,-74.07 418.79,-76.37 422.48,-82.31"/>
</a>
</g>
</g>
<!-- Node8 -->
<g id="Node000008" class="node">
<title>Node8</title>
<g id="a_Node000008"><a xlink:title=" ">
<polygon fill="#e0e0e0" stroke="#999999" points="645.5,-129 583.5,-129 583.5,-110 645.5,-110 645.5,-129"/>
<text text-anchor="middle" x="614.5" y="-117" font-family="Helvetica,sans-Serif" font-size="10.00">sys/time.h</text>
</a>
</g>
</g>
<!-- Node1&#45;&gt;Node8 -->
<g id="edge7_Node000001_Node000008" class="edge">
<title>Node1&#45;&gt;Node8</title>
<g id="a_edge7_Node000001_Node000008"><a xlink:title=" ">
<path fill="none" stroke="#63b8ff" d="M389.93,-164.96C434.19,-156.59 503.64,-143.3 572.86,-129.31"/>
<polygon fill="#63b8ff" stroke="#63b8ff" points="573.96,-132.65 583.07,-127.24 572.57,-125.79 573.96,-132.65"/>
</a>
</g>
</g>
<!-- Node9 -->
<g id="Node000009" class="node">
<title>Node9</title>
<g id="a_Node000009"><a xlink:title=" ">
<polygon fill="#e0e0e0" stroke="#999999" points="731.5,-129 663.5,-129 663.5,-110 731.5,-110 731.5,-129"/>
<text text-anchor="middle" x="697.5" y="-117" font-family="Helvetica,sans-Serif" font-size="10.00">sys/types.h</text>
</a>
</g>
</g>
<!-- Node1&#45;&gt;Node9 -->
<g id="edge8_Node000001_Node000009" class="edge">
<title>Node1&#45;&gt;Node9</title>
<g id="a_edge8_Node000001_Node000009"><a xlink:title=" ">
<path fill="none" stroke="#63b8ff" d="M392.15,-167.45C451.09,-159.79 554.74,-145.76 653.14,-129.16"/>
<polygon fill="#63b8ff" stroke="#63b8ff" points="653.99,-132.56 663.26,-127.44 652.82,-125.66 653.99,-132.56"/>
</a>
</g>
</g>
<!-- Node10 -->
<g id="Node000010" class="node">
<title>Node10</title>
<g id="a_Node000010"><a xlink:title=" ">
<polygon fill="#e0e0e0" stroke="#999999" points="803.5,-129 749.5,-129 749.5,-110 803.5,-110 803.5,-129"/>
<text text-anchor="middle" x="776.5" y="-117" font-family="Helvetica,sans-Serif" font-size="10.00">sys/un.h</text>
</a>
</g>
</g>
<!-- Node1&#45;&gt;Node10 -->
<g id="edge9_Node000001_Node000010" class="edge">
<title>Node1&#45;&gt;Node10</title>
<g id="a_edge9_Node000001_Node000010"><a xlink:title=" ">
<path fill="none" stroke="#63b8ff" d="M392,-170.01C464.7,-164.28 608.07,-151.36 739.22,-129.02"/>
<polygon fill="#63b8ff" stroke="#63b8ff" points="740.19,-132.41 749.44,-127.26 739,-125.51 740.19,-132.41"/>
</a>
</g>
</g>
<!-- Node11 -->
<g id="Node000011" class="node">
<title>Node11</title>
<g id="a_Node000011"><a xlink:href="Arena_8h.html" target="_top" xlink:title="Arena&#45;based memory allocator for efficient bulk memory management.">
<polygon fill="white" stroke="#666666" points="259.5,-129 187.5,-129 187.5,-110 259.5,-110 259.5,-129"/>
<text text-anchor="middle" x="223.5" y="-117" font-family="Helvetica,sans-Serif" font-size="10.00">core/Arena.h</text>
</a>
</g>
</g>
<!-- Node1&#45;&gt;Node11 -->
<g id="edge10_Node000001_Node000011" class="edge">
<title>Node1&#45;&gt;Node11</title>
<g id="a_edge10_Node000001_Node000011"><a xlink:title=" ">
<path fill="none" stroke="#63b8ff" d="M325.06,-164.98C305.51,-156.42 275.12,-143.11 252.68,-133.28"/>
<polygon fill="#63b8ff" stroke="#63b8ff" points="253.86,-129.98 243.29,-129.17 251.05,-136.39 253.86,-129.98"/>
</a>
</g>
</g>
<!-- Node13 -->
<g id="Node000013" class="node">
<title>Node13</title>
<g id="a_Node000013"><a xlink:href="Except_8h.html" target="_top" xlink:title="Structured exception handling for C with TRY/EXCEPT/FINALLY blocks.">
<polygon fill="white" stroke="#666666" points="174,-74 97,-74 97,-55 174,-55 174,-74"/>
<text text-anchor="middle" x="135.5" y="-62" font-family="Helvetica,sans-Serif" font-size="10.00">core/Except.h</text>
</a>
</g>
</g>
<!-- Node1&#45;&gt;Node13 -->
<g id="edge14_Node000001_Node000013" class="edge">
<title>Node1&#45;&gt;Node13</title>
<g id="a_edge14_Node000001_Node000013"><a xlink:title=" ">
<path fill="none" stroke="#63b8ff" d="M296.71,-169.66C261.31,-164.81 213.38,-153.83 178.5,-129 162.44,-117.57 150.57,-98.12 143.42,-83.75"/>
<polygon fill="#63b8ff" stroke="#63b8ff" points="146.45,-81.96 139.06,-74.37 140.1,-84.91 146.45,-81.96"/>
</a>
</g>
</g>
<!-- Node15 -->
<g id="Node000015" class="node">
<title>Node15</title>
<g id="a_Node000015"><a xlink:href="SocketConfig_8h.html" target="_top" xlink:title="Compile&#45;time and runtime configuration constants, limits, and platform adaptations.">
<polygon fill="white" stroke="#666666" points="497.5,-129 391.5,-129 391.5,-110 497.5,-110 497.5,-129"/>
<text text-anchor="middle" x="444.5" y="-117" font-family="Helvetica,sans-Serif" font-size="10.00">core/SocketConfig.h</text>
</a>
</g>
</g>
<!-- Node1&#45;&gt;Node15 -->
<g id="edge15_Node000001_Node000015" class="edge">
<title>Node1&#45;&gt;Node15</title>
<g id="a_edge15_Node000001_Node000015"><a xlink:title=" ">
<path fill="none" stroke="#63b8ff" d="M360.57,-164.98C376.36,-156.61 400.72,-143.7 419.13,-133.95"/>
<polygon fill="#63b8ff" stroke="#63b8ff" points="420.94,-136.95 428.14,-129.17 417.67,-130.76 420.94,-136.95"/>
</a>
</g>
</g>
<!-- Node12 -->
<g id="Node000012" class="node">
<title>Node12</title>
<g id="a_Node000012"><a xlink:title=" ">
<polygon fill="#e0e0e0" stroke="#999999" points="244.5,-74 192.5,-74 192.5,-55 244.5,-55 244.5,-74"/>
<text text-anchor="middle" x="218.5" y="-62" font-family="Helvetica,sans-Serif" font-size="10.00">stddef.h</text>
</a>
</g>
</g>
<!-- Node11&#45;&gt;Node12 -->
<g id="edge11_Node000011_Node000012" class="edge">
<title>Node11&#45;&gt;Node12</title>
<g id="a_edge11_Node000011_Node000012"><a xlink:title=" ">
<path fill="none" stroke="#63b8ff" d="M222.67,-109.75C222.02,-102.8 221.08,-92.85 220.26,-84.13"/>
<polygon fill="#63b8ff" stroke="#63b8ff" points="223.73,-83.72 219.31,-74.09 216.77,-84.37 223.73,-83.72"/>
</a>
</g>
</g>
<!-- Node11&#45;&gt;Node13 -->
<g id="edge12_Node000011_Node000013" class="edge">
<title>Node11&#45;&gt;Node13</title>
<g id="a_edge12_Node000011_Node000013"><a xlink:title=" ">
<path fill="none" stroke="#63b8ff" d="M209.36,-109.98C195.71,-101.77 174.81,-89.18 158.72,-79.49"/>
<polygon fill="#63b8ff" stroke="#63b8ff" points="160.27,-76.33 149.9,-74.17 156.66,-82.33 160.27,-76.33"/>
</a>
</g>
</g>
<!-- Node14 -->
<g id="Node000014" class="node">
<title>Node14</title>
<g id="a_Node000014"><a xlink:title=" ">
<polygon fill="#e0e0e0" stroke="#999999" points="162.5,-19 108.5,-19 108.5,0 162.5,0 162.5,-19"/>
<text text-anchor="middle" x="135.5" y="-7" font-family="Helvetica,sans-Serif" font-size="10.00">setjmp.h</text>
</a>
</g>
</g>
<!-- Node13&#45;&gt;Node14 -->
<g id="edge13_Node000013_Node000014" class="edge">
<title>Node13&#45;&gt;Node14</title>
<g id="a_edge13_Node000013_Node000014"><a xlink:title=" ">
<path fill="none" stroke="#63b8ff" d="M135.5,-54.75C135.5,-47.8 135.5,-37.85 135.5,-29.13"/>
<polygon fill="#63b8ff" stroke="#63b8ff" points="139,-29.09 135.5,-19.09 132,-29.09 139,-29.09"/>
</a>
</g>
</g>
<!-- Node15&#45;&gt;Node4 -->
<g id="edge17_Node000015_Node000004" class="edge">
<title>Node15&#45;&gt;Node4</title>
<g id="a_edge17_Node000015_Node000004"><a xlink:title=" ">
<path fill="none" stroke="#63b8ff" d="M418.79,-109.98C390.86,-100.73 346.2,-85.94 316.13,-75.98"/>
<polygon fill="#63b8ff" stroke="#63b8ff" points="317.13,-72.62 306.54,-72.8 314.93,-79.27 317.13,-72.62"/>
</a>
</g>
</g>
<!-- Node15&#45;&gt;Node6 -->
<g id="edge18_Node000015_Node000006" class="edge">
<title>Node15&#45;&gt;Node6</title>
<g id="a_edge18_Node000015_Node000006"><a xlink:title=" ">
<path fill="none" stroke="#63b8ff" d="M430.52,-109.98C417.03,-101.77 396.37,-89.18 380.46,-79.49"/>
<polygon fill="#63b8ff" stroke="#63b8ff" points="382.09,-76.38 371.73,-74.17 378.45,-82.36 382.09,-76.38"/>
</a>
</g>
</g>
<!-- Node15&#45;&gt;Node7 -->
<g id="edge22_Node000015_Node000007" class="edge">
<title>Node15&#45;&gt;Node7</title>
<g id="a_edge22_Node000015_Node000007"><a xlink:title=" ">
<path fill="none" stroke="#63b8ff" d="M444.5,-109.75C444.5,-102.8 444.5,-92.85 444.5,-84.13"/>
<polygon fill="#63b8ff" stroke="#63b8ff" points="448,-84.09 444.5,-74.09 441,-84.09 448,-84.09"/>
</a>
</g>
</g>
<!-- Node15&#45;&gt;Node12 -->
<g id="edge20_Node000015_Node000012" class="edge">
<title>Node15&#45;&gt;Node12</title>
<g id="a_edge20_Node000015_Node000012"><a xlink:title=" ">
<path fill="none" stroke="#63b8ff" d="M407.5,-109.99C371.04,-101.57 313.47,-88.23 254.69,-74.27"/>
<polygon fill="#63b8ff" stroke="#63b8ff" points="255.41,-70.84 244.87,-71.93 253.79,-77.65 255.41,-70.84"/>
</a>
</g>
</g>
<!-- Node16 -->
<g id="Node000016" class="node">
<title>Node16</title>
<g id="a_Node000016"><a xlink:title=" ">
<polygon fill="#e0e0e0" stroke="#999999" points="546,-74 499,-74 499,-55 546,-55 546,-74"/>
<text text-anchor="middle" x="522.5" y="-62" font-family="Helvetica,sans-Serif" font-size="10.00">errno.h</text>
</a>
</g>
</g>
<!-- Node15&#45;&gt;Node16 -->
<g id="edge16_Node000015_Node000016" class="edge">
<title>Node15&#45;&gt;Node16</title>
<g id="a_edge16_Node000015_Node000016"><a xlink:title=" ">
<path fill="none" stroke="#63b8ff" d="M457.03,-109.98C468.9,-101.92 486.96,-89.65 501.11,-80.03"/>
<polygon fill="#63b8ff" stroke="#63b8ff" points="503.44,-82.69 509.74,-74.17 499.5,-76.9 503.44,-82.69"/>
</a>
</g>
</g>
<!-- Node17 -->
<g id="Node000017" class="node">
<title>Node17</title>
<g id="a_Node000017"><a xlink:title=" ">
<polygon fill="#e0e0e0" stroke="#999999" points="635,-74 564,-74 564,-55 635,-55 635,-74"/>
<text text-anchor="middle" x="599.5" y="-62" font-family="Helvetica,sans-Serif" font-size="10.00">netinet/tcp.h</text>
</a>
</g>
</g>
<!-- Node15&#45;&gt;Node17 -->
<g id="edge19_Node000015_Node000017" class="edge">
<title>Node15&#45;&gt;Node17</title>
<g id="a_edge19_Node000015_Node000017"><a xlink:title=" ">
<path fill="none" stroke="#63b8ff" d="M469.4,-109.98C495.2,-101.16 535.72,-87.31 564.68,-77.41"/>
<polygon fill="#63b8ff" stroke="#63b8ff" points="566.07,-80.63 574.4,-74.08 563.81,-74.01 566.07,-80.63"/>
</a>
</g>
</g>
<!-- Node18 -->
<g id="Node000018" class="node">
<title>Node18</title>
<g id="a_Node000018"><a xlink:title=" ">
<polygon fill="#e0e0e0" stroke="#999999" points="699.5,-74 653.5,-74 653.5,-55 699.5,-55 699.5,-74"/>
<text text-anchor="middle" x="676.5" y="-62" font-family="Helvetica,sans-Serif" font-size="10.00">stdio.h</text>
</a>
</g>
</g>
<!-- Node15&#45;&gt;Node18 -->
<g id="edge21_Node000015_Node000018" class="edge">
<title>Node15&#45;&gt;Node18</title>
<g id="a_edge21_Node000015_Node000018"><a xlink:title=" ">
<path fill="none" stroke="#63b8ff" d="M485.22,-109.95C523.65,-101.76 583.13,-88.8 643.72,-74.11"/>
<polygon fill="#63b8ff" stroke="#63b8ff" points="644.57,-77.51 653.46,-71.74 642.91,-70.71 644.57,-77.51"/>
</a>
</g>
</g>
<!-- Node19 -->
<g id="Node000019" class="node">
<title>Node19</title>
<g id="a_Node000019"><a xlink:title=" ">
<polygon fill="#e0e0e0" stroke="#999999" points="773.5,-74 717.5,-74 717.5,-55 773.5,-55 773.5,-74"/>
<text text-anchor="middle" x="745.5" y="-62" font-family="Helvetica,sans-Serif" font-size="10.00">sys/uio.h</text>
</a>
</g>
</g>
<!-- Node15&#45;&gt;Node19 -->
<g id="edge23_Node000015_Node000019" class="edge">
<title>Node15&#45;&gt;Node19</title>
<g id="a_edge23_Node000015_Node000019"><a xlink:title=" ">
<path fill="none" stroke="#63b8ff" d="M497.51,-110.5C548.75,-102.56 628.78,-89.61 707.2,-74.16"/>
<polygon fill="#63b8ff" stroke="#63b8ff" points="708.13,-77.55 717.26,-72.17 706.76,-70.68 708.13,-77.55"/>
</a>
</g>
</g>
<!-- Node20 -->
<g id="Node000020" class="node">
<title>Node20</title>
<g id="a_Node000020"><a xlink:title=" ">
<polygon fill="#e0e0e0" stroke="#999999" points="843,-74 792,-74 792,-55 843,-55 843,-74"/>
<text text-anchor="middle" x="817.5" y="-62" font-family="Helvetica,sans-Serif" font-size="10.00">unistd.h</text>
</a>
</g>
</g>
<!-- Node15&#45;&gt;Node20 -->
<g id="edge24_Node000015_Node000020" class="edge">
<title>Node15&#45;&gt;Node20</title>
<g id="a_edge24_Node000015_Node000020"><a xlink:title=" ">
<path fill="none" stroke="#63b8ff" d="M497.77,-111.3C501.06,-110.86 504.33,-110.42 507.5,-110 626.47,-94.19 659.59,-96.44 781.82,-73.93"/>
<polygon fill="#63b8ff" stroke="#63b8ff" points="782.76,-77.31 791.95,-72.04 781.48,-70.43 782.76,-77.31"/>
</a>
</g>
</g>
</g>
</svg>
