<?xml version="1.0" encoding="UTF-8" standalone="no"?>
<!DOCTYPE svg PUBLIC "-//W3C//DTD SVG 1.1//EN"
 "http://www.w3.org/Graphics/SVG/1.1/DTD/svg11.dtd">
<!-- Generated by graphviz version 2.43.0 (0)
 -->
<!-- Title: SocketHTTPServer.h Pages: 1 -->
<!--zoomable 412 -->

<svg id="main" version="1.1" xmlns="http://www.w3.org/2000/svg" xmlns:xlink="http://www.w3.org/1999/xlink" xml:space="preserve" onload="init(evt)">
<style type="text/css"><![CDATA[
.node, .edge {opacity: 0.7;}
.node.selected, .edge.selected {opacity: 1;}
.edge:hover path { stroke: red; }
.edge:hover polygon { stroke: red; fill: red; }
]]></style>

<defs>
  <circle id="rim" cx="0" cy="0" r="7"/>
  <circle id="rim2" cx="0" cy="0" r="3.5"/>
  <g id="zoomPlus">
    <use xlink:href="#rim" fill="#404040"><set attributeName="fill" to="#808080" begin="zoomplus.mouseover" end="zoomplus.mouseout"/></use>
    <path d="M-4,0h8M0,-4v8" fill="none" stroke="white" stroke-width="1.5" pointer-events="none"/>
  </g>
  <g id="zoomMin">
    <use xlink:href="#rim" fill="#404040"><set attributeName="fill" to="#808080" begin="zoomminus.mouseover" end="zoomminus.mouseout"/></use>
    <path d="M-4,0h8" fill="none" stroke="white" stroke-width="1.5" pointer-events="none"/>
  </g>
  <g id="arrowUp" transform="translate(30 24)">
    <use xlink:href="#rim"/>
    <path pointer-events="none" fill="none" stroke="white" stroke-width="1.5" d="M0,-3.0v7 M-2.5,-0.5L0,-3.0L2.5,-0.5"/>
  </g>
  <g id="arrowRight" transform="rotate(90) translate(36 -43)">
    <use xlink:href="#rim"/>
    <path pointer-events="none" fill="none" stroke="white" stroke-width="1.5" d="M0,-3.0v7 M-2.5,-0.5L0,-3.0L2.5,-0.5"/>
  </g>
  <g id="arrowDown" transform="rotate(180) translate(-30 -48)">
    <use xlink:href="#rim"/>
    <path pointer-events="none" fill="none" stroke="white" stroke-width="1.5" d="M0,-3.0v7 M-2.5,-0.5L0,-3.0L2.5,-0.5"/>
  </g>
  <g id="arrowLeft" transform="rotate(270) translate(-36 17)">
    <use xlink:href="#rim"/>
    <path pointer-events="none" fill="none" stroke="white" stroke-width="1.5" d="M0,-3.0v7 M-2.5,-0.5L0,-3.0L2.5,-0.5"/>
  </g>
  <g id="resetDef">
    <use xlink:href="#rim2" fill="#404040"><set attributeName="fill" to="#808080" begin="reset.mouseover" end="reset.mouseout"/></use>
  </g>
</defs>
<script type="application/ecmascript">
var viewWidth = 1514;
var viewHeight = 412;
var sectionId = 'dynsection-0';
</script>
<script type="application/ecmascript" xlink:href="svg.min.js"/>
<svg id="graph" class="graph">
<g id="viewport">
<title>SocketHTTPServer.h</title>
<!-- Node1 -->
<g id="Node000001" class="node">
<title>Node1</title>
<g id="a_Node000001"><a xlink:title="High&#45;level HTTP server supporting HTTP/1.1 and HTTP/2 protocols.">
<polygon fill="#999999" stroke="#666666" points="473,-404 363,-404 363,-385 473,-385 473,-404"/>
<text text-anchor="middle" x="418" y="-392" font-family="Helvetica,sans-Serif" font-size="10.00">SocketHTTPServer.h</text>
</a>
</g>
</g>
<!-- Node2 -->
<g id="Node000002" class="node">
<title>Node2</title>
<g id="a_Node000002"><a xlink:title=" ">
<polygon fill="#e0e0e0" stroke="#999999" points="384,-74 332,-74 332,-55 384,-55 384,-74"/>
<text text-anchor="middle" x="358" y="-62" font-family="Helvetica,sans-Serif" font-size="10.00">stddef.h</text>
</a>
</g>
</g>
<!-- Node1&#45;&gt;Node2 -->
<g id="edge1_Node000001_Node000002" class="edge">
<title>Node1&#45;&gt;Node2</title>
<g id="a_edge1_Node000001_Node000002"><a xlink:title=" ">
<path fill="none" stroke="#63b8ff" d="M362.92,-390.78C249.42,-383.67 0,-359.61 0,-285.5 0,-285.5 0,-285.5 0,-173.5 0,-106.76 230.93,-77.56 321.85,-68.65"/>
<polygon fill="#63b8ff" stroke="#63b8ff" points="322.34,-72.12 331.97,-67.68 321.68,-65.15 322.34,-72.12"/>
</a>
</g>
</g>
<!-- Node3 -->
<g id="Node000003" class="node">
<title>Node3</title>
<g id="a_Node000003"><a xlink:title=" ">
<polygon fill="#e0e0e0" stroke="#999999" points="223.5,-129 174.5,-129 174.5,-110 223.5,-110 223.5,-129"/>
<text text-anchor="middle" x="199" y="-117" font-family="Helvetica,sans-Serif" font-size="10.00">stdint.h</text>
</a>
</g>
</g>
<!-- Node1&#45;&gt;Node3 -->
<g id="edge2_Node000001_Node000003" class="edge">
<title>Node1&#45;&gt;Node3</title>
<g id="a_edge2_Node000001_Node000003"><a xlink:title=" ">
<path fill="none" stroke="#63b8ff" d="M362.78,-392.24C291.36,-387.33 176,-366.82 176,-285.5 176,-285.5 176,-285.5 176,-228.5 176,-196.34 185.88,-159.95 192.69,-138.69"/>
<polygon fill="#63b8ff" stroke="#63b8ff" points="196.06,-139.64 195.9,-129.05 189.42,-137.43 196.06,-139.64"/>
</a>
</g>
</g>
<!-- Node4 -->
<g id="Node000004" class="node">
<title>Node4</title>
<g id="a_Node000004"><a xlink:title=" ">
<polygon fill="#e0e0e0" stroke="#999999" points="890,-129 822,-129 822,-110 890,-110 890,-129"/>
<text text-anchor="middle" x="856" y="-117" font-family="Helvetica,sans-Serif" font-size="10.00">sys/types.h</text>
</a>
</g>
</g>
<!-- Node1&#45;&gt;Node4 -->
<g id="edge3_Node000001_Node000004" class="edge">
<title>Node1&#45;&gt;Node4</title>
<g id="a_edge3_Node000001_Node000004"><a xlink:title=" ">
<path fill="none" stroke="#63b8ff" d="M473.06,-391.86C632.87,-385.72 1090.08,-357.87 1162,-239 1166.37,-231.78 1166.96,-226.83 1162,-220 1146.14,-198.17 979.88,-152.6 899.3,-131.57"/>
<polygon fill="#63b8ff" stroke="#63b8ff" points="900.01,-128.14 889.45,-129.01 898.25,-134.92 900.01,-128.14"/>
</a>
</g>
</g>
<!-- Node5 -->
<g id="Node000005" class="node">
<title>Node5</title>
<g id="a_Node000005"><a xlink:href="Arena_8h.html" target="_top" xlink:title="Arena&#45;based memory allocator for efficient bulk memory management.">
<polygon fill="white" stroke="#666666" points="362,-129 290,-129 290,-110 362,-110 362,-129"/>
<text text-anchor="middle" x="326" y="-117" font-family="Helvetica,sans-Serif" font-size="10.00">core/Arena.h</text>
</a>
</g>
</g>
<!-- Node1&#45;&gt;Node5 -->
<g id="edge4_Node000001_Node000005" class="edge">
<title>Node1&#45;&gt;Node5</title>
<g id="a_edge4_Node000001_Node000005"><a xlink:title=" ">
<path fill="none" stroke="#63b8ff" d="M404.5,-384.92C380.76,-368.66 334,-330.87 334,-285.5 334,-285.5 334,-285.5 334,-228.5 334,-197.1 330.6,-160.71 328.23,-139.2"/>
<polygon fill="#63b8ff" stroke="#63b8ff" points="331.69,-138.7 327.08,-129.16 324.74,-139.5 331.69,-138.7"/>
</a>
</g>
</g>
<!-- Node6 -->
<g id="Node000006" class="node">
<title>Node6</title>
<g id="a_Node000006"><a xlink:href="Except_8h.html" target="_top" xlink:title="Structured exception handling for C with TRY/EXCEPT/FINALLY blocks.">
<polygon fill="white" stroke="#666666" points="604.5,-74 527.5,-74 527.5,-55 604.5,-55 604.5,-74"/>
<text text-anchor="middle" x="566" y="-62" font-family="Helvetica,sans-Serif" font-size="10.00">core/Except.h</text>
</a>
</g>
</g>
<!-- Node1&#45;&gt;Node6 -->
<g id="edge8_Node000001_Node000006" class="edge">
<title>Node1&#45;&gt;Node6</title>
<g id="a_edge8_Node000001_Node000006"><a xlink:title=" ">
<path fill="none" stroke="#63b8ff" d="M451.95,-384.97C495.65,-371.71 566,-341.64 566,-285.5 566,-285.5 566,-285.5 566,-173.5 566,-142.19 566,-105.77 566,-84.23"/>
<polygon fill="#63b8ff" stroke="#63b8ff" points="569.5,-84.18 566,-74.18 562.5,-84.18 569.5,-84.18"/>
</a>
</g>
</g>
<!-- Node8 -->
<g id="Node000008" class="node">
<title>Node8</title>
<g id="a_Node000008"><a xlink:href="SocketRateLimit_8h.html" target="_top" xlink:title="Token bucket rate limiter for controlling operation rates.">
<polygon fill="white" stroke="#666666" points="147.5,-184 28.5,-184 28.5,-165 147.5,-165 147.5,-184"/>
<text text-anchor="middle" x="88" y="-172" font-family="Helvetica,sans-Serif" font-size="10.00">core/SocketRateLimit.h</text>
</a>
</g>
</g>
<!-- Node1&#45;&gt;Node8 -->
<g id="edge9_Node000001_Node000008" class="edge">
<title>Node1&#45;&gt;Node8</title>
<g id="a_edge9_Node000001_Node000008"><a xlink:title=" ">
<path fill="none" stroke="#63b8ff" d="M362.94,-390.03C297.21,-384.86 192.37,-373.05 162,-349 112.2,-309.55 95.38,-230.25 90.16,-194.16"/>
<polygon fill="#63b8ff" stroke="#63b8ff" points="93.6,-193.53 88.84,-184.06 86.66,-194.43 93.6,-193.53"/>
</a>
</g>
</g>
<!-- Node9 -->
<g id="Node000009" class="node">
<title>Node9</title>
<g id="a_Node000009"><a xlink:href="SocketHTTP_8h.html" target="_top" xlink:title="Protocol&#45;agnostic HTTP types, header handling, URI parsing, and utilities.">
<polygon fill="white" stroke="#666666" points="500,-184 400,-184 400,-165 500,-165 500,-184"/>
<text text-anchor="middle" x="450" y="-172" font-family="Helvetica,sans-Serif" font-size="10.00">http/SocketHTTP.h</text>
</a>
</g>
</g>
<!-- Node1&#45;&gt;Node9 -->
<g id="edge14_Node000001_Node000009" class="edge">
<title>Node1&#45;&gt;Node9</title>
<g id="a_edge14_Node000001_Node000009"><a xlink:title=" ">
<path fill="none" stroke="#63b8ff" d="M414.56,-384.78C407.25,-365.04 391.57,-315.48 401,-275 408.21,-244.04 426.5,-211.63 438.58,-192.51"/>
<polygon fill="#63b8ff" stroke="#63b8ff" points="441.58,-194.33 444.09,-184.04 435.71,-190.51 441.58,-194.33"/>
</a>
</g>
</g>
<!-- Node11 -->
<g id="Node000011" class="node">
<title>Node11</title>
<g id="a_Node000011"><a xlink:href="SocketPoll_8h.html" target="_top" xlink:title="Cross&#45;platform high&#45;level interface for monitoring multiple sockets for I/O events.">
<polygon fill="white" stroke="#666666" points="500,-294 410,-294 410,-275 500,-275 500,-294"/>
<text text-anchor="middle" x="455" y="-282" font-family="Helvetica,sans-Serif" font-size="10.00">poll/SocketPoll.h</text>
</a>
</g>
</g>
<!-- Node1&#45;&gt;Node11 -->
<g id="edge21_Node000001_Node000011" class="edge">
<title>Node1&#45;&gt;Node11</title>
<g id="a_edge21_Node000001_Node000011"><a xlink:title=" ">
<path fill="none" stroke="#63b8ff" d="M421.03,-384.66C427.07,-367.01 440.75,-327.09 448.79,-303.64"/>
<polygon fill="#63b8ff" stroke="#63b8ff" points="452.1,-304.75 452.03,-294.16 445.48,-302.48 452.1,-304.75"/>
</a>
</g>
</g>
<!-- Node13 -->
<g id="Node000013" class="node">
<title>Node13</title>
<g id="a_Node000013"><a xlink:href="Socket_8h.html" target="_top" xlink:title="High&#45;level TCP/IP and Unix domain socket interface.">
<polygon fill="white" stroke="#666666" points="758,-239 670,-239 670,-220 758,-220 758,-239"/>
<text text-anchor="middle" x="714" y="-227" font-family="Helvetica,sans-Serif" font-size="10.00">socket/Socket.h</text>
</a>
</g>
</g>
<!-- Node1&#45;&gt;Node13 -->
<g id="edge56_Node000001_Node000013" class="edge">
<title>Node1&#45;&gt;Node13</title>
<g id="a_edge56_Node000001_Node000013"><a xlink:title=" ">
<path fill="none" stroke="#63b8ff" d="M473.24,-390.87C586.65,-384.11 839.04,-361.61 885,-294 889.75,-287.02 890.16,-281.68 885,-275 877.64,-265.48 815.11,-250.92 767.78,-241.07"/>
<polygon fill="#63b8ff" stroke="#63b8ff" points="768.43,-237.64 757.93,-239.05 767.02,-244.49 768.43,-237.64"/>
</a>
</g>
</g>
<!-- Node30 -->
<g id="Node000030" class="node">
<title>Node30</title>
<g id="a_Node000030"><a xlink:href="SocketTLSContext_8h.html" target="_top" xlink:title="TLS context management with secure defaults and certificate handling.">
<polygon fill="white" stroke="#666666" points="737,-349 615,-349 615,-330 737,-330 737,-349"/>
<text text-anchor="middle" x="676" y="-337" font-family="Helvetica,sans-Serif" font-size="10.00">tls/SocketTLSContext.h</text>
</a>
</g>
</g>
<!-- Node1&#45;&gt;Node30 -->
<g id="edge57_Node000001_Node000030" class="edge">
<title>Node1&#45;&gt;Node30</title>
<g id="a_edge57_Node000001_Node000030"><a xlink:title=" ">
<path fill="none" stroke="#63b8ff" d="M459.45,-384.98C504.27,-375.78 575.77,-361.09 624.25,-351.13"/>
<polygon fill="#63b8ff" stroke="#63b8ff" points="625.13,-354.52 634.22,-349.08 623.72,-347.67 625.13,-354.52"/>
</a>
</g>
</g>
<!-- Node5&#45;&gt;Node2 -->
<g id="edge5_Node000005_Node000002" class="edge">
<title>Node5&#45;&gt;Node2</title>
<g id="a_edge5_Node000005_Node000002"><a xlink:title=" ">
<path fill="none" stroke="#63b8ff" d="M331.28,-109.75C335.71,-102.42 342.16,-91.73 347.62,-82.7"/>
<polygon fill="#63b8ff" stroke="#63b8ff" points="350.64,-84.46 352.81,-74.09 344.65,-80.84 350.64,-84.46"/>
</a>
</g>
</g>
<!-- Node5&#45;&gt;Node6 -->
<g id="edge6_Node000005_Node000006" class="edge">
<title>Node5&#45;&gt;Node6</title>
<g id="a_edge6_Node000005_Node000006"><a xlink:title=" ">
<path fill="none" stroke="#63b8ff" d="M362.19,-110.51C403.46,-101.39 471.15,-86.45 517.09,-76.3"/>
<polygon fill="#63b8ff" stroke="#63b8ff" points="518.11,-79.66 527.12,-74.09 516.6,-72.82 518.11,-79.66"/>
</a>
</g>
</g>
<!-- Node7 -->
<g id="Node000007" class="node">
<title>Node7</title>
<g id="a_Node000007"><a xlink:title=" ">
<polygon fill="#e0e0e0" stroke="#999999" points="593,-19 539,-19 539,0 593,0 593,-19"/>
<text text-anchor="middle" x="566" y="-7" font-family="Helvetica,sans-Serif" font-size="10.00">setjmp.h</text>
</a>
</g>
</g>
<!-- Node6&#45;&gt;Node7 -->
<g id="edge7_Node000006_Node000007" class="edge">
<title>Node6&#45;&gt;Node7</title>
<g id="a_edge7_Node000006_Node000007"><a xlink:title=" ">
<path fill="none" stroke="#63b8ff" d="M566,-54.75C566,-47.8 566,-37.85 566,-29.13"/>
<polygon fill="#63b8ff" stroke="#63b8ff" points="569.5,-29.09 566,-19.09 562.5,-29.09 569.5,-29.09"/>
</a>
</g>
</g>
<!-- Node8&#45;&gt;Node2 -->
<g id="edge12_Node000008_Node000002" class="edge">
<title>Node8&#45;&gt;Node2</title>
<g id="a_edge12_Node000008_Node000002"><a xlink:title=" ">
<path fill="none" stroke="#63b8ff" d="M89.89,-164.94C93.43,-151.05 102.44,-123.77 121,-110 152.25,-86.8 263.12,-73.83 321.47,-68.46"/>
<polygon fill="#63b8ff" stroke="#63b8ff" points="322.08,-71.92 331.73,-67.55 321.46,-64.95 322.08,-71.92"/>
</a>
</g>
</g>
<!-- Node8&#45;&gt;Node3 -->
<g id="edge13_Node000008_Node000003" class="edge">
<title>Node8&#45;&gt;Node3</title>
<g id="a_edge13_Node000008_Node000003"><a xlink:title=" ">
<path fill="none" stroke="#63b8ff" d="M105.83,-164.98C123.61,-156.5 151.15,-143.35 171.68,-133.54"/>
<polygon fill="#63b8ff" stroke="#63b8ff" points="173.33,-136.64 180.84,-129.17 170.31,-130.32 173.33,-136.64"/>
</a>
</g>
</g>
<!-- Node8&#45;&gt;Node5 -->
<g id="edge10_Node000008_Node000005" class="edge">
<title>Node8&#45;&gt;Node5</title>
<g id="a_edge10_Node000008_Node000005"><a xlink:title=" ">
<path fill="none" stroke="#63b8ff" d="M126.24,-164.98C168.05,-155.67 235.05,-140.75 279.78,-130.79"/>
<polygon fill="#63b8ff" stroke="#63b8ff" points="280.81,-134.15 289.81,-128.56 279.28,-127.32 280.81,-134.15"/>
</a>
</g>
</g>
<!-- Node8&#45;&gt;Node6 -->
<g id="edge11_Node000008_Node000006" class="edge">
<title>Node8&#45;&gt;Node6</title>
<g id="a_edge11_Node000008_Node000006"><a xlink:title=" ">
<path fill="none" stroke="#63b8ff" d="M95.46,-164.67C108.12,-150.39 135.32,-122.55 165,-110 227.43,-83.6 424.66,-71.68 517.19,-67.44"/>
<polygon fill="#63b8ff" stroke="#63b8ff" points="517.57,-70.93 527.4,-66.98 517.26,-63.93 517.57,-70.93"/>
</a>
</g>
</g>
<!-- Node9&#45;&gt;Node2 -->
<g id="edge15_Node000009_Node000002" class="edge">
<title>Node9&#45;&gt;Node2</title>
<g id="a_edge15_Node000009_Node000002"><a xlink:title=" ">
<path fill="none" stroke="#63b8ff" d="M441.65,-164.79C433.24,-155.94 419.96,-141.74 409,-129 395.66,-113.5 381.12,-95.25 370.99,-82.3"/>
<polygon fill="#63b8ff" stroke="#63b8ff" points="373.65,-80.02 364.75,-74.28 368.13,-84.32 373.65,-80.02"/>
</a>
</g>
</g>
<!-- Node9&#45;&gt;Node3 -->
<g id="edge16_Node000009_Node000003" class="edge">
<title>Node9&#45;&gt;Node3</title>
<g id="a_edge16_Node000009_Node000003"><a xlink:title=" ">
<path fill="none" stroke="#63b8ff" d="M409.67,-164.98C360.84,-154.67 279.45,-137.49 233.43,-127.77"/>
<polygon fill="#63b8ff" stroke="#63b8ff" points="234.14,-124.34 223.63,-125.7 232.69,-131.19 234.14,-124.34"/>
</a>
</g>
</g>
<!-- Node9&#45;&gt;Node4 -->
<g id="edge17_Node000009_Node000004" class="edge">
<title>Node9&#45;&gt;Node4</title>
<g id="a_edge17_Node000009_Node000004"><a xlink:title=" ">
<path fill="none" stroke="#63b8ff" d="M500.07,-168.53C568.25,-161.51 694.32,-147.61 811.55,-129.13"/>
<polygon fill="#63b8ff" stroke="#63b8ff" points="812.45,-132.53 821.77,-127.5 811.35,-125.62 812.45,-132.53"/>
</a>
</g>
</g>
<!-- Node9&#45;&gt;Node5 -->
<g id="edge19_Node000009_Node000005" class="edge">
<title>Node9&#45;&gt;Node5</title>
<g id="a_edge19_Node000009_Node000005"><a xlink:title=" ">
<path fill="none" stroke="#63b8ff" d="M430.08,-164.98C409.95,-156.38 378.62,-142.99 355.59,-133.15"/>
<polygon fill="#63b8ff" stroke="#63b8ff" points="356.86,-129.88 346.29,-129.17 354.1,-136.32 356.86,-129.88"/>
</a>
</g>
</g>
<!-- Node9&#45;&gt;Node6 -->
<g id="edge20_Node000009_Node000006" class="edge">
<title>Node9&#45;&gt;Node6</title>
<g id="a_edge20_Node000009_Node000006"><a xlink:title=" ">
<path fill="none" stroke="#63b8ff" d="M458.5,-164.67C470.57,-152.21 493.51,-128.88 514,-110 524.92,-99.93 537.58,-89.09 547.67,-80.62"/>
<polygon fill="#63b8ff" stroke="#63b8ff" points="550,-83.23 555.44,-74.14 545.52,-77.86 550,-83.23"/>
</a>
</g>
</g>
<!-- Node10 -->
<g id="Node000010" class="node">
<title>Node10</title>
<g id="a_Node000010"><a xlink:title=" ">
<polygon fill="#e0e0e0" stroke="#999999" points="462,-129 418,-129 418,-110 462,-110 462,-129"/>
<text text-anchor="middle" x="440" y="-117" font-family="Helvetica,sans-Serif" font-size="10.00">time.h</text>
</a>
</g>
</g>
<!-- Node9&#45;&gt;Node10 -->
<g id="edge18_Node000009_Node000010" class="edge">
<title>Node9&#45;&gt;Node10</title>
<g id="a_edge18_Node000009_Node000010"><a xlink:title=" ">
<path fill="none" stroke="#63b8ff" d="M448.35,-164.75C447.04,-157.8 445.16,-147.85 443.52,-139.13"/>
<polygon fill="#63b8ff" stroke="#63b8ff" points="446.91,-138.27 441.62,-129.09 440.04,-139.56 446.91,-138.27"/>
</a>
</g>
</g>
<!-- Node11&#45;&gt;Node6 -->
<g id="edge22_Node000011_Node000006" class="edge">
<title>Node11&#45;&gt;Node6</title>
<g id="a_edge22_Node000011_Node000006"><a xlink:title=" ">
<path fill="none" stroke="#63b8ff" d="M459.91,-274.79C469.58,-257.58 491.64,-217.95 509,-184 527.03,-148.75 546.79,-106.87 557.66,-83.53"/>
<polygon fill="#63b8ff" stroke="#63b8ff" points="560.96,-84.74 562,-74.19 554.61,-81.79 560.96,-84.74"/>
</a>
</g>
</g>
<!-- Node12 -->
<g id="Node000012" class="node">
<title>Node12</title>
<g id="a_Node000012"><a xlink:href="SocketTimer_8h.html" target="_top" xlink:title="High&#45;performance timer subsystem integrated with the event loop.">
<polygon fill="white" stroke="#666666" points="305.5,-184 204.5,-184 204.5,-165 305.5,-165 305.5,-184"/>
<text text-anchor="middle" x="255" y="-172" font-family="Helvetica,sans-Serif" font-size="10.00">core/SocketTimer.h</text>
</a>
</g>
</g>
<!-- Node11&#45;&gt;Node12 -->
<g id="edge23_Node000011_Node000012" class="edge">
<title>Node11&#45;&gt;Node12</title>
<g id="a_edge23_Node000011_Node000012"><a xlink:title=" ">
<path fill="none" stroke="#63b8ff" d="M438.97,-274.84C404.14,-256.04 321.36,-211.33 279.76,-188.87"/>
<polygon fill="#63b8ff" stroke="#63b8ff" points="281.29,-185.72 270.83,-184.05 277.96,-191.88 281.29,-185.72"/>
</a>
</g>
</g>
<!-- Node11&#45;&gt;Node13 -->
<g id="edge26_Node000011_Node000013" class="edge">
<title>Node11&#45;&gt;Node13</title>
<g id="a_edge26_Node000011_Node000013"><a xlink:title=" ">
<path fill="none" stroke="#63b8ff" d="M496.61,-274.98C541.6,-265.78 613.39,-251.09 662.05,-241.13"/>
<polygon fill="#63b8ff" stroke="#63b8ff" points="662.97,-244.52 672.06,-239.08 661.56,-237.66 662.97,-244.52"/>
</a>
</g>
</g>
<!-- Node12&#45;&gt;Node3 -->
<g id="edge25_Node000012_Node000003" class="edge">
<title>Node12&#45;&gt;Node3</title>
<g id="a_edge25_Node000012_Node000003"><a xlink:title=" ">
<path fill="none" stroke="#63b8ff" d="M246,-164.98C237.81,-157.23 225.49,-145.58 215.53,-136.14"/>
<polygon fill="#63b8ff" stroke="#63b8ff" points="217.83,-133.5 208.16,-129.17 213.02,-138.59 217.83,-133.5"/>
</a>
</g>
</g>
<!-- Node12&#45;&gt;Node6 -->
<g id="edge24_Node000012_Node000006" class="edge">
<title>Node12&#45;&gt;Node6</title>
<g id="a_edge24_Node000012_Node000006"><a xlink:title=" ">
<path fill="none" stroke="#63b8ff" d="M255.87,-164.93C257.77,-151.03 263.61,-123.73 281,-110 316.77,-81.75 445.79,-71.17 517.35,-67.42"/>
<polygon fill="#63b8ff" stroke="#63b8ff" points="517.66,-70.91 527.47,-66.92 517.31,-63.92 517.66,-70.91"/>
</a>
</g>
</g>
<!-- Node13&#45;&gt;Node6 -->
<g id="edge27_Node000013_Node000006" class="edge">
<title>Node13&#45;&gt;Node6</title>
<g id="a_edge27_Node000013_Node000006"><a xlink:title=" ">
<path fill="none" stroke="#63b8ff" d="M711.87,-219.92C706.23,-198.7 688.97,-143.11 656,-110 641.57,-95.52 621.48,-84.96 603.93,-77.78"/>
<polygon fill="#63b8ff" stroke="#63b8ff" points="605.09,-74.47 594.5,-74.13 602.56,-81 605.09,-74.47"/>
</a>
</g>
</g>
<!-- Node14 -->
<g id="Node000014" class="node">
<title>Node14</title>
<g id="a_Node000014"><a xlink:href="SocketConfig_8h.html" target="_top" xlink:title="Compile&#45;time and runtime configuration constants, limits, and platform adaptations.">
<polygon fill="white" stroke="#666666" points="1128,-129 1022,-129 1022,-110 1128,-110 1128,-129"/>
<text text-anchor="middle" x="1075" y="-117" font-family="Helvetica,sans-Serif" font-size="10.00">core/SocketConfig.h</text>
</a>
</g>
</g>
<!-- Node13&#45;&gt;Node14 -->
<g id="edge28_Node000013_Node000014" class="edge">
<title>Node13&#45;&gt;Node14</title>
<g id="a_edge28_Node000013_Node000014"><a xlink:title=" ">
<path fill="none" stroke="#63b8ff" d="M742.63,-219.94C807.13,-200.64 963.88,-153.74 1036.67,-131.97"/>
<polygon fill="#63b8ff" stroke="#63b8ff" points="1037.79,-135.29 1046.37,-129.07 1035.78,-128.58 1037.79,-135.29"/>
</a>
</g>
</g>
<!-- Node23 -->
<g id="Node000023" class="node">
<title>Node23</title>
<g id="a_Node000023"><a xlink:href="SocketDNS_8h.html" target="_top" xlink:title="Asynchronous DNS resolution API for non&#45;blocking network applications.">
<polygon fill="white" stroke="#666666" points="804,-129 708,-129 708,-110 804,-110 804,-129"/>
<text text-anchor="middle" x="756" y="-117" font-family="Helvetica,sans-Serif" font-size="10.00">dns/SocketDNS.h</text>
</a>
</g>
</g>
<!-- Node13&#45;&gt;Node23 -->
<g id="edge38_Node000013_Node000023" class="edge">
<title>Node13&#45;&gt;Node23</title>
<g id="a_edge38_Node000013_Node000023"><a xlink:title=" ">
<path fill="none" stroke="#63b8ff" d="M717.44,-219.66C724.3,-202.01 739.83,-162.09 748.95,-138.64"/>
<polygon fill="#63b8ff" stroke="#63b8ff" points="752.27,-139.75 752.63,-129.16 745.75,-137.21 752.27,-139.75"/>
</a>
</g>
</g>
<!-- Node25 -->
<g id="Node000025" class="node">
<title>Node25</title>
<g id="a_Node000025"><a xlink:href="SocketCommon_8h.html" target="_top" xlink:title="Common utilities shared between Socket and SocketDgram modules.">
<polygon fill="white" stroke="#666666" points="1225,-184 1097,-184 1097,-165 1225,-165 1225,-184"/>
<text text-anchor="middle" x="1161" y="-172" font-family="Helvetica,sans-Serif" font-size="10.00">socket/SocketCommon.h</text>
</a>
</g>
</g>
<!-- Node13&#45;&gt;Node25 -->
<g id="edge43_Node000013_Node000025" class="edge">
<title>Node13&#45;&gt;Node25</title>
<g id="a_edge43_Node000013_Node000025"><a xlink:title=" ">
<path fill="none" stroke="#63b8ff" d="M758.22,-221.25C761.19,-220.81 764.14,-220.39 767,-220 797.81,-215.79 981.37,-195.36 1086.74,-183.7"/>
<polygon fill="#63b8ff" stroke="#63b8ff" points="1087.13,-187.18 1096.68,-182.6 1086.36,-180.22 1087.13,-187.18"/>
</a>
</g>
</g>
<!-- Node14&#45;&gt;Node2 -->
<g id="edge33_Node000014_Node000002" class="edge">
<title>Node14&#45;&gt;Node2</title>
<g id="a_edge33_Node000014_Node000002"><a xlink:title=" ">
<path fill="none" stroke="#63b8ff" d="M1021.99,-114.58C883.28,-104.33 512.27,-76.9 394.44,-68.19"/>
<polygon fill="#63b8ff" stroke="#63b8ff" points="394.4,-64.68 384.16,-67.43 393.88,-71.66 394.4,-64.68"/>
</a>
</g>
</g>
<!-- Node15 -->
<g id="Node000015" class="node">
<title>Node15</title>
<g id="a_Node000015"><a xlink:title=" ">
<polygon fill="#e0e0e0" stroke="#999999" points="1121.5,-74 1074.5,-74 1074.5,-55 1121.5,-55 1121.5,-74"/>
<text text-anchor="middle" x="1098" y="-62" font-family="Helvetica,sans-Serif" font-size="10.00">errno.h</text>
</a>
</g>
</g>
<!-- Node14&#45;&gt;Node15 -->
<g id="edge29_Node000014_Node000015" class="edge">
<title>Node14&#45;&gt;Node15</title>
<g id="a_edge29_Node000014_Node000015"><a xlink:title=" ">
<path fill="none" stroke="#63b8ff" d="M1078.8,-109.75C1081.91,-102.57 1086.42,-92.18 1090.29,-83.27"/>
<polygon fill="#63b8ff" stroke="#63b8ff" points="1093.5,-84.66 1094.27,-74.09 1087.08,-81.87 1093.5,-84.66"/>
</a>
</g>
</g>
<!-- Node16 -->
<g id="Node000016" class="node">
<title>Node16</title>
<g id="a_Node000016"><a xlink:title=" ">
<polygon fill="#e0e0e0" stroke="#999999" points="1273,-74 1229,-74 1229,-55 1273,-55 1273,-74"/>
<text text-anchor="middle" x="1251" y="-62" font-family="Helvetica,sans-Serif" font-size="10.00">fcntl.h</text>
</a>
</g>
</g>
<!-- Node14&#45;&gt;Node16 -->
<g id="edge30_Node000014_Node000016" class="edge">
<title>Node14&#45;&gt;Node16</title>
<g id="a_edge30_Node000014_Node000016"><a xlink:title=" ">
<path fill="none" stroke="#63b8ff" d="M1103.28,-109.98C1134.98,-100.44 1186.26,-85 1219.3,-75.05"/>
<polygon fill="#63b8ff" stroke="#63b8ff" points="1220.36,-78.38 1228.92,-72.15 1218.34,-71.68 1220.36,-78.38"/>
</a>
</g>
</g>
<!-- Node17 -->
<g id="Node000017" class="node">
<title>Node17</title>
<g id="a_Node000017"><a xlink:title=" ">
<polygon fill="#e0e0e0" stroke="#999999" points="1356.5,-74 1291.5,-74 1291.5,-55 1356.5,-55 1356.5,-74"/>
<text text-anchor="middle" x="1324" y="-62" font-family="Helvetica,sans-Serif" font-size="10.00">netinet/in.h</text>
</a>
</g>
</g>
<!-- Node14&#45;&gt;Node17 -->
<g id="edge31_Node000014_Node000017" class="edge">
<title>Node14&#45;&gt;Node17</title>
<g id="a_edge31_Node000014_Node000017"><a xlink:title=" ">
<path fill="none" stroke="#63b8ff" d="M1115.01,-109.98C1160.6,-100.28 1234.82,-84.48 1281.45,-74.56"/>
<polygon fill="#63b8ff" stroke="#63b8ff" points="1282.2,-77.98 1291.25,-72.47 1280.74,-71.13 1282.2,-77.98"/>
</a>
</g>
</g>
<!-- Node18 -->
<g id="Node000018" class="node">
<title>Node18</title>
<g id="a_Node000018"><a xlink:title=" ">
<polygon fill="#e0e0e0" stroke="#999999" points="1210.5,-74 1139.5,-74 1139.5,-55 1210.5,-55 1210.5,-74"/>
<text text-anchor="middle" x="1175" y="-62" font-family="Helvetica,sans-Serif" font-size="10.00">netinet/tcp.h</text>
</a>
</g>
</g>
<!-- Node14&#45;&gt;Node18 -->
<g id="edge32_Node000014_Node000018" class="edge">
<title>Node14&#45;&gt;Node18</title>
<g id="a_edge32_Node000014_Node000018"><a xlink:title=" ">
<path fill="none" stroke="#63b8ff" d="M1091.07,-109.98C1106.86,-101.61 1131.22,-88.7 1149.63,-78.95"/>
<polygon fill="#63b8ff" stroke="#63b8ff" points="1151.44,-81.95 1158.64,-74.17 1148.17,-75.76 1151.44,-81.95"/>
</a>
</g>
</g>
<!-- Node19 -->
<g id="Node000019" class="node">
<title>Node19</title>
<g id="a_Node000019"><a xlink:title=" ">
<polygon fill="#e0e0e0" stroke="#999999" points="913,-74 867,-74 867,-55 913,-55 913,-74"/>
<text text-anchor="middle" x="890" y="-62" font-family="Helvetica,sans-Serif" font-size="10.00">stdio.h</text>
</a>
</g>
</g>
<!-- Node14&#45;&gt;Node19 -->
<g id="edge34_Node000014_Node000019" class="edge">
<title>Node14&#45;&gt;Node19</title>
<g id="a_edge34_Node000014_Node000019"><a xlink:title=" ">
<path fill="none" stroke="#63b8ff" d="M1045.28,-109.98C1011.81,-100.4 957.59,-84.86 922.88,-74.92"/>
<polygon fill="#63b8ff" stroke="#63b8ff" points="923.79,-71.54 913.21,-72.15 921.86,-78.27 923.79,-71.54"/>
</a>
</g>
</g>
<!-- Node20 -->
<g id="Node000020" class="node">
<title>Node20</title>
<g id="a_Node000020"><a xlink:title=" ">
<polygon fill="#e0e0e0" stroke="#999999" points="848.5,-74 775.5,-74 775.5,-55 848.5,-55 848.5,-74"/>
<text text-anchor="middle" x="812" y="-62" font-family="Helvetica,sans-Serif" font-size="10.00">sys/socket.h</text>
</a>
</g>
</g>
<!-- Node14&#45;&gt;Node20 -->
<g id="edge35_Node000014_Node000020" class="edge">
<title>Node14&#45;&gt;Node20</title>
<g id="a_edge35_Node000014_Node000020"><a xlink:title=" ">
<path fill="none" stroke="#63b8ff" d="M1032.74,-109.98C985.16,-100.4 908.06,-84.86 858.72,-74.92"/>
<polygon fill="#63b8ff" stroke="#63b8ff" points="859.13,-71.43 848.64,-72.88 857.75,-78.29 859.13,-71.43"/>
</a>
</g>
</g>
<!-- Node21 -->
<g id="Node000021" class="node">
<title>Node21</title>
<g id="a_Node000021"><a xlink:title=" ">
<polygon fill="#e0e0e0" stroke="#999999" points="987,-74 931,-74 931,-55 987,-55 987,-74"/>
<text text-anchor="middle" x="959" y="-62" font-family="Helvetica,sans-Serif" font-size="10.00">sys/uio.h</text>
</a>
</g>
</g>
<!-- Node14&#45;&gt;Node21 -->
<g id="edge36_Node000014_Node000021" class="edge">
<title>Node14&#45;&gt;Node21</title>
<g id="a_edge36_Node000014_Node000021"><a xlink:title=" ">
<path fill="none" stroke="#63b8ff" d="M1056.36,-109.98C1037.7,-101.46 1008.75,-88.23 987.26,-78.41"/>
<polygon fill="#63b8ff" stroke="#63b8ff" points="988.53,-75.14 977.98,-74.17 985.62,-81.51 988.53,-75.14"/>
</a>
</g>
</g>
<!-- Node22 -->
<g id="Node000022" class="node">
<title>Node22</title>
<g id="a_Node000022"><a xlink:title=" ">
<polygon fill="#e0e0e0" stroke="#999999" points="1056.5,-74 1005.5,-74 1005.5,-55 1056.5,-55 1056.5,-74"/>
<text text-anchor="middle" x="1031" y="-62" font-family="Helvetica,sans-Serif" font-size="10.00">unistd.h</text>
</a>
</g>
</g>
<!-- Node14&#45;&gt;Node22 -->
<g id="edge37_Node000014_Node000022" class="edge">
<title>Node14&#45;&gt;Node22</title>
<g id="a_edge37_Node000014_Node000022"><a xlink:title=" ">
<path fill="none" stroke="#63b8ff" d="M1067.73,-109.75C1061.46,-102.18 1052.21,-91.05 1044.57,-81.84"/>
<polygon fill="#63b8ff" stroke="#63b8ff" points="1047.21,-79.55 1038.13,-74.09 1041.83,-84.02 1047.21,-79.55"/>
</a>
</g>
</g>
<!-- Node23&#45;&gt;Node2 -->
<g id="edge41_Node000023_Node000002" class="edge">
<title>Node23&#45;&gt;Node2</title>
<g id="a_edge41_Node000023_Node000002"><a xlink:title=" ">
<path fill="none" stroke="#63b8ff" d="M707.99,-112.11C627.2,-101.35 465.85,-79.86 393.98,-70.29"/>
<polygon fill="#63b8ff" stroke="#63b8ff" points="394.42,-66.82 384.04,-68.97 393.49,-73.76 394.42,-66.82"/>
</a>
</g>
</g>
<!-- Node23&#45;&gt;Node6 -->
<g id="edge39_Node000023_Node000006" class="edge">
<title>Node23&#45;&gt;Node6</title>
<g id="a_edge39_Node000023_Node000006"><a xlink:title=" ">
<path fill="none" stroke="#63b8ff" d="M725.47,-109.98C693.3,-101.01 642.44,-86.82 606.83,-76.89"/>
<polygon fill="#63b8ff" stroke="#63b8ff" points="607.34,-73.4 596.77,-74.08 605.46,-80.14 607.34,-73.4"/>
</a>
</g>
</g>
<!-- Node23&#45;&gt;Node20 -->
<g id="edge42_Node000023_Node000020" class="edge">
<title>Node23&#45;&gt;Node20</title>
<g id="a_edge42_Node000023_Node000020"><a xlink:title=" ">
<path fill="none" stroke="#63b8ff" d="M765,-109.98C773.19,-102.23 785.51,-90.58 795.47,-81.14"/>
<polygon fill="#63b8ff" stroke="#63b8ff" points="797.98,-83.59 802.84,-74.17 793.17,-78.5 797.98,-83.59"/>
</a>
</g>
</g>
<!-- Node24 -->
<g id="Node000024" class="node">
<title>Node24</title>
<g id="a_Node000024"><a xlink:title=" ">
<polygon fill="#e0e0e0" stroke="#999999" points="757.5,-74 708.5,-74 708.5,-55 757.5,-55 757.5,-74"/>
<text text-anchor="middle" x="733" y="-62" font-family="Helvetica,sans-Serif" font-size="10.00">netdb.h</text>
</a>
</g>
</g>
<!-- Node23&#45;&gt;Node24 -->
<g id="edge40_Node000023_Node000024" class="edge">
<title>Node23&#45;&gt;Node24</title>
<g id="a_edge40_Node000023_Node000024"><a xlink:title=" ">
<path fill="none" stroke="#63b8ff" d="M752.2,-109.75C749.09,-102.57 744.58,-92.18 740.71,-83.27"/>
<polygon fill="#63b8ff" stroke="#63b8ff" points="743.92,-81.87 736.73,-74.09 737.5,-84.66 743.92,-81.87"/>
</a>
</g>
</g>
<!-- Node25&#45;&gt;Node4 -->
<g id="edge51_Node000025_Node000004" class="edge">
<title>Node25&#45;&gt;Node4</title>
<g id="a_edge51_Node000025_Node000004"><a xlink:title=" ">
<path fill="none" stroke="#63b8ff" d="M1111.24,-164.94C1059.46,-156.02 976.03,-141.61 904,-129 902.73,-128.78 901.45,-128.55 900.15,-128.33"/>
<polygon fill="#63b8ff" stroke="#63b8ff" points="900.54,-124.84 890.09,-126.55 899.33,-131.73 900.54,-124.84"/>
</a>
</g>
</g>
<!-- Node25&#45;&gt;Node5 -->
<g id="edge53_Node000025_Node000005" class="edge">
<title>Node25&#45;&gt;Node5</title>
<g id="a_edge53_Node000025_Node000005"><a xlink:title=" ">
<path fill="none" stroke="#63b8ff" d="M1096.56,-170.62C966.46,-164.6 663.2,-149.53 409,-129 397.16,-128.04 384.4,-126.83 372.51,-125.62"/>
<polygon fill="#63b8ff" stroke="#63b8ff" points="372.64,-122.11 362.33,-124.56 371.92,-129.08 372.64,-122.11"/>
</a>
</g>
</g>
<!-- Node25&#45;&gt;Node6 -->
<g id="edge54_Node000025_Node000006" class="edge">
<title>Node25&#45;&gt;Node6</title>
<g id="a_edge54_Node000025_Node000006"><a xlink:title=" ">
<path fill="none" stroke="#63b8ff" d="M1096.77,-166.78C1049.99,-160.52 985.69,-149.04 932,-129 916.14,-123.08 915.02,-115.45 899,-110 847.47,-92.49 694.11,-76.86 614.76,-69.67"/>
<polygon fill="#63b8ff" stroke="#63b8ff" points="614.81,-66.17 604.54,-68.76 614.19,-73.14 614.81,-66.17"/>
</a>
</g>
</g>
<!-- Node25&#45;&gt;Node14 -->
<g id="edge55_Node000025_Node000014" class="edge">
<title>Node25&#45;&gt;Node14</title>
<g id="a_edge55_Node000025_Node000014"><a xlink:title=" ">
<path fill="none" stroke="#63b8ff" d="M1147.18,-164.98C1133.85,-156.77 1113.42,-144.18 1097.69,-134.49"/>
<polygon fill="#63b8ff" stroke="#63b8ff" points="1099.42,-131.44 1089.07,-129.17 1095.75,-137.4 1099.42,-131.44"/>
</a>
</g>
</g>
<!-- Node25&#45;&gt;Node16 -->
<g id="edge46_Node000025_Node000016" class="edge">
<title>Node25&#45;&gt;Node16</title>
<g id="a_edge46_Node000025_Node000016"><a xlink:title=" ">
<path fill="none" stroke="#63b8ff" d="M1161.66,-164.83C1163.06,-151.73 1167.31,-126.66 1180,-110 1190.31,-96.46 1206.03,-86 1220.06,-78.63"/>
<polygon fill="#63b8ff" stroke="#63b8ff" points="1221.98,-81.59 1229.41,-74.03 1218.89,-75.31 1221.98,-81.59"/>
</a>
</g>
</g>
<!-- Node25&#45;&gt;Node17 -->
<g id="edge48_Node000025_Node000017" class="edge">
<title>Node25&#45;&gt;Node17</title>
<g id="a_edge48_Node000025_Node000017"><a xlink:title=" ">
<path fill="none" stroke="#63b8ff" d="M1166.01,-164.94C1174.25,-151.53 1191.86,-125.51 1213,-110 1233.47,-94.98 1259.71,-84.16 1281.53,-76.95"/>
<polygon fill="#63b8ff" stroke="#63b8ff" points="1282.74,-80.24 1291.22,-73.89 1280.63,-73.57 1282.74,-80.24"/>
</a>
</g>
</g>
<!-- Node25&#45;&gt;Node20 -->
<g id="edge49_Node000025_Node000020" class="edge">
<title>Node25&#45;&gt;Node20</title>
<g id="a_edge49_Node000025_Node000020"><a xlink:title=" ">
<path fill="none" stroke="#63b8ff" d="M1128.57,-165C1098.33,-156.78 1052.13,-143.47 1013,-129 993.4,-121.76 989.66,-117.07 970,-110 932.86,-96.64 889.65,-84.71 857.82,-76.57"/>
<polygon fill="#63b8ff" stroke="#63b8ff" points="858.46,-73.12 847.91,-74.07 856.75,-79.91 858.46,-73.12"/>
</a>
</g>
</g>
<!-- Node25&#45;&gt;Node24 -->
<g id="edge47_Node000025_Node000024" class="edge">
<title>Node25&#45;&gt;Node24</title>
<g id="a_edge47_Node000025_Node000024"><a xlink:title=" ">
<path fill="none" stroke="#63b8ff" d="M1109.8,-164.96C1070.79,-157.64 1016.12,-145.64 970,-129 952.24,-122.59 949.81,-116.28 932,-110 864.12,-86.05 841.9,-90.66 767.68,-74.06"/>
<polygon fill="#63b8ff" stroke="#63b8ff" points="768.39,-70.63 757.86,-71.81 766.83,-77.45 768.39,-70.63"/>
</a>
</g>
</g>
<!-- Node26 -->
<g id="Node000026" class="node">
<title>Node26</title>
<g id="a_Node000026"><a xlink:title=" ">
<polygon fill="#e0e0e0" stroke="#999999" points="1505.5,-129 1448.5,-129 1448.5,-110 1505.5,-110 1505.5,-129"/>
<text text-anchor="middle" x="1477" y="-117" font-family="Helvetica,sans-Serif" font-size="10.00">pthread.h</text>
</a>
</g>
</g>
<!-- Node25&#45;&gt;Node26 -->
<g id="edge44_Node000025_Node000026" class="edge">
<title>Node25&#45;&gt;Node26</title>
<g id="a_edge44_Node000025_Node000026"><a xlink:title=" ">
<path fill="none" stroke="#63b8ff" d="M1221.11,-164.97C1275.34,-157.02 1357.51,-144.37 1438.53,-128.98"/>
<polygon fill="#63b8ff" stroke="#63b8ff" points="1439.24,-132.41 1448.41,-127.09 1437.93,-125.54 1439.24,-132.41"/>
</a>
</g>
</g>
<!-- Node27 -->
<g id="Node000027" class="node">
<title>Node27</title>
<g id="a_Node000027"><a xlink:title=" ">
<polygon fill="#e0e0e0" stroke="#999999" points="1278,-129 1222,-129 1222,-110 1278,-110 1278,-129"/>
<text text-anchor="middle" x="1250" y="-117" font-family="Helvetica,sans-Serif" font-size="10.00">stdbool.h</text>
</a>
</g>
</g>
<!-- Node25&#45;&gt;Node27 -->
<g id="edge45_Node000025_Node000027" class="edge">
<title>Node25&#45;&gt;Node27</title>
<g id="a_edge45_Node000025_Node000027"><a xlink:title=" ">
<path fill="none" stroke="#63b8ff" d="M1175.3,-164.98C1189.1,-156.77 1210.24,-144.18 1226.51,-134.49"/>
<polygon fill="#63b8ff" stroke="#63b8ff" points="1228.64,-137.29 1235.44,-129.17 1225.06,-131.28 1228.64,-137.29"/>
</a>
</g>
</g>
<!-- Node28 -->
<g id="Node000028" class="node">
<title>Node28</title>
<g id="a_Node000028"><a xlink:title=" ">
<polygon fill="#e0e0e0" stroke="#999999" points="1358,-129 1296,-129 1296,-110 1358,-110 1358,-129"/>
<text text-anchor="middle" x="1327" y="-117" font-family="Helvetica,sans-Serif" font-size="10.00">sys/time.h</text>
</a>
</g>
</g>
<!-- Node25&#45;&gt;Node28 -->
<g id="edge50_Node000025_Node000028" class="edge">
<title>Node25&#45;&gt;Node28</title>
<g id="a_edge50_Node000025_Node000028"><a xlink:title=" ">
<path fill="none" stroke="#63b8ff" d="M1187.67,-164.98C1215.54,-156.09 1259.45,-142.07 1290.52,-132.15"/>
<polygon fill="#63b8ff" stroke="#63b8ff" points="1291.66,-135.46 1300.12,-129.08 1289.53,-128.79 1291.66,-135.46"/>
</a>
</g>
</g>
<!-- Node29 -->
<g id="Node000029" class="node">
<title>Node29</title>
<g id="a_Node000029"><a xlink:title=" ">
<polygon fill="#e0e0e0" stroke="#999999" points="1430,-129 1376,-129 1376,-110 1430,-110 1430,-129"/>
<text text-anchor="middle" x="1403" y="-117" font-family="Helvetica,sans-Serif" font-size="10.00">sys/un.h</text>
</a>
</g>
</g>
<!-- Node25&#45;&gt;Node29 -->
<g id="edge52_Node000025_Node000029" class="edge">
<title>Node25&#45;&gt;Node29</title>
<g id="a_edge52_Node000025_Node000029"><a xlink:title=" ">
<path fill="none" stroke="#63b8ff" d="M1201.7,-164.95C1241.18,-156.6 1303.04,-143.38 1365.81,-129.24"/>
<polygon fill="#63b8ff" stroke="#63b8ff" points="1366.9,-132.58 1375.89,-126.96 1365.36,-125.75 1366.9,-132.58"/>
</a>
</g>
</g>
<!-- Node30&#45;&gt;Node5 -->
<g id="edge58_Node000030_Node000005" class="edge">
<title>Node30&#45;&gt;Node5</title>
<g id="a_edge58_Node000030_Node000005"><a xlink:title=" ">
<path fill="none" stroke="#63b8ff" d="M655.84,-329.99C607.55,-309.09 482.46,-252 391,-184 371.92,-169.81 352.78,-150.32 340.26,-136.69"/>
<polygon fill="#63b8ff" stroke="#63b8ff" points="342.67,-134.14 333.38,-129.06 337.47,-138.83 342.67,-134.14"/>
</a>
</g>
</g>
<!-- Node30&#45;&gt;Node6 -->
<g id="edge59_Node000030_Node000006" class="edge">
<title>Node30&#45;&gt;Node6</title>
<g id="a_edge59_Node000030_Node000006"><a xlink:title=" ">
<path fill="none" stroke="#63b8ff" d="M662.16,-329.89C650.42,-321.93 633.96,-309.07 624,-294 607.68,-269.32 604,-260.09 604,-230.5 604,-230.5 604,-230.5 604,-173.5 604,-140.02 587.55,-103.84 576.3,-83.01"/>
<polygon fill="#63b8ff" stroke="#63b8ff" points="579.24,-81.1 571.28,-74.1 573.13,-84.53 579.24,-81.1"/>
</a>
</g>
</g>
<!-- Node31 -->
<g id="Node000031" class="node">
<title>Node31</title>
<g id="a_Node000031"><a xlink:href="SocketTLS_8h.html" target="_top" xlink:title="High&#45;level TLS/SSL integration for secure Socket I/O with TLS 1.3 enforcement.">
<polygon fill="white" stroke="#666666" points="719.5,-294 632.5,-294 632.5,-275 719.5,-275 719.5,-294"/>
<text text-anchor="middle" x="676" y="-282" font-family="Helvetica,sans-Serif" font-size="10.00">tls/SocketTLS.h</text>
</a>
</g>
</g>
<!-- Node30&#45;&gt;Node31 -->
<g id="edge60_Node000030_Node000031" class="edge">
<title>Node30&#45;&gt;Node31</title>
<g id="a_edge60_Node000030_Node000031"><a xlink:title=" ">
<path fill="none" stroke="#63b8ff" d="M676,-329.75C676,-322.8 676,-312.85 676,-304.13"/>
<polygon fill="#63b8ff" stroke="#63b8ff" points="679.5,-304.09 676,-294.09 672.5,-304.09 679.5,-304.09"/>
</a>
</g>
</g>
<!-- Node32 -->
<g id="Node000032" class="node">
<title>Node32</title>
<g id="a_Node000032"><a xlink:href="SocketTLSConfig_8h.html" target="_top" xlink:title="TLS configuration constants, structure, and secure defaults.">
<polygon fill="white" stroke="#666666" points="1048,-294 932,-294 932,-275 1048,-275 1048,-294"/>
<text text-anchor="middle" x="990" y="-282" font-family="Helvetica,sans-Serif" font-size="10.00">tls/SocketTLSConfig.h</text>
</a>
</g>
</g>
<!-- Node30&#45;&gt;Node32 -->
<g id="edge63_Node000030_Node000032" class="edge">
<title>Node30&#45;&gt;Node32</title>
<g id="a_edge63_Node000030_Node000032"><a xlink:title=" ">
<path fill="none" stroke="#63b8ff" d="M726.45,-329.98C781.76,-320.65 870.47,-305.67 929.48,-295.71"/>
<polygon fill="#63b8ff" stroke="#63b8ff" points="930.14,-299.15 939.42,-294.04 928.97,-292.25 930.14,-299.15"/>
</a>
</g>
</g>
<!-- Node34 -->
<g id="Node000034" class="node">
<title>Node34</title>
<g id="a_Node000034"><a xlink:title=" ">
<polygon fill="#e0e0e0" stroke="#999999" points="850,-239 776,-239 776,-220 850,-220 850,-239"/>
<text text-anchor="middle" x="813" y="-227" font-family="Helvetica,sans-Serif" font-size="10.00">openssl/ssl.h</text>
</a>
</g>
</g>
<!-- Node30&#45;&gt;Node34 -->
<g id="edge68_Node000030_Node000034" class="edge">
<title>Node30&#45;&gt;Node34</title>
<g id="a_edge68_Node000030_Node000034"><a xlink:title=" ">
<path fill="none" stroke="#63b8ff" d="M687.21,-329.66C710.61,-311.22 764.87,-268.45 793.88,-245.57"/>
<polygon fill="#63b8ff" stroke="#63b8ff" points="796.33,-248.1 802.02,-239.16 792,-242.6 796.33,-248.1"/>
</a>
</g>
</g>
<!-- Node37 -->
<g id="Node000037" class="node">
<title>Node37</title>
<g id="a_Node000037"><a xlink:title=" ">
<polygon fill="#e0e0e0" stroke="#999999" points="876,-294 776,-294 776,-275 876,-275 876,-294"/>
<text text-anchor="middle" x="826" y="-282" font-family="Helvetica,sans-Serif" font-size="10.00">openssl/x509_vfy.h</text>
</a>
</g>
</g>
<!-- Node30&#45;&gt;Node37 -->
<g id="edge69_Node000030_Node000037" class="edge">
<title>Node30&#45;&gt;Node37</title>
<g id="a_edge69_Node000030_Node000037"><a xlink:title=" ">
<path fill="none" stroke="#63b8ff" d="M700.1,-329.98C724.88,-321.23 763.7,-307.51 791.69,-297.62"/>
<polygon fill="#63b8ff" stroke="#63b8ff" points="793.2,-300.8 801.46,-294.17 790.87,-294.2 793.2,-300.8"/>
</a>
</g>
</g>
<!-- Node31&#45;&gt;Node6 -->
<g id="edge61_Node000031_Node000006" class="edge">
<title>Node31&#45;&gt;Node6</title>
<g id="a_edge61_Node000031_Node000006"><a xlink:title=" ">
<path fill="none" stroke="#63b8ff" d="M673.12,-274.97C670.09,-266.02 665.2,-251.52 661,-239 641.79,-181.7 651.74,-160.14 618,-110 610.12,-98.29 598.36,-87.87 588.02,-80.06"/>
<polygon fill="#63b8ff" stroke="#63b8ff" points="589.94,-77.14 579.78,-74.15 585.86,-82.82 589.94,-77.14"/>
</a>
</g>
</g>
<!-- Node31&#45;&gt;Node13 -->
<g id="edge62_Node000031_Node000013" class="edge">
<title>Node31&#45;&gt;Node13</title>
<g id="a_edge62_Node000031_Node000013"><a xlink:title=" ">
<path fill="none" stroke="#63b8ff" d="M682.27,-274.75C687.59,-267.34 695.36,-256.5 701.88,-247.41"/>
<polygon fill="#63b8ff" stroke="#63b8ff" points="704.86,-249.26 707.84,-239.09 699.17,-245.18 704.86,-249.26"/>
</a>
</g>
</g>
<!-- Node33 -->
<g id="Node000033" class="node">
<title>Node33</title>
<g id="a_Node000033"><a xlink:title=" ">
<polygon fill="#e0e0e0" stroke="#999999" points="1153,-239 1081,-239 1081,-220 1153,-220 1153,-239"/>
<text text-anchor="middle" x="1117" y="-227" font-family="Helvetica,sans-Serif" font-size="10.00">openssl/err.h</text>
</a>
</g>
</g>
<!-- Node32&#45;&gt;Node33 -->
<g id="edge64_Node000032_Node000033" class="edge">
<title>Node32&#45;&gt;Node33</title>
<g id="a_edge64_Node000032_Node000033"><a xlink:title=" ">
<path fill="none" stroke="#63b8ff" d="M1010.4,-274.98C1031.02,-266.38 1063.11,-252.99 1086.69,-243.15"/>
<polygon fill="#63b8ff" stroke="#63b8ff" points="1088.34,-246.25 1096.22,-239.17 1085.65,-239.79 1088.34,-246.25"/>
</a>
</g>
</g>
<!-- Node32&#45;&gt;Node34 -->
<g id="edge65_Node000032_Node000034" class="edge">
<title>Node32&#45;&gt;Node34</title>
<g id="a_edge65_Node000032_Node000034"><a xlink:title=" ">
<path fill="none" stroke="#63b8ff" d="M961.56,-274.98C931.72,-266.05 884.62,-251.94 851.47,-242.02"/>
<polygon fill="#63b8ff" stroke="#63b8ff" points="852.24,-238.6 841.66,-239.08 850.24,-245.3 852.24,-238.6"/>
</a>
</g>
</g>
<!-- Node35 -->
<g id="Node000035" class="node">
<title>Node35</title>
<g id="a_Node000035"><a xlink:title=" ">
<polygon fill="#e0e0e0" stroke="#999999" points="951.5,-239 868.5,-239 868.5,-220 951.5,-220 951.5,-239"/>
<text text-anchor="middle" x="910" y="-227" font-family="Helvetica,sans-Serif" font-size="10.00">openssl/x509.h</text>
</a>
</g>
</g>
<!-- Node32&#45;&gt;Node35 -->
<g id="edge66_Node000032_Node000035" class="edge">
<title>Node32&#45;&gt;Node35</title>
<g id="a_edge66_Node000032_Node000035"><a xlink:title=" ">
<path fill="none" stroke="#63b8ff" d="M977.15,-274.98C964.86,-266.84 946.09,-254.41 931.52,-244.76"/>
<polygon fill="#63b8ff" stroke="#63b8ff" points="933.36,-241.78 923.09,-239.17 929.49,-247.61 933.36,-241.78"/>
</a>
</g>
</g>
<!-- Node36 -->
<g id="Node000036" class="node">
<title>Node36</title>
<g id="a_Node000036"><a xlink:title=" ">
<polygon fill="#e0e0e0" stroke="#999999" points="1062.5,-239 969.5,-239 969.5,-220 1062.5,-220 1062.5,-239"/>
<text text-anchor="middle" x="1016" y="-227" font-family="Helvetica,sans-Serif" font-size="10.00">openssl/x509v3.h</text>
</a>
</g>
</g>
<!-- Node32&#45;&gt;Node36 -->
<g id="edge67_Node000032_Node000036" class="edge">
<title>Node32&#45;&gt;Node36</title>
<g id="a_edge67_Node000032_Node000036"><a xlink:title=" ">
<path fill="none" stroke="#63b8ff" d="M994.29,-274.75C997.81,-267.57 1002.91,-257.18 1007.28,-248.27"/>
<polygon fill="#63b8ff" stroke="#63b8ff" points="1010.52,-249.61 1011.79,-239.09 1004.24,-246.53 1010.52,-249.61"/>
</a>
</g>
</g>
</g>
</svg>

<g id="navigator" transform="translate(0 0)" fill="#404254">
  <rect fill="#f2f5e9" fill-opacity="0.5" stroke="#606060" stroke-width=".5" x="0" y="0" width="60" height="60"/>
  <use id="zoomplus" xlink:href="#zoomPlus" x="17" y="9" onmousedown="handleZoom(evt,'in')"/>
  <use id="zoomminus" xlink:href="#zoomMin" x="42" y="9" onmousedown="handleZoom(evt,'out')"/>
  <use id="reset" xlink:href="#resetDef" x="30" y="36" onmousedown="handleReset()"/>
   <use id="arrowup" xlink:href="#arrowUp" x="0" y="0" onmousedown="handlePan(0,-1)"/>
  <use id="arrowright" xlink:href="#arrowRight" x="0" y="0" onmousedown="handlePan(1,0)"/>
  <use id="arrowdown" xlink:href="#arrowDown" x="0" y="0" onmousedown="handlePan(0,1)"/>
  <use id="arrowleft" xlink:href="#arrowLeft" x="0" y="0" onmousedown="handlePan(-1,0)"/>
</g>
<svg viewBox="0 0 15 15" width="100%" height="30px" preserveAspectRatio="xMaxYMin meet">
 <g id="arrow_out" transform="scale(0.3 0.3)">
  <a xlink:href="SocketHTTPServer_8h__incl_org.svg" target="_base">
   <rect id="button" ry="5" rx="5" y="6" x="6" height="38" width="38"
        fill="#f2f5e9" fill-opacity="0.5" stroke="#606060" stroke-width="1.0"/>
   <path id="arrow"
     d="M 11.500037,31.436501 C 11.940474,20.09759 22.043105,11.32322 32.158766,21.979434 L 37.068811,17.246167 C 37.068811,17.246167 37.088388,32 37.088388,32 L 22.160133,31.978069 C 22.160133,31.978069 26.997745,27.140456 26.997745,27.140456 C 18.528582,18.264221 13.291696,25.230495 11.500037,31.436501 z"
     style="fill:#404040;"/>
  </a>
 </g>
</svg>

<style type='text/css'>
<![CDATA[
[data-mouse-over-selected='false'] { opacity: 0.7; }
[data-mouse-over-selected='true']  { opacity: 1.0; }
]]>
</style>
<script type="application/ecmascript"><![CDATA[
document.addEventListener('DOMContentLoaded', (event) => {
  highlightEdges();
  highlightAdjacentNodes();
});
]]></script>
</svg>
