<?xml version="1.0" encoding="UTF-8" standalone="no"?>
<!DOCTYPE svg PUBLIC "-//W3C//DTD SVG 1.1//EN"
 "http://www.w3.org/Graphics/SVG/1.1/DTD/svg11.dtd">
<!-- Generated by graphviz version 2.43.0 (0)
 -->
<!-- Title: SocketDTLS.h Pages: 1 -->
<svg width="926pt" height="302pt"
 viewBox="0.00 0.00 926.00 302.00" xmlns="http://www.w3.org/2000/svg" xmlns:xlink="http://www.w3.org/1999/xlink">
<g id="graph0" class="graph" transform="scale(1 1) rotate(0) translate(4 298)">
<title>SocketDTLS.h</title>
<!-- Node1 -->
<g id="Node000001" class="node">
<title>Node1</title>
<g id="a_Node000001"><a xlink:title=" ">
<polygon fill="#999999" stroke="#666666" points="81,-294 0,-294 0,-275 81,-275 81,-294"/>
<text text-anchor="middle" x="40.5" y="-282" font-family="Helvetica,sans-Serif" font-size="10.00">SocketDTLS.h</text>
</a>
</g>
</g>
<!-- Node2 -->
<g id="Node000002" class="node">
<title>Node2</title>
<g id="a_Node000002"><a xlink:href="Except_8h.html" target="_top" xlink:title="Structured exception handling for C with TRY/EXCEPT/FINALLY blocks.">
<polygon fill="white" stroke="#666666" points="79,-74 2,-74 2,-55 79,-55 79,-74"/>
<text text-anchor="middle" x="40.5" y="-62" font-family="Helvetica,sans-Serif" font-size="10.00">core/Except.h</text>
</a>
</g>
</g>
<!-- Node1&#45;&gt;Node2 -->
<g id="edge1_Node000001_Node000002" class="edge">
<title>Node1&#45;&gt;Node2</title>
<g id="a_edge1_Node000001_Node000002"><a xlink:title=" ">
<path fill="none" stroke="#63b8ff" d="M37.67,-274.75C34.95,-265.86 31.04,-251.64 29.5,-239 22.68,-182.96 31.69,-116.2 37.05,-84.29"/>
<polygon fill="#63b8ff" stroke="#63b8ff" points="40.54,-84.65 38.82,-74.2 33.64,-83.44 40.54,-84.65"/>
</a>
</g>
</g>
<!-- Node4 -->
<g id="Node000004" class="node">
<title>Node4</title>
<g id="a_Node000004"><a xlink:href="SocketDgram_8h.html" target="_top" xlink:title="High&#45;level UDP/datagram socket interface with multicast and broadcast support.">
<polygon fill="white" stroke="#666666" points="156,-239 39,-239 39,-220 156,-220 156,-239"/>
<text text-anchor="middle" x="97.5" y="-227" font-family="Helvetica,sans-Serif" font-size="10.00">socket/SocketDgram.h</text>
</a>
</g>
</g>
<!-- Node1&#45;&gt;Node4 -->
<g id="edge3_Node000001_Node000004" class="edge">
<title>Node1&#45;&gt;Node4</title>
<g id="a_edge3_Node000001_Node000004"><a xlink:title=" ">
<path fill="none" stroke="#63b8ff" d="M49.66,-274.98C58,-267.23 70.53,-255.58 80.68,-246.14"/>
<polygon fill="#63b8ff" stroke="#63b8ff" points="83.24,-248.54 88.18,-239.17 78.47,-243.42 83.24,-248.54"/>
</a>
</g>
</g>
<!-- Node3 -->
<g id="Node000003" class="node">
<title>Node3</title>
<g id="a_Node000003"><a xlink:title=" ">
<polygon fill="#e0e0e0" stroke="#999999" points="67.5,-19 13.5,-19 13.5,0 67.5,0 67.5,-19"/>
<text text-anchor="middle" x="40.5" y="-7" font-family="Helvetica,sans-Serif" font-size="10.00">setjmp.h</text>
</a>
</g>
</g>
<!-- Node2&#45;&gt;Node3 -->
<g id="edge2_Node000002_Node000003" class="edge">
<title>Node2&#45;&gt;Node3</title>
<g id="a_edge2_Node000002_Node000003"><a xlink:title=" ">
<path fill="none" stroke="#63b8ff" d="M40.5,-54.75C40.5,-47.8 40.5,-37.85 40.5,-29.13"/>
<polygon fill="#63b8ff" stroke="#63b8ff" points="44,-29.09 40.5,-19.09 37,-29.09 44,-29.09"/>
</a>
</g>
</g>
<!-- Node4&#45;&gt;Node2 -->
<g id="edge4_Node000004_Node000002" class="edge">
<title>Node4&#45;&gt;Node2</title>
<g id="a_edge4_Node000004_Node000002"><a xlink:title=" ">
<path fill="none" stroke="#63b8ff" d="M94.44,-219.74C85.47,-194.09 59.13,-118.78 46.89,-83.78"/>
<polygon fill="#63b8ff" stroke="#63b8ff" points="50.18,-82.59 43.58,-74.31 43.58,-84.9 50.18,-82.59"/>
</a>
</g>
</g>
<!-- Node5 -->
<g id="Node000005" class="node">
<title>Node5</title>
<g id="a_Node000005"><a xlink:href="SocketCommon_8h.html" target="_top" xlink:title="Common utilities shared between Socket and SocketDgram modules.">
<polygon fill="white" stroke="#666666" points="528.5,-184 400.5,-184 400.5,-165 528.5,-165 528.5,-184"/>
<text text-anchor="middle" x="464.5" y="-172" font-family="Helvetica,sans-Serif" font-size="10.00">socket/SocketCommon.h</text>
</a>
</g>
</g>
<!-- Node4&#45;&gt;Node5 -->
<g id="edge5_Node000004_Node000005" class="edge">
<title>Node4&#45;&gt;Node5</title>
<g id="a_edge5_Node000004_Node000005"><a xlink:title=" ">
<path fill="none" stroke="#63b8ff" d="M156.06,-220.04C221.25,-210.63 326.52,-195.43 395.62,-185.45"/>
<polygon fill="#63b8ff" stroke="#63b8ff" points="396.15,-188.91 405.54,-184.01 395.15,-181.98 396.15,-188.91"/>
</a>
</g>
</g>
<!-- Node11 -->
<g id="Node000011" class="node">
<title>Node11</title>
<g id="a_Node000011"><a xlink:title=" ">
<polygon fill="#e0e0e0" stroke="#999999" points="918,-74 845,-74 845,-55 918,-55 918,-74"/>
<text text-anchor="middle" x="881.5" y="-62" font-family="Helvetica,sans-Serif" font-size="10.00">sys/socket.h</text>
</a>
</g>
</g>
<!-- Node4&#45;&gt;Node11 -->
<g id="edge30_Node000004_Node000011" class="edge">
<title>Node4&#45;&gt;Node11</title>
<g id="a_edge30_Node000004_Node000011"><a xlink:title=" ">
<path fill="none" stroke="#63b8ff" d="M156.08,-229.13C316.76,-229.63 759.4,-222.32 863.5,-129 875.89,-117.89 880.01,-98.96 881.27,-84.65"/>
<polygon fill="#63b8ff" stroke="#63b8ff" points="884.77,-84.56 881.75,-74.4 877.78,-84.23 884.77,-84.56"/>
</a>
</g>
</g>
<!-- Node16 -->
<g id="Node000016" class="node">
<title>Node16</title>
<g id="a_Node000016"><a xlink:title=" ">
<polygon fill="#e0e0e0" stroke="#999999" points="187.5,-74 135.5,-74 135.5,-55 187.5,-55 187.5,-74"/>
<text text-anchor="middle" x="161.5" y="-62" font-family="Helvetica,sans-Serif" font-size="10.00">stddef.h</text>
</a>
</g>
</g>
<!-- Node4&#45;&gt;Node16 -->
<g id="edge29_Node000004_Node000016" class="edge">
<title>Node4&#45;&gt;Node16</title>
<g id="a_edge29_Node000004_Node000016"><a xlink:title=" ">
<path fill="none" stroke="#63b8ff" d="M97.11,-219.9C96.55,-199.57 97.25,-147.43 116.5,-110 122.35,-98.63 132.18,-88.4 141.16,-80.63"/>
<polygon fill="#63b8ff" stroke="#63b8ff" points="143.49,-83.24 149.04,-74.21 139.07,-77.81 143.49,-83.24"/>
</a>
</g>
</g>
<!-- Node5&#45;&gt;Node2 -->
<g id="edge18_Node000005_Node000002" class="edge">
<title>Node5&#45;&gt;Node2</title>
<g id="a_edge18_Node000005_Node000002"><a xlink:title=" ">
<path fill="none" stroke="#63b8ff" d="M400.38,-169.61C314.18,-163.66 166.04,-150.63 116.5,-129 91.77,-118.2 68.8,-96.78 54.72,-81.82"/>
<polygon fill="#63b8ff" stroke="#63b8ff" points="57.18,-79.32 47.87,-74.28 52.01,-84.03 57.18,-79.32"/>
</a>
</g>
</g>
<!-- Node6 -->
<g id="Node000006" class="node">
<title>Node6</title>
<g id="a_Node000006"><a xlink:title=" ">
<polygon fill="#e0e0e0" stroke="#999999" points="273,-129 216,-129 216,-110 273,-110 273,-129"/>
<text text-anchor="middle" x="244.5" y="-117" font-family="Helvetica,sans-Serif" font-size="10.00">pthread.h</text>
</a>
</g>
</g>
<!-- Node5&#45;&gt;Node6 -->
<g id="edge6_Node000005_Node000006" class="edge">
<title>Node5&#45;&gt;Node6</title>
<g id="a_edge6_Node000005_Node000006"><a xlink:title=" ">
<path fill="none" stroke="#63b8ff" d="M429.15,-164.98C389.18,-155.35 324.3,-139.72 283.05,-129.79"/>
<polygon fill="#63b8ff" stroke="#63b8ff" points="283.64,-126.33 273.1,-127.39 282,-133.13 283.64,-126.33"/>
</a>
</g>
</g>
<!-- Node7 -->
<g id="Node000007" class="node">
<title>Node7</title>
<g id="a_Node000007"><a xlink:title=" ">
<polygon fill="#e0e0e0" stroke="#999999" points="347.5,-129 291.5,-129 291.5,-110 347.5,-110 347.5,-129"/>
<text text-anchor="middle" x="319.5" y="-117" font-family="Helvetica,sans-Serif" font-size="10.00">stdbool.h</text>
</a>
</g>
</g>
<!-- Node5&#45;&gt;Node7 -->
<g id="edge7_Node000005_Node000007" class="edge">
<title>Node5&#45;&gt;Node7</title>
<g id="a_edge7_Node000005_Node000007"><a xlink:title=" ">
<path fill="none" stroke="#63b8ff" d="M441.2,-164.98C417.25,-156.23 379.72,-142.51 352.67,-132.62"/>
<polygon fill="#63b8ff" stroke="#63b8ff" points="353.81,-129.32 343.22,-129.17 351.41,-135.89 353.81,-129.32"/>
</a>
</g>
</g>
<!-- Node8 -->
<g id="Node000008" class="node">
<title>Node8</title>
<g id="a_Node000008"><a xlink:title=" ">
<polygon fill="#e0e0e0" stroke="#999999" points="725.5,-74 681.5,-74 681.5,-55 725.5,-55 725.5,-74"/>
<text text-anchor="middle" x="703.5" y="-62" font-family="Helvetica,sans-Serif" font-size="10.00">fcntl.h</text>
</a>
</g>
</g>
<!-- Node5&#45;&gt;Node8 -->
<g id="edge8_Node000005_Node000008" class="edge">
<title>Node5&#45;&gt;Node8</title>
<g id="a_edge8_Node000005_Node000008"><a xlink:title=" ">
<path fill="none" stroke="#63b8ff" d="M518.77,-164.97C551.82,-158.29 594.16,-147.04 628.5,-129 651.95,-116.68 674.54,-95.95 688.69,-81.54"/>
<polygon fill="#63b8ff" stroke="#63b8ff" points="691.25,-83.92 695.63,-74.28 686.19,-79.09 691.25,-83.92"/>
</a>
</g>
</g>
<!-- Node9 -->
<g id="Node000009" class="node">
<title>Node9</title>
<g id="a_Node000009"><a xlink:title=" ">
<polygon fill="#e0e0e0" stroke="#999999" points="415,-129 366,-129 366,-110 415,-110 415,-129"/>
<text text-anchor="middle" x="390.5" y="-117" font-family="Helvetica,sans-Serif" font-size="10.00">netdb.h</text>
</a>
</g>
</g>
<!-- Node5&#45;&gt;Node9 -->
<g id="edge9_Node000005_Node000009" class="edge">
<title>Node5&#45;&gt;Node9</title>
<g id="a_edge9_Node000005_Node000009"><a xlink:title=" ">
<path fill="none" stroke="#63b8ff" d="M452.61,-164.98C441.35,-156.92 424.21,-144.65 410.79,-135.03"/>
<polygon fill="#63b8ff" stroke="#63b8ff" points="412.77,-132.15 402.61,-129.17 408.7,-137.84 412.77,-132.15"/>
</a>
</g>
</g>
<!-- Node10 -->
<g id="Node000010" class="node">
<title>Node10</title>
<g id="a_Node000010"><a xlink:title=" ">
<polygon fill="#e0e0e0" stroke="#999999" points="818,-74 753,-74 753,-55 818,-55 818,-74"/>
<text text-anchor="middle" x="785.5" y="-62" font-family="Helvetica,sans-Serif" font-size="10.00">netinet/in.h</text>
</a>
</g>
</g>
<!-- Node5&#45;&gt;Node10 -->
<g id="edge10_Node000005_Node000010" class="edge">
<title>Node5&#45;&gt;Node10</title>
<g id="a_edge10_Node000005_Node000010"><a xlink:title=" ">
<path fill="none" stroke="#63b8ff" d="M528.56,-170.12C626.76,-164.27 805.26,-150.76 824.5,-129 837.71,-114.06 820.87,-94.09 805.38,-80.56"/>
<polygon fill="#63b8ff" stroke="#63b8ff" points="807.52,-77.79 797.57,-74.14 803.07,-83.2 807.52,-77.79"/>
</a>
</g>
</g>
<!-- Node5&#45;&gt;Node11 -->
<g id="edge11_Node000005_Node000011" class="edge">
<title>Node5&#45;&gt;Node11</title>
<g id="a_edge11_Node000005_Node000011"><a xlink:title=" ">
<path fill="none" stroke="#63b8ff" d="M528.64,-172.41C622.04,-169.74 789.88,-160.57 840.5,-129 857.17,-118.61 868.36,-98.66 874.78,-83.88"/>
<polygon fill="#63b8ff" stroke="#63b8ff" points="878.17,-84.83 878.63,-74.25 871.67,-82.24 878.17,-84.83"/>
</a>
</g>
</g>
<!-- Node12 -->
<g id="Node000012" class="node">
<title>Node12</title>
<g id="a_Node000012"><a xlink:title=" ">
<polygon fill="#e0e0e0" stroke="#999999" points="495.5,-129 433.5,-129 433.5,-110 495.5,-110 495.5,-129"/>
<text text-anchor="middle" x="464.5" y="-117" font-family="Helvetica,sans-Serif" font-size="10.00">sys/time.h</text>
</a>
</g>
</g>
<!-- Node5&#45;&gt;Node12 -->
<g id="edge12_Node000005_Node000012" class="edge">
<title>Node5&#45;&gt;Node12</title>
<g id="a_edge12_Node000005_Node000012"><a xlink:title=" ">
<path fill="none" stroke="#63b8ff" d="M464.5,-164.75C464.5,-157.8 464.5,-147.85 464.5,-139.13"/>
<polygon fill="#63b8ff" stroke="#63b8ff" points="468,-139.09 464.5,-129.09 461,-139.09 468,-139.09"/>
</a>
</g>
</g>
<!-- Node13 -->
<g id="Node000013" class="node">
<title>Node13</title>
<g id="a_Node000013"><a xlink:title=" ">
<polygon fill="#e0e0e0" stroke="#999999" points="743.5,-129 675.5,-129 675.5,-110 743.5,-110 743.5,-129"/>
<text text-anchor="middle" x="709.5" y="-117" font-family="Helvetica,sans-Serif" font-size="10.00">sys/types.h</text>
</a>
</g>
</g>
<!-- Node5&#45;&gt;Node13 -->
<g id="edge13_Node000005_Node000013" class="edge">
<title>Node5&#45;&gt;Node13</title>
<g id="a_edge13_Node000005_Node000013"><a xlink:title=" ">
<path fill="none" stroke="#63b8ff" d="M503.86,-164.98C548,-155.44 619.41,-139.99 665.4,-130.04"/>
<polygon fill="#63b8ff" stroke="#63b8ff" points="666.34,-133.42 675.37,-127.88 664.86,-126.58 666.34,-133.42"/>
</a>
</g>
</g>
<!-- Node14 -->
<g id="Node000014" class="node">
<title>Node14</title>
<g id="a_Node000014"><a xlink:title=" ">
<polygon fill="#e0e0e0" stroke="#999999" points="815.5,-129 761.5,-129 761.5,-110 815.5,-110 815.5,-129"/>
<text text-anchor="middle" x="788.5" y="-117" font-family="Helvetica,sans-Serif" font-size="10.00">sys/un.h</text>
</a>
</g>
</g>
<!-- Node5&#45;&gt;Node14 -->
<g id="edge14_Node000005_Node000014" class="edge">
<title>Node5&#45;&gt;Node14</title>
<g id="a_edge14_Node000005_Node000014"><a xlink:title=" ">
<path fill="none" stroke="#63b8ff" d="M528.52,-165.08C584.77,-157.34 669.01,-144.95 751.39,-129.09"/>
<polygon fill="#63b8ff" stroke="#63b8ff" points="752.27,-132.48 761.42,-127.13 750.94,-125.61 752.27,-132.48"/>
</a>
</g>
</g>
<!-- Node15 -->
<g id="Node000015" class="node">
<title>Node15</title>
<g id="a_Node000015"><a xlink:href="Arena_8h.html" target="_top" xlink:title="Arena&#45;based memory allocator for efficient bulk memory management.">
<polygon fill="white" stroke="#666666" points="197.5,-129 125.5,-129 125.5,-110 197.5,-110 197.5,-129"/>
<text text-anchor="middle" x="161.5" y="-117" font-family="Helvetica,sans-Serif" font-size="10.00">core/Arena.h</text>
</a>
</g>
</g>
<!-- Node5&#45;&gt;Node15 -->
<g id="edge15_Node000005_Node000015" class="edge">
<title>Node5&#45;&gt;Node15</title>
<g id="a_edge15_Node000005_Node000015"><a xlink:title=" ">
<path fill="none" stroke="#63b8ff" d="M414.24,-164.97C362.41,-156.13 279.26,-141.84 207.5,-129 207.4,-128.98 207.3,-128.96 207.2,-128.95"/>
<polygon fill="#63b8ff" stroke="#63b8ff" points="208.12,-125.56 197.65,-127.22 206.87,-132.44 208.12,-125.56"/>
</a>
</g>
</g>
<!-- Node17 -->
<g id="Node000017" class="node">
<title>Node17</title>
<g id="a_Node000017"><a xlink:href="SocketConfig_8h.html" target="_top" xlink:title="Compile&#45;time configuration and platform detection for the socket library.">
<polygon fill="white" stroke="#666666" points="619.5,-129 513.5,-129 513.5,-110 619.5,-110 619.5,-129"/>
<text text-anchor="middle" x="566.5" y="-117" font-family="Helvetica,sans-Serif" font-size="10.00">core/SocketConfig.h</text>
</a>
</g>
</g>
<!-- Node5&#45;&gt;Node17 -->
<g id="edge19_Node000005_Node000017" class="edge">
<title>Node5&#45;&gt;Node17</title>
<g id="a_edge19_Node000005_Node000017"><a xlink:title=" ">
<path fill="none" stroke="#63b8ff" d="M480.89,-164.98C497.07,-156.57 522.07,-143.59 540.88,-133.81"/>
<polygon fill="#63b8ff" stroke="#63b8ff" points="542.55,-136.89 549.81,-129.17 539.33,-130.68 542.55,-136.89"/>
</a>
</g>
</g>
<!-- Node15&#45;&gt;Node2 -->
<g id="edge17_Node000015_Node000002" class="edge">
<title>Node15&#45;&gt;Node2</title>
<g id="a_edge17_Node000015_Node000002"><a xlink:title=" ">
<path fill="none" stroke="#63b8ff" d="M142.06,-109.98C122.51,-101.42 92.12,-88.11 69.68,-78.28"/>
<polygon fill="#63b8ff" stroke="#63b8ff" points="70.86,-74.98 60.29,-74.17 68.05,-81.39 70.86,-74.98"/>
</a>
</g>
</g>
<!-- Node15&#45;&gt;Node16 -->
<g id="edge16_Node000015_Node000016" class="edge">
<title>Node15&#45;&gt;Node16</title>
<g id="a_edge16_Node000015_Node000016"><a xlink:title=" ">
<path fill="none" stroke="#63b8ff" d="M161.5,-109.75C161.5,-102.8 161.5,-92.85 161.5,-84.13"/>
<polygon fill="#63b8ff" stroke="#63b8ff" points="165,-84.09 161.5,-74.09 158,-84.09 165,-84.09"/>
</a>
</g>
</g>
<!-- Node17&#45;&gt;Node8 -->
<g id="edge21_Node000017_Node000008" class="edge">
<title>Node17&#45;&gt;Node8</title>
<g id="a_edge21_Node000017_Node000008"><a xlink:title=" ">
<path fill="none" stroke="#63b8ff" d="M588.51,-109.98C610.95,-101.3 645.98,-87.75 671.49,-77.88"/>
<polygon fill="#63b8ff" stroke="#63b8ff" points="673.02,-81.04 681.09,-74.17 670.5,-74.51 673.02,-81.04"/>
</a>
</g>
</g>
<!-- Node17&#45;&gt;Node10 -->
<g id="edge22_Node000017_Node000010" class="edge">
<title>Node17&#45;&gt;Node10</title>
<g id="a_edge22_Node000017_Node000010"><a xlink:title=" ">
<path fill="none" stroke="#63b8ff" d="M601.69,-109.98C640.22,-100.66 702.01,-85.71 743.17,-75.74"/>
<polygon fill="#63b8ff" stroke="#63b8ff" points="744.01,-79.14 752.9,-73.39 742.36,-72.34 744.01,-79.14"/>
</a>
</g>
</g>
<!-- Node17&#45;&gt;Node11 -->
<g id="edge26_Node000017_Node000011" class="edge">
<title>Node17&#45;&gt;Node11</title>
<g id="a_edge26_Node000017_Node000011"><a xlink:title=" ">
<path fill="none" stroke="#63b8ff" d="M617.11,-109.98C677.16,-99.88 776.45,-83.18 834.75,-73.37"/>
<polygon fill="#63b8ff" stroke="#63b8ff" points="835.51,-76.79 844.79,-71.68 834.35,-69.88 835.51,-76.79"/>
</a>
</g>
</g>
<!-- Node17&#45;&gt;Node16 -->
<g id="edge24_Node000017_Node000016" class="edge">
<title>Node17&#45;&gt;Node16</title>
<g id="a_edge24_Node000017_Node000016"><a xlink:title=" ">
<path fill="none" stroke="#63b8ff" d="M513.4,-111.19C510.39,-110.79 507.41,-110.39 504.5,-110 392.81,-95.1 260.57,-78.13 197.92,-70.14"/>
<polygon fill="#63b8ff" stroke="#63b8ff" points="198.12,-66.63 187.76,-68.84 197.23,-73.58 198.12,-66.63"/>
</a>
</g>
</g>
<!-- Node18 -->
<g id="Node000018" class="node">
<title>Node18</title>
<g id="a_Node000018"><a xlink:title=" ">
<polygon fill="#e0e0e0" stroke="#999999" points="436,-74 389,-74 389,-55 436,-55 436,-74"/>
<text text-anchor="middle" x="412.5" y="-62" font-family="Helvetica,sans-Serif" font-size="10.00">errno.h</text>
</a>
</g>
</g>
<!-- Node17&#45;&gt;Node18 -->
<g id="edge20_Node000017_Node000018" class="edge">
<title>Node17&#45;&gt;Node18</title>
<g id="a_edge20_Node000017_Node000018"><a xlink:title=" ">
<path fill="none" stroke="#63b8ff" d="M541.76,-109.98C515.75,-101.03 474.67,-86.9 445.82,-76.97"/>
<polygon fill="#63b8ff" stroke="#63b8ff" points="446.76,-73.59 436.17,-73.65 444.49,-80.21 446.76,-73.59"/>
</a>
</g>
</g>
<!-- Node19 -->
<g id="Node000019" class="node">
<title>Node19</title>
<g id="a_Node000019"><a xlink:title=" ">
<polygon fill="#e0e0e0" stroke="#999999" points="525,-74 454,-74 454,-55 525,-55 525,-74"/>
<text text-anchor="middle" x="489.5" y="-62" font-family="Helvetica,sans-Serif" font-size="10.00">netinet/tcp.h</text>
</a>
</g>
</g>
<!-- Node17&#45;&gt;Node19 -->
<g id="edge23_Node000017_Node000019" class="edge">
<title>Node17&#45;&gt;Node19</title>
<g id="a_edge23_Node000017_Node000019"><a xlink:title=" ">
<path fill="none" stroke="#63b8ff" d="M554.13,-109.98C542.41,-101.92 524.58,-89.65 510.61,-80.03"/>
<polygon fill="#63b8ff" stroke="#63b8ff" points="512.32,-76.96 502.1,-74.17 508.35,-82.72 512.32,-76.96"/>
</a>
</g>
</g>
<!-- Node20 -->
<g id="Node000020" class="node">
<title>Node20</title>
<g id="a_Node000020"><a xlink:title=" ">
<polygon fill="#e0e0e0" stroke="#999999" points="589.5,-74 543.5,-74 543.5,-55 589.5,-55 589.5,-74"/>
<text text-anchor="middle" x="566.5" y="-62" font-family="Helvetica,sans-Serif" font-size="10.00">stdio.h</text>
</a>
</g>
</g>
<!-- Node17&#45;&gt;Node20 -->
<g id="edge25_Node000017_Node000020" class="edge">
<title>Node17&#45;&gt;Node20</title>
<g id="a_edge25_Node000017_Node000020"><a xlink:title=" ">
<path fill="none" stroke="#63b8ff" d="M566.5,-109.75C566.5,-102.8 566.5,-92.85 566.5,-84.13"/>
<polygon fill="#63b8ff" stroke="#63b8ff" points="570,-84.09 566.5,-74.09 563,-84.09 570,-84.09"/>
</a>
</g>
</g>
<!-- Node21 -->
<g id="Node000021" class="node">
<title>Node21</title>
<g id="a_Node000021"><a xlink:title=" ">
<polygon fill="#e0e0e0" stroke="#999999" points="663.5,-74 607.5,-74 607.5,-55 663.5,-55 663.5,-74"/>
<text text-anchor="middle" x="635.5" y="-62" font-family="Helvetica,sans-Serif" font-size="10.00">sys/uio.h</text>
</a>
</g>
</g>
<!-- Node17&#45;&gt;Node21 -->
<g id="edge27_Node000017_Node000021" class="edge">
<title>Node17&#45;&gt;Node21</title>
<g id="a_edge27_Node000017_Node000021"><a xlink:title=" ">
<path fill="none" stroke="#63b8ff" d="M577.59,-109.98C587.99,-102 603.76,-89.88 616.22,-80.31"/>
<polygon fill="#63b8ff" stroke="#63b8ff" points="618.41,-83.04 624.21,-74.17 614.15,-77.49 618.41,-83.04"/>
</a>
</g>
</g>
<!-- Node22 -->
<g id="Node000022" class="node">
<title>Node22</title>
<g id="a_Node000022"><a xlink:title=" ">
<polygon fill="#e0e0e0" stroke="#999999" points="371,-74 320,-74 320,-55 371,-55 371,-74"/>
<text text-anchor="middle" x="345.5" y="-62" font-family="Helvetica,sans-Serif" font-size="10.00">unistd.h</text>
</a>
</g>
</g>
<!-- Node17&#45;&gt;Node22 -->
<g id="edge28_Node000017_Node000022" class="edge">
<title>Node17&#45;&gt;Node22</title>
<g id="a_edge28_Node000017_Node000022"><a xlink:title=" ">
<path fill="none" stroke="#63b8ff" d="M530.49,-109.92C495.06,-101.48 439.17,-88.13 381.19,-74.16"/>
<polygon fill="#63b8ff" stroke="#63b8ff" points="381.65,-70.67 371.11,-71.73 380.01,-77.48 381.65,-70.67"/>
</a>
</g>
</g>
</g>
</svg>
