<?xml version="1.0" encoding="UTF-8" standalone="no"?>
<!DOCTYPE svg PUBLIC "-//W3C//DTD SVG 1.1//EN"
 "http://www.w3.org/Graphics/SVG/1.1/DTD/svg11.dtd">
<!-- Generated by graphviz version 2.43.0 (0)
 -->
<!-- Title: SocketTimer.h Pages: 1 -->
<svg width="657pt" height="192pt"
 viewBox="0.00 0.00 657.00 192.00" xmlns="http://www.w3.org/2000/svg" xmlns:xlink="http://www.w3.org/1999/xlink">
<g id="graph0" class="graph" transform="scale(1 1) rotate(0) translate(4 188)">
<title>SocketTimer.h</title>
<!-- Node1 -->
<g id="Node000001" class="node">
<title>Node1</title>
<g id="a_Node000001"><a xlink:title=" ">
<polygon fill="#999999" stroke="#666666" points="340.5,-184 260.5,-184 260.5,-165 340.5,-165 340.5,-184"/>
<text text-anchor="middle" x="300.5" y="-172" font-family="Helvetica,sans-Serif" font-size="10.00">SocketTimer.h</text>
</a>
</g>
</g>
<!-- Node2 -->
<g id="Node000002" class="node">
<title>Node2</title>
<g id="a_Node000002"><a xlink:href="SocketPoll_8h.html" target="_top" xlink:title=" ">
<polygon fill="white" stroke="#666666" points="336.5,-129 264.5,-129 264.5,-110 336.5,-110 336.5,-129"/>
<text text-anchor="middle" x="300.5" y="-117" font-family="Helvetica,sans-Serif" font-size="10.00">SocketPoll.h</text>
</a>
</g>
</g>
<!-- Node1&#45;&gt;Node2 -->
<g id="edge1_Node000001_Node000002" class="edge">
<title>Node1&#45;&gt;Node2</title>
<g id="a_edge1_Node000001_Node000002"><a xlink:title=" ">
<path fill="none" stroke="#63b8ff" d="M300.5,-154.66C300.5,-145.93 300.5,-135.99 300.5,-129.09"/>
<polygon fill="#63b8ff" stroke="#63b8ff" points="297,-154.75 300.5,-164.75 304,-154.75 297,-154.75"/>
</a>
</g>
</g>
<!-- Node3 -->
<g id="Node000003" class="node">
<title>Node3</title>
<g id="a_Node000003"><a xlink:href="SocketHTTPServer_8h.html" target="_top" xlink:title=" ">
<polygon fill="white" stroke="#666666" points="115.5,-74 5.5,-74 5.5,-55 115.5,-55 115.5,-74"/>
<text text-anchor="middle" x="60.5" y="-62" font-family="Helvetica,sans-Serif" font-size="10.00">SocketHTTPServer.h</text>
</a>
</g>
</g>
<!-- Node2&#45;&gt;Node3 -->
<g id="edge2_Node000002_Node000003" class="edge">
<title>Node2&#45;&gt;Node3</title>
<g id="a_edge2_Node000002_Node000003"><a xlink:title=" ">
<path fill="none" stroke="#63b8ff" d="M254.51,-108.34C209.52,-98.41 141.76,-83.44 99.38,-74.09"/>
<polygon fill="#63b8ff" stroke="#63b8ff" points="253.79,-111.77 264.31,-110.51 255.3,-104.93 253.79,-111.77"/>
</a>
</g>
</g>
<!-- Node5 -->
<g id="Node000005" class="node">
<title>Node5</title>
<g id="a_Node000005"><a xlink:href="websocket__server_8c.html" target="_top" xlink:title=" ">
<polygon fill="white" stroke="#666666" points="195.5,-19 91.5,-19 91.5,0 195.5,0 195.5,-19"/>
<text text-anchor="middle" x="143.5" y="-7" font-family="Helvetica,sans-Serif" font-size="10.00">websocket_server.c</text>
</a>
</g>
</g>
<!-- Node2&#45;&gt;Node5 -->
<g id="edge10_Node000002_Node000005" class="edge">
<title>Node2&#45;&gt;Node5</title>
<g id="a_edge10_Node000002_Node000005"><a xlink:title=" ">
<path fill="none" stroke="#63b8ff" d="M254.02,-114.5C224.13,-109.56 186.52,-98.54 162.5,-74 147.69,-58.87 144.35,-32.69 143.65,-19.15"/>
<polygon fill="#63b8ff" stroke="#63b8ff" points="253.83,-118.01 264.24,-116.01 254.86,-111.09 253.83,-118.01"/>
</a>
</g>
</g>
<!-- Node6 -->
<g id="Node000006" class="node">
<title>Node6</title>
<g id="a_Node000006"><a xlink:href="SocketHappyEyeballs_8h.html" target="_top" xlink:title=" ">
<polygon fill="white" stroke="#666666" points="293.5,-74 171.5,-74 171.5,-55 293.5,-55 293.5,-74"/>
<text text-anchor="middle" x="232.5" y="-62" font-family="Helvetica,sans-Serif" font-size="10.00">SocketHappyEyeballs.h</text>
</a>
</g>
</g>
<!-- Node2&#45;&gt;Node6 -->
<g id="edge5_Node000002_Node000006" class="edge">
<title>Node2&#45;&gt;Node6</title>
<g id="a_edge5_Node000002_Node000006"><a xlink:title=" ">
<path fill="none" stroke="#63b8ff" d="M281.38,-103.6C269.2,-94.11 253.84,-82.13 243.62,-74.17"/>
<polygon fill="#63b8ff" stroke="#63b8ff" points="279.54,-106.6 289.57,-109.98 283.84,-101.08 279.54,-106.6"/>
</a>
</g>
</g>
<!-- Node7 -->
<g id="Node000007" class="node">
<title>Node7</title>
<g id="a_Node000007"><a xlink:href="SocketPoll__backend_8h.html" target="_top" xlink:title=" ">
<polygon fill="white" stroke="#666666" points="425.5,-74 311.5,-74 311.5,-55 425.5,-55 425.5,-74"/>
<text text-anchor="middle" x="368.5" y="-62" font-family="Helvetica,sans-Serif" font-size="10.00">SocketPoll_backend.h</text>
</a>
</g>
</g>
<!-- Node2&#45;&gt;Node7 -->
<g id="edge6_Node000002_Node000007" class="edge">
<title>Node2&#45;&gt;Node7</title>
<g id="a_edge6_Node000002_Node000007"><a xlink:title=" ">
<path fill="none" stroke="#63b8ff" d="M319.62,-103.6C331.8,-94.11 347.16,-82.13 357.38,-74.17"/>
<polygon fill="#63b8ff" stroke="#63b8ff" points="317.16,-101.08 311.43,-109.98 321.46,-106.6 317.16,-101.08"/>
</a>
</g>
</g>
<!-- Node8 -->
<g id="Node000008" class="node">
<title>Node8</title>
<g id="a_Node000008"><a xlink:href="SocketProxy_8h.html" target="_top" xlink:title=" ">
<polygon fill="white" stroke="#666666" points="523.5,-74 443.5,-74 443.5,-55 523.5,-55 523.5,-74"/>
<text text-anchor="middle" x="483.5" y="-62" font-family="Helvetica,sans-Serif" font-size="10.00">SocketProxy.h</text>
</a>
</g>
</g>
<!-- Node2&#45;&gt;Node8 -->
<g id="edge7_Node000002_Node000008" class="edge">
<title>Node2&#45;&gt;Node8</title>
<g id="a_edge7_Node000002_Node000008"><a xlink:title=" ">
<path fill="none" stroke="#63b8ff" d="M339.57,-107.18C373.8,-97.27 422.79,-83.08 453.87,-74.08"/>
<polygon fill="#63b8ff" stroke="#63b8ff" points="338.53,-103.84 329.9,-109.98 340.48,-110.56 338.53,-103.84"/>
</a>
</g>
</g>
<!-- Node10 -->
<g id="Node000010" class="node">
<title>Node10</title>
<g id="a_Node000010"><a xlink:href="graceful__shutdown_8c.html" target="_top" xlink:title=" ">
<polygon fill="white" stroke="#666666" points="649,-74 542,-74 542,-55 649,-55 649,-74"/>
<text text-anchor="middle" x="595.5" y="-62" font-family="Helvetica,sans-Serif" font-size="10.00">graceful_shutdown.c</text>
</a>
</g>
</g>
<!-- Node2&#45;&gt;Node10 -->
<g id="edge9_Node000002_Node000010" class="edge">
<title>Node2&#45;&gt;Node10</title>
<g id="a_edge9_Node000002_Node000010"><a xlink:title=" ">
<path fill="none" stroke="#63b8ff" d="M346.82,-110.18C401.7,-100.32 492.67,-83.97 548.05,-74.02"/>
<polygon fill="#63b8ff" stroke="#63b8ff" points="345.9,-106.79 336.67,-112 347.13,-113.68 345.9,-106.79"/>
</a>
</g>
</g>
<!-- Node4 -->
<g id="Node000004" class="node">
<title>Node4</title>
<g id="a_Node000004"><a xlink:href="http__server_8c.html" target="_top" xlink:title=" ">
<polygon fill="white" stroke="#666666" points="73,-19 0,-19 0,0 73,0 73,-19"/>
<text text-anchor="middle" x="36.5" y="-7" font-family="Helvetica,sans-Serif" font-size="10.00">http_server.c</text>
</a>
</g>
</g>
<!-- Node3&#45;&gt;Node4 -->
<g id="edge3_Node000003_Node000004" class="edge">
<title>Node3&#45;&gt;Node4</title>
<g id="a_edge3_Node000003_Node000004"><a xlink:title=" ">
<path fill="none" stroke="#63b8ff" d="M52.36,-45.53C48.32,-36.6 43.62,-26.22 40.39,-19.09"/>
<polygon fill="#63b8ff" stroke="#63b8ff" points="49.22,-47.08 56.54,-54.75 55.6,-44.19 49.22,-47.08"/>
</a>
</g>
</g>
<!-- Node3&#45;&gt;Node5 -->
<g id="edge4_Node000003_Node000005" class="edge">
<title>Node3&#45;&gt;Node5</title>
<g id="a_edge4_Node000003_Node000005"><a xlink:title=" ">
<path fill="none" stroke="#63b8ff" d="M82.54,-49.42C97.61,-39.81 117.09,-27.37 129.92,-19.17"/>
<polygon fill="#63b8ff" stroke="#63b8ff" points="80.38,-46.65 73.84,-54.98 84.15,-52.55 80.38,-46.65"/>
</a>
</g>
</g>
<!-- Node9 -->
<g id="Node000009" class="node">
<title>Node9</title>
<g id="a_Node000009"><a xlink:href="proxy__connect_8c.html" target="_top" xlink:title=" ">
<polygon fill="white" stroke="#666666" points="528,-19 439,-19 439,0 528,0 528,-19"/>
<text text-anchor="middle" x="483.5" y="-7" font-family="Helvetica,sans-Serif" font-size="10.00">proxy_connect.c</text>
</a>
</g>
</g>
<!-- Node8&#45;&gt;Node9 -->
<g id="edge8_Node000008_Node000009" class="edge">
<title>Node8&#45;&gt;Node9</title>
<g id="a_edge8_Node000008_Node000009"><a xlink:title=" ">
<path fill="none" stroke="#63b8ff" d="M483.5,-44.66C483.5,-35.93 483.5,-25.99 483.5,-19.09"/>
<polygon fill="#63b8ff" stroke="#63b8ff" points="480,-44.75 483.5,-54.75 487,-44.75 480,-44.75"/>
</a>
</g>
</g>
</g>
</svg>
