<?xml version="1.0" encoding="UTF-8" standalone="no"?>
<!DOCTYPE svg PUBLIC "-//W3C//DTD SVG 1.1//EN"
 "http://www.w3.org/Graphics/SVG/1.1/DTD/svg11.dtd">
<!-- Generated by graphviz version 2.43.0 (0)
 -->
<!-- Title: SocketBuf.h Pages: 1 -->
<svg width="384pt" height="192pt"
 viewBox="0.00 0.00 384.00 192.00" xmlns="http://www.w3.org/2000/svg" xmlns:xlink="http://www.w3.org/1999/xlink">
<g id="graph0" class="graph" transform="scale(1 1) rotate(0) translate(4 188)">
<title>SocketBuf.h</title>
<!-- Node1 -->
<g id="Node000001" class="node">
<title>Node1</title>
<g id="a_Node000001"><a xlink:title="Circular buffer for efficient socket I/O operations.">
<polygon fill="#999999" stroke="#666666" points="195.5,-184 124.5,-184 124.5,-165 195.5,-165 195.5,-184"/>
<text text-anchor="middle" x="160" y="-172" font-family="Helvetica,sans-Serif" font-size="10.00">SocketBuf.h</text>
</a>
</g>
</g>
<!-- Node2 -->
<g id="Node000002" class="node">
<title>Node2</title>
<g id="a_Node000002"><a xlink:href="Arena_8h.html" target="_top" xlink:title="Arena&#45;based memory allocator for efficient bulk memory management.">
<polygon fill="white" stroke="#666666" points="104,-129 32,-129 32,-110 104,-110 104,-129"/>
<text text-anchor="middle" x="68" y="-117" font-family="Helvetica,sans-Serif" font-size="10.00">core/Arena.h</text>
</a>
</g>
</g>
<!-- Node1&#45;&gt;Node2 -->
<g id="edge1_Node000001_Node000002" class="edge">
<title>Node1&#45;&gt;Node2</title>
<g id="a_edge1_Node000001_Node000002"><a xlink:title=" ">
<path fill="none" stroke="#63b8ff" d="M145.22,-164.98C130.82,-156.69 108.69,-143.94 91.81,-134.22"/>
<polygon fill="#63b8ff" stroke="#63b8ff" points="93.46,-131.13 83.05,-129.17 89.97,-137.19 93.46,-131.13"/>
</a>
</g>
</g>
<!-- Node3 -->
<g id="Node000003" class="node">
<title>Node3</title>
<g id="a_Node000003"><a xlink:title=" ">
<polygon fill="#e0e0e0" stroke="#999999" points="52,-74 0,-74 0,-55 52,-55 52,-74"/>
<text text-anchor="middle" x="26" y="-62" font-family="Helvetica,sans-Serif" font-size="10.00">stddef.h</text>
</a>
</g>
</g>
<!-- Node1&#45;&gt;Node3 -->
<g id="edge6_Node000001_Node000003" class="edge">
<title>Node1&#45;&gt;Node3</title>
<g id="a_edge6_Node000001_Node000003"><a xlink:title=" ">
<path fill="none" stroke="#63b8ff" d="M124.43,-172.91C92.08,-170.24 46.01,-160.66 23,-129 13.68,-116.18 15.76,-97.76 19.39,-84.06"/>
<polygon fill="#63b8ff" stroke="#63b8ff" points="22.8,-84.87 22.43,-74.28 16.12,-82.78 22.8,-84.87"/>
</a>
</g>
</g>
<!-- Node4 -->
<g id="Node000004" class="node">
<title>Node4</title>
<g id="a_Node000004"><a xlink:href="Except_8h.html" target="_top" xlink:title="Structured exception handling for C with TRY/EXCEPT/FINALLY blocks.">
<polygon fill="white" stroke="#666666" points="158.5,-74 81.5,-74 81.5,-55 158.5,-55 158.5,-74"/>
<text text-anchor="middle" x="120" y="-62" font-family="Helvetica,sans-Serif" font-size="10.00">core/Except.h</text>
</a>
</g>
</g>
<!-- Node1&#45;&gt;Node4 -->
<g id="edge8_Node000001_Node000004" class="edge">
<title>Node1&#45;&gt;Node4</title>
<g id="a_edge8_Node000001_Node000004"><a xlink:title=" ">
<path fill="none" stroke="#63b8ff" d="M156.73,-164.66C150.19,-147.01 135.4,-107.09 126.72,-83.64"/>
<polygon fill="#63b8ff" stroke="#63b8ff" points="129.96,-82.32 123.21,-74.16 123.4,-84.75 129.96,-82.32"/>
</a>
</g>
</g>
<!-- Node6 -->
<g id="Node000006" class="node">
<title>Node6</title>
<g id="a_Node000006"><a xlink:title=" ">
<polygon fill="#e0e0e0" stroke="#999999" points="216,-129 160,-129 160,-110 216,-110 216,-129"/>
<text text-anchor="middle" x="188" y="-117" font-family="Helvetica,sans-Serif" font-size="10.00">stdbool.h</text>
</a>
</g>
</g>
<!-- Node1&#45;&gt;Node6 -->
<g id="edge5_Node000001_Node000006" class="edge">
<title>Node1&#45;&gt;Node6</title>
<g id="a_edge5_Node000001_Node000006"><a xlink:title=" ">
<path fill="none" stroke="#63b8ff" d="M164.62,-164.75C168.46,-157.49 174.02,-146.95 178.76,-137.98"/>
<polygon fill="#63b8ff" stroke="#63b8ff" points="181.89,-139.57 183.46,-129.09 175.7,-136.3 181.89,-139.57"/>
</a>
</g>
</g>
<!-- Node7 -->
<g id="Node000007" class="node">
<title>Node7</title>
<g id="a_Node000007"><a xlink:title=" ">
<polygon fill="#e0e0e0" stroke="#999999" points="302,-129 234,-129 234,-110 302,-110 302,-129"/>
<text text-anchor="middle" x="268" y="-117" font-family="Helvetica,sans-Serif" font-size="10.00">sys/types.h</text>
</a>
</g>
</g>
<!-- Node1&#45;&gt;Node7 -->
<g id="edge7_Node000001_Node000007" class="edge">
<title>Node1&#45;&gt;Node7</title>
<g id="a_edge7_Node000001_Node000007"><a xlink:title=" ">
<path fill="none" stroke="#63b8ff" d="M177.35,-164.98C194.57,-156.54 221.2,-143.47 241.15,-133.68"/>
<polygon fill="#63b8ff" stroke="#63b8ff" points="242.9,-136.72 250.33,-129.17 239.81,-130.43 242.9,-136.72"/>
</a>
</g>
</g>
<!-- Node8 -->
<g id="Node000008" class="node">
<title>Node8</title>
<g id="a_Node000008"><a xlink:title=" ">
<polygon fill="#e0e0e0" stroke="#999999" points="376,-129 320,-129 320,-110 376,-110 376,-129"/>
<text text-anchor="middle" x="348" y="-117" font-family="Helvetica,sans-Serif" font-size="10.00">sys/uio.h</text>
</a>
</g>
</g>
<!-- Node1&#45;&gt;Node8 -->
<g id="edge9_Node000001_Node000008" class="edge">
<title>Node1&#45;&gt;Node8</title>
<g id="a_edge9_Node000001_Node000008"><a xlink:title=" ">
<path fill="none" stroke="#63b8ff" d="M190.21,-164.98C222.7,-155.82 274.46,-141.23 309.77,-131.28"/>
<polygon fill="#63b8ff" stroke="#63b8ff" points="311.04,-134.56 319.71,-128.47 309.14,-127.82 311.04,-134.56"/>
</a>
</g>
</g>
<!-- Node2&#45;&gt;Node3 -->
<g id="edge2_Node000002_Node000003" class="edge">
<title>Node2&#45;&gt;Node3</title>
<g id="a_edge2_Node000002_Node000003"><a xlink:title=" ">
<path fill="none" stroke="#63b8ff" d="M61.06,-109.75C55.13,-102.26 46.43,-91.28 39.18,-82.13"/>
<polygon fill="#63b8ff" stroke="#63b8ff" points="41.76,-79.75 32.81,-74.09 36.27,-84.1 41.76,-79.75"/>
</a>
</g>
</g>
<!-- Node2&#45;&gt;Node4 -->
<g id="edge3_Node000002_Node000004" class="edge">
<title>Node2&#45;&gt;Node4</title>
<g id="a_edge3_Node000002_Node000004"><a xlink:title=" ">
<path fill="none" stroke="#63b8ff" d="M76.59,-109.75C84.16,-102.03 95.38,-90.6 104.51,-81.28"/>
<polygon fill="#63b8ff" stroke="#63b8ff" points="107.07,-83.68 111.57,-74.09 102.07,-78.78 107.07,-83.68"/>
</a>
</g>
</g>
<!-- Node5 -->
<g id="Node000005" class="node">
<title>Node5</title>
<g id="a_Node000005"><a xlink:title=" ">
<polygon fill="#e0e0e0" stroke="#999999" points="147,-19 93,-19 93,0 147,0 147,-19"/>
<text text-anchor="middle" x="120" y="-7" font-family="Helvetica,sans-Serif" font-size="10.00">setjmp.h</text>
</a>
</g>
</g>
<!-- Node4&#45;&gt;Node5 -->
<g id="edge4_Node000004_Node000005" class="edge">
<title>Node4&#45;&gt;Node5</title>
<g id="a_edge4_Node000004_Node000005"><a xlink:title=" ">
<path fill="none" stroke="#63b8ff" d="M120,-54.75C120,-47.8 120,-37.85 120,-29.13"/>
<polygon fill="#63b8ff" stroke="#63b8ff" points="123.5,-29.09 120,-19.09 116.5,-29.09 123.5,-29.09"/>
</a>
</g>
</g>
</g>
</svg>
