<?xml version="1.0" encoding="UTF-8" standalone="no"?>
<!DOCTYPE svg PUBLIC "-//W3C//DTD SVG 1.1//EN"
 "http://www.w3.org/Graphics/SVG/1.1/DTD/svg11.dtd">
<!-- Generated by graphviz version 2.43.0 (0)
 -->
<!-- Title: SocketCommon&#45;private.h Pages: 1 -->
<svg width="246pt" height="137pt"
 viewBox="0.00 0.00 245.50 137.00" xmlns="http://www.w3.org/2000/svg" xmlns:xlink="http://www.w3.org/1999/xlink">

<svg id="main" version="1.1" xmlns="http://www.w3.org/2000/svg" xmlns:xlink="http://www.w3.org/1999/xlink" xml:space="preserve" onload="init(evt)">
<style type="text/css"><![CDATA[
.node, .edge {opacity: 0.7;}
.node.selected, .edge.selected {opacity: 1;}
.edge:hover path { stroke: red; }
.edge:hover polygon { stroke: red; fill: red; }
]]></style>
<script type="application/ecmascript" xlink:href="svg.min.js"/>
<svg id="graph" class="graph">
<g id="graph0" class="graph" transform="scale(1 1) rotate(0) translate(4 133)">
<title>SocketCommon&#45;private.h</title>
<!-- Node1 -->
<g id="Node000001" class="node">
<title>Node1</title>
<g id="a_Node000001"><a xlink:title="Private declarations for the SocketCommon module.">
<polygon fill="#999999" stroke="#666666" points="180,-129 52,-129 52,-110 180,-110 180,-129"/>
<text text-anchor="middle" x="116" y="-117" font-family="Helvetica,sans-Serif" font-size="10.00">SocketCommon&#45;private.h</text>
</a>
</g>
</g>
<!-- Node2 -->
<g id="Node000002" class="node">
<title>Node2</title>
<g id="a_Node000002"><a xlink:href="Socket-private_8h.html" target="_top" xlink:title="Private implementation details for the Socket module, including internal structure definition....">
<polygon fill="white" stroke="#666666" points="100,-74 12,-74 12,-55 100,-55 100,-74"/>
<text text-anchor="middle" x="56" y="-62" font-family="Helvetica,sans-Serif" font-size="10.00">Socket&#45;private.h</text>
</a>
</g>
</g>
<!-- Node1&#45;&gt;Node2 -->
<g id="edge1_Node000001_Node000002" class="edge">
<title>Node1&#45;&gt;Node2</title>
<g id="a_edge1_Node000001_Node000002"><a xlink:title=" ">
<path fill="none" stroke="#63b8ff" d="M98.82,-103.32C88.12,-93.87 74.74,-82.06 65.82,-74.17"/>
<polygon fill="#63b8ff" stroke="#63b8ff" points="96.55,-105.99 106.36,-109.98 101.18,-100.74 96.55,-105.99"/>
</a>
</g>
</g>
<!-- Node4 -->
<g id="Node000004" class="node">
<title>Node4</title>
<g id="a_Node000004"><a xlink:href="SocketDgram-private_8h.html" target="_top" xlink:title="Internal implementation details for datagram (UDP) socket structure.">
<polygon fill="white" stroke="#666666" points="237.5,-74 120.5,-74 120.5,-55 237.5,-55 237.5,-74"/>
<text text-anchor="middle" x="179" y="-62" font-family="Helvetica,sans-Serif" font-size="10.00">SocketDgram&#45;private.h</text>
</a>
</g>
</g>
<!-- Node1&#45;&gt;Node4 -->
<g id="edge3_Node000001_Node000004" class="edge">
<title>Node1&#45;&gt;Node4</title>
<g id="a_edge3_Node000001_Node000004"><a xlink:title=" ">
<path fill="none" stroke="#63b8ff" d="M134.04,-103.32C145.27,-93.87 159.32,-82.06 168.69,-74.17"/>
<polygon fill="#63b8ff" stroke="#63b8ff" points="131.52,-100.87 126.12,-109.98 136.03,-106.23 131.52,-100.87"/>
</a>
</g>
</g>
<!-- Node3 -->
<g id="Node000003" class="node">
<title>Node3</title>
<g id="a_Node000003"><a xlink:href="SocketTLS-private_8h.html" target="_top" xlink:title="TLS internal shared definitions and helper functions.">
<polygon fill="white" stroke="#666666" points="106,-19 0,-19 0,0 106,0 106,-19"/>
<text text-anchor="middle" x="53" y="-7" font-family="Helvetica,sans-Serif" font-size="10.00">SocketTLS&#45;private.h</text>
</a>
</g>
</g>
<!-- Node2&#45;&gt;Node3 -->
<g id="edge2_Node000002_Node000003" class="edge">
<title>Node2&#45;&gt;Node3</title>
<g id="a_edge2_Node000002_Node000003"><a xlink:title=" ">
<path fill="none" stroke="#63b8ff" d="M54.93,-44.66C54.44,-35.93 53.88,-25.99 53.49,-19.09"/>
<polygon fill="#63b8ff" stroke="#63b8ff" points="51.44,-44.96 55.5,-54.75 58.43,-44.57 51.44,-44.96"/>
</a>
</g>
</g>
<!-- Node5 -->
<g id="Node000005" class="node">
<title>Node5</title>
<g id="a_Node000005"><a xlink:href="SocketDTLS-private_8h.html" target="_top" xlink:title="DTLS internal shared definitions and helper functions.">
<polygon fill="white" stroke="#666666" points="237.5,-19 124.5,-19 124.5,0 237.5,0 237.5,-19"/>
<text text-anchor="middle" x="181" y="-7" font-family="Helvetica,sans-Serif" font-size="10.00">SocketDTLS&#45;private.h</text>
</a>
</g>
</g>
<!-- Node4&#45;&gt;Node5 -->
<g id="edge4_Node000004_Node000005" class="edge">
<title>Node4&#45;&gt;Node5</title>
<g id="a_edge4_Node000004_Node000005"><a xlink:title=" ">
<path fill="none" stroke="#63b8ff" d="M179.71,-44.66C180.04,-35.93 180.42,-25.99 180.68,-19.09"/>
<polygon fill="#63b8ff" stroke="#63b8ff" points="176.21,-44.62 179.33,-54.75 183.2,-44.89 176.21,-44.62"/>
</a>
</g>
</g>
</g>
</svg>
</svg>

<style type='text/css'>
<![CDATA[
[data-mouse-over-selected='false'] { opacity: 0.7; }
[data-mouse-over-selected='true']  { opacity: 1.0; }
]]>
</style>
<script type="application/ecmascript"><![CDATA[
document.addEventListener('DOMContentLoaded', (event) => {
  highlightEdges();
  highlightAdjacentNodes();
});
]]></script>
</svg>
