<?xml version="1.0" encoding="UTF-8" standalone="no"?>
<!DOCTYPE svg PUBLIC "-//W3C//DTD SVG 1.1//EN"
 "http://www.w3.org/Graphics/SVG/1.1/DTD/svg11.dtd">
<!-- Generated by graphviz version 2.43.0 (0)
 -->
<!-- Title: SocketAsync&#45;private.h Pages: 1 -->
<svg width="1269pt" height="357pt"
 viewBox="0.00 0.00 1269.00 357.00" xmlns="http://www.w3.org/2000/svg" xmlns:xlink="http://www.w3.org/1999/xlink">
<g id="graph0" class="graph" transform="scale(1 1) rotate(0) translate(4 353)">
<title>SocketAsync&#45;private.h</title>
<!-- Node1 -->
<g id="Node000001" class="node">
<title>Node1</title>
<g id="a_Node000001"><a xlink:title="Private internal definitions for the SocketAsync module.">
<polygon fill="#999999" stroke="#666666" points="1164,-349 1048,-349 1048,-330 1164,-330 1164,-349"/>
<text text-anchor="middle" x="1106" y="-337" font-family="Helvetica,sans-Serif" font-size="10.00">SocketAsync&#45;private.h</text>
</a>
</g>
</g>
<!-- Node2 -->
<g id="Node000002" class="node">
<title>Node2</title>
<g id="a_Node000002"><a xlink:href="Arena_8h.html" target="_top" xlink:title="Arena&#45;based memory allocator for efficient bulk memory management.">
<polygon fill="white" stroke="#666666" points="1145,-129 1073,-129 1073,-110 1145,-110 1145,-129"/>
<text text-anchor="middle" x="1109" y="-117" font-family="Helvetica,sans-Serif" font-size="10.00">core/Arena.h</text>
</a>
</g>
</g>
<!-- Node1&#45;&gt;Node2 -->
<g id="edge1_Node000001_Node000002" class="edge">
<title>Node1&#45;&gt;Node2</title>
<g id="a_edge1_Node000001_Node000002"><a xlink:title=" ">
<path fill="none" stroke="#63b8ff" d="M1106.12,-329.95C1106.56,-297.95 1108.12,-184.68 1108.74,-139.4"/>
<polygon fill="#63b8ff" stroke="#63b8ff" points="1112.24,-139.27 1108.88,-129.22 1105.24,-139.17 1112.24,-139.27"/>
</a>
</g>
</g>
<!-- Node6 -->
<g id="Node000006" class="node">
<title>Node6</title>
<g id="a_Node000006"><a xlink:href="SocketConfig_8h.html" target="_top" xlink:title="Compile&#45;time and runtime configuration constants, limits, and platform adaptations.">
<polygon fill="white" stroke="#666666" points="363,-129 257,-129 257,-110 363,-110 363,-129"/>
<text text-anchor="middle" x="310" y="-117" font-family="Helvetica,sans-Serif" font-size="10.00">core/SocketConfig.h</text>
</a>
</g>
</g>
<!-- Node1&#45;&gt;Node6 -->
<g id="edge5_Node000001_Node000006" class="edge">
<title>Node1&#45;&gt;Node6</title>
<g id="a_edge5_Node000001_Node000006"><a xlink:title=" ">
<path fill="none" stroke="#63b8ff" d="M1063.02,-329.95C960.25,-309.08 692.66,-252.23 475,-184 426.56,-168.82 371.84,-146.75 339.17,-133.03"/>
<polygon fill="#63b8ff" stroke="#63b8ff" points="340.35,-129.72 329.78,-129.05 337.62,-136.17 340.35,-129.72"/>
</a>
</g>
</g>
<!-- Node15 -->
<g id="Node000015" class="node">
<title>Node15</title>
<g id="a_Node000015"><a xlink:href="Socket_8h.html" target="_top" xlink:title="High&#45;level TCP/IP and Unix domain socket interface.">
<polygon fill="white" stroke="#666666" points="1045,-239 957,-239 957,-220 1045,-220 1045,-239"/>
<text text-anchor="middle" x="1001" y="-227" font-family="Helvetica,sans-Serif" font-size="10.00">socket/Socket.h</text>
</a>
</g>
</g>
<!-- Node1&#45;&gt;Node15 -->
<g id="edge15_Node000001_Node000015" class="edge">
<title>Node1&#45;&gt;Node15</title>
<g id="a_edge15_Node000001_Node000015"><a xlink:title=" ">
<path fill="none" stroke="#63b8ff" d="M1097.41,-329.66C1079.71,-311.46 1038.96,-269.55 1016.52,-246.47"/>
<polygon fill="#63b8ff" stroke="#63b8ff" points="1018.9,-243.89 1009.42,-239.16 1013.88,-248.77 1018.9,-243.89"/>
</a>
</g>
</g>
<!-- Node25 -->
<g id="Node000025" class="node">
<title>Node25</title>
<g id="a_Node000025"><a xlink:href="SocketAsync_8h.html" target="_top" xlink:title="Platform&#45;optimized asynchronous I/O for high&#45;performance networking.">
<polygon fill="white" stroke="#666666" points="1261,-294 1145,-294 1145,-275 1261,-275 1261,-294"/>
<text text-anchor="middle" x="1203" y="-282" font-family="Helvetica,sans-Serif" font-size="10.00">socket/SocketAsync.h</text>
</a>
</g>
</g>
<!-- Node1&#45;&gt;Node25 -->
<g id="edge37_Node000001_Node000025" class="edge">
<title>Node1&#45;&gt;Node25</title>
<g id="a_edge37_Node000001_Node000025"><a xlink:title=" ">
<path fill="none" stroke="#63b8ff" d="M1121.58,-329.98C1136.77,-321.69 1160.1,-308.94 1177.9,-299.22"/>
<polygon fill="#63b8ff" stroke="#63b8ff" points="1180.03,-302.04 1187.13,-294.17 1176.68,-295.89 1180.03,-302.04"/>
</a>
</g>
</g>
<!-- Node3 -->
<g id="Node000003" class="node">
<title>Node3</title>
<g id="a_Node000003"><a xlink:title=" ">
<polygon fill="#e0e0e0" stroke="#999999" points="1024,-74 972,-74 972,-55 1024,-55 1024,-74"/>
<text text-anchor="middle" x="998" y="-62" font-family="Helvetica,sans-Serif" font-size="10.00">stddef.h</text>
</a>
</g>
</g>
<!-- Node2&#45;&gt;Node3 -->
<g id="edge2_Node000002_Node000003" class="edge">
<title>Node2&#45;&gt;Node3</title>
<g id="a_edge2_Node000002_Node000003"><a xlink:title=" ">
<path fill="none" stroke="#63b8ff" d="M1091.17,-109.98C1073.39,-101.5 1045.85,-88.35 1025.32,-78.54"/>
<polygon fill="#63b8ff" stroke="#63b8ff" points="1026.69,-75.32 1016.16,-74.17 1023.67,-81.64 1026.69,-75.32"/>
</a>
</g>
</g>
<!-- Node4 -->
<g id="Node000004" class="node">
<title>Node4</title>
<g id="a_Node000004"><a xlink:href="Except_8h.html" target="_top" xlink:title="Structured exception handling for C with TRY/EXCEPT/FINALLY blocks.">
<polygon fill="white" stroke="#666666" points="1147.5,-74 1070.5,-74 1070.5,-55 1147.5,-55 1147.5,-74"/>
<text text-anchor="middle" x="1109" y="-62" font-family="Helvetica,sans-Serif" font-size="10.00">core/Except.h</text>
</a>
</g>
</g>
<!-- Node2&#45;&gt;Node4 -->
<g id="edge3_Node000002_Node000004" class="edge">
<title>Node2&#45;&gt;Node4</title>
<g id="a_edge3_Node000002_Node000004"><a xlink:title=" ">
<path fill="none" stroke="#63b8ff" d="M1109,-109.75C1109,-102.8 1109,-92.85 1109,-84.13"/>
<polygon fill="#63b8ff" stroke="#63b8ff" points="1112.5,-84.09 1109,-74.09 1105.5,-84.09 1112.5,-84.09"/>
</a>
</g>
</g>
<!-- Node5 -->
<g id="Node000005" class="node">
<title>Node5</title>
<g id="a_Node000005"><a xlink:title=" ">
<polygon fill="#e0e0e0" stroke="#999999" points="1136,-19 1082,-19 1082,0 1136,0 1136,-19"/>
<text text-anchor="middle" x="1109" y="-7" font-family="Helvetica,sans-Serif" font-size="10.00">setjmp.h</text>
</a>
</g>
</g>
<!-- Node4&#45;&gt;Node5 -->
<g id="edge4_Node000004_Node000005" class="edge">
<title>Node4&#45;&gt;Node5</title>
<g id="a_edge4_Node000004_Node000005"><a xlink:title=" ">
<path fill="none" stroke="#63b8ff" d="M1109,-54.75C1109,-47.8 1109,-37.85 1109,-29.13"/>
<polygon fill="#63b8ff" stroke="#63b8ff" points="1112.5,-29.09 1109,-19.09 1105.5,-29.09 1112.5,-29.09"/>
</a>
</g>
</g>
<!-- Node6&#45;&gt;Node3 -->
<g id="edge10_Node000006_Node000003" class="edge">
<title>Node6&#45;&gt;Node3</title>
<g id="a_edge10_Node000006_Node000003"><a xlink:title=" ">
<path fill="none" stroke="#63b8ff" d="M363.23,-116.04C494.01,-109.83 829.43,-92.72 961.45,-73.92"/>
<polygon fill="#63b8ff" stroke="#63b8ff" points="962.35,-77.33 971.72,-72.39 961.32,-70.4 962.35,-77.33"/>
</a>
</g>
</g>
<!-- Node7 -->
<g id="Node000007" class="node">
<title>Node7</title>
<g id="a_Node000007"><a xlink:title=" ">
<polygon fill="#e0e0e0" stroke="#999999" points="254.5,-74 207.5,-74 207.5,-55 254.5,-55 254.5,-74"/>
<text text-anchor="middle" x="231" y="-62" font-family="Helvetica,sans-Serif" font-size="10.00">errno.h</text>
</a>
</g>
</g>
<!-- Node6&#45;&gt;Node7 -->
<g id="edge6_Node000006_Node000007" class="edge">
<title>Node6&#45;&gt;Node7</title>
<g id="a_edge6_Node000006_Node000007"><a xlink:title=" ">
<path fill="none" stroke="#63b8ff" d="M297.31,-109.98C285.17,-101.84 266.64,-89.41 252.25,-79.76"/>
<polygon fill="#63b8ff" stroke="#63b8ff" points="254.18,-76.84 243.92,-74.17 250.28,-82.65 254.18,-76.84"/>
</a>
</g>
</g>
<!-- Node8 -->
<g id="Node000008" class="node">
<title>Node8</title>
<g id="a_Node000008"><a xlink:title=" ">
<polygon fill="#e0e0e0" stroke="#999999" points="489,-74 445,-74 445,-55 489,-55 489,-74"/>
<text text-anchor="middle" x="467" y="-62" font-family="Helvetica,sans-Serif" font-size="10.00">fcntl.h</text>
</a>
</g>
</g>
<!-- Node6&#45;&gt;Node8 -->
<g id="edge7_Node000006_Node000008" class="edge">
<title>Node6&#45;&gt;Node8</title>
<g id="a_edge7_Node000006_Node000008"><a xlink:title=" ">
<path fill="none" stroke="#63b8ff" d="M335.22,-109.98C362.36,-100.82 405.59,-86.23 435.07,-76.28"/>
<polygon fill="#63b8ff" stroke="#63b8ff" points="436.53,-79.48 444.88,-72.97 434.29,-72.85 436.53,-79.48"/>
</a>
</g>
</g>
<!-- Node9 -->
<g id="Node000009" class="node">
<title>Node9</title>
<g id="a_Node000009"><a xlink:title=" ">
<polygon fill="#e0e0e0" stroke="#999999" points="426.5,-74 361.5,-74 361.5,-55 426.5,-55 426.5,-74"/>
<text text-anchor="middle" x="394" y="-62" font-family="Helvetica,sans-Serif" font-size="10.00">netinet/in.h</text>
</a>
</g>
</g>
<!-- Node6&#45;&gt;Node9 -->
<g id="edge8_Node000006_Node000009" class="edge">
<title>Node6&#45;&gt;Node9</title>
<g id="a_edge8_Node000006_Node000009"><a xlink:title=" ">
<path fill="none" stroke="#63b8ff" d="M323.5,-109.98C336.4,-101.84 356.1,-89.41 371.4,-79.76"/>
<polygon fill="#63b8ff" stroke="#63b8ff" points="373.67,-82.47 380.26,-74.17 369.93,-76.55 373.67,-82.47"/>
</a>
</g>
</g>
<!-- Node10 -->
<g id="Node000010" class="node">
<title>Node10</title>
<g id="a_Node000010"><a xlink:title=" ">
<polygon fill="#e0e0e0" stroke="#999999" points="343.5,-74 272.5,-74 272.5,-55 343.5,-55 343.5,-74"/>
<text text-anchor="middle" x="308" y="-62" font-family="Helvetica,sans-Serif" font-size="10.00">netinet/tcp.h</text>
</a>
</g>
</g>
<!-- Node6&#45;&gt;Node10 -->
<g id="edge9_Node000006_Node000010" class="edge">
<title>Node6&#45;&gt;Node10</title>
<g id="a_edge9_Node000006_Node000010"><a xlink:title=" ">
<path fill="none" stroke="#63b8ff" d="M309.67,-109.75C309.41,-102.8 309.03,-92.85 308.7,-84.13"/>
<polygon fill="#63b8ff" stroke="#63b8ff" points="312.2,-83.95 308.32,-74.09 305.2,-84.21 312.2,-83.95"/>
</a>
</g>
</g>
<!-- Node11 -->
<g id="Node000011" class="node">
<title>Node11</title>
<g id="a_Node000011"><a xlink:title=" ">
<polygon fill="#e0e0e0" stroke="#999999" points="46,-74 0,-74 0,-55 46,-55 46,-74"/>
<text text-anchor="middle" x="23" y="-62" font-family="Helvetica,sans-Serif" font-size="10.00">stdio.h</text>
</a>
</g>
</g>
<!-- Node6&#45;&gt;Node11 -->
<g id="edge11_Node000006_Node000011" class="edge">
<title>Node6&#45;&gt;Node11</title>
<g id="a_edge11_Node000006_Node000011"><a xlink:title=" ">
<path fill="none" stroke="#63b8ff" d="M256.99,-110.63C207.46,-102.96 131.25,-90.37 56.12,-74.08"/>
<polygon fill="#63b8ff" stroke="#63b8ff" points="56.53,-70.59 46.01,-71.87 55.03,-77.43 56.53,-70.59"/>
</a>
</g>
</g>
<!-- Node12 -->
<g id="Node000012" class="node">
<title>Node12</title>
<g id="a_Node000012"><a xlink:title=" ">
<polygon fill="#e0e0e0" stroke="#999999" points="580.5,-74 507.5,-74 507.5,-55 580.5,-55 580.5,-74"/>
<text text-anchor="middle" x="544" y="-62" font-family="Helvetica,sans-Serif" font-size="10.00">sys/socket.h</text>
</a>
</g>
</g>
<!-- Node6&#45;&gt;Node12 -->
<g id="edge12_Node000006_Node000012" class="edge">
<title>Node6&#45;&gt;Node12</title>
<g id="a_edge12_Node000006_Node000012"><a xlink:title=" ">
<path fill="none" stroke="#63b8ff" d="M347.6,-109.98C388.35,-100.75 453.43,-86.01 497.4,-76.05"/>
<polygon fill="#63b8ff" stroke="#63b8ff" points="498.29,-79.44 507.27,-73.82 496.74,-72.62 498.29,-79.44"/>
</a>
</g>
</g>
<!-- Node13 -->
<g id="Node000013" class="node">
<title>Node13</title>
<g id="a_Node000013"><a xlink:title=" ">
<polygon fill="#e0e0e0" stroke="#999999" points="120,-74 64,-74 64,-55 120,-55 120,-74"/>
<text text-anchor="middle" x="92" y="-62" font-family="Helvetica,sans-Serif" font-size="10.00">sys/uio.h</text>
</a>
</g>
</g>
<!-- Node6&#45;&gt;Node13 -->
<g id="edge13_Node000006_Node000013" class="edge">
<title>Node6&#45;&gt;Node13</title>
<g id="a_edge13_Node000006_Node000013"><a xlink:title=" ">
<path fill="none" stroke="#63b8ff" d="M274.97,-109.98C235.25,-100.33 170.71,-84.64 129.86,-74.7"/>
<polygon fill="#63b8ff" stroke="#63b8ff" points="130.55,-71.27 120.01,-72.31 128.9,-78.07 130.55,-71.27"/>
</a>
</g>
</g>
<!-- Node14 -->
<g id="Node000014" class="node">
<title>Node14</title>
<g id="a_Node000014"><a xlink:title=" ">
<polygon fill="#e0e0e0" stroke="#999999" points="189.5,-74 138.5,-74 138.5,-55 189.5,-55 189.5,-74"/>
<text text-anchor="middle" x="164" y="-62" font-family="Helvetica,sans-Serif" font-size="10.00">unistd.h</text>
</a>
</g>
</g>
<!-- Node6&#45;&gt;Node14 -->
<g id="edge14_Node000006_Node000014" class="edge">
<title>Node6&#45;&gt;Node14</title>
<g id="a_edge14_Node000006_Node000014"><a xlink:title=" ">
<path fill="none" stroke="#63b8ff" d="M286.54,-109.98C262.42,-101.23 224.63,-87.51 197.4,-77.62"/>
<polygon fill="#63b8ff" stroke="#63b8ff" points="198.48,-74.29 187.88,-74.17 196.09,-80.87 198.48,-74.29"/>
</a>
</g>
</g>
<!-- Node15&#45;&gt;Node4 -->
<g id="edge16_Node000015_Node000004" class="edge">
<title>Node15&#45;&gt;Node4</title>
<g id="a_edge16_Node000015_Node000004"><a xlink:title=" ">
<path fill="none" stroke="#63b8ff" d="M1028.39,-219.89C1064.71,-206.83 1127.33,-178.16 1154,-129 1163.57,-111.36 1146.89,-92.82 1131.2,-80.36"/>
<polygon fill="#63b8ff" stroke="#63b8ff" points="1132.88,-77.24 1122.76,-74.1 1128.71,-82.87 1132.88,-77.24"/>
</a>
</g>
</g>
<!-- Node15&#45;&gt;Node6 -->
<g id="edge17_Node000015_Node000006" class="edge">
<title>Node15&#45;&gt;Node6</title>
<g id="a_edge17_Node000015_Node000006"><a xlink:title=" ">
<path fill="none" stroke="#63b8ff" d="M956.99,-226.11C877.86,-221.36 706.54,-208.94 564,-184 486.51,-170.44 397.7,-146.19 348.29,-131.9"/>
<polygon fill="#63b8ff" stroke="#63b8ff" points="349.24,-128.53 338.66,-129.1 347.28,-135.25 349.24,-128.53"/>
</a>
</g>
</g>
<!-- Node16 -->
<g id="Node000016" class="node">
<title>Node16</title>
<g id="a_Node000016"><a xlink:href="SocketDNS_8h.html" target="_top" xlink:title="Asynchronous DNS resolution API for non&#45;blocking network applications.">
<polygon fill="white" stroke="#666666" points="1017,-129 921,-129 921,-110 1017,-110 1017,-129"/>
<text text-anchor="middle" x="969" y="-117" font-family="Helvetica,sans-Serif" font-size="10.00">dns/SocketDNS.h</text>
</a>
</g>
</g>
<!-- Node15&#45;&gt;Node16 -->
<g id="edge18_Node000015_Node000016" class="edge">
<title>Node15&#45;&gt;Node16</title>
<g id="a_edge18_Node000015_Node000016"><a xlink:title=" ">
<path fill="none" stroke="#63b8ff" d="M998.38,-219.66C993.18,-202.09 981.43,-162.45 974.47,-138.95"/>
<polygon fill="#63b8ff" stroke="#63b8ff" points="977.76,-137.75 971.57,-129.16 971.05,-139.74 977.76,-137.75"/>
</a>
</g>
</g>
<!-- Node19 -->
<g id="Node000019" class="node">
<title>Node19</title>
<g id="a_Node000019"><a xlink:href="SocketCommon_8h.html" target="_top" xlink:title="Common utilities shared between Socket and SocketDgram modules.">
<polygon fill="white" stroke="#666666" points="701,-184 573,-184 573,-165 701,-165 701,-184"/>
<text text-anchor="middle" x="637" y="-172" font-family="Helvetica,sans-Serif" font-size="10.00">socket/SocketCommon.h</text>
</a>
</g>
</g>
<!-- Node15&#45;&gt;Node19 -->
<g id="edge24_Node000015_Node000019" class="edge">
<title>Node15&#45;&gt;Node19</title>
<g id="a_edge24_Node000015_Node000019"><a xlink:title=" ">
<path fill="none" stroke="#63b8ff" d="M956.73,-222.05C894.21,-212.95 779.47,-196.24 705.79,-185.52"/>
<polygon fill="#63b8ff" stroke="#63b8ff" points="706.08,-182.02 695.68,-184.04 705.07,-188.95 706.08,-182.02"/>
</a>
</g>
</g>
<!-- Node16&#45;&gt;Node3 -->
<g id="edge21_Node000016_Node000003" class="edge">
<title>Node16&#45;&gt;Node3</title>
<g id="a_edge21_Node000016_Node000003"><a xlink:title=" ">
<path fill="none" stroke="#63b8ff" d="M973.79,-109.75C977.76,-102.49 983.53,-91.95 988.43,-82.98"/>
<polygon fill="#63b8ff" stroke="#63b8ff" points="991.57,-84.54 993.3,-74.09 985.43,-81.18 991.57,-84.54"/>
</a>
</g>
</g>
<!-- Node16&#45;&gt;Node4 -->
<g id="edge19_Node000016_Node000004" class="edge">
<title>Node16&#45;&gt;Node4</title>
<g id="a_edge19_Node000016_Node000004"><a xlink:title=" ">
<path fill="none" stroke="#63b8ff" d="M991.49,-109.98C1014.52,-101.27 1050.54,-87.63 1076.63,-77.75"/>
<polygon fill="#63b8ff" stroke="#63b8ff" points="1077.98,-80.98 1086.1,-74.17 1075.51,-74.44 1077.98,-80.98"/>
</a>
</g>
</g>
<!-- Node16&#45;&gt;Node12 -->
<g id="edge23_Node000016_Node000012" class="edge">
<title>Node16&#45;&gt;Node12</title>
<g id="a_edge23_Node000016_Node000012"><a xlink:title=" ">
<path fill="none" stroke="#63b8ff" d="M920.81,-111.22C917.83,-110.8 914.88,-110.39 912,-110 796.74,-94.44 660.82,-78.67 590.85,-70.74"/>
<polygon fill="#63b8ff" stroke="#63b8ff" points="590.94,-67.23 580.61,-69.59 590.15,-74.19 590.94,-67.23"/>
</a>
</g>
</g>
<!-- Node17 -->
<g id="Node000017" class="node">
<title>Node17</title>
<g id="a_Node000017"><a xlink:title=" ">
<polygon fill="#e0e0e0" stroke="#999999" points="753.5,-74 704.5,-74 704.5,-55 753.5,-55 753.5,-74"/>
<text text-anchor="middle" x="729" y="-62" font-family="Helvetica,sans-Serif" font-size="10.00">netdb.h</text>
</a>
</g>
</g>
<!-- Node16&#45;&gt;Node17 -->
<g id="edge20_Node000016_Node000017" class="edge">
<title>Node16&#45;&gt;Node17</title>
<g id="a_edge20_Node000016_Node000017"><a xlink:title=" ">
<path fill="none" stroke="#63b8ff" d="M930.44,-109.98C884.32,-99.8 807.8,-82.9 763.53,-73.13"/>
<polygon fill="#63b8ff" stroke="#63b8ff" points="764.06,-69.66 753.54,-70.92 762.55,-76.49 764.06,-69.66"/>
</a>
</g>
</g>
<!-- Node18 -->
<g id="Node000018" class="node">
<title>Node18</title>
<g id="a_Node000018"><a xlink:title=" ">
<polygon fill="#e0e0e0" stroke="#999999" points="953.5,-74 904.5,-74 904.5,-55 953.5,-55 953.5,-74"/>
<text text-anchor="middle" x="929" y="-62" font-family="Helvetica,sans-Serif" font-size="10.00">stdint.h</text>
</a>
</g>
</g>
<!-- Node16&#45;&gt;Node18 -->
<g id="edge22_Node000016_Node000018" class="edge">
<title>Node16&#45;&gt;Node18</title>
<g id="a_edge22_Node000016_Node000018"><a xlink:title=" ">
<path fill="none" stroke="#63b8ff" d="M962.39,-109.75C956.74,-102.26 948.46,-91.28 941.55,-82.13"/>
<polygon fill="#63b8ff" stroke="#63b8ff" points="944.3,-79.96 935.48,-74.09 938.71,-84.18 944.3,-79.96"/>
</a>
</g>
</g>
<!-- Node19&#45;&gt;Node2 -->
<g id="edge34_Node000019_Node000002" class="edge">
<title>Node19&#45;&gt;Node2</title>
<g id="a_edge34_Node000019_Node000002"><a xlink:title=" ">
<path fill="none" stroke="#63b8ff" d="M701.14,-168.01C783.98,-160.63 932.56,-146.4 1059,-129 1060.28,-128.82 1061.57,-128.64 1062.87,-128.45"/>
<polygon fill="#63b8ff" stroke="#63b8ff" points="1063.64,-131.88 1072.99,-126.9 1062.58,-124.96 1063.64,-131.88"/>
</a>
</g>
</g>
<!-- Node19&#45;&gt;Node4 -->
<g id="edge35_Node000019_Node000004" class="edge">
<title>Node19&#45;&gt;Node4</title>
<g id="a_edge35_Node000019_Node000004"><a xlink:title=" ">
<path fill="none" stroke="#63b8ff" d="M701.34,-170.3C796.22,-164.87 968.64,-152.14 1026,-129 1052.65,-118.25 1078.1,-96.49 1093.63,-81.47"/>
<polygon fill="#63b8ff" stroke="#63b8ff" points="1096.19,-83.85 1100.8,-74.31 1091.24,-78.9 1096.19,-83.85"/>
</a>
</g>
</g>
<!-- Node19&#45;&gt;Node6 -->
<g id="edge36_Node000019_Node000006" class="edge">
<title>Node19&#45;&gt;Node6</title>
<g id="a_edge36_Node000019_Node000006"><a xlink:title=" ">
<path fill="none" stroke="#63b8ff" d="M584.46,-164.98C526.74,-155.63 434.09,-140.61 372.64,-130.65"/>
<polygon fill="#63b8ff" stroke="#63b8ff" points="373.11,-127.18 362.68,-129.04 371.99,-134.09 373.11,-127.18"/>
</a>
</g>
</g>
<!-- Node19&#45;&gt;Node8 -->
<g id="edge27_Node000019_Node000008" class="edge">
<title>Node19&#45;&gt;Node8</title>
<g id="a_edge27_Node000019_Node000008"><a xlink:title=" ">
<path fill="none" stroke="#63b8ff" d="M586.68,-164.95C560.48,-158.52 529.18,-147.51 506,-129 491.03,-117.05 480.33,-97.68 473.97,-83.47"/>
<polygon fill="#63b8ff" stroke="#63b8ff" points="477.19,-82.1 470.1,-74.22 470.73,-84.8 477.19,-82.1"/>
</a>
</g>
</g>
<!-- Node19&#45;&gt;Node9 -->
<g id="edge29_Node000019_Node000009" class="edge">
<title>Node19&#45;&gt;Node9</title>
<g id="a_edge29_Node000019_Node000009"><a xlink:title=" ">
<path fill="none" stroke="#63b8ff" d="M594.36,-164.93C563.12,-157.72 520.21,-145.88 485,-129 457.53,-115.83 429.28,-94.7 411.69,-80.47"/>
<polygon fill="#63b8ff" stroke="#63b8ff" points="413.9,-77.76 403.96,-74.11 409.45,-83.17 413.9,-77.76"/>
</a>
</g>
</g>
<!-- Node19&#45;&gt;Node12 -->
<g id="edge30_Node000019_Node000012" class="edge">
<title>Node19&#45;&gt;Node12</title>
<g id="a_edge30_Node000019_Node000012"><a xlink:title=" ">
<path fill="none" stroke="#63b8ff" d="M572.94,-165.29C550.88,-159.05 528.38,-148.12 515,-129 504.64,-114.2 516.18,-95.1 527.63,-81.74"/>
<polygon fill="#63b8ff" stroke="#63b8ff" points="530.33,-83.96 534.54,-74.24 525.19,-79.21 530.33,-83.96"/>
</a>
</g>
</g>
<!-- Node19&#45;&gt;Node17 -->
<g id="edge28_Node000019_Node000017" class="edge">
<title>Node19&#45;&gt;Node17</title>
<g id="a_edge28_Node000019_Node000017"><a xlink:title=" ">
<path fill="none" stroke="#63b8ff" d="M591.34,-164.98C551.31,-155.47 502.71,-137.68 525,-110 545.85,-84.12 641.49,-72.48 694.09,-67.96"/>
<polygon fill="#63b8ff" stroke="#63b8ff" points="694.62,-71.43 704.31,-67.13 694.05,-64.45 694.62,-71.43"/>
</a>
</g>
</g>
<!-- Node20 -->
<g id="Node000020" class="node">
<title>Node20</title>
<g id="a_Node000020"><a xlink:title=" ">
<polygon fill="#e0e0e0" stroke="#999999" points="590.5,-129 533.5,-129 533.5,-110 590.5,-110 590.5,-129"/>
<text text-anchor="middle" x="562" y="-117" font-family="Helvetica,sans-Serif" font-size="10.00">pthread.h</text>
</a>
</g>
</g>
<!-- Node19&#45;&gt;Node20 -->
<g id="edge25_Node000019_Node000020" class="edge">
<title>Node19&#45;&gt;Node20</title>
<g id="a_edge25_Node000019_Node000020"><a xlink:title=" ">
<path fill="none" stroke="#63b8ff" d="M624.95,-164.98C613.54,-156.92 596.17,-144.65 582.57,-135.03"/>
<polygon fill="#63b8ff" stroke="#63b8ff" points="584.46,-132.08 574.27,-129.17 580.42,-137.8 584.46,-132.08"/>
</a>
</g>
</g>
<!-- Node21 -->
<g id="Node000021" class="node">
<title>Node21</title>
<g id="a_Node000021"><a xlink:title=" ">
<polygon fill="#e0e0e0" stroke="#999999" points="665,-129 609,-129 609,-110 665,-110 665,-129"/>
<text text-anchor="middle" x="637" y="-117" font-family="Helvetica,sans-Serif" font-size="10.00">stdbool.h</text>
</a>
</g>
</g>
<!-- Node19&#45;&gt;Node21 -->
<g id="edge26_Node000019_Node000021" class="edge">
<title>Node19&#45;&gt;Node21</title>
<g id="a_edge26_Node000019_Node000021"><a xlink:title=" ">
<path fill="none" stroke="#63b8ff" d="M637,-164.75C637,-157.8 637,-147.85 637,-139.13"/>
<polygon fill="#63b8ff" stroke="#63b8ff" points="640.5,-139.09 637,-129.09 633.5,-139.09 640.5,-139.09"/>
</a>
</g>
</g>
<!-- Node22 -->
<g id="Node000022" class="node">
<title>Node22</title>
<g id="a_Node000022"><a xlink:title=" ">
<polygon fill="#e0e0e0" stroke="#999999" points="745,-129 683,-129 683,-110 745,-110 745,-129"/>
<text text-anchor="middle" x="714" y="-117" font-family="Helvetica,sans-Serif" font-size="10.00">sys/time.h</text>
</a>
</g>
</g>
<!-- Node19&#45;&gt;Node22 -->
<g id="edge31_Node000019_Node000022" class="edge">
<title>Node19&#45;&gt;Node22</title>
<g id="a_edge31_Node000019_Node000022"><a xlink:title=" ">
<path fill="none" stroke="#63b8ff" d="M649.37,-164.98C661.09,-156.92 678.92,-144.65 692.89,-135.03"/>
<polygon fill="#63b8ff" stroke="#63b8ff" points="695.15,-137.72 701.4,-129.17 691.18,-131.96 695.15,-137.72"/>
</a>
</g>
</g>
<!-- Node23 -->
<g id="Node000023" class="node">
<title>Node23</title>
<g id="a_Node000023"><a xlink:title=" ">
<polygon fill="#e0e0e0" stroke="#999999" points="831,-129 763,-129 763,-110 831,-110 831,-129"/>
<text text-anchor="middle" x="797" y="-117" font-family="Helvetica,sans-Serif" font-size="10.00">sys/types.h</text>
</a>
</g>
</g>
<!-- Node19&#45;&gt;Node23 -->
<g id="edge32_Node000019_Node000023" class="edge">
<title>Node19&#45;&gt;Node23</title>
<g id="a_edge32_Node000019_Node000023"><a xlink:title=" ">
<path fill="none" stroke="#63b8ff" d="M662.71,-164.98C689.45,-156.13 731.53,-142.19 761.45,-132.28"/>
<polygon fill="#63b8ff" stroke="#63b8ff" points="762.7,-135.55 771.09,-129.08 760.5,-128.9 762.7,-135.55"/>
</a>
</g>
</g>
<!-- Node24 -->
<g id="Node000024" class="node">
<title>Node24</title>
<g id="a_Node000024"><a xlink:title=" ">
<polygon fill="#e0e0e0" stroke="#999999" points="903,-129 849,-129 849,-110 903,-110 903,-129"/>
<text text-anchor="middle" x="876" y="-117" font-family="Helvetica,sans-Serif" font-size="10.00">sys/un.h</text>
</a>
</g>
</g>
<!-- Node19&#45;&gt;Node24 -->
<g id="edge33_Node000019_Node000024" class="edge">
<title>Node19&#45;&gt;Node24</title>
<g id="a_edge33_Node000019_Node000024"><a xlink:title=" ">
<path fill="none" stroke="#63b8ff" d="M676.72,-164.99C715.59,-156.62 776.75,-143.33 838.9,-129.22"/>
<polygon fill="#63b8ff" stroke="#63b8ff" points="839.91,-132.58 848.88,-126.95 838.36,-125.76 839.91,-132.58"/>
</a>
</g>
</g>
<!-- Node25&#45;&gt;Node4 -->
<g id="edge38_Node000025_Node000004" class="edge">
<title>Node25&#45;&gt;Node4</title>
<g id="a_edge38_Node000025_Node000004"><a xlink:title=" ">
<path fill="none" stroke="#63b8ff" d="M1203.41,-274.76C1204.26,-247.9 1203.74,-165.03 1169,-110 1160.89,-97.15 1147.64,-86.75 1135.65,-79.24"/>
<polygon fill="#63b8ff" stroke="#63b8ff" points="1137.23,-76.11 1126.83,-74.06 1133.69,-82.14 1137.23,-76.11"/>
</a>
</g>
</g>
<!-- Node25&#45;&gt;Node15 -->
<g id="edge39_Node000025_Node000015" class="edge">
<title>Node25&#45;&gt;Node15</title>
<g id="a_edge39_Node000025_Node000015"><a xlink:title=" ">
<path fill="none" stroke="#63b8ff" d="M1170.55,-274.98C1136.04,-265.93 1081.34,-251.58 1043.44,-241.64"/>
<polygon fill="#63b8ff" stroke="#63b8ff" points="1044.27,-238.23 1033.71,-239.08 1042.49,-245.01 1044.27,-238.23"/>
</a>
</g>
</g>
</g>
</svg>
