<?xml version="1.0" encoding="UTF-8" standalone="no"?>
<!DOCTYPE svg PUBLIC "-//W3C//DTD SVG 1.1//EN"
 "http://www.w3.org/Graphics/SVG/1.1/DTD/svg11.dtd">
<!-- Generated by graphviz version 2.43.0 (0)
 -->
<!-- Title: Socket.h Pages: 1 -->
<svg width="1253pt" height="247pt"
 viewBox="0.00 0.00 1252.50 247.00" xmlns="http://www.w3.org/2000/svg" xmlns:xlink="http://www.w3.org/1999/xlink">
<g id="graph0" class="graph" transform="scale(1 1) rotate(0) translate(4 243)">
<title>Socket.h</title>
<!-- Node1 -->
<g id="Node000001" class="node">
<title>Node1</title>
<g id="a_Node000001"><a xlink:title=" ">
<polygon fill="#999999" stroke="#666666" points="782.5,-239 726.5,-239 726.5,-220 782.5,-220 782.5,-239"/>
<text text-anchor="middle" x="754.5" y="-227" font-family="Helvetica,sans-Serif" font-size="10.00">Socket.h</text>
</a>
</g>
</g>
<!-- Node2 -->
<g id="Node000002" class="node">
<title>Node2</title>
<g id="a_Node000002"><a xlink:href="SocketAsync_8h.html" target="_top" xlink:title=" ">
<polygon fill="white" stroke="#666666" points="83,-184 0,-184 0,-165 83,-165 83,-184"/>
<text text-anchor="middle" x="41.5" y="-172" font-family="Helvetica,sans-Serif" font-size="10.00">SocketAsync.h</text>
</a>
</g>
</g>
<!-- Node1&#45;&gt;Node2 -->
<g id="edge1_Node000001_Node000002" class="edge">
<title>Node1&#45;&gt;Node2</title>
<g id="a_edge1_Node000001_Node000002"><a xlink:title=" ">
<path fill="none" stroke="#63b8ff" d="M716.17,-227.29C614.23,-223.77 328.01,-211.97 91.5,-184 88.79,-183.68 86,-183.31 83.2,-182.91"/>
<polygon fill="#63b8ff" stroke="#63b8ff" points="716.18,-230.79 726.29,-227.63 716.42,-223.79 716.18,-230.79"/>
</a>
</g>
</g>
<!-- Node3 -->
<g id="Node000003" class="node">
<title>Node3</title>
<g id="a_Node000003"><a xlink:href="SocketHTTP2_8h.html" target="_top" xlink:title=" ">
<polygon fill="white" stroke="#666666" points="188,-184 101,-184 101,-165 188,-165 188,-184"/>
<text text-anchor="middle" x="144.5" y="-172" font-family="Helvetica,sans-Serif" font-size="10.00">SocketHTTP2.h</text>
</a>
</g>
</g>
<!-- Node1&#45;&gt;Node3 -->
<g id="edge2_Node000001_Node000003" class="edge">
<title>Node1&#45;&gt;Node3</title>
<g id="a_edge2_Node000001_Node000003"><a xlink:title=" ">
<path fill="none" stroke="#63b8ff" d="M716.3,-226.28C626.5,-220.87 395.02,-205.84 202.5,-184 197.85,-183.47 193,-182.86 188.16,-182.21"/>
<polygon fill="#63b8ff" stroke="#63b8ff" points="716.1,-229.77 726.29,-226.88 716.52,-222.79 716.1,-229.77"/>
</a>
</g>
</g>
<!-- Node4 -->
<g id="Node000004" class="node">
<title>Node4</title>
<g id="a_Node000004"><a xlink:href="SocketHTTPServer_8h.html" target="_top" xlink:title=" ">
<polygon fill="white" stroke="#666666" points="682.5,-74 572.5,-74 572.5,-55 682.5,-55 682.5,-74"/>
<text text-anchor="middle" x="627.5" y="-62" font-family="Helvetica,sans-Serif" font-size="10.00">SocketHTTPServer.h</text>
</a>
</g>
</g>
<!-- Node1&#45;&gt;Node4 -->
<g id="edge3_Node000001_Node000004" class="edge">
<title>Node1&#45;&gt;Node4</title>
<g id="a_edge3_Node000001_Node000004"><a xlink:title=" ">
<path fill="none" stroke="#63b8ff" d="M717.19,-216.26C680.88,-201.95 628.5,-174.29 609.5,-129 601.61,-110.19 613.39,-86.84 621.31,-74.35"/>
<polygon fill="#63b8ff" stroke="#63b8ff" points="716.37,-219.69 726.96,-219.94 718.84,-213.14 716.37,-219.69"/>
</a>
</g>
</g>
<!-- Node6 -->
<g id="Node000006" class="node">
<title>Node6</title>
<g id="a_Node000006"><a xlink:href="websocket__server_8c.html" target="_top" xlink:title=" ">
<polygon fill="white" stroke="#666666" points="819.5,-19 715.5,-19 715.5,0 819.5,0 819.5,-19"/>
<text text-anchor="middle" x="767.5" y="-7" font-family="Helvetica,sans-Serif" font-size="10.00">websocket_server.c</text>
</a>
</g>
</g>
<!-- Node1&#45;&gt;Node6 -->
<g id="edge39_Node000001_Node000006" class="edge">
<title>Node1&#45;&gt;Node6</title>
<g id="a_edge39_Node000001_Node000006"><a xlink:title=" ">
<path fill="none" stroke="#63b8ff" d="M761.14,-210.14C763.67,-202.21 766.25,-192.76 767.5,-184 776.46,-121.38 770.72,-44.75 768.37,-19.23"/>
<polygon fill="#63b8ff" stroke="#63b8ff" points="757.76,-209.2 757.84,-219.8 764.38,-211.46 757.76,-209.2"/>
</a>
</g>
</g>
<!-- Node7 -->
<g id="Node000007" class="node">
<title>Node7</title>
<g id="a_Node000007"><a xlink:href="SocketHappyEyeballs_8h.html" target="_top" xlink:title=" ">
<polygon fill="white" stroke="#666666" points="936.5,-74 814.5,-74 814.5,-55 936.5,-55 936.5,-74"/>
<text text-anchor="middle" x="875.5" y="-62" font-family="Helvetica,sans-Serif" font-size="10.00">SocketHappyEyeballs.h</text>
</a>
</g>
</g>
<!-- Node1&#45;&gt;Node7 -->
<g id="edge6_Node000001_Node000007" class="edge">
<title>Node1&#45;&gt;Node7</title>
<g id="a_edge6_Node000001_Node000007"><a xlink:title=" ">
<path fill="none" stroke="#63b8ff" d="M772.82,-212.94C781.76,-204.84 792.32,-194.45 800.5,-184 823.95,-154.05 822.82,-141.92 843.5,-110 851.78,-97.22 862.21,-83.03 868.87,-74.19"/>
<polygon fill="#63b8ff" stroke="#63b8ff" points="770.36,-210.44 765.18,-219.68 775,-215.69 770.36,-210.44"/>
</a>
</g>
</g>
<!-- Node8 -->
<g id="Node000008" class="node">
<title>Node8</title>
<g id="a_Node000008"><a xlink:href="SocketIO_8h.html" target="_top" xlink:title=" ">
<polygon fill="white" stroke="#666666" points="1244.5,-184 1178.5,-184 1178.5,-165 1244.5,-165 1244.5,-184"/>
<text text-anchor="middle" x="1211.5" y="-172" font-family="Helvetica,sans-Serif" font-size="10.00">SocketIO.h</text>
</a>
</g>
</g>
<!-- Node1&#45;&gt;Node8 -->
<g id="edge7_Node000001_Node000008" class="edge">
<title>Node1&#45;&gt;Node8</title>
<g id="a_edge7_Node000001_Node000008"><a xlink:title=" ">
<path fill="none" stroke="#63b8ff" d="M792.95,-225.58C866.4,-219.73 1031.62,-205.3 1169.5,-184 1172.29,-183.57 1175.18,-183.08 1178.08,-182.55"/>
<polygon fill="#63b8ff" stroke="#63b8ff" points="792.49,-222.1 782.8,-226.38 793.04,-229.08 792.49,-222.1"/>
</a>
</g>
</g>
<!-- Node9 -->
<g id="Node000009" class="node">
<title>Node9</title>
<g id="a_Node000009"><a xlink:href="SocketPoll_8h.html" target="_top" xlink:title=" ">
<polygon fill="white" stroke="#666666" points="924.5,-129 852.5,-129 852.5,-110 924.5,-110 924.5,-129"/>
<text text-anchor="middle" x="888.5" y="-117" font-family="Helvetica,sans-Serif" font-size="10.00">SocketPoll.h</text>
</a>
</g>
</g>
<!-- Node1&#45;&gt;Node9 -->
<g id="edge8_Node000001_Node000009" class="edge">
<title>Node1&#45;&gt;Node9</title>
<g id="a_edge8_Node000001_Node000009"><a xlink:title=" ">
<path fill="none" stroke="#63b8ff" d="M785.71,-215.77C802.41,-208.06 822.72,-197.17 838.5,-184 858.11,-167.64 875.11,-142.45 883.3,-129.25"/>
<polygon fill="#63b8ff" stroke="#63b8ff" points="784.07,-212.67 776.36,-219.93 786.92,-219.06 784.07,-212.67"/>
</a>
</g>
</g>
<!-- Node10 -->
<g id="Node000010" class="node">
<title>Node10</title>
<g id="a_Node000010"><a xlink:href="SocketPoll__backend_8h.html" target="_top" xlink:title=" ">
<polygon fill="white" stroke="#666666" points="1106.5,-74 992.5,-74 992.5,-55 1106.5,-55 1106.5,-74"/>
<text text-anchor="middle" x="1049.5" y="-62" font-family="Helvetica,sans-Serif" font-size="10.00">SocketPoll_backend.h</text>
</a>
</g>
</g>
<!-- Node1&#45;&gt;Node10 -->
<g id="edge16_Node000001_Node000010" class="edge">
<title>Node1&#45;&gt;Node10</title>
<g id="a_edge16_Node000001_Node000010"><a xlink:title=" ">
<path fill="none" stroke="#63b8ff" d="M788.07,-216.31C809.51,-208.09 837.66,-196.5 861.5,-184 915.33,-155.77 924.99,-142.26 976.5,-110 996.75,-97.31 1020.4,-82.98 1035.17,-74.1"/>
<polygon fill="#63b8ff" stroke="#63b8ff" points="786.55,-213.14 778.43,-219.95 789.02,-219.69 786.55,-213.14"/>
</a>
</g>
</g>
<!-- Node11 -->
<g id="Node000011" class="node">
<title>Node11</title>
<g id="a_Node000011"><a xlink:href="SocketProxy_8h.html" target="_top" xlink:title=" ">
<polygon fill="white" stroke="#666666" points="467.5,-74 387.5,-74 387.5,-55 467.5,-55 467.5,-74"/>
<text text-anchor="middle" x="427.5" y="-62" font-family="Helvetica,sans-Serif" font-size="10.00">SocketProxy.h</text>
</a>
</g>
</g>
<!-- Node1&#45;&gt;Node11 -->
<g id="edge19_Node000001_Node000011" class="edge">
<title>Node1&#45;&gt;Node11</title>
<g id="a_edge19_Node000001_Node000011"><a xlink:title=" ">
<path fill="none" stroke="#63b8ff" d="M716.63,-217.84C691.9,-210.12 659.34,-198.52 632.5,-184 584.18,-157.87 581.18,-137.28 533.5,-110 507.17,-94.93 474.74,-82.07 452.73,-74.11"/>
<polygon fill="#63b8ff" stroke="#63b8ff" points="715.79,-221.24 726.37,-220.8 717.83,-214.54 715.79,-221.24"/>
</a>
</g>
</g>
<!-- Node12 -->
<g id="Node000012" class="node">
<title>Node12</title>
<g id="a_Node000012"><a xlink:href="proxy__connect_8c.html" target="_top" xlink:title=" ">
<polygon fill="white" stroke="#666666" points="362,-19 273,-19 273,0 362,0 362,-19"/>
<text text-anchor="middle" x="317.5" y="-7" font-family="Helvetica,sans-Serif" font-size="10.00">proxy_connect.c</text>
</a>
</g>
</g>
<!-- Node1&#45;&gt;Node12 -->
<g id="edge37_Node000001_Node000012" class="edge">
<title>Node1&#45;&gt;Node12</title>
<g id="a_edge37_Node000001_Node000012"><a xlink:title=" ">
<path fill="none" stroke="#63b8ff" d="M716.2,-226.29C629.75,-220.96 421.89,-206.19 355.5,-184 309.96,-168.78 286.29,-170.71 262.5,-129 254.68,-115.3 257.09,-79.13 269.5,-55 277.29,-39.84 292.43,-27.17 303.64,-19.27"/>
<polygon fill="#63b8ff" stroke="#63b8ff" points="716.17,-229.79 726.36,-226.9 716.59,-222.8 716.17,-229.79"/>
</a>
</g>
</g>
<!-- Node13 -->
<g id="Node000013" class="node">
<title>Node13</title>
<g id="a_Node000013"><a xlink:href="graceful__shutdown_8c.html" target="_top" xlink:title=" ">
<polygon fill="white" stroke="#666666" points="1232,-74 1125,-74 1125,-55 1232,-55 1232,-74"/>
<text text-anchor="middle" x="1178.5" y="-62" font-family="Helvetica,sans-Serif" font-size="10.00">graceful_shutdown.c</text>
</a>
</g>
</g>
<!-- Node1&#45;&gt;Node13 -->
<g id="edge36_Node000001_Node000013" class="edge">
<title>Node1&#45;&gt;Node13</title>
<g id="a_edge36_Node000001_Node000013"><a xlink:title=" ">
<path fill="none" stroke="#63b8ff" d="M792.27,-217.28C819.97,-208.8 858.37,-196.52 891.5,-184 968.97,-154.73 985.82,-141.28 1062.5,-110 1094.45,-96.96 1131.78,-82.84 1155.28,-74.08"/>
<polygon fill="#63b8ff" stroke="#63b8ff" points="791.13,-213.97 782.58,-220.23 793.17,-220.67 791.13,-213.97"/>
</a>
</g>
</g>
<!-- Node14 -->
<g id="Node000014" class="node">
<title>Node14</title>
<g id="a_Node000014"><a xlink:href="SocketPool_8h.html" target="_top" xlink:title=" ">
<polygon fill="white" stroke="#666666" points="1146,-129 1071,-129 1071,-110 1146,-110 1146,-129"/>
<text text-anchor="middle" x="1108.5" y="-117" font-family="Helvetica,sans-Serif" font-size="10.00">SocketPool.h</text>
</a>
</g>
</g>
<!-- Node1&#45;&gt;Node14 -->
<g id="edge17_Node000001_Node000014" class="edge">
<title>Node1&#45;&gt;Node14</title>
<g id="a_edge17_Node000001_Node000014"><a xlink:title=" ">
<path fill="none" stroke="#63b8ff" d="M792.84,-226.1C842.93,-221.98 932.72,-211.2 1004.5,-184 1041.3,-170.06 1079.52,-142.85 1097.68,-129.02"/>
<polygon fill="#63b8ff" stroke="#63b8ff" points="792.47,-222.62 782.77,-226.88 793.01,-229.6 792.47,-222.62"/>
</a>
</g>
</g>
<!-- Node15 -->
<g id="Node000015" class="node">
<title>Node15</title>
<g id="a_Node000015"><a xlink:href="SocketReconnect_8h.html" target="_top" xlink:title=" ">
<polygon fill="white" stroke="#666666" points="1160,-184 1057,-184 1057,-165 1160,-165 1160,-184"/>
<text text-anchor="middle" x="1108.5" y="-172" font-family="Helvetica,sans-Serif" font-size="10.00">SocketReconnect.h</text>
</a>
</g>
</g>
<!-- Node1&#45;&gt;Node15 -->
<g id="edge20_Node000001_Node000015" class="edge">
<title>Node1&#45;&gt;Node15</title>
<g id="a_edge20_Node000001_Node000015"><a xlink:title=" ">
<path fill="none" stroke="#63b8ff" d="M792.61,-222.79C856.42,-213.24 984.96,-194 1056.84,-183.23"/>
<polygon fill="#63b8ff" stroke="#63b8ff" points="791.95,-219.35 782.57,-224.3 792.98,-226.28 791.95,-219.35"/>
</a>
</g>
</g>
<!-- Node16 -->
<g id="Node000016" class="node">
<title>Node16</title>
<g id="a_Node000016"><a xlink:href="SocketTLS_8h.html" target="_top" xlink:title=" ">
<polygon fill="white" stroke="#666666" points="438.5,-184 364.5,-184 364.5,-165 438.5,-165 438.5,-184"/>
<text text-anchor="middle" x="401.5" y="-172" font-family="Helvetica,sans-Serif" font-size="10.00">SocketTLS.h</text>
</a>
</g>
</g>
<!-- Node1&#45;&gt;Node16 -->
<g id="edge22_Node000001_Node000016" class="edge">
<title>Node1&#45;&gt;Node16</title>
<g id="a_edge22_Node000001_Node000016"><a xlink:title=" ">
<path fill="none" stroke="#63b8ff" d="M716.3,-222.76C648.03,-212.51 505.92,-191.18 438.52,-181.06"/>
<polygon fill="#63b8ff" stroke="#63b8ff" points="715.8,-226.23 726.21,-224.25 716.84,-219.31 715.8,-226.23"/>
</a>
</g>
</g>
<!-- Node23 -->
<g id="Node000023" class="node">
<title>Node23</title>
<g id="a_Node000023"><a xlink:href="SocketWS_8h.html" target="_top" xlink:title=" ">
<polygon fill="white" stroke="#666666" points="758.5,-184 686.5,-184 686.5,-165 758.5,-165 758.5,-184"/>
<text text-anchor="middle" x="722.5" y="-172" font-family="Helvetica,sans-Serif" font-size="10.00">SocketWS.h</text>
</a>
</g>
</g>
<!-- Node1&#45;&gt;Node23 -->
<g id="edge33_Node000001_Node000023" class="edge">
<title>Node1&#45;&gt;Node23</title>
<g id="a_edge33_Node000001_Node000023"><a xlink:title=" ">
<path fill="none" stroke="#63b8ff" d="M744,-211.1C738.53,-202.04 732.08,-191.37 727.69,-184.09"/>
<polygon fill="#63b8ff" stroke="#63b8ff" points="741.05,-213 749.22,-219.75 747.04,-209.38 741.05,-213"/>
</a>
</g>
</g>
<!-- Node24 -->
<g id="Node000024" class="node">
<title>Node24</title>
<g id="a_Node000024"><a xlink:href="websocket__client_8c.html" target="_top" xlink:title=" ">
<polygon fill="white" stroke="#666666" points="720,-129 619,-129 619,-110 720,-110 720,-129"/>
<text text-anchor="middle" x="669.5" y="-117" font-family="Helvetica,sans-Serif" font-size="10.00">websocket_client.c</text>
</a>
</g>
</g>
<!-- Node1&#45;&gt;Node24 -->
<g id="edge38_Node000001_Node000024" class="edge">
<title>Node1&#45;&gt;Node24</title>
<g id="a_edge38_Node000001_Node000024"><a xlink:title=" ">
<path fill="none" stroke="#63b8ff" d="M717.72,-215.69C702.87,-208.64 687.03,-198.35 677.5,-184 666.32,-167.15 666.99,-142.16 668.32,-129.13"/>
<polygon fill="#63b8ff" stroke="#63b8ff" points="716.7,-219.06 727.26,-219.87 719.5,-212.65 716.7,-219.06"/>
</a>
</g>
</g>
<!-- Node5 -->
<g id="Node000005" class="node">
<title>Node5</title>
<g id="a_Node000005"><a xlink:href="http__server_8c.html" target="_top" xlink:title=" ">
<polygon fill="white" stroke="#666666" points="664,-19 591,-19 591,0 664,0 664,-19"/>
<text text-anchor="middle" x="627.5" y="-7" font-family="Helvetica,sans-Serif" font-size="10.00">http_server.c</text>
</a>
</g>
</g>
<!-- Node4&#45;&gt;Node5 -->
<g id="edge4_Node000004_Node000005" class="edge">
<title>Node4&#45;&gt;Node5</title>
<g id="a_edge4_Node000004_Node000005"><a xlink:title=" ">
<path fill="none" stroke="#63b8ff" d="M627.5,-44.66C627.5,-35.93 627.5,-25.99 627.5,-19.09"/>
<polygon fill="#63b8ff" stroke="#63b8ff" points="624,-44.75 627.5,-54.75 631,-44.75 624,-44.75"/>
</a>
</g>
</g>
<!-- Node4&#45;&gt;Node6 -->
<g id="edge5_Node000004_Node000006" class="edge">
<title>Node4&#45;&gt;Node6</title>
<g id="a_edge5_Node000004_Node000006"><a xlink:title=" ">
<path fill="none" stroke="#63b8ff" d="M659.41,-51.42C685.38,-41.59 721.42,-27.95 744.6,-19.17"/>
<polygon fill="#63b8ff" stroke="#63b8ff" points="658.11,-48.17 649.99,-54.98 660.58,-54.72 658.11,-48.17"/>
</a>
</g>
</g>
<!-- Node9&#45;&gt;Node4 -->
<g id="edge9_Node000009_Node000004" class="edge">
<title>Node9&#45;&gt;Node4</title>
<g id="a_edge9_Node000009_Node000004"><a xlink:title=" ">
<path fill="none" stroke="#63b8ff" d="M842.49,-109.16C793.61,-99.23 716.97,-83.67 669.62,-74.05"/>
<polygon fill="#63b8ff" stroke="#63b8ff" points="841.99,-112.63 852.48,-111.19 843.38,-105.77 841.99,-112.63"/>
</a>
</g>
</g>
<!-- Node9&#45;&gt;Node6 -->
<g id="edge15_Node000009_Node000006" class="edge">
<title>Node9&#45;&gt;Node6</title>
<g id="a_edge15_Node000009_Node000006"><a xlink:title=" ">
<path fill="none" stroke="#63b8ff" d="M914.77,-105.07C935.79,-92.53 959.62,-73.08 945.5,-55 930.11,-35.29 866.65,-23.02 819.87,-16.48"/>
<polygon fill="#63b8ff" stroke="#63b8ff" points="913.03,-102.03 906.04,-110 916.47,-108.12 913.03,-102.03"/>
</a>
</g>
</g>
<!-- Node9&#45;&gt;Node7 -->
<g id="edge10_Node000009_Node000007" class="edge">
<title>Node9&#45;&gt;Node7</title>
<g id="a_edge10_Node000009_Node000007"><a xlink:title=" ">
<path fill="none" stroke="#63b8ff" d="M883.95,-99.95C881.79,-91.15 879.32,-81.06 877.61,-74.09"/>
<polygon fill="#63b8ff" stroke="#63b8ff" points="880.57,-100.87 886.35,-109.75 887.37,-99.2 880.57,-100.87"/>
</a>
</g>
</g>
<!-- Node9&#45;&gt;Node10 -->
<g id="edge11_Node000009_Node000010" class="edge">
<title>Node9&#45;&gt;Node10</title>
<g id="a_edge11_Node000009_Node000010"><a xlink:title=" ">
<path fill="none" stroke="#63b8ff" d="M924.05,-106.8C954.09,-96.91 996.44,-82.97 1023.43,-74.08"/>
<polygon fill="#63b8ff" stroke="#63b8ff" points="922.77,-103.53 914.37,-109.98 924.96,-110.18 922.77,-103.53"/>
</a>
</g>
</g>
<!-- Node9&#45;&gt;Node11 -->
<g id="edge12_Node000009_Node000011" class="edge">
<title>Node9&#45;&gt;Node11</title>
<g id="a_edge12_Node000009_Node000011"><a xlink:title=" ">
<path fill="none" stroke="#63b8ff" d="M842.38,-113.2C752.03,-102.81 553.13,-79.94 467.74,-70.13"/>
<polygon fill="#63b8ff" stroke="#63b8ff" points="841.99,-116.68 852.33,-114.34 842.79,-109.72 841.99,-116.68"/>
</a>
</g>
</g>
<!-- Node9&#45;&gt;Node13 -->
<g id="edge14_Node000009_Node000013" class="edge">
<title>Node9&#45;&gt;Node13</title>
<g id="a_edge14_Node000009_Node000013"><a xlink:title=" ">
<path fill="none" stroke="#63b8ff" d="M934.63,-110.07C988.63,-100.2 1077.57,-83.95 1131.81,-74.03"/>
<polygon fill="#63b8ff" stroke="#63b8ff" points="933.85,-106.65 924.64,-111.89 935.11,-113.54 933.85,-106.65"/>
</a>
</g>
</g>
<!-- Node11&#45;&gt;Node12 -->
<g id="edge13_Node000011_Node000012" class="edge">
<title>Node11&#45;&gt;Node12</title>
<g id="a_edge13_Node000011_Node000012"><a xlink:title=" ">
<path fill="none" stroke="#63b8ff" d="M400.8,-50.63C380.53,-40.87 353.23,-27.71 335.49,-19.17"/>
<polygon fill="#63b8ff" stroke="#63b8ff" points="399.3,-53.8 409.83,-54.98 402.34,-47.49 399.3,-53.8"/>
</a>
</g>
</g>
<!-- Node14&#45;&gt;Node13 -->
<g id="edge18_Node000014_Node000013" class="edge">
<title>Node14&#45;&gt;Node13</title>
<g id="a_edge18_Node000014_Node000013"><a xlink:title=" ">
<path fill="none" stroke="#63b8ff" d="M1127.81,-103.88C1140.41,-94.34 1156.43,-82.21 1167.05,-74.17"/>
<polygon fill="#63b8ff" stroke="#63b8ff" points="1125.61,-101.16 1119.75,-109.98 1129.83,-106.74 1125.61,-101.16"/>
</a>
</g>
</g>
<!-- Node15&#45;&gt;Node14 -->
<g id="edge21_Node000015_Node000014" class="edge">
<title>Node15&#45;&gt;Node14</title>
<g id="a_edge21_Node000015_Node000014"><a xlink:title=" ">
<path fill="none" stroke="#63b8ff" d="M1108.5,-154.66C1108.5,-145.93 1108.5,-135.99 1108.5,-129.09"/>
<polygon fill="#63b8ff" stroke="#63b8ff" points="1105,-154.75 1108.5,-164.75 1112,-154.75 1105,-154.75"/>
</a>
</g>
</g>
<!-- Node16&#45;&gt;Node12 -->
<g id="edge32_Node000016_Node000012" class="edge">
<title>Node16&#45;&gt;Node12</title>
<g id="a_edge32_Node000016_Node000012"><a xlink:title=" ">
<path fill="none" stroke="#63b8ff" d="M354.19,-170.28C325.78,-165.61 291.71,-154.62 273.5,-129 247.81,-92.87 290.06,-39.98 309.02,-19.27"/>
<polygon fill="#63b8ff" stroke="#63b8ff" points="353.96,-173.78 364.36,-171.72 354.95,-166.85 353.96,-173.78"/>
</a>
</g>
</g>
<!-- Node17 -->
<g id="Node000017" class="node">
<title>Node17</title>
<g id="a_Node000017"><a xlink:href="SocketDTLSContext_8h.html" target="_top" xlink:title=" ">
<polygon fill="white" stroke="#666666" points="524.5,-129 408.5,-129 408.5,-110 524.5,-110 524.5,-129"/>
<text text-anchor="middle" x="466.5" y="-117" font-family="Helvetica,sans-Serif" font-size="10.00">SocketDTLSContext.h</text>
</a>
</g>
</g>
<!-- Node16&#45;&gt;Node17 -->
<g id="edge23_Node000016_Node000017" class="edge">
<title>Node16&#45;&gt;Node17</title>
<g id="a_edge23_Node000016_Node000017"><a xlink:title=" ">
<path fill="none" stroke="#63b8ff" d="M419.77,-158.6C431.42,-149.11 446.1,-137.13 455.87,-129.17"/>
<polygon fill="#63b8ff" stroke="#63b8ff" points="417.48,-155.95 411.94,-164.98 421.91,-161.38 417.48,-155.95"/>
</a>
</g>
</g>
<!-- Node18 -->
<g id="Node000018" class="node">
<title>Node18</title>
<g id="a_Node000018"><a xlink:href="SocketTLSContext_8h.html" target="_top" xlink:title=" ">
<polygon fill="white" stroke="#666666" points="390.5,-129 282.5,-129 282.5,-110 390.5,-110 390.5,-129"/>
<text text-anchor="middle" x="336.5" y="-117" font-family="Helvetica,sans-Serif" font-size="10.00">SocketTLSContext.h</text>
</a>
</g>
</g>
<!-- Node16&#45;&gt;Node18 -->
<g id="edge24_Node000016_Node000018" class="edge">
<title>Node16&#45;&gt;Node18</title>
<g id="a_edge24_Node000016_Node000018"><a xlink:title=" ">
<path fill="none" stroke="#63b8ff" d="M383.23,-158.6C371.58,-149.11 356.9,-137.13 347.13,-129.17"/>
<polygon fill="#63b8ff" stroke="#63b8ff" points="381.09,-161.38 391.06,-164.98 385.52,-155.95 381.09,-161.38"/>
</a>
</g>
</g>
<!-- Node18&#45;&gt;Node4 -->
<g id="edge29_Node000018_Node000004" class="edge">
<title>Node18&#45;&gt;Node4</title>
<g id="a_edge29_Node000018_Node000004"><a xlink:title=" ">
<path fill="none" stroke="#63b8ff" d="M393.11,-108.19C447.67,-98.25 529.26,-83.39 580.38,-74.08"/>
<polygon fill="#63b8ff" stroke="#63b8ff" points="392.47,-104.75 383.25,-109.98 393.72,-111.64 392.47,-104.75"/>
</a>
</g>
</g>
<!-- Node18&#45;&gt;Node11 -->
<g id="edge30_Node000018_Node000011" class="edge">
<title>Node18&#45;&gt;Node11</title>
<g id="a_edge30_Node000018_Node000011"><a xlink:title=" ">
<path fill="none" stroke="#63b8ff" d="M360.2,-104.7C376.78,-95.04 398.41,-82.44 412.61,-74.17"/>
<polygon fill="#63b8ff" stroke="#63b8ff" points="358,-101.93 351.12,-109.98 361.52,-107.98 358,-101.93"/>
</a>
</g>
</g>
<!-- Node18&#45;&gt;Node12 -->
<g id="edge31_Node000018_Node000012" class="edge">
<title>Node18&#45;&gt;Node12</title>
<g id="a_edge31_Node000018_Node000012"><a xlink:title=" ">
<path fill="none" stroke="#63b8ff" d="M333.21,-99.8C329.06,-76.2 322.09,-36.58 319.02,-19.16"/>
<polygon fill="#63b8ff" stroke="#63b8ff" points="329.77,-100.42 334.95,-109.66 336.66,-99.21 329.77,-100.42"/>
</a>
</g>
</g>
<!-- Node19 -->
<g id="Node000019" class="node">
<title>Node19</title>
<g id="a_Node000019"><a xlink:href="SocketHTTPClient_8h.html" target="_top" xlink:title=" ">
<polygon fill="white" stroke="#666666" points="188,-74 81,-74 81,-55 188,-55 188,-74"/>
<text text-anchor="middle" x="134.5" y="-62" font-family="Helvetica,sans-Serif" font-size="10.00">SocketHTTPClient.h</text>
</a>
</g>
</g>
<!-- Node18&#45;&gt;Node19 -->
<g id="edge25_Node000018_Node000019" class="edge">
<title>Node18&#45;&gt;Node19</title>
<g id="a_edge25_Node000018_Node000019"><a xlink:title=" ">
<path fill="none" stroke="#63b8ff" d="M294.34,-107.44C256.52,-97.52 201.81,-83.16 167.21,-74.08"/>
<polygon fill="#63b8ff" stroke="#63b8ff" points="293.48,-110.83 304.05,-109.98 295.26,-104.06 293.48,-110.83"/>
</a>
</g>
</g>
<!-- Node20 -->
<g id="Node000020" class="node">
<title>Node20</title>
<g id="a_Node000020"><a xlink:href="http2__client_8c.html" target="_top" xlink:title=" ">
<polygon fill="white" stroke="#666666" points="87,-19 12,-19 12,0 87,0 87,-19"/>
<text text-anchor="middle" x="49.5" y="-7" font-family="Helvetica,sans-Serif" font-size="10.00">http2_client.c</text>
</a>
</g>
</g>
<!-- Node19&#45;&gt;Node20 -->
<g id="edge26_Node000019_Node000020" class="edge">
<title>Node19&#45;&gt;Node20</title>
<g id="a_edge26_Node000019_Node000020"><a xlink:title=" ">
<path fill="none" stroke="#63b8ff" d="M111.93,-49.42C96.5,-39.81 76.55,-27.37 63.41,-19.17"/>
<polygon fill="#63b8ff" stroke="#63b8ff" points="110.51,-52.66 120.84,-54.98 114.21,-46.72 110.51,-52.66"/>
</a>
</g>
</g>
<!-- Node21 -->
<g id="Node000021" class="node">
<title>Node21</title>
<g id="a_Node000021"><a xlink:href="http__get_8c.html" target="_top" xlink:title=" ">
<polygon fill="white" stroke="#666666" points="164.5,-19 104.5,-19 104.5,0 164.5,0 164.5,-19"/>
<text text-anchor="middle" x="134.5" y="-7" font-family="Helvetica,sans-Serif" font-size="10.00">http_get.c</text>
</a>
</g>
</g>
<!-- Node19&#45;&gt;Node21 -->
<g id="edge27_Node000019_Node000021" class="edge">
<title>Node19&#45;&gt;Node21</title>
<g id="a_edge27_Node000019_Node000021"><a xlink:title=" ">
<path fill="none" stroke="#63b8ff" d="M134.5,-44.66C134.5,-35.93 134.5,-25.99 134.5,-19.09"/>
<polygon fill="#63b8ff" stroke="#63b8ff" points="131,-44.75 134.5,-54.75 138,-44.75 131,-44.75"/>
</a>
</g>
</g>
<!-- Node22 -->
<g id="Node000022" class="node">
<title>Node22</title>
<g id="a_Node000022"><a xlink:href="http__post_8c.html" target="_top" xlink:title=" ">
<polygon fill="white" stroke="#666666" points="248,-19 183,-19 183,0 248,0 248,-19"/>
<text text-anchor="middle" x="215.5" y="-7" font-family="Helvetica,sans-Serif" font-size="10.00">http_post.c</text>
</a>
</g>
</g>
<!-- Node19&#45;&gt;Node22 -->
<g id="edge28_Node000019_Node000022" class="edge">
<title>Node19&#45;&gt;Node22</title>
<g id="a_edge28_Node000019_Node000022"><a xlink:title=" ">
<path fill="none" stroke="#63b8ff" d="M156.01,-49.42C170.71,-39.81 189.72,-27.37 202.25,-19.17"/>
<polygon fill="#63b8ff" stroke="#63b8ff" points="153.97,-46.58 147.51,-54.98 157.8,-52.44 153.97,-46.58"/>
</a>
</g>
</g>
<!-- Node23&#45;&gt;Node6 -->
<g id="edge35_Node000023_Node000006" class="edge">
<title>Node23&#45;&gt;Node6</title>
<g id="a_edge35_Node000023_Node000006"><a xlink:title=" ">
<path fill="none" stroke="#63b8ff" d="M727.65,-154.83C737.36,-119.67 758,-44.9 765.07,-19.31"/>
<polygon fill="#63b8ff" stroke="#63b8ff" points="724.21,-154.17 724.92,-164.74 730.95,-156.03 724.21,-154.17"/>
</a>
</g>
</g>
<!-- Node23&#45;&gt;Node24 -->
<g id="edge34_Node000023_Node000024" class="edge">
<title>Node23&#45;&gt;Node24</title>
<g id="a_edge34_Node000023_Node000024"><a xlink:title=" ">
<path fill="none" stroke="#63b8ff" d="M706.52,-157.52C697.18,-148.18 685.75,-136.75 678.09,-129.09"/>
<polygon fill="#63b8ff" stroke="#63b8ff" points="704.2,-160.15 713.75,-164.75 709.15,-155.2 704.2,-160.15"/>
</a>
</g>
</g>
</g>
</svg>
