<?xml version="1.0" encoding="UTF-8" standalone="no"?>
<!DOCTYPE svg PUBLIC "-//W3C//DTD SVG 1.1//EN"
 "http://www.w3.org/Graphics/SVG/1.1/DTD/svg11.dtd">
<!-- Generated by graphviz version 2.43.0 (0)
 -->
<!-- Title: SocketPoll.h Pages: 1 -->
<svg width="1280pt" height="302pt"
 viewBox="0.00 0.00 1280.34 302.00" xmlns="http://www.w3.org/2000/svg" xmlns:xlink="http://www.w3.org/1999/xlink">
<g id="graph0" class="graph" transform="scale(1 1) rotate(0) translate(4 298)">
<title>SocketPoll.h</title>
<!-- Node1 -->
<g id="Node000001" class="node">
<title>Node1</title>
<g id="a_Node000001"><a xlink:title="Cross&#45;platform high&#45;level interface for monitoring multiple sockets for I/O events.">
<polygon fill="#999999" stroke="#666666" points="1214,-294 1142,-294 1142,-275 1214,-275 1214,-294"/>
<text text-anchor="middle" x="1178" y="-282" font-family="Helvetica,sans-Serif" font-size="10.00">SocketPoll.h</text>
</a>
</g>
</g>
<!-- Node2 -->
<g id="Node000002" class="node">
<title>Node2</title>
<g id="a_Node000002"><a xlink:href="Except_8h.html" target="_top" xlink:title="Structured exception handling for C with TRY/EXCEPT/FINALLY blocks.">
<polygon fill="white" stroke="#666666" points="1255.5,-74 1178.5,-74 1178.5,-55 1255.5,-55 1255.5,-74"/>
<text text-anchor="middle" x="1217" y="-62" font-family="Helvetica,sans-Serif" font-size="10.00">core/Except.h</text>
</a>
</g>
</g>
<!-- Node1&#45;&gt;Node2 -->
<g id="edge1_Node000001_Node000002" class="edge">
<title>Node1&#45;&gt;Node2</title>
<g id="a_edge1_Node000001_Node000002"><a xlink:title=" ">
<path fill="none" stroke="#63b8ff" d="M1185.48,-274.89C1204.24,-252.66 1253.02,-190.7 1270,-129 1272.24,-120.86 1273.57,-117.65 1270,-110 1264.17,-97.49 1252.91,-87.25 1242.25,-79.76"/>
<polygon fill="#63b8ff" stroke="#63b8ff" points="1243.88,-76.64 1233.58,-74.13 1240.06,-82.51 1243.88,-76.64"/>
</a>
</g>
</g>
<!-- Node4 -->
<g id="Node000004" class="node">
<title>Node4</title>
<g id="a_Node000004"><a xlink:href="SocketTimer_8h.html" target="_top" xlink:title="High&#45;performance timer subsystem integrated with the event loop.">
<polygon fill="white" stroke="#666666" points="1228.5,-129 1127.5,-129 1127.5,-110 1228.5,-110 1228.5,-129"/>
<text text-anchor="middle" x="1178" y="-117" font-family="Helvetica,sans-Serif" font-size="10.00">core/SocketTimer.h</text>
</a>
</g>
</g>
<!-- Node1&#45;&gt;Node4 -->
<g id="edge3_Node000001_Node000004" class="edge">
<title>Node1&#45;&gt;Node4</title>
<g id="a_edge3_Node000001_Node000004"><a xlink:title=" ">
<path fill="none" stroke="#63b8ff" d="M1178,-274.74C1178,-249.31 1178,-175.08 1178,-139.69"/>
<polygon fill="#63b8ff" stroke="#63b8ff" points="1181.5,-139.31 1178,-129.31 1174.5,-139.31 1181.5,-139.31"/>
</a>
</g>
</g>
<!-- Node6 -->
<g id="Node000006" class="node">
<title>Node6</title>
<g id="a_Node000006"><a xlink:href="Socket_8h.html" target="_top" xlink:title="High&#45;level TCP/IP and Unix domain socket interface.">
<polygon fill="white" stroke="#666666" points="1015,-239 927,-239 927,-220 1015,-220 1015,-239"/>
<text text-anchor="middle" x="971" y="-227" font-family="Helvetica,sans-Serif" font-size="10.00">socket/Socket.h</text>
</a>
</g>
</g>
<!-- Node1&#45;&gt;Node6 -->
<g id="edge6_Node000001_Node000006" class="edge">
<title>Node1&#45;&gt;Node6</title>
<g id="a_edge6_Node000001_Node000006"><a xlink:title=" ">
<path fill="none" stroke="#63b8ff" d="M1144.74,-274.98C1109.39,-265.93 1053.33,-251.58 1014.49,-241.64"/>
<polygon fill="#63b8ff" stroke="#63b8ff" points="1015.07,-238.17 1004.52,-239.08 1013.34,-244.95 1015.07,-238.17"/>
</a>
</g>
</g>
<!-- Node3 -->
<g id="Node000003" class="node">
<title>Node3</title>
<g id="a_Node000003"><a xlink:title=" ">
<polygon fill="#e0e0e0" stroke="#999999" points="1244,-19 1190,-19 1190,0 1244,0 1244,-19"/>
<text text-anchor="middle" x="1217" y="-7" font-family="Helvetica,sans-Serif" font-size="10.00">setjmp.h</text>
</a>
</g>
</g>
<!-- Node2&#45;&gt;Node3 -->
<g id="edge2_Node000002_Node000003" class="edge">
<title>Node2&#45;&gt;Node3</title>
<g id="a_edge2_Node000002_Node000003"><a xlink:title=" ">
<path fill="none" stroke="#63b8ff" d="M1217,-54.75C1217,-47.8 1217,-37.85 1217,-29.13"/>
<polygon fill="#63b8ff" stroke="#63b8ff" points="1220.5,-29.09 1217,-19.09 1213.5,-29.09 1220.5,-29.09"/>
</a>
</g>
</g>
<!-- Node4&#45;&gt;Node2 -->
<g id="edge4_Node000004_Node000002" class="edge">
<title>Node4&#45;&gt;Node2</title>
<g id="a_edge4_Node000004_Node000002"><a xlink:title=" ">
<path fill="none" stroke="#63b8ff" d="M1184.44,-109.75C1189.89,-102.34 1197.86,-91.5 1204.56,-82.41"/>
<polygon fill="#63b8ff" stroke="#63b8ff" points="1207.57,-84.22 1210.68,-74.09 1201.93,-80.07 1207.57,-84.22"/>
</a>
</g>
</g>
<!-- Node5 -->
<g id="Node000005" class="node">
<title>Node5</title>
<g id="a_Node000005"><a xlink:title=" ">
<polygon fill="#e0e0e0" stroke="#999999" points="1132.5,-74 1083.5,-74 1083.5,-55 1132.5,-55 1132.5,-74"/>
<text text-anchor="middle" x="1108" y="-62" font-family="Helvetica,sans-Serif" font-size="10.00">stdint.h</text>
</a>
</g>
</g>
<!-- Node4&#45;&gt;Node5 -->
<g id="edge5_Node000004_Node000005" class="edge">
<title>Node4&#45;&gt;Node5</title>
<g id="a_edge5_Node000004_Node000005"><a xlink:title=" ">
<path fill="none" stroke="#63b8ff" d="M1166.75,-109.98C1156.2,-102 1140.2,-89.88 1127.56,-80.31"/>
<polygon fill="#63b8ff" stroke="#63b8ff" points="1129.54,-77.42 1119.45,-74.17 1125.31,-83 1129.54,-77.42"/>
</a>
</g>
</g>
<!-- Node6&#45;&gt;Node2 -->
<g id="edge7_Node000006_Node000002" class="edge">
<title>Node6&#45;&gt;Node2</title>
<g id="a_edge7_Node000006_Node000002"><a xlink:title=" ">
<path fill="none" stroke="#63b8ff" d="M1015.07,-227.72C1079.94,-223.91 1199.36,-206.13 1254,-129 1265.2,-113.19 1250.09,-93.79 1235.94,-80.62"/>
<polygon fill="#63b8ff" stroke="#63b8ff" points="1238.2,-77.94 1228.36,-74.01 1233.6,-83.22 1238.2,-77.94"/>
</a>
</g>
</g>
<!-- Node7 -->
<g id="Node000007" class="node">
<title>Node7</title>
<g id="a_Node000007"><a xlink:href="SocketConfig_8h.html" target="_top" xlink:title="Compile&#45;time and runtime configuration constants, limits, and platform adaptations.">
<polygon fill="white" stroke="#666666" points="365,-129 259,-129 259,-110 365,-110 365,-129"/>
<text text-anchor="middle" x="312" y="-117" font-family="Helvetica,sans-Serif" font-size="10.00">core/SocketConfig.h</text>
</a>
</g>
</g>
<!-- Node6&#45;&gt;Node7 -->
<g id="edge8_Node000006_Node000007" class="edge">
<title>Node6&#45;&gt;Node7</title>
<g id="a_edge8_Node000006_Node000007"><a xlink:title=" ">
<path fill="none" stroke="#63b8ff" d="M926.97,-225.63C852.29,-220.31 696.2,-207.32 566,-184 488.56,-170.13 399.73,-145.99 350.31,-131.81"/>
<polygon fill="#63b8ff" stroke="#63b8ff" points="351.25,-128.44 340.67,-129.02 349.31,-135.16 351.25,-128.44"/>
</a>
</g>
</g>
<!-- Node17 -->
<g id="Node000017" class="node">
<title>Node17</title>
<g id="a_Node000017"><a xlink:href="SocketDNS_8h.html" target="_top" xlink:title="Asynchronous DNS resolution API for non&#45;blocking network applications.">
<polygon fill="white" stroke="#666666" points="1019,-129 923,-129 923,-110 1019,-110 1019,-129"/>
<text text-anchor="middle" x="971" y="-117" font-family="Helvetica,sans-Serif" font-size="10.00">dns/SocketDNS.h</text>
</a>
</g>
</g>
<!-- Node6&#45;&gt;Node17 -->
<g id="edge18_Node000006_Node000017" class="edge">
<title>Node6&#45;&gt;Node17</title>
<g id="a_edge18_Node000006_Node000017"><a xlink:title=" ">
<path fill="none" stroke="#63b8ff" d="M971,-219.66C971,-202.17 971,-162.8 971,-139.27"/>
<polygon fill="#63b8ff" stroke="#63b8ff" points="974.5,-139.16 971,-129.16 967.5,-139.16 974.5,-139.16"/>
</a>
</g>
</g>
<!-- Node19 -->
<g id="Node000019" class="node">
<title>Node19</title>
<g id="a_Node000019"><a xlink:href="SocketCommon_8h.html" target="_top" xlink:title="Common utilities shared between Socket and SocketDgram modules.">
<polygon fill="white" stroke="#666666" points="703,-184 575,-184 575,-165 703,-165 703,-184"/>
<text text-anchor="middle" x="639" y="-172" font-family="Helvetica,sans-Serif" font-size="10.00">socket/SocketCommon.h</text>
</a>
</g>
</g>
<!-- Node6&#45;&gt;Node19 -->
<g id="edge24_Node000006_Node000019" class="edge">
<title>Node6&#45;&gt;Node19</title>
<g id="a_edge24_Node000006_Node000019"><a xlink:title=" ">
<path fill="none" stroke="#63b8ff" d="M926.91,-221.46C869.4,-212.28 768.38,-196.15 702.58,-185.65"/>
<polygon fill="#63b8ff" stroke="#63b8ff" points="702.76,-182.14 692.34,-184.01 701.66,-189.05 702.76,-182.14"/>
</a>
</g>
</g>
<!-- Node8 -->
<g id="Node000008" class="node">
<title>Node8</title>
<g id="a_Node000008"><a xlink:title=" ">
<polygon fill="#e0e0e0" stroke="#999999" points="344.5,-74 297.5,-74 297.5,-55 344.5,-55 344.5,-74"/>
<text text-anchor="middle" x="321" y="-62" font-family="Helvetica,sans-Serif" font-size="10.00">errno.h</text>
</a>
</g>
</g>
<!-- Node7&#45;&gt;Node8 -->
<g id="edge9_Node000007_Node000008" class="edge">
<title>Node7&#45;&gt;Node8</title>
<g id="a_edge9_Node000007_Node000008"><a xlink:title=" ">
<path fill="none" stroke="#63b8ff" d="M313.49,-109.75C314.67,-102.8 316.36,-92.85 317.84,-84.13"/>
<polygon fill="#63b8ff" stroke="#63b8ff" points="321.32,-84.53 319.54,-74.09 314.42,-83.36 321.32,-84.53"/>
</a>
</g>
</g>
<!-- Node9 -->
<g id="Node000009" class="node">
<title>Node9</title>
<g id="a_Node000009"><a xlink:title=" ">
<polygon fill="#e0e0e0" stroke="#999999" points="407,-74 363,-74 363,-55 407,-55 407,-74"/>
<text text-anchor="middle" x="385" y="-62" font-family="Helvetica,sans-Serif" font-size="10.00">fcntl.h</text>
</a>
</g>
</g>
<!-- Node7&#45;&gt;Node9 -->
<g id="edge10_Node000007_Node000009" class="edge">
<title>Node7&#45;&gt;Node9</title>
<g id="a_edge10_Node000007_Node000009"><a xlink:title=" ">
<path fill="none" stroke="#63b8ff" d="M323.73,-109.98C334.73,-102 351.42,-89.88 364.6,-80.31"/>
<polygon fill="#63b8ff" stroke="#63b8ff" points="367.02,-82.88 373.06,-74.17 362.91,-77.21 367.02,-82.88"/>
</a>
</g>
</g>
<!-- Node10 -->
<g id="Node000010" class="node">
<title>Node10</title>
<g id="a_Node000010"><a xlink:title=" ">
<polygon fill="#e0e0e0" stroke="#999999" points="490.5,-74 425.5,-74 425.5,-55 490.5,-55 490.5,-74"/>
<text text-anchor="middle" x="458" y="-62" font-family="Helvetica,sans-Serif" font-size="10.00">netinet/in.h</text>
</a>
</g>
</g>
<!-- Node7&#45;&gt;Node10 -->
<g id="edge11_Node000007_Node000010" class="edge">
<title>Node7&#45;&gt;Node10</title>
<g id="a_edge11_Node000007_Node000010"><a xlink:title=" ">
<path fill="none" stroke="#63b8ff" d="M335.46,-109.98C359.58,-101.23 397.37,-87.51 424.6,-77.62"/>
<polygon fill="#63b8ff" stroke="#63b8ff" points="425.91,-80.87 434.12,-74.17 423.52,-74.29 425.91,-80.87"/>
</a>
</g>
</g>
<!-- Node11 -->
<g id="Node000011" class="node">
<title>Node11</title>
<g id="a_Node000011"><a xlink:title=" ">
<polygon fill="#e0e0e0" stroke="#999999" points="135.5,-74 64.5,-74 64.5,-55 135.5,-55 135.5,-74"/>
<text text-anchor="middle" x="100" y="-62" font-family="Helvetica,sans-Serif" font-size="10.00">netinet/tcp.h</text>
</a>
</g>
</g>
<!-- Node7&#45;&gt;Node11 -->
<g id="edge12_Node000007_Node000011" class="edge">
<title>Node7&#45;&gt;Node11</title>
<g id="a_edge12_Node000007_Node000011"><a xlink:title=" ">
<path fill="none" stroke="#63b8ff" d="M277.94,-109.98C241.58,-100.89 183.83,-86.46 144.03,-76.51"/>
<polygon fill="#63b8ff" stroke="#63b8ff" points="144.88,-73.11 134.33,-74.08 143.18,-79.9 144.88,-73.11"/>
</a>
</g>
</g>
<!-- Node12 -->
<g id="Node000012" class="node">
<title>Node12</title>
<g id="a_Node000012"><a xlink:title=" ">
<polygon fill="#e0e0e0" stroke="#999999" points="997,-74 945,-74 945,-55 997,-55 997,-74"/>
<text text-anchor="middle" x="971" y="-62" font-family="Helvetica,sans-Serif" font-size="10.00">stddef.h</text>
</a>
</g>
</g>
<!-- Node7&#45;&gt;Node12 -->
<g id="edge13_Node000007_Node000012" class="edge">
<title>Node7&#45;&gt;Node12</title>
<g id="a_edge13_Node000007_Node000012"><a xlink:title=" ">
<path fill="none" stroke="#63b8ff" d="M365.09,-114.23C494.62,-103.81 824.27,-77.3 934.48,-68.44"/>
<polygon fill="#63b8ff" stroke="#63b8ff" points="935.06,-71.9 944.75,-67.61 934.5,-64.92 935.06,-71.9"/>
</a>
</g>
</g>
<!-- Node13 -->
<g id="Node000013" class="node">
<title>Node13</title>
<g id="a_Node000013"><a xlink:title=" ">
<polygon fill="#e0e0e0" stroke="#999999" points="46,-74 0,-74 0,-55 46,-55 46,-74"/>
<text text-anchor="middle" x="23" y="-62" font-family="Helvetica,sans-Serif" font-size="10.00">stdio.h</text>
</a>
</g>
</g>
<!-- Node7&#45;&gt;Node13 -->
<g id="edge14_Node000007_Node000013" class="edge">
<title>Node7&#45;&gt;Node13</title>
<g id="a_edge14_Node000007_Node000013"><a xlink:title=" ">
<path fill="none" stroke="#63b8ff" d="M258.57,-110.66C208.65,-103.01 131.84,-90.44 56.19,-74.1"/>
<polygon fill="#63b8ff" stroke="#63b8ff" points="56.53,-70.59 46.01,-71.87 55.04,-77.43 56.53,-70.59"/>
</a>
</g>
</g>
<!-- Node14 -->
<g id="Node000014" class="node">
<title>Node14</title>
<g id="a_Node000014"><a xlink:title=" ">
<polygon fill="#e0e0e0" stroke="#999999" points="581.5,-74 508.5,-74 508.5,-55 581.5,-55 581.5,-74"/>
<text text-anchor="middle" x="545" y="-62" font-family="Helvetica,sans-Serif" font-size="10.00">sys/socket.h</text>
</a>
</g>
</g>
<!-- Node7&#45;&gt;Node14 -->
<g id="edge15_Node000007_Node000014" class="edge">
<title>Node7&#45;&gt;Node14</title>
<g id="a_edge15_Node000007_Node000014"><a xlink:title=" ">
<path fill="none" stroke="#63b8ff" d="M349.44,-109.98C390.01,-100.75 454.82,-86.01 498.6,-76.05"/>
<polygon fill="#63b8ff" stroke="#63b8ff" points="499.45,-79.45 508.43,-73.82 497.9,-72.62 499.45,-79.45"/>
</a>
</g>
</g>
<!-- Node15 -->
<g id="Node000015" class="node">
<title>Node15</title>
<g id="a_Node000015"><a xlink:title=" ">
<polygon fill="#e0e0e0" stroke="#999999" points="210,-74 154,-74 154,-55 210,-55 210,-74"/>
<text text-anchor="middle" x="182" y="-62" font-family="Helvetica,sans-Serif" font-size="10.00">sys/uio.h</text>
</a>
</g>
</g>
<!-- Node7&#45;&gt;Node15 -->
<g id="edge16_Node000007_Node000015" class="edge">
<title>Node7&#45;&gt;Node15</title>
<g id="a_edge16_Node000007_Node000015"><a xlink:title=" ">
<path fill="none" stroke="#63b8ff" d="M291.11,-109.98C269.92,-101.34 236.87,-87.87 212.7,-78.02"/>
<polygon fill="#63b8ff" stroke="#63b8ff" points="213.85,-74.7 203.27,-74.17 211.21,-81.19 213.85,-74.7"/>
</a>
</g>
</g>
<!-- Node16 -->
<g id="Node000016" class="node">
<title>Node16</title>
<g id="a_Node000016"><a xlink:title=" ">
<polygon fill="#e0e0e0" stroke="#999999" points="279.5,-74 228.5,-74 228.5,-55 279.5,-55 279.5,-74"/>
<text text-anchor="middle" x="254" y="-62" font-family="Helvetica,sans-Serif" font-size="10.00">unistd.h</text>
</a>
</g>
</g>
<!-- Node7&#45;&gt;Node16 -->
<g id="edge17_Node000007_Node000016" class="edge">
<title>Node7&#45;&gt;Node16</title>
<g id="a_edge17_Node000007_Node000016"><a xlink:title=" ">
<path fill="none" stroke="#63b8ff" d="M302.68,-109.98C294.19,-102.23 281.44,-90.58 271.12,-81.14"/>
<polygon fill="#63b8ff" stroke="#63b8ff" points="273.23,-78.33 263.49,-74.17 268.51,-83.5 273.23,-78.33"/>
</a>
</g>
</g>
<!-- Node17&#45;&gt;Node2 -->
<g id="edge19_Node000017_Node000002" class="edge">
<title>Node17&#45;&gt;Node2</title>
<g id="a_edge19_Node000017_Node000002"><a xlink:title=" ">
<path fill="none" stroke="#63b8ff" d="M1010.52,-109.98C1053.55,-100.72 1122.36,-85.89 1168.59,-75.93"/>
<polygon fill="#63b8ff" stroke="#63b8ff" points="1169.35,-79.35 1178.38,-73.82 1167.87,-72.5 1169.35,-79.35"/>
</a>
</g>
</g>
<!-- Node17&#45;&gt;Node5 -->
<g id="edge22_Node000017_Node000005" class="edge">
<title>Node17&#45;&gt;Node5</title>
<g id="a_edge22_Node000017_Node000005"><a xlink:title=" ">
<path fill="none" stroke="#63b8ff" d="M993.01,-109.98C1015.45,-101.3 1050.48,-87.75 1075.99,-77.88"/>
<polygon fill="#63b8ff" stroke="#63b8ff" points="1077.52,-81.04 1085.59,-74.17 1075,-74.51 1077.52,-81.04"/>
</a>
</g>
</g>
<!-- Node17&#45;&gt;Node12 -->
<g id="edge21_Node000017_Node000012" class="edge">
<title>Node17&#45;&gt;Node12</title>
<g id="a_edge21_Node000017_Node000012"><a xlink:title=" ">
<path fill="none" stroke="#63b8ff" d="M971,-109.75C971,-102.8 971,-92.85 971,-84.13"/>
<polygon fill="#63b8ff" stroke="#63b8ff" points="974.5,-84.09 971,-74.09 967.5,-84.09 974.5,-84.09"/>
</a>
</g>
</g>
<!-- Node17&#45;&gt;Node14 -->
<g id="edge23_Node000017_Node000014" class="edge">
<title>Node17&#45;&gt;Node14</title>
<g id="a_edge23_Node000017_Node000014"><a xlink:title=" ">
<path fill="none" stroke="#63b8ff" d="M922.81,-111.22C919.83,-110.8 916.88,-110.39 914,-110 798.43,-94.42 662.14,-78.66 591.98,-70.74"/>
<polygon fill="#63b8ff" stroke="#63b8ff" points="592.03,-67.22 581.71,-69.58 591.25,-74.18 592.03,-67.22"/>
</a>
</g>
</g>
<!-- Node18 -->
<g id="Node000018" class="node">
<title>Node18</title>
<g id="a_Node000018"><a xlink:title=" ">
<polygon fill="#e0e0e0" stroke="#999999" points="791.5,-74 742.5,-74 742.5,-55 791.5,-55 791.5,-74"/>
<text text-anchor="middle" x="767" y="-62" font-family="Helvetica,sans-Serif" font-size="10.00">netdb.h</text>
</a>
</g>
</g>
<!-- Node17&#45;&gt;Node18 -->
<g id="edge20_Node000017_Node000018" class="edge">
<title>Node17&#45;&gt;Node18</title>
<g id="a_edge20_Node000017_Node000018"><a xlink:title=" ">
<path fill="none" stroke="#63b8ff" d="M938.22,-109.98C900.85,-100.28 840.01,-84.47 801.81,-74.54"/>
<polygon fill="#63b8ff" stroke="#63b8ff" points="802.23,-71.04 791.68,-71.91 800.47,-77.81 802.23,-71.04"/>
</a>
</g>
</g>
<!-- Node19&#45;&gt;Node2 -->
<g id="edge37_Node000019_Node000002" class="edge">
<title>Node19&#45;&gt;Node2</title>
<g id="a_edge37_Node000019_Node000002"><a xlink:title=" ">
<path fill="none" stroke="#63b8ff" d="M703.1,-173.54C850.02,-172.95 1201.25,-167.51 1237,-129 1248.87,-116.21 1239.79,-96.43 1230.34,-82.35"/>
<polygon fill="#63b8ff" stroke="#63b8ff" points="1233.01,-80.07 1224.29,-74.04 1227.35,-84.19 1233.01,-80.07"/>
</a>
</g>
</g>
<!-- Node19&#45;&gt;Node7 -->
<g id="edge38_Node000019_Node000007" class="edge">
<title>Node19&#45;&gt;Node7</title>
<g id="a_edge38_Node000019_Node000007"><a xlink:title=" ">
<path fill="none" stroke="#63b8ff" d="M586.46,-164.98C528.74,-155.63 436.09,-140.61 374.64,-130.65"/>
<polygon fill="#63b8ff" stroke="#63b8ff" points="375.11,-127.18 364.68,-129.04 373.99,-134.09 375.11,-127.18"/>
</a>
</g>
</g>
<!-- Node19&#45;&gt;Node9 -->
<g id="edge27_Node000019_Node000009" class="edge">
<title>Node19&#45;&gt;Node9</title>
<g id="a_edge27_Node000019_Node000009"><a xlink:title=" ">
<path fill="none" stroke="#63b8ff" d="M585.03,-164.97C550.64,-158.2 505.78,-146.84 469,-129 443.23,-116.5 417.54,-95.51 401.48,-81.11"/>
<polygon fill="#63b8ff" stroke="#63b8ff" points="403.75,-78.44 394.01,-74.26 399.02,-83.6 403.75,-78.44"/>
</a>
</g>
</g>
<!-- Node19&#45;&gt;Node10 -->
<g id="edge29_Node000019_Node000010" class="edge">
<title>Node19&#45;&gt;Node10</title>
<g id="a_edge29_Node000019_Node000010"><a xlink:title=" ">
<path fill="none" stroke="#63b8ff" d="M574.96,-167.4C544.98,-161.64 510.56,-150.51 486,-129 472.84,-117.48 465.6,-98.6 461.8,-84.42"/>
<polygon fill="#63b8ff" stroke="#63b8ff" points="465.12,-83.22 459.44,-74.28 458.3,-84.81 465.12,-83.22"/>
</a>
</g>
</g>
<!-- Node19&#45;&gt;Node14 -->
<g id="edge30_Node000019_Node000014" class="edge">
<title>Node19&#45;&gt;Node14</title>
<g id="a_edge30_Node000019_Node000014"><a xlink:title=" ">
<path fill="none" stroke="#63b8ff" d="M574.81,-170.74C544.91,-165.83 511.85,-154.45 493,-129 479.98,-111.42 501.27,-92.1 520.4,-79.44"/>
<polygon fill="#63b8ff" stroke="#63b8ff" points="522.29,-82.39 528.91,-74.12 518.58,-76.45 522.29,-82.39"/>
</a>
</g>
</g>
<!-- Node19&#45;&gt;Node18 -->
<g id="edge28_Node000019_Node000018" class="edge">
<title>Node19&#45;&gt;Node18</title>
<g id="a_edge28_Node000019_Node000018"><a xlink:title=" ">
<path fill="none" stroke="#63b8ff" d="M593.15,-164.99C552.56,-155.45 503.04,-137.59 526,-110 551.8,-78.99 671.6,-69.51 731.99,-66.67"/>
<polygon fill="#63b8ff" stroke="#63b8ff" points="732.36,-70.16 742.2,-66.23 732.05,-63.16 732.36,-70.16"/>
</a>
</g>
</g>
<!-- Node20 -->
<g id="Node000020" class="node">
<title>Node20</title>
<g id="a_Node000020"><a xlink:title=" ">
<polygon fill="#e0e0e0" stroke="#999999" points="592.5,-129 535.5,-129 535.5,-110 592.5,-110 592.5,-129"/>
<text text-anchor="middle" x="564" y="-117" font-family="Helvetica,sans-Serif" font-size="10.00">pthread.h</text>
</a>
</g>
</g>
<!-- Node19&#45;&gt;Node20 -->
<g id="edge25_Node000019_Node000020" class="edge">
<title>Node19&#45;&gt;Node20</title>
<g id="a_edge25_Node000019_Node000020"><a xlink:title=" ">
<path fill="none" stroke="#63b8ff" d="M626.95,-164.98C615.54,-156.92 598.17,-144.65 584.57,-135.03"/>
<polygon fill="#63b8ff" stroke="#63b8ff" points="586.46,-132.08 576.27,-129.17 582.42,-137.8 586.46,-132.08"/>
</a>
</g>
</g>
<!-- Node21 -->
<g id="Node000021" class="node">
<title>Node21</title>
<g id="a_Node000021"><a xlink:title=" ">
<polygon fill="#e0e0e0" stroke="#999999" points="667,-129 611,-129 611,-110 667,-110 667,-129"/>
<text text-anchor="middle" x="639" y="-117" font-family="Helvetica,sans-Serif" font-size="10.00">stdbool.h</text>
</a>
</g>
</g>
<!-- Node19&#45;&gt;Node21 -->
<g id="edge26_Node000019_Node000021" class="edge">
<title>Node19&#45;&gt;Node21</title>
<g id="a_edge26_Node000019_Node000021"><a xlink:title=" ">
<path fill="none" stroke="#63b8ff" d="M639,-164.75C639,-157.8 639,-147.85 639,-139.13"/>
<polygon fill="#63b8ff" stroke="#63b8ff" points="642.5,-139.09 639,-129.09 635.5,-139.09 642.5,-139.09"/>
</a>
</g>
</g>
<!-- Node22 -->
<g id="Node000022" class="node">
<title>Node22</title>
<g id="a_Node000022"><a xlink:title=" ">
<polygon fill="#e0e0e0" stroke="#999999" points="747,-129 685,-129 685,-110 747,-110 747,-129"/>
<text text-anchor="middle" x="716" y="-117" font-family="Helvetica,sans-Serif" font-size="10.00">sys/time.h</text>
</a>
</g>
</g>
<!-- Node19&#45;&gt;Node22 -->
<g id="edge31_Node000019_Node000022" class="edge">
<title>Node19&#45;&gt;Node22</title>
<g id="a_edge31_Node000019_Node000022"><a xlink:title=" ">
<path fill="none" stroke="#63b8ff" d="M651.37,-164.98C663.09,-156.92 680.92,-144.65 694.89,-135.03"/>
<polygon fill="#63b8ff" stroke="#63b8ff" points="697.15,-137.72 703.4,-129.17 693.18,-131.96 697.15,-137.72"/>
</a>
</g>
</g>
<!-- Node23 -->
<g id="Node000023" class="node">
<title>Node23</title>
<g id="a_Node000023"><a xlink:title=" ">
<polygon fill="#e0e0e0" stroke="#999999" points="833,-129 765,-129 765,-110 833,-110 833,-129"/>
<text text-anchor="middle" x="799" y="-117" font-family="Helvetica,sans-Serif" font-size="10.00">sys/types.h</text>
</a>
</g>
</g>
<!-- Node19&#45;&gt;Node23 -->
<g id="edge32_Node000019_Node000023" class="edge">
<title>Node19&#45;&gt;Node23</title>
<g id="a_edge32_Node000019_Node000023"><a xlink:title=" ">
<path fill="none" stroke="#63b8ff" d="M664.71,-164.98C691.45,-156.13 733.53,-142.19 763.45,-132.28"/>
<polygon fill="#63b8ff" stroke="#63b8ff" points="764.7,-135.55 773.09,-129.08 762.5,-128.9 764.7,-135.55"/>
</a>
</g>
</g>
<!-- Node24 -->
<g id="Node000024" class="node">
<title>Node24</title>
<g id="a_Node000024"><a xlink:title=" ">
<polygon fill="#e0e0e0" stroke="#999999" points="905,-129 851,-129 851,-110 905,-110 905,-129"/>
<text text-anchor="middle" x="878" y="-117" font-family="Helvetica,sans-Serif" font-size="10.00">sys/un.h</text>
</a>
</g>
</g>
<!-- Node19&#45;&gt;Node24 -->
<g id="edge33_Node000019_Node000024" class="edge">
<title>Node19&#45;&gt;Node24</title>
<g id="a_edge33_Node000019_Node000024"><a xlink:title=" ">
<path fill="none" stroke="#63b8ff" d="M678.72,-164.99C717.59,-156.62 778.75,-143.33 840.9,-129.22"/>
<polygon fill="#63b8ff" stroke="#63b8ff" points="841.91,-132.58 850.88,-126.95 840.36,-125.76 841.91,-132.58"/>
</a>
</g>
</g>
<!-- Node25 -->
<g id="Node000025" class="node">
<title>Node25</title>
<g id="a_Node000025"><a xlink:href="Arena_8h.html" target="_top" xlink:title="Arena&#45;based memory allocator for efficient bulk memory management.">
<polygon fill="white" stroke="#666666" points="1109,-129 1037,-129 1037,-110 1109,-110 1109,-129"/>
<text text-anchor="middle" x="1073" y="-117" font-family="Helvetica,sans-Serif" font-size="10.00">core/Arena.h</text>
</a>
</g>
</g>
<!-- Node19&#45;&gt;Node25 -->
<g id="edge34_Node000019_Node000025" class="edge">
<title>Node19&#45;&gt;Node25</title>
<g id="a_edge34_Node000019_Node000025"><a xlink:title=" ">
<path fill="none" stroke="#63b8ff" d="M703.21,-167.6C778.37,-160.37 906.82,-147.01 1026.61,-129.11"/>
<polygon fill="#63b8ff" stroke="#63b8ff" points="1027.32,-132.55 1036.69,-127.59 1026.28,-125.62 1027.32,-132.55"/>
</a>
</g>
</g>
<!-- Node25&#45;&gt;Node2 -->
<g id="edge36_Node000025_Node000002" class="edge">
<title>Node25&#45;&gt;Node2</title>
<g id="a_edge36_Node000025_Node000002"><a xlink:title=" ">
<path fill="none" stroke="#63b8ff" d="M1096.14,-109.98C1119.82,-101.27 1156.87,-87.63 1183.71,-77.75"/>
<polygon fill="#63b8ff" stroke="#63b8ff" points="1185.27,-80.91 1193.44,-74.17 1182.85,-74.34 1185.27,-80.91"/>
</a>
</g>
</g>
<!-- Node25&#45;&gt;Node12 -->
<g id="edge35_Node000025_Node000012" class="edge">
<title>Node25&#45;&gt;Node12</title>
<g id="a_edge35_Node000025_Node000012"><a xlink:title=" ">
<path fill="none" stroke="#63b8ff" d="M1056.61,-109.98C1040.43,-101.57 1015.43,-88.59 996.62,-78.81"/>
<polygon fill="#63b8ff" stroke="#63b8ff" points="998.17,-75.68 987.69,-74.17 994.95,-81.89 998.17,-75.68"/>
</a>
</g>
</g>
</g>
</svg>
