<?xml version="1.0" encoding="UTF-8" standalone="no"?>
<!DOCTYPE svg PUBLIC "-//W3C//DTD SVG 1.1//EN"
 "http://www.w3.org/Graphics/SVG/1.1/DTD/svg11.dtd">
<!-- Generated by graphviz version 2.43.0 (0)
 -->
<!-- Title: SocketUtil.h Pages: 1 -->
<!--zoomable 203 -->

<svg id="main" version="1.1" xmlns="http://www.w3.org/2000/svg" xmlns:xlink="http://www.w3.org/1999/xlink" xml:space="preserve" onload="init(evt)">
<style type="text/css"><![CDATA[
.node, .edge {opacity: 0.7;}
.node.selected, .edge.selected {opacity: 1;}
.edge:hover path { stroke: red; }
.edge:hover polygon { stroke: red; fill: red; }
]]></style>

<defs>
  <circle id="rim" cx="0" cy="0" r="7"/>
  <circle id="rim2" cx="0" cy="0" r="3.5"/>
  <g id="zoomPlus">
    <use xlink:href="#rim" fill="#404040"><set attributeName="fill" to="#808080" begin="zoomplus.mouseover" end="zoomplus.mouseout"/></use>
    <path d="M-4,0h8M0,-4v8" fill="none" stroke="white" stroke-width="1.5" pointer-events="none"/>
  </g>
  <g id="zoomMin">
    <use xlink:href="#rim" fill="#404040"><set attributeName="fill" to="#808080" begin="zoomminus.mouseover" end="zoomminus.mouseout"/></use>
    <path d="M-4,0h8" fill="none" stroke="white" stroke-width="1.5" pointer-events="none"/>
  </g>
  <g id="arrowUp" transform="translate(30 24)">
    <use xlink:href="#rim"/>
    <path pointer-events="none" fill="none" stroke="white" stroke-width="1.5" d="M0,-3.0v7 M-2.5,-0.5L0,-3.0L2.5,-0.5"/>
  </g>
  <g id="arrowRight" transform="rotate(90) translate(36 -43)">
    <use xlink:href="#rim"/>
    <path pointer-events="none" fill="none" stroke="white" stroke-width="1.5" d="M0,-3.0v7 M-2.5,-0.5L0,-3.0L2.5,-0.5"/>
  </g>
  <g id="arrowDown" transform="rotate(180) translate(-30 -48)">
    <use xlink:href="#rim"/>
    <path pointer-events="none" fill="none" stroke="white" stroke-width="1.5" d="M0,-3.0v7 M-2.5,-0.5L0,-3.0L2.5,-0.5"/>
  </g>
  <g id="arrowLeft" transform="rotate(270) translate(-36 17)">
    <use xlink:href="#rim"/>
    <path pointer-events="none" fill="none" stroke="white" stroke-width="1.5" d="M0,-3.0v7 M-2.5,-0.5L0,-3.0L2.5,-0.5"/>
  </g>
  <g id="resetDef">
    <use xlink:href="#rim2" fill="#404040"><set attributeName="fill" to="#808080" begin="reset.mouseover" end="reset.mouseout"/></use>
  </g>
</defs>
<script type="application/ecmascript">
var viewWidth = 1520;
var viewHeight = 203;
var sectionId = 'dynsection-1';
</script>
<script type="application/ecmascript" xlink:href="svg.min.js"/>
<svg id="graph" class="graph">
<g id="viewport">
<title>SocketUtil.h</title>
<!-- Node1 -->
<g id="Node000001" class="node">
<title>Node1</title>
<g id="a_Node000001"><a xlink:title="Consolidated utility header for logging, metrics, events, and error handling.">
<polygon fill="#999999" stroke="#666666" points="744.5,-195 673.5,-195 673.5,-176 744.5,-176 744.5,-195"/>
<text text-anchor="middle" x="709" y="-183" font-family="Helvetica,sans-Serif" font-size="10.00">SocketUtil.h</text>
</a>
</g>
</g>
<!-- Node2 -->
<g id="Node000002" class="node">
<title>Node2</title>
<g id="a_Node000002"><a xlink:href="SocketCommon-private_8h.html" target="_top" xlink:title="Private declarations for the SocketCommon module.">
<polygon fill="white" stroke="#666666" points="253,-140 125,-140 125,-121 253,-121 253,-140"/>
<text text-anchor="middle" x="189" y="-128" font-family="Helvetica,sans-Serif" font-size="10.00">SocketCommon&#45;private.h</text>
</a>
</g>
</g>
<!-- Node1&#45;&gt;Node2 -->
<g id="edge1_Node000001_Node000002" class="edge">
<title>Node1&#45;&gt;Node2</title>
<g id="a_edge1_Node000001_Node000002"><a xlink:title=" ">
<path fill="none" stroke="#63b8ff" d="M663.22,-180.02C582.95,-172.13 411.61,-155.16 267,-140 262.53,-139.53 257.92,-139.04 253.27,-138.55"/>
<polygon fill="#63b8ff" stroke="#63b8ff" points="663.17,-183.53 673.47,-181.02 663.86,-176.56 663.17,-183.53"/>
</a>
</g>
</g>
<!-- Node4 -->
<g id="Node000004" class="node">
<title>Node4</title>
<g id="a_Node000004"><a xlink:href="SocketTLS-private_8h.html" target="_top" xlink:title="TLS internal shared definitions and helper functions.">
<polygon fill="white" stroke="#666666" points="106,-19 0,-19 0,0 106,0 106,-19"/>
<text text-anchor="middle" x="53" y="-7" font-family="Helvetica,sans-Serif" font-size="10.00">SocketTLS&#45;private.h</text>
</a>
</g>
</g>
<!-- Node1&#45;&gt;Node4 -->
<g id="edge17_Node000001_Node000004" class="edge">
<title>Node1&#45;&gt;Node4</title>
<g id="a_edge17_Node000001_Node000004"><a xlink:title=" ">
<path fill="none" stroke="#63b8ff" d="M663.31,-183.68C542.72,-181.09 218.14,-171.33 116,-140 68.99,-125.58 44.66,-127.54 20,-85 6.81,-62.24 30.21,-33.22 43.99,-19.06"/>
<polygon fill="#63b8ff" stroke="#63b8ff" points="663.26,-187.17 673.33,-183.88 663.4,-180.18 663.26,-187.17"/>
</a>
</g>
</g>
<!-- Node6 -->
<g id="Node000006" class="node">
<title>Node6</title>
<g id="a_Node000006"><a xlink:href="SocketDTLS-private_8h.html" target="_top" xlink:title="DTLS internal shared definitions and helper functions.">
<polygon fill="white" stroke="#666666" points="269.5,-19 156.5,-19 156.5,0 269.5,0 269.5,-19"/>
<text text-anchor="middle" x="213" y="-7" font-family="Helvetica,sans-Serif" font-size="10.00">SocketDTLS&#45;private.h</text>
</a>
</g>
</g>
<!-- Node1&#45;&gt;Node6 -->
<g id="edge8_Node000001_Node000006" class="edge">
<title>Node1&#45;&gt;Node6</title>
<g id="a_edge8_Node000001_Node000006"><a xlink:title=" ">
<path fill="none" stroke="#63b8ff" d="M663.09,-185.05C568.75,-185.32 357.11,-181.16 300,-140 266.28,-115.7 285.38,-88.67 261,-55 250.74,-40.83 235.45,-27.6 224.9,-19.31"/>
<polygon fill="#63b8ff" stroke="#63b8ff" points="663.21,-188.55 673.2,-185.01 663.18,-181.55 663.21,-188.55"/>
</a>
</g>
</g>
<!-- Node7 -->
<g id="Node000007" class="node">
<title>Node7</title>
<g id="a_Node000007"><a xlink:href="SocketDNS-private_8h.html" target="_top" xlink:title="Internal structures, enums, and prototypes for asynchronous DNS resolver implementation.">
<polygon fill="white" stroke="#666666" points="419,-140 309,-140 309,-121 419,-121 419,-140"/>
<text text-anchor="middle" x="364" y="-128" font-family="Helvetica,sans-Serif" font-size="10.00">SocketDNS&#45;private.h</text>
</a>
</g>
</g>
<!-- Node1&#45;&gt;Node7 -->
<g id="edge6_Node000001_Node000007" class="edge">
<title>Node1&#45;&gt;Node7</title>
<g id="a_edge6_Node000001_Node000007"><a xlink:title=" ">
<path fill="none" stroke="#63b8ff" d="M663.34,-177.49C600.35,-167.81 486.91,-150.38 419.22,-139.98"/>
<polygon fill="#63b8ff" stroke="#63b8ff" points="662.96,-180.97 673.38,-179.03 664.03,-174.05 662.96,-180.97"/>
</a>
</g>
</g>
<!-- Node9 -->
<g id="Node000009" class="node">
<title>Node9</title>
<g id="a_Node000009"><a xlink:href="SocketHTTP-private_8h.html" target="_top" xlink:title="Internal HTTP core structures and helper functions.">
<polygon fill="white" stroke="#666666" points="551,-140 437,-140 437,-121 551,-121 551,-140"/>
<text text-anchor="middle" x="494" y="-128" font-family="Helvetica,sans-Serif" font-size="10.00">SocketHTTP&#45;private.h</text>
</a>
</g>
</g>
<!-- Node1&#45;&gt;Node9 -->
<g id="edge9_Node000001_Node000009" class="edge">
<title>Node1&#45;&gt;Node9</title>
<g id="a_edge9_Node000001_Node000009"><a xlink:title=" ">
<path fill="none" stroke="#63b8ff" d="M664.64,-173.56C624.37,-163.64 565.8,-149.2 528.81,-140.08"/>
<polygon fill="#63b8ff" stroke="#63b8ff" points="663.91,-176.99 674.46,-175.98 665.58,-170.19 663.91,-176.99"/>
</a>
</g>
</g>
<!-- Node11 -->
<g id="Node000011" class="node">
<title>Node11</title>
<g id="a_Node000011"><a xlink:href="SocketHTTPClient-private_8h.html" target="_top" xlink:title="Internal HTTP client structures and connection pooling.">
<polygon fill="white" stroke="#666666" points="709,-140 569,-140 569,-121 709,-121 709,-140"/>
<text text-anchor="middle" x="639" y="-128" font-family="Helvetica,sans-Serif" font-size="10.00">SocketHTTPClient&#45;private.h</text>
</a>
</g>
</g>
<!-- Node1&#45;&gt;Node11 -->
<g id="edge11_Node000001_Node000011" class="edge">
<title>Node1&#45;&gt;Node11</title>
<g id="a_edge11_Node000001_Node000011"><a xlink:title=" ">
<path fill="none" stroke="#63b8ff" d="M689.69,-169.88C677.09,-160.34 661.07,-148.21 650.45,-140.17"/>
<polygon fill="#63b8ff" stroke="#63b8ff" points="687.67,-172.74 697.75,-175.98 691.89,-167.16 687.67,-172.74"/>
</a>
</g>
</g>
<!-- Node12 -->
<g id="Node000012" class="node">
<title>Node12</title>
<g id="a_Node000012"><a xlink:href="SocketPoll-private_8h.html" target="_top" xlink:title="Internal implementation details for SocketPoll module.">
<polygon fill="white" stroke="#666666" points="831,-140 727,-140 727,-121 831,-121 831,-140"/>
<text text-anchor="middle" x="779" y="-128" font-family="Helvetica,sans-Serif" font-size="10.00">SocketPoll&#45;private.h</text>
</a>
</g>
</g>
<!-- Node1&#45;&gt;Node12 -->
<g id="edge12_Node000001_Node000012" class="edge">
<title>Node1&#45;&gt;Node12</title>
<g id="a_edge12_Node000001_Node000012"><a xlink:title=" ">
<path fill="none" stroke="#63b8ff" d="M728.31,-169.88C740.91,-160.34 756.93,-148.21 767.55,-140.17"/>
<polygon fill="#63b8ff" stroke="#63b8ff" points="726.11,-167.16 720.25,-175.98 730.33,-172.74 726.11,-167.16"/>
</a>
</g>
</g>
<!-- Node13 -->
<g id="Node000013" class="node">
<title>Node13</title>
<g id="a_Node000013"><a xlink:href="SocketPool-private_8h.html" target="_top" xlink:title="Private implementation details and internal structures for SocketPool module.">
<polygon fill="white" stroke="#666666" points="956.5,-140 849.5,-140 849.5,-121 956.5,-121 956.5,-140"/>
<text text-anchor="middle" x="903" y="-128" font-family="Helvetica,sans-Serif" font-size="10.00">SocketPool&#45;private.h</text>
</a>
</g>
</g>
<!-- Node1&#45;&gt;Node13 -->
<g id="edge13_Node000001_Node000013" class="edge">
<title>Node1&#45;&gt;Node13</title>
<g id="a_edge13_Node000001_Node000013"><a xlink:title=" ">
<path fill="none" stroke="#63b8ff" d="M749.96,-173.31C786.26,-163.39 838.5,-149.12 871.59,-140.08"/>
<polygon fill="#63b8ff" stroke="#63b8ff" points="748.89,-169.97 740.17,-175.98 750.74,-176.73 748.89,-169.97"/>
</a>
</g>
</g>
<!-- Node14 -->
<g id="Node000014" class="node">
<title>Node14</title>
<g id="a_Node000014"><a xlink:href="SocketProxy-private_8h.html" target="_top" xlink:title="Internal structures and functions for SocketProxy module.">
<polygon fill="white" stroke="#666666" points="1087.5,-140 974.5,-140 974.5,-121 1087.5,-121 1087.5,-140"/>
<text text-anchor="middle" x="1031" y="-128" font-family="Helvetica,sans-Serif" font-size="10.00">SocketProxy&#45;private.h</text>
</a>
</g>
</g>
<!-- Node1&#45;&gt;Node14 -->
<g id="edge14_Node000001_Node000014" class="edge">
<title>Node1&#45;&gt;Node14</title>
<g id="a_edge14_Node000001_Node000014"><a xlink:title=" ">
<path fill="none" stroke="#63b8ff" d="M754.88,-176.95C814.19,-167.19 917.19,-150.23 979.23,-140.02"/>
<polygon fill="#63b8ff" stroke="#63b8ff" points="753.99,-173.55 744.69,-178.63 755.13,-180.45 753.99,-173.55"/>
</a>
</g>
</g>
<!-- Node15 -->
<g id="Node000015" class="node">
<title>Node15</title>
<g id="a_Node000015"><a xlink:href="SocketRateLimit-private_8h.html" target="_top" xlink:title="Private implementation details for the token bucket rate limiter module.">
<polygon fill="white" stroke="#666666" points="1236,-140 1106,-140 1106,-121 1236,-121 1236,-140"/>
<text text-anchor="middle" x="1171" y="-128" font-family="Helvetica,sans-Serif" font-size="10.00">SocketRateLimit&#45;private.h</text>
</a>
</g>
</g>
<!-- Node1&#45;&gt;Node15 -->
<g id="edge15_Node000001_Node000015" class="edge">
<title>Node1&#45;&gt;Node15</title>
<g id="a_edge15_Node000001_Node000015"><a xlink:title=" ">
<path fill="none" stroke="#63b8ff" d="M754.74,-179.26C827.29,-170.94 973.25,-154.2 1097,-140 1099.83,-139.68 1102.71,-139.34 1105.63,-139.01"/>
<polygon fill="#63b8ff" stroke="#63b8ff" points="754.11,-175.81 744.57,-180.42 754.91,-182.76 754.11,-175.81"/>
</a>
</g>
</g>
<!-- Node16 -->
<g id="Node000016" class="node">
<title>Node16</title>
<g id="a_Node000016"><a xlink:href="SocketReconnect-private_8h.html" target="_top" xlink:title="Internal implementation details for automatic reconnection framework.">
<polygon fill="white" stroke="#666666" points="1389.5,-140 1254.5,-140 1254.5,-121 1389.5,-121 1389.5,-140"/>
<text text-anchor="middle" x="1322" y="-128" font-family="Helvetica,sans-Serif" font-size="10.00">SocketReconnect&#45;private.h</text>
</a>
</g>
</g>
<!-- Node1&#45;&gt;Node16 -->
<g id="edge16_Node000001_Node000016" class="edge">
<title>Node1&#45;&gt;Node16</title>
<g id="a_edge16_Node000001_Node000016"><a xlink:title=" ">
<path fill="none" stroke="#63b8ff" d="M754.95,-181.11C847.67,-174.17 1063.78,-157.52 1245,-140 1248.08,-139.7 1251.23,-139.39 1254.4,-139.07"/>
<polygon fill="#63b8ff" stroke="#63b8ff" points="754.5,-177.63 744.78,-181.87 755.02,-184.61 754.5,-177.63"/>
</a>
</g>
</g>
<!-- Node17 -->
<g id="Node000017" class="node">
<title>Node17</title>
<g id="a_Node000017"><a xlink:href="SocketWS-private_8h.html" target="_top" xlink:title="Internal implementation details for WebSocket module.">
<polygon fill="white" stroke="#666666" points="1512,-140 1408,-140 1408,-121 1512,-121 1512,-140"/>
<text text-anchor="middle" x="1460" y="-128" font-family="Helvetica,sans-Serif" font-size="10.00">SocketWS&#45;private.h</text>
</a>
</g>
</g>
<!-- Node1&#45;&gt;Node17 -->
<g id="edge18_Node000001_Node000017" class="edge">
<title>Node1&#45;&gt;Node17</title>
<g id="a_edge18_Node000001_Node000017"><a xlink:title=" ">
<path fill="none" stroke="#63b8ff" d="M754.78,-182.72C865.58,-178.16 1156.92,-164.64 1399,-140 1401.87,-139.71 1404.82,-139.38 1407.79,-139.03"/>
<polygon fill="#63b8ff" stroke="#63b8ff" points="754.48,-179.23 744.63,-183.13 754.76,-186.22 754.48,-179.23"/>
</a>
</g>
</g>
<!-- Node3 -->
<g id="Node000003" class="node">
<title>Node3</title>
<g id="a_Node000003"><a xlink:href="Socket-private_8h.html" target="_top" xlink:title="Private implementation details for the Socket module, including internal structure definition....">
<polygon fill="white" stroke="#666666" points="117,-79.5 29,-79.5 29,-60.5 117,-60.5 117,-79.5"/>
<text text-anchor="middle" x="73" y="-67.5" font-family="Helvetica,sans-Serif" font-size="10.00">Socket&#45;private.h</text>
</a>
</g>
</g>
<!-- Node2&#45;&gt;Node3 -->
<g id="edge2_Node000002_Node000003" class="edge">
<title>Node2&#45;&gt;Node3</title>
<g id="a_edge2_Node000002_Node000003"><a xlink:title=" ">
<path fill="none" stroke="#63b8ff" d="M162.68,-116.23C140.47,-105.03 109.32,-89.32 90.19,-79.67"/>
<polygon fill="#63b8ff" stroke="#63b8ff" points="161.38,-119.49 171.88,-120.87 164.53,-113.24 161.38,-119.49"/>
</a>
</g>
</g>
<!-- Node5 -->
<g id="Node000005" class="node">
<title>Node5</title>
<g id="a_Node000005"><a xlink:href="SocketDgram-private_8h.html" target="_top" xlink:title="Internal implementation details for datagram (UDP) socket structure.">
<polygon fill="white" stroke="#666666" points="252.5,-79.5 135.5,-79.5 135.5,-60.5 252.5,-60.5 252.5,-79.5"/>
<text text-anchor="middle" x="194" y="-67.5" font-family="Helvetica,sans-Serif" font-size="10.00">SocketDgram&#45;private.h</text>
</a>
</g>
</g>
<!-- Node2&#45;&gt;Node5 -->
<g id="edge4_Node000002_Node000005" class="edge">
<title>Node2&#45;&gt;Node5</title>
<g id="a_edge4_Node000002_Node000005"><a xlink:title=" ">
<path fill="none" stroke="#63b8ff" d="M190.61,-110.66C191.5,-100.24 192.56,-87.8 193.26,-79.67"/>
<polygon fill="#63b8ff" stroke="#63b8ff" points="187.1,-110.61 189.74,-120.87 194.08,-111.2 187.1,-110.61"/>
</a>
</g>
</g>
<!-- Node3&#45;&gt;Node4 -->
<g id="edge3_Node000003_Node000004" class="edge">
<title>Node3&#45;&gt;Node4</title>
<g id="a_edge3_Node000003_Node000004"><a xlink:title=" ">
<path fill="none" stroke="#63b8ff" d="M66.79,-50.82C63.18,-40.28 58.8,-27.48 55.96,-19.17"/>
<polygon fill="#63b8ff" stroke="#63b8ff" points="63.5,-52.04 70.05,-60.37 70.13,-49.77 63.5,-52.04"/>
</a>
</g>
</g>
<!-- Node5&#45;&gt;Node6 -->
<g id="edge5_Node000005_Node000006" class="edge">
<title>Node5&#45;&gt;Node6</title>
<g id="a_edge5_Node000005_Node000006"><a xlink:title=" ">
<path fill="none" stroke="#63b8ff" d="M199.9,-50.82C203.33,-40.28 207.49,-27.48 210.18,-19.17"/>
<polygon fill="#63b8ff" stroke="#63b8ff" points="196.56,-49.78 196.8,-60.37 203.22,-51.94 196.56,-49.78"/>
</a>
</g>
</g>
<!-- Node8 -->
<g id="Node000008" class="node">
<title>Node8</title>
<g id="a_Node000008"><a xlink:href="SocketHappyEyeballs-private_8h.html" target="_top" xlink:title="Internal structures and state for Happy Eyeballs connection racing (RFC 8305).">
<polygon fill="white" stroke="#666666" points="422.5,-85 309.5,-85 309.5,-55 422.5,-55 422.5,-85"/>
<text text-anchor="start" x="317.5" y="-73" font-family="Helvetica,sans-Serif" font-size="10.00">SocketHappyEyeballs</text>
<text text-anchor="middle" x="366" y="-62" font-family="Helvetica,sans-Serif" font-size="10.00">&#45;private.h</text>
</a>
</g>
</g>
<!-- Node7&#45;&gt;Node8 -->
<g id="edge7_Node000007_Node000008" class="edge">
<title>Node7&#45;&gt;Node8</title>
<g id="a_edge7_Node000007_Node000008"><a xlink:title=" ">
<path fill="none" stroke="#63b8ff" d="M364.64,-110.65C364.93,-102.36 365.26,-92.78 365.52,-85.11"/>
<polygon fill="#63b8ff" stroke="#63b8ff" points="361.14,-110.75 364.3,-120.87 368.13,-110.99 361.14,-110.75"/>
</a>
</g>
</g>
<!-- Node10 -->
<g id="Node000010" class="node">
<title>Node10</title>
<g id="a_Node000010"><a xlink:href="SocketHTTP1-private_8h.html" target="_top" xlink:title="Internal HTTP/1.1 parser structures and DFA state machine.">
<polygon fill="white" stroke="#666666" points="559.5,-79.5 440.5,-79.5 440.5,-60.5 559.5,-60.5 559.5,-79.5"/>
<text text-anchor="middle" x="500" y="-67.5" font-family="Helvetica,sans-Serif" font-size="10.00">SocketHTTP1&#45;private.h</text>
</a>
</g>
</g>
<!-- Node9&#45;&gt;Node10 -->
<g id="edge10_Node000009_Node000010" class="edge">
<title>Node9&#45;&gt;Node10</title>
<g id="a_edge10_Node000009_Node000010"><a xlink:title=" ">
<path fill="none" stroke="#63b8ff" d="M495.93,-110.66C497,-100.24 498.28,-87.8 499.11,-79.67"/>
<polygon fill="#63b8ff" stroke="#63b8ff" points="492.42,-110.56 494.89,-120.87 499.39,-111.28 492.42,-110.56"/>
</a>
</g>
</g>
</g>
</svg>

<g id="navigator" transform="translate(0 0)" fill="#404254">
  <rect fill="#f2f5e9" fill-opacity="0.5" stroke="#606060" stroke-width=".5" x="0" y="0" width="60" height="60"/>
  <use id="zoomplus" xlink:href="#zoomPlus" x="17" y="9" onmousedown="handleZoom(evt,'in')"/>
  <use id="zoomminus" xlink:href="#zoomMin" x="42" y="9" onmousedown="handleZoom(evt,'out')"/>
  <use id="reset" xlink:href="#resetDef" x="30" y="36" onmousedown="handleReset()"/>
   <use id="arrowup" xlink:href="#arrowUp" x="0" y="0" onmousedown="handlePan(0,-1)"/>
  <use id="arrowright" xlink:href="#arrowRight" x="0" y="0" onmousedown="handlePan(1,0)"/>
  <use id="arrowdown" xlink:href="#arrowDown" x="0" y="0" onmousedown="handlePan(0,1)"/>
  <use id="arrowleft" xlink:href="#arrowLeft" x="0" y="0" onmousedown="handlePan(-1,0)"/>
</g>
<svg viewBox="0 0 15 15" width="100%" height="30px" preserveAspectRatio="xMaxYMin meet">
 <g id="arrow_out" transform="scale(0.3 0.3)">
  <a xlink:href="SocketUtil_8h__dep__incl_org.svg" target="_base">
   <rect id="button" ry="5" rx="5" y="6" x="6" height="38" width="38"
        fill="#f2f5e9" fill-opacity="0.5" stroke="#606060" stroke-width="1.0"/>
   <path id="arrow"
     d="M 11.500037,31.436501 C 11.940474,20.09759 22.043105,11.32322 32.158766,21.979434 L 37.068811,17.246167 C 37.068811,17.246167 37.088388,32 37.088388,32 L 22.160133,31.978069 C 22.160133,31.978069 26.997745,27.140456 26.997745,27.140456 C 18.528582,18.264221 13.291696,25.230495 11.500037,31.436501 z"
     style="fill:#404040;"/>
  </a>
 </g>
</svg>

<style type='text/css'>
<![CDATA[
[data-mouse-over-selected='false'] { opacity: 0.7; }
[data-mouse-over-selected='true']  { opacity: 1.0; }
]]>
</style>
<script type="application/ecmascript"><![CDATA[
document.addEventListener('DOMContentLoaded', (event) => {
  highlightEdges();
  highlightAdjacentNodes();
});
]]></script>
</svg>
