<?xml version="1.0" encoding="UTF-8" standalone="no"?>
<!DOCTYPE svg PUBLIC "-//W3C//DTD SVG 1.1//EN"
 "http://www.w3.org/Graphics/SVG/1.1/DTD/svg11.dtd">
<!-- Generated by graphviz version 2.43.0 (0)
 -->
<!-- Title: SocketPool.h Pages: 1 -->
<svg width="1635pt" height="357pt"
 viewBox="0.00 0.00 1634.68 357.00" xmlns="http://www.w3.org/2000/svg" xmlns:xlink="http://www.w3.org/1999/xlink">
<g id="graph0" class="graph" transform="scale(1 1) rotate(0) translate(4 353)">
<title>SocketPool.h</title>
<!-- Node1 -->
<g id="Node000001" class="node">
<title>Node1</title>
<g id="a_Node000001"><a xlink:title=" ">
<polygon fill="#999999" stroke="#666666" points="637.18,-349 562.18,-349 562.18,-330 637.18,-330 637.18,-349"/>
<text text-anchor="middle" x="599.68" y="-337" font-family="Helvetica,sans-Serif" font-size="10.00">SocketPool.h</text>
</a>
</g>
</g>
<!-- Node2 -->
<g id="Node000002" class="node">
<title>Node2</title>
<g id="a_Node000002"><a xlink:href="Arena_8h.html" target="_top" xlink:title=" ">
<polygon fill="white" stroke="#666666" points="766.68,-129 694.68,-129 694.68,-110 766.68,-110 766.68,-129"/>
<text text-anchor="middle" x="730.68" y="-117" font-family="Helvetica,sans-Serif" font-size="10.00">core/Arena.h</text>
</a>
</g>
</g>
<!-- Node1&#45;&gt;Node2 -->
<g id="edge1_Node000001_Node000002" class="edge">
<title>Node1&#45;&gt;Node2</title>
<g id="a_edge1_Node000001_Node000002"><a xlink:title=" ">
<path fill="none" stroke="#63b8ff" d="M594.98,-329.84C580.86,-302.49 542.07,-216.72 580.68,-165 593.24,-148.18 645.3,-135.45 684.59,-128"/>
<polygon fill="#63b8ff" stroke="#63b8ff" points="685.33,-131.43 694.53,-126.18 684.06,-124.54 685.33,-131.43"/>
</a>
</g>
</g>
<!-- Node3 -->
<g id="Node000003" class="node">
<title>Node3</title>
<g id="a_Node000003"><a xlink:title=" ">
<polygon fill="#e0e0e0" stroke="#999999" points="501.68,-74 449.68,-74 449.68,-55 501.68,-55 501.68,-74"/>
<text text-anchor="middle" x="475.68" y="-62" font-family="Helvetica,sans-Serif" font-size="10.00">stddef.h</text>
</a>
</g>
</g>
<!-- Node1&#45;&gt;Node3 -->
<g id="edge61_Node000001_Node000003" class="edge">
<title>Node1&#45;&gt;Node3</title>
<g id="a_edge61_Node000001_Node000003"><a xlink:title=" ">
<path fill="none" stroke="#63b8ff" d="M592.65,-329.68C585.92,-320.96 575.78,-307.07 568.68,-294 528.14,-219.34 494.59,-123.2 481.54,-83.69"/>
<polygon fill="#63b8ff" stroke="#63b8ff" points="484.84,-82.53 478.41,-74.11 478.19,-84.7 484.84,-82.53"/>
</a>
</g>
</g>
<!-- Node4 -->
<g id="Node000004" class="node">
<title>Node4</title>
<g id="a_Node000004"><a xlink:href="Except_8h.html" target="_top" xlink:title=" ">
<polygon fill="white" stroke="#666666" points="939.18,-74 862.18,-74 862.18,-55 939.18,-55 939.18,-74"/>
<text text-anchor="middle" x="900.68" y="-62" font-family="Helvetica,sans-Serif" font-size="10.00">core/Except.h</text>
</a>
</g>
</g>
<!-- Node1&#45;&gt;Node4 -->
<g id="edge5_Node000001_Node000004" class="edge">
<title>Node1&#45;&gt;Node4</title>
<g id="a_edge5_Node000001_Node000004"><a xlink:title=" ">
<path fill="none" stroke="#63b8ff" d="M637.41,-338.27C814.5,-336.7 1554.68,-324.51 1554.68,-230.5 1554.68,-230.5 1554.68,-230.5 1554.68,-173.5 1554.68,-133.74 1527.78,-126.65 1491.68,-110 1395.79,-65.76 1073.71,-63.86 949.81,-64.84"/>
<polygon fill="#63b8ff" stroke="#63b8ff" points="949.47,-61.34 939.5,-64.93 949.53,-68.34 949.47,-61.34"/>
</a>
</g>
</g>
<!-- Node6 -->
<g id="Node000006" class="node">
<title>Node6</title>
<g id="a_Node000006"><a xlink:href="SocketSYNProtect_8h.html" target="_top" xlink:title=" ">
<polygon fill="white" stroke="#666666" points="457.68,-184 327.68,-184 327.68,-165 457.68,-165 457.68,-184"/>
<text text-anchor="middle" x="392.68" y="-172" font-family="Helvetica,sans-Serif" font-size="10.00">core/SocketSYNProtect.h</text>
</a>
</g>
</g>
<!-- Node1&#45;&gt;Node6 -->
<g id="edge6_Node000001_Node000006" class="edge">
<title>Node1&#45;&gt;Node6</title>
<g id="a_edge6_Node000001_Node000006"><a xlink:title=" ">
<path fill="none" stroke="#63b8ff" d="M562.14,-332.12C534.85,-325.98 498.19,-314.52 471.68,-294 436.45,-266.73 411.68,-219.15 400.09,-193.35"/>
<polygon fill="#63b8ff" stroke="#63b8ff" points="403.25,-191.83 396.06,-184.04 396.82,-194.61 403.25,-191.83"/>
</a>
</g>
</g>
<!-- Node17 -->
<g id="Node000017" class="node">
<title>Node17</title>
<g id="a_Node000017"><a xlink:href="SocketUtil_8h.html" target="_top" xlink:title=" ">
<polygon fill="white" stroke="#666666" points="216.68,-184 124.68,-184 124.68,-165 216.68,-165 216.68,-184"/>
<text text-anchor="middle" x="170.68" y="-172" font-family="Helvetica,sans-Serif" font-size="10.00">core/SocketUtil.h</text>
</a>
</g>
</g>
<!-- Node1&#45;&gt;Node17 -->
<g id="edge21_Node000001_Node000017" class="edge">
<title>Node1&#45;&gt;Node17</title>
<g id="a_edge21_Node000001_Node000017"><a xlink:title=" ">
<path fill="none" stroke="#63b8ff" d="M565.87,-329.94C534.62,-321.73 487.04,-308.47 446.68,-294 353.46,-260.57 246.65,-211.52 197.72,-188.43"/>
<polygon fill="#63b8ff" stroke="#63b8ff" points="198.99,-185.16 188.46,-184.04 196,-191.48 198.99,-185.16"/>
</a>
</g>
</g>
<!-- Node20 -->
<g id="Node000020" class="node">
<title>Node20</title>
<g id="a_Node000020"><a xlink:href="Socket_8h.html" target="_top" xlink:title=" ">
<polygon fill="white" stroke="#666666" points="784.68,-239 696.68,-239 696.68,-220 784.68,-220 784.68,-239"/>
<text text-anchor="middle" x="740.68" y="-227" font-family="Helvetica,sans-Serif" font-size="10.00">socket/Socket.h</text>
</a>
</g>
</g>
<!-- Node1&#45;&gt;Node20 -->
<g id="edge30_Node000001_Node000020" class="edge">
<title>Node1&#45;&gt;Node20</title>
<g id="a_edge30_Node000001_Node000020"><a xlink:title=" ">
<path fill="none" stroke="#63b8ff" d="M611.22,-329.66C635.4,-311.14 691.62,-268.08 721.39,-245.28"/>
<polygon fill="#63b8ff" stroke="#63b8ff" points="723.57,-248.02 729.38,-239.16 719.31,-242.46 723.57,-248.02"/>
</a>
</g>
</g>
<!-- Node21 -->
<g id="Node000021" class="node">
<title>Node21</title>
<g id="a_Node000021"><a xlink:href="SocketDNS_8h.html" target="_top" xlink:title=" ">
<polygon fill="white" stroke="#666666" points="685.68,-184 589.68,-184 589.68,-165 685.68,-165 685.68,-184"/>
<text text-anchor="middle" x="637.68" y="-172" font-family="Helvetica,sans-Serif" font-size="10.00">dns/SocketDNS.h</text>
</a>
</g>
</g>
<!-- Node1&#45;&gt;Node21 -->
<g id="edge63_Node000001_Node000021" class="edge">
<title>Node1&#45;&gt;Node21</title>
<g id="a_edge63_Node000001_Node000021"><a xlink:title=" ">
<path fill="none" stroke="#63b8ff" d="M601.12,-329.81C604.45,-310.11 613.2,-260.65 623.68,-220 625.9,-211.37 628.8,-201.94 631.38,-193.99"/>
<polygon fill="#63b8ff" stroke="#63b8ff" points="634.78,-194.88 634.62,-184.29 628.14,-192.67 634.78,-194.88"/>
</a>
</g>
</g>
<!-- Node29 -->
<g id="Node000029" class="node">
<title>Node29</title>
<g id="a_Node000029"><a xlink:href="SocketBuf_8h.html" target="_top" xlink:title=" ">
<polygon fill="white" stroke="#666666" points="807.18,-184 704.18,-184 704.18,-165 807.18,-165 807.18,-184"/>
<text text-anchor="middle" x="755.68" y="-172" font-family="Helvetica,sans-Serif" font-size="10.00">socket/SocketBuf.h</text>
</a>
</g>
</g>
<!-- Node1&#45;&gt;Node29 -->
<g id="edge51_Node000001_Node000029" class="edge">
<title>Node1&#45;&gt;Node29</title>
<g id="a_edge51_Node000001_Node000029"><a xlink:title=" ">
<path fill="none" stroke="#63b8ff" d="M604.57,-329.95C616.67,-309.29 649.82,-255.68 687.68,-220 700.44,-207.97 716.85,-197.13 730.34,-189.16"/>
<polygon fill="#63b8ff" stroke="#63b8ff" points="732.2,-192.13 739.14,-184.12 728.73,-186.06 732.2,-192.13"/>
</a>
</g>
</g>
<!-- Node30 -->
<g id="Node000030" class="node">
<title>Node30</title>
<g id="a_Node000030"><a xlink:href="SocketReconnect_8h.html" target="_top" xlink:title=" ">
<polygon fill="white" stroke="#666666" points="839.18,-294 704.18,-294 704.18,-275 839.18,-275 839.18,-294"/>
<text text-anchor="middle" x="771.68" y="-282" font-family="Helvetica,sans-Serif" font-size="10.00">socket/SocketReconnect.h</text>
</a>
</g>
</g>
<!-- Node1&#45;&gt;Node30 -->
<g id="edge56_Node000001_Node000030" class="edge">
<title>Node1&#45;&gt;Node30</title>
<g id="a_edge56_Node000001_Node000030"><a xlink:title=" ">
<path fill="none" stroke="#63b8ff" d="M627.31,-329.98C656.19,-321.09 701.69,-307.07 733.88,-297.15"/>
<polygon fill="#63b8ff" stroke="#63b8ff" points="735.3,-300.37 743.83,-294.08 733.24,-293.68 735.3,-300.37"/>
</a>
</g>
</g>
<!-- Node31 -->
<g id="Node000031" class="node">
<title>Node31</title>
<g id="a_Node000031"><a xlink:title=" ">
<polygon fill="#e0e0e0" stroke="#999999" points="1626.68,-294 1582.68,-294 1582.68,-275 1626.68,-275 1626.68,-294"/>
<text text-anchor="middle" x="1604.68" y="-282" font-family="Helvetica,sans-Serif" font-size="10.00">time.h</text>
</a>
</g>
</g>
<!-- Node1&#45;&gt;Node31 -->
<g id="edge62_Node000001_Node000031" class="edge">
<title>Node1&#45;&gt;Node31</title>
<g id="a_edge62_Node000001_Node000031"><a xlink:title=" ">
<path fill="none" stroke="#63b8ff" d="M637.41,-337.71C792.8,-334.29 1383.86,-319.83 1568.68,-294 1569.93,-293.82 1571.2,-293.63 1572.49,-293.41"/>
<polygon fill="#63b8ff" stroke="#63b8ff" points="1573.21,-296.84 1582.33,-291.46 1571.84,-289.97 1573.21,-296.84"/>
</a>
</g>
</g>
<!-- Node2&#45;&gt;Node3 -->
<g id="edge2_Node000002_Node000003" class="edge">
<title>Node2&#45;&gt;Node3</title>
<g id="a_edge2_Node000002_Node000003"><a xlink:title=" ">
<path fill="none" stroke="#63b8ff" d="M694.42,-110.96C645.86,-100.87 560.25,-83.08 511.78,-73"/>
<polygon fill="#63b8ff" stroke="#63b8ff" points="512.25,-69.53 501.74,-70.92 510.82,-76.38 512.25,-69.53"/>
</a>
</g>
</g>
<!-- Node2&#45;&gt;Node4 -->
<g id="edge3_Node000002_Node000004" class="edge">
<title>Node2&#45;&gt;Node4</title>
<g id="a_edge3_Node000002_Node000004"><a xlink:title=" ">
<path fill="none" stroke="#63b8ff" d="M757.99,-109.98C786.53,-101.09 831.51,-87.07 863.32,-77.15"/>
<polygon fill="#63b8ff" stroke="#63b8ff" points="864.65,-80.4 873.15,-74.08 862.56,-73.72 864.65,-80.4"/>
</a>
</g>
</g>
<!-- Node5 -->
<g id="Node000005" class="node">
<title>Node5</title>
<g id="a_Node000005"><a xlink:title=" ">
<polygon fill="#e0e0e0" stroke="#999999" points="927.68,-19 873.68,-19 873.68,0 927.68,0 927.68,-19"/>
<text text-anchor="middle" x="900.68" y="-7" font-family="Helvetica,sans-Serif" font-size="10.00">setjmp.h</text>
</a>
</g>
</g>
<!-- Node4&#45;&gt;Node5 -->
<g id="edge4_Node000004_Node000005" class="edge">
<title>Node4&#45;&gt;Node5</title>
<g id="a_edge4_Node000004_Node000005"><a xlink:title=" ">
<path fill="none" stroke="#63b8ff" d="M900.68,-54.75C900.68,-47.8 900.68,-37.85 900.68,-29.13"/>
<polygon fill="#63b8ff" stroke="#63b8ff" points="904.18,-29.09 900.68,-19.09 897.18,-29.09 904.18,-29.09"/>
</a>
</g>
</g>
<!-- Node6&#45;&gt;Node2 -->
<g id="edge7_Node000006_Node000002" class="edge">
<title>Node6&#45;&gt;Node2</title>
<g id="a_edge7_Node000006_Node000002"><a xlink:title=" ">
<path fill="none" stroke="#63b8ff" d="M446.99,-164.98C512.74,-154.67 622.37,-137.48 684.33,-127.77"/>
<polygon fill="#63b8ff" stroke="#63b8ff" points="684.88,-131.22 694.22,-126.22 683.8,-124.31 684.88,-131.22"/>
</a>
</g>
</g>
<!-- Node6&#45;&gt;Node3 -->
<g id="edge19_Node000006_Node000003" class="edge">
<title>Node6&#45;&gt;Node3</title>
<g id="a_edge19_Node000006_Node000003"><a xlink:title=" ">
<path fill="none" stroke="#63b8ff" d="M395.86,-164.67C400.77,-151.82 411.05,-127.55 424.68,-110 433.26,-98.94 444.9,-88.54 454.89,-80.58"/>
<polygon fill="#63b8ff" stroke="#63b8ff" points="457.33,-83.12 463.13,-74.26 453.06,-77.57 457.33,-83.12"/>
</a>
</g>
</g>
<!-- Node6&#45;&gt;Node4 -->
<g id="edge8_Node000006_Node000004" class="edge">
<title>Node6&#45;&gt;Node4</title>
<g id="a_edge8_Node000006_Node000004"><a xlink:title=" ">
<path fill="none" stroke="#63b8ff" d="M431.52,-164.96C487.6,-152.66 594.54,-129.31 685.68,-110 742.64,-97.93 808.18,-84.42 851.77,-75.49"/>
<polygon fill="#63b8ff" stroke="#63b8ff" points="852.72,-78.87 861.82,-73.43 851.32,-72.01 852.72,-78.87"/>
</a>
</g>
</g>
<!-- Node7 -->
<g id="Node000007" class="node">
<title>Node7</title>
<g id="a_Node000007"><a xlink:href="SocketConfig_8h.html" target="_top" xlink:title=" ">
<polygon fill="white" stroke="#666666" points="372.68,-129 266.68,-129 266.68,-110 372.68,-110 372.68,-129"/>
<text text-anchor="middle" x="319.68" y="-117" font-family="Helvetica,sans-Serif" font-size="10.00">core/SocketConfig.h</text>
</a>
</g>
</g>
<!-- Node6&#45;&gt;Node7 -->
<g id="edge9_Node000006_Node000007" class="edge">
<title>Node6&#45;&gt;Node7</title>
<g id="a_edge9_Node000006_Node000007"><a xlink:title=" ">
<path fill="none" stroke="#63b8ff" d="M380.95,-164.98C369.95,-157 353.26,-144.88 340.08,-135.31"/>
<polygon fill="#63b8ff" stroke="#63b8ff" points="341.77,-132.21 331.62,-129.17 337.66,-137.88 341.77,-132.21"/>
</a>
</g>
</g>
<!-- Node16 -->
<g id="Node000016" class="node">
<title>Node16</title>
<g id="a_Node000016"><a xlink:title=" ">
<polygon fill="#e0e0e0" stroke="#999999" points="248.18,-129 199.18,-129 199.18,-110 248.18,-110 248.18,-129"/>
<text text-anchor="middle" x="223.68" y="-117" font-family="Helvetica,sans-Serif" font-size="10.00">stdint.h</text>
</a>
</g>
</g>
<!-- Node6&#45;&gt;Node16 -->
<g id="edge20_Node000006_Node000016" class="edge">
<title>Node6&#45;&gt;Node16</title>
<g id="a_edge20_Node000006_Node000016"><a xlink:title=" ">
<path fill="none" stroke="#63b8ff" d="M365.53,-164.98C336.31,-155.82 289.78,-141.23 258.04,-131.27"/>
<polygon fill="#63b8ff" stroke="#63b8ff" points="258.88,-127.87 248.29,-128.22 256.79,-134.55 258.88,-127.87"/>
</a>
</g>
</g>
<!-- Node7&#45;&gt;Node3 -->
<g id="edge14_Node000007_Node000003" class="edge">
<title>Node7&#45;&gt;Node3</title>
<g id="a_edge14_Node000007_Node000003"><a xlink:title=" ">
<path fill="none" stroke="#63b8ff" d="M344.74,-109.98C370.71,-101.16 411.49,-87.31 440.64,-77.41"/>
<polygon fill="#63b8ff" stroke="#63b8ff" points="442.08,-80.61 450.42,-74.08 439.83,-73.99 442.08,-80.61"/>
</a>
</g>
</g>
<!-- Node8 -->
<g id="Node000008" class="node">
<title>Node8</title>
<g id="a_Node000008"><a xlink:title=" ">
<polygon fill="#e0e0e0" stroke="#999999" points="56.18,-74 9.18,-74 9.18,-55 56.18,-55 56.18,-74"/>
<text text-anchor="middle" x="32.68" y="-62" font-family="Helvetica,sans-Serif" font-size="10.00">errno.h</text>
</a>
</g>
</g>
<!-- Node7&#45;&gt;Node8 -->
<g id="edge10_Node000007_Node000008" class="edge">
<title>Node7&#45;&gt;Node8</title>
<g id="a_edge10_Node000007_Node000008"><a xlink:title=" ">
<path fill="none" stroke="#63b8ff" d="M273.57,-109.98C215.61,-99.28 117.51,-81.16 66.21,-71.69"/>
<polygon fill="#63b8ff" stroke="#63b8ff" points="66.77,-68.24 56.3,-69.86 65.5,-75.12 66.77,-68.24"/>
</a>
</g>
</g>
<!-- Node9 -->
<g id="Node000009" class="node">
<title>Node9</title>
<g id="a_Node000009"><a xlink:title=" ">
<polygon fill="#e0e0e0" stroke="#999999" points="835.68,-74 791.68,-74 791.68,-55 835.68,-55 835.68,-74"/>
<text text-anchor="middle" x="813.68" y="-62" font-family="Helvetica,sans-Serif" font-size="10.00">fcntl.h</text>
</a>
</g>
</g>
<!-- Node7&#45;&gt;Node9 -->
<g id="edge11_Node000007_Node000009" class="edge">
<title>Node7&#45;&gt;Node9</title>
<g id="a_edge11_Node000007_Node000009"><a xlink:title=" ">
<path fill="none" stroke="#63b8ff" d="M372.83,-114.59C456.74,-108.1 624.95,-93.84 766.68,-74 771.46,-73.33 776.49,-72.53 781.42,-71.68"/>
<polygon fill="#63b8ff" stroke="#63b8ff" points="782.04,-75.13 791.27,-69.93 780.81,-68.24 782.04,-75.13"/>
</a>
</g>
</g>
<!-- Node10 -->
<g id="Node000010" class="node">
<title>Node10</title>
<g id="a_Node000010"><a xlink:title=" ">
<polygon fill="#e0e0e0" stroke="#999999" points="757.18,-74 692.18,-74 692.18,-55 757.18,-55 757.18,-74"/>
<text text-anchor="middle" x="724.68" y="-62" font-family="Helvetica,sans-Serif" font-size="10.00">netinet/in.h</text>
</a>
</g>
</g>
<!-- Node7&#45;&gt;Node10 -->
<g id="edge12_Node000007_Node000010" class="edge">
<title>Node7&#45;&gt;Node10</title>
<g id="a_edge12_Node000007_Node000010"><a xlink:title=" ">
<path fill="none" stroke="#63b8ff" d="M372.71,-112.59C442.18,-104.67 567.76,-89.78 674.68,-74 677.16,-73.63 679.7,-73.25 682.27,-72.84"/>
<polygon fill="#63b8ff" stroke="#63b8ff" points="682.86,-76.29 692.17,-71.24 681.74,-69.38 682.86,-76.29"/>
</a>
</g>
</g>
<!-- Node11 -->
<g id="Node000011" class="node">
<title>Node11</title>
<g id="a_Node000011"><a xlink:title=" ">
<polygon fill="#e0e0e0" stroke="#999999" points="355.18,-74 284.18,-74 284.18,-55 355.18,-55 355.18,-74"/>
<text text-anchor="middle" x="319.68" y="-62" font-family="Helvetica,sans-Serif" font-size="10.00">netinet/tcp.h</text>
</a>
</g>
</g>
<!-- Node7&#45;&gt;Node11 -->
<g id="edge13_Node000007_Node000011" class="edge">
<title>Node7&#45;&gt;Node11</title>
<g id="a_edge13_Node000007_Node000011"><a xlink:title=" ">
<path fill="none" stroke="#63b8ff" d="M319.68,-109.75C319.68,-102.8 319.68,-92.85 319.68,-84.13"/>
<polygon fill="#63b8ff" stroke="#63b8ff" points="323.18,-84.09 319.68,-74.09 316.18,-84.09 323.18,-84.09"/>
</a>
</g>
</g>
<!-- Node12 -->
<g id="Node000012" class="node">
<title>Node12</title>
<g id="a_Node000012"><a xlink:title=" ">
<polygon fill="#e0e0e0" stroke="#999999" points="158.68,-74 112.68,-74 112.68,-55 158.68,-55 158.68,-74"/>
<text text-anchor="middle" x="135.68" y="-62" font-family="Helvetica,sans-Serif" font-size="10.00">stdio.h</text>
</a>
</g>
</g>
<!-- Node7&#45;&gt;Node12 -->
<g id="edge15_Node000007_Node000012" class="edge">
<title>Node7&#45;&gt;Node12</title>
<g id="a_edge15_Node000007_Node000012"><a xlink:title=" ">
<path fill="none" stroke="#63b8ff" d="M290.12,-109.98C256.83,-100.4 202.9,-84.86 168.38,-74.92"/>
<polygon fill="#63b8ff" stroke="#63b8ff" points="169.34,-71.55 158.76,-72.15 167.4,-78.28 169.34,-71.55"/>
</a>
</g>
</g>
<!-- Node13 -->
<g id="Node000013" class="node">
<title>Node13</title>
<g id="a_Node000013"><a xlink:title=" ">
<polygon fill="#e0e0e0" stroke="#999999" points="665.18,-74 592.18,-74 592.18,-55 665.18,-55 665.18,-74"/>
<text text-anchor="middle" x="628.68" y="-62" font-family="Helvetica,sans-Serif" font-size="10.00">sys/socket.h</text>
</a>
</g>
</g>
<!-- Node7&#45;&gt;Node13 -->
<g id="edge16_Node000007_Node000013" class="edge">
<title>Node7&#45;&gt;Node13</title>
<g id="a_edge16_Node000007_Node000013"><a xlink:title=" ">
<path fill="none" stroke="#63b8ff" d="M369.33,-109.98C427.91,-99.94 524.57,-83.36 581.88,-73.53"/>
<polygon fill="#63b8ff" stroke="#63b8ff" points="582.5,-76.97 591.76,-71.83 581.31,-70.07 582.5,-76.97"/>
</a>
</g>
</g>
<!-- Node14 -->
<g id="Node000014" class="node">
<title>Node14</title>
<g id="a_Node000014"><a xlink:title=" ">
<polygon fill="#e0e0e0" stroke="#999999" points="429.68,-74 373.68,-74 373.68,-55 429.68,-55 429.68,-74"/>
<text text-anchor="middle" x="401.68" y="-62" font-family="Helvetica,sans-Serif" font-size="10.00">sys/uio.h</text>
</a>
</g>
</g>
<!-- Node7&#45;&gt;Node14 -->
<g id="edge17_Node000007_Node000014" class="edge">
<title>Node7&#45;&gt;Node14</title>
<g id="a_edge17_Node000007_Node000014"><a xlink:title=" ">
<path fill="none" stroke="#63b8ff" d="M332.85,-109.98C345.45,-101.84 364.68,-89.41 379.62,-79.76"/>
<polygon fill="#63b8ff" stroke="#63b8ff" points="381.77,-82.54 388.27,-74.17 377.97,-76.66 381.77,-82.54"/>
</a>
</g>
</g>
<!-- Node15 -->
<g id="Node000015" class="node">
<title>Node15</title>
<g id="a_Node000015"><a xlink:title=" ">
<polygon fill="#e0e0e0" stroke="#999999" points="266.18,-74 215.18,-74 215.18,-55 266.18,-55 266.18,-74"/>
<text text-anchor="middle" x="240.68" y="-62" font-family="Helvetica,sans-Serif" font-size="10.00">unistd.h</text>
</a>
</g>
</g>
<!-- Node7&#45;&gt;Node15 -->
<g id="edge18_Node000007_Node000015" class="edge">
<title>Node7&#45;&gt;Node15</title>
<g id="a_edge18_Node000007_Node000015"><a xlink:title=" ">
<path fill="none" stroke="#63b8ff" d="M306.99,-109.98C294.85,-101.84 276.32,-89.41 261.93,-79.76"/>
<polygon fill="#63b8ff" stroke="#63b8ff" points="263.86,-76.84 253.6,-74.17 259.96,-82.65 263.86,-76.84"/>
</a>
</g>
</g>
<!-- Node17&#45;&gt;Node3 -->
<g id="edge24_Node000017_Node000003" class="edge">
<title>Node17&#45;&gt;Node3</title>
<g id="a_edge24_Node000017_Node000003"><a xlink:title=" ">
<path fill="none" stroke="#63b8ff" d="M170.53,-164.99C170.79,-151.17 173.47,-123.98 189.68,-110 232.01,-73.48 383.72,-84.27 438.68,-74 438.9,-73.96 439.12,-73.92 439.34,-73.88"/>
<polygon fill="#63b8ff" stroke="#63b8ff" points="440.36,-77.24 449.46,-71.8 438.96,-70.38 440.36,-77.24"/>
</a>
</g>
</g>
<!-- Node17&#45;&gt;Node4 -->
<g id="edge28_Node000017_Node000004" class="edge">
<title>Node17&#45;&gt;Node4</title>
<g id="a_edge28_Node000017_Node000004"><a xlink:title=" ">
<path fill="none" stroke="#63b8ff" d="M216.87,-166.43C294.48,-154.59 455.97,-130.05 592.68,-110 704.62,-93.58 732.75,-90.49 844.68,-74 847.15,-73.64 849.68,-73.26 852.23,-72.88"/>
<polygon fill="#63b8ff" stroke="#63b8ff" points="852.76,-76.34 862.13,-71.4 851.72,-69.42 852.76,-76.34"/>
</a>
</g>
</g>
<!-- Node17&#45;&gt;Node7 -->
<g id="edge29_Node000017_Node000007" class="edge">
<title>Node17&#45;&gt;Node7</title>
<g id="a_edge29_Node000017_Node000007"><a xlink:title=" ">
<path fill="none" stroke="#63b8ff" d="M194.62,-164.98C219.24,-156.23 257.8,-142.51 285.6,-132.62"/>
<polygon fill="#63b8ff" stroke="#63b8ff" points="287.06,-135.82 295.31,-129.17 284.71,-129.22 287.06,-135.82"/>
</a>
</g>
</g>
<!-- Node17&#45;&gt;Node8 -->
<g id="edge22_Node000017_Node000008" class="edge">
<title>Node17&#45;&gt;Node8</title>
<g id="a_edge22_Node000017_Node000008"><a xlink:title=" ">
<path fill="none" stroke="#63b8ff" d="M124.29,-167.41C80.42,-160.59 19.21,-147.94 4.68,-129 -6.25,-114.75 5.04,-95.57 16.38,-82.02"/>
<polygon fill="#63b8ff" stroke="#63b8ff" points="19.15,-84.18 23.25,-74.42 13.95,-79.49 19.15,-84.18"/>
</a>
</g>
</g>
<!-- Node17&#45;&gt;Node12 -->
<g id="edge26_Node000017_Node000012" class="edge">
<title>Node17&#45;&gt;Node12</title>
<g id="a_edge26_Node000017_Node000012"><a xlink:title=" ">
<path fill="none" stroke="#63b8ff" d="M124.42,-166.64C83.1,-159.46 27.09,-146.74 13.68,-129 -12.11,-94.88 57.93,-77.42 102.32,-70.01"/>
<polygon fill="#63b8ff" stroke="#63b8ff" points="103.1,-73.43 112.43,-68.42 102.01,-66.51 103.1,-73.43"/>
</a>
</g>
</g>
<!-- Node17&#45;&gt;Node16 -->
<g id="edge25_Node000017_Node000016" class="edge">
<title>Node17&#45;&gt;Node16</title>
<g id="a_edge25_Node000017_Node000016"><a xlink:title=" ">
<path fill="none" stroke="#63b8ff" d="M179.43,-164.75C187.15,-157.03 198.58,-145.6 207.9,-136.28"/>
<polygon fill="#63b8ff" stroke="#63b8ff" points="210.49,-138.64 215.09,-129.09 205.55,-133.69 210.49,-138.64"/>
</a>
</g>
</g>
<!-- Node18 -->
<g id="Node000018" class="node">
<title>Node18</title>
<g id="a_Node000018"><a xlink:title=" ">
<polygon fill="#e0e0e0" stroke="#999999" points="74.68,-129 22.68,-129 22.68,-110 74.68,-110 74.68,-129"/>
<text text-anchor="middle" x="48.68" y="-117" font-family="Helvetica,sans-Serif" font-size="10.00">stdarg.h</text>
</a>
</g>
</g>
<!-- Node17&#45;&gt;Node18 -->
<g id="edge23_Node000017_Node000018" class="edge">
<title>Node17&#45;&gt;Node18</title>
<g id="a_edge23_Node000017_Node000018"><a xlink:title=" ">
<path fill="none" stroke="#63b8ff" d="M151.08,-164.98C131.36,-156.42 100.73,-143.11 78.1,-133.28"/>
<polygon fill="#63b8ff" stroke="#63b8ff" points="79.2,-129.94 68.64,-129.17 76.42,-136.37 79.2,-129.94"/>
</a>
</g>
</g>
<!-- Node19 -->
<g id="Node000019" class="node">
<title>Node19</title>
<g id="a_Node000019"><a xlink:title=" ">
<polygon fill="#e0e0e0" stroke="#999999" points="142.18,-129 93.18,-129 93.18,-110 142.18,-110 142.18,-129"/>
<text text-anchor="middle" x="117.68" y="-117" font-family="Helvetica,sans-Serif" font-size="10.00">string.h</text>
</a>
</g>
</g>
<!-- Node17&#45;&gt;Node19 -->
<g id="edge27_Node000017_Node000019" class="edge">
<title>Node17&#45;&gt;Node19</title>
<g id="a_edge27_Node000017_Node000019"><a xlink:title=" ">
<path fill="none" stroke="#63b8ff" d="M161.93,-164.75C154.21,-157.03 142.78,-145.6 133.46,-136.28"/>
<polygon fill="#63b8ff" stroke="#63b8ff" points="135.82,-133.69 126.27,-129.09 130.87,-138.64 135.82,-133.69"/>
</a>
</g>
</g>
<!-- Node20&#45;&gt;Node4 -->
<g id="edge31_Node000020_Node000004" class="edge">
<title>Node20&#45;&gt;Node4</title>
<g id="a_edge31_Node000020_Node000004"><a xlink:title=" ">
<path fill="none" stroke="#63b8ff" d="M784.89,-225.75C934.6,-216 1415.65,-180.83 1459.68,-129 1465.15,-122.56 1465.41,-116.2 1459.68,-110 1425.39,-72.88 1079.02,-66.7 949.34,-65.69"/>
<polygon fill="#63b8ff" stroke="#63b8ff" points="949.32,-62.19 939.29,-65.62 949.27,-69.19 949.32,-62.19"/>
</a>
</g>
</g>
<!-- Node20&#45;&gt;Node7 -->
<g id="edge32_Node000020_Node000007" class="edge">
<title>Node20&#45;&gt;Node7</title>
<g id="a_edge32_Node000020_Node000007"><a xlink:title=" ">
<path fill="none" stroke="#63b8ff" d="M696.36,-227.11C593.16,-223.43 343.63,-211.72 318.68,-184 307.86,-171.98 309.77,-152.9 313.37,-138.79"/>
<polygon fill="#63b8ff" stroke="#63b8ff" points="316.73,-139.75 316.27,-129.17 310.03,-137.73 316.73,-139.75"/>
</a>
</g>
</g>
<!-- Node20&#45;&gt;Node21 -->
<g id="edge33_Node000020_Node000021" class="edge">
<title>Node20&#45;&gt;Node21</title>
<g id="a_edge33_Node000020_Node000021"><a xlink:title=" ">
<path fill="none" stroke="#63b8ff" d="M724.13,-219.98C707.79,-211.57 682.55,-198.59 663.55,-188.81"/>
<polygon fill="#63b8ff" stroke="#63b8ff" points="665.02,-185.63 654.53,-184.17 661.82,-191.86 665.02,-185.63"/>
</a>
</g>
</g>
<!-- Node23 -->
<g id="Node000023" class="node">
<title>Node23</title>
<g id="a_Node000023"><a xlink:href="SocketCommon_8h.html" target="_top" xlink:title=" ">
<polygon fill="white" stroke="#666666" points="1114.68,-184 986.68,-184 986.68,-165 1114.68,-165 1114.68,-184"/>
<text text-anchor="middle" x="1050.68" y="-172" font-family="Helvetica,sans-Serif" font-size="10.00">socket/SocketCommon.h</text>
</a>
</g>
</g>
<!-- Node20&#45;&gt;Node23 -->
<g id="edge38_Node000020_Node000023" class="edge">
<title>Node20&#45;&gt;Node23</title>
<g id="a_edge38_Node000020_Node000023"><a xlink:title=" ">
<path fill="none" stroke="#63b8ff" d="M784.77,-220.96C838.73,-211.74 930.36,-196.07 990.7,-185.75"/>
<polygon fill="#63b8ff" stroke="#63b8ff" points="991.58,-189.16 1000.85,-184.02 990.4,-182.26 991.58,-189.16"/>
</a>
</g>
</g>
<!-- Node21&#45;&gt;Node3 -->
<g id="edge36_Node000021_Node000003" class="edge">
<title>Node21&#45;&gt;Node3</title>
<g id="a_edge36_Node000021_Node000003"><a xlink:title=" ">
<path fill="none" stroke="#63b8ff" d="M624.7,-164.84C596.85,-146.28 531.16,-102.49 497.06,-79.75"/>
<polygon fill="#63b8ff" stroke="#63b8ff" points="498.99,-76.83 488.73,-74.2 495.1,-82.66 498.99,-76.83"/>
</a>
</g>
</g>
<!-- Node21&#45;&gt;Node4 -->
<g id="edge34_Node000021_Node000004" class="edge">
<title>Node21&#45;&gt;Node4</title>
<g id="a_edge34_Node000021_Node000004"><a xlink:title=" ">
<path fill="none" stroke="#63b8ff" d="M668.88,-164.97C697.18,-156.88 739.84,-143.77 775.68,-129 785.61,-124.91 841.31,-96.25 874.92,-78.86"/>
<polygon fill="#63b8ff" stroke="#63b8ff" points="876.89,-81.78 884.16,-74.08 873.67,-75.57 876.89,-81.78"/>
</a>
</g>
</g>
<!-- Node21&#45;&gt;Node13 -->
<g id="edge37_Node000021_Node000013" class="edge">
<title>Node21&#45;&gt;Node13</title>
<g id="a_edge37_Node000021_Node000013"><a xlink:title=" ">
<path fill="none" stroke="#63b8ff" d="M636.94,-164.66C635.49,-147.17 632.21,-107.8 630.24,-84.27"/>
<polygon fill="#63b8ff" stroke="#63b8ff" points="633.72,-83.83 629.4,-74.16 626.74,-84.41 633.72,-83.83"/>
</a>
</g>
</g>
<!-- Node22 -->
<g id="Node000022" class="node">
<title>Node22</title>
<g id="a_Node000022"><a xlink:title=" ">
<polygon fill="#e0e0e0" stroke="#999999" points="872.18,-129 823.18,-129 823.18,-110 872.18,-110 872.18,-129"/>
<text text-anchor="middle" x="847.68" y="-117" font-family="Helvetica,sans-Serif" font-size="10.00">netdb.h</text>
</a>
</g>
</g>
<!-- Node21&#45;&gt;Node22 -->
<g id="edge35_Node000021_Node000022" class="edge">
<title>Node21&#45;&gt;Node22</title>
<g id="a_edge35_Node000021_Node000022"><a xlink:title=" ">
<path fill="none" stroke="#63b8ff" d="M671.42,-164.98C710.27,-155.18 773.75,-139.16 813,-129.25"/>
<polygon fill="#63b8ff" stroke="#63b8ff" points="814.06,-132.59 822.9,-126.75 812.35,-125.81 814.06,-132.59"/>
</a>
</g>
</g>
<!-- Node23&#45;&gt;Node2 -->
<g id="edge48_Node000023_Node000002" class="edge">
<title>Node23&#45;&gt;Node2</title>
<g id="a_edge48_Node000023_Node000002"><a xlink:title=" ">
<path fill="none" stroke="#63b8ff" d="M999.27,-164.98C937.93,-154.83 836.29,-137.99 777.2,-128.21"/>
<polygon fill="#63b8ff" stroke="#63b8ff" points="777.48,-124.7 767.04,-126.52 776.33,-131.61 777.48,-124.7"/>
</a>
</g>
</g>
<!-- Node23&#45;&gt;Node4 -->
<g id="edge49_Node000023_Node000004" class="edge">
<title>Node23&#45;&gt;Node4</title>
<g id="a_edge49_Node000023_Node000004"><a xlink:title=" ">
<path fill="none" stroke="#63b8ff" d="M1114.87,-172.8C1190.03,-170.46 1307.84,-161.53 1335.68,-129 1341.17,-122.58 1341.34,-116.27 1335.68,-110 1310.17,-81.75 1057.71,-70.45 949.51,-66.88"/>
<polygon fill="#63b8ff" stroke="#63b8ff" points="949.6,-63.39 939.5,-66.56 949.38,-70.38 949.6,-63.39"/>
</a>
</g>
</g>
<!-- Node23&#45;&gt;Node7 -->
<g id="edge50_Node000023_Node000007" class="edge">
<title>Node23&#45;&gt;Node7</title>
<g id="a_edge50_Node000023_Node000007"><a xlink:title=" ">
<path fill="none" stroke="#63b8ff" d="M986.45,-168.84C847.61,-158.78 520.93,-135.09 382.96,-125.09"/>
<polygon fill="#63b8ff" stroke="#63b8ff" points="383.18,-121.6 372.96,-124.36 382.68,-128.58 383.18,-121.6"/>
</a>
</g>
</g>
<!-- Node23&#45;&gt;Node9 -->
<g id="edge41_Node000023_Node000009" class="edge">
<title>Node23&#45;&gt;Node9</title>
<g id="a_edge41_Node000023_Node000009"><a xlink:title=" ">
<path fill="none" stroke="#63b8ff" d="M1056.83,-164.59C1065.26,-151.17 1077.93,-125.7 1064.68,-110 1034,-73.65 900.4,-82.95 853.68,-74 851.18,-73.52 848.59,-73.01 846,-72.48"/>
<polygon fill="#63b8ff" stroke="#63b8ff" points="846.58,-69.03 836.07,-70.43 845.15,-75.88 846.58,-69.03"/>
</a>
</g>
</g>
<!-- Node23&#45;&gt;Node10 -->
<g id="edge43_Node000023_Node000010" class="edge">
<title>Node23&#45;&gt;Node10</title>
<g id="a_edge43_Node000023_Node000010"><a xlink:title=" ">
<path fill="none" stroke="#63b8ff" d="M1050.11,-164.94C1048.69,-151.04 1043.75,-123.75 1026.68,-110 1026.37,-109.75 850.6,-83.96 767.39,-71.76"/>
<polygon fill="#63b8ff" stroke="#63b8ff" points="767.65,-68.26 757.25,-70.27 766.63,-75.18 767.65,-68.26"/>
</a>
</g>
</g>
<!-- Node23&#45;&gt;Node13 -->
<g id="edge44_Node000023_Node000013" class="edge">
<title>Node23&#45;&gt;Node13</title>
<g id="a_edge44_Node000023_Node000013"><a xlink:title=" ">
<path fill="none" stroke="#63b8ff" d="M1045.71,-164.69C1037.15,-150.45 1018.15,-122.66 993.68,-110 870.49,-46.26 821.13,-92.6 683.68,-74 680.99,-73.64 678.23,-73.25 675.44,-72.85"/>
<polygon fill="#63b8ff" stroke="#63b8ff" points="675.74,-69.36 665.34,-71.36 674.72,-76.28 675.74,-69.36"/>
</a>
</g>
</g>
<!-- Node23&#45;&gt;Node22 -->
<g id="edge42_Node000023_Node000022" class="edge">
<title>Node23&#45;&gt;Node22</title>
<g id="a_edge42_Node000023_Node000022"><a xlink:title=" ">
<path fill="none" stroke="#63b8ff" d="M1018.06,-164.98C980.88,-155.28 920.33,-139.47 882.32,-129.54"/>
<polygon fill="#63b8ff" stroke="#63b8ff" points="882.79,-126.05 872.23,-126.91 881.03,-132.82 882.79,-126.05"/>
</a>
</g>
</g>
<!-- Node24 -->
<g id="Node000024" class="node">
<title>Node24</title>
<g id="a_Node000024"><a xlink:title=" ">
<polygon fill="#e0e0e0" stroke="#999999" points="984.68,-129 928.68,-129 928.68,-110 984.68,-110 984.68,-129"/>
<text text-anchor="middle" x="956.68" y="-117" font-family="Helvetica,sans-Serif" font-size="10.00">stdbool.h</text>
</a>
</g>
</g>
<!-- Node23&#45;&gt;Node24 -->
<g id="edge39_Node000023_Node000024" class="edge">
<title>Node23&#45;&gt;Node24</title>
<g id="a_edge39_Node000023_Node000024"><a xlink:title=" ">
<path fill="none" stroke="#63b8ff" d="M1035.58,-164.98C1020.86,-156.69 998.26,-143.94 981.01,-134.22"/>
<polygon fill="#63b8ff" stroke="#63b8ff" points="982.49,-131.03 972.06,-129.17 979.05,-137.13 982.49,-131.03"/>
</a>
</g>
</g>
<!-- Node25 -->
<g id="Node000025" class="node">
<title>Node25</title>
<g id="a_Node000025"><a xlink:title=" ">
<polygon fill="#e0e0e0" stroke="#999999" points="1174.18,-129 1117.18,-129 1117.18,-110 1174.18,-110 1174.18,-129"/>
<text text-anchor="middle" x="1145.68" y="-117" font-family="Helvetica,sans-Serif" font-size="10.00">pthread.h</text>
</a>
</g>
</g>
<!-- Node23&#45;&gt;Node25 -->
<g id="edge40_Node000023_Node000025" class="edge">
<title>Node23&#45;&gt;Node25</title>
<g id="a_edge40_Node000023_Node000025"><a xlink:title=" ">
<path fill="none" stroke="#63b8ff" d="M1065.94,-164.98C1080.81,-156.69 1103.66,-143.94 1121.1,-134.22"/>
<polygon fill="#63b8ff" stroke="#63b8ff" points="1123.11,-137.1 1130.14,-129.17 1119.7,-130.99 1123.11,-137.1"/>
</a>
</g>
</g>
<!-- Node26 -->
<g id="Node000026" class="node">
<title>Node26</title>
<g id="a_Node000026"><a xlink:title=" ">
<polygon fill="#e0e0e0" stroke="#999999" points="1254.68,-129 1192.68,-129 1192.68,-110 1254.68,-110 1254.68,-129"/>
<text text-anchor="middle" x="1223.68" y="-117" font-family="Helvetica,sans-Serif" font-size="10.00">sys/time.h</text>
</a>
</g>
</g>
<!-- Node23&#45;&gt;Node26 -->
<g id="edge45_Node000023_Node000026" class="edge">
<title>Node23&#45;&gt;Node26</title>
<g id="a_edge45_Node000023_Node000026"><a xlink:title=" ">
<path fill="none" stroke="#63b8ff" d="M1078.48,-164.98C1107.65,-156.05 1153.68,-141.94 1186.08,-132.02"/>
<polygon fill="#63b8ff" stroke="#63b8ff" points="1187.13,-135.36 1195.67,-129.08 1185.08,-128.66 1187.13,-135.36"/>
</a>
</g>
</g>
<!-- Node27 -->
<g id="Node000027" class="node">
<title>Node27</title>
<g id="a_Node000027"><a xlink:title=" ">
<polygon fill="#e0e0e0" stroke="#999999" points="1450.68,-129 1382.68,-129 1382.68,-110 1450.68,-110 1450.68,-129"/>
<text text-anchor="middle" x="1416.68" y="-117" font-family="Helvetica,sans-Serif" font-size="10.00">sys/types.h</text>
</a>
</g>
</g>
<!-- Node23&#45;&gt;Node27 -->
<g id="edge46_Node000023_Node000027" class="edge">
<title>Node23&#45;&gt;Node27</title>
<g id="a_edge46_Node000023_Node000027"><a xlink:title=" ">
<path fill="none" stroke="#63b8ff" d="M1114.74,-165.23C1179.03,-156.77 1280.86,-142.92 1368.68,-129 1369.95,-128.8 1371.24,-128.59 1372.54,-128.38"/>
<polygon fill="#63b8ff" stroke="#63b8ff" points="1373.33,-131.8 1382.62,-126.69 1372.18,-124.89 1373.33,-131.8"/>
</a>
</g>
</g>
<!-- Node28 -->
<g id="Node000028" class="node">
<title>Node28</title>
<g id="a_Node000028"><a xlink:title=" ">
<polygon fill="#e0e0e0" stroke="#999999" points="1326.68,-129 1272.68,-129 1272.68,-110 1326.68,-110 1326.68,-129"/>
<text text-anchor="middle" x="1299.68" y="-117" font-family="Helvetica,sans-Serif" font-size="10.00">sys/un.h</text>
</a>
</g>
</g>
<!-- Node23&#45;&gt;Node28 -->
<g id="edge47_Node000023_Node000028" class="edge">
<title>Node23&#45;&gt;Node28</title>
<g id="a_edge47_Node000023_Node000028"><a xlink:title=" ">
<path fill="none" stroke="#63b8ff" d="M1093.18,-164.96C1134.12,-156.65 1198.05,-143.49 1262.62,-129.19"/>
<polygon fill="#63b8ff" stroke="#63b8ff" points="1263.57,-132.57 1272.57,-126.98 1262.05,-125.73 1263.57,-132.57"/>
</a>
</g>
</g>
<!-- Node29&#45;&gt;Node2 -->
<g id="edge52_Node000029_Node000002" class="edge">
<title>Node29&#45;&gt;Node2</title>
<g id="a_edge52_Node000029_Node000002"><a xlink:title=" ">
<path fill="none" stroke="#63b8ff" d="M751.55,-164.75C748.17,-157.57 743.26,-147.18 739.06,-138.27"/>
<polygon fill="#63b8ff" stroke="#63b8ff" points="742.16,-136.64 734.73,-129.09 735.83,-139.63 742.16,-136.64"/>
</a>
</g>
</g>
<!-- Node29&#45;&gt;Node3 -->
<g id="edge53_Node000029_Node000003" class="edge">
<title>Node29&#45;&gt;Node3</title>
<g id="a_edge53_Node000029_Node000003"><a xlink:title=" ">
<path fill="none" stroke="#63b8ff" d="M733.24,-164.84C683.66,-145.72 564.66,-99.82 507.45,-77.75"/>
<polygon fill="#63b8ff" stroke="#63b8ff" points="508.43,-74.38 497.84,-74.05 505.91,-80.91 508.43,-74.38"/>
</a>
</g>
</g>
<!-- Node29&#45;&gt;Node4 -->
<g id="edge55_Node000029_Node000004" class="edge">
<title>Node29&#45;&gt;Node4</title>
<g id="a_edge55_Node000029_Node000004"><a xlink:title=" ">
<path fill="none" stroke="#63b8ff" d="M807.38,-166.46C832.87,-160.47 862.24,-149.41 881.68,-129 893.2,-116.9 897.77,-98.1 899.56,-84.09"/>
<polygon fill="#63b8ff" stroke="#63b8ff" points="903.05,-84.38 900.48,-74.11 896.08,-83.74 903.05,-84.38"/>
</a>
</g>
</g>
<!-- Node29&#45;&gt;Node24 -->
<g id="edge54_Node000029_Node000024" class="edge">
<title>Node29&#45;&gt;Node24</title>
<g id="a_edge54_Node000029_Node000024"><a xlink:title=" ">
<path fill="none" stroke="#63b8ff" d="M787.97,-164.98C823.48,-155.62 880.48,-140.59 918.25,-130.63"/>
<polygon fill="#63b8ff" stroke="#63b8ff" points="919.59,-133.9 928.36,-127.97 917.8,-127.13 919.59,-133.9"/>
</a>
</g>
</g>
<!-- Node30&#45;&gt;Node3 -->
<g id="edge59_Node000030_Node000003" class="edge">
<title>Node30&#45;&gt;Node3</title>
<g id="a_edge59_Node000030_Node000003"><a xlink:title=" ">
<path fill="none" stroke="#63b8ff" d="M749.24,-274.97C711.89,-260.11 635.64,-226.92 580.68,-184 541.68,-153.55 505.61,-107.33 487.64,-82.58"/>
<polygon fill="#63b8ff" stroke="#63b8ff" points="490.32,-80.32 481.66,-74.22 484.63,-84.39 490.32,-80.32"/>
</a>
</g>
</g>
<!-- Node30&#45;&gt;Node4 -->
<g id="edge57_Node000030_Node000004" class="edge">
<title>Node30&#45;&gt;Node4</title>
<g id="a_edge57_Node000030_Node000004"><a xlink:title=" ">
<path fill="none" stroke="#63b8ff" d="M839.27,-279.68C1000.78,-268.95 1401.28,-232.22 1475.68,-129 1480.62,-122.15 1481.42,-116.2 1475.68,-110 1440.29,-71.77 1082.44,-66.29 949.8,-65.58"/>
<polygon fill="#63b8ff" stroke="#63b8ff" points="949.54,-62.07 939.53,-65.53 949.51,-69.07 949.54,-62.07"/>
</a>
</g>
</g>
<!-- Node30&#45;&gt;Node20 -->
<g id="edge58_Node000030_Node000020" class="edge">
<title>Node30&#45;&gt;Node20</title>
<g id="a_edge58_Node000030_Node000020"><a xlink:title=" ">
<path fill="none" stroke="#63b8ff" d="M766.56,-274.75C762.32,-267.49 756.15,-256.95 750.91,-247.98"/>
<polygon fill="#63b8ff" stroke="#63b8ff" points="753.77,-245.95 745.7,-239.09 747.73,-249.49 753.77,-245.95"/>
</a>
</g>
</g>
<!-- Node30&#45;&gt;Node27 -->
<g id="edge60_Node000030_Node000027" class="edge">
<title>Node30&#45;&gt;Node27</title>
<g id="a_edge60_Node000030_Node000027"><a xlink:title=" ">
<path fill="none" stroke="#63b8ff" d="M805.45,-274.97C913.63,-247.63 1251.56,-162.23 1372.82,-131.58"/>
<polygon fill="#63b8ff" stroke="#63b8ff" points="1374.02,-134.89 1382.86,-129.05 1372.3,-128.1 1374.02,-134.89"/>
</a>
</g>
</g>
</g>
</svg>
