<?xml version="1.0" encoding="UTF-8" standalone="no"?>
<!DOCTYPE svg PUBLIC "-//W3C//DTD SVG 1.1//EN"
 "http://www.w3.org/Graphics/SVG/1.1/DTD/svg11.dtd">
<!-- Generated by graphviz version 2.43.0 (0)
 -->
<!-- Title: SocketPoll&#45;private.h Pages: 1 -->
<svg width="1624pt" height="412pt"
 viewBox="0.00 0.00 1623.50 412.00" xmlns="http://www.w3.org/2000/svg" xmlns:xlink="http://www.w3.org/1999/xlink">
<g id="graph0" class="graph" transform="scale(1 1) rotate(0) translate(4 408)">
<title>SocketPoll&#45;private.h</title>
<!-- Node1 -->
<g id="Node000001" class="node">
<title>Node1</title>
<g id="a_Node000001"><a xlink:title=" ">
<polygon fill="#999999" stroke="#666666" points="489.5,-404 385.5,-404 385.5,-385 489.5,-385 489.5,-404"/>
<text text-anchor="middle" x="437.5" y="-392" font-family="Helvetica,sans-Serif" font-size="10.00">SocketPoll&#45;private.h</text>
</a>
</g>
</g>
<!-- Node2 -->
<g id="Node000002" class="node">
<title>Node2</title>
<g id="a_Node000002"><a xlink:title=" ">
<polygon fill="#e0e0e0" stroke="#999999" points="57,-129 0,-129 0,-110 57,-110 57,-129"/>
<text text-anchor="middle" x="28.5" y="-117" font-family="Helvetica,sans-Serif" font-size="10.00">pthread.h</text>
</a>
</g>
</g>
<!-- Node1&#45;&gt;Node2 -->
<g id="edge1_Node000001_Node000002" class="edge">
<title>Node1&#45;&gt;Node2</title>
<g id="a_edge1_Node000001_Node000002"><a xlink:title=" ">
<path fill="none" stroke="#63b8ff" d="M385.33,-391.09C272.42,-384.45 15.5,-361.03 15.5,-285.5 15.5,-285.5 15.5,-285.5 15.5,-228.5 15.5,-196.96 21.03,-160.62 24.88,-139.15"/>
<polygon fill="#63b8ff" stroke="#63b8ff" points="28.35,-139.61 26.75,-129.14 21.47,-138.33 28.35,-139.61"/>
</a>
</g>
</g>
<!-- Node3 -->
<g id="Node000003" class="node">
<title>Node3</title>
<g id="a_Node000003"><a xlink:href="Arena_8h.html" target="_top" xlink:title="Arena&#45;based memory allocator for efficient bulk memory management.">
<polygon fill="white" stroke="#666666" points="1035.5,-129 963.5,-129 963.5,-110 1035.5,-110 1035.5,-129"/>
<text text-anchor="middle" x="999.5" y="-117" font-family="Helvetica,sans-Serif" font-size="10.00">core/Arena.h</text>
</a>
</g>
</g>
<!-- Node1&#45;&gt;Node3 -->
<g id="edge2_Node000001_Node000003" class="edge">
<title>Node1&#45;&gt;Node3</title>
<g id="a_edge2_Node000001_Node000003"><a xlink:title=" ">
<path fill="none" stroke="#63b8ff" d="M489.58,-393.88C623.69,-393.47 970.5,-382.98 970.5,-285.5 970.5,-285.5 970.5,-285.5 970.5,-228.5 970.5,-195.95 982.94,-159.71 991.53,-138.57"/>
<polygon fill="#63b8ff" stroke="#63b8ff" points="994.8,-139.82 995.47,-129.25 988.35,-137.09 994.8,-139.82"/>
</a>
</g>
</g>
<!-- Node7 -->
<g id="Node000007" class="node">
<title>Node7</title>
<g id="a_Node000007"><a xlink:href="SocketConfig_8h.html" target="_top" xlink:title="Compile&#45;time and runtime configuration constants, limits, and platform adaptations.">
<polygon fill="white" stroke="#666666" points="1235.5,-129 1129.5,-129 1129.5,-110 1235.5,-110 1235.5,-129"/>
<text text-anchor="middle" x="1182.5" y="-117" font-family="Helvetica,sans-Serif" font-size="10.00">core/SocketConfig.h</text>
</a>
</g>
</g>
<!-- Node1&#45;&gt;Node7 -->
<g id="edge6_Node000001_Node000007" class="edge">
<title>Node1&#45;&gt;Node7</title>
<g id="a_edge6_Node000001_Node000007"><a xlink:title=" ">
<path fill="none" stroke="#63b8ff" d="M489.74,-394.28C581.04,-394.45 774.96,-389.43 932.5,-349 1000.64,-331.51 1077.5,-355.85 1077.5,-285.5 1077.5,-285.5 1077.5,-285.5 1077.5,-228.5 1077.5,-184.18 1123.51,-151.21 1154.62,-133.99"/>
<polygon fill="#63b8ff" stroke="#63b8ff" points="1156.54,-136.93 1163.73,-129.15 1153.25,-130.75 1156.54,-136.93"/>
</a>
</g>
</g>
<!-- Node16 -->
<g id="Node000016" class="node">
<title>Node16</title>
<g id="a_Node000016"><a xlink:href="SocketTimer-private_8h.html" target="_top" xlink:title="Internal implementation details for the high&#45;performance SocketTimer module.">
<polygon fill="white" stroke="#666666" points="177.5,-184 43.5,-184 43.5,-165 177.5,-165 177.5,-184"/>
<text text-anchor="middle" x="110.5" y="-172" font-family="Helvetica,sans-Serif" font-size="10.00">core/SocketTimer&#45;private.h</text>
</a>
</g>
</g>
<!-- Node1&#45;&gt;Node16 -->
<g id="edge16_Node000001_Node000016" class="edge">
<title>Node1&#45;&gt;Node16</title>
<g id="a_edge16_Node000001_Node000016"><a xlink:title=" ">
<path fill="none" stroke="#63b8ff" d="M386.74,-384.95C329.87,-373.11 237.64,-346.92 176.5,-294 144.72,-266.49 125.17,-219.73 116.25,-193.94"/>
<polygon fill="#63b8ff" stroke="#63b8ff" points="119.52,-192.69 113.07,-184.29 112.87,-194.88 119.52,-192.69"/>
</a>
</g>
</g>
<!-- Node19 -->
<g id="Node000019" class="node">
<title>Node19</title>
<g id="a_Node000019"><a xlink:href="SocketUtil_8h.html" target="_top" xlink:title="Consolidated utility header for logging, metrics, events, and error handling.">
<polygon fill="white" stroke="#666666" points="1328.5,-184 1236.5,-184 1236.5,-165 1328.5,-165 1328.5,-184"/>
<text text-anchor="middle" x="1282.5" y="-172" font-family="Helvetica,sans-Serif" font-size="10.00">core/SocketUtil.h</text>
</a>
</g>
</g>
<!-- Node1&#45;&gt;Node19 -->
<g id="edge23_Node000001_Node000019" class="edge">
<title>Node1&#45;&gt;Node19</title>
<g id="a_edge23_Node000001_Node000019"><a xlink:title=" ">
<path fill="none" stroke="#63b8ff" d="M489.75,-391.92C635.03,-387.23 1036.76,-372.32 1091.5,-349 1173.57,-314.04 1243.53,-228.5 1270.56,-192.21"/>
<polygon fill="#63b8ff" stroke="#63b8ff" points="1273.41,-194.24 1276.49,-184.11 1267.76,-190.11 1273.41,-194.24"/>
</a>
</g>
</g>
<!-- Node24 -->
<g id="Node000024" class="node">
<title>Node24</title>
<g id="a_Node000024"><a xlink:href="SocketPoll_8h.html" target="_top" xlink:title="Cross&#45;platform high&#45;level interface for monitoring multiple sockets for I/O events.">
<polygon fill="white" stroke="#666666" points="409.5,-294 319.5,-294 319.5,-275 409.5,-275 409.5,-294"/>
<text text-anchor="middle" x="364.5" y="-282" font-family="Helvetica,sans-Serif" font-size="10.00">poll/SocketPoll.h</text>
</a>
</g>
</g>
<!-- Node1&#45;&gt;Node24 -->
<g id="edge35_Node000001_Node000024" class="edge">
<title>Node1&#45;&gt;Node24</title>
<g id="a_edge35_Node000001_Node000024"><a xlink:title=" ">
<path fill="none" stroke="#63b8ff" d="M431.53,-384.66C419.44,-366.77 391.88,-326 376.12,-302.69"/>
<polygon fill="#63b8ff" stroke="#63b8ff" points="378.85,-300.48 370.35,-294.16 373.05,-304.4 378.85,-300.48"/>
</a>
</g>
</g>
<!-- Node25 -->
<g id="Node000025" class="node">
<title>Node25</title>
<g id="a_Node000025"><a xlink:href="Socket_8h.html" target="_top" xlink:title="High&#45;level TCP/IP and Unix domain socket interface.">
<polygon fill="white" stroke="#666666" points="480.5,-239 392.5,-239 392.5,-220 480.5,-220 480.5,-239"/>
<text text-anchor="middle" x="436.5" y="-227" font-family="Helvetica,sans-Serif" font-size="10.00">socket/Socket.h</text>
</a>
</g>
</g>
<!-- Node1&#45;&gt;Node25 -->
<g id="edge64_Node000001_Node000025" class="edge">
<title>Node1&#45;&gt;Node25</title>
<g id="a_edge64_Node000001_Node000025"><a xlink:title=" ">
<path fill="none" stroke="#63b8ff" d="M437.45,-384.74C437.29,-359.31 436.83,-285.08 436.62,-249.69"/>
<polygon fill="#63b8ff" stroke="#63b8ff" points="440.12,-249.29 436.55,-239.31 433.12,-249.33 440.12,-249.29"/>
</a>
</g>
</g>
<!-- Node33 -->
<g id="Node000033" class="node">
<title>Node33</title>
<g id="a_Node000033"><a xlink:href="SocketPoll__backend_8h.html" target="_top" xlink:title="Defines internal backend abstraction for cross&#45;platform polling.">
<polygon fill="white" stroke="#666666" points="597.5,-349 465.5,-349 465.5,-330 597.5,-330 597.5,-349"/>
<text text-anchor="middle" x="531.5" y="-337" font-family="Helvetica,sans-Serif" font-size="10.00">poll/SocketPoll_backend.h</text>
</a>
</g>
</g>
<!-- Node1&#45;&gt;Node33 -->
<g id="edge60_Node000001_Node000033" class="edge">
<title>Node1&#45;&gt;Node33</title>
<g id="a_edge60_Node000001_Node000033"><a xlink:title=" ">
<path fill="none" stroke="#63b8ff" d="M452.6,-384.98C467.32,-376.69 489.92,-363.94 507.17,-354.22"/>
<polygon fill="#63b8ff" stroke="#63b8ff" points="509.13,-357.13 516.12,-349.17 505.69,-351.03 509.13,-357.13"/>
</a>
</g>
</g>
<!-- Node34 -->
<g id="Node000034" class="node">
<title>Node34</title>
<g id="a_Node000034"><a xlink:href="SocketAsync_8h.html" target="_top" xlink:title="Platform&#45;optimized asynchronous I/O for high&#45;performance networking.">
<polygon fill="white" stroke="#666666" points="301.5,-294 185.5,-294 185.5,-275 301.5,-275 301.5,-294"/>
<text text-anchor="middle" x="243.5" y="-282" font-family="Helvetica,sans-Serif" font-size="10.00">socket/SocketAsync.h</text>
</a>
</g>
</g>
<!-- Node1&#45;&gt;Node34 -->
<g id="edge65_Node000001_Node000034" class="edge">
<title>Node1&#45;&gt;Node34</title>
<g id="a_edge65_Node000001_Node000034"><a xlink:title=" ">
<path fill="none" stroke="#63b8ff" d="M421.95,-384.84C388.24,-366.08 308.2,-321.52 267.77,-299.01"/>
<polygon fill="#63b8ff" stroke="#63b8ff" points="269.29,-295.85 258.85,-294.05 265.89,-301.97 269.29,-295.85"/>
</a>
</g>
</g>
<!-- Node4 -->
<g id="Node000004" class="node">
<title>Node4</title>
<g id="a_Node000004"><a xlink:title=" ">
<polygon fill="#e0e0e0" stroke="#999999" points="1043.5,-74 991.5,-74 991.5,-55 1043.5,-55 1043.5,-74"/>
<text text-anchor="middle" x="1017.5" y="-62" font-family="Helvetica,sans-Serif" font-size="10.00">stddef.h</text>
</a>
</g>
</g>
<!-- Node3&#45;&gt;Node4 -->
<g id="edge3_Node000003_Node000004" class="edge">
<title>Node3&#45;&gt;Node4</title>
<g id="a_edge3_Node000003_Node000004"><a xlink:title=" ">
<path fill="none" stroke="#63b8ff" d="M1002.47,-109.75C1004.86,-102.72 1008.29,-92.62 1011.27,-83.84"/>
<polygon fill="#63b8ff" stroke="#63b8ff" points="1014.68,-84.68 1014.58,-74.09 1008.05,-82.43 1014.68,-84.68"/>
</a>
</g>
</g>
<!-- Node5 -->
<g id="Node000005" class="node">
<title>Node5</title>
<g id="a_Node000005"><a xlink:href="Except_8h.html" target="_top" xlink:title="Structured exception handling for C with TRY/EXCEPT/FINALLY blocks.">
<polygon fill="white" stroke="#666666" points="377,-74 300,-74 300,-55 377,-55 377,-74"/>
<text text-anchor="middle" x="338.5" y="-62" font-family="Helvetica,sans-Serif" font-size="10.00">core/Except.h</text>
</a>
</g>
</g>
<!-- Node3&#45;&gt;Node5 -->
<g id="edge4_Node000003_Node000005" class="edge">
<title>Node3&#45;&gt;Node5</title>
<g id="a_edge4_Node000003_Node000005"><a xlink:title=" ">
<path fill="none" stroke="#63b8ff" d="M963.49,-115.61C852.26,-106.69 513.98,-79.57 387.18,-69.4"/>
<polygon fill="#63b8ff" stroke="#63b8ff" points="387.25,-65.9 377,-68.59 386.69,-72.88 387.25,-65.9"/>
</a>
</g>
</g>
<!-- Node6 -->
<g id="Node000006" class="node">
<title>Node6</title>
<g id="a_Node000006"><a xlink:title=" ">
<polygon fill="#e0e0e0" stroke="#999999" points="365.5,-19 311.5,-19 311.5,0 365.5,0 365.5,-19"/>
<text text-anchor="middle" x="338.5" y="-7" font-family="Helvetica,sans-Serif" font-size="10.00">setjmp.h</text>
</a>
</g>
</g>
<!-- Node5&#45;&gt;Node6 -->
<g id="edge5_Node000005_Node000006" class="edge">
<title>Node5&#45;&gt;Node6</title>
<g id="a_edge5_Node000005_Node000006"><a xlink:title=" ">
<path fill="none" stroke="#63b8ff" d="M338.5,-54.75C338.5,-47.8 338.5,-37.85 338.5,-29.13"/>
<polygon fill="#63b8ff" stroke="#63b8ff" points="342,-29.09 338.5,-19.09 335,-29.09 342,-29.09"/>
</a>
</g>
</g>
<!-- Node7&#45;&gt;Node4 -->
<g id="edge11_Node000007_Node000004" class="edge">
<title>Node7&#45;&gt;Node4</title>
<g id="a_edge11_Node000007_Node000004"><a xlink:title=" ">
<path fill="none" stroke="#63b8ff" d="M1155.99,-109.98C1128.12,-101.03 1084.12,-86.9 1053.21,-76.97"/>
<polygon fill="#63b8ff" stroke="#63b8ff" points="1054.26,-73.63 1043.67,-73.91 1052.12,-80.3 1054.26,-73.63"/>
</a>
</g>
</g>
<!-- Node8 -->
<g id="Node000008" class="node">
<title>Node8</title>
<g id="a_Node000008"><a xlink:title=" ">
<polygon fill="#e0e0e0" stroke="#999999" points="1342,-74 1295,-74 1295,-55 1342,-55 1342,-74"/>
<text text-anchor="middle" x="1318.5" y="-62" font-family="Helvetica,sans-Serif" font-size="10.00">errno.h</text>
</a>
</g>
</g>
<!-- Node7&#45;&gt;Node8 -->
<g id="edge7_Node000007_Node000008" class="edge">
<title>Node7&#45;&gt;Node8</title>
<g id="a_edge7_Node000007_Node000008"><a xlink:title=" ">
<path fill="none" stroke="#63b8ff" d="M1204.35,-109.98C1226.62,-101.3 1261.4,-87.75 1286.72,-77.88"/>
<polygon fill="#63b8ff" stroke="#63b8ff" points="1288.21,-81.06 1296.25,-74.17 1285.66,-74.54 1288.21,-81.06"/>
</a>
</g>
</g>
<!-- Node9 -->
<g id="Node000009" class="node">
<title>Node9</title>
<g id="a_Node000009"><a xlink:title=" ">
<polygon fill="#e0e0e0" stroke="#999999" points="973.5,-74 929.5,-74 929.5,-55 973.5,-55 973.5,-74"/>
<text text-anchor="middle" x="951.5" y="-62" font-family="Helvetica,sans-Serif" font-size="10.00">fcntl.h</text>
</a>
</g>
</g>
<!-- Node7&#45;&gt;Node9 -->
<g id="edge8_Node000007_Node000009" class="edge">
<title>Node7&#45;&gt;Node9</title>
<g id="a_edge8_Node000007_Node000009"><a xlink:title=" ">
<path fill="none" stroke="#63b8ff" d="M1141.38,-109.96C1102.99,-101.85 1043.87,-89.02 983.85,-74.24"/>
<polygon fill="#63b8ff" stroke="#63b8ff" points="984.37,-70.77 973.82,-71.76 982.68,-77.56 984.37,-70.77"/>
</a>
</g>
</g>
<!-- Node10 -->
<g id="Node000010" class="node">
<title>Node10</title>
<g id="a_Node000010"><a xlink:title=" ">
<polygon fill="#e0e0e0" stroke="#999999" points="911,-74 846,-74 846,-55 911,-55 911,-74"/>
<text text-anchor="middle" x="878.5" y="-62" font-family="Helvetica,sans-Serif" font-size="10.00">netinet/in.h</text>
</a>
</g>
</g>
<!-- Node7&#45;&gt;Node10 -->
<g id="edge9_Node000007_Node000010" class="edge">
<title>Node7&#45;&gt;Node10</title>
<g id="a_edge9_Node000007_Node000010"><a xlink:title=" ">
<path fill="none" stroke="#63b8ff" d="M1129.22,-109.95C1078.4,-101.69 999.43,-88.55 921.09,-74.06"/>
<polygon fill="#63b8ff" stroke="#63b8ff" points="921.51,-70.58 911.04,-72.19 920.23,-77.46 921.51,-70.58"/>
</a>
</g>
</g>
<!-- Node11 -->
<g id="Node000011" class="node">
<title>Node11</title>
<g id="a_Node000011"><a xlink:title=" ">
<polygon fill="#e0e0e0" stroke="#999999" points="1202,-74 1131,-74 1131,-55 1202,-55 1202,-74"/>
<text text-anchor="middle" x="1166.5" y="-62" font-family="Helvetica,sans-Serif" font-size="10.00">netinet/tcp.h</text>
</a>
</g>
</g>
<!-- Node7&#45;&gt;Node11 -->
<g id="edge10_Node000007_Node000011" class="edge">
<title>Node7&#45;&gt;Node11</title>
<g id="a_edge10_Node000007_Node000011"><a xlink:title=" ">
<path fill="none" stroke="#63b8ff" d="M1179.86,-109.75C1177.74,-102.72 1174.69,-92.62 1172.04,-83.84"/>
<polygon fill="#63b8ff" stroke="#63b8ff" points="1175.33,-82.65 1169.09,-74.09 1168.63,-84.67 1175.33,-82.65"/>
</a>
</g>
</g>
<!-- Node12 -->
<g id="Node000012" class="node">
<title>Node12</title>
<g id="a_Node000012"><a xlink:title=" ">
<polygon fill="#e0e0e0" stroke="#999999" points="1406.5,-74 1360.5,-74 1360.5,-55 1406.5,-55 1406.5,-74"/>
<text text-anchor="middle" x="1383.5" y="-62" font-family="Helvetica,sans-Serif" font-size="10.00">stdio.h</text>
</a>
</g>
</g>
<!-- Node7&#45;&gt;Node12 -->
<g id="edge12_Node000007_Node000012" class="edge">
<title>Node7&#45;&gt;Node12</title>
<g id="a_edge12_Node000007_Node000012"><a xlink:title=" ">
<path fill="none" stroke="#63b8ff" d="M1214.9,-109.99C1246.93,-101.57 1297.6,-88.25 1350.53,-74.25"/>
<polygon fill="#63b8ff" stroke="#63b8ff" points="1351.66,-77.57 1360.43,-71.63 1349.87,-70.81 1351.66,-77.57"/>
</a>
</g>
</g>
<!-- Node13 -->
<g id="Node000013" class="node">
<title>Node13</title>
<g id="a_Node000013"><a xlink:title=" ">
<polygon fill="#e0e0e0" stroke="#999999" points="828,-74 755,-74 755,-55 828,-55 828,-74"/>
<text text-anchor="middle" x="791.5" y="-62" font-family="Helvetica,sans-Serif" font-size="10.00">sys/socket.h</text>
</a>
</g>
</g>
<!-- Node7&#45;&gt;Node13 -->
<g id="edge13_Node000007_Node000013" class="edge">
<title>Node7&#45;&gt;Node13</title>
<g id="a_edge13_Node000007_Node000013"><a xlink:title=" ">
<path fill="none" stroke="#63b8ff" d="M1129.46,-111.74C1044.67,-100.91 884.15,-80.38 838.2,-73.93"/>
<polygon fill="#63b8ff" stroke="#63b8ff" points="838.53,-70.44 828.13,-72.45 837.51,-77.37 838.53,-70.44"/>
</a>
</g>
</g>
<!-- Node14 -->
<g id="Node000014" class="node">
<title>Node14</title>
<g id="a_Node000014"><a xlink:title=" ">
<polygon fill="#e0e0e0" stroke="#999999" points="1276.5,-74 1220.5,-74 1220.5,-55 1276.5,-55 1276.5,-74"/>
<text text-anchor="middle" x="1248.5" y="-62" font-family="Helvetica,sans-Serif" font-size="10.00">sys/uio.h</text>
</a>
</g>
</g>
<!-- Node7&#45;&gt;Node14 -->
<g id="edge14_Node000007_Node000014" class="edge">
<title>Node7&#45;&gt;Node14</title>
<g id="a_edge14_Node000007_Node000014"><a xlink:title=" ">
<path fill="none" stroke="#63b8ff" d="M1193.1,-109.98C1202.96,-102.07 1217.85,-90.11 1229.72,-80.58"/>
<polygon fill="#63b8ff" stroke="#63b8ff" points="1232.1,-83.16 1237.7,-74.17 1227.71,-77.7 1232.1,-83.16"/>
</a>
</g>
</g>
<!-- Node15 -->
<g id="Node000015" class="node">
<title>Node15</title>
<g id="a_Node000015"><a xlink:title=" ">
<polygon fill="#e0e0e0" stroke="#999999" points="1113,-74 1062,-74 1062,-55 1113,-55 1113,-74"/>
<text text-anchor="middle" x="1087.5" y="-62" font-family="Helvetica,sans-Serif" font-size="10.00">unistd.h</text>
</a>
</g>
</g>
<!-- Node7&#45;&gt;Node15 -->
<g id="edge15_Node000007_Node000015" class="edge">
<title>Node7&#45;&gt;Node15</title>
<g id="a_edge15_Node000007_Node000015"><a xlink:title=" ">
<path fill="none" stroke="#63b8ff" d="M1167.24,-109.98C1152.37,-101.69 1129.52,-88.94 1112.08,-79.22"/>
<polygon fill="#63b8ff" stroke="#63b8ff" points="1113.48,-75.99 1103.04,-74.17 1110.07,-82.1 1113.48,-75.99"/>
</a>
</g>
</g>
<!-- Node16&#45;&gt;Node2 -->
<g id="edge21_Node000016_Node000002" class="edge">
<title>Node16&#45;&gt;Node2</title>
<g id="a_edge21_Node000016_Node000002"><a xlink:title=" ">
<path fill="none" stroke="#63b8ff" d="M97.33,-164.98C84.73,-156.84 65.5,-144.41 50.56,-134.76"/>
<polygon fill="#63b8ff" stroke="#63b8ff" points="52.21,-131.66 41.91,-129.17 48.41,-137.54 52.21,-131.66"/>
</a>
</g>
</g>
<!-- Node16&#45;&gt;Node3 -->
<g id="edge17_Node000016_Node000003" class="edge">
<title>Node16&#45;&gt;Node3</title>
<g id="a_edge17_Node000016_Node000003"><a xlink:title=" ">
<path fill="none" stroke="#63b8ff" d="M177.68,-169.49C350.31,-159.2 806.11,-132.03 953.1,-123.27"/>
<polygon fill="#63b8ff" stroke="#63b8ff" points="953.37,-126.76 963.14,-122.67 952.95,-119.77 953.37,-126.76"/>
</a>
</g>
</g>
<!-- Node17 -->
<g id="Node000017" class="node">
<title>Node17</title>
<g id="a_Node000017"><a xlink:href="SocketTimer_8h.html" target="_top" xlink:title="High&#45;performance timer subsystem integrated with the event loop.">
<polygon fill="white" stroke="#666666" points="215,-129 114,-129 114,-110 215,-110 215,-129"/>
<text text-anchor="middle" x="164.5" y="-117" font-family="Helvetica,sans-Serif" font-size="10.00">core/SocketTimer.h</text>
</a>
</g>
</g>
<!-- Node16&#45;&gt;Node17 -->
<g id="edge18_Node000016_Node000017" class="edge">
<title>Node16&#45;&gt;Node17</title>
<g id="a_edge18_Node000016_Node000017"><a xlink:title=" ">
<path fill="none" stroke="#63b8ff" d="M119.42,-164.75C127.28,-157.03 138.93,-145.6 148.42,-136.28"/>
<polygon fill="#63b8ff" stroke="#63b8ff" points="151.06,-138.59 155.75,-129.09 146.16,-133.6 151.06,-138.59"/>
</a>
</g>
</g>
<!-- Node18 -->
<g id="Node000018" class="node">
<title>Node18</title>
<g id="a_Node000018"><a xlink:title=" ">
<polygon fill="#e0e0e0" stroke="#999999" points="245,-74 196,-74 196,-55 245,-55 245,-74"/>
<text text-anchor="middle" x="220.5" y="-62" font-family="Helvetica,sans-Serif" font-size="10.00">stdint.h</text>
</a>
</g>
</g>
<!-- Node16&#45;&gt;Node18 -->
<g id="edge22_Node000016_Node000018" class="edge">
<title>Node16&#45;&gt;Node18</title>
<g id="a_edge22_Node000016_Node000018"><a xlink:title=" ">
<path fill="none" stroke="#63b8ff" d="M106.42,-164.81C100.93,-151.7 93.08,-126.61 104.5,-110 122.51,-83.79 158.25,-73.01 185.33,-68.58"/>
<polygon fill="#63b8ff" stroke="#63b8ff" points="186.17,-72 195.59,-67.13 185.2,-65.07 186.17,-72"/>
</a>
</g>
</g>
<!-- Node17&#45;&gt;Node5 -->
<g id="edge19_Node000017_Node000005" class="edge">
<title>Node17&#45;&gt;Node5</title>
<g id="a_edge19_Node000017_Node000005"><a xlink:title=" ">
<path fill="none" stroke="#63b8ff" d="M192.46,-109.98C221.8,-101.05 268.1,-86.94 300.69,-77.02"/>
<polygon fill="#63b8ff" stroke="#63b8ff" points="301.78,-80.34 310.32,-74.08 299.74,-73.65 301.78,-80.34"/>
</a>
</g>
</g>
<!-- Node17&#45;&gt;Node18 -->
<g id="edge20_Node000017_Node000018" class="edge">
<title>Node17&#45;&gt;Node18</title>
<g id="a_edge20_Node000017_Node000018"><a xlink:title=" ">
<path fill="none" stroke="#63b8ff" d="M173.5,-109.98C181.69,-102.23 194.01,-90.58 203.97,-81.14"/>
<polygon fill="#63b8ff" stroke="#63b8ff" points="206.48,-83.59 211.34,-74.17 201.67,-78.5 206.48,-83.59"/>
</a>
</g>
</g>
<!-- Node19&#45;&gt;Node3 -->
<g id="edge32_Node000019_Node000003" class="edge">
<title>Node19&#45;&gt;Node3</title>
<g id="a_edge32_Node000019_Node000003"><a xlink:title=" ">
<path fill="none" stroke="#63b8ff" d="M1237.03,-164.98C1184.59,-155.16 1098.83,-139.1 1045.97,-129.2"/>
<polygon fill="#63b8ff" stroke="#63b8ff" points="1046.33,-125.71 1035.86,-127.31 1045.04,-132.59 1046.33,-125.71"/>
</a>
</g>
</g>
<!-- Node19&#45;&gt;Node4 -->
<g id="edge27_Node000019_Node000004" class="edge">
<title>Node19&#45;&gt;Node4</title>
<g id="a_edge27_Node000019_Node000004"><a xlink:title=" ">
<path fill="none" stroke="#63b8ff" d="M1279.93,-164.92C1275.28,-151 1264.1,-123.67 1244.5,-110 1176.2,-62.38 1140.62,-89.77 1053.8,-73.84"/>
<polygon fill="#63b8ff" stroke="#63b8ff" points="1054.3,-70.37 1043.81,-71.86 1052.94,-77.24 1054.3,-70.37"/>
</a>
</g>
</g>
<!-- Node19&#45;&gt;Node5 -->
<g id="edge33_Node000019_Node000005" class="edge">
<title>Node19&#45;&gt;Node5</title>
<g id="a_edge33_Node000019_Node000005"><a xlink:title=" ">
<path fill="none" stroke="#63b8ff" d="M1245.34,-164.96C1212.19,-156.94 1162.54,-143.97 1120.5,-129 1100.82,-121.99 1097.8,-114.93 1077.5,-110 1043.97,-101.86 546.5,-76.05 387.19,-67.96"/>
<polygon fill="#63b8ff" stroke="#63b8ff" points="387.36,-64.46 377.19,-67.45 387,-71.45 387.36,-64.46"/>
</a>
</g>
</g>
<!-- Node19&#45;&gt;Node7 -->
<g id="edge34_Node000019_Node000007" class="edge">
<title>Node19&#45;&gt;Node7</title>
<g id="a_edge34_Node000019_Node000007"><a xlink:title=" ">
<path fill="none" stroke="#63b8ff" d="M1266.43,-164.98C1250.64,-156.61 1226.28,-143.7 1207.87,-133.95"/>
<polygon fill="#63b8ff" stroke="#63b8ff" points="1209.33,-130.76 1198.86,-129.17 1206.06,-136.95 1209.33,-130.76"/>
</a>
</g>
</g>
<!-- Node19&#45;&gt;Node8 -->
<g id="edge24_Node000019_Node000008" class="edge">
<title>Node19&#45;&gt;Node8</title>
<g id="a_edge24_Node000019_Node000008"><a xlink:title=" ">
<path fill="none" stroke="#63b8ff" d="M1285.45,-164.66C1291.3,-147.09 1304.52,-107.45 1312.35,-83.95"/>
<polygon fill="#63b8ff" stroke="#63b8ff" points="1315.77,-84.75 1315.61,-74.16 1309.13,-82.54 1315.77,-84.75"/>
</a>
</g>
</g>
<!-- Node19&#45;&gt;Node12 -->
<g id="edge29_Node000019_Node000012" class="edge">
<title>Node19&#45;&gt;Node12</title>
<g id="a_edge29_Node000019_Node000012"><a xlink:title=" ">
<path fill="none" stroke="#63b8ff" d="M1290.77,-164.66C1307.79,-146.46 1346.98,-104.55 1368.57,-81.47"/>
<polygon fill="#63b8ff" stroke="#63b8ff" points="1371.13,-83.85 1375.4,-74.16 1366.02,-79.07 1371.13,-83.85"/>
</a>
</g>
</g>
<!-- Node19&#45;&gt;Node18 -->
<g id="edge28_Node000019_Node000018" class="edge">
<title>Node19&#45;&gt;Node18</title>
<g id="a_edge28_Node000019_Node000018"><a xlink:title=" ">
<path fill="none" stroke="#63b8ff" d="M1236.13,-167.61C1193.8,-161.26 1130,-149.25 1077.5,-129 1061.71,-122.91 1060.74,-114.76 1044.5,-110 883.74,-62.89 458.44,-87.97 291.5,-74 279.66,-73.01 266.75,-71.57 255.22,-70.16"/>
<polygon fill="#63b8ff" stroke="#63b8ff" points="255.46,-66.66 245.1,-68.88 254.58,-73.61 255.46,-66.66"/>
</a>
</g>
</g>
<!-- Node20 -->
<g id="Node000020" class="node">
<title>Node20</title>
<g id="a_Node000020"><a xlink:title=" ">
<polygon fill="#e0e0e0" stroke="#999999" points="1415.5,-129 1367.5,-129 1367.5,-110 1415.5,-110 1415.5,-129"/>
<text text-anchor="middle" x="1391.5" y="-117" font-family="Helvetica,sans-Serif" font-size="10.00">limits.h</text>
</a>
</g>
</g>
<!-- Node19&#45;&gt;Node20 -->
<g id="edge25_Node000019_Node000020" class="edge">
<title>Node19&#45;&gt;Node20</title>
<g id="a_edge25_Node000019_Node000020"><a xlink:title=" ">
<path fill="none" stroke="#63b8ff" d="M1300.01,-164.98C1317.47,-156.5 1344.51,-143.35 1364.67,-133.54"/>
<polygon fill="#63b8ff" stroke="#63b8ff" points="1366.21,-136.69 1373.67,-129.17 1363.14,-130.4 1366.21,-136.69"/>
</a>
</g>
</g>
<!-- Node21 -->
<g id="Node000021" class="node">
<title>Node21</title>
<g id="a_Node000021"><a xlink:title=" ">
<polygon fill="#e0e0e0" stroke="#999999" points="1485.5,-129 1433.5,-129 1433.5,-110 1485.5,-110 1485.5,-129"/>
<text text-anchor="middle" x="1459.5" y="-117" font-family="Helvetica,sans-Serif" font-size="10.00">stdarg.h</text>
</a>
</g>
</g>
<!-- Node19&#45;&gt;Node21 -->
<g id="edge26_Node000019_Node000021" class="edge">
<title>Node19&#45;&gt;Node21</title>
<g id="a_edge26_Node000019_Node000021"><a xlink:title=" ">
<path fill="none" stroke="#63b8ff" d="M1310.94,-164.98C1341.58,-155.81 1390.41,-141.19 1423.66,-131.23"/>
<polygon fill="#63b8ff" stroke="#63b8ff" points="1424.86,-134.52 1433.44,-128.3 1422.86,-127.82 1424.86,-134.52"/>
</a>
</g>
</g>
<!-- Node22 -->
<g id="Node000022" class="node">
<title>Node22</title>
<g id="a_Node000022"><a xlink:title=" ">
<polygon fill="#e0e0e0" stroke="#999999" points="1553,-129 1504,-129 1504,-110 1553,-110 1553,-129"/>
<text text-anchor="middle" x="1528.5" y="-117" font-family="Helvetica,sans-Serif" font-size="10.00">string.h</text>
</a>
</g>
</g>
<!-- Node19&#45;&gt;Node22 -->
<g id="edge30_Node000019_Node000022" class="edge">
<title>Node19&#45;&gt;Node22</title>
<g id="a_edge30_Node000019_Node000022"><a xlink:title=" ">
<path fill="none" stroke="#63b8ff" d="M1325.64,-164.94C1366.46,-156.74 1429.67,-143.74 1493.77,-129.1"/>
<polygon fill="#63b8ff" stroke="#63b8ff" points="1494.68,-132.48 1503.64,-126.83 1493.11,-125.66 1494.68,-132.48"/>
</a>
</g>
</g>
<!-- Node23 -->
<g id="Node000023" class="node">
<title>Node23</title>
<g id="a_Node000023"><a xlink:title=" ">
<polygon fill="#e0e0e0" stroke="#999999" points="1615.5,-129 1571.5,-129 1571.5,-110 1615.5,-110 1615.5,-129"/>
<text text-anchor="middle" x="1593.5" y="-117" font-family="Helvetica,sans-Serif" font-size="10.00">time.h</text>
</a>
</g>
</g>
<!-- Node19&#45;&gt;Node23 -->
<g id="edge31_Node000019_Node000023" class="edge">
<title>Node19&#45;&gt;Node23</title>
<g id="a_edge31_Node000019_Node000023"><a xlink:title=" ">
<path fill="none" stroke="#63b8ff" d="M1328.87,-167.72C1382.63,-160.67 1474.04,-147.59 1561.41,-129.03"/>
<polygon fill="#63b8ff" stroke="#63b8ff" points="1562.18,-132.45 1571.22,-126.92 1560.71,-125.61 1562.18,-132.45"/>
</a>
</g>
</g>
<!-- Node24&#45;&gt;Node5 -->
<g id="edge36_Node000024_Node000005" class="edge">
<title>Node24&#45;&gt;Node5</title>
<g id="a_edge36_Node000024_Node000005"><a xlink:title=" ">
<path fill="none" stroke="#63b8ff" d="M363.02,-274.82C359.07,-251.37 348.22,-184.79 342.5,-129 340.96,-114.02 339.93,-97 339.3,-84.35"/>
<polygon fill="#63b8ff" stroke="#63b8ff" points="342.79,-83.97 338.83,-74.15 335.79,-84.3 342.79,-83.97"/>
</a>
</g>
</g>
<!-- Node24&#45;&gt;Node17 -->
<g id="edge37_Node000024_Node000017" class="edge">
<title>Node24&#45;&gt;Node17</title>
<g id="a_edge37_Node000024_Node000017"><a xlink:title=" ">
<path fill="none" stroke="#63b8ff" d="M338.16,-274.89C317.66,-267.41 289.15,-255.21 267.5,-239 228.03,-209.45 192.91,-162.49 175.7,-137.48"/>
<polygon fill="#63b8ff" stroke="#63b8ff" points="178.51,-135.39 170.01,-129.06 172.71,-139.3 178.51,-135.39"/>
</a>
</g>
</g>
<!-- Node24&#45;&gt;Node25 -->
<g id="edge38_Node000024_Node000025" class="edge">
<title>Node24&#45;&gt;Node25</title>
<g id="a_edge38_Node000024_Node000025"><a xlink:title=" ">
<path fill="none" stroke="#63b8ff" d="M376.07,-274.98C386.92,-267 403.38,-254.88 416.38,-245.31"/>
<polygon fill="#63b8ff" stroke="#63b8ff" points="418.74,-247.92 424.72,-239.17 414.59,-242.28 418.74,-247.92"/>
</a>
</g>
</g>
<!-- Node25&#45;&gt;Node5 -->
<g id="edge39_Node000025_Node000005" class="edge">
<title>Node25&#45;&gt;Node5</title>
<g id="a_edge39_Node000025_Node000005"><a xlink:title=" ">
<path fill="none" stroke="#63b8ff" d="M426.88,-219.95C409.46,-203.9 372.71,-167.43 353.5,-129 346.45,-114.89 342.63,-97.35 340.61,-84.28"/>
<polygon fill="#63b8ff" stroke="#63b8ff" points="344.05,-83.6 339.27,-74.14 337.11,-84.52 344.05,-83.6"/>
</a>
</g>
</g>
<!-- Node25&#45;&gt;Node7 -->
<g id="edge40_Node000025_Node000007" class="edge">
<title>Node25&#45;&gt;Node7</title>
<g id="a_edge40_Node000025_Node000007"><a xlink:title=" ">
<path fill="none" stroke="#63b8ff" d="M480.54,-224.09C551.15,-216.85 694.01,-201.47 814.5,-184 925.95,-167.84 1055.59,-144.37 1127.42,-130.96"/>
<polygon fill="#63b8ff" stroke="#63b8ff" points="1128.4,-134.33 1137.59,-129.05 1127.11,-127.45 1128.4,-134.33"/>
</a>
</g>
</g>
<!-- Node26 -->
<g id="Node000026" class="node">
<title>Node26</title>
<g id="a_Node000026"><a xlink:href="SocketDNS_8h.html" target="_top" xlink:title="Asynchronous DNS resolution API for non&#45;blocking network applications.">
<polygon fill="white" stroke="#666666" points="481.5,-129 385.5,-129 385.5,-110 481.5,-110 481.5,-129"/>
<text text-anchor="middle" x="433.5" y="-117" font-family="Helvetica,sans-Serif" font-size="10.00">dns/SocketDNS.h</text>
</a>
</g>
</g>
<!-- Node25&#45;&gt;Node26 -->
<g id="edge41_Node000025_Node000026" class="edge">
<title>Node25&#45;&gt;Node26</title>
<g id="a_edge41_Node000025_Node000026"><a xlink:title=" ">
<path fill="none" stroke="#63b8ff" d="M436.25,-219.66C435.77,-202.17 434.68,-162.8 434.02,-139.27"/>
<polygon fill="#63b8ff" stroke="#63b8ff" points="437.52,-139.06 433.74,-129.16 430.52,-139.25 437.52,-139.06"/>
</a>
</g>
</g>
<!-- Node28 -->
<g id="Node000028" class="node">
<title>Node28</title>
<g id="a_Node000028"><a xlink:href="SocketCommon_8h.html" target="_top" xlink:title="Common utilities shared between Socket and SocketDgram modules.">
<polygon fill="white" stroke="#666666" points="805.5,-184 677.5,-184 677.5,-165 805.5,-165 805.5,-184"/>
<text text-anchor="middle" x="741.5" y="-172" font-family="Helvetica,sans-Serif" font-size="10.00">socket/SocketCommon.h</text>
</a>
</g>
</g>
<!-- Node25&#45;&gt;Node28 -->
<g id="edge47_Node000025_Node000028" class="edge">
<title>Node25&#45;&gt;Node28</title>
<g id="a_edge47_Node000025_Node000028"><a xlink:title=" ">
<path fill="none" stroke="#63b8ff" d="M480.52,-220.85C533.7,-211.61 623.37,-196.03 682.5,-185.75"/>
<polygon fill="#63b8ff" stroke="#63b8ff" points="683.18,-189.19 692.44,-184.03 681.99,-182.29 683.18,-189.19"/>
</a>
</g>
</g>
<!-- Node26&#45;&gt;Node4 -->
<g id="edge44_Node000026_Node000004" class="edge">
<title>Node26&#45;&gt;Node4</title>
<g id="a_edge44_Node000026_Node000004"><a xlink:title=" ">
<path fill="none" stroke="#63b8ff" d="M481.67,-111.06C484.65,-110.68 487.62,-110.32 490.5,-110 705.11,-86.18 764.12,-107.33 981.1,-73.95"/>
<polygon fill="#63b8ff" stroke="#63b8ff" points="981.88,-77.37 991.22,-72.38 980.8,-70.46 981.88,-77.37"/>
</a>
</g>
</g>
<!-- Node26&#45;&gt;Node5 -->
<g id="edge42_Node000026_Node000005" class="edge">
<title>Node26&#45;&gt;Node5</title>
<g id="a_edge42_Node000026_Node000005"><a xlink:title=" ">
<path fill="none" stroke="#63b8ff" d="M418.24,-109.98C403.37,-101.69 380.52,-88.94 363.08,-79.22"/>
<polygon fill="#63b8ff" stroke="#63b8ff" points="364.48,-75.99 354.04,-74.17 361.07,-82.1 364.48,-75.99"/>
</a>
</g>
</g>
<!-- Node26&#45;&gt;Node13 -->
<g id="edge46_Node000026_Node000013" class="edge">
<title>Node26&#45;&gt;Node13</title>
<g id="a_edge46_Node000026_Node000013"><a xlink:title=" ">
<path fill="none" stroke="#63b8ff" d="M481.7,-111.31C484.68,-110.86 487.63,-110.43 490.5,-110 580.46,-96.64 685.55,-81.13 744.74,-72.39"/>
<polygon fill="#63b8ff" stroke="#63b8ff" points="745.51,-75.82 754.89,-70.9 744.49,-68.89 745.51,-75.82"/>
</a>
</g>
</g>
<!-- Node26&#45;&gt;Node18 -->
<g id="edge45_Node000026_Node000018" class="edge">
<title>Node26&#45;&gt;Node18</title>
<g id="a_edge45_Node000026_Node000018"><a xlink:title=" ">
<path fill="none" stroke="#63b8ff" d="M399.28,-109.98C359.58,-100.11 294.5,-83.91 254.77,-74.03"/>
<polygon fill="#63b8ff" stroke="#63b8ff" points="255.56,-70.62 245.01,-71.6 253.87,-77.41 255.56,-70.62"/>
</a>
</g>
</g>
<!-- Node27 -->
<g id="Node000027" class="node">
<title>Node27</title>
<g id="a_Node000027"><a xlink:title=" ">
<polygon fill="#e0e0e0" stroke="#999999" points="589,-74 540,-74 540,-55 589,-55 589,-74"/>
<text text-anchor="middle" x="564.5" y="-62" font-family="Helvetica,sans-Serif" font-size="10.00">netdb.h</text>
</a>
</g>
</g>
<!-- Node26&#45;&gt;Node27 -->
<g id="edge43_Node000026_Node000027" class="edge">
<title>Node26&#45;&gt;Node27</title>
<g id="a_edge43_Node000026_Node000027"><a xlink:title=" ">
<path fill="none" stroke="#63b8ff" d="M454.55,-109.98C475.91,-101.34 509.2,-87.87 533.56,-78.02"/>
<polygon fill="#63b8ff" stroke="#63b8ff" points="535.11,-81.17 543.07,-74.17 532.49,-74.68 535.11,-81.17"/>
</a>
</g>
</g>
<!-- Node28&#45;&gt;Node2 -->
<g id="edge48_Node000028_Node000002" class="edge">
<title>Node28&#45;&gt;Node2</title>
<g id="a_edge48_Node000028_Node000002"><a xlink:title=" ">
<path fill="none" stroke="#63b8ff" d="M677.23,-169.9C562.24,-163.25 313.72,-148 104.5,-129 92.43,-127.9 79.31,-126.51 67.42,-125.17"/>
<polygon fill="#63b8ff" stroke="#63b8ff" points="67.68,-121.67 57.34,-124.01 66.88,-128.63 67.68,-121.67"/>
</a>
</g>
</g>
<!-- Node28&#45;&gt;Node3 -->
<g id="edge57_Node000028_Node000003" class="edge">
<title>Node28&#45;&gt;Node3</title>
<g id="a_edge57_Node000028_Node000003"><a xlink:title=" ">
<path fill="none" stroke="#63b8ff" d="M782.95,-164.98C829.5,-155.42 904.83,-139.95 953.25,-130"/>
<polygon fill="#63b8ff" stroke="#63b8ff" points="954.06,-133.41 963.15,-127.97 952.65,-126.55 954.06,-133.41"/>
</a>
</g>
</g>
<!-- Node28&#45;&gt;Node5 -->
<g id="edge58_Node000028_Node000005" class="edge">
<title>Node28&#45;&gt;Node5</title>
<g id="a_edge58_Node000028_Node000005"><a xlink:title=" ">
<path fill="none" stroke="#63b8ff" d="M677.21,-172.35C586,-169.62 424.74,-160.36 376.5,-129 360.38,-118.52 350.12,-98.59 344.38,-83.84"/>
<polygon fill="#63b8ff" stroke="#63b8ff" points="347.61,-82.49 340.98,-74.23 341.01,-84.82 347.61,-82.49"/>
</a>
</g>
</g>
<!-- Node28&#45;&gt;Node7 -->
<g id="edge59_Node000028_Node000007" class="edge">
<title>Node28&#45;&gt;Node7</title>
<g id="a_edge59_Node000028_Node000007"><a xlink:title=" ">
<path fill="none" stroke="#63b8ff" d="M805.63,-165.79C889.56,-155.71 1035.77,-138.13 1119.26,-128.1"/>
<polygon fill="#63b8ff" stroke="#63b8ff" points="1119.86,-131.55 1129.37,-126.89 1119.02,-124.6 1119.86,-131.55"/>
</a>
</g>
</g>
<!-- Node28&#45;&gt;Node9 -->
<g id="edge50_Node000028_Node000009" class="edge">
<title>Node28&#45;&gt;Node9</title>
<g id="a_edge50_Node000028_Node000009"><a xlink:title=" ">
<path fill="none" stroke="#63b8ff" d="M779.46,-164.96C807.19,-157.78 845.09,-145.94 875.5,-129 898.82,-116.01 921.81,-95.42 936.29,-81.23"/>
<polygon fill="#63b8ff" stroke="#63b8ff" points="938.82,-83.64 943.4,-74.09 933.87,-78.7 938.82,-83.64"/>
</a>
</g>
</g>
<!-- Node28&#45;&gt;Node10 -->
<g id="edge52_Node000028_Node000010" class="edge">
<title>Node28&#45;&gt;Node10</title>
<g id="a_edge52_Node000028_Node000010"><a xlink:title=" ">
<path fill="none" stroke="#63b8ff" d="M787.63,-164.94C810.66,-158.53 837.4,-147.55 855.5,-129 867.39,-116.82 873.19,-98.03 875.98,-84.04"/>
<polygon fill="#63b8ff" stroke="#63b8ff" points="879.45,-84.52 877.64,-74.08 872.55,-83.37 879.45,-84.52"/>
</a>
</g>
</g>
<!-- Node28&#45;&gt;Node13 -->
<g id="edge53_Node000028_Node000013" class="edge">
<title>Node28&#45;&gt;Node13</title>
<g id="a_edge53_Node000028_Node000013"><a xlink:title=" ">
<path fill="none" stroke="#63b8ff" d="M786.26,-164.92C806.45,-158.58 828.42,-147.67 840.5,-129 851.94,-111.32 832.76,-92.36 815.14,-79.81"/>
<polygon fill="#63b8ff" stroke="#63b8ff" points="817.02,-76.86 806.76,-74.2 813.12,-82.67 817.02,-76.86"/>
</a>
</g>
</g>
<!-- Node28&#45;&gt;Node27 -->
<g id="edge51_Node000028_Node000027" class="edge">
<title>Node28&#45;&gt;Node27</title>
<g id="a_edge51_Node000028_Node000027"><a xlink:title=" ">
<path fill="none" stroke="#63b8ff" d="M741.42,-164.78C740.8,-151.16 737.59,-124.85 722.5,-110 689.64,-77.67 635.22,-68.43 599.61,-66.01"/>
<polygon fill="#63b8ff" stroke="#63b8ff" points="599.38,-62.49 589.2,-65.46 599.01,-69.48 599.38,-62.49"/>
</a>
</g>
</g>
<!-- Node29 -->
<g id="Node000029" class="node">
<title>Node29</title>
<g id="a_Node000029"><a xlink:title=" ">
<polygon fill="#e0e0e0" stroke="#999999" points="713.5,-129 657.5,-129 657.5,-110 713.5,-110 713.5,-129"/>
<text text-anchor="middle" x="685.5" y="-117" font-family="Helvetica,sans-Serif" font-size="10.00">stdbool.h</text>
</a>
</g>
</g>
<!-- Node28&#45;&gt;Node29 -->
<g id="edge49_Node000028_Node000029" class="edge">
<title>Node28&#45;&gt;Node29</title>
<g id="a_edge49_Node000028_Node000029"><a xlink:title=" ">
<path fill="none" stroke="#63b8ff" d="M732.5,-164.98C724.31,-157.23 711.99,-145.58 702.03,-136.14"/>
<polygon fill="#63b8ff" stroke="#63b8ff" points="704.33,-133.5 694.66,-129.17 699.52,-138.59 704.33,-133.5"/>
</a>
</g>
</g>
<!-- Node30 -->
<g id="Node000030" class="node">
<title>Node30</title>
<g id="a_Node000030"><a xlink:title=" ">
<polygon fill="#e0e0e0" stroke="#999999" points="831.5,-129 769.5,-129 769.5,-110 831.5,-110 831.5,-129"/>
<text text-anchor="middle" x="800.5" y="-117" font-family="Helvetica,sans-Serif" font-size="10.00">sys/time.h</text>
</a>
</g>
</g>
<!-- Node28&#45;&gt;Node30 -->
<g id="edge54_Node000028_Node000030" class="edge">
<title>Node28&#45;&gt;Node30</title>
<g id="a_edge54_Node000028_Node000030"><a xlink:title=" ">
<path fill="none" stroke="#63b8ff" d="M750.98,-164.98C759.7,-157.15 772.84,-145.34 783.4,-135.86"/>
<polygon fill="#63b8ff" stroke="#63b8ff" points="785.75,-138.46 790.85,-129.17 781.07,-133.25 785.75,-138.46"/>
</a>
</g>
</g>
<!-- Node31 -->
<g id="Node000031" class="node">
<title>Node31</title>
<g id="a_Node000031"><a xlink:title=" ">
<polygon fill="#e0e0e0" stroke="#999999" points="567.5,-129 499.5,-129 499.5,-110 567.5,-110 567.5,-129"/>
<text text-anchor="middle" x="533.5" y="-117" font-family="Helvetica,sans-Serif" font-size="10.00">sys/types.h</text>
</a>
</g>
</g>
<!-- Node28&#45;&gt;Node31 -->
<g id="edge55_Node000028_Node000031" class="edge">
<title>Node28&#45;&gt;Node31</title>
<g id="a_edge55_Node000028_Node000031"><a xlink:title=" ">
<path fill="none" stroke="#63b8ff" d="M708.08,-164.98C672.56,-155.93 616.23,-141.58 577.2,-131.64"/>
<polygon fill="#63b8ff" stroke="#63b8ff" points="577.74,-128.16 567.18,-129.08 576.01,-134.94 577.74,-128.16"/>
</a>
</g>
</g>
<!-- Node32 -->
<g id="Node000032" class="node">
<title>Node32</title>
<g id="a_Node000032"><a xlink:title=" ">
<polygon fill="#e0e0e0" stroke="#999999" points="639.5,-129 585.5,-129 585.5,-110 639.5,-110 639.5,-129"/>
<text text-anchor="middle" x="612.5" y="-117" font-family="Helvetica,sans-Serif" font-size="10.00">sys/un.h</text>
</a>
</g>
</g>
<!-- Node28&#45;&gt;Node32 -->
<g id="edge56_Node000028_Node000032" class="edge">
<title>Node28&#45;&gt;Node32</title>
<g id="a_edge56_Node000028_Node000032"><a xlink:title=" ">
<path fill="none" stroke="#63b8ff" d="M720.77,-164.98C699.74,-156.34 666.95,-142.87 642.96,-133.02"/>
<polygon fill="#63b8ff" stroke="#63b8ff" points="644.18,-129.73 633.6,-129.17 641.52,-136.21 644.18,-129.73"/>
</a>
</g>
</g>
<!-- Node33&#45;&gt;Node3 -->
<g id="edge61_Node000033_Node000003" class="edge">
<title>Node33&#45;&gt;Node3</title>
<g id="a_edge61_Node000033_Node000003"><a xlink:title=" ">
<path fill="none" stroke="#63b8ff" d="M549.85,-329.95C621.85,-296.41 885.41,-173.64 971.84,-133.38"/>
<polygon fill="#63b8ff" stroke="#63b8ff" points="973.44,-136.5 981.03,-129.1 970.48,-130.15 973.44,-136.5"/>
</a>
</g>
</g>
<!-- Node33&#45;&gt;Node24 -->
<g id="edge62_Node000033_Node000024" class="edge">
<title>Node33&#45;&gt;Node24</title>
<g id="a_edge62_Node000033_Node000024"><a xlink:title=" ">
<path fill="none" stroke="#63b8ff" d="M504.67,-329.98C476.63,-321.09 432.45,-307.07 401.2,-297.15"/>
<polygon fill="#63b8ff" stroke="#63b8ff" points="402.13,-293.77 391.54,-294.08 400.01,-300.44 402.13,-293.77"/>
</a>
</g>
</g>
<!-- Node33&#45;&gt;Node25 -->
<g id="edge63_Node000033_Node000025" class="edge">
<title>Node33&#45;&gt;Node25</title>
<g id="a_edge63_Node000033_Node000025"><a xlink:title=" ">
<path fill="none" stroke="#63b8ff" d="M523.73,-329.66C507.78,-311.54 471.17,-269.91 450.81,-246.77"/>
<polygon fill="#63b8ff" stroke="#63b8ff" points="453.35,-244.36 444.12,-239.16 448.09,-248.98 453.35,-244.36"/>
</a>
</g>
</g>
<!-- Node34&#45;&gt;Node5 -->
<g id="edge66_Node000034_Node000005" class="edge">
<title>Node34&#45;&gt;Node5</title>
<g id="a_edge66_Node000034_Node000005"><a xlink:title=" ">
<path fill="none" stroke="#63b8ff" d="M247.22,-274.95C261.26,-242.74 311.16,-128.23 330.64,-83.55"/>
<polygon fill="#63b8ff" stroke="#63b8ff" points="333.91,-84.79 334.7,-74.22 327.49,-81.99 333.91,-84.79"/>
</a>
</g>
</g>
<!-- Node34&#45;&gt;Node25 -->
<g id="edge67_Node000034_Node000025" class="edge">
<title>Node34&#45;&gt;Node25</title>
<g id="a_edge67_Node000034_Node000025"><a xlink:title=" ">
<path fill="none" stroke="#63b8ff" d="M274.51,-274.98C307.33,-265.97 359.3,-251.7 395.49,-241.76"/>
<polygon fill="#63b8ff" stroke="#63b8ff" points="396.53,-245.11 405.25,-239.08 394.68,-238.36 396.53,-245.11"/>
</a>
</g>
</g>
</g>
</svg>
