<?xml version="1.0" encoding="UTF-8" standalone="no"?>
<!DOCTYPE svg PUBLIC "-//W3C//DTD SVG 1.1//EN"
 "http://www.w3.org/Graphics/SVG/1.1/DTD/svg11.dtd">
<!-- Generated by graphviz version 2.43.0 (0)
 -->
<!-- Title: SocketHTTPServer.h Pages: 1 -->
<!--zoomable 412 -->

<svg id="main" version="1.1" xmlns="http://www.w3.org/2000/svg" xmlns:xlink="http://www.w3.org/1999/xlink" xml:space="preserve" onload="init(evt)">
<style type="text/css"><![CDATA[
.node, .edge {opacity: 0.7;}
.node.selected, .edge.selected {opacity: 1;}
.edge:hover path { stroke: red; }
.edge:hover polygon { stroke: red; fill: red; }
]]></style>

<defs>
  <circle id="rim" cx="0" cy="0" r="7"/>
  <circle id="rim2" cx="0" cy="0" r="3.5"/>
  <g id="zoomPlus">
    <use xlink:href="#rim" fill="#404040"><set attributeName="fill" to="#808080" begin="zoomplus.mouseover" end="zoomplus.mouseout"/></use>
    <path d="M-4,0h8M0,-4v8" fill="none" stroke="white" stroke-width="1.5" pointer-events="none"/>
  </g>
  <g id="zoomMin">
    <use xlink:href="#rim" fill="#404040"><set attributeName="fill" to="#808080" begin="zoomminus.mouseover" end="zoomminus.mouseout"/></use>
    <path d="M-4,0h8" fill="none" stroke="white" stroke-width="1.5" pointer-events="none"/>
  </g>
  <g id="arrowUp" transform="translate(30 24)">
    <use xlink:href="#rim"/>
    <path pointer-events="none" fill="none" stroke="white" stroke-width="1.5" d="M0,-3.0v7 M-2.5,-0.5L0,-3.0L2.5,-0.5"/>
  </g>
  <g id="arrowRight" transform="rotate(90) translate(36 -43)">
    <use xlink:href="#rim"/>
    <path pointer-events="none" fill="none" stroke="white" stroke-width="1.5" d="M0,-3.0v7 M-2.5,-0.5L0,-3.0L2.5,-0.5"/>
  </g>
  <g id="arrowDown" transform="rotate(180) translate(-30 -48)">
    <use xlink:href="#rim"/>
    <path pointer-events="none" fill="none" stroke="white" stroke-width="1.5" d="M0,-3.0v7 M-2.5,-0.5L0,-3.0L2.5,-0.5"/>
  </g>
  <g id="arrowLeft" transform="rotate(270) translate(-36 17)">
    <use xlink:href="#rim"/>
    <path pointer-events="none" fill="none" stroke="white" stroke-width="1.5" d="M0,-3.0v7 M-2.5,-0.5L0,-3.0L2.5,-0.5"/>
  </g>
  <g id="resetDef">
    <use xlink:href="#rim2" fill="#404040"><set attributeName="fill" to="#808080" begin="reset.mouseover" end="reset.mouseout"/></use>
  </g>
</defs>
<script type="application/ecmascript">
var viewWidth = 1505;
var viewHeight = 412;
var sectionId = 'dynsection-0';
</script>
<script type="application/ecmascript" xlink:href="svg.min.js"/>
<svg id="graph" class="graph">
<g id="viewport">
<title>SocketHTTPServer.h</title>
<!-- Node1 -->
<g id="Node000001" class="node">
<title>Node1</title>
<g id="a_Node000001"><a xlink:title=" ">
<polygon fill="#999999" stroke="#666666" points="301,-404 191,-404 191,-385 301,-385 301,-404"/>
<text text-anchor="middle" x="246" y="-392" font-family="Helvetica,sans-Serif" font-size="10.00">SocketHTTPServer.h</text>
</a>
</g>
</g>
<!-- Node2 -->
<g id="Node000002" class="node">
<title>Node2</title>
<g id="a_Node000002"><a xlink:title=" ">
<polygon fill="#e0e0e0" stroke="#999999" points="198,-74 146,-74 146,-55 198,-55 198,-74"/>
<text text-anchor="middle" x="172" y="-62" font-family="Helvetica,sans-Serif" font-size="10.00">stddef.h</text>
</a>
</g>
</g>
<!-- Node1&#45;&gt;Node2 -->
<g id="edge1_Node000001_Node000002" class="edge">
<title>Node1&#45;&gt;Node2</title>
<g id="a_edge1_Node000001_Node000002"><a xlink:title=" ">
<path fill="none" stroke="#63b8ff" d="M190.79,-392.62C118.26,-388.2 0,-368.29 0,-285.5 0,-285.5 0,-285.5 0,-173.5 0,-109.83 85.56,-82.25 135.99,-71.52"/>
<polygon fill="#63b8ff" stroke="#63b8ff" points="136.76,-74.94 145.88,-69.54 135.38,-68.08 136.76,-74.94"/>
</a>
</g>
</g>
<!-- Node3 -->
<g id="Node000003" class="node">
<title>Node3</title>
<g id="a_Node000003"><a xlink:title=" ">
<polygon fill="#e0e0e0" stroke="#999999" points="419.5,-129 370.5,-129 370.5,-110 419.5,-110 419.5,-129"/>
<text text-anchor="middle" x="395" y="-117" font-family="Helvetica,sans-Serif" font-size="10.00">stdint.h</text>
</a>
</g>
</g>
<!-- Node1&#45;&gt;Node3 -->
<g id="edge2_Node000001_Node000003" class="edge">
<title>Node1&#45;&gt;Node3</title>
<g id="a_edge2_Node000001_Node000003"><a xlink:title=" ">
<path fill="none" stroke="#63b8ff" d="M244.22,-384.94C240.46,-364.68 233.38,-312.68 251,-275 276.45,-220.56 311.41,-229.21 351,-184 363.8,-169.38 376.2,-150.98 384.56,-137.75"/>
<polygon fill="#63b8ff" stroke="#63b8ff" points="387.59,-139.51 389.87,-129.16 381.63,-135.82 387.59,-139.51"/>
</a>
</g>
</g>
<!-- Node4 -->
<g id="Node000004" class="node">
<title>Node4</title>
<g id="a_Node000004"><a xlink:title=" ">
<polygon fill="#e0e0e0" stroke="#999999" points="738,-129 670,-129 670,-110 738,-110 738,-129"/>
<text text-anchor="middle" x="704" y="-117" font-family="Helvetica,sans-Serif" font-size="10.00">sys/types.h</text>
</a>
</g>
</g>
<!-- Node1&#45;&gt;Node4 -->
<g id="edge3_Node000001_Node000004" class="edge">
<title>Node1&#45;&gt;Node4</title>
<g id="a_edge3_Node000001_Node000004"><a xlink:title=" ">
<path fill="none" stroke="#63b8ff" d="M301.05,-391.42C419.73,-385.61 693.28,-364.68 746,-294 764.5,-269.2 728.58,-177.52 711.89,-138.39"/>
<polygon fill="#63b8ff" stroke="#63b8ff" points="715.02,-136.83 707.84,-129.04 708.6,-139.61 715.02,-136.83"/>
</a>
</g>
</g>
<!-- Node5 -->
<g id="Node000005" class="node">
<title>Node5</title>
<g id="a_Node000005"><a xlink:href="Arena_8h.html" target="_top" xlink:title=" ">
<polygon fill="white" stroke="#666666" points="176,-129 104,-129 104,-110 176,-110 176,-129"/>
<text text-anchor="middle" x="140" y="-117" font-family="Helvetica,sans-Serif" font-size="10.00">core/Arena.h</text>
</a>
</g>
</g>
<!-- Node1&#45;&gt;Node5 -->
<g id="edge4_Node000001_Node000005" class="edge">
<title>Node1&#45;&gt;Node5</title>
<g id="a_edge4_Node000001_Node000005"><a xlink:title=" ">
<path fill="none" stroke="#63b8ff" d="M190.81,-388.46C129.18,-379.45 38,-354.47 38,-285.5 38,-285.5 38,-285.5 38,-228.5 38,-184.56 83.18,-151.27 113.4,-133.92"/>
<polygon fill="#63b8ff" stroke="#63b8ff" points="115.16,-136.94 122.23,-129.05 111.79,-130.81 115.16,-136.94"/>
</a>
</g>
</g>
<!-- Node6 -->
<g id="Node000006" class="node">
<title>Node6</title>
<g id="a_Node000006"><a xlink:href="Except_8h.html" target="_top" xlink:title=" ">
<polygon fill="white" stroke="#666666" points="604.5,-74 527.5,-74 527.5,-55 604.5,-55 604.5,-74"/>
<text text-anchor="middle" x="566" y="-62" font-family="Helvetica,sans-Serif" font-size="10.00">core/Except.h</text>
</a>
</g>
</g>
<!-- Node1&#45;&gt;Node6 -->
<g id="edge8_Node000001_Node000006" class="edge">
<title>Node1&#45;&gt;Node6</title>
<g id="a_edge8_Node000001_Node000006"><a xlink:title=" ">
<path fill="none" stroke="#63b8ff" d="M246.96,-384.97C249.64,-364.35 258.72,-310.84 284,-275 320.46,-223.32 482.94,-117.87 543.31,-79.69"/>
<polygon fill="#63b8ff" stroke="#63b8ff" points="545.5,-82.46 552.09,-74.16 541.77,-76.53 545.5,-82.46"/>
</a>
</g>
</g>
<!-- Node8 -->
<g id="Node000008" class="node">
<title>Node8</title>
<g id="a_Node000008"><a xlink:href="SocketRateLimit_8h.html" target="_top" xlink:title=" ">
<polygon fill="white" stroke="#666666" points="223.5,-184 104.5,-184 104.5,-165 223.5,-165 223.5,-184"/>
<text text-anchor="middle" x="164" y="-172" font-family="Helvetica,sans-Serif" font-size="10.00">core/SocketRateLimit.h</text>
</a>
</g>
</g>
<!-- Node1&#45;&gt;Node8 -->
<g id="edge9_Node000001_Node000008" class="edge">
<title>Node1&#45;&gt;Node8</title>
<g id="a_edge9_Node000001_Node000008"><a xlink:title=" ">
<path fill="none" stroke="#63b8ff" d="M234.7,-384.87C224.82,-376.71 210.85,-363.56 203,-349 175.2,-297.47 167.19,-227.08 164.9,-194.04"/>
<polygon fill="#63b8ff" stroke="#63b8ff" points="168.39,-193.79 164.31,-184.01 161.4,-194.2 168.39,-193.79"/>
</a>
</g>
</g>
<!-- Node9 -->
<g id="Node000009" class="node">
<title>Node9</title>
<g id="a_Node000009"><a xlink:href="SocketHTTP_8h.html" target="_top" xlink:title=" ">
<polygon fill="white" stroke="#666666" points="342,-184 242,-184 242,-165 342,-165 342,-184"/>
<text text-anchor="middle" x="292" y="-172" font-family="Helvetica,sans-Serif" font-size="10.00">http/SocketHTTP.h</text>
</a>
</g>
</g>
<!-- Node1&#45;&gt;Node9 -->
<g id="edge14_Node000001_Node000009" class="edge">
<title>Node1&#45;&gt;Node9</title>
<g id="a_edge14_Node000001_Node000009"><a xlink:title=" ">
<path fill="none" stroke="#63b8ff" d="M236.98,-384.96C228.93,-376.66 217.71,-363.25 213,-349 202.68,-317.77 202.17,-306.05 213,-275 225.07,-240.38 254.78,-208.76 274.13,-190.85"/>
<polygon fill="#63b8ff" stroke="#63b8ff" points="276.61,-193.33 281.71,-184.04 271.93,-188.12 276.61,-193.33"/>
</a>
</g>
</g>
<!-- Node11 -->
<g id="Node000011" class="node">
<title>Node11</title>
<g id="a_Node000011"><a xlink:href="SocketPoll_8h.html" target="_top" xlink:title=" ">
<polygon fill="white" stroke="#666666" points="383,-294 293,-294 293,-275 383,-275 383,-294"/>
<text text-anchor="middle" x="338" y="-282" font-family="Helvetica,sans-Serif" font-size="10.00">poll/SocketPoll.h</text>
</a>
</g>
</g>
<!-- Node1&#45;&gt;Node11 -->
<g id="edge21_Node000001_Node000011" class="edge">
<title>Node1&#45;&gt;Node11</title>
<g id="a_edge21_Node000001_Node000011"><a xlink:title=" ">
<path fill="none" stroke="#63b8ff" d="M253.53,-384.66C268.9,-366.61 304.12,-325.28 323.88,-302.08"/>
<polygon fill="#63b8ff" stroke="#63b8ff" points="326.8,-304.04 330.62,-294.16 321.48,-299.5 326.8,-304.04"/>
</a>
</g>
</g>
<!-- Node13 -->
<g id="Node000013" class="node">
<title>Node13</title>
<g id="a_Node000013"><a xlink:href="Socket_8h.html" target="_top" xlink:title=" ">
<polygon fill="white" stroke="#666666" points="847,-239 759,-239 759,-220 847,-220 847,-239"/>
<text text-anchor="middle" x="803" y="-227" font-family="Helvetica,sans-Serif" font-size="10.00">socket/Socket.h</text>
</a>
</g>
</g>
<!-- Node1&#45;&gt;Node13 -->
<g id="edge56_Node000001_Node000013" class="edge">
<title>Node1&#45;&gt;Node13</title>
<g id="a_edge56_Node000001_Node000013"><a xlink:title=" ">
<path fill="none" stroke="#63b8ff" d="M301.03,-392.59C430.05,-389.93 743.84,-380.29 779,-349 807.14,-323.96 807.62,-275.8 805.39,-249.24"/>
<polygon fill="#63b8ff" stroke="#63b8ff" points="808.84,-248.58 804.31,-239.01 801.88,-249.32 808.84,-248.58"/>
</a>
</g>
</g>
<!-- Node30 -->
<g id="Node000030" class="node">
<title>Node30</title>
<g id="a_Node000030"><a xlink:href="SocketTLSContext_8h.html" target="_top" xlink:title=" ">
<polygon fill="white" stroke="#666666" points="552,-349 430,-349 430,-330 552,-330 552,-349"/>
<text text-anchor="middle" x="491" y="-337" font-family="Helvetica,sans-Serif" font-size="10.00">tls/SocketTLSContext.h</text>
</a>
</g>
</g>
<!-- Node1&#45;&gt;Node30 -->
<g id="edge57_Node000001_Node000030" class="edge">
<title>Node1&#45;&gt;Node30</title>
<g id="a_edge57_Node000001_Node000030"><a xlink:title=" ">
<path fill="none" stroke="#63b8ff" d="M285.36,-384.98C327.74,-375.82 395.26,-361.21 441.28,-351.26"/>
<polygon fill="#63b8ff" stroke="#63b8ff" points="442.29,-354.62 451.33,-349.08 440.81,-347.78 442.29,-354.62"/>
</a>
</g>
</g>
<!-- Node5&#45;&gt;Node2 -->
<g id="edge5_Node000005_Node000002" class="edge">
<title>Node5&#45;&gt;Node2</title>
<g id="a_edge5_Node000005_Node000002"><a xlink:title=" ">
<path fill="none" stroke="#63b8ff" d="M145.28,-109.75C149.71,-102.42 156.16,-91.73 161.62,-82.7"/>
<polygon fill="#63b8ff" stroke="#63b8ff" points="164.64,-84.46 166.81,-74.09 158.65,-80.84 164.64,-84.46"/>
</a>
</g>
</g>
<!-- Node5&#45;&gt;Node6 -->
<g id="edge6_Node000005_Node000006" class="edge">
<title>Node5&#45;&gt;Node6</title>
<g id="a_edge6_Node000005_Node000006"><a xlink:title=" ">
<path fill="none" stroke="#63b8ff" d="M176.32,-113.98C252.89,-104.46 430.89,-82.31 517.26,-71.56"/>
<polygon fill="#63b8ff" stroke="#63b8ff" points="517.83,-75.02 527.33,-70.31 516.97,-68.07 517.83,-75.02"/>
</a>
</g>
</g>
<!-- Node7 -->
<g id="Node000007" class="node">
<title>Node7</title>
<g id="a_Node000007"><a xlink:title=" ">
<polygon fill="#e0e0e0" stroke="#999999" points="593,-19 539,-19 539,0 593,0 593,-19"/>
<text text-anchor="middle" x="566" y="-7" font-family="Helvetica,sans-Serif" font-size="10.00">setjmp.h</text>
</a>
</g>
</g>
<!-- Node6&#45;&gt;Node7 -->
<g id="edge7_Node000006_Node000007" class="edge">
<title>Node6&#45;&gt;Node7</title>
<g id="a_edge7_Node000006_Node000007"><a xlink:title=" ">
<path fill="none" stroke="#63b8ff" d="M566,-54.75C566,-47.8 566,-37.85 566,-29.13"/>
<polygon fill="#63b8ff" stroke="#63b8ff" points="569.5,-29.09 566,-19.09 562.5,-29.09 569.5,-29.09"/>
</a>
</g>
</g>
<!-- Node8&#45;&gt;Node2 -->
<g id="edge12_Node000008_Node000002" class="edge">
<title>Node8&#45;&gt;Node2</title>
<g id="a_edge12_Node000008_Node000002"><a xlink:title=" ">
<path fill="none" stroke="#63b8ff" d="M141.19,-164.93C116.13,-154.11 81.17,-133.97 95,-110 104.01,-94.38 120.82,-83.76 136.44,-76.81"/>
<polygon fill="#63b8ff" stroke="#63b8ff" points="137.99,-79.96 145.93,-72.96 135.35,-73.48 137.99,-79.96"/>
</a>
</g>
</g>
<!-- Node8&#45;&gt;Node3 -->
<g id="edge13_Node000008_Node000003" class="edge">
<title>Node8&#45;&gt;Node3</title>
<g id="a_edge13_Node000008_Node000003"><a xlink:title=" ">
<path fill="none" stroke="#63b8ff" d="M201.11,-164.98C245.06,-154.9 317.68,-138.24 360.46,-128.42"/>
<polygon fill="#63b8ff" stroke="#63b8ff" points="361.44,-131.79 370.41,-126.14 359.88,-124.97 361.44,-131.79"/>
</a>
</g>
</g>
<!-- Node8&#45;&gt;Node5 -->
<g id="edge10_Node000008_Node000005" class="edge">
<title>Node8&#45;&gt;Node5</title>
<g id="a_edge10_Node000008_Node000005"><a xlink:title=" ">
<path fill="none" stroke="#63b8ff" d="M160.04,-164.75C156.79,-157.57 152.08,-147.18 148.05,-138.27"/>
<polygon fill="#63b8ff" stroke="#63b8ff" points="151.2,-136.75 143.89,-129.09 144.83,-139.64 151.2,-136.75"/>
</a>
</g>
</g>
<!-- Node8&#45;&gt;Node6 -->
<g id="edge11_Node000008_Node000006" class="edge">
<title>Node8&#45;&gt;Node6</title>
<g id="a_edge11_Node000008_Node000006"><a xlink:title=" ">
<path fill="none" stroke="#63b8ff" d="M173.94,-164.83C190.65,-150.78 225.99,-123.27 261,-110 347.09,-77.37 455.22,-68.5 516.89,-66.19"/>
<polygon fill="#63b8ff" stroke="#63b8ff" points="517.23,-69.68 527.11,-65.85 517,-62.69 517.23,-69.68"/>
</a>
</g>
</g>
<!-- Node9&#45;&gt;Node2 -->
<g id="edge15_Node000009_Node000002" class="edge">
<title>Node9&#45;&gt;Node2</title>
<g id="a_edge15_Node000009_Node000002"><a xlink:title=" ">
<path fill="none" stroke="#63b8ff" d="M282.18,-164.66C261.77,-146.3 214.57,-103.81 189.07,-80.87"/>
<polygon fill="#63b8ff" stroke="#63b8ff" points="191.39,-78.25 181.62,-74.16 186.71,-83.45 191.39,-78.25"/>
</a>
</g>
</g>
<!-- Node9&#45;&gt;Node3 -->
<g id="edge16_Node000009_Node000003" class="edge">
<title>Node9&#45;&gt;Node3</title>
<g id="a_edge16_Node000009_Node000003"><a xlink:title=" ">
<path fill="none" stroke="#63b8ff" d="M308.55,-164.98C324.89,-156.57 350.13,-143.59 369.13,-133.81"/>
<polygon fill="#63b8ff" stroke="#63b8ff" points="370.86,-136.86 378.15,-129.17 367.66,-130.63 370.86,-136.86"/>
</a>
</g>
</g>
<!-- Node9&#45;&gt;Node4 -->
<g id="edge17_Node000009_Node000004" class="edge">
<title>Node9&#45;&gt;Node4</title>
<g id="a_edge17_Node000009_Node000004"><a xlink:title=" ">
<path fill="none" stroke="#63b8ff" d="M342.11,-167.05C423.21,-156.62 581.97,-136.2 659.4,-126.24"/>
<polygon fill="#63b8ff" stroke="#63b8ff" points="660.29,-129.65 669.77,-124.9 659.4,-122.71 660.29,-129.65"/>
</a>
</g>
</g>
<!-- Node9&#45;&gt;Node5 -->
<g id="edge19_Node000009_Node000005" class="edge">
<title>Node9&#45;&gt;Node5</title>
<g id="a_edge19_Node000009_Node000005"><a xlink:title=" ">
<path fill="none" stroke="#63b8ff" d="M267.58,-164.98C242.28,-156.16 202.55,-142.31 174.14,-132.41"/>
<polygon fill="#63b8ff" stroke="#63b8ff" points="175.21,-129.07 164.61,-129.08 172.9,-135.68 175.21,-129.07"/>
</a>
</g>
</g>
<!-- Node9&#45;&gt;Node6 -->
<g id="edge20_Node000009_Node000006" class="edge">
<title>Node9&#45;&gt;Node6</title>
<g id="a_edge20_Node000009_Node000006"><a xlink:title=" ">
<path fill="none" stroke="#63b8ff" d="M298.75,-164.99C310.21,-151.17 334.87,-123.98 362,-110 411.12,-84.69 474.07,-73.75 516.97,-69.03"/>
<polygon fill="#63b8ff" stroke="#63b8ff" points="517.56,-72.49 527.15,-67.99 516.85,-65.52 517.56,-72.49"/>
</a>
</g>
</g>
<!-- Node10 -->
<g id="Node000010" class="node">
<title>Node10</title>
<g id="a_Node000010"><a xlink:title=" ">
<polygon fill="#e0e0e0" stroke="#999999" points="314,-129 270,-129 270,-110 314,-110 314,-129"/>
<text text-anchor="middle" x="292" y="-117" font-family="Helvetica,sans-Serif" font-size="10.00">time.h</text>
</a>
</g>
</g>
<!-- Node9&#45;&gt;Node10 -->
<g id="edge18_Node000009_Node000010" class="edge">
<title>Node9&#45;&gt;Node10</title>
<g id="a_edge18_Node000009_Node000010"><a xlink:title=" ">
<path fill="none" stroke="#63b8ff" d="M292,-164.75C292,-157.8 292,-147.85 292,-139.13"/>
<polygon fill="#63b8ff" stroke="#63b8ff" points="295.5,-139.09 292,-129.09 288.5,-139.09 295.5,-139.09"/>
</a>
</g>
</g>
<!-- Node11&#45;&gt;Node6 -->
<g id="edge22_Node000011_Node000006" class="edge">
<title>Node11&#45;&gt;Node6</title>
<g id="a_edge22_Node000011_Node000006"><a xlink:title=" ">
<path fill="none" stroke="#63b8ff" d="M382.95,-274.95C431.46,-263.23 507.14,-237.24 547,-184 568.98,-154.64 569.72,-109.62 568.03,-84.37"/>
<polygon fill="#63b8ff" stroke="#63b8ff" points="571.51,-83.94 567.15,-74.28 564.53,-84.55 571.51,-83.94"/>
</a>
</g>
</g>
<!-- Node12 -->
<g id="Node000012" class="node">
<title>Node12</title>
<g id="a_Node000012"><a xlink:href="SocketTimer_8h.html" target="_top" xlink:title=" ">
<polygon fill="white" stroke="#666666" points="537.5,-184 436.5,-184 436.5,-165 537.5,-165 537.5,-184"/>
<text text-anchor="middle" x="487" y="-172" font-family="Helvetica,sans-Serif" font-size="10.00">core/SocketTimer.h</text>
</a>
</g>
</g>
<!-- Node11&#45;&gt;Node12 -->
<g id="edge23_Node000011_Node000012" class="edge">
<title>Node11&#45;&gt;Node12</title>
<g id="a_edge23_Node000011_Node000012"><a xlink:title=" ">
<path fill="none" stroke="#63b8ff" d="M349.94,-274.84C375.33,-256.44 434.94,-213.23 466.53,-190.34"/>
<polygon fill="#63b8ff" stroke="#63b8ff" points="468.96,-192.9 475,-184.2 464.85,-187.23 468.96,-192.9"/>
</a>
</g>
</g>
<!-- Node11&#45;&gt;Node13 -->
<g id="edge26_Node000011_Node000013" class="edge">
<title>Node11&#45;&gt;Node13</title>
<g id="a_edge26_Node000011_Node000013"><a xlink:title=" ">
<path fill="none" stroke="#63b8ff" d="M383.06,-276.24C386.08,-275.81 389.08,-275.39 392,-275 519.5,-258.07 669.89,-243.04 748.65,-235.54"/>
<polygon fill="#63b8ff" stroke="#63b8ff" points="749.19,-239.01 758.82,-234.58 748.53,-232.04 749.19,-239.01"/>
</a>
</g>
</g>
<!-- Node12&#45;&gt;Node3 -->
<g id="edge25_Node000012_Node000003" class="edge">
<title>Node12&#45;&gt;Node3</title>
<g id="a_edge25_Node000012_Node000003"><a xlink:title=" ">
<path fill="none" stroke="#63b8ff" d="M472.22,-164.98C457.82,-156.69 435.69,-143.94 418.81,-134.22"/>
<polygon fill="#63b8ff" stroke="#63b8ff" points="420.46,-131.13 410.05,-129.17 416.97,-137.19 420.46,-131.13"/>
</a>
</g>
</g>
<!-- Node12&#45;&gt;Node6 -->
<g id="edge24_Node000012_Node000006" class="edge">
<title>Node12&#45;&gt;Node6</title>
<g id="a_edge24_Node000012_Node000006"><a xlink:title=" ">
<path fill="none" stroke="#63b8ff" d="M493.46,-164.66C506.61,-146.69 536.64,-105.64 553.65,-82.38"/>
<polygon fill="#63b8ff" stroke="#63b8ff" points="556.59,-84.3 559.67,-74.16 550.94,-80.16 556.59,-84.3"/>
</a>
</g>
</g>
<!-- Node13&#45;&gt;Node6 -->
<g id="edge27_Node000013_Node000006" class="edge">
<title>Node13&#45;&gt;Node6</title>
<g id="a_edge27_Node000013_Node000006"><a xlink:title=" ">
<path fill="none" stroke="#63b8ff" d="M801.52,-219.78C797.3,-197.75 783.12,-139.52 747,-110 709.62,-79.45 654.35,-69.4 614.73,-66.32"/>
<polygon fill="#63b8ff" stroke="#63b8ff" points="614.71,-62.81 604.5,-65.66 614.25,-69.8 614.71,-62.81"/>
</a>
</g>
</g>
<!-- Node14 -->
<g id="Node000014" class="node">
<title>Node14</title>
<g id="a_Node000014"><a xlink:href="SocketConfig_8h.html" target="_top" xlink:title=" ">
<polygon fill="white" stroke="#666666" points="1128,-129 1022,-129 1022,-110 1128,-110 1128,-129"/>
<text text-anchor="middle" x="1075" y="-117" font-family="Helvetica,sans-Serif" font-size="10.00">core/SocketConfig.h</text>
</a>
</g>
</g>
<!-- Node13&#45;&gt;Node14 -->
<g id="edge28_Node000013_Node000014" class="edge">
<title>Node13&#45;&gt;Node14</title>
<g id="a_edge28_Node000013_Node000014"><a xlink:title=" ">
<path fill="none" stroke="#63b8ff" d="M824.8,-219.84C872.96,-200.72 988.57,-154.82 1044.14,-132.75"/>
<polygon fill="#63b8ff" stroke="#63b8ff" points="1045.47,-135.99 1053.47,-129.05 1042.89,-129.48 1045.47,-135.99"/>
</a>
</g>
</g>
<!-- Node23 -->
<g id="Node000023" class="node">
<title>Node23</title>
<g id="a_Node000023"><a xlink:href="SocketDNS_8h.html" target="_top" xlink:title=" ">
<polygon fill="white" stroke="#666666" points="928,-129 832,-129 832,-110 928,-110 928,-129"/>
<text text-anchor="middle" x="880" y="-117" font-family="Helvetica,sans-Serif" font-size="10.00">dns/SocketDNS.h</text>
</a>
</g>
</g>
<!-- Node13&#45;&gt;Node23 -->
<g id="edge38_Node000013_Node000023" class="edge">
<title>Node13&#45;&gt;Node23</title>
<g id="a_edge38_Node000013_Node000023"><a xlink:title=" ">
<path fill="none" stroke="#63b8ff" d="M809.3,-219.66C822.11,-201.69 851.38,-160.64 867.96,-137.38"/>
<polygon fill="#63b8ff" stroke="#63b8ff" points="870.87,-139.33 873.83,-129.16 865.17,-135.27 870.87,-139.33"/>
</a>
</g>
</g>
<!-- Node25 -->
<g id="Node000025" class="node">
<title>Node25</title>
<g id="a_Node000025"><a xlink:href="SocketCommon_8h.html" target="_top" xlink:title=" ">
<polygon fill="white" stroke="#666666" points="1139,-184 1011,-184 1011,-165 1139,-165 1139,-184"/>
<text text-anchor="middle" x="1075" y="-172" font-family="Helvetica,sans-Serif" font-size="10.00">socket/SocketCommon.h</text>
</a>
</g>
</g>
<!-- Node13&#45;&gt;Node25 -->
<g id="edge43_Node000013_Node000025" class="edge">
<title>Node13&#45;&gt;Node25</title>
<g id="a_edge43_Node000013_Node000025"><a xlink:title=" ">
<path fill="none" stroke="#63b8ff" d="M846.7,-219.98C894.15,-210.74 969.97,-195.97 1021.08,-186.01"/>
<polygon fill="#63b8ff" stroke="#63b8ff" points="1021.81,-189.43 1030.96,-184.08 1020.47,-182.56 1021.81,-189.43"/>
</a>
</g>
</g>
<!-- Node14&#45;&gt;Node2 -->
<g id="edge33_Node000014_Node000002" class="edge">
<title>Node14&#45;&gt;Node2</title>
<g id="a_edge33_Node000014_Node000002"><a xlink:title=" ">
<path fill="none" stroke="#63b8ff" d="M1021.92,-115.19C996.27,-113.6 965.03,-111.68 937,-110 656.51,-93.2 318.1,-73.83 208.29,-67.57"/>
<polygon fill="#63b8ff" stroke="#63b8ff" points="208.27,-64.06 198.09,-66.99 207.88,-71.05 208.27,-64.06"/>
</a>
</g>
</g>
<!-- Node15 -->
<g id="Node000015" class="node">
<title>Node15</title>
<g id="a_Node000015"><a xlink:title=" ">
<polygon fill="#e0e0e0" stroke="#999999" points="1145.5,-74 1098.5,-74 1098.5,-55 1145.5,-55 1145.5,-74"/>
<text text-anchor="middle" x="1122" y="-62" font-family="Helvetica,sans-Serif" font-size="10.00">errno.h</text>
</a>
</g>
</g>
<!-- Node14&#45;&gt;Node15 -->
<g id="edge29_Node000014_Node000015" class="edge">
<title>Node14&#45;&gt;Node15</title>
<g id="a_edge29_Node000014_Node000015"><a xlink:title=" ">
<path fill="none" stroke="#63b8ff" d="M1082.76,-109.75C1089.47,-102.18 1099.34,-91.05 1107.51,-81.84"/>
<polygon fill="#63b8ff" stroke="#63b8ff" points="1110.37,-83.89 1114.38,-74.09 1105.13,-79.25 1110.37,-83.89"/>
</a>
</g>
</g>
<!-- Node16 -->
<g id="Node000016" class="node">
<title>Node16</title>
<g id="a_Node000016"><a xlink:title=" ">
<polygon fill="#e0e0e0" stroke="#999999" points="1361,-74 1317,-74 1317,-55 1361,-55 1361,-74"/>
<text text-anchor="middle" x="1339" y="-62" font-family="Helvetica,sans-Serif" font-size="10.00">fcntl.h</text>
</a>
</g>
</g>
<!-- Node14&#45;&gt;Node16 -->
<g id="edge30_Node000014_Node000016" class="edge">
<title>Node14&#45;&gt;Node16</title>
<g id="a_edge30_Node000014_Node000016"><a xlink:title=" ">
<path fill="none" stroke="#63b8ff" d="M1126.15,-109.93C1171.3,-102.09 1239.1,-89.67 1306.73,-74.15"/>
<polygon fill="#63b8ff" stroke="#63b8ff" points="1307.75,-77.51 1316.7,-71.84 1306.17,-70.69 1307.75,-77.51"/>
</a>
</g>
</g>
<!-- Node17 -->
<g id="Node000017" class="node">
<title>Node17</title>
<g id="a_Node000017"><a xlink:title=" ">
<polygon fill="#e0e0e0" stroke="#999999" points="1496.5,-74 1431.5,-74 1431.5,-55 1496.5,-55 1496.5,-74"/>
<text text-anchor="middle" x="1464" y="-62" font-family="Helvetica,sans-Serif" font-size="10.00">netinet/in.h</text>
</a>
</g>
</g>
<!-- Node14&#45;&gt;Node17 -->
<g id="edge31_Node000014_Node000017" class="edge">
<title>Node14&#45;&gt;Node17</title>
<g id="a_edge31_Node000014_Node000017"><a xlink:title=" ">
<path fill="none" stroke="#63b8ff" d="M1128.27,-111.24C1206.22,-100.62 1349.81,-81.06 1421.27,-71.32"/>
<polygon fill="#63b8ff" stroke="#63b8ff" points="1421.84,-74.78 1431.28,-69.96 1420.89,-67.84 1421.84,-74.78"/>
</a>
</g>
</g>
<!-- Node18 -->
<g id="Node000018" class="node">
<title>Node18</title>
<g id="a_Node000018"><a xlink:title=" ">
<polygon fill="#e0e0e0" stroke="#999999" points="1234.5,-74 1163.5,-74 1163.5,-55 1234.5,-55 1234.5,-74"/>
<text text-anchor="middle" x="1199" y="-62" font-family="Helvetica,sans-Serif" font-size="10.00">netinet/tcp.h</text>
</a>
</g>
</g>
<!-- Node14&#45;&gt;Node18 -->
<g id="edge32_Node000014_Node000018" class="edge">
<title>Node14&#45;&gt;Node18</title>
<g id="a_edge32_Node000014_Node000018"><a xlink:title=" ">
<path fill="none" stroke="#63b8ff" d="M1094.92,-109.98C1115.05,-101.38 1146.38,-87.99 1169.41,-78.15"/>
<polygon fill="#63b8ff" stroke="#63b8ff" points="1170.9,-81.32 1178.71,-74.17 1168.14,-74.88 1170.9,-81.32"/>
</a>
</g>
</g>
<!-- Node19 -->
<g id="Node000019" class="node">
<title>Node19</title>
<g id="a_Node000019"><a xlink:title=" ">
<polygon fill="#e0e0e0" stroke="#999999" points="1299,-74 1253,-74 1253,-55 1299,-55 1299,-74"/>
<text text-anchor="middle" x="1276" y="-62" font-family="Helvetica,sans-Serif" font-size="10.00">stdio.h</text>
</a>
</g>
</g>
<!-- Node14&#45;&gt;Node19 -->
<g id="edge34_Node000014_Node000019" class="edge">
<title>Node14&#45;&gt;Node19</title>
<g id="a_edge34_Node000014_Node000019"><a xlink:title=" ">
<path fill="none" stroke="#63b8ff" d="M1107.4,-109.99C1139.43,-101.57 1190.1,-88.25 1243.03,-74.25"/>
<polygon fill="#63b8ff" stroke="#63b8ff" points="1244.16,-77.57 1252.93,-71.63 1242.37,-70.81 1244.16,-77.57"/>
</a>
</g>
</g>
<!-- Node20 -->
<g id="Node000020" class="node">
<title>Node20</title>
<g id="a_Node000020"><a xlink:title=" ">
<polygon fill="#e0e0e0" stroke="#999999" points="936.5,-74 863.5,-74 863.5,-55 936.5,-55 936.5,-74"/>
<text text-anchor="middle" x="900" y="-62" font-family="Helvetica,sans-Serif" font-size="10.00">sys/socket.h</text>
</a>
</g>
</g>
<!-- Node14&#45;&gt;Node20 -->
<g id="edge35_Node000014_Node000020" class="edge">
<title>Node14&#45;&gt;Node20</title>
<g id="a_edge35_Node000014_Node000020"><a xlink:title=" ">
<path fill="none" stroke="#63b8ff" d="M1046.88,-109.98C1017.38,-101.05 970.81,-86.94 938.03,-77.02"/>
<polygon fill="#63b8ff" stroke="#63b8ff" points="938.92,-73.63 928.34,-74.08 936.89,-80.33 938.92,-73.63"/>
</a>
</g>
</g>
<!-- Node21 -->
<g id="Node000021" class="node">
<title>Node21</title>
<g id="a_Node000021"><a xlink:title=" ">
<polygon fill="#e0e0e0" stroke="#999999" points="1011,-74 955,-74 955,-55 1011,-55 1011,-74"/>
<text text-anchor="middle" x="983" y="-62" font-family="Helvetica,sans-Serif" font-size="10.00">sys/uio.h</text>
</a>
</g>
</g>
<!-- Node14&#45;&gt;Node21 -->
<g id="edge36_Node000014_Node000021" class="edge">
<title>Node14&#45;&gt;Node21</title>
<g id="a_edge36_Node000014_Node000021"><a xlink:title=" ">
<path fill="none" stroke="#63b8ff" d="M1060.22,-109.98C1045.82,-101.69 1023.69,-88.94 1006.81,-79.22"/>
<polygon fill="#63b8ff" stroke="#63b8ff" points="1008.46,-76.13 998.05,-74.17 1004.97,-82.19 1008.46,-76.13"/>
</a>
</g>
</g>
<!-- Node22 -->
<g id="Node000022" class="node">
<title>Node22</title>
<g id="a_Node000022"><a xlink:title=" ">
<polygon fill="#e0e0e0" stroke="#999999" points="1080.5,-74 1029.5,-74 1029.5,-55 1080.5,-55 1080.5,-74"/>
<text text-anchor="middle" x="1055" y="-62" font-family="Helvetica,sans-Serif" font-size="10.00">unistd.h</text>
</a>
</g>
</g>
<!-- Node14&#45;&gt;Node22 -->
<g id="edge37_Node000014_Node000022" class="edge">
<title>Node14&#45;&gt;Node22</title>
<g id="a_edge37_Node000014_Node000022"><a xlink:title=" ">
<path fill="none" stroke="#63b8ff" d="M1071.7,-109.75C1069.02,-102.65 1065.15,-92.4 1061.81,-83.56"/>
<polygon fill="#63b8ff" stroke="#63b8ff" points="1065.05,-82.21 1058.24,-74.09 1058.5,-84.68 1065.05,-82.21"/>
</a>
</g>
</g>
<!-- Node23&#45;&gt;Node2 -->
<g id="edge41_Node000023_Node000002" class="edge">
<title>Node23&#45;&gt;Node2</title>
<g id="a_edge41_Node000023_Node000002"><a xlink:title=" ">
<path fill="none" stroke="#63b8ff" d="M831.89,-114.9C698.64,-104.92 326.82,-77.09 208.59,-68.24"/>
<polygon fill="#63b8ff" stroke="#63b8ff" points="208.51,-64.72 198.27,-67.47 207.98,-71.7 208.51,-64.72"/>
</a>
</g>
</g>
<!-- Node23&#45;&gt;Node6 -->
<g id="edge39_Node000023_Node000006" class="edge">
<title>Node23&#45;&gt;Node6</title>
<g id="a_edge39_Node000023_Node000006"><a xlink:title=" ">
<path fill="none" stroke="#63b8ff" d="M831.97,-110.39C773.14,-100.46 674.03,-83.73 614.83,-73.74"/>
<polygon fill="#63b8ff" stroke="#63b8ff" points="615.06,-70.23 604.62,-72.02 613.9,-77.13 615.06,-70.23"/>
</a>
</g>
</g>
<!-- Node23&#45;&gt;Node20 -->
<g id="edge42_Node000023_Node000020" class="edge">
<title>Node23&#45;&gt;Node20</title>
<g id="a_edge42_Node000023_Node000020"><a xlink:title=" ">
<path fill="none" stroke="#63b8ff" d="M883.3,-109.75C885.98,-102.65 889.85,-92.4 893.19,-83.56"/>
<polygon fill="#63b8ff" stroke="#63b8ff" points="896.5,-84.68 896.76,-74.09 889.95,-82.21 896.5,-84.68"/>
</a>
</g>
</g>
<!-- Node24 -->
<g id="Node000024" class="node">
<title>Node24</title>
<g id="a_Node000024"><a xlink:title=" ">
<polygon fill="#e0e0e0" stroke="#999999" points="845.5,-74 796.5,-74 796.5,-55 845.5,-55 845.5,-74"/>
<text text-anchor="middle" x="821" y="-62" font-family="Helvetica,sans-Serif" font-size="10.00">netdb.h</text>
</a>
</g>
</g>
<!-- Node23&#45;&gt;Node24 -->
<g id="edge40_Node000023_Node000024" class="edge">
<title>Node23&#45;&gt;Node24</title>
<g id="a_edge40_Node000023_Node000024"><a xlink:title=" ">
<path fill="none" stroke="#63b8ff" d="M870.52,-109.98C861.8,-102.15 848.66,-90.34 838.1,-80.86"/>
<polygon fill="#63b8ff" stroke="#63b8ff" points="840.43,-78.25 830.65,-74.17 835.75,-83.46 840.43,-78.25"/>
</a>
</g>
</g>
<!-- Node25&#45;&gt;Node4 -->
<g id="edge51_Node000025_Node000004" class="edge">
<title>Node25&#45;&gt;Node4</title>
<g id="a_edge51_Node000025_Node000004"><a xlink:title=" ">
<path fill="none" stroke="#63b8ff" d="M1015.39,-164.98C940.93,-154.35 815.21,-136.39 748.57,-126.87"/>
<polygon fill="#63b8ff" stroke="#63b8ff" points="748.8,-123.36 738.4,-125.41 747.81,-130.29 748.8,-123.36"/>
</a>
</g>
</g>
<!-- Node25&#45;&gt;Node5 -->
<g id="edge53_Node000025_Node000005" class="edge">
<title>Node25&#45;&gt;Node5</title>
<g id="a_edge53_Node000025_Node000005"><a xlink:title=" ">
<path fill="none" stroke="#63b8ff" d="M1010.87,-170.33C873.41,-163.47 540.16,-146.43 261,-129 236.3,-127.46 208.79,-125.54 186.24,-123.92"/>
<polygon fill="#63b8ff" stroke="#63b8ff" points="186.49,-120.43 176.26,-123.19 185.98,-127.41 186.49,-120.43"/>
</a>
</g>
</g>
<!-- Node25&#45;&gt;Node6 -->
<g id="edge54_Node000025_Node000006" class="edge">
<title>Node25&#45;&gt;Node6</title>
<g id="a_edge54_Node000025_Node000006"><a xlink:title=" ">
<path fill="none" stroke="#63b8ff" d="M1010.83,-166.51C959.3,-159.86 885.48,-148.01 823,-129 803.01,-122.92 799.89,-116.38 780,-110 724.47,-92.18 658.49,-79.72 614.62,-72.6"/>
<polygon fill="#63b8ff" stroke="#63b8ff" points="614.94,-69.11 604.51,-71 613.84,-76.02 614.94,-69.11"/>
</a>
</g>
</g>
<!-- Node25&#45;&gt;Node14 -->
<g id="edge55_Node000025_Node000014" class="edge">
<title>Node25&#45;&gt;Node14</title>
<g id="a_edge55_Node000025_Node000014"><a xlink:title=" ">
<path fill="none" stroke="#63b8ff" d="M1075,-164.75C1075,-157.8 1075,-147.85 1075,-139.13"/>
<polygon fill="#63b8ff" stroke="#63b8ff" points="1078.5,-139.09 1075,-129.09 1071.5,-139.09 1078.5,-139.09"/>
</a>
</g>
</g>
<!-- Node25&#45;&gt;Node16 -->
<g id="edge46_Node000025_Node000016" class="edge">
<title>Node25&#45;&gt;Node16</title>
<g id="a_edge46_Node000025_Node000016"><a xlink:title=" ">
<path fill="none" stroke="#63b8ff" d="M1086.06,-164.88C1103.86,-151.39 1140.37,-125.26 1175,-110 1228.19,-86.56 1247,-89.69 1306.99,-74.2"/>
<polygon fill="#63b8ff" stroke="#63b8ff" points="1308.22,-77.49 1316.99,-71.55 1306.42,-70.73 1308.22,-77.49"/>
</a>
</g>
</g>
<!-- Node25&#45;&gt;Node17 -->
<g id="edge48_Node000025_Node000017" class="edge">
<title>Node25&#45;&gt;Node17</title>
<g id="a_edge48_Node000025_Node000017"><a xlink:title=" ">
<path fill="none" stroke="#63b8ff" d="M1139.07,-171.01C1246.85,-166.16 1454.9,-153.68 1477,-129 1488.22,-116.47 1481.9,-96.92 1474.7,-82.82"/>
<polygon fill="#63b8ff" stroke="#63b8ff" points="1477.74,-81.08 1469.78,-74.08 1471.64,-84.51 1477.74,-81.08"/>
</a>
</g>
</g>
<!-- Node25&#45;&gt;Node20 -->
<g id="edge49_Node000025_Node000020" class="edge">
<title>Node25&#45;&gt;Node20</title>
<g id="a_edge49_Node000025_Node000020"><a xlink:title=" ">
<path fill="none" stroke="#63b8ff" d="M1060.97,-164.84C1030.77,-146.2 959.33,-102.11 922.63,-79.46"/>
<polygon fill="#63b8ff" stroke="#63b8ff" points="924.44,-76.47 914.09,-74.2 920.76,-82.43 924.44,-76.47"/>
</a>
</g>
</g>
<!-- Node25&#45;&gt;Node24 -->
<g id="edge47_Node000025_Node000024" class="edge">
<title>Node25&#45;&gt;Node24</title>
<g id="a_edge47_Node000025_Node000024"><a xlink:title=" ">
<path fill="none" stroke="#63b8ff" d="M1054.09,-164.91C1033.32,-156.26 1000.68,-142.32 973,-129 956.7,-121.16 953.48,-117.48 937,-110 910.02,-97.76 878.59,-85.84 855.26,-77.42"/>
<polygon fill="#63b8ff" stroke="#63b8ff" points="856.39,-74.11 845.79,-74.04 854.03,-80.7 856.39,-74.11"/>
</a>
</g>
</g>
<!-- Node26 -->
<g id="Node000026" class="node">
<title>Node26</title>
<g id="a_Node000026"><a xlink:title=" ">
<polygon fill="#e0e0e0" stroke="#999999" points="1240,-129 1184,-129 1184,-110 1240,-110 1240,-129"/>
<text text-anchor="middle" x="1212" y="-117" font-family="Helvetica,sans-Serif" font-size="10.00">stdbool.h</text>
</a>
</g>
</g>
<!-- Node25&#45;&gt;Node26 -->
<g id="edge44_Node000025_Node000026" class="edge">
<title>Node25&#45;&gt;Node26</title>
<g id="a_edge44_Node000025_Node000026"><a xlink:title=" ">
<path fill="none" stroke="#63b8ff" d="M1097.01,-164.98C1119.45,-156.3 1154.48,-142.75 1179.99,-132.88"/>
<polygon fill="#63b8ff" stroke="#63b8ff" points="1181.52,-136.04 1189.59,-129.17 1179,-129.51 1181.52,-136.04"/>
</a>
</g>
</g>
<!-- Node27 -->
<g id="Node000027" class="node">
<title>Node27</title>
<g id="a_Node000027"><a xlink:title=" ">
<polygon fill="#e0e0e0" stroke="#999999" points="1315.5,-129 1258.5,-129 1258.5,-110 1315.5,-110 1315.5,-129"/>
<text text-anchor="middle" x="1287" y="-117" font-family="Helvetica,sans-Serif" font-size="10.00">pthread.h</text>
</a>
</g>
</g>
<!-- Node25&#45;&gt;Node27 -->
<g id="edge45_Node000025_Node000027" class="edge">
<title>Node25&#45;&gt;Node27</title>
<g id="a_edge45_Node000025_Node000027"><a xlink:title=" ">
<path fill="none" stroke="#63b8ff" d="M1109.06,-164.98C1147.18,-155.46 1208.79,-140.05 1248.59,-130.1"/>
<polygon fill="#63b8ff" stroke="#63b8ff" points="1249.61,-133.46 1258.46,-127.63 1247.91,-126.66 1249.61,-133.46"/>
</a>
</g>
</g>
<!-- Node28 -->
<g id="Node000028" class="node">
<title>Node28</title>
<g id="a_Node000028"><a xlink:title=" ">
<polygon fill="#e0e0e0" stroke="#999999" points="1396,-129 1334,-129 1334,-110 1396,-110 1396,-129"/>
<text text-anchor="middle" x="1365" y="-117" font-family="Helvetica,sans-Serif" font-size="10.00">sys/time.h</text>
</a>
</g>
</g>
<!-- Node25&#45;&gt;Node28 -->
<g id="edge50_Node000025_Node000028" class="edge">
<title>Node25&#45;&gt;Node28</title>
<g id="a_edge50_Node000025_Node000028"><a xlink:title=" ">
<path fill="none" stroke="#63b8ff" d="M1125.85,-164.96C1174.25,-156.71 1249.4,-143.61 1323.59,-129.23"/>
<polygon fill="#63b8ff" stroke="#63b8ff" points="1324.43,-132.63 1333.58,-127.28 1323.09,-125.76 1324.43,-132.63"/>
</a>
</g>
</g>
<!-- Node29 -->
<g id="Node000029" class="node">
<title>Node29</title>
<g id="a_Node000029"><a xlink:title=" ">
<polygon fill="#e0e0e0" stroke="#999999" points="1468,-129 1414,-129 1414,-110 1468,-110 1468,-129"/>
<text text-anchor="middle" x="1441" y="-117" font-family="Helvetica,sans-Serif" font-size="10.00">sys/un.h</text>
</a>
</g>
</g>
<!-- Node25&#45;&gt;Node29 -->
<g id="edge52_Node000025_Node000029" class="edge">
<title>Node25&#45;&gt;Node29</title>
<g id="a_edge52_Node000025_Node000029"><a xlink:title=" ">
<path fill="none" stroke="#63b8ff" d="M1139.17,-166.73C1203.67,-159.5 1306.11,-146.86 1403.88,-129.04"/>
<polygon fill="#63b8ff" stroke="#63b8ff" points="1404.73,-132.45 1413.93,-127.19 1403.46,-125.56 1404.73,-132.45"/>
</a>
</g>
</g>
<!-- Node30&#45;&gt;Node5 -->
<g id="edge58_Node000030_Node000005" class="edge">
<title>Node30&#45;&gt;Node5</title>
<g id="a_edge58_Node000030_Node000005"><a xlink:title=" ">
<path fill="none" stroke="#63b8ff" d="M429.74,-330.56C387.74,-323.87 331.28,-312.37 284,-294 193.76,-258.94 144.16,-267.98 96,-184 86.04,-166.62 102.67,-147.91 118.26,-135.33"/>
<polygon fill="#63b8ff" stroke="#63b8ff" points="120.76,-137.84 126.64,-129.03 116.55,-132.24 120.76,-137.84"/>
</a>
</g>
</g>
<!-- Node30&#45;&gt;Node6 -->
<g id="edge59_Node000030_Node000006" class="edge">
<title>Node30&#45;&gt;Node6</title>
<g id="a_edge59_Node000030_Node000006"><a xlink:title=" ">
<path fill="none" stroke="#63b8ff" d="M545.93,-329.96C567.11,-323.69 589.26,-312.83 602,-294 647.32,-227.01 599.05,-124 576.4,-83.11"/>
<polygon fill="#63b8ff" stroke="#63b8ff" points="579.38,-81.27 571.39,-74.32 573.3,-84.74 579.38,-81.27"/>
</a>
</g>
</g>
<!-- Node31 -->
<g id="Node000031" class="node">
<title>Node31</title>
<g id="a_Node000031"><a xlink:href="SocketTLS_8h.html" target="_top" xlink:title=" ">
<polygon fill="white" stroke="#666666" points="736.5,-294 649.5,-294 649.5,-275 736.5,-275 736.5,-294"/>
<text text-anchor="middle" x="693" y="-282" font-family="Helvetica,sans-Serif" font-size="10.00">tls/SocketTLS.h</text>
</a>
</g>
</g>
<!-- Node30&#45;&gt;Node31 -->
<g id="edge60_Node000030_Node000031" class="edge">
<title>Node30&#45;&gt;Node31</title>
<g id="a_edge60_Node000030_Node000031"><a xlink:title=" ">
<path fill="none" stroke="#63b8ff" d="M523.45,-329.98C557.96,-320.93 612.66,-306.58 650.56,-296.64"/>
<polygon fill="#63b8ff" stroke="#63b8ff" points="651.51,-300.01 660.29,-294.08 649.73,-293.23 651.51,-300.01"/>
</a>
</g>
</g>
<!-- Node32 -->
<g id="Node000032" class="node">
<title>Node32</title>
<g id="a_Node000032"><a xlink:title=" ">
<polygon fill="#e0e0e0" stroke="#999999" points="475,-294 401,-294 401,-275 475,-275 475,-294"/>
<text text-anchor="middle" x="438" y="-282" font-family="Helvetica,sans-Serif" font-size="10.00">openssl/ssl.h</text>
</a>
</g>
</g>
<!-- Node30&#45;&gt;Node32 -->
<g id="edge63_Node000030_Node000032" class="edge">
<title>Node30&#45;&gt;Node32</title>
<g id="a_edge63_Node000030_Node000032"><a xlink:title=" ">
<path fill="none" stroke="#63b8ff" d="M482.25,-329.75C474.53,-322.03 463.1,-310.6 453.78,-301.28"/>
<polygon fill="#63b8ff" stroke="#63b8ff" points="456.14,-298.69 446.59,-294.09 451.19,-303.64 456.14,-298.69"/>
</a>
</g>
</g>
<!-- Node33 -->
<g id="Node000033" class="node">
<title>Node33</title>
<g id="a_Node000033"><a xlink:title=" ">
<polygon fill="#e0e0e0" stroke="#999999" points="593,-294 493,-294 493,-275 593,-275 593,-294"/>
<text text-anchor="middle" x="543" y="-282" font-family="Helvetica,sans-Serif" font-size="10.00">openssl/x509_vfy.h</text>
</a>
</g>
</g>
<!-- Node30&#45;&gt;Node33 -->
<g id="edge64_Node000030_Node000033" class="edge">
<title>Node30&#45;&gt;Node33</title>
<g id="a_edge64_Node000030_Node000033"><a xlink:title=" ">
<path fill="none" stroke="#63b8ff" d="M499.59,-329.75C507.16,-322.03 518.38,-310.6 527.51,-301.28"/>
<polygon fill="#63b8ff" stroke="#63b8ff" points="530.07,-303.68 534.57,-294.09 525.07,-298.78 530.07,-303.68"/>
</a>
</g>
</g>
<!-- Node31&#45;&gt;Node6 -->
<g id="edge61_Node000031_Node000006" class="edge">
<title>Node31&#45;&gt;Node6</title>
<g id="a_edge61_Node000031_Node000006"><a xlink:title=" ">
<path fill="none" stroke="#63b8ff" d="M690.77,-274.85C683.63,-248.23 659.29,-165.99 618,-110 609.51,-98.5 597.52,-87.98 587.19,-80.06"/>
<polygon fill="#63b8ff" stroke="#63b8ff" points="589.15,-77.15 579.01,-74.05 585,-82.79 589.15,-77.15"/>
</a>
</g>
</g>
<!-- Node31&#45;&gt;Node13 -->
<g id="edge62_Node000031_Node000013" class="edge">
<title>Node31&#45;&gt;Node13</title>
<g id="a_edge62_Node000031_Node000013"><a xlink:title=" ">
<path fill="none" stroke="#63b8ff" d="M710.67,-274.98C728.29,-266.5 755.58,-253.35 775.93,-243.54"/>
<polygon fill="#63b8ff" stroke="#63b8ff" points="777.52,-246.66 785.01,-239.17 774.48,-240.36 777.52,-246.66"/>
</a>
</g>
</g>
</g>
</svg>

<g id="navigator" transform="translate(0 0)" fill="#404254">
  <rect fill="#f2f5e9" fill-opacity="0.5" stroke="#606060" stroke-width=".5" x="0" y="0" width="60" height="60"/>
  <use id="zoomplus" xlink:href="#zoomPlus" x="17" y="9" onmousedown="handleZoom(evt,'in')"/>
  <use id="zoomminus" xlink:href="#zoomMin" x="42" y="9" onmousedown="handleZoom(evt,'out')"/>
  <use id="reset" xlink:href="#resetDef" x="30" y="36" onmousedown="handleReset()"/>
   <use id="arrowup" xlink:href="#arrowUp" x="0" y="0" onmousedown="handlePan(0,-1)"/>
  <use id="arrowright" xlink:href="#arrowRight" x="0" y="0" onmousedown="handlePan(1,0)"/>
  <use id="arrowdown" xlink:href="#arrowDown" x="0" y="0" onmousedown="handlePan(0,1)"/>
  <use id="arrowleft" xlink:href="#arrowLeft" x="0" y="0" onmousedown="handlePan(-1,0)"/>
</g>
<svg viewBox="0 0 15 15" width="100%" height="30px" preserveAspectRatio="xMaxYMin meet">
 <g id="arrow_out" transform="scale(0.3 0.3)">
  <a xlink:href="SocketHTTPServer_8h__incl_org.svg" target="_base">
   <rect id="button" ry="5" rx="5" y="6" x="6" height="38" width="38"
        fill="#f2f5e9" fill-opacity="0.5" stroke="#606060" stroke-width="1.0"/>
   <path id="arrow"
     d="M 11.500037,31.436501 C 11.940474,20.09759 22.043105,11.32322 32.158766,21.979434 L 37.068811,17.246167 C 37.068811,17.246167 37.088388,32 37.088388,32 L 22.160133,31.978069 C 22.160133,31.978069 26.997745,27.140456 26.997745,27.140456 C 18.528582,18.264221 13.291696,25.230495 11.500037,31.436501 z"
     style="fill:#404040;"/>
  </a>
 </g>
</svg>

<style type='text/css'>
<![CDATA[
[data-mouse-over-selected='false'] { opacity: 0.7; }
[data-mouse-over-selected='true']  { opacity: 1.0; }
]]>
</style>
<script type="application/ecmascript"><![CDATA[
document.addEventListener('DOMContentLoaded', (event) => {
  highlightEdges();
  highlightAdjacentNodes();
});
]]></script>
</svg>
