<?xml version="1.0" encoding="UTF-8" standalone="no"?>
<!DOCTYPE svg PUBLIC "-//W3C//DTD SVG 1.1//EN"
 "http://www.w3.org/Graphics/SVG/1.1/DTD/svg11.dtd">
<!-- Generated by graphviz version 2.43.0 (0)
 -->
<!-- Title: SocketHappyEyeballs&#45;private.h Pages: 1 -->
<!--zoomable 423 -->

<svg id="main" version="1.1" xmlns="http://www.w3.org/2000/svg" xmlns:xlink="http://www.w3.org/1999/xlink" xml:space="preserve" onload="init(evt)">
<style type="text/css"><![CDATA[
.node, .edge {opacity: 0.7;}
.node.selected, .edge.selected {opacity: 1;}
.edge:hover path { stroke: red; }
.edge:hover polygon { stroke: red; fill: red; }
]]></style>

<defs>
  <circle id="rim" cx="0" cy="0" r="7"/>
  <circle id="rim2" cx="0" cy="0" r="3.5"/>
  <g id="zoomPlus">
    <use xlink:href="#rim" fill="#404040"><set attributeName="fill" to="#808080" begin="zoomplus.mouseover" end="zoomplus.mouseout"/></use>
    <path d="M-4,0h8M0,-4v8" fill="none" stroke="white" stroke-width="1.5" pointer-events="none"/>
  </g>
  <g id="zoomMin">
    <use xlink:href="#rim" fill="#404040"><set attributeName="fill" to="#808080" begin="zoomminus.mouseover" end="zoomminus.mouseout"/></use>
    <path d="M-4,0h8" fill="none" stroke="white" stroke-width="1.5" pointer-events="none"/>
  </g>
  <g id="arrowUp" transform="translate(30 24)">
    <use xlink:href="#rim"/>
    <path pointer-events="none" fill="none" stroke="white" stroke-width="1.5" d="M0,-3.0v7 M-2.5,-0.5L0,-3.0L2.5,-0.5"/>
  </g>
  <g id="arrowRight" transform="rotate(90) translate(36 -43)">
    <use xlink:href="#rim"/>
    <path pointer-events="none" fill="none" stroke="white" stroke-width="1.5" d="M0,-3.0v7 M-2.5,-0.5L0,-3.0L2.5,-0.5"/>
  </g>
  <g id="arrowDown" transform="rotate(180) translate(-30 -48)">
    <use xlink:href="#rim"/>
    <path pointer-events="none" fill="none" stroke="white" stroke-width="1.5" d="M0,-3.0v7 M-2.5,-0.5L0,-3.0L2.5,-0.5"/>
  </g>
  <g id="arrowLeft" transform="rotate(270) translate(-36 17)">
    <use xlink:href="#rim"/>
    <path pointer-events="none" fill="none" stroke="white" stroke-width="1.5" d="M0,-3.0v7 M-2.5,-0.5L0,-3.0L2.5,-0.5"/>
  </g>
  <g id="resetDef">
    <use xlink:href="#rim2" fill="#404040"><set attributeName="fill" to="#808080" begin="reset.mouseover" end="reset.mouseout"/></use>
  </g>
</defs>
<script type="application/ecmascript">
var viewWidth = 1712;
var viewHeight = 423;
var sectionId = 'dynsection-0';
</script>
<script type="application/ecmascript" xlink:href="svg.min.js"/>
<svg id="graph" class="graph">
<g id="viewport">
<title>SocketHappyEyeballs&#45;private.h</title>
<!-- Node1 -->
<g id="Node000001" class="node">
<title>Node1</title>
<g id="a_Node000001"><a xlink:title="Internal structures and state for Happy Eyeballs connection racing (RFC 8305).">
<polygon fill="#999999" stroke="#666666" points="1394.5,-415 1281.5,-415 1281.5,-385 1394.5,-385 1394.5,-415"/>
<text text-anchor="start" x="1289.5" y="-403" font-family="Helvetica,sans-Serif" font-size="10.00">SocketHappyEyeballs</text>
<text text-anchor="middle" x="1338" y="-392" font-family="Helvetica,sans-Serif" font-size="10.00">&#45;private.h</text>
</a>
</g>
</g>
<!-- Node2 -->
<g id="Node000002" class="node">
<title>Node2</title>
<g id="a_Node000002"><a xlink:href="Arena_8h.html" target="_top" xlink:title="Arena&#45;based memory allocator for efficient bulk memory management.">
<polygon fill="white" stroke="#666666" points="618,-129 546,-129 546,-110 618,-110 618,-129"/>
<text text-anchor="middle" x="582" y="-117" font-family="Helvetica,sans-Serif" font-size="10.00">core/Arena.h</text>
</a>
</g>
</g>
<!-- Node1&#45;&gt;Node2 -->
<g id="edge1_Node000001_Node000002" class="edge">
<title>Node1&#45;&gt;Node2</title>
<g id="a_edge1_Node000001_Node000002"><a xlink:title=" ">
<path fill="none" stroke="#63b8ff" d="M1281.3,-395.96C1112.18,-386.16 623,-352.04 623,-285.5 623,-285.5 623,-285.5 623,-228.5 623,-194.57 605.09,-158.31 592.94,-137.62"/>
<polygon fill="#63b8ff" stroke="#63b8ff" points="595.9,-135.75 587.7,-129.04 589.93,-139.4 595.9,-135.75"/>
</a>
</g>
</g>
<!-- Node6 -->
<g id="Node000006" class="node">
<title>Node6</title>
<g id="a_Node000006"><a xlink:href="SocketDNS-private_8h.html" target="_top" xlink:title="Internal structures, enums, and prototypes for asynchronous DNS resolver implementation.">
<polygon fill="white" stroke="#666666" points="881,-239 753,-239 753,-220 881,-220 881,-239"/>
<text text-anchor="middle" x="817" y="-227" font-family="Helvetica,sans-Serif" font-size="10.00">dns/SocketDNS&#45;private.h</text>
</a>
</g>
</g>
<!-- Node1&#45;&gt;Node6 -->
<g id="edge5_Node000001_Node000006" class="edge">
<title>Node1&#45;&gt;Node6</title>
<g id="a_edge5_Node000001_Node000006"><a xlink:title=" ">
<path fill="none" stroke="#63b8ff" d="M1294.48,-384.92C1193.72,-352.34 945.95,-272.21 853,-242.14"/>
<polygon fill="#63b8ff" stroke="#63b8ff" points="854.07,-238.81 843.48,-239.06 851.91,-245.47 854.07,-238.81"/>
</a>
</g>
</g>
<!-- Node7 -->
<g id="Node000007" class="node">
<title>Node7</title>
<g id="a_Node000007"><a xlink:title=" ">
<polygon fill="#e0e0e0" stroke="#999999" points="1368.5,-129 1319.5,-129 1319.5,-110 1368.5,-110 1368.5,-129"/>
<text text-anchor="middle" x="1344" y="-117" font-family="Helvetica,sans-Serif" font-size="10.00">netdb.h</text>
</a>
</g>
</g>
<!-- Node1&#45;&gt;Node7 -->
<g id="edge72_Node000001_Node000007" class="edge">
<title>Node1&#45;&gt;Node7</title>
<g id="a_edge72_Node000001_Node000007"><a xlink:title=" ">
<path fill="none" stroke="#63b8ff" d="M1394.79,-393.29C1497.59,-381.36 1704,-349.45 1704,-285.5 1704,-285.5 1704,-285.5 1704,-228.5 1704,-190.58 1680.42,-182.93 1647,-165 1601.1,-140.37 1447.96,-127.37 1378.63,-122.63"/>
<polygon fill="#63b8ff" stroke="#63b8ff" points="1378.85,-119.14 1368.64,-121.97 1378.38,-126.12 1378.85,-119.14"/>
</a>
</g>
</g>
<!-- Node10 -->
<g id="Node000010" class="node">
<title>Node10</title>
<g id="a_Node000010"><a xlink:title=" ">
<polygon fill="#e0e0e0" stroke="#999999" points="1301.5,-129 1252.5,-129 1252.5,-110 1301.5,-110 1301.5,-129"/>
<text text-anchor="middle" x="1277" y="-117" font-family="Helvetica,sans-Serif" font-size="10.00">stdint.h</text>
</a>
</g>
</g>
<!-- Node1&#45;&gt;Node10 -->
<g id="edge73_Node000001_Node000010" class="edge">
<title>Node1&#45;&gt;Node10</title>
<g id="a_edge73_Node000001_Node000010"><a xlink:title=" ">
<path fill="none" stroke="#63b8ff" d="M1329.94,-384.82C1318.79,-363.82 1300,-322.9 1300,-285.5 1300,-285.5 1300,-285.5 1300,-228.5 1300,-196.34 1290.12,-159.95 1283.31,-138.69"/>
<polygon fill="#63b8ff" stroke="#63b8ff" points="1286.58,-137.43 1280.1,-129.05 1279.94,-139.64 1286.58,-137.43"/>
</a>
</g>
</g>
<!-- Node13 -->
<g id="Node000013" class="node">
<title>Node13</title>
<g id="a_Node000013"><a xlink:title=" ">
<polygon fill="#e0e0e0" stroke="#999999" points="48,-129 4,-129 4,-110 48,-110 48,-129"/>
<text text-anchor="middle" x="26" y="-117" font-family="Helvetica,sans-Serif" font-size="10.00">time.h</text>
</a>
</g>
</g>
<!-- Node1&#45;&gt;Node13 -->
<g id="edge74_Node000001_Node000013" class="edge">
<title>Node1&#45;&gt;Node13</title>
<g id="a_edge74_Node000001_Node000013"><a xlink:title=" ">
<path fill="none" stroke="#63b8ff" d="M1281.36,-397.21C1026.69,-388.8 0,-350.85 0,-285.5 0,-285.5 0,-285.5 0,-228.5 0,-196.15 11.17,-159.82 18.86,-138.62"/>
<polygon fill="#63b8ff" stroke="#63b8ff" points="22.23,-139.6 22.49,-129.01 15.68,-137.13 22.23,-139.6"/>
</a>
</g>
</g>
<!-- Node29 -->
<g id="Node000029" class="node">
<title>Node29</title>
<g id="a_Node000029"><a xlink:href="SocketDNS_8h.html" target="_top" xlink:title="Asynchronous DNS resolution API for non&#45;blocking network applications.">
<polygon fill="white" stroke="#666666" points="1442,-184 1346,-184 1346,-165 1442,-165 1442,-184"/>
<text text-anchor="middle" x="1394" y="-172" font-family="Helvetica,sans-Serif" font-size="10.00">dns/SocketDNS.h</text>
</a>
</g>
</g>
<!-- Node1&#45;&gt;Node29 -->
<g id="edge50_Node000001_Node000029" class="edge">
<title>Node1&#45;&gt;Node29</title>
<g id="a_edge50_Node000001_Node000029"><a xlink:title=" ">
<path fill="none" stroke="#63b8ff" d="M1336.81,-384.85C1334.74,-353.67 1332.8,-277.29 1357,-220 1361.47,-209.42 1369.32,-199.42 1376.65,-191.59"/>
<polygon fill="#63b8ff" stroke="#63b8ff" points="1379.35,-193.83 1383.93,-184.28 1374.39,-188.89 1379.35,-193.83"/>
</a>
</g>
</g>
<!-- Node30 -->
<g id="Node000030" class="node">
<title>Node30</title>
<g id="a_Node000030"><a xlink:href="SocketPoll_8h.html" target="_top" xlink:title="Cross&#45;platform high&#45;level interface for monitoring multiple sockets for I/O events.">
<polygon fill="white" stroke="#666666" points="1632,-294 1542,-294 1542,-275 1632,-275 1632,-294"/>
<text text-anchor="middle" x="1587" y="-282" font-family="Helvetica,sans-Serif" font-size="10.00">poll/SocketPoll.h</text>
</a>
</g>
</g>
<!-- Node1&#45;&gt;Node30 -->
<g id="edge56_Node000001_Node000030" class="edge">
<title>Node1&#45;&gt;Node30</title>
<g id="a_edge56_Node000001_Node000030"><a xlink:title=" ">
<path fill="none" stroke="#63b8ff" d="M1394.61,-393.29C1454.33,-386.14 1543.19,-371.98 1568,-349 1580.26,-337.65 1584.72,-318.75 1586.29,-304.51"/>
<polygon fill="#63b8ff" stroke="#63b8ff" points="1589.8,-304.55 1587.02,-294.33 1582.82,-304.05 1589.8,-304.55"/>
</a>
</g>
</g>
<!-- Node32 -->
<g id="Node000032" class="node">
<title>Node32</title>
<g id="a_Node000032"><a xlink:href="Socket_8h.html" target="_top" xlink:title="High&#45;level TCP/IP and Unix domain socket interface.">
<polygon fill="white" stroke="#666666" points="1454,-239 1366,-239 1366,-220 1454,-220 1454,-239"/>
<text text-anchor="middle" x="1410" y="-227" font-family="Helvetica,sans-Serif" font-size="10.00">socket/Socket.h</text>
</a>
</g>
</g>
<!-- Node1&#45;&gt;Node32 -->
<g id="edge66_Node000001_Node000032" class="edge">
<title>Node1&#45;&gt;Node32</title>
<g id="a_edge66_Node000001_Node000032"><a xlink:title=" ">
<path fill="none" stroke="#63b8ff" d="M1344.01,-384.92C1357.01,-354.52 1387.68,-282.73 1402.17,-248.83"/>
<polygon fill="#63b8ff" stroke="#63b8ff" points="1405.55,-249.83 1406.26,-239.25 1399.11,-247.08 1405.55,-249.83"/>
</a>
</g>
</g>
<!-- Node33 -->
<g id="Node000033" class="node">
<title>Node33</title>
<g id="a_Node000033"><a xlink:href="SocketHappyEyeballs_8h.html" target="_top" xlink:title="Happy Eyeballs (RFC 8305) implementation for fast dual&#45;stack connections.">
<polygon fill="white" stroke="#666666" points="1559,-349 1405,-349 1405,-330 1559,-330 1559,-349"/>
<text text-anchor="middle" x="1482" y="-337" font-family="Helvetica,sans-Serif" font-size="10.00">socket/SocketHappyEyeballs.h</text>
</a>
</g>
</g>
<!-- Node1&#45;&gt;Node33 -->
<g id="edge67_Node000001_Node000033" class="edge">
<title>Node1&#45;&gt;Node33</title>
<g id="a_edge67_Node000001_Node000033"><a xlink:title=" ">
<path fill="none" stroke="#63b8ff" d="M1372.49,-384.99C1396.52,-375.23 1428.27,-362.33 1451.4,-352.93"/>
<polygon fill="#63b8ff" stroke="#63b8ff" points="1452.79,-356.15 1460.73,-349.14 1450.15,-349.66 1452.79,-356.15"/>
</a>
</g>
</g>
<!-- Node3 -->
<g id="Node000003" class="node">
<title>Node3</title>
<g id="a_Node000003"><a xlink:title=" ">
<polygon fill="#e0e0e0" stroke="#999999" points="617,-74 565,-74 565,-55 617,-55 617,-74"/>
<text text-anchor="middle" x="591" y="-62" font-family="Helvetica,sans-Serif" font-size="10.00">stddef.h</text>
</a>
</g>
</g>
<!-- Node2&#45;&gt;Node3 -->
<g id="edge2_Node000002_Node000003" class="edge">
<title>Node2&#45;&gt;Node3</title>
<g id="a_edge2_Node000002_Node000003"><a xlink:title=" ">
<path fill="none" stroke="#63b8ff" d="M583.49,-109.75C584.67,-102.8 586.36,-92.85 587.84,-84.13"/>
<polygon fill="#63b8ff" stroke="#63b8ff" points="591.32,-84.53 589.54,-74.09 584.42,-83.36 591.32,-84.53"/>
</a>
</g>
</g>
<!-- Node4 -->
<g id="Node000004" class="node">
<title>Node4</title>
<g id="a_Node000004"><a xlink:href="Except_8h.html" target="_top" xlink:title="Structured exception handling for C with TRY/EXCEPT/FINALLY blocks.">
<polygon fill="white" stroke="#666666" points="1549.5,-74 1472.5,-74 1472.5,-55 1549.5,-55 1549.5,-74"/>
<text text-anchor="middle" x="1511" y="-62" font-family="Helvetica,sans-Serif" font-size="10.00">core/Except.h</text>
</a>
</g>
</g>
<!-- Node2&#45;&gt;Node4 -->
<g id="edge3_Node000002_Node000004" class="edge">
<title>Node2&#45;&gt;Node4</title>
<g id="a_edge3_Node000002_Node000004"><a xlink:title=" ">
<path fill="none" stroke="#63b8ff" d="M618.28,-111.21C621.23,-110.75 624.16,-110.34 627,-110 790.87,-90.49 1302.03,-72.39 1462.38,-67.07"/>
<polygon fill="#63b8ff" stroke="#63b8ff" points="1462.55,-70.57 1472.43,-66.74 1462.32,-63.57 1462.55,-70.57"/>
</a>
</g>
</g>
<!-- Node5 -->
<g id="Node000005" class="node">
<title>Node5</title>
<g id="a_Node000005"><a xlink:title=" ">
<polygon fill="#e0e0e0" stroke="#999999" points="1538,-19 1484,-19 1484,0 1538,0 1538,-19"/>
<text text-anchor="middle" x="1511" y="-7" font-family="Helvetica,sans-Serif" font-size="10.00">setjmp.h</text>
</a>
</g>
</g>
<!-- Node4&#45;&gt;Node5 -->
<g id="edge4_Node000004_Node000005" class="edge">
<title>Node4&#45;&gt;Node5</title>
<g id="a_edge4_Node000004_Node000005"><a xlink:title=" ">
<path fill="none" stroke="#63b8ff" d="M1511,-54.75C1511,-47.8 1511,-37.85 1511,-29.13"/>
<polygon fill="#63b8ff" stroke="#63b8ff" points="1514.5,-29.09 1511,-19.09 1507.5,-29.09 1514.5,-29.09"/>
</a>
</g>
</g>
<!-- Node6&#45;&gt;Node4 -->
<g id="edge14_Node000006_Node000004" class="edge">
<title>Node6&#45;&gt;Node4</title>
<g id="a_edge14_Node000006_Node000004"><a xlink:title=" ">
<path fill="none" stroke="#63b8ff" d="M881.27,-227.55C1033.02,-224.81 1404.35,-214.97 1451,-184 1485.78,-160.91 1501.38,-111.21 1507.53,-84.08"/>
<polygon fill="#63b8ff" stroke="#63b8ff" points="1510.96,-84.79 1509.56,-74.29 1504.1,-83.37 1510.96,-84.79"/>
</a>
</g>
</g>
<!-- Node6&#45;&gt;Node7 -->
<g id="edge6_Node000006_Node000007" class="edge">
<title>Node6&#45;&gt;Node7</title>
<g id="a_edge6_Node000006_Node000007"><a xlink:title=" ">
<path fill="none" stroke="#63b8ff" d="M881.06,-229.33C963.47,-228.66 1110.15,-221.55 1229,-184 1264.74,-172.71 1301.99,-149.74 1324.08,-134.74"/>
<polygon fill="#63b8ff" stroke="#63b8ff" points="1326.07,-137.62 1332.3,-129.05 1322.09,-131.87 1326.07,-137.62"/>
</a>
</g>
</g>
<!-- Node8 -->
<g id="Node000008" class="node">
<title>Node8</title>
<g id="a_Node000008"><a xlink:title=" ">
<polygon fill="#e0e0e0" stroke="#999999" points="693.5,-129 636.5,-129 636.5,-110 693.5,-110 693.5,-129"/>
<text text-anchor="middle" x="665" y="-117" font-family="Helvetica,sans-Serif" font-size="10.00">pthread.h</text>
</a>
</g>
</g>
<!-- Node6&#45;&gt;Node8 -->
<g id="edge7_Node000006_Node000008" class="edge">
<title>Node6&#45;&gt;Node8</title>
<g id="a_edge7_Node000006_Node000008"><a xlink:title=" ">
<path fill="none" stroke="#63b8ff" d="M804.82,-219.84C778.8,-201.36 717.58,-157.86 685.47,-135.05"/>
<polygon fill="#63b8ff" stroke="#63b8ff" points="687.42,-132.14 677.24,-129.2 683.36,-137.84 687.42,-132.14"/>
</a>
</g>
</g>
<!-- Node9 -->
<g id="Node000009" class="node">
<title>Node9</title>
<g id="a_Node000009"><a xlink:title=" ">
<polygon fill="#e0e0e0" stroke="#999999" points="768,-129 712,-129 712,-110 768,-110 768,-129"/>
<text text-anchor="middle" x="740" y="-117" font-family="Helvetica,sans-Serif" font-size="10.00">stdbool.h</text>
</a>
</g>
</g>
<!-- Node6&#45;&gt;Node9 -->
<g id="edge8_Node000006_Node000009" class="edge">
<title>Node6&#45;&gt;Node9</title>
<g id="a_edge8_Node000006_Node000009"><a xlink:title=" ">
<path fill="none" stroke="#63b8ff" d="M810.7,-219.66C797.89,-201.69 768.62,-160.64 752.04,-137.38"/>
<polygon fill="#63b8ff" stroke="#63b8ff" points="754.83,-135.27 746.17,-129.16 749.13,-139.33 754.83,-135.27"/>
</a>
</g>
</g>
<!-- Node6&#45;&gt;Node10 -->
<g id="edge9_Node000006_Node000010" class="edge">
<title>Node6&#45;&gt;Node10</title>
<g id="a_edge9_Node000006_Node000010"><a xlink:title=" ">
<path fill="none" stroke="#63b8ff" d="M881.23,-225.44C974.95,-220.22 1144.11,-207.8 1200,-184 1225.02,-173.34 1248.3,-151.89 1262.57,-136.88"/>
<polygon fill="#63b8ff" stroke="#63b8ff" points="1265.34,-139.04 1269.53,-129.31 1260.18,-134.31 1265.34,-139.04"/>
</a>
</g>
</g>
<!-- Node11 -->
<g id="Node000011" class="node">
<title>Node11</title>
<g id="a_Node000011"><a xlink:title=" ">
<polygon fill="#e0e0e0" stroke="#999999" points="1124.5,-74 1051.5,-74 1051.5,-55 1124.5,-55 1124.5,-74"/>
<text text-anchor="middle" x="1088" y="-62" font-family="Helvetica,sans-Serif" font-size="10.00">sys/socket.h</text>
</a>
</g>
</g>
<!-- Node6&#45;&gt;Node11 -->
<g id="edge10_Node000006_Node000011" class="edge">
<title>Node6&#45;&gt;Node11</title>
<g id="a_edge10_Node000006_Node000011"><a xlink:title=" ">
<path fill="none" stroke="#63b8ff" d="M878.85,-219.99C969.82,-206.04 1132.65,-175.19 1167,-129 1182.97,-107.53 1152.09,-89.16 1124.38,-77.78"/>
<polygon fill="#63b8ff" stroke="#63b8ff" points="1125.39,-74.42 1114.8,-74.06 1122.85,-80.94 1125.39,-74.42"/>
</a>
</g>
</g>
<!-- Node12 -->
<g id="Node000012" class="node">
<title>Node12</title>
<g id="a_Node000012"><a xlink:title=" ">
<polygon fill="#e0e0e0" stroke="#999999" points="848,-129 786,-129 786,-110 848,-110 848,-129"/>
<text text-anchor="middle" x="817" y="-117" font-family="Helvetica,sans-Serif" font-size="10.00">sys/time.h</text>
</a>
</g>
</g>
<!-- Node6&#45;&gt;Node12 -->
<g id="edge11_Node000006_Node000012" class="edge">
<title>Node6&#45;&gt;Node12</title>
<g id="a_edge11_Node000006_Node000012"><a xlink:title=" ">
<path fill="none" stroke="#63b8ff" d="M817,-219.66C817,-202.17 817,-162.8 817,-139.27"/>
<polygon fill="#63b8ff" stroke="#63b8ff" points="820.5,-139.16 817,-129.16 813.5,-139.16 820.5,-139.16"/>
</a>
</g>
</g>
<!-- Node6&#45;&gt;Node13 -->
<g id="edge12_Node000006_Node000013" class="edge">
<title>Node6&#45;&gt;Node13</title>
<g id="a_edge12_Node000006_Node000013"><a xlink:title=" ">
<path fill="none" stroke="#63b8ff" d="M752.82,-228.2C581.04,-226.9 119.89,-220.05 62,-184 45.9,-173.97 36.32,-153.97 31.14,-139.07"/>
<polygon fill="#63b8ff" stroke="#63b8ff" points="34.43,-137.86 28.11,-129.35 27.74,-139.94 34.43,-137.86"/>
</a>
</g>
</g>
<!-- Node14 -->
<g id="Node000014" class="node">
<title>Node14</title>
<g id="a_Node000014"><a xlink:title=" ">
<polygon fill="#e0e0e0" stroke="#999999" points="103.5,-74 52.5,-74 52.5,-55 103.5,-55 103.5,-74"/>
<text text-anchor="middle" x="78" y="-62" font-family="Helvetica,sans-Serif" font-size="10.00">unistd.h</text>
</a>
</g>
</g>
<!-- Node6&#45;&gt;Node14 -->
<g id="edge13_Node000006_Node000014" class="edge">
<title>Node6&#45;&gt;Node14</title>
<g id="a_edge13_Node000006_Node000014"><a xlink:title=" ">
<path fill="none" stroke="#63b8ff" d="M752.94,-226.66C657.31,-223.05 471.89,-212.7 317,-184 229.3,-167.75 197.07,-180.15 124,-129 107.33,-117.33 94.44,-97.63 86.6,-83.27"/>
<polygon fill="#63b8ff" stroke="#63b8ff" points="89.69,-81.62 82,-74.33 83.47,-84.83 89.69,-81.62"/>
</a>
</g>
</g>
<!-- Node15 -->
<g id="Node000015" class="node">
<title>Node15</title>
<g id="a_Node000015"><a xlink:href="SocketConfig_8h.html" target="_top" xlink:title="Compile&#45;time and runtime configuration constants, limits, and platform adaptations.">
<polygon fill="white" stroke="#666666" points="354,-129 248,-129 248,-110 354,-110 354,-129"/>
<text text-anchor="middle" x="301" y="-117" font-family="Helvetica,sans-Serif" font-size="10.00">core/SocketConfig.h</text>
</a>
</g>
</g>
<!-- Node6&#45;&gt;Node15 -->
<g id="edge15_Node000006_Node000015" class="edge">
<title>Node6&#45;&gt;Node15</title>
<g id="a_edge15_Node000006_Node000015"><a xlink:title=" ">
<path fill="none" stroke="#63b8ff" d="M752.8,-225.79C630.28,-220.15 372.19,-205.82 338,-184 321.9,-173.73 311.98,-153.76 306.51,-138.95"/>
<polygon fill="#63b8ff" stroke="#63b8ff" points="309.78,-137.67 303.3,-129.28 303.14,-139.88 309.78,-137.67"/>
</a>
</g>
</g>
<!-- Node22 -->
<g id="Node000022" class="node">
<title>Node22</title>
<g id="a_Node000022"><a xlink:href="SocketUtil_8h.html" target="_top" xlink:title="Consolidated utility header for logging, metrics, events, and error handling.">
<polygon fill="white" stroke="#666666" points="497,-184 405,-184 405,-165 497,-165 497,-184"/>
<text text-anchor="middle" x="451" y="-172" font-family="Helvetica,sans-Serif" font-size="10.00">core/SocketUtil.h</text>
</a>
</g>
</g>
<!-- Node6&#45;&gt;Node22 -->
<g id="edge25_Node000006_Node000022" class="edge">
<title>Node6&#45;&gt;Node22</title>
<g id="a_edge25_Node000006_Node000022"><a xlink:title=" ">
<path fill="none" stroke="#63b8ff" d="M758.2,-219.98C689.1,-209.98 575.27,-193.5 507.29,-183.65"/>
<polygon fill="#63b8ff" stroke="#63b8ff" points="507.59,-180.16 497.19,-182.19 506.59,-187.09 507.59,-180.16"/>
</a>
</g>
</g>
<!-- Node26 -->
<g id="Node000026" class="node">
<title>Node26</title>
<g id="a_Node000026"><a xlink:href="SocketCommon_8h.html" target="_top" xlink:title="Common utilities shared between Socket and SocketDgram modules.">
<polygon fill="white" stroke="#666666" points="975,-184 847,-184 847,-165 975,-165 975,-184"/>
<text text-anchor="middle" x="911" y="-172" font-family="Helvetica,sans-Serif" font-size="10.00">socket/SocketCommon.h</text>
</a>
</g>
</g>
<!-- Node6&#45;&gt;Node26 -->
<g id="edge37_Node000006_Node000026" class="edge">
<title>Node6&#45;&gt;Node26</title>
<g id="a_edge37_Node000006_Node000026"><a xlink:title=" ">
<path fill="none" stroke="#63b8ff" d="M832.1,-219.98C846.82,-211.69 869.42,-198.94 886.67,-189.22"/>
<polygon fill="#63b8ff" stroke="#63b8ff" points="888.63,-192.13 895.62,-184.17 885.19,-186.03 888.63,-192.13"/>
</a>
</g>
</g>
<!-- Node15&#45;&gt;Node3 -->
<g id="edge20_Node000015_Node000003" class="edge">
<title>Node15&#45;&gt;Node3</title>
<g id="a_edge20_Node000015_Node000003"><a xlink:title=" ">
<path fill="none" stroke="#63b8ff" d="M354.2,-110.11C403.49,-102.12 479.09,-89.35 554.53,-73.98"/>
<polygon fill="#63b8ff" stroke="#63b8ff" points="555.6,-77.34 564.69,-71.9 554.19,-70.48 555.6,-77.34"/>
</a>
</g>
</g>
<!-- Node15&#45;&gt;Node11 -->
<g id="edge22_Node000015_Node000011" class="edge">
<title>Node15&#45;&gt;Node11</title>
<g id="a_edge22_Node000015_Node000011"><a xlink:title=" ">
<path fill="none" stroke="#63b8ff" d="M354.07,-110.96C357.09,-110.61 360.08,-110.29 363,-110 618.25,-84.71 925.57,-71.51 1041.08,-67.16"/>
<polygon fill="#63b8ff" stroke="#63b8ff" points="1041.47,-70.65 1051.33,-66.78 1041.21,-63.65 1041.47,-70.65"/>
</a>
</g>
</g>
<!-- Node15&#45;&gt;Node14 -->
<g id="edge24_Node000015_Node000014" class="edge">
<title>Node15&#45;&gt;Node14</title>
<g id="a_edge24_Node000015_Node000014"><a xlink:title=" ">
<path fill="none" stroke="#63b8ff" d="M265.17,-109.98C223.52,-100.08 155.18,-83.84 113.62,-73.97"/>
<polygon fill="#63b8ff" stroke="#63b8ff" points="114.2,-70.51 103.66,-71.6 112.58,-77.32 114.2,-70.51"/>
</a>
</g>
</g>
<!-- Node16 -->
<g id="Node000016" class="node">
<title>Node16</title>
<g id="a_Node000016"><a xlink:title=" ">
<polygon fill="#e0e0e0" stroke="#999999" points="171.5,-74 124.5,-74 124.5,-55 171.5,-55 171.5,-74"/>
<text text-anchor="middle" x="148" y="-62" font-family="Helvetica,sans-Serif" font-size="10.00">errno.h</text>
</a>
</g>
</g>
<!-- Node15&#45;&gt;Node16 -->
<g id="edge16_Node000015_Node000016" class="edge">
<title>Node15&#45;&gt;Node16</title>
<g id="a_edge16_Node000015_Node000016"><a xlink:title=" ">
<path fill="none" stroke="#63b8ff" d="M276.42,-109.98C250.58,-101.03 209.77,-86.9 181.1,-76.97"/>
<polygon fill="#63b8ff" stroke="#63b8ff" points="182.11,-73.61 171.52,-73.65 179.82,-80.23 182.11,-73.61"/>
</a>
</g>
</g>
<!-- Node17 -->
<g id="Node000017" class="node">
<title>Node17</title>
<g id="a_Node000017"><a xlink:title=" ">
<polygon fill="#e0e0e0" stroke="#999999" points="463,-74 419,-74 419,-55 463,-55 463,-74"/>
<text text-anchor="middle" x="441" y="-62" font-family="Helvetica,sans-Serif" font-size="10.00">fcntl.h</text>
</a>
</g>
</g>
<!-- Node15&#45;&gt;Node17 -->
<g id="edge17_Node000015_Node000017" class="edge">
<title>Node15&#45;&gt;Node17</title>
<g id="a_edge17_Node000015_Node000017"><a xlink:title=" ">
<path fill="none" stroke="#63b8ff" d="M323.49,-109.98C346.66,-101.21 382.97,-87.47 409.1,-77.58"/>
<polygon fill="#63b8ff" stroke="#63b8ff" points="410.45,-80.81 418.56,-73.99 407.97,-74.26 410.45,-80.81"/>
</a>
</g>
</g>
<!-- Node18 -->
<g id="Node000018" class="node">
<title>Node18</title>
<g id="a_Node000018"><a xlink:title=" ">
<polygon fill="#e0e0e0" stroke="#999999" points="546.5,-74 481.5,-74 481.5,-55 546.5,-55 546.5,-74"/>
<text text-anchor="middle" x="514" y="-62" font-family="Helvetica,sans-Serif" font-size="10.00">netinet/in.h</text>
</a>
</g>
</g>
<!-- Node15&#45;&gt;Node18 -->
<g id="edge18_Node000015_Node000018" class="edge">
<title>Node15&#45;&gt;Node18</title>
<g id="a_edge18_Node000015_Node000018"><a xlink:title=" ">
<path fill="none" stroke="#63b8ff" d="M335.22,-109.98C372.3,-100.76 431.5,-86.03 471.53,-76.07"/>
<polygon fill="#63b8ff" stroke="#63b8ff" points="472.4,-79.46 481.26,-73.65 470.71,-72.66 472.4,-79.46"/>
</a>
</g>
</g>
<!-- Node19 -->
<g id="Node000019" class="node">
<title>Node19</title>
<g id="a_Node000019"><a xlink:title=" ">
<polygon fill="#e0e0e0" stroke="#999999" points="326.5,-74 255.5,-74 255.5,-55 326.5,-55 326.5,-74"/>
<text text-anchor="middle" x="291" y="-62" font-family="Helvetica,sans-Serif" font-size="10.00">netinet/tcp.h</text>
</a>
</g>
</g>
<!-- Node15&#45;&gt;Node19 -->
<g id="edge19_Node000015_Node000019" class="edge">
<title>Node15&#45;&gt;Node19</title>
<g id="a_edge19_Node000015_Node000019"><a xlink:title=" ">
<path fill="none" stroke="#63b8ff" d="M299.35,-109.75C298.04,-102.8 296.16,-92.85 294.52,-84.13"/>
<polygon fill="#63b8ff" stroke="#63b8ff" points="297.91,-83.27 292.62,-74.09 291.04,-84.56 297.91,-83.27"/>
</a>
</g>
</g>
<!-- Node20 -->
<g id="Node000020" class="node">
<title>Node20</title>
<g id="a_Node000020"><a xlink:title=" ">
<polygon fill="#e0e0e0" stroke="#999999" points="237,-74 191,-74 191,-55 237,-55 237,-74"/>
<text text-anchor="middle" x="214" y="-62" font-family="Helvetica,sans-Serif" font-size="10.00">stdio.h</text>
</a>
</g>
</g>
<!-- Node15&#45;&gt;Node20 -->
<g id="edge21_Node000015_Node000020" class="edge">
<title>Node15&#45;&gt;Node20</title>
<g id="a_edge21_Node000015_Node000020"><a xlink:title=" ">
<path fill="none" stroke="#63b8ff" d="M287.02,-109.98C273.53,-101.77 252.87,-89.18 236.96,-79.49"/>
<polygon fill="#63b8ff" stroke="#63b8ff" points="238.59,-76.38 228.23,-74.17 234.95,-82.36 238.59,-76.38"/>
</a>
</g>
</g>
<!-- Node21 -->
<g id="Node000021" class="node">
<title>Node21</title>
<g id="a_Node000021"><a xlink:title=" ">
<polygon fill="#e0e0e0" stroke="#999999" points="401,-74 345,-74 345,-55 401,-55 401,-74"/>
<text text-anchor="middle" x="373" y="-62" font-family="Helvetica,sans-Serif" font-size="10.00">sys/uio.h</text>
</a>
</g>
</g>
<!-- Node15&#45;&gt;Node21 -->
<g id="edge23_Node000015_Node000021" class="edge">
<title>Node15&#45;&gt;Node21</title>
<g id="a_edge23_Node000015_Node000021"><a xlink:title=" ">
<path fill="none" stroke="#63b8ff" d="M312.57,-109.98C323.42,-102 339.88,-89.88 352.88,-80.31"/>
<polygon fill="#63b8ff" stroke="#63b8ff" points="355.24,-82.92 361.22,-74.17 351.09,-77.28 355.24,-82.92"/>
</a>
</g>
</g>
<!-- Node22&#45;&gt;Node2 -->
<g id="edge34_Node000022_Node000002" class="edge">
<title>Node22&#45;&gt;Node2</title>
<g id="a_edge34_Node000022_Node000002"><a xlink:title=" ">
<path fill="none" stroke="#63b8ff" d="M472.05,-164.98C493.41,-156.34 526.7,-142.87 551.06,-133.02"/>
<polygon fill="#63b8ff" stroke="#63b8ff" points="552.61,-136.17 560.57,-129.17 549.99,-129.68 552.61,-136.17"/>
</a>
</g>
</g>
<!-- Node22&#45;&gt;Node3 -->
<g id="edge29_Node000022_Node000003" class="edge">
<title>Node22&#45;&gt;Node3</title>
<g id="a_edge29_Node000022_Node000003"><a xlink:title=" ">
<path fill="none" stroke="#63b8ff" d="M462.46,-164.66C486.47,-146.14 542.29,-103.08 571.85,-80.28"/>
<polygon fill="#63b8ff" stroke="#63b8ff" points="574,-83.04 579.78,-74.16 569.72,-77.5 574,-83.04"/>
</a>
</g>
</g>
<!-- Node22&#45;&gt;Node4 -->
<g id="edge35_Node000022_Node000004" class="edge">
<title>Node22&#45;&gt;Node4</title>
<g id="a_edge35_Node000022_Node000004"><a xlink:title=" ">
<path fill="none" stroke="#63b8ff" d="M497.3,-168.66C572.71,-160.72 726.71,-144.28 857,-129 924.62,-121.07 941.3,-117.23 1009,-110 1174.91,-92.28 1372.2,-76.27 1462.06,-69.25"/>
<polygon fill="#63b8ff" stroke="#63b8ff" points="1462.52,-72.73 1472.22,-68.46 1461.98,-65.75 1462.52,-72.73"/>
</a>
</g>
</g>
<!-- Node22&#45;&gt;Node10 -->
<g id="edge30_Node000022_Node000010" class="edge">
<title>Node22&#45;&gt;Node10</title>
<g id="a_edge30_Node000022_Node000010"><a xlink:title=" ">
<path fill="none" stroke="#63b8ff" d="M497.09,-170.88C610.86,-164.35 914.16,-146.62 1167,-129 1192.12,-127.25 1220.46,-125.05 1242.08,-123.33"/>
<polygon fill="#63b8ff" stroke="#63b8ff" points="1242.42,-126.82 1252.11,-122.53 1241.86,-119.84 1242.42,-126.82"/>
</a>
</g>
</g>
<!-- Node22&#45;&gt;Node13 -->
<g id="edge33_Node000022_Node000013" class="edge">
<title>Node22&#45;&gt;Node13</title>
<g id="a_edge33_Node000022_Node000013"><a xlink:title=" ">
<path fill="none" stroke="#63b8ff" d="M404.71,-167.73C317.97,-156.91 133.01,-133.84 58.3,-124.53"/>
<polygon fill="#63b8ff" stroke="#63b8ff" points="58.46,-121.02 48.1,-123.26 57.59,-127.97 58.46,-121.02"/>
</a>
</g>
</g>
<!-- Node22&#45;&gt;Node15 -->
<g id="edge36_Node000022_Node000015" class="edge">
<title>Node22&#45;&gt;Node15</title>
<g id="a_edge36_Node000022_Node000015"><a xlink:title=" ">
<path fill="none" stroke="#63b8ff" d="M426.9,-164.98C402.12,-156.23 363.3,-142.51 335.31,-132.62"/>
<polygon fill="#63b8ff" stroke="#63b8ff" points="336.13,-129.2 325.54,-129.17 333.8,-135.8 336.13,-129.2"/>
</a>
</g>
</g>
<!-- Node22&#45;&gt;Node16 -->
<g id="edge26_Node000022_Node000016" class="edge">
<title>Node22&#45;&gt;Node16</title>
<g id="a_edge26_Node000022_Node000016"><a xlink:title=" ">
<path fill="none" stroke="#63b8ff" d="M404.79,-174.12C325.26,-174.09 167.66,-168.85 133,-129 121.89,-116.22 128.87,-96.71 136.6,-82.69"/>
<polygon fill="#63b8ff" stroke="#63b8ff" points="139.67,-84.38 141.86,-74.01 133.69,-80.75 139.67,-84.38"/>
</a>
</g>
</g>
<!-- Node22&#45;&gt;Node20 -->
<g id="edge31_Node000022_Node000020" class="edge">
<title>Node22&#45;&gt;Node20</title>
<g id="a_edge31_Node000022_Node000020"><a xlink:title=" ">
<path fill="none" stroke="#63b8ff" d="M404.53,-168.9C349.9,-162.63 263.57,-149.75 239,-129 225.86,-117.9 219.58,-98.97 216.61,-84.65"/>
<polygon fill="#63b8ff" stroke="#63b8ff" points="219.99,-83.68 214.87,-74.41 213.09,-84.85 219.99,-83.68"/>
</a>
</g>
</g>
<!-- Node23 -->
<g id="Node000023" class="node">
<title>Node23</title>
<g id="a_Node000023"><a xlink:title=" ">
<polygon fill="#e0e0e0" stroke="#999999" points="420,-129 372,-129 372,-110 420,-110 420,-129"/>
<text text-anchor="middle" x="396" y="-117" font-family="Helvetica,sans-Serif" font-size="10.00">limits.h</text>
</a>
</g>
</g>
<!-- Node22&#45;&gt;Node23 -->
<g id="edge27_Node000022_Node000023" class="edge">
<title>Node22&#45;&gt;Node23</title>
<g id="a_edge27_Node000022_Node000023"><a xlink:title=" ">
<path fill="none" stroke="#63b8ff" d="M441.92,-164.75C433.91,-157.03 422.04,-145.6 412.38,-136.28"/>
<polygon fill="#63b8ff" stroke="#63b8ff" points="414.54,-133.51 404.91,-129.09 409.69,-138.55 414.54,-133.51"/>
</a>
</g>
</g>
<!-- Node24 -->
<g id="Node000024" class="node">
<title>Node24</title>
<g id="a_Node000024"><a xlink:title=" ">
<polygon fill="#e0e0e0" stroke="#999999" points="490,-129 438,-129 438,-110 490,-110 490,-129"/>
<text text-anchor="middle" x="464" y="-117" font-family="Helvetica,sans-Serif" font-size="10.00">stdarg.h</text>
</a>
</g>
</g>
<!-- Node22&#45;&gt;Node24 -->
<g id="edge28_Node000022_Node000024" class="edge">
<title>Node22&#45;&gt;Node24</title>
<g id="a_edge28_Node000022_Node000024"><a xlink:title=" ">
<path fill="none" stroke="#63b8ff" d="M453.15,-164.75C454.87,-157.72 457.35,-147.62 459.5,-138.84"/>
<polygon fill="#63b8ff" stroke="#63b8ff" points="462.91,-139.63 461.89,-129.09 456.11,-137.97 462.91,-139.63"/>
</a>
</g>
</g>
<!-- Node25 -->
<g id="Node000025" class="node">
<title>Node25</title>
<g id="a_Node000025"><a xlink:title=" ">
<polygon fill="#e0e0e0" stroke="#999999" points="191.5,-129 142.5,-129 142.5,-110 191.5,-110 191.5,-129"/>
<text text-anchor="middle" x="167" y="-117" font-family="Helvetica,sans-Serif" font-size="10.00">string.h</text>
</a>
</g>
</g>
<!-- Node22&#45;&gt;Node25 -->
<g id="edge32_Node000022_Node000025" class="edge">
<title>Node22&#45;&gt;Node25</title>
<g id="a_edge32_Node000022_Node000025"><a xlink:title=" ">
<path fill="none" stroke="#63b8ff" d="M404.85,-165.61C355.53,-157.07 275.1,-142.8 206,-129 204.56,-128.71 203.08,-128.41 201.6,-128.11"/>
<polygon fill="#63b8ff" stroke="#63b8ff" points="202.24,-124.66 191.73,-126.03 200.79,-131.51 202.24,-124.66"/>
</a>
</g>
</g>
<!-- Node26&#45;&gt;Node2 -->
<g id="edge47_Node000026_Node000002" class="edge">
<title>Node26&#45;&gt;Node2</title>
<g id="a_edge47_Node000026_Node000002"><a xlink:title=" ">
<path fill="none" stroke="#63b8ff" d="M853.26,-164.99C798,-156.73 712.05,-143.56 628.27,-129.18"/>
<polygon fill="#63b8ff" stroke="#63b8ff" points="628.78,-125.71 618.33,-127.46 627.59,-132.61 628.78,-125.71"/>
</a>
</g>
</g>
<!-- Node26&#45;&gt;Node4 -->
<g id="edge48_Node000026_Node000004" class="edge">
<title>Node26&#45;&gt;Node4</title>
<g id="a_edge48_Node000026_Node000004"><a xlink:title=" ">
<path fill="none" stroke="#63b8ff" d="M966.64,-164.98C1018.65,-156.74 1098.35,-143.42 1167,-129 1201.5,-121.76 1209.48,-117.12 1244,-110 1319.88,-94.34 1408.77,-80.39 1462.44,-72.45"/>
<polygon fill="#63b8ff" stroke="#63b8ff" points="1462.98,-75.91 1472.36,-70.99 1461.96,-68.98 1462.98,-75.91"/>
</a>
</g>
</g>
<!-- Node26&#45;&gt;Node7 -->
<g id="edge41_Node000026_Node000007" class="edge">
<title>Node26&#45;&gt;Node7</title>
<g id="a_edge41_Node000026_Node000007"><a xlink:title=" ">
<path fill="none" stroke="#63b8ff" d="M975.14,-169.17C1052.39,-163.33 1186.19,-151.22 1309.24,-129.1"/>
<polygon fill="#63b8ff" stroke="#63b8ff" points="1310.01,-132.52 1319.22,-127.28 1308.75,-125.64 1310.01,-132.52"/>
</a>
</g>
</g>
<!-- Node26&#45;&gt;Node8 -->
<g id="edge38_Node000026_Node000008" class="edge">
<title>Node26&#45;&gt;Node8</title>
<g id="a_edge38_Node000026_Node000008"><a xlink:title=" ">
<path fill="none" stroke="#63b8ff" d="M870.71,-165C830.84,-156.56 767.79,-143.14 703.53,-129.1"/>
<polygon fill="#63b8ff" stroke="#63b8ff" points="704.14,-125.65 693.63,-126.93 702.65,-132.49 704.14,-125.65"/>
</a>
</g>
</g>
<!-- Node26&#45;&gt;Node9 -->
<g id="edge39_Node000026_Node000009" class="edge">
<title>Node26&#45;&gt;Node9</title>
<g id="a_edge39_Node000026_Node000009"><a xlink:title=" ">
<path fill="none" stroke="#63b8ff" d="M883.53,-164.98C854.82,-156.09 809.58,-142.07 777.58,-132.15"/>
<polygon fill="#63b8ff" stroke="#63b8ff" points="778.28,-128.7 767.69,-129.08 776.2,-135.39 778.28,-128.7"/>
</a>
</g>
</g>
<!-- Node26&#45;&gt;Node11 -->
<g id="edge43_Node000026_Node000011" class="edge">
<title>Node26&#45;&gt;Node11</title>
<g id="a_edge43_Node000026_Node000011"><a xlink:title=" ">
<path fill="none" stroke="#63b8ff" d="M923.84,-164.82C942.41,-152.34 977.95,-128.78 1009,-110 1026.85,-99.21 1047.38,-87.66 1063.04,-79.04"/>
<polygon fill="#63b8ff" stroke="#63b8ff" points="1065.01,-81.96 1072.1,-74.08 1061.64,-75.82 1065.01,-81.96"/>
</a>
</g>
</g>
<!-- Node26&#45;&gt;Node12 -->
<g id="edge44_Node000026_Node000012" class="edge">
<title>Node26&#45;&gt;Node12</title>
<g id="a_edge44_Node000026_Node000012"><a xlink:title=" ">
<path fill="none" stroke="#63b8ff" d="M895.9,-164.98C881.18,-156.69 858.58,-143.94 841.33,-134.22"/>
<polygon fill="#63b8ff" stroke="#63b8ff" points="842.81,-131.03 832.38,-129.17 839.37,-137.13 842.81,-131.03"/>
</a>
</g>
</g>
<!-- Node26&#45;&gt;Node15 -->
<g id="edge49_Node000026_Node000015" class="edge">
<title>Node26&#45;&gt;Node15</title>
<g id="a_edge49_Node000026_Node000015"><a xlink:title=" ">
<path fill="none" stroke="#63b8ff" d="M846.77,-169.44C746.16,-162.82 545.03,-148.57 364.04,-129.06"/>
<polygon fill="#63b8ff" stroke="#63b8ff" points="364.4,-125.57 354.08,-127.97 363.64,-132.53 364.4,-125.57"/>
</a>
</g>
</g>
<!-- Node26&#45;&gt;Node17 -->
<g id="edge40_Node000026_Node000017" class="edge">
<title>Node26&#45;&gt;Node17</title>
<g id="a_edge40_Node000026_Node000017"><a xlink:title=" ">
<path fill="none" stroke="#63b8ff" d="M906.45,-164.64C898.57,-150.31 880.88,-122.42 857,-110 783.37,-71.7 571.69,-88.18 473.26,-73.75"/>
<polygon fill="#63b8ff" stroke="#63b8ff" points="473.68,-70.27 463.24,-72.1 472.54,-77.18 473.68,-70.27"/>
</a>
</g>
</g>
<!-- Node26&#45;&gt;Node18 -->
<g id="edge42_Node000026_Node000018" class="edge">
<title>Node26&#45;&gt;Node18</title>
<g id="a_edge42_Node000026_Node000018"><a xlink:title=" ">
<path fill="none" stroke="#63b8ff" d="M910.92,-164.9C910.27,-150.94 906.8,-123.57 890,-110 834.14,-64.88 644.96,-83.82 556.52,-73.73"/>
<polygon fill="#63b8ff" stroke="#63b8ff" points="556.88,-70.24 546.51,-72.39 555.95,-77.18 556.88,-70.24"/>
</a>
</g>
</g>
<!-- Node27 -->
<g id="Node000027" class="node">
<title>Node27</title>
<g id="a_Node000027"><a xlink:title=" ">
<polygon fill="#e0e0e0" stroke="#999999" points="1086,-129 1018,-129 1018,-110 1086,-110 1086,-129"/>
<text text-anchor="middle" x="1052" y="-117" font-family="Helvetica,sans-Serif" font-size="10.00">sys/types.h</text>
</a>
</g>
</g>
<!-- Node26&#45;&gt;Node27 -->
<g id="edge45_Node000026_Node000027" class="edge">
<title>Node26&#45;&gt;Node27</title>
<g id="a_edge45_Node000026_Node000027"><a xlink:title=" ">
<path fill="none" stroke="#63b8ff" d="M933.65,-164.98C956.85,-156.27 993.12,-142.63 1019.4,-132.75"/>
<polygon fill="#63b8ff" stroke="#63b8ff" points="1020.8,-135.97 1028.93,-129.17 1018.34,-129.41 1020.8,-135.97"/>
</a>
</g>
</g>
<!-- Node28 -->
<g id="Node000028" class="node">
<title>Node28</title>
<g id="a_Node000028"><a xlink:title=" ">
<polygon fill="#e0e0e0" stroke="#999999" points="1158,-129 1104,-129 1104,-110 1158,-110 1158,-129"/>
<text text-anchor="middle" x="1131" y="-117" font-family="Helvetica,sans-Serif" font-size="10.00">sys/un.h</text>
</a>
</g>
</g>
<!-- Node26&#45;&gt;Node28 -->
<g id="edge46_Node000026_Node000028" class="edge">
<title>Node26&#45;&gt;Node28</title>
<g id="a_edge46_Node000026_Node000028"><a xlink:title=" ">
<path fill="none" stroke="#63b8ff" d="M946.35,-164.98C986.77,-155.25 1052.66,-139.37 1093.83,-129.46"/>
<polygon fill="#63b8ff" stroke="#63b8ff" points="1094.83,-132.81 1103.73,-127.07 1093.19,-126.01 1094.83,-132.81"/>
</a>
</g>
</g>
<!-- Node29&#45;&gt;Node3 -->
<g id="edge53_Node000029_Node000003" class="edge">
<title>Node29&#45;&gt;Node3</title>
<g id="a_edge53_Node000029_Node000003"><a xlink:title=" ">
<path fill="none" stroke="#63b8ff" d="M1394.72,-164.87C1395.36,-150.88 1394.31,-123.46 1378,-110 1348.73,-85.83 778.78,-70.12 627.56,-66.37"/>
<polygon fill="#63b8ff" stroke="#63b8ff" points="627.5,-62.87 617.41,-66.12 627.33,-69.87 627.5,-62.87"/>
</a>
</g>
</g>
<!-- Node29&#45;&gt;Node4 -->
<g id="edge51_Node000029_Node000004" class="edge">
<title>Node29&#45;&gt;Node4</title>
<g id="a_edge51_Node000029_Node000004"><a xlink:title=" ">
<path fill="none" stroke="#63b8ff" d="M1405.7,-164.67C1417.07,-155.96 1434.65,-142.07 1449,-129 1465.98,-113.53 1484.21,-94.55 1496.47,-81.39"/>
<polygon fill="#63b8ff" stroke="#63b8ff" points="1499.06,-83.75 1503.27,-74.03 1493.91,-79 1499.06,-83.75"/>
</a>
</g>
</g>
<!-- Node29&#45;&gt;Node7 -->
<g id="edge52_Node000029_Node000007" class="edge">
<title>Node29&#45;&gt;Node7</title>
<g id="a_edge52_Node000029_Node000007"><a xlink:title=" ">
<path fill="none" stroke="#63b8ff" d="M1385.74,-164.75C1378.54,-157.11 1367.89,-145.82 1359.15,-136.56"/>
<polygon fill="#63b8ff" stroke="#63b8ff" points="1361.51,-133.96 1352.1,-129.09 1356.42,-138.76 1361.51,-133.96"/>
</a>
</g>
</g>
<!-- Node29&#45;&gt;Node10 -->
<g id="edge54_Node000029_Node000010" class="edge">
<title>Node29&#45;&gt;Node10</title>
<g id="a_edge54_Node000029_Node000010"><a xlink:title=" ">
<path fill="none" stroke="#63b8ff" d="M1375.2,-164.98C1356.38,-156.46 1327.18,-143.23 1305.5,-133.41"/>
<polygon fill="#63b8ff" stroke="#63b8ff" points="1306.69,-130.11 1296.14,-129.17 1303.8,-136.48 1306.69,-130.11"/>
</a>
</g>
</g>
<!-- Node29&#45;&gt;Node11 -->
<g id="edge55_Node000029_Node000011" class="edge">
<title>Node29&#45;&gt;Node11</title>
<g id="a_edge55_Node000029_Node000011"><a xlink:title=" ">
<path fill="none" stroke="#63b8ff" d="M1400.86,-164.57C1410.3,-151.15 1424.65,-125.66 1411,-110 1375.76,-69.57 1215.72,-64.61 1134.94,-64.76"/>
<polygon fill="#63b8ff" stroke="#63b8ff" points="1134.54,-61.27 1124.56,-64.81 1134.57,-68.27 1134.54,-61.27"/>
</a>
</g>
</g>
<!-- Node30&#45;&gt;Node4 -->
<g id="edge57_Node000030_Node000004" class="edge">
<title>Node30&#45;&gt;Node4</title>
<g id="a_edge57_Node000030_Node000004"><a xlink:title=" ">
<path fill="none" stroke="#63b8ff" d="M1597.17,-274.97C1618.94,-255.6 1666.56,-206.77 1647,-165 1626.73,-121.72 1576.94,-93.15 1543.57,-78.15"/>
<polygon fill="#63b8ff" stroke="#63b8ff" points="1544.78,-74.86 1534.21,-74.11 1542,-81.29 1544.78,-74.86"/>
</a>
</g>
</g>
<!-- Node31 -->
<g id="Node000031" class="node">
<title>Node31</title>
<g id="a_Node000031"><a xlink:href="SocketTimer_8h.html" target="_top" xlink:title="High&#45;performance timer subsystem integrated with the event loop.">
<polygon fill="white" stroke="#666666" points="1637.5,-184 1536.5,-184 1536.5,-165 1637.5,-165 1637.5,-184"/>
<text text-anchor="middle" x="1587" y="-172" font-family="Helvetica,sans-Serif" font-size="10.00">core/SocketTimer.h</text>
</a>
</g>
</g>
<!-- Node30&#45;&gt;Node31 -->
<g id="edge58_Node000030_Node000031" class="edge">
<title>Node30&#45;&gt;Node31</title>
<g id="a_edge58_Node000030_Node000031"><a xlink:title=" ">
<path fill="none" stroke="#63b8ff" d="M1587,-274.66C1587,-257.17 1587,-217.8 1587,-194.27"/>
<polygon fill="#63b8ff" stroke="#63b8ff" points="1590.5,-194.16 1587,-184.16 1583.5,-194.16 1590.5,-194.16"/>
</a>
</g>
</g>
<!-- Node30&#45;&gt;Node32 -->
<g id="edge61_Node000030_Node000032" class="edge">
<title>Node30&#45;&gt;Node32</title>
<g id="a_edge61_Node000030_Node000032"><a xlink:title=" ">
<path fill="none" stroke="#63b8ff" d="M1558.56,-274.98C1528.72,-266.05 1481.62,-251.94 1448.47,-242.02"/>
<polygon fill="#63b8ff" stroke="#63b8ff" points="1449.24,-238.6 1438.66,-239.08 1447.24,-245.3 1449.24,-238.6"/>
</a>
</g>
</g>
<!-- Node31&#45;&gt;Node4 -->
<g id="edge59_Node000031_Node000004" class="edge">
<title>Node31&#45;&gt;Node4</title>
<g id="a_edge59_Node000031_Node000004"><a xlink:title=" ">
<path fill="none" stroke="#63b8ff" d="M1585.13,-164.62C1582.1,-151.7 1575.19,-127.36 1563,-110 1554.89,-98.45 1543.12,-88.04 1532.82,-80.2"/>
<polygon fill="#63b8ff" stroke="#63b8ff" points="1534.78,-77.3 1524.63,-74.25 1530.66,-82.96 1534.78,-77.3"/>
</a>
</g>
</g>
<!-- Node31&#45;&gt;Node10 -->
<g id="edge60_Node000031_Node000010" class="edge">
<title>Node31&#45;&gt;Node10</title>
<g id="a_edge60_Node000031_Node000010"><a xlink:title=" ">
<path fill="none" stroke="#63b8ff" d="M1536.4,-166.66C1482.99,-159.15 1396.14,-146.09 1311.83,-129.01"/>
<polygon fill="#63b8ff" stroke="#63b8ff" points="1312.33,-125.54 1301.83,-126.97 1310.92,-132.4 1312.33,-125.54"/>
</a>
</g>
</g>
<!-- Node32&#45;&gt;Node4 -->
<g id="edge62_Node000032_Node000004" class="edge">
<title>Node32&#45;&gt;Node4</title>
<g id="a_edge62_Node000032_Node000004"><a xlink:title=" ">
<path fill="none" stroke="#63b8ff" d="M1429.48,-219.8C1458.13,-205.66 1509.87,-174.61 1525,-129 1529.99,-113.95 1525.29,-96.3 1520.03,-83.43"/>
<polygon fill="#63b8ff" stroke="#63b8ff" points="1523.2,-81.93 1515.87,-74.28 1516.82,-84.83 1523.2,-81.93"/>
</a>
</g>
</g>
<!-- Node32&#45;&gt;Node15 -->
<g id="edge63_Node000032_Node000015" class="edge">
<title>Node32&#45;&gt;Node15</title>
<g id="a_edge63_Node000032_Node000015"><a xlink:title=" ">
<path fill="none" stroke="#63b8ff" d="M1365.7,-227.96C1182.45,-225.54 488.89,-214.42 396,-184 365.54,-174.02 335.69,-151.35 317.81,-135.98"/>
<polygon fill="#63b8ff" stroke="#63b8ff" points="319.85,-133.11 310.05,-129.1 315.21,-138.35 319.85,-133.11"/>
</a>
</g>
</g>
<!-- Node32&#45;&gt;Node26 -->
<g id="edge65_Node000032_Node000026" class="edge">
<title>Node32&#45;&gt;Node26</title>
<g id="a_edge65_Node000032_Node000026"><a xlink:title=" ">
<path fill="none" stroke="#63b8ff" d="M1365.72,-223.8C1280.08,-214.7 1090.94,-194.61 985.57,-183.42"/>
<polygon fill="#63b8ff" stroke="#63b8ff" points="985.64,-179.91 975.33,-182.33 984.9,-186.87 985.64,-179.91"/>
</a>
</g>
</g>
<!-- Node32&#45;&gt;Node29 -->
<g id="edge64_Node000032_Node000029" class="edge">
<title>Node32&#45;&gt;Node29</title>
<g id="a_edge64_Node000032_Node000029"><a xlink:title=" ">
<path fill="none" stroke="#63b8ff" d="M1407.36,-219.75C1405.24,-212.72 1402.19,-202.62 1399.54,-193.84"/>
<polygon fill="#63b8ff" stroke="#63b8ff" points="1402.83,-192.65 1396.59,-184.09 1396.13,-194.67 1402.83,-192.65"/>
</a>
</g>
</g>
<!-- Node33&#45;&gt;Node4 -->
<g id="edge68_Node000033_Node000004" class="edge">
<title>Node33&#45;&gt;Node4</title>
<g id="a_edge68_Node000033_Node000004"><a xlink:title=" ">
<path fill="none" stroke="#63b8ff" d="M1559.29,-333.76C1588.66,-328.06 1620.05,-316.6 1641,-294 1674.9,-257.44 1658.09,-233.61 1663,-184 1666.66,-147 1653.26,-132.93 1624,-110 1604.43,-94.66 1578.9,-84.01 1557.07,-76.99"/>
<polygon fill="#63b8ff" stroke="#63b8ff" points="1557.92,-73.59 1547.33,-74.01 1555.87,-80.28 1557.92,-73.59"/>
</a>
</g>
</g>
<!-- Node33&#45;&gt;Node29 -->
<g id="edge69_Node000033_Node000029" class="edge">
<title>Node33&#45;&gt;Node29</title>
<g id="a_edge69_Node000033_Node000029"><a xlink:title=" ">
<path fill="none" stroke="#63b8ff" d="M1482.87,-329.92C1484.52,-309.18 1486.13,-255.41 1463,-220 1454.01,-206.23 1439.11,-195.83 1425.45,-188.57"/>
<polygon fill="#63b8ff" stroke="#63b8ff" points="1426.79,-185.33 1416.28,-184.03 1423.69,-191.6 1426.79,-185.33"/>
</a>
</g>
</g>
<!-- Node33&#45;&gt;Node30 -->
<g id="edge70_Node000033_Node000030" class="edge">
<title>Node33&#45;&gt;Node30</title>
<g id="a_edge70_Node000033_Node000030"><a xlink:title=" ">
<path fill="none" stroke="#63b8ff" d="M1498.87,-329.98C1515.61,-321.54 1541.5,-308.47 1560.89,-298.68"/>
<polygon fill="#63b8ff" stroke="#63b8ff" points="1562.47,-301.8 1569.82,-294.17 1559.32,-295.55 1562.47,-301.8"/>
</a>
</g>
</g>
<!-- Node33&#45;&gt;Node32 -->
<g id="edge71_Node000033_Node000032" class="edge">
<title>Node33&#45;&gt;Node32</title>
<g id="a_edge71_Node000033_Node000032"><a xlink:title=" ">
<path fill="none" stroke="#63b8ff" d="M1476.11,-329.66C1464.18,-311.77 1437,-271 1421.46,-247.69"/>
<polygon fill="#63b8ff" stroke="#63b8ff" points="1424.23,-245.54 1415.77,-239.16 1418.41,-249.42 1424.23,-245.54"/>
</a>
</g>
</g>
</g>
</svg>

<g id="navigator" transform="translate(0 0)" fill="#404254">
  <rect fill="#f2f5e9" fill-opacity="0.5" stroke="#606060" stroke-width=".5" x="0" y="0" width="60" height="60"/>
  <use id="zoomplus" xlink:href="#zoomPlus" x="17" y="9" onmousedown="handleZoom(evt,'in')"/>
  <use id="zoomminus" xlink:href="#zoomMin" x="42" y="9" onmousedown="handleZoom(evt,'out')"/>
  <use id="reset" xlink:href="#resetDef" x="30" y="36" onmousedown="handleReset()"/>
   <use id="arrowup" xlink:href="#arrowUp" x="0" y="0" onmousedown="handlePan(0,-1)"/>
  <use id="arrowright" xlink:href="#arrowRight" x="0" y="0" onmousedown="handlePan(1,0)"/>
  <use id="arrowdown" xlink:href="#arrowDown" x="0" y="0" onmousedown="handlePan(0,1)"/>
  <use id="arrowleft" xlink:href="#arrowLeft" x="0" y="0" onmousedown="handlePan(-1,0)"/>
</g>
<svg viewBox="0 0 15 15" width="100%" height="30px" preserveAspectRatio="xMaxYMin meet">
 <g id="arrow_out" transform="scale(0.3 0.3)">
  <a xlink:href="SocketHappyEyeballs-private_8h__incl_org.svg" target="_base">
   <rect id="button" ry="5" rx="5" y="6" x="6" height="38" width="38"
        fill="#f2f5e9" fill-opacity="0.5" stroke="#606060" stroke-width="1.0"/>
   <path id="arrow"
     d="M 11.500037,31.436501 C 11.940474,20.09759 22.043105,11.32322 32.158766,21.979434 L 37.068811,17.246167 C 37.068811,17.246167 37.088388,32 37.088388,32 L 22.160133,31.978069 C 22.160133,31.978069 26.997745,27.140456 26.997745,27.140456 C 18.528582,18.264221 13.291696,25.230495 11.500037,31.436501 z"
     style="fill:#404040;"/>
  </a>
 </g>
</svg>

<style type='text/css'>
<![CDATA[
[data-mouse-over-selected='false'] { opacity: 0.7; }
[data-mouse-over-selected='true']  { opacity: 1.0; }
]]>
</style>
<script type="application/ecmascript"><![CDATA[
document.addEventListener('DOMContentLoaded', (event) => {
  highlightEdges();
  highlightAdjacentNodes();
});
]]></script>
</svg>
