<?xml version="1.0" encoding="UTF-8" standalone="no"?>
<!DOCTYPE svg PUBLIC "-//W3C//DTD SVG 1.1//EN"
 "http://www.w3.org/Graphics/SVG/1.1/DTD/svg11.dtd">
<!-- Generated by graphviz version 2.43.0 (0)
 -->
<!-- Title: SocketAsync.h Pages: 1 -->
<svg width="1210pt" height="302pt"
 viewBox="0.00 0.00 1210.00 302.00" xmlns="http://www.w3.org/2000/svg" xmlns:xlink="http://www.w3.org/1999/xlink">
<g id="graph0" class="graph" transform="scale(1 1) rotate(0) translate(4 298)">
<title>SocketAsync.h</title>
<!-- Node1 -->
<g id="Node000001" class="node">
<title>Node1</title>
<g id="a_Node000001"><a xlink:title=" ">
<polygon fill="#999999" stroke="#666666" points="1021,-294 938,-294 938,-275 1021,-275 1021,-294"/>
<text text-anchor="middle" x="979.5" y="-282" font-family="Helvetica,sans-Serif" font-size="10.00">SocketAsync.h</text>
</a>
</g>
</g>
<!-- Node2 -->
<g id="Node000002" class="node">
<title>Node2</title>
<g id="a_Node000002"><a xlink:href="Except_8h.html" target="_top" xlink:title=" ">
<polygon fill="white" stroke="#666666" points="1202,-74 1125,-74 1125,-55 1202,-55 1202,-74"/>
<text text-anchor="middle" x="1163.5" y="-62" font-family="Helvetica,sans-Serif" font-size="10.00">core/Except.h</text>
</a>
</g>
</g>
<!-- Node1&#45;&gt;Node2 -->
<g id="edge1_Node000001_Node000002" class="edge">
<title>Node1&#45;&gt;Node2</title>
<g id="a_edge1_Node000001_Node000002"><a xlink:title=" ">
<path fill="none" stroke="#63b8ff" d="M1000.94,-274.95C1044.62,-256.18 1143.07,-206.78 1181.5,-129 1188.78,-114.26 1182.25,-96.11 1175.1,-82.99"/>
<polygon fill="#63b8ff" stroke="#63b8ff" points="1177.89,-80.84 1169.73,-74.08 1171.9,-84.45 1177.89,-80.84"/>
</a>
</g>
</g>
<!-- Node4 -->
<g id="Node000004" class="node">
<title>Node4</title>
<g id="a_Node000004"><a xlink:href="Socket_8h.html" target="_top" xlink:title=" ">
<polygon fill="white" stroke="#666666" points="793.5,-239 705.5,-239 705.5,-220 793.5,-220 793.5,-239"/>
<text text-anchor="middle" x="749.5" y="-227" font-family="Helvetica,sans-Serif" font-size="10.00">socket/Socket.h</text>
</a>
</g>
</g>
<!-- Node1&#45;&gt;Node4 -->
<g id="edge3_Node000001_Node000004" class="edge">
<title>Node1&#45;&gt;Node4</title>
<g id="a_edge3_Node000001_Node000004"><a xlink:title=" ">
<path fill="none" stroke="#63b8ff" d="M942.55,-274.98C902.93,-265.86 839.91,-251.33 796.73,-241.38"/>
<polygon fill="#63b8ff" stroke="#63b8ff" points="797.27,-237.92 786.74,-239.08 795.7,-244.74 797.27,-237.92"/>
</a>
</g>
</g>
<!-- Node3 -->
<g id="Node000003" class="node">
<title>Node3</title>
<g id="a_Node000003"><a xlink:title=" ">
<polygon fill="#e0e0e0" stroke="#999999" points="1190.5,-19 1136.5,-19 1136.5,0 1190.5,0 1190.5,-19"/>
<text text-anchor="middle" x="1163.5" y="-7" font-family="Helvetica,sans-Serif" font-size="10.00">setjmp.h</text>
</a>
</g>
</g>
<!-- Node2&#45;&gt;Node3 -->
<g id="edge2_Node000002_Node000003" class="edge">
<title>Node2&#45;&gt;Node3</title>
<g id="a_edge2_Node000002_Node000003"><a xlink:title=" ">
<path fill="none" stroke="#63b8ff" d="M1163.5,-54.75C1163.5,-47.8 1163.5,-37.85 1163.5,-29.13"/>
<polygon fill="#63b8ff" stroke="#63b8ff" points="1167,-29.09 1163.5,-19.09 1160,-29.09 1167,-29.09"/>
</a>
</g>
</g>
<!-- Node4&#45;&gt;Node2 -->
<g id="edge4_Node000004_Node000002" class="edge">
<title>Node4&#45;&gt;Node2</title>
<g id="a_edge4_Node000004_Node000002"><a xlink:title=" ">
<path fill="none" stroke="#63b8ff" d="M793.8,-224.65C891.13,-215.18 1118.62,-187.18 1164.5,-129 1174.3,-116.57 1172.79,-98.1 1169.58,-84.28"/>
<polygon fill="#63b8ff" stroke="#63b8ff" points="1172.88,-83.09 1166.82,-74.4 1166.14,-84.97 1172.88,-83.09"/>
</a>
</g>
</g>
<!-- Node5 -->
<g id="Node000005" class="node">
<title>Node5</title>
<g id="a_Node000005"><a xlink:href="SocketConfig_8h.html" target="_top" xlink:title=" ">
<polygon fill="white" stroke="#666666" points="391.5,-129 285.5,-129 285.5,-110 391.5,-110 391.5,-129"/>
<text text-anchor="middle" x="338.5" y="-117" font-family="Helvetica,sans-Serif" font-size="10.00">core/SocketConfig.h</text>
</a>
</g>
</g>
<!-- Node4&#45;&gt;Node5 -->
<g id="edge5_Node000004_Node000005" class="edge">
<title>Node4&#45;&gt;Node5</title>
<g id="a_edge5_Node000004_Node000005"><a xlink:title=" ">
<path fill="none" stroke="#63b8ff" d="M716.91,-219.94C643.09,-200.54 463.19,-153.26 380.87,-131.63"/>
<polygon fill="#63b8ff" stroke="#63b8ff" points="381.66,-128.22 371.1,-129.07 379.88,-134.99 381.66,-128.22"/>
</a>
</g>
</g>
<!-- Node15 -->
<g id="Node000015" class="node">
<title>Node15</title>
<g id="a_Node000015"><a xlink:href="SocketDNS_8h.html" target="_top" xlink:title=" ">
<polygon fill="white" stroke="#666666" points="619.5,-129 523.5,-129 523.5,-110 619.5,-110 619.5,-129"/>
<text text-anchor="middle" x="571.5" y="-117" font-family="Helvetica,sans-Serif" font-size="10.00">dns/SocketDNS.h</text>
</a>
</g>
</g>
<!-- Node4&#45;&gt;Node15 -->
<g id="edge15_Node000004_Node000015" class="edge">
<title>Node4&#45;&gt;Node15</title>
<g id="a_edge15_Node000004_Node000015"><a xlink:title=" ">
<path fill="none" stroke="#63b8ff" d="M735.23,-219.84C704.51,-201.2 631.85,-157.11 594.52,-134.46"/>
<polygon fill="#63b8ff" stroke="#63b8ff" points="596.2,-131.39 585.83,-129.2 592.57,-137.38 596.2,-131.39"/>
</a>
</g>
</g>
<!-- Node17 -->
<g id="Node000017" class="node">
<title>Node17</title>
<g id="a_Node000017"><a xlink:href="SocketCommon_8h.html" target="_top" xlink:title=" ">
<polygon fill="white" stroke="#666666" points="813.5,-184 685.5,-184 685.5,-165 813.5,-165 813.5,-184"/>
<text text-anchor="middle" x="749.5" y="-172" font-family="Helvetica,sans-Serif" font-size="10.00">socket/SocketCommon.h</text>
</a>
</g>
</g>
<!-- Node4&#45;&gt;Node17 -->
<g id="edge20_Node000004_Node000017" class="edge">
<title>Node4&#45;&gt;Node17</title>
<g id="a_edge20_Node000004_Node000017"><a xlink:title=" ">
<path fill="none" stroke="#63b8ff" d="M749.5,-219.75C749.5,-212.8 749.5,-202.85 749.5,-194.13"/>
<polygon fill="#63b8ff" stroke="#63b8ff" points="753,-194.09 749.5,-184.09 746,-194.09 753,-194.09"/>
</a>
</g>
</g>
<!-- Node6 -->
<g id="Node000006" class="node">
<title>Node6</title>
<g id="a_Node000006"><a xlink:title=" ">
<polygon fill="#e0e0e0" stroke="#999999" points="47,-74 0,-74 0,-55 47,-55 47,-74"/>
<text text-anchor="middle" x="23.5" y="-62" font-family="Helvetica,sans-Serif" font-size="10.00">errno.h</text>
</a>
</g>
</g>
<!-- Node5&#45;&gt;Node6 -->
<g id="edge6_Node000005_Node000006" class="edge">
<title>Node5&#45;&gt;Node6</title>
<g id="a_edge6_Node000005_Node000006"><a xlink:title=" ">
<path fill="none" stroke="#63b8ff" d="M285.26,-111.81C230.27,-104.51 141.81,-91.74 56.99,-74.14"/>
<polygon fill="#63b8ff" stroke="#63b8ff" points="57.71,-70.72 47.2,-72.09 56.27,-77.57 57.71,-70.72"/>
</a>
</g>
</g>
<!-- Node7 -->
<g id="Node000007" class="node">
<title>Node7</title>
<g id="a_Node000007"><a xlink:title=" ">
<polygon fill="#e0e0e0" stroke="#999999" points="406.5,-74 362.5,-74 362.5,-55 406.5,-55 406.5,-74"/>
<text text-anchor="middle" x="384.5" y="-62" font-family="Helvetica,sans-Serif" font-size="10.00">fcntl.h</text>
</a>
</g>
</g>
<!-- Node5&#45;&gt;Node7 -->
<g id="edge7_Node000005_Node000007" class="edge">
<title>Node5&#45;&gt;Node7</title>
<g id="a_edge7_Node000005_Node000007"><a xlink:title=" ">
<path fill="none" stroke="#63b8ff" d="M346.1,-109.75C352.66,-102.18 362.32,-91.05 370.31,-81.84"/>
<polygon fill="#63b8ff" stroke="#63b8ff" points="373.13,-83.94 377.05,-74.09 367.85,-79.35 373.13,-83.94"/>
</a>
</g>
</g>
<!-- Node8 -->
<g id="Node000008" class="node">
<title>Node8</title>
<g id="a_Node000008"><a xlink:title=" ">
<polygon fill="#e0e0e0" stroke="#999999" points="490,-74 425,-74 425,-55 490,-55 490,-74"/>
<text text-anchor="middle" x="457.5" y="-62" font-family="Helvetica,sans-Serif" font-size="10.00">netinet/in.h</text>
</a>
</g>
</g>
<!-- Node5&#45;&gt;Node8 -->
<g id="edge8_Node000005_Node000008" class="edge">
<title>Node5&#45;&gt;Node8</title>
<g id="a_edge8_Node000005_Node000008"><a xlink:title=" ">
<path fill="none" stroke="#63b8ff" d="M357.62,-109.98C376.85,-101.42 406.73,-88.11 428.81,-78.28"/>
<polygon fill="#63b8ff" stroke="#63b8ff" points="430.32,-81.44 438.03,-74.17 427.47,-75.04 430.32,-81.44"/>
</a>
</g>
</g>
<!-- Node9 -->
<g id="Node000009" class="node">
<title>Node9</title>
<g id="a_Node000009"><a xlink:title=" ">
<polygon fill="#e0e0e0" stroke="#999999" points="136,-74 65,-74 65,-55 136,-55 136,-74"/>
<text text-anchor="middle" x="100.5" y="-62" font-family="Helvetica,sans-Serif" font-size="10.00">netinet/tcp.h</text>
</a>
</g>
</g>
<!-- Node5&#45;&gt;Node9 -->
<g id="edge9_Node000005_Node000009" class="edge">
<title>Node5&#45;&gt;Node9</title>
<g id="a_edge9_Node000005_Node000009"><a xlink:title=" ">
<path fill="none" stroke="#63b8ff" d="M300.26,-109.98C258.33,-100.65 191.06,-85.67 146.33,-75.71"/>
<polygon fill="#63b8ff" stroke="#63b8ff" points="146.83,-72.23 136.31,-73.47 145.31,-79.06 146.83,-72.23"/>
</a>
</g>
</g>
<!-- Node10 -->
<g id="Node000010" class="node">
<title>Node10</title>
<g id="a_Node000010"><a xlink:title=" ">
<polygon fill="#e0e0e0" stroke="#999999" points="651.5,-74 599.5,-74 599.5,-55 651.5,-55 651.5,-74"/>
<text text-anchor="middle" x="625.5" y="-62" font-family="Helvetica,sans-Serif" font-size="10.00">stddef.h</text>
</a>
</g>
</g>
<!-- Node5&#45;&gt;Node10 -->
<g id="edge10_Node000005_Node000010" class="edge">
<title>Node5&#45;&gt;Node10</title>
<g id="a_edge10_Node000005_Node000010"><a xlink:title=" ">
<path fill="none" stroke="#63b8ff" d="M391.55,-109.99C440.28,-101.97 514.72,-89.21 589.17,-73.96"/>
<polygon fill="#63b8ff" stroke="#63b8ff" points="590.11,-77.34 599.19,-71.89 588.69,-70.49 590.11,-77.34"/>
</a>
</g>
</g>
<!-- Node11 -->
<g id="Node000011" class="node">
<title>Node11</title>
<g id="a_Node000011"><a xlink:title=" ">
<polygon fill="#e0e0e0" stroke="#999999" points="200.5,-74 154.5,-74 154.5,-55 200.5,-55 200.5,-74"/>
<text text-anchor="middle" x="177.5" y="-62" font-family="Helvetica,sans-Serif" font-size="10.00">stdio.h</text>
</a>
</g>
</g>
<!-- Node5&#45;&gt;Node11 -->
<g id="edge11_Node000005_Node000011" class="edge">
<title>Node5&#45;&gt;Node11</title>
<g id="a_edge11_Node000005_Node000011"><a xlink:title=" ">
<path fill="none" stroke="#63b8ff" d="M312.63,-109.98C284.84,-100.84 240.6,-86.27 210.36,-76.32"/>
<polygon fill="#63b8ff" stroke="#63b8ff" points="211.28,-72.94 200.69,-73.13 209.09,-79.59 211.28,-72.94"/>
</a>
</g>
</g>
<!-- Node12 -->
<g id="Node000012" class="node">
<title>Node12</title>
<g id="a_Node000012"><a xlink:title=" ">
<polygon fill="#e0e0e0" stroke="#999999" points="581,-74 508,-74 508,-55 581,-55 581,-74"/>
<text text-anchor="middle" x="544.5" y="-62" font-family="Helvetica,sans-Serif" font-size="10.00">sys/socket.h</text>
</a>
</g>
</g>
<!-- Node5&#45;&gt;Node12 -->
<g id="edge12_Node000005_Node000012" class="edge">
<title>Node5&#45;&gt;Node12</title>
<g id="a_edge12_Node000005_Node000012"><a xlink:title=" ">
<path fill="none" stroke="#63b8ff" d="M371.6,-109.98C406.78,-100.93 462.57,-86.58 501.22,-76.64"/>
<polygon fill="#63b8ff" stroke="#63b8ff" points="502.33,-79.96 511.14,-74.08 500.59,-73.18 502.33,-79.96"/>
</a>
</g>
</g>
<!-- Node13 -->
<g id="Node000013" class="node">
<title>Node13</title>
<g id="a_Node000013"><a xlink:title=" ">
<polygon fill="#e0e0e0" stroke="#999999" points="274.5,-74 218.5,-74 218.5,-55 274.5,-55 274.5,-74"/>
<text text-anchor="middle" x="246.5" y="-62" font-family="Helvetica,sans-Serif" font-size="10.00">sys/uio.h</text>
</a>
</g>
</g>
<!-- Node5&#45;&gt;Node13 -->
<g id="edge13_Node000005_Node000013" class="edge">
<title>Node5&#45;&gt;Node13</title>
<g id="a_edge13_Node000005_Node000013"><a xlink:title=" ">
<path fill="none" stroke="#63b8ff" d="M323.72,-109.98C309.32,-101.69 287.19,-88.94 270.31,-79.22"/>
<polygon fill="#63b8ff" stroke="#63b8ff" points="271.96,-76.13 261.55,-74.17 268.47,-82.19 271.96,-76.13"/>
</a>
</g>
</g>
<!-- Node14 -->
<g id="Node000014" class="node">
<title>Node14</title>
<g id="a_Node000014"><a xlink:title=" ">
<polygon fill="#e0e0e0" stroke="#999999" points="344,-74 293,-74 293,-55 344,-55 344,-74"/>
<text text-anchor="middle" x="318.5" y="-62" font-family="Helvetica,sans-Serif" font-size="10.00">unistd.h</text>
</a>
</g>
</g>
<!-- Node5&#45;&gt;Node14 -->
<g id="edge14_Node000005_Node000014" class="edge">
<title>Node5&#45;&gt;Node14</title>
<g id="a_edge14_Node000005_Node000014"><a xlink:title=" ">
<path fill="none" stroke="#63b8ff" d="M335.2,-109.75C332.52,-102.65 328.65,-92.4 325.31,-83.56"/>
<polygon fill="#63b8ff" stroke="#63b8ff" points="328.55,-82.21 321.74,-74.09 322,-84.68 328.55,-82.21"/>
</a>
</g>
</g>
<!-- Node15&#45;&gt;Node2 -->
<g id="edge16_Node000015_Node000002" class="edge">
<title>Node15&#45;&gt;Node2</title>
<g id="a_edge16_Node000015_Node000002"><a xlink:title=" ">
<path fill="none" stroke="#63b8ff" d="M619.95,-114.16C730.97,-104.22 1002.77,-79.89 1114.41,-69.89"/>
<polygon fill="#63b8ff" stroke="#63b8ff" points="1115.06,-73.35 1124.7,-68.97 1114.43,-66.38 1115.06,-73.35"/>
</a>
</g>
</g>
<!-- Node15&#45;&gt;Node10 -->
<g id="edge18_Node000015_Node000010" class="edge">
<title>Node15&#45;&gt;Node10</title>
<g id="a_edge18_Node000015_Node000010"><a xlink:title=" ">
<path fill="none" stroke="#63b8ff" d="M580.42,-109.75C588.28,-102.03 599.93,-90.6 609.42,-81.28"/>
<polygon fill="#63b8ff" stroke="#63b8ff" points="612.06,-83.59 616.75,-74.09 607.16,-78.6 612.06,-83.59"/>
</a>
</g>
</g>
<!-- Node15&#45;&gt;Node12 -->
<g id="edge19_Node000015_Node000012" class="edge">
<title>Node15&#45;&gt;Node12</title>
<g id="a_edge19_Node000015_Node000012"><a xlink:title=" ">
<path fill="none" stroke="#63b8ff" d="M567.04,-109.75C563.38,-102.57 558.09,-92.18 553.55,-83.27"/>
<polygon fill="#63b8ff" stroke="#63b8ff" points="556.53,-81.41 548.88,-74.09 550.3,-84.59 556.53,-81.41"/>
</a>
</g>
</g>
<!-- Node16 -->
<g id="Node000016" class="node">
<title>Node16</title>
<g id="a_Node000016"><a xlink:title=" ">
<polygon fill="#e0e0e0" stroke="#999999" points="719,-74 670,-74 670,-55 719,-55 719,-74"/>
<text text-anchor="middle" x="694.5" y="-62" font-family="Helvetica,sans-Serif" font-size="10.00">netdb.h</text>
</a>
</g>
</g>
<!-- Node15&#45;&gt;Node16 -->
<g id="edge17_Node000015_Node000016" class="edge">
<title>Node15&#45;&gt;Node16</title>
<g id="a_edge17_Node000015_Node000016"><a xlink:title=" ">
<path fill="none" stroke="#63b8ff" d="M591.26,-109.98C611.23,-101.38 642.3,-87.99 665.15,-78.15"/>
<polygon fill="#63b8ff" stroke="#63b8ff" points="666.58,-81.34 674.38,-74.17 663.81,-74.91 666.58,-81.34"/>
</a>
</g>
</g>
<!-- Node17&#45;&gt;Node2 -->
<g id="edge33_Node000017_Node000002" class="edge">
<title>Node17&#45;&gt;Node2</title>
<g id="a_edge33_Node000017_Node000002"><a xlink:title=" ">
<path fill="none" stroke="#63b8ff" d="M813.88,-170.1C919.32,-163.97 1119.68,-149.74 1144.5,-129 1157.46,-118.17 1161.8,-98.89 1163.15,-84.4"/>
<polygon fill="#63b8ff" stroke="#63b8ff" points="1166.67,-84.24 1163.7,-74.07 1159.68,-83.87 1166.67,-84.24"/>
</a>
</g>
</g>
<!-- Node17&#45;&gt;Node5 -->
<g id="edge34_Node000017_Node000005" class="edge">
<title>Node17&#45;&gt;Node5</title>
<g id="a_edge34_Node000017_Node000005"><a xlink:title=" ">
<path fill="none" stroke="#63b8ff" d="M685.28,-165.22C607.93,-155.24 478.81,-138.59 401.85,-128.67"/>
<polygon fill="#63b8ff" stroke="#63b8ff" points="402.18,-125.18 391.81,-127.37 401.28,-132.12 402.18,-125.18"/>
</a>
</g>
</g>
<!-- Node17&#45;&gt;Node7 -->
<g id="edge23_Node000017_Node000007" class="edge">
<title>Node17&#45;&gt;Node7</title>
<g id="a_edge23_Node000017_Node000007"><a xlink:title=" ">
<path fill="none" stroke="#63b8ff" d="M685.26,-170.29C629.7,-165.79 548.07,-154.98 481.5,-129 451.39,-117.25 420.89,-95.26 402.34,-80.49"/>
<polygon fill="#63b8ff" stroke="#63b8ff" points="404.43,-77.69 394.47,-74.09 400.02,-83.12 404.43,-77.69"/>
</a>
</g>
</g>
<!-- Node17&#45;&gt;Node8 -->
<g id="edge25_Node000017_Node000008" class="edge">
<title>Node17&#45;&gt;Node8</title>
<g id="a_edge25_Node000017_Node000008"><a xlink:title=" ">
<path fill="none" stroke="#63b8ff" d="M685.26,-166.99C623.67,-159.82 535.84,-146.88 506.5,-129 488.53,-118.05 474.7,-97.9 466.39,-83.23"/>
<polygon fill="#63b8ff" stroke="#63b8ff" points="469.32,-81.3 461.53,-74.12 463.15,-84.59 469.32,-81.3"/>
</a>
</g>
</g>
<!-- Node17&#45;&gt;Node12 -->
<g id="edge26_Node000017_Node000012" class="edge">
<title>Node17&#45;&gt;Node12</title>
<g id="a_edge26_Node000017_Node000012"><a xlink:title=" ">
<path fill="none" stroke="#63b8ff" d="M685.24,-170.3C623.27,-165.71 535.82,-154.74 514.5,-129 502.67,-114.71 515.49,-94.98 527.85,-81.32"/>
<polygon fill="#63b8ff" stroke="#63b8ff" points="530.43,-83.68 534.88,-74.07 525.41,-78.81 530.43,-83.68"/>
</a>
</g>
</g>
<!-- Node17&#45;&gt;Node16 -->
<g id="edge24_Node000017_Node000016" class="edge">
<title>Node17&#45;&gt;Node16</title>
<g id="a_edge24_Node000017_Node000016"><a xlink:title=" ">
<path fill="none" stroke="#63b8ff" d="M716.48,-164.87C698.32,-158.26 677.33,-147.1 666.5,-129 657.36,-113.73 668.08,-94.95 678.79,-81.79"/>
<polygon fill="#63b8ff" stroke="#63b8ff" points="681.63,-83.86 685.62,-74.05 676.38,-79.23 681.63,-83.86"/>
</a>
</g>
</g>
<!-- Node18 -->
<g id="Node000018" class="node">
<title>Node18</title>
<g id="a_Node000018"><a xlink:title=" ">
<polygon fill="#e0e0e0" stroke="#999999" points="731.5,-129 675.5,-129 675.5,-110 731.5,-110 731.5,-129"/>
<text text-anchor="middle" x="703.5" y="-117" font-family="Helvetica,sans-Serif" font-size="10.00">stdbool.h</text>
</a>
</g>
</g>
<!-- Node17&#45;&gt;Node18 -->
<g id="edge21_Node000017_Node000018" class="edge">
<title>Node17&#45;&gt;Node18</title>
<g id="a_edge21_Node000017_Node000018"><a xlink:title=" ">
<path fill="none" stroke="#63b8ff" d="M741.9,-164.75C735.34,-157.18 725.68,-146.05 717.69,-136.84"/>
<polygon fill="#63b8ff" stroke="#63b8ff" points="720.15,-134.35 710.95,-129.09 714.87,-138.94 720.15,-134.35"/>
</a>
</g>
</g>
<!-- Node19 -->
<g id="Node000019" class="node">
<title>Node19</title>
<g id="a_Node000019"><a xlink:title=" ">
<polygon fill="#e0e0e0" stroke="#999999" points="807,-129 750,-129 750,-110 807,-110 807,-129"/>
<text text-anchor="middle" x="778.5" y="-117" font-family="Helvetica,sans-Serif" font-size="10.00">pthread.h</text>
</a>
</g>
</g>
<!-- Node17&#45;&gt;Node19 -->
<g id="edge22_Node000017_Node000019" class="edge">
<title>Node17&#45;&gt;Node19</title>
<g id="a_edge22_Node000017_Node000019"><a xlink:title=" ">
<path fill="none" stroke="#63b8ff" d="M754.29,-164.75C758.26,-157.49 764.03,-146.95 768.93,-137.98"/>
<polygon fill="#63b8ff" stroke="#63b8ff" points="772.07,-139.54 773.8,-129.09 765.93,-136.18 772.07,-139.54"/>
</a>
</g>
</g>
<!-- Node20 -->
<g id="Node000020" class="node">
<title>Node20</title>
<g id="a_Node000020"><a xlink:title=" ">
<polygon fill="#e0e0e0" stroke="#999999" points="887.5,-129 825.5,-129 825.5,-110 887.5,-110 887.5,-129"/>
<text text-anchor="middle" x="856.5" y="-117" font-family="Helvetica,sans-Serif" font-size="10.00">sys/time.h</text>
</a>
</g>
</g>
<!-- Node17&#45;&gt;Node20 -->
<g id="edge27_Node000017_Node000020" class="edge">
<title>Node17&#45;&gt;Node20</title>
<g id="a_edge27_Node000017_Node000020"><a xlink:title=" ">
<path fill="none" stroke="#63b8ff" d="M766.69,-164.98C783.75,-156.54 810.13,-143.47 829.9,-133.68"/>
<polygon fill="#63b8ff" stroke="#63b8ff" points="831.59,-136.75 839,-129.17 828.48,-130.47 831.59,-136.75"/>
</a>
</g>
</g>
<!-- Node21 -->
<g id="Node000021" class="node">
<title>Node21</title>
<g id="a_Node000021"><a xlink:title=" ">
<polygon fill="#e0e0e0" stroke="#999999" points="973.5,-129 905.5,-129 905.5,-110 973.5,-110 973.5,-129"/>
<text text-anchor="middle" x="939.5" y="-117" font-family="Helvetica,sans-Serif" font-size="10.00">sys/types.h</text>
</a>
</g>
</g>
<!-- Node17&#45;&gt;Node21 -->
<g id="edge28_Node000017_Node000021" class="edge">
<title>Node17&#45;&gt;Node21</title>
<g id="a_edge28_Node000017_Node000021"><a xlink:title=" ">
<path fill="none" stroke="#63b8ff" d="M780.03,-164.98C812.2,-156.01 863.06,-141.82 898.67,-131.89"/>
<polygon fill="#63b8ff" stroke="#63b8ff" points="900.04,-135.14 908.73,-129.08 898.16,-128.4 900.04,-135.14"/>
</a>
</g>
</g>
<!-- Node22 -->
<g id="Node000022" class="node">
<title>Node22</title>
<g id="a_Node000022"><a xlink:title=" ">
<polygon fill="#e0e0e0" stroke="#999999" points="1045.5,-129 991.5,-129 991.5,-110 1045.5,-110 1045.5,-129"/>
<text text-anchor="middle" x="1018.5" y="-117" font-family="Helvetica,sans-Serif" font-size="10.00">sys/un.h</text>
</a>
</g>
</g>
<!-- Node17&#45;&gt;Node22 -->
<g id="edge29_Node000017_Node000022" class="edge">
<title>Node17&#45;&gt;Node22</title>
<g id="a_edge29_Node000017_Node000022"><a xlink:title=" ">
<path fill="none" stroke="#63b8ff" d="M797.37,-164.98C842.44,-156.82 912.06,-143.86 981.59,-129.12"/>
<polygon fill="#63b8ff" stroke="#63b8ff" points="982.35,-132.54 991.4,-127.03 980.89,-125.69 982.35,-132.54"/>
</a>
</g>
</g>
<!-- Node23 -->
<g id="Node000023" class="node">
<title>Node23</title>
<g id="a_Node000023"><a xlink:href="Arena_8h.html" target="_top" xlink:title=" ">
<polygon fill="white" stroke="#666666" points="1135.5,-129 1063.5,-129 1063.5,-110 1135.5,-110 1135.5,-129"/>
<text text-anchor="middle" x="1099.5" y="-117" font-family="Helvetica,sans-Serif" font-size="10.00">core/Arena.h</text>
</a>
</g>
</g>
<!-- Node17&#45;&gt;Node23 -->
<g id="edge30_Node000017_Node000023" class="edge">
<title>Node17&#45;&gt;Node23</title>
<g id="a_edge30_Node000017_Node000023"><a xlink:title=" ">
<path fill="none" stroke="#63b8ff" d="M813.29,-164.98C872.85,-156.85 964.46,-143.89 1053.21,-129.16"/>
<polygon fill="#63b8ff" stroke="#63b8ff" points="1053.89,-132.6 1063.17,-127.5 1052.73,-125.69 1053.89,-132.6"/>
</a>
</g>
</g>
<!-- Node23&#45;&gt;Node2 -->
<g id="edge32_Node000023_Node000002" class="edge">
<title>Node23&#45;&gt;Node2</title>
<g id="a_edge32_Node000023_Node000002"><a xlink:title=" ">
<path fill="none" stroke="#63b8ff" d="M1109.78,-109.98C1119.34,-102.07 1133.78,-90.11 1145.28,-80.58"/>
<polygon fill="#63b8ff" stroke="#63b8ff" points="1147.56,-83.24 1153.03,-74.17 1143.1,-77.85 1147.56,-83.24"/>
</a>
</g>
</g>
<!-- Node23&#45;&gt;Node10 -->
<g id="edge31_Node000023_Node000010" class="edge">
<title>Node23&#45;&gt;Node10</title>
<g id="a_edge31_Node000023_Node000010"><a xlink:title=" ">
<path fill="none" stroke="#63b8ff" d="M1063.2,-111.34C1060.26,-110.85 1057.33,-110.4 1054.5,-110 883.58,-86.11 835.73,-102.2 661.79,-73.97"/>
<polygon fill="#63b8ff" stroke="#63b8ff" points="662.22,-70.5 651.79,-72.32 661.09,-77.4 662.22,-70.5"/>
</a>
</g>
</g>
</g>
</svg>
