<?xml version="1.0" encoding="UTF-8" standalone="no"?>
<!DOCTYPE svg PUBLIC "-//W3C//DTD SVG 1.1//EN"
 "http://www.w3.org/Graphics/SVG/1.1/DTD/svg11.dtd">
<!-- Generated by graphviz version 2.43.0 (0)
 -->
<!-- Title: SocketReconnect&#45;private.h Pages: 1 -->
<!--zoomable 357 -->

<svg id="main" version="1.1" xmlns="http://www.w3.org/2000/svg" xmlns:xlink="http://www.w3.org/1999/xlink" xml:space="preserve" onload="init(evt)">
<style type="text/css"><![CDATA[
.node, .edge {opacity: 0.7;}
.node.selected, .edge.selected {opacity: 1;}
.edge:hover path { stroke: red; }
.edge:hover polygon { stroke: red; fill: red; }
]]></style>

<defs>
  <circle id="rim" cx="0" cy="0" r="7"/>
  <circle id="rim2" cx="0" cy="0" r="3.5"/>
  <g id="zoomPlus">
    <use xlink:href="#rim" fill="#404040"><set attributeName="fill" to="#808080" begin="zoomplus.mouseover" end="zoomplus.mouseout"/></use>
    <path d="M-4,0h8M0,-4v8" fill="none" stroke="white" stroke-width="1.5" pointer-events="none"/>
  </g>
  <g id="zoomMin">
    <use xlink:href="#rim" fill="#404040"><set attributeName="fill" to="#808080" begin="zoomminus.mouseover" end="zoomminus.mouseout"/></use>
    <path d="M-4,0h8" fill="none" stroke="white" stroke-width="1.5" pointer-events="none"/>
  </g>
  <g id="arrowUp" transform="translate(30 24)">
    <use xlink:href="#rim"/>
    <path pointer-events="none" fill="none" stroke="white" stroke-width="1.5" d="M0,-3.0v7 M-2.5,-0.5L0,-3.0L2.5,-0.5"/>
  </g>
  <g id="arrowRight" transform="rotate(90) translate(36 -43)">
    <use xlink:href="#rim"/>
    <path pointer-events="none" fill="none" stroke="white" stroke-width="1.5" d="M0,-3.0v7 M-2.5,-0.5L0,-3.0L2.5,-0.5"/>
  </g>
  <g id="arrowDown" transform="rotate(180) translate(-30 -48)">
    <use xlink:href="#rim"/>
    <path pointer-events="none" fill="none" stroke="white" stroke-width="1.5" d="M0,-3.0v7 M-2.5,-0.5L0,-3.0L2.5,-0.5"/>
  </g>
  <g id="arrowLeft" transform="rotate(270) translate(-36 17)">
    <use xlink:href="#rim"/>
    <path pointer-events="none" fill="none" stroke="white" stroke-width="1.5" d="M0,-3.0v7 M-2.5,-0.5L0,-3.0L2.5,-0.5"/>
  </g>
  <g id="resetDef">
    <use xlink:href="#rim2" fill="#404040"><set attributeName="fill" to="#808080" begin="reset.mouseover" end="reset.mouseout"/></use>
  </g>
</defs>
<script type="application/ecmascript">
var viewWidth = 1469;
var viewHeight = 357;
var sectionId = 'dynsection-0';
</script>
<script type="application/ecmascript" xlink:href="svg.min.js"/>
<svg id="graph" class="graph">
<g id="viewport">
<title>SocketReconnect&#45;private.h</title>
<!-- Node1 -->
<g id="Node000001" class="node">
<title>Node1</title>
<g id="a_Node000001"><a xlink:title="Private header for SocketReconnect module internals.">
<polygon fill="#999999" stroke="#666666" points="594.11,-349 459.11,-349 459.11,-330 594.11,-330 594.11,-349"/>
<text text-anchor="middle" x="526.61" y="-337" font-family="Helvetica,sans-Serif" font-size="10.00">SocketReconnect&#45;private.h</text>
</a>
</g>
</g>
<!-- Node2 -->
<g id="Node000002" class="node">
<title>Node2</title>
<g id="a_Node000002"><a xlink:href="Arena_8h.html" target="_top" xlink:title="Arena&#45;based memory allocator for efficient bulk memory management.">
<polygon fill="white" stroke="#666666" points="574.61,-129 502.61,-129 502.61,-110 574.61,-110 574.61,-129"/>
<text text-anchor="middle" x="538.61" y="-117" font-family="Helvetica,sans-Serif" font-size="10.00">core/Arena.h</text>
</a>
</g>
</g>
<!-- Node1&#45;&gt;Node2 -->
<g id="edge1_Node000001_Node000002" class="edge">
<title>Node1&#45;&gt;Node2</title>
<g id="a_edge1_Node000001_Node000002"><a xlink:title=" ">
<path fill="none" stroke="#63b8ff" d="M527.08,-329.95C528.85,-297.95 535.08,-184.68 537.57,-139.4"/>
<polygon fill="#63b8ff" stroke="#63b8ff" points="541.08,-139.4 538.13,-129.22 534.09,-139.02 541.08,-139.4"/>
</a>
</g>
</g>
<!-- Node6 -->
<g id="Node000006" class="node">
<title>Node6</title>
<g id="a_Node000006"><a xlink:href="SocketCrypto_8h.html" target="_top" xlink:title="Cryptographic utility functions for secure operations.">
<polygon fill="white" stroke="#666666" points="519.11,-184 412.11,-184 412.11,-165 519.11,-165 519.11,-184"/>
<text text-anchor="middle" x="465.61" y="-172" font-family="Helvetica,sans-Serif" font-size="10.00">core/SocketCrypto.h</text>
</a>
</g>
</g>
<!-- Node1&#45;&gt;Node6 -->
<g id="edge5_Node000001_Node000006" class="edge">
<title>Node1&#45;&gt;Node6</title>
<g id="a_edge5_Node000001_Node000006"><a xlink:title=" ">
<path fill="none" stroke="#63b8ff" d="M523.33,-329.74C513.73,-304.09 485.55,-228.78 472.45,-193.78"/>
<polygon fill="#63b8ff" stroke="#63b8ff" points="475.69,-192.45 468.91,-184.31 469.14,-194.9 475.69,-192.45"/>
</a>
</g>
</g>
<!-- Node7 -->
<g id="Node000007" class="node">
<title>Node7</title>
<g id="a_Node000007"><a xlink:title=" ">
<polygon fill="#e0e0e0" stroke="#999999" points="408.11,-129 359.11,-129 359.11,-110 408.11,-110 408.11,-129"/>
<text text-anchor="middle" x="383.61" y="-117" font-family="Helvetica,sans-Serif" font-size="10.00">stdint.h</text>
</a>
</g>
</g>
<!-- Node1&#45;&gt;Node7 -->
<g id="edge57_Node000001_Node000007" class="edge">
<title>Node1&#45;&gt;Node7</title>
<g id="a_edge57_Node000001_Node000007"><a xlink:title=" ">
<path fill="none" stroke="#63b8ff" d="M517.71,-329.98C495.19,-307.95 435.39,-246.42 402.61,-184 395.16,-169.82 390.2,-152.28 387.22,-139.23"/>
<polygon fill="#63b8ff" stroke="#63b8ff" points="390.57,-138.19 385.1,-129.12 383.72,-139.62 390.57,-138.19"/>
</a>
</g>
</g>
<!-- Node9 -->
<g id="Node000009" class="node">
<title>Node9</title>
<g id="a_Node000009"><a xlink:href="SocketUtil_8h.html" target="_top" xlink:title="Consolidated utility header for logging, metrics, events, and error handling.">
<polygon fill="white" stroke="#666666" points="294.61,-184 202.61,-184 202.61,-165 294.61,-165 294.61,-184"/>
<text text-anchor="middle" x="248.61" y="-172" font-family="Helvetica,sans-Serif" font-size="10.00">core/SocketUtil.h</text>
</a>
</g>
</g>
<!-- Node1&#45;&gt;Node9 -->
<g id="edge10_Node000001_Node000009" class="edge">
<title>Node1&#45;&gt;Node9</title>
<g id="a_edge10_Node000001_Node000009"><a xlink:title=" ">
<path fill="none" stroke="#63b8ff" d="M472.01,-329.97C440.54,-323.41 401.1,-312.26 369.61,-294 322.97,-266.95 281.06,-217.85 261.04,-192.17"/>
<polygon fill="#63b8ff" stroke="#63b8ff" points="263.75,-189.95 254.9,-184.13 258.19,-194.2 263.75,-189.95"/>
</a>
</g>
</g>
<!-- Node23 -->
<g id="Node000023" class="node">
<title>Node23</title>
<g id="a_Node000023"><a xlink:href="Socket_8h.html" target="_top" xlink:title="High&#45;level TCP/IP and Unix domain socket interface.">
<polygon fill="white" stroke="#666666" points="864.61,-239 776.61,-239 776.61,-220 864.61,-220 864.61,-239"/>
<text text-anchor="middle" x="820.61" y="-227" font-family="Helvetica,sans-Serif" font-size="10.00">socket/Socket.h</text>
</a>
</g>
</g>
<!-- Node1&#45;&gt;Node23 -->
<g id="edge31_Node000001_Node000023" class="edge">
<title>Node1&#45;&gt;Node23</title>
<g id="a_edge31_Node000001_Node000023"><a xlink:title=" ">
<path fill="none" stroke="#63b8ff" d="M594.59,-332.72C638.25,-327.04 695.24,-315.86 741.61,-294 766.59,-282.22 790.63,-261.02 805.5,-246.38"/>
<polygon fill="#63b8ff" stroke="#63b8ff" points="808.23,-248.59 812.76,-239.02 803.25,-243.68 808.23,-248.59"/>
</a>
</g>
</g>
<!-- Node31 -->
<g id="Node000031" class="node">
<title>Node31</title>
<g id="a_Node000031"><a xlink:href="SocketReconnect_8h.html" target="_top" xlink:title="Automatic reconnection framework for resilient TCP connections with backoff and circuit breaker patte...">
<polygon fill="white" stroke="#666666" points="732.11,-294 597.11,-294 597.11,-275 732.11,-275 732.11,-294"/>
<text text-anchor="middle" x="664.61" y="-282" font-family="Helvetica,sans-Serif" font-size="10.00">socket/SocketReconnect.h</text>
</a>
</g>
</g>
<!-- Node1&#45;&gt;Node31 -->
<g id="edge52_Node000001_Node000031" class="edge">
<title>Node1&#45;&gt;Node31</title>
<g id="a_edge52_Node000001_Node000031"><a xlink:title=" ">
<path fill="none" stroke="#63b8ff" d="M548.78,-329.98C571.38,-321.3 606.68,-307.75 632.37,-297.88"/>
<polygon fill="#63b8ff" stroke="#63b8ff" points="633.96,-301.02 642.04,-294.17 631.45,-294.49 633.96,-301.02"/>
</a>
</g>
</g>
<!-- Node3 -->
<g id="Node000003" class="node">
<title>Node3</title>
<g id="a_Node000003"><a xlink:title=" ">
<polygon fill="#e0e0e0" stroke="#999999" points="596.61,-74 544.61,-74 544.61,-55 596.61,-55 596.61,-74"/>
<text text-anchor="middle" x="570.61" y="-62" font-family="Helvetica,sans-Serif" font-size="10.00">stddef.h</text>
</a>
</g>
</g>
<!-- Node2&#45;&gt;Node3 -->
<g id="edge2_Node000002_Node000003" class="edge">
<title>Node2&#45;&gt;Node3</title>
<g id="a_edge2_Node000002_Node000003"><a xlink:title=" ">
<path fill="none" stroke="#63b8ff" d="M543.9,-109.75C548.32,-102.42 554.78,-91.73 560.23,-82.7"/>
<polygon fill="#63b8ff" stroke="#63b8ff" points="563.25,-84.46 565.43,-74.09 557.26,-80.84 563.25,-84.46"/>
</a>
</g>
</g>
<!-- Node4 -->
<g id="Node000004" class="node">
<title>Node4</title>
<g id="a_Node000004"><a xlink:href="Except_8h.html" target="_top" xlink:title="Structured exception handling for C with TRY/EXCEPT/FINALLY blocks.">
<polygon fill="white" stroke="#666666" points="752.11,-74 675.11,-74 675.11,-55 752.11,-55 752.11,-74"/>
<text text-anchor="middle" x="713.61" y="-62" font-family="Helvetica,sans-Serif" font-size="10.00">core/Except.h</text>
</a>
</g>
</g>
<!-- Node2&#45;&gt;Node4 -->
<g id="edge3_Node000002_Node000004" class="edge">
<title>Node2&#45;&gt;Node4</title>
<g id="a_edge3_Node000002_Node000004"><a xlink:title=" ">
<path fill="none" stroke="#63b8ff" d="M566.73,-109.98C596.24,-101.05 642.8,-86.94 675.58,-77.02"/>
<polygon fill="#63b8ff" stroke="#63b8ff" points="676.72,-80.33 685.28,-74.08 674.69,-73.63 676.72,-80.33"/>
</a>
</g>
</g>
<!-- Node5 -->
<g id="Node000005" class="node">
<title>Node5</title>
<g id="a_Node000005"><a xlink:title=" ">
<polygon fill="#e0e0e0" stroke="#999999" points="740.61,-19 686.61,-19 686.61,0 740.61,0 740.61,-19"/>
<text text-anchor="middle" x="713.61" y="-7" font-family="Helvetica,sans-Serif" font-size="10.00">setjmp.h</text>
</a>
</g>
</g>
<!-- Node4&#45;&gt;Node5 -->
<g id="edge4_Node000004_Node000005" class="edge">
<title>Node4&#45;&gt;Node5</title>
<g id="a_edge4_Node000004_Node000005"><a xlink:title=" ">
<path fill="none" stroke="#63b8ff" d="M713.61,-54.75C713.61,-47.8 713.61,-37.85 713.61,-29.13"/>
<polygon fill="#63b8ff" stroke="#63b8ff" points="717.11,-29.09 713.61,-19.09 710.11,-29.09 717.11,-29.09"/>
</a>
</g>
</g>
<!-- Node6&#45;&gt;Node3 -->
<g id="edge6_Node000006_Node000003" class="edge">
<title>Node6&#45;&gt;Node3</title>
<g id="a_edge6_Node000006_Node000003"><a xlink:title=" ">
<path fill="none" stroke="#63b8ff" d="M461.78,-164.83C456.64,-151.74 449.36,-126.69 460.61,-110 477.01,-85.68 509.19,-74.65 534.53,-69.64"/>
<polygon fill="#63b8ff" stroke="#63b8ff" points="535.3,-73.06 544.56,-67.9 534.11,-66.17 535.3,-73.06"/>
</a>
</g>
</g>
<!-- Node6&#45;&gt;Node4 -->
<g id="edge9_Node000006_Node000004" class="edge">
<title>Node6&#45;&gt;Node4</title>
<g id="a_edge9_Node000006_Node000004"><a xlink:title=" ">
<path fill="none" stroke="#63b8ff" d="M466.91,-164.55C469.43,-150.62 476.34,-123.9 493.61,-110 519.48,-89.19 608.38,-76.37 664.94,-70.12"/>
<polygon fill="#63b8ff" stroke="#63b8ff" points="665.53,-73.57 675.1,-69.03 664.79,-66.61 665.53,-73.57"/>
</a>
</g>
</g>
<!-- Node6&#45;&gt;Node7 -->
<g id="edge7_Node000006_Node000007" class="edge">
<title>Node6&#45;&gt;Node7</title>
<g id="a_edge7_Node000006_Node000007"><a xlink:title=" ">
<path fill="none" stroke="#63b8ff" d="M452.44,-164.98C439.84,-156.84 420.61,-144.41 405.67,-134.76"/>
<polygon fill="#63b8ff" stroke="#63b8ff" points="407.33,-131.66 397.03,-129.17 403.53,-137.54 407.33,-131.66"/>
</a>
</g>
</g>
<!-- Node8 -->
<g id="Node000008" class="node">
<title>Node8</title>
<g id="a_Node000008"><a xlink:title=" ">
<polygon fill="#e0e0e0" stroke="#999999" points="698.61,-129 630.61,-129 630.61,-110 698.61,-110 698.61,-129"/>
<text text-anchor="middle" x="664.61" y="-117" font-family="Helvetica,sans-Serif" font-size="10.00">sys/types.h</text>
</a>
</g>
</g>
<!-- Node6&#45;&gt;Node8 -->
<g id="edge8_Node000006_Node000008" class="edge">
<title>Node6&#45;&gt;Node8</title>
<g id="a_edge8_Node000006_Node000008"><a xlink:title=" ">
<path fill="none" stroke="#63b8ff" d="M497.59,-164.98C531.43,-155.97 585.01,-141.7 622.33,-131.76"/>
<polygon fill="#63b8ff" stroke="#63b8ff" points="623.63,-135.04 632.39,-129.08 621.83,-128.27 623.63,-135.04"/>
</a>
</g>
</g>
<!-- Node9&#45;&gt;Node2 -->
<g id="edge19_Node000009_Node000002" class="edge">
<title>Node9&#45;&gt;Node2</title>
<g id="a_edge19_Node000009_Node000002"><a xlink:title=" ">
<path fill="none" stroke="#63b8ff" d="M294.88,-165.04C349.12,-155.13 438.44,-138.81 492.57,-128.91"/>
<polygon fill="#63b8ff" stroke="#63b8ff" points="493.37,-132.33 502.58,-127.08 492.12,-125.44 493.37,-132.33"/>
</a>
</g>
</g>
<!-- Node9&#45;&gt;Node3 -->
<g id="edge14_Node000009_Node000003" class="edge">
<title>Node9&#45;&gt;Node3</title>
<g id="a_edge14_Node000009_Node000003"><a xlink:title=" ">
<path fill="none" stroke="#63b8ff" d="M202.43,-173.24C129.09,-171.32 -1.17,-160.92 45.61,-110 62.17,-91.98 418.13,-72.98 534.3,-67.24"/>
<polygon fill="#63b8ff" stroke="#63b8ff" points="534.65,-70.73 544.46,-66.74 534.3,-63.74 534.65,-70.73"/>
</a>
</g>
</g>
<!-- Node9&#45;&gt;Node4 -->
<g id="edge20_Node000009_Node000004" class="edge">
<title>Node9&#45;&gt;Node4</title>
<g id="a_edge20_Node000009_Node000004"><a xlink:title=" ">
<path fill="none" stroke="#63b8ff" d="M260.88,-164.83C283.43,-149.05 330.88,-116.66 349.61,-110 378.67,-99.67 572.31,-79.48 664.71,-70.28"/>
<polygon fill="#63b8ff" stroke="#63b8ff" points="665.32,-73.73 674.93,-69.26 664.63,-66.77 665.32,-73.73"/>
</a>
</g>
</g>
<!-- Node9&#45;&gt;Node7 -->
<g id="edge15_Node000009_Node000007" class="edge">
<title>Node9&#45;&gt;Node7</title>
<g id="a_edge15_Node000009_Node000007"><a xlink:title=" ">
<path fill="none" stroke="#63b8ff" d="M270.3,-164.98C292.41,-156.3 326.93,-142.75 352.07,-132.88"/>
<polygon fill="#63b8ff" stroke="#63b8ff" points="353.5,-136.08 361.53,-129.17 350.94,-129.57 353.5,-136.08"/>
</a>
</g>
</g>
<!-- Node10 -->
<g id="Node000010" class="node">
<title>Node10</title>
<g id="a_Node000010"><a xlink:title=" ">
<polygon fill="#e0e0e0" stroke="#999999" points="72.11,-74 25.11,-74 25.11,-55 72.11,-55 72.11,-74"/>
<text text-anchor="middle" x="48.61" y="-62" font-family="Helvetica,sans-Serif" font-size="10.00">errno.h</text>
</a>
</g>
</g>
<!-- Node9&#45;&gt;Node10 -->
<g id="edge11_Node000009_Node000010" class="edge">
<title>Node9&#45;&gt;Node10</title>
<g id="a_edge11_Node000009_Node000010"><a xlink:title=" ">
<path fill="none" stroke="#63b8ff" d="M202.37,-171.88C138.76,-168.56 29.3,-158.59 4.61,-129 -8.56,-113.21 9.82,-93.57 26.69,-80.34"/>
<polygon fill="#63b8ff" stroke="#63b8ff" points="29.22,-82.82 35.19,-74.06 25.07,-77.18 29.22,-82.82"/>
</a>
</g>
</g>
<!-- Node11 -->
<g id="Node000011" class="node">
<title>Node11</title>
<g id="a_Node000011"><a xlink:title=" ">
<polygon fill="#e0e0e0" stroke="#999999" points="102.61,-129 54.61,-129 54.61,-110 102.61,-110 102.61,-129"/>
<text text-anchor="middle" x="78.61" y="-117" font-family="Helvetica,sans-Serif" font-size="10.00">limits.h</text>
</a>
</g>
</g>
<!-- Node9&#45;&gt;Node11 -->
<g id="edge12_Node000009_Node000011" class="edge">
<title>Node9&#45;&gt;Node11</title>
<g id="a_edge12_Node000009_Node000011"><a xlink:title=" ">
<path fill="none" stroke="#63b8ff" d="M221.3,-164.98C191.74,-155.77 144.56,-141.06 112.62,-131.1"/>
<polygon fill="#63b8ff" stroke="#63b8ff" points="113.42,-127.69 102.83,-128.05 111.33,-134.37 113.42,-127.69"/>
</a>
</g>
</g>
<!-- Node12 -->
<g id="Node000012" class="node">
<title>Node12</title>
<g id="a_Node000012"><a xlink:title=" ">
<polygon fill="#e0e0e0" stroke="#999999" points="172.61,-129 120.61,-129 120.61,-110 172.61,-110 172.61,-129"/>
<text text-anchor="middle" x="146.61" y="-117" font-family="Helvetica,sans-Serif" font-size="10.00">stdarg.h</text>
</a>
</g>
</g>
<!-- Node9&#45;&gt;Node12 -->
<g id="edge13_Node000009_Node000012" class="edge">
<title>Node9&#45;&gt;Node12</title>
<g id="a_edge13_Node000009_Node000012"><a xlink:title=" ">
<path fill="none" stroke="#63b8ff" d="M232.22,-164.98C216.04,-156.57 191.04,-143.59 172.23,-133.81"/>
<polygon fill="#63b8ff" stroke="#63b8ff" points="173.79,-130.68 163.3,-129.17 170.56,-136.89 173.79,-130.68"/>
</a>
</g>
</g>
<!-- Node13 -->
<g id="Node000013" class="node">
<title>Node13</title>
<g id="a_Node000013"><a xlink:title=" ">
<polygon fill="#e0e0e0" stroke="#999999" points="396.61,-74 350.61,-74 350.61,-55 396.61,-55 396.61,-74"/>
<text text-anchor="middle" x="373.61" y="-62" font-family="Helvetica,sans-Serif" font-size="10.00">stdio.h</text>
</a>
</g>
</g>
<!-- Node9&#45;&gt;Node13 -->
<g id="edge16_Node000009_Node000013" class="edge">
<title>Node9&#45;&gt;Node13</title>
<g id="a_edge16_Node000009_Node000013"><a xlink:title=" ">
<path fill="none" stroke="#63b8ff" d="M202.57,-171.56C140.85,-167.89 36.26,-157.53 12.61,-129 7.22,-122.5 7.02,-116.33 12.61,-110 34.18,-85.62 255.17,-71.64 340.37,-67.13"/>
<polygon fill="#63b8ff" stroke="#63b8ff" points="340.72,-70.62 350.53,-66.6 340.36,-63.63 340.72,-70.62"/>
</a>
</g>
</g>
<!-- Node14 -->
<g id="Node000014" class="node">
<title>Node14</title>
<g id="a_Node000014"><a xlink:title=" ">
<polygon fill="#e0e0e0" stroke="#999999" points="240.11,-129 191.11,-129 191.11,-110 240.11,-110 240.11,-129"/>
<text text-anchor="middle" x="215.61" y="-117" font-family="Helvetica,sans-Serif" font-size="10.00">string.h</text>
</a>
</g>
</g>
<!-- Node9&#45;&gt;Node14 -->
<g id="edge17_Node000009_Node000014" class="edge">
<title>Node9&#45;&gt;Node14</title>
<g id="a_edge17_Node000009_Node000014"><a xlink:title=" ">
<path fill="none" stroke="#63b8ff" d="M243.16,-164.75C238.6,-157.42 231.94,-146.73 226.32,-137.7"/>
<polygon fill="#63b8ff" stroke="#63b8ff" points="229.22,-135.73 220.96,-129.09 223.28,-139.43 229.22,-135.73"/>
</a>
</g>
</g>
<!-- Node15 -->
<g id="Node000015" class="node">
<title>Node15</title>
<g id="a_Node000015"><a xlink:title=" ">
<polygon fill="#e0e0e0" stroke="#999999" points="302.61,-129 258.61,-129 258.61,-110 302.61,-110 302.61,-129"/>
<text text-anchor="middle" x="280.61" y="-117" font-family="Helvetica,sans-Serif" font-size="10.00">time.h</text>
</a>
</g>
</g>
<!-- Node9&#45;&gt;Node15 -->
<g id="edge18_Node000009_Node000015" class="edge">
<title>Node9&#45;&gt;Node15</title>
<g id="a_edge18_Node000009_Node000015"><a xlink:title=" ">
<path fill="none" stroke="#63b8ff" d="M253.9,-164.75C258.32,-157.42 264.78,-146.73 270.23,-137.7"/>
<polygon fill="#63b8ff" stroke="#63b8ff" points="273.25,-139.46 275.43,-129.09 267.26,-135.84 273.25,-139.46"/>
</a>
</g>
</g>
<!-- Node16 -->
<g id="Node000016" class="node">
<title>Node16</title>
<g id="a_Node000016"><a xlink:href="SocketConfig_8h.html" target="_top" xlink:title="Compile&#45;time and runtime configuration constants, limits, and platform adaptations.">
<polygon fill="white" stroke="#666666" points="936.61,-129 830.61,-129 830.61,-110 936.61,-110 936.61,-129"/>
<text text-anchor="middle" x="883.61" y="-117" font-family="Helvetica,sans-Serif" font-size="10.00">core/SocketConfig.h</text>
</a>
</g>
</g>
<!-- Node9&#45;&gt;Node16 -->
<g id="edge21_Node000009_Node000016" class="edge">
<title>Node9&#45;&gt;Node16</title>
<g id="a_edge21_Node000009_Node000016"><a xlink:title=" ">
<path fill="none" stroke="#63b8ff" d="M294.79,-169.65C406.78,-160.3 692.94,-136.41 820.54,-125.76"/>
<polygon fill="#63b8ff" stroke="#63b8ff" points="820.88,-129.25 830.55,-124.93 820.3,-122.27 820.88,-129.25"/>
</a>
</g>
</g>
<!-- Node16&#45;&gt;Node3 -->
<g id="edge26_Node000016_Node000003" class="edge">
<title>Node16&#45;&gt;Node3</title>
<g id="a_edge26_Node000016_Node000003"><a xlink:title=" ">
<path fill="none" stroke="#63b8ff" d="M833.32,-109.98C770.01,-99.26 662.78,-81.11 606.91,-71.65"/>
<polygon fill="#63b8ff" stroke="#63b8ff" points="607.22,-68.15 596.77,-69.93 606.05,-75.05 607.22,-68.15"/>
</a>
</g>
</g>
<!-- Node16&#45;&gt;Node10 -->
<g id="edge22_Node000016_Node000010" class="edge">
<title>Node16&#45;&gt;Node10</title>
<g id="a_edge22_Node000016_Node000010"><a xlink:title=" ">
<path fill="none" stroke="#63b8ff" d="M830.43,-115.12C672.85,-105.12 211.39,-75.83 82.44,-67.65"/>
<polygon fill="#63b8ff" stroke="#63b8ff" points="82.56,-64.15 72.36,-67.01 82.12,-71.13 82.56,-64.15"/>
</a>
</g>
</g>
<!-- Node16&#45;&gt;Node13 -->
<g id="edge27_Node000016_Node000013" class="edge">
<title>Node16&#45;&gt;Node13</title>
<g id="a_edge27_Node000016_Node000013"><a xlink:title=" ">
<path fill="none" stroke="#63b8ff" d="M830.48,-112.98C725.29,-102.05 493.25,-77.93 406.87,-68.96"/>
<polygon fill="#63b8ff" stroke="#63b8ff" points="407.15,-65.47 396.84,-67.91 406.43,-72.43 407.15,-65.47"/>
</a>
</g>
</g>
<!-- Node17 -->
<g id="Node000017" class="node">
<title>Node17</title>
<g id="a_Node000017"><a xlink:title=" ">
<polygon fill="#e0e0e0" stroke="#999999" points="1138.61,-74 1094.61,-74 1094.61,-55 1138.61,-55 1138.61,-74"/>
<text text-anchor="middle" x="1116.61" y="-62" font-family="Helvetica,sans-Serif" font-size="10.00">fcntl.h</text>
</a>
</g>
</g>
<!-- Node16&#45;&gt;Node17 -->
<g id="edge23_Node000016_Node000017" class="edge">
<title>Node16&#45;&gt;Node17</title>
<g id="a_edge23_Node000016_Node000017"><a xlink:title=" ">
<path fill="none" stroke="#63b8ff" d="M925.15,-109.99C964.01,-101.89 1023.89,-89.04 1084.56,-74.17"/>
<polygon fill="#63b8ff" stroke="#63b8ff" points="1085.43,-77.56 1094.3,-71.76 1083.75,-70.76 1085.43,-77.56"/>
</a>
</g>
</g>
<!-- Node18 -->
<g id="Node000018" class="node">
<title>Node18</title>
<g id="a_Node000018"><a xlink:title=" ">
<polygon fill="#e0e0e0" stroke="#999999" points="1337.11,-74 1272.11,-74 1272.11,-55 1337.11,-55 1337.11,-74"/>
<text text-anchor="middle" x="1304.61" y="-62" font-family="Helvetica,sans-Serif" font-size="10.00">netinet/in.h</text>
</a>
</g>
</g>
<!-- Node16&#45;&gt;Node18 -->
<g id="edge24_Node000016_Node000018" class="edge">
<title>Node16&#45;&gt;Node18</title>
<g id="a_edge24_Node000016_Node000018"><a xlink:title=" ">
<path fill="none" stroke="#63b8ff" d="M936.71,-111.18C939.72,-110.77 942.7,-110.38 945.61,-110 1059.7,-95.11 1194.35,-78.74 1261.71,-70.64"/>
<polygon fill="#63b8ff" stroke="#63b8ff" points="1262.41,-74.08 1271.93,-69.41 1261.58,-67.13 1262.41,-74.08"/>
</a>
</g>
</g>
<!-- Node19 -->
<g id="Node000019" class="node">
<title>Node19</title>
<g id="a_Node000019"><a xlink:title=" ">
<polygon fill="#e0e0e0" stroke="#999999" points="985.11,-74 914.11,-74 914.11,-55 985.11,-55 985.11,-74"/>
<text text-anchor="middle" x="949.61" y="-62" font-family="Helvetica,sans-Serif" font-size="10.00">netinet/tcp.h</text>
</a>
</g>
</g>
<!-- Node16&#45;&gt;Node19 -->
<g id="edge25_Node000016_Node000019" class="edge">
<title>Node16&#45;&gt;Node19</title>
<g id="a_edge25_Node000016_Node000019"><a xlink:title=" ">
<path fill="none" stroke="#63b8ff" d="M894.22,-109.98C904.07,-102.07 918.96,-90.11 930.83,-80.58"/>
<polygon fill="#63b8ff" stroke="#63b8ff" points="933.21,-83.16 938.82,-74.17 928.83,-77.7 933.21,-83.16"/>
</a>
</g>
</g>
<!-- Node20 -->
<g id="Node000020" class="node">
<title>Node20</title>
<g id="a_Node000020"><a xlink:title=" ">
<polygon fill="#e0e0e0" stroke="#999999" points="1076.11,-74 1003.11,-74 1003.11,-55 1076.11,-55 1076.11,-74"/>
<text text-anchor="middle" x="1039.61" y="-62" font-family="Helvetica,sans-Serif" font-size="10.00">sys/socket.h</text>
</a>
</g>
</g>
<!-- Node16&#45;&gt;Node20 -->
<g id="edge28_Node000016_Node000020" class="edge">
<title>Node16&#45;&gt;Node20</title>
<g id="a_edge28_Node000016_Node000020"><a xlink:title=" ">
<path fill="none" stroke="#63b8ff" d="M908.68,-109.98C934.64,-101.16 975.42,-87.31 1004.57,-77.41"/>
<polygon fill="#63b8ff" stroke="#63b8ff" points="1006.01,-80.61 1014.35,-74.08 1003.76,-73.99 1006.01,-80.61"/>
</a>
</g>
</g>
<!-- Node21 -->
<g id="Node000021" class="node">
<title>Node21</title>
<g id="a_Node000021"><a xlink:title=" ">
<polygon fill="#e0e0e0" stroke="#999999" points="826.61,-74 770.61,-74 770.61,-55 826.61,-55 826.61,-74"/>
<text text-anchor="middle" x="798.61" y="-62" font-family="Helvetica,sans-Serif" font-size="10.00">sys/uio.h</text>
</a>
</g>
</g>
<!-- Node16&#45;&gt;Node21 -->
<g id="edge29_Node000016_Node000021" class="edge">
<title>Node16&#45;&gt;Node21</title>
<g id="a_edge29_Node000016_Node000021"><a xlink:title=" ">
<path fill="none" stroke="#63b8ff" d="M869.96,-109.98C856.77,-101.77 836.59,-89.18 821.04,-79.49"/>
<polygon fill="#63b8ff" stroke="#63b8ff" points="822.86,-76.49 812.52,-74.17 819.15,-82.43 822.86,-76.49"/>
</a>
</g>
</g>
<!-- Node22 -->
<g id="Node000022" class="node">
<title>Node22</title>
<g id="a_Node000022"><a xlink:title=" ">
<polygon fill="#e0e0e0" stroke="#999999" points="896.11,-74 845.11,-74 845.11,-55 896.11,-55 896.11,-74"/>
<text text-anchor="middle" x="870.61" y="-62" font-family="Helvetica,sans-Serif" font-size="10.00">unistd.h</text>
</a>
</g>
</g>
<!-- Node16&#45;&gt;Node22 -->
<g id="edge30_Node000016_Node000022" class="edge">
<title>Node16&#45;&gt;Node22</title>
<g id="a_edge30_Node000016_Node000022"><a xlink:title=" ">
<path fill="none" stroke="#63b8ff" d="M881.47,-109.75C879.74,-102.72 877.27,-92.62 875.11,-83.84"/>
<polygon fill="#63b8ff" stroke="#63b8ff" points="878.5,-82.97 872.72,-74.09 871.7,-84.63 878.5,-82.97"/>
</a>
</g>
</g>
<!-- Node23&#45;&gt;Node4 -->
<g id="edge32_Node000023_Node000004" class="edge">
<title>Node23&#45;&gt;Node4</title>
<g id="a_edge32_Node000023_Node000004"><a xlink:title=" ">
<path fill="none" stroke="#63b8ff" d="M814.86,-219.74C797.88,-193.87 747.73,-117.48 725.02,-82.88"/>
<polygon fill="#63b8ff" stroke="#63b8ff" points="727.81,-80.75 719.39,-74.31 721.96,-84.59 727.81,-80.75"/>
</a>
</g>
</g>
<!-- Node23&#45;&gt;Node16 -->
<g id="edge33_Node000023_Node000016" class="edge">
<title>Node23&#45;&gt;Node16</title>
<g id="a_edge33_Node000023_Node000016"><a xlink:title=" ">
<path fill="none" stroke="#63b8ff" d="M825.77,-219.66C836.16,-201.85 859.77,-161.37 873.4,-138.01"/>
<polygon fill="#63b8ff" stroke="#63b8ff" points="876.55,-139.56 878.56,-129.16 870.5,-136.03 876.55,-139.56"/>
</a>
</g>
</g>
<!-- Node24 -->
<g id="Node000024" class="node">
<title>Node24</title>
<g id="a_Node000024"><a xlink:href="SocketDNS_8h.html" target="_top" xlink:title="Asynchronous DNS resolution API for non&#45;blocking network applications.">
<polygon fill="white" stroke="#666666" points="1050.61,-129 954.61,-129 954.61,-110 1050.61,-110 1050.61,-129"/>
<text text-anchor="middle" x="1002.61" y="-117" font-family="Helvetica,sans-Serif" font-size="10.00">dns/SocketDNS.h</text>
</a>
</g>
</g>
<!-- Node23&#45;&gt;Node24 -->
<g id="edge34_Node000023_Node000024" class="edge">
<title>Node23&#45;&gt;Node24</title>
<g id="a_edge34_Node000023_Node000024"><a xlink:title=" ">
<path fill="none" stroke="#63b8ff" d="M835.2,-219.84C866.69,-201.16 941.28,-156.9 979.36,-134.3"/>
<polygon fill="#63b8ff" stroke="#63b8ff" points="981.4,-137.16 988.21,-129.05 977.82,-131.14 981.4,-137.16"/>
</a>
</g>
</g>
<!-- Node26 -->
<g id="Node000026" class="node">
<title>Node26</title>
<g id="a_Node000026"><a xlink:href="SocketCommon_8h.html" target="_top" xlink:title="Common utilities shared between Socket and SocketDgram modules.">
<polygon fill="white" stroke="#666666" points="1180.61,-184 1052.61,-184 1052.61,-165 1180.61,-165 1180.61,-184"/>
<text text-anchor="middle" x="1116.61" y="-172" font-family="Helvetica,sans-Serif" font-size="10.00">socket/SocketCommon.h</text>
</a>
</g>
</g>
<!-- Node23&#45;&gt;Node26 -->
<g id="edge39_Node000023_Node000026" class="edge">
<title>Node23&#45;&gt;Node26</title>
<g id="a_edge39_Node000023_Node000026"><a xlink:title=" ">
<path fill="none" stroke="#63b8ff" d="M864.93,-220.57C916.66,-211.3 1002.34,-195.96 1059.15,-185.79"/>
<polygon fill="#63b8ff" stroke="#63b8ff" points="1059.82,-189.22 1069.05,-184.02 1058.59,-182.33 1059.82,-189.22"/>
</a>
</g>
</g>
<!-- Node24&#45;&gt;Node3 -->
<g id="edge37_Node000024_Node000003" class="edge">
<title>Node24&#45;&gt;Node3</title>
<g id="a_edge37_Node000024_Node000003"><a xlink:title=" ">
<path fill="none" stroke="#63b8ff" d="M954.43,-111.21C951.44,-110.79 948.49,-110.38 945.61,-110 821.63,-93.4 674.16,-76.83 607.08,-69.46"/>
<polygon fill="#63b8ff" stroke="#63b8ff" points="607.34,-65.97 597.02,-68.36 606.58,-72.93 607.34,-65.97"/>
</a>
</g>
</g>
<!-- Node24&#45;&gt;Node4 -->
<g id="edge35_Node000024_Node000004" class="edge">
<title>Node24&#45;&gt;Node4</title>
<g id="a_edge35_Node000024_Node000004"><a xlink:title=" ">
<path fill="none" stroke="#63b8ff" d="M956.18,-109.98C903.12,-100.25 816.65,-84.4 762.56,-74.48"/>
<polygon fill="#63b8ff" stroke="#63b8ff" points="762.99,-71 752.52,-72.63 761.72,-77.88 762.99,-71"/>
</a>
</g>
</g>
<!-- Node24&#45;&gt;Node20 -->
<g id="edge38_Node000024_Node000020" class="edge">
<title>Node24&#45;&gt;Node20</title>
<g id="a_edge38_Node000024_Node000020"><a xlink:title=" ">
<path fill="none" stroke="#63b8ff" d="M1008.72,-109.75C1013.89,-102.34 1021.46,-91.5 1027.81,-82.41"/>
<polygon fill="#63b8ff" stroke="#63b8ff" points="1030.76,-84.29 1033.62,-74.09 1025.02,-80.29 1030.76,-84.29"/>
</a>
</g>
</g>
<!-- Node25 -->
<g id="Node000025" class="node">
<title>Node25</title>
<g id="a_Node000025"><a xlink:title=" ">
<polygon fill="#e0e0e0" stroke="#999999" points="1461.11,-74 1412.11,-74 1412.11,-55 1461.11,-55 1461.11,-74"/>
<text text-anchor="middle" x="1436.61" y="-62" font-family="Helvetica,sans-Serif" font-size="10.00">netdb.h</text>
</a>
</g>
</g>
<!-- Node24&#45;&gt;Node25 -->
<g id="edge36_Node000024_Node000025" class="edge">
<title>Node24&#45;&gt;Node25</title>
<g id="a_edge36_Node000024_Node000025"><a xlink:title=" ">
<path fill="none" stroke="#63b8ff" d="M1050.72,-112.63C1138.82,-101.87 1324.15,-79.23 1401.52,-69.79"/>
<polygon fill="#63b8ff" stroke="#63b8ff" points="1402.19,-73.23 1411.7,-68.54 1401.34,-66.28 1402.19,-73.23"/>
</a>
</g>
</g>
<!-- Node26&#45;&gt;Node2 -->
<g id="edge49_Node000026_Node000002" class="edge">
<title>Node26&#45;&gt;Node2</title>
<g id="a_edge49_Node000026_Node000002"><a xlink:title=" ">
<path fill="none" stroke="#63b8ff" d="M1052.51,-167.99C958.13,-159.83 776.21,-143.86 621.61,-129 609.79,-127.86 597.03,-126.58 585.14,-125.37"/>
<polygon fill="#63b8ff" stroke="#63b8ff" points="585.27,-121.86 574.96,-124.32 584.55,-128.83 585.27,-121.86"/>
</a>
</g>
</g>
<!-- Node26&#45;&gt;Node4 -->
<g id="edge50_Node000026_Node000004" class="edge">
<title>Node26&#45;&gt;Node4</title>
<g id="a_edge50_Node000026_Node000004"><a xlink:title=" ">
<path fill="none" stroke="#63b8ff" d="M1052.48,-170.85C991.55,-166.71 898.14,-156.12 821.61,-129 788.4,-117.23 753.96,-94.92 733.16,-80.13"/>
<polygon fill="#63b8ff" stroke="#63b8ff" points="735.02,-77.15 724.87,-74.12 730.91,-82.82 735.02,-77.15"/>
</a>
</g>
</g>
<!-- Node26&#45;&gt;Node8 -->
<g id="edge47_Node000026_Node000008" class="edge">
<title>Node26&#45;&gt;Node8</title>
<g id="a_edge47_Node000026_Node000008"><a xlink:title=" ">
<path fill="none" stroke="#63b8ff" d="M1052.33,-165.96C959.26,-155.05 789.35,-135.13 708.99,-125.7"/>
<polygon fill="#63b8ff" stroke="#63b8ff" points="709.06,-122.19 698.72,-124.5 708.25,-129.14 709.06,-122.19"/>
</a>
</g>
</g>
<!-- Node26&#45;&gt;Node16 -->
<g id="edge51_Node000026_Node000016" class="edge">
<title>Node26&#45;&gt;Node16</title>
<g id="a_edge51_Node000026_Node000016"><a xlink:title=" ">
<path fill="none" stroke="#63b8ff" d="M1079.18,-164.98C1038.96,-155.84 974.94,-141.27 931.18,-131.32"/>
<polygon fill="#63b8ff" stroke="#63b8ff" points="931.87,-127.89 921.34,-129.08 930.32,-134.71 931.87,-127.89"/>
</a>
</g>
</g>
<!-- Node26&#45;&gt;Node17 -->
<g id="edge42_Node000026_Node000017" class="edge">
<title>Node26&#45;&gt;Node17</title>
<g id="a_edge42_Node000026_Node000017"><a xlink:title=" ">
<path fill="none" stroke="#63b8ff" d="M1116.61,-164.66C1116.61,-147.17 1116.61,-107.8 1116.61,-84.27"/>
<polygon fill="#63b8ff" stroke="#63b8ff" points="1120.11,-84.16 1116.61,-74.16 1113.11,-84.16 1120.11,-84.16"/>
</a>
</g>
</g>
<!-- Node26&#45;&gt;Node18 -->
<g id="edge44_Node000026_Node000018" class="edge">
<title>Node26&#45;&gt;Node18</title>
<g id="a_edge44_Node000026_Node000018"><a xlink:title=" ">
<path fill="none" stroke="#63b8ff" d="M1180.82,-174.12C1264.77,-173.41 1405,-166.44 1437.61,-129 1466.56,-95.76 1396.34,-78.51 1347.3,-70.77"/>
<polygon fill="#63b8ff" stroke="#63b8ff" points="1347.61,-67.28 1337.2,-69.26 1346.57,-74.2 1347.61,-67.28"/>
</a>
</g>
</g>
<!-- Node26&#45;&gt;Node20 -->
<g id="edge45_Node000026_Node000020" class="edge">
<title>Node26&#45;&gt;Node20</title>
<g id="a_edge45_Node000026_Node000020"><a xlink:title=" ">
<path fill="none" stroke="#63b8ff" d="M1110.31,-164.66C1097.5,-146.69 1068.23,-105.64 1051.65,-82.38"/>
<polygon fill="#63b8ff" stroke="#63b8ff" points="1054.44,-80.27 1045.79,-74.16 1048.74,-84.33 1054.44,-80.27"/>
</a>
</g>
</g>
<!-- Node26&#45;&gt;Node25 -->
<g id="edge43_Node000026_Node000025" class="edge">
<title>Node26&#45;&gt;Node25</title>
<g id="a_edge43_Node000026_Node000025"><a xlink:title=" ">
<path fill="none" stroke="#63b8ff" d="M1180.94,-169.54C1273.96,-163.16 1436.88,-149.22 1454.61,-129 1465.79,-116.26 1458.04,-97.05 1449.51,-83.1"/>
<polygon fill="#63b8ff" stroke="#63b8ff" points="1452.17,-80.78 1443.7,-74.42 1446.36,-84.68 1452.17,-80.78"/>
</a>
</g>
</g>
<!-- Node27 -->
<g id="Node000027" class="node">
<title>Node27</title>
<g id="a_Node000027"><a xlink:title=" ">
<polygon fill="#e0e0e0" stroke="#999999" points="1202.11,-129 1145.11,-129 1145.11,-110 1202.11,-110 1202.11,-129"/>
<text text-anchor="middle" x="1173.61" y="-117" font-family="Helvetica,sans-Serif" font-size="10.00">pthread.h</text>
</a>
</g>
</g>
<!-- Node26&#45;&gt;Node27 -->
<g id="edge40_Node000026_Node000027" class="edge">
<title>Node26&#45;&gt;Node27</title>
<g id="a_edge40_Node000026_Node000027"><a xlink:title=" ">
<path fill="none" stroke="#63b8ff" d="M1125.77,-164.98C1134.11,-157.23 1146.65,-145.58 1156.79,-136.14"/>
<polygon fill="#63b8ff" stroke="#63b8ff" points="1159.35,-138.54 1164.29,-129.17 1154.58,-133.42 1159.35,-138.54"/>
</a>
</g>
</g>
<!-- Node28 -->
<g id="Node000028" class="node">
<title>Node28</title>
<g id="a_Node000028"><a xlink:title=" ">
<polygon fill="#e0e0e0" stroke="#999999" points="1276.61,-129 1220.61,-129 1220.61,-110 1276.61,-110 1276.61,-129"/>
<text text-anchor="middle" x="1248.61" y="-117" font-family="Helvetica,sans-Serif" font-size="10.00">stdbool.h</text>
</a>
</g>
</g>
<!-- Node26&#45;&gt;Node28 -->
<g id="edge41_Node000026_Node000028" class="edge">
<title>Node26&#45;&gt;Node28</title>
<g id="a_edge41_Node000026_Node000028"><a xlink:title=" ">
<path fill="none" stroke="#63b8ff" d="M1137.82,-164.98C1159.34,-156.34 1192.9,-142.87 1217.44,-133.02"/>
<polygon fill="#63b8ff" stroke="#63b8ff" points="1219.04,-136.14 1227.02,-129.17 1216.43,-129.65 1219.04,-136.14"/>
</a>
</g>
</g>
<!-- Node29 -->
<g id="Node000029" class="node">
<title>Node29</title>
<g id="a_Node000029"><a xlink:title=" ">
<polygon fill="#e0e0e0" stroke="#999999" points="1356.61,-129 1294.61,-129 1294.61,-110 1356.61,-110 1356.61,-129"/>
<text text-anchor="middle" x="1325.61" y="-117" font-family="Helvetica,sans-Serif" font-size="10.00">sys/time.h</text>
</a>
</g>
</g>
<!-- Node26&#45;&gt;Node29 -->
<g id="edge46_Node000026_Node000029" class="edge">
<title>Node26&#45;&gt;Node29</title>
<g id="a_edge46_Node000026_Node000029"><a xlink:title=" ">
<path fill="none" stroke="#63b8ff" d="M1150.19,-164.98C1186.81,-155.7 1245.44,-140.83 1284.71,-130.87"/>
<polygon fill="#63b8ff" stroke="#63b8ff" points="1285.67,-134.24 1294.51,-128.39 1283.95,-127.45 1285.67,-134.24"/>
</a>
</g>
</g>
<!-- Node30 -->
<g id="Node000030" class="node">
<title>Node30</title>
<g id="a_Node000030"><a xlink:title=" ">
<polygon fill="#e0e0e0" stroke="#999999" points="1428.61,-129 1374.61,-129 1374.61,-110 1428.61,-110 1428.61,-129"/>
<text text-anchor="middle" x="1401.61" y="-117" font-family="Helvetica,sans-Serif" font-size="10.00">sys/un.h</text>
</a>
</g>
</g>
<!-- Node26&#45;&gt;Node30 -->
<g id="edge48_Node000026_Node000030" class="edge">
<title>Node26&#45;&gt;Node30</title>
<g id="a_edge48_Node000026_Node000030"><a xlink:title=" ">
<path fill="none" stroke="#63b8ff" d="M1169.24,-164.96C1217.57,-156.92 1291.42,-144.15 1364.66,-129.1"/>
<polygon fill="#63b8ff" stroke="#63b8ff" points="1365.44,-132.52 1374.52,-127.07 1364.02,-125.66 1365.44,-132.52"/>
</a>
</g>
</g>
<!-- Node31&#45;&gt;Node3 -->
<g id="edge55_Node000031_Node000003" class="edge">
<title>Node31&#45;&gt;Node3</title>
<g id="a_edge55_Node000031_Node000003"><a xlink:title=" ">
<path fill="none" stroke="#63b8ff" d="M660.93,-274.95C647.04,-242.74 597.66,-128.23 578.39,-83.55"/>
<polygon fill="#63b8ff" stroke="#63b8ff" points="581.55,-82.02 574.37,-74.22 575.12,-84.79 581.55,-82.02"/>
</a>
</g>
</g>
<!-- Node31&#45;&gt;Node4 -->
<g id="edge53_Node000031_Node000004" class="edge">
<title>Node31&#45;&gt;Node4</title>
<g id="a_edge53_Node000031_Node000004"><a xlink:title=" ">
<path fill="none" stroke="#63b8ff" d="M667.52,-274.67C670.45,-265.72 675.02,-251.45 678.61,-239 692.65,-190.43 698.76,-178.78 707.61,-129 710.25,-114.14 711.78,-97.11 712.64,-84.42"/>
<polygon fill="#63b8ff" stroke="#63b8ff" points="716.15,-84.38 713.24,-74.19 709.16,-83.96 716.15,-84.38"/>
</a>
</g>
</g>
<!-- Node31&#45;&gt;Node8 -->
<g id="edge56_Node000031_Node000008" class="edge">
<title>Node31&#45;&gt;Node8</title>
<g id="a_edge56_Node000031_Node000008"><a xlink:title=" ">
<path fill="none" stroke="#63b8ff" d="M664.61,-274.74C664.61,-249.31 664.61,-175.08 664.61,-139.69"/>
<polygon fill="#63b8ff" stroke="#63b8ff" points="668.11,-139.31 664.61,-129.31 661.11,-139.31 668.11,-139.31"/>
</a>
</g>
</g>
<!-- Node31&#45;&gt;Node23 -->
<g id="edge54_Node000031_Node000023" class="edge">
<title>Node31&#45;&gt;Node23</title>
<g id="a_edge54_Node000031_Node000023"><a xlink:title=" ">
<path fill="none" stroke="#63b8ff" d="M689.68,-274.98C715.64,-266.16 756.42,-252.31 785.57,-242.41"/>
<polygon fill="#63b8ff" stroke="#63b8ff" points="787.01,-245.61 795.35,-239.08 784.76,-238.99 787.01,-245.61"/>
</a>
</g>
</g>
</g>
</svg>

<g id="navigator" transform="translate(0 0)" fill="#404254">
  <rect fill="#f2f5e9" fill-opacity="0.5" stroke="#606060" stroke-width=".5" x="0" y="0" width="60" height="60"/>
  <use id="zoomplus" xlink:href="#zoomPlus" x="17" y="9" onmousedown="handleZoom(evt,'in')"/>
  <use id="zoomminus" xlink:href="#zoomMin" x="42" y="9" onmousedown="handleZoom(evt,'out')"/>
  <use id="reset" xlink:href="#resetDef" x="30" y="36" onmousedown="handleReset()"/>
   <use id="arrowup" xlink:href="#arrowUp" x="0" y="0" onmousedown="handlePan(0,-1)"/>
  <use id="arrowright" xlink:href="#arrowRight" x="0" y="0" onmousedown="handlePan(1,0)"/>
  <use id="arrowdown" xlink:href="#arrowDown" x="0" y="0" onmousedown="handlePan(0,1)"/>
  <use id="arrowleft" xlink:href="#arrowLeft" x="0" y="0" onmousedown="handlePan(-1,0)"/>
</g>
<svg viewBox="0 0 15 15" width="100%" height="30px" preserveAspectRatio="xMaxYMin meet">
 <g id="arrow_out" transform="scale(0.3 0.3)">
  <a xlink:href="SocketReconnect-private_8h__incl_org.svg" target="_base">
   <rect id="button" ry="5" rx="5" y="6" x="6" height="38" width="38"
        fill="#f2f5e9" fill-opacity="0.5" stroke="#606060" stroke-width="1.0"/>
   <path id="arrow"
     d="M 11.500037,31.436501 C 11.940474,20.09759 22.043105,11.32322 32.158766,21.979434 L 37.068811,17.246167 C 37.068811,17.246167 37.088388,32 37.088388,32 L 22.160133,31.978069 C 22.160133,31.978069 26.997745,27.140456 26.997745,27.140456 C 18.528582,18.264221 13.291696,25.230495 11.500037,31.436501 z"
     style="fill:#404040;"/>
  </a>
 </g>
</svg>

<style type='text/css'>
<![CDATA[
[data-mouse-over-selected='false'] { opacity: 0.7; }
[data-mouse-over-selected='true']  { opacity: 1.0; }
]]>
</style>
<script type="application/ecmascript"><![CDATA[
document.addEventListener('DOMContentLoaded', (event) => {
  highlightEdges();
  highlightAdjacentNodes();
});
]]></script>
</svg>
