<?xml version="1.0" encoding="UTF-8" standalone="no"?>
<!DOCTYPE svg PUBLIC "-//W3C//DTD SVG 1.1//EN"
 "http://www.w3.org/Graphics/SVG/1.1/DTD/svg11.dtd">
<!-- Generated by graphviz version 2.43.0 (0)
 -->
<!-- Title: SocketTLSContext.h Pages: 1 -->
<svg width="1506pt" height="357pt"
 viewBox="0.00 0.00 1506.00 357.00" xmlns="http://www.w3.org/2000/svg" xmlns:xlink="http://www.w3.org/1999/xlink">
<g id="graph0" class="graph" transform="scale(1 1) rotate(0) translate(4 353)">
<title>SocketTLSContext.h</title>
<!-- Node1 -->
<g id="Node000001" class="node">
<title>Node1</title>
<g id="a_Node000001"><a xlink:title="TLS context management with secure defaults and certificate handling.">
<polygon fill="#999999" stroke="#666666" points="1173,-349 1065,-349 1065,-330 1173,-330 1173,-349"/>
<text text-anchor="middle" x="1119" y="-337" font-family="Helvetica,sans-Serif" font-size="10.00">SocketTLSContext.h</text>
</a>
</g>
</g>
<!-- Node2 -->
<g id="Node000002" class="node">
<title>Node2</title>
<g id="a_Node000002"><a xlink:href="Arena_8h.html" target="_top" xlink:title="Arena&#45;based memory allocator for efficient bulk memory management.">
<polygon fill="white" stroke="#666666" points="924,-129 852,-129 852,-110 924,-110 924,-129"/>
<text text-anchor="middle" x="888" y="-117" font-family="Helvetica,sans-Serif" font-size="10.00">core/Arena.h</text>
</a>
</g>
</g>
<!-- Node1&#45;&gt;Node2 -->
<g id="edge1_Node000001_Node000002" class="edge">
<title>Node1&#45;&gt;Node2</title>
<g id="a_edge1_Node000001_Node000002"><a xlink:title=" ">
<path fill="none" stroke="#63b8ff" d="M1064.77,-332.22C1035.43,-326.42 1000.16,-315.31 975,-294 925.35,-251.94 901.1,-174.62 892.18,-139.16"/>
<polygon fill="#63b8ff" stroke="#63b8ff" points="895.54,-138.13 889.81,-129.21 888.73,-139.75 895.54,-138.13"/>
</a>
</g>
</g>
<!-- Node4 -->
<g id="Node000004" class="node">
<title>Node4</title>
<g id="a_Node000004"><a xlink:href="Except_8h.html" target="_top" xlink:title="Structured exception handling for C with TRY/EXCEPT/FINALLY blocks.">
<polygon fill="white" stroke="#666666" points="1009.5,-74 932.5,-74 932.5,-55 1009.5,-55 1009.5,-74"/>
<text text-anchor="middle" x="971" y="-62" font-family="Helvetica,sans-Serif" font-size="10.00">core/Except.h</text>
</a>
</g>
</g>
<!-- Node1&#45;&gt;Node4 -->
<g id="edge5_Node000001_Node000004" class="edge">
<title>Node1&#45;&gt;Node4</title>
<g id="a_edge5_Node000001_Node000004"><a xlink:title=" ">
<path fill="none" stroke="#63b8ff" d="M1114.76,-329.62C1099.95,-298.74 1048.74,-193.41 1000,-110 994.59,-100.74 988.11,-90.72 982.66,-82.53"/>
<polygon fill="#63b8ff" stroke="#63b8ff" points="985.53,-80.54 977.04,-74.21 979.73,-84.45 985.53,-80.54"/>
</a>
</g>
</g>
<!-- Node6 -->
<g id="Node000006" class="node">
<title>Node6</title>
<g id="a_Node000006"><a xlink:href="SocketTLS_8h.html" target="_top" xlink:title="High&#45;level TLS/SSL integration for secure Socket I/O with TLS 1.3 enforcement.">
<polygon fill="white" stroke="#666666" points="1071.5,-294 984.5,-294 984.5,-275 1071.5,-275 1071.5,-294"/>
<text text-anchor="middle" x="1028" y="-282" font-family="Helvetica,sans-Serif" font-size="10.00">tls/SocketTLS.h</text>
</a>
</g>
</g>
<!-- Node1&#45;&gt;Node6 -->
<g id="edge6_Node000001_Node000006" class="edge">
<title>Node1&#45;&gt;Node6</title>
<g id="a_edge6_Node000001_Node000006"><a xlink:title=" ">
<path fill="none" stroke="#63b8ff" d="M1104.38,-329.98C1090.14,-321.69 1068.25,-308.94 1051.55,-299.22"/>
<polygon fill="#63b8ff" stroke="#63b8ff" points="1053.29,-296.18 1042.89,-294.17 1049.77,-302.23 1053.29,-296.18"/>
</a>
</g>
</g>
<!-- Node26 -->
<g id="Node000026" class="node">
<title>Node26</title>
<g id="a_Node000026"><a xlink:href="SocketTLSConfig_8h.html" target="_top" xlink:title="TLS configuration constants, structure, and secure defaults.">
<polygon fill="white" stroke="#666666" points="1300,-294 1184,-294 1184,-275 1300,-275 1300,-294"/>
<text text-anchor="middle" x="1242" y="-282" font-family="Helvetica,sans-Serif" font-size="10.00">tls/SocketTLSConfig.h</text>
</a>
</g>
</g>
<!-- Node1&#45;&gt;Node26 -->
<g id="edge39_Node000001_Node000026" class="edge">
<title>Node1&#45;&gt;Node26</title>
<g id="a_edge39_Node000001_Node000026"><a xlink:title=" ">
<path fill="none" stroke="#63b8ff" d="M1138.76,-329.98C1158.73,-321.38 1189.8,-307.99 1212.65,-298.15"/>
<polygon fill="#63b8ff" stroke="#63b8ff" points="1214.08,-301.34 1221.88,-294.17 1211.31,-294.91 1214.08,-301.34"/>
</a>
</g>
</g>
<!-- Node28 -->
<g id="Node000028" class="node">
<title>Node28</title>
<g id="a_Node000028"><a xlink:title=" ">
<polygon fill="#e0e0e0" stroke="#999999" points="1195,-239 1121,-239 1121,-220 1195,-220 1195,-239"/>
<text text-anchor="middle" x="1158" y="-227" font-family="Helvetica,sans-Serif" font-size="10.00">openssl/ssl.h</text>
</a>
</g>
</g>
<!-- Node1&#45;&gt;Node28 -->
<g id="edge44_Node000001_Node000028" class="edge">
<title>Node1&#45;&gt;Node28</title>
<g id="a_edge44_Node000001_Node000028"><a xlink:title=" ">
<path fill="none" stroke="#63b8ff" d="M1122.19,-329.66C1128.57,-312.01 1142.98,-272.09 1151.45,-248.64"/>
<polygon fill="#63b8ff" stroke="#63b8ff" points="1154.77,-249.75 1154.87,-239.16 1148.18,-247.38 1154.77,-249.75"/>
</a>
</g>
</g>
<!-- Node31 -->
<g id="Node000031" class="node">
<title>Node31</title>
<g id="a_Node000031"><a xlink:title=" ">
<polygon fill="#e0e0e0" stroke="#999999" points="1418,-294 1318,-294 1318,-275 1418,-275 1418,-294"/>
<text text-anchor="middle" x="1368" y="-282" font-family="Helvetica,sans-Serif" font-size="10.00">openssl/x509_vfy.h</text>
</a>
</g>
</g>
<!-- Node1&#45;&gt;Node31 -->
<g id="edge45_Node000001_Node000031" class="edge">
<title>Node1&#45;&gt;Node31</title>
<g id="a_edge45_Node000001_Node000031"><a xlink:title=" ">
<path fill="none" stroke="#63b8ff" d="M1159.01,-329.98C1202.17,-320.8 1270.98,-306.15 1317.76,-296.19"/>
<polygon fill="#63b8ff" stroke="#63b8ff" points="1318.63,-299.59 1327.68,-294.08 1317.17,-292.74 1318.63,-299.59"/>
</a>
</g>
</g>
<!-- Node3 -->
<g id="Node000003" class="node">
<title>Node3</title>
<g id="a_Node000003"><a xlink:title=" ">
<polygon fill="#e0e0e0" stroke="#999999" points="778,-74 726,-74 726,-55 778,-55 778,-74"/>
<text text-anchor="middle" x="752" y="-62" font-family="Helvetica,sans-Serif" font-size="10.00">stddef.h</text>
</a>
</g>
</g>
<!-- Node2&#45;&gt;Node3 -->
<g id="edge2_Node000002_Node000003" class="edge">
<title>Node2&#45;&gt;Node3</title>
<g id="a_edge2_Node000002_Node000003"><a xlink:title=" ">
<path fill="none" stroke="#63b8ff" d="M866.15,-109.98C843.88,-101.3 809.1,-87.75 783.78,-77.88"/>
<polygon fill="#63b8ff" stroke="#63b8ff" points="784.84,-74.54 774.25,-74.17 782.29,-81.06 784.84,-74.54"/>
</a>
</g>
</g>
<!-- Node2&#45;&gt;Node4 -->
<g id="edge3_Node000002_Node000004" class="edge">
<title>Node2&#45;&gt;Node4</title>
<g id="a_edge3_Node000002_Node000004"><a xlink:title=" ">
<path fill="none" stroke="#63b8ff" d="M901.34,-109.98C914.09,-101.84 933.55,-89.41 948.67,-79.76"/>
<polygon fill="#63b8ff" stroke="#63b8ff" points="950.88,-82.5 957.42,-74.17 947.11,-76.6 950.88,-82.5"/>
</a>
</g>
</g>
<!-- Node5 -->
<g id="Node000005" class="node">
<title>Node5</title>
<g id="a_Node000005"><a xlink:title=" ">
<polygon fill="#e0e0e0" stroke="#999999" points="998,-19 944,-19 944,0 998,0 998,-19"/>
<text text-anchor="middle" x="971" y="-7" font-family="Helvetica,sans-Serif" font-size="10.00">setjmp.h</text>
</a>
</g>
</g>
<!-- Node4&#45;&gt;Node5 -->
<g id="edge4_Node000004_Node000005" class="edge">
<title>Node4&#45;&gt;Node5</title>
<g id="a_edge4_Node000004_Node000005"><a xlink:title=" ">
<path fill="none" stroke="#63b8ff" d="M971,-54.75C971,-47.8 971,-37.85 971,-29.13"/>
<polygon fill="#63b8ff" stroke="#63b8ff" points="974.5,-29.09 971,-19.09 967.5,-29.09 974.5,-29.09"/>
</a>
</g>
</g>
<!-- Node6&#45;&gt;Node4 -->
<g id="edge7_Node000006_Node000004" class="edge">
<title>Node6&#45;&gt;Node4</title>
<g id="a_edge7_Node000006_Node000004"><a xlink:title=" ">
<path fill="none" stroke="#63b8ff" d="M1025.77,-274.95C1017.38,-242.88 987.65,-129.2 975.87,-84.12"/>
<polygon fill="#63b8ff" stroke="#63b8ff" points="979.2,-83.01 973.28,-74.22 972.42,-84.78 979.2,-83.01"/>
</a>
</g>
</g>
<!-- Node7 -->
<g id="Node000007" class="node">
<title>Node7</title>
<g id="a_Node000007"><a xlink:href="Socket_8h.html" target="_top" xlink:title="High&#45;level TCP/IP and Unix domain socket interface.">
<polygon fill="white" stroke="#666666" points="830,-239 742,-239 742,-220 830,-220 830,-239"/>
<text text-anchor="middle" x="786" y="-227" font-family="Helvetica,sans-Serif" font-size="10.00">socket/Socket.h</text>
</a>
</g>
</g>
<!-- Node6&#45;&gt;Node7 -->
<g id="edge8_Node000006_Node000007" class="edge">
<title>Node6&#45;&gt;Node7</title>
<g id="a_edge8_Node000006_Node000007"><a xlink:title=" ">
<path fill="none" stroke="#63b8ff" d="M989.12,-274.98C947.26,-265.82 880.57,-251.21 835.12,-241.26"/>
<polygon fill="#63b8ff" stroke="#63b8ff" points="835.7,-237.8 825.19,-239.08 834.21,-244.64 835.7,-237.8"/>
</a>
</g>
</g>
<!-- Node7&#45;&gt;Node4 -->
<g id="edge9_Node000007_Node000004" class="edge">
<title>Node7&#45;&gt;Node4</title>
<g id="a_edge9_Node000007_Node000004"><a xlink:title=" ">
<path fill="none" stroke="#63b8ff" d="M814.56,-219.95C853.14,-206.87 921.16,-178.11 957,-129 966.46,-116.03 969.73,-97.88 970.77,-84.3"/>
<polygon fill="#63b8ff" stroke="#63b8ff" points="974.27,-84.33 971.2,-74.19 967.28,-84.03 974.27,-84.33"/>
</a>
</g>
</g>
<!-- Node8 -->
<g id="Node000008" class="node">
<title>Node8</title>
<g id="a_Node000008"><a xlink:href="SocketConfig_8h.html" target="_top" xlink:title="Compile&#45;time and runtime configuration constants, limits, and platform adaptations.">
<polygon fill="white" stroke="#666666" points="256,-129 150,-129 150,-110 256,-110 256,-129"/>
<text text-anchor="middle" x="203" y="-117" font-family="Helvetica,sans-Serif" font-size="10.00">core/SocketConfig.h</text>
</a>
</g>
</g>
<!-- Node7&#45;&gt;Node8 -->
<g id="edge10_Node000007_Node000008" class="edge">
<title>Node7&#45;&gt;Node8</title>
<g id="a_edge10_Node000007_Node000008"><a xlink:title=" ">
<path fill="none" stroke="#63b8ff" d="M741.83,-224.39C677.18,-217.99 553.13,-204.24 449,-184 374.62,-169.55 289.3,-145.9 241.21,-131.9"/>
<polygon fill="#63b8ff" stroke="#63b8ff" points="242.11,-128.52 231.53,-129.07 240.14,-135.24 242.11,-128.52"/>
</a>
</g>
</g>
<!-- Node17 -->
<g id="Node000017" class="node">
<title>Node17</title>
<g id="a_Node000017"><a xlink:href="SocketDNS_8h.html" target="_top" xlink:title="Asynchronous DNS resolution API for non&#45;blocking network applications.">
<polygon fill="white" stroke="#666666" points="834,-129 738,-129 738,-110 834,-110 834,-129"/>
<text text-anchor="middle" x="786" y="-117" font-family="Helvetica,sans-Serif" font-size="10.00">dns/SocketDNS.h</text>
</a>
</g>
</g>
<!-- Node7&#45;&gt;Node17 -->
<g id="edge20_Node000007_Node000017" class="edge">
<title>Node7&#45;&gt;Node17</title>
<g id="a_edge20_Node000007_Node000017"><a xlink:title=" ">
<path fill="none" stroke="#63b8ff" d="M786,-219.66C786,-202.17 786,-162.8 786,-139.27"/>
<polygon fill="#63b8ff" stroke="#63b8ff" points="789.5,-139.16 786,-129.16 782.5,-139.16 789.5,-139.16"/>
</a>
</g>
</g>
<!-- Node20 -->
<g id="Node000020" class="node">
<title>Node20</title>
<g id="a_Node000020"><a xlink:href="SocketCommon_8h.html" target="_top" xlink:title="Common utilities shared between Socket and SocketDgram modules.">
<polygon fill="white" stroke="#666666" points="586,-184 458,-184 458,-165 586,-165 586,-184"/>
<text text-anchor="middle" x="522" y="-172" font-family="Helvetica,sans-Serif" font-size="10.00">socket/SocketCommon.h</text>
</a>
</g>
</g>
<!-- Node7&#45;&gt;Node20 -->
<g id="edge26_Node000007_Node000020" class="edge">
<title>Node7&#45;&gt;Node20</title>
<g id="a_edge26_Node000007_Node000020"><a xlink:title=" ">
<path fill="none" stroke="#63b8ff" d="M743.58,-219.98C697.63,-210.76 624.25,-196.03 574.65,-186.07"/>
<polygon fill="#63b8ff" stroke="#63b8ff" points="575.24,-182.62 564.75,-184.08 573.86,-189.48 575.24,-182.62"/>
</a>
</g>
</g>
<!-- Node8&#45;&gt;Node3 -->
<g id="edge15_Node000008_Node000003" class="edge">
<title>Node8&#45;&gt;Node3</title>
<g id="a_edge15_Node000008_Node000003"><a xlink:title=" ">
<path fill="none" stroke="#63b8ff" d="M256.08,-111.03C259.09,-110.67 262.08,-110.32 265,-110 456.51,-88.91 505.68,-96.73 697,-74 703.02,-73.28 709.4,-72.41 715.6,-71.49"/>
<polygon fill="#63b8ff" stroke="#63b8ff" points="716.4,-74.91 725.75,-69.94 715.34,-67.99 716.4,-74.91"/>
</a>
</g>
</g>
<!-- Node9 -->
<g id="Node000009" class="node">
<title>Node9</title>
<g id="a_Node000009"><a xlink:title=" ">
<polygon fill="#e0e0e0" stroke="#999999" points="489.5,-74 442.5,-74 442.5,-55 489.5,-55 489.5,-74"/>
<text text-anchor="middle" x="466" y="-62" font-family="Helvetica,sans-Serif" font-size="10.00">errno.h</text>
</a>
</g>
</g>
<!-- Node8&#45;&gt;Node9 -->
<g id="edge11_Node000008_Node000009" class="edge">
<title>Node8&#45;&gt;Node9</title>
<g id="a_edge11_Node000008_Node000009"><a xlink:title=" ">
<path fill="none" stroke="#63b8ff" d="M251.64,-109.98C296.13,-101.99 363.98,-89.29 432.19,-74.07"/>
<polygon fill="#63b8ff" stroke="#63b8ff" points="433.26,-77.41 442.25,-71.8 431.72,-70.58 433.26,-77.41"/>
</a>
</g>
</g>
<!-- Node10 -->
<g id="Node000010" class="node">
<title>Node10</title>
<g id="a_Node000010"><a xlink:title=" ">
<polygon fill="#e0e0e0" stroke="#999999" points="44,-74 0,-74 0,-55 44,-55 44,-74"/>
<text text-anchor="middle" x="22" y="-62" font-family="Helvetica,sans-Serif" font-size="10.00">fcntl.h</text>
</a>
</g>
</g>
<!-- Node8&#45;&gt;Node10 -->
<g id="edge12_Node000008_Node000010" class="edge">
<title>Node8&#45;&gt;Node10</title>
<g id="a_edge12_Node000008_Node000010"><a xlink:title=" ">
<path fill="none" stroke="#63b8ff" d="M173.92,-109.98C141.14,-100.39 87.99,-84.82 54.04,-74.88"/>
<polygon fill="#63b8ff" stroke="#63b8ff" points="54.74,-71.44 44.16,-71.99 52.78,-78.16 54.74,-71.44"/>
</a>
</g>
</g>
<!-- Node11 -->
<g id="Node000011" class="node">
<title>Node11</title>
<g id="a_Node000011"><a xlink:title=" ">
<polygon fill="#e0e0e0" stroke="#999999" points="127.5,-74 62.5,-74 62.5,-55 127.5,-55 127.5,-74"/>
<text text-anchor="middle" x="95" y="-62" font-family="Helvetica,sans-Serif" font-size="10.00">netinet/in.h</text>
</a>
</g>
</g>
<!-- Node8&#45;&gt;Node11 -->
<g id="edge13_Node000008_Node000011" class="edge">
<title>Node8&#45;&gt;Node11</title>
<g id="a_edge13_Node000008_Node000011"><a xlink:title=" ">
<path fill="none" stroke="#63b8ff" d="M185.65,-109.98C168.43,-101.54 141.8,-88.47 121.85,-78.68"/>
<polygon fill="#63b8ff" stroke="#63b8ff" points="123.19,-75.43 112.67,-74.17 120.1,-81.72 123.19,-75.43"/>
</a>
</g>
</g>
<!-- Node12 -->
<g id="Node000012" class="node">
<title>Node12</title>
<g id="a_Node000012"><a xlink:title=" ">
<polygon fill="#e0e0e0" stroke="#999999" points="216.5,-74 145.5,-74 145.5,-55 216.5,-55 216.5,-74"/>
<text text-anchor="middle" x="181" y="-62" font-family="Helvetica,sans-Serif" font-size="10.00">netinet/tcp.h</text>
</a>
</g>
</g>
<!-- Node8&#45;&gt;Node12 -->
<g id="edge14_Node000008_Node000012" class="edge">
<title>Node8&#45;&gt;Node12</title>
<g id="a_edge14_Node000008_Node000012"><a xlink:title=" ">
<path fill="none" stroke="#63b8ff" d="M199.37,-109.75C196.42,-102.65 192.17,-92.4 188.49,-83.56"/>
<polygon fill="#63b8ff" stroke="#63b8ff" points="191.63,-81.98 184.57,-74.09 185.17,-84.67 191.63,-81.98"/>
</a>
</g>
</g>
<!-- Node13 -->
<g id="Node000013" class="node">
<title>Node13</title>
<g id="a_Node000013"><a xlink:title=" ">
<polygon fill="#e0e0e0" stroke="#999999" points="281,-74 235,-74 235,-55 281,-55 281,-74"/>
<text text-anchor="middle" x="258" y="-62" font-family="Helvetica,sans-Serif" font-size="10.00">stdio.h</text>
</a>
</g>
</g>
<!-- Node8&#45;&gt;Node13 -->
<g id="edge16_Node000008_Node000013" class="edge">
<title>Node8&#45;&gt;Node13</title>
<g id="a_edge16_Node000008_Node000013"><a xlink:title=" ">
<path fill="none" stroke="#63b8ff" d="M212.08,-109.75C220.09,-102.03 231.96,-90.6 241.62,-81.28"/>
<polygon fill="#63b8ff" stroke="#63b8ff" points="244.31,-83.55 249.09,-74.09 239.46,-78.51 244.31,-83.55"/>
</a>
</g>
</g>
<!-- Node14 -->
<g id="Node000014" class="node">
<title>Node14</title>
<g id="a_Node000014"><a xlink:title=" ">
<polygon fill="#e0e0e0" stroke="#999999" points="580.5,-74 507.5,-74 507.5,-55 580.5,-55 580.5,-74"/>
<text text-anchor="middle" x="544" y="-62" font-family="Helvetica,sans-Serif" font-size="10.00">sys/socket.h</text>
</a>
</g>
</g>
<!-- Node8&#45;&gt;Node14 -->
<g id="edge17_Node000008_Node000014" class="edge">
<title>Node8&#45;&gt;Node14</title>
<g id="a_edge17_Node000008_Node000014"><a xlink:title=" ">
<path fill="none" stroke="#63b8ff" d="M256.11,-111.03C313.15,-102.88 406.72,-89.17 497.46,-74.04"/>
<polygon fill="#63b8ff" stroke="#63b8ff" points="498.08,-77.49 507.36,-72.38 496.92,-70.58 498.08,-77.49"/>
</a>
</g>
</g>
<!-- Node15 -->
<g id="Node000015" class="node">
<title>Node15</title>
<g id="a_Node000015"><a xlink:title=" ">
<polygon fill="#e0e0e0" stroke="#999999" points="355,-74 299,-74 299,-55 355,-55 355,-74"/>
<text text-anchor="middle" x="327" y="-62" font-family="Helvetica,sans-Serif" font-size="10.00">sys/uio.h</text>
</a>
</g>
</g>
<!-- Node8&#45;&gt;Node15 -->
<g id="edge18_Node000008_Node000015" class="edge">
<title>Node8&#45;&gt;Node15</title>
<g id="a_edge18_Node000008_Node000015"><a xlink:title=" ">
<path fill="none" stroke="#63b8ff" d="M222.92,-109.98C243.05,-101.38 274.38,-87.99 297.41,-78.15"/>
<polygon fill="#63b8ff" stroke="#63b8ff" points="298.9,-81.32 306.71,-74.17 296.14,-74.88 298.9,-81.32"/>
</a>
</g>
</g>
<!-- Node16 -->
<g id="Node000016" class="node">
<title>Node16</title>
<g id="a_Node000016"><a xlink:title=" ">
<polygon fill="#e0e0e0" stroke="#999999" points="424.5,-74 373.5,-74 373.5,-55 424.5,-55 424.5,-74"/>
<text text-anchor="middle" x="399" y="-62" font-family="Helvetica,sans-Serif" font-size="10.00">unistd.h</text>
</a>
</g>
</g>
<!-- Node8&#45;&gt;Node16 -->
<g id="edge19_Node000008_Node000016" class="edge">
<title>Node8&#45;&gt;Node16</title>
<g id="a_edge19_Node000008_Node000016"><a xlink:title=" ">
<path fill="none" stroke="#63b8ff" d="M234.49,-109.98C269.7,-100.46 326.61,-85.08 363.41,-75.12"/>
<polygon fill="#63b8ff" stroke="#63b8ff" points="364.48,-78.46 373.22,-72.47 362.65,-71.7 364.48,-78.46"/>
</a>
</g>
</g>
<!-- Node17&#45;&gt;Node3 -->
<g id="edge23_Node000017_Node000003" class="edge">
<title>Node17&#45;&gt;Node3</title>
<g id="a_edge23_Node000017_Node000003"><a xlink:title=" ">
<path fill="none" stroke="#63b8ff" d="M780.39,-109.75C775.68,-102.42 768.83,-91.73 763.03,-82.7"/>
<polygon fill="#63b8ff" stroke="#63b8ff" points="765.86,-80.62 757.51,-74.09 759.96,-84.4 765.86,-80.62"/>
</a>
</g>
</g>
<!-- Node17&#45;&gt;Node4 -->
<g id="edge21_Node000017_Node000004" class="edge">
<title>Node17&#45;&gt;Node4</title>
<g id="a_edge21_Node000017_Node000004"><a xlink:title=" ">
<path fill="none" stroke="#63b8ff" d="M815.72,-109.98C847.05,-101.01 896.57,-86.82 931.24,-76.89"/>
<polygon fill="#63b8ff" stroke="#63b8ff" points="932.39,-80.2 941.04,-74.08 930.47,-73.47 932.39,-80.2"/>
</a>
</g>
</g>
<!-- Node17&#45;&gt;Node14 -->
<g id="edge25_Node000017_Node000014" class="edge">
<title>Node17&#45;&gt;Node14</title>
<g id="a_edge25_Node000017_Node000014"><a xlink:title=" ">
<path fill="none" stroke="#63b8ff" d="M747.12,-109.98C704.51,-100.65 636.19,-85.69 590.71,-75.73"/>
<polygon fill="#63b8ff" stroke="#63b8ff" points="591.32,-72.28 580.8,-73.56 589.82,-79.12 591.32,-72.28"/>
</a>
</g>
</g>
<!-- Node18 -->
<g id="Node000018" class="node">
<title>Node18</title>
<g id="a_Node000018"><a xlink:title=" ">
<polygon fill="#e0e0e0" stroke="#999999" points="688.5,-74 639.5,-74 639.5,-55 688.5,-55 688.5,-74"/>
<text text-anchor="middle" x="664" y="-62" font-family="Helvetica,sans-Serif" font-size="10.00">netdb.h</text>
</a>
</g>
</g>
<!-- Node17&#45;&gt;Node18 -->
<g id="edge22_Node000017_Node000018" class="edge">
<title>Node17&#45;&gt;Node18</title>
<g id="a_edge22_Node000017_Node000018"><a xlink:title=" ">
<path fill="none" stroke="#63b8ff" d="M766.4,-109.98C746.68,-101.42 716.05,-88.11 693.42,-78.28"/>
<polygon fill="#63b8ff" stroke="#63b8ff" points="694.52,-74.94 683.96,-74.17 691.74,-81.37 694.52,-74.94"/>
</a>
</g>
</g>
<!-- Node19 -->
<g id="Node000019" class="node">
<title>Node19</title>
<g id="a_Node000019"><a xlink:title=" ">
<polygon fill="#e0e0e0" stroke="#999999" points="845.5,-74 796.5,-74 796.5,-55 845.5,-55 845.5,-74"/>
<text text-anchor="middle" x="821" y="-62" font-family="Helvetica,sans-Serif" font-size="10.00">stdint.h</text>
</a>
</g>
</g>
<!-- Node17&#45;&gt;Node19 -->
<g id="edge24_Node000017_Node000019" class="edge">
<title>Node17&#45;&gt;Node19</title>
<g id="a_edge24_Node000017_Node000019"><a xlink:title=" ">
<path fill="none" stroke="#63b8ff" d="M791.78,-109.75C796.62,-102.42 803.68,-91.73 809.64,-82.7"/>
<polygon fill="#63b8ff" stroke="#63b8ff" points="812.74,-84.36 815.33,-74.09 806.9,-80.5 812.74,-84.36"/>
</a>
</g>
</g>
<!-- Node20&#45;&gt;Node2 -->
<g id="edge36_Node000020_Node000002" class="edge">
<title>Node20&#45;&gt;Node2</title>
<g id="a_edge36_Node000020_Node000002"><a xlink:title=" ">
<path fill="none" stroke="#63b8ff" d="M586.09,-165.55C648.76,-157.57 747.15,-144.47 841.66,-129.15"/>
<polygon fill="#63b8ff" stroke="#63b8ff" points="842.37,-132.58 851.68,-127.52 841.24,-125.68 842.37,-132.58"/>
</a>
</g>
</g>
<!-- Node20&#45;&gt;Node4 -->
<g id="edge37_Node000020_Node000004" class="edge">
<title>Node20&#45;&gt;Node4</title>
<g id="a_edge37_Node000020_Node000004"><a xlink:title=" ">
<path fill="none" stroke="#63b8ff" d="M586.41,-173.39C687.35,-172.1 877.1,-164.81 933,-129 949.19,-118.63 959.44,-98.68 965.16,-83.9"/>
<polygon fill="#63b8ff" stroke="#63b8ff" points="968.53,-84.85 968.54,-74.26 961.93,-82.53 968.53,-84.85"/>
</a>
</g>
</g>
<!-- Node20&#45;&gt;Node8 -->
<g id="edge38_Node000020_Node000008" class="edge">
<title>Node20&#45;&gt;Node8</title>
<g id="a_edge38_Node000020_Node000008"><a xlink:title=" ">
<path fill="none" stroke="#63b8ff" d="M470.75,-164.98C414.56,-155.65 324.43,-140.67 264.48,-130.71"/>
<polygon fill="#63b8ff" stroke="#63b8ff" points="264.83,-127.22 254.39,-129.04 263.68,-134.13 264.83,-127.22"/>
</a>
</g>
</g>
<!-- Node20&#45;&gt;Node10 -->
<g id="edge29_Node000020_Node000010" class="edge">
<title>Node20&#45;&gt;Node10</title>
<g id="a_edge29_Node000020_Node000010"><a xlink:title=" ">
<path fill="none" stroke="#63b8ff" d="M457.62,-170.16C359.63,-164.45 177.98,-151.21 117,-129 87.04,-118.09 57.26,-95.85 39.24,-80.81"/>
<polygon fill="#63b8ff" stroke="#63b8ff" points="41.26,-77.93 31.39,-74.09 36.71,-83.25 41.26,-77.93"/>
</a>
</g>
</g>
<!-- Node20&#45;&gt;Node11 -->
<g id="edge31_Node000020_Node000011" class="edge">
<title>Node20&#45;&gt;Node11</title>
<g id="a_edge31_Node000020_Node000011"><a xlink:title=" ">
<path fill="none" stroke="#63b8ff" d="M457.62,-172.16C363.33,-169.18 193.21,-159.6 141,-129 123.25,-118.6 110.43,-98.35 102.9,-83.5"/>
<polygon fill="#63b8ff" stroke="#63b8ff" points="105.97,-81.82 98.54,-74.28 99.65,-84.81 105.97,-81.82"/>
</a>
</g>
</g>
<!-- Node20&#45;&gt;Node14 -->
<g id="edge32_Node000020_Node000014" class="edge">
<title>Node20&#45;&gt;Node14</title>
<g id="a_edge32_Node000020_Node000014"><a xlink:title=" ">
<path fill="none" stroke="#63b8ff" d="M523.8,-164.66C527.36,-147.17 535.38,-107.8 540.18,-84.27"/>
<polygon fill="#63b8ff" stroke="#63b8ff" points="543.67,-84.66 542.24,-74.16 536.81,-83.26 543.67,-84.66"/>
</a>
</g>
</g>
<!-- Node20&#45;&gt;Node18 -->
<g id="edge30_Node000020_Node000018" class="edge">
<title>Node20&#45;&gt;Node18</title>
<g id="a_edge30_Node000020_Node000018"><a xlink:title=" ">
<path fill="none" stroke="#63b8ff" d="M528.2,-164.8C537.88,-151.66 557.71,-126.55 579,-110 595.6,-97.1 616.5,-86.1 633.41,-78.26"/>
<polygon fill="#63b8ff" stroke="#63b8ff" points="635.16,-81.32 642.85,-74.03 632.3,-74.93 635.16,-81.32"/>
</a>
</g>
</g>
<!-- Node21 -->
<g id="Node000021" class="node">
<title>Node21</title>
<g id="a_Node000021"><a xlink:title=" ">
<polygon fill="#e0e0e0" stroke="#999999" points="645.5,-129 588.5,-129 588.5,-110 645.5,-110 645.5,-129"/>
<text text-anchor="middle" x="617" y="-117" font-family="Helvetica,sans-Serif" font-size="10.00">pthread.h</text>
</a>
</g>
</g>
<!-- Node20&#45;&gt;Node21 -->
<g id="edge27_Node000020_Node000021" class="edge">
<title>Node20&#45;&gt;Node21</title>
<g id="a_edge27_Node000020_Node000021"><a xlink:title=" ">
<path fill="none" stroke="#63b8ff" d="M537.26,-164.98C552.13,-156.69 574.98,-143.94 592.42,-134.22"/>
<polygon fill="#63b8ff" stroke="#63b8ff" points="594.43,-137.1 601.46,-129.17 591.02,-130.99 594.43,-137.1"/>
</a>
</g>
</g>
<!-- Node22 -->
<g id="Node000022" class="node">
<title>Node22</title>
<g id="a_Node000022"><a xlink:title=" ">
<polygon fill="#e0e0e0" stroke="#999999" points="720,-129 664,-129 664,-110 720,-110 720,-129"/>
<text text-anchor="middle" x="692" y="-117" font-family="Helvetica,sans-Serif" font-size="10.00">stdbool.h</text>
</a>
</g>
</g>
<!-- Node20&#45;&gt;Node22 -->
<g id="edge28_Node000020_Node000022" class="edge">
<title>Node20&#45;&gt;Node22</title>
<g id="a_edge28_Node000020_Node000022"><a xlink:title=" ">
<path fill="none" stroke="#63b8ff" d="M549.31,-164.98C577.85,-156.09 622.83,-142.07 654.64,-132.15"/>
<polygon fill="#63b8ff" stroke="#63b8ff" points="655.97,-135.4 664.47,-129.08 653.88,-128.72 655.97,-135.4"/>
</a>
</g>
</g>
<!-- Node23 -->
<g id="Node000023" class="node">
<title>Node23</title>
<g id="a_Node000023"><a xlink:title=" ">
<polygon fill="#e0e0e0" stroke="#999999" points="336,-129 274,-129 274,-110 336,-110 336,-129"/>
<text text-anchor="middle" x="305" y="-117" font-family="Helvetica,sans-Serif" font-size="10.00">sys/time.h</text>
</a>
</g>
</g>
<!-- Node20&#45;&gt;Node23 -->
<g id="edge33_Node000020_Node000023" class="edge">
<title>Node20&#45;&gt;Node23</title>
<g id="a_edge33_Node000020_Node000023"><a xlink:title=" ">
<path fill="none" stroke="#63b8ff" d="M487.14,-164.98C448.7,-155.6 386.92,-140.51 346.14,-130.55"/>
<polygon fill="#63b8ff" stroke="#63b8ff" points="346.8,-127.11 336.26,-128.13 345.14,-133.91 346.8,-127.11"/>
</a>
</g>
</g>
<!-- Node24 -->
<g id="Node000024" class="node">
<title>Node24</title>
<g id="a_Node000024"><a xlink:title=" ">
<polygon fill="#e0e0e0" stroke="#999999" points="422,-129 354,-129 354,-110 422,-110 422,-129"/>
<text text-anchor="middle" x="388" y="-117" font-family="Helvetica,sans-Serif" font-size="10.00">sys/types.h</text>
</a>
</g>
</g>
<!-- Node20&#45;&gt;Node24 -->
<g id="edge34_Node000020_Node000024" class="edge">
<title>Node20&#45;&gt;Node24</title>
<g id="a_edge34_Node000020_Node000024"><a xlink:title=" ">
<path fill="none" stroke="#63b8ff" d="M500.47,-164.98C478.53,-156.3 444.26,-142.75 419.31,-132.88"/>
<polygon fill="#63b8ff" stroke="#63b8ff" points="420.51,-129.59 409.92,-129.17 417.93,-136.1 420.51,-129.59"/>
</a>
</g>
</g>
<!-- Node25 -->
<g id="Node000025" class="node">
<title>Node25</title>
<g id="a_Node000025"><a xlink:title=" ">
<polygon fill="#e0e0e0" stroke="#999999" points="494,-129 440,-129 440,-110 494,-110 494,-129"/>
<text text-anchor="middle" x="467" y="-117" font-family="Helvetica,sans-Serif" font-size="10.00">sys/un.h</text>
</a>
</g>
</g>
<!-- Node20&#45;&gt;Node25 -->
<g id="edge35_Node000020_Node000025" class="edge">
<title>Node20&#45;&gt;Node25</title>
<g id="a_edge35_Node000020_Node000025"><a xlink:title=" ">
<path fill="none" stroke="#63b8ff" d="M512.92,-164.75C504.91,-157.03 493.04,-145.6 483.38,-136.28"/>
<polygon fill="#63b8ff" stroke="#63b8ff" points="485.54,-133.51 475.91,-129.09 480.69,-138.55 485.54,-133.51"/>
</a>
</g>
</g>
<!-- Node27 -->
<g id="Node000027" class="node">
<title>Node27</title>
<g id="a_Node000027"><a xlink:title=" ">
<polygon fill="#e0e0e0" stroke="#999999" points="1498,-239 1426,-239 1426,-220 1498,-220 1498,-239"/>
<text text-anchor="middle" x="1462" y="-227" font-family="Helvetica,sans-Serif" font-size="10.00">openssl/err.h</text>
</a>
</g>
</g>
<!-- Node26&#45;&gt;Node27 -->
<g id="edge40_Node000026_Node000027" class="edge">
<title>Node26&#45;&gt;Node27</title>
<g id="a_edge40_Node000026_Node000027"><a xlink:title=" ">
<path fill="none" stroke="#63b8ff" d="M1277.35,-274.98C1315.16,-265.87 1375.26,-251.4 1416.57,-241.45"/>
<polygon fill="#63b8ff" stroke="#63b8ff" points="1417.47,-244.83 1426.38,-239.08 1415.83,-238.02 1417.47,-244.83"/>
</a>
</g>
</g>
<!-- Node26&#45;&gt;Node28 -->
<g id="edge41_Node000026_Node000028" class="edge">
<title>Node26&#45;&gt;Node28</title>
<g id="a_edge41_Node000026_Node000028"><a xlink:title=" ">
<path fill="none" stroke="#63b8ff" d="M1228.5,-274.98C1215.6,-266.84 1195.9,-254.41 1180.6,-244.76"/>
<polygon fill="#63b8ff" stroke="#63b8ff" points="1182.07,-241.55 1171.74,-239.17 1178.33,-247.47 1182.07,-241.55"/>
</a>
</g>
</g>
<!-- Node29 -->
<g id="Node000029" class="node">
<title>Node29</title>
<g id="a_Node000029"><a xlink:title=" ">
<polygon fill="#e0e0e0" stroke="#999999" points="1296.5,-239 1213.5,-239 1213.5,-220 1296.5,-220 1296.5,-239"/>
<text text-anchor="middle" x="1255" y="-227" font-family="Helvetica,sans-Serif" font-size="10.00">openssl/x509.h</text>
</a>
</g>
</g>
<!-- Node26&#45;&gt;Node29 -->
<g id="edge42_Node000026_Node000029" class="edge">
<title>Node26&#45;&gt;Node29</title>
<g id="a_edge42_Node000026_Node000029"><a xlink:title=" ">
<path fill="none" stroke="#63b8ff" d="M1244.15,-274.75C1245.87,-267.72 1248.35,-257.62 1250.5,-248.84"/>
<polygon fill="#63b8ff" stroke="#63b8ff" points="1253.91,-249.63 1252.89,-239.09 1247.11,-247.97 1253.91,-249.63"/>
</a>
</g>
</g>
<!-- Node30 -->
<g id="Node000030" class="node">
<title>Node30</title>
<g id="a_Node000030"><a xlink:title=" ">
<polygon fill="#e0e0e0" stroke="#999999" points="1407.5,-239 1314.5,-239 1314.5,-220 1407.5,-220 1407.5,-239"/>
<text text-anchor="middle" x="1361" y="-227" font-family="Helvetica,sans-Serif" font-size="10.00">openssl/x509v3.h</text>
</a>
</g>
</g>
<!-- Node26&#45;&gt;Node30 -->
<g id="edge43_Node000026_Node000030" class="edge">
<title>Node26&#45;&gt;Node30</title>
<g id="a_edge43_Node000026_Node000030"><a xlink:title=" ">
<path fill="none" stroke="#63b8ff" d="M1261.12,-274.98C1280.35,-266.42 1310.23,-253.11 1332.31,-243.28"/>
<polygon fill="#63b8ff" stroke="#63b8ff" points="1333.82,-246.44 1341.53,-239.17 1330.97,-240.04 1333.82,-246.44"/>
</a>
</g>
</g>
</g>
</svg>
