<?xml version="1.0" encoding="UTF-8" standalone="no"?>
<!DOCTYPE svg PUBLIC "-//W3C//DTD SVG 1.1//EN"
 "http://www.w3.org/Graphics/SVG/1.1/DTD/svg11.dtd">
<!-- Generated by graphviz version 2.43.0 (0)
 -->
<!-- Title: SocketTLS.h Pages: 1 -->
<!--zoomable 247 -->

<svg id="main" version="1.1" xmlns="http://www.w3.org/2000/svg" xmlns:xlink="http://www.w3.org/1999/xlink" xml:space="preserve" onload="init(evt)">
<style type="text/css"><![CDATA[
.node, .edge {opacity: 0.7;}
.node.selected, .edge.selected {opacity: 1;}
.edge:hover path { stroke: red; }
.edge:hover polygon { stroke: red; fill: red; }
]]></style>

<defs>
  <circle id="rim" cx="0" cy="0" r="7"/>
  <circle id="rim2" cx="0" cy="0" r="3.5"/>
  <g id="zoomPlus">
    <use xlink:href="#rim" fill="#404040"><set attributeName="fill" to="#808080" begin="zoomplus.mouseover" end="zoomplus.mouseout"/></use>
    <path d="M-4,0h8M0,-4v8" fill="none" stroke="white" stroke-width="1.5" pointer-events="none"/>
  </g>
  <g id="zoomMin">
    <use xlink:href="#rim" fill="#404040"><set attributeName="fill" to="#808080" begin="zoomminus.mouseover" end="zoomminus.mouseout"/></use>
    <path d="M-4,0h8" fill="none" stroke="white" stroke-width="1.5" pointer-events="none"/>
  </g>
  <g id="arrowUp" transform="translate(30 24)">
    <use xlink:href="#rim"/>
    <path pointer-events="none" fill="none" stroke="white" stroke-width="1.5" d="M0,-3.0v7 M-2.5,-0.5L0,-3.0L2.5,-0.5"/>
  </g>
  <g id="arrowRight" transform="rotate(90) translate(36 -43)">
    <use xlink:href="#rim"/>
    <path pointer-events="none" fill="none" stroke="white" stroke-width="1.5" d="M0,-3.0v7 M-2.5,-0.5L0,-3.0L2.5,-0.5"/>
  </g>
  <g id="arrowDown" transform="rotate(180) translate(-30 -48)">
    <use xlink:href="#rim"/>
    <path pointer-events="none" fill="none" stroke="white" stroke-width="1.5" d="M0,-3.0v7 M-2.5,-0.5L0,-3.0L2.5,-0.5"/>
  </g>
  <g id="arrowLeft" transform="rotate(270) translate(-36 17)">
    <use xlink:href="#rim"/>
    <path pointer-events="none" fill="none" stroke="white" stroke-width="1.5" d="M0,-3.0v7 M-2.5,-0.5L0,-3.0L2.5,-0.5"/>
  </g>
  <g id="resetDef">
    <use xlink:href="#rim2" fill="#404040"><set attributeName="fill" to="#808080" begin="reset.mouseover" end="reset.mouseout"/></use>
  </g>
</defs>
<script type="application/ecmascript">
var viewWidth = 1405;
var viewHeight = 247;
var sectionId = 'dynsection-1';
</script>
<script type="application/ecmascript" xlink:href="svg.min.js"/>
<svg id="graph" class="graph">
<g id="viewport">
<title>SocketTLS.h</title>
<!-- Node1 -->
<g id="Node000001" class="node">
<title>Node1</title>
<g id="a_Node000001"><a xlink:title="High&#45;level TLS/SSL integration for secure Socket I/O with TLS 1.3 enforcement.">
<polygon fill="#999999" stroke="#666666" points="613.5,-239 539.5,-239 539.5,-220 613.5,-220 613.5,-239"/>
<text text-anchor="middle" x="576.5" y="-227" font-family="Helvetica,sans-Serif" font-size="10.00">SocketTLS.h</text>
</a>
</g>
</g>
<!-- Node2 -->
<g id="Node000002" class="node">
<title>Node2</title>
<g id="a_Node000002"><a xlink:href="SocketDTLSContext_8h.html" target="_top" xlink:title="DTLS context management with cookie protection and secure defaults.">
<polygon fill="white" stroke="#666666" points="218.5,-184 102.5,-184 102.5,-165 218.5,-165 218.5,-184"/>
<text text-anchor="middle" x="160.5" y="-172" font-family="Helvetica,sans-Serif" font-size="10.00">SocketDTLSContext.h</text>
</a>
</g>
</g>
<!-- Node1&#45;&gt;Node2 -->
<g id="edge1_Node000001_Node000002" class="edge">
<title>Node1&#45;&gt;Node2</title>
<g id="a_edge1_Node000001_Node000002"><a xlink:title=" ">
<path fill="none" stroke="#63b8ff" d="M528.9,-222.44C452.2,-212.66 301.49,-193.46 218.58,-182.9"/>
<polygon fill="#63b8ff" stroke="#63b8ff" points="528.85,-225.96 539.22,-223.75 529.74,-219.01 528.85,-225.96"/>
</a>
</g>
</g>
<!-- Node4 -->
<g id="Node000004" class="node">
<title>Node4</title>
<g id="a_Node000004"><a xlink:href="SocketReconnect-private_8h.html" target="_top" xlink:title="Private header for SocketReconnect module internals.">
<polygon fill="white" stroke="#666666" points="333,-74 198,-74 198,-55 333,-55 333,-74"/>
<text text-anchor="middle" x="265.5" y="-62" font-family="Helvetica,sans-Serif" font-size="10.00">SocketReconnect&#45;private.h</text>
</a>
</g>
</g>
<!-- Node1&#45;&gt;Node4 -->
<g id="edge3_Node000001_Node000004" class="edge">
<title>Node1&#45;&gt;Node4</title>
<g id="a_edge3_Node000001_Node000004"><a xlink:title=" ">
<path fill="none" stroke="#63b8ff" d="M546.59,-215.95C504.98,-198.15 427.6,-163.85 364.5,-129 332.15,-111.13 296.05,-86.79 277.68,-74.06"/>
<polygon fill="#63b8ff" stroke="#63b8ff" points="545.32,-219.21 555.89,-219.9 548.06,-212.77 545.32,-219.21"/>
</a>
</g>
</g>
<!-- Node5 -->
<g id="Node000005" class="node">
<title>Node5</title>
<g id="a_Node000005"><a xlink:href="SocketReconnect_8h.html" target="_top" xlink:title="Automatic reconnection framework for resilient TCP connections with backoff and circuit breaker patte...">
<polygon fill="white" stroke="#666666" points="317,-129 214,-129 214,-110 317,-110 317,-129"/>
<text text-anchor="middle" x="265.5" y="-117" font-family="Helvetica,sans-Serif" font-size="10.00">SocketReconnect.h</text>
</a>
</g>
</g>
<!-- Node1&#45;&gt;Node5 -->
<g id="edge4_Node000001_Node000005" class="edge">
<title>Node1&#45;&gt;Node5</title>
<g id="a_edge4_Node000001_Node000005"><a xlink:title=" ">
<path fill="none" stroke="#63b8ff" d="M528.95,-227.91C477.6,-225.49 394.69,-216.33 331.5,-184 305.17,-170.53 282.26,-143.11 271.7,-129.13"/>
<polygon fill="#63b8ff" stroke="#63b8ff" points="528.96,-231.41 539.09,-228.32 529.24,-224.42 528.96,-231.41"/>
</a>
</g>
</g>
<!-- Node10 -->
<g id="Node000010" class="node">
<title>Node10</title>
<g id="a_Node000010"><a xlink:href="SocketTLS-private_8h.html" target="_top" xlink:title="Internal TLS module shared definitions, macros, and helper functions.">
<polygon fill="white" stroke="#666666" points="479.5,-129 373.5,-129 373.5,-110 479.5,-110 479.5,-129"/>
<text text-anchor="middle" x="426.5" y="-117" font-family="Helvetica,sans-Serif" font-size="10.00">SocketTLS&#45;private.h</text>
</a>
</g>
</g>
<!-- Node1&#45;&gt;Node10 -->
<g id="edge10_Node000001_Node000010" class="edge">
<title>Node1&#45;&gt;Node10</title>
<g id="a_edge10_Node000001_Node000010"><a xlink:title=" ">
<path fill="none" stroke="#63b8ff" d="M555.96,-213.71C524.21,-190.85 464.19,-147.64 438.58,-129.2"/>
<polygon fill="#63b8ff" stroke="#63b8ff" points="554.32,-216.84 564.48,-219.84 558.41,-211.16 554.32,-216.84"/>
</a>
</g>
</g>
<!-- Node11 -->
<g id="Node000011" class="node">
<title>Node11</title>
<g id="a_Node000011"><a xlink:href="SocketTLSContext_8h.html" target="_top" xlink:title="TLS context management with secure defaults and certificate handling.">
<polygon fill="white" stroke="#666666" points="681.5,-184 573.5,-184 573.5,-165 681.5,-165 681.5,-184"/>
<text text-anchor="middle" x="627.5" y="-172" font-family="Helvetica,sans-Serif" font-size="10.00">SocketTLSContext.h</text>
</a>
</g>
</g>
<!-- Node1&#45;&gt;Node11 -->
<g id="edge11_Node000001_Node000011" class="edge">
<title>Node1&#45;&gt;Node11</title>
<g id="a_edge11_Node000001_Node000011"><a xlink:title=" ">
<path fill="none" stroke="#63b8ff" d="M591.88,-212.52C600.87,-203.18 611.86,-191.75 619.24,-184.09"/>
<polygon fill="#63b8ff" stroke="#63b8ff" points="589.33,-210.12 584.92,-219.75 594.38,-214.97 589.33,-210.12"/>
</a>
</g>
</g>
<!-- Node23 -->
<g id="Node000023" class="node">
<title>Node23</title>
<g id="a_Node000023"><a xlink:href="proxy__connect_8c.html" target="_top" xlink:title=" ">
<polygon fill="white" stroke="#666666" points="1397,-74 1308,-74 1308,-55 1397,-55 1397,-74"/>
<text text-anchor="middle" x="1352.5" y="-62" font-family="Helvetica,sans-Serif" font-size="10.00">proxy_connect.c</text>
</a>
</g>
</g>
<!-- Node1&#45;&gt;Node23 -->
<g id="edge31_Node000001_Node000023" class="edge">
<title>Node1&#45;&gt;Node23</title>
<g id="a_edge31_Node000001_Node000023"><a xlink:title=" ">
<path fill="none" stroke="#63b8ff" d="M623.78,-222.33C721.02,-209.15 950.11,-175.62 1138.5,-129 1206.97,-112.06 1286.25,-87.11 1326.36,-74.1"/>
<polygon fill="#63b8ff" stroke="#63b8ff" points="623.13,-218.88 613.68,-223.68 624.06,-225.82 623.13,-218.88"/>
</a>
</g>
</g>
<!-- Node24 -->
<g id="Node000024" class="node">
<title>Node24</title>
<g id="a_Node000024"><a xlink:href="tls__advanced_8c.html" target="_top" xlink:title=" ">
<polygon fill="white" stroke="#666666" points="1047,-129 964,-129 964,-110 1047,-110 1047,-129"/>
<text text-anchor="middle" x="1005.5" y="-117" font-family="Helvetica,sans-Serif" font-size="10.00">tls_advanced.c</text>
</a>
</g>
</g>
<!-- Node1&#45;&gt;Node24 -->
<g id="edge32_Node000001_Node000024" class="edge">
<title>Node1&#45;&gt;Node24</title>
<g id="a_edge32_Node000001_Node000024"><a xlink:title=" ">
<path fill="none" stroke="#63b8ff" d="M620.46,-217.43C706.26,-195.83 894.34,-148.48 971.47,-129.07"/>
<polygon fill="#63b8ff" stroke="#63b8ff" points="619.36,-214.1 610.52,-219.94 621.07,-220.89 619.36,-214.1"/>
</a>
</g>
</g>
<!-- Node25 -->
<g id="Node000025" class="node">
<title>Node25</title>
<g id="a_Node000025"><a xlink:href="tls__client_8c.html" target="_top" xlink:title=" ">
<polygon fill="white" stroke="#666666" points="1129.5,-129 1065.5,-129 1065.5,-110 1129.5,-110 1129.5,-129"/>
<text text-anchor="middle" x="1097.5" y="-117" font-family="Helvetica,sans-Serif" font-size="10.00">tls_client.c</text>
</a>
</g>
</g>
<!-- Node1&#45;&gt;Node25 -->
<g id="edge33_Node000001_Node000025" class="edge">
<title>Node1&#45;&gt;Node25</title>
<g id="a_edge33_Node000001_Node000025"><a xlink:title=" ">
<path fill="none" stroke="#63b8ff" d="M623.68,-219.59C669.82,-210.8 742.07,-196.86 804.5,-184 899.58,-164.42 1011.63,-139.67 1065.46,-127.67"/>
<polygon fill="#63b8ff" stroke="#63b8ff" points="622.84,-216.18 613.67,-221.49 624.15,-223.06 622.84,-216.18"/>
</a>
</g>
</g>
<!-- Node3 -->
<g id="Node000003" class="node">
<title>Node3</title>
<g id="a_Node000003"><a xlink:href="SocketDTLS-private_8h.html" target="_top" xlink:title="DTLS internal shared definitions and helper functions.">
<polygon fill="white" stroke="#666666" points="196,-129 83,-129 83,-110 196,-110 196,-129"/>
<text text-anchor="middle" x="139.5" y="-117" font-family="Helvetica,sans-Serif" font-size="10.00">SocketDTLS&#45;private.h</text>
</a>
</g>
</g>
<!-- Node2&#45;&gt;Node3 -->
<g id="edge2_Node000002_Node000003" class="edge">
<title>Node2&#45;&gt;Node3</title>
<g id="a_edge2_Node000002_Node000003"><a xlink:title=" ">
<path fill="none" stroke="#63b8ff" d="M153.26,-155.24C149.75,-146.37 145.7,-136.14 142.9,-129.09"/>
<polygon fill="#63b8ff" stroke="#63b8ff" points="150.09,-156.74 157.03,-164.75 156.6,-154.16 150.09,-156.74"/>
</a>
</g>
</g>
<!-- Node5&#45;&gt;Node4 -->
<g id="edge9_Node000005_Node000004" class="edge">
<title>Node5&#45;&gt;Node4</title>
<g id="a_edge9_Node000005_Node000004"><a xlink:title=" ">
<path fill="none" stroke="#63b8ff" d="M265.5,-99.66C265.5,-90.93 265.5,-80.99 265.5,-74.09"/>
<polygon fill="#63b8ff" stroke="#63b8ff" points="262,-99.75 265.5,-109.75 269,-99.75 262,-99.75"/>
</a>
</g>
</g>
<!-- Node6 -->
<g id="Node000006" class="node">
<title>Node6</title>
<g id="a_Node000006"><a xlink:href="SocketPool_8h.html" target="_top" xlink:title="Connection pooling with automatic lifecycle management.">
<polygon fill="white" stroke="#666666" points="180,-74 105,-74 105,-55 180,-55 180,-74"/>
<text text-anchor="middle" x="142.5" y="-62" font-family="Helvetica,sans-Serif" font-size="10.00">SocketPool.h</text>
</a>
</g>
</g>
<!-- Node5&#45;&gt;Node6 -->
<g id="edge5_Node000005_Node000006" class="edge">
<title>Node5&#45;&gt;Node6</title>
<g id="a_edge5_Node000005_Node000006"><a xlink:title=" ">
<path fill="none" stroke="#63b8ff" d="M236.25,-105.9C213.53,-96.11 182.63,-82.79 162.62,-74.17"/>
<polygon fill="#63b8ff" stroke="#63b8ff" points="235.17,-109.24 245.74,-109.98 237.94,-102.81 235.17,-109.24"/>
</a>
</g>
</g>
<!-- Node7 -->
<g id="Node000007" class="node">
<title>Node7</title>
<g id="a_Node000007"><a xlink:href="SocketPool-private_8h.html" target="_top" xlink:title="Private implementation details and internal structures for SocketPool module.">
<polygon fill="white" stroke="#666666" points="392,-19 285,-19 285,0 392,0 392,-19"/>
<text text-anchor="middle" x="338.5" y="-7" font-family="Helvetica,sans-Serif" font-size="10.00">SocketPool&#45;private.h</text>
</a>
</g>
</g>
<!-- Node6&#45;&gt;Node7 -->
<g id="edge6_Node000006_Node000007" class="edge">
<title>Node6&#45;&gt;Node7</title>
<g id="a_edge6_Node000006_Node000007"><a xlink:title=" ">
<path fill="none" stroke="#63b8ff" d="M183.88,-52.31C220.55,-42.39 273.33,-28.12 306.76,-19.08"/>
<polygon fill="#63b8ff" stroke="#63b8ff" points="182.73,-49 173.99,-54.98 184.56,-55.75 182.73,-49"/>
</a>
</g>
</g>
<!-- Node8 -->
<g id="Node000008" class="node">
<title>Node8</title>
<g id="a_Node000008"><a xlink:href="connection__pool_8c.html" target="_top" xlink:title=" ">
<polygon fill="white" stroke="#666666" points="95,-19 0,-19 0,0 95,0 95,-19"/>
<text text-anchor="middle" x="47.5" y="-7" font-family="Helvetica,sans-Serif" font-size="10.00">connection_pool.c</text>
</a>
</g>
</g>
<!-- Node6&#45;&gt;Node8 -->
<g id="edge7_Node000006_Node000008" class="edge">
<title>Node6&#45;&gt;Node8</title>
<g id="a_edge7_Node000006_Node000008"><a xlink:title=" ">
<path fill="none" stroke="#63b8ff" d="M118.24,-49.97C100.87,-40.28 78.01,-27.52 63.04,-19.17"/>
<polygon fill="#63b8ff" stroke="#63b8ff" points="116.8,-53.17 127.24,-54.98 120.21,-47.06 116.8,-53.17"/>
</a>
</g>
</g>
<!-- Node9 -->
<g id="Node000009" class="node">
<title>Node9</title>
<g id="a_Node000009"><a xlink:href="graceful__shutdown_8c.html" target="_top" xlink:title=" ">
<polygon fill="white" stroke="#666666" points="220,-19 113,-19 113,0 220,0 220,-19"/>
<text text-anchor="middle" x="166.5" y="-7" font-family="Helvetica,sans-Serif" font-size="10.00">graceful_shutdown.c</text>
</a>
</g>
</g>
<!-- Node6&#45;&gt;Node9 -->
<g id="edge8_Node000006_Node000009" class="edge">
<title>Node6&#45;&gt;Node9</title>
<g id="a_edge8_Node000006_Node000009"><a xlink:title=" ">
<path fill="none" stroke="#63b8ff" d="M150.64,-45.53C154.68,-36.6 159.38,-26.22 162.61,-19.09"/>
<polygon fill="#63b8ff" stroke="#63b8ff" points="147.4,-44.19 146.46,-54.75 153.78,-47.08 147.4,-44.19"/>
</a>
</g>
</g>
<!-- Node11&#45;&gt;Node4 -->
<g id="edge25_Node000011_Node000004" class="edge">
<title>Node11&#45;&gt;Node4</title>
<g id="a_edge25_Node000011_Node000004"><a xlink:title=" ">
<path fill="none" stroke="#63b8ff" d="M599.67,-160.59C560.76,-142.56 494.19,-111.84 488.5,-110 435.54,-92.87 373.27,-81.11 328.01,-74"/>
<polygon fill="#63b8ff" stroke="#63b8ff" points="598.37,-163.84 608.91,-164.87 601.31,-157.49 598.37,-163.84"/>
</a>
</g>
</g>
<!-- Node11&#45;&gt;Node5 -->
<g id="edge26_Node000011_Node000005" class="edge">
<title>Node11&#45;&gt;Node5</title>
<g id="a_edge26_Node000011_Node000005"><a xlink:title=" ">
<path fill="none" stroke="#63b8ff" d="M563.25,-164.09C493.03,-153.81 381.92,-137.54 317.13,-128.06"/>
<polygon fill="#63b8ff" stroke="#63b8ff" points="562.9,-167.58 573.3,-165.57 563.92,-160.65 562.9,-167.58"/>
</a>
</g>
</g>
<!-- Node11&#45;&gt;Node7 -->
<g id="edge21_Node000011_Node000007" class="edge">
<title>Node11&#45;&gt;Node7</title>
<g id="a_edge21_Node000011_Node000007"><a xlink:title=" ">
<path fill="none" stroke="#63b8ff" d="M607.59,-158.82C587.35,-144.51 554.63,-123.06 523.5,-110 463.07,-84.64 433.97,-111.89 380.5,-74 360.66,-59.94 347.64,-33.29 341.89,-19.41"/>
<polygon fill="#63b8ff" stroke="#63b8ff" points="605.8,-161.84 615.97,-164.83 609.89,-156.15 605.8,-161.84"/>
</a>
</g>
</g>
<!-- Node11&#45;&gt;Node10 -->
<g id="edge27_Node000011_Node000010" class="edge">
<title>Node11&#45;&gt;Node10</title>
<g id="a_edge27_Node000011_Node000010"><a xlink:title=" ">
<path fill="none" stroke="#63b8ff" d="M585.07,-162.31C547.46,-152.39 493.33,-138.12 459.05,-129.08"/>
<polygon fill="#63b8ff" stroke="#63b8ff" points="584.64,-165.82 595.21,-164.98 586.43,-159.05 584.64,-165.82"/>
</a>
</g>
</g>
<!-- Node12 -->
<g id="Node000012" class="node">
<title>Node12</title>
<g id="a_Node000012"><a xlink:href="SocketHTTPClient_8h.html" target="_top" xlink:title="Public API for the HTTP client module, including types, functions, and configuration.">
<polygon fill="white" stroke="#666666" points="681,-129 574,-129 574,-110 681,-110 681,-129"/>
<text text-anchor="middle" x="627.5" y="-117" font-family="Helvetica,sans-Serif" font-size="10.00">SocketHTTPClient.h</text>
</a>
</g>
</g>
<!-- Node11&#45;&gt;Node12 -->
<g id="edge12_Node000011_Node000012" class="edge">
<title>Node11&#45;&gt;Node12</title>
<g id="a_edge12_Node000011_Node000012"><a xlink:title=" ">
<path fill="none" stroke="#63b8ff" d="M627.5,-154.66C627.5,-145.93 627.5,-135.99 627.5,-129.09"/>
<polygon fill="#63b8ff" stroke="#63b8ff" points="624,-154.75 627.5,-164.75 631,-154.75 624,-154.75"/>
</a>
</g>
</g>
<!-- Node17 -->
<g id="Node000017" class="node">
<title>Node17</title>
<g id="a_Node000017"><a xlink:href="SocketHTTPServer_8h.html" target="_top" xlink:title="High&#45;level HTTP server supporting HTTP/1.1 and HTTP/2 protocols.">
<polygon fill="white" stroke="#666666" points="809.5,-129 699.5,-129 699.5,-110 809.5,-110 809.5,-129"/>
<text text-anchor="middle" x="754.5" y="-117" font-family="Helvetica,sans-Serif" font-size="10.00">SocketHTTPServer.h</text>
</a>
</g>
</g>
<!-- Node11&#45;&gt;Node17 -->
<g id="edge17_Node000011_Node000017" class="edge">
<title>Node11&#45;&gt;Node17</title>
<g id="a_edge17_Node000011_Node000017"><a xlink:title=" ">
<path fill="none" stroke="#63b8ff" d="M657.38,-161.03C680.87,-151.23 712.97,-137.83 733.72,-129.17"/>
<polygon fill="#63b8ff" stroke="#63b8ff" points="655.79,-157.9 647.9,-164.98 658.48,-164.36 655.79,-157.9"/>
</a>
</g>
</g>
<!-- Node21 -->
<g id="Node000021" class="node">
<title>Node21</title>
<g id="a_Node000021"><a xlink:href="SocketProxy_8h.html" target="_top" xlink:title="Proxy tunneling module for HTTP CONNECT and SOCKS protocols.">
<polygon fill="white" stroke="#666666" points="907.5,-129 827.5,-129 827.5,-110 907.5,-110 907.5,-129"/>
<text text-anchor="middle" x="867.5" y="-117" font-family="Helvetica,sans-Serif" font-size="10.00">SocketProxy.h</text>
</a>
</g>
</g>
<!-- Node11&#45;&gt;Node21 -->
<g id="edge22_Node000011_Node000021" class="edge">
<title>Node11&#45;&gt;Node21</title>
<g id="a_edge22_Node000011_Node000021"><a xlink:title=" ">
<path fill="none" stroke="#63b8ff" d="M675.88,-162.82C720.86,-152.88 787,-138.28 828.64,-129.08"/>
<polygon fill="#63b8ff" stroke="#63b8ff" points="675.07,-159.41 666.06,-164.98 676.58,-166.25 675.07,-159.41"/>
</a>
</g>
</g>
<!-- Node11&#45;&gt;Node23 -->
<g id="edge28_Node000011_Node000023" class="edge">
<title>Node11&#45;&gt;Node23</title>
<g id="a_edge28_Node000011_Node000023"><a xlink:title=" ">
<path fill="none" stroke="#63b8ff" d="M691.58,-169.18C750.99,-163.88 841.27,-152.52 916.5,-129 934.9,-123.25 936.96,-115.31 955.5,-110 1103.29,-67.69 1147.11,-94.18 1299.5,-74 1302.27,-73.63 1305.12,-73.24 1307.99,-72.82"/>
<polygon fill="#63b8ff" stroke="#63b8ff" points="691.25,-165.69 681.59,-170.04 691.85,-172.67 691.25,-165.69"/>
</a>
</g>
</g>
<!-- Node11&#45;&gt;Node24 -->
<g id="edge29_Node000011_Node000024" class="edge">
<title>Node11&#45;&gt;Node24</title>
<g id="a_edge29_Node000011_Node000024"><a xlink:title=" ">
<path fill="none" stroke="#63b8ff" d="M691.75,-164.88C756.77,-156.09 860.17,-141.95 949.5,-129 954.17,-128.32 959.06,-127.6 963.92,-126.87"/>
<polygon fill="#63b8ff" stroke="#63b8ff" points="691.1,-161.43 681.66,-166.24 692.03,-168.37 691.1,-161.43"/>
</a>
</g>
</g>
<!-- Node11&#45;&gt;Node25 -->
<g id="edge30_Node000011_Node000025" class="edge">
<title>Node11&#45;&gt;Node25</title>
<g id="a_edge30_Node000011_Node000025"><a xlink:title=" ">
<path fill="none" stroke="#63b8ff" d="M691.73,-168.87C775.84,-162.35 927.76,-148.97 1056.5,-129 1059.37,-128.55 1062.35,-128.04 1065.33,-127.49"/>
<polygon fill="#63b8ff" stroke="#63b8ff" points="691.27,-165.4 681.57,-169.65 691.8,-172.38 691.27,-165.4"/>
</a>
</g>
</g>
<!-- Node13 -->
<g id="Node000013" class="node">
<title>Node13</title>
<g id="a_Node000013"><a xlink:href="SocketHTTPClient-private_8h.html" target="_top" xlink:title="Internal HTTP client structures and connection pooling.">
<polygon fill="white" stroke="#666666" points="529.5,-74 389.5,-74 389.5,-55 529.5,-55 529.5,-74"/>
<text text-anchor="middle" x="459.5" y="-62" font-family="Helvetica,sans-Serif" font-size="10.00">SocketHTTPClient&#45;private.h</text>
</a>
</g>
</g>
<!-- Node12&#45;&gt;Node13 -->
<g id="edge13_Node000012_Node000013" class="edge">
<title>Node12&#45;&gt;Node13</title>
<g id="a_edge13_Node000012_Node000013"><a xlink:title=" ">
<path fill="none" stroke="#63b8ff" d="M590.82,-106.93C559.44,-97.03 514.99,-83.01 486.7,-74.08"/>
<polygon fill="#63b8ff" stroke="#63b8ff" points="589.92,-110.31 600.51,-109.98 592.02,-103.64 589.92,-110.31"/>
</a>
</g>
</g>
<!-- Node14 -->
<g id="Node000014" class="node">
<title>Node14</title>
<g id="a_Node000014"><a xlink:href="http2__client_8c.html" target="_top" xlink:title=" ">
<polygon fill="white" stroke="#666666" points="623,-74 548,-74 548,-55 623,-55 623,-74"/>
<text text-anchor="middle" x="585.5" y="-62" font-family="Helvetica,sans-Serif" font-size="10.00">http2_client.c</text>
</a>
</g>
</g>
<!-- Node12&#45;&gt;Node14 -->
<g id="edge14_Node000012_Node000014" class="edge">
<title>Node12&#45;&gt;Node14</title>
<g id="a_edge14_Node000012_Node000014"><a xlink:title=" ">
<path fill="none" stroke="#63b8ff" d="M614.17,-101.67C606.89,-92.5 598.2,-81.52 592.31,-74.09"/>
<polygon fill="#63b8ff" stroke="#63b8ff" points="611.61,-104.08 620.56,-109.75 617.1,-99.74 611.61,-104.08"/>
</a>
</g>
</g>
<!-- Node15 -->
<g id="Node000015" class="node">
<title>Node15</title>
<g id="a_Node000015"><a xlink:href="http__get_8c.html" target="_top" xlink:title=" ">
<polygon fill="white" stroke="#666666" points="700.5,-74 640.5,-74 640.5,-55 700.5,-55 700.5,-74"/>
<text text-anchor="middle" x="670.5" y="-62" font-family="Helvetica,sans-Serif" font-size="10.00">http_get.c</text>
</a>
</g>
</g>
<!-- Node12&#45;&gt;Node15 -->
<g id="edge15_Node000012_Node000015" class="edge">
<title>Node12&#45;&gt;Node15</title>
<g id="a_edge15_Node000012_Node000015"><a xlink:title=" ">
<path fill="none" stroke="#63b8ff" d="M640.92,-101.96C648.41,-92.72 657.44,-81.6 663.53,-74.09"/>
<polygon fill="#63b8ff" stroke="#63b8ff" points="638.18,-99.78 634.6,-109.75 643.62,-104.19 638.18,-99.78"/>
</a>
</g>
</g>
<!-- Node16 -->
<g id="Node000016" class="node">
<title>Node16</title>
<g id="a_Node000016"><a xlink:href="http__post_8c.html" target="_top" xlink:title=" ">
<polygon fill="white" stroke="#666666" points="784,-74 719,-74 719,-55 784,-55 784,-74"/>
<text text-anchor="middle" x="751.5" y="-62" font-family="Helvetica,sans-Serif" font-size="10.00">http_post.c</text>
</a>
</g>
</g>
<!-- Node12&#45;&gt;Node16 -->
<g id="edge16_Node000012_Node000016" class="edge">
<title>Node12&#45;&gt;Node16</title>
<g id="a_edge16_Node000012_Node000016"><a xlink:title=" ">
<path fill="none" stroke="#63b8ff" d="M656.68,-106.03C679.61,-96.23 710.95,-82.83 731.21,-74.17"/>
<polygon fill="#63b8ff" stroke="#63b8ff" points="655.24,-102.84 647.42,-109.98 657.99,-109.27 655.24,-102.84"/>
</a>
</g>
</g>
<!-- Node18 -->
<g id="Node000018" class="node">
<title>Node18</title>
<g id="a_Node000018"><a xlink:href="SocketHTTPServer-private_8h.html" target="_top" xlink:title="Private implementation details for HTTP server connection and state management.">
<polygon fill="white" stroke="#666666" points="945,-74 802,-74 802,-55 945,-55 945,-74"/>
<text text-anchor="middle" x="873.5" y="-62" font-family="Helvetica,sans-Serif" font-size="10.00">SocketHTTPServer&#45;private.h</text>
</a>
</g>
</g>
<!-- Node17&#45;&gt;Node18 -->
<g id="edge18_Node000017_Node000018" class="edge">
<title>Node17&#45;&gt;Node18</title>
<g id="a_edge18_Node000017_Node000018"><a xlink:title=" ">
<path fill="none" stroke="#63b8ff" d="M782.8,-105.9C804.78,-96.11 834.68,-82.79 854.03,-74.17"/>
<polygon fill="#63b8ff" stroke="#63b8ff" points="781.33,-102.72 773.62,-109.98 784.18,-109.11 781.33,-102.72"/>
</a>
</g>
</g>
<!-- Node19 -->
<g id="Node000019" class="node">
<title>Node19</title>
<g id="a_Node000019"><a xlink:href="http__server_8c.html" target="_top" xlink:title=" ">
<polygon fill="white" stroke="#666666" points="1036,-74 963,-74 963,-55 1036,-55 1036,-74"/>
<text text-anchor="middle" x="999.5" y="-62" font-family="Helvetica,sans-Serif" font-size="10.00">http_server.c</text>
</a>
</g>
</g>
<!-- Node17&#45;&gt;Node19 -->
<g id="edge19_Node000017_Node000019" class="edge">
<title>Node17&#45;&gt;Node19</title>
<g id="a_edge19_Node000017_Node000019"><a xlink:title=" ">
<path fill="none" stroke="#63b8ff" d="M803.81,-107.83C850.75,-97.68 920.33,-82.63 962.64,-73.47"/>
<polygon fill="#63b8ff" stroke="#63b8ff" points="802.9,-104.45 793.86,-109.98 804.38,-111.29 802.9,-104.45"/>
</a>
</g>
</g>
<!-- Node20 -->
<g id="Node000020" class="node">
<title>Node20</title>
<g id="a_Node000020"><a xlink:href="websocket__server_8c.html" target="_top" xlink:title=" ">
<polygon fill="white" stroke="#666666" points="1158.5,-74 1054.5,-74 1054.5,-55 1158.5,-55 1158.5,-74"/>
<text text-anchor="middle" x="1106.5" y="-62" font-family="Helvetica,sans-Serif" font-size="10.00">websocket_server.c</text>
</a>
</g>
</g>
<!-- Node17&#45;&gt;Node20 -->
<g id="edge20_Node000017_Node000020" class="edge">
<title>Node17&#45;&gt;Node20</title>
<g id="a_edge20_Node000017_Node000020"><a xlink:title=" ">
<path fill="none" stroke="#63b8ff" d="M820.01,-108.64C887.69,-98.45 991.98,-82.74 1054.31,-73.36"/>
<polygon fill="#63b8ff" stroke="#63b8ff" points="819.25,-105.21 809.89,-110.16 820.3,-112.13 819.25,-105.21"/>
</a>
</g>
</g>
<!-- Node22 -->
<g id="Node000022" class="node">
<title>Node22</title>
<g id="a_Node000022"><a xlink:href="SocketProxy-private_8h.html" target="_top" xlink:title="Internal structures and functions for SocketProxy module.">
<polygon fill="white" stroke="#666666" points="1290,-74 1177,-74 1177,-55 1290,-55 1290,-74"/>
<text text-anchor="middle" x="1233.5" y="-62" font-family="Helvetica,sans-Serif" font-size="10.00">SocketProxy&#45;private.h</text>
</a>
</g>
</g>
<!-- Node21&#45;&gt;Node22 -->
<g id="edge23_Node000021_Node000022" class="edge">
<title>Node21&#45;&gt;Node22</title>
<g id="a_edge23_Node000021_Node000022"><a xlink:title=" ">
<path fill="none" stroke="#63b8ff" d="M917.65,-110.58C918.95,-110.38 920.23,-110.19 921.5,-110 1010.65,-96.63 1114.27,-82.04 1176.82,-73.33"/>
<polygon fill="#63b8ff" stroke="#63b8ff" points="916.95,-107.15 907.59,-112.12 918.01,-114.07 916.95,-107.15"/>
</a>
</g>
</g>
<!-- Node21&#45;&gt;Node23 -->
<g id="edge24_Node000021_Node000023" class="edge">
<title>Node21&#45;&gt;Node23</title>
<g id="a_edge24_Node000021_Node000023"><a xlink:title=" ">
<path fill="none" stroke="#63b8ff" d="M917.64,-110.5C918.94,-110.33 920.23,-110.16 921.5,-110 1088.93,-88.87 1132.1,-95.37 1299.5,-74 1302.27,-73.65 1305.12,-73.26 1308,-72.85"/>
<polygon fill="#63b8ff" stroke="#63b8ff" points="916.98,-107.06 907.57,-111.91 917.96,-113.99 916.98,-107.06"/>
</a>
</g>
</g>
</g>
</svg>

<g id="navigator" transform="translate(0 0)" fill="#404254">
  <rect fill="#f2f5e9" fill-opacity="0.5" stroke="#606060" stroke-width=".5" x="0" y="0" width="60" height="60"/>
  <use id="zoomplus" xlink:href="#zoomPlus" x="17" y="9" onmousedown="handleZoom(evt,'in')"/>
  <use id="zoomminus" xlink:href="#zoomMin" x="42" y="9" onmousedown="handleZoom(evt,'out')"/>
  <use id="reset" xlink:href="#resetDef" x="30" y="36" onmousedown="handleReset()"/>
   <use id="arrowup" xlink:href="#arrowUp" x="0" y="0" onmousedown="handlePan(0,-1)"/>
  <use id="arrowright" xlink:href="#arrowRight" x="0" y="0" onmousedown="handlePan(1,0)"/>
  <use id="arrowdown" xlink:href="#arrowDown" x="0" y="0" onmousedown="handlePan(0,1)"/>
  <use id="arrowleft" xlink:href="#arrowLeft" x="0" y="0" onmousedown="handlePan(-1,0)"/>
</g>
<svg viewBox="0 0 15 15" width="100%" height="30px" preserveAspectRatio="xMaxYMin meet">
 <g id="arrow_out" transform="scale(0.3 0.3)">
  <a xlink:href="SocketTLS_8h__dep__incl_org.svg" target="_base">
   <rect id="button" ry="5" rx="5" y="6" x="6" height="38" width="38"
        fill="#f2f5e9" fill-opacity="0.5" stroke="#606060" stroke-width="1.0"/>
   <path id="arrow"
     d="M 11.500037,31.436501 C 11.940474,20.09759 22.043105,11.32322 32.158766,21.979434 L 37.068811,17.246167 C 37.068811,17.246167 37.088388,32 37.088388,32 L 22.160133,31.978069 C 22.160133,31.978069 26.997745,27.140456 26.997745,27.140456 C 18.528582,18.264221 13.291696,25.230495 11.500037,31.436501 z"
     style="fill:#404040;"/>
  </a>
 </g>
</svg>

<style type='text/css'>
<![CDATA[
[data-mouse-over-selected='false'] { opacity: 0.7; }
[data-mouse-over-selected='true']  { opacity: 1.0; }
]]>
</style>
<script type="application/ecmascript"><![CDATA[
document.addEventListener('DOMContentLoaded', (event) => {
  highlightEdges();
  highlightAdjacentNodes();
});
]]></script>
</svg>
