<?xml version="1.0" encoding="UTF-8" standalone="no"?>
<!DOCTYPE svg PUBLIC "-//W3C//DTD SVG 1.1//EN"
 "http://www.w3.org/Graphics/SVG/1.1/DTD/svg11.dtd">
<!-- Generated by graphviz version 2.43.0 (0)
 -->
<!-- Title: SocketPoll.h Pages: 1 -->
<!--zoomable 148 -->

<svg id="main" version="1.1" xmlns="http://www.w3.org/2000/svg" xmlns:xlink="http://www.w3.org/1999/xlink" xml:space="preserve" onload="init(evt)">
<style type="text/css"><![CDATA[
.node, .edge {opacity: 0.7;}
.node.selected, .edge.selected {opacity: 1;}
.edge:hover path { stroke: red; }
.edge:hover polygon { stroke: red; fill: red; }
]]></style>

<defs>
  <circle id="rim" cx="0" cy="0" r="7"/>
  <circle id="rim2" cx="0" cy="0" r="3.5"/>
  <g id="zoomPlus">
    <use xlink:href="#rim" fill="#404040"><set attributeName="fill" to="#808080" begin="zoomplus.mouseover" end="zoomplus.mouseout"/></use>
    <path d="M-4,0h8M0,-4v8" fill="none" stroke="white" stroke-width="1.5" pointer-events="none"/>
  </g>
  <g id="zoomMin">
    <use xlink:href="#rim" fill="#404040"><set attributeName="fill" to="#808080" begin="zoomminus.mouseover" end="zoomminus.mouseout"/></use>
    <path d="M-4,0h8" fill="none" stroke="white" stroke-width="1.5" pointer-events="none"/>
  </g>
  <g id="arrowUp" transform="translate(30 24)">
    <use xlink:href="#rim"/>
    <path pointer-events="none" fill="none" stroke="white" stroke-width="1.5" d="M0,-3.0v7 M-2.5,-0.5L0,-3.0L2.5,-0.5"/>
  </g>
  <g id="arrowRight" transform="rotate(90) translate(36 -43)">
    <use xlink:href="#rim"/>
    <path pointer-events="none" fill="none" stroke="white" stroke-width="1.5" d="M0,-3.0v7 M-2.5,-0.5L0,-3.0L2.5,-0.5"/>
  </g>
  <g id="arrowDown" transform="rotate(180) translate(-30 -48)">
    <use xlink:href="#rim"/>
    <path pointer-events="none" fill="none" stroke="white" stroke-width="1.5" d="M0,-3.0v7 M-2.5,-0.5L0,-3.0L2.5,-0.5"/>
  </g>
  <g id="arrowLeft" transform="rotate(270) translate(-36 17)">
    <use xlink:href="#rim"/>
    <path pointer-events="none" fill="none" stroke="white" stroke-width="1.5" d="M0,-3.0v7 M-2.5,-0.5L0,-3.0L2.5,-0.5"/>
  </g>
  <g id="resetDef">
    <use xlink:href="#rim2" fill="#404040"><set attributeName="fill" to="#808080" begin="reset.mouseover" end="reset.mouseout"/></use>
  </g>
</defs>
<script type="application/ecmascript">
var viewWidth = 1078;
var viewHeight = 148;
var sectionId = 'dynsection-1';
</script>
<script type="application/ecmascript" xlink:href="svg.min.js"/>
<svg id="graph" class="graph">
<g id="viewport">
<title>SocketPoll.h</title>
<!-- Node1 -->
<g id="Node000001" class="node">
<title>Node1</title>
<g id="a_Node000001"><a xlink:title="Cross&#45;platform high&#45;level interface for monitoring multiple sockets for I/O events.">
<polygon fill="#999999" stroke="#666666" points="623.5,-140 551.5,-140 551.5,-121 623.5,-121 623.5,-140"/>
<text text-anchor="middle" x="587.5" y="-128" font-family="Helvetica,sans-Serif" font-size="10.00">SocketPoll.h</text>
</a>
</g>
</g>
<!-- Node2 -->
<g id="Node000002" class="node">
<title>Node2</title>
<g id="a_Node000002"><a xlink:href="SocketHTTPServer_8h.html" target="_top" xlink:title="High&#45;level HTTP server supporting HTTP/1.1 and HTTP/2 protocols.">
<polygon fill="white" stroke="#666666" points="259.5,-85 149.5,-85 149.5,-66 259.5,-66 259.5,-85"/>
<text text-anchor="middle" x="204.5" y="-73" font-family="Helvetica,sans-Serif" font-size="10.00">SocketHTTPServer.h</text>
</a>
</g>
</g>
<!-- Node1&#45;&gt;Node2 -->
<g id="edge1_Node000001_Node000002" class="edge">
<title>Node1&#45;&gt;Node2</title>
<g id="a_edge1_Node000001_Node000002"><a xlink:title=" ">
<path fill="none" stroke="#63b8ff" d="M541.52,-123.14C470.8,-113.35 335.59,-94.64 259.69,-84.14"/>
<polygon fill="#63b8ff" stroke="#63b8ff" points="541.08,-126.61 551.47,-124.51 542.04,-119.68 541.08,-126.61"/>
</a>
</g>
</g>
<!-- Node5 -->
<g id="Node000005" class="node">
<title>Node5</title>
<g id="a_Node000005"><a xlink:href="websocket__server_8c.html" target="_top" xlink:title=" ">
<polygon fill="white" stroke="#666666" points="356.5,-24.5 252.5,-24.5 252.5,-5.5 356.5,-5.5 356.5,-24.5"/>
<text text-anchor="middle" x="304.5" y="-12.5" font-family="Helvetica,sans-Serif" font-size="10.00">websocket_server.c</text>
</a>
</g>
</g>
<!-- Node1&#45;&gt;Node5 -->
<g id="edge18_Node000001_Node000005" class="edge">
<title>Node1&#45;&gt;Node5</title>
<g id="a_edge18_Node000001_Node000005"><a xlink:title=" ">
<path fill="none" stroke="#63b8ff" d="M541.31,-125.61C499.17,-120.63 436.09,-109.49 386.5,-85 355.14,-69.51 325.62,-39.56 312.14,-24.74"/>
<polygon fill="#63b8ff" stroke="#63b8ff" points="540.96,-129.1 551.29,-126.73 541.74,-122.14 540.96,-129.1"/>
</a>
</g>
</g>
<!-- Node6 -->
<g id="Node000006" class="node">
<title>Node6</title>
<g id="a_Node000006"><a xlink:href="SocketHappyEyeballs-private_8h.html" target="_top" xlink:title="Internal structures and state for Happy Eyeballs connection racing (RFC 8305).">
<polygon fill="white" stroke="#666666" points="488,-30 375,-30 375,0 488,0 488,-30"/>
<text text-anchor="start" x="383" y="-18" font-family="Helvetica,sans-Serif" font-size="10.00">SocketHappyEyeballs</text>
<text text-anchor="middle" x="431.5" y="-7" font-family="Helvetica,sans-Serif" font-size="10.00">&#45;private.h</text>
</a>
</g>
</g>
<!-- Node1&#45;&gt;Node6 -->
<g id="edge5_Node000001_Node000006" class="edge">
<title>Node1&#45;&gt;Node6</title>
<g id="a_edge5_Node000001_Node000006"><a xlink:title=" ">
<path fill="none" stroke="#63b8ff" d="M541.07,-125.35C489.92,-119.69 412.48,-107.59 394.5,-85 380.79,-67.77 399.25,-44.71 414.65,-30.11"/>
<polygon fill="#63b8ff" stroke="#63b8ff" points="540.93,-128.85 551.24,-126.42 541.67,-121.89 540.93,-128.85"/>
</a>
</g>
</g>
<!-- Node7 -->
<g id="Node000007" class="node">
<title>Node7</title>
<g id="a_Node000007"><a xlink:href="SocketHappyEyeballs_8h.html" target="_top" xlink:title="Happy Eyeballs (RFC 8305) implementation for fast dual&#45;stack connections.">
<polygon fill="white" stroke="#666666" points="525.5,-85 403.5,-85 403.5,-66 525.5,-66 525.5,-85"/>
<text text-anchor="middle" x="464.5" y="-73" font-family="Helvetica,sans-Serif" font-size="10.00">SocketHappyEyeballs.h</text>
</a>
</g>
</g>
<!-- Node1&#45;&gt;Node7 -->
<g id="edge6_Node000001_Node000007" class="edge">
<title>Node1&#45;&gt;Node7</title>
<g id="a_edge6_Node000001_Node000007"><a xlink:title=" ">
<path fill="none" stroke="#63b8ff" d="M558.25,-116.9C535.53,-107.11 504.63,-93.79 484.62,-85.17"/>
<polygon fill="#63b8ff" stroke="#63b8ff" points="557.17,-120.24 567.74,-120.98 559.94,-113.81 557.17,-120.24"/>
</a>
</g>
</g>
<!-- Node8 -->
<g id="Node000008" class="node">
<title>Node8</title>
<g id="a_Node000008"><a xlink:href="SocketProxy-private_8h.html" target="_top" xlink:title="Internal structures and functions for SocketProxy module.">
<polygon fill="white" stroke="#666666" points="619,-24.5 506,-24.5 506,-5.5 619,-5.5 619,-24.5"/>
<text text-anchor="middle" x="562.5" y="-12.5" font-family="Helvetica,sans-Serif" font-size="10.00">SocketProxy&#45;private.h</text>
</a>
</g>
</g>
<!-- Node1&#45;&gt;Node8 -->
<g id="edge12_Node000001_Node000008" class="edge">
<title>Node1&#45;&gt;Node8</title>
<g id="a_edge12_Node000001_Node000008"><a xlink:title=" ">
<path fill="none" stroke="#63b8ff" d="M580.56,-111.37C577.72,-103.38 574.61,-93.82 572.5,-85 567.38,-63.57 564.49,-37.74 563.24,-24.59"/>
<polygon fill="#63b8ff" stroke="#63b8ff" points="577.28,-112.61 584.03,-120.77 583.85,-110.18 577.28,-112.61"/>
</a>
</g>
</g>
<!-- Node9 -->
<g id="Node000009" class="node">
<title>Node9</title>
<g id="a_Node000009"><a xlink:href="SocketPoll-private_8h.html" target="_top" xlink:title=" ">
<polygon fill="white" stroke="#666666" points="865.5,-24.5 761.5,-24.5 761.5,-5.5 865.5,-5.5 865.5,-24.5"/>
<text text-anchor="middle" x="813.5" y="-12.5" font-family="Helvetica,sans-Serif" font-size="10.00">SocketPoll&#45;private.h</text>
</a>
</g>
</g>
<!-- Node1&#45;&gt;Node9 -->
<g id="edge9_Node000001_Node000009" class="edge">
<title>Node1&#45;&gt;Node9</title>
<g id="a_edge9_Node000001_Node000009"><a xlink:title=" ">
<path fill="none" stroke="#63b8ff" d="M633.71,-126C689.81,-120.75 779.76,-108.81 802.5,-85 818.25,-68.51 816.8,-39.03 814.92,-24.53"/>
<polygon fill="#63b8ff" stroke="#63b8ff" points="633.3,-122.52 623.65,-126.9 633.93,-129.49 633.3,-122.52"/>
</a>
</g>
</g>
<!-- Node10 -->
<g id="Node000010" class="node">
<title>Node10</title>
<g id="a_Node000010"><a xlink:href="SocketPoll__backend_8h.html" target="_top" xlink:title="Defines internal backend abstraction for cross&#45;platform polling.">
<polygon fill="white" stroke="#666666" points="793.5,-85 679.5,-85 679.5,-66 793.5,-66 793.5,-85"/>
<text text-anchor="middle" x="736.5" y="-73" font-family="Helvetica,sans-Serif" font-size="10.00">SocketPoll_backend.h</text>
</a>
</g>
</g>
<!-- Node1&#45;&gt;Node10 -->
<g id="edge10_Node000001_Node000010" class="edge">
<title>Node1&#45;&gt;Node10</title>
<g id="a_edge10_Node000001_Node000010"><a xlink:title=" ">
<path fill="none" stroke="#63b8ff" d="M621.09,-117.55C648.76,-107.71 687.34,-93.98 712.12,-85.17"/>
<polygon fill="#63b8ff" stroke="#63b8ff" points="619.69,-114.34 611.44,-120.98 622.03,-120.93 619.69,-114.34"/>
</a>
</g>
</g>
<!-- Node11 -->
<g id="Node000011" class="node">
<title>Node11</title>
<g id="a_Node000011"><a xlink:href="SocketProxy_8h.html" target="_top" xlink:title="Proxy tunneling module for HTTP CONNECT and SOCKS protocols.">
<polygon fill="white" stroke="#666666" points="661.5,-85 581.5,-85 581.5,-66 661.5,-66 661.5,-85"/>
<text text-anchor="middle" x="621.5" y="-73" font-family="Helvetica,sans-Serif" font-size="10.00">SocketProxy.h</text>
</a>
</g>
</g>
<!-- Node1&#45;&gt;Node11 -->
<g id="edge13_Node000001_Node000011" class="edge">
<title>Node1&#45;&gt;Node11</title>
<g id="a_edge13_Node000001_Node000011"><a xlink:title=" ">
<path fill="none" stroke="#63b8ff" d="M598.66,-112.1C604.47,-103.04 611.32,-92.37 615.99,-85.09"/>
<polygon fill="#63b8ff" stroke="#63b8ff" points="595.57,-110.44 593.11,-120.75 601.46,-114.22 595.57,-110.44"/>
</a>
</g>
</g>
<!-- Node13 -->
<g id="Node000013" class="node">
<title>Node13</title>
<g id="a_Node000013"><a xlink:href="connection__pool_8c.html" target="_top" xlink:title=" ">
<polygon fill="white" stroke="#666666" points="945,-85 850,-85 850,-66 945,-66 945,-85"/>
<text text-anchor="middle" x="897.5" y="-73" font-family="Helvetica,sans-Serif" font-size="10.00">connection_pool.c</text>
</a>
</g>
</g>
<!-- Node1&#45;&gt;Node13 -->
<g id="edge16_Node000001_Node000013" class="edge">
<title>Node1&#45;&gt;Node13</title>
<g id="a_edge16_Node000001_Node000013"><a xlink:title=" ">
<path fill="none" stroke="#63b8ff" d="M633.67,-121.61C691.8,-111.67 791.15,-94.68 849.93,-84.63"/>
<polygon fill="#63b8ff" stroke="#63b8ff" points="632.93,-118.18 623.67,-123.32 634.11,-125.08 632.93,-118.18"/>
</a>
</g>
</g>
<!-- Node14 -->
<g id="Node000014" class="node">
<title>Node14</title>
<g id="a_Node000014"><a xlink:href="graceful__shutdown_8c.html" target="_top" xlink:title=" ">
<polygon fill="white" stroke="#666666" points="1070,-85 963,-85 963,-66 1070,-66 1070,-85"/>
<text text-anchor="middle" x="1016.5" y="-73" font-family="Helvetica,sans-Serif" font-size="10.00">graceful_shutdown.c</text>
</a>
</g>
</g>
<!-- Node1&#45;&gt;Node14 -->
<g id="edge17_Node000001_Node000014" class="edge">
<title>Node1&#45;&gt;Node14</title>
<g id="a_edge17_Node000001_Node000014"><a xlink:title=" ">
<path fill="none" stroke="#63b8ff" d="M633.92,-124.11C703.59,-115.96 839.31,-99.88 954.5,-85 957.19,-84.65 959.95,-84.29 962.74,-83.92"/>
<polygon fill="#63b8ff" stroke="#63b8ff" points="633.25,-120.66 623.73,-125.3 634.07,-127.61 633.25,-120.66"/>
</a>
</g>
</g>
<!-- Node3 -->
<g id="Node000003" class="node">
<title>Node3</title>
<g id="a_Node000003"><a xlink:href="SocketHTTPServer-private_8h.html" target="_top" xlink:title="Private implementation details for HTTP server connection and state management.">
<polygon fill="white" stroke="#666666" points="234,-24.5 91,-24.5 91,-5.5 234,-5.5 234,-24.5"/>
<text text-anchor="middle" x="162.5" y="-12.5" font-family="Helvetica,sans-Serif" font-size="10.00">SocketHTTPServer&#45;private.h</text>
</a>
</g>
</g>
<!-- Node2&#45;&gt;Node3 -->
<g id="edge2_Node000002_Node000003" class="edge">
<title>Node2&#45;&gt;Node3</title>
<g id="a_edge2_Node000002_Node000003"><a xlink:title=" ">
<path fill="none" stroke="#63b8ff" d="M192.39,-57.63C184.65,-46.85 174.94,-33.32 168.72,-24.67"/>
<polygon fill="#63b8ff" stroke="#63b8ff" points="189.63,-59.79 198.3,-65.87 195.31,-55.7 189.63,-59.79"/>
</a>
</g>
</g>
<!-- Node4 -->
<g id="Node000004" class="node">
<title>Node4</title>
<g id="a_Node000004"><a xlink:href="http__server_8c.html" target="_top" xlink:title=" ">
<polygon fill="white" stroke="#666666" points="73,-24.5 0,-24.5 0,-5.5 73,-5.5 73,-24.5"/>
<text text-anchor="middle" x="36.5" y="-12.5" font-family="Helvetica,sans-Serif" font-size="10.00">http_server.c</text>
</a>
</g>
</g>
<!-- Node2&#45;&gt;Node4 -->
<g id="edge3_Node000002_Node000004" class="edge">
<title>Node2&#45;&gt;Node4</title>
<g id="a_edge3_Node000002_Node000004"><a xlink:title=" ">
<path fill="none" stroke="#63b8ff" d="M170.53,-62.67C138.04,-51.36 89.84,-34.57 60.96,-24.52"/>
<polygon fill="#63b8ff" stroke="#63b8ff" points="169.48,-66.01 180.07,-65.99 171.78,-59.4 169.48,-66.01"/>
</a>
</g>
</g>
<!-- Node2&#45;&gt;Node5 -->
<g id="edge4_Node000002_Node000005" class="edge">
<title>Node2&#45;&gt;Node5</title>
<g id="a_edge4_Node000002_Node000005"><a xlink:title=" ">
<path fill="none" stroke="#63b8ff" d="M227.97,-60.77C247.06,-49.6 273.41,-34.19 289.68,-24.67"/>
<polygon fill="#63b8ff" stroke="#63b8ff" points="226.12,-57.8 219.26,-65.87 229.65,-63.84 226.12,-57.8"/>
</a>
</g>
</g>
<!-- Node7&#45;&gt;Node6 -->
<g id="edge7_Node000007_Node000006" class="edge">
<title>Node7&#45;&gt;Node6</title>
<g id="a_edge7_Node000007_Node000006"><a xlink:title=" ">
<path fill="none" stroke="#63b8ff" d="M454.66,-57.05C449.81,-48.45 444.03,-38.21 439.46,-30.11"/>
<polygon fill="#63b8ff" stroke="#63b8ff" points="451.67,-58.88 459.63,-65.87 457.77,-55.44 451.67,-58.88"/>
</a>
</g>
</g>
<!-- Node7&#45;&gt;Node8 -->
<g id="edge8_Node000007_Node000008" class="edge">
<title>Node7&#45;&gt;Node8</title>
<g id="a_edge8_Node000007_Node000008"><a xlink:title=" ">
<path fill="none" stroke="#63b8ff" d="M487.75,-60.62C506.44,-49.46 532.11,-34.14 547.98,-24.67"/>
<polygon fill="#63b8ff" stroke="#63b8ff" points="485.75,-57.74 478.96,-65.87 489.34,-63.75 485.75,-57.74"/>
</a>
</g>
</g>
<!-- Node10&#45;&gt;Node9 -->
<g id="edge11_Node000010_Node000009" class="edge">
<title>Node10&#45;&gt;Node9</title>
<g id="a_edge11_Node000010_Node000009"><a xlink:title=" ">
<path fill="none" stroke="#63b8ff" d="M756.19,-59.54C770.73,-48.49 790.02,-33.84 802.09,-24.67"/>
<polygon fill="#63b8ff" stroke="#63b8ff" points="753.71,-57.03 747.86,-65.87 757.94,-62.61 753.71,-57.03"/>
</a>
</g>
</g>
<!-- Node11&#45;&gt;Node8 -->
<g id="edge14_Node000011_Node000008" class="edge">
<title>Node11&#45;&gt;Node8</title>
<g id="a_edge14_Node000011_Node000008"><a xlink:title=" ">
<path fill="none" stroke="#63b8ff" d="M605.45,-58.59C594.44,-47.67 580.23,-33.58 571.24,-24.67"/>
<polygon fill="#63b8ff" stroke="#63b8ff" points="603.23,-61.31 612.79,-65.87 608.16,-56.34 603.23,-61.31"/>
</a>
</g>
</g>
<!-- Node12 -->
<g id="Node000012" class="node">
<title>Node12</title>
<g id="a_Node000012"><a xlink:href="proxy__connect_8c.html" target="_top" xlink:title=" ">
<polygon fill="white" stroke="#666666" points="726,-24.5 637,-24.5 637,-5.5 726,-5.5 726,-24.5"/>
<text text-anchor="middle" x="681.5" y="-12.5" font-family="Helvetica,sans-Serif" font-size="10.00">proxy_connect.c</text>
</a>
</g>
</g>
<!-- Node11&#45;&gt;Node12 -->
<g id="edge15_Node000011_Node000012" class="edge">
<title>Node11&#45;&gt;Node12</title>
<g id="a_edge15_Node000011_Node000012"><a xlink:title=" ">
<path fill="none" stroke="#63b8ff" d="M637.82,-58.59C649.02,-47.67 663.47,-33.58 672.61,-24.67"/>
<polygon fill="#63b8ff" stroke="#63b8ff" points="635.07,-56.38 630.35,-65.87 639.96,-61.39 635.07,-56.38"/>
</a>
</g>
</g>
</g>
</svg>

<g id="navigator" transform="translate(0 0)" fill="#404254">
  <rect fill="#f2f5e9" fill-opacity="0.5" stroke="#606060" stroke-width=".5" x="0" y="0" width="60" height="60"/>
  <use id="zoomplus" xlink:href="#zoomPlus" x="17" y="9" onmousedown="handleZoom(evt,'in')"/>
  <use id="zoomminus" xlink:href="#zoomMin" x="42" y="9" onmousedown="handleZoom(evt,'out')"/>
  <use id="reset" xlink:href="#resetDef" x="30" y="36" onmousedown="handleReset()"/>
   <use id="arrowup" xlink:href="#arrowUp" x="0" y="0" onmousedown="handlePan(0,-1)"/>
  <use id="arrowright" xlink:href="#arrowRight" x="0" y="0" onmousedown="handlePan(1,0)"/>
  <use id="arrowdown" xlink:href="#arrowDown" x="0" y="0" onmousedown="handlePan(0,1)"/>
  <use id="arrowleft" xlink:href="#arrowLeft" x="0" y="0" onmousedown="handlePan(-1,0)"/>
</g>
<svg viewBox="0 0 15 15" width="100%" height="30px" preserveAspectRatio="xMaxYMin meet">
 <g id="arrow_out" transform="scale(0.3 0.3)">
  <a xlink:href="SocketPoll_8h__dep__incl_org.svg" target="_base">
   <rect id="button" ry="5" rx="5" y="6" x="6" height="38" width="38"
        fill="#f2f5e9" fill-opacity="0.5" stroke="#606060" stroke-width="1.0"/>
   <path id="arrow"
     d="M 11.500037,31.436501 C 11.940474,20.09759 22.043105,11.32322 32.158766,21.979434 L 37.068811,17.246167 C 37.068811,17.246167 37.088388,32 37.088388,32 L 22.160133,31.978069 C 22.160133,31.978069 26.997745,27.140456 26.997745,27.140456 C 18.528582,18.264221 13.291696,25.230495 11.500037,31.436501 z"
     style="fill:#404040;"/>
  </a>
 </g>
</svg>

<style type='text/css'>
<![CDATA[
[data-mouse-over-selected='false'] { opacity: 0.7; }
[data-mouse-over-selected='true']  { opacity: 1.0; }
]]>
</style>
<script type="application/ecmascript"><![CDATA[
document.addEventListener('DOMContentLoaded', (event) => {
  highlightEdges();
  highlightAdjacentNodes();
});
]]></script>
</svg>
