<?xml version="1.0" encoding="UTF-8" standalone="no"?>
<!DOCTYPE svg PUBLIC "-//W3C//DTD SVG 1.1//EN"
 "http://www.w3.org/Graphics/SVG/1.1/DTD/svg11.dtd">
<!-- Generated by graphviz version 2.43.0 (0)
 -->
<!-- Title: SocketWS.h Pages: 1 -->
<svg width="1459pt" height="302pt"
 viewBox="0.00 0.00 1458.68 302.00" xmlns="http://www.w3.org/2000/svg" xmlns:xlink="http://www.w3.org/1999/xlink">
<g id="graph0" class="graph" transform="scale(1 1) rotate(0) translate(4 298)">
<title>SocketWS.h</title>
<!-- Node1 -->
<g id="Node000001" class="node">
<title>Node1</title>
<g id="a_Node000001"><a xlink:title=" ">
<polygon fill="#999999" stroke="#666666" points="161.18,-294 89.18,-294 89.18,-275 161.18,-275 161.18,-294"/>
<text text-anchor="middle" x="125.18" y="-282" font-family="Helvetica,sans-Serif" font-size="10.00">SocketWS.h</text>
</a>
</g>
</g>
<!-- Node2 -->
<g id="Node000002" class="node">
<title>Node2</title>
<g id="a_Node000002"><a xlink:title=" ">
<polygon fill="#e0e0e0" stroke="#999999" points="516.18,-74 464.18,-74 464.18,-55 516.18,-55 516.18,-74"/>
<text text-anchor="middle" x="490.18" y="-62" font-family="Helvetica,sans-Serif" font-size="10.00">stddef.h</text>
</a>
</g>
</g>
<!-- Node1&#45;&gt;Node2 -->
<g id="edge1_Node000001_Node000002" class="edge">
<title>Node1&#45;&gt;Node2</title>
<g id="a_edge1_Node000001_Node000002"><a xlink:title=" ">
<path fill="none" stroke="#63b8ff" d="M149.3,-274.98C203.59,-255.07 338.09,-201.61 433.18,-129 450.76,-115.58 467.22,-96.21 477.89,-82.4"/>
<polygon fill="#63b8ff" stroke="#63b8ff" points="480.81,-84.35 484.02,-74.25 475.21,-80.14 480.81,-84.35"/>
</a>
</g>
</g>
<!-- Node3 -->
<g id="Node000003" class="node">
<title>Node3</title>
<g id="a_Node000003"><a xlink:title=" ">
<polygon fill="#e0e0e0" stroke="#999999" points="71.68,-129 22.68,-129 22.68,-110 71.68,-110 71.68,-129"/>
<text text-anchor="middle" x="47.18" y="-117" font-family="Helvetica,sans-Serif" font-size="10.00">stdint.h</text>
</a>
</g>
</g>
<!-- Node1&#45;&gt;Node3 -->
<g id="edge2_Node000001_Node000003" class="edge">
<title>Node1&#45;&gt;Node3</title>
<g id="a_edge2_Node000001_Node000003"><a xlink:title=" ">
<path fill="none" stroke="#63b8ff" d="M119.05,-274.84C107.37,-258.03 81.74,-219.5 66.18,-184 59.82,-169.49 54.81,-152.22 51.53,-139.36"/>
<polygon fill="#63b8ff" stroke="#63b8ff" points="54.87,-138.26 49.11,-129.37 48.06,-139.91 54.87,-138.26"/>
</a>
</g>
</g>
<!-- Node4 -->
<g id="Node000004" class="node">
<title>Node4</title>
<g id="a_Node000004"><a xlink:href="Except_8h.html" target="_top" xlink:title=" ">
<polygon fill="white" stroke="#666666" points="332.68,-74 255.68,-74 255.68,-55 332.68,-55 332.68,-74"/>
<text text-anchor="middle" x="294.18" y="-62" font-family="Helvetica,sans-Serif" font-size="10.00">core/Except.h</text>
</a>
</g>
</g>
<!-- Node1&#45;&gt;Node4 -->
<g id="edge3_Node000001_Node000004" class="edge">
<title>Node1&#45;&gt;Node4</title>
<g id="a_edge3_Node000001_Node000004"><a xlink:title=" ">
<path fill="none" stroke="#63b8ff" d="M111.74,-274.82C72.51,-248.47 -36.07,-167.66 13.18,-110 42.46,-75.72 172.83,-67.7 245.26,-65.92"/>
<polygon fill="#63b8ff" stroke="#63b8ff" points="245.58,-69.42 255.51,-65.7 245.43,-62.42 245.58,-69.42"/>
</a>
</g>
</g>
<!-- Node6 -->
<g id="Node000006" class="node">
<title>Node6</title>
<g id="a_Node000006"><a xlink:href="SocketHTTP_8h.html" target="_top" xlink:title=" ">
<polygon fill="white" stroke="#666666" points="175.18,-184 75.18,-184 75.18,-165 175.18,-165 175.18,-184"/>
<text text-anchor="middle" x="125.18" y="-172" font-family="Helvetica,sans-Serif" font-size="10.00">http/SocketHTTP.h</text>
</a>
</g>
</g>
<!-- Node1&#45;&gt;Node6 -->
<g id="edge5_Node000001_Node000006" class="edge">
<title>Node1&#45;&gt;Node6</title>
<g id="a_edge5_Node000001_Node000006"><a xlink:title=" ">
<path fill="none" stroke="#63b8ff" d="M125.18,-274.66C125.18,-257.17 125.18,-217.8 125.18,-194.27"/>
<polygon fill="#63b8ff" stroke="#63b8ff" points="128.68,-194.16 125.18,-184.16 121.68,-194.16 128.68,-194.16"/>
</a>
</g>
</g>
<!-- Node10 -->
<g id="Node000010" class="node">
<title>Node10</title>
<g id="a_Node000010"><a xlink:href="Socket_8h.html" target="_top" xlink:title=" ">
<polygon fill="white" stroke="#666666" points="610.18,-239 522.18,-239 522.18,-220 610.18,-220 610.18,-239"/>
<text text-anchor="middle" x="566.18" y="-227" font-family="Helvetica,sans-Serif" font-size="10.00">socket/Socket.h</text>
</a>
</g>
</g>
<!-- Node1&#45;&gt;Node10 -->
<g id="edge14_Node000001_Node000010" class="edge">
<title>Node1&#45;&gt;Node10</title>
<g id="a_edge14_Node000001_Node000010"><a xlink:title=" ">
<path fill="none" stroke="#63b8ff" d="M161.27,-279.5C228.68,-271.97 378.33,-255.01 504.18,-239 506.82,-238.66 509.52,-238.32 512.24,-237.96"/>
<polygon fill="#63b8ff" stroke="#63b8ff" points="512.71,-241.43 522.16,-236.64 511.79,-234.49 512.71,-241.43"/>
</a>
</g>
</g>
<!-- Node5 -->
<g id="Node000005" class="node">
<title>Node5</title>
<g id="a_Node000005"><a xlink:title=" ">
<polygon fill="#e0e0e0" stroke="#999999" points="321.18,-19 267.18,-19 267.18,0 321.18,0 321.18,-19"/>
<text text-anchor="middle" x="294.18" y="-7" font-family="Helvetica,sans-Serif" font-size="10.00">setjmp.h</text>
</a>
</g>
</g>
<!-- Node4&#45;&gt;Node5 -->
<g id="edge4_Node000004_Node000005" class="edge">
<title>Node4&#45;&gt;Node5</title>
<g id="a_edge4_Node000004_Node000005"><a xlink:title=" ">
<path fill="none" stroke="#63b8ff" d="M294.18,-54.75C294.18,-47.8 294.18,-37.85 294.18,-29.13"/>
<polygon fill="#63b8ff" stroke="#63b8ff" points="297.68,-29.09 294.18,-19.09 290.68,-29.09 297.68,-29.09"/>
</a>
</g>
</g>
<!-- Node6&#45;&gt;Node2 -->
<g id="edge6_Node000006_Node000002" class="edge">
<title>Node6&#45;&gt;Node2</title>
<g id="a_edge6_Node000006_Node000002"><a xlink:title=" ">
<path fill="none" stroke="#63b8ff" d="M139.7,-164.96C163.46,-151.33 212.5,-124.73 257.18,-110 324.85,-87.68 407.48,-75.21 453.94,-69.46"/>
<polygon fill="#63b8ff" stroke="#63b8ff" points="454.6,-72.91 464.11,-68.24 453.77,-65.96 454.6,-72.91"/>
</a>
</g>
</g>
<!-- Node6&#45;&gt;Node3 -->
<g id="edge7_Node000006_Node000003" class="edge">
<title>Node6&#45;&gt;Node3</title>
<g id="a_edge7_Node000006_Node000003"><a xlink:title=" ">
<path fill="none" stroke="#63b8ff" d="M112.65,-164.98C100.78,-156.92 82.72,-144.65 68.57,-135.03"/>
<polygon fill="#63b8ff" stroke="#63b8ff" points="70.18,-131.9 59.94,-129.17 66.25,-137.69 70.18,-131.9"/>
</a>
</g>
</g>
<!-- Node6&#45;&gt;Node4 -->
<g id="edge13_Node000006_Node000004" class="edge">
<title>Node6&#45;&gt;Node4</title>
<g id="a_edge13_Node000006_Node000004"><a xlink:title=" ">
<path fill="none" stroke="#63b8ff" d="M120.87,-164.64C115.06,-151.29 106.81,-125.91 119.18,-110 134.57,-90.21 199.01,-77.78 245.22,-71.24"/>
<polygon fill="#63b8ff" stroke="#63b8ff" points="245.93,-74.67 255.37,-69.85 244.98,-67.74 245.93,-74.67"/>
</a>
</g>
</g>
<!-- Node7 -->
<g id="Node000007" class="node">
<title>Node7</title>
<g id="a_Node000007"><a xlink:title=" ">
<polygon fill="#e0e0e0" stroke="#999999" points="334.18,-129 266.18,-129 266.18,-110 334.18,-110 334.18,-129"/>
<text text-anchor="middle" x="300.18" y="-117" font-family="Helvetica,sans-Serif" font-size="10.00">sys/types.h</text>
</a>
</g>
</g>
<!-- Node6&#45;&gt;Node7 -->
<g id="edge8_Node000006_Node000007" class="edge">
<title>Node6&#45;&gt;Node7</title>
<g id="a_edge8_Node000006_Node000007"><a xlink:title=" ">
<path fill="none" stroke="#63b8ff" d="M153.3,-164.98C182.81,-156.05 229.37,-141.94 262.15,-132.02"/>
<polygon fill="#63b8ff" stroke="#63b8ff" points="263.29,-135.33 271.84,-129.08 261.26,-128.63 263.29,-135.33"/>
</a>
</g>
</g>
<!-- Node8 -->
<g id="Node000008" class="node">
<title>Node8</title>
<g id="a_Node000008"><a xlink:title=" ">
<polygon fill="#e0e0e0" stroke="#999999" points="172.18,-129 128.18,-129 128.18,-110 172.18,-110 172.18,-129"/>
<text text-anchor="middle" x="150.18" y="-117" font-family="Helvetica,sans-Serif" font-size="10.00">time.h</text>
</a>
</g>
</g>
<!-- Node6&#45;&gt;Node8 -->
<g id="edge9_Node000006_Node000008" class="edge">
<title>Node6&#45;&gt;Node8</title>
<g id="a_edge9_Node000006_Node000008"><a xlink:title=" ">
<path fill="none" stroke="#63b8ff" d="M129.31,-164.75C132.7,-157.57 137.6,-147.18 141.8,-138.27"/>
<polygon fill="#63b8ff" stroke="#63b8ff" points="145.03,-139.63 146.13,-129.09 138.7,-136.64 145.03,-139.63"/>
</a>
</g>
</g>
<!-- Node9 -->
<g id="Node000009" class="node">
<title>Node9</title>
<g id="a_Node000009"><a xlink:href="Arena_8h.html" target="_top" xlink:title=" ">
<polygon fill="white" stroke="#666666" points="424.18,-129 352.18,-129 352.18,-110 424.18,-110 424.18,-129"/>
<text text-anchor="middle" x="388.18" y="-117" font-family="Helvetica,sans-Serif" font-size="10.00">core/Arena.h</text>
</a>
</g>
</g>
<!-- Node6&#45;&gt;Node9 -->
<g id="edge10_Node000006_Node000009" class="edge">
<title>Node6&#45;&gt;Node9</title>
<g id="a_edge10_Node000006_Node000009"><a xlink:title=" ">
<path fill="none" stroke="#63b8ff" d="M167.44,-164.98C215.15,-155.37 292.56,-139.77 341.88,-129.83"/>
<polygon fill="#63b8ff" stroke="#63b8ff" points="342.85,-133.21 351.96,-127.8 341.46,-126.34 342.85,-133.21"/>
</a>
</g>
</g>
<!-- Node9&#45;&gt;Node2 -->
<g id="edge11_Node000009_Node000002" class="edge">
<title>Node9&#45;&gt;Node2</title>
<g id="a_edge11_Node000009_Node000002"><a xlink:title=" ">
<path fill="none" stroke="#63b8ff" d="M404.57,-109.98C420.76,-101.57 445.75,-88.59 464.56,-78.81"/>
<polygon fill="#63b8ff" stroke="#63b8ff" points="466.24,-81.89 473.49,-74.17 463.01,-75.68 466.24,-81.89"/>
</a>
</g>
</g>
<!-- Node9&#45;&gt;Node4 -->
<g id="edge12_Node000009_Node000004" class="edge">
<title>Node9&#45;&gt;Node4</title>
<g id="a_edge12_Node000009_Node000004"><a xlink:title=" ">
<path fill="none" stroke="#63b8ff" d="M373.08,-109.98C358.37,-101.69 335.76,-88.94 318.51,-79.22"/>
<polygon fill="#63b8ff" stroke="#63b8ff" points="319.99,-76.03 309.56,-74.17 316.55,-82.13 319.99,-76.03"/>
</a>
</g>
</g>
<!-- Node10&#45;&gt;Node4 -->
<g id="edge15_Node000010_Node000004" class="edge">
<title>Node10&#45;&gt;Node4</title>
<g id="a_edge15_Node000010_Node000004"><a xlink:title=" ">
<path fill="none" stroke="#63b8ff" d="M521.95,-229.22C452.24,-227.67 318.49,-213.16 257.18,-129 245.77,-113.34 260.92,-93.91 275.13,-80.7"/>
<polygon fill="#63b8ff" stroke="#63b8ff" points="277.51,-83.26 282.76,-74.06 272.92,-77.99 277.51,-83.26"/>
</a>
</g>
</g>
<!-- Node11 -->
<g id="Node000011" class="node">
<title>Node11</title>
<g id="a_Node000011"><a xlink:href="SocketConfig_8h.html" target="_top" xlink:title=" ">
<polygon fill="white" stroke="#666666" points="1192.18,-129 1086.18,-129 1086.18,-110 1192.18,-110 1192.18,-129"/>
<text text-anchor="middle" x="1139.18" y="-117" font-family="Helvetica,sans-Serif" font-size="10.00">core/SocketConfig.h</text>
</a>
</g>
</g>
<!-- Node10&#45;&gt;Node11 -->
<g id="edge16_Node000010_Node000011" class="edge">
<title>Node10&#45;&gt;Node11</title>
<g id="a_edge16_Node000010_Node000011"><a xlink:title=" ">
<path fill="none" stroke="#63b8ff" d="M610.44,-222.24C665.75,-214.25 763.22,-199.57 846.18,-184 933.77,-167.56 1035.26,-144.71 1092.88,-131.37"/>
<polygon fill="#63b8ff" stroke="#63b8ff" points="1093.82,-134.75 1102.77,-129.08 1092.24,-127.93 1093.82,-134.75"/>
</a>
</g>
</g>
<!-- Node20 -->
<g id="Node000020" class="node">
<title>Node20</title>
<g id="a_Node000020"><a xlink:href="SocketDNS_8h.html" target="_top" xlink:title=" ">
<polygon fill="white" stroke="#666666" points="614.18,-129 518.18,-129 518.18,-110 614.18,-110 614.18,-129"/>
<text text-anchor="middle" x="566.18" y="-117" font-family="Helvetica,sans-Serif" font-size="10.00">dns/SocketDNS.h</text>
</a>
</g>
</g>
<!-- Node10&#45;&gt;Node20 -->
<g id="edge26_Node000010_Node000020" class="edge">
<title>Node10&#45;&gt;Node20</title>
<g id="a_edge26_Node000010_Node000020"><a xlink:title=" ">
<path fill="none" stroke="#63b8ff" d="M566.18,-219.66C566.18,-202.17 566.18,-162.8 566.18,-139.27"/>
<polygon fill="#63b8ff" stroke="#63b8ff" points="569.68,-139.16 566.18,-129.16 562.68,-139.16 569.68,-139.16"/>
</a>
</g>
</g>
<!-- Node22 -->
<g id="Node000022" class="node">
<title>Node22</title>
<g id="a_Node000022"><a xlink:href="SocketCommon_8h.html" target="_top" xlink:title=" ">
<polygon fill="white" stroke="#666666" points="837.18,-184 709.18,-184 709.18,-165 837.18,-165 837.18,-184"/>
<text text-anchor="middle" x="773.18" y="-172" font-family="Helvetica,sans-Serif" font-size="10.00">socket/SocketCommon.h</text>
</a>
</g>
</g>
<!-- Node10&#45;&gt;Node22 -->
<g id="edge31_Node000010_Node000022" class="edge">
<title>Node10&#45;&gt;Node22</title>
<g id="a_edge31_Node000010_Node000022"><a xlink:title=" ">
<path fill="none" stroke="#63b8ff" d="M599.44,-219.98C634.79,-210.93 690.85,-196.58 729.69,-186.64"/>
<polygon fill="#63b8ff" stroke="#63b8ff" points="730.84,-189.95 739.66,-184.08 729.11,-183.17 730.84,-189.95"/>
</a>
</g>
</g>
<!-- Node11&#45;&gt;Node2 -->
<g id="edge21_Node000011_Node000002" class="edge">
<title>Node11&#45;&gt;Node2</title>
<g id="a_edge21_Node000011_Node000002"><a xlink:title=" ">
<path fill="none" stroke="#63b8ff" d="M1085.89,-114.8C985.24,-107.7 760.3,-91.33 571.18,-74 556.59,-72.66 540.55,-71.02 526.61,-69.53"/>
<polygon fill="#63b8ff" stroke="#63b8ff" points="526.75,-66.02 516.43,-68.43 526,-72.98 526.75,-66.02"/>
</a>
</g>
</g>
<!-- Node12 -->
<g id="Node000012" class="node">
<title>Node12</title>
<g id="a_Node000012"><a xlink:title=" ">
<polygon fill="#e0e0e0" stroke="#999999" points="1153.68,-74 1106.68,-74 1106.68,-55 1153.68,-55 1153.68,-74"/>
<text text-anchor="middle" x="1130.18" y="-62" font-family="Helvetica,sans-Serif" font-size="10.00">errno.h</text>
</a>
</g>
</g>
<!-- Node11&#45;&gt;Node12 -->
<g id="edge17_Node000011_Node000012" class="edge">
<title>Node11&#45;&gt;Node12</title>
<g id="a_edge17_Node000011_Node000012"><a xlink:title=" ">
<path fill="none" stroke="#63b8ff" d="M1137.69,-109.75C1136.52,-102.8 1134.82,-92.85 1133.35,-84.13"/>
<polygon fill="#63b8ff" stroke="#63b8ff" points="1136.76,-83.36 1131.64,-74.09 1129.86,-84.53 1136.76,-83.36"/>
</a>
</g>
</g>
<!-- Node13 -->
<g id="Node000013" class="node">
<title>Node13</title>
<g id="a_Node000013"><a xlink:title=" ">
<polygon fill="#e0e0e0" stroke="#999999" points="1088.18,-74 1044.18,-74 1044.18,-55 1088.18,-55 1088.18,-74"/>
<text text-anchor="middle" x="1066.18" y="-62" font-family="Helvetica,sans-Serif" font-size="10.00">fcntl.h</text>
</a>
</g>
</g>
<!-- Node11&#45;&gt;Node13 -->
<g id="edge18_Node000011_Node000013" class="edge">
<title>Node11&#45;&gt;Node13</title>
<g id="a_edge18_Node000011_Node000013"><a xlink:title=" ">
<path fill="none" stroke="#63b8ff" d="M1127.45,-109.98C1116.45,-102 1099.76,-89.88 1086.58,-80.31"/>
<polygon fill="#63b8ff" stroke="#63b8ff" points="1088.27,-77.21 1078.12,-74.17 1084.16,-82.88 1088.27,-77.21"/>
</a>
</g>
</g>
<!-- Node14 -->
<g id="Node000014" class="node">
<title>Node14</title>
<g id="a_Node000014"><a xlink:title=" ">
<polygon fill="#e0e0e0" stroke="#999999" points="1025.68,-74 960.68,-74 960.68,-55 1025.68,-55 1025.68,-74"/>
<text text-anchor="middle" x="993.18" y="-62" font-family="Helvetica,sans-Serif" font-size="10.00">netinet/in.h</text>
</a>
</g>
</g>
<!-- Node11&#45;&gt;Node14 -->
<g id="edge19_Node000011_Node000014" class="edge">
<title>Node11&#45;&gt;Node14</title>
<g id="a_edge19_Node000011_Node000014"><a xlink:title=" ">
<path fill="none" stroke="#63b8ff" d="M1115.72,-109.98C1091.6,-101.23 1053.82,-87.51 1026.58,-77.62"/>
<polygon fill="#63b8ff" stroke="#63b8ff" points="1027.66,-74.29 1017.07,-74.17 1025.27,-80.87 1027.66,-74.29"/>
</a>
</g>
</g>
<!-- Node15 -->
<g id="Node000015" class="node">
<title>Node15</title>
<g id="a_Node000015"><a xlink:title=" ">
<polygon fill="#e0e0e0" stroke="#999999" points="1242.68,-74 1171.68,-74 1171.68,-55 1242.68,-55 1242.68,-74"/>
<text text-anchor="middle" x="1207.18" y="-62" font-family="Helvetica,sans-Serif" font-size="10.00">netinet/tcp.h</text>
</a>
</g>
</g>
<!-- Node11&#45;&gt;Node15 -->
<g id="edge20_Node000011_Node000015" class="edge">
<title>Node11&#45;&gt;Node15</title>
<g id="a_edge20_Node000011_Node000015"><a xlink:title=" ">
<path fill="none" stroke="#63b8ff" d="M1150.11,-109.98C1160.26,-102.07 1175.6,-90.11 1187.83,-80.58"/>
<polygon fill="#63b8ff" stroke="#63b8ff" points="1190.32,-83.08 1196.06,-74.17 1186.02,-77.56 1190.32,-83.08"/>
</a>
</g>
</g>
<!-- Node16 -->
<g id="Node000016" class="node">
<title>Node16</title>
<g id="a_Node000016"><a xlink:title=" ">
<polygon fill="#e0e0e0" stroke="#999999" points="1307.18,-74 1261.18,-74 1261.18,-55 1307.18,-55 1307.18,-74"/>
<text text-anchor="middle" x="1284.18" y="-62" font-family="Helvetica,sans-Serif" font-size="10.00">stdio.h</text>
</a>
</g>
</g>
<!-- Node11&#45;&gt;Node16 -->
<g id="edge22_Node000011_Node000016" class="edge">
<title>Node11&#45;&gt;Node16</title>
<g id="a_edge22_Node000011_Node000016"><a xlink:title=" ">
<path fill="none" stroke="#63b8ff" d="M1162.48,-109.98C1186.58,-101.18 1224.41,-87.35 1251.49,-77.45"/>
<polygon fill="#63b8ff" stroke="#63b8ff" points="1252.75,-80.71 1260.94,-73.99 1250.35,-74.14 1252.75,-80.71"/>
</a>
</g>
</g>
<!-- Node17 -->
<g id="Node000017" class="node">
<title>Node17</title>
<g id="a_Node000017"><a xlink:title=" ">
<polygon fill="#e0e0e0" stroke="#999999" points="942.68,-74 869.68,-74 869.68,-55 942.68,-55 942.68,-74"/>
<text text-anchor="middle" x="906.18" y="-62" font-family="Helvetica,sans-Serif" font-size="10.00">sys/socket.h</text>
</a>
</g>
</g>
<!-- Node11&#45;&gt;Node17 -->
<g id="edge23_Node000011_Node000017" class="edge">
<title>Node11&#45;&gt;Node17</title>
<g id="a_edge23_Node000011_Node000017"><a xlink:title=" ">
<path fill="none" stroke="#63b8ff" d="M1101.75,-109.98C1061.17,-100.75 996.36,-86.01 952.58,-76.05"/>
<polygon fill="#63b8ff" stroke="#63b8ff" points="953.28,-72.62 942.76,-73.82 951.73,-79.45 953.28,-72.62"/>
</a>
</g>
</g>
<!-- Node18 -->
<g id="Node000018" class="node">
<title>Node18</title>
<g id="a_Node000018"><a xlink:title=" ">
<polygon fill="#e0e0e0" stroke="#999999" points="1381.18,-74 1325.18,-74 1325.18,-55 1381.18,-55 1381.18,-74"/>
<text text-anchor="middle" x="1353.18" y="-62" font-family="Helvetica,sans-Serif" font-size="10.00">sys/uio.h</text>
</a>
</g>
</g>
<!-- Node11&#45;&gt;Node18 -->
<g id="edge24_Node000011_Node000018" class="edge">
<title>Node11&#45;&gt;Node18</title>
<g id="a_edge24_Node000011_Node000018"><a xlink:title=" ">
<path fill="none" stroke="#63b8ff" d="M1173.56,-109.98C1212.26,-100.4 1274.94,-84.88 1315.09,-74.93"/>
<polygon fill="#63b8ff" stroke="#63b8ff" points="1316.17,-78.27 1325.03,-72.47 1314.48,-71.48 1316.17,-78.27"/>
</a>
</g>
</g>
<!-- Node19 -->
<g id="Node000019" class="node">
<title>Node19</title>
<g id="a_Node000019"><a xlink:title=" ">
<polygon fill="#e0e0e0" stroke="#999999" points="1450.68,-74 1399.68,-74 1399.68,-55 1450.68,-55 1450.68,-74"/>
<text text-anchor="middle" x="1425.18" y="-62" font-family="Helvetica,sans-Serif" font-size="10.00">unistd.h</text>
</a>
</g>
</g>
<!-- Node11&#45;&gt;Node19 -->
<g id="edge25_Node000011_Node000019" class="edge">
<title>Node11&#45;&gt;Node19</title>
<g id="a_edge25_Node000011_Node000019"><a xlink:title=" ">
<path fill="none" stroke="#63b8ff" d="M1192.25,-110.08C1240.99,-102.13 1315.44,-89.42 1389.62,-74"/>
<polygon fill="#63b8ff" stroke="#63b8ff" points="1390.54,-77.38 1399.61,-71.91 1389.1,-70.53 1390.54,-77.38"/>
</a>
</g>
</g>
<!-- Node20&#45;&gt;Node2 -->
<g id="edge29_Node000020_Node000002" class="edge">
<title>Node20&#45;&gt;Node2</title>
<g id="a_edge29_Node000020_Node000002"><a xlink:title=" ">
<path fill="none" stroke="#63b8ff" d="M553.97,-109.98C542.41,-101.92 524.81,-89.65 511.02,-80.03"/>
<polygon fill="#63b8ff" stroke="#63b8ff" points="512.82,-77.02 502.61,-74.17 508.81,-82.76 512.82,-77.02"/>
</a>
</g>
</g>
<!-- Node20&#45;&gt;Node4 -->
<g id="edge27_Node000020_Node000004" class="edge">
<title>Node20&#45;&gt;Node4</title>
<g id="a_edge27_Node000020_Node000004"><a xlink:title=" ">
<path fill="none" stroke="#63b8ff" d="M522.48,-109.98C473.45,-100.43 394.11,-84.97 343.06,-75.02"/>
<polygon fill="#63b8ff" stroke="#63b8ff" points="343.41,-71.53 332.93,-73.05 342.07,-78.4 343.41,-71.53"/>
</a>
</g>
</g>
<!-- Node20&#45;&gt;Node17 -->
<g id="edge30_Node000020_Node000017" class="edge">
<title>Node20&#45;&gt;Node17</title>
<g id="a_edge30_Node000020_Node000017"><a xlink:title=" ">
<path fill="none" stroke="#63b8ff" d="M614.53,-110.96C679.66,-100.81 794.8,-82.86 859.21,-72.82"/>
<polygon fill="#63b8ff" stroke="#63b8ff" points="860.14,-76.22 869.48,-71.22 859.06,-69.3 860.14,-76.22"/>
</a>
</g>
</g>
<!-- Node21 -->
<g id="Node000021" class="node">
<title>Node21</title>
<g id="a_Node000021"><a xlink:title=" ">
<polygon fill="#e0e0e0" stroke="#999999" points="628.68,-74 579.68,-74 579.68,-55 628.68,-55 628.68,-74"/>
<text text-anchor="middle" x="604.18" y="-62" font-family="Helvetica,sans-Serif" font-size="10.00">netdb.h</text>
</a>
</g>
</g>
<!-- Node20&#45;&gt;Node21 -->
<g id="edge28_Node000020_Node000021" class="edge">
<title>Node20&#45;&gt;Node21</title>
<g id="a_edge28_Node000020_Node000021"><a xlink:title=" ">
<path fill="none" stroke="#63b8ff" d="M572.46,-109.75C577.77,-102.34 585.54,-91.5 592.06,-82.41"/>
<polygon fill="#63b8ff" stroke="#63b8ff" points="595.04,-84.26 598.02,-74.09 589.35,-80.18 595.04,-84.26"/>
</a>
</g>
</g>
<!-- Node22&#45;&gt;Node4 -->
<g id="edge42_Node000022_Node000004" class="edge">
<title>Node22&#45;&gt;Node4</title>
<g id="a_edge42_Node000022_Node000004"><a xlink:title=" ">
<path fill="none" stroke="#63b8ff" d="M709.55,-164.96C655.81,-157.23 577,-144.67 509.18,-129 444.76,-114.11 371.16,-91.02 328.93,-77.17"/>
<polygon fill="#63b8ff" stroke="#63b8ff" points="330,-73.83 319.4,-74.03 327.8,-80.48 330,-73.83"/>
</a>
</g>
</g>
<!-- Node22&#45;&gt;Node7 -->
<g id="edge39_Node000022_Node000007" class="edge">
<title>Node22&#45;&gt;Node7</title>
<g id="a_edge39_Node000022_Node000007"><a xlink:title=" ">
<path fill="none" stroke="#63b8ff" d="M708.84,-168.7C626.62,-162.15 479.71,-149.06 344.53,-129.07"/>
<polygon fill="#63b8ff" stroke="#63b8ff" points="344.81,-125.58 334.4,-127.56 343.77,-132.5 344.81,-125.58"/>
</a>
</g>
</g>
<!-- Node22&#45;&gt;Node9 -->
<g id="edge41_Node000022_Node000009" class="edge">
<title>Node22&#45;&gt;Node9</title>
<g id="a_edge41_Node000022_Node000009"><a xlink:title=" ">
<path fill="none" stroke="#63b8ff" d="M709.17,-165.7C641.68,-157.31 532.3,-143.25 438.18,-129 436.91,-128.81 435.62,-128.61 434.31,-128.41"/>
<polygon fill="#63b8ff" stroke="#63b8ff" points="434.63,-124.91 424.21,-126.78 433.53,-131.82 434.63,-124.91"/>
</a>
</g>
</g>
<!-- Node22&#45;&gt;Node11 -->
<g id="edge43_Node000022_Node000011" class="edge">
<title>Node22&#45;&gt;Node11</title>
<g id="a_edge43_Node000022_Node000011"><a xlink:title=" ">
<path fill="none" stroke="#63b8ff" d="M831.99,-164.98C898.78,-155.31 1007.36,-139.59 1075.94,-129.66"/>
<polygon fill="#63b8ff" stroke="#63b8ff" points="1076.78,-133.07 1086.17,-128.18 1075.77,-126.15 1076.78,-133.07"/>
</a>
</g>
</g>
<!-- Node22&#45;&gt;Node13 -->
<g id="edge34_Node000022_Node000013" class="edge">
<title>Node22&#45;&gt;Node13</title>
<g id="a_edge34_Node000022_Node000013"><a xlink:title=" ">
<path fill="none" stroke="#63b8ff" d="M837.36,-170.22C884.13,-165.64 947.85,-154.77 998.18,-129 1020.54,-117.55 1040.82,-96.59 1053.3,-81.89"/>
<polygon fill="#63b8ff" stroke="#63b8ff" points="1056.07,-84.03 1059.71,-74.08 1050.66,-79.59 1056.07,-84.03"/>
</a>
</g>
</g>
<!-- Node22&#45;&gt;Node14 -->
<g id="edge36_Node000022_Node000014" class="edge">
<title>Node22&#45;&gt;Node14</title>
<g id="a_edge36_Node000022_Node000014"><a xlink:title=" ">
<path fill="none" stroke="#63b8ff" d="M837.28,-167.21C890.09,-160.71 959.41,-148.69 979.18,-129 990.8,-117.43 993.74,-98.56 994.11,-84.39"/>
<polygon fill="#63b8ff" stroke="#63b8ff" points="997.61,-84.22 993.97,-74.27 990.61,-84.31 997.61,-84.22"/>
</a>
</g>
</g>
<!-- Node22&#45;&gt;Node17 -->
<g id="edge37_Node000022_Node000017" class="edge">
<title>Node22&#45;&gt;Node17</title>
<g id="a_edge37_Node000022_Node000017"><a xlink:title=" ">
<path fill="none" stroke="#63b8ff" d="M837.29,-166.98C886.12,-160.53 947.55,-148.71 963.18,-129 977.44,-111.02 953.58,-91.56 932.51,-78.98"/>
<polygon fill="#63b8ff" stroke="#63b8ff" points="934.2,-75.91 923.77,-74.04 930.75,-82.01 934.2,-75.91"/>
</a>
</g>
</g>
<!-- Node22&#45;&gt;Node21 -->
<g id="edge35_Node000022_Node000021" class="edge">
<title>Node22&#45;&gt;Node21</title>
<g id="a_edge35_Node000022_Node000021"><a xlink:title=" ">
<path fill="none" stroke="#63b8ff" d="M740.83,-164.99C717.35,-157.82 685.55,-145.99 661.18,-129 642.84,-116.21 626.31,-96.43 615.83,-82.35"/>
<polygon fill="#63b8ff" stroke="#63b8ff" points="618.54,-80.12 609.86,-74.04 612.86,-84.21 618.54,-80.12"/>
</a>
</g>
</g>
<!-- Node23 -->
<g id="Node000023" class="node">
<title>Node23</title>
<g id="a_Node000023"><a xlink:title=" ">
<polygon fill="#e0e0e0" stroke="#999999" points="726.18,-129 670.18,-129 670.18,-110 726.18,-110 726.18,-129"/>
<text text-anchor="middle" x="698.18" y="-117" font-family="Helvetica,sans-Serif" font-size="10.00">stdbool.h</text>
</a>
</g>
</g>
<!-- Node22&#45;&gt;Node23 -->
<g id="edge32_Node000022_Node000023" class="edge">
<title>Node22&#45;&gt;Node23</title>
<g id="a_edge32_Node000022_Node000023"><a xlink:title=" ">
<path fill="none" stroke="#63b8ff" d="M761.13,-164.98C749.72,-156.92 732.35,-144.65 718.75,-135.03"/>
<polygon fill="#63b8ff" stroke="#63b8ff" points="720.64,-132.08 710.45,-129.17 716.6,-137.8 720.64,-132.08"/>
</a>
</g>
</g>
<!-- Node24 -->
<g id="Node000024" class="node">
<title>Node24</title>
<g id="a_Node000024"><a xlink:title=" ">
<polygon fill="#e0e0e0" stroke="#999999" points="801.68,-129 744.68,-129 744.68,-110 801.68,-110 801.68,-129"/>
<text text-anchor="middle" x="773.18" y="-117" font-family="Helvetica,sans-Serif" font-size="10.00">pthread.h</text>
</a>
</g>
</g>
<!-- Node22&#45;&gt;Node24 -->
<g id="edge33_Node000022_Node000024" class="edge">
<title>Node22&#45;&gt;Node24</title>
<g id="a_edge33_Node000022_Node000024"><a xlink:title=" ">
<path fill="none" stroke="#63b8ff" d="M773.18,-164.75C773.18,-157.8 773.18,-147.85 773.18,-139.13"/>
<polygon fill="#63b8ff" stroke="#63b8ff" points="776.68,-139.09 773.18,-129.09 769.68,-139.09 776.68,-139.09"/>
</a>
</g>
</g>
<!-- Node25 -->
<g id="Node000025" class="node">
<title>Node25</title>
<g id="a_Node000025"><a xlink:title=" ">
<polygon fill="#e0e0e0" stroke="#999999" points="882.18,-129 820.18,-129 820.18,-110 882.18,-110 882.18,-129"/>
<text text-anchor="middle" x="851.18" y="-117" font-family="Helvetica,sans-Serif" font-size="10.00">sys/time.h</text>
</a>
</g>
</g>
<!-- Node22&#45;&gt;Node25 -->
<g id="edge38_Node000022_Node000025" class="edge">
<title>Node22&#45;&gt;Node25</title>
<g id="a_edge38_Node000022_Node000025"><a xlink:title=" ">
<path fill="none" stroke="#63b8ff" d="M785.71,-164.98C797.58,-156.92 815.65,-144.65 829.79,-135.03"/>
<polygon fill="#63b8ff" stroke="#63b8ff" points="832.12,-137.69 838.42,-129.17 828.18,-131.9 832.12,-137.69"/>
</a>
</g>
</g>
<!-- Node26 -->
<g id="Node000026" class="node">
<title>Node26</title>
<g id="a_Node000026"><a xlink:title=" ">
<polygon fill="#e0e0e0" stroke="#999999" points="954.18,-129 900.18,-129 900.18,-110 954.18,-110 954.18,-129"/>
<text text-anchor="middle" x="927.18" y="-117" font-family="Helvetica,sans-Serif" font-size="10.00">sys/un.h</text>
</a>
</g>
</g>
<!-- Node22&#45;&gt;Node26 -->
<g id="edge40_Node000022_Node000026" class="edge">
<title>Node22&#45;&gt;Node26</title>
<g id="a_edge40_Node000022_Node000026"><a xlink:title=" ">
<path fill="none" stroke="#63b8ff" d="M797.92,-164.98C823.55,-156.16 863.81,-142.31 892.59,-132.41"/>
<polygon fill="#63b8ff" stroke="#63b8ff" points="893.93,-135.65 902.24,-129.08 891.65,-129.03 893.93,-135.65"/>
</a>
</g>
</g>
</g>
</svg>
