<?xml version="1.0" encoding="UTF-8" standalone="no"?>
<!DOCTYPE svg PUBLIC "-//W3C//DTD SVG 1.1//EN"
 "http://www.w3.org/Graphics/SVG/1.1/DTD/svg11.dtd">
<!-- Generated by graphviz version 2.43.0 (0)
 -->
<!-- Title: SocketDTLS.h Pages: 1 -->
<!--zoomable 302 -->

<svg id="main" version="1.1" xmlns="http://www.w3.org/2000/svg" xmlns:xlink="http://www.w3.org/1999/xlink" xml:space="preserve" onload="init(evt)">
<style type="text/css"><![CDATA[
.node, .edge {opacity: 0.7;}
.node.selected, .edge.selected {opacity: 1;}
.edge:hover path { stroke: red; }
.edge:hover polygon { stroke: red; fill: red; }
]]></style>

<defs>
  <circle id="rim" cx="0" cy="0" r="7"/>
  <circle id="rim2" cx="0" cy="0" r="3.5"/>
  <g id="zoomPlus">
    <use xlink:href="#rim" fill="#404040"><set attributeName="fill" to="#808080" begin="zoomplus.mouseover" end="zoomplus.mouseout"/></use>
    <path d="M-4,0h8M0,-4v8" fill="none" stroke="white" stroke-width="1.5" pointer-events="none"/>
  </g>
  <g id="zoomMin">
    <use xlink:href="#rim" fill="#404040"><set attributeName="fill" to="#808080" begin="zoomminus.mouseover" end="zoomminus.mouseout"/></use>
    <path d="M-4,0h8" fill="none" stroke="white" stroke-width="1.5" pointer-events="none"/>
  </g>
  <g id="arrowUp" transform="translate(30 24)">
    <use xlink:href="#rim"/>
    <path pointer-events="none" fill="none" stroke="white" stroke-width="1.5" d="M0,-3.0v7 M-2.5,-0.5L0,-3.0L2.5,-0.5"/>
  </g>
  <g id="arrowRight" transform="rotate(90) translate(36 -43)">
    <use xlink:href="#rim"/>
    <path pointer-events="none" fill="none" stroke="white" stroke-width="1.5" d="M0,-3.0v7 M-2.5,-0.5L0,-3.0L2.5,-0.5"/>
  </g>
  <g id="arrowDown" transform="rotate(180) translate(-30 -48)">
    <use xlink:href="#rim"/>
    <path pointer-events="none" fill="none" stroke="white" stroke-width="1.5" d="M0,-3.0v7 M-2.5,-0.5L0,-3.0L2.5,-0.5"/>
  </g>
  <g id="arrowLeft" transform="rotate(270) translate(-36 17)">
    <use xlink:href="#rim"/>
    <path pointer-events="none" fill="none" stroke="white" stroke-width="1.5" d="M0,-3.0v7 M-2.5,-0.5L0,-3.0L2.5,-0.5"/>
  </g>
  <g id="resetDef">
    <use xlink:href="#rim2" fill="#404040"><set attributeName="fill" to="#808080" begin="reset.mouseover" end="reset.mouseout"/></use>
  </g>
</defs>
<script type="application/ecmascript">
var viewWidth = 1077;
var viewHeight = 302;
var sectionId = 'dynsection-0';
</script>
<script type="application/ecmascript" xlink:href="svg.min.js"/>
<svg id="graph" class="graph">
<g id="viewport">
<title>SocketDTLS.h</title>
<!-- Node1 -->
<g id="Node000001" class="node">
<title>Node1</title>
<g id="a_Node000001"><a xlink:title=" ">
<polygon fill="#999999" stroke="#666666" points="1069,-294 988,-294 988,-275 1069,-275 1069,-294"/>
<text text-anchor="middle" x="1028.5" y="-282" font-family="Helvetica,sans-Serif" font-size="10.00">SocketDTLS.h</text>
</a>
</g>
</g>
<!-- Node2 -->
<g id="Node000002" class="node">
<title>Node2</title>
<g id="a_Node000002"><a xlink:href="Except_8h.html" target="_top" xlink:title=" ">
<polygon fill="white" stroke="#666666" points="933,-74 856,-74 856,-55 933,-55 933,-74"/>
<text text-anchor="middle" x="894.5" y="-62" font-family="Helvetica,sans-Serif" font-size="10.00">core/Except.h</text>
</a>
</g>
</g>
<!-- Node1&#45;&gt;Node2 -->
<g id="edge1_Node000001_Node000002" class="edge">
<title>Node1&#45;&gt;Node2</title>
<g id="a_edge1_Node000001_Node000002"><a xlink:title=" ">
<path fill="none" stroke="#63b8ff" d="M1035.13,-274.88C1041.26,-266.32 1049.96,-252.54 1053.5,-239 1064.86,-195.6 1060.72,-145.51 1028.5,-110 1006.77,-86.05 971.84,-74.96 943.09,-69.85"/>
<polygon fill="#63b8ff" stroke="#63b8ff" points="943.64,-66.39 933.22,-68.27 942.54,-73.3 943.64,-66.39"/>
</a>
</g>
</g>
<!-- Node4 -->
<g id="Node000004" class="node">
<title>Node4</title>
<g id="a_Node000004"><a xlink:href="SocketDgram_8h.html" target="_top" xlink:title=" ">
<polygon fill="white" stroke="#666666" points="1044,-239 927,-239 927,-220 1044,-220 1044,-239"/>
<text text-anchor="middle" x="985.5" y="-227" font-family="Helvetica,sans-Serif" font-size="10.00">socket/SocketDgram.h</text>
</a>
</g>
</g>
<!-- Node1&#45;&gt;Node4 -->
<g id="edge3_Node000001_Node000004" class="edge">
<title>Node1&#45;&gt;Node4</title>
<g id="a_edge3_Node000001_Node000004"><a xlink:title=" ">
<path fill="none" stroke="#63b8ff" d="M1021.4,-274.75C1015.33,-267.26 1006.41,-256.28 998.99,-247.13"/>
<polygon fill="#63b8ff" stroke="#63b8ff" points="1001.49,-244.65 992.47,-239.09 996.05,-249.06 1001.49,-244.65"/>
</a>
</g>
</g>
<!-- Node3 -->
<g id="Node000003" class="node">
<title>Node3</title>
<g id="a_Node000003"><a xlink:title=" ">
<polygon fill="#e0e0e0" stroke="#999999" points="921.5,-19 867.5,-19 867.5,0 921.5,0 921.5,-19"/>
<text text-anchor="middle" x="894.5" y="-7" font-family="Helvetica,sans-Serif" font-size="10.00">setjmp.h</text>
</a>
</g>
</g>
<!-- Node2&#45;&gt;Node3 -->
<g id="edge2_Node000002_Node000003" class="edge">
<title>Node2&#45;&gt;Node3</title>
<g id="a_edge2_Node000002_Node000003"><a xlink:title=" ">
<path fill="none" stroke="#63b8ff" d="M894.5,-54.75C894.5,-47.8 894.5,-37.85 894.5,-29.13"/>
<polygon fill="#63b8ff" stroke="#63b8ff" points="898,-29.09 894.5,-19.09 891,-29.09 898,-29.09"/>
</a>
</g>
</g>
<!-- Node4&#45;&gt;Node2 -->
<g id="edge4_Node000004_Node000002" class="edge">
<title>Node4&#45;&gt;Node2</title>
<g id="a_edge4_Node000004_Node000002"><a xlink:title=" ">
<path fill="none" stroke="#63b8ff" d="M992.13,-219.88C998.26,-211.32 1006.96,-197.54 1010.5,-184 1018.83,-152.18 1029.13,-137.1 1010.5,-110 995.36,-87.97 967.69,-76.84 943.18,-71.22"/>
<polygon fill="#63b8ff" stroke="#63b8ff" points="943.76,-67.77 933.26,-69.2 942.36,-74.63 943.76,-67.77"/>
</a>
</g>
</g>
<!-- Node5 -->
<g id="Node000005" class="node">
<title>Node5</title>
<g id="a_Node000005"><a xlink:title=" ">
<polygon fill="#e0e0e0" stroke="#999999" points="697.5,-74 645.5,-74 645.5,-55 697.5,-55 697.5,-74"/>
<text text-anchor="middle" x="671.5" y="-62" font-family="Helvetica,sans-Serif" font-size="10.00">stddef.h</text>
</a>
</g>
</g>
<!-- Node4&#45;&gt;Node5 -->
<g id="edge5_Node000004_Node000005" class="edge">
<title>Node4&#45;&gt;Node5</title>
<g id="a_edge5_Node000004_Node000005"><a xlink:title=" ">
<path fill="none" stroke="#63b8ff" d="M988.09,-219.96C994.07,-198.35 1006.22,-141.02 977.5,-110 959.39,-90.44 785.12,-74.44 707.96,-68.25"/>
<polygon fill="#63b8ff" stroke="#63b8ff" points="707.98,-64.74 697.74,-67.45 707.43,-71.72 707.98,-64.74"/>
</a>
</g>
</g>
<!-- Node6 -->
<g id="Node000006" class="node">
<title>Node6</title>
<g id="a_Node000006"><a xlink:title=" ">
<polygon fill="#e0e0e0" stroke="#999999" points="73,-74 0,-74 0,-55 73,-55 73,-74"/>
<text text-anchor="middle" x="36.5" y="-62" font-family="Helvetica,sans-Serif" font-size="10.00">sys/socket.h</text>
</a>
</g>
</g>
<!-- Node4&#45;&gt;Node6 -->
<g id="edge6_Node000004_Node000006" class="edge">
<title>Node4&#45;&gt;Node6</title>
<g id="a_edge6_Node000004_Node000006"><a xlink:title=" ">
<path fill="none" stroke="#63b8ff" d="M926.75,-225.31C758.88,-215.61 279.87,-183.75 133.5,-129 103.23,-117.68 72.77,-95.58 54.27,-80.67"/>
<polygon fill="#63b8ff" stroke="#63b8ff" points="56.37,-77.87 46.43,-74.2 51.91,-83.27 56.37,-77.87"/>
</a>
</g>
</g>
<!-- Node7 -->
<g id="Node000007" class="node">
<title>Node7</title>
<g id="a_Node000007"><a xlink:href="SocketCommon_8h.html" target="_top" xlink:title=" ">
<polygon fill="white" stroke="#666666" points="671.5,-184 543.5,-184 543.5,-165 671.5,-165 671.5,-184"/>
<text text-anchor="middle" x="607.5" y="-172" font-family="Helvetica,sans-Serif" font-size="10.00">socket/SocketCommon.h</text>
</a>
</g>
</g>
<!-- Node4&#45;&gt;Node7 -->
<g id="edge7_Node000004_Node000007" class="edge">
<title>Node4&#45;&gt;Node7</title>
<g id="a_edge7_Node000004_Node000007"><a xlink:title=" ">
<path fill="none" stroke="#63b8ff" d="M926.85,-220.28C859.85,-210.88 750.23,-195.51 678.47,-185.45"/>
<polygon fill="#63b8ff" stroke="#63b8ff" points="678.55,-181.93 668.16,-184.01 677.58,-188.86 678.55,-181.93"/>
</a>
</g>
</g>
<!-- Node7&#45;&gt;Node2 -->
<g id="edge20_Node000007_Node000002" class="edge">
<title>Node7&#45;&gt;Node2</title>
<g id="a_edge20_Node000007_Node000002"><a xlink:title=" ">
<path fill="none" stroke="#63b8ff" d="M629.81,-164.89C651.97,-156.22 686.83,-142.27 716.5,-129 734.1,-121.13 737.61,-117.18 755.5,-110 787.86,-97.02 825.59,-85.13 853.57,-76.92"/>
<polygon fill="#63b8ff" stroke="#63b8ff" points="854.78,-80.21 863.41,-74.06 852.83,-73.49 854.78,-80.21"/>
</a>
</g>
</g>
<!-- Node7&#45;&gt;Node6 -->
<g id="edge13_Node000007_Node000006" class="edge">
<title>Node7&#45;&gt;Node6</title>
<g id="a_edge13_Node000007_Node000006"><a xlink:title=" ">
<path fill="none" stroke="#63b8ff" d="M543.23,-172.02C461.18,-168.9 315.37,-159.19 194.5,-129 146.36,-116.98 93.43,-93.43 62.68,-78.63"/>
<polygon fill="#63b8ff" stroke="#63b8ff" points="64.04,-75.39 53.51,-74.16 60.97,-81.69 64.04,-75.39"/>
</a>
</g>
</g>
<!-- Node8 -->
<g id="Node000008" class="node">
<title>Node8</title>
<g id="a_Node000008"><a xlink:title=" ">
<polygon fill="#e0e0e0" stroke="#999999" points="579.5,-129 523.5,-129 523.5,-110 579.5,-110 579.5,-129"/>
<text text-anchor="middle" x="551.5" y="-117" font-family="Helvetica,sans-Serif" font-size="10.00">stdbool.h</text>
</a>
</g>
</g>
<!-- Node7&#45;&gt;Node8 -->
<g id="edge8_Node000007_Node000008" class="edge">
<title>Node7&#45;&gt;Node8</title>
<g id="a_edge8_Node000007_Node000008"><a xlink:title=" ">
<path fill="none" stroke="#63b8ff" d="M598.5,-164.98C590.31,-157.23 577.99,-145.58 568.03,-136.14"/>
<polygon fill="#63b8ff" stroke="#63b8ff" points="570.33,-133.5 560.66,-129.17 565.52,-138.59 570.33,-133.5"/>
</a>
</g>
</g>
<!-- Node9 -->
<g id="Node000009" class="node">
<title>Node9</title>
<g id="a_Node000009"><a xlink:title=" ">
<polygon fill="#e0e0e0" stroke="#999999" points="821,-129 764,-129 764,-110 821,-110 821,-129"/>
<text text-anchor="middle" x="792.5" y="-117" font-family="Helvetica,sans-Serif" font-size="10.00">pthread.h</text>
</a>
</g>
</g>
<!-- Node7&#45;&gt;Node9 -->
<g id="edge9_Node000007_Node000009" class="edge">
<title>Node7&#45;&gt;Node9</title>
<g id="a_edge9_Node000007_Node000009"><a xlink:title=" ">
<path fill="none" stroke="#63b8ff" d="M637.22,-164.98C668.92,-155.9 719.25,-141.49 753.97,-131.54"/>
<polygon fill="#63b8ff" stroke="#63b8ff" points="755.11,-134.85 763.76,-128.73 753.19,-128.12 755.11,-134.85"/>
</a>
</g>
</g>
<!-- Node10 -->
<g id="Node000010" class="node">
<title>Node10</title>
<g id="a_Node000010"><a xlink:title=" ">
<polygon fill="#e0e0e0" stroke="#999999" points="497.5,-74 453.5,-74 453.5,-55 497.5,-55 497.5,-74"/>
<text text-anchor="middle" x="475.5" y="-62" font-family="Helvetica,sans-Serif" font-size="10.00">fcntl.h</text>
</a>
</g>
</g>
<!-- Node7&#45;&gt;Node10 -->
<g id="edge10_Node000007_Node000010" class="edge">
<title>Node7&#45;&gt;Node10</title>
<g id="a_edge10_Node000007_Node000010"><a xlink:title=" ">
<path fill="none" stroke="#63b8ff" d="M543.49,-171.22C477.15,-167.35 379.92,-156.94 356.5,-129 351.08,-122.53 351.69,-116.94 356.5,-110 361.71,-102.49 410.11,-86.03 443.56,-75.37"/>
<polygon fill="#63b8ff" stroke="#63b8ff" points="444.91,-78.62 453.39,-72.27 442.8,-71.94 444.91,-78.62"/>
</a>
</g>
</g>
<!-- Node11 -->
<g id="Node000011" class="node">
<title>Node11</title>
<g id="a_Node000011"><a xlink:title=" ">
<polygon fill="#e0e0e0" stroke="#999999" points="888,-129 839,-129 839,-110 888,-110 888,-129"/>
<text text-anchor="middle" x="863.5" y="-117" font-family="Helvetica,sans-Serif" font-size="10.00">netdb.h</text>
</a>
</g>
</g>
<!-- Node7&#45;&gt;Node11 -->
<g id="edge11_Node000007_Node000011" class="edge">
<title>Node7&#45;&gt;Node11</title>
<g id="a_edge11_Node000007_Node000011"><a xlink:title=" ">
<path fill="none" stroke="#63b8ff" d="M654.21,-164.95C697.24,-156.91 763.06,-144.16 828.58,-129.35"/>
<polygon fill="#63b8ff" stroke="#63b8ff" points="829.7,-132.69 838.67,-127.05 828.14,-125.86 829.7,-132.69"/>
</a>
</g>
</g>
<!-- Node12 -->
<g id="Node000012" class="node">
<title>Node12</title>
<g id="a_Node000012"><a xlink:title=" ">
<polygon fill="#e0e0e0" stroke="#999999" points="612,-74 547,-74 547,-55 612,-55 612,-74"/>
<text text-anchor="middle" x="579.5" y="-62" font-family="Helvetica,sans-Serif" font-size="10.00">netinet/in.h</text>
</a>
</g>
</g>
<!-- Node7&#45;&gt;Node12 -->
<g id="edge12_Node000007_Node000012" class="edge">
<title>Node7&#45;&gt;Node12</title>
<g id="a_edge12_Node000007_Node000012"><a xlink:title=" ">
<path fill="none" stroke="#63b8ff" d="M605.21,-164.66C600.65,-147.09 590.38,-107.45 584.28,-83.95"/>
<polygon fill="#63b8ff" stroke="#63b8ff" points="587.64,-82.96 581.74,-74.16 580.87,-84.72 587.64,-82.96"/>
</a>
</g>
</g>
<!-- Node13 -->
<g id="Node000013" class="node">
<title>Node13</title>
<g id="a_Node000013"><a xlink:title=" ">
<polygon fill="#e0e0e0" stroke="#999999" points="968.5,-129 906.5,-129 906.5,-110 968.5,-110 968.5,-129"/>
<text text-anchor="middle" x="937.5" y="-117" font-family="Helvetica,sans-Serif" font-size="10.00">sys/time.h</text>
</a>
</g>
</g>
<!-- Node7&#45;&gt;Node13 -->
<g id="edge14_Node000007_Node000013" class="edge">
<title>Node7&#45;&gt;Node13</title>
<g id="a_edge14_Node000007_Node000013"><a xlink:title=" ">
<path fill="none" stroke="#63b8ff" d="M669.9,-164.98C726.5,-157 812.48,-144.3 896.16,-129.16"/>
<polygon fill="#63b8ff" stroke="#63b8ff" points="896.88,-132.59 906.09,-127.35 895.63,-125.7 896.88,-132.59"/>
</a>
</g>
</g>
<!-- Node14 -->
<g id="Node000014" class="node">
<title>Node14</title>
<g id="a_Node000014"><a xlink:title=" ">
<polygon fill="#e0e0e0" stroke="#999999" points="433.5,-129 365.5,-129 365.5,-110 433.5,-110 433.5,-129"/>
<text text-anchor="middle" x="399.5" y="-117" font-family="Helvetica,sans-Serif" font-size="10.00">sys/types.h</text>
</a>
</g>
</g>
<!-- Node7&#45;&gt;Node14 -->
<g id="edge15_Node000007_Node000014" class="edge">
<title>Node7&#45;&gt;Node14</title>
<g id="a_edge15_Node000007_Node000014"><a xlink:title=" ">
<path fill="none" stroke="#63b8ff" d="M574.08,-164.98C538.56,-155.93 482.23,-141.58 443.2,-131.64"/>
<polygon fill="#63b8ff" stroke="#63b8ff" points="443.74,-128.16 433.18,-129.08 442.01,-134.94 443.74,-128.16"/>
</a>
</g>
</g>
<!-- Node15 -->
<g id="Node000015" class="node">
<title>Node15</title>
<g id="a_Node000015"><a xlink:title=" ">
<polygon fill="#e0e0e0" stroke="#999999" points="505.5,-129 451.5,-129 451.5,-110 505.5,-110 505.5,-129"/>
<text text-anchor="middle" x="478.5" y="-117" font-family="Helvetica,sans-Serif" font-size="10.00">sys/un.h</text>
</a>
</g>
</g>
<!-- Node7&#45;&gt;Node15 -->
<g id="edge16_Node000007_Node000015" class="edge">
<title>Node7&#45;&gt;Node15</title>
<g id="a_edge16_Node000007_Node000015"><a xlink:title=" ">
<path fill="none" stroke="#63b8ff" d="M586.77,-164.98C565.74,-156.34 532.95,-142.87 508.96,-133.02"/>
<polygon fill="#63b8ff" stroke="#63b8ff" points="510.18,-129.73 499.6,-129.17 507.52,-136.21 510.18,-129.73"/>
</a>
</g>
</g>
<!-- Node16 -->
<g id="Node000016" class="node">
<title>Node16</title>
<g id="a_Node000016"><a xlink:href="Arena_8h.html" target="_top" xlink:title=" ">
<polygon fill="white" stroke="#666666" points="707.5,-129 635.5,-129 635.5,-110 707.5,-110 707.5,-129"/>
<text text-anchor="middle" x="671.5" y="-117" font-family="Helvetica,sans-Serif" font-size="10.00">core/Arena.h</text>
</a>
</g>
</g>
<!-- Node7&#45;&gt;Node16 -->
<g id="edge17_Node000007_Node000016" class="edge">
<title>Node7&#45;&gt;Node16</title>
<g id="a_edge17_Node000007_Node000016"><a xlink:title=" ">
<path fill="none" stroke="#63b8ff" d="M617.78,-164.98C627.34,-157.07 641.78,-145.11 653.28,-135.58"/>
<polygon fill="#63b8ff" stroke="#63b8ff" points="655.56,-138.24 661.03,-129.17 651.1,-132.85 655.56,-138.24"/>
</a>
</g>
</g>
<!-- Node17 -->
<g id="Node000017" class="node">
<title>Node17</title>
<g id="a_Node000017"><a xlink:href="SocketConfig_8h.html" target="_top" xlink:title=" ">
<polygon fill="white" stroke="#666666" points="309.5,-129 203.5,-129 203.5,-110 309.5,-110 309.5,-129"/>
<text text-anchor="middle" x="256.5" y="-117" font-family="Helvetica,sans-Serif" font-size="10.00">core/SocketConfig.h</text>
</a>
</g>
</g>
<!-- Node7&#45;&gt;Node17 -->
<g id="edge21_Node000007_Node000017" class="edge">
<title>Node7&#45;&gt;Node17</title>
<g id="a_edge21_Node000007_Node000017"><a xlink:title=" ">
<path fill="none" stroke="#63b8ff" d="M551.11,-164.98C487.92,-155.44 385.73,-140.01 319.84,-130.06"/>
<polygon fill="#63b8ff" stroke="#63b8ff" points="320,-126.55 309.59,-128.52 318.96,-133.47 320,-126.55"/>
</a>
</g>
</g>
<!-- Node16&#45;&gt;Node2 -->
<g id="edge19_Node000016_Node000002" class="edge">
<title>Node16&#45;&gt;Node2</title>
<g id="a_edge19_Node000016_Node000002"><a xlink:title=" ">
<path fill="none" stroke="#63b8ff" d="M707.33,-109.98C745.66,-100.87 806.58,-86.4 848.45,-76.45"/>
<polygon fill="#63b8ff" stroke="#63b8ff" points="849.47,-79.8 858.39,-74.08 847.85,-72.99 849.47,-79.8"/>
</a>
</g>
</g>
<!-- Node16&#45;&gt;Node5 -->
<g id="edge18_Node000016_Node000005" class="edge">
<title>Node16&#45;&gt;Node5</title>
<g id="a_edge18_Node000016_Node000005"><a xlink:title=" ">
<path fill="none" stroke="#63b8ff" d="M671.5,-109.75C671.5,-102.8 671.5,-92.85 671.5,-84.13"/>
<polygon fill="#63b8ff" stroke="#63b8ff" points="675,-84.09 671.5,-74.09 668,-84.09 675,-84.09"/>
</a>
</g>
</g>
<!-- Node17&#45;&gt;Node5 -->
<g id="edge26_Node000017_Node000005" class="edge">
<title>Node17&#45;&gt;Node5</title>
<g id="a_edge26_Node000017_Node000005"><a xlink:title=" ">
<path fill="none" stroke="#63b8ff" d="M309.8,-112.8C380.98,-105 510.95,-90.13 621.5,-74 625.98,-73.35 630.68,-72.61 635.33,-71.86"/>
<polygon fill="#63b8ff" stroke="#63b8ff" points="636.04,-75.29 645.33,-70.19 634.89,-68.38 636.04,-75.29"/>
</a>
</g>
</g>
<!-- Node17&#45;&gt;Node6 -->
<g id="edge28_Node000017_Node000006" class="edge">
<title>Node17&#45;&gt;Node6</title>
<g id="a_edge28_Node000017_Node000006"><a xlink:title=" ">
<path fill="none" stroke="#63b8ff" d="M221.15,-109.98C183.34,-100.87 123.24,-86.4 81.93,-76.45"/>
<polygon fill="#63b8ff" stroke="#63b8ff" points="82.67,-73.02 72.12,-74.08 81.03,-79.83 82.67,-73.02"/>
</a>
</g>
</g>
<!-- Node17&#45;&gt;Node10 -->
<g id="edge23_Node000017_Node000010" class="edge">
<title>Node17&#45;&gt;Node10</title>
<g id="a_edge23_Node000017_Node000010"><a xlink:title=" ">
<path fill="none" stroke="#63b8ff" d="M294.41,-109.94C330.36,-101.73 386.15,-88.75 443.25,-74.25"/>
<polygon fill="#63b8ff" stroke="#63b8ff" points="444.35,-77.59 453.17,-71.72 442.62,-70.8 444.35,-77.59"/>
</a>
</g>
</g>
<!-- Node17&#45;&gt;Node12 -->
<g id="edge24_Node000017_Node000012" class="edge">
<title>Node17&#45;&gt;Node12</title>
<g id="a_edge24_Node000017_Node000012"><a xlink:title=" ">
<path fill="none" stroke="#63b8ff" d="M308.4,-109.98C371.82,-99.58 477.94,-82.16 536.84,-72.5"/>
<polygon fill="#63b8ff" stroke="#63b8ff" points="537.62,-75.92 546.92,-70.85 536.48,-69.01 537.62,-75.92"/>
</a>
</g>
</g>
<!-- Node18 -->
<g id="Node000018" class="node">
<title>Node18</title>
<g id="a_Node000018"><a xlink:title=" ">
<polygon fill="#e0e0e0" stroke="#999999" points="435,-74 388,-74 388,-55 435,-55 435,-74"/>
<text text-anchor="middle" x="411.5" y="-62" font-family="Helvetica,sans-Serif" font-size="10.00">errno.h</text>
</a>
</g>
</g>
<!-- Node17&#45;&gt;Node18 -->
<g id="edge22_Node000017_Node000018" class="edge">
<title>Node17&#45;&gt;Node18</title>
<g id="a_edge22_Node000017_Node000018"><a xlink:title=" ">
<path fill="none" stroke="#63b8ff" d="M281.4,-109.98C307.66,-101.01 349.17,-86.81 378.22,-76.88"/>
<polygon fill="#63b8ff" stroke="#63b8ff" points="379.6,-80.11 387.93,-73.56 377.33,-73.48 379.6,-80.11"/>
</a>
</g>
</g>
<!-- Node19 -->
<g id="Node000019" class="node">
<title>Node19</title>
<g id="a_Node000019"><a xlink:title=" ">
<polygon fill="#e0e0e0" stroke="#999999" points="162,-74 91,-74 91,-55 162,-55 162,-74"/>
<text text-anchor="middle" x="126.5" y="-62" font-family="Helvetica,sans-Serif" font-size="10.00">netinet/tcp.h</text>
</a>
</g>
</g>
<!-- Node17&#45;&gt;Node19 -->
<g id="edge25_Node000017_Node000019" class="edge">
<title>Node17&#45;&gt;Node19</title>
<g id="a_edge25_Node000017_Node000019"><a xlink:title=" ">
<path fill="none" stroke="#63b8ff" d="M235.61,-109.98C214.42,-101.34 181.37,-87.87 157.2,-78.02"/>
<polygon fill="#63b8ff" stroke="#63b8ff" points="158.35,-74.7 147.77,-74.17 155.71,-81.19 158.35,-74.7"/>
</a>
</g>
</g>
<!-- Node20 -->
<g id="Node000020" class="node">
<title>Node20</title>
<g id="a_Node000020"><a xlink:title=" ">
<polygon fill="#e0e0e0" stroke="#999999" points="226.5,-74 180.5,-74 180.5,-55 226.5,-55 226.5,-74"/>
<text text-anchor="middle" x="203.5" y="-62" font-family="Helvetica,sans-Serif" font-size="10.00">stdio.h</text>
</a>
</g>
</g>
<!-- Node17&#45;&gt;Node20 -->
<g id="edge27_Node000017_Node000020" class="edge">
<title>Node17&#45;&gt;Node20</title>
<g id="a_edge27_Node000017_Node000020"><a xlink:title=" ">
<path fill="none" stroke="#63b8ff" d="M247.75,-109.75C240.03,-102.03 228.6,-90.6 219.28,-81.28"/>
<polygon fill="#63b8ff" stroke="#63b8ff" points="221.64,-78.69 212.09,-74.09 216.69,-83.64 221.64,-78.69"/>
</a>
</g>
</g>
<!-- Node21 -->
<g id="Node000021" class="node">
<title>Node21</title>
<g id="a_Node000021"><a xlink:title=" ">
<polygon fill="#e0e0e0" stroke="#999999" points="300.5,-74 244.5,-74 244.5,-55 300.5,-55 300.5,-74"/>
<text text-anchor="middle" x="272.5" y="-62" font-family="Helvetica,sans-Serif" font-size="10.00">sys/uio.h</text>
</a>
</g>
</g>
<!-- Node17&#45;&gt;Node21 -->
<g id="edge29_Node000017_Node000021" class="edge">
<title>Node17&#45;&gt;Node21</title>
<g id="a_edge29_Node000017_Node000021"><a xlink:title=" ">
<path fill="none" stroke="#63b8ff" d="M259.14,-109.75C261.26,-102.72 264.31,-92.62 266.96,-83.84"/>
<polygon fill="#63b8ff" stroke="#63b8ff" points="270.37,-84.67 269.91,-74.09 263.67,-82.65 270.37,-84.67"/>
</a>
</g>
</g>
<!-- Node22 -->
<g id="Node000022" class="node">
<title>Node22</title>
<g id="a_Node000022"><a xlink:title=" ">
<polygon fill="#e0e0e0" stroke="#999999" points="370,-74 319,-74 319,-55 370,-55 370,-74"/>
<text text-anchor="middle" x="344.5" y="-62" font-family="Helvetica,sans-Serif" font-size="10.00">unistd.h</text>
</a>
</g>
</g>
<!-- Node17&#45;&gt;Node22 -->
<g id="edge30_Node000017_Node000022" class="edge">
<title>Node17&#45;&gt;Node22</title>
<g id="a_edge30_Node000017_Node000022"><a xlink:title=" ">
<path fill="none" stroke="#63b8ff" d="M270.64,-109.98C284.29,-101.77 305.19,-89.18 321.28,-79.49"/>
<polygon fill="#63b8ff" stroke="#63b8ff" points="323.34,-82.33 330.1,-74.17 319.73,-76.33 323.34,-82.33"/>
</a>
</g>
</g>
</g>
</svg>

<g id="navigator" transform="translate(0 0)" fill="#404254">
  <rect fill="#f2f5e9" fill-opacity="0.5" stroke="#606060" stroke-width=".5" x="0" y="0" width="60" height="60"/>
  <use id="zoomplus" xlink:href="#zoomPlus" x="17" y="9" onmousedown="handleZoom(evt,'in')"/>
  <use id="zoomminus" xlink:href="#zoomMin" x="42" y="9" onmousedown="handleZoom(evt,'out')"/>
  <use id="reset" xlink:href="#resetDef" x="30" y="36" onmousedown="handleReset()"/>
   <use id="arrowup" xlink:href="#arrowUp" x="0" y="0" onmousedown="handlePan(0,-1)"/>
  <use id="arrowright" xlink:href="#arrowRight" x="0" y="0" onmousedown="handlePan(1,0)"/>
  <use id="arrowdown" xlink:href="#arrowDown" x="0" y="0" onmousedown="handlePan(0,1)"/>
  <use id="arrowleft" xlink:href="#arrowLeft" x="0" y="0" onmousedown="handlePan(-1,0)"/>
</g>
<svg viewBox="0 0 15 15" width="100%" height="30px" preserveAspectRatio="xMaxYMin meet">
 <g id="arrow_out" transform="scale(0.3 0.3)">
  <a xlink:href="SocketDTLS_8h__incl_org.svg" target="_base">
   <rect id="button" ry="5" rx="5" y="6" x="6" height="38" width="38"
        fill="#f2f5e9" fill-opacity="0.5" stroke="#606060" stroke-width="1.0"/>
   <path id="arrow"
     d="M 11.500037,31.436501 C 11.940474,20.09759 22.043105,11.32322 32.158766,21.979434 L 37.068811,17.246167 C 37.068811,17.246167 37.088388,32 37.088388,32 L 22.160133,31.978069 C 22.160133,31.978069 26.997745,27.140456 26.997745,27.140456 C 18.528582,18.264221 13.291696,25.230495 11.500037,31.436501 z"
     style="fill:#404040;"/>
  </a>
 </g>
</svg>

<style type='text/css'>
<![CDATA[
[data-mouse-over-selected='false'] { opacity: 0.7; }
[data-mouse-over-selected='true']  { opacity: 1.0; }
]]>
</style>
<script type="application/ecmascript"><![CDATA[
document.addEventListener('DOMContentLoaded', (event) => {
  highlightEdges();
  highlightAdjacentNodes();
});
]]></script>
</svg>
