<?xml version="1.0" encoding="UTF-8" standalone="no"?>
<!DOCTYPE svg PUBLIC "-//W3C//DTD SVG 1.1//EN"
 "http://www.w3.org/Graphics/SVG/1.1/DTD/svg11.dtd">
<!-- Generated by graphviz version 2.43.0 (0)
 -->
<!-- Title: SocketHTTPServer.h Pages: 1 -->
<svg width="1676pt" height="412pt"
 viewBox="0.00 0.00 1675.50 412.00" xmlns="http://www.w3.org/2000/svg" xmlns:xlink="http://www.w3.org/1999/xlink">
<g id="graph0" class="graph" transform="scale(1 1) rotate(0) translate(4 408)">
<title>SocketHTTPServer.h</title>
<!-- Node1 -->
<g id="Node000001" class="node">
<title>Node1</title>
<g id="a_Node000001"><a xlink:title="High&#45;level HTTP server supporting HTTP/1.1 and HTTP/2 protocols.">
<polygon fill="#999999" stroke="#666666" points="431,-404 321,-404 321,-385 431,-385 431,-404"/>
<text text-anchor="middle" x="376" y="-392" font-family="Helvetica,sans-Serif" font-size="10.00">SocketHTTPServer.h</text>
</a>
</g>
</g>
<!-- Node2 -->
<g id="Node000002" class="node">
<title>Node2</title>
<g id="a_Node000002"><a xlink:title=" ">
<polygon fill="#e0e0e0" stroke="#999999" points="198,-74 146,-74 146,-55 198,-55 198,-74"/>
<text text-anchor="middle" x="172" y="-62" font-family="Helvetica,sans-Serif" font-size="10.00">stddef.h</text>
</a>
</g>
</g>
<!-- Node1&#45;&gt;Node2 -->
<g id="edge1_Node000001_Node000002" class="edge">
<title>Node1&#45;&gt;Node2</title>
<g id="a_edge1_Node000001_Node000002"><a xlink:title=" ">
<path fill="none" stroke="#63b8ff" d="M320.92,-389.19C216.49,-379.5 0,-351.46 0,-285.5 0,-285.5 0,-285.5 0,-173.5 0,-109.83 85.56,-82.25 135.99,-71.52"/>
<polygon fill="#63b8ff" stroke="#63b8ff" points="136.76,-74.94 145.88,-69.54 135.38,-68.08 136.76,-74.94"/>
</a>
</g>
</g>
<!-- Node3 -->
<g id="Node000003" class="node">
<title>Node3</title>
<g id="a_Node000003"><a xlink:title=" ">
<polygon fill="#e0e0e0" stroke="#999999" points="381.5,-129 332.5,-129 332.5,-110 381.5,-110 381.5,-129"/>
<text text-anchor="middle" x="357" y="-117" font-family="Helvetica,sans-Serif" font-size="10.00">stdint.h</text>
</a>
</g>
</g>
<!-- Node1&#45;&gt;Node3 -->
<g id="edge2_Node000001_Node000003" class="edge">
<title>Node1&#45;&gt;Node3</title>
<g id="a_edge2_Node000001_Node000003"><a xlink:title=" ">
<path fill="none" stroke="#63b8ff" d="M375.39,-384.73C372.72,-346.38 362.05,-193.03 358.3,-139.25"/>
<polygon fill="#63b8ff" stroke="#63b8ff" points="361.78,-138.84 357.6,-129.11 354.8,-139.32 361.78,-138.84"/>
</a>
</g>
</g>
<!-- Node4 -->
<g id="Node000004" class="node">
<title>Node4</title>
<g id="a_Node000004"><a xlink:title=" ">
<polygon fill="#e0e0e0" stroke="#999999" points="468,-129 400,-129 400,-110 468,-110 468,-129"/>
<text text-anchor="middle" x="434" y="-117" font-family="Helvetica,sans-Serif" font-size="10.00">sys/types.h</text>
</a>
</g>
</g>
<!-- Node1&#45;&gt;Node4 -->
<g id="edge3_Node000001_Node000004" class="edge">
<title>Node1&#45;&gt;Node4</title>
<g id="a_edge3_Node000001_Node000004"><a xlink:title=" ">
<path fill="none" stroke="#63b8ff" d="M377.86,-384.73C386.03,-346.3 418.73,-192.38 430.09,-138.91"/>
<polygon fill="#63b8ff" stroke="#63b8ff" points="433.52,-139.61 432.17,-129.11 426.67,-138.16 433.52,-139.61"/>
</a>
</g>
</g>
<!-- Node5 -->
<g id="Node000005" class="node">
<title>Node5</title>
<g id="a_Node000005"><a xlink:href="Arena_8h.html" target="_top" xlink:title="Arena&#45;based memory allocator for efficient bulk memory management.">
<polygon fill="white" stroke="#666666" points="176,-129 104,-129 104,-110 176,-110 176,-129"/>
<text text-anchor="middle" x="140" y="-117" font-family="Helvetica,sans-Serif" font-size="10.00">core/Arena.h</text>
</a>
</g>
</g>
<!-- Node1&#45;&gt;Node5 -->
<g id="edge4_Node000001_Node000005" class="edge">
<title>Node1&#45;&gt;Node5</title>
<g id="a_edge4_Node000001_Node000005"><a xlink:title=" ">
<path fill="none" stroke="#63b8ff" d="M320.86,-386.99C262.58,-376.67 179,-350.54 179,-285.5 179,-285.5 179,-285.5 179,-228.5 179,-194.92 162.12,-158.78 150.57,-137.98"/>
<polygon fill="#63b8ff" stroke="#63b8ff" points="153.46,-135.98 145.42,-129.08 147.4,-139.49 153.46,-135.98"/>
</a>
</g>
</g>
<!-- Node6 -->
<g id="Node000006" class="node">
<title>Node6</title>
<g id="a_Node000006"><a xlink:href="Except_8h.html" target="_top" xlink:title="Structured exception handling for C with TRY/EXCEPT/FINALLY blocks.">
<polygon fill="white" stroke="#666666" points="648.5,-74 571.5,-74 571.5,-55 648.5,-55 648.5,-74"/>
<text text-anchor="middle" x="610" y="-62" font-family="Helvetica,sans-Serif" font-size="10.00">core/Except.h</text>
</a>
</g>
</g>
<!-- Node1&#45;&gt;Node6 -->
<g id="edge8_Node000001_Node000006" class="edge">
<title>Node1&#45;&gt;Node6</title>
<g id="a_edge8_Node000001_Node000006"><a xlink:title=" ">
<path fill="none" stroke="#63b8ff" d="M431.18,-393.27C553.98,-392.09 858.9,-385.38 1111,-349 1218.88,-333.43 1247.7,-331.62 1350,-294 1399.81,-275.68 1428.44,-284.36 1456,-239 1541.92,-97.62 850.99,-71.06 658.75,-66.42"/>
<polygon fill="#63b8ff" stroke="#63b8ff" points="658.73,-62.92 648.65,-66.19 658.57,-69.92 658.73,-62.92"/>
</a>
</g>
</g>
<!-- Node8 -->
<g id="Node000008" class="node">
<title>Node8</title>
<g id="a_Node000008"><a xlink:href="SocketRateLimit_8h.html" target="_top" xlink:title="Token bucket rate limiter for controlling operation rates.">
<polygon fill="white" stroke="#666666" points="150.5,-184 31.5,-184 31.5,-165 150.5,-165 150.5,-184"/>
<text text-anchor="middle" x="91" y="-172" font-family="Helvetica,sans-Serif" font-size="10.00">core/SocketRateLimit.h</text>
</a>
</g>
</g>
<!-- Node1&#45;&gt;Node8 -->
<g id="edge9_Node000001_Node000008" class="edge">
<title>Node1&#45;&gt;Node8</title>
<g id="a_edge9_Node000001_Node000008"><a xlink:title=" ">
<path fill="none" stroke="#63b8ff" d="M320.77,-387.66C266.46,-380.92 188.39,-368.22 165,-349 116.14,-308.86 98.89,-230.56 93.36,-194.5"/>
<polygon fill="#63b8ff" stroke="#63b8ff" points="96.79,-193.81 91.95,-184.39 89.86,-194.77 96.79,-193.81"/>
</a>
</g>
</g>
<!-- Node9 -->
<g id="Node000009" class="node">
<title>Node9</title>
<g id="a_Node000009"><a xlink:href="SocketHTTP_8h.html" target="_top" xlink:title="Protocol&#45;agnostic HTTP types, header handling, URI parsing, and utilities.">
<polygon fill="white" stroke="#666666" points="345,-184 245,-184 245,-165 345,-165 345,-184"/>
<text text-anchor="middle" x="295" y="-172" font-family="Helvetica,sans-Serif" font-size="10.00">http/SocketHTTP.h</text>
</a>
</g>
</g>
<!-- Node1&#45;&gt;Node9 -->
<g id="edge14_Node000001_Node000009" class="edge">
<title>Node1&#45;&gt;Node9</title>
<g id="a_edge14_Node000001_Node000009"><a xlink:title=" ">
<path fill="none" stroke="#63b8ff" d="M361.15,-384.91C349.11,-377.13 332.77,-364.52 324,-349 295.51,-298.58 293.32,-227.65 294.09,-194.27"/>
<polygon fill="#63b8ff" stroke="#63b8ff" points="297.6,-194.24 294.45,-184.12 290.6,-193.99 297.6,-194.24"/>
</a>
</g>
</g>
<!-- Node11 -->
<g id="Node000011" class="node">
<title>Node11</title>
<g id="a_Node000011"><a xlink:href="SocketPoll_8h.html" target="_top" xlink:title="Cross&#45;platform high&#45;level interface for monitoring multiple sockets for I/O events.">
<polygon fill="white" stroke="#666666" points="594,-294 504,-294 504,-275 594,-275 594,-294"/>
<text text-anchor="middle" x="549" y="-282" font-family="Helvetica,sans-Serif" font-size="10.00">poll/SocketPoll.h</text>
</a>
</g>
</g>
<!-- Node1&#45;&gt;Node11 -->
<g id="edge21_Node000001_Node000011" class="edge">
<title>Node1&#45;&gt;Node11</title>
<g id="a_edge21_Node000001_Node000011"><a xlink:title=" ">
<path fill="none" stroke="#63b8ff" d="M389.86,-384.84C419.6,-366.28 489.75,-322.49 526.17,-299.75"/>
<polygon fill="#63b8ff" stroke="#63b8ff" points="528.44,-302.46 535.07,-294.2 524.73,-296.52 528.44,-302.46"/>
</a>
</g>
</g>
<!-- Node13 -->
<g id="Node000013" class="node">
<title>Node13</title>
<g id="a_Node000013"><a xlink:href="Socket_8h.html" target="_top" xlink:title="High&#45;level TCP/IP and Unix domain socket interface.">
<polygon fill="white" stroke="#666666" points="768,-239 680,-239 680,-220 768,-220 768,-239"/>
<text text-anchor="middle" x="724" y="-227" font-family="Helvetica,sans-Serif" font-size="10.00">socket/Socket.h</text>
</a>
</g>
</g>
<!-- Node1&#45;&gt;Node13 -->
<g id="edge57_Node000001_Node000013" class="edge">
<title>Node1&#45;&gt;Node13</title>
<g id="a_edge57_Node000001_Node000013"><a xlink:title=" ">
<path fill="none" stroke="#63b8ff" d="M396.88,-384.93C437.14,-368.27 528.16,-329.99 603,-294 636.98,-277.66 675.39,-257.14 699.65,-243.92"/>
<polygon fill="#63b8ff" stroke="#63b8ff" points="701.42,-246.94 708.51,-239.07 698.06,-240.8 701.42,-246.94"/>
</a>
</g>
</g>
<!-- Node30 -->
<g id="Node000030" class="node">
<title>Node30</title>
<g id="a_Node000030"><a xlink:href="SocketTLSContext_8h.html" target="_top" xlink:title="TLS context management with secure defaults and certificate handling.">
<polygon fill="white" stroke="#666666" points="1102,-349 980,-349 980,-330 1102,-330 1102,-349"/>
<text text-anchor="middle" x="1041" y="-337" font-family="Helvetica,sans-Serif" font-size="10.00">tls/SocketTLSContext.h</text>
</a>
</g>
</g>
<!-- Node1&#45;&gt;Node30 -->
<g id="edge58_Node000001_Node000030" class="edge">
<title>Node1&#45;&gt;Node30</title>
<g id="a_edge58_Node000001_Node000030"><a xlink:title=" ">
<path fill="none" stroke="#63b8ff" d="M431.27,-389.1C551.41,-379.52 836.24,-356.82 969.69,-346.18"/>
<polygon fill="#63b8ff" stroke="#63b8ff" points="970.12,-349.66 979.81,-345.38 969.56,-342.68 970.12,-349.66"/>
</a>
</g>
</g>
<!-- Node5&#45;&gt;Node2 -->
<g id="edge5_Node000005_Node000002" class="edge">
<title>Node5&#45;&gt;Node2</title>
<g id="a_edge5_Node000005_Node000002"><a xlink:title=" ">
<path fill="none" stroke="#63b8ff" d="M145.28,-109.75C149.71,-102.42 156.16,-91.73 161.62,-82.7"/>
<polygon fill="#63b8ff" stroke="#63b8ff" points="164.64,-84.46 166.81,-74.09 158.65,-80.84 164.64,-84.46"/>
</a>
</g>
</g>
<!-- Node5&#45;&gt;Node6 -->
<g id="edge6_Node000005_Node000006" class="edge">
<title>Node5&#45;&gt;Node6</title>
<g id="a_edge6_Node000005_Node000006"><a xlink:title=" ">
<path fill="none" stroke="#63b8ff" d="M176.1,-114.43C259.7,-105 466.66,-81.66 561.33,-70.99"/>
<polygon fill="#63b8ff" stroke="#63b8ff" points="561.94,-74.44 571.49,-69.84 561.16,-67.49 561.94,-74.44"/>
</a>
</g>
</g>
<!-- Node7 -->
<g id="Node000007" class="node">
<title>Node7</title>
<g id="a_Node000007"><a xlink:title=" ">
<polygon fill="#e0e0e0" stroke="#999999" points="637,-19 583,-19 583,0 637,0 637,-19"/>
<text text-anchor="middle" x="610" y="-7" font-family="Helvetica,sans-Serif" font-size="10.00">setjmp.h</text>
</a>
</g>
</g>
<!-- Node6&#45;&gt;Node7 -->
<g id="edge7_Node000006_Node000007" class="edge">
<title>Node6&#45;&gt;Node7</title>
<g id="a_edge7_Node000006_Node000007"><a xlink:title=" ">
<path fill="none" stroke="#63b8ff" d="M610,-54.75C610,-47.8 610,-37.85 610,-29.13"/>
<polygon fill="#63b8ff" stroke="#63b8ff" points="613.5,-29.09 610,-19.09 606.5,-29.09 613.5,-29.09"/>
</a>
</g>
</g>
<!-- Node8&#45;&gt;Node2 -->
<g id="edge12_Node000008_Node000002" class="edge">
<title>Node8&#45;&gt;Node2</title>
<g id="a_edge12_Node000008_Node000002"><a xlink:title=" ">
<path fill="none" stroke="#63b8ff" d="M81.63,-164.82C69.1,-152.13 49.81,-128.09 62,-110 78.4,-85.68 110.58,-74.65 135.92,-69.64"/>
<polygon fill="#63b8ff" stroke="#63b8ff" points="136.69,-73.06 145.94,-67.9 135.49,-66.17 136.69,-73.06"/>
</a>
</g>
</g>
<!-- Node8&#45;&gt;Node3 -->
<g id="edge13_Node000008_Node000003" class="edge">
<title>Node8&#45;&gt;Node3</title>
<g id="a_edge13_Node000008_Node000003"><a xlink:title=" ">
<path fill="none" stroke="#63b8ff" d="M133.74,-164.98C186.14,-154.54 273.94,-137.05 322.35,-127.4"/>
<polygon fill="#63b8ff" stroke="#63b8ff" points="323.21,-130.8 332.34,-125.41 321.84,-123.94 323.21,-130.8"/>
</a>
</g>
</g>
<!-- Node8&#45;&gt;Node5 -->
<g id="edge10_Node000008_Node000005" class="edge">
<title>Node8&#45;&gt;Node5</title>
<g id="a_edge10_Node000008_Node000005"><a xlink:title=" ">
<path fill="none" stroke="#63b8ff" d="M99.09,-164.75C106.16,-157.11 116.59,-145.82 125.15,-136.56"/>
<polygon fill="#63b8ff" stroke="#63b8ff" points="127.84,-138.81 132.06,-129.09 122.7,-134.06 127.84,-138.81"/>
</a>
</g>
</g>
<!-- Node8&#45;&gt;Node6 -->
<g id="edge11_Node000008_Node000006" class="edge">
<title>Node8&#45;&gt;Node6</title>
<g id="a_edge11_Node000008_Node000006"><a xlink:title=" ">
<path fill="none" stroke="#63b8ff" d="M88.4,-164.71C84.94,-150.98 80.8,-124.54 95,-110 127.18,-77.06 438.86,-68.33 561.13,-66.17"/>
<polygon fill="#63b8ff" stroke="#63b8ff" points="561.39,-69.67 571.33,-66 561.27,-62.67 561.39,-69.67"/>
</a>
</g>
</g>
<!-- Node9&#45;&gt;Node2 -->
<g id="edge15_Node000009_Node000002" class="edge">
<title>Node9&#45;&gt;Node2</title>
<g id="a_edge15_Node000009_Node000002"><a xlink:title=" ">
<path fill="none" stroke="#63b8ff" d="M277.59,-164.92C262.27,-156.88 239.85,-143.89 223,-129 207.33,-115.15 192.75,-96.11 183.22,-82.5"/>
<polygon fill="#63b8ff" stroke="#63b8ff" points="186.01,-80.37 177.49,-74.08 180.22,-84.31 186.01,-80.37"/>
</a>
</g>
</g>
<!-- Node9&#45;&gt;Node3 -->
<g id="edge16_Node000009_Node000003" class="edge">
<title>Node9&#45;&gt;Node3</title>
<g id="a_edge16_Node000009_Node000003"><a xlink:title=" ">
<path fill="none" stroke="#63b8ff" d="M304.96,-164.98C314.13,-157.15 327.94,-145.34 339.03,-135.86"/>
<polygon fill="#63b8ff" stroke="#63b8ff" points="341.53,-138.33 346.86,-129.17 336.98,-133.01 341.53,-138.33"/>
</a>
</g>
</g>
<!-- Node9&#45;&gt;Node4 -->
<g id="edge17_Node000009_Node000004" class="edge">
<title>Node9&#45;&gt;Node4</title>
<g id="a_edge17_Node000009_Node000004"><a xlink:title=" ">
<path fill="none" stroke="#63b8ff" d="M317.33,-164.98C340.2,-156.27 375.96,-142.63 401.86,-132.75"/>
<polygon fill="#63b8ff" stroke="#63b8ff" points="403.16,-136 411.26,-129.17 400.67,-129.46 403.16,-136"/>
</a>
</g>
</g>
<!-- Node9&#45;&gt;Node5 -->
<g id="edge19_Node000009_Node000005" class="edge">
<title>Node9&#45;&gt;Node5</title>
<g id="a_edge19_Node000009_Node000005"><a xlink:title=" ">
<path fill="none" stroke="#63b8ff" d="M270.1,-164.98C244.3,-156.16 203.78,-142.31 174.82,-132.41"/>
<polygon fill="#63b8ff" stroke="#63b8ff" points="175.69,-129.01 165.1,-129.08 173.43,-135.63 175.69,-129.01"/>
</a>
</g>
</g>
<!-- Node9&#45;&gt;Node6 -->
<g id="edge20_Node000009_Node000006" class="edge">
<title>Node9&#45;&gt;Node6</title>
<g id="a_edge20_Node000009_Node000006"><a xlink:title=" ">
<path fill="none" stroke="#63b8ff" d="M296.29,-164.91C298.86,-150.97 306.03,-123.61 324,-110 360.46,-82.38 489.69,-71.54 561.32,-67.58"/>
<polygon fill="#63b8ff" stroke="#63b8ff" points="561.65,-71.07 571.45,-67.04 561.28,-64.08 561.65,-71.07"/>
</a>
</g>
</g>
<!-- Node10 -->
<g id="Node000010" class="node">
<title>Node10</title>
<g id="a_Node000010"><a xlink:title=" ">
<polygon fill="#e0e0e0" stroke="#999999" points="276,-129 232,-129 232,-110 276,-110 276,-129"/>
<text text-anchor="middle" x="254" y="-117" font-family="Helvetica,sans-Serif" font-size="10.00">time.h</text>
</a>
</g>
</g>
<!-- Node9&#45;&gt;Node10 -->
<g id="edge18_Node000009_Node000010" class="edge">
<title>Node9&#45;&gt;Node10</title>
<g id="a_edge18_Node000009_Node000010"><a xlink:title=" ">
<path fill="none" stroke="#63b8ff" d="M288.23,-164.75C282.44,-157.26 273.94,-146.28 266.86,-137.13"/>
<polygon fill="#63b8ff" stroke="#63b8ff" points="269.53,-134.86 260.64,-129.09 263.99,-139.14 269.53,-134.86"/>
</a>
</g>
</g>
<!-- Node11&#45;&gt;Node6 -->
<g id="edge22_Node000011_Node000006" class="edge">
<title>Node11&#45;&gt;Node6</title>
<g id="a_edge22_Node000011_Node000006"><a xlink:title=" ">
<path fill="none" stroke="#63b8ff" d="M551.39,-274.95C560.37,-242.88 592.18,-129.2 604.79,-84.12"/>
<polygon fill="#63b8ff" stroke="#63b8ff" points="608.23,-84.8 607.56,-74.22 601.49,-82.91 608.23,-84.8"/>
</a>
</g>
</g>
<!-- Node12 -->
<g id="Node000012" class="node">
<title>Node12</title>
<g id="a_Node000012"><a xlink:href="SocketTimer_8h.html" target="_top" xlink:title="High&#45;performance timer subsystem integrated with the event loop.">
<polygon fill="white" stroke="#666666" points="543.5,-184 442.5,-184 442.5,-165 543.5,-165 543.5,-184"/>
<text text-anchor="middle" x="493" y="-172" font-family="Helvetica,sans-Serif" font-size="10.00">core/SocketTimer.h</text>
</a>
</g>
</g>
<!-- Node11&#45;&gt;Node12 -->
<g id="edge23_Node000011_Node000012" class="edge">
<title>Node11&#45;&gt;Node12</title>
<g id="a_edge23_Node000011_Node000012"><a xlink:title=" ">
<path fill="none" stroke="#63b8ff" d="M544.42,-274.66C535.22,-256.93 514.38,-216.73 502.24,-193.32"/>
<polygon fill="#63b8ff" stroke="#63b8ff" points="505.2,-191.42 497.49,-184.16 498.99,-194.65 505.2,-191.42"/>
</a>
</g>
</g>
<!-- Node11&#45;&gt;Node13 -->
<g id="edge26_Node000011_Node000013" class="edge">
<title>Node11&#45;&gt;Node13</title>
<g id="a_edge26_Node000011_Node000013"><a xlink:title=" ">
<path fill="none" stroke="#63b8ff" d="M577.12,-274.98C606.62,-266.05 653.19,-251.94 685.97,-242.02"/>
<polygon fill="#63b8ff" stroke="#63b8ff" points="687.11,-245.33 695.66,-239.08 685.08,-238.63 687.11,-245.33"/>
</a>
</g>
</g>
<!-- Node12&#45;&gt;Node3 -->
<g id="edge25_Node000012_Node000003" class="edge">
<title>Node12&#45;&gt;Node3</title>
<g id="a_edge25_Node000012_Node000003"><a xlink:title=" ">
<path fill="none" stroke="#63b8ff" d="M471.15,-164.98C448.88,-156.3 414.1,-142.75 388.78,-132.88"/>
<polygon fill="#63b8ff" stroke="#63b8ff" points="389.84,-129.54 379.25,-129.17 387.29,-136.06 389.84,-129.54"/>
</a>
</g>
</g>
<!-- Node12&#45;&gt;Node6 -->
<g id="edge24_Node000012_Node000006" class="edge">
<title>Node12&#45;&gt;Node6</title>
<g id="a_edge24_Node000012_Node000006"><a xlink:title=" ">
<path fill="none" stroke="#63b8ff" d="M501.65,-164.69C513.95,-152.25 537.28,-128.95 558,-110 568.96,-99.98 581.62,-89.13 591.7,-80.66"/>
<polygon fill="#63b8ff" stroke="#63b8ff" points="594.04,-83.26 599.47,-74.17 589.55,-77.89 594.04,-83.26"/>
</a>
</g>
</g>
<!-- Node13&#45;&gt;Node6 -->
<g id="edge27_Node000013_Node000006" class="edge">
<title>Node13&#45;&gt;Node6</title>
<g id="a_edge27_Node000013_Node000006"><a xlink:title=" ">
<path fill="none" stroke="#63b8ff" d="M722.72,-219.77C720.57,-207.03 715.41,-182.91 705,-165 684.87,-130.36 650.33,-98.4 628.91,-80.48"/>
<polygon fill="#63b8ff" stroke="#63b8ff" points="631.09,-77.74 621.14,-74.11 626.66,-83.15 631.09,-77.74"/>
</a>
</g>
</g>
<!-- Node14 -->
<g id="Node000014" class="node">
<title>Node14</title>
<g id="a_Node000014"><a xlink:href="SocketConfig_8h.html" target="_top" xlink:title="Compile&#45;time and runtime configuration constants, limits, and platform adaptations.">
<polygon fill="white" stroke="#666666" points="1470,-129 1364,-129 1364,-110 1470,-110 1470,-129"/>
<text text-anchor="middle" x="1417" y="-117" font-family="Helvetica,sans-Serif" font-size="10.00">core/SocketConfig.h</text>
</a>
</g>
</g>
<!-- Node13&#45;&gt;Node14 -->
<g id="edge28_Node000013_Node000014" class="edge">
<title>Node13&#45;&gt;Node14</title>
<g id="a_edge28_Node000013_Node000014"><a xlink:title=" ">
<path fill="none" stroke="#63b8ff" d="M768.14,-221.62C887.1,-203.08 1214.73,-152.02 1353.53,-130.39"/>
<polygon fill="#63b8ff" stroke="#63b8ff" points="1354.25,-133.82 1363.59,-128.82 1353.17,-126.91 1354.25,-133.82"/>
</a>
</g>
</g>
<!-- Node23 -->
<g id="Node000023" class="node">
<title>Node23</title>
<g id="a_Node000023"><a xlink:href="SocketDNS_8h.html" target="_top" xlink:title="Asynchronous DNS resolution API for non&#45;blocking network applications.">
<polygon fill="white" stroke="#666666" points="696,-184 600,-184 600,-165 696,-165 696,-184"/>
<text text-anchor="middle" x="648" y="-172" font-family="Helvetica,sans-Serif" font-size="10.00">dns/SocketDNS.h</text>
</a>
</g>
</g>
<!-- Node13&#45;&gt;Node23 -->
<g id="edge38_Node000013_Node000023" class="edge">
<title>Node13&#45;&gt;Node23</title>
<g id="a_edge38_Node000013_Node000023"><a xlink:title=" ">
<path fill="none" stroke="#63b8ff" d="M711.79,-219.98C700.22,-211.92 682.62,-199.65 668.84,-190.03"/>
<polygon fill="#63b8ff" stroke="#63b8ff" points="670.64,-187.02 660.43,-184.17 666.63,-192.76 670.64,-187.02"/>
</a>
</g>
</g>
<!-- Node25 -->
<g id="Node000025" class="node">
<title>Node25</title>
<g id="a_Node000025"><a xlink:href="SocketCommon_8h.html" target="_top" xlink:title="Common utilities shared between Socket and SocketDgram modules.">
<polygon fill="white" stroke="#666666" points="991,-184 863,-184 863,-165 991,-165 991,-184"/>
<text text-anchor="middle" x="927" y="-172" font-family="Helvetica,sans-Serif" font-size="10.00">socket/SocketCommon.h</text>
</a>
</g>
</g>
<!-- Node13&#45;&gt;Node25 -->
<g id="edge44_Node000013_Node000025" class="edge">
<title>Node13&#45;&gt;Node25</title>
<g id="a_edge44_Node000013_Node000025"><a xlink:title=" ">
<path fill="none" stroke="#63b8ff" d="M756.62,-219.98C791.29,-210.93 846.26,-196.58 884.35,-186.64"/>
<polygon fill="#63b8ff" stroke="#63b8ff" points="885.34,-189.99 894.13,-184.08 883.57,-183.22 885.34,-189.99"/>
</a>
</g>
</g>
<!-- Node14&#45;&gt;Node2 -->
<g id="edge33_Node000014_Node000002" class="edge">
<title>Node14&#45;&gt;Node2</title>
<g id="a_edge33_Node000014_Node000002"><a xlink:title=" ">
<path fill="none" stroke="#63b8ff" d="M1363.9,-116.24C1153.99,-107.3 384.93,-74.56 208.32,-67.05"/>
<polygon fill="#63b8ff" stroke="#63b8ff" points="208.39,-63.55 198.25,-66.62 208.09,-70.54 208.39,-63.55"/>
</a>
</g>
</g>
<!-- Node15 -->
<g id="Node000015" class="node">
<title>Node15</title>
<g id="a_Node000015"><a xlink:title=" ">
<polygon fill="#e0e0e0" stroke="#999999" points="1370.5,-74 1323.5,-74 1323.5,-55 1370.5,-55 1370.5,-74"/>
<text text-anchor="middle" x="1347" y="-62" font-family="Helvetica,sans-Serif" font-size="10.00">errno.h</text>
</a>
</g>
</g>
<!-- Node14&#45;&gt;Node15 -->
<g id="edge29_Node000014_Node000015" class="edge">
<title>Node14&#45;&gt;Node15</title>
<g id="a_edge29_Node000014_Node000015"><a xlink:title=" ">
<path fill="none" stroke="#63b8ff" d="M1405.75,-109.98C1395.2,-102 1379.2,-89.88 1366.56,-80.31"/>
<polygon fill="#63b8ff" stroke="#63b8ff" points="1368.54,-77.42 1358.45,-74.17 1364.31,-83 1368.54,-77.42"/>
</a>
</g>
</g>
<!-- Node16 -->
<g id="Node000016" class="node">
<title>Node16</title>
<g id="a_Node000016"><a xlink:title=" ">
<polygon fill="#e0e0e0" stroke="#999999" points="1222,-74 1178,-74 1178,-55 1222,-55 1222,-74"/>
<text text-anchor="middle" x="1200" y="-62" font-family="Helvetica,sans-Serif" font-size="10.00">fcntl.h</text>
</a>
</g>
</g>
<!-- Node14&#45;&gt;Node16 -->
<g id="edge30_Node000014_Node000016" class="edge">
<title>Node14&#45;&gt;Node16</title>
<g id="a_edge30_Node000014_Node000016"><a xlink:title=" ">
<path fill="none" stroke="#63b8ff" d="M1380.43,-109.97C1343.07,-101.2 1283.4,-87.01 1232,-74 1231.9,-73.97 1231.8,-73.95 1231.7,-73.92"/>
<polygon fill="#63b8ff" stroke="#63b8ff" points="1232.57,-70.53 1222.02,-71.42 1230.82,-77.31 1232.57,-70.53"/>
</a>
</g>
</g>
<!-- Node17 -->
<g id="Node000017" class="node">
<title>Node17</title>
<g id="a_Node000017"><a xlink:title=" ">
<polygon fill="#e0e0e0" stroke="#999999" points="1305.5,-74 1240.5,-74 1240.5,-55 1305.5,-55 1305.5,-74"/>
<text text-anchor="middle" x="1273" y="-62" font-family="Helvetica,sans-Serif" font-size="10.00">netinet/in.h</text>
</a>
</g>
</g>
<!-- Node14&#45;&gt;Node17 -->
<g id="edge31_Node000014_Node000017" class="edge">
<title>Node14&#45;&gt;Node17</title>
<g id="a_edge31_Node000014_Node000017"><a xlink:title=" ">
<path fill="none" stroke="#63b8ff" d="M1393.86,-109.98C1370.18,-101.27 1333.13,-87.63 1306.29,-77.75"/>
<polygon fill="#63b8ff" stroke="#63b8ff" points="1307.15,-74.34 1296.56,-74.17 1304.73,-80.91 1307.15,-74.34"/>
</a>
</g>
</g>
<!-- Node18 -->
<g id="Node000018" class="node">
<title>Node18</title>
<g id="a_Node000018"><a xlink:title=" ">
<polygon fill="#e0e0e0" stroke="#999999" points="1459.5,-74 1388.5,-74 1388.5,-55 1459.5,-55 1459.5,-74"/>
<text text-anchor="middle" x="1424" y="-62" font-family="Helvetica,sans-Serif" font-size="10.00">netinet/tcp.h</text>
</a>
</g>
</g>
<!-- Node14&#45;&gt;Node18 -->
<g id="edge32_Node000014_Node000018" class="edge">
<title>Node14&#45;&gt;Node18</title>
<g id="a_edge32_Node000014_Node000018"><a xlink:title=" ">
<path fill="none" stroke="#63b8ff" d="M1418.16,-109.75C1419.07,-102.8 1420.39,-92.85 1421.54,-84.13"/>
<polygon fill="#63b8ff" stroke="#63b8ff" points="1425.03,-84.46 1422.87,-74.09 1418.09,-83.54 1425.03,-84.46"/>
</a>
</g>
</g>
<!-- Node19 -->
<g id="Node000019" class="node">
<title>Node19</title>
<g id="a_Node000019"><a xlink:title=" ">
<polygon fill="#e0e0e0" stroke="#999999" points="1524,-74 1478,-74 1478,-55 1524,-55 1524,-74"/>
<text text-anchor="middle" x="1501" y="-62" font-family="Helvetica,sans-Serif" font-size="10.00">stdio.h</text>
</a>
</g>
</g>
<!-- Node14&#45;&gt;Node19 -->
<g id="edge34_Node000014_Node000019" class="edge">
<title>Node14&#45;&gt;Node19</title>
<g id="a_edge34_Node000014_Node000019"><a xlink:title=" ">
<path fill="none" stroke="#63b8ff" d="M1430.5,-109.98C1443.4,-101.84 1463.1,-89.41 1478.4,-79.76"/>
<polygon fill="#63b8ff" stroke="#63b8ff" points="1480.67,-82.47 1487.26,-74.17 1476.93,-76.55 1480.67,-82.47"/>
</a>
</g>
</g>
<!-- Node20 -->
<g id="Node000020" class="node">
<title>Node20</title>
<g id="a_Node000020"><a xlink:title=" ">
<polygon fill="#e0e0e0" stroke="#999999" points="1159.5,-74 1086.5,-74 1086.5,-55 1159.5,-55 1159.5,-74"/>
<text text-anchor="middle" x="1123" y="-62" font-family="Helvetica,sans-Serif" font-size="10.00">sys/socket.h</text>
</a>
</g>
</g>
<!-- Node14&#45;&gt;Node20 -->
<g id="edge35_Node000014_Node000020" class="edge">
<title>Node14&#45;&gt;Node20</title>
<g id="a_edge35_Node000014_Node000020"><a xlink:title=" ">
<path fill="none" stroke="#63b8ff" d="M1368.98,-109.96C1321.16,-101.44 1245.36,-87.88 1169.83,-74.14"/>
<polygon fill="#63b8ff" stroke="#63b8ff" points="1170.12,-70.64 1159.66,-72.29 1168.87,-77.53 1170.12,-70.64"/>
</a>
</g>
</g>
<!-- Node21 -->
<g id="Node000021" class="node">
<title>Node21</title>
<g id="a_Node000021"><a xlink:title=" ">
<polygon fill="#e0e0e0" stroke="#999999" points="1598,-74 1542,-74 1542,-55 1598,-55 1598,-74"/>
<text text-anchor="middle" x="1570" y="-62" font-family="Helvetica,sans-Serif" font-size="10.00">sys/uio.h</text>
</a>
</g>
</g>
<!-- Node14&#45;&gt;Node21 -->
<g id="edge36_Node000014_Node000021" class="edge">
<title>Node14&#45;&gt;Node21</title>
<g id="a_edge36_Node000014_Node000021"><a xlink:title=" ">
<path fill="none" stroke="#63b8ff" d="M1441.58,-109.98C1467.05,-101.16 1507.04,-87.31 1535.63,-77.41"/>
<polygon fill="#63b8ff" stroke="#63b8ff" points="1536.92,-80.66 1545.23,-74.08 1534.63,-74.05 1536.92,-80.66"/>
</a>
</g>
</g>
<!-- Node22 -->
<g id="Node000022" class="node">
<title>Node22</title>
<g id="a_Node000022"><a xlink:title=" ">
<polygon fill="#e0e0e0" stroke="#999999" points="1667.5,-74 1616.5,-74 1616.5,-55 1667.5,-55 1667.5,-74"/>
<text text-anchor="middle" x="1642" y="-62" font-family="Helvetica,sans-Serif" font-size="10.00">unistd.h</text>
</a>
</g>
</g>
<!-- Node14&#45;&gt;Node22 -->
<g id="edge37_Node000014_Node000022" class="edge">
<title>Node14&#45;&gt;Node22</title>
<g id="a_edge37_Node000014_Node000022"><a xlink:title=" ">
<path fill="none" stroke="#63b8ff" d="M1453.8,-109.97C1490.07,-101.55 1547.34,-88.2 1606.5,-74.1"/>
<polygon fill="#63b8ff" stroke="#63b8ff" points="1607.48,-77.47 1616.39,-71.74 1605.85,-70.66 1607.48,-77.47"/>
</a>
</g>
</g>
<!-- Node23&#45;&gt;Node2 -->
<g id="edge41_Node000023_Node000002" class="edge">
<title>Node23&#45;&gt;Node2</title>
<g id="a_edge41_Node000023_Node000002"><a xlink:title=" ">
<path fill="none" stroke="#63b8ff" d="M628.93,-164.9C597.79,-151.21 533.76,-124.51 477,-110 381.58,-85.61 265.72,-73.29 208.13,-68.29"/>
<polygon fill="#63b8ff" stroke="#63b8ff" points="208.33,-64.8 198.07,-67.44 207.74,-71.77 208.33,-64.8"/>
</a>
</g>
</g>
<!-- Node23&#45;&gt;Node3 -->
<g id="edge42_Node000023_Node000003" class="edge">
<title>Node23&#45;&gt;Node3</title>
<g id="a_edge42_Node000023_Node000003"><a xlink:title=" ">
<path fill="none" stroke="#63b8ff" d="M599.96,-166.26C550.3,-158.54 470.33,-145.44 391.89,-129.05"/>
<polygon fill="#63b8ff" stroke="#63b8ff" points="392.34,-125.57 381.83,-126.93 390.9,-132.42 392.34,-125.57"/>
</a>
</g>
</g>
<!-- Node23&#45;&gt;Node6 -->
<g id="edge39_Node000023_Node000006" class="edge">
<title>Node23&#45;&gt;Node6</title>
<g id="a_edge39_Node000023_Node000006"><a xlink:title=" ">
<path fill="none" stroke="#63b8ff" d="M644.89,-164.66C638.68,-147.01 624.63,-107.09 616.38,-83.64"/>
<polygon fill="#63b8ff" stroke="#63b8ff" points="619.67,-82.43 613.05,-74.16 613.06,-84.75 619.67,-82.43"/>
</a>
</g>
</g>
<!-- Node23&#45;&gt;Node20 -->
<g id="edge43_Node000023_Node000020" class="edge">
<title>Node23&#45;&gt;Node20</title>
<g id="a_edge43_Node000023_Node000020"><a xlink:title=" ">
<path fill="none" stroke="#63b8ff" d="M653.08,-164.67C661.83,-150.38 681.22,-122.54 706,-110 769.79,-77.72 981.11,-68.78 1076.07,-66.36"/>
<polygon fill="#63b8ff" stroke="#63b8ff" points="1076.34,-69.86 1086.25,-66.12 1076.17,-62.86 1076.34,-69.86"/>
</a>
</g>
</g>
<!-- Node24 -->
<g id="Node000024" class="node">
<title>Node24</title>
<g id="a_Node000024"><a xlink:title=" ">
<polygon fill="#e0e0e0" stroke="#999999" points="763.5,-129 714.5,-129 714.5,-110 763.5,-110 763.5,-129"/>
<text text-anchor="middle" x="739" y="-117" font-family="Helvetica,sans-Serif" font-size="10.00">netdb.h</text>
</a>
</g>
</g>
<!-- Node23&#45;&gt;Node24 -->
<g id="edge40_Node000023_Node000024" class="edge">
<title>Node23&#45;&gt;Node24</title>
<g id="a_edge40_Node000023_Node000024"><a xlink:title=" ">
<path fill="none" stroke="#63b8ff" d="M662.62,-164.98C676.86,-156.69 698.75,-143.94 715.45,-134.22"/>
<polygon fill="#63b8ff" stroke="#63b8ff" points="717.23,-137.23 724.11,-129.17 713.71,-131.18 717.23,-137.23"/>
</a>
</g>
</g>
<!-- Node25&#45;&gt;Node4 -->
<g id="edge52_Node000025_Node000004" class="edge">
<title>Node25&#45;&gt;Node4</title>
<g id="a_edge52_Node000025_Node000004"><a xlink:title=" ">
<path fill="none" stroke="#63b8ff" d="M862.8,-166.6C761.19,-155.67 565.88,-134.68 478.34,-125.27"/>
<polygon fill="#63b8ff" stroke="#63b8ff" points="478.53,-121.77 468.22,-124.18 477.78,-128.73 478.53,-121.77"/>
</a>
</g>
</g>
<!-- Node25&#45;&gt;Node5 -->
<g id="edge54_Node000025_Node000005" class="edge">
<title>Node25&#45;&gt;Node5</title>
<g id="a_edge54_Node000025_Node000005"><a xlink:title=" ">
<path fill="none" stroke="#63b8ff" d="M862.87,-170.28C739.07,-163.89 458.55,-148.5 223,-129 211.16,-128.02 198.4,-126.8 186.51,-125.59"/>
<polygon fill="#63b8ff" stroke="#63b8ff" points="186.64,-122.08 176.33,-124.53 185.92,-129.04 186.64,-122.08"/>
</a>
</g>
</g>
<!-- Node25&#45;&gt;Node6 -->
<g id="edge55_Node000025_Node000006" class="edge">
<title>Node25&#45;&gt;Node6</title>
<g id="a_edge55_Node000025_Node000006"><a xlink:title=" ">
<path fill="none" stroke="#63b8ff" d="M902.73,-164.97C879.07,-156.47 842.19,-142.74 811,-129 793.72,-121.39 790.64,-116.74 773,-110 735.38,-95.62 691.23,-83.87 658.37,-76.06"/>
<polygon fill="#63b8ff" stroke="#63b8ff" points="659.09,-72.63 648.56,-73.76 657.5,-79.45 659.09,-72.63"/>
</a>
</g>
</g>
<!-- Node25&#45;&gt;Node14 -->
<g id="edge56_Node000025_Node000014" class="edge">
<title>Node25&#45;&gt;Node14</title>
<g id="a_edge56_Node000025_Node000014"><a xlink:title=" ">
<path fill="none" stroke="#63b8ff" d="M991.06,-166.57C1085.2,-156.39 1259.87,-137.5 1353.62,-127.36"/>
<polygon fill="#63b8ff" stroke="#63b8ff" points="1354.25,-130.81 1363.81,-126.25 1353.5,-123.85 1354.25,-130.81"/>
</a>
</g>
</g>
<!-- Node25&#45;&gt;Node16 -->
<g id="edge47_Node000025_Node000016" class="edge">
<title>Node25&#45;&gt;Node16</title>
<g id="a_edge47_Node000025_Node000016"><a xlink:title=" ">
<path fill="none" stroke="#63b8ff" d="M991.08,-168.26C1032.82,-162.79 1087.42,-151.65 1131,-129 1153.46,-117.33 1174.09,-96.41 1186.83,-81.78"/>
<polygon fill="#63b8ff" stroke="#63b8ff" points="1189.61,-83.92 1193.37,-74.01 1184.25,-79.41 1189.61,-83.92"/>
</a>
</g>
</g>
<!-- Node25&#45;&gt;Node17 -->
<g id="edge49_Node000025_Node000017" class="edge">
<title>Node25&#45;&gt;Node17</title>
<g id="a_edge49_Node000025_Node000017"><a xlink:title=" ">
<path fill="none" stroke="#63b8ff" d="M991.19,-166.63C1038.36,-160.28 1103.47,-148.75 1158,-129 1192.87,-116.37 1229.84,-94.17 1252.17,-79.65"/>
<polygon fill="#63b8ff" stroke="#63b8ff" points="1254.11,-82.56 1260.52,-74.13 1250.25,-76.72 1254.11,-82.56"/>
</a>
</g>
</g>
<!-- Node25&#45;&gt;Node20 -->
<g id="edge50_Node000025_Node000020" class="edge">
<title>Node25&#45;&gt;Node20</title>
<g id="a_edge50_Node000025_Node000020"><a xlink:title=" ">
<path fill="none" stroke="#63b8ff" d="M991.4,-165.77C1038.36,-158.77 1096.55,-146.8 1113,-129 1124,-117.1 1125.74,-98.27 1125.18,-84.21"/>
<polygon fill="#63b8ff" stroke="#63b8ff" points="1128.67,-83.85 1124.38,-74.16 1121.69,-84.41 1128.67,-83.85"/>
</a>
</g>
</g>
<!-- Node25&#45;&gt;Node24 -->
<g id="edge48_Node000025_Node000024" class="edge">
<title>Node25&#45;&gt;Node24</title>
<g id="a_edge48_Node000025_Node000024"><a xlink:title=" ">
<path fill="none" stroke="#63b8ff" d="M896.79,-164.98C863.16,-155.5 808.9,-140.21 773.59,-130.25"/>
<polygon fill="#63b8ff" stroke="#63b8ff" points="774.3,-126.82 763.73,-127.47 772.4,-133.55 774.3,-126.82"/>
</a>
</g>
</g>
<!-- Node26 -->
<g id="Node000026" class="node">
<title>Node26</title>
<g id="a_Node000026"><a xlink:title=" ">
<polygon fill="#e0e0e0" stroke="#999999" points="1029.5,-129 972.5,-129 972.5,-110 1029.5,-110 1029.5,-129"/>
<text text-anchor="middle" x="1001" y="-117" font-family="Helvetica,sans-Serif" font-size="10.00">pthread.h</text>
</a>
</g>
</g>
<!-- Node25&#45;&gt;Node26 -->
<g id="edge45_Node000025_Node000026" class="edge">
<title>Node25&#45;&gt;Node26</title>
<g id="a_edge45_Node000025_Node000026"><a xlink:title=" ">
<path fill="none" stroke="#63b8ff" d="M938.89,-164.98C950.15,-156.92 967.29,-144.65 980.71,-135.03"/>
<polygon fill="#63b8ff" stroke="#63b8ff" points="982.8,-137.84 988.89,-129.17 978.73,-132.15 982.8,-137.84"/>
</a>
</g>
</g>
<!-- Node27 -->
<g id="Node000027" class="node">
<title>Node27</title>
<g id="a_Node000027"><a xlink:title=" ">
<polygon fill="#e0e0e0" stroke="#999999" points="1104,-129 1048,-129 1048,-110 1104,-110 1104,-129"/>
<text text-anchor="middle" x="1076" y="-117" font-family="Helvetica,sans-Serif" font-size="10.00">stdbool.h</text>
</a>
</g>
</g>
<!-- Node25&#45;&gt;Node27 -->
<g id="edge46_Node000025_Node000027" class="edge">
<title>Node25&#45;&gt;Node27</title>
<g id="a_edge46_Node000025_Node000027"><a xlink:title=" ">
<path fill="none" stroke="#63b8ff" d="M950.94,-164.98C975.56,-156.23 1014.12,-142.51 1041.92,-132.62"/>
<polygon fill="#63b8ff" stroke="#63b8ff" points="1043.38,-135.82 1051.62,-129.17 1041.03,-129.22 1043.38,-135.82"/>
</a>
</g>
</g>
<!-- Node28 -->
<g id="Node000028" class="node">
<title>Node28</title>
<g id="a_Node000028"><a xlink:title=" ">
<polygon fill="#e0e0e0" stroke="#999999" points="882,-129 820,-129 820,-110 882,-110 882,-129"/>
<text text-anchor="middle" x="851" y="-117" font-family="Helvetica,sans-Serif" font-size="10.00">sys/time.h</text>
</a>
</g>
</g>
<!-- Node25&#45;&gt;Node28 -->
<g id="edge51_Node000025_Node000028" class="edge">
<title>Node25&#45;&gt;Node28</title>
<g id="a_edge51_Node000025_Node000028"><a xlink:title=" ">
<path fill="none" stroke="#63b8ff" d="M914.79,-164.98C903.22,-156.92 885.62,-144.65 871.84,-135.03"/>
<polygon fill="#63b8ff" stroke="#63b8ff" points="873.64,-132.02 863.43,-129.17 869.63,-137.76 873.64,-132.02"/>
</a>
</g>
</g>
<!-- Node29 -->
<g id="Node000029" class="node">
<title>Node29</title>
<g id="a_Node000029"><a xlink:title=" ">
<polygon fill="#e0e0e0" stroke="#999999" points="954,-129 900,-129 900,-110 954,-110 954,-129"/>
<text text-anchor="middle" x="927" y="-117" font-family="Helvetica,sans-Serif" font-size="10.00">sys/un.h</text>
</a>
</g>
</g>
<!-- Node25&#45;&gt;Node29 -->
<g id="edge53_Node000025_Node000029" class="edge">
<title>Node25&#45;&gt;Node29</title>
<g id="a_edge53_Node000025_Node000029"><a xlink:title=" ">
<path fill="none" stroke="#63b8ff" d="M927,-164.75C927,-157.8 927,-147.85 927,-139.13"/>
<polygon fill="#63b8ff" stroke="#63b8ff" points="930.5,-139.09 927,-129.09 923.5,-139.09 930.5,-139.09"/>
</a>
</g>
</g>
<!-- Node30&#45;&gt;Node5 -->
<g id="edge59_Node000030_Node000005" class="edge">
<title>Node30&#45;&gt;Node5</title>
<g id="a_edge59_Node000030_Node000005"><a xlink:title=" ">
<path fill="none" stroke="#63b8ff" d="M979.99,-335.99C857.48,-330.53 585.5,-316.29 495,-294 373.57,-264.09 346.17,-243.19 236,-184 208.34,-169.14 178.47,-148.6 159.52,-134.95"/>
<polygon fill="#63b8ff" stroke="#63b8ff" points="161.54,-132.09 151.4,-129.04 157.42,-137.75 161.54,-132.09"/>
</a>
</g>
</g>
<!-- Node30&#45;&gt;Node6 -->
<g id="edge60_Node000030_Node000006" class="edge">
<title>Node30&#45;&gt;Node6</title>
<g id="a_edge60_Node000030_Node000006"><a xlink:title=" ">
<path fill="none" stroke="#63b8ff" d="M1040.46,-329.82C1039.59,-309.32 1039.65,-256.84 1060,-220 1071.72,-198.77 1085.72,-202.83 1101,-184 1123.47,-156.31 1156.12,-136.26 1132,-110 1100.39,-75.58 783.13,-67.75 659.22,-65.99"/>
<polygon fill="#63b8ff" stroke="#63b8ff" points="658.93,-62.49 648.89,-65.86 658.84,-69.49 658.93,-62.49"/>
</a>
</g>
</g>
<!-- Node31 -->
<g id="Node000031" class="node">
<title>Node31</title>
<g id="a_Node000031"><a xlink:href="SocketTLS_8h.html" target="_top" xlink:title="High&#45;level TLS/SSL integration for secure Socket I/O with TLS 1.3 enforcement.">
<polygon fill="white" stroke="#666666" points="1012.5,-294 925.5,-294 925.5,-275 1012.5,-275 1012.5,-294"/>
<text text-anchor="middle" x="969" y="-282" font-family="Helvetica,sans-Serif" font-size="10.00">tls/SocketTLS.h</text>
</a>
</g>
</g>
<!-- Node30&#45;&gt;Node31 -->
<g id="edge61_Node000030_Node000031" class="edge">
<title>Node30&#45;&gt;Node31</title>
<g id="a_edge61_Node000030_Node000031"><a xlink:title=" ">
<path fill="none" stroke="#63b8ff" d="M1029.43,-329.98C1018.58,-322 1002.12,-309.88 989.12,-300.31"/>
<polygon fill="#63b8ff" stroke="#63b8ff" points="990.91,-297.28 980.78,-294.17 986.76,-302.92 990.91,-297.28"/>
</a>
</g>
</g>
<!-- Node32 -->
<g id="Node000032" class="node">
<title>Node32</title>
<g id="a_Node000032"><a xlink:href="SocketTLSConfig_8h.html" target="_top" xlink:title="TLS configuration constants, structure, and secure defaults.">
<polygon fill="white" stroke="#666666" points="1341,-294 1225,-294 1225,-275 1341,-275 1341,-294"/>
<text text-anchor="middle" x="1283" y="-282" font-family="Helvetica,sans-Serif" font-size="10.00">tls/SocketTLSConfig.h</text>
</a>
</g>
</g>
<!-- Node30&#45;&gt;Node32 -->
<g id="edge64_Node000030_Node000032" class="edge">
<title>Node30&#45;&gt;Node32</title>
<g id="a_edge64_Node000030_Node000032"><a xlink:title=" ">
<path fill="none" stroke="#63b8ff" d="M1079.88,-329.98C1121.74,-320.82 1188.43,-306.21 1233.88,-296.26"/>
<polygon fill="#63b8ff" stroke="#63b8ff" points="1234.79,-299.64 1243.81,-294.08 1233.3,-292.8 1234.79,-299.64"/>
</a>
</g>
</g>
<!-- Node34 -->
<g id="Node000034" class="node">
<title>Node34</title>
<g id="a_Node000034"><a xlink:title=" ">
<polygon fill="#e0e0e0" stroke="#999999" points="1143,-239 1069,-239 1069,-220 1143,-220 1143,-239"/>
<text text-anchor="middle" x="1106" y="-227" font-family="Helvetica,sans-Serif" font-size="10.00">openssl/ssl.h</text>
</a>
</g>
</g>
<!-- Node30&#45;&gt;Node34 -->
<g id="edge69_Node000030_Node000034" class="edge">
<title>Node30&#45;&gt;Node34</title>
<g id="a_edge69_Node000030_Node000034"><a xlink:title=" ">
<path fill="none" stroke="#63b8ff" d="M1102.04,-334.53C1129.93,-329.29 1160.58,-317.97 1178,-294 1192.94,-273.44 1164.53,-254.84 1139.11,-243.16"/>
<polygon fill="#63b8ff" stroke="#63b8ff" points="1140.18,-239.81 1129.61,-239.03 1137.39,-246.23 1140.18,-239.81"/>
</a>
</g>
</g>
<!-- Node37 -->
<g id="Node000037" class="node">
<title>Node37</title>
<g id="a_Node000037"><a xlink:title=" ">
<polygon fill="#e0e0e0" stroke="#999999" points="1169,-294 1069,-294 1069,-275 1169,-275 1169,-294"/>
<text text-anchor="middle" x="1119" y="-282" font-family="Helvetica,sans-Serif" font-size="10.00">openssl/x509_vfy.h</text>
</a>
</g>
</g>
<!-- Node30&#45;&gt;Node37 -->
<g id="edge70_Node000030_Node000037" class="edge">
<title>Node30&#45;&gt;Node37</title>
<g id="a_edge70_Node000030_Node000037"><a xlink:title=" ">
<path fill="none" stroke="#63b8ff" d="M1053.53,-329.98C1065.4,-321.92 1083.46,-309.65 1097.61,-300.03"/>
<polygon fill="#63b8ff" stroke="#63b8ff" points="1099.94,-302.69 1106.24,-294.17 1096,-296.9 1099.94,-302.69"/>
</a>
</g>
</g>
<!-- Node31&#45;&gt;Node6 -->
<g id="edge62_Node000031_Node000006" class="edge">
<title>Node31&#45;&gt;Node6</title>
<g id="a_edge62_Node000031_Node000006"><a xlink:title=" ">
<path fill="none" stroke="#63b8ff" d="M976.83,-274.83C987.94,-262.56 1008.91,-239.47 1027,-220 1069.24,-174.54 1154.9,-155.77 1113,-110 1082.69,-76.9 779.01,-68.28 658.71,-66.16"/>
<polygon fill="#63b8ff" stroke="#63b8ff" points="658.72,-62.66 648.67,-65.99 658.61,-69.65 658.72,-62.66"/>
</a>
</g>
</g>
<!-- Node31&#45;&gt;Node13 -->
<g id="edge63_Node000031_Node000013" class="edge">
<title>Node31&#45;&gt;Node13</title>
<g id="a_edge63_Node000031_Node000013"><a xlink:title=" ">
<path fill="none" stroke="#63b8ff" d="M929.64,-274.98C887.26,-265.82 819.74,-251.21 773.72,-241.26"/>
<polygon fill="#63b8ff" stroke="#63b8ff" points="774.19,-237.78 763.67,-239.08 772.71,-244.62 774.19,-237.78"/>
</a>
</g>
</g>
<!-- Node33 -->
<g id="Node000033" class="node">
<title>Node33</title>
<g id="a_Node000033"><a xlink:title=" ">
<polygon fill="#e0e0e0" stroke="#999999" points="1345,-239 1273,-239 1273,-220 1345,-220 1345,-239"/>
<text text-anchor="middle" x="1309" y="-227" font-family="Helvetica,sans-Serif" font-size="10.00">openssl/err.h</text>
</a>
</g>
</g>
<!-- Node32&#45;&gt;Node33 -->
<g id="edge65_Node000032_Node000033" class="edge">
<title>Node32&#45;&gt;Node33</title>
<g id="a_edge65_Node000032_Node000033"><a xlink:title=" ">
<path fill="none" stroke="#63b8ff" d="M1287.29,-274.75C1290.81,-267.57 1295.91,-257.18 1300.28,-248.27"/>
<polygon fill="#63b8ff" stroke="#63b8ff" points="1303.52,-249.61 1304.79,-239.09 1297.24,-246.53 1303.52,-249.61"/>
</a>
</g>
</g>
<!-- Node32&#45;&gt;Node34 -->
<g id="edge66_Node000032_Node000034" class="edge">
<title>Node32&#45;&gt;Node34</title>
<g id="a_edge66_Node000032_Node000034"><a xlink:title=" ">
<path fill="none" stroke="#63b8ff" d="M1254.56,-274.98C1224.72,-266.05 1177.62,-251.94 1144.47,-242.02"/>
<polygon fill="#63b8ff" stroke="#63b8ff" points="1145.24,-238.6 1134.66,-239.08 1143.24,-245.3 1145.24,-238.6"/>
</a>
</g>
</g>
<!-- Node35 -->
<g id="Node000035" class="node">
<title>Node35</title>
<g id="a_Node000035"><a xlink:title=" ">
<polygon fill="#e0e0e0" stroke="#999999" points="1446.5,-239 1363.5,-239 1363.5,-220 1446.5,-220 1446.5,-239"/>
<text text-anchor="middle" x="1405" y="-227" font-family="Helvetica,sans-Serif" font-size="10.00">openssl/x509.h</text>
</a>
</g>
</g>
<!-- Node32&#45;&gt;Node35 -->
<g id="edge67_Node000032_Node000035" class="edge">
<title>Node32&#45;&gt;Node35</title>
<g id="a_edge67_Node000032_Node000035"><a xlink:title=" ">
<path fill="none" stroke="#63b8ff" d="M1302.6,-274.98C1322.32,-266.42 1352.95,-253.11 1375.58,-243.28"/>
<polygon fill="#63b8ff" stroke="#63b8ff" points="1377.26,-246.37 1385.04,-239.17 1374.48,-239.94 1377.26,-246.37"/>
</a>
</g>
</g>
<!-- Node36 -->
<g id="Node000036" class="node">
<title>Node36</title>
<g id="a_Node000036"><a xlink:title=" ">
<polygon fill="#e0e0e0" stroke="#999999" points="1254.5,-239 1161.5,-239 1161.5,-220 1254.5,-220 1254.5,-239"/>
<text text-anchor="middle" x="1208" y="-227" font-family="Helvetica,sans-Serif" font-size="10.00">openssl/x509v3.h</text>
</a>
</g>
</g>
<!-- Node32&#45;&gt;Node36 -->
<g id="edge68_Node000032_Node000036" class="edge">
<title>Node32&#45;&gt;Node36</title>
<g id="a_edge68_Node000032_Node000036"><a xlink:title=" ">
<path fill="none" stroke="#63b8ff" d="M1270.95,-274.98C1259.54,-266.92 1242.17,-254.65 1228.57,-245.03"/>
<polygon fill="#63b8ff" stroke="#63b8ff" points="1230.46,-242.08 1220.27,-239.17 1226.42,-247.8 1230.46,-242.08"/>
</a>
</g>
</g>
</g>
</svg>
