<?xml version="1.0" encoding="UTF-8" standalone="no"?>
<!DOCTYPE svg PUBLIC "-//W3C//DTD SVG 1.1//EN"
 "http://www.w3.org/Graphics/SVG/1.1/DTD/svg11.dtd">
<!-- Generated by graphviz version 2.43.0 (0)
 -->
<!-- Title: SocketConfig.h Pages: 1 -->
<svg width="1534pt" height="357pt"
 viewBox="0.00 0.00 1534.44 357.00" xmlns="http://www.w3.org/2000/svg" xmlns:xlink="http://www.w3.org/1999/xlink">
<g id="graph0" class="graph" transform="scale(1 1) rotate(0) translate(4 353)">
<title>SocketConfig.h</title>
<!-- Node1 -->
<g id="Node000001" class="node">
<title>Node1</title>
<g id="a_Node000001"><a xlink:title="Compile&#45;time configuration and platform detection for the socket library.">
<polygon fill="#999999" stroke="#666666" points="1096.5,-349 1012.5,-349 1012.5,-330 1096.5,-330 1096.5,-349"/>
<text text-anchor="middle" x="1054.5" y="-337" font-family="Helvetica,sans-Serif" font-size="10.00">SocketConfig.h</text>
</a>
</g>
</g>
<!-- Node2 -->
<g id="Node000002" class="node">
<title>Node2</title>
<g id="a_Node000002"><a xlink:href="Socket_8h.html" target="_top" xlink:title="High&#45;level TCP/IP and Unix domain socket interface.">
<polygon fill="white" stroke="#666666" points="921.5,-239 865.5,-239 865.5,-220 921.5,-220 921.5,-239"/>
<text text-anchor="middle" x="893.5" y="-227" font-family="Helvetica,sans-Serif" font-size="10.00">Socket.h</text>
</a>
</g>
</g>
<!-- Node1&#45;&gt;Node2 -->
<g id="edge1_Node000001_Node000002" class="edge">
<title>Node1&#45;&gt;Node2</title>
<g id="a_edge1_Node000001_Node000002"><a xlink:title=" ">
<path fill="none" stroke="#63b8ff" d="M1002.19,-331.32C975.33,-325.28 943.68,-314.22 921.5,-294 905.12,-279.06 897.82,-252.79 895.01,-239.2"/>
<polygon fill="#63b8ff" stroke="#63b8ff" points="1001.72,-334.8 1012.22,-333.4 1003.14,-327.94 1001.72,-334.8"/>
</a>
</g>
</g>
<!-- Node26 -->
<g id="Node000026" class="node">
<title>Node26</title>
<g id="a_Node000026"><a xlink:href="SocketCommon_8h.html" target="_top" xlink:title="Common utilities shared between Socket and SocketDgram modules.">
<polygon fill="white" stroke="#666666" points="1026,-294 931,-294 931,-275 1026,-275 1026,-294"/>
<text text-anchor="middle" x="978.5" y="-282" font-family="Helvetica,sans-Serif" font-size="10.00">SocketCommon.h</text>
</a>
</g>
</g>
<!-- Node1&#45;&gt;Node26 -->
<g id="edge41_Node000001_Node000026" class="edge">
<title>Node1&#45;&gt;Node26</title>
<g id="a_edge41_Node000001_Node000026"><a xlink:title=" ">
<path fill="none" stroke="#63b8ff" d="M1033.92,-324.15C1020.19,-314.57 1002.57,-302.29 990.93,-294.17"/>
<polygon fill="#63b8ff" stroke="#63b8ff" points="1032.08,-327.14 1042.29,-329.98 1036.09,-321.39 1032.08,-327.14"/>
</a>
</g>
</g>
<!-- Node29 -->
<g id="Node000029" class="node">
<title>Node29</title>
<g id="a_Node000029"><a xlink:href="SocketSYNProtect_8h.html" target="_top" xlink:title="SYN flood protection using IP reputation and adaptive rate limiting.">
<polygon fill="white" stroke="#666666" points="1483.5,-239 1375.5,-239 1375.5,-220 1483.5,-220 1483.5,-239"/>
<text text-anchor="middle" x="1429.5" y="-227" font-family="Helvetica,sans-Serif" font-size="10.00">SocketSYNProtect.h</text>
</a>
</g>
</g>
<!-- Node1&#45;&gt;Node29 -->
<g id="edge45_Node000001_Node000029" class="edge">
<title>Node1&#45;&gt;Node29</title>
<g id="a_edge45_Node000001_Node000029"><a xlink:title=" ">
<path fill="none" stroke="#63b8ff" d="M1054.88,-319.64C1056.25,-305.18 1060.61,-285.91 1073.5,-275 1096.09,-255.89 1281.25,-240.63 1375.22,-234.04"/>
<polygon fill="#63b8ff" stroke="#63b8ff" points="1051.37,-319.78 1054.32,-329.95 1058.36,-320.16 1051.37,-319.78"/>
</a>
</g>
</g>
<!-- Node30 -->
<g id="Node000030" class="node">
<title>Node30</title>
<g id="a_Node000030"><a xlink:href="SocketSecurity_8h.html" target="_top" xlink:title="Centralized security configuration, limits, and validation utilities.">
<polygon fill="white" stroke="#666666" points="1172.5,-294 1082.5,-294 1082.5,-275 1172.5,-275 1172.5,-294"/>
<text text-anchor="middle" x="1127.5" y="-282" font-family="Helvetica,sans-Serif" font-size="10.00">SocketSecurity.h</text>
</a>
</g>
</g>
<!-- Node1&#45;&gt;Node30 -->
<g id="edge47_Node000001_Node000030" class="edge">
<title>Node1&#45;&gt;Node30</title>
<g id="a_edge47_Node000001_Node000030"><a xlink:title=" ">
<path fill="none" stroke="#63b8ff" d="M1074.64,-323.88C1087.78,-314.34 1104.48,-302.21 1115.56,-294.17"/>
<polygon fill="#63b8ff" stroke="#63b8ff" points="1072.26,-321.28 1066.23,-329.98 1076.38,-326.94 1072.26,-321.28"/>
</a>
</g>
</g>
<!-- Node31 -->
<g id="Node000031" class="node">
<title>Node31</title>
<g id="a_Node000031"><a xlink:href="SocketUtil_8h.html" target="_top" xlink:title="Consolidated utility header for logging, metrics, events, and error handling.">
<polygon fill="white" stroke="#666666" points="1262,-294 1191,-294 1191,-275 1262,-275 1262,-294"/>
<text text-anchor="middle" x="1226.5" y="-282" font-family="Helvetica,sans-Serif" font-size="10.00">SocketUtil.h</text>
</a>
</g>
</g>
<!-- Node1&#45;&gt;Node31 -->
<g id="edge48_Node000001_Node000031" class="edge">
<title>Node1&#45;&gt;Node31</title>
<g id="a_edge48_Node000001_Node000031"><a xlink:title=" ">
<path fill="none" stroke="#63b8ff" d="M1092.06,-326.93C1124.18,-317.03 1169.69,-303.01 1198.65,-294.08"/>
<polygon fill="#63b8ff" stroke="#63b8ff" points="1090.66,-323.69 1082.13,-329.98 1092.72,-330.38 1090.66,-323.69"/>
</a>
</g>
</g>
<!-- Node3 -->
<g id="Node000003" class="node">
<title>Node3</title>
<g id="a_Node000003"><a xlink:href="SocketAsync_8h.html" target="_top" xlink:title="Asynchronous I/O operations using platform&#45;optimized mechanisms.">
<polygon fill="white" stroke="#666666" points="1024,-184 941,-184 941,-165 1024,-165 1024,-184"/>
<text text-anchor="middle" x="982.5" y="-172" font-family="Helvetica,sans-Serif" font-size="10.00">SocketAsync.h</text>
</a>
</g>
</g>
<!-- Node2&#45;&gt;Node3 -->
<g id="edge2_Node000002_Node000003" class="edge">
<title>Node2&#45;&gt;Node3</title>
<g id="a_edge2_Node000002_Node000003"><a xlink:title=" ">
<path fill="none" stroke="#63b8ff" d="M916.68,-214.7C932.89,-205.04 954.05,-192.44 967.94,-184.17"/>
<polygon fill="#63b8ff" stroke="#63b8ff" points="914.6,-211.86 907.8,-219.98 918.18,-217.88 914.6,-211.86"/>
</a>
</g>
</g>
<!-- Node4 -->
<g id="Node000004" class="node">
<title>Node4</title>
<g id="a_Node000004"><a xlink:href="SocketHTTP2_8h.html" target="_top" xlink:title="HTTP/2 protocol implementation (RFC 9113) with multiplexing and flow control.">
<polygon fill="white" stroke="#666666" points="1214,-184 1127,-184 1127,-165 1214,-165 1214,-184"/>
<text text-anchor="middle" x="1170.5" y="-172" font-family="Helvetica,sans-Serif" font-size="10.00">SocketHTTP2.h</text>
</a>
</g>
</g>
<!-- Node2&#45;&gt;Node4 -->
<g id="edge3_Node000002_Node000004" class="edge">
<title>Node2&#45;&gt;Node4</title>
<g id="a_edge3_Node000002_Node000004"><a xlink:title=" ">
<path fill="none" stroke="#63b8ff" d="M931.56,-221.22C982.65,-211.44 1073.2,-194.12 1126.95,-183.83"/>
<polygon fill="#63b8ff" stroke="#63b8ff" points="930.75,-217.81 921.58,-223.13 932.06,-224.68 930.75,-217.81"/>
</a>
</g>
</g>
<!-- Node5 -->
<g id="Node000005" class="node">
<title>Node5</title>
<g id="a_Node000005"><a xlink:href="SocketHTTPServer_8h.html" target="_top" xlink:title="High&#45;level HTTP server supporting HTTP/1.1 and HTTP/2 protocols.">
<polygon fill="white" stroke="#666666" points="974.5,-74 864.5,-74 864.5,-55 974.5,-55 974.5,-74"/>
<text text-anchor="middle" x="919.5" y="-62" font-family="Helvetica,sans-Serif" font-size="10.00">SocketHTTPServer.h</text>
</a>
</g>
</g>
<!-- Node2&#45;&gt;Node5 -->
<g id="edge4_Node000002_Node000005" class="edge">
<title>Node2&#45;&gt;Node5</title>
<g id="a_edge4_Node000002_Node000005"><a xlink:title=" ">
<path fill="none" stroke="#63b8ff" d="M894.35,-209.61C895.07,-196.95 896.35,-179.92 898.5,-165 903.39,-131.1 912.93,-91.44 917.26,-74.22"/>
<polygon fill="#63b8ff" stroke="#63b8ff" points="890.84,-209.67 893.83,-219.83 897.83,-210.02 890.84,-209.67"/>
</a>
</g>
</g>
<!-- Node7 -->
<g id="Node000007" class="node">
<title>Node7</title>
<g id="a_Node000007"><a xlink:href="websocket__server_8c.html" target="_top" xlink:title=" ">
<polygon fill="white" stroke="#666666" points="787.5,-19 683.5,-19 683.5,0 787.5,0 787.5,-19"/>
<text text-anchor="middle" x="735.5" y="-7" font-family="Helvetica,sans-Serif" font-size="10.00">websocket_server.c</text>
</a>
</g>
</g>
<!-- Node2&#45;&gt;Node7 -->
<g id="edge40_Node000002_Node000007" class="edge">
<title>Node2&#45;&gt;Node7</title>
<g id="a_edge40_Node000002_Node000007"><a xlink:title=" ">
<path fill="none" stroke="#63b8ff" d="M855.22,-227.88C806.2,-225.68 719.8,-216.94 654.5,-184 622.49,-167.85 609.8,-161.87 595.5,-129 571.37,-73.52 660.18,-35.12 707.57,-19"/>
<polygon fill="#63b8ff" stroke="#63b8ff" points="855.26,-231.39 865.39,-228.27 855.53,-224.39 855.26,-231.39"/>
</a>
</g>
</g>
<!-- Node8 -->
<g id="Node000008" class="node">
<title>Node8</title>
<g id="a_Node000008"><a xlink:href="SocketHappyEyeballs_8h.html" target="_top" xlink:title="Happy Eyeballs (RFC 8305) implementation for fast dual&#45;stack connections.">
<polygon fill="white" stroke="#666666" points="808.5,-74 686.5,-74 686.5,-55 808.5,-55 808.5,-74"/>
<text text-anchor="middle" x="747.5" y="-62" font-family="Helvetica,sans-Serif" font-size="10.00">SocketHappyEyeballs.h</text>
</a>
</g>
</g>
<!-- Node2&#45;&gt;Node8 -->
<g id="edge7_Node000002_Node000008" class="edge">
<title>Node2&#45;&gt;Node8</title>
<g id="a_edge7_Node000002_Node000008"><a xlink:title=" ">
<path fill="none" stroke="#63b8ff" d="M875.71,-213.06C854.51,-194.26 818.57,-161.02 791.5,-129 775.91,-110.56 760.49,-86.66 752.71,-74.09"/>
<polygon fill="#63b8ff" stroke="#63b8ff" points="873.49,-215.78 883.31,-219.75 878.12,-210.52 873.49,-215.78"/>
</a>
</g>
</g>
<!-- Node9 -->
<g id="Node000009" class="node">
<title>Node9</title>
<g id="a_Node000009"><a xlink:href="SocketIO_8h.html" target="_top" xlink:title="Internal I/O abstraction layer for socket operations with TLS support.">
<polygon fill="white" stroke="#666666" points="1108.5,-184 1042.5,-184 1042.5,-165 1108.5,-165 1108.5,-184"/>
<text text-anchor="middle" x="1075.5" y="-172" font-family="Helvetica,sans-Serif" font-size="10.00">SocketIO.h</text>
</a>
</g>
</g>
<!-- Node2&#45;&gt;Node9 -->
<g id="edge8_Node000002_Node000009" class="edge">
<title>Node2&#45;&gt;Node9</title>
<g id="a_edge8_Node000002_Node000009"><a xlink:title=" ">
<path fill="none" stroke="#63b8ff" d="M931.17,-217.53C965.32,-207.59 1014.96,-193.13 1046.22,-184.03"/>
<polygon fill="#63b8ff" stroke="#63b8ff" points="930.16,-214.18 921.54,-220.33 932.12,-220.9 930.16,-214.18"/>
</a>
</g>
</g>
<!-- Node10 -->
<g id="Node000010" class="node">
<title>Node10</title>
<g id="a_Node000010"><a xlink:href="SocketPoll_8h.html" target="_top" xlink:title="Cross&#45;platform high&#45;level interface for monitoring multiple sockets for I/O events.">
<polygon fill="white" stroke="#666666" points="872.5,-129 800.5,-129 800.5,-110 872.5,-110 872.5,-129"/>
<text text-anchor="middle" x="836.5" y="-117" font-family="Helvetica,sans-Serif" font-size="10.00">SocketPoll.h</text>
</a>
</g>
</g>
<!-- Node2&#45;&gt;Node10 -->
<g id="edge9_Node000002_Node000010" class="edge">
<title>Node2&#45;&gt;Node10</title>
<g id="a_edge9_Node000002_Node000010"><a xlink:title=" ">
<path fill="none" stroke="#63b8ff" d="M879.49,-211.92C873.13,-203.85 865.85,-193.8 860.5,-184 850.33,-165.38 842.6,-141.55 838.9,-129.04"/>
<polygon fill="#63b8ff" stroke="#63b8ff" points="876.87,-214.25 885.9,-219.79 882.3,-209.83 876.87,-214.25"/>
</a>
</g>
</g>
<!-- Node11 -->
<g id="Node000011" class="node">
<title>Node11</title>
<g id="a_Node000011"><a xlink:href="SocketPoll__backend_8h.html" target="_top" xlink:title="Abstract interface for platform&#45;specific polling implementations.">
<polygon fill="white" stroke="#666666" points="1106.5,-74 992.5,-74 992.5,-55 1106.5,-55 1106.5,-74"/>
<text text-anchor="middle" x="1049.5" y="-62" font-family="Helvetica,sans-Serif" font-size="10.00">SocketPoll_backend.h</text>
</a>
</g>
</g>
<!-- Node2&#45;&gt;Node11 -->
<g id="edge17_Node000002_Node000011" class="edge">
<title>Node2&#45;&gt;Node11</title>
<g id="a_edge17_Node000002_Node000011"><a xlink:title=" ">
<path fill="none" stroke="#63b8ff" d="M902.15,-210.61C909.07,-197.28 919.56,-179.04 931.5,-165 964.48,-126.21 1013.51,-90.19 1036.59,-74.2"/>
<polygon fill="#63b8ff" stroke="#63b8ff" points="898.95,-209.18 897.6,-219.69 905.21,-212.32 898.95,-209.18"/>
</a>
</g>
</g>
<!-- Node12 -->
<g id="Node000012" class="node">
<title>Node12</title>
<g id="a_Node000012"><a xlink:href="SocketProxy_8h.html" target="_top" xlink:title="Proxy tunneling support for HTTP CONNECT and SOCKS protocols.">
<polygon fill="white" stroke="#666666" points="571.5,-74 491.5,-74 491.5,-55 571.5,-55 571.5,-74"/>
<text text-anchor="middle" x="531.5" y="-62" font-family="Helvetica,sans-Serif" font-size="10.00">SocketProxy.h</text>
</a>
</g>
</g>
<!-- Node2&#45;&gt;Node12 -->
<g id="edge20_Node000002_Node000012" class="edge">
<title>Node2&#45;&gt;Node12</title>
<g id="a_edge20_Node000002_Node000012"><a xlink:title=" ">
<path fill="none" stroke="#63b8ff" d="M855.09,-228.52C777.36,-227.77 605.17,-221.75 562.5,-184 529.85,-155.11 529.61,-96.5 530.81,-74.3"/>
<polygon fill="#63b8ff" stroke="#63b8ff" points="855.39,-232.03 865.41,-228.6 855.44,-225.03 855.39,-232.03"/>
</a>
</g>
</g>
<!-- Node13 -->
<g id="Node000013" class="node">
<title>Node13</title>
<g id="a_Node000013"><a xlink:href="proxy__connect_8c.html" target="_top" xlink:title=" ">
<polygon fill="white" stroke="#666666" points="486,-19 397,-19 397,0 486,0 486,-19"/>
<text text-anchor="middle" x="441.5" y="-7" font-family="Helvetica,sans-Serif" font-size="10.00">proxy_connect.c</text>
</a>
</g>
</g>
<!-- Node2&#45;&gt;Node13 -->
<g id="edge38_Node000002_Node000013" class="edge">
<title>Node2&#45;&gt;Node13</title>
<g id="a_edge38_Node000002_Node000013"><a xlink:title=" ">
<path fill="none" stroke="#63b8ff" d="M855.21,-227.78C775.5,-225.63 594.95,-217.12 544.5,-184 512.44,-162.95 459.85,-50.94 445.32,-19.01"/>
<polygon fill="#63b8ff" stroke="#63b8ff" points="855.23,-231.28 865.31,-228.03 855.41,-224.28 855.23,-231.28"/>
</a>
</g>
</g>
<!-- Node14 -->
<g id="Node000014" class="node">
<title>Node14</title>
<g id="a_Node000014"><a xlink:href="graceful__shutdown_8c.html" target="_top" xlink:title=" ">
<polygon fill="white" stroke="#666666" points="1296,-74 1189,-74 1189,-55 1296,-55 1296,-74"/>
<text text-anchor="middle" x="1242.5" y="-62" font-family="Helvetica,sans-Serif" font-size="10.00">graceful_shutdown.c</text>
</a>
</g>
</g>
<!-- Node2&#45;&gt;Node14 -->
<g id="edge37_Node000002_Node000014" class="edge">
<title>Node2&#45;&gt;Node14</title>
<g id="a_edge37_Node000002_Node000014"><a xlink:title=" ">
<path fill="none" stroke="#63b8ff" d="M932.1,-228.83C1010.16,-228.65 1182.84,-223.66 1223.5,-184 1254.08,-154.18 1247.87,-96.13 1244.18,-74.18"/>
<polygon fill="#63b8ff" stroke="#63b8ff" points="931.73,-225.33 921.73,-228.83 931.73,-232.33 931.73,-225.33"/>
</a>
</g>
</g>
<!-- Node15 -->
<g id="Node000015" class="node">
<title>Node15</title>
<g id="a_Node000015"><a xlink:href="SocketPool_8h.html" target="_top" xlink:title="Connection pooling with automatic lifecycle management.">
<polygon fill="white" stroke="#666666" points="1400,-129 1325,-129 1325,-110 1400,-110 1400,-129"/>
<text text-anchor="middle" x="1362.5" y="-117" font-family="Helvetica,sans-Serif" font-size="10.00">SocketPool.h</text>
</a>
</g>
</g>
<!-- Node2&#45;&gt;Node15 -->
<g id="edge18_Node000002_Node000015" class="edge">
<title>Node2&#45;&gt;Node15</title>
<g id="a_edge18_Node000002_Node000015"><a xlink:title=" ">
<path fill="none" stroke="#63b8ff" d="M931.96,-227.92C1042.17,-225.87 1353.22,-217.15 1383.5,-184 1397.75,-168.4 1381.13,-142.88 1370.32,-129.44"/>
<polygon fill="#63b8ff" stroke="#63b8ff" points="931.57,-224.43 921.63,-228.1 931.69,-231.43 931.57,-224.43"/>
</a>
</g>
</g>
<!-- Node16 -->
<g id="Node000016" class="node">
<title>Node16</title>
<g id="a_Node000016"><a xlink:href="SocketReconnect_8h.html" target="_top" xlink:title="Automatic reconnection framework with exponential backoff and circuit breaker.">
<polygon fill="white" stroke="#666666" points="1374,-184 1271,-184 1271,-165 1374,-165 1374,-184"/>
<text text-anchor="middle" x="1322.5" y="-172" font-family="Helvetica,sans-Serif" font-size="10.00">SocketReconnect.h</text>
</a>
</g>
</g>
<!-- Node2&#45;&gt;Node16 -->
<g id="edge21_Node000002_Node000016" class="edge">
<title>Node2&#45;&gt;Node16</title>
<g id="a_edge21_Node000002_Node000016"><a xlink:title=" ">
<path fill="none" stroke="#63b8ff" d="M931.72,-223.89C997.9,-215.9 1138.1,-198.88 1256.5,-184 1261.2,-183.41 1266.09,-182.79 1270.98,-182.17"/>
<polygon fill="#63b8ff" stroke="#63b8ff" points="931.26,-220.42 921.75,-225.1 932.1,-227.37 931.26,-220.42"/>
</a>
</g>
</g>
<!-- Node17 -->
<g id="Node000017" class="node">
<title>Node17</title>
<g id="a_Node000017"><a xlink:href="SocketTLS_8h.html" target="_top" xlink:title="TLS/SSL socket integration with TLS 1.3 support.">
<polygon fill="white" stroke="#666666" points="390.5,-184 316.5,-184 316.5,-165 390.5,-165 390.5,-184"/>
<text text-anchor="middle" x="353.5" y="-172" font-family="Helvetica,sans-Serif" font-size="10.00">SocketTLS.h</text>
</a>
</g>
</g>
<!-- Node2&#45;&gt;Node17 -->
<g id="edge23_Node000002_Node000017" class="edge">
<title>Node2&#45;&gt;Node17</title>
<g id="a_edge23_Node000002_Node000017"><a xlink:title=" ">
<path fill="none" stroke="#63b8ff" d="M855,-224.72C755.24,-214.93 489.29,-188.83 390.84,-179.16"/>
<polygon fill="#63b8ff" stroke="#63b8ff" points="854.93,-228.23 865.23,-225.73 855.62,-221.26 854.93,-228.23"/>
</a>
</g>
</g>
<!-- Node24 -->
<g id="Node000024" class="node">
<title>Node24</title>
<g id="a_Node000024"><a xlink:href="SocketWS_8h.html" target="_top" xlink:title="WebSocket Protocol (RFC 6455) implementation with compression support.">
<polygon fill="white" stroke="#666666" points="749.5,-184 677.5,-184 677.5,-165 749.5,-165 749.5,-184"/>
<text text-anchor="middle" x="713.5" y="-172" font-family="Helvetica,sans-Serif" font-size="10.00">SocketWS.h</text>
</a>
</g>
</g>
<!-- Node2&#45;&gt;Node24 -->
<g id="edge34_Node000002_Node000024" class="edge">
<title>Node2&#45;&gt;Node24</title>
<g id="a_edge34_Node000002_Node000024"><a xlink:title=" ">
<path fill="none" stroke="#63b8ff" d="M855.43,-217.29C821.74,-207.37 773.3,-193.11 742.62,-184.07"/>
<polygon fill="#63b8ff" stroke="#63b8ff" points="854.79,-220.75 865.38,-220.22 856.77,-214.04 854.79,-220.75"/>
</a>
</g>
</g>
<!-- Node25 -->
<g id="Node000025" class="node">
<title>Node25</title>
<g id="a_Node000025"><a xlink:href="websocket__client_8c.html" target="_top" xlink:title=" ">
<polygon fill="white" stroke="#666666" points="706,-129 605,-129 605,-110 706,-110 706,-129"/>
<text text-anchor="middle" x="655.5" y="-117" font-family="Helvetica,sans-Serif" font-size="10.00">websocket_client.c</text>
</a>
</g>
</g>
<!-- Node2&#45;&gt;Node25 -->
<g id="edge39_Node000002_Node000025" class="edge">
<title>Node2&#45;&gt;Node25</title>
<g id="a_edge39_Node000002_Node000025"><a xlink:title=" ">
<path fill="none" stroke="#63b8ff" d="M855.01,-225.94C797.8,-221.34 694.3,-209.63 668.5,-184 653.81,-169.41 653.52,-142.99 654.52,-129.28"/>
<polygon fill="#63b8ff" stroke="#63b8ff" points="854.88,-229.44 865.12,-226.72 855.42,-222.47 854.88,-229.44"/>
</a>
</g>
</g>
<!-- Node6 -->
<g id="Node000006" class="node">
<title>Node6</title>
<g id="a_Node000006"><a xlink:href="http__server_8c.html" target="_top" xlink:title=" ">
<polygon fill="white" stroke="#666666" points="956,-19 883,-19 883,0 956,0 956,-19"/>
<text text-anchor="middle" x="919.5" y="-7" font-family="Helvetica,sans-Serif" font-size="10.00">http_server.c</text>
</a>
</g>
</g>
<!-- Node5&#45;&gt;Node6 -->
<g id="edge5_Node000005_Node000006" class="edge">
<title>Node5&#45;&gt;Node6</title>
<g id="a_edge5_Node000005_Node000006"><a xlink:title=" ">
<path fill="none" stroke="#63b8ff" d="M919.5,-44.66C919.5,-35.93 919.5,-25.99 919.5,-19.09"/>
<polygon fill="#63b8ff" stroke="#63b8ff" points="916,-44.75 919.5,-54.75 923,-44.75 916,-44.75"/>
</a>
</g>
</g>
<!-- Node5&#45;&gt;Node7 -->
<g id="edge6_Node000005_Node000007" class="edge">
<title>Node5&#45;&gt;Node7</title>
<g id="a_edge6_Node000005_Node000007"><a xlink:title=" ">
<path fill="none" stroke="#63b8ff" d="M880.21,-52.18C845.8,-42.27 796.54,-28.08 765.29,-19.08"/>
<polygon fill="#63b8ff" stroke="#63b8ff" points="879.36,-55.58 889.94,-54.98 881.3,-48.85 879.36,-55.58"/>
</a>
</g>
</g>
<!-- Node10&#45;&gt;Node5 -->
<g id="edge10_Node000010_Node000005" class="edge">
<title>Node10&#45;&gt;Node5</title>
<g id="a_edge10_Node000010_Node000005"><a xlink:title=" ">
<path fill="none" stroke="#63b8ff" d="M858.54,-104.42C873.61,-94.81 893.09,-82.37 905.92,-74.17"/>
<polygon fill="#63b8ff" stroke="#63b8ff" points="856.38,-101.65 849.84,-109.98 860.15,-107.55 856.38,-101.65"/>
</a>
</g>
</g>
<!-- Node10&#45;&gt;Node7 -->
<g id="edge16_Node000010_Node000007" class="edge">
<title>Node10&#45;&gt;Node7</title>
<g id="a_edge16_Node000010_Node000007"><a xlink:title=" ">
<path fill="none" stroke="#63b8ff" d="M834.69,-99.54C832.53,-85.88 827.82,-67.7 817.5,-55 803.41,-37.65 780.68,-26.07 762.72,-19.09"/>
<polygon fill="#63b8ff" stroke="#63b8ff" points="831.25,-100.24 835.96,-109.72 838.2,-99.37 831.25,-100.24"/>
</a>
</g>
</g>
<!-- Node10&#45;&gt;Node8 -->
<g id="edge11_Node000010_Node000008" class="edge">
<title>Node10&#45;&gt;Node8</title>
<g id="a_edge11_Node000010_Node000008"><a xlink:title=" ">
<path fill="none" stroke="#63b8ff" d="M813.32,-104.7C797.11,-95.04 775.95,-82.44 762.06,-74.17"/>
<polygon fill="#63b8ff" stroke="#63b8ff" points="811.82,-107.88 822.2,-109.98 815.4,-101.86 811.82,-107.88"/>
</a>
</g>
</g>
<!-- Node10&#45;&gt;Node11 -->
<g id="edge12_Node000010_Node000011" class="edge">
<title>Node10&#45;&gt;Node11</title>
<g id="a_edge12_Node000010_Node000011"><a xlink:title=" ">
<path fill="none" stroke="#63b8ff" d="M880.45,-107.56C920.34,-97.64 978.37,-83.2 1015.01,-74.08"/>
<polygon fill="#63b8ff" stroke="#63b8ff" points="879.58,-104.17 870.72,-109.98 881.27,-110.97 879.58,-104.17"/>
</a>
</g>
</g>
<!-- Node10&#45;&gt;Node12 -->
<g id="edge13_Node000010_Node000012" class="edge">
<title>Node10&#45;&gt;Node12</title>
<g id="a_edge13_Node000010_Node000012"><a xlink:title=" ">
<path fill="none" stroke="#63b8ff" d="M790.42,-110.49C730.82,-100.14 627.97,-82.26 571.5,-72.45"/>
<polygon fill="#63b8ff" stroke="#63b8ff" points="789.86,-113.95 800.31,-112.21 791.06,-107.05 789.86,-113.95"/>
</a>
</g>
</g>
<!-- Node10&#45;&gt;Node14 -->
<g id="edge15_Node000010_Node000014" class="edge">
<title>Node10&#45;&gt;Node14</title>
<g id="a_edge15_Node000010_Node000014"><a xlink:title=" ">
<path fill="none" stroke="#63b8ff" d="M882.7,-112.47C958.41,-102.59 1108.48,-83 1188.8,-72.51"/>
<polygon fill="#63b8ff" stroke="#63b8ff" points="881.99,-109.03 872.53,-113.8 882.9,-115.97 881.99,-109.03"/>
</a>
</g>
</g>
<!-- Node12&#45;&gt;Node13 -->
<g id="edge14_Node000012_Node000013" class="edge">
<title>Node12&#45;&gt;Node13</title>
<g id="a_edge14_Node000012_Node000013"><a xlink:title=" ">
<path fill="none" stroke="#63b8ff" d="M508.06,-49.7C491.66,-40.04 470.27,-27.44 456.22,-19.17"/>
<polygon fill="#63b8ff" stroke="#63b8ff" points="506.65,-52.93 517.04,-54.98 510.2,-46.89 506.65,-52.93"/>
</a>
</g>
</g>
<!-- Node15&#45;&gt;Node14 -->
<g id="edge19_Node000015_Node000014" class="edge">
<title>Node15&#45;&gt;Node14</title>
<g id="a_edge19_Node000015_Node000014"><a xlink:title=" ">
<path fill="none" stroke="#63b8ff" d="M1333.97,-105.9C1311.8,-96.11 1281.65,-82.79 1262.13,-74.17"/>
<polygon fill="#63b8ff" stroke="#63b8ff" points="1332.66,-109.15 1343.22,-109.98 1335.49,-102.74 1332.66,-109.15"/>
</a>
</g>
</g>
<!-- Node16&#45;&gt;Node15 -->
<g id="edge22_Node000016_Node000015" class="edge">
<title>Node16&#45;&gt;Node15</title>
<g id="a_edge22_Node000016_Node000015"><a xlink:title=" ">
<path fill="none" stroke="#63b8ff" d="M1335.2,-156.67C1342.13,-147.5 1350.41,-136.52 1356.02,-129.09"/>
<polygon fill="#63b8ff" stroke="#63b8ff" points="1332.34,-154.66 1329.11,-164.75 1337.92,-158.87 1332.34,-154.66"/>
</a>
</g>
</g>
<!-- Node17&#45;&gt;Node13 -->
<g id="edge33_Node000017_Node000013" class="edge">
<title>Node17&#45;&gt;Node13</title>
<g id="a_edge33_Node000017_Node000013"><a xlink:title=" ">
<path fill="none" stroke="#63b8ff" d="M306.22,-168.43C259.74,-161.33 198.83,-145.14 221.5,-110 260.14,-50.12 344.47,-25.89 396.78,-16.37"/>
<polygon fill="#63b8ff" stroke="#63b8ff" points="305.78,-171.9 316.18,-169.84 306.77,-164.97 305.78,-171.9"/>
</a>
</g>
</g>
<!-- Node18 -->
<g id="Node000018" class="node">
<title>Node18</title>
<g id="a_Node000018"><a xlink:href="SocketDTLSContext_8h.html" target="_top" xlink:title="DTLS context management with cookie protection and secure defaults.">
<polygon fill="white" stroke="#666666" points="346.5,-129 230.5,-129 230.5,-110 346.5,-110 346.5,-129"/>
<text text-anchor="middle" x="288.5" y="-117" font-family="Helvetica,sans-Serif" font-size="10.00">SocketDTLSContext.h</text>
</a>
</g>
</g>
<!-- Node17&#45;&gt;Node18 -->
<g id="edge24_Node000017_Node000018" class="edge">
<title>Node17&#45;&gt;Node18</title>
<g id="a_edge24_Node000017_Node000018"><a xlink:title=" ">
<path fill="none" stroke="#63b8ff" d="M335.23,-158.6C323.58,-149.11 308.9,-137.13 299.13,-129.17"/>
<polygon fill="#63b8ff" stroke="#63b8ff" points="333.09,-161.38 343.06,-164.98 337.52,-155.95 333.09,-161.38"/>
</a>
</g>
</g>
<!-- Node19 -->
<g id="Node000019" class="node">
<title>Node19</title>
<g id="a_Node000019"><a xlink:href="SocketTLSContext_8h.html" target="_top" xlink:title="TLS context management with secure defaults and certificate handling.">
<polygon fill="white" stroke="#666666" points="472.5,-129 364.5,-129 364.5,-110 472.5,-110 472.5,-129"/>
<text text-anchor="middle" x="418.5" y="-117" font-family="Helvetica,sans-Serif" font-size="10.00">SocketTLSContext.h</text>
</a>
</g>
</g>
<!-- Node17&#45;&gt;Node19 -->
<g id="edge25_Node000017_Node000019" class="edge">
<title>Node17&#45;&gt;Node19</title>
<g id="a_edge25_Node000017_Node000019"><a xlink:title=" ">
<path fill="none" stroke="#63b8ff" d="M371.77,-158.6C383.42,-149.11 398.1,-137.13 407.87,-129.17"/>
<polygon fill="#63b8ff" stroke="#63b8ff" points="369.48,-155.95 363.94,-164.98 373.91,-161.38 369.48,-155.95"/>
</a>
</g>
</g>
<!-- Node19&#45;&gt;Node5 -->
<g id="edge30_Node000019_Node000005" class="edge">
<title>Node19&#45;&gt;Node5</title>
<g id="a_edge30_Node000019_Node000005"><a xlink:title=" ">
<path fill="none" stroke="#63b8ff" d="M482.79,-111.7C582.11,-101.19 771.12,-81.2 864.49,-71.32"/>
<polygon fill="#63b8ff" stroke="#63b8ff" points="482.17,-108.25 472.59,-112.78 482.9,-115.21 482.17,-108.25"/>
</a>
</g>
</g>
<!-- Node19&#45;&gt;Node12 -->
<g id="edge31_Node000019_Node000012" class="edge">
<title>Node19&#45;&gt;Node12</title>
<g id="a_edge31_Node000019_Node000012"><a xlink:title=" ">
<path fill="none" stroke="#63b8ff" d="M445.93,-105.63C466.75,-95.87 494.8,-82.71 513.01,-74.17"/>
<polygon fill="#63b8ff" stroke="#63b8ff" points="444.22,-102.57 436.66,-109.98 447.2,-108.91 444.22,-102.57"/>
</a>
</g>
</g>
<!-- Node19&#45;&gt;Node13 -->
<g id="edge32_Node000019_Node000013" class="edge">
<title>Node19&#45;&gt;Node13</title>
<g id="a_edge32_Node000019_Node000013"><a xlink:title=" ">
<path fill="none" stroke="#63b8ff" d="M422.48,-99.8C427.51,-76.2 435.95,-36.58 439.66,-19.16"/>
<polygon fill="#63b8ff" stroke="#63b8ff" points="419.04,-99.15 420.38,-109.66 425.89,-100.61 419.04,-99.15"/>
</a>
</g>
</g>
<!-- Node20 -->
<g id="Node000020" class="node">
<title>Node20</title>
<g id="a_Node000020"><a xlink:href="SocketHTTPClient_8h.html" target="_top" xlink:title="High&#45;level HTTP client library with pooling, async support, and protocol negotiation.">
<polygon fill="white" stroke="#666666" points="174,-74 67,-74 67,-55 174,-55 174,-74"/>
<text text-anchor="middle" x="120.5" y="-62" font-family="Helvetica,sans-Serif" font-size="10.00">SocketHTTPClient.h</text>
</a>
</g>
</g>
<!-- Node19&#45;&gt;Node20 -->
<g id="edge26_Node000019_Node000020" class="edge">
<title>Node19&#45;&gt;Node20</title>
<g id="a_edge26_Node000019_Node000020"><a xlink:title=" ">
<path fill="none" stroke="#63b8ff" d="M360.52,-108.19C304.65,-98.25 221.1,-83.39 168.75,-74.08"/>
<polygon fill="#63b8ff" stroke="#63b8ff" points="360.16,-111.68 370.62,-109.98 361.39,-104.79 360.16,-111.68"/>
</a>
</g>
</g>
<!-- Node21 -->
<g id="Node000021" class="node">
<title>Node21</title>
<g id="a_Node000021"><a xlink:href="http2__client_8c.html" target="_top" xlink:title=" ">
<polygon fill="white" stroke="#666666" points="158,-19 83,-19 83,0 158,0 158,-19"/>
<text text-anchor="middle" x="120.5" y="-7" font-family="Helvetica,sans-Serif" font-size="10.00">http2_client.c</text>
</a>
</g>
</g>
<!-- Node20&#45;&gt;Node21 -->
<g id="edge27_Node000020_Node000021" class="edge">
<title>Node20&#45;&gt;Node21</title>
<g id="a_edge27_Node000020_Node000021"><a xlink:title=" ">
<path fill="none" stroke="#63b8ff" d="M120.5,-44.66C120.5,-35.93 120.5,-25.99 120.5,-19.09"/>
<polygon fill="#63b8ff" stroke="#63b8ff" points="117,-44.75 120.5,-54.75 124,-44.75 117,-44.75"/>
</a>
</g>
</g>
<!-- Node22 -->
<g id="Node000022" class="node">
<title>Node22</title>
<g id="a_Node000022"><a xlink:href="http__get_8c.html" target="_top" xlink:title=" ">
<polygon fill="white" stroke="#666666" points="235.5,-19 175.5,-19 175.5,0 235.5,0 235.5,-19"/>
<text text-anchor="middle" x="205.5" y="-7" font-family="Helvetica,sans-Serif" font-size="10.00">http_get.c</text>
</a>
</g>
</g>
<!-- Node20&#45;&gt;Node22 -->
<g id="edge28_Node000020_Node000022" class="edge">
<title>Node20&#45;&gt;Node22</title>
<g id="a_edge28_Node000020_Node000022"><a xlink:title=" ">
<path fill="none" stroke="#63b8ff" d="M143.07,-49.42C158.5,-39.81 178.45,-27.37 191.59,-19.17"/>
<polygon fill="#63b8ff" stroke="#63b8ff" points="140.79,-46.72 134.16,-54.98 144.49,-52.66 140.79,-46.72"/>
</a>
</g>
</g>
<!-- Node23 -->
<g id="Node000023" class="node">
<title>Node23</title>
<g id="a_Node000023"><a xlink:href="http__post_8c.html" target="_top" xlink:title=" ">
<polygon fill="white" stroke="#666666" points="65,-19 0,-19 0,0 65,0 65,-19"/>
<text text-anchor="middle" x="32.5" y="-7" font-family="Helvetica,sans-Serif" font-size="10.00">http_post.c</text>
</a>
</g>
</g>
<!-- Node20&#45;&gt;Node23 -->
<g id="edge29_Node000020_Node000023" class="edge">
<title>Node20&#45;&gt;Node23</title>
<g id="a_edge29_Node000020_Node000023"><a xlink:title=" ">
<path fill="none" stroke="#63b8ff" d="M97.58,-49.7C81.55,-40.04 60.63,-27.44 46.9,-19.17"/>
<polygon fill="#63b8ff" stroke="#63b8ff" points="95.99,-52.82 106.36,-54.98 99.6,-46.83 95.99,-52.82"/>
</a>
</g>
</g>
<!-- Node24&#45;&gt;Node7 -->
<g id="edge36_Node000024_Node000007" class="edge">
<title>Node24&#45;&gt;Node7</title>
<g id="a_edge36_Node000024_Node000007"><a xlink:title=" ">
<path fill="none" stroke="#63b8ff" d="M717.66,-154.74C719.65,-141.68 720.47,-124.14 714.5,-110 705.57,-88.86 686.43,-95.14 677.5,-74 674.22,-66.22 673.76,-62.57 677.5,-55 685.64,-38.5 703.17,-26.41 716.83,-19.03"/>
<polygon fill="#63b8ff" stroke="#63b8ff" points="714.17,-154.39 715.75,-164.87 721.05,-155.69 714.17,-154.39"/>
</a>
</g>
</g>
<!-- Node24&#45;&gt;Node25 -->
<g id="edge35_Node000024_Node000025" class="edge">
<title>Node24&#45;&gt;Node25</title>
<g id="a_edge35_Node000024_Node000025"><a xlink:title=" ">
<path fill="none" stroke="#63b8ff" d="M696.59,-158.04C686.3,-148.64 673.53,-136.98 664.99,-129.17"/>
<polygon fill="#63b8ff" stroke="#63b8ff" points="694.44,-160.82 704.18,-164.98 699.16,-155.66 694.44,-160.82"/>
</a>
</g>
</g>
<!-- Node26&#45;&gt;Node2 -->
<g id="edge42_Node000026_Node000002" class="edge">
<title>Node26&#45;&gt;Node2</title>
<g id="a_edge42_Node000026_Node000002"><a xlink:title=" ">
<path fill="none" stroke="#63b8ff" d="M955.93,-269.42C940.5,-259.81 920.55,-247.37 907.41,-239.17"/>
<polygon fill="#63b8ff" stroke="#63b8ff" points="954.51,-272.66 964.84,-274.98 958.21,-266.72 954.51,-272.66"/>
</a>
</g>
</g>
<!-- Node27 -->
<g id="Node000027" class="node">
<title>Node27</title>
<g id="a_Node000027"><a xlink:href="SocketDgram_8h.html" target="_top" xlink:title="High&#45;level UDP/datagram socket interface with multicast and broadcast support.">
<polygon fill="white" stroke="#666666" points="1246,-239 1161,-239 1161,-220 1246,-220 1246,-239"/>
<text text-anchor="middle" x="1203.5" y="-227" font-family="Helvetica,sans-Serif" font-size="10.00">SocketDgram.h</text>
</a>
</g>
</g>
<!-- Node26&#45;&gt;Node27 -->
<g id="edge43_Node000026_Node000027" class="edge">
<title>Node26&#45;&gt;Node27</title>
<g id="a_edge43_Node000026_Node000027"><a xlink:title=" ">
<path fill="none" stroke="#63b8ff" d="M1024.39,-272.69C1066.55,-262.76 1128.2,-248.24 1167.07,-239.08"/>
<polygon fill="#63b8ff" stroke="#63b8ff" points="1023.58,-269.28 1014.65,-274.98 1025.19,-276.1 1023.58,-269.28"/>
</a>
</g>
</g>
<!-- Node28 -->
<g id="Node000028" class="node">
<title>Node28</title>
<g id="a_Node000028"><a xlink:href="SocketDTLS_8h.html" target="_top" xlink:title="Datagram TLS (DTLS) protocol implementation for UDP sockets.">
<polygon fill="white" stroke="#666666" points="1512,-184 1431,-184 1431,-165 1512,-165 1512,-184"/>
<text text-anchor="middle" x="1471.5" y="-172" font-family="Helvetica,sans-Serif" font-size="10.00">SocketDTLS.h</text>
</a>
</g>
</g>
<!-- Node27&#45;&gt;Node28 -->
<g id="edge44_Node000027_Node000028" class="edge">
<title>Node27&#45;&gt;Node28</title>
<g id="a_edge44_Node000027_Node000028"><a xlink:title=" ">
<path fill="none" stroke="#63b8ff" d="M1256.14,-218.09C1307.3,-207.97 1383.92,-192.82 1430.65,-183.58"/>
<polygon fill="#63b8ff" stroke="#63b8ff" points="1255.39,-214.67 1246.26,-220.04 1256.75,-221.54 1255.39,-214.67"/>
</a>
</g>
</g>
<!-- Node29&#45;&gt;Node15 -->
<g id="edge46_Node000029_Node000015" class="edge">
<title>Node29&#45;&gt;Node15</title>
<g id="a_edge46_Node000029_Node000015"><a xlink:title=" ">
<path fill="none" stroke="#63b8ff" d="M1472.53,-216.88C1504.28,-206.11 1539.14,-188.26 1521.5,-165 1506.86,-145.7 1442.26,-132.49 1400.04,-125.74"/>
<polygon fill="#63b8ff" stroke="#63b8ff" points="1471.29,-213.6 1462.84,-219.99 1473.43,-220.27 1471.29,-213.6"/>
</a>
</g>
</g>
</g>
</svg>
