<?xml version="1.0" encoding="UTF-8" standalone="no"?>
<!DOCTYPE svg PUBLIC "-//W3C//DTD SVG 1.1//EN"
 "http://www.w3.org/Graphics/SVG/1.1/DTD/svg11.dtd">
<!-- Generated by graphviz version 2.43.0 (0)
 -->
<!-- Title: SocketPoll_backend.h Pages: 1 -->
<svg width="1241pt" height="357pt"
 viewBox="0.00 0.00 1241.16 357.00" xmlns="http://www.w3.org/2000/svg" xmlns:xlink="http://www.w3.org/1999/xlink">
<g id="graph0" class="graph" transform="scale(1 1) rotate(0) translate(4 353)">
<title>SocketPoll_backend.h</title>
<!-- Node1 -->
<g id="Node000001" class="node">
<title>Node1</title>
<g id="a_Node000001"><a xlink:title="Abstract interface for platform&#45;specific polling implementations.">
<polygon fill="#999999" stroke="#666666" points="207.66,-349 93.66,-349 93.66,-330 207.66,-330 207.66,-349"/>
<text text-anchor="middle" x="150.66" y="-337" font-family="Helvetica,sans-Serif" font-size="10.00">SocketPoll_backend.h</text>
</a>
</g>
</g>
<!-- Node2 -->
<g id="Node000002" class="node">
<title>Node2</title>
<g id="a_Node000002"><a xlink:href="Arena_8h.html" target="_top" xlink:title="Arena&#45;based memory allocator for efficient bulk memory management.">
<polygon fill="white" stroke="#666666" points="236.66,-129 164.66,-129 164.66,-110 236.66,-110 236.66,-129"/>
<text text-anchor="middle" x="200.66" y="-117" font-family="Helvetica,sans-Serif" font-size="10.00">core/Arena.h</text>
</a>
</g>
</g>
<!-- Node1&#45;&gt;Node2 -->
<g id="edge1_Node000001_Node000002" class="edge">
<title>Node1&#45;&gt;Node2</title>
<g id="a_edge1_Node000001_Node000002"><a xlink:title=" ">
<path fill="none" stroke="#63b8ff" d="M152.62,-329.95C159.98,-297.88 186.05,-184.2 196.39,-139.12"/>
<polygon fill="#63b8ff" stroke="#63b8ff" points="199.84,-139.75 198.66,-129.22 193.01,-138.19 199.84,-139.75"/>
</a>
</g>
</g>
<!-- Node6 -->
<g id="Node000006" class="node">
<title>Node6</title>
<g id="a_Node000006"><a xlink:href="SocketPoll_8h.html" target="_top" xlink:title="Cross&#45;platform high&#45;level interface for monitoring multiple sockets for I/O events.">
<polygon fill="white" stroke="#666666" points="119.66,-294 29.66,-294 29.66,-275 119.66,-275 119.66,-294"/>
<text text-anchor="middle" x="74.66" y="-282" font-family="Helvetica,sans-Serif" font-size="10.00">poll/SocketPoll.h</text>
</a>
</g>
</g>
<!-- Node1&#45;&gt;Node6 -->
<g id="edge5_Node000001_Node000006" class="edge">
<title>Node1&#45;&gt;Node6</title>
<g id="a_edge5_Node000001_Node000006"><a xlink:title=" ">
<path fill="none" stroke="#63b8ff" d="M138.45,-329.98C126.89,-321.92 109.29,-309.65 95.5,-300.03"/>
<polygon fill="#63b8ff" stroke="#63b8ff" points="97.3,-297.02 87.1,-294.17 93.3,-302.76 97.3,-297.02"/>
</a>
</g>
</g>
<!-- Node9 -->
<g id="Node000009" class="node">
<title>Node9</title>
<g id="a_Node000009"><a xlink:href="Socket_8h.html" target="_top" xlink:title="High&#45;level TCP/IP and Unix domain socket interface.">
<polygon fill="white" stroke="#666666" points="327.66,-239 239.66,-239 239.66,-220 327.66,-220 327.66,-239"/>
<text text-anchor="middle" x="283.66" y="-227" font-family="Helvetica,sans-Serif" font-size="10.00">socket/Socket.h</text>
</a>
</g>
</g>
<!-- Node1&#45;&gt;Node9 -->
<g id="edge40_Node000001_Node000009" class="edge">
<title>Node1&#45;&gt;Node9</title>
<g id="a_edge40_Node000001_Node000009"><a xlink:title=" ">
<path fill="none" stroke="#63b8ff" d="M161.55,-329.66C184.26,-311.22 236.93,-268.45 265.1,-245.57"/>
<polygon fill="#63b8ff" stroke="#63b8ff" points="267.44,-248.18 273,-239.16 263.03,-242.75 267.44,-248.18"/>
</a>
</g>
</g>
<!-- Node3 -->
<g id="Node000003" class="node">
<title>Node3</title>
<g id="a_Node000003"><a xlink:title=" ">
<polygon fill="#e0e0e0" stroke="#999999" points="366.66,-74 314.66,-74 314.66,-55 366.66,-55 366.66,-74"/>
<text text-anchor="middle" x="340.66" y="-62" font-family="Helvetica,sans-Serif" font-size="10.00">stddef.h</text>
</a>
</g>
</g>
<!-- Node2&#45;&gt;Node3 -->
<g id="edge2_Node000002_Node000003" class="edge">
<title>Node2&#45;&gt;Node3</title>
<g id="a_edge2_Node000002_Node000003"><a xlink:title=" ">
<path fill="none" stroke="#63b8ff" d="M223.16,-109.98C246.19,-101.27 282.2,-87.63 308.29,-77.75"/>
<polygon fill="#63b8ff" stroke="#63b8ff" points="309.65,-80.98 317.76,-74.17 307.17,-74.44 309.65,-80.98"/>
</a>
</g>
</g>
<!-- Node4 -->
<g id="Node000004" class="node">
<title>Node4</title>
<g id="a_Node000004"><a xlink:href="Except_8h.html" target="_top" xlink:title="Structured exception handling for C with TRY/EXCEPT/FINALLY blocks.">
<polygon fill="white" stroke="#666666" points="207.16,-74 130.16,-74 130.16,-55 207.16,-55 207.16,-74"/>
<text text-anchor="middle" x="168.66" y="-62" font-family="Helvetica,sans-Serif" font-size="10.00">core/Except.h</text>
</a>
</g>
</g>
<!-- Node2&#45;&gt;Node4 -->
<g id="edge3_Node000002_Node000004" class="edge">
<title>Node2&#45;&gt;Node4</title>
<g id="a_edge3_Node000002_Node000004"><a xlink:title=" ">
<path fill="none" stroke="#63b8ff" d="M195.38,-109.75C190.95,-102.42 184.5,-91.73 179.04,-82.7"/>
<polygon fill="#63b8ff" stroke="#63b8ff" points="182.01,-80.84 173.85,-74.09 176.02,-84.46 182.01,-80.84"/>
</a>
</g>
</g>
<!-- Node5 -->
<g id="Node000005" class="node">
<title>Node5</title>
<g id="a_Node000005"><a xlink:title=" ">
<polygon fill="#e0e0e0" stroke="#999999" points="195.66,-19 141.66,-19 141.66,0 195.66,0 195.66,-19"/>
<text text-anchor="middle" x="168.66" y="-7" font-family="Helvetica,sans-Serif" font-size="10.00">setjmp.h</text>
</a>
</g>
</g>
<!-- Node4&#45;&gt;Node5 -->
<g id="edge4_Node000004_Node000005" class="edge">
<title>Node4&#45;&gt;Node5</title>
<g id="a_edge4_Node000004_Node000005"><a xlink:title=" ">
<path fill="none" stroke="#63b8ff" d="M168.66,-54.75C168.66,-47.8 168.66,-37.85 168.66,-29.13"/>
<polygon fill="#63b8ff" stroke="#63b8ff" points="172.16,-29.09 168.66,-19.09 165.16,-29.09 172.16,-29.09"/>
</a>
</g>
</g>
<!-- Node6&#45;&gt;Node4 -->
<g id="edge6_Node000006_Node000004" class="edge">
<title>Node6&#45;&gt;Node4</title>
<g id="a_edge6_Node000006_Node000004"><a xlink:title=" ">
<path fill="none" stroke="#63b8ff" d="M53.51,-274.93C38.84,-267.73 20.41,-255.88 11.66,-239 -3.46,-209.8 -4.19,-193.82 11.66,-165 36.72,-119.45 92.42,-91.83 130.27,-77.6"/>
<polygon fill="#63b8ff" stroke="#63b8ff" points="131.73,-80.8 139.95,-74.11 129.36,-74.21 131.73,-80.8"/>
</a>
</g>
</g>
<!-- Node7 -->
<g id="Node000007" class="node">
<title>Node7</title>
<g id="a_Node000007"><a xlink:href="SocketTimer_8h.html" target="_top" xlink:title="High&#45;performance timer subsystem integrated with the event loop.">
<polygon fill="white" stroke="#666666" points="122.16,-239 21.16,-239 21.16,-220 122.16,-220 122.16,-239"/>
<text text-anchor="middle" x="71.66" y="-227" font-family="Helvetica,sans-Serif" font-size="10.00">core/SocketTimer.h</text>
</a>
</g>
</g>
<!-- Node6&#45;&gt;Node7 -->
<g id="edge7_Node000006_Node000007" class="edge">
<title>Node6&#45;&gt;Node7</title>
<g id="a_edge7_Node000006_Node000007"><a xlink:title=" ">
<path fill="none" stroke="#63b8ff" d="M74.17,-274.75C73.77,-267.8 73.21,-257.85 72.72,-249.13"/>
<polygon fill="#63b8ff" stroke="#63b8ff" points="76.21,-248.88 72.15,-239.09 69.22,-249.27 76.21,-248.88"/>
</a>
</g>
</g>
<!-- Node6&#45;&gt;Node9 -->
<g id="edge10_Node000006_Node000009" class="edge">
<title>Node6&#45;&gt;Node9</title>
<g id="a_edge10_Node000006_Node000009"><a xlink:title=" ">
<path fill="none" stroke="#63b8ff" d="M108.24,-274.98C144.01,-265.91 200.78,-251.52 240,-241.57"/>
<polygon fill="#63b8ff" stroke="#63b8ff" points="240.99,-244.93 249.82,-239.08 239.27,-238.15 240.99,-244.93"/>
</a>
</g>
</g>
<!-- Node7&#45;&gt;Node4 -->
<g id="edge8_Node000007_Node000004" class="edge">
<title>Node7&#45;&gt;Node4</title>
<g id="a_edge8_Node000007_Node000004"><a xlink:title=" ">
<path fill="none" stroke="#63b8ff" d="M74.08,-219.88C80.07,-199.49 96.96,-147.23 122.66,-110 130.2,-99.08 140.72,-88.66 149.79,-80.66"/>
<polygon fill="#63b8ff" stroke="#63b8ff" points="152.24,-83.17 157.6,-74.04 147.71,-77.84 152.24,-83.17"/>
</a>
</g>
</g>
<!-- Node8 -->
<g id="Node000008" class="node">
<title>Node8</title>
<g id="a_Node000008"><a xlink:title=" ">
<polygon fill="#e0e0e0" stroke="#999999" points="70.16,-184 21.16,-184 21.16,-165 70.16,-165 70.16,-184"/>
<text text-anchor="middle" x="45.66" y="-172" font-family="Helvetica,sans-Serif" font-size="10.00">stdint.h</text>
</a>
</g>
</g>
<!-- Node7&#45;&gt;Node8 -->
<g id="edge9_Node000007_Node000008" class="edge">
<title>Node7&#45;&gt;Node8</title>
<g id="a_edge9_Node000007_Node000008"><a xlink:title=" ">
<path fill="none" stroke="#63b8ff" d="M67.37,-219.75C63.85,-212.57 58.75,-202.18 54.38,-193.27"/>
<polygon fill="#63b8ff" stroke="#63b8ff" points="57.42,-191.53 49.88,-184.09 51.14,-194.61 57.42,-191.53"/>
</a>
</g>
</g>
<!-- Node9&#45;&gt;Node4 -->
<g id="edge11_Node000009_Node000004" class="edge">
<title>Node9&#45;&gt;Node4</title>
<g id="a_edge11_Node000009_Node000004"><a xlink:title=" ">
<path fill="none" stroke="#63b8ff" d="M263.4,-219.9C233.37,-205.89 178.18,-175.01 155.66,-129 148.64,-114.64 153.41,-96.67 159.05,-83.51"/>
<polygon fill="#63b8ff" stroke="#63b8ff" points="162.37,-84.68 163.55,-74.16 156.06,-81.65 162.37,-84.68"/>
</a>
</g>
</g>
<!-- Node10 -->
<g id="Node000010" class="node">
<title>Node10</title>
<g id="a_Node000010"><a xlink:href="SocketConfig_8h.html" target="_top" xlink:title="Compile&#45;time configuration and platform detection for the socket library.">
<polygon fill="white" stroke="#666666" points="1052.66,-129 946.66,-129 946.66,-110 1052.66,-110 1052.66,-129"/>
<text text-anchor="middle" x="999.66" y="-117" font-family="Helvetica,sans-Serif" font-size="10.00">core/SocketConfig.h</text>
</a>
</g>
</g>
<!-- Node9&#45;&gt;Node10 -->
<g id="edge12_Node000009_Node000010" class="edge">
<title>Node9&#45;&gt;Node10</title>
<g id="a_edge12_Node000009_Node000010"><a xlink:title=" ">
<path fill="none" stroke="#63b8ff" d="M327.71,-225.98C407.76,-220.98 582.27,-208.15 727.66,-184 810.8,-170.19 906.42,-145.86 959.26,-131.66"/>
<polygon fill="#63b8ff" stroke="#63b8ff" points="960.18,-135.04 968.92,-129.05 958.36,-128.28 960.18,-135.04"/>
</a>
</g>
</g>
<!-- Node19 -->
<g id="Node000019" class="node">
<title>Node19</title>
<g id="a_Node000019"><a xlink:href="SocketDNS_8h.html" target="_top" xlink:title="Asynchronous DNS resolution API.">
<polygon fill="white" stroke="#666666" points="388.66,-129 292.66,-129 292.66,-110 388.66,-110 388.66,-129"/>
<text text-anchor="middle" x="340.66" y="-117" font-family="Helvetica,sans-Serif" font-size="10.00">dns/SocketDNS.h</text>
</a>
</g>
</g>
<!-- Node9&#45;&gt;Node19 -->
<g id="edge22_Node000009_Node000019" class="edge">
<title>Node9&#45;&gt;Node19</title>
<g id="a_edge22_Node000009_Node000019"><a xlink:title=" ">
<path fill="none" stroke="#63b8ff" d="M288.33,-219.66C297.73,-201.85 319.09,-161.37 331.42,-138.01"/>
<polygon fill="#63b8ff" stroke="#63b8ff" points="334.52,-139.64 336.09,-129.16 328.33,-136.37 334.52,-139.64"/>
</a>
</g>
</g>
<!-- Node21 -->
<g id="Node000021" class="node">
<title>Node21</title>
<g id="a_Node000021"><a xlink:href="SocketCommon_8h.html" target="_top" xlink:title="Common utilities shared between Socket and SocketDgram modules.">
<polygon fill="white" stroke="#666666" points="718.66,-184 590.66,-184 590.66,-165 718.66,-165 718.66,-184"/>
<text text-anchor="middle" x="654.66" y="-172" font-family="Helvetica,sans-Serif" font-size="10.00">socket/SocketCommon.h</text>
</a>
</g>
</g>
<!-- Node9&#45;&gt;Node21 -->
<g id="edge27_Node000009_Node000021" class="edge">
<title>Node9&#45;&gt;Node21</title>
<g id="a_edge27_Node000009_Node000021"><a xlink:title=" ">
<path fill="none" stroke="#63b8ff" d="M327.68,-222.21C391.33,-213.12 509.69,-196.21 585.2,-185.42"/>
<polygon fill="#63b8ff" stroke="#63b8ff" points="585.7,-188.89 595.1,-184.01 584.71,-181.96 585.7,-188.89"/>
</a>
</g>
</g>
<!-- Node10&#45;&gt;Node3 -->
<g id="edge17_Node000010_Node000003" class="edge">
<title>Node10&#45;&gt;Node3</title>
<g id="a_edge17_Node000010_Node000003"><a xlink:title=" ">
<path fill="none" stroke="#63b8ff" d="M946.59,-111C943.57,-110.65 940.58,-110.31 937.66,-110 827.77,-98.38 488.54,-75.36 376.78,-67.9"/>
<polygon fill="#63b8ff" stroke="#63b8ff" points="376.9,-64.4 366.69,-67.22 376.44,-71.38 376.9,-64.4"/>
</a>
</g>
</g>
<!-- Node11 -->
<g id="Node000011" class="node">
<title>Node11</title>
<g id="a_Node000011"><a xlink:title=" ">
<polygon fill="#e0e0e0" stroke="#999999" points="936.16,-74 889.16,-74 889.16,-55 936.16,-55 936.16,-74"/>
<text text-anchor="middle" x="912.66" y="-62" font-family="Helvetica,sans-Serif" font-size="10.00">errno.h</text>
</a>
</g>
</g>
<!-- Node10&#45;&gt;Node11 -->
<g id="edge13_Node000010_Node000011" class="edge">
<title>Node10&#45;&gt;Node11</title>
<g id="a_edge13_Node000010_Node000011"><a xlink:title=" ">
<path fill="none" stroke="#63b8ff" d="M985.68,-109.98C972.19,-101.77 951.53,-89.18 935.62,-79.49"/>
<polygon fill="#63b8ff" stroke="#63b8ff" points="937.26,-76.38 926.9,-74.17 933.61,-82.36 937.26,-76.38"/>
</a>
</g>
</g>
<!-- Node12 -->
<g id="Node000012" class="node">
<title>Node12</title>
<g id="a_Node000012"><a xlink:title=" ">
<polygon fill="#e0e0e0" stroke="#999999" points="870.66,-74 826.66,-74 826.66,-55 870.66,-55 870.66,-74"/>
<text text-anchor="middle" x="848.66" y="-62" font-family="Helvetica,sans-Serif" font-size="10.00">fcntl.h</text>
</a>
</g>
</g>
<!-- Node10&#45;&gt;Node12 -->
<g id="edge14_Node000010_Node000012" class="edge">
<title>Node10&#45;&gt;Node12</title>
<g id="a_edge14_Node000010_Node000012"><a xlink:title=" ">
<path fill="none" stroke="#63b8ff" d="M975.4,-109.98C949.6,-100.93 908.68,-86.56 880.35,-76.62"/>
<polygon fill="#63b8ff" stroke="#63b8ff" points="881.49,-73.31 870.9,-73.3 879.17,-79.92 881.49,-73.31"/>
</a>
</g>
</g>
<!-- Node13 -->
<g id="Node000013" class="node">
<title>Node13</title>
<g id="a_Node000013"><a xlink:title=" ">
<polygon fill="#e0e0e0" stroke="#999999" points="808.16,-74 743.16,-74 743.16,-55 808.16,-55 808.16,-74"/>
<text text-anchor="middle" x="775.66" y="-62" font-family="Helvetica,sans-Serif" font-size="10.00">netinet/in.h</text>
</a>
</g>
</g>
<!-- Node10&#45;&gt;Node13 -->
<g id="edge15_Node000010_Node000013" class="edge">
<title>Node10&#45;&gt;Node13</title>
<g id="a_edge15_Node000010_Node000013"><a xlink:title=" ">
<path fill="none" stroke="#63b8ff" d="M963.67,-109.98C924.03,-100.6 860.32,-85.53 818.23,-75.57"/>
<polygon fill="#63b8ff" stroke="#63b8ff" points="818.82,-72.12 808.28,-73.22 817.21,-78.93 818.82,-72.12"/>
</a>
</g>
</g>
<!-- Node14 -->
<g id="Node000014" class="node">
<title>Node14</title>
<g id="a_Node000014"><a xlink:title=" ">
<polygon fill="#e0e0e0" stroke="#999999" points="1025.16,-74 954.16,-74 954.16,-55 1025.16,-55 1025.16,-74"/>
<text text-anchor="middle" x="989.66" y="-62" font-family="Helvetica,sans-Serif" font-size="10.00">netinet/tcp.h</text>
</a>
</g>
</g>
<!-- Node10&#45;&gt;Node14 -->
<g id="edge16_Node000010_Node000014" class="edge">
<title>Node10&#45;&gt;Node14</title>
<g id="a_edge16_Node000010_Node000014"><a xlink:title=" ">
<path fill="none" stroke="#63b8ff" d="M998.01,-109.75C996.7,-102.8 994.82,-92.85 993.18,-84.13"/>
<polygon fill="#63b8ff" stroke="#63b8ff" points="996.58,-83.27 991.28,-74.09 989.7,-84.56 996.58,-83.27"/>
</a>
</g>
</g>
<!-- Node15 -->
<g id="Node000015" class="node">
<title>Node15</title>
<g id="a_Node000015"><a xlink:title=" ">
<polygon fill="#e0e0e0" stroke="#999999" points="1089.66,-74 1043.66,-74 1043.66,-55 1089.66,-55 1089.66,-74"/>
<text text-anchor="middle" x="1066.66" y="-62" font-family="Helvetica,sans-Serif" font-size="10.00">stdio.h</text>
</a>
</g>
</g>
<!-- Node10&#45;&gt;Node15 -->
<g id="edge18_Node000010_Node000015" class="edge">
<title>Node10&#45;&gt;Node15</title>
<g id="a_edge18_Node000010_Node000015"><a xlink:title=" ">
<path fill="none" stroke="#63b8ff" d="M1010.43,-109.98C1020.43,-102.07 1035.55,-90.11 1047.59,-80.58"/>
<polygon fill="#63b8ff" stroke="#63b8ff" points="1050.03,-83.12 1055.7,-74.17 1045.69,-77.63 1050.03,-83.12"/>
</a>
</g>
</g>
<!-- Node16 -->
<g id="Node000016" class="node">
<title>Node16</title>
<g id="a_Node000016"><a xlink:title=" ">
<polygon fill="#e0e0e0" stroke="#999999" points="725.16,-74 652.16,-74 652.16,-55 725.16,-55 725.16,-74"/>
<text text-anchor="middle" x="688.66" y="-62" font-family="Helvetica,sans-Serif" font-size="10.00">sys/socket.h</text>
</a>
</g>
</g>
<!-- Node10&#45;&gt;Node16 -->
<g id="edge19_Node000010_Node000016" class="edge">
<title>Node10&#45;&gt;Node16</title>
<g id="a_edge19_Node000010_Node000016"><a xlink:title=" ">
<path fill="none" stroke="#63b8ff" d="M947.33,-109.97C896.04,-101.55 815.36,-88.16 735.54,-74.13"/>
<polygon fill="#63b8ff" stroke="#63b8ff" points="735.77,-70.62 725.31,-72.33 734.55,-77.51 735.77,-70.62"/>
</a>
</g>
</g>
<!-- Node17 -->
<g id="Node000017" class="node">
<title>Node17</title>
<g id="a_Node000017"><a xlink:title=" ">
<polygon fill="#e0e0e0" stroke="#999999" points="1163.66,-74 1107.66,-74 1107.66,-55 1163.66,-55 1163.66,-74"/>
<text text-anchor="middle" x="1135.66" y="-62" font-family="Helvetica,sans-Serif" font-size="10.00">sys/uio.h</text>
</a>
</g>
</g>
<!-- Node10&#45;&gt;Node17 -->
<g id="edge20_Node000010_Node000017" class="edge">
<title>Node10&#45;&gt;Node17</title>
<g id="a_edge20_Node000010_Node000017"><a xlink:title=" ">
<path fill="none" stroke="#63b8ff" d="M1021.51,-109.98C1043.79,-101.3 1078.56,-87.75 1103.88,-77.88"/>
<polygon fill="#63b8ff" stroke="#63b8ff" points="1105.37,-81.06 1113.41,-74.17 1102.83,-74.54 1105.37,-81.06"/>
</a>
</g>
</g>
<!-- Node18 -->
<g id="Node000018" class="node">
<title>Node18</title>
<g id="a_Node000018"><a xlink:title=" ">
<polygon fill="#e0e0e0" stroke="#999999" points="1233.16,-74 1182.16,-74 1182.16,-55 1233.16,-55 1233.16,-74"/>
<text text-anchor="middle" x="1207.66" y="-62" font-family="Helvetica,sans-Serif" font-size="10.00">unistd.h</text>
</a>
</g>
</g>
<!-- Node10&#45;&gt;Node18 -->
<g id="edge21_Node000010_Node000018" class="edge">
<title>Node10&#45;&gt;Node18</title>
<g id="a_edge21_Node000010_Node000018"><a xlink:title=" ">
<path fill="none" stroke="#63b8ff" d="M1033.08,-109.98C1071.14,-100.29 1133.07,-84.51 1172.02,-74.58"/>
<polygon fill="#63b8ff" stroke="#63b8ff" points="1173.06,-77.93 1181.88,-72.07 1171.33,-71.15 1173.06,-77.93"/>
</a>
</g>
</g>
<!-- Node19&#45;&gt;Node3 -->
<g id="edge25_Node000019_Node000003" class="edge">
<title>Node19&#45;&gt;Node3</title>
<g id="a_edge25_Node000019_Node000003"><a xlink:title=" ">
<path fill="none" stroke="#63b8ff" d="M340.66,-109.75C340.66,-102.8 340.66,-92.85 340.66,-84.13"/>
<polygon fill="#63b8ff" stroke="#63b8ff" points="344.16,-84.09 340.66,-74.09 337.16,-84.09 344.16,-84.09"/>
</a>
</g>
</g>
<!-- Node19&#45;&gt;Node4 -->
<g id="edge23_Node000019_Node000004" class="edge">
<title>Node19&#45;&gt;Node4</title>
<g id="a_edge23_Node000019_Node000004"><a xlink:title=" ">
<path fill="none" stroke="#63b8ff" d="M313.03,-109.98C284.15,-101.09 238.65,-87.07 206.46,-77.15"/>
<polygon fill="#63b8ff" stroke="#63b8ff" points="207.1,-73.68 196.51,-74.08 205.04,-80.37 207.1,-73.68"/>
</a>
</g>
</g>
<!-- Node19&#45;&gt;Node16 -->
<g id="edge26_Node000019_Node000016" class="edge">
<title>Node19&#45;&gt;Node16</title>
<g id="a_edge26_Node000019_Node000016"><a xlink:title=" ">
<path fill="none" stroke="#63b8ff" d="M388.69,-111.19C455.5,-101.01 575.72,-82.7 641.87,-72.63"/>
<polygon fill="#63b8ff" stroke="#63b8ff" points="642.65,-76.05 652.01,-71.08 641.59,-69.13 642.65,-76.05"/>
</a>
</g>
</g>
<!-- Node20 -->
<g id="Node000020" class="node">
<title>Node20</title>
<g id="a_Node000020"><a xlink:title=" ">
<polygon fill="#e0e0e0" stroke="#999999" points="536.16,-74 487.16,-74 487.16,-55 536.16,-55 536.16,-74"/>
<text text-anchor="middle" x="511.66" y="-62" font-family="Helvetica,sans-Serif" font-size="10.00">netdb.h</text>
</a>
</g>
</g>
<!-- Node19&#45;&gt;Node20 -->
<g id="edge24_Node000019_Node000020" class="edge">
<title>Node19&#45;&gt;Node20</title>
<g id="a_edge24_Node000019_Node000020"><a xlink:title=" ">
<path fill="none" stroke="#63b8ff" d="M368.14,-109.98C397.78,-100.8 445.05,-86.15 477.18,-76.19"/>
<polygon fill="#63b8ff" stroke="#63b8ff" points="478.52,-79.44 487.03,-73.13 476.44,-72.75 478.52,-79.44"/>
</a>
</g>
</g>
<!-- Node21&#45;&gt;Node2 -->
<g id="edge37_Node000021_Node000002" class="edge">
<title>Node21&#45;&gt;Node2</title>
<g id="a_edge37_Node000021_Node000002"><a xlink:title=" ">
<path fill="none" stroke="#63b8ff" d="M590.49,-167.6C510.68,-160 370.34,-145.75 250.66,-129 249.39,-128.82 248.09,-128.64 246.79,-128.44"/>
<polygon fill="#63b8ff" stroke="#63b8ff" points="247.09,-124.95 236.67,-126.88 246.02,-131.87 247.09,-124.95"/>
</a>
</g>
</g>
<!-- Node21&#45;&gt;Node4 -->
<g id="edge38_Node000021_Node000004" class="edge">
<title>Node21&#45;&gt;Node4</title>
<g id="a_edge38_Node000021_Node000004"><a xlink:title=" ">
<path fill="none" stroke="#63b8ff" d="M590.39,-173.21C515.13,-171.19 387.54,-162.5 283.66,-129 274.07,-125.91 222.92,-96.83 192.16,-79.11"/>
<polygon fill="#63b8ff" stroke="#63b8ff" points="193.75,-75.98 183.34,-74.02 190.25,-82.05 193.75,-75.98"/>
</a>
</g>
</g>
<!-- Node21&#45;&gt;Node10 -->
<g id="edge39_Node000021_Node000010" class="edge">
<title>Node21&#45;&gt;Node10</title>
<g id="a_edge39_Node000021_Node000010"><a xlink:title=" ">
<path fill="none" stroke="#63b8ff" d="M710.09,-164.98C771.93,-155.49 871.76,-140.15 936.55,-130.2"/>
<polygon fill="#63b8ff" stroke="#63b8ff" points="937.28,-133.62 946.64,-128.65 936.22,-126.71 937.28,-133.62"/>
</a>
</g>
</g>
<!-- Node21&#45;&gt;Node12 -->
<g id="edge30_Node000021_Node000012" class="edge">
<title>Node21&#45;&gt;Node12</title>
<g id="a_edge30_Node000021_Node000012"><a xlink:title=" ">
<path fill="none" stroke="#63b8ff" d="M718.81,-171.03C754.22,-166.48 796.75,-155.34 825.66,-129 838.25,-117.53 843.95,-98.65 846.54,-84.45"/>
<polygon fill="#63b8ff" stroke="#63b8ff" points="850.04,-84.69 848.01,-74.3 843.11,-83.69 850.04,-84.69"/>
</a>
</g>
</g>
<!-- Node21&#45;&gt;Node13 -->
<g id="edge32_Node000021_Node000013" class="edge">
<title>Node21&#45;&gt;Node13</title>
<g id="a_edge32_Node000021_Node000013"><a xlink:title=" ">
<path fill="none" stroke="#63b8ff" d="M664.56,-164.66C685.14,-146.3 732.74,-103.81 758.45,-80.87"/>
<polygon fill="#63b8ff" stroke="#63b8ff" points="760.83,-83.43 765.96,-74.16 756.17,-78.21 760.83,-83.43"/>
</a>
</g>
</g>
<!-- Node21&#45;&gt;Node16 -->
<g id="edge33_Node000021_Node000016" class="edge">
<title>Node21&#45;&gt;Node16</title>
<g id="a_edge33_Node000021_Node000016"><a xlink:title=" ">
<path fill="none" stroke="#63b8ff" d="M657.45,-164.66C662.98,-147.09 675.46,-107.45 682.85,-83.95"/>
<polygon fill="#63b8ff" stroke="#63b8ff" points="686.27,-84.75 685.94,-74.16 679.6,-82.65 686.27,-84.75"/>
</a>
</g>
</g>
<!-- Node21&#45;&gt;Node20 -->
<g id="edge31_Node000021_Node000020" class="edge">
<title>Node21&#45;&gt;Node20</title>
<g id="a_edge31_Node000021_Node000020"><a xlink:title=" ">
<path fill="none" stroke="#63b8ff" d="M654.46,-164.9C653.67,-151.45 650.23,-125.37 635.66,-110 612.23,-85.27 574.08,-74.25 546.27,-69.36"/>
<polygon fill="#63b8ff" stroke="#63b8ff" points="546.6,-65.87 536.18,-67.77 545.51,-72.78 546.6,-65.87"/>
</a>
</g>
</g>
<!-- Node22 -->
<g id="Node000022" class="node">
<title>Node22</title>
<g id="a_Node000022"><a xlink:title=" ">
<polygon fill="#e0e0e0" stroke="#999999" points="816.16,-129 759.16,-129 759.16,-110 816.16,-110 816.16,-129"/>
<text text-anchor="middle" x="787.66" y="-117" font-family="Helvetica,sans-Serif" font-size="10.00">pthread.h</text>
</a>
</g>
</g>
<!-- Node21&#45;&gt;Node22 -->
<g id="edge28_Node000021_Node000022" class="edge">
<title>Node21&#45;&gt;Node22</title>
<g id="a_edge28_Node000021_Node000022"><a xlink:title=" ">
<path fill="none" stroke="#63b8ff" d="M676.03,-164.98C697.81,-156.3 731.82,-142.75 756.58,-132.88"/>
<polygon fill="#63b8ff" stroke="#63b8ff" points="757.91,-136.12 765.91,-129.17 755.32,-129.62 757.91,-136.12"/>
</a>
</g>
</g>
<!-- Node23 -->
<g id="Node000023" class="node">
<title>Node23</title>
<g id="a_Node000023"><a xlink:title=" ">
<polygon fill="#e0e0e0" stroke="#999999" points="928.66,-129 872.66,-129 872.66,-110 928.66,-110 928.66,-129"/>
<text text-anchor="middle" x="900.66" y="-117" font-family="Helvetica,sans-Serif" font-size="10.00">stdbool.h</text>
</a>
</g>
</g>
<!-- Node21&#45;&gt;Node23 -->
<g id="edge29_Node000021_Node000023" class="edge">
<title>Node21&#45;&gt;Node23</title>
<g id="a_edge29_Node000021_Node000023"><a xlink:title=" ">
<path fill="none" stroke="#63b8ff" d="M694.19,-164.98C740.53,-155 816.8,-138.57 862.53,-128.72"/>
<polygon fill="#63b8ff" stroke="#63b8ff" points="863.32,-132.13 872.36,-126.6 861.84,-125.28 863.32,-132.13"/>
</a>
</g>
</g>
<!-- Node24 -->
<g id="Node000024" class="node">
<title>Node24</title>
<g id="a_Node000024"><a xlink:title=" ">
<polygon fill="#e0e0e0" stroke="#999999" points="468.66,-129 406.66,-129 406.66,-110 468.66,-110 468.66,-129"/>
<text text-anchor="middle" x="437.66" y="-117" font-family="Helvetica,sans-Serif" font-size="10.00">sys/time.h</text>
</a>
</g>
</g>
<!-- Node21&#45;&gt;Node24 -->
<g id="edge34_Node000021_Node000024" class="edge">
<title>Node21&#45;&gt;Node24</title>
<g id="a_edge34_Node000021_Node000024"><a xlink:title=" ">
<path fill="none" stroke="#63b8ff" d="M619.8,-164.98C581.36,-155.6 519.59,-140.51 478.81,-130.55"/>
<polygon fill="#63b8ff" stroke="#63b8ff" points="479.46,-127.11 468.92,-128.13 477.8,-133.91 479.46,-127.11"/>
</a>
</g>
</g>
<!-- Node25 -->
<g id="Node000025" class="node">
<title>Node25</title>
<g id="a_Node000025"><a xlink:title=" ">
<polygon fill="#e0e0e0" stroke="#999999" points="554.66,-129 486.66,-129 486.66,-110 554.66,-110 554.66,-129"/>
<text text-anchor="middle" x="520.66" y="-117" font-family="Helvetica,sans-Serif" font-size="10.00">sys/types.h</text>
</a>
</g>
</g>
<!-- Node21&#45;&gt;Node25 -->
<g id="edge35_Node000021_Node000025" class="edge">
<title>Node21&#45;&gt;Node25</title>
<g id="a_edge35_Node000021_Node000025"><a xlink:title=" ">
<path fill="none" stroke="#63b8ff" d="M633.13,-164.98C611.19,-156.3 576.92,-142.75 551.97,-132.88"/>
<polygon fill="#63b8ff" stroke="#63b8ff" points="553.17,-129.59 542.58,-129.17 550.6,-136.1 553.17,-129.59"/>
</a>
</g>
</g>
<!-- Node26 -->
<g id="Node000026" class="node">
<title>Node26</title>
<g id="a_Node000026"><a xlink:title=" ">
<polygon fill="#e0e0e0" stroke="#999999" points="626.66,-129 572.66,-129 572.66,-110 626.66,-110 626.66,-129"/>
<text text-anchor="middle" x="599.66" y="-117" font-family="Helvetica,sans-Serif" font-size="10.00">sys/un.h</text>
</a>
</g>
</g>
<!-- Node21&#45;&gt;Node26 -->
<g id="edge36_Node000021_Node000026" class="edge">
<title>Node21&#45;&gt;Node26</title>
<g id="a_edge36_Node000021_Node000026"><a xlink:title=" ">
<path fill="none" stroke="#63b8ff" d="M645.58,-164.75C637.57,-157.03 625.71,-145.6 616.04,-136.28"/>
<polygon fill="#63b8ff" stroke="#63b8ff" points="618.21,-133.51 608.58,-129.09 613.35,-138.55 618.21,-133.51"/>
</a>
</g>
</g>
</g>
</svg>
