<?xml version="1.0" encoding="UTF-8" standalone="no"?>
<!DOCTYPE svg PUBLIC "-//W3C//DTD SVG 1.1//EN"
 "http://www.w3.org/Graphics/SVG/1.1/DTD/svg11.dtd">
<!-- Generated by graphviz version 2.43.0 (0)
 -->
<!-- Title: SocketTLS.h Pages: 1 -->
<svg width="565pt" height="192pt"
 viewBox="0.00 0.00 565.00 192.00" xmlns="http://www.w3.org/2000/svg" xmlns:xlink="http://www.w3.org/1999/xlink">
<g id="graph0" class="graph" transform="scale(1 1) rotate(0) translate(4 188)">
<title>SocketTLS.h</title>
<!-- Node1 -->
<g id="Node000001" class="node">
<title>Node1</title>
<g id="a_Node000001"><a xlink:title=" ">
<polygon fill="#999999" stroke="#666666" points="462.5,-184 388.5,-184 388.5,-165 462.5,-165 462.5,-184"/>
<text text-anchor="middle" x="425.5" y="-172" font-family="Helvetica,sans-Serif" font-size="10.00">SocketTLS.h</text>
</a>
</g>
</g>
<!-- Node2 -->
<g id="Node000002" class="node">
<title>Node2</title>
<g id="a_Node000002"><a xlink:href="SocketDTLSContext_8h.html" target="_top" xlink:title=" ">
<polygon fill="white" stroke="#666666" points="353.5,-129 237.5,-129 237.5,-110 353.5,-110 353.5,-129"/>
<text text-anchor="middle" x="295.5" y="-117" font-family="Helvetica,sans-Serif" font-size="10.00">SocketDTLSContext.h</text>
</a>
</g>
</g>
<!-- Node1&#45;&gt;Node2 -->
<g id="edge1_Node000001_Node000002" class="edge">
<title>Node1&#45;&gt;Node2</title>
<g id="a_edge1_Node000001_Node000002"><a xlink:title=" ">
<path fill="none" stroke="#63b8ff" d="M395.23,-161.16C371.16,-151.35 338.1,-137.87 316.77,-129.17"/>
<polygon fill="#63b8ff" stroke="#63b8ff" points="394.03,-164.45 404.61,-164.98 396.67,-157.97 394.03,-164.45"/>
</a>
</g>
</g>
<!-- Node3 -->
<g id="Node000003" class="node">
<title>Node3</title>
<g id="a_Node000003"><a xlink:href="SocketTLSContext_8h.html" target="_top" xlink:title=" ">
<polygon fill="white" stroke="#666666" points="479.5,-129 371.5,-129 371.5,-110 479.5,-110 479.5,-129"/>
<text text-anchor="middle" x="425.5" y="-117" font-family="Helvetica,sans-Serif" font-size="10.00">SocketTLSContext.h</text>
</a>
</g>
</g>
<!-- Node1&#45;&gt;Node3 -->
<g id="edge2_Node000001_Node000003" class="edge">
<title>Node1&#45;&gt;Node3</title>
<g id="a_edge2_Node000001_Node000003"><a xlink:title=" ">
<path fill="none" stroke="#63b8ff" d="M425.5,-154.66C425.5,-145.93 425.5,-135.99 425.5,-129.09"/>
<polygon fill="#63b8ff" stroke="#63b8ff" points="422,-154.75 425.5,-164.75 429,-154.75 422,-154.75"/>
</a>
</g>
</g>
<!-- Node12 -->
<g id="Node000012" class="node">
<title>Node12</title>
<g id="a_Node000012"><a xlink:href="proxy__connect_8c.html" target="_top" xlink:title=" ">
<polygon fill="white" stroke="#666666" points="557,-19 468,-19 468,0 557,0 557,-19"/>
<text text-anchor="middle" x="512.5" y="-7" font-family="Helvetica,sans-Serif" font-size="10.00">proxy_connect.c</text>
</a>
</g>
</g>
<!-- Node1&#45;&gt;Node12 -->
<g id="edge13_Node000001_Node000012" class="edge">
<title>Node1&#45;&gt;Node12</title>
<g id="a_edge13_Node000001_Node000012"><a xlink:title=" ">
<path fill="none" stroke="#63b8ff" d="M453.33,-160.09C465.93,-152.63 479.91,-142.18 488.5,-129 511.77,-93.31 513.23,-39.71 512.83,-19.04"/>
<polygon fill="#63b8ff" stroke="#63b8ff" points="451.54,-157.08 444.48,-164.98 454.93,-163.2 451.54,-157.08"/>
</a>
</g>
</g>
<!-- Node4 -->
<g id="Node000004" class="node">
<title>Node4</title>
<g id="a_Node000004"><a xlink:href="SocketHTTPClient_8h.html" target="_top" xlink:title=" ">
<polygon fill="white" stroke="#666666" points="217,-74 110,-74 110,-55 217,-55 217,-74"/>
<text text-anchor="middle" x="163.5" y="-62" font-family="Helvetica,sans-Serif" font-size="10.00">SocketHTTPClient.h</text>
</a>
</g>
</g>
<!-- Node3&#45;&gt;Node4 -->
<g id="edge3_Node000003_Node000004" class="edge">
<title>Node3&#45;&gt;Node4</title>
<g id="a_edge3_Node000003_Node000004"><a xlink:title=" ">
<path fill="none" stroke="#63b8ff" d="M373.3,-107.94C324.19,-98.01 251.57,-83.31 205.92,-74.08"/>
<polygon fill="#63b8ff" stroke="#63b8ff" points="372.91,-111.43 383.41,-109.98 374.3,-104.57 372.91,-111.43"/>
</a>
</g>
</g>
<!-- Node8 -->
<g id="Node000008" class="node">
<title>Node8</title>
<g id="a_Node000008"><a xlink:href="SocketHTTPServer_8h.html" target="_top" xlink:title=" ">
<polygon fill="white" stroke="#666666" points="367.5,-74 257.5,-74 257.5,-55 367.5,-55 367.5,-74"/>
<text text-anchor="middle" x="312.5" y="-62" font-family="Helvetica,sans-Serif" font-size="10.00">SocketHTTPServer.h</text>
</a>
</g>
</g>
<!-- Node3&#45;&gt;Node8 -->
<g id="edge7_Node000003_Node000008" class="edge">
<title>Node3&#45;&gt;Node8</title>
<g id="a_edge7_Node000003_Node000008"><a xlink:title=" ">
<path fill="none" stroke="#63b8ff" d="M398.07,-105.63C377.25,-95.87 349.2,-82.71 330.99,-74.17"/>
<polygon fill="#63b8ff" stroke="#63b8ff" points="396.8,-108.91 407.34,-109.98 399.78,-102.57 396.8,-108.91"/>
</a>
</g>
</g>
<!-- Node11 -->
<g id="Node000011" class="node">
<title>Node11</title>
<g id="a_Node000011"><a xlink:href="SocketProxy_8h.html" target="_top" xlink:title=" ">
<polygon fill="white" stroke="#666666" points="465.5,-74 385.5,-74 385.5,-55 465.5,-55 465.5,-74"/>
<text text-anchor="middle" x="425.5" y="-62" font-family="Helvetica,sans-Serif" font-size="10.00">SocketProxy.h</text>
</a>
</g>
</g>
<!-- Node3&#45;&gt;Node11 -->
<g id="edge10_Node000003_Node000011" class="edge">
<title>Node3&#45;&gt;Node11</title>
<g id="a_edge10_Node000003_Node000011"><a xlink:title=" ">
<path fill="none" stroke="#63b8ff" d="M425.5,-99.66C425.5,-90.93 425.5,-80.99 425.5,-74.09"/>
<polygon fill="#63b8ff" stroke="#63b8ff" points="422,-99.75 425.5,-109.75 429,-99.75 422,-99.75"/>
</a>
</g>
</g>
<!-- Node3&#45;&gt;Node12 -->
<g id="edge12_Node000003_Node000012" class="edge">
<title>Node3&#45;&gt;Node12</title>
<g id="a_edge12_Node000003_Node000012"><a xlink:title=" ">
<path fill="none" stroke="#63b8ff" d="M444.74,-103.33C454.32,-95.23 465.71,-84.73 474.5,-74 489.16,-56.11 501.99,-31.99 508.32,-19.24"/>
<polygon fill="#63b8ff" stroke="#63b8ff" points="442.39,-100.73 436.89,-109.78 446.84,-106.14 442.39,-100.73"/>
</a>
</g>
</g>
<!-- Node5 -->
<g id="Node000005" class="node">
<title>Node5</title>
<g id="a_Node000005"><a xlink:href="http2__client_8c.html" target="_top" xlink:title=" ">
<polygon fill="white" stroke="#666666" points="75,-19 0,-19 0,0 75,0 75,-19"/>
<text text-anchor="middle" x="37.5" y="-7" font-family="Helvetica,sans-Serif" font-size="10.00">http2_client.c</text>
</a>
</g>
</g>
<!-- Node4&#45;&gt;Node5 -->
<g id="edge4_Node000004_Node000005" class="edge">
<title>Node4&#45;&gt;Node5</title>
<g id="a_edge4_Node000004_Node000005"><a xlink:title=" ">
<path fill="none" stroke="#63b8ff" d="M133.85,-51.03C110.55,-41.23 78.7,-27.83 58.11,-19.17"/>
<polygon fill="#63b8ff" stroke="#63b8ff" points="132.68,-54.33 143.26,-54.98 135.4,-47.88 132.68,-54.33"/>
</a>
</g>
</g>
<!-- Node6 -->
<g id="Node000006" class="node">
<title>Node6</title>
<g id="a_Node000006"><a xlink:href="http__get_8c.html" target="_top" xlink:title=" ">
<polygon fill="white" stroke="#666666" points="152.5,-19 92.5,-19 92.5,0 152.5,0 152.5,-19"/>
<text text-anchor="middle" x="122.5" y="-7" font-family="Helvetica,sans-Serif" font-size="10.00">http_get.c</text>
</a>
</g>
</g>
<!-- Node4&#45;&gt;Node6 -->
<g id="edge5_Node000004_Node000006" class="edge">
<title>Node4&#45;&gt;Node6</title>
<g id="a_edge5_Node000004_Node000006"><a xlink:title=" ">
<path fill="none" stroke="#63b8ff" d="M150.48,-46.67C143.38,-37.5 134.9,-26.52 129.14,-19.09"/>
<polygon fill="#63b8ff" stroke="#63b8ff" points="147.84,-48.98 156.73,-54.75 153.38,-44.7 147.84,-48.98"/>
</a>
</g>
</g>
<!-- Node7 -->
<g id="Node000007" class="node">
<title>Node7</title>
<g id="a_Node000007"><a xlink:href="http__post_8c.html" target="_top" xlink:title=" ">
<polygon fill="white" stroke="#666666" points="236,-19 171,-19 171,0 236,0 236,-19"/>
<text text-anchor="middle" x="203.5" y="-7" font-family="Helvetica,sans-Serif" font-size="10.00">http_post.c</text>
</a>
</g>
</g>
<!-- Node4&#45;&gt;Node7 -->
<g id="edge6_Node000004_Node000007" class="edge">
<title>Node4&#45;&gt;Node7</title>
<g id="a_edge6_Node000004_Node000007"><a xlink:title=" ">
<path fill="none" stroke="#63b8ff" d="M176.2,-46.67C183.13,-37.5 191.41,-26.52 197.02,-19.09"/>
<polygon fill="#63b8ff" stroke="#63b8ff" points="173.34,-44.66 170.11,-54.75 178.92,-48.87 173.34,-44.66"/>
</a>
</g>
</g>
<!-- Node9 -->
<g id="Node000009" class="node">
<title>Node9</title>
<g id="a_Node000009"><a xlink:href="http__server_8c.html" target="_top" xlink:title=" ">
<polygon fill="white" stroke="#666666" points="327,-19 254,-19 254,0 327,0 327,-19"/>
<text text-anchor="middle" x="290.5" y="-7" font-family="Helvetica,sans-Serif" font-size="10.00">http_server.c</text>
</a>
</g>
</g>
<!-- Node8&#45;&gt;Node9 -->
<g id="edge8_Node000008_Node000009" class="edge">
<title>Node8&#45;&gt;Node9</title>
<g id="a_edge8_Node000008_Node000009"><a xlink:title=" ">
<path fill="none" stroke="#63b8ff" d="M304.92,-45.24C301.24,-36.37 296.99,-26.14 294.07,-19.09"/>
<polygon fill="#63b8ff" stroke="#63b8ff" points="301.8,-46.85 308.87,-54.75 308.27,-44.17 301.8,-46.85"/>
</a>
</g>
</g>
<!-- Node10 -->
<g id="Node000010" class="node">
<title>Node10</title>
<g id="a_Node000010"><a xlink:href="websocket__server_8c.html" target="_top" xlink:title=" ">
<polygon fill="white" stroke="#666666" points="449.5,-19 345.5,-19 345.5,0 449.5,0 449.5,-19"/>
<text text-anchor="middle" x="397.5" y="-7" font-family="Helvetica,sans-Serif" font-size="10.00">websocket_server.c</text>
</a>
</g>
</g>
<!-- Node8&#45;&gt;Node10 -->
<g id="edge9_Node000008_Node000010" class="edge">
<title>Node8&#45;&gt;Node10</title>
<g id="a_edge9_Node000008_Node000010"><a xlink:title=" ">
<path fill="none" stroke="#63b8ff" d="M335.07,-49.42C350.5,-39.81 370.45,-27.37 383.59,-19.17"/>
<polygon fill="#63b8ff" stroke="#63b8ff" points="332.79,-46.72 326.16,-54.98 336.49,-52.66 332.79,-46.72"/>
</a>
</g>
</g>
<!-- Node11&#45;&gt;Node12 -->
<g id="edge11_Node000011_Node000012" class="edge">
<title>Node11&#45;&gt;Node12</title>
<g id="a_edge11_Node000011_Node000012"><a xlink:title=" ">
<path fill="none" stroke="#63b8ff" d="M448.16,-49.7C464.01,-40.04 484.69,-27.44 498.27,-19.17"/>
<polygon fill="#63b8ff" stroke="#63b8ff" points="446.2,-46.79 439.48,-54.98 449.84,-52.77 446.2,-46.79"/>
</a>
</g>
</g>
</g>
</svg>
