<?xml version="1.0" encoding="UTF-8" standalone="no"?>
<!DOCTYPE svg PUBLIC "-//W3C//DTD SVG 1.1//EN"
 "http://www.w3.org/Graphics/SVG/1.1/DTD/svg11.dtd">
<!-- Generated by graphviz version 2.43.0 (0)
 -->
<!-- Title: Socket.h Pages: 1 -->
<svg width="1080pt" height="247pt"
 viewBox="0.00 0.00 1080.00 247.00" xmlns="http://www.w3.org/2000/svg" xmlns:xlink="http://www.w3.org/1999/xlink">
<g id="graph0" class="graph" transform="scale(1 1) rotate(0) translate(4 243)">
<title>Socket.h</title>
<!-- Node1 -->
<g id="Node000001" class="node">
<title>Node1</title>
<g id="a_Node000001"><a xlink:title="High&#45;level TCP/IP and Unix domain socket interface.">
<polygon fill="#999999" stroke="#666666" points="434.5,-239 378.5,-239 378.5,-220 434.5,-220 434.5,-239"/>
<text text-anchor="middle" x="406.5" y="-227" font-family="Helvetica,sans-Serif" font-size="10.00">Socket.h</text>
</a>
</g>
</g>
<!-- Node2 -->
<g id="Node000002" class="node">
<title>Node2</title>
<g id="a_Node000002"><a xlink:href="Except_8h.html" target="_top" xlink:title="Structured exception handling for C with TRY/EXCEPT/FINALLY blocks.">
<polygon fill="white" stroke="#666666" points="77,-74 0,-74 0,-55 77,-55 77,-74"/>
<text text-anchor="middle" x="38.5" y="-62" font-family="Helvetica,sans-Serif" font-size="10.00">core/Except.h</text>
</a>
</g>
</g>
<!-- Node1&#45;&gt;Node2 -->
<g id="edge1_Node000001_Node000002" class="edge">
<title>Node1&#45;&gt;Node2</title>
<g id="a_edge1_Node000001_Node000002"><a xlink:title=" ">
<path fill="none" stroke="#63b8ff" d="M378.27,-225.76C295.95,-217.12 59.05,-187.53 13.5,-129 2.64,-115.04 12.95,-95.77 23.43,-82.12"/>
<polygon fill="#63b8ff" stroke="#63b8ff" points="26.41,-84.01 30.12,-74.08 21.03,-79.53 26.41,-84.01"/>
</a>
</g>
</g>
<!-- Node4 -->
<g id="Node000004" class="node">
<title>Node4</title>
<g id="a_Node000004"><a xlink:href="SocketConfig_8h.html" target="_top" xlink:title="Compile&#45;time and runtime configuration constants, limits, and platform adaptations.">
<polygon fill="white" stroke="#666666" points="881.5,-129 775.5,-129 775.5,-110 881.5,-110 881.5,-129"/>
<text text-anchor="middle" x="828.5" y="-117" font-family="Helvetica,sans-Serif" font-size="10.00">core/SocketConfig.h</text>
</a>
</g>
</g>
<!-- Node1&#45;&gt;Node4 -->
<g id="edge3_Node000001_Node000004" class="edge">
<title>Node1&#45;&gt;Node4</title>
<g id="a_edge3_Node000001_Node000004"><a xlink:title=" ">
<path fill="none" stroke="#63b8ff" d="M434.52,-221.33C506.58,-202.89 698.8,-153.69 785.28,-131.56"/>
<polygon fill="#63b8ff" stroke="#63b8ff" points="786.22,-134.93 795.04,-129.06 784.48,-128.15 786.22,-134.93"/>
</a>
</g>
</g>
<!-- Node14 -->
<g id="Node000014" class="node">
<title>Node14</title>
<g id="a_Node000014"><a xlink:href="SocketDNS_8h.html" target="_top" xlink:title="Asynchronous DNS resolution API for non&#45;blocking network applications.">
<polygon fill="white" stroke="#666666" points="217.5,-129 121.5,-129 121.5,-110 217.5,-110 217.5,-129"/>
<text text-anchor="middle" x="169.5" y="-117" font-family="Helvetica,sans-Serif" font-size="10.00">dns/SocketDNS.h</text>
</a>
</g>
</g>
<!-- Node1&#45;&gt;Node14 -->
<g id="edge13_Node000001_Node000014" class="edge">
<title>Node1&#45;&gt;Node14</title>
<g id="a_edge13_Node000001_Node000014"><a xlink:title=" ">
<path fill="none" stroke="#63b8ff" d="M387.51,-219.84C345.89,-200.88 246.48,-155.58 197.6,-133.31"/>
<polygon fill="#63b8ff" stroke="#63b8ff" points="198.81,-130.01 188.26,-129.05 195.9,-136.38 198.81,-130.01"/>
</a>
</g>
</g>
<!-- Node17 -->
<g id="Node000017" class="node">
<title>Node17</title>
<g id="a_Node000017"><a xlink:href="SocketCommon_8h.html" target="_top" xlink:title="Common utilities shared between Socket and SocketDgram modules.">
<polygon fill="white" stroke="#666666" points="549.5,-184 421.5,-184 421.5,-165 549.5,-165 549.5,-184"/>
<text text-anchor="middle" x="485.5" y="-172" font-family="Helvetica,sans-Serif" font-size="10.00">socket/SocketCommon.h</text>
</a>
</g>
</g>
<!-- Node1&#45;&gt;Node17 -->
<g id="edge19_Node000001_Node000017" class="edge">
<title>Node1&#45;&gt;Node17</title>
<g id="a_edge19_Node000001_Node000017"><a xlink:title=" ">
<path fill="none" stroke="#63b8ff" d="M419.19,-219.98C431.33,-211.84 449.86,-199.41 464.25,-189.76"/>
<polygon fill="#63b8ff" stroke="#63b8ff" points="466.22,-192.65 472.58,-184.17 462.32,-186.84 466.22,-192.65"/>
</a>
</g>
</g>
<!-- Node3 -->
<g id="Node000003" class="node">
<title>Node3</title>
<g id="a_Node000003"><a xlink:title=" ">
<polygon fill="#e0e0e0" stroke="#999999" points="65.5,-19 11.5,-19 11.5,0 65.5,0 65.5,-19"/>
<text text-anchor="middle" x="38.5" y="-7" font-family="Helvetica,sans-Serif" font-size="10.00">setjmp.h</text>
</a>
</g>
</g>
<!-- Node2&#45;&gt;Node3 -->
<g id="edge2_Node000002_Node000003" class="edge">
<title>Node2&#45;&gt;Node3</title>
<g id="a_edge2_Node000002_Node000003"><a xlink:title=" ">
<path fill="none" stroke="#63b8ff" d="M38.5,-54.75C38.5,-47.8 38.5,-37.85 38.5,-29.13"/>
<polygon fill="#63b8ff" stroke="#63b8ff" points="42,-29.09 38.5,-19.09 35,-29.09 42,-29.09"/>
</a>
</g>
</g>
<!-- Node5 -->
<g id="Node000005" class="node">
<title>Node5</title>
<g id="a_Node000005"><a xlink:title=" ">
<polygon fill="#e0e0e0" stroke="#999999" points="775,-74 728,-74 728,-55 775,-55 775,-74"/>
<text text-anchor="middle" x="751.5" y="-62" font-family="Helvetica,sans-Serif" font-size="10.00">errno.h</text>
</a>
</g>
</g>
<!-- Node4&#45;&gt;Node5 -->
<g id="edge4_Node000004_Node000005" class="edge">
<title>Node4&#45;&gt;Node5</title>
<g id="a_edge4_Node000004_Node000005"><a xlink:title=" ">
<path fill="none" stroke="#63b8ff" d="M816.13,-109.98C804.41,-101.92 786.58,-89.65 772.61,-80.03"/>
<polygon fill="#63b8ff" stroke="#63b8ff" points="774.32,-76.96 764.1,-74.17 770.35,-82.72 774.32,-76.96"/>
</a>
</g>
</g>
<!-- Node6 -->
<g id="Node000006" class="node">
<title>Node6</title>
<g id="a_Node000006"><a xlink:title=" ">
<polygon fill="#e0e0e0" stroke="#999999" points="626.5,-74 582.5,-74 582.5,-55 626.5,-55 626.5,-74"/>
<text text-anchor="middle" x="604.5" y="-62" font-family="Helvetica,sans-Serif" font-size="10.00">fcntl.h</text>
</a>
</g>
</g>
<!-- Node4&#45;&gt;Node6 -->
<g id="edge5_Node000004_Node000006" class="edge">
<title>Node4&#45;&gt;Node6</title>
<g id="a_edge5_Node000004_Node000006"><a xlink:title=" ">
<path fill="none" stroke="#63b8ff" d="M790.16,-109.99C751.35,-101.29 689.63,-87.21 636.5,-74 636.4,-73.97 636.3,-73.95 636.2,-73.92"/>
<polygon fill="#63b8ff" stroke="#63b8ff" points="637.07,-70.53 626.51,-71.45 635.33,-77.32 637.07,-70.53"/>
</a>
</g>
</g>
<!-- Node7 -->
<g id="Node000007" class="node">
<title>Node7</title>
<g id="a_Node000007"><a xlink:title=" ">
<polygon fill="#e0e0e0" stroke="#999999" points="710,-74 645,-74 645,-55 710,-55 710,-74"/>
<text text-anchor="middle" x="677.5" y="-62" font-family="Helvetica,sans-Serif" font-size="10.00">netinet/in.h</text>
</a>
</g>
</g>
<!-- Node4&#45;&gt;Node7 -->
<g id="edge6_Node000004_Node000007" class="edge">
<title>Node4&#45;&gt;Node7</title>
<g id="a_edge6_Node000004_Node000007"><a xlink:title=" ">
<path fill="none" stroke="#63b8ff" d="M804.24,-109.98C779.18,-101.19 739.87,-87.39 711.67,-77.49"/>
<polygon fill="#63b8ff" stroke="#63b8ff" points="712.8,-74.18 702.2,-74.17 710.48,-80.78 712.8,-74.18"/>
</a>
</g>
</g>
<!-- Node8 -->
<g id="Node000008" class="node">
<title>Node8</title>
<g id="a_Node000008"><a xlink:title=" ">
<polygon fill="#e0e0e0" stroke="#999999" points="864,-74 793,-74 793,-55 864,-55 864,-74"/>
<text text-anchor="middle" x="828.5" y="-62" font-family="Helvetica,sans-Serif" font-size="10.00">netinet/tcp.h</text>
</a>
</g>
</g>
<!-- Node4&#45;&gt;Node8 -->
<g id="edge7_Node000004_Node000008" class="edge">
<title>Node4&#45;&gt;Node8</title>
<g id="a_edge7_Node000004_Node000008"><a xlink:title=" ">
<path fill="none" stroke="#63b8ff" d="M828.5,-109.75C828.5,-102.8 828.5,-92.85 828.5,-84.13"/>
<polygon fill="#63b8ff" stroke="#63b8ff" points="832,-84.09 828.5,-74.09 825,-84.09 832,-84.09"/>
</a>
</g>
</g>
<!-- Node9 -->
<g id="Node000009" class="node">
<title>Node9</title>
<g id="a_Node000009"><a xlink:title=" ">
<polygon fill="#e0e0e0" stroke="#999999" points="154.5,-74 102.5,-74 102.5,-55 154.5,-55 154.5,-74"/>
<text text-anchor="middle" x="128.5" y="-62" font-family="Helvetica,sans-Serif" font-size="10.00">stddef.h</text>
</a>
</g>
</g>
<!-- Node4&#45;&gt;Node9 -->
<g id="edge8_Node000004_Node000009" class="edge">
<title>Node4&#45;&gt;Node9</title>
<g id="a_edge8_Node000004_Node000009"><a xlink:title=" ">
<path fill="none" stroke="#63b8ff" d="M775.43,-110.95C772.41,-110.61 769.42,-110.29 766.5,-110 502.57,-84.07 430.75,-113.11 164.73,-73.9"/>
<polygon fill="#63b8ff" stroke="#63b8ff" points="165.18,-70.43 154.77,-72.41 164.15,-77.35 165.18,-70.43"/>
</a>
</g>
</g>
<!-- Node10 -->
<g id="Node000010" class="node">
<title>Node10</title>
<g id="a_Node000010"><a xlink:title=" ">
<polygon fill="#e0e0e0" stroke="#999999" points="928.5,-74 882.5,-74 882.5,-55 928.5,-55 928.5,-74"/>
<text text-anchor="middle" x="905.5" y="-62" font-family="Helvetica,sans-Serif" font-size="10.00">stdio.h</text>
</a>
</g>
</g>
<!-- Node4&#45;&gt;Node10 -->
<g id="edge9_Node000004_Node000010" class="edge">
<title>Node4&#45;&gt;Node10</title>
<g id="a_edge9_Node000004_Node000010"><a xlink:title=" ">
<path fill="none" stroke="#63b8ff" d="M840.87,-109.98C852.59,-101.92 870.42,-89.65 884.39,-80.03"/>
<polygon fill="#63b8ff" stroke="#63b8ff" points="886.65,-82.72 892.9,-74.17 882.68,-76.96 886.65,-82.72"/>
</a>
</g>
</g>
<!-- Node11 -->
<g id="Node000011" class="node">
<title>Node11</title>
<g id="a_Node000011"><a xlink:title=" ">
<polygon fill="#e0e0e0" stroke="#999999" points="560,-74 487,-74 487,-55 560,-55 560,-74"/>
<text text-anchor="middle" x="523.5" y="-62" font-family="Helvetica,sans-Serif" font-size="10.00">sys/socket.h</text>
</a>
</g>
</g>
<!-- Node4&#45;&gt;Node11 -->
<g id="edge10_Node000004_Node000011" class="edge">
<title>Node4&#45;&gt;Node11</title>
<g id="a_edge10_Node000004_Node000011"><a xlink:title=" ">
<path fill="none" stroke="#63b8ff" d="M779.5,-109.98C721.95,-99.99 627.18,-83.52 570.51,-73.67"/>
<polygon fill="#63b8ff" stroke="#63b8ff" points="570.84,-70.17 560.39,-71.91 569.65,-77.07 570.84,-70.17"/>
</a>
</g>
</g>
<!-- Node12 -->
<g id="Node000012" class="node">
<title>Node12</title>
<g id="a_Node000012"><a xlink:title=" ">
<polygon fill="#e0e0e0" stroke="#999999" points="1002.5,-74 946.5,-74 946.5,-55 1002.5,-55 1002.5,-74"/>
<text text-anchor="middle" x="974.5" y="-62" font-family="Helvetica,sans-Serif" font-size="10.00">sys/uio.h</text>
</a>
</g>
</g>
<!-- Node4&#45;&gt;Node12 -->
<g id="edge11_Node000004_Node000012" class="edge">
<title>Node4&#45;&gt;Node12</title>
<g id="a_edge11_Node000004_Node000012"><a xlink:title=" ">
<path fill="none" stroke="#63b8ff" d="M851.96,-109.98C876.08,-101.23 913.87,-87.51 941.1,-77.62"/>
<polygon fill="#63b8ff" stroke="#63b8ff" points="942.41,-80.87 950.62,-74.17 940.02,-74.29 942.41,-80.87"/>
</a>
</g>
</g>
<!-- Node13 -->
<g id="Node000013" class="node">
<title>Node13</title>
<g id="a_Node000013"><a xlink:title=" ">
<polygon fill="#e0e0e0" stroke="#999999" points="1072,-74 1021,-74 1021,-55 1072,-55 1072,-74"/>
<text text-anchor="middle" x="1046.5" y="-62" font-family="Helvetica,sans-Serif" font-size="10.00">unistd.h</text>
</a>
</g>
</g>
<!-- Node4&#45;&gt;Node13 -->
<g id="edge12_Node000004_Node000013" class="edge">
<title>Node4&#45;&gt;Node13</title>
<g id="a_edge12_Node000004_Node000013"><a xlink:title=" ">
<path fill="none" stroke="#63b8ff" d="M863.53,-109.98C904.02,-100.14 970.32,-84.02 1011.01,-74.13"/>
<polygon fill="#63b8ff" stroke="#63b8ff" points="1011.89,-77.52 1020.78,-71.75 1010.23,-70.72 1011.89,-77.52"/>
</a>
</g>
</g>
<!-- Node14&#45;&gt;Node2 -->
<g id="edge14_Node000014_Node000002" class="edge">
<title>Node14&#45;&gt;Node2</title>
<g id="a_edge14_Node000014_Node000002"><a xlink:title=" ">
<path fill="none" stroke="#63b8ff" d="M148.45,-109.98C127.09,-101.34 93.8,-87.87 69.44,-78.02"/>
<polygon fill="#63b8ff" stroke="#63b8ff" points="70.51,-74.68 59.93,-74.17 67.89,-81.17 70.51,-74.68"/>
</a>
</g>
</g>
<!-- Node14&#45;&gt;Node9 -->
<g id="edge16_Node000014_Node000009" class="edge">
<title>Node14&#45;&gt;Node9</title>
<g id="a_edge16_Node000014_Node000009"><a xlink:title=" ">
<path fill="none" stroke="#63b8ff" d="M162.73,-109.75C156.94,-102.26 148.44,-91.28 141.36,-82.13"/>
<polygon fill="#63b8ff" stroke="#63b8ff" points="144.03,-79.86 135.14,-74.09 138.49,-84.14 144.03,-79.86"/>
</a>
</g>
</g>
<!-- Node14&#45;&gt;Node11 -->
<g id="edge18_Node000014_Node000011" class="edge">
<title>Node14&#45;&gt;Node11</title>
<g id="a_edge18_Node000014_Node000011"><a xlink:title=" ">
<path fill="none" stroke="#63b8ff" d="M217.61,-111.3C285.76,-101.09 409.58,-82.56 476.9,-72.48"/>
<polygon fill="#63b8ff" stroke="#63b8ff" points="477.43,-75.94 486.8,-70.99 476.4,-69.01 477.43,-75.94"/>
</a>
</g>
</g>
<!-- Node15 -->
<g id="Node000015" class="node">
<title>Node15</title>
<g id="a_Node000015"><a xlink:title=" ">
<polygon fill="#e0e0e0" stroke="#999999" points="365,-74 316,-74 316,-55 365,-55 365,-74"/>
<text text-anchor="middle" x="340.5" y="-62" font-family="Helvetica,sans-Serif" font-size="10.00">netdb.h</text>
</a>
</g>
</g>
<!-- Node14&#45;&gt;Node15 -->
<g id="edge15_Node000014_Node000015" class="edge">
<title>Node14&#45;&gt;Node15</title>
<g id="a_edge15_Node000014_Node000015"><a xlink:title=" ">
<path fill="none" stroke="#63b8ff" d="M196.97,-109.98C226.62,-100.8 273.89,-86.15 306.01,-76.19"/>
<polygon fill="#63b8ff" stroke="#63b8ff" points="307.35,-79.44 315.87,-73.13 305.28,-72.75 307.35,-79.44"/>
</a>
</g>
</g>
<!-- Node16 -->
<g id="Node000016" class="node">
<title>Node16</title>
<g id="a_Node000016"><a xlink:title=" ">
<polygon fill="#e0e0e0" stroke="#999999" points="222,-74 173,-74 173,-55 222,-55 222,-74"/>
<text text-anchor="middle" x="197.5" y="-62" font-family="Helvetica,sans-Serif" font-size="10.00">stdint.h</text>
</a>
</g>
</g>
<!-- Node14&#45;&gt;Node16 -->
<g id="edge17_Node000014_Node000016" class="edge">
<title>Node14&#45;&gt;Node16</title>
<g id="a_edge17_Node000014_Node000016"><a xlink:title=" ">
<path fill="none" stroke="#63b8ff" d="M174.12,-109.75C177.96,-102.49 183.52,-91.95 188.26,-82.98"/>
<polygon fill="#63b8ff" stroke="#63b8ff" points="191.39,-84.57 192.96,-74.09 185.2,-81.3 191.39,-84.57"/>
</a>
</g>
</g>
<!-- Node17&#45;&gt;Node2 -->
<g id="edge32_Node000017_Node000002" class="edge">
<title>Node17&#45;&gt;Node2</title>
<g id="a_edge32_Node000017_Node000002"><a xlink:title=" ">
<path fill="none" stroke="#63b8ff" d="M421.35,-172.02C300.5,-168.57 48.8,-157.95 22.5,-129 11.07,-116.42 18.45,-96.88 26.56,-82.79"/>
<polygon fill="#63b8ff" stroke="#63b8ff" points="29.69,-84.39 32.08,-74.07 23.78,-80.65 29.69,-84.39"/>
</a>
</g>
</g>
<!-- Node17&#45;&gt;Node4 -->
<g id="edge33_Node000017_Node000004" class="edge">
<title>Node17&#45;&gt;Node4</title>
<g id="a_edge33_Node000017_Node000004"><a xlink:title=" ">
<path fill="none" stroke="#63b8ff" d="M540.61,-164.98C601.91,-155.51 700.76,-140.24 765.19,-130.28"/>
<polygon fill="#63b8ff" stroke="#63b8ff" points="765.87,-133.72 775.22,-128.73 764.8,-126.8 765.87,-133.72"/>
</a>
</g>
</g>
<!-- Node17&#45;&gt;Node6 -->
<g id="edge22_Node000017_Node000006" class="edge">
<title>Node17&#45;&gt;Node6</title>
<g id="a_edge22_Node000017_Node000006"><a xlink:title=" ">
<path fill="none" stroke="#63b8ff" d="M549.77,-167.05C574.13,-161.11 599.58,-149.93 614.5,-129 623.9,-115.82 619.44,-97.19 613.8,-83.52"/>
<polygon fill="#63b8ff" stroke="#63b8ff" points="616.86,-81.8 609.48,-74.2 610.52,-84.75 616.86,-81.8"/>
</a>
</g>
</g>
<!-- Node17&#45;&gt;Node7 -->
<g id="edge24_Node000017_Node000007" class="edge">
<title>Node17&#45;&gt;Node7</title>
<g id="a_edge24_Node000017_Node000007"><a xlink:title=" ">
<path fill="none" stroke="#63b8ff" d="M541.54,-164.94C570.11,-158.53 604.27,-147.55 630.5,-129 647.24,-117.16 660.46,-97.49 668.56,-83.18"/>
<polygon fill="#63b8ff" stroke="#63b8ff" points="671.68,-84.75 673.33,-74.28 665.52,-81.44 671.68,-84.75"/>
</a>
</g>
</g>
<!-- Node17&#45;&gt;Node11 -->
<g id="edge25_Node000017_Node000011" class="edge">
<title>Node17&#45;&gt;Node11</title>
<g id="a_edge25_Node000017_Node000011"><a xlink:title=" ">
<path fill="none" stroke="#63b8ff" d="M488.61,-164.66C494.82,-147.01 508.87,-107.09 517.12,-83.64"/>
<polygon fill="#63b8ff" stroke="#63b8ff" points="520.44,-84.75 520.45,-74.16 513.83,-82.43 520.44,-84.75"/>
</a>
</g>
</g>
<!-- Node17&#45;&gt;Node15 -->
<g id="edge23_Node000017_Node000015" class="edge">
<title>Node17&#45;&gt;Node15</title>
<g id="a_edge23_Node000017_Node000015"><a xlink:title=" ">
<path fill="none" stroke="#63b8ff" d="M485.3,-164.89C484.53,-151.43 481.1,-125.33 466.5,-110 442.59,-84.9 403.67,-73.94 375.41,-69.17"/>
<polygon fill="#63b8ff" stroke="#63b8ff" points="375.56,-65.65 365.15,-67.62 374.52,-72.57 375.56,-65.65"/>
</a>
</g>
</g>
<!-- Node18 -->
<g id="Node000018" class="node">
<title>Node18</title>
<g id="a_Node000018"><a xlink:title=" ">
<polygon fill="#e0e0e0" stroke="#999999" points="757,-129 700,-129 700,-110 757,-110 757,-129"/>
<text text-anchor="middle" x="728.5" y="-117" font-family="Helvetica,sans-Serif" font-size="10.00">pthread.h</text>
</a>
</g>
</g>
<!-- Node17&#45;&gt;Node18 -->
<g id="edge20_Node000017_Node000018" class="edge">
<title>Node17&#45;&gt;Node18</title>
<g id="a_edge20_Node000017_Node000018"><a xlink:title=" ">
<path fill="none" stroke="#63b8ff" d="M524.54,-164.98C569.97,-155.08 644.52,-138.82 689.8,-128.94"/>
<polygon fill="#63b8ff" stroke="#63b8ff" points="690.8,-132.3 699.83,-126.75 689.31,-125.47 690.8,-132.3"/>
</a>
</g>
</g>
<!-- Node19 -->
<g id="Node000019" class="node">
<title>Node19</title>
<g id="a_Node000019"><a xlink:title=" ">
<polygon fill="#e0e0e0" stroke="#999999" points="291.5,-129 235.5,-129 235.5,-110 291.5,-110 291.5,-129"/>
<text text-anchor="middle" x="263.5" y="-117" font-family="Helvetica,sans-Serif" font-size="10.00">stdbool.h</text>
</a>
</g>
</g>
<!-- Node17&#45;&gt;Node19 -->
<g id="edge21_Node000017_Node000019" class="edge">
<title>Node17&#45;&gt;Node19</title>
<g id="a_edge21_Node000017_Node000019"><a xlink:title=" ">
<path fill="none" stroke="#63b8ff" d="M449.83,-164.98C409.18,-155.28 343.01,-139.48 301.44,-129.56"/>
<polygon fill="#63b8ff" stroke="#63b8ff" points="302.22,-126.15 291.69,-127.23 300.6,-132.96 302.22,-126.15"/>
</a>
</g>
</g>
<!-- Node20 -->
<g id="Node000020" class="node">
<title>Node20</title>
<g id="a_Node000020"><a xlink:title=" ">
<polygon fill="#e0e0e0" stroke="#999999" points="371.5,-129 309.5,-129 309.5,-110 371.5,-110 371.5,-129"/>
<text text-anchor="middle" x="340.5" y="-117" font-family="Helvetica,sans-Serif" font-size="10.00">sys/time.h</text>
</a>
</g>
</g>
<!-- Node17&#45;&gt;Node20 -->
<g id="edge26_Node000017_Node000020" class="edge">
<title>Node17&#45;&gt;Node20</title>
<g id="a_edge26_Node000017_Node000020"><a xlink:title=" ">
<path fill="none" stroke="#63b8ff" d="M462.2,-164.98C438.25,-156.23 400.72,-142.51 373.67,-132.62"/>
<polygon fill="#63b8ff" stroke="#63b8ff" points="374.81,-129.32 364.22,-129.17 372.41,-135.89 374.81,-129.32"/>
</a>
</g>
</g>
<!-- Node21 -->
<g id="Node000021" class="node">
<title>Node21</title>
<g id="a_Node000021"><a xlink:title=" ">
<polygon fill="#e0e0e0" stroke="#999999" points="457.5,-129 389.5,-129 389.5,-110 457.5,-110 457.5,-129"/>
<text text-anchor="middle" x="423.5" y="-117" font-family="Helvetica,sans-Serif" font-size="10.00">sys/types.h</text>
</a>
</g>
</g>
<!-- Node17&#45;&gt;Node21 -->
<g id="edge27_Node000017_Node000021" class="edge">
<title>Node17&#45;&gt;Node21</title>
<g id="a_edge27_Node000017_Node000021"><a xlink:title=" ">
<path fill="none" stroke="#63b8ff" d="M475.54,-164.98C466.37,-157.15 452.56,-145.34 441.47,-135.86"/>
<polygon fill="#63b8ff" stroke="#63b8ff" points="443.52,-133.01 433.64,-129.17 438.97,-138.33 443.52,-133.01"/>
</a>
</g>
</g>
<!-- Node22 -->
<g id="Node000022" class="node">
<title>Node22</title>
<g id="a_Node000022"><a xlink:title=" ">
<polygon fill="#e0e0e0" stroke="#999999" points="605.5,-129 551.5,-129 551.5,-110 605.5,-110 605.5,-129"/>
<text text-anchor="middle" x="578.5" y="-117" font-family="Helvetica,sans-Serif" font-size="10.00">sys/un.h</text>
</a>
</g>
</g>
<!-- Node17&#45;&gt;Node22 -->
<g id="edge28_Node000017_Node000022" class="edge">
<title>Node17&#45;&gt;Node22</title>
<g id="a_edge28_Node000017_Node000022"><a xlink:title=" ">
<path fill="none" stroke="#63b8ff" d="M500.44,-164.98C515,-156.69 537.37,-143.94 554.43,-134.22"/>
<polygon fill="#63b8ff" stroke="#63b8ff" points="556.33,-137.16 563.29,-129.17 552.86,-131.08 556.33,-137.16"/>
</a>
</g>
</g>
<!-- Node23 -->
<g id="Node000023" class="node">
<title>Node23</title>
<g id="a_Node000023"><a xlink:href="Arena_8h.html" target="_top" xlink:title="Arena&#45;based memory allocator for efficient bulk memory management.">
<polygon fill="white" stroke="#666666" points="103.5,-129 31.5,-129 31.5,-110 103.5,-110 103.5,-129"/>
<text text-anchor="middle" x="67.5" y="-117" font-family="Helvetica,sans-Serif" font-size="10.00">core/Arena.h</text>
</a>
</g>
</g>
<!-- Node17&#45;&gt;Node23 -->
<g id="edge29_Node000017_Node000023" class="edge">
<title>Node17&#45;&gt;Node23</title>
<g id="a_edge29_Node000017_Node000023"><a xlink:title=" ">
<path fill="none" stroke="#63b8ff" d="M421.3,-167.18C348.94,-159.76 227.58,-146.4 113.75,-129.1"/>
<polygon fill="#63b8ff" stroke="#63b8ff" points="114.23,-125.63 103.81,-127.58 113.17,-132.55 114.23,-125.63"/>
</a>
</g>
</g>
<!-- Node23&#45;&gt;Node2 -->
<g id="edge31_Node000023_Node000002" class="edge">
<title>Node23&#45;&gt;Node2</title>
<g id="a_edge31_Node000023_Node000002"><a xlink:title=" ">
<path fill="none" stroke="#63b8ff" d="M62.71,-109.75C58.74,-102.49 52.97,-91.95 48.07,-82.98"/>
<polygon fill="#63b8ff" stroke="#63b8ff" points="51.07,-81.18 43.2,-74.09 44.93,-84.54 51.07,-81.18"/>
</a>
</g>
</g>
<!-- Node23&#45;&gt;Node9 -->
<g id="edge30_Node000023_Node000009" class="edge">
<title>Node23&#45;&gt;Node9</title>
<g id="a_edge30_Node000023_Node000009"><a xlink:title=" ">
<path fill="none" stroke="#63b8ff" d="M77.3,-109.98C86.32,-102.15 99.91,-90.34 110.82,-80.86"/>
<polygon fill="#63b8ff" stroke="#63b8ff" points="113.27,-83.37 118.52,-74.17 108.68,-78.09 113.27,-83.37"/>
</a>
</g>
</g>
</g>
</svg>
