<?xml version="1.0" encoding="UTF-8" standalone="no"?>
<!DOCTYPE svg PUBLIC "-//W3C//DTD SVG 1.1//EN"
 "http://www.w3.org/Graphics/SVG/1.1/DTD/svg11.dtd">
<!-- Generated by graphviz version 2.43.0 (0)
 -->
<!-- Title: SocketHappyEyeballs.h Pages: 1 -->
<!--zoomable 357 -->

<svg id="main" version="1.1" xmlns="http://www.w3.org/2000/svg" xmlns:xlink="http://www.w3.org/1999/xlink" xml:space="preserve" onload="init(evt)">
<style type="text/css"><![CDATA[
.node, .edge {opacity: 0.7;}
.node.selected, .edge.selected {opacity: 1;}
.edge:hover path { stroke: red; }
.edge:hover polygon { stroke: red; fill: red; }
]]></style>

<defs>
  <circle id="rim" cx="0" cy="0" r="7"/>
  <circle id="rim2" cx="0" cy="0" r="3.5"/>
  <g id="zoomPlus">
    <use xlink:href="#rim" fill="#404040"><set attributeName="fill" to="#808080" begin="zoomplus.mouseover" end="zoomplus.mouseout"/></use>
    <path d="M-4,0h8M0,-4v8" fill="none" stroke="white" stroke-width="1.5" pointer-events="none"/>
  </g>
  <g id="zoomMin">
    <use xlink:href="#rim" fill="#404040"><set attributeName="fill" to="#808080" begin="zoomminus.mouseover" end="zoomminus.mouseout"/></use>
    <path d="M-4,0h8" fill="none" stroke="white" stroke-width="1.5" pointer-events="none"/>
  </g>
  <g id="arrowUp" transform="translate(30 24)">
    <use xlink:href="#rim"/>
    <path pointer-events="none" fill="none" stroke="white" stroke-width="1.5" d="M0,-3.0v7 M-2.5,-0.5L0,-3.0L2.5,-0.5"/>
  </g>
  <g id="arrowRight" transform="rotate(90) translate(36 -43)">
    <use xlink:href="#rim"/>
    <path pointer-events="none" fill="none" stroke="white" stroke-width="1.5" d="M0,-3.0v7 M-2.5,-0.5L0,-3.0L2.5,-0.5"/>
  </g>
  <g id="arrowDown" transform="rotate(180) translate(-30 -48)">
    <use xlink:href="#rim"/>
    <path pointer-events="none" fill="none" stroke="white" stroke-width="1.5" d="M0,-3.0v7 M-2.5,-0.5L0,-3.0L2.5,-0.5"/>
  </g>
  <g id="arrowLeft" transform="rotate(270) translate(-36 17)">
    <use xlink:href="#rim"/>
    <path pointer-events="none" fill="none" stroke="white" stroke-width="1.5" d="M0,-3.0v7 M-2.5,-0.5L0,-3.0L2.5,-0.5"/>
  </g>
  <g id="resetDef">
    <use xlink:href="#rim2" fill="#404040"><set attributeName="fill" to="#808080" begin="reset.mouseover" end="reset.mouseout"/></use>
  </g>
</defs>
<script type="application/ecmascript">
var viewWidth = 1155;
var viewHeight = 357;
var sectionId = 'dynsection-0';
</script>
<script type="application/ecmascript" xlink:href="svg.min.js"/>
<svg id="graph" class="graph">
<g id="viewport">
<title>SocketHappyEyeballs.h</title>
<!-- Node1 -->
<g id="Node000001" class="node">
<title>Node1</title>
<g id="a_Node000001"><a xlink:title="Happy Eyeballs (RFC 8305) implementation for fast dual&#45;stack connections.">
<polygon fill="#999999" stroke="#666666" points="254,-349 132,-349 132,-330 254,-330 254,-349"/>
<text text-anchor="middle" x="193" y="-337" font-family="Helvetica,sans-Serif" font-size="10.00">SocketHappyEyeballs.h</text>
</a>
</g>
</g>
<!-- Node2 -->
<g id="Node000002" class="node">
<title>Node2</title>
<g id="a_Node000002"><a xlink:href="Except_8h.html" target="_top" xlink:title="Structured exception handling for C with TRY/EXCEPT/FINALLY blocks.">
<polygon fill="white" stroke="#666666" points="263.5,-74 186.5,-74 186.5,-55 263.5,-55 263.5,-74"/>
<text text-anchor="middle" x="225" y="-62" font-family="Helvetica,sans-Serif" font-size="10.00">core/Except.h</text>
</a>
</g>
</g>
<!-- Node1&#45;&gt;Node2 -->
<g id="edge1_Node000001_Node000002" class="edge">
<title>Node1&#45;&gt;Node2</title>
<g id="a_edge1_Node000001_Node000002"><a xlink:title=" ">
<path fill="none" stroke="#63b8ff" d="M131.93,-330.25C75.39,-318.76 0,-291.93 0,-230.5 0,-230.5 0,-230.5 0,-173.5 0,-95.97 109.92,-74.06 176.1,-67.89"/>
<polygon fill="#63b8ff" stroke="#63b8ff" points="176.65,-71.36 186.32,-67.03 176.06,-64.38 176.65,-71.36"/>
</a>
</g>
</g>
<!-- Node4 -->
<g id="Node000004" class="node">
<title>Node4</title>
<g id="a_Node000004"><a xlink:href="SocketDNS_8h.html" target="_top" xlink:title="Asynchronous DNS resolution API for non&#45;blocking network applications.">
<polygon fill="white" stroke="#666666" points="349,-184 253,-184 253,-165 349,-165 349,-184"/>
<text text-anchor="middle" x="301" y="-172" font-family="Helvetica,sans-Serif" font-size="10.00">dns/SocketDNS.h</text>
</a>
</g>
</g>
<!-- Node1&#45;&gt;Node4 -->
<g id="edge3_Node000001_Node000004" class="edge">
<title>Node1&#45;&gt;Node4</title>
<g id="a_edge3_Node000001_Node000004"><a xlink:title=" ">
<path fill="none" stroke="#63b8ff" d="M196.51,-329.89C206.38,-305.92 234.57,-238.9 249,-220 257.68,-208.64 269.68,-198.13 279.97,-190.18"/>
<polygon fill="#63b8ff" stroke="#63b8ff" points="282.16,-192.91 288.1,-184.14 277.99,-187.29 282.16,-192.91"/>
</a>
</g>
</g>
<!-- Node9 -->
<g id="Node000009" class="node">
<title>Node9</title>
<g id="a_Node000009"><a xlink:href="SocketPoll_8h.html" target="_top" xlink:title="Cross&#45;platform high&#45;level interface for monitoring multiple sockets for I/O events.">
<polygon fill="white" stroke="#666666" points="202,-294 112,-294 112,-275 202,-275 202,-294"/>
<text text-anchor="middle" x="157" y="-282" font-family="Helvetica,sans-Serif" font-size="10.00">poll/SocketPoll.h</text>
</a>
</g>
</g>
<!-- Node1&#45;&gt;Node9 -->
<g id="edge9_Node000001_Node000009" class="edge">
<title>Node1&#45;&gt;Node9</title>
<g id="a_edge9_Node000001_Node000009"><a xlink:title=" ">
<path fill="none" stroke="#63b8ff" d="M187.06,-329.75C182.02,-322.34 174.66,-311.5 168.49,-302.41"/>
<polygon fill="#63b8ff" stroke="#63b8ff" points="171.35,-300.39 162.83,-294.09 165.56,-304.33 171.35,-300.39"/>
</a>
</g>
</g>
<!-- Node11 -->
<g id="Node000011" class="node">
<title>Node11</title>
<g id="a_Node000011"><a xlink:href="Socket_8h.html" target="_top" xlink:title="High&#45;level TCP/IP and Unix domain socket interface.">
<polygon fill="white" stroke="#666666" points="346,-239 258,-239 258,-220 346,-220 346,-239"/>
<text text-anchor="middle" x="302" y="-227" font-family="Helvetica,sans-Serif" font-size="10.00">socket/Socket.h</text>
</a>
</g>
</g>
<!-- Node1&#45;&gt;Node11 -->
<g id="edge42_Node000001_Node000011" class="edge">
<title>Node1&#45;&gt;Node11</title>
<g id="a_edge42_Node000001_Node000011"><a xlink:title=" ">
<path fill="none" stroke="#63b8ff" d="M203.46,-329.96C213.99,-321.24 230.56,-307.14 244,-294 259.59,-278.76 276.26,-260.25 287.71,-247.15"/>
<polygon fill="#63b8ff" stroke="#63b8ff" points="290.51,-249.27 294.42,-239.42 285.23,-244.68 290.51,-249.27"/>
</a>
</g>
</g>
<!-- Node3 -->
<g id="Node000003" class="node">
<title>Node3</title>
<g id="a_Node000003"><a xlink:title=" ">
<polygon fill="#e0e0e0" stroke="#999999" points="252,-19 198,-19 198,0 252,0 252,-19"/>
<text text-anchor="middle" x="225" y="-7" font-family="Helvetica,sans-Serif" font-size="10.00">setjmp.h</text>
</a>
</g>
</g>
<!-- Node2&#45;&gt;Node3 -->
<g id="edge2_Node000002_Node000003" class="edge">
<title>Node2&#45;&gt;Node3</title>
<g id="a_edge2_Node000002_Node000003"><a xlink:title=" ">
<path fill="none" stroke="#63b8ff" d="M225,-54.75C225,-47.8 225,-37.85 225,-29.13"/>
<polygon fill="#63b8ff" stroke="#63b8ff" points="228.5,-29.09 225,-19.09 221.5,-29.09 228.5,-29.09"/>
</a>
</g>
</g>
<!-- Node4&#45;&gt;Node2 -->
<g id="edge4_Node000004_Node000002" class="edge">
<title>Node4&#45;&gt;Node2</title>
<g id="a_edge4_Node000004_Node000002"><a xlink:title=" ">
<path fill="none" stroke="#63b8ff" d="M294.78,-164.66C282.14,-146.69 253.25,-105.64 236.88,-82.38"/>
<polygon fill="#63b8ff" stroke="#63b8ff" points="239.71,-80.32 231.09,-74.16 233.99,-84.35 239.71,-80.32"/>
</a>
</g>
</g>
<!-- Node5 -->
<g id="Node000005" class="node">
<title>Node5</title>
<g id="a_Node000005"><a xlink:title=" ">
<polygon fill="#e0e0e0" stroke="#999999" points="378.5,-129 329.5,-129 329.5,-110 378.5,-110 378.5,-129"/>
<text text-anchor="middle" x="354" y="-117" font-family="Helvetica,sans-Serif" font-size="10.00">netdb.h</text>
</a>
</g>
</g>
<!-- Node4&#45;&gt;Node5 -->
<g id="edge5_Node000004_Node000005" class="edge">
<title>Node4&#45;&gt;Node5</title>
<g id="a_edge5_Node000004_Node000005"><a xlink:title=" ">
<path fill="none" stroke="#63b8ff" d="M309.75,-164.75C317.47,-157.03 328.9,-145.6 338.22,-136.28"/>
<polygon fill="#63b8ff" stroke="#63b8ff" points="340.81,-138.64 345.41,-129.09 335.86,-133.69 340.81,-138.64"/>
</a>
</g>
</g>
<!-- Node6 -->
<g id="Node000006" class="node">
<title>Node6</title>
<g id="a_Node000006"><a xlink:title=" ">
<polygon fill="#e0e0e0" stroke="#999999" points="444,-74 392,-74 392,-55 444,-55 444,-74"/>
<text text-anchor="middle" x="418" y="-62" font-family="Helvetica,sans-Serif" font-size="10.00">stddef.h</text>
</a>
</g>
</g>
<!-- Node4&#45;&gt;Node6 -->
<g id="edge6_Node000004_Node000006" class="edge">
<title>Node4&#45;&gt;Node6</title>
<g id="a_edge6_Node000004_Node000006"><a xlink:title=" ">
<path fill="none" stroke="#63b8ff" d="M301.56,-164.6C302.85,-151.21 307.08,-125.77 321,-110 336.91,-91.97 361.61,-80.79 382.11,-74.14"/>
<polygon fill="#63b8ff" stroke="#63b8ff" points="383.21,-77.46 391.77,-71.23 381.19,-70.76 383.21,-77.46"/>
</a>
</g>
</g>
<!-- Node7 -->
<g id="Node000007" class="node">
<title>Node7</title>
<g id="a_Node000007"><a xlink:title=" ">
<polygon fill="#e0e0e0" stroke="#999999" points="196.5,-129 147.5,-129 147.5,-110 196.5,-110 196.5,-129"/>
<text text-anchor="middle" x="172" y="-117" font-family="Helvetica,sans-Serif" font-size="10.00">stdint.h</text>
</a>
</g>
</g>
<!-- Node4&#45;&gt;Node7 -->
<g id="edge7_Node000004_Node000007" class="edge">
<title>Node4&#45;&gt;Node7</title>
<g id="a_edge7_Node000004_Node000007"><a xlink:title=" ">
<path fill="none" stroke="#63b8ff" d="M280.27,-164.98C259.24,-156.34 226.45,-142.87 202.46,-133.02"/>
<polygon fill="#63b8ff" stroke="#63b8ff" points="203.68,-129.73 193.1,-129.17 201.02,-136.21 203.68,-129.73"/>
</a>
</g>
</g>
<!-- Node8 -->
<g id="Node000008" class="node">
<title>Node8</title>
<g id="a_Node000008"><a xlink:title=" ">
<polygon fill="#e0e0e0" stroke="#999999" points="535.5,-74 462.5,-74 462.5,-55 535.5,-55 535.5,-74"/>
<text text-anchor="middle" x="499" y="-62" font-family="Helvetica,sans-Serif" font-size="10.00">sys/socket.h</text>
</a>
</g>
</g>
<!-- Node4&#45;&gt;Node8 -->
<g id="edge8_Node000004_Node000008" class="edge">
<title>Node4&#45;&gt;Node8</title>
<g id="a_edge8_Node000004_Node000008"><a xlink:title=" ">
<path fill="none" stroke="#63b8ff" d="M349.06,-170.44C405.88,-165.7 495.36,-154.35 516,-129 526.66,-115.91 519.33,-96.76 511.24,-82.91"/>
<polygon fill="#63b8ff" stroke="#63b8ff" points="514.07,-80.84 505.73,-74.31 508.18,-84.62 514.07,-80.84"/>
</a>
</g>
</g>
<!-- Node9&#45;&gt;Node2 -->
<g id="edge10_Node000009_Node000002" class="edge">
<title>Node9&#45;&gt;Node2</title>
<g id="a_edge10_Node000009_Node000002"><a xlink:title=" ">
<path fill="none" stroke="#63b8ff" d="M155.38,-274.56C149.4,-241.06 129.34,-124.15 138,-110 147.4,-94.64 163.96,-84.36 180.14,-77.6"/>
<polygon fill="#63b8ff" stroke="#63b8ff" points="181.46,-80.84 189.56,-74.01 178.96,-74.3 181.46,-80.84"/>
</a>
</g>
</g>
<!-- Node10 -->
<g id="Node000010" class="node">
<title>Node10</title>
<g id="a_Node000010"><a xlink:href="SocketTimer_8h.html" target="_top" xlink:title="High&#45;performance timer subsystem integrated with the event loop.">
<polygon fill="white" stroke="#666666" points="129.5,-184 28.5,-184 28.5,-165 129.5,-165 129.5,-184"/>
<text text-anchor="middle" x="79" y="-172" font-family="Helvetica,sans-Serif" font-size="10.00">core/SocketTimer.h</text>
</a>
</g>
</g>
<!-- Node9&#45;&gt;Node10 -->
<g id="edge11_Node000009_Node000010" class="edge">
<title>Node9&#45;&gt;Node10</title>
<g id="a_edge11_Node000009_Node000010"><a xlink:title=" ">
<path fill="none" stroke="#63b8ff" d="M150.62,-274.66C137.64,-256.69 107.99,-215.64 91.19,-192.38"/>
<polygon fill="#63b8ff" stroke="#63b8ff" points="93.95,-190.22 85.25,-184.16 88.27,-194.31 93.95,-190.22"/>
</a>
</g>
</g>
<!-- Node9&#45;&gt;Node11 -->
<g id="edge14_Node000009_Node000011" class="edge">
<title>Node9&#45;&gt;Node11</title>
<g id="a_edge14_Node000009_Node000011"><a xlink:title=" ">
<path fill="none" stroke="#63b8ff" d="M180.3,-274.98C204.25,-266.23 241.78,-252.51 268.83,-242.62"/>
<polygon fill="#63b8ff" stroke="#63b8ff" points="270.09,-245.89 278.28,-239.17 267.69,-239.32 270.09,-245.89"/>
</a>
</g>
</g>
<!-- Node10&#45;&gt;Node2 -->
<g id="edge12_Node000010_Node000002" class="edge">
<title>Node10&#45;&gt;Node2</title>
<g id="a_edge12_Node000010_Node000002"><a xlink:title=" ">
<path fill="none" stroke="#63b8ff" d="M80.27,-164.87C82.71,-151.38 89.24,-125.24 105,-110 124.36,-91.28 152.28,-80.31 176.32,-73.95"/>
<polygon fill="#63b8ff" stroke="#63b8ff" points="177.47,-77.27 186.35,-71.5 175.8,-70.47 177.47,-77.27"/>
</a>
</g>
</g>
<!-- Node10&#45;&gt;Node7 -->
<g id="edge13_Node000010_Node000007" class="edge">
<title>Node10&#45;&gt;Node7</title>
<g id="a_edge13_Node000010_Node000007"><a xlink:title=" ">
<path fill="none" stroke="#63b8ff" d="M93.94,-164.98C108.5,-156.69 130.87,-143.94 147.93,-134.22"/>
<polygon fill="#63b8ff" stroke="#63b8ff" points="149.83,-137.16 156.79,-129.17 146.36,-131.08 149.83,-137.16"/>
</a>
</g>
</g>
<!-- Node11&#45;&gt;Node2 -->
<g id="edge15_Node000011_Node000002" class="edge">
<title>Node11&#45;&gt;Node2</title>
<g id="a_edge15_Node000011_Node000002"><a xlink:title=" ">
<path fill="none" stroke="#63b8ff" d="M284.61,-219.88C271.26,-212.32 253.55,-200.02 244,-184 225.39,-152.79 223.32,-109.12 223.89,-84.44"/>
<polygon fill="#63b8ff" stroke="#63b8ff" points="227.39,-84.4 224.3,-74.27 220.4,-84.12 227.39,-84.4"/>
</a>
</g>
</g>
<!-- Node11&#45;&gt;Node4 -->
<g id="edge26_Node000011_Node000004" class="edge">
<title>Node11&#45;&gt;Node4</title>
<g id="a_edge26_Node000011_Node000004"><a xlink:title=" ">
<path fill="none" stroke="#63b8ff" d="M301.83,-219.75C301.7,-212.8 301.52,-202.85 301.35,-194.13"/>
<polygon fill="#63b8ff" stroke="#63b8ff" points="304.85,-194.02 301.16,-184.09 297.85,-194.15 304.85,-194.02"/>
</a>
</g>
</g>
<!-- Node12 -->
<g id="Node000012" class="node">
<title>Node12</title>
<g id="a_Node000012"><a xlink:href="SocketConfig_8h.html" target="_top" xlink:title="Compile&#45;time and runtime configuration constants, limits, and platform adaptations.">
<polygon fill="white" stroke="#666666" points="707,-129 601,-129 601,-110 707,-110 707,-129"/>
<text text-anchor="middle" x="654" y="-117" font-family="Helvetica,sans-Serif" font-size="10.00">core/SocketConfig.h</text>
</a>
</g>
</g>
<!-- Node11&#45;&gt;Node12 -->
<g id="edge16_Node000011_Node000012" class="edge">
<title>Node11&#45;&gt;Node12</title>
<g id="a_edge16_Node000011_Node000012"><a xlink:title=" ">
<path fill="none" stroke="#63b8ff" d="M329.92,-219.94C392.68,-200.68 545.02,-153.94 616.19,-132.1"/>
<polygon fill="#63b8ff" stroke="#63b8ff" points="617.55,-135.35 626.08,-129.07 615.5,-128.65 617.55,-135.35"/>
</a>
</g>
</g>
<!-- Node20 -->
<g id="Node000020" class="node">
<title>Node20</title>
<g id="a_Node000020"><a xlink:href="SocketCommon_8h.html" target="_top" xlink:title="Common utilities shared between Socket and SocketDgram modules.">
<polygon fill="white" stroke="#666666" points="799,-184 671,-184 671,-165 799,-165 799,-184"/>
<text text-anchor="middle" x="735" y="-172" font-family="Helvetica,sans-Serif" font-size="10.00">socket/SocketCommon.h</text>
</a>
</g>
</g>
<!-- Node11&#45;&gt;Node20 -->
<g id="edge27_Node000011_Node000020" class="edge">
<title>Node11&#45;&gt;Node20</title>
<g id="a_edge27_Node000011_Node000020"><a xlink:title=" ">
<path fill="none" stroke="#63b8ff" d="M346.3,-223.08C420.4,-214.01 570.21,-195.67 660.67,-184.6"/>
<polygon fill="#63b8ff" stroke="#63b8ff" points="661.35,-188.04 670.86,-183.35 660.5,-181.09 661.35,-188.04"/>
</a>
</g>
</g>
<!-- Node12&#45;&gt;Node6 -->
<g id="edge21_Node000012_Node000006" class="edge">
<title>Node12&#45;&gt;Node6</title>
<g id="a_edge21_Node000012_Node000006"><a xlink:title=" ">
<path fill="none" stroke="#63b8ff" d="M614.88,-109.95C576.58,-101.55 516.33,-88.24 454.3,-74.04"/>
<polygon fill="#63b8ff" stroke="#63b8ff" points="454.87,-70.58 444.34,-71.76 453.3,-77.41 454.87,-70.58"/>
</a>
</g>
</g>
<!-- Node12&#45;&gt;Node8 -->
<g id="edge23_Node000012_Node000008" class="edge">
<title>Node12&#45;&gt;Node8</title>
<g id="a_edge23_Node000012_Node000008"><a xlink:title=" ">
<path fill="none" stroke="#63b8ff" d="M629.1,-109.98C603.3,-101.16 562.78,-87.31 533.82,-77.41"/>
<polygon fill="#63b8ff" stroke="#63b8ff" points="534.69,-74.01 524.1,-74.08 532.43,-80.63 534.69,-74.01"/>
</a>
</g>
</g>
<!-- Node13 -->
<g id="Node000013" class="node">
<title>Node13</title>
<g id="a_Node000013"><a xlink:title=" ">
<polygon fill="#e0e0e0" stroke="#999999" points="600.5,-74 553.5,-74 553.5,-55 600.5,-55 600.5,-74"/>
<text text-anchor="middle" x="577" y="-62" font-family="Helvetica,sans-Serif" font-size="10.00">errno.h</text>
</a>
</g>
</g>
<!-- Node12&#45;&gt;Node13 -->
<g id="edge17_Node000012_Node000013" class="edge">
<title>Node12&#45;&gt;Node13</title>
<g id="a_edge17_Node000012_Node000013"><a xlink:title=" ">
<path fill="none" stroke="#63b8ff" d="M641.63,-109.98C629.91,-101.92 612.08,-89.65 598.11,-80.03"/>
<polygon fill="#63b8ff" stroke="#63b8ff" points="599.82,-76.96 589.6,-74.17 595.85,-82.72 599.82,-76.96"/>
</a>
</g>
</g>
<!-- Node14 -->
<g id="Node000014" class="node">
<title>Node14</title>
<g id="a_Node000014"><a xlink:title=" ">
<polygon fill="#e0e0e0" stroke="#999999" points="960,-74 916,-74 916,-55 960,-55 960,-74"/>
<text text-anchor="middle" x="938" y="-62" font-family="Helvetica,sans-Serif" font-size="10.00">fcntl.h</text>
</a>
</g>
</g>
<!-- Node12&#45;&gt;Node14 -->
<g id="edge18_Node000012_Node000014" class="edge">
<title>Node12&#45;&gt;Node14</title>
<g id="a_edge18_Node000012_Node000014"><a xlink:title=" ">
<path fill="none" stroke="#63b8ff" d="M707.1,-110.64C756.29,-103.03 831.65,-90.52 905.74,-74.11"/>
<polygon fill="#63b8ff" stroke="#63b8ff" points="906.72,-77.48 915.71,-71.88 905.19,-70.65 906.72,-77.48"/>
</a>
</g>
</g>
<!-- Node15 -->
<g id="Node000015" class="node">
<title>Node15</title>
<g id="a_Node000015"><a xlink:title=" ">
<polygon fill="#e0e0e0" stroke="#999999" points="1118.5,-74 1053.5,-74 1053.5,-55 1118.5,-55 1118.5,-74"/>
<text text-anchor="middle" x="1086" y="-62" font-family="Helvetica,sans-Serif" font-size="10.00">netinet/in.h</text>
</a>
</g>
</g>
<!-- Node12&#45;&gt;Node15 -->
<g id="edge19_Node000012_Node000015" class="edge">
<title>Node12&#45;&gt;Node15</title>
<g id="a_edge19_Node000012_Node000015"><a xlink:title=" ">
<path fill="none" stroke="#63b8ff" d="M707.4,-111.95C794.15,-101.31 963.93,-80.48 1043.25,-70.74"/>
<polygon fill="#63b8ff" stroke="#63b8ff" points="1043.87,-74.19 1053.37,-69.5 1043.02,-67.25 1043.87,-74.19"/>
</a>
</g>
</g>
<!-- Node16 -->
<g id="Node000016" class="node">
<title>Node16</title>
<g id="a_Node000016"><a xlink:title=" ">
<polygon fill="#e0e0e0" stroke="#999999" points="689.5,-74 618.5,-74 618.5,-55 689.5,-55 689.5,-74"/>
<text text-anchor="middle" x="654" y="-62" font-family="Helvetica,sans-Serif" font-size="10.00">netinet/tcp.h</text>
</a>
</g>
</g>
<!-- Node12&#45;&gt;Node16 -->
<g id="edge20_Node000012_Node000016" class="edge">
<title>Node12&#45;&gt;Node16</title>
<g id="a_edge20_Node000012_Node000016"><a xlink:title=" ">
<path fill="none" stroke="#63b8ff" d="M654,-109.75C654,-102.8 654,-92.85 654,-84.13"/>
<polygon fill="#63b8ff" stroke="#63b8ff" points="657.5,-84.09 654,-74.09 650.5,-84.09 657.5,-84.09"/>
</a>
</g>
</g>
<!-- Node17 -->
<g id="Node000017" class="node">
<title>Node17</title>
<g id="a_Node000017"><a xlink:title=" ">
<polygon fill="#e0e0e0" stroke="#999999" points="754,-74 708,-74 708,-55 754,-55 754,-74"/>
<text text-anchor="middle" x="731" y="-62" font-family="Helvetica,sans-Serif" font-size="10.00">stdio.h</text>
</a>
</g>
</g>
<!-- Node12&#45;&gt;Node17 -->
<g id="edge22_Node000012_Node000017" class="edge">
<title>Node12&#45;&gt;Node17</title>
<g id="a_edge22_Node000012_Node000017"><a xlink:title=" ">
<path fill="none" stroke="#63b8ff" d="M666.37,-109.98C678.09,-101.92 695.92,-89.65 709.89,-80.03"/>
<polygon fill="#63b8ff" stroke="#63b8ff" points="712.15,-82.72 718.4,-74.17 708.18,-76.96 712.15,-82.72"/>
</a>
</g>
</g>
<!-- Node18 -->
<g id="Node000018" class="node">
<title>Node18</title>
<g id="a_Node000018"><a xlink:title=" ">
<polygon fill="#e0e0e0" stroke="#999999" points="828,-74 772,-74 772,-55 828,-55 828,-74"/>
<text text-anchor="middle" x="800" y="-62" font-family="Helvetica,sans-Serif" font-size="10.00">sys/uio.h</text>
</a>
</g>
</g>
<!-- Node12&#45;&gt;Node18 -->
<g id="edge24_Node000012_Node000018" class="edge">
<title>Node12&#45;&gt;Node18</title>
<g id="a_edge24_Node000012_Node000018"><a xlink:title=" ">
<path fill="none" stroke="#63b8ff" d="M677.46,-109.98C701.58,-101.23 739.37,-87.51 766.6,-77.62"/>
<polygon fill="#63b8ff" stroke="#63b8ff" points="767.91,-80.87 776.12,-74.17 765.52,-74.29 767.91,-80.87"/>
</a>
</g>
</g>
<!-- Node19 -->
<g id="Node000019" class="node">
<title>Node19</title>
<g id="a_Node000019"><a xlink:title=" ">
<polygon fill="#e0e0e0" stroke="#999999" points="897.5,-74 846.5,-74 846.5,-55 897.5,-55 897.5,-74"/>
<text text-anchor="middle" x="872" y="-62" font-family="Helvetica,sans-Serif" font-size="10.00">unistd.h</text>
</a>
</g>
</g>
<!-- Node12&#45;&gt;Node19 -->
<g id="edge25_Node000012_Node000019" class="edge">
<title>Node12&#45;&gt;Node19</title>
<g id="a_edge25_Node000012_Node000019"><a xlink:title=" ">
<path fill="none" stroke="#63b8ff" d="M689.03,-109.98C729.52,-100.14 795.82,-84.02 836.51,-74.13"/>
<polygon fill="#63b8ff" stroke="#63b8ff" points="837.39,-77.52 846.28,-71.75 835.73,-70.72 837.39,-77.52"/>
</a>
</g>
</g>
<!-- Node20&#45;&gt;Node2 -->
<g id="edge40_Node000020_Node000002" class="edge">
<title>Node20&#45;&gt;Node2</title>
<g id="a_edge40_Node000020_Node000002"><a xlink:title=" ">
<path fill="none" stroke="#63b8ff" d="M670.95,-170.26C607.52,-165.67 508.24,-154.74 426,-129 407.98,-123.36 405.64,-116.74 388,-110 350.38,-95.62 306.23,-83.87 273.37,-76.06"/>
<polygon fill="#63b8ff" stroke="#63b8ff" points="274.09,-72.63 263.56,-73.76 272.5,-79.45 274.09,-72.63"/>
</a>
</g>
</g>
<!-- Node20&#45;&gt;Node5 -->
<g id="edge31_Node000020_Node000005" class="edge">
<title>Node20&#45;&gt;Node5</title>
<g id="a_edge31_Node000020_Node000005"><a xlink:title=" ">
<path fill="none" stroke="#63b8ff" d="M670.78,-166.8C601.86,-159.22 489.3,-145.73 393,-129 391.55,-128.75 390.07,-128.48 388.58,-128.2"/>
<polygon fill="#63b8ff" stroke="#63b8ff" points="389.19,-124.75 378.7,-126.21 387.81,-131.61 389.19,-124.75"/>
</a>
</g>
</g>
<!-- Node20&#45;&gt;Node8 -->
<g id="edge33_Node000020_Node000008" class="edge">
<title>Node20&#45;&gt;Node8</title>
<g id="a_edge33_Node000020_Node000008"><a xlink:title=" ">
<path fill="none" stroke="#63b8ff" d="M697.11,-164.99C667.6,-157.59 626.06,-145.47 592,-129 564.17,-115.54 535.24,-94.48 517.18,-80.35"/>
<polygon fill="#63b8ff" stroke="#63b8ff" points="519.25,-77.52 509.25,-74.03 514.89,-82.99 519.25,-77.52"/>
</a>
</g>
</g>
<!-- Node20&#45;&gt;Node12 -->
<g id="edge41_Node000020_Node000012" class="edge">
<title>Node20&#45;&gt;Node12</title>
<g id="a_edge41_Node000020_Node000012"><a xlink:title=" ">
<path fill="none" stroke="#63b8ff" d="M721.99,-164.98C709.54,-156.84 690.54,-144.41 675.79,-134.76"/>
<polygon fill="#63b8ff" stroke="#63b8ff" points="677.54,-131.72 667.25,-129.17 673.7,-137.57 677.54,-131.72"/>
</a>
</g>
</g>
<!-- Node20&#45;&gt;Node14 -->
<g id="edge30_Node000020_Node000014" class="edge">
<title>Node20&#45;&gt;Node14</title>
<g id="a_edge30_Node000020_Node000014"><a xlink:title=" ">
<path fill="none" stroke="#63b8ff" d="M735.16,-164.69C735.91,-150.95 739.43,-124.48 755,-110 803.56,-64.85 836.66,-88.78 905.69,-74.07"/>
<polygon fill="#63b8ff" stroke="#63b8ff" points="906.74,-77.41 915.67,-71.72 905.14,-70.6 906.74,-77.41"/>
</a>
</g>
</g>
<!-- Node20&#45;&gt;Node15 -->
<g id="edge32_Node000020_Node000015" class="edge">
<title>Node20&#45;&gt;Node15</title>
<g id="a_edge32_Node000020_Node000015"><a xlink:title=" ">
<path fill="none" stroke="#63b8ff" d="M799,-171.11C907.87,-166.38 1119.55,-154.04 1142,-129 1157.28,-111.95 1133.24,-92.15 1112.07,-79.25"/>
<polygon fill="#63b8ff" stroke="#63b8ff" points="1113.7,-76.15 1103.29,-74.17 1110.2,-82.21 1113.7,-76.15"/>
</a>
</g>
</g>
<!-- Node21 -->
<g id="Node000021" class="node">
<title>Node21</title>
<g id="a_Node000021"><a xlink:title=" ">
<polygon fill="#e0e0e0" stroke="#999999" points="820.5,-129 763.5,-129 763.5,-110 820.5,-110 820.5,-129"/>
<text text-anchor="middle" x="792" y="-117" font-family="Helvetica,sans-Serif" font-size="10.00">pthread.h</text>
</a>
</g>
</g>
<!-- Node20&#45;&gt;Node21 -->
<g id="edge28_Node000020_Node000021" class="edge">
<title>Node20&#45;&gt;Node21</title>
<g id="a_edge28_Node000020_Node000021"><a xlink:title=" ">
<path fill="none" stroke="#63b8ff" d="M744.16,-164.98C752.5,-157.23 765.03,-145.58 775.18,-136.14"/>
<polygon fill="#63b8ff" stroke="#63b8ff" points="777.74,-138.54 782.68,-129.17 772.97,-133.42 777.74,-138.54"/>
</a>
</g>
</g>
<!-- Node22 -->
<g id="Node000022" class="node">
<title>Node22</title>
<g id="a_Node000022"><a xlink:title=" ">
<polygon fill="#e0e0e0" stroke="#999999" points="895,-129 839,-129 839,-110 895,-110 895,-129"/>
<text text-anchor="middle" x="867" y="-117" font-family="Helvetica,sans-Serif" font-size="10.00">stdbool.h</text>
</a>
</g>
</g>
<!-- Node20&#45;&gt;Node22 -->
<g id="edge29_Node000020_Node000022" class="edge">
<title>Node20&#45;&gt;Node22</title>
<g id="a_edge29_Node000020_Node000022"><a xlink:title=" ">
<path fill="none" stroke="#63b8ff" d="M756.21,-164.98C777.73,-156.34 811.28,-142.87 835.83,-133.02"/>
<polygon fill="#63b8ff" stroke="#63b8ff" points="837.43,-136.14 845.41,-129.17 834.82,-129.65 837.43,-136.14"/>
</a>
</g>
</g>
<!-- Node23 -->
<g id="Node000023" class="node">
<title>Node23</title>
<g id="a_Node000023"><a xlink:title=" ">
<polygon fill="#e0e0e0" stroke="#999999" points="975,-129 913,-129 913,-110 975,-110 975,-129"/>
<text text-anchor="middle" x="944" y="-117" font-family="Helvetica,sans-Serif" font-size="10.00">sys/time.h</text>
</a>
</g>
</g>
<!-- Node20&#45;&gt;Node23 -->
<g id="edge34_Node000020_Node000023" class="edge">
<title>Node20&#45;&gt;Node23</title>
<g id="a_edge34_Node000020_Node000023"><a xlink:title=" ">
<path fill="none" stroke="#63b8ff" d="M768.58,-164.98C805.2,-155.7 863.82,-140.83 903.1,-130.87"/>
<polygon fill="#63b8ff" stroke="#63b8ff" points="904.06,-134.24 912.89,-128.39 902.34,-127.45 904.06,-134.24"/>
</a>
</g>
</g>
<!-- Node24 -->
<g id="Node000024" class="node">
<title>Node24</title>
<g id="a_Node000024"><a xlink:title=" ">
<polygon fill="#e0e0e0" stroke="#999999" points="1061,-129 993,-129 993,-110 1061,-110 1061,-129"/>
<text text-anchor="middle" x="1027" y="-117" font-family="Helvetica,sans-Serif" font-size="10.00">sys/types.h</text>
</a>
</g>
</g>
<!-- Node20&#45;&gt;Node24 -->
<g id="edge35_Node000020_Node000024" class="edge">
<title>Node20&#45;&gt;Node24</title>
<g id="a_edge35_Node000020_Node000024"><a xlink:title=" ">
<path fill="none" stroke="#63b8ff" d="M784.18,-164.98C832.29,-156.59 907.89,-143.24 982.68,-129.22"/>
<polygon fill="#63b8ff" stroke="#63b8ff" points="983.56,-132.62 992.74,-127.33 982.27,-125.74 983.56,-132.62"/>
</a>
</g>
</g>
<!-- Node25 -->
<g id="Node000025" class="node">
<title>Node25</title>
<g id="a_Node000025"><a xlink:title=" ">
<polygon fill="#e0e0e0" stroke="#999999" points="1133,-129 1079,-129 1079,-110 1133,-110 1133,-129"/>
<text text-anchor="middle" x="1106" y="-117" font-family="Helvetica,sans-Serif" font-size="10.00">sys/un.h</text>
</a>
</g>
</g>
<!-- Node20&#45;&gt;Node25 -->
<g id="edge36_Node000020_Node000025" class="edge">
<title>Node20&#45;&gt;Node25</title>
<g id="a_edge36_Node000020_Node000025"><a xlink:title=" ">
<path fill="none" stroke="#63b8ff" d="M799.21,-166.9C864.68,-159.73 969.36,-147.08 1069,-129.02"/>
<polygon fill="#63b8ff" stroke="#63b8ff" points="1069.73,-132.44 1078.93,-127.2 1068.47,-125.56 1069.73,-132.44"/>
</a>
</g>
</g>
<!-- Node26 -->
<g id="Node000026" class="node">
<title>Node26</title>
<g id="a_Node000026"><a xlink:href="Arena_8h.html" target="_top" xlink:title="Arena&#45;based memory allocator for efficient bulk memory management.">
<polygon fill="white" stroke="#666666" points="507,-129 435,-129 435,-110 507,-110 507,-129"/>
<text text-anchor="middle" x="471" y="-117" font-family="Helvetica,sans-Serif" font-size="10.00">core/Arena.h</text>
</a>
</g>
</g>
<!-- Node20&#45;&gt;Node26 -->
<g id="edge37_Node000020_Node000026" class="edge">
<title>Node20&#45;&gt;Node26</title>
<g id="a_edge37_Node000020_Node000026"><a xlink:title=" ">
<path fill="none" stroke="#63b8ff" d="M692.58,-164.98C644.58,-155.35 566.66,-139.71 517.17,-129.77"/>
<polygon fill="#63b8ff" stroke="#63b8ff" points="517.86,-126.34 507.36,-127.8 516.48,-133.2 517.86,-126.34"/>
</a>
</g>
</g>
<!-- Node26&#45;&gt;Node2 -->
<g id="edge39_Node000026_Node000002" class="edge">
<title>Node26&#45;&gt;Node2</title>
<g id="a_edge39_Node000026_Node000002"><a xlink:title=" ">
<path fill="none" stroke="#63b8ff" d="M434.97,-110.74C392.32,-101.55 321.12,-86.21 273.62,-75.97"/>
<polygon fill="#63b8ff" stroke="#63b8ff" points="274.08,-72.49 263.56,-73.81 272.6,-79.34 274.08,-72.49"/>
</a>
</g>
</g>
<!-- Node26&#45;&gt;Node6 -->
<g id="edge38_Node000026_Node000006" class="edge">
<title>Node26&#45;&gt;Node6</title>
<g id="a_edge38_Node000026_Node000006"><a xlink:title=" ">
<path fill="none" stroke="#63b8ff" d="M462.25,-109.75C454.53,-102.03 443.1,-90.6 433.78,-81.28"/>
<polygon fill="#63b8ff" stroke="#63b8ff" points="436.14,-78.69 426.59,-74.09 431.19,-83.64 436.14,-78.69"/>
</a>
</g>
</g>
</g>
</svg>

<g id="navigator" transform="translate(0 0)" fill="#404254">
  <rect fill="#f2f5e9" fill-opacity="0.5" stroke="#606060" stroke-width=".5" x="0" y="0" width="60" height="60"/>
  <use id="zoomplus" xlink:href="#zoomPlus" x="17" y="9" onmousedown="handleZoom(evt,'in')"/>
  <use id="zoomminus" xlink:href="#zoomMin" x="42" y="9" onmousedown="handleZoom(evt,'out')"/>
  <use id="reset" xlink:href="#resetDef" x="30" y="36" onmousedown="handleReset()"/>
   <use id="arrowup" xlink:href="#arrowUp" x="0" y="0" onmousedown="handlePan(0,-1)"/>
  <use id="arrowright" xlink:href="#arrowRight" x="0" y="0" onmousedown="handlePan(1,0)"/>
  <use id="arrowdown" xlink:href="#arrowDown" x="0" y="0" onmousedown="handlePan(0,1)"/>
  <use id="arrowleft" xlink:href="#arrowLeft" x="0" y="0" onmousedown="handlePan(-1,0)"/>
</g>
<svg viewBox="0 0 15 15" width="100%" height="30px" preserveAspectRatio="xMaxYMin meet">
 <g id="arrow_out" transform="scale(0.3 0.3)">
  <a xlink:href="SocketHappyEyeballs_8h__incl_org.svg" target="_base">
   <rect id="button" ry="5" rx="5" y="6" x="6" height="38" width="38"
        fill="#f2f5e9" fill-opacity="0.5" stroke="#606060" stroke-width="1.0"/>
   <path id="arrow"
     d="M 11.500037,31.436501 C 11.940474,20.09759 22.043105,11.32322 32.158766,21.979434 L 37.068811,17.246167 C 37.068811,17.246167 37.088388,32 37.088388,32 L 22.160133,31.978069 C 22.160133,31.978069 26.997745,27.140456 26.997745,27.140456 C 18.528582,18.264221 13.291696,25.230495 11.500037,31.436501 z"
     style="fill:#404040;"/>
  </a>
 </g>
</svg>

<style type='text/css'>
<![CDATA[
[data-mouse-over-selected='false'] { opacity: 0.7; }
[data-mouse-over-selected='true']  { opacity: 1.0; }
]]>
</style>
<script type="application/ecmascript"><![CDATA[
document.addEventListener('DOMContentLoaded', (event) => {
  highlightEdges();
  highlightAdjacentNodes();
});
]]></script>
</svg>
