<?xml version="1.0" encoding="UTF-8" standalone="no"?>
<!DOCTYPE svg PUBLIC "-//W3C//DTD SVG 1.1//EN"
 "http://www.w3.org/Graphics/SVG/1.1/DTD/svg11.dtd">
<!-- Generated by graphviz version 2.43.0 (0)
 -->
<!-- Title: SocketHPACK&#45;private.h Pages: 1 -->
<svg width="834pt" height="247pt"
 viewBox="0.00 0.00 833.95 247.00" xmlns="http://www.w3.org/2000/svg" xmlns:xlink="http://www.w3.org/1999/xlink">
<g id="graph0" class="graph" transform="scale(1 1) rotate(0) translate(4 243)">
<title>SocketHPACK&#45;private.h</title>
<!-- Node1 -->
<g id="Node000001" class="node">
<title>Node1</title>
<g id="a_Node000001"><a xlink:title="Internal HPACK header compression structures and constants.">
<polygon fill="#999999" stroke="#666666" points="298.45,-239 176.45,-239 176.45,-220 298.45,-220 298.45,-239"/>
<text text-anchor="middle" x="237.45" y="-227" font-family="Helvetica,sans-Serif" font-size="10.00">SocketHPACK&#45;private.h</text>
</a>
</g>
</g>
<!-- Node2 -->
<g id="Node000002" class="node">
<title>Node2</title>
<g id="a_Node000002"><a xlink:href="SocketHPACK_8h.html" target="_top" xlink:title="HPACK header compression (RFC 7541) for HTTP/2.">
<polygon fill="white" stroke="#666666" points="207.95,-184 98.95,-184 98.95,-165 207.95,-165 207.95,-184"/>
<text text-anchor="middle" x="153.45" y="-172" font-family="Helvetica,sans-Serif" font-size="10.00">http/SocketHPACK.h</text>
</a>
</g>
</g>
<!-- Node1&#45;&gt;Node2 -->
<g id="edge1_Node000001_Node000002" class="edge">
<title>Node1&#45;&gt;Node2</title>
<g id="a_edge1_Node000001_Node000002"><a xlink:title=" ">
<path fill="none" stroke="#63b8ff" d="M223.96,-219.98C211.05,-211.84 191.35,-199.41 176.05,-189.76"/>
<polygon fill="#63b8ff" stroke="#63b8ff" points="177.52,-186.55 167.19,-184.17 173.78,-192.47 177.52,-186.55"/>
</a>
</g>
</g>
<!-- Node4 -->
<g id="Node000004" class="node">
<title>Node4</title>
<g id="a_Node000004"><a xlink:title=" ">
<polygon fill="#e0e0e0" stroke="#999999" points="277.95,-129 228.95,-129 228.95,-110 277.95,-110 277.95,-129"/>
<text text-anchor="middle" x="253.45" y="-117" font-family="Helvetica,sans-Serif" font-size="10.00">stdint.h</text>
</a>
</g>
</g>
<!-- Node1&#45;&gt;Node4 -->
<g id="edge10_Node000001_Node000004" class="edge">
<title>Node1&#45;&gt;Node4</title>
<g id="a_edge10_Node000001_Node000004"><a xlink:title=" ">
<path fill="none" stroke="#63b8ff" d="M238.76,-219.66C241.35,-202.17 247.18,-162.8 250.67,-139.27"/>
<polygon fill="#63b8ff" stroke="#63b8ff" points="254.17,-139.56 252.17,-129.16 247.24,-138.54 254.17,-139.56"/>
</a>
</g>
</g>
<!-- Node9 -->
<g id="Node000009" class="node">
<title>Node9</title>
<g id="a_Node000009"><a xlink:href="SocketSecurity_8h.html" target="_top" xlink:title="Centralized security configuration, limits, and validation utilities.">
<polygon fill="white" stroke="#666666" points="377.45,-184 265.45,-184 265.45,-165 377.45,-165 377.45,-184"/>
<text text-anchor="middle" x="321.45" y="-172" font-family="Helvetica,sans-Serif" font-size="10.00">core/SocketSecurity.h</text>
</a>
</g>
</g>
<!-- Node1&#45;&gt;Node9 -->
<g id="edge11_Node000001_Node000009" class="edge">
<title>Node1&#45;&gt;Node9</title>
<g id="a_edge11_Node000001_Node000009"><a xlink:title=" ">
<path fill="none" stroke="#63b8ff" d="M250.95,-219.98C263.85,-211.84 283.55,-199.41 298.85,-189.76"/>
<polygon fill="#63b8ff" stroke="#63b8ff" points="301.12,-192.47 307.71,-184.17 297.38,-186.55 301.12,-192.47"/>
</a>
</g>
</g>
<!-- Node3 -->
<g id="Node000003" class="node">
<title>Node3</title>
<g id="a_Node000003"><a xlink:title=" ">
<polygon fill="#e0e0e0" stroke="#999999" points="226.45,-74 174.45,-74 174.45,-55 226.45,-55 226.45,-74"/>
<text text-anchor="middle" x="200.45" y="-62" font-family="Helvetica,sans-Serif" font-size="10.00">stddef.h</text>
</a>
</g>
</g>
<!-- Node2&#45;&gt;Node3 -->
<g id="edge2_Node000002_Node000003" class="edge">
<title>Node2&#45;&gt;Node3</title>
<g id="a_edge2_Node000002_Node000003"><a xlink:title=" ">
<path fill="none" stroke="#63b8ff" d="M160,-164.7C166.22,-156.01 175.49,-142.13 181.45,-129 188,-114.57 193,-97.3 196.22,-84.41"/>
<polygon fill="#63b8ff" stroke="#63b8ff" points="199.7,-84.94 198.59,-74.4 192.88,-83.32 199.7,-84.94"/>
</a>
</g>
</g>
<!-- Node2&#45;&gt;Node4 -->
<g id="edge3_Node000002_Node000004" class="edge">
<title>Node2&#45;&gt;Node4</title>
<g id="a_edge3_Node000002_Node000004"><a xlink:title=" ">
<path fill="none" stroke="#63b8ff" d="M169.52,-164.98C185.32,-156.61 209.67,-143.7 228.08,-133.95"/>
<polygon fill="#63b8ff" stroke="#63b8ff" points="229.9,-136.95 237.09,-129.17 226.62,-130.76 229.9,-136.95"/>
</a>
</g>
</g>
<!-- Node5 -->
<g id="Node000005" class="node">
<title>Node5</title>
<g id="a_Node000005"><a xlink:title=" ">
<polygon fill="#e0e0e0" stroke="#999999" points="82.45,-129 14.45,-129 14.45,-110 82.45,-110 82.45,-129"/>
<text text-anchor="middle" x="48.45" y="-117" font-family="Helvetica,sans-Serif" font-size="10.00">sys/types.h</text>
</a>
</g>
</g>
<!-- Node2&#45;&gt;Node5 -->
<g id="edge4_Node000002_Node000005" class="edge">
<title>Node2&#45;&gt;Node5</title>
<g id="a_edge4_Node000002_Node000005"><a xlink:title=" ">
<path fill="none" stroke="#63b8ff" d="M136.58,-164.98C119.84,-156.54 93.95,-143.47 74.56,-133.68"/>
<polygon fill="#63b8ff" stroke="#63b8ff" points="76.13,-130.55 65.63,-129.17 72.98,-136.8 76.13,-130.55"/>
</a>
</g>
</g>
<!-- Node6 -->
<g id="Node000006" class="node">
<title>Node6</title>
<g id="a_Node000006"><a xlink:href="Arena_8h.html" target="_top" xlink:title="Arena&#45;based memory allocator for efficient bulk memory management.">
<polygon fill="white" stroke="#666666" points="172.45,-129 100.45,-129 100.45,-110 172.45,-110 172.45,-129"/>
<text text-anchor="middle" x="136.45" y="-117" font-family="Helvetica,sans-Serif" font-size="10.00">core/Arena.h</text>
</a>
</g>
</g>
<!-- Node2&#45;&gt;Node6 -->
<g id="edge5_Node000002_Node000006" class="edge">
<title>Node2&#45;&gt;Node6</title>
<g id="a_edge5_Node000002_Node000006"><a xlink:title=" ">
<path fill="none" stroke="#63b8ff" d="M150.64,-164.75C148.39,-157.72 145.15,-147.62 142.34,-138.84"/>
<polygon fill="#63b8ff" stroke="#63b8ff" points="145.59,-137.54 139.21,-129.09 138.93,-139.68 145.59,-137.54"/>
</a>
</g>
</g>
<!-- Node7 -->
<g id="Node000007" class="node">
<title>Node7</title>
<g id="a_Node000007"><a xlink:href="Except_8h.html" target="_top" xlink:title="Structured exception handling for C with TRY/EXCEPT/FINALLY blocks.">
<polygon fill="white" stroke="#666666" points="155.95,-74 78.95,-74 78.95,-55 155.95,-55 155.95,-74"/>
<text text-anchor="middle" x="117.45" y="-62" font-family="Helvetica,sans-Serif" font-size="10.00">core/Except.h</text>
</a>
</g>
</g>
<!-- Node2&#45;&gt;Node7 -->
<g id="edge9_Node000002_Node000007" class="edge">
<title>Node2&#45;&gt;Node7</title>
<g id="a_edge9_Node000002_Node000007"><a xlink:title=" ">
<path fill="none" stroke="#63b8ff" d="M98.9,-172.43C66.15,-168.61 26.82,-157.74 5.45,-129 -15.12,-101.34 29.74,-83.96 68.66,-74.51"/>
<polygon fill="#63b8ff" stroke="#63b8ff" points="69.94,-77.81 78.9,-72.17 68.38,-70.99 69.94,-77.81"/>
</a>
</g>
</g>
<!-- Node6&#45;&gt;Node3 -->
<g id="edge6_Node000006_Node000003" class="edge">
<title>Node6&#45;&gt;Node3</title>
<g id="a_edge6_Node000006_Node000003"><a xlink:title=" ">
<path fill="none" stroke="#63b8ff" d="M146.73,-109.98C156.29,-102.07 170.73,-90.11 182.24,-80.58"/>
<polygon fill="#63b8ff" stroke="#63b8ff" points="184.51,-83.24 189.98,-74.17 180.05,-77.85 184.51,-83.24"/>
</a>
</g>
</g>
<!-- Node6&#45;&gt;Node7 -->
<g id="edge7_Node000006_Node000007" class="edge">
<title>Node6&#45;&gt;Node7</title>
<g id="a_edge7_Node000006_Node000007"><a xlink:title=" ">
<path fill="none" stroke="#63b8ff" d="M133.31,-109.75C130.77,-102.65 127.1,-92.4 123.92,-83.56"/>
<polygon fill="#63b8ff" stroke="#63b8ff" points="127.2,-82.32 120.53,-74.09 120.61,-84.68 127.2,-82.32"/>
</a>
</g>
</g>
<!-- Node8 -->
<g id="Node000008" class="node">
<title>Node8</title>
<g id="a_Node000008"><a xlink:title=" ">
<polygon fill="#e0e0e0" stroke="#999999" points="144.45,-19 90.45,-19 90.45,0 144.45,0 144.45,-19"/>
<text text-anchor="middle" x="117.45" y="-7" font-family="Helvetica,sans-Serif" font-size="10.00">setjmp.h</text>
</a>
</g>
</g>
<!-- Node7&#45;&gt;Node8 -->
<g id="edge8_Node000007_Node000008" class="edge">
<title>Node7&#45;&gt;Node8</title>
<g id="a_edge8_Node000007_Node000008"><a xlink:title=" ">
<path fill="none" stroke="#63b8ff" d="M117.45,-54.75C117.45,-47.8 117.45,-37.85 117.45,-29.13"/>
<polygon fill="#63b8ff" stroke="#63b8ff" points="120.95,-29.09 117.45,-19.09 113.95,-29.09 120.95,-29.09"/>
</a>
</g>
</g>
<!-- Node9&#45;&gt;Node3 -->
<g id="edge12_Node000009_Node000003" class="edge">
<title>Node9&#45;&gt;Node3</title>
<g id="a_edge12_Node000009_Node000003"><a xlink:title=" ">
<path fill="none" stroke="#63b8ff" d="M324.15,-164.76C327.66,-151.57 332.04,-126.38 320.45,-110 315.33,-102.77 270.01,-87.27 236.57,-76.62"/>
<polygon fill="#63b8ff" stroke="#63b8ff" points="237.22,-73.15 226.63,-73.48 235.11,-79.83 237.22,-73.15"/>
</a>
</g>
</g>
<!-- Node9&#45;&gt;Node4 -->
<g id="edge13_Node000009_Node000004" class="edge">
<title>Node9&#45;&gt;Node4</title>
<g id="a_edge13_Node000009_Node000004"><a xlink:title=" ">
<path fill="none" stroke="#63b8ff" d="M310.53,-164.98C300.38,-157.07 285.03,-145.11 272.81,-135.58"/>
<polygon fill="#63b8ff" stroke="#63b8ff" points="274.61,-132.56 264.58,-129.17 270.31,-138.08 274.61,-132.56"/>
</a>
</g>
</g>
<!-- Node9&#45;&gt;Node7 -->
<g id="edge14_Node000009_Node000007" class="edge">
<title>Node9&#45;&gt;Node7</title>
<g id="a_edge14_Node000009_Node000007"><a xlink:title=" ">
<path fill="none" stroke="#63b8ff" d="M319.04,-164.64C314.81,-150.82 304.72,-124.24 286.45,-110 276.81,-102.48 212.32,-86.79 165.87,-76.2"/>
<polygon fill="#63b8ff" stroke="#63b8ff" points="166.49,-72.75 155.96,-73.96 164.94,-79.58 166.49,-72.75"/>
</a>
</g>
</g>
<!-- Node10 -->
<g id="Node000010" class="node">
<title>Node10</title>
<g id="a_Node000010"><a xlink:href="SocketConfig_8h.html" target="_top" xlink:title="Compile&#45;time configuration and platform detection for the socket library.">
<polygon fill="white" stroke="#666666" points="503.45,-129 397.45,-129 397.45,-110 503.45,-110 503.45,-129"/>
<text text-anchor="middle" x="450.45" y="-117" font-family="Helvetica,sans-Serif" font-size="10.00">core/SocketConfig.h</text>
</a>
</g>
</g>
<!-- Node9&#45;&gt;Node10 -->
<g id="edge15_Node000009_Node000010" class="edge">
<title>Node9&#45;&gt;Node10</title>
<g id="a_edge15_Node000009_Node000010"><a xlink:title=" ">
<path fill="none" stroke="#63b8ff" d="M342.18,-164.98C363.21,-156.34 396,-142.87 419.99,-133.02"/>
<polygon fill="#63b8ff" stroke="#63b8ff" points="421.43,-136.21 429.35,-129.17 418.77,-129.73 421.43,-136.21"/>
</a>
</g>
</g>
<!-- Node10&#45;&gt;Node3 -->
<g id="edge20_Node000010_Node000003" class="edge">
<title>Node10&#45;&gt;Node3</title>
<g id="a_edge20_Node000010_Node000003"><a xlink:title=" ">
<path fill="none" stroke="#63b8ff" d="M407.12,-109.98C365.75,-101.75 301.43,-88.69 236.76,-74.24"/>
<polygon fill="#63b8ff" stroke="#63b8ff" points="237.33,-70.78 226.8,-72 235.79,-77.61 237.33,-70.78"/>
</a>
</g>
</g>
<!-- Node11 -->
<g id="Node000011" class="node">
<title>Node11</title>
<g id="a_Node000011"><a xlink:title=" ">
<polygon fill="#e0e0e0" stroke="#999999" points="434.95,-74 387.95,-74 387.95,-55 434.95,-55 434.95,-74"/>
<text text-anchor="middle" x="411.45" y="-62" font-family="Helvetica,sans-Serif" font-size="10.00">errno.h</text>
</a>
</g>
</g>
<!-- Node10&#45;&gt;Node11 -->
<g id="edge16_Node000010_Node000011" class="edge">
<title>Node10&#45;&gt;Node11</title>
<g id="a_edge16_Node000010_Node000011"><a xlink:title=" ">
<path fill="none" stroke="#63b8ff" d="M444.01,-109.75C438.56,-102.34 430.59,-91.5 423.9,-82.41"/>
<polygon fill="#63b8ff" stroke="#63b8ff" points="426.52,-80.07 417.77,-74.09 420.88,-84.22 426.52,-80.07"/>
</a>
</g>
</g>
<!-- Node12 -->
<g id="Node000012" class="node">
<title>Node12</title>
<g id="a_Node000012"><a xlink:title=" ">
<polygon fill="#e0e0e0" stroke="#999999" points="497.45,-74 453.45,-74 453.45,-55 497.45,-55 497.45,-74"/>
<text text-anchor="middle" x="475.45" y="-62" font-family="Helvetica,sans-Serif" font-size="10.00">fcntl.h</text>
</a>
</g>
</g>
<!-- Node10&#45;&gt;Node12 -->
<g id="edge17_Node000010_Node000012" class="edge">
<title>Node10&#45;&gt;Node12</title>
<g id="a_edge17_Node000010_Node000012"><a xlink:title=" ">
<path fill="none" stroke="#63b8ff" d="M454.58,-109.75C457.97,-102.57 462.87,-92.18 467.07,-83.27"/>
<polygon fill="#63b8ff" stroke="#63b8ff" points="470.3,-84.63 471.4,-74.09 463.97,-81.64 470.3,-84.63"/>
</a>
</g>
</g>
<!-- Node13 -->
<g id="Node000013" class="node">
<title>Node13</title>
<g id="a_Node000013"><a xlink:title=" ">
<polygon fill="#e0e0e0" stroke="#999999" points="580.95,-74 515.95,-74 515.95,-55 580.95,-55 580.95,-74"/>
<text text-anchor="middle" x="548.45" y="-62" font-family="Helvetica,sans-Serif" font-size="10.00">netinet/in.h</text>
</a>
</g>
</g>
<!-- Node10&#45;&gt;Node13 -->
<g id="edge18_Node000010_Node000013" class="edge">
<title>Node10&#45;&gt;Node13</title>
<g id="a_edge18_Node000010_Node000013"><a xlink:title=" ">
<path fill="none" stroke="#63b8ff" d="M466.2,-109.98C481.68,-101.61 505.54,-88.7 523.59,-78.95"/>
<polygon fill="#63b8ff" stroke="#63b8ff" points="525.29,-82.01 532.42,-74.17 521.96,-75.85 525.29,-82.01"/>
</a>
</g>
</g>
<!-- Node14 -->
<g id="Node000014" class="node">
<title>Node14</title>
<g id="a_Node000014"><a xlink:title=" ">
<polygon fill="#e0e0e0" stroke="#999999" points="669.95,-74 598.95,-74 598.95,-55 669.95,-55 669.95,-74"/>
<text text-anchor="middle" x="634.45" y="-62" font-family="Helvetica,sans-Serif" font-size="10.00">netinet/tcp.h</text>
</a>
</g>
</g>
<!-- Node10&#45;&gt;Node14 -->
<g id="edge19_Node000010_Node000014" class="edge">
<title>Node10&#45;&gt;Node14</title>
<g id="a_edge19_Node000010_Node000014"><a xlink:title=" ">
<path fill="none" stroke="#63b8ff" d="M480.01,-109.98C511.17,-101.01 560.42,-86.82 594.91,-76.89"/>
<polygon fill="#63b8ff" stroke="#63b8ff" points="596.02,-80.21 604.66,-74.08 594.08,-73.49 596.02,-80.21"/>
</a>
</g>
</g>
<!-- Node15 -->
<g id="Node000015" class="node">
<title>Node15</title>
<g id="a_Node000015"><a xlink:title=" ">
<polygon fill="#e0e0e0" stroke="#999999" points="734.45,-74 688.45,-74 688.45,-55 734.45,-55 734.45,-74"/>
<text text-anchor="middle" x="711.45" y="-62" font-family="Helvetica,sans-Serif" font-size="10.00">stdio.h</text>
</a>
</g>
</g>
<!-- Node10&#45;&gt;Node15 -->
<g id="edge21_Node000010_Node000015" class="edge">
<title>Node10&#45;&gt;Node15</title>
<g id="a_edge21_Node000010_Node000015"><a xlink:title=" ">
<path fill="none" stroke="#63b8ff" d="M499.35,-109.99C543.67,-102.05 611,-89.44 678.47,-74.1"/>
<polygon fill="#63b8ff" stroke="#63b8ff" points="679.46,-77.46 688.43,-71.82 677.9,-70.64 679.46,-77.46"/>
</a>
</g>
</g>
<!-- Node16 -->
<g id="Node000016" class="node">
<title>Node16</title>
<g id="a_Node000016"><a xlink:title=" ">
<polygon fill="#e0e0e0" stroke="#999999" points="825.95,-74 752.95,-74 752.95,-55 825.95,-55 825.95,-74"/>
<text text-anchor="middle" x="789.45" y="-62" font-family="Helvetica,sans-Serif" font-size="10.00">sys/socket.h</text>
</a>
</g>
</g>
<!-- Node10&#45;&gt;Node16 -->
<g id="edge22_Node000010_Node000016" class="edge">
<title>Node10&#45;&gt;Node16</title>
<g id="a_edge22_Node000010_Node000016"><a xlink:title=" ">
<path fill="none" stroke="#63b8ff" d="M503.46,-110.97C560.09,-102.81 652.74,-89.12 742.71,-74.08"/>
<polygon fill="#63b8ff" stroke="#63b8ff" points="743.53,-77.49 752.81,-72.38 742.37,-70.58 743.53,-77.49"/>
</a>
</g>
</g>
<!-- Node17 -->
<g id="Node000017" class="node">
<title>Node17</title>
<g id="a_Node000017"><a xlink:title=" ">
<polygon fill="#e0e0e0" stroke="#999999" points="300.45,-74 244.45,-74 244.45,-55 300.45,-55 300.45,-74"/>
<text text-anchor="middle" x="272.45" y="-62" font-family="Helvetica,sans-Serif" font-size="10.00">sys/uio.h</text>
</a>
</g>
</g>
<!-- Node10&#45;&gt;Node17 -->
<g id="edge23_Node000010_Node000017" class="edge">
<title>Node10&#45;&gt;Node17</title>
<g id="a_edge23_Node000010_Node000017"><a xlink:title=" ">
<path fill="none" stroke="#63b8ff" d="M421.85,-109.98C391.66,-100.99 343.91,-86.78 310.54,-76.84"/>
<polygon fill="#63b8ff" stroke="#63b8ff" points="311.27,-73.41 300.69,-73.91 309.27,-80.11 311.27,-73.41"/>
</a>
</g>
</g>
<!-- Node18 -->
<g id="Node000018" class="node">
<title>Node18</title>
<g id="a_Node000018"><a xlink:title=" ">
<polygon fill="#e0e0e0" stroke="#999999" points="369.95,-74 318.95,-74 318.95,-55 369.95,-55 369.95,-74"/>
<text text-anchor="middle" x="344.45" y="-62" font-family="Helvetica,sans-Serif" font-size="10.00">unistd.h</text>
</a>
</g>
</g>
<!-- Node10&#45;&gt;Node18 -->
<g id="edge24_Node000010_Node000018" class="edge">
<title>Node10&#45;&gt;Node18</title>
<g id="a_edge24_Node000010_Node000018"><a xlink:title=" ">
<path fill="none" stroke="#63b8ff" d="M433.42,-109.98C416.52,-101.54 390.39,-88.47 370.81,-78.68"/>
<polygon fill="#63b8ff" stroke="#63b8ff" points="372.3,-75.51 361.79,-74.17 369.17,-81.77 372.3,-75.51"/>
</a>
</g>
</g>
</g>
</svg>
