<?xml version="1.0" encoding="UTF-8" standalone="no"?>
<!DOCTYPE svg PUBLIC "-//W3C//DTD SVG 1.1//EN"
 "http://www.w3.org/Graphics/SVG/1.1/DTD/svg11.dtd">
<!-- Generated by graphviz version 2.43.0 (0)
 -->
<!-- Title: SocketIO.h Pages: 1 -->
<svg width="1106pt" height="302pt"
 viewBox="0.00 0.00 1105.50 302.00" xmlns="http://www.w3.org/2000/svg" xmlns:xlink="http://www.w3.org/1999/xlink">
<g id="graph0" class="graph" transform="scale(1 1) rotate(0) translate(4 298)">
<title>SocketIO.h</title>
<!-- Node1 -->
<g id="Node000001" class="node">
<title>Node1</title>
<g id="a_Node000001"><a xlink:title=" ">
<polygon fill="#999999" stroke="#666666" points="990.5,-294 924.5,-294 924.5,-275 990.5,-275 990.5,-294"/>
<text text-anchor="middle" x="957.5" y="-282" font-family="Helvetica,sans-Serif" font-size="10.00">SocketIO.h</text>
</a>
</g>
</g>
<!-- Node2 -->
<g id="Node000002" class="node">
<title>Node2</title>
<g id="a_Node000002"><a xlink:href="Socket_8h.html" target="_top" xlink:title=" ">
<polygon fill="white" stroke="#666666" points="170.5,-239 82.5,-239 82.5,-220 170.5,-220 170.5,-239"/>
<text text-anchor="middle" x="126.5" y="-227" font-family="Helvetica,sans-Serif" font-size="10.00">socket/Socket.h</text>
</a>
</g>
</g>
<!-- Node1&#45;&gt;Node2 -->
<g id="edge1_Node000001_Node000002" class="edge">
<title>Node1&#45;&gt;Node2</title>
<g id="a_edge1_Node000001_Node000002"><a xlink:title=" ">
<path fill="none" stroke="#63b8ff" d="M924.27,-282.63C816.95,-279.61 470.02,-268.08 184.5,-239 183.39,-238.89 182.26,-238.77 181.13,-238.64"/>
<polygon fill="#63b8ff" stroke="#63b8ff" points="181.13,-235.12 170.78,-237.4 180.29,-242.07 181.13,-235.12"/>
</a>
</g>
</g>
<!-- Node6 -->
<g id="Node000006" class="node">
<title>Node6</title>
<g id="a_Node000006"><a xlink:title=" ">
<polygon fill="#e0e0e0" stroke="#999999" points="999,-74 952,-74 952,-55 999,-55 999,-74"/>
<text text-anchor="middle" x="975.5" y="-62" font-family="Helvetica,sans-Serif" font-size="10.00">errno.h</text>
</a>
</g>
</g>
<!-- Node1&#45;&gt;Node6 -->
<g id="edge33_Node000001_Node000006" class="edge">
<title>Node1&#45;&gt;Node6</title>
<g id="a_edge33_Node000001_Node000006"><a xlink:title=" ">
<path fill="none" stroke="#63b8ff" d="M958.21,-274.95C960.85,-242.95 970.2,-129.68 973.94,-84.4"/>
<polygon fill="#63b8ff" stroke="#63b8ff" points="977.44,-84.48 974.78,-74.22 970.47,-83.9 977.44,-84.48"/>
</a>
</g>
</g>
<!-- Node9 -->
<g id="Node000009" class="node">
<title>Node9</title>
<g id="a_Node000009"><a xlink:title=" ">
<polygon fill="#e0e0e0" stroke="#999999" points="169.5,-74 117.5,-74 117.5,-55 169.5,-55 169.5,-74"/>
<text text-anchor="middle" x="143.5" y="-62" font-family="Helvetica,sans-Serif" font-size="10.00">stddef.h</text>
</a>
</g>
</g>
<!-- Node1&#45;&gt;Node9 -->
<g id="edge34_Node000001_Node000009" class="edge">
<title>Node1&#45;&gt;Node9</title>
<g id="a_edge34_Node000001_Node000009"><a xlink:title=" ">
<path fill="none" stroke="#63b8ff" d="M924.49,-282.63C784.67,-278.19 243.81,-253.12 142.5,-129 132.38,-116.6 134.06,-97.84 137.41,-83.92"/>
<polygon fill="#63b8ff" stroke="#63b8ff" points="140.86,-84.59 140.26,-74.01 134.13,-82.66 140.86,-84.59"/>
</a>
</g>
</g>
<!-- Node12 -->
<g id="Node000012" class="node">
<title>Node12</title>
<g id="a_Node000012"><a xlink:title=" ">
<polygon fill="#e0e0e0" stroke="#999999" points="1073.5,-74 1017.5,-74 1017.5,-55 1073.5,-55 1073.5,-74"/>
<text text-anchor="middle" x="1045.5" y="-62" font-family="Helvetica,sans-Serif" font-size="10.00">sys/uio.h</text>
</a>
</g>
</g>
<!-- Node1&#45;&gt;Node12 -->
<g id="edge35_Node000001_Node000012" class="edge">
<title>Node1&#45;&gt;Node12</title>
<g id="a_edge35_Node000001_Node000012"><a xlink:title=" ">
<path fill="none" stroke="#63b8ff" d="M960.95,-274.97C964.58,-266.01 970.44,-251.52 975.5,-239 998.35,-182.43 1025.36,-115.46 1038.12,-83.81"/>
<polygon fill="#63b8ff" stroke="#63b8ff" points="1041.51,-84.75 1042.01,-74.17 1035.02,-82.13 1041.51,-84.75"/>
</a>
</g>
</g>
<!-- Node23 -->
<g id="Node000023" class="node">
<title>Node23</title>
<g id="a_Node000023"><a xlink:title=" ">
<polygon fill="#e0e0e0" stroke="#999999" points="1097.5,-239 1023.5,-239 1023.5,-220 1097.5,-220 1097.5,-239"/>
<text text-anchor="middle" x="1060.5" y="-227" font-family="Helvetica,sans-Serif" font-size="10.00">openssl/ssl.h</text>
</a>
</g>
</g>
<!-- Node1&#45;&gt;Node23 -->
<g id="edge36_Node000001_Node000023" class="edge">
<title>Node1&#45;&gt;Node23</title>
<g id="a_edge36_Node000001_Node000023"><a xlink:title=" ">
<path fill="none" stroke="#63b8ff" d="M974.05,-274.98C990.39,-266.57 1015.63,-253.59 1034.63,-243.81"/>
<polygon fill="#63b8ff" stroke="#63b8ff" points="1036.36,-246.86 1043.65,-239.17 1033.16,-240.63 1036.36,-246.86"/>
</a>
</g>
</g>
<!-- Node3 -->
<g id="Node000003" class="node">
<title>Node3</title>
<g id="a_Node000003"><a xlink:href="Except_8h.html" target="_top" xlink:title=" ">
<polygon fill="white" stroke="#666666" points="77,-74 0,-74 0,-55 77,-55 77,-74"/>
<text text-anchor="middle" x="38.5" y="-62" font-family="Helvetica,sans-Serif" font-size="10.00">core/Except.h</text>
</a>
</g>
</g>
<!-- Node2&#45;&gt;Node3 -->
<g id="edge2_Node000002_Node000003" class="edge">
<title>Node2&#45;&gt;Node3</title>
<g id="a_edge2_Node000002_Node000003"><a xlink:title=" ">
<path fill="none" stroke="#63b8ff" d="M107.78,-219.82C79.45,-205.51 26.76,-174 5.5,-129 -2.32,-112.44 9.81,-93.9 21.5,-81.15"/>
<polygon fill="#63b8ff" stroke="#63b8ff" points="24,-83.59 28.55,-74.02 19.02,-78.67 24,-83.59"/>
</a>
</g>
</g>
<!-- Node5 -->
<g id="Node000005" class="node">
<title>Node5</title>
<g id="a_Node000005"><a xlink:href="SocketConfig_8h.html" target="_top" xlink:title=" ">
<polygon fill="white" stroke="#666666" points="911.5,-129 805.5,-129 805.5,-110 911.5,-110 911.5,-129"/>
<text text-anchor="middle" x="858.5" y="-117" font-family="Helvetica,sans-Serif" font-size="10.00">core/SocketConfig.h</text>
</a>
</g>
</g>
<!-- Node2&#45;&gt;Node5 -->
<g id="edge4_Node000002_Node000005" class="edge">
<title>Node2&#45;&gt;Node5</title>
<g id="a_edge4_Node000002_Node000005"><a xlink:title=" ">
<path fill="none" stroke="#63b8ff" d="M170.75,-225.47C249.06,-219.77 417.04,-206 557.5,-184 649.33,-169.61 755.43,-145.44 813.95,-131.43"/>
<polygon fill="#63b8ff" stroke="#63b8ff" points="815.05,-134.77 823.96,-129.02 813.42,-127.96 815.05,-134.77"/>
</a>
</g>
</g>
<!-- Node14 -->
<g id="Node000014" class="node">
<title>Node14</title>
<g id="a_Node000014"><a xlink:href="SocketDNS_8h.html" target="_top" xlink:title=" ">
<polygon fill="white" stroke="#666666" points="247.5,-129 151.5,-129 151.5,-110 247.5,-110 247.5,-129"/>
<text text-anchor="middle" x="199.5" y="-117" font-family="Helvetica,sans-Serif" font-size="10.00">dns/SocketDNS.h</text>
</a>
</g>
</g>
<!-- Node2&#45;&gt;Node14 -->
<g id="edge13_Node000002_Node000014" class="edge">
<title>Node2&#45;&gt;Node14</title>
<g id="a_edge13_Node000002_Node000014"><a xlink:title=" ">
<path fill="none" stroke="#63b8ff" d="M132.47,-219.66C144.56,-201.77 172.12,-161 187.88,-137.69"/>
<polygon fill="#63b8ff" stroke="#63b8ff" points="190.95,-139.4 193.65,-129.16 185.15,-135.48 190.95,-139.4"/>
</a>
</g>
</g>
<!-- Node16 -->
<g id="Node000016" class="node">
<title>Node16</title>
<g id="a_Node000016"><a xlink:href="SocketCommon_8h.html" target="_top" xlink:title=" ">
<polygon fill="white" stroke="#666666" points="548.5,-184 420.5,-184 420.5,-165 548.5,-165 548.5,-184"/>
<text text-anchor="middle" x="484.5" y="-172" font-family="Helvetica,sans-Serif" font-size="10.00">socket/SocketCommon.h</text>
</a>
</g>
</g>
<!-- Node2&#45;&gt;Node16 -->
<g id="edge18_Node000002_Node000016" class="edge">
<title>Node2&#45;&gt;Node16</title>
<g id="a_edge18_Node000002_Node000016"><a xlink:title=" ">
<path fill="none" stroke="#63b8ff" d="M170.76,-221.95C232.49,-212.81 344.97,-196.16 417.14,-185.47"/>
<polygon fill="#63b8ff" stroke="#63b8ff" points="417.67,-188.93 427.05,-184.01 416.64,-182.01 417.67,-188.93"/>
</a>
</g>
</g>
<!-- Node4 -->
<g id="Node000004" class="node">
<title>Node4</title>
<g id="a_Node000004"><a xlink:title=" ">
<polygon fill="#e0e0e0" stroke="#999999" points="65.5,-19 11.5,-19 11.5,0 65.5,0 65.5,-19"/>
<text text-anchor="middle" x="38.5" y="-7" font-family="Helvetica,sans-Serif" font-size="10.00">setjmp.h</text>
</a>
</g>
</g>
<!-- Node3&#45;&gt;Node4 -->
<g id="edge3_Node000003_Node000004" class="edge">
<title>Node3&#45;&gt;Node4</title>
<g id="a_edge3_Node000003_Node000004"><a xlink:title=" ">
<path fill="none" stroke="#63b8ff" d="M38.5,-54.75C38.5,-47.8 38.5,-37.85 38.5,-29.13"/>
<polygon fill="#63b8ff" stroke="#63b8ff" points="42,-29.09 38.5,-19.09 35,-29.09 42,-29.09"/>
</a>
</g>
</g>
<!-- Node5&#45;&gt;Node6 -->
<g id="edge5_Node000005_Node000006" class="edge">
<title>Node5&#45;&gt;Node6</title>
<g id="a_edge5_Node000005_Node000006"><a xlink:title=" ">
<path fill="none" stroke="#63b8ff" d="M877.3,-109.98C896.12,-101.46 925.32,-88.23 947,-78.41"/>
<polygon fill="#63b8ff" stroke="#63b8ff" points="948.7,-81.48 956.36,-74.17 945.81,-75.11 948.7,-81.48"/>
</a>
</g>
</g>
<!-- Node7 -->
<g id="Node000007" class="node">
<title>Node7</title>
<g id="a_Node000007"><a xlink:title=" ">
<polygon fill="#e0e0e0" stroke="#999999" points="799.5,-74 755.5,-74 755.5,-55 799.5,-55 799.5,-74"/>
<text text-anchor="middle" x="777.5" y="-62" font-family="Helvetica,sans-Serif" font-size="10.00">fcntl.h</text>
</a>
</g>
</g>
<!-- Node5&#45;&gt;Node7 -->
<g id="edge6_Node000005_Node000007" class="edge">
<title>Node5&#45;&gt;Node7</title>
<g id="a_edge6_Node000005_Node000007"><a xlink:title=" ">
<path fill="none" stroke="#63b8ff" d="M845.49,-109.98C833.04,-101.84 814.04,-89.41 799.29,-79.76"/>
<polygon fill="#63b8ff" stroke="#63b8ff" points="801.04,-76.72 790.75,-74.17 797.2,-82.57 801.04,-76.72"/>
</a>
</g>
</g>
<!-- Node8 -->
<g id="Node000008" class="node">
<title>Node8</title>
<g id="a_Node000008"><a xlink:title=" ">
<polygon fill="#e0e0e0" stroke="#999999" points="737,-74 672,-74 672,-55 737,-55 737,-74"/>
<text text-anchor="middle" x="704.5" y="-62" font-family="Helvetica,sans-Serif" font-size="10.00">netinet/in.h</text>
</a>
</g>
</g>
<!-- Node5&#45;&gt;Node8 -->
<g id="edge7_Node000005_Node000008" class="edge">
<title>Node5&#45;&gt;Node8</title>
<g id="a_edge7_Node000005_Node000008"><a xlink:title=" ">
<path fill="none" stroke="#63b8ff" d="M833.76,-109.98C808.13,-101.16 767.87,-87.31 739.09,-77.41"/>
<polygon fill="#63b8ff" stroke="#63b8ff" points="740.03,-74.03 729.44,-74.08 737.75,-80.65 740.03,-74.03"/>
</a>
</g>
</g>
<!-- Node5&#45;&gt;Node9 -->
<g id="edge8_Node000005_Node000009" class="edge">
<title>Node5&#45;&gt;Node9</title>
<g id="a_edge8_Node000005_Node000009"><a xlink:title=" ">
<path fill="none" stroke="#63b8ff" d="M805.2,-115.38C670.67,-107.43 319.83,-86.18 203.5,-74 195.79,-73.19 187.54,-72.15 179.71,-71.06"/>
<polygon fill="#63b8ff" stroke="#63b8ff" points="180.13,-67.59 169.73,-69.64 179.14,-74.52 180.13,-67.59"/>
</a>
</g>
</g>
<!-- Node10 -->
<g id="Node000010" class="node">
<title>Node10</title>
<g id="a_Node000010"><a xlink:title=" ">
<polygon fill="#e0e0e0" stroke="#999999" points="933.5,-74 887.5,-74 887.5,-55 933.5,-55 933.5,-74"/>
<text text-anchor="middle" x="910.5" y="-62" font-family="Helvetica,sans-Serif" font-size="10.00">stdio.h</text>
</a>
</g>
</g>
<!-- Node5&#45;&gt;Node10 -->
<g id="edge9_Node000005_Node000010" class="edge">
<title>Node5&#45;&gt;Node10</title>
<g id="a_edge9_Node000005_Node000010"><a xlink:title=" ">
<path fill="none" stroke="#63b8ff" d="M867.09,-109.75C874.66,-102.03 885.88,-90.6 895.01,-81.28"/>
<polygon fill="#63b8ff" stroke="#63b8ff" points="897.57,-83.68 902.07,-74.09 892.57,-78.78 897.57,-83.68"/>
</a>
</g>
</g>
<!-- Node11 -->
<g id="Node000011" class="node">
<title>Node11</title>
<g id="a_Node000011"><a xlink:title=" ">
<polygon fill="#e0e0e0" stroke="#999999" points="654,-74 581,-74 581,-55 654,-55 654,-74"/>
<text text-anchor="middle" x="617.5" y="-62" font-family="Helvetica,sans-Serif" font-size="10.00">sys/socket.h</text>
</a>
</g>
</g>
<!-- Node5&#45;&gt;Node11 -->
<g id="edge10_Node000005_Node000011" class="edge">
<title>Node5&#45;&gt;Node11</title>
<g id="a_edge10_Node000005_Node000011"><a xlink:title=" ">
<path fill="none" stroke="#63b8ff" d="M819.78,-109.98C777.35,-100.65 709.31,-85.69 664.01,-75.73"/>
<polygon fill="#63b8ff" stroke="#63b8ff" points="664.67,-72.29 654.15,-73.56 663.16,-79.13 664.67,-72.29"/>
</a>
</g>
</g>
<!-- Node5&#45;&gt;Node12 -->
<g id="edge11_Node000005_Node000012" class="edge">
<title>Node5&#45;&gt;Node12</title>
<g id="a_edge11_Node000005_Node000012"><a xlink:title=" ">
<path fill="none" stroke="#63b8ff" d="M888.54,-109.98C920.87,-100.82 972.35,-86.23 1007.48,-76.28"/>
<polygon fill="#63b8ff" stroke="#63b8ff" points="1008.7,-79.57 1017.37,-73.47 1006.79,-72.83 1008.7,-79.57"/>
</a>
</g>
</g>
<!-- Node13 -->
<g id="Node000013" class="node">
<title>Node13</title>
<g id="a_Node000013"><a xlink:title=" ">
<polygon fill="#e0e0e0" stroke="#999999" points="869,-74 818,-74 818,-55 869,-55 869,-74"/>
<text text-anchor="middle" x="843.5" y="-62" font-family="Helvetica,sans-Serif" font-size="10.00">unistd.h</text>
</a>
</g>
</g>
<!-- Node5&#45;&gt;Node13 -->
<g id="edge12_Node000005_Node000013" class="edge">
<title>Node5&#45;&gt;Node13</title>
<g id="a_edge12_Node000005_Node000013"><a xlink:title=" ">
<path fill="none" stroke="#63b8ff" d="M856.02,-109.75C854.04,-102.72 851.18,-92.62 848.69,-83.84"/>
<polygon fill="#63b8ff" stroke="#63b8ff" points="852.02,-82.76 845.93,-74.09 845.29,-84.66 852.02,-82.76"/>
</a>
</g>
</g>
<!-- Node14&#45;&gt;Node3 -->
<g id="edge14_Node000014_Node000003" class="edge">
<title>Node14&#45;&gt;Node3</title>
<g id="a_edge14_Node000014_Node000003"><a xlink:title=" ">
<path fill="none" stroke="#63b8ff" d="M173.63,-109.98C146.72,-101.13 104.38,-87.19 74.27,-77.28"/>
<polygon fill="#63b8ff" stroke="#63b8ff" points="75.16,-73.88 64.57,-74.08 72.97,-80.53 75.16,-73.88"/>
</a>
</g>
</g>
<!-- Node14&#45;&gt;Node9 -->
<g id="edge16_Node000014_Node000009" class="edge">
<title>Node14&#45;&gt;Node9</title>
<g id="a_edge16_Node000014_Node000009"><a xlink:title=" ">
<path fill="none" stroke="#63b8ff" d="M190.5,-109.98C182.31,-102.23 169.99,-90.58 160.03,-81.14"/>
<polygon fill="#63b8ff" stroke="#63b8ff" points="162.33,-78.5 152.66,-74.17 157.52,-83.59 162.33,-78.5"/>
</a>
</g>
</g>
<!-- Node14&#45;&gt;Node11 -->
<g id="edge17_Node000014_Node000011" class="edge">
<title>Node14&#45;&gt;Node11</title>
<g id="a_edge17_Node000014_Node000011"><a xlink:title=" ">
<path fill="none" stroke="#63b8ff" d="M247.86,-112.37C328.79,-102.11 490.64,-81.58 570.59,-71.45"/>
<polygon fill="#63b8ff" stroke="#63b8ff" points="571.37,-74.88 580.85,-70.15 570.49,-67.93 571.37,-74.88"/>
</a>
</g>
</g>
<!-- Node15 -->
<g id="Node000015" class="node">
<title>Node15</title>
<g id="a_Node000015"><a xlink:title=" ">
<polygon fill="#e0e0e0" stroke="#999999" points="262,-74 213,-74 213,-55 262,-55 262,-74"/>
<text text-anchor="middle" x="237.5" y="-62" font-family="Helvetica,sans-Serif" font-size="10.00">netdb.h</text>
</a>
</g>
</g>
<!-- Node14&#45;&gt;Node15 -->
<g id="edge15_Node000014_Node000015" class="edge">
<title>Node14&#45;&gt;Node15</title>
<g id="a_edge15_Node000014_Node000015"><a xlink:title=" ">
<path fill="none" stroke="#63b8ff" d="M205.77,-109.75C211.09,-102.34 218.86,-91.5 225.38,-82.41"/>
<polygon fill="#63b8ff" stroke="#63b8ff" points="228.36,-84.26 231.34,-74.09 222.67,-80.18 228.36,-84.26"/>
</a>
</g>
</g>
<!-- Node16&#45;&gt;Node3 -->
<g id="edge31_Node000016_Node000003" class="edge">
<title>Node16&#45;&gt;Node3</title>
<g id="a_edge31_Node000016_Node000003"><a xlink:title=" ">
<path fill="none" stroke="#63b8ff" d="M420.33,-172.12C298.03,-168.82 41.29,-158.44 14.5,-129 2.55,-115.86 12.99,-96.18 23.6,-82.22"/>
<polygon fill="#63b8ff" stroke="#63b8ff" points="26.39,-84.33 30.02,-74.37 20.98,-79.89 26.39,-84.33"/>
</a>
</g>
</g>
<!-- Node16&#45;&gt;Node5 -->
<g id="edge32_Node000016_Node000005" class="edge">
<title>Node16&#45;&gt;Node5</title>
<g id="a_edge32_Node000016_Node000005"><a xlink:title=" ">
<path fill="none" stroke="#63b8ff" d="M544.59,-164.98C613.28,-155.25 725.21,-139.39 795.21,-129.47"/>
<polygon fill="#63b8ff" stroke="#63b8ff" points="795.81,-132.92 805.22,-128.05 794.83,-125.99 795.81,-132.92"/>
</a>
</g>
</g>
<!-- Node16&#45;&gt;Node7 -->
<g id="edge21_Node000016_Node000007" class="edge">
<title>Node16&#45;&gt;Node7</title>
<g id="a_edge21_Node000016_Node000007"><a xlink:title=" ">
<path fill="none" stroke="#63b8ff" d="M548.56,-171.62C597.22,-167.81 664.42,-157.28 716.5,-129 737.19,-117.76 755.07,-97.06 766.02,-82.35"/>
<polygon fill="#63b8ff" stroke="#63b8ff" points="768.95,-84.27 771.92,-74.1 763.26,-80.21 768.95,-84.27"/>
</a>
</g>
</g>
<!-- Node16&#45;&gt;Node8 -->
<g id="edge23_Node000016_Node000008" class="edge">
<title>Node16&#45;&gt;Node8</title>
<g id="a_edge23_Node000016_Node000008"><a xlink:title=" ">
<path fill="none" stroke="#63b8ff" d="M548.72,-168.45C604.33,-162.64 678.86,-150.95 698.5,-129 709.22,-117.02 709.71,-98.2 708.13,-84.16"/>
<polygon fill="#63b8ff" stroke="#63b8ff" points="711.56,-83.48 706.57,-74.14 704.65,-84.56 711.56,-83.48"/>
</a>
</g>
</g>
<!-- Node16&#45;&gt;Node11 -->
<g id="edge24_Node000016_Node000011" class="edge">
<title>Node16&#45;&gt;Node11</title>
<g id="a_edge24_Node000016_Node000011"><a xlink:title=" ">
<path fill="none" stroke="#63b8ff" d="M548.72,-167.66C599.98,-161.52 665.88,-149.77 682.5,-129 697.73,-109.97 670.9,-90.78 647.24,-78.56"/>
<polygon fill="#63b8ff" stroke="#63b8ff" points="648.6,-75.33 638.08,-74.07 645.53,-81.62 648.6,-75.33"/>
</a>
</g>
</g>
<!-- Node16&#45;&gt;Node15 -->
<g id="edge22_Node000016_Node000015" class="edge">
<title>Node16&#45;&gt;Node15</title>
<g id="a_edge22_Node000016_Node000015"><a xlink:title=" ">
<path fill="none" stroke="#63b8ff" d="M420.15,-168.21C381.54,-162.74 332.69,-151.61 294.5,-129 275.26,-117.61 258.89,-97.57 248.7,-83.05"/>
<polygon fill="#63b8ff" stroke="#63b8ff" points="251.4,-80.8 242.92,-74.45 245.59,-84.7 251.4,-80.8"/>
</a>
</g>
</g>
<!-- Node17 -->
<g id="Node000017" class="node">
<title>Node17</title>
<g id="a_Node000017"><a xlink:title=" ">
<polygon fill="#e0e0e0" stroke="#999999" points="359.5,-129 303.5,-129 303.5,-110 359.5,-110 359.5,-129"/>
<text text-anchor="middle" x="331.5" y="-117" font-family="Helvetica,sans-Serif" font-size="10.00">stdbool.h</text>
</a>
</g>
</g>
<!-- Node16&#45;&gt;Node17 -->
<g id="edge19_Node000016_Node000017" class="edge">
<title>Node16&#45;&gt;Node17</title>
<g id="a_edge19_Node000016_Node000017"><a xlink:title=" ">
<path fill="none" stroke="#63b8ff" d="M459.92,-164.98C434.45,-156.16 394.46,-142.31 365.87,-132.41"/>
<polygon fill="#63b8ff" stroke="#63b8ff" points="366.87,-129.05 356.27,-129.08 364.58,-135.66 366.87,-129.05"/>
</a>
</g>
</g>
<!-- Node18 -->
<g id="Node000018" class="node">
<title>Node18</title>
<g id="a_Node000018"><a xlink:title=" ">
<polygon fill="#e0e0e0" stroke="#999999" points="435,-129 378,-129 378,-110 435,-110 435,-129"/>
<text text-anchor="middle" x="406.5" y="-117" font-family="Helvetica,sans-Serif" font-size="10.00">pthread.h</text>
</a>
</g>
</g>
<!-- Node16&#45;&gt;Node18 -->
<g id="edge20_Node000016_Node000018" class="edge">
<title>Node16&#45;&gt;Node18</title>
<g id="a_edge20_Node000016_Node000018"><a xlink:title=" ">
<path fill="none" stroke="#63b8ff" d="M471.97,-164.98C460.1,-156.92 442.04,-144.65 427.89,-135.03"/>
<polygon fill="#63b8ff" stroke="#63b8ff" points="429.5,-131.9 419.26,-129.17 425.56,-137.69 429.5,-131.9"/>
</a>
</g>
</g>
<!-- Node19 -->
<g id="Node000019" class="node">
<title>Node19</title>
<g id="a_Node000019"><a xlink:title=" ">
<polygon fill="#e0e0e0" stroke="#999999" points="515.5,-129 453.5,-129 453.5,-110 515.5,-110 515.5,-129"/>
<text text-anchor="middle" x="484.5" y="-117" font-family="Helvetica,sans-Serif" font-size="10.00">sys/time.h</text>
</a>
</g>
</g>
<!-- Node16&#45;&gt;Node19 -->
<g id="edge25_Node000016_Node000019" class="edge">
<title>Node16&#45;&gt;Node19</title>
<g id="a_edge25_Node000016_Node000019"><a xlink:title=" ">
<path fill="none" stroke="#63b8ff" d="M484.5,-164.75C484.5,-157.8 484.5,-147.85 484.5,-139.13"/>
<polygon fill="#63b8ff" stroke="#63b8ff" points="488,-139.09 484.5,-129.09 481,-139.09 488,-139.09"/>
</a>
</g>
</g>
<!-- Node20 -->
<g id="Node000020" class="node">
<title>Node20</title>
<g id="a_Node000020"><a xlink:title=" ">
<polygon fill="#e0e0e0" stroke="#999999" points="601.5,-129 533.5,-129 533.5,-110 601.5,-110 601.5,-129"/>
<text text-anchor="middle" x="567.5" y="-117" font-family="Helvetica,sans-Serif" font-size="10.00">sys/types.h</text>
</a>
</g>
</g>
<!-- Node16&#45;&gt;Node20 -->
<g id="edge26_Node000016_Node000020" class="edge">
<title>Node16&#45;&gt;Node20</title>
<g id="a_edge26_Node000016_Node000020"><a xlink:title=" ">
<path fill="none" stroke="#63b8ff" d="M497.84,-164.98C510.59,-156.84 530.05,-144.41 545.17,-134.76"/>
<polygon fill="#63b8ff" stroke="#63b8ff" points="547.38,-137.5 553.92,-129.17 543.61,-131.6 547.38,-137.5"/>
</a>
</g>
</g>
<!-- Node21 -->
<g id="Node000021" class="node">
<title>Node21</title>
<g id="a_Node000021"><a xlink:title=" ">
<polygon fill="#e0e0e0" stroke="#999999" points="673.5,-129 619.5,-129 619.5,-110 673.5,-110 673.5,-129"/>
<text text-anchor="middle" x="646.5" y="-117" font-family="Helvetica,sans-Serif" font-size="10.00">sys/un.h</text>
</a>
</g>
</g>
<!-- Node16&#45;&gt;Node21 -->
<g id="edge27_Node000016_Node000021" class="edge">
<title>Node16&#45;&gt;Node21</title>
<g id="a_edge27_Node000016_Node000021"><a xlink:title=" ">
<path fill="none" stroke="#63b8ff" d="M510.53,-164.98C537.61,-156.13 580.21,-142.19 610.51,-132.28"/>
<polygon fill="#63b8ff" stroke="#63b8ff" points="611.85,-135.52 620.27,-129.08 609.68,-128.87 611.85,-135.52"/>
</a>
</g>
</g>
<!-- Node22 -->
<g id="Node000022" class="node">
<title>Node22</title>
<g id="a_Node000022"><a xlink:href="Arena_8h.html" target="_top" xlink:title=" ">
<polygon fill="white" stroke="#666666" points="95.5,-129 23.5,-129 23.5,-110 95.5,-110 95.5,-129"/>
<text text-anchor="middle" x="59.5" y="-117" font-family="Helvetica,sans-Serif" font-size="10.00">core/Arena.h</text>
</a>
</g>
</g>
<!-- Node16&#45;&gt;Node22 -->
<g id="edge28_Node000016_Node000022" class="edge">
<title>Node16&#45;&gt;Node22</title>
<g id="a_edge28_Node000016_Node000022"><a xlink:title=" ">
<path fill="none" stroke="#63b8ff" d="M420.41,-165.51C333.93,-154.72 181.93,-135.77 105.76,-126.27"/>
<polygon fill="#63b8ff" stroke="#63b8ff" points="105.88,-122.76 95.53,-124.99 105.02,-129.7 105.88,-122.76"/>
</a>
</g>
</g>
<!-- Node22&#45;&gt;Node3 -->
<g id="edge30_Node000022_Node000003" class="edge">
<title>Node22&#45;&gt;Node3</title>
<g id="a_edge30_Node000022_Node000003"><a xlink:title=" ">
<path fill="none" stroke="#63b8ff" d="M56.03,-109.75C53.22,-102.65 49.16,-92.4 45.65,-83.56"/>
<polygon fill="#63b8ff" stroke="#63b8ff" points="48.84,-82.1 41.9,-74.09 42.33,-84.68 48.84,-82.1"/>
</a>
</g>
</g>
<!-- Node22&#45;&gt;Node9 -->
<g id="edge29_Node000022_Node000009" class="edge">
<title>Node22&#45;&gt;Node9</title>
<g id="a_edge29_Node000022_Node000009"><a xlink:title=" ">
<path fill="none" stroke="#63b8ff" d="M73,-109.98C85.9,-101.84 105.6,-89.41 120.9,-79.76"/>
<polygon fill="#63b8ff" stroke="#63b8ff" points="123.17,-82.47 129.76,-74.17 119.43,-76.55 123.17,-82.47"/>
</a>
</g>
</g>
</g>
</svg>
