<?xml version="1.0" encoding="UTF-8" standalone="no"?>
<!DOCTYPE svg PUBLIC "-//W3C//DTD SVG 1.1//EN"
 "http://www.w3.org/Graphics/SVG/1.1/DTD/svg11.dtd">
<!-- Generated by graphviz version 2.43.0 (0)
 -->
<!-- Title: SocketPoll_backend.h Pages: 1 -->
<svg width="1316pt" height="357pt"
 viewBox="0.00 0.00 1315.65 357.00" xmlns="http://www.w3.org/2000/svg" xmlns:xlink="http://www.w3.org/1999/xlink">
<g id="graph0" class="graph" transform="scale(1 1) rotate(0) translate(4 353)">
<title>SocketPoll_backend.h</title>
<!-- Node1 -->
<g id="Node000001" class="node">
<title>Node1</title>
<g id="a_Node000001"><a xlink:title=" ">
<polygon fill="#999999" stroke="#666666" points="206.15,-349 92.15,-349 92.15,-330 206.15,-330 206.15,-349"/>
<text text-anchor="middle" x="149.15" y="-337" font-family="Helvetica,sans-Serif" font-size="10.00">SocketPoll_backend.h</text>
</a>
</g>
</g>
<!-- Node2 -->
<g id="Node000002" class="node">
<title>Node2</title>
<g id="a_Node000002"><a xlink:href="SocketPoll_8h.html" target="_top" xlink:title=" ">
<polygon fill="white" stroke="#666666" points="158.15,-294 68.15,-294 68.15,-275 158.15,-275 158.15,-294"/>
<text text-anchor="middle" x="113.15" y="-282" font-family="Helvetica,sans-Serif" font-size="10.00">poll/SocketPoll.h</text>
</a>
</g>
</g>
<!-- Node1&#45;&gt;Node2 -->
<g id="edge1_Node000001_Node000002" class="edge">
<title>Node1&#45;&gt;Node2</title>
<g id="a_edge1_Node000001_Node000002"><a xlink:title=" ">
<path fill="none" stroke="#63b8ff" d="M143.2,-329.75C138.17,-322.34 130.81,-311.5 124.63,-302.41"/>
<polygon fill="#63b8ff" stroke="#63b8ff" points="127.5,-300.39 118.98,-294.09 121.71,-304.33 127.5,-300.39"/>
</a>
</g>
</g>
<!-- Node7 -->
<g id="Node000007" class="node">
<title>Node7</title>
<g id="a_Node000007"><a xlink:href="Socket_8h.html" target="_top" xlink:title=" ">
<polygon fill="white" stroke="#666666" points="374.15,-239 286.15,-239 286.15,-220 374.15,-220 374.15,-239"/>
<text text-anchor="middle" x="330.15" y="-227" font-family="Helvetica,sans-Serif" font-size="10.00">socket/Socket.h</text>
</a>
</g>
</g>
<!-- Node1&#45;&gt;Node7 -->
<g id="edge39_Node000001_Node000007" class="edge">
<title>Node1&#45;&gt;Node7</title>
<g id="a_edge39_Node000001_Node000007"><a xlink:title=" ">
<path fill="none" stroke="#63b8ff" d="M163.65,-329.84C194.97,-311.16 269.15,-266.9 307.02,-244.3"/>
<polygon fill="#63b8ff" stroke="#63b8ff" points="309.03,-247.18 315.82,-239.05 305.44,-241.17 309.03,-247.18"/>
</a>
</g>
</g>
<!-- Node3 -->
<g id="Node000003" class="node">
<title>Node3</title>
<g id="a_Node000003"><a xlink:href="Except_8h.html" target="_top" xlink:title=" ">
<polygon fill="white" stroke="#666666" points="188.65,-74 111.65,-74 111.65,-55 188.65,-55 188.65,-74"/>
<text text-anchor="middle" x="150.15" y="-62" font-family="Helvetica,sans-Serif" font-size="10.00">core/Except.h</text>
</a>
</g>
</g>
<!-- Node2&#45;&gt;Node3 -->
<g id="edge2_Node000002_Node000003" class="edge">
<title>Node2&#45;&gt;Node3</title>
<g id="a_edge2_Node000002_Node000003"><a xlink:title=" ">
<path fill="none" stroke="#63b8ff" d="M89.66,-274.93C72.25,-267.6 48.91,-255.59 33.15,-239 9.03,-213.62 -10.11,-196 6.15,-165 29.24,-120.97 81.64,-92.58 116.45,-77.82"/>
<polygon fill="#63b8ff" stroke="#63b8ff" points="117.82,-81.04 125.76,-74.02 115.18,-74.56 117.82,-81.04"/>
</a>
</g>
</g>
<!-- Node5 -->
<g id="Node000005" class="node">
<title>Node5</title>
<g id="a_Node000005"><a xlink:href="SocketTimer_8h.html" target="_top" xlink:title=" ">
<polygon fill="white" stroke="#666666" points="143.65,-239 42.65,-239 42.65,-220 143.65,-220 143.65,-239"/>
<text text-anchor="middle" x="93.15" y="-227" font-family="Helvetica,sans-Serif" font-size="10.00">core/SocketTimer.h</text>
</a>
</g>
</g>
<!-- Node2&#45;&gt;Node5 -->
<g id="edge4_Node000002_Node000005" class="edge">
<title>Node2&#45;&gt;Node5</title>
<g id="a_edge4_Node000002_Node000005"><a xlink:title=" ">
<path fill="none" stroke="#63b8ff" d="M109.85,-274.75C107.17,-267.65 103.3,-257.4 99.96,-248.56"/>
<polygon fill="#63b8ff" stroke="#63b8ff" points="103.19,-247.21 96.39,-239.09 96.64,-249.68 103.19,-247.21"/>
</a>
</g>
</g>
<!-- Node2&#45;&gt;Node7 -->
<g id="edge7_Node000002_Node000007" class="edge">
<title>Node2&#45;&gt;Node7</title>
<g id="a_edge7_Node000002_Node000007"><a xlink:title=" ">
<path fill="none" stroke="#63b8ff" d="M148.01,-274.98C185.23,-265.89 244.34,-251.46 285.07,-241.51"/>
<polygon fill="#63b8ff" stroke="#63b8ff" points="286.13,-244.85 295.01,-239.08 284.46,-238.05 286.13,-244.85"/>
</a>
</g>
</g>
<!-- Node4 -->
<g id="Node000004" class="node">
<title>Node4</title>
<g id="a_Node000004"><a xlink:title=" ">
<polygon fill="#e0e0e0" stroke="#999999" points="177.15,-19 123.15,-19 123.15,0 177.15,0 177.15,-19"/>
<text text-anchor="middle" x="150.15" y="-7" font-family="Helvetica,sans-Serif" font-size="10.00">setjmp.h</text>
</a>
</g>
</g>
<!-- Node3&#45;&gt;Node4 -->
<g id="edge3_Node000003_Node000004" class="edge">
<title>Node3&#45;&gt;Node4</title>
<g id="a_edge3_Node000003_Node000004"><a xlink:title=" ">
<path fill="none" stroke="#63b8ff" d="M150.15,-54.75C150.15,-47.8 150.15,-37.85 150.15,-29.13"/>
<polygon fill="#63b8ff" stroke="#63b8ff" points="153.65,-29.09 150.15,-19.09 146.65,-29.09 153.65,-29.09"/>
</a>
</g>
</g>
<!-- Node5&#45;&gt;Node3 -->
<g id="edge5_Node000005_Node000003" class="edge">
<title>Node5&#45;&gt;Node3</title>
<g id="a_edge5_Node000005_Node000003"><a xlink:title=" ">
<path fill="none" stroke="#63b8ff" d="M93.62,-219.78C94.98,-199.61 99.98,-148.54 117.15,-110 121.63,-99.93 128.71,-89.97 135.16,-82.02"/>
<polygon fill="#63b8ff" stroke="#63b8ff" points="137.93,-84.17 141.77,-74.29 132.61,-79.62 137.93,-84.17"/>
</a>
</g>
</g>
<!-- Node6 -->
<g id="Node000006" class="node">
<title>Node6</title>
<g id="a_Node000006"><a xlink:title=" ">
<polygon fill="#e0e0e0" stroke="#999999" points="64.65,-184 15.65,-184 15.65,-165 64.65,-165 64.65,-184"/>
<text text-anchor="middle" x="40.15" y="-172" font-family="Helvetica,sans-Serif" font-size="10.00">stdint.h</text>
</a>
</g>
</g>
<!-- Node5&#45;&gt;Node6 -->
<g id="edge6_Node000005_Node000006" class="edge">
<title>Node5&#45;&gt;Node6</title>
<g id="a_edge6_Node000005_Node000006"><a xlink:title=" ">
<path fill="none" stroke="#63b8ff" d="M84.4,-219.75C76.68,-212.03 65.24,-200.6 55.93,-191.28"/>
<polygon fill="#63b8ff" stroke="#63b8ff" points="58.28,-188.69 48.74,-184.09 53.33,-193.64 58.28,-188.69"/>
</a>
</g>
</g>
<!-- Node7&#45;&gt;Node3 -->
<g id="edge8_Node000007_Node000003" class="edge">
<title>Node7&#45;&gt;Node3</title>
<g id="a_edge8_Node000007_Node000003"><a xlink:title=" ">
<path fill="none" stroke="#63b8ff" d="M313.91,-219.79C286.11,-204.3 228.67,-169.73 190.15,-129 177.16,-115.27 166.05,-96.72 158.86,-83.21"/>
<polygon fill="#63b8ff" stroke="#63b8ff" points="161.83,-81.34 154.16,-74.03 155.6,-84.53 161.83,-81.34"/>
</a>
</g>
</g>
<!-- Node8 -->
<g id="Node000008" class="node">
<title>Node8</title>
<g id="a_Node000008"><a xlink:href="SocketConfig_8h.html" target="_top" xlink:title=" ">
<polygon fill="white" stroke="#666666" points="1047.15,-129 941.15,-129 941.15,-110 1047.15,-110 1047.15,-129"/>
<text text-anchor="middle" x="994.15" y="-117" font-family="Helvetica,sans-Serif" font-size="10.00">core/SocketConfig.h</text>
</a>
</g>
</g>
<!-- Node7&#45;&gt;Node8 -->
<g id="edge9_Node000007_Node000008" class="edge">
<title>Node7&#45;&gt;Node8</title>
<g id="a_edge9_Node000007_Node000008"><a xlink:title=" ">
<path fill="none" stroke="#63b8ff" d="M374.23,-221.33C489.12,-202.64 798.08,-152.39 931.44,-130.7"/>
<polygon fill="#63b8ff" stroke="#63b8ff" points="932.19,-134.12 941.5,-129.06 931.07,-127.21 932.19,-134.12"/>
</a>
</g>
</g>
<!-- Node18 -->
<g id="Node000018" class="node">
<title>Node18</title>
<g id="a_Node000018"><a xlink:href="SocketDNS_8h.html" target="_top" xlink:title=" ">
<polygon fill="white" stroke="#666666" points="847.15,-129 751.15,-129 751.15,-110 847.15,-110 847.15,-129"/>
<text text-anchor="middle" x="799.15" y="-117" font-family="Helvetica,sans-Serif" font-size="10.00">dns/SocketDNS.h</text>
</a>
</g>
</g>
<!-- Node7&#45;&gt;Node18 -->
<g id="edge19_Node000007_Node000018" class="edge">
<title>Node7&#45;&gt;Node18</title>
<g id="a_edge19_Node000007_Node000018"><a xlink:title=" ">
<path fill="none" stroke="#63b8ff" d="M368.3,-219.97C408,-211.07 471.96,-196.68 527.15,-184 606.62,-165.75 699.05,-144.07 753.13,-131.35"/>
<polygon fill="#63b8ff" stroke="#63b8ff" points="754.16,-134.7 763.09,-129.01 752.55,-127.89 754.16,-134.7"/>
</a>
</g>
</g>
<!-- Node20 -->
<g id="Node000020" class="node">
<title>Node20</title>
<g id="a_Node000020"><a xlink:href="SocketCommon_8h.html" target="_top" xlink:title=" ">
<polygon fill="white" stroke="#666666" points="518.15,-184 390.15,-184 390.15,-165 518.15,-165 518.15,-184"/>
<text text-anchor="middle" x="454.15" y="-172" font-family="Helvetica,sans-Serif" font-size="10.00">socket/SocketCommon.h</text>
</a>
</g>
</g>
<!-- Node7&#45;&gt;Node20 -->
<g id="edge24_Node000007_Node000020" class="edge">
<title>Node7&#45;&gt;Node20</title>
<g id="a_edge24_Node000007_Node000020"><a xlink:title=" ">
<path fill="none" stroke="#63b8ff" d="M350.07,-219.98C370.2,-211.38 401.53,-197.99 424.56,-188.15"/>
<polygon fill="#63b8ff" stroke="#63b8ff" points="426.04,-191.32 433.86,-184.17 423.29,-184.88 426.04,-191.32"/>
</a>
</g>
</g>
<!-- Node9 -->
<g id="Node000009" class="node">
<title>Node9</title>
<g id="a_Node000009"><a xlink:title=" ">
<polygon fill="#e0e0e0" stroke="#999999" points="1218.65,-74 1171.65,-74 1171.65,-55 1218.65,-55 1218.65,-74"/>
<text text-anchor="middle" x="1195.15" y="-62" font-family="Helvetica,sans-Serif" font-size="10.00">errno.h</text>
</a>
</g>
</g>
<!-- Node8&#45;&gt;Node9 -->
<g id="edge10_Node000008_Node000009" class="edge">
<title>Node8&#45;&gt;Node9</title>
<g id="a_edge10_Node000008_Node000009"><a xlink:title=" ">
<path fill="none" stroke="#63b8ff" d="M1026.55,-109.99C1058.58,-101.57 1109.25,-88.25 1161.59,-74.41"/>
<polygon fill="#63b8ff" stroke="#63b8ff" points="1162.61,-77.76 1171.38,-71.82 1160.82,-70.99 1162.61,-77.76"/>
</a>
</g>
</g>
<!-- Node10 -->
<g id="Node000010" class="node">
<title>Node10</title>
<g id="a_Node000010"><a xlink:title=" ">
<polygon fill="#e0e0e0" stroke="#999999" points="605.15,-74 561.15,-74 561.15,-55 605.15,-55 605.15,-74"/>
<text text-anchor="middle" x="583.15" y="-62" font-family="Helvetica,sans-Serif" font-size="10.00">fcntl.h</text>
</a>
</g>
</g>
<!-- Node8&#45;&gt;Node10 -->
<g id="edge11_Node000008_Node000010" class="edge">
<title>Node8&#45;&gt;Node10</title>
<g id="a_edge11_Node000008_Node000010"><a xlink:title=" ">
<path fill="none" stroke="#63b8ff" d="M940.84,-111.63C854.27,-100.46 685.75,-78.73 615.31,-69.65"/>
<polygon fill="#63b8ff" stroke="#63b8ff" points="615.62,-66.16 605.26,-68.35 614.73,-73.1 615.62,-66.16"/>
</a>
</g>
</g>
<!-- Node11 -->
<g id="Node000011" class="node">
<title>Node11</title>
<g id="a_Node000011"><a xlink:title=" ">
<polygon fill="#e0e0e0" stroke="#999999" points="945.65,-74 880.65,-74 880.65,-55 945.65,-55 945.65,-74"/>
<text text-anchor="middle" x="913.15" y="-62" font-family="Helvetica,sans-Serif" font-size="10.00">netinet/in.h</text>
</a>
</g>
</g>
<!-- Node8&#45;&gt;Node11 -->
<g id="edge12_Node000008_Node000011" class="edge">
<title>Node8&#45;&gt;Node11</title>
<g id="a_edge12_Node000008_Node000011"><a xlink:title=" ">
<path fill="none" stroke="#63b8ff" d="M981.13,-109.98C968.69,-101.84 949.69,-89.41 934.94,-79.76"/>
<polygon fill="#63b8ff" stroke="#63b8ff" points="936.68,-76.72 926.4,-74.17 932.85,-82.57 936.68,-76.72"/>
</a>
</g>
</g>
<!-- Node12 -->
<g id="Node000012" class="node">
<title>Node12</title>
<g id="a_Node000012"><a xlink:title=" ">
<polygon fill="#e0e0e0" stroke="#999999" points="1307.65,-74 1236.65,-74 1236.65,-55 1307.65,-55 1307.65,-74"/>
<text text-anchor="middle" x="1272.15" y="-62" font-family="Helvetica,sans-Serif" font-size="10.00">netinet/tcp.h</text>
</a>
</g>
</g>
<!-- Node8&#45;&gt;Node12 -->
<g id="edge13_Node000008_Node000012" class="edge">
<title>Node8&#45;&gt;Node12</title>
<g id="a_edge13_Node000008_Node000012"><a xlink:title=" ">
<path fill="none" stroke="#63b8ff" d="M1039.45,-109.92C1084.48,-101.39 1155.79,-87.86 1226.62,-74.29"/>
<polygon fill="#63b8ff" stroke="#63b8ff" points="1227.45,-77.69 1236.61,-72.37 1226.13,-70.82 1227.45,-77.69"/>
</a>
</g>
</g>
<!-- Node13 -->
<g id="Node000013" class="node">
<title>Node13</title>
<g id="a_Node000013"><a xlink:title=" ">
<polygon fill="#e0e0e0" stroke="#999999" points="771.15,-74 719.15,-74 719.15,-55 771.15,-55 771.15,-74"/>
<text text-anchor="middle" x="745.15" y="-62" font-family="Helvetica,sans-Serif" font-size="10.00">stddef.h</text>
</a>
</g>
</g>
<!-- Node8&#45;&gt;Node13 -->
<g id="edge14_Node000008_Node000013" class="edge">
<title>Node8&#45;&gt;Node13</title>
<g id="a_edge14_Node000008_Node000013"><a xlink:title=" ">
<path fill="none" stroke="#63b8ff" d="M951.64,-109.96C910.7,-101.65 846.77,-88.49 781.53,-74.04"/>
<polygon fill="#63b8ff" stroke="#63b8ff" points="782,-70.55 771.48,-71.8 780.48,-77.39 782,-70.55"/>
</a>
</g>
</g>
<!-- Node14 -->
<g id="Node000014" class="node">
<title>Node14</title>
<g id="a_Node000014"><a xlink:title=" ">
<polygon fill="#e0e0e0" stroke="#999999" points="1010.15,-74 964.15,-74 964.15,-55 1010.15,-55 1010.15,-74"/>
<text text-anchor="middle" x="987.15" y="-62" font-family="Helvetica,sans-Serif" font-size="10.00">stdio.h</text>
</a>
</g>
</g>
<!-- Node8&#45;&gt;Node14 -->
<g id="edge15_Node000008_Node000014" class="edge">
<title>Node8&#45;&gt;Node14</title>
<g id="a_edge15_Node000008_Node000014"><a xlink:title=" ">
<path fill="none" stroke="#63b8ff" d="M992.99,-109.75C992.07,-102.8 990.76,-92.85 989.61,-84.13"/>
<polygon fill="#63b8ff" stroke="#63b8ff" points="993.06,-83.54 988.28,-74.09 986.12,-84.46 993.06,-83.54"/>
</a>
</g>
</g>
<!-- Node15 -->
<g id="Node000015" class="node">
<title>Node15</title>
<g id="a_Node000015"><a xlink:title=" ">
<polygon fill="#e0e0e0" stroke="#999999" points="862.65,-74 789.65,-74 789.65,-55 862.65,-55 862.65,-74"/>
<text text-anchor="middle" x="826.15" y="-62" font-family="Helvetica,sans-Serif" font-size="10.00">sys/socket.h</text>
</a>
</g>
</g>
<!-- Node8&#45;&gt;Node15 -->
<g id="edge16_Node000008_Node000015" class="edge">
<title>Node8&#45;&gt;Node15</title>
<g id="a_edge16_Node000008_Node000015"><a xlink:title=" ">
<path fill="none" stroke="#63b8ff" d="M967.16,-109.98C938.95,-101.09 894.51,-87.07 863.07,-77.15"/>
<polygon fill="#63b8ff" stroke="#63b8ff" points="863.94,-73.75 853.35,-74.08 861.83,-80.43 863.94,-73.75"/>
</a>
</g>
</g>
<!-- Node16 -->
<g id="Node000016" class="node">
<title>Node16</title>
<g id="a_Node000016"><a xlink:title=" ">
<polygon fill="#e0e0e0" stroke="#999999" points="1084.15,-74 1028.15,-74 1028.15,-55 1084.15,-55 1084.15,-74"/>
<text text-anchor="middle" x="1056.15" y="-62" font-family="Helvetica,sans-Serif" font-size="10.00">sys/uio.h</text>
</a>
</g>
</g>
<!-- Node8&#45;&gt;Node16 -->
<g id="edge17_Node000008_Node000016" class="edge">
<title>Node8&#45;&gt;Node16</title>
<g id="a_edge17_Node000008_Node000016"><a xlink:title=" ">
<path fill="none" stroke="#63b8ff" d="M1004.11,-109.98C1013.27,-102.15 1027.08,-90.34 1038.18,-80.86"/>
<polygon fill="#63b8ff" stroke="#63b8ff" points="1040.68,-83.33 1046,-74.17 1036.13,-78.01 1040.68,-83.33"/>
</a>
</g>
</g>
<!-- Node17 -->
<g id="Node000017" class="node">
<title>Node17</title>
<g id="a_Node000017"><a xlink:title=" ">
<polygon fill="#e0e0e0" stroke="#999999" points="1153.65,-74 1102.65,-74 1102.65,-55 1153.65,-55 1153.65,-74"/>
<text text-anchor="middle" x="1128.15" y="-62" font-family="Helvetica,sans-Serif" font-size="10.00">unistd.h</text>
</a>
</g>
</g>
<!-- Node8&#45;&gt;Node17 -->
<g id="edge18_Node000008_Node000017" class="edge">
<title>Node8&#45;&gt;Node17</title>
<g id="a_edge18_Node000008_Node000017"><a xlink:title=" ">
<path fill="none" stroke="#63b8ff" d="M1015.68,-109.98C1037.62,-101.3 1071.89,-87.75 1096.84,-77.88"/>
<polygon fill="#63b8ff" stroke="#63b8ff" points="1098.21,-81.1 1106.23,-74.17 1095.64,-74.59 1098.21,-81.1"/>
</a>
</g>
</g>
<!-- Node18&#45;&gt;Node3 -->
<g id="edge20_Node000018_Node000003" class="edge">
<title>Node18&#45;&gt;Node3</title>
<g id="a_edge20_Node000018_Node000003"><a xlink:title=" ">
<path fill="none" stroke="#63b8ff" d="M750.98,-111.06C747.99,-110.68 745.03,-110.32 742.15,-110 637.27,-98.25 321.37,-76.83 199.16,-68.72"/>
<polygon fill="#63b8ff" stroke="#63b8ff" points="199.19,-65.21 188.98,-68.05 198.73,-72.2 199.19,-65.21"/>
</a>
</g>
</g>
<!-- Node18&#45;&gt;Node13 -->
<g id="edge22_Node000018_Node000013" class="edge">
<title>Node18&#45;&gt;Node13</title>
<g id="a_edge22_Node000018_Node000013"><a xlink:title=" ">
<path fill="none" stroke="#63b8ff" d="M790.23,-109.75C782.37,-102.03 770.72,-90.6 761.23,-81.28"/>
<polygon fill="#63b8ff" stroke="#63b8ff" points="763.49,-78.6 753.9,-74.09 758.58,-83.59 763.49,-78.6"/>
</a>
</g>
</g>
<!-- Node18&#45;&gt;Node15 -->
<g id="edge23_Node000018_Node000015" class="edge">
<title>Node18&#45;&gt;Node15</title>
<g id="a_edge23_Node000018_Node000015"><a xlink:title=" ">
<path fill="none" stroke="#63b8ff" d="M803.61,-109.75C807.26,-102.57 812.56,-92.18 817.1,-83.27"/>
<polygon fill="#63b8ff" stroke="#63b8ff" points="820.35,-84.59 821.77,-74.09 814.11,-81.41 820.35,-84.59"/>
</a>
</g>
</g>
<!-- Node19 -->
<g id="Node000019" class="node">
<title>Node19</title>
<g id="a_Node000019"><a xlink:title=" ">
<polygon fill="#e0e0e0" stroke="#999999" points="351.65,-74 302.65,-74 302.65,-55 351.65,-55 351.65,-74"/>
<text text-anchor="middle" x="327.15" y="-62" font-family="Helvetica,sans-Serif" font-size="10.00">netdb.h</text>
</a>
</g>
</g>
<!-- Node18&#45;&gt;Node19 -->
<g id="edge21_Node000018_Node000019" class="edge">
<title>Node18&#45;&gt;Node19</title>
<g id="a_edge21_Node000018_Node000019"><a xlink:title=" ">
<path fill="none" stroke="#63b8ff" d="M750.96,-111.17C747.98,-110.76 745.03,-110.37 742.15,-110 601.66,-92 433.77,-75.54 362.22,-68.77"/>
<polygon fill="#63b8ff" stroke="#63b8ff" points="362.27,-65.26 351.98,-67.8 361.61,-72.23 362.27,-65.26"/>
</a>
</g>
</g>
<!-- Node20&#45;&gt;Node3 -->
<g id="edge37_Node000020_Node000003" class="edge">
<title>Node20&#45;&gt;Node3</title>
<g id="a_edge37_Node000020_Node000003"><a xlink:title=" ">
<path fill="none" stroke="#63b8ff" d="M389.98,-170.31C341.71,-165.8 275.08,-154.97 222.15,-129 198.88,-117.59 177.32,-96.61 163.97,-81.9"/>
<polygon fill="#63b8ff" stroke="#63b8ff" points="166.34,-79.29 157.11,-74.08 161.08,-83.91 166.34,-79.29"/>
</a>
</g>
</g>
<!-- Node20&#45;&gt;Node8 -->
<g id="edge38_Node000020_Node000008" class="edge">
<title>Node20&#45;&gt;Node8</title>
<g id="a_edge38_Node000020_Node000008"><a xlink:title=" ">
<path fill="none" stroke="#63b8ff" d="M518.48,-168.11C609.55,-160.34 781.22,-145.12 927.15,-129 928.43,-128.86 929.72,-128.71 931.02,-128.57"/>
<polygon fill="#63b8ff" stroke="#63b8ff" points="931.61,-132.02 941.14,-127.39 930.8,-125.07 931.61,-132.02"/>
</a>
</g>
</g>
<!-- Node20&#45;&gt;Node10 -->
<g id="edge27_Node000020_Node000010" class="edge">
<title>Node20&#45;&gt;Node10</title>
<g id="a_edge27_Node000020_Node000010"><a xlink:title=" ">
<path fill="none" stroke="#63b8ff" d="M389.86,-171.85C320.73,-167.81 225.56,-154.34 264.15,-110 301.15,-67.48 477.68,-64.33 551.05,-64.91"/>
<polygon fill="#63b8ff" stroke="#63b8ff" points="551.06,-68.41 561.1,-65.02 551.14,-61.41 551.06,-68.41"/>
</a>
</g>
</g>
<!-- Node20&#45;&gt;Node11 -->
<g id="edge29_Node000020_Node000011" class="edge">
<title>Node20&#45;&gt;Node11</title>
<g id="a_edge29_Node000020_Node000011"><a xlink:title=" ">
<path fill="none" stroke="#63b8ff" d="M518.26,-173.31C620.4,-171.93 814.43,-164.53 872.15,-129 888.87,-118.7 900.06,-98.74 906.46,-83.94"/>
<polygon fill="#63b8ff" stroke="#63b8ff" points="909.86,-84.86 910.29,-74.28 903.35,-82.28 909.86,-84.86"/>
</a>
</g>
</g>
<!-- Node20&#45;&gt;Node15 -->
<g id="edge30_Node000020_Node000015" class="edge">
<title>Node20&#45;&gt;Node15</title>
<g id="a_edge30_Node000020_Node000015"><a xlink:title=" ">
<path fill="none" stroke="#63b8ff" d="M518.22,-171.01C626,-166.16 834.04,-153.68 856.15,-129 868.52,-115.18 855.59,-95.36 843.06,-81.55"/>
<polygon fill="#63b8ff" stroke="#63b8ff" points="845.41,-78.94 835.93,-74.21 840.39,-83.82 845.41,-78.94"/>
</a>
</g>
</g>
<!-- Node20&#45;&gt;Node19 -->
<g id="edge28_Node000020_Node000019" class="edge">
<title>Node20&#45;&gt;Node19</title>
<g id="a_edge28_Node000020_Node000019"><a xlink:title=" ">
<path fill="none" stroke="#63b8ff" d="M390.1,-169.56C331.49,-164.45 250.96,-153.15 231.15,-129 210.04,-103.27 257.04,-84.14 292.45,-73.91"/>
<polygon fill="#63b8ff" stroke="#63b8ff" points="293.81,-77.17 302.52,-71.15 291.95,-70.42 293.81,-77.17"/>
</a>
</g>
</g>
<!-- Node21 -->
<g id="Node000021" class="node">
<title>Node21</title>
<g id="a_Node000021"><a xlink:title=" ">
<polygon fill="#e0e0e0" stroke="#999999" points="329.15,-129 273.15,-129 273.15,-110 329.15,-110 329.15,-129"/>
<text text-anchor="middle" x="301.15" y="-117" font-family="Helvetica,sans-Serif" font-size="10.00">stdbool.h</text>
</a>
</g>
</g>
<!-- Node20&#45;&gt;Node21 -->
<g id="edge25_Node000020_Node000021" class="edge">
<title>Node20&#45;&gt;Node21</title>
<g id="a_edge25_Node000020_Node000021"><a xlink:title=" ">
<path fill="none" stroke="#63b8ff" d="M429.57,-164.98C404.1,-156.16 364.1,-142.31 335.52,-132.41"/>
<polygon fill="#63b8ff" stroke="#63b8ff" points="336.52,-129.05 325.92,-129.08 334.23,-135.66 336.52,-129.05"/>
</a>
</g>
</g>
<!-- Node22 -->
<g id="Node000022" class="node">
<title>Node22</title>
<g id="a_Node000022"><a xlink:title=" ">
<polygon fill="#e0e0e0" stroke="#999999" points="404.65,-129 347.65,-129 347.65,-110 404.65,-110 404.65,-129"/>
<text text-anchor="middle" x="376.15" y="-117" font-family="Helvetica,sans-Serif" font-size="10.00">pthread.h</text>
</a>
</g>
</g>
<!-- Node20&#45;&gt;Node22 -->
<g id="edge26_Node000020_Node000022" class="edge">
<title>Node20&#45;&gt;Node22</title>
<g id="a_edge26_Node000020_Node000022"><a xlink:title=" ">
<path fill="none" stroke="#63b8ff" d="M441.62,-164.98C429.75,-156.92 411.68,-144.65 397.54,-135.03"/>
<polygon fill="#63b8ff" stroke="#63b8ff" points="399.15,-131.9 388.91,-129.17 395.21,-137.69 399.15,-131.9"/>
</a>
</g>
</g>
<!-- Node23 -->
<g id="Node000023" class="node">
<title>Node23</title>
<g id="a_Node000023"><a xlink:title=" ">
<polygon fill="#e0e0e0" stroke="#999999" points="485.15,-129 423.15,-129 423.15,-110 485.15,-110 485.15,-129"/>
<text text-anchor="middle" x="454.15" y="-117" font-family="Helvetica,sans-Serif" font-size="10.00">sys/time.h</text>
</a>
</g>
</g>
<!-- Node20&#45;&gt;Node23 -->
<g id="edge31_Node000020_Node000023" class="edge">
<title>Node20&#45;&gt;Node23</title>
<g id="a_edge31_Node000020_Node000023"><a xlink:title=" ">
<path fill="none" stroke="#63b8ff" d="M454.15,-164.75C454.15,-157.8 454.15,-147.85 454.15,-139.13"/>
<polygon fill="#63b8ff" stroke="#63b8ff" points="457.65,-139.09 454.15,-129.09 450.65,-139.09 457.65,-139.09"/>
</a>
</g>
</g>
<!-- Node24 -->
<g id="Node000024" class="node">
<title>Node24</title>
<g id="a_Node000024"><a xlink:title=" ">
<polygon fill="#e0e0e0" stroke="#999999" points="571.15,-129 503.15,-129 503.15,-110 571.15,-110 571.15,-129"/>
<text text-anchor="middle" x="537.15" y="-117" font-family="Helvetica,sans-Serif" font-size="10.00">sys/types.h</text>
</a>
</g>
</g>
<!-- Node20&#45;&gt;Node24 -->
<g id="edge32_Node000020_Node000024" class="edge">
<title>Node20&#45;&gt;Node24</title>
<g id="a_edge32_Node000020_Node000024"><a xlink:title=" ">
<path fill="none" stroke="#63b8ff" d="M467.48,-164.98C480.23,-156.84 499.7,-144.41 514.82,-134.76"/>
<polygon fill="#63b8ff" stroke="#63b8ff" points="517.02,-137.5 523.57,-129.17 513.26,-131.6 517.02,-137.5"/>
</a>
</g>
</g>
<!-- Node25 -->
<g id="Node000025" class="node">
<title>Node25</title>
<g id="a_Node000025"><a xlink:title=" ">
<polygon fill="#e0e0e0" stroke="#999999" points="643.15,-129 589.15,-129 589.15,-110 643.15,-110 643.15,-129"/>
<text text-anchor="middle" x="616.15" y="-117" font-family="Helvetica,sans-Serif" font-size="10.00">sys/un.h</text>
</a>
</g>
</g>
<!-- Node20&#45;&gt;Node25 -->
<g id="edge33_Node000020_Node000025" class="edge">
<title>Node20&#45;&gt;Node25</title>
<g id="a_edge33_Node000020_Node000025"><a xlink:title=" ">
<path fill="none" stroke="#63b8ff" d="M480.18,-164.98C507.26,-156.13 549.86,-142.19 580.15,-132.28"/>
<polygon fill="#63b8ff" stroke="#63b8ff" points="581.5,-135.52 589.92,-129.08 579.32,-128.87 581.5,-135.52"/>
</a>
</g>
</g>
<!-- Node26 -->
<g id="Node000026" class="node">
<title>Node26</title>
<g id="a_Node000026"><a xlink:href="Arena_8h.html" target="_top" xlink:title=" ">
<polygon fill="white" stroke="#666666" points="733.15,-129 661.15,-129 661.15,-110 733.15,-110 733.15,-129"/>
<text text-anchor="middle" x="697.15" y="-117" font-family="Helvetica,sans-Serif" font-size="10.00">core/Arena.h</text>
</a>
</g>
</g>
<!-- Node20&#45;&gt;Node26 -->
<g id="edge34_Node000020_Node000026" class="edge">
<title>Node20&#45;&gt;Node26</title>
<g id="a_edge34_Node000020_Node000026"><a xlink:title=" ">
<path fill="none" stroke="#63b8ff" d="M493.19,-164.98C536.22,-155.6 605.38,-140.52 651.04,-130.56"/>
<polygon fill="#63b8ff" stroke="#63b8ff" points="651.95,-133.94 660.98,-128.39 650.46,-127.1 651.95,-133.94"/>
</a>
</g>
</g>
<!-- Node26&#45;&gt;Node3 -->
<g id="edge36_Node000026_Node000003" class="edge">
<title>Node26&#45;&gt;Node3</title>
<g id="a_edge36_Node000026_Node000003"><a xlink:title=" ">
<path fill="none" stroke="#63b8ff" d="M660.85,-111.33C657.91,-110.84 654.98,-110.39 652.15,-110 486.66,-87.09 288.77,-73.6 198.87,-68.22"/>
<polygon fill="#63b8ff" stroke="#63b8ff" points="198.9,-64.72 188.71,-67.62 198.49,-71.71 198.9,-64.72"/>
</a>
</g>
</g>
<!-- Node26&#45;&gt;Node13 -->
<g id="edge35_Node000026_Node000013" class="edge">
<title>Node26&#45;&gt;Node13</title>
<g id="a_edge35_Node000026_Node000013"><a xlink:title=" ">
<path fill="none" stroke="#63b8ff" d="M705.07,-109.75C711.99,-102.11 722.21,-90.82 730.6,-81.56"/>
<polygon fill="#63b8ff" stroke="#63b8ff" points="733.25,-83.85 737.37,-74.09 728.06,-79.15 733.25,-83.85"/>
</a>
</g>
</g>
</g>
</svg>
