<?xml version="1.0" encoding="UTF-8" standalone="no"?>
<!DOCTYPE svg PUBLIC "-//W3C//DTD SVG 1.1//EN"
 "http://www.w3.org/Graphics/SVG/1.1/DTD/svg11.dtd">
<!-- Generated by graphviz version 2.43.0 (0)
 -->
<!-- Title: SocketCommon.h Pages: 1 -->
<!--zoomable 302 -->

<svg id="main" version="1.1" xmlns="http://www.w3.org/2000/svg" xmlns:xlink="http://www.w3.org/1999/xlink" xml:space="preserve" onload="init(evt)">
<style type="text/css"><![CDATA[
.node, .edge {opacity: 0.7;}
.node.selected, .edge.selected {opacity: 1;}
.edge:hover path { stroke: red; }
.edge:hover polygon { stroke: red; fill: red; }
]]></style>

<defs>
  <circle id="rim" cx="0" cy="0" r="7"/>
  <circle id="rim2" cx="0" cy="0" r="3.5"/>
  <g id="zoomPlus">
    <use xlink:href="#rim" fill="#404040"><set attributeName="fill" to="#808080" begin="zoomplus.mouseover" end="zoomplus.mouseout"/></use>
    <path d="M-4,0h8M0,-4v8" fill="none" stroke="white" stroke-width="1.5" pointer-events="none"/>
  </g>
  <g id="zoomMin">
    <use xlink:href="#rim" fill="#404040"><set attributeName="fill" to="#808080" begin="zoomminus.mouseover" end="zoomminus.mouseout"/></use>
    <path d="M-4,0h8" fill="none" stroke="white" stroke-width="1.5" pointer-events="none"/>
  </g>
  <g id="arrowUp" transform="translate(30 24)">
    <use xlink:href="#rim"/>
    <path pointer-events="none" fill="none" stroke="white" stroke-width="1.5" d="M0,-3.0v7 M-2.5,-0.5L0,-3.0L2.5,-0.5"/>
  </g>
  <g id="arrowRight" transform="rotate(90) translate(36 -43)">
    <use xlink:href="#rim"/>
    <path pointer-events="none" fill="none" stroke="white" stroke-width="1.5" d="M0,-3.0v7 M-2.5,-0.5L0,-3.0L2.5,-0.5"/>
  </g>
  <g id="arrowDown" transform="rotate(180) translate(-30 -48)">
    <use xlink:href="#rim"/>
    <path pointer-events="none" fill="none" stroke="white" stroke-width="1.5" d="M0,-3.0v7 M-2.5,-0.5L0,-3.0L2.5,-0.5"/>
  </g>
  <g id="arrowLeft" transform="rotate(270) translate(-36 17)">
    <use xlink:href="#rim"/>
    <path pointer-events="none" fill="none" stroke="white" stroke-width="1.5" d="M0,-3.0v7 M-2.5,-0.5L0,-3.0L2.5,-0.5"/>
  </g>
  <g id="resetDef">
    <use xlink:href="#rim2" fill="#404040"><set attributeName="fill" to="#808080" begin="reset.mouseover" end="reset.mouseout"/></use>
  </g>
</defs>
<script type="application/ecmascript">
var viewWidth = 1288;
var viewHeight = 302;
var sectionId = 'dynsection-1';
</script>
<script type="application/ecmascript" xlink:href="svg.min.js"/>
<svg id="graph" class="graph">
<g id="viewport">
<title>SocketCommon.h</title>
<!-- Node1 -->
<g id="Node000001" class="node">
<title>Node1</title>
<g id="a_Node000001"><a xlink:title=" ">
<polygon fill="#999999" stroke="#666666" points="739.67,-294 644.67,-294 644.67,-275 739.67,-275 739.67,-294"/>
<text text-anchor="middle" x="692.17" y="-282" font-family="Helvetica,sans-Serif" font-size="10.00">SocketCommon.h</text>
</a>
</g>
</g>
<!-- Node2 -->
<g id="Node000002" class="node">
<title>Node2</title>
<g id="a_Node000002"><a xlink:href="Socket_8h.html" target="_top" xlink:title=" ">
<polygon fill="white" stroke="#666666" points="676.17,-239 620.17,-239 620.17,-220 676.17,-220 676.17,-239"/>
<text text-anchor="middle" x="648.17" y="-227" font-family="Helvetica,sans-Serif" font-size="10.00">Socket.h</text>
</a>
</g>
</g>
<!-- Node1&#45;&gt;Node2 -->
<g id="edge1_Node000001_Node000002" class="edge">
<title>Node1&#45;&gt;Node2</title>
<g id="a_edge1_Node000001_Node000002"><a xlink:title=" ">
<path fill="none" stroke="#63b8ff" d="M678.43,-266.96C670.77,-257.72 661.54,-246.6 655.3,-239.09"/>
<polygon fill="#63b8ff" stroke="#63b8ff" points="675.82,-269.29 684.9,-274.75 681.21,-264.82 675.82,-269.29"/>
</a>
</g>
</g>
<!-- Node25 -->
<g id="Node000025" class="node">
<title>Node25</title>
<g id="a_Node000025"><a xlink:href="SocketDgram_8h.html" target="_top" xlink:title=" ">
<polygon fill="white" stroke="#666666" points="1030.67,-239 945.67,-239 945.67,-220 1030.67,-220 1030.67,-239"/>
<text text-anchor="middle" x="988.17" y="-227" font-family="Helvetica,sans-Serif" font-size="10.00">SocketDgram.h</text>
</a>
</g>
</g>
<!-- Node1&#45;&gt;Node25 -->
<g id="edge37_Node000001_Node000025" class="edge">
<title>Node1&#45;&gt;Node25</title>
<g id="a_edge37_Node000001_Node000025"><a xlink:title=" ">
<path fill="none" stroke="#63b8ff" d="M749.74,-273.19C807.16,-262.91 894.03,-247.36 945.53,-238.13"/>
<polygon fill="#63b8ff" stroke="#63b8ff" points="748.95,-269.78 739.73,-274.98 750.19,-276.67 748.95,-269.78"/>
</a>
</g>
</g>
<!-- Node3 -->
<g id="Node000003" class="node">
<title>Node3</title>
<g id="a_Node000003"><a xlink:href="SocketAsync_8h.html" target="_top" xlink:title=" ">
<polygon fill="white" stroke="#666666" points="1036.67,-184 953.67,-184 953.67,-165 1036.67,-165 1036.67,-184"/>
<text text-anchor="middle" x="995.17" y="-172" font-family="Helvetica,sans-Serif" font-size="10.00">SocketAsync.h</text>
</a>
</g>
</g>
<!-- Node2&#45;&gt;Node3 -->
<g id="edge2_Node000002_Node000003" class="edge">
<title>Node2&#45;&gt;Node3</title>
<g id="a_edge2_Node000002_Node000003"><a xlink:title=" ">
<path fill="none" stroke="#63b8ff" d="M686.19,-222.69C751.77,-212.68 885.65,-192.23 953.6,-181.85"/>
<polygon fill="#63b8ff" stroke="#63b8ff" points="685.63,-219.24 676.27,-224.21 686.68,-226.16 685.63,-219.24"/>
</a>
</g>
</g>
<!-- Node4 -->
<g id="Node000004" class="node">
<title>Node4</title>
<g id="a_Node000004"><a xlink:href="SocketHTTP2_8h.html" target="_top" xlink:title=" ">
<polygon fill="white" stroke="#666666" points="1141.67,-184 1054.67,-184 1054.67,-165 1141.67,-165 1141.67,-184"/>
<text text-anchor="middle" x="1098.17" y="-172" font-family="Helvetica,sans-Serif" font-size="10.00">SocketHTTP2.h</text>
</a>
</g>
</g>
<!-- Node2&#45;&gt;Node4 -->
<g id="edge3_Node000002_Node000004" class="edge">
<title>Node2&#45;&gt;Node4</title>
<g id="a_edge3_Node000002_Node000004"><a xlink:title=" ">
<path fill="none" stroke="#63b8ff" d="M686.89,-224.77C758,-217.8 914.11,-201.84 1045.17,-184 1048.22,-183.59 1051.36,-183.14 1054.52,-182.67"/>
<polygon fill="#63b8ff" stroke="#63b8ff" points="686.24,-221.32 676.63,-225.78 686.92,-228.29 686.24,-221.32"/>
</a>
</g>
</g>
<!-- Node5 -->
<g id="Node000005" class="node">
<title>Node5</title>
<g id="a_Node000005"><a xlink:href="SocketHTTPServer_8h.html" target="_top" xlink:title=" ">
<polygon fill="white" stroke="#666666" points="514.17,-74 404.17,-74 404.17,-55 514.17,-55 514.17,-74"/>
<text text-anchor="middle" x="459.17" y="-62" font-family="Helvetica,sans-Serif" font-size="10.00">SocketHTTPServer.h</text>
</a>
</g>
</g>
<!-- Node2&#45;&gt;Node5 -->
<g id="edge4_Node000002_Node000005" class="edge">
<title>Node2&#45;&gt;Node5</title>
<g id="a_edge4_Node000002_Node000005"><a xlink:title=" ">
<path fill="none" stroke="#63b8ff" d="M619.01,-215.42C603.51,-207.64 584.72,-196.78 570.17,-184 539.18,-156.78 542.86,-139.63 514.17,-110 500.84,-96.23 483.33,-82.72 471.69,-74.26"/>
<polygon fill="#63b8ff" stroke="#63b8ff" points="617.64,-218.65 628.16,-219.87 620.69,-212.35 617.64,-218.65"/>
</a>
</g>
</g>
<!-- Node7 -->
<g id="Node000007" class="node">
<title>Node7</title>
<g id="a_Node000007"><a xlink:href="websocket__server_8c.html" target="_top" xlink:title=" ">
<polygon fill="white" stroke="#666666" points="316.17,-19 212.17,-19 212.17,0 316.17,0 316.17,-19"/>
<text text-anchor="middle" x="264.17" y="-7" font-family="Helvetica,sans-Serif" font-size="10.00">websocket_server.c</text>
</a>
</g>
</g>
<!-- Node2&#45;&gt;Node7 -->
<g id="edge36_Node000002_Node000007" class="edge">
<title>Node2&#45;&gt;Node7</title>
<g id="a_edge36_Node000002_Node000007"><a xlink:title=" ">
<path fill="none" stroke="#63b8ff" d="M610.07,-227.02C505.7,-222.69 216.81,-208.75 125.17,-184 70.09,-169.12 39.67,-177.22 9.17,-129 -40.35,-50.72 123.63,-23.38 211.82,-14.47"/>
<polygon fill="#63b8ff" stroke="#63b8ff" points="610.02,-230.52 620.16,-227.43 610.31,-223.53 610.02,-230.52"/>
</a>
</g>
</g>
<!-- Node8 -->
<g id="Node000008" class="node">
<title>Node8</title>
<g id="a_Node000008"><a xlink:href="SocketHappyEyeballs_8h.html" target="_top" xlink:title=" ">
<polygon fill="white" stroke="#666666" points="140.17,-129 18.17,-129 18.17,-110 140.17,-110 140.17,-129"/>
<text text-anchor="middle" x="79.17" y="-117" font-family="Helvetica,sans-Serif" font-size="10.00">SocketHappyEyeballs.h</text>
</a>
</g>
</g>
<!-- Node2&#45;&gt;Node8 -->
<g id="edge7_Node000002_Node000008" class="edge">
<title>Node2&#45;&gt;Node8</title>
<g id="a_edge7_Node000002_Node000008"><a xlink:title=" ">
<path fill="none" stroke="#63b8ff" d="M609.7,-227.75C509.53,-225.37 242.73,-216.11 161.17,-184 130.01,-171.73 100.84,-143.77 87.22,-129.4"/>
<polygon fill="#63b8ff" stroke="#63b8ff" points="609.89,-231.26 619.97,-227.99 610.05,-224.26 609.89,-231.26"/>
</a>
</g>
</g>
<!-- Node9 -->
<g id="Node000009" class="node">
<title>Node9</title>
<g id="a_Node000009"><a xlink:href="SocketIO_8h.html" target="_top" xlink:title=" ">
<polygon fill="white" stroke="#666666" points="775.17,-184 709.17,-184 709.17,-165 775.17,-165 775.17,-184"/>
<text text-anchor="middle" x="742.17" y="-172" font-family="Helvetica,sans-Serif" font-size="10.00">SocketIO.h</text>
</a>
</g>
</g>
<!-- Node2&#45;&gt;Node9 -->
<g id="edge8_Node000002_Node000009" class="edge">
<title>Node2&#45;&gt;Node9</title>
<g id="a_edge8_Node000002_Node000009"><a xlink:title=" ">
<path fill="none" stroke="#63b8ff" d="M672.17,-214.97C689.36,-205.28 711.98,-192.52 726.79,-184.17"/>
<polygon fill="#63b8ff" stroke="#63b8ff" points="670.26,-212.02 663.27,-219.98 673.7,-218.12 670.26,-212.02"/>
</a>
</g>
</g>
<!-- Node10 -->
<g id="Node000010" class="node">
<title>Node10</title>
<g id="a_Node000010"><a xlink:href="SocketPoll_8h.html" target="_top" xlink:title=" ">
<polygon fill="white" stroke="#666666" points="242.17,-184 170.17,-184 170.17,-165 242.17,-165 242.17,-184"/>
<text text-anchor="middle" x="206.17" y="-172" font-family="Helvetica,sans-Serif" font-size="10.00">SocketPoll.h</text>
</a>
</g>
</g>
<!-- Node2&#45;&gt;Node10 -->
<g id="edge9_Node000002_Node000010" class="edge">
<title>Node2&#45;&gt;Node10</title>
<g id="a_edge9_Node000002_Node000010"><a xlink:title=" ">
<path fill="none" stroke="#63b8ff" d="M609.67,-223.88C525.22,-213.76 324.7,-189.71 242.39,-179.84"/>
<polygon fill="#63b8ff" stroke="#63b8ff" points="609.5,-227.39 619.85,-225.1 610.33,-220.44 609.5,-227.39"/>
</a>
</g>
</g>
<!-- Node11 -->
<g id="Node000011" class="node">
<title>Node11</title>
<g id="a_Node000011"><a xlink:href="SocketPoll__backend_8h.html" target="_top" xlink:title=" ">
<polygon fill="white" stroke="#666666" points="348.17,-129 234.17,-129 234.17,-110 348.17,-110 348.17,-129"/>
<text text-anchor="middle" x="291.17" y="-117" font-family="Helvetica,sans-Serif" font-size="10.00">SocketPoll_backend.h</text>
</a>
</g>
</g>
<!-- Node2&#45;&gt;Node11 -->
<g id="edge14_Node000002_Node000011" class="edge">
<title>Node2&#45;&gt;Node11</title>
<g id="a_edge14_Node000002_Node000011"><a xlink:title=" ">
<path fill="none" stroke="#63b8ff" d="M609.98,-226.92C557.93,-223.67 462.55,-213.81 387.17,-184 352.61,-170.33 317.59,-143 301.02,-129.08"/>
<polygon fill="#63b8ff" stroke="#63b8ff" points="609.92,-230.42 620.11,-227.5 610.32,-223.43 609.92,-230.42"/>
</a>
</g>
</g>
<!-- Node12 -->
<g id="Node000012" class="node">
<title>Node12</title>
<g id="a_Node000012"><a xlink:href="SocketPool_8h.html" target="_top" xlink:title=" ">
<polygon fill="white" stroke="#666666" points="973.67,-129 898.67,-129 898.67,-110 973.67,-110 973.67,-129"/>
<text text-anchor="middle" x="936.17" y="-117" font-family="Helvetica,sans-Serif" font-size="10.00">SocketPool.h</text>
</a>
</g>
</g>
<!-- Node2&#45;&gt;Node12 -->
<g id="edge15_Node000002_Node000012" class="edge">
<title>Node2&#45;&gt;Node12</title>
<g id="a_edge15_Node000002_Node000012"><a xlink:title=" ">
<path fill="none" stroke="#63b8ff" d="M686.56,-226.1C749.56,-221.47 871.28,-209.45 905.17,-184 923.42,-170.3 931.51,-142.99 934.58,-129.07"/>
<polygon fill="#63b8ff" stroke="#63b8ff" points="685.97,-222.63 676.25,-226.83 686.47,-229.61 685.97,-222.63"/>
</a>
</g>
</g>
<!-- Node13 -->
<g id="Node000013" class="node">
<title>Node13</title>
<g id="a_Node000013"><a xlink:href="SocketProxy_8h.html" target="_top" xlink:title=" ">
<polygon fill="white" stroke="#666666" points="842.17,-74 762.17,-74 762.17,-55 842.17,-55 842.17,-74"/>
<text text-anchor="middle" x="802.17" y="-62" font-family="Helvetica,sans-Serif" font-size="10.00">SocketProxy.h</text>
</a>
</g>
</g>
<!-- Node2&#45;&gt;Node13 -->
<g id="edge16_Node000002_Node000013" class="edge">
<title>Node2&#45;&gt;Node13</title>
<g id="a_edge16_Node000002_Node000013"><a xlink:title=" ">
<path fill="none" stroke="#63b8ff" d="M658.53,-210.89C667.77,-196.61 682.55,-176.97 700.17,-165 743.77,-135.39 782.06,-171.55 813.17,-129 825.18,-112.56 814.56,-87.4 807.41,-74.23"/>
<polygon fill="#63b8ff" stroke="#63b8ff" points="655.33,-209.41 653.05,-219.75 661.28,-213.09 655.33,-209.41"/>
</a>
</g>
</g>
<!-- Node14 -->
<g id="Node000014" class="node">
<title>Node14</title>
<g id="a_Node000014"><a xlink:href="proxy__connect_8c.html" target="_top" xlink:title=" ">
<polygon fill="white" stroke="#666666" points="880.67,-19 791.67,-19 791.67,0 880.67,0 880.67,-19"/>
<text text-anchor="middle" x="836.17" y="-7" font-family="Helvetica,sans-Serif" font-size="10.00">proxy_connect.c</text>
</a>
</g>
</g>
<!-- Node2&#45;&gt;Node14 -->
<g id="edge34_Node000002_Node000014" class="edge">
<title>Node2&#45;&gt;Node14</title>
<g id="a_edge34_Node000002_Node000014"><a xlink:title=" ">
<path fill="none" stroke="#63b8ff" d="M686.45,-228.01C798.35,-226.2 1119.02,-218.04 1150.17,-184 1235.85,-90.39 986.24,-35.88 880.78,-17.53"/>
<polygon fill="#63b8ff" stroke="#63b8ff" points="686.23,-224.52 676.29,-228.17 686.34,-231.51 686.23,-224.52"/>
</a>
</g>
</g>
<!-- Node15 -->
<g id="Node000015" class="node">
<title>Node15</title>
<g id="a_Node000015"><a xlink:href="SocketReconnect_8h.html" target="_top" xlink:title=" ">
<polygon fill="white" stroke="#666666" points="896.67,-184 793.67,-184 793.67,-165 896.67,-165 896.67,-184"/>
<text text-anchor="middle" x="845.17" y="-172" font-family="Helvetica,sans-Serif" font-size="10.00">SocketReconnect.h</text>
</a>
</g>
</g>
<!-- Node2&#45;&gt;Node15 -->
<g id="edge18_Node000002_Node000015" class="edge">
<title>Node2&#45;&gt;Node15</title>
<g id="a_edge18_Node000002_Node000015"><a xlink:title=" ">
<path fill="none" stroke="#63b8ff" d="M686.3,-218.24C723.29,-208.29 778.75,-193.37 813.41,-184.05"/>
<polygon fill="#63b8ff" stroke="#63b8ff" points="685.14,-214.93 676.39,-220.91 686.96,-221.69 685.14,-214.93"/>
</a>
</g>
</g>
<!-- Node16 -->
<g id="Node000016" class="node">
<title>Node16</title>
<g id="a_Node000016"><a xlink:href="SocketTLS_8h.html" target="_top" xlink:title=" ">
<polygon fill="white" stroke="#666666" points="653.17,-184 579.17,-184 579.17,-165 653.17,-165 653.17,-184"/>
<text text-anchor="middle" x="616.17" y="-172" font-family="Helvetica,sans-Serif" font-size="10.00">SocketTLS.h</text>
</a>
</g>
</g>
<!-- Node2&#45;&gt;Node16 -->
<g id="edge20_Node000002_Node000016" class="edge">
<title>Node2&#45;&gt;Node16</title>
<g id="a_edge20_Node000002_Node000016"><a xlink:title=" ">
<path fill="none" stroke="#63b8ff" d="M637.66,-211.1C632.2,-202.04 625.75,-191.37 621.35,-184.09"/>
<polygon fill="#63b8ff" stroke="#63b8ff" points="634.72,-213 642.88,-219.75 640.71,-209.38 634.72,-213"/>
</a>
</g>
</g>
<!-- Node23 -->
<g id="Node000023" class="node">
<title>Node23</title>
<g id="a_Node000023"><a xlink:href="SocketWS_8h.html" target="_top" xlink:title=" ">
<polygon fill="white" stroke="#666666" points="468.17,-184 396.17,-184 396.17,-165 468.17,-165 468.17,-184"/>
<text text-anchor="middle" x="432.17" y="-172" font-family="Helvetica,sans-Serif" font-size="10.00">SocketWS.h</text>
</a>
</g>
</g>
<!-- Node2&#45;&gt;Node23 -->
<g id="edge31_Node000002_Node000023" class="edge">
<title>Node2&#45;&gt;Node23</title>
<g id="a_edge31_Node000002_Node000023"><a xlink:title=" ">
<path fill="none" stroke="#63b8ff" d="M610.16,-219.17C569.64,-209.23 506.03,-193.62 466.84,-184.01"/>
<polygon fill="#63b8ff" stroke="#63b8ff" points="609.38,-222.59 619.93,-221.57 611.05,-215.79 609.38,-222.59"/>
</a>
</g>
</g>
<!-- Node24 -->
<g id="Node000024" class="node">
<title>Node24</title>
<g id="a_Node000024"><a xlink:href="websocket__client_8c.html" target="_top" xlink:title=" ">
<polygon fill="white" stroke="#666666" points="505.67,-129 404.67,-129 404.67,-110 505.67,-110 505.67,-129"/>
<text text-anchor="middle" x="455.17" y="-117" font-family="Helvetica,sans-Serif" font-size="10.00">websocket_client.c</text>
</a>
</g>
</g>
<!-- Node2&#45;&gt;Node24 -->
<g id="edge35_Node000002_Node000024" class="edge">
<title>Node2&#45;&gt;Node24</title>
<g id="a_edge35_Node000002_Node000024"><a xlink:title=" ">
<path fill="none" stroke="#63b8ff" d="M610.45,-220.06C583.88,-213.03 548.2,-201.35 520.17,-184 495.48,-168.72 472.7,-142.6 461.84,-129.12"/>
<polygon fill="#63b8ff" stroke="#63b8ff" points="609.6,-223.46 620.15,-222.53 611.32,-216.67 609.6,-223.46"/>
</a>
</g>
</g>
<!-- Node6 -->
<g id="Node000006" class="node">
<title>Node6</title>
<g id="a_Node000006"><a xlink:href="http__server_8c.html" target="_top" xlink:title=" ">
<polygon fill="white" stroke="#666666" points="490.67,-19 417.67,-19 417.67,0 490.67,0 490.67,-19"/>
<text text-anchor="middle" x="454.17" y="-7" font-family="Helvetica,sans-Serif" font-size="10.00">http_server.c</text>
</a>
</g>
</g>
<!-- Node5&#45;&gt;Node6 -->
<g id="edge5_Node000005_Node000006" class="edge">
<title>Node5&#45;&gt;Node6</title>
<g id="a_edge5_Node000005_Node000006"><a xlink:title=" ">
<path fill="none" stroke="#63b8ff" d="M457.39,-44.66C456.57,-35.93 455.63,-25.99 454.98,-19.09"/>
<polygon fill="#63b8ff" stroke="#63b8ff" points="453.92,-45.12 458.34,-54.75 460.89,-44.46 453.92,-45.12"/>
</a>
</g>
</g>
<!-- Node5&#45;&gt;Node7 -->
<g id="edge6_Node000005_Node000007" class="edge">
<title>Node5&#45;&gt;Node7</title>
<g id="a_edge6_Node000005_Node000007"><a xlink:title=" ">
<path fill="none" stroke="#63b8ff" d="M418,-52.31C381.51,-42.39 329,-28.12 295.74,-19.08"/>
<polygon fill="#63b8ff" stroke="#63b8ff" points="417.27,-55.74 427.84,-54.98 419.11,-48.98 417.27,-55.74"/>
</a>
</g>
</g>
<!-- Node10&#45;&gt;Node5 -->
<g id="edge10_Node000010_Node000005" class="edge">
<title>Node10&#45;&gt;Node5</title>
<g id="a_edge10_Node000010_Node000005"><a xlink:title=" ">
<path fill="none" stroke="#63b8ff" d="M206.79,-154.4C208.32,-140.11 212.76,-121.19 225.17,-110 250.92,-86.77 343.4,-74.87 404.1,-69.44"/>
<polygon fill="#63b8ff" stroke="#63b8ff" points="203.28,-154.41 206.1,-164.62 210.27,-154.88 203.28,-154.41"/>
</a>
</g>
</g>
<!-- Node10&#45;&gt;Node7 -->
<g id="edge13_Node000010_Node000007" class="edge">
<title>Node10&#45;&gt;Node7</title>
<g id="a_edge13_Node000010_Node000007"><a xlink:title=" ">
<path fill="none" stroke="#63b8ff" d="M205.24,-154.32C205.14,-141.53 206.01,-124.47 210.17,-110 220.6,-73.73 245.76,-35.9 257.69,-19.25"/>
<polygon fill="#63b8ff" stroke="#63b8ff" points="201.76,-154.77 205.54,-164.67 208.75,-154.57 201.76,-154.77"/>
</a>
</g>
</g>
<!-- Node10&#45;&gt;Node8 -->
<g id="edge11_Node000010_Node000008" class="edge">
<title>Node10&#45;&gt;Node8</title>
<g id="a_edge11_Node000010_Node000008"><a xlink:title=" ">
<path fill="none" stroke="#63b8ff" d="M176.28,-161.03C152.8,-151.23 120.7,-137.83 99.94,-129.17"/>
<polygon fill="#63b8ff" stroke="#63b8ff" points="175.19,-164.36 185.76,-164.98 177.88,-157.9 175.19,-164.36"/>
</a>
</g>
</g>
<!-- Node10&#45;&gt;Node11 -->
<g id="edge12_Node000010_Node000011" class="edge">
<title>Node10&#45;&gt;Node11</title>
<g id="a_edge12_Node000010_Node000011"><a xlink:title=" ">
<path fill="none" stroke="#63b8ff" d="M228.74,-159.42C244.17,-149.81 264.12,-137.37 277.26,-129.17"/>
<polygon fill="#63b8ff" stroke="#63b8ff" points="226.46,-156.72 219.83,-164.98 230.16,-162.66 226.46,-156.72"/>
</a>
</g>
</g>
<!-- Node13&#45;&gt;Node14 -->
<g id="edge17_Node000013_Node000014" class="edge">
<title>Node13&#45;&gt;Node14</title>
<g id="a_edge17_Node000013_Node000014"><a xlink:title=" ">
<path fill="none" stroke="#63b8ff" d="M813.33,-46.1C819.14,-37.04 825.99,-26.37 830.66,-19.09"/>
<polygon fill="#63b8ff" stroke="#63b8ff" points="810.24,-44.44 807.78,-54.75 816.13,-48.22 810.24,-44.44"/>
</a>
</g>
</g>
<!-- Node15&#45;&gt;Node12 -->
<g id="edge19_Node000015_Node000012" class="edge">
<title>Node15&#45;&gt;Node12</title>
<g id="a_edge19_Node000015_Node000012"><a xlink:title=" ">
<path fill="none" stroke="#63b8ff" d="M868.87,-159.7C885.45,-150.04 907.08,-137.44 921.28,-129.17"/>
<polygon fill="#63b8ff" stroke="#63b8ff" points="866.67,-156.93 859.79,-164.98 870.19,-162.98 866.67,-156.93"/>
</a>
</g>
</g>
<!-- Node16&#45;&gt;Node14 -->
<g id="edge30_Node000016_Node000014" class="edge">
<title>Node16&#45;&gt;Node14</title>
<g id="a_edge30_Node000016_Node000014"><a xlink:title=" ">
<path fill="none" stroke="#63b8ff" d="M663.52,-166.85C713.75,-159.1 789.11,-145.25 813.17,-129 837.79,-112.37 842.32,-102.36 851.17,-74 857.17,-54.75 847.57,-31.57 841.17,-19.23"/>
<polygon fill="#63b8ff" stroke="#63b8ff" points="662.89,-163.41 653.53,-168.37 663.94,-170.33 662.89,-163.41"/>
</a>
</g>
</g>
<!-- Node17 -->
<g id="Node000017" class="node">
<title>Node17</title>
<g id="a_Node000017"><a xlink:href="SocketDTLSContext_8h.html" target="_top" xlink:title=" ">
<polygon fill="white" stroke="#666666" points="804.17,-129 688.17,-129 688.17,-110 804.17,-110 804.17,-129"/>
<text text-anchor="middle" x="746.17" y="-117" font-family="Helvetica,sans-Serif" font-size="10.00">SocketDTLSContext.h</text>
</a>
</g>
</g>
<!-- Node16&#45;&gt;Node17 -->
<g id="edge21_Node000016_Node000017" class="edge">
<title>Node16&#45;&gt;Node17</title>
<g id="a_edge21_Node000016_Node000017"><a xlink:title=" ">
<path fill="none" stroke="#63b8ff" d="M646.44,-161.16C670.5,-151.35 703.57,-137.87 724.9,-129.17"/>
<polygon fill="#63b8ff" stroke="#63b8ff" points="644.99,-157.97 637.06,-164.98 647.64,-164.45 644.99,-157.97"/>
</a>
</g>
</g>
<!-- Node18 -->
<g id="Node000018" class="node">
<title>Node18</title>
<g id="a_Node000018"><a xlink:href="SocketTLSContext_8h.html" target="_top" xlink:title=" ">
<polygon fill="white" stroke="#666666" points="670.17,-129 562.17,-129 562.17,-110 670.17,-110 670.17,-129"/>
<text text-anchor="middle" x="616.17" y="-117" font-family="Helvetica,sans-Serif" font-size="10.00">SocketTLSContext.h</text>
</a>
</g>
</g>
<!-- Node16&#45;&gt;Node18 -->
<g id="edge22_Node000016_Node000018" class="edge">
<title>Node16&#45;&gt;Node18</title>
<g id="a_edge22_Node000016_Node000018"><a xlink:title=" ">
<path fill="none" stroke="#63b8ff" d="M616.17,-154.66C616.17,-145.93 616.17,-135.99 616.17,-129.09"/>
<polygon fill="#63b8ff" stroke="#63b8ff" points="612.67,-154.75 616.17,-164.75 619.67,-154.75 612.67,-154.75"/>
</a>
</g>
</g>
<!-- Node18&#45;&gt;Node5 -->
<g id="edge27_Node000018_Node000005" class="edge">
<title>Node18&#45;&gt;Node5</title>
<g id="a_edge27_Node000018_Node000005"><a xlink:title=" ">
<path fill="none" stroke="#63b8ff" d="M581.12,-106.67C551.85,-96.79 510.8,-82.93 484.59,-74.08"/>
<polygon fill="#63b8ff" stroke="#63b8ff" points="580.35,-110.1 590.94,-109.98 582.59,-103.47 580.35,-110.1"/>
</a>
</g>
</g>
<!-- Node18&#45;&gt;Node13 -->
<g id="edge28_Node000018_Node000013" class="edge">
<title>Node18&#45;&gt;Node13</title>
<g id="a_edge28_Node000018_Node000013"><a xlink:title=" ">
<path fill="none" stroke="#63b8ff" d="M655.88,-107.18C690.67,-97.27 740.46,-83.08 772.05,-74.08"/>
<polygon fill="#63b8ff" stroke="#63b8ff" points="654.71,-103.88 646.05,-109.98 656.63,-110.61 654.71,-103.88"/>
</a>
</g>
</g>
<!-- Node18&#45;&gt;Node14 -->
<g id="edge29_Node000018_Node000014" class="edge">
<title>Node18&#45;&gt;Node14</title>
<g id="a_edge29_Node000018_Node000014"><a xlink:title=" ">
<path fill="none" stroke="#63b8ff" d="M642.8,-105.43C688.45,-83.02 780.41,-37.87 818.76,-19.05"/>
<polygon fill="#63b8ff" stroke="#63b8ff" points="641.23,-102.3 633.8,-109.84 644.32,-108.58 641.23,-102.3"/>
</a>
</g>
</g>
<!-- Node19 -->
<g id="Node000019" class="node">
<title>Node19</title>
<g id="a_Node000019"><a xlink:href="SocketHTTPClient_8h.html" target="_top" xlink:title=" ">
<polygon fill="white" stroke="#666666" points="678.67,-74 571.67,-74 571.67,-55 678.67,-55 678.67,-74"/>
<text text-anchor="middle" x="625.17" y="-62" font-family="Helvetica,sans-Serif" font-size="10.00">SocketHTTPClient.h</text>
</a>
</g>
</g>
<!-- Node18&#45;&gt;Node19 -->
<g id="edge23_Node000018_Node000019" class="edge">
<title>Node18&#45;&gt;Node19</title>
<g id="a_edge23_Node000018_Node000019"><a xlink:title=" ">
<path fill="none" stroke="#63b8ff" d="M619.37,-99.66C620.85,-90.93 622.54,-80.99 623.71,-74.09"/>
<polygon fill="#63b8ff" stroke="#63b8ff" points="615.88,-99.3 617.65,-109.75 622.78,-100.48 615.88,-99.3"/>
</a>
</g>
</g>
<!-- Node20 -->
<g id="Node000020" class="node">
<title>Node20</title>
<g id="a_Node000020"><a xlink:href="http2__client_8c.html" target="_top" xlink:title=" ">
<polygon fill="white" stroke="#666666" points="666.67,-19 591.67,-19 591.67,0 666.67,0 666.67,-19"/>
<text text-anchor="middle" x="629.17" y="-7" font-family="Helvetica,sans-Serif" font-size="10.00">http2_client.c</text>
</a>
</g>
</g>
<!-- Node19&#45;&gt;Node20 -->
<g id="edge24_Node000019_Node000020" class="edge">
<title>Node19&#45;&gt;Node20</title>
<g id="a_edge24_Node000019_Node000020"><a xlink:title=" ">
<path fill="none" stroke="#63b8ff" d="M626.59,-44.66C627.25,-35.93 628,-25.99 628.52,-19.09"/>
<polygon fill="#63b8ff" stroke="#63b8ff" points="623.09,-44.51 625.83,-54.75 630.07,-45.04 623.09,-44.51"/>
</a>
</g>
</g>
<!-- Node21 -->
<g id="Node000021" class="node">
<title>Node21</title>
<g id="a_Node000021"><a xlink:href="http__get_8c.html" target="_top" xlink:title=" ">
<polygon fill="white" stroke="#666666" points="744.17,-19 684.17,-19 684.17,0 744.17,0 744.17,-19"/>
<text text-anchor="middle" x="714.17" y="-7" font-family="Helvetica,sans-Serif" font-size="10.00">http_get.c</text>
</a>
</g>
</g>
<!-- Node19&#45;&gt;Node21 -->
<g id="edge25_Node000019_Node000021" class="edge">
<title>Node19&#45;&gt;Node21</title>
<g id="a_edge25_Node000019_Node000021"><a xlink:title=" ">
<path fill="none" stroke="#63b8ff" d="M648.35,-49.7C664.56,-40.04 685.72,-27.44 699.61,-19.17"/>
<polygon fill="#63b8ff" stroke="#63b8ff" points="646.27,-46.86 639.47,-54.98 649.85,-52.88 646.27,-46.86"/>
</a>
</g>
</g>
<!-- Node22 -->
<g id="Node000022" class="node">
<title>Node22</title>
<g id="a_Node000022"><a xlink:href="http__post_8c.html" target="_top" xlink:title=" ">
<polygon fill="white" stroke="#666666" points="573.67,-19 508.67,-19 508.67,0 573.67,0 573.67,-19"/>
<text text-anchor="middle" x="541.17" y="-7" font-family="Helvetica,sans-Serif" font-size="10.00">http_post.c</text>
</a>
</g>
</g>
<!-- Node19&#45;&gt;Node22 -->
<g id="edge26_Node000019_Node000022" class="edge">
<title>Node19&#45;&gt;Node22</title>
<g id="a_edge26_Node000019_Node000022"><a xlink:title=" ">
<path fill="none" stroke="#63b8ff" d="M602.86,-49.42C587.62,-39.81 567.9,-27.37 554.91,-19.17"/>
<polygon fill="#63b8ff" stroke="#63b8ff" points="601.35,-52.61 611.67,-54.98 605.08,-46.69 601.35,-52.61"/>
</a>
</g>
</g>
<!-- Node23&#45;&gt;Node7 -->
<g id="edge33_Node000023_Node000007" class="edge">
<title>Node23&#45;&gt;Node7</title>
<g id="a_edge33_Node000023_Node000007"><a xlink:title=" ">
<path fill="none" stroke="#63b8ff" d="M415.66,-157.49C380.73,-123.59 300.31,-45.57 273.25,-19.31"/>
<polygon fill="#63b8ff" stroke="#63b8ff" points="413.52,-160.28 423.14,-164.74 418.4,-155.26 413.52,-160.28"/>
</a>
</g>
</g>
<!-- Node23&#45;&gt;Node24 -->
<g id="edge32_Node000023_Node000024" class="edge">
<title>Node23&#45;&gt;Node24</title>
<g id="a_edge32_Node000023_Node000024"><a xlink:title=" ">
<path fill="none" stroke="#63b8ff" d="M439.97,-155.53C443.84,-146.6 448.35,-136.22 451.44,-129.09"/>
<polygon fill="#63b8ff" stroke="#63b8ff" points="436.74,-154.18 435.97,-164.75 443.16,-156.97 436.74,-154.18"/>
</a>
</g>
</g>
<!-- Node26 -->
<g id="Node000026" class="node">
<title>Node26</title>
<g id="a_Node000026"><a xlink:href="SocketDTLS_8h.html" target="_top" xlink:title=" ">
<polygon fill="white" stroke="#666666" points="1279.67,-184 1198.67,-184 1198.67,-165 1279.67,-165 1279.67,-184"/>
<text text-anchor="middle" x="1239.17" y="-172" font-family="Helvetica,sans-Serif" font-size="10.00">SocketDTLS.h</text>
</a>
</g>
</g>
<!-- Node25&#45;&gt;Node26 -->
<g id="edge38_Node000025_Node000026" class="edge">
<title>Node25&#45;&gt;Node26</title>
<g id="a_edge38_Node000025_Node000026"><a xlink:title=" ">
<path fill="none" stroke="#63b8ff" d="M1038.47,-217.88C1085.52,-207.94 1154.89,-193.3 1198.52,-184.08"/>
<polygon fill="#63b8ff" stroke="#63b8ff" points="1037.56,-214.49 1028.5,-219.98 1039,-221.34 1037.56,-214.49"/>
</a>
</g>
</g>
</g>
</svg>

<g id="navigator" transform="translate(0 0)" fill="#404254">
  <rect fill="#f2f5e9" fill-opacity="0.5" stroke="#606060" stroke-width=".5" x="0" y="0" width="60" height="60"/>
  <use id="zoomplus" xlink:href="#zoomPlus" x="17" y="9" onmousedown="handleZoom(evt,'in')"/>
  <use id="zoomminus" xlink:href="#zoomMin" x="42" y="9" onmousedown="handleZoom(evt,'out')"/>
  <use id="reset" xlink:href="#resetDef" x="30" y="36" onmousedown="handleReset()"/>
   <use id="arrowup" xlink:href="#arrowUp" x="0" y="0" onmousedown="handlePan(0,-1)"/>
  <use id="arrowright" xlink:href="#arrowRight" x="0" y="0" onmousedown="handlePan(1,0)"/>
  <use id="arrowdown" xlink:href="#arrowDown" x="0" y="0" onmousedown="handlePan(0,1)"/>
  <use id="arrowleft" xlink:href="#arrowLeft" x="0" y="0" onmousedown="handlePan(-1,0)"/>
</g>
<svg viewBox="0 0 15 15" width="100%" height="30px" preserveAspectRatio="xMaxYMin meet">
 <g id="arrow_out" transform="scale(0.3 0.3)">
  <a xlink:href="SocketCommon_8h__dep__incl_org.svg" target="_base">
   <rect id="button" ry="5" rx="5" y="6" x="6" height="38" width="38"
        fill="#f2f5e9" fill-opacity="0.5" stroke="#606060" stroke-width="1.0"/>
   <path id="arrow"
     d="M 11.500037,31.436501 C 11.940474,20.09759 22.043105,11.32322 32.158766,21.979434 L 37.068811,17.246167 C 37.068811,17.246167 37.088388,32 37.088388,32 L 22.160133,31.978069 C 22.160133,31.978069 26.997745,27.140456 26.997745,27.140456 C 18.528582,18.264221 13.291696,25.230495 11.500037,31.436501 z"
     style="fill:#404040;"/>
  </a>
 </g>
</svg>

<style type='text/css'>
<![CDATA[
[data-mouse-over-selected='false'] { opacity: 0.7; }
[data-mouse-over-selected='true']  { opacity: 1.0; }
]]>
</style>
<script type="application/ecmascript"><![CDATA[
document.addEventListener('DOMContentLoaded', (event) => {
  highlightEdges();
  highlightAdjacentNodes();
});
]]></script>
</svg>
