<?xml version="1.0" encoding="UTF-8" standalone="no"?>
<!DOCTYPE svg PUBLIC "-//W3C//DTD SVG 1.1//EN"
 "http://www.w3.org/Graphics/SVG/1.1/DTD/svg11.dtd">
<!-- Generated by graphviz version 2.43.0 (0)
 -->
<!-- Title: SocketHPACK.h Pages: 1 -->
<svg width="282pt" height="192pt"
 viewBox="0.00 0.00 281.67 192.00" xmlns="http://www.w3.org/2000/svg" xmlns:xlink="http://www.w3.org/1999/xlink">
<g id="graph0" class="graph" transform="scale(1 1) rotate(0) translate(4 188)">
<title>SocketHPACK.h</title>
<!-- Node1 -->
<g id="Node000001" class="node">
<title>Node1</title>
<g id="a_Node000001"><a xlink:title=" ">
<polygon fill="#999999" stroke="#666666" points="159.67,-184 70.67,-184 70.67,-165 159.67,-165 159.67,-184"/>
<text text-anchor="middle" x="115.17" y="-172" font-family="Helvetica,sans-Serif" font-size="10.00">SocketHPACK.h</text>
</a>
</g>
</g>
<!-- Node2 -->
<g id="Node000002" class="node">
<title>Node2</title>
<g id="a_Node000002"><a xlink:title=" ">
<polygon fill="#e0e0e0" stroke="#999999" points="111.17,-74 59.17,-74 59.17,-55 111.17,-55 111.17,-74"/>
<text text-anchor="middle" x="85.17" y="-62" font-family="Helvetica,sans-Serif" font-size="10.00">stddef.h</text>
</a>
</g>
</g>
<!-- Node1&#45;&gt;Node2 -->
<g id="edge1_Node000001_Node000002" class="edge">
<title>Node1&#45;&gt;Node2</title>
<g id="a_edge1_Node000001_Node000002"><a xlink:title=" ">
<path fill="none" stroke="#63b8ff" d="M70.56,-167.69C46.6,-162.05 19,-150.93 4.17,-129 -11.23,-106.23 21.14,-87.89 49.42,-76.88"/>
<polygon fill="#63b8ff" stroke="#63b8ff" points="50.99,-80.04 59.17,-73.3 48.58,-73.47 50.99,-80.04"/>
</a>
</g>
</g>
<!-- Node3 -->
<g id="Node000003" class="node">
<title>Node3</title>
<g id="a_Node000003"><a xlink:title=" ">
<polygon fill="#e0e0e0" stroke="#999999" points="62.67,-129 13.67,-129 13.67,-110 62.67,-110 62.67,-129"/>
<text text-anchor="middle" x="38.17" y="-117" font-family="Helvetica,sans-Serif" font-size="10.00">stdint.h</text>
</a>
</g>
</g>
<!-- Node1&#45;&gt;Node3 -->
<g id="edge2_Node000001_Node000003" class="edge">
<title>Node1&#45;&gt;Node3</title>
<g id="a_edge2_Node000001_Node000003"><a xlink:title=" ">
<path fill="none" stroke="#63b8ff" d="M102.8,-164.98C91.08,-156.92 73.25,-144.65 59.29,-135.03"/>
<polygon fill="#63b8ff" stroke="#63b8ff" points="60.99,-131.96 50.77,-129.17 57.02,-137.72 60.99,-131.96"/>
</a>
</g>
</g>
<!-- Node4 -->
<g id="Node000004" class="node">
<title>Node4</title>
<g id="a_Node000004"><a xlink:title=" ">
<polygon fill="#e0e0e0" stroke="#999999" points="149.17,-129 81.17,-129 81.17,-110 149.17,-110 149.17,-129"/>
<text text-anchor="middle" x="115.17" y="-117" font-family="Helvetica,sans-Serif" font-size="10.00">sys/types.h</text>
</a>
</g>
</g>
<!-- Node1&#45;&gt;Node4 -->
<g id="edge3_Node000001_Node000004" class="edge">
<title>Node1&#45;&gt;Node4</title>
<g id="a_edge3_Node000001_Node000004"><a xlink:title=" ">
<path fill="none" stroke="#63b8ff" d="M115.17,-164.75C115.17,-157.8 115.17,-147.85 115.17,-139.13"/>
<polygon fill="#63b8ff" stroke="#63b8ff" points="118.67,-139.09 115.17,-129.09 111.67,-139.09 118.67,-139.09"/>
</a>
</g>
</g>
<!-- Node5 -->
<g id="Node000005" class="node">
<title>Node5</title>
<g id="a_Node000005"><a xlink:href="Arena_8h.html" target="_top" xlink:title=" ">
<polygon fill="white" stroke="#666666" points="239.17,-129 167.17,-129 167.17,-110 239.17,-110 239.17,-129"/>
<text text-anchor="middle" x="203.17" y="-117" font-family="Helvetica,sans-Serif" font-size="10.00">core/Arena.h</text>
</a>
</g>
</g>
<!-- Node1&#45;&gt;Node5 -->
<g id="edge4_Node000001_Node000005" class="edge">
<title>Node1&#45;&gt;Node5</title>
<g id="a_edge4_Node000001_Node000005"><a xlink:title=" ">
<path fill="none" stroke="#63b8ff" d="M129.31,-164.98C142.96,-156.77 163.86,-144.18 179.95,-134.49"/>
<polygon fill="#63b8ff" stroke="#63b8ff" points="182.02,-137.33 188.78,-129.17 178.4,-131.33 182.02,-137.33"/>
</a>
</g>
</g>
<!-- Node6 -->
<g id="Node000006" class="node">
<title>Node6</title>
<g id="a_Node000006"><a xlink:href="Except_8h.html" target="_top" xlink:title=" ">
<polygon fill="white" stroke="#666666" points="273.67,-74 196.67,-74 196.67,-55 273.67,-55 273.67,-74"/>
<text text-anchor="middle" x="235.17" y="-62" font-family="Helvetica,sans-Serif" font-size="10.00">core/Except.h</text>
</a>
</g>
</g>
<!-- Node1&#45;&gt;Node6 -->
<g id="edge8_Node000001_Node000006" class="edge">
<title>Node1&#45;&gt;Node6</title>
<g id="a_edge8_Node000001_Node000006"><a xlink:title=" ">
<path fill="none" stroke="#63b8ff" d="M159.76,-171.45C190.08,-167.46 228.19,-156.76 248.17,-129 257.8,-115.63 252.16,-96.77 245.57,-83.08"/>
<polygon fill="#63b8ff" stroke="#63b8ff" points="248.61,-81.35 240.8,-74.18 242.44,-84.65 248.61,-81.35"/>
</a>
</g>
</g>
<!-- Node5&#45;&gt;Node2 -->
<g id="edge5_Node000005_Node000002" class="edge">
<title>Node5&#45;&gt;Node2</title>
<g id="a_edge5_Node000005_Node000002"><a xlink:title=" ">
<path fill="none" stroke="#63b8ff" d="M184.21,-109.98C165.15,-101.42 135.51,-88.11 113.62,-78.28"/>
<polygon fill="#63b8ff" stroke="#63b8ff" points="115.03,-75.07 104.48,-74.17 112.16,-81.46 115.03,-75.07"/>
</a>
</g>
</g>
<!-- Node5&#45;&gt;Node6 -->
<g id="edge6_Node000005_Node000006" class="edge">
<title>Node5&#45;&gt;Node6</title>
<g id="a_edge6_Node000005_Node000006"><a xlink:title=" ">
<path fill="none" stroke="#63b8ff" d="M208.46,-109.75C212.88,-102.42 219.34,-91.73 224.79,-82.7"/>
<polygon fill="#63b8ff" stroke="#63b8ff" points="227.81,-84.46 229.99,-74.09 221.82,-80.84 227.81,-84.46"/>
</a>
</g>
</g>
<!-- Node7 -->
<g id="Node000007" class="node">
<title>Node7</title>
<g id="a_Node000007"><a xlink:title=" ">
<polygon fill="#e0e0e0" stroke="#999999" points="262.17,-19 208.17,-19 208.17,0 262.17,0 262.17,-19"/>
<text text-anchor="middle" x="235.17" y="-7" font-family="Helvetica,sans-Serif" font-size="10.00">setjmp.h</text>
</a>
</g>
</g>
<!-- Node6&#45;&gt;Node7 -->
<g id="edge7_Node000006_Node000007" class="edge">
<title>Node6&#45;&gt;Node7</title>
<g id="a_edge7_Node000006_Node000007"><a xlink:title=" ">
<path fill="none" stroke="#63b8ff" d="M235.17,-54.75C235.17,-47.8 235.17,-37.85 235.17,-29.13"/>
<polygon fill="#63b8ff" stroke="#63b8ff" points="238.67,-29.09 235.17,-19.09 231.67,-29.09 238.67,-29.09"/>
</a>
</g>
</g>
</g>
</svg>
