<?xml version="1.0" encoding="UTF-8" standalone="no"?>
<!DOCTYPE svg PUBLIC "-//W3C//DTD SVG 1.1//EN"
 "http://www.w3.org/Graphics/SVG/1.1/DTD/svg11.dtd">
<!-- Generated by graphviz version 2.43.0 (0)
 -->
<!-- Title: SocketHTTP2.h Pages: 1 -->
<!--zoomable 302 -->

<svg id="main" version="1.1" xmlns="http://www.w3.org/2000/svg" xmlns:xlink="http://www.w3.org/1999/xlink" xml:space="preserve" onload="init(evt)">
<style type="text/css"><![CDATA[
.node, .edge {opacity: 0.7;}
.node.selected, .edge.selected {opacity: 1;}
.edge:hover path { stroke: red; }
.edge:hover polygon { stroke: red; fill: red; }
]]></style>

<defs>
  <circle id="rim" cx="0" cy="0" r="7"/>
  <circle id="rim2" cx="0" cy="0" r="3.5"/>
  <g id="zoomPlus">
    <use xlink:href="#rim" fill="#404040"><set attributeName="fill" to="#808080" begin="zoomplus.mouseover" end="zoomplus.mouseout"/></use>
    <path d="M-4,0h8M0,-4v8" fill="none" stroke="white" stroke-width="1.5" pointer-events="none"/>
  </g>
  <g id="zoomMin">
    <use xlink:href="#rim" fill="#404040"><set attributeName="fill" to="#808080" begin="zoomminus.mouseover" end="zoomminus.mouseout"/></use>
    <path d="M-4,0h8" fill="none" stroke="white" stroke-width="1.5" pointer-events="none"/>
  </g>
  <g id="arrowUp" transform="translate(30 24)">
    <use xlink:href="#rim"/>
    <path pointer-events="none" fill="none" stroke="white" stroke-width="1.5" d="M0,-3.0v7 M-2.5,-0.5L0,-3.0L2.5,-0.5"/>
  </g>
  <g id="arrowRight" transform="rotate(90) translate(36 -43)">
    <use xlink:href="#rim"/>
    <path pointer-events="none" fill="none" stroke="white" stroke-width="1.5" d="M0,-3.0v7 M-2.5,-0.5L0,-3.0L2.5,-0.5"/>
  </g>
  <g id="arrowDown" transform="rotate(180) translate(-30 -48)">
    <use xlink:href="#rim"/>
    <path pointer-events="none" fill="none" stroke="white" stroke-width="1.5" d="M0,-3.0v7 M-2.5,-0.5L0,-3.0L2.5,-0.5"/>
  </g>
  <g id="arrowLeft" transform="rotate(270) translate(-36 17)">
    <use xlink:href="#rim"/>
    <path pointer-events="none" fill="none" stroke="white" stroke-width="1.5" d="M0,-3.0v7 M-2.5,-0.5L0,-3.0L2.5,-0.5"/>
  </g>
  <g id="resetDef">
    <use xlink:href="#rim2" fill="#404040"><set attributeName="fill" to="#808080" begin="reset.mouseover" end="reset.mouseout"/></use>
  </g>
</defs>
<script type="application/ecmascript">
var viewWidth = 1531;
var viewHeight = 302;
var sectionId = 'dynsection-0';
</script>
<script type="application/ecmascript" xlink:href="svg.min.js"/>
<svg id="graph" class="graph">
<g id="viewport">
<title>SocketHTTP2.h</title>
<!-- Node1 -->
<g id="Node000001" class="node">
<title>Node1</title>
<g id="a_Node000001"><a xlink:title=" ">
<polygon fill="#999999" stroke="#666666" points="337.2,-294 250.2,-294 250.2,-275 337.2,-275 337.2,-294"/>
<text text-anchor="middle" x="293.7" y="-282" font-family="Helvetica,sans-Serif" font-size="10.00">SocketHTTP2.h</text>
</a>
</g>
</g>
<!-- Node2 -->
<g id="Node000002" class="node">
<title>Node2</title>
<g id="a_Node000002"><a xlink:title=" ">
<polygon fill="#e0e0e0" stroke="#999999" points="267.7,-74 215.7,-74 215.7,-55 267.7,-55 267.7,-74"/>
<text text-anchor="middle" x="241.7" y="-62" font-family="Helvetica,sans-Serif" font-size="10.00">stddef.h</text>
</a>
</g>
</g>
<!-- Node1&#45;&gt;Node2 -->
<g id="edge1_Node000001_Node000002" class="edge">
<title>Node1&#45;&gt;Node2</title>
<g id="a_edge1_Node000001_Node000002"><a xlink:title=" ">
<path fill="none" stroke="#63b8ff" d="M250.12,-275.78C182.14,-261.05 53.49,-221.73 3.7,-129 -0.3,-121.56 -1.7,-116.5 3.7,-110 28.9,-79.64 145.12,-69.88 205.32,-66.83"/>
<polygon fill="#63b8ff" stroke="#63b8ff" points="205.7,-70.32 215.53,-66.35 205.37,-63.32 205.7,-70.32"/>
</a>
</g>
</g>
<!-- Node3 -->
<g id="Node000003" class="node">
<title>Node3</title>
<g id="a_Node000003"><a xlink:title=" ">
<polygon fill="#e0e0e0" stroke="#999999" points="62.2,-129 13.2,-129 13.2,-110 62.2,-110 62.2,-129"/>
<text text-anchor="middle" x="37.7" y="-117" font-family="Helvetica,sans-Serif" font-size="10.00">stdint.h</text>
</a>
</g>
</g>
<!-- Node1&#45;&gt;Node3 -->
<g id="edge2_Node000001_Node000003" class="edge">
<title>Node1&#45;&gt;Node3</title>
<g id="a_edge2_Node000001_Node000003"><a xlink:title=" ">
<path fill="none" stroke="#63b8ff" d="M276.17,-274.99C243.56,-258.87 171.78,-222.08 115.7,-184 93.76,-169.1 70.4,-149.53 55.02,-136.08"/>
<polygon fill="#63b8ff" stroke="#63b8ff" points="57.17,-133.3 47.36,-129.3 52.53,-138.55 57.17,-133.3"/>
</a>
</g>
</g>
<!-- Node4 -->
<g id="Node000004" class="node">
<title>Node4</title>
<g id="a_Node000004"><a xlink:title=" ">
<polygon fill="#e0e0e0" stroke="#999999" points="452.7,-129 384.7,-129 384.7,-110 452.7,-110 452.7,-129"/>
<text text-anchor="middle" x="418.7" y="-117" font-family="Helvetica,sans-Serif" font-size="10.00">sys/types.h</text>
</a>
</g>
</g>
<!-- Node1&#45;&gt;Node4 -->
<g id="edge3_Node000001_Node000004" class="edge">
<title>Node1&#45;&gt;Node4</title>
<g id="a_edge3_Node000001_Node000004"><a xlink:title=" ">
<path fill="none" stroke="#63b8ff" d="M306.52,-274.96C328.79,-259.47 374.6,-224.57 399.7,-184 408.21,-170.24 413.1,-152.43 415.78,-139.18"/>
<polygon fill="#63b8ff" stroke="#63b8ff" points="419.23,-139.77 417.55,-129.31 412.34,-138.54 419.23,-139.77"/>
</a>
</g>
</g>
<!-- Node5 -->
<g id="Node000005" class="node">
<title>Node5</title>
<g id="a_Node000005"><a xlink:href="Arena_8h.html" target="_top" xlink:title=" ">
<polygon fill="white" stroke="#666666" points="328.7,-129 256.7,-129 256.7,-110 328.7,-110 328.7,-129"/>
<text text-anchor="middle" x="292.7" y="-117" font-family="Helvetica,sans-Serif" font-size="10.00">core/Arena.h</text>
</a>
</g>
</g>
<!-- Node1&#45;&gt;Node5 -->
<g id="edge4_Node000001_Node000005" class="edge">
<title>Node1&#45;&gt;Node5</title>
<g id="a_edge4_Node000001_Node000005"><a xlink:title=" ">
<path fill="none" stroke="#63b8ff" d="M289.68,-274.83C281.12,-255.19 262.54,-205.84 271.7,-165 273.77,-155.74 278,-146.14 282.12,-138.23"/>
<polygon fill="#63b8ff" stroke="#63b8ff" points="285.3,-139.72 287.12,-129.28 279.19,-136.31 285.3,-139.72"/>
</a>
</g>
</g>
<!-- Node6 -->
<g id="Node000006" class="node">
<title>Node6</title>
<g id="a_Node000006"><a xlink:href="Except_8h.html" target="_top" xlink:title=" ">
<polygon fill="white" stroke="#666666" points="519.2,-74 442.2,-74 442.2,-55 519.2,-55 519.2,-74"/>
<text text-anchor="middle" x="480.7" y="-62" font-family="Helvetica,sans-Serif" font-size="10.00">core/Except.h</text>
</a>
</g>
</g>
<!-- Node1&#45;&gt;Node6 -->
<g id="edge8_Node000001_Node000006" class="edge">
<title>Node1&#45;&gt;Node6</title>
<g id="a_edge8_Node000001_Node000006"><a xlink:title=" ">
<path fill="none" stroke="#63b8ff" d="M315.04,-274.85C332.52,-267.11 357.27,-254.59 375.7,-239 423.07,-198.92 433.2,-184.13 461.7,-129 469.05,-114.77 474.03,-97.24 477.03,-84.2"/>
<polygon fill="#63b8ff" stroke="#63b8ff" points="480.53,-84.61 479.18,-74.1 473.68,-83.16 480.53,-84.61"/>
</a>
</g>
</g>
<!-- Node8 -->
<g id="Node000008" class="node">
<title>Node8</title>
<g id="a_Node000008"><a xlink:href="SocketHPACK_8h.html" target="_top" xlink:title=" ">
<polygon fill="white" stroke="#666666" points="390.2,-184 281.2,-184 281.2,-165 390.2,-165 390.2,-184"/>
<text text-anchor="middle" x="335.7" y="-172" font-family="Helvetica,sans-Serif" font-size="10.00">http/SocketHPACK.h</text>
</a>
</g>
</g>
<!-- Node1&#45;&gt;Node8 -->
<g id="edge9_Node000001_Node000008" class="edge">
<title>Node1&#45;&gt;Node8</title>
<g id="a_edge9_Node000001_Node000008"><a xlink:title=" ">
<path fill="none" stroke="#63b8ff" d="M297.13,-274.66C304,-257.01 319.52,-217.09 328.64,-193.64"/>
<polygon fill="#63b8ff" stroke="#63b8ff" points="331.97,-194.75 332.33,-184.16 325.44,-192.21 331.97,-194.75"/>
</a>
</g>
</g>
<!-- Node9 -->
<g id="Node000009" class="node">
<title>Node9</title>
<g id="a_Node000009"><a xlink:href="SocketHTTP_8h.html" target="_top" xlink:title=" ">
<polygon fill="white" stroke="#666666" points="224.7,-184 124.7,-184 124.7,-165 224.7,-165 224.7,-184"/>
<text text-anchor="middle" x="174.7" y="-172" font-family="Helvetica,sans-Serif" font-size="10.00">http/SocketHTTP.h</text>
</a>
</g>
</g>
<!-- Node1&#45;&gt;Node9 -->
<g id="edge15_Node000001_Node000009" class="edge">
<title>Node1&#45;&gt;Node9</title>
<g id="a_edge15_Node000001_Node000009"><a xlink:title=" ">
<path fill="none" stroke="#63b8ff" d="M282.47,-274.95C271.16,-266.22 253.33,-252.12 238.7,-239 221.52,-223.6 202.9,-204.88 190.2,-191.77"/>
<polygon fill="#63b8ff" stroke="#63b8ff" points="192.58,-189.19 183.12,-184.41 187.53,-194.05 192.58,-189.19"/>
</a>
</g>
</g>
<!-- Node11 -->
<g id="Node000011" class="node">
<title>Node11</title>
<g id="a_Node000011"><a xlink:href="Socket_8h.html" target="_top" xlink:title=" ">
<polygon fill="white" stroke="#666666" points="638.7,-239 550.7,-239 550.7,-220 638.7,-220 638.7,-239"/>
<text text-anchor="middle" x="594.7" y="-227" font-family="Helvetica,sans-Serif" font-size="10.00">socket/Socket.h</text>
</a>
</g>
</g>
<!-- Node1&#45;&gt;Node11 -->
<g id="edge22_Node000001_Node000011" class="edge">
<title>Node1&#45;&gt;Node11</title>
<g id="a_edge22_Node000001_Node000011"><a xlink:title=" ">
<path fill="none" stroke="#63b8ff" d="M337.46,-275.79C391.15,-266.34 482.15,-250.32 540.28,-240.08"/>
<polygon fill="#63b8ff" stroke="#63b8ff" points="541.14,-243.48 550.38,-238.3 539.93,-236.59 541.14,-243.48"/>
</a>
</g>
</g>
<!-- Node5&#45;&gt;Node2 -->
<g id="edge5_Node000005_Node000002" class="edge">
<title>Node5&#45;&gt;Node2</title>
<g id="a_edge5_Node000005_Node000002"><a xlink:title=" ">
<path fill="none" stroke="#63b8ff" d="M284.27,-109.75C276.92,-102.11 266.06,-90.82 257.15,-81.56"/>
<polygon fill="#63b8ff" stroke="#63b8ff" points="259.42,-78.87 249.96,-74.09 254.37,-83.72 259.42,-78.87"/>
</a>
</g>
</g>
<!-- Node5&#45;&gt;Node6 -->
<g id="edge6_Node000005_Node000006" class="edge">
<title>Node5&#45;&gt;Node6</title>
<g id="a_edge6_Node000005_Node000006"><a xlink:title=" ">
<path fill="none" stroke="#63b8ff" d="M322.9,-109.98C354.74,-101.01 405.06,-86.82 440.29,-76.89"/>
<polygon fill="#63b8ff" stroke="#63b8ff" points="441.58,-80.16 450.25,-74.08 439.68,-73.43 441.58,-80.16"/>
</a>
</g>
</g>
<!-- Node7 -->
<g id="Node000007" class="node">
<title>Node7</title>
<g id="a_Node000007"><a xlink:title=" ">
<polygon fill="#e0e0e0" stroke="#999999" points="507.7,-19 453.7,-19 453.7,0 507.7,0 507.7,-19"/>
<text text-anchor="middle" x="480.7" y="-7" font-family="Helvetica,sans-Serif" font-size="10.00">setjmp.h</text>
</a>
</g>
</g>
<!-- Node6&#45;&gt;Node7 -->
<g id="edge7_Node000006_Node000007" class="edge">
<title>Node6&#45;&gt;Node7</title>
<g id="a_edge7_Node000006_Node000007"><a xlink:title=" ">
<path fill="none" stroke="#63b8ff" d="M480.7,-54.75C480.7,-47.8 480.7,-37.85 480.7,-29.13"/>
<polygon fill="#63b8ff" stroke="#63b8ff" points="484.2,-29.09 480.7,-19.09 477.2,-29.09 484.2,-29.09"/>
</a>
</g>
</g>
<!-- Node8&#45;&gt;Node2 -->
<g id="edge10_Node000008_Node000002" class="edge">
<title>Node8&#45;&gt;Node2</title>
<g id="a_edge10_Node000008_Node000002"><a xlink:title=" ">
<path fill="none" stroke="#63b8ff" d="M301.4,-164.98C282.39,-158.4 260.14,-147.25 247.7,-129 238.83,-115.99 237.96,-97.84 238.94,-84.28"/>
<polygon fill="#63b8ff" stroke="#63b8ff" points="242.44,-84.5 240.06,-74.18 235.48,-83.73 242.44,-84.5"/>
</a>
</g>
</g>
<!-- Node8&#45;&gt;Node3 -->
<g id="edge11_Node000008_Node000003" class="edge">
<title>Node8&#45;&gt;Node3</title>
<g id="a_edge11_Node000008_Node000003"><a xlink:title=" ">
<path fill="none" stroke="#63b8ff" d="M287.82,-164.98C227.51,-154.26 125.35,-136.09 72.18,-126.63"/>
<polygon fill="#63b8ff" stroke="#63b8ff" points="72.68,-123.17 62.22,-124.86 71.46,-130.06 72.68,-123.17"/>
</a>
</g>
</g>
<!-- Node8&#45;&gt;Node4 -->
<g id="edge12_Node000008_Node000004" class="edge">
<title>Node8&#45;&gt;Node4</title>
<g id="a_edge12_Node000008_Node000004"><a xlink:title=" ">
<path fill="none" stroke="#63b8ff" d="M349.03,-164.98C361.78,-156.84 381.25,-144.41 396.37,-134.76"/>
<polygon fill="#63b8ff" stroke="#63b8ff" points="398.57,-137.5 405.12,-129.17 394.81,-131.6 398.57,-137.5"/>
</a>
</g>
</g>
<!-- Node8&#45;&gt;Node5 -->
<g id="edge13_Node000008_Node000005" class="edge">
<title>Node8&#45;&gt;Node5</title>
<g id="a_edge13_Node000008_Node000005"><a xlink:title=" ">
<path fill="none" stroke="#63b8ff" d="M328.6,-164.75C322.52,-157.26 313.61,-146.28 306.19,-137.13"/>
<polygon fill="#63b8ff" stroke="#63b8ff" points="308.68,-134.65 299.66,-129.09 303.25,-139.06 308.68,-134.65"/>
</a>
</g>
</g>
<!-- Node8&#45;&gt;Node6 -->
<g id="edge14_Node000008_Node000006" class="edge">
<title>Node8&#45;&gt;Node6</title>
<g id="a_edge14_Node000008_Node000006"><a xlink:title=" ">
<path fill="none" stroke="#63b8ff" d="M339.07,-164.94C344.76,-151.54 357.43,-125.53 375.7,-110 393.45,-94.9 417.09,-84.28 437.43,-77.21"/>
<polygon fill="#63b8ff" stroke="#63b8ff" points="438.71,-80.47 447.12,-74.02 436.53,-73.82 438.71,-80.47"/>
</a>
</g>
</g>
<!-- Node9&#45;&gt;Node2 -->
<g id="edge16_Node000009_Node000002" class="edge">
<title>Node9&#45;&gt;Node2</title>
<g id="a_edge16_Node000009_Node000002"><a xlink:title=" ">
<path fill="none" stroke="#63b8ff" d="M154.03,-164.99C129.47,-153.62 93.68,-132.3 109.7,-110 131.37,-79.82 174.57,-69.84 205.65,-66.68"/>
<polygon fill="#63b8ff" stroke="#63b8ff" points="206,-70.16 215.68,-65.85 205.43,-63.19 206,-70.16"/>
</a>
</g>
</g>
<!-- Node9&#45;&gt;Node3 -->
<g id="edge17_Node000009_Node000003" class="edge">
<title>Node9&#45;&gt;Node3</title>
<g id="a_edge17_Node000009_Node000003"><a xlink:title=" ">
<path fill="none" stroke="#63b8ff" d="M152.68,-164.98C130.25,-156.3 95.21,-142.75 69.71,-132.88"/>
<polygon fill="#63b8ff" stroke="#63b8ff" points="70.7,-129.51 60.11,-129.17 68.17,-136.04 70.7,-129.51"/>
</a>
</g>
</g>
<!-- Node9&#45;&gt;Node4 -->
<g id="edge18_Node000009_Node000004" class="edge">
<title>Node9&#45;&gt;Node4</title>
<g id="a_edge18_Node000009_Node000004"><a xlink:title=" ">
<path fill="none" stroke="#63b8ff" d="M213.9,-164.98C257.73,-155.46 328.57,-140.08 374.38,-130.13"/>
<polygon fill="#63b8ff" stroke="#63b8ff" points="375.29,-133.51 384.32,-127.97 373.81,-126.67 375.29,-133.51"/>
</a>
</g>
</g>
<!-- Node9&#45;&gt;Node5 -->
<g id="edge20_Node000009_Node000005" class="edge">
<title>Node9&#45;&gt;Node5</title>
<g id="a_edge20_Node000009_Node000005"><a xlink:title=" ">
<path fill="none" stroke="#63b8ff" d="M193.65,-164.98C212.72,-156.42 242.36,-143.11 264.24,-133.28"/>
<polygon fill="#63b8ff" stroke="#63b8ff" points="265.7,-136.46 273.39,-129.17 262.84,-130.07 265.7,-136.46"/>
</a>
</g>
</g>
<!-- Node9&#45;&gt;Node6 -->
<g id="edge21_Node000009_Node000006" class="edge">
<title>Node9&#45;&gt;Node6</title>
<g id="a_edge21_Node000009_Node000006"><a xlink:title=" ">
<path fill="none" stroke="#63b8ff" d="M181.78,-164.92C193.79,-150.99 219.59,-123.65 247.7,-110 307,-81.18 383.27,-71 432.08,-67.42"/>
<polygon fill="#63b8ff" stroke="#63b8ff" points="432.32,-70.92 442.06,-66.76 431.85,-63.93 432.32,-70.92"/>
</a>
</g>
</g>
<!-- Node10 -->
<g id="Node000010" class="node">
<title>Node10</title>
<g id="a_Node000010"><a xlink:title=" ">
<polygon fill="#e0e0e0" stroke="#999999" points="162.7,-129 118.7,-129 118.7,-110 162.7,-110 162.7,-129"/>
<text text-anchor="middle" x="140.7" y="-117" font-family="Helvetica,sans-Serif" font-size="10.00">time.h</text>
</a>
</g>
</g>
<!-- Node9&#45;&gt;Node10 -->
<g id="edge19_Node000009_Node000010" class="edge">
<title>Node9&#45;&gt;Node10</title>
<g id="a_edge19_Node000009_Node000010"><a xlink:title=" ">
<path fill="none" stroke="#63b8ff" d="M169.08,-164.75C164.38,-157.42 157.52,-146.73 151.73,-137.7"/>
<polygon fill="#63b8ff" stroke="#63b8ff" points="154.55,-135.62 146.21,-129.09 148.66,-139.4 154.55,-135.62"/>
</a>
</g>
</g>
<!-- Node11&#45;&gt;Node6 -->
<g id="edge23_Node000011_Node000006" class="edge">
<title>Node11&#45;&gt;Node6</title>
<g id="a_edge23_Node000011_Node000006"><a xlink:title=" ">
<path fill="none" stroke="#63b8ff" d="M588.57,-219.74C570.47,-193.87 517.05,-117.48 492.85,-82.88"/>
<polygon fill="#63b8ff" stroke="#63b8ff" points="495.45,-80.5 486.86,-74.31 489.72,-84.51 495.45,-80.5"/>
</a>
</g>
</g>
<!-- Node12 -->
<g id="Node000012" class="node">
<title>Node12</title>
<g id="a_Node000012"><a xlink:href="SocketConfig_8h.html" target="_top" xlink:title=" ">
<polygon fill="white" stroke="#666666" points="1258.7,-129 1152.7,-129 1152.7,-110 1258.7,-110 1258.7,-129"/>
<text text-anchor="middle" x="1205.7" y="-117" font-family="Helvetica,sans-Serif" font-size="10.00">core/SocketConfig.h</text>
</a>
</g>
</g>
<!-- Node11&#45;&gt;Node12 -->
<g id="edge24_Node000011_Node000012" class="edge">
<title>Node11&#45;&gt;Node12</title>
<g id="a_edge24_Node000011_Node000012"><a xlink:title=" ">
<path fill="none" stroke="#63b8ff" d="M638.84,-223.38C700.4,-215.99 815.42,-201.32 912.7,-184 1000.92,-168.29 1102.99,-144.99 1160.39,-131.42"/>
<polygon fill="#63b8ff" stroke="#63b8ff" points="1161.31,-134.79 1170.23,-129.08 1159.7,-127.98 1161.31,-134.79"/>
</a>
</g>
</g>
<!-- Node21 -->
<g id="Node000021" class="node">
<title>Node21</title>
<g id="a_Node000021"><a xlink:href="SocketDNS_8h.html" target="_top" xlink:title=" ">
<polygon fill="white" stroke="#666666" points="642.7,-129 546.7,-129 546.7,-110 642.7,-110 642.7,-129"/>
<text text-anchor="middle" x="594.7" y="-117" font-family="Helvetica,sans-Serif" font-size="10.00">dns/SocketDNS.h</text>
</a>
</g>
</g>
<!-- Node11&#45;&gt;Node21 -->
<g id="edge34_Node000011_Node000021" class="edge">
<title>Node11&#45;&gt;Node21</title>
<g id="a_edge34_Node000011_Node000021"><a xlink:title=" ">
<path fill="none" stroke="#63b8ff" d="M594.7,-219.66C594.7,-202.17 594.7,-162.8 594.7,-139.27"/>
<polygon fill="#63b8ff" stroke="#63b8ff" points="598.2,-139.16 594.7,-129.16 591.2,-139.16 598.2,-139.16"/>
</a>
</g>
</g>
<!-- Node23 -->
<g id="Node000023" class="node">
<title>Node23</title>
<g id="a_Node000023"><a xlink:href="SocketCommon_8h.html" target="_top" xlink:title=" ">
<polygon fill="white" stroke="#666666" points="903.7,-184 775.7,-184 775.7,-165 903.7,-165 903.7,-184"/>
<text text-anchor="middle" x="839.7" y="-172" font-family="Helvetica,sans-Serif" font-size="10.00">socket/SocketCommon.h</text>
</a>
</g>
</g>
<!-- Node11&#45;&gt;Node23 -->
<g id="edge39_Node000011_Node000023" class="edge">
<title>Node11&#45;&gt;Node23</title>
<g id="a_edge39_Node000011_Node000023"><a xlink:title=" ">
<path fill="none" stroke="#63b8ff" d="M634.06,-219.98C676.44,-210.82 743.95,-196.21 789.97,-186.26"/>
<polygon fill="#63b8ff" stroke="#63b8ff" points="790.99,-189.62 800.02,-184.08 789.51,-182.78 790.99,-189.62"/>
</a>
</g>
</g>
<!-- Node12&#45;&gt;Node2 -->
<g id="edge29_Node000012_Node000002" class="edge">
<title>Node12&#45;&gt;Node2</title>
<g id="a_edge29_Node000012_Node000002"><a xlink:title=" ">
<path fill="none" stroke="#63b8ff" d="M1152.49,-115.57C978.06,-105.98 426.16,-75.64 278.39,-67.52"/>
<polygon fill="#63b8ff" stroke="#63b8ff" points="278.25,-64 268.07,-66.95 277.86,-70.99 278.25,-64"/>
</a>
</g>
</g>
<!-- Node13 -->
<g id="Node000013" class="node">
<title>Node13</title>
<g id="a_Node000013"><a xlink:title=" ">
<polygon fill="#e0e0e0" stroke="#999999" points="1225.2,-74 1178.2,-74 1178.2,-55 1225.2,-55 1225.2,-74"/>
<text text-anchor="middle" x="1201.7" y="-62" font-family="Helvetica,sans-Serif" font-size="10.00">errno.h</text>
</a>
</g>
</g>
<!-- Node12&#45;&gt;Node13 -->
<g id="edge25_Node000012_Node000013" class="edge">
<title>Node12&#45;&gt;Node13</title>
<g id="a_edge25_Node000012_Node000013"><a xlink:title=" ">
<path fill="none" stroke="#63b8ff" d="M1205.04,-109.75C1204.51,-102.8 1203.76,-92.85 1203.1,-84.13"/>
<polygon fill="#63b8ff" stroke="#63b8ff" points="1206.59,-83.8 1202.34,-74.09 1199.61,-84.32 1206.59,-83.8"/>
</a>
</g>
</g>
<!-- Node14 -->
<g id="Node000014" class="node">
<title>Node14</title>
<g id="a_Node000014"><a xlink:title=" ">
<polygon fill="#e0e0e0" stroke="#999999" points="1076.7,-74 1032.7,-74 1032.7,-55 1076.7,-55 1076.7,-74"/>
<text text-anchor="middle" x="1054.7" y="-62" font-family="Helvetica,sans-Serif" font-size="10.00">fcntl.h</text>
</a>
</g>
</g>
<!-- Node12&#45;&gt;Node14 -->
<g id="edge26_Node000012_Node000014" class="edge">
<title>Node12&#45;&gt;Node14</title>
<g id="a_edge26_Node000012_Node000014"><a xlink:title=" ">
<path fill="none" stroke="#63b8ff" d="M1181.44,-109.98C1155.63,-100.93 1114.71,-86.56 1086.38,-76.62"/>
<polygon fill="#63b8ff" stroke="#63b8ff" points="1087.52,-73.31 1076.93,-73.3 1085.2,-79.92 1087.52,-73.31"/>
</a>
</g>
</g>
<!-- Node15 -->
<g id="Node000015" class="node">
<title>Node15</title>
<g id="a_Node000015"><a xlink:title=" ">
<polygon fill="#e0e0e0" stroke="#999999" points="1160.2,-74 1095.2,-74 1095.2,-55 1160.2,-55 1160.2,-74"/>
<text text-anchor="middle" x="1127.7" y="-62" font-family="Helvetica,sans-Serif" font-size="10.00">netinet/in.h</text>
</a>
</g>
</g>
<!-- Node12&#45;&gt;Node15 -->
<g id="edge27_Node000012_Node000015" class="edge">
<title>Node12&#45;&gt;Node15</title>
<g id="a_edge27_Node000012_Node000015"><a xlink:title=" ">
<path fill="none" stroke="#63b8ff" d="M1193.16,-109.98C1181.29,-101.92 1163.23,-89.65 1149.08,-80.03"/>
<polygon fill="#63b8ff" stroke="#63b8ff" points="1150.69,-76.9 1140.46,-74.17 1146.76,-82.69 1150.69,-76.9"/>
</a>
</g>
</g>
<!-- Node16 -->
<g id="Node000016" class="node">
<title>Node16</title>
<g id="a_Node000016"><a xlink:title=" ">
<polygon fill="#e0e0e0" stroke="#999999" points="1458.2,-74 1387.2,-74 1387.2,-55 1458.2,-55 1458.2,-74"/>
<text text-anchor="middle" x="1422.7" y="-62" font-family="Helvetica,sans-Serif" font-size="10.00">netinet/tcp.h</text>
</a>
</g>
</g>
<!-- Node12&#45;&gt;Node16 -->
<g id="edge28_Node000012_Node000016" class="edge">
<title>Node12&#45;&gt;Node16</title>
<g id="a_edge28_Node000012_Node000016"><a xlink:title=" ">
<path fill="none" stroke="#63b8ff" d="M1240.56,-109.98C1277.78,-100.89 1336.89,-86.46 1377.62,-76.51"/>
<polygon fill="#63b8ff" stroke="#63b8ff" points="1378.67,-79.85 1387.56,-74.08 1377.01,-73.05 1378.67,-79.85"/>
</a>
</g>
</g>
<!-- Node17 -->
<g id="Node000017" class="node">
<title>Node17</title>
<g id="a_Node000017"><a xlink:title=" ">
<polygon fill="#e0e0e0" stroke="#999999" points="1522.7,-74 1476.7,-74 1476.7,-55 1522.7,-55 1522.7,-74"/>
<text text-anchor="middle" x="1499.7" y="-62" font-family="Helvetica,sans-Serif" font-size="10.00">stdio.h</text>
</a>
</g>
</g>
<!-- Node12&#45;&gt;Node17 -->
<g id="edge30_Node000012_Node000017" class="edge">
<title>Node12&#45;&gt;Node17</title>
<g id="a_edge30_Node000012_Node000017"><a xlink:title=" ">
<path fill="none" stroke="#63b8ff" d="M1258.91,-110.92C1309.86,-103.34 1389.07,-90.69 1466.73,-74.04"/>
<polygon fill="#63b8ff" stroke="#63b8ff" points="1467.65,-77.42 1476.69,-71.88 1466.17,-70.58 1467.65,-77.42"/>
</a>
</g>
</g>
<!-- Node18 -->
<g id="Node000018" class="node">
<title>Node18</title>
<g id="a_Node000018"><a xlink:title=" ">
<polygon fill="#e0e0e0" stroke="#999999" points="1014.2,-74 941.2,-74 941.2,-55 1014.2,-55 1014.2,-74"/>
<text text-anchor="middle" x="977.7" y="-62" font-family="Helvetica,sans-Serif" font-size="10.00">sys/socket.h</text>
</a>
</g>
</g>
<!-- Node12&#45;&gt;Node18 -->
<g id="edge31_Node000012_Node000018" class="edge">
<title>Node12&#45;&gt;Node18</title>
<g id="a_edge31_Node000012_Node000018"><a xlink:title=" ">
<path fill="none" stroke="#63b8ff" d="M1169.06,-109.98C1129.67,-100.83 1066.95,-86.25 1024.13,-76.29"/>
<polygon fill="#63b8ff" stroke="#63b8ff" points="1024.77,-72.85 1014.24,-73.99 1023.19,-79.67 1024.77,-72.85"/>
</a>
</g>
</g>
<!-- Node19 -->
<g id="Node000019" class="node">
<title>Node19</title>
<g id="a_Node000019"><a xlink:title=" ">
<polygon fill="#e0e0e0" stroke="#999999" points="1299.7,-74 1243.7,-74 1243.7,-55 1299.7,-55 1299.7,-74"/>
<text text-anchor="middle" x="1271.7" y="-62" font-family="Helvetica,sans-Serif" font-size="10.00">sys/uio.h</text>
</a>
</g>
</g>
<!-- Node12&#45;&gt;Node19 -->
<g id="edge32_Node000012_Node000019" class="edge">
<title>Node12&#45;&gt;Node19</title>
<g id="a_edge32_Node000012_Node000019"><a xlink:title=" ">
<path fill="none" stroke="#63b8ff" d="M1216.3,-109.98C1226.15,-102.07 1241.05,-90.11 1252.91,-80.58"/>
<polygon fill="#63b8ff" stroke="#63b8ff" points="1255.29,-83.16 1260.9,-74.17 1250.91,-77.7 1255.29,-83.16"/>
</a>
</g>
</g>
<!-- Node20 -->
<g id="Node000020" class="node">
<title>Node20</title>
<g id="a_Node000020"><a xlink:title=" ">
<polygon fill="#e0e0e0" stroke="#999999" points="1369.2,-74 1318.2,-74 1318.2,-55 1369.2,-55 1369.2,-74"/>
<text text-anchor="middle" x="1343.7" y="-62" font-family="Helvetica,sans-Serif" font-size="10.00">unistd.h</text>
</a>
</g>
</g>
<!-- Node12&#45;&gt;Node20 -->
<g id="edge33_Node000012_Node000020" class="edge">
<title>Node12&#45;&gt;Node20</title>
<g id="a_edge33_Node000012_Node000020"><a xlink:title=" ">
<path fill="none" stroke="#63b8ff" d="M1227.87,-109.98C1250.47,-101.3 1285.76,-87.75 1311.45,-77.88"/>
<polygon fill="#63b8ff" stroke="#63b8ff" points="1313.04,-81.02 1321.12,-74.17 1310.53,-74.49 1313.04,-81.02"/>
</a>
</g>
</g>
<!-- Node21&#45;&gt;Node2 -->
<g id="edge37_Node000021_Node000002" class="edge">
<title>Node21&#45;&gt;Node2</title>
<g id="a_edge37_Node000021_Node000002"><a xlink:title=" ">
<path fill="none" stroke="#63b8ff" d="M546.35,-111.24C474.63,-100.47 341.64,-80.51 277.77,-70.92"/>
<polygon fill="#63b8ff" stroke="#63b8ff" points="278.18,-67.44 267.77,-69.41 277.14,-74.36 278.18,-67.44"/>
</a>
</g>
</g>
<!-- Node21&#45;&gt;Node6 -->
<g id="edge35_Node000021_Node000006" class="edge">
<title>Node21&#45;&gt;Node6</title>
<g id="a_edge35_Node000021_Node000006"><a xlink:title=" ">
<path fill="none" stroke="#63b8ff" d="M576.38,-109.98C558.04,-101.46 529.59,-88.23 508.47,-78.41"/>
<polygon fill="#63b8ff" stroke="#63b8ff" points="509.89,-75.21 499.35,-74.17 506.94,-81.56 509.89,-75.21"/>
</a>
</g>
</g>
<!-- Node21&#45;&gt;Node18 -->
<g id="edge38_Node000021_Node000018" class="edge">
<title>Node21&#45;&gt;Node18</title>
<g id="a_edge38_Node000021_Node000018"><a xlink:title=" ">
<path fill="none" stroke="#63b8ff" d="M642.82,-111.84C716.83,-101.6 857.7,-82.11 930.9,-71.98"/>
<polygon fill="#63b8ff" stroke="#63b8ff" points="931.77,-75.39 941.19,-70.55 930.81,-68.45 931.77,-75.39"/>
</a>
</g>
</g>
<!-- Node22 -->
<g id="Node000022" class="node">
<title>Node22</title>
<g id="a_Node000022"><a xlink:title=" ">
<polygon fill="#e0e0e0" stroke="#999999" points="676.2,-74 627.2,-74 627.2,-55 676.2,-55 676.2,-74"/>
<text text-anchor="middle" x="651.7" y="-62" font-family="Helvetica,sans-Serif" font-size="10.00">netdb.h</text>
</a>
</g>
</g>
<!-- Node21&#45;&gt;Node22 -->
<g id="edge36_Node000021_Node000022" class="edge">
<title>Node21&#45;&gt;Node22</title>
<g id="a_edge36_Node000021_Node000022"><a xlink:title=" ">
<path fill="none" stroke="#63b8ff" d="M603.85,-109.98C612.2,-102.23 624.73,-90.58 634.87,-81.14"/>
<polygon fill="#63b8ff" stroke="#63b8ff" points="637.43,-83.54 642.37,-74.17 632.66,-78.42 637.43,-83.54"/>
</a>
</g>
</g>
<!-- Node23&#45;&gt;Node4 -->
<g id="edge47_Node000023_Node000004" class="edge">
<title>Node23&#45;&gt;Node4</title>
<g id="a_edge47_Node000023_Node000004"><a xlink:title=" ">
<path fill="none" stroke="#63b8ff" d="M775.3,-165.39C688.84,-154.51 537.5,-135.46 462.87,-126.06"/>
<polygon fill="#63b8ff" stroke="#63b8ff" points="463.22,-122.58 452.86,-124.8 462.35,-129.52 463.22,-122.58"/>
</a>
</g>
</g>
<!-- Node23&#45;&gt;Node5 -->
<g id="edge49_Node000023_Node000005" class="edge">
<title>Node23&#45;&gt;Node5</title>
<g id="a_edge49_Node000023_Node000005"><a xlink:title=" ">
<path fill="none" stroke="#63b8ff" d="M775.51,-167.48C685.95,-159.04 518.44,-143.15 375.7,-129 363.88,-127.83 351.12,-126.54 339.23,-125.32"/>
<polygon fill="#63b8ff" stroke="#63b8ff" points="339.36,-121.81 329.05,-124.27 338.64,-128.78 339.36,-121.81"/>
</a>
</g>
</g>
<!-- Node23&#45;&gt;Node6 -->
<g id="edge50_Node000023_Node000006" class="edge">
<title>Node23&#45;&gt;Node6</title>
<g id="a_edge50_Node000023_Node000006"><a xlink:title=" ">
<path fill="none" stroke="#63b8ff" d="M809.28,-164.97C780.13,-156.58 735.03,-143.02 696.7,-129 676.31,-121.54 672.25,-116.97 651.7,-110 610.98,-96.19 563.59,-84.16 529.03,-76.1"/>
<polygon fill="#63b8ff" stroke="#63b8ff" points="529.73,-72.67 519.2,-73.84 528.16,-79.49 529.73,-72.67"/>
</a>
</g>
</g>
<!-- Node23&#45;&gt;Node12 -->
<g id="edge51_Node000023_Node000012" class="edge">
<title>Node23&#45;&gt;Node12</title>
<g id="a_edge51_Node000023_Node000012"><a xlink:title=" ">
<path fill="none" stroke="#63b8ff" d="M898.5,-164.98C965.29,-155.31 1073.87,-139.59 1142.45,-129.66"/>
<polygon fill="#63b8ff" stroke="#63b8ff" points="1143.29,-133.07 1152.69,-128.18 1142.29,-126.15 1143.29,-133.07"/>
</a>
</g>
</g>
<!-- Node23&#45;&gt;Node14 -->
<g id="edge42_Node000023_Node000014" class="edge">
<title>Node23&#45;&gt;Node14</title>
<g id="a_edge42_Node000023_Node000014"><a xlink:title=" ">
<path fill="none" stroke="#63b8ff" d="M903.9,-167.61C957,-161.35 1026.66,-149.46 1045.7,-129 1056.71,-117.17 1058.12,-98.33 1057.29,-84.24"/>
<polygon fill="#63b8ff" stroke="#63b8ff" points="1060.76,-83.78 1056.27,-74.18 1053.79,-84.49 1060.76,-83.78"/>
</a>
</g>
</g>
<!-- Node23&#45;&gt;Node15 -->
<g id="edge44_Node000023_Node000015" class="edge">
<title>Node23&#45;&gt;Node15</title>
<g id="a_edge44_Node000023_Node000015"><a xlink:title=" ">
<path fill="none" stroke="#63b8ff" d="M903.82,-170.61C950.5,-166.24 1013.99,-155.44 1063.7,-129 1084.98,-117.68 1103.82,-96.99 1115.45,-82.31"/>
<polygon fill="#63b8ff" stroke="#63b8ff" points="1118.45,-84.16 1121.72,-74.08 1112.88,-79.91 1118.45,-84.16"/>
</a>
</g>
</g>
<!-- Node23&#45;&gt;Node18 -->
<g id="edge45_Node000023_Node000018" class="edge">
<title>Node23&#45;&gt;Node18</title>
<g id="a_edge45_Node000023_Node000018"><a xlink:title=" ">
<path fill="none" stroke="#63b8ff" d="M903.8,-166.98C952.64,-160.53 1014.07,-148.71 1029.7,-129 1043.36,-111.77 1021.64,-92.23 1002.24,-79.43"/>
<polygon fill="#63b8ff" stroke="#63b8ff" points="1003.96,-76.38 993.63,-74.06 1000.26,-82.32 1003.96,-76.38"/>
</a>
</g>
</g>
<!-- Node23&#45;&gt;Node22 -->
<g id="edge43_Node000023_Node000022" class="edge">
<title>Node23&#45;&gt;Node22</title>
<g id="a_edge43_Node000023_Node000022"><a xlink:title=" ">
<path fill="none" stroke="#63b8ff" d="M810.92,-164.88C787.58,-157.24 754.3,-144.84 727.7,-129 705.01,-115.49 682.19,-95.34 667.57,-81.38"/>
<polygon fill="#63b8ff" stroke="#63b8ff" points="669.94,-78.8 660.34,-74.34 665.06,-83.82 669.94,-78.8"/>
</a>
</g>
</g>
<!-- Node24 -->
<g id="Node000024" class="node">
<title>Node24</title>
<g id="a_Node000024"><a xlink:title=" ">
<polygon fill="#e0e0e0" stroke="#999999" points="792.7,-129 736.7,-129 736.7,-110 792.7,-110 792.7,-129"/>
<text text-anchor="middle" x="764.7" y="-117" font-family="Helvetica,sans-Serif" font-size="10.00">stdbool.h</text>
</a>
</g>
</g>
<!-- Node23&#45;&gt;Node24 -->
<g id="edge40_Node000023_Node000024" class="edge">
<title>Node23&#45;&gt;Node24</title>
<g id="a_edge40_Node000023_Node000024"><a xlink:title=" ">
<path fill="none" stroke="#63b8ff" d="M827.65,-164.98C816.23,-156.92 798.87,-144.65 785.26,-135.03"/>
<polygon fill="#63b8ff" stroke="#63b8ff" points="787.15,-132.08 776.97,-129.17 783.11,-137.8 787.15,-132.08"/>
</a>
</g>
</g>
<!-- Node25 -->
<g id="Node000025" class="node">
<title>Node25</title>
<g id="a_Node000025"><a xlink:title=" ">
<polygon fill="#e0e0e0" stroke="#999999" points="868.2,-129 811.2,-129 811.2,-110 868.2,-110 868.2,-129"/>
<text text-anchor="middle" x="839.7" y="-117" font-family="Helvetica,sans-Serif" font-size="10.00">pthread.h</text>
</a>
</g>
</g>
<!-- Node23&#45;&gt;Node25 -->
<g id="edge41_Node000023_Node000025" class="edge">
<title>Node23&#45;&gt;Node25</title>
<g id="a_edge41_Node000023_Node000025"><a xlink:title=" ">
<path fill="none" stroke="#63b8ff" d="M839.7,-164.75C839.7,-157.8 839.7,-147.85 839.7,-139.13"/>
<polygon fill="#63b8ff" stroke="#63b8ff" points="843.2,-139.09 839.7,-129.09 836.2,-139.09 843.2,-139.09"/>
</a>
</g>
</g>
<!-- Node26 -->
<g id="Node000026" class="node">
<title>Node26</title>
<g id="a_Node000026"><a xlink:title=" ">
<polygon fill="#e0e0e0" stroke="#999999" points="948.7,-129 886.7,-129 886.7,-110 948.7,-110 948.7,-129"/>
<text text-anchor="middle" x="917.7" y="-117" font-family="Helvetica,sans-Serif" font-size="10.00">sys/time.h</text>
</a>
</g>
</g>
<!-- Node23&#45;&gt;Node26 -->
<g id="edge46_Node000023_Node000026" class="edge">
<title>Node23&#45;&gt;Node26</title>
<g id="a_edge46_Node000023_Node000026"><a xlink:title=" ">
<path fill="none" stroke="#63b8ff" d="M852.23,-164.98C864.1,-156.92 882.16,-144.65 896.31,-135.03"/>
<polygon fill="#63b8ff" stroke="#63b8ff" points="898.63,-137.69 904.94,-129.17 894.7,-131.9 898.63,-137.69"/>
</a>
</g>
</g>
<!-- Node27 -->
<g id="Node000027" class="node">
<title>Node27</title>
<g id="a_Node000027"><a xlink:title=" ">
<polygon fill="#e0e0e0" stroke="#999999" points="1020.7,-129 966.7,-129 966.7,-110 1020.7,-110 1020.7,-129"/>
<text text-anchor="middle" x="993.7" y="-117" font-family="Helvetica,sans-Serif" font-size="10.00">sys/un.h</text>
</a>
</g>
</g>
<!-- Node23&#45;&gt;Node27 -->
<g id="edge48_Node000023_Node000027" class="edge">
<title>Node23&#45;&gt;Node27</title>
<g id="a_edge48_Node000023_Node000027"><a xlink:title=" ">
<path fill="none" stroke="#63b8ff" d="M864.44,-164.98C890.07,-156.16 930.33,-142.31 959.1,-132.41"/>
<polygon fill="#63b8ff" stroke="#63b8ff" points="960.44,-135.65 968.76,-129.08 958.16,-129.03 960.44,-135.65"/>
</a>
</g>
</g>
</g>
</svg>

<g id="navigator" transform="translate(0 0)" fill="#404254">
  <rect fill="#f2f5e9" fill-opacity="0.5" stroke="#606060" stroke-width=".5" x="0" y="0" width="60" height="60"/>
  <use id="zoomplus" xlink:href="#zoomPlus" x="17" y="9" onmousedown="handleZoom(evt,'in')"/>
  <use id="zoomminus" xlink:href="#zoomMin" x="42" y="9" onmousedown="handleZoom(evt,'out')"/>
  <use id="reset" xlink:href="#resetDef" x="30" y="36" onmousedown="handleReset()"/>
   <use id="arrowup" xlink:href="#arrowUp" x="0" y="0" onmousedown="handlePan(0,-1)"/>
  <use id="arrowright" xlink:href="#arrowRight" x="0" y="0" onmousedown="handlePan(1,0)"/>
  <use id="arrowdown" xlink:href="#arrowDown" x="0" y="0" onmousedown="handlePan(0,1)"/>
  <use id="arrowleft" xlink:href="#arrowLeft" x="0" y="0" onmousedown="handlePan(-1,0)"/>
</g>
<svg viewBox="0 0 15 15" width="100%" height="30px" preserveAspectRatio="xMaxYMin meet">
 <g id="arrow_out" transform="scale(0.3 0.3)">
  <a xlink:href="SocketHTTP2_8h__incl_org.svg" target="_base">
   <rect id="button" ry="5" rx="5" y="6" x="6" height="38" width="38"
        fill="#f2f5e9" fill-opacity="0.5" stroke="#606060" stroke-width="1.0"/>
   <path id="arrow"
     d="M 11.500037,31.436501 C 11.940474,20.09759 22.043105,11.32322 32.158766,21.979434 L 37.068811,17.246167 C 37.068811,17.246167 37.088388,32 37.088388,32 L 22.160133,31.978069 C 22.160133,31.978069 26.997745,27.140456 26.997745,27.140456 C 18.528582,18.264221 13.291696,25.230495 11.500037,31.436501 z"
     style="fill:#404040;"/>
  </a>
 </g>
</svg>

<style type='text/css'>
<![CDATA[
[data-mouse-over-selected='false'] { opacity: 0.7; }
[data-mouse-over-selected='true']  { opacity: 1.0; }
]]>
</style>
<script type="application/ecmascript"><![CDATA[
document.addEventListener('DOMContentLoaded', (event) => {
  highlightEdges();
  highlightAdjacentNodes();
});
]]></script>
</svg>
