<?xml version="1.0" encoding="UTF-8" standalone="no"?>
<!DOCTYPE svg PUBLIC "-//W3C//DTD SVG 1.1//EN"
 "http://www.w3.org/Graphics/SVG/1.1/DTD/svg11.dtd">
<!-- Generated by graphviz version 2.43.0 (0)
 -->
<!-- Title: SocketHTTP2&#45;private.h Pages: 1 -->
<svg width="1734pt" height="357pt"
 viewBox="0.00 0.00 1734.00 357.00" xmlns="http://www.w3.org/2000/svg" xmlns:xlink="http://www.w3.org/1999/xlink">
<g id="graph0" class="graph" transform="scale(1 1) rotate(0) translate(4 353)">
<title>SocketHTTP2&#45;private.h</title>
<!-- Node1 -->
<g id="Node000001" class="node">
<title>Node1</title>
<g id="a_Node000001"><a xlink:title="Internal HTTP/2 connection and stream structures.">
<polygon fill="#999999" stroke="#666666" points="394.5,-349 275.5,-349 275.5,-330 394.5,-330 394.5,-349"/>
<text text-anchor="middle" x="335" y="-337" font-family="Helvetica,sans-Serif" font-size="10.00">SocketHTTP2&#45;private.h</text>
</a>
</g>
</g>
<!-- Node2 -->
<g id="Node000002" class="node">
<title>Node2</title>
<g id="a_Node000002"><a xlink:href="Except_8h.html" target="_top" xlink:title="Structured exception handling for C with TRY/EXCEPT/FINALLY blocks.">
<polygon fill="white" stroke="#666666" points="377.5,-74 300.5,-74 300.5,-55 377.5,-55 377.5,-74"/>
<text text-anchor="middle" x="339" y="-62" font-family="Helvetica,sans-Serif" font-size="10.00">core/Except.h</text>
</a>
</g>
</g>
<!-- Node1&#45;&gt;Node2 -->
<g id="edge1_Node000001_Node000002" class="edge">
<title>Node1&#45;&gt;Node2</title>
<g id="a_edge1_Node000001_Node000002"><a xlink:title=" ">
<path fill="none" stroke="#63b8ff" d="M275.49,-331.69C179.23,-319.01 0,-287.71 0,-230.5 0,-230.5 0,-230.5 0,-173.5 0,-125.99 42.33,-128.72 86,-110 153.06,-81.25 237.73,-71.07 290.12,-67.47"/>
<polygon fill="#63b8ff" stroke="#63b8ff" points="290.39,-70.96 300.15,-66.83 289.95,-63.97 290.39,-70.96"/>
</a>
</g>
</g>
<!-- Node4 -->
<g id="Node000004" class="node">
<title>Node4</title>
<g id="a_Node000004"><a xlink:href="SocketRateLimit_8h.html" target="_top" xlink:title="Token bucket rate limiter for controlling operation rates.">
<polygon fill="white" stroke="#666666" points="223.5,-184 104.5,-184 104.5,-165 223.5,-165 223.5,-184"/>
<text text-anchor="middle" x="164" y="-172" font-family="Helvetica,sans-Serif" font-size="10.00">core/SocketRateLimit.h</text>
</a>
</g>
</g>
<!-- Node1&#45;&gt;Node4 -->
<g id="edge3_Node000001_Node000004" class="edge">
<title>Node1&#45;&gt;Node4</title>
<g id="a_edge3_Node000001_Node000004"><a xlink:title=" ">
<path fill="none" stroke="#63b8ff" d="M325.81,-329.74C298.32,-303.53 216.47,-225.51 180.86,-191.57"/>
<polygon fill="#63b8ff" stroke="#63b8ff" points="182.89,-188.67 173.24,-184.31 178.06,-193.74 182.89,-188.67"/>
</a>
</g>
</g>
<!-- Node8 -->
<g id="Node000008" class="node">
<title>Node8</title>
<g id="a_Node000008"><a xlink:href="SocketHPACK_8h.html" target="_top" xlink:title="HPACK header compression/decompression module for HTTP/2 (RFC 7541).">
<polygon fill="white" stroke="#666666" points="389.5,-184 280.5,-184 280.5,-165 389.5,-165 389.5,-184"/>
<text text-anchor="middle" x="335" y="-172" font-family="Helvetica,sans-Serif" font-size="10.00">http/SocketHPACK.h</text>
</a>
</g>
</g>
<!-- Node1&#45;&gt;Node8 -->
<g id="edge10_Node000001_Node000008" class="edge">
<title>Node1&#45;&gt;Node8</title>
<g id="a_edge10_Node000001_Node000008"><a xlink:title=" ">
<path fill="none" stroke="#63b8ff" d="M335,-329.74C335,-304.31 335,-230.08 335,-194.69"/>
<polygon fill="#63b8ff" stroke="#63b8ff" points="338.5,-194.31 335,-184.31 331.5,-194.31 338.5,-194.31"/>
</a>
</g>
</g>
<!-- Node10 -->
<g id="Node000010" class="node">
<title>Node10</title>
<g id="a_Node000010"><a xlink:href="SocketHTTP2_8h.html" target="_top" xlink:title="HTTP/2 protocol implementation (RFC 9113) with multiplexing and flow control.">
<polygon fill="white" stroke="#666666" points="471.5,-294 364.5,-294 364.5,-275 471.5,-275 471.5,-294"/>
<text text-anchor="middle" x="418" y="-282" font-family="Helvetica,sans-Serif" font-size="10.00">http/SocketHTTP2.h</text>
</a>
</g>
</g>
<!-- Node1&#45;&gt;Node10 -->
<g id="edge16_Node000001_Node000010" class="edge">
<title>Node1&#45;&gt;Node10</title>
<g id="a_edge16_Node000001_Node000010"><a xlink:title=" ">
<path fill="none" stroke="#63b8ff" d="M348.34,-329.98C361.09,-321.84 380.55,-309.41 395.67,-299.76"/>
<polygon fill="#63b8ff" stroke="#63b8ff" points="397.88,-302.5 404.42,-294.17 394.11,-296.6 397.88,-302.5"/>
</a>
</g>
</g>
<!-- Node30 -->
<g id="Node000030" class="node">
<title>Node30</title>
<g id="a_Node000030"><a xlink:href="SocketBuf_8h.html" target="_top" xlink:title="Circular buffer for efficient socket I/O operations.">
<polygon fill="white" stroke="#666666" points="834.5,-184 731.5,-184 731.5,-165 834.5,-165 834.5,-184"/>
<text text-anchor="middle" x="783" y="-172" font-family="Helvetica,sans-Serif" font-size="10.00">socket/SocketBuf.h</text>
</a>
</g>
</g>
<!-- Node1&#45;&gt;Node30 -->
<g id="edge60_Node000001_Node000030" class="edge">
<title>Node1&#45;&gt;Node30</title>
<g id="a_edge60_Node000001_Node000030"><a xlink:title=" ">
<path fill="none" stroke="#63b8ff" d="M394.77,-332.43C473.07,-322.43 612.66,-297.43 717,-239 738.14,-227.16 757.5,-206.92 769.7,-192.47"/>
<polygon fill="#63b8ff" stroke="#63b8ff" points="772.72,-194.31 776.33,-184.35 767.3,-189.88 772.72,-194.31"/>
</a>
</g>
</g>
<!-- Node3 -->
<g id="Node000003" class="node">
<title>Node3</title>
<g id="a_Node000003"><a xlink:title=" ">
<polygon fill="#e0e0e0" stroke="#999999" points="366,-19 312,-19 312,0 366,0 366,-19"/>
<text text-anchor="middle" x="339" y="-7" font-family="Helvetica,sans-Serif" font-size="10.00">setjmp.h</text>
</a>
</g>
</g>
<!-- Node2&#45;&gt;Node3 -->
<g id="edge2_Node000002_Node000003" class="edge">
<title>Node2&#45;&gt;Node3</title>
<g id="a_edge2_Node000002_Node000003"><a xlink:title=" ">
<path fill="none" stroke="#63b8ff" d="M339,-54.75C339,-47.8 339,-37.85 339,-29.13"/>
<polygon fill="#63b8ff" stroke="#63b8ff" points="342.5,-29.09 339,-19.09 335.5,-29.09 342.5,-29.09"/>
</a>
</g>
</g>
<!-- Node4&#45;&gt;Node2 -->
<g id="edge7_Node000004_Node000002" class="edge">
<title>Node4&#45;&gt;Node2</title>
<g id="a_edge7_Node000004_Node000002"><a xlink:title=" ">
<path fill="none" stroke="#63b8ff" d="M155.34,-164.89C143.29,-151.87 124.43,-126.91 138,-110 156.72,-86.68 236.86,-74.83 290.11,-69.42"/>
<polygon fill="#63b8ff" stroke="#63b8ff" points="290.77,-72.88 300.38,-68.43 290.09,-65.91 290.77,-72.88"/>
</a>
</g>
</g>
<!-- Node5 -->
<g id="Node000005" class="node">
<title>Node5</title>
<g id="a_Node000005"><a xlink:href="Arena_8h.html" target="_top" xlink:title="Arena&#45;based memory allocator for efficient bulk memory management.">
<polygon fill="white" stroke="#666666" points="620,-129 548,-129 548,-110 620,-110 620,-129"/>
<text text-anchor="middle" x="584" y="-117" font-family="Helvetica,sans-Serif" font-size="10.00">core/Arena.h</text>
</a>
</g>
</g>
<!-- Node4&#45;&gt;Node5 -->
<g id="edge4_Node000004_Node000005" class="edge">
<title>Node4&#45;&gt;Node5</title>
<g id="a_edge4_Node000004_Node000005"><a xlink:title=" ">
<path fill="none" stroke="#63b8ff" d="M223.73,-165.96C308.3,-155.29 461.16,-136 537.7,-126.34"/>
<polygon fill="#63b8ff" stroke="#63b8ff" points="538.5,-129.77 547.98,-125.04 537.62,-122.82 538.5,-129.77"/>
</a>
</g>
</g>
<!-- Node6 -->
<g id="Node000006" class="node">
<title>Node6</title>
<g id="a_Node000006"><a xlink:title=" ">
<polygon fill="#e0e0e0" stroke="#999999" points="680,-74 628,-74 628,-55 680,-55 680,-74"/>
<text text-anchor="middle" x="654" y="-62" font-family="Helvetica,sans-Serif" font-size="10.00">stddef.h</text>
</a>
</g>
</g>
<!-- Node4&#45;&gt;Node6 -->
<g id="edge8_Node000004_Node000006" class="edge">
<title>Node4&#45;&gt;Node6</title>
<g id="a_edge8_Node000004_Node000006"><a xlink:title=" ">
<path fill="none" stroke="#63b8ff" d="M161.89,-164.65C159.19,-150.85 156.44,-124.3 171,-110 202.69,-78.87 510.27,-68.83 617.42,-66.26"/>
<polygon fill="#63b8ff" stroke="#63b8ff" points="617.81,-69.75 627.73,-66.02 617.65,-62.75 617.81,-69.75"/>
</a>
</g>
</g>
<!-- Node7 -->
<g id="Node000007" class="node">
<title>Node7</title>
<g id="a_Node000007"><a xlink:title=" ">
<polygon fill="#e0e0e0" stroke="#999999" points="229.5,-129 180.5,-129 180.5,-110 229.5,-110 229.5,-129"/>
<text text-anchor="middle" x="205" y="-117" font-family="Helvetica,sans-Serif" font-size="10.00">stdint.h</text>
</a>
</g>
</g>
<!-- Node4&#45;&gt;Node7 -->
<g id="edge9_Node000004_Node000007" class="edge">
<title>Node4&#45;&gt;Node7</title>
<g id="a_edge9_Node000004_Node000007"><a xlink:title=" ">
<path fill="none" stroke="#63b8ff" d="M170.77,-164.75C176.56,-157.26 185.06,-146.28 192.14,-137.13"/>
<polygon fill="#63b8ff" stroke="#63b8ff" points="195.01,-139.14 198.36,-129.09 189.47,-134.86 195.01,-139.14"/>
</a>
</g>
</g>
<!-- Node5&#45;&gt;Node2 -->
<g id="edge6_Node000005_Node000002" class="edge">
<title>Node5&#45;&gt;Node2</title>
<g id="a_edge6_Node000005_Node000002"><a xlink:title=" ">
<path fill="none" stroke="#63b8ff" d="M547.85,-110.68C505.44,-101.51 434.93,-86.25 387.72,-76.04"/>
<polygon fill="#63b8ff" stroke="#63b8ff" points="388.24,-72.57 377.73,-73.88 386.76,-79.41 388.24,-72.57"/>
</a>
</g>
</g>
<!-- Node5&#45;&gt;Node6 -->
<g id="edge5_Node000005_Node000006" class="edge">
<title>Node5&#45;&gt;Node6</title>
<g id="a_edge5_Node000005_Node000006"><a xlink:title=" ">
<path fill="none" stroke="#63b8ff" d="M595.25,-109.98C605.8,-102 621.8,-89.88 634.44,-80.31"/>
<polygon fill="#63b8ff" stroke="#63b8ff" points="636.69,-83 642.55,-74.17 632.46,-77.42 636.69,-83"/>
</a>
</g>
</g>
<!-- Node8&#45;&gt;Node2 -->
<g id="edge15_Node000008_Node000002" class="edge">
<title>Node8&#45;&gt;Node2</title>
<g id="a_edge15_Node000008_Node000002"><a xlink:title=" ">
<path fill="none" stroke="#63b8ff" d="M318.46,-164.84C299.14,-153.48 271.11,-132.33 282,-110 288.3,-97.09 300.35,-86.83 311.76,-79.43"/>
<polygon fill="#63b8ff" stroke="#63b8ff" points="313.86,-82.25 320.65,-74.12 310.27,-76.25 313.86,-82.25"/>
</a>
</g>
</g>
<!-- Node8&#45;&gt;Node5 -->
<g id="edge14_Node000008_Node000005" class="edge">
<title>Node8&#45;&gt;Node5</title>
<g id="a_edge14_Node000008_Node000005"><a xlink:title=" ">
<path fill="none" stroke="#63b8ff" d="M375.01,-164.98C419.45,-155.53 491.09,-140.28 537.86,-130.32"/>
<polygon fill="#63b8ff" stroke="#63b8ff" points="538.68,-133.72 547.74,-128.22 537.23,-126.88 538.68,-133.72"/>
</a>
</g>
</g>
<!-- Node8&#45;&gt;Node6 -->
<g id="edge11_Node000008_Node000006" class="edge">
<title>Node8&#45;&gt;Node6</title>
<g id="a_edge11_Node000008_Node000006"><a xlink:title=" ">
<path fill="none" stroke="#63b8ff" d="M327.48,-164.61C317.09,-151.24 301.13,-125.81 315,-110 334.78,-87.45 534.62,-72.77 617.88,-67.59"/>
<polygon fill="#63b8ff" stroke="#63b8ff" points="618.14,-71.08 627.9,-66.98 617.71,-64.09 618.14,-71.08"/>
</a>
</g>
</g>
<!-- Node8&#45;&gt;Node7 -->
<g id="edge12_Node000008_Node000007" class="edge">
<title>Node8&#45;&gt;Node7</title>
<g id="a_edge12_Node000008_Node000007"><a xlink:title=" ">
<path fill="none" stroke="#63b8ff" d="M314.11,-164.98C292.92,-156.34 259.87,-142.87 235.7,-133.02"/>
<polygon fill="#63b8ff" stroke="#63b8ff" points="236.85,-129.7 226.27,-129.17 234.21,-136.19 236.85,-129.7"/>
</a>
</g>
</g>
<!-- Node9 -->
<g id="Node000009" class="node">
<title>Node9</title>
<g id="a_Node000009"><a xlink:title=" ">
<polygon fill="#e0e0e0" stroke="#999999" points="392,-129 324,-129 324,-110 392,-110 392,-129"/>
<text text-anchor="middle" x="358" y="-117" font-family="Helvetica,sans-Serif" font-size="10.00">sys/types.h</text>
</a>
</g>
</g>
<!-- Node8&#45;&gt;Node9 -->
<g id="edge13_Node000008_Node000009" class="edge">
<title>Node8&#45;&gt;Node9</title>
<g id="a_edge13_Node000008_Node000009"><a xlink:title=" ">
<path fill="none" stroke="#63b8ff" d="M338.8,-164.75C341.91,-157.57 346.42,-147.18 350.29,-138.27"/>
<polygon fill="#63b8ff" stroke="#63b8ff" points="353.5,-139.66 354.27,-129.09 347.08,-136.87 353.5,-139.66"/>
</a>
</g>
</g>
<!-- Node10&#45;&gt;Node2 -->
<g id="edge21_Node000010_Node000002" class="edge">
<title>Node10&#45;&gt;Node2</title>
<g id="a_edge21_Node000010_Node000002"><a xlink:title=" ">
<path fill="none" stroke="#63b8ff" d="M364.47,-275.45C278.73,-261.34 116.79,-229.28 83,-184 67.54,-163.28 87.1,-124.14 104,-110 131.62,-86.89 229.71,-74.67 290.08,-69.19"/>
<polygon fill="#63b8ff" stroke="#63b8ff" points="290.51,-72.66 300.16,-68.3 289.9,-65.69 290.51,-72.66"/>
</a>
</g>
</g>
<!-- Node10&#45;&gt;Node5 -->
<g id="edge20_Node000010_Node000005" class="edge">
<title>Node10&#45;&gt;Node5</title>
<g id="a_edge20_Node000010_Node000005"><a xlink:title=" ">
<path fill="none" stroke="#63b8ff" d="M434.91,-274.99C463.14,-260.03 520.2,-226.55 555,-184 566.02,-170.53 573.8,-152.19 578.51,-138.68"/>
<polygon fill="#63b8ff" stroke="#63b8ff" points="581.87,-139.66 581.63,-129.07 575.21,-137.5 581.87,-139.66"/>
</a>
</g>
</g>
<!-- Node10&#45;&gt;Node6 -->
<g id="edge17_Node000010_Node000006" class="edge">
<title>Node10&#45;&gt;Node6</title>
<g id="a_edge17_Node000010_Node000006"><a xlink:title=" ">
<path fill="none" stroke="#63b8ff" d="M444.27,-274.97C465.5,-267.39 495.6,-255.02 519,-239 576.06,-199.95 591.1,-186.82 629,-129 638.13,-115.07 644.78,-97.28 648.91,-84.08"/>
<polygon fill="#63b8ff" stroke="#63b8ff" points="652.34,-84.83 651.79,-74.25 645.62,-82.86 652.34,-84.83"/>
</a>
</g>
</g>
<!-- Node10&#45;&gt;Node7 -->
<g id="edge18_Node000010_Node000007" class="edge">
<title>Node10&#45;&gt;Node7</title>
<g id="a_edge18_Node000010_Node000007"><a xlink:title=" ">
<path fill="none" stroke="#63b8ff" d="M403.79,-274.88C377.05,-258.45 317.85,-220.96 272,-184 253.4,-169.01 233.75,-149.95 220.57,-136.64"/>
<polygon fill="#63b8ff" stroke="#63b8ff" points="222.77,-133.88 213.27,-129.18 217.76,-138.77 222.77,-133.88"/>
</a>
</g>
</g>
<!-- Node10&#45;&gt;Node8 -->
<g id="edge22_Node000010_Node000008" class="edge">
<title>Node10&#45;&gt;Node8</title>
<g id="a_edge22_Node000010_Node000008"><a xlink:title=" ">
<path fill="none" stroke="#63b8ff" d="M411.21,-274.66C397.4,-256.69 365.85,-215.64 347.98,-192.38"/>
<polygon fill="#63b8ff" stroke="#63b8ff" points="350.52,-189.95 341.65,-184.16 344.97,-194.22 350.52,-189.95"/>
</a>
</g>
</g>
<!-- Node10&#45;&gt;Node9 -->
<g id="edge19_Node000010_Node000009" class="edge">
<title>Node10&#45;&gt;Node9</title>
<g id="a_edge19_Node000010_Node000009"><a xlink:title=" ">
<path fill="none" stroke="#63b8ff" d="M418.27,-274.96C418.58,-254.76 417.37,-202.87 399,-165 393.65,-153.97 384.66,-143.75 376.45,-135.89"/>
<polygon fill="#63b8ff" stroke="#63b8ff" points="378.74,-133.24 368.98,-129.13 374.05,-138.43 378.74,-133.24"/>
</a>
</g>
</g>
<!-- Node11 -->
<g id="Node000011" class="node">
<title>Node11</title>
<g id="a_Node000011"><a xlink:href="SocketHTTP_8h.html" target="_top" xlink:title="Protocol&#45;agnostic HTTP types, header handling, URI parsing, and utilities.">
<polygon fill="white" stroke="#666666" points="546,-184 446,-184 446,-165 546,-165 546,-184"/>
<text text-anchor="middle" x="496" y="-172" font-family="Helvetica,sans-Serif" font-size="10.00">http/SocketHTTP.h</text>
</a>
</g>
</g>
<!-- Node10&#45;&gt;Node11 -->
<g id="edge23_Node000010_Node000011" class="edge">
<title>Node10&#45;&gt;Node11</title>
<g id="a_edge23_Node000010_Node000011"><a xlink:title=" ">
<path fill="none" stroke="#63b8ff" d="M424.38,-274.66C437.36,-256.69 467.01,-215.64 483.81,-192.38"/>
<polygon fill="#63b8ff" stroke="#63b8ff" points="486.73,-194.31 489.75,-184.16 481.05,-190.22 486.73,-194.31"/>
</a>
</g>
</g>
<!-- Node13 -->
<g id="Node000013" class="node">
<title>Node13</title>
<g id="a_Node000013"><a xlink:href="Socket_8h.html" target="_top" xlink:title="High&#45;level TCP/IP and Unix domain socket interface.">
<polygon fill="white" stroke="#666666" points="956,-239 868,-239 868,-220 956,-220 956,-239"/>
<text text-anchor="middle" x="912" y="-227" font-family="Helvetica,sans-Serif" font-size="10.00">socket/Socket.h</text>
</a>
</g>
</g>
<!-- Node10&#45;&gt;Node13 -->
<g id="edge30_Node000010_Node000013" class="edge">
<title>Node10&#45;&gt;Node13</title>
<g id="a_edge30_Node000010_Node000013"><a xlink:title=" ">
<path fill="none" stroke="#63b8ff" d="M471.81,-277.73C566.75,-267.54 762.94,-246.49 858.01,-236.29"/>
<polygon fill="#63b8ff" stroke="#63b8ff" points="858.42,-239.77 867.99,-235.22 857.67,-232.81 858.42,-239.77"/>
</a>
</g>
</g>
<!-- Node11&#45;&gt;Node2 -->
<g id="edge29_Node000011_Node000002" class="edge">
<title>Node11&#45;&gt;Node2</title>
<g id="a_edge29_Node000011_Node000002"><a xlink:title=" ">
<path fill="none" stroke="#63b8ff" d="M483.42,-164.84C456.55,-146.36 393.31,-102.86 360.14,-80.05"/>
<polygon fill="#63b8ff" stroke="#63b8ff" points="361.87,-76.98 351.64,-74.2 357.9,-82.75 361.87,-76.98"/>
</a>
</g>
</g>
<!-- Node11&#45;&gt;Node5 -->
<g id="edge28_Node000011_Node000005" class="edge">
<title>Node11&#45;&gt;Node5</title>
<g id="a_edge28_Node000011_Node000005"><a xlink:title=" ">
<path fill="none" stroke="#63b8ff" d="M510.14,-164.98C523.79,-156.77 544.69,-144.18 560.78,-134.49"/>
<polygon fill="#63b8ff" stroke="#63b8ff" points="562.84,-137.33 569.6,-129.17 559.23,-131.33 562.84,-137.33"/>
</a>
</g>
</g>
<!-- Node11&#45;&gt;Node6 -->
<g id="edge24_Node000011_Node000006" class="edge">
<title>Node11&#45;&gt;Node6</title>
<g id="a_edge24_Node000011_Node000006"><a xlink:title=" ">
<path fill="none" stroke="#63b8ff" d="M499.74,-164.88C506.01,-151.39 519.83,-125.26 539,-110 562.15,-91.57 593.84,-80.06 618.09,-73.38"/>
<polygon fill="#63b8ff" stroke="#63b8ff" points="619.18,-76.71 627.98,-70.81 617.42,-69.94 619.18,-76.71"/>
</a>
</g>
</g>
<!-- Node11&#45;&gt;Node7 -->
<g id="edge25_Node000011_Node000007" class="edge">
<title>Node11&#45;&gt;Node7</title>
<g id="a_edge25_Node000011_Node000007"><a xlink:title=" ">
<path fill="none" stroke="#63b8ff" d="M449.25,-164.98C390.78,-154.34 292.03,-136.35 239.8,-126.84"/>
<polygon fill="#63b8ff" stroke="#63b8ff" points="240.16,-123.35 229.69,-125 238.91,-130.23 240.16,-123.35"/>
</a>
</g>
</g>
<!-- Node11&#45;&gt;Node9 -->
<g id="edge26_Node000011_Node000009" class="edge">
<title>Node11&#45;&gt;Node9</title>
<g id="a_edge26_Node000011_Node000009"><a xlink:title=" ">
<path fill="none" stroke="#63b8ff" d="M473.83,-164.98C451.23,-156.3 415.94,-142.75 390.25,-132.88"/>
<polygon fill="#63b8ff" stroke="#63b8ff" points="391.17,-129.49 380.58,-129.17 388.66,-136.02 391.17,-129.49"/>
</a>
</g>
</g>
<!-- Node12 -->
<g id="Node000012" class="node">
<title>Node12</title>
<g id="a_Node000012"><a xlink:title=" ">
<polygon fill="#e0e0e0" stroke="#999999" points="492,-129 448,-129 448,-110 492,-110 492,-129"/>
<text text-anchor="middle" x="470" y="-117" font-family="Helvetica,sans-Serif" font-size="10.00">time.h</text>
</a>
</g>
</g>
<!-- Node11&#45;&gt;Node12 -->
<g id="edge27_Node000011_Node000012" class="edge">
<title>Node11&#45;&gt;Node12</title>
<g id="a_edge27_Node000011_Node000012"><a xlink:title=" ">
<path fill="none" stroke="#63b8ff" d="M491.71,-164.75C488.19,-157.57 483.09,-147.18 478.72,-138.27"/>
<polygon fill="#63b8ff" stroke="#63b8ff" points="481.76,-136.53 474.21,-129.09 475.48,-139.61 481.76,-136.53"/>
</a>
</g>
</g>
<!-- Node13&#45;&gt;Node2 -->
<g id="edge31_Node000013_Node000002" class="edge">
<title>Node13&#45;&gt;Node2</title>
<g id="a_edge31_Node000013_Node000002"><a xlink:title=" ">
<path fill="none" stroke="#63b8ff" d="M867.98,-227.76C701.95,-224.76 121.77,-212.27 95,-184 71.45,-159.13 100.4,-130.56 130,-110 177.64,-76.92 245.03,-67.65 290.28,-65.44"/>
<polygon fill="#63b8ff" stroke="#63b8ff" points="290.58,-68.93 300.44,-65.05 290.31,-61.94 290.58,-68.93"/>
</a>
</g>
</g>
<!-- Node14 -->
<g id="Node000014" class="node">
<title>Node14</title>
<g id="a_Node000014"><a xlink:href="SocketConfig_8h.html" target="_top" xlink:title="Compile&#45;time and runtime configuration constants, limits, and platform adaptations.">
<polygon fill="white" stroke="#666666" points="1464,-129 1358,-129 1358,-110 1464,-110 1464,-129"/>
<text text-anchor="middle" x="1411" y="-117" font-family="Helvetica,sans-Serif" font-size="10.00">core/SocketConfig.h</text>
</a>
</g>
</g>
<!-- Node13&#45;&gt;Node14 -->
<g id="edge32_Node000013_Node000014" class="edge">
<title>Node13&#45;&gt;Node14</title>
<g id="a_edge32_Node000013_Node000014"><a xlink:title=" ">
<path fill="none" stroke="#63b8ff" d="M956.17,-221.43C1005.54,-213.31 1087.79,-199.14 1158,-184 1233.17,-167.79 1319.93,-145.15 1369.83,-131.74"/>
<polygon fill="#63b8ff" stroke="#63b8ff" points="1370.86,-135.08 1379.6,-129.1 1369.04,-128.32 1370.86,-135.08"/>
</a>
</g>
</g>
<!-- Node23 -->
<g id="Node000023" class="node">
<title>Node23</title>
<g id="a_Node000023"><a xlink:href="SocketDNS_8h.html" target="_top" xlink:title="Asynchronous DNS resolution API for non&#45;blocking network applications.">
<polygon fill="white" stroke="#666666" points="960,-129 864,-129 864,-110 960,-110 960,-129"/>
<text text-anchor="middle" x="912" y="-117" font-family="Helvetica,sans-Serif" font-size="10.00">dns/SocketDNS.h</text>
</a>
</g>
</g>
<!-- Node13&#45;&gt;Node23 -->
<g id="edge42_Node000013_Node000023" class="edge">
<title>Node13&#45;&gt;Node23</title>
<g id="a_edge42_Node000013_Node000023"><a xlink:title=" ">
<path fill="none" stroke="#63b8ff" d="M912,-219.66C912,-202.17 912,-162.8 912,-139.27"/>
<polygon fill="#63b8ff" stroke="#63b8ff" points="915.5,-139.16 912,-129.16 908.5,-139.16 915.5,-139.16"/>
</a>
</g>
</g>
<!-- Node25 -->
<g id="Node000025" class="node">
<title>Node25</title>
<g id="a_Node000025"><a xlink:href="SocketCommon_8h.html" target="_top" xlink:title="Common utilities shared between Socket and SocketDgram modules.">
<polygon fill="white" stroke="#666666" points="1149,-184 1021,-184 1021,-165 1149,-165 1149,-184"/>
<text text-anchor="middle" x="1085" y="-172" font-family="Helvetica,sans-Serif" font-size="10.00">socket/SocketCommon.h</text>
</a>
</g>
</g>
<!-- Node13&#45;&gt;Node25 -->
<g id="edge47_Node000013_Node000025" class="edge">
<title>Node13&#45;&gt;Node25</title>
<g id="a_edge47_Node000013_Node000025"><a xlink:title=" ">
<path fill="none" stroke="#63b8ff" d="M939.8,-219.98C968.97,-211.05 1015,-196.94 1047.4,-187.02"/>
<polygon fill="#63b8ff" stroke="#63b8ff" points="1048.45,-190.36 1056.99,-184.08 1046.4,-183.66 1048.45,-190.36"/>
</a>
</g>
</g>
<!-- Node14&#45;&gt;Node6 -->
<g id="edge37_Node000014_Node000006" class="edge">
<title>Node14&#45;&gt;Node6</title>
<g id="a_edge37_Node000014_Node000006"><a xlink:title=" ">
<path fill="none" stroke="#63b8ff" d="M1357.77,-114.77C1212.58,-104.61 812.38,-76.59 690.01,-68.02"/>
<polygon fill="#63b8ff" stroke="#63b8ff" points="690.26,-64.53 680.04,-67.32 689.77,-71.51 690.26,-64.53"/>
</a>
</g>
</g>
<!-- Node15 -->
<g id="Node000015" class="node">
<title>Node15</title>
<g id="a_Node000015"><a xlink:title=" ">
<polygon fill="#e0e0e0" stroke="#999999" points="1498.5,-74 1451.5,-74 1451.5,-55 1498.5,-55 1498.5,-74"/>
<text text-anchor="middle" x="1475" y="-62" font-family="Helvetica,sans-Serif" font-size="10.00">errno.h</text>
</a>
</g>
</g>
<!-- Node14&#45;&gt;Node15 -->
<g id="edge33_Node000014_Node000015" class="edge">
<title>Node14&#45;&gt;Node15</title>
<g id="a_edge33_Node000014_Node000015"><a xlink:title=" ">
<path fill="none" stroke="#63b8ff" d="M1421.28,-109.98C1430.84,-102.07 1445.28,-90.11 1456.78,-80.58"/>
<polygon fill="#63b8ff" stroke="#63b8ff" points="1459.06,-83.24 1464.53,-74.17 1454.6,-77.85 1459.06,-83.24"/>
</a>
</g>
</g>
<!-- Node16 -->
<g id="Node000016" class="node">
<title>Node16</title>
<g id="a_Node000016"><a xlink:title=" ">
<polygon fill="#e0e0e0" stroke="#999999" points="1281,-74 1237,-74 1237,-55 1281,-55 1281,-74"/>
<text text-anchor="middle" x="1259" y="-62" font-family="Helvetica,sans-Serif" font-size="10.00">fcntl.h</text>
</a>
</g>
</g>
<!-- Node14&#45;&gt;Node16 -->
<g id="edge34_Node000014_Node000016" class="edge">
<title>Node14&#45;&gt;Node16</title>
<g id="a_edge34_Node000014_Node000016"><a xlink:title=" ">
<path fill="none" stroke="#63b8ff" d="M1386.58,-109.98C1360.6,-100.93 1319.41,-86.56 1290.89,-76.62"/>
<polygon fill="#63b8ff" stroke="#63b8ff" points="1291.97,-73.29 1281.38,-73.3 1289.67,-79.9 1291.97,-73.29"/>
</a>
</g>
</g>
<!-- Node17 -->
<g id="Node000017" class="node">
<title>Node17</title>
<g id="a_Node000017"><a xlink:title=" ">
<polygon fill="#e0e0e0" stroke="#999999" points="1364.5,-74 1299.5,-74 1299.5,-55 1364.5,-55 1364.5,-74"/>
<text text-anchor="middle" x="1332" y="-62" font-family="Helvetica,sans-Serif" font-size="10.00">netinet/in.h</text>
</a>
</g>
</g>
<!-- Node14&#45;&gt;Node17 -->
<g id="edge35_Node000014_Node000017" class="edge">
<title>Node14&#45;&gt;Node17</title>
<g id="a_edge35_Node000014_Node000017"><a xlink:title=" ">
<path fill="none" stroke="#63b8ff" d="M1398.31,-109.98C1386.17,-101.84 1367.64,-89.41 1353.25,-79.76"/>
<polygon fill="#63b8ff" stroke="#63b8ff" points="1355.18,-76.84 1344.92,-74.17 1351.28,-82.65 1355.18,-76.84"/>
</a>
</g>
</g>
<!-- Node18 -->
<g id="Node000018" class="node">
<title>Node18</title>
<g id="a_Node000018"><a xlink:title=" ">
<polygon fill="#e0e0e0" stroke="#999999" points="1587.5,-74 1516.5,-74 1516.5,-55 1587.5,-55 1587.5,-74"/>
<text text-anchor="middle" x="1552" y="-62" font-family="Helvetica,sans-Serif" font-size="10.00">netinet/tcp.h</text>
</a>
</g>
</g>
<!-- Node14&#45;&gt;Node18 -->
<g id="edge36_Node000014_Node000018" class="edge">
<title>Node14&#45;&gt;Node18</title>
<g id="a_edge36_Node000014_Node000018"><a xlink:title=" ">
<path fill="none" stroke="#63b8ff" d="M1433.65,-109.98C1456.85,-101.27 1493.12,-87.63 1519.4,-77.75"/>
<polygon fill="#63b8ff" stroke="#63b8ff" points="1520.8,-80.97 1528.93,-74.17 1518.34,-74.41 1520.8,-80.97"/>
</a>
</g>
</g>
<!-- Node19 -->
<g id="Node000019" class="node">
<title>Node19</title>
<g id="a_Node000019"><a xlink:title=" ">
<polygon fill="#e0e0e0" stroke="#999999" points="1652,-74 1606,-74 1606,-55 1652,-55 1652,-74"/>
<text text-anchor="middle" x="1629" y="-62" font-family="Helvetica,sans-Serif" font-size="10.00">stdio.h</text>
</a>
</g>
</g>
<!-- Node14&#45;&gt;Node19 -->
<g id="edge38_Node000014_Node000019" class="edge">
<title>Node14&#45;&gt;Node19</title>
<g id="a_edge38_Node000014_Node000019"><a xlink:title=" ">
<path fill="none" stroke="#63b8ff" d="M1447.77,-109.99C1483.28,-101.7 1538.84,-88.58 1596.01,-74.2"/>
<polygon fill="#63b8ff" stroke="#63b8ff" points="1597.11,-77.54 1605.95,-71.7 1595.39,-70.75 1597.11,-77.54"/>
</a>
</g>
</g>
<!-- Node20 -->
<g id="Node000020" class="node">
<title>Node20</title>
<g id="a_Node000020"><a xlink:title=" ">
<polygon fill="#e0e0e0" stroke="#999999" points="1218.5,-74 1145.5,-74 1145.5,-55 1218.5,-55 1218.5,-74"/>
<text text-anchor="middle" x="1182" y="-62" font-family="Helvetica,sans-Serif" font-size="10.00">sys/socket.h</text>
</a>
</g>
</g>
<!-- Node14&#45;&gt;Node20 -->
<g id="edge39_Node000014_Node000020" class="edge">
<title>Node14&#45;&gt;Node20</title>
<g id="a_edge39_Node000014_Node000020"><a xlink:title=" ">
<path fill="none" stroke="#63b8ff" d="M1374.21,-109.98C1334.64,-100.83 1271.65,-86.25 1228.64,-76.29"/>
<polygon fill="#63b8ff" stroke="#63b8ff" points="1229.23,-72.84 1218.7,-73.99 1227.65,-79.66 1229.23,-72.84"/>
</a>
</g>
</g>
<!-- Node21 -->
<g id="Node000021" class="node">
<title>Node21</title>
<g id="a_Node000021"><a xlink:title=" ">
<polygon fill="#e0e0e0" stroke="#999999" points="1726,-74 1670,-74 1670,-55 1726,-55 1726,-74"/>
<text text-anchor="middle" x="1698" y="-62" font-family="Helvetica,sans-Serif" font-size="10.00">sys/uio.h</text>
</a>
</g>
</g>
<!-- Node14&#45;&gt;Node21 -->
<g id="edge40_Node000014_Node000021" class="edge">
<title>Node14&#45;&gt;Node21</title>
<g id="a_edge40_Node000014_Node000021"><a xlink:title=" ">
<path fill="none" stroke="#63b8ff" d="M1463.34,-109.96C1511.84,-101.87 1586.23,-89.02 1659.84,-74.16"/>
<polygon fill="#63b8ff" stroke="#63b8ff" points="1660.65,-77.56 1669.75,-72.14 1659.25,-70.7 1660.65,-77.56"/>
</a>
</g>
</g>
<!-- Node22 -->
<g id="Node000022" class="node">
<title>Node22</title>
<g id="a_Node000022"><a xlink:title=" ">
<polygon fill="#e0e0e0" stroke="#999999" points="1433.5,-74 1382.5,-74 1382.5,-55 1433.5,-55 1433.5,-74"/>
<text text-anchor="middle" x="1408" y="-62" font-family="Helvetica,sans-Serif" font-size="10.00">unistd.h</text>
</a>
</g>
</g>
<!-- Node14&#45;&gt;Node22 -->
<g id="edge41_Node000014_Node000022" class="edge">
<title>Node14&#45;&gt;Node22</title>
<g id="a_edge41_Node000014_Node000022"><a xlink:title=" ">
<path fill="none" stroke="#63b8ff" d="M1410.5,-109.75C1410.11,-102.8 1409.55,-92.85 1409.05,-84.13"/>
<polygon fill="#63b8ff" stroke="#63b8ff" points="1412.55,-83.88 1408.49,-74.09 1405.56,-84.27 1412.55,-83.88"/>
</a>
</g>
</g>
<!-- Node23&#45;&gt;Node2 -->
<g id="edge43_Node000023_Node000002" class="edge">
<title>Node23&#45;&gt;Node2</title>
<g id="a_edge43_Node000023_Node000002"><a xlink:title=" ">
<path fill="none" stroke="#63b8ff" d="M863.83,-111.1C860.84,-110.71 857.88,-110.34 855,-110 683.67,-89.86 479.33,-74.91 387.68,-68.69"/>
<polygon fill="#63b8ff" stroke="#63b8ff" points="387.81,-65.19 377.6,-68.01 387.34,-72.17 387.81,-65.19"/>
</a>
</g>
</g>
<!-- Node23&#45;&gt;Node6 -->
<g id="edge45_Node000023_Node000006" class="edge">
<title>Node23&#45;&gt;Node6</title>
<g id="a_edge45_Node000023_Node000006"><a xlink:title=" ">
<path fill="none" stroke="#63b8ff" d="M870.55,-109.98C820.52,-99.71 737.22,-82.6 689.85,-72.86"/>
<polygon fill="#63b8ff" stroke="#63b8ff" points="690.53,-69.43 680.03,-70.85 689.12,-76.29 690.53,-69.43"/>
</a>
</g>
</g>
<!-- Node23&#45;&gt;Node20 -->
<g id="edge46_Node000023_Node000020" class="edge">
<title>Node23&#45;&gt;Node20</title>
<g id="a_edge46_Node000023_Node000020"><a xlink:title=" ">
<path fill="none" stroke="#63b8ff" d="M955.38,-109.98C1004.61,-100.32 1084.62,-84.62 1135.21,-74.68"/>
<polygon fill="#63b8ff" stroke="#63b8ff" points="1136.09,-78.08 1145.23,-72.72 1134.75,-71.21 1136.09,-78.08"/>
</a>
</g>
</g>
<!-- Node24 -->
<g id="Node000024" class="node">
<title>Node24</title>
<g id="a_Node000024"><a xlink:title=" ">
<polygon fill="#e0e0e0" stroke="#999999" points="1031.5,-74 982.5,-74 982.5,-55 1031.5,-55 1031.5,-74"/>
<text text-anchor="middle" x="1007" y="-62" font-family="Helvetica,sans-Serif" font-size="10.00">netdb.h</text>
</a>
</g>
</g>
<!-- Node23&#45;&gt;Node24 -->
<g id="edge44_Node000023_Node000024" class="edge">
<title>Node23&#45;&gt;Node24</title>
<g id="a_edge44_Node000023_Node000024"><a xlink:title=" ">
<path fill="none" stroke="#63b8ff" d="M927.26,-109.98C942.13,-101.69 964.98,-88.94 982.42,-79.22"/>
<polygon fill="#63b8ff" stroke="#63b8ff" points="984.43,-82.1 991.46,-74.17 981.02,-75.99 984.43,-82.1"/>
</a>
</g>
</g>
<!-- Node25&#45;&gt;Node2 -->
<g id="edge58_Node000025_Node000002" class="edge">
<title>Node25&#45;&gt;Node2</title>
<g id="a_edge58_Node000025_Node000002"><a xlink:title=" ">
<path fill="none" stroke="#63b8ff" d="M1024.97,-165C963.62,-156.24 865.61,-142.06 781,-129 728.94,-120.96 716.1,-117.8 664,-110 566.1,-95.35 451.31,-80.08 387.7,-71.78"/>
<polygon fill="#63b8ff" stroke="#63b8ff" points="387.94,-68.28 377.57,-70.46 387.03,-75.23 387.94,-68.28"/>
</a>
</g>
</g>
<!-- Node25&#45;&gt;Node5 -->
<g id="edge57_Node000025_Node000005" class="edge">
<title>Node25&#45;&gt;Node5</title>
<g id="a_edge57_Node000025_Node000005"><a xlink:title=" ">
<path fill="none" stroke="#63b8ff" d="M1020.78,-166.71C918.3,-155.87 720.19,-134.91 630.33,-125.4"/>
<polygon fill="#63b8ff" stroke="#63b8ff" points="630.49,-121.9 620.18,-124.33 629.75,-128.86 630.49,-121.9"/>
</a>
</g>
</g>
<!-- Node25&#45;&gt;Node9 -->
<g id="edge55_Node000025_Node000009" class="edge">
<title>Node25&#45;&gt;Node9</title>
<g id="a_edge55_Node000025_Node000009"><a xlink:title=" ">
<path fill="none" stroke="#63b8ff" d="M1020.76,-169.84C904.57,-163.05 651.79,-147.49 439,-129 427.12,-127.97 414.29,-126.69 402.41,-125.45"/>
<polygon fill="#63b8ff" stroke="#63b8ff" points="402.58,-121.95 392.26,-124.37 401.84,-128.91 402.58,-121.95"/>
</a>
</g>
</g>
<!-- Node25&#45;&gt;Node14 -->
<g id="edge59_Node000025_Node000014" class="edge">
<title>Node25&#45;&gt;Node14</title>
<g id="a_edge59_Node000025_Node000014"><a xlink:title=" ">
<path fill="none" stroke="#63b8ff" d="M1137.38,-164.98C1194.92,-155.63 1287.29,-140.61 1348.55,-130.65"/>
<polygon fill="#63b8ff" stroke="#63b8ff" points="1349.17,-134.1 1358.48,-129.04 1348.05,-127.19 1349.17,-134.1"/>
</a>
</g>
</g>
<!-- Node25&#45;&gt;Node16 -->
<g id="edge50_Node000025_Node000016" class="edge">
<title>Node25&#45;&gt;Node16</title>
<g id="a_edge50_Node000025_Node000016"><a xlink:title=" ">
<path fill="none" stroke="#63b8ff" d="M1149.05,-165.41C1176.26,-159.22 1206.76,-148.29 1229,-129 1242.5,-117.28 1250.38,-98.16 1254.65,-83.95"/>
<polygon fill="#63b8ff" stroke="#63b8ff" points="1258.04,-84.82 1257.24,-74.25 1251.27,-83.01 1258.04,-84.82"/>
</a>
</g>
</g>
<!-- Node25&#45;&gt;Node17 -->
<g id="edge52_Node000025_Node000017" class="edge">
<title>Node25&#45;&gt;Node17</title>
<g id="a_edge52_Node000025_Node000017"><a xlink:title=" ">
<path fill="none" stroke="#63b8ff" d="M1137.07,-164.94C1170.53,-158.14 1214.26,-146.76 1250,-129 1275.03,-116.56 1299.86,-95.85 1315.53,-81.48"/>
<polygon fill="#63b8ff" stroke="#63b8ff" points="1318.34,-83.64 1323.23,-74.24 1313.55,-78.54 1318.34,-83.64"/>
</a>
</g>
</g>
<!-- Node25&#45;&gt;Node20 -->
<g id="edge53_Node000025_Node000020" class="edge">
<title>Node25&#45;&gt;Node20</title>
<g id="a_edge53_Node000025_Node000020"><a xlink:title=" ">
<path fill="none" stroke="#63b8ff" d="M1149.11,-166.84C1173.19,-160.86 1198.28,-149.71 1213,-129 1223.6,-114.1 1211.34,-95.02 1199.26,-81.68"/>
<polygon fill="#63b8ff" stroke="#63b8ff" points="1201.45,-78.92 1191.96,-74.21 1196.44,-83.81 1201.45,-78.92"/>
</a>
</g>
</g>
<!-- Node25&#45;&gt;Node24 -->
<g id="edge51_Node000025_Node000024" class="edge">
<title>Node25&#45;&gt;Node24</title>
<g id="a_edge51_Node000025_Node000024"><a xlink:title=" ">
<path fill="none" stroke="#63b8ff" d="M1130.94,-164.96C1170.83,-155.49 1219.01,-137.76 1197,-110 1178.03,-86.07 1091.56,-73.78 1042.06,-68.6"/>
<polygon fill="#63b8ff" stroke="#63b8ff" points="1042.1,-65.08 1031.8,-67.57 1041.41,-72.05 1042.1,-65.08"/>
</a>
</g>
</g>
<!-- Node26 -->
<g id="Node000026" class="node">
<title>Node26</title>
<g id="a_Node000026"><a xlink:title=" ">
<polygon fill="#e0e0e0" stroke="#999999" points="1187.5,-129 1130.5,-129 1130.5,-110 1187.5,-110 1187.5,-129"/>
<text text-anchor="middle" x="1159" y="-117" font-family="Helvetica,sans-Serif" font-size="10.00">pthread.h</text>
</a>
</g>
</g>
<!-- Node25&#45;&gt;Node26 -->
<g id="edge48_Node000025_Node000026" class="edge">
<title>Node25&#45;&gt;Node26</title>
<g id="a_edge48_Node000025_Node000026"><a xlink:title=" ">
<path fill="none" stroke="#63b8ff" d="M1096.89,-164.98C1108.15,-156.92 1125.29,-144.65 1138.71,-135.03"/>
<polygon fill="#63b8ff" stroke="#63b8ff" points="1140.8,-137.84 1146.89,-129.17 1136.73,-132.15 1140.8,-137.84"/>
</a>
</g>
</g>
<!-- Node27 -->
<g id="Node000027" class="node">
<title>Node27</title>
<g id="a_Node000027"><a xlink:title=" ">
<polygon fill="#e0e0e0" stroke="#999999" points="846,-129 790,-129 790,-110 846,-110 846,-129"/>
<text text-anchor="middle" x="818" y="-117" font-family="Helvetica,sans-Serif" font-size="10.00">stdbool.h</text>
</a>
</g>
</g>
<!-- Node25&#45;&gt;Node27 -->
<g id="edge49_Node000025_Node000027" class="edge">
<title>Node25&#45;&gt;Node27</title>
<g id="a_edge49_Node000025_Node000027"><a xlink:title=" ">
<path fill="none" stroke="#63b8ff" d="M1038.21,-164.94C993.85,-156.71 925.09,-143.68 856.39,-129.24"/>
<polygon fill="#63b8ff" stroke="#63b8ff" points="856.77,-125.74 846.26,-127.1 855.32,-132.59 856.77,-125.74"/>
</a>
</g>
</g>
<!-- Node28 -->
<g id="Node000028" class="node">
<title>Node28</title>
<g id="a_Node000028"><a xlink:title=" ">
<polygon fill="#e0e0e0" stroke="#999999" points="1040,-129 978,-129 978,-110 1040,-110 1040,-129"/>
<text text-anchor="middle" x="1009" y="-117" font-family="Helvetica,sans-Serif" font-size="10.00">sys/time.h</text>
</a>
</g>
</g>
<!-- Node25&#45;&gt;Node28 -->
<g id="edge54_Node000025_Node000028" class="edge">
<title>Node25&#45;&gt;Node28</title>
<g id="a_edge54_Node000025_Node000028"><a xlink:title=" ">
<path fill="none" stroke="#63b8ff" d="M1072.79,-164.98C1061.22,-156.92 1043.62,-144.65 1029.84,-135.03"/>
<polygon fill="#63b8ff" stroke="#63b8ff" points="1031.64,-132.02 1021.43,-129.17 1027.63,-137.76 1031.64,-132.02"/>
</a>
</g>
</g>
<!-- Node29 -->
<g id="Node000029" class="node">
<title>Node29</title>
<g id="a_Node000029"><a xlink:title=" ">
<polygon fill="#e0e0e0" stroke="#999999" points="1112,-129 1058,-129 1058,-110 1112,-110 1112,-129"/>
<text text-anchor="middle" x="1085" y="-117" font-family="Helvetica,sans-Serif" font-size="10.00">sys/un.h</text>
</a>
</g>
</g>
<!-- Node25&#45;&gt;Node29 -->
<g id="edge56_Node000025_Node000029" class="edge">
<title>Node25&#45;&gt;Node29</title>
<g id="a_edge56_Node000025_Node000029"><a xlink:title=" ">
<path fill="none" stroke="#63b8ff" d="M1085,-164.75C1085,-157.8 1085,-147.85 1085,-139.13"/>
<polygon fill="#63b8ff" stroke="#63b8ff" points="1088.5,-139.09 1085,-129.09 1081.5,-139.09 1088.5,-139.09"/>
</a>
</g>
</g>
<!-- Node30&#45;&gt;Node2 -->
<g id="edge64_Node000030_Node000002" class="edge">
<title>Node30&#45;&gt;Node2</title>
<g id="a_edge64_Node000030_Node000002"><a xlink:title=" ">
<path fill="none" stroke="#63b8ff" d="M760.79,-164.86C738.32,-156.05 702.61,-141.9 672,-129 652.74,-120.89 649.06,-115.86 629,-110 546.21,-85.82 446.06,-74.16 387.74,-69.03"/>
<polygon fill="#63b8ff" stroke="#63b8ff" points="387.96,-65.54 377.7,-68.18 387.37,-72.51 387.96,-65.54"/>
</a>
</g>
</g>
<!-- Node30&#45;&gt;Node5 -->
<g id="edge61_Node000030_Node000005" class="edge">
<title>Node30&#45;&gt;Node5</title>
<g id="a_edge61_Node000030_Node000005"><a xlink:title=" ">
<path fill="none" stroke="#63b8ff" d="M751.03,-164.98C717.18,-155.97 663.6,-141.7 626.29,-131.76"/>
<polygon fill="#63b8ff" stroke="#63b8ff" points="626.79,-128.27 616.22,-129.08 624.99,-135.04 626.79,-128.27"/>
</a>
</g>
</g>
<!-- Node30&#45;&gt;Node6 -->
<g id="edge63_Node000030_Node000006" class="edge">
<title>Node30&#45;&gt;Node6</title>
<g id="a_edge63_Node000030_Node000006"><a xlink:title=" ">
<path fill="none" stroke="#63b8ff" d="M778.53,-164.72C771.43,-151.48 756.48,-126.23 738,-110 722.76,-96.62 702.8,-85.83 686.16,-78.23"/>
<polygon fill="#63b8ff" stroke="#63b8ff" points="687.37,-74.94 676.8,-74.13 684.56,-81.35 687.37,-74.94"/>
</a>
</g>
</g>
<!-- Node30&#45;&gt;Node27 -->
<g id="edge62_Node000030_Node000027" class="edge">
<title>Node30&#45;&gt;Node27</title>
<g id="a_edge62_Node000030_Node000027"><a xlink:title=" ">
<path fill="none" stroke="#63b8ff" d="M788.78,-164.75C793.62,-157.42 800.68,-146.73 806.64,-137.7"/>
<polygon fill="#63b8ff" stroke="#63b8ff" points="809.74,-139.36 812.33,-129.09 803.9,-135.5 809.74,-139.36"/>
</a>
</g>
</g>
</g>
</svg>
