<?xml version="1.0" encoding="UTF-8" standalone="no"?>
<!DOCTYPE svg PUBLIC "-//W3C//DTD SVG 1.1//EN"
 "http://www.w3.org/Graphics/SVG/1.1/DTD/svg11.dtd">
<!-- Generated by graphviz version 2.43.0 (0)
 -->
<!-- Title: SocketHE_T Pages: 1 -->
<svg width="1093pt" height="482pt"
 viewBox="0.00 0.00 1093.00 481.56" xmlns="http://www.w3.org/2000/svg" xmlns:xlink="http://www.w3.org/1999/xlink">
<g id="graph0" class="graph" transform="scale(1 1) rotate(0) translate(4 477.56)">
<title>SocketHE_T</title>
<!-- Node1 -->
<g id="Node000001" class="node">
<title>Node1</title>
<g id="a_Node000001"><a xlink:title="Main context structure for Happy Eyeballs (RFC 8305) connection racing.">
<polygon fill="#999999" stroke="#666666" points="1085,-300.56 1012,-300.56 1012,-281.56 1085,-281.56 1085,-300.56"/>
<text text-anchor="middle" x="1048.5" y="-288.56" font-family="Helvetica,sans-Serif" font-size="10.00">SocketHE_T</text>
</a>
</g>
</g>
<!-- Node2 -->
<g id="Node000002" class="node">
<title>Node2</title>
<g id="a_Node000002"><a xlink:href="group__async__io.html#structSocketHE__Config__T" target="_top" xlink:title="Happy Eyeballs configuration structure.">
<polygon fill="white" stroke="#666666" points="904,-473.56 797,-473.56 797,-454.56 904,-454.56 904,-473.56"/>
<text text-anchor="middle" x="850.5" y="-461.56" font-family="Helvetica,sans-Serif" font-size="10.00">SocketHE_Config_T</text>
</a>
</g>
</g>
<!-- Node2&#45;&gt;Node1 -->
<g id="edge1_Node000001_Node000002" class="edge">
<title>Node2&#45;&gt;Node1</title>
<g id="a_edge1_Node000001_Node000002"><a xlink:title=" ">
<path fill="none" stroke="#9a32cd" stroke-dasharray="5,2" d="M907.35,-451.2C911.37,-449.66 915.29,-447.95 919,-446.06 957.27,-426.54 966.23,-417.85 994,-385.06 1017.3,-357.55 1035.74,-318.43 1043.51,-300.59"/>
<polygon fill="#9a32cd" stroke="#9a32cd" points="906.16,-447.91 897.86,-454.49 908.45,-454.52 906.16,-447.91"/>
</a>
</g>
<text text-anchor="middle" x="965.5" y="-439.06" font-family="Helvetica,sans-Serif" font-size="10.00" fill="grey"> config</text>
</g>
<!-- Node3 -->
<g id="Node000003" class="node">
<title>Node3</title>
<g id="a_Node000003"><a xlink:href="group__dns.html#structSocketDNS__T" target="_top" xlink:title="Async DNS resolver structure.">
<polygon fill="white" stroke="#666666" points="618,-379.56 538,-379.56 538,-360.56 618,-360.56 618,-379.56"/>
<text text-anchor="middle" x="578" y="-367.56" font-family="Helvetica,sans-Serif" font-size="10.00">SocketDNS_T</text>
</a>
</g>
</g>
<!-- Node3&#45;&gt;Node1 -->
<g id="edge2_Node000001_Node000003" class="edge">
<title>Node3&#45;&gt;Node1</title>
<g id="a_edge2_Node000001_Node000003"><a xlink:title=" ">
<path fill="none" stroke="#9a32cd" stroke-dasharray="5,2" d="M628.16,-363.99C706.15,-354 862.82,-332.43 994,-305.06 1000.2,-303.77 1006.76,-302.21 1013.09,-300.61"/>
<polygon fill="#9a32cd" stroke="#9a32cd" points="627.62,-360.53 618.14,-365.27 628.51,-367.48 627.62,-360.53"/>
</a>
</g>
<text text-anchor="middle" x="850.5" y="-344.06" font-family="Helvetica,sans-Serif" font-size="10.00" fill="grey"> dns</text>
</g>
<!-- Node4 -->
<g id="Node000004" class="node">
<title>Node4</title>
<g id="a_Node000004"><a xlink:href="group__dns.html#structSocketDNS__Request__T" target="_top" xlink:title="DNS resolution request structure.">
<polygon fill="white" stroke="#666666" points="911.5,-385.56 789.5,-385.56 789.5,-366.56 911.5,-366.56 911.5,-385.56"/>
<text text-anchor="middle" x="850.5" y="-373.56" font-family="Helvetica,sans-Serif" font-size="10.00">SocketDNS_Request_T</text>
</a>
</g>
</g>
<!-- Node3&#45;&gt;Node4 -->
<g id="edge5_Node000004_Node000003" class="edge">
<title>Node3&#45;&gt;Node4</title>
<g id="a_edge5_Node000004_Node000003"><a xlink:title=" ">
<path fill="none" stroke="#9a32cd" stroke-dasharray="5,2" d="M628.41,-369.29C635.97,-369.19 643.69,-369.11 651,-369.06 701.22,-368.72 713.82,-367.01 764,-369.06 772.18,-369.4 780.8,-369.91 789.28,-370.51"/>
<polygon fill="#9a32cd" stroke="#9a32cd" points="628.19,-365.79 618.24,-369.42 628.28,-372.79 628.19,-365.79"/>
</a>
</g>
<text text-anchor="middle" x="707.5" y="-372.06" font-family="Helvetica,sans-Serif" font-size="10.00" fill="grey"> dns_resolver</text>
</g>
<!-- Node4&#45;&gt;Node1 -->
<g id="edge22_Node000001_Node000004" class="edge">
<title>Node4&#45;&gt;Node1</title>
<g id="a_edge22_Node000001_Node000004"><a xlink:title=" ">
<path fill="none" stroke="#9a32cd" stroke-dasharray="5,2" d="M921.81,-373.07C945.88,-369.68 972.21,-363.2 994,-351.06 1015.7,-338.98 1033.09,-314.69 1041.67,-301.01"/>
<polygon fill="#9a32cd" stroke="#9a32cd" points="921.14,-369.63 911.65,-374.34 922.01,-376.57 921.14,-369.63"/>
</a>
</g>
<text text-anchor="middle" x="965.5" y="-373.06" font-family="Helvetica,sans-Serif" font-size="10.00" fill="grey"> dns_request</text>
</g>
<!-- Node4&#45;&gt;Node3 -->
<g id="edge3_Node000003_Node000004" class="edge">
<title>Node4&#45;&gt;Node3</title>
<g id="a_edge3_Node000003_Node000004"><a xlink:title=" ">
<path fill="none" stroke="#9a32cd" stroke-dasharray="5,2" d="M779.03,-382.05C741.05,-384.3 693.4,-385.57 651,-382.06 640.27,-381.18 628.72,-379.55 618.09,-377.78"/>
<polygon fill="#9a32cd" stroke="#9a32cd" points="779.71,-385.51 789.47,-381.39 779.27,-378.53 779.71,-385.51"/>
</a>
</g>
<text text-anchor="middle" x="707.5" y="-409.06" font-family="Helvetica,sans-Serif" font-size="10.00" fill="grey"> queue_head</text>
<text text-anchor="middle" x="707.5" y="-398.06" font-family="Helvetica,sans-Serif" font-size="10.00" fill="grey">queue_tail</text>
<text text-anchor="middle" x="707.5" y="-387.06" font-family="Helvetica,sans-Serif" font-size="10.00" fill="grey">request_hash</text>
</g>
<!-- Node4&#45;&gt;Node4 -->
<g id="edge4_Node000004_Node000004" class="edge">
<title>Node4&#45;&gt;Node4</title>
<g id="a_edge4_Node000004_Node000004"><a xlink:title=" ">
<path fill="none" stroke="#9a32cd" stroke-dasharray="5,2" d="M829.39,-395.12C830.8,-399.94 837.84,-403.56 850.5,-403.56 870.76,-403.56 876.62,-394.3 868.07,-385.65"/>
<polygon fill="#9a32cd" stroke="#9a32cd" points="832.71,-396.24 832.93,-385.65 826.15,-393.79 832.71,-396.24"/>
</a>
</g>
<text text-anchor="middle" x="850.5" y="-428.56" font-family="Helvetica,sans-Serif" font-size="10.00" fill="grey"> callback</text>
<text text-anchor="middle" x="850.5" y="-417.56" font-family="Helvetica,sans-Serif" font-size="10.00" fill="grey">hash_next</text>
<text text-anchor="middle" x="850.5" y="-406.56" font-family="Helvetica,sans-Serif" font-size="10.00" fill="grey">queue_next</text>
</g>
<!-- Node5 -->
<g id="Node000005" class="node">
<title>Node5</title>
<g id="a_Node000005"><a xlink:href="group__event__system.html#structSocketPoll__T" target="_top" xlink:title="Complete internal state for SocketPoll instance.">
<polygon fill="white" stroke="#666666" points="888,-206.56 813,-206.56 813,-187.56 888,-187.56 888,-206.56"/>
<text text-anchor="middle" x="850.5" y="-194.56" font-family="Helvetica,sans-Serif" font-size="10.00">SocketPoll_T</text>
</a>
</g>
</g>
<!-- Node5&#45;&gt;Node1 -->
<g id="edge6_Node000001_Node000005" class="edge">
<title>Node5&#45;&gt;Node1</title>
<g id="a_edge6_Node000001_Node000005"><a xlink:title=" ">
<path fill="none" stroke="#9a32cd" stroke-dasharray="5,2" d="M880.42,-210.93C920.73,-230.26 992.76,-264.81 1027.58,-281.51"/>
<polygon fill="#9a32cd" stroke="#9a32cd" points="881.9,-207.76 871.37,-206.59 878.88,-214.07 881.9,-207.76"/>
</a>
</g>
<text text-anchor="middle" x="965.5" y="-266.06" font-family="Helvetica,sans-Serif" font-size="10.00" fill="grey"> poll</text>
</g>
<!-- Node6 -->
<g id="Node000006" class="node">
<title>Node6</title>
<g id="a_Node000006"><a xlink:href="group__event__system.html#structSocketEvent__T" target="_top" xlink:title="Event notification structure returned by polling operations.">
<polygon fill="white" stroke="#666666" points="505,-262.56 421,-262.56 421,-243.56 505,-243.56 505,-262.56"/>
<text text-anchor="middle" x="463" y="-250.56" font-family="Helvetica,sans-Serif" font-size="10.00">SocketEvent_T</text>
</a>
</g>
</g>
<!-- Node6&#45;&gt;Node5 -->
<g id="edge7_Node000005_Node000006" class="edge">
<title>Node6&#45;&gt;Node5</title>
<g id="a_edge7_Node000005_Node000006"><a xlink:title=" ">
<path fill="none" stroke="#9a32cd" stroke-dasharray="5,2" d="M515.27,-246.66C575.06,-239.05 676.85,-225.66 764,-212.06 780.08,-209.56 797.81,-206.49 812.94,-203.79"/>
<polygon fill="#9a32cd" stroke="#9a32cd" points="514.8,-243.19 505.32,-247.92 515.68,-250.13 514.8,-243.19"/>
</a>
</g>
<text text-anchor="middle" x="578" y="-248.06" font-family="Helvetica,sans-Serif" font-size="10.00" fill="grey"> socketevents</text>
</g>
<!-- Node7 -->
<g id="Node000007" class="node">
<title>Node7</title>
<g id="a_Node000007"><a xlink:title=" ">
<polygon fill="white" stroke="#666666" points="251,-199.56 192,-199.56 192,-180.56 251,-180.56 251,-199.56"/>
<text text-anchor="middle" x="221.5" y="-187.56" font-family="Helvetica,sans-Serif" font-size="10.00">Socket_T</text>
</a>
</g>
</g>
<!-- Node7&#45;&gt;Node1 -->
<g id="edge26_Node000001_Node000007" class="edge">
<title>Node7&#45;&gt;Node1</title>
<g id="a_edge26_Node000001_Node000007"><a xlink:title=" ">
<path fill="none" stroke="#9a32cd" stroke-dasharray="5,2" d="M234.86,-207.84C256.63,-236.83 304.8,-291.06 360.5,-291.06 360.5,-291.06 360.5,-291.06 851.5,-291.06 907.48,-291.06 972.44,-291.06 1011.73,-291.06"/>
<polygon fill="#9a32cd" stroke="#9a32cd" points="237.69,-205.78 228.98,-199.75 232.03,-209.89 237.69,-205.78"/>
</a>
</g>
<text text-anchor="middle" x="578" y="-294.06" font-family="Helvetica,sans-Serif" font-size="10.00" fill="grey"> winner</text>
</g>
<!-- Node7&#45;&gt;Node6 -->
<g id="edge8_Node000006_Node000007" class="edge">
<title>Node7&#45;&gt;Node6</title>
<g id="a_edge8_Node000006_Node000007"><a xlink:title=" ">
<path fill="none" stroke="#9a32cd" stroke-dasharray="5,2" d="M254.86,-203.26C259.57,-204.98 264.38,-206.64 269,-208.06 320.62,-223.99 381.51,-237.3 420.89,-245.22"/>
<polygon fill="#9a32cd" stroke="#9a32cd" points="256.05,-199.96 245.45,-199.68 253.56,-206.51 256.05,-199.96"/>
</a>
</g>
<text text-anchor="middle" x="285.5" y="-219.06" font-family="Helvetica,sans-Serif" font-size="10.00" fill="grey"> socket</text>
</g>
<!-- Node9 -->
<g id="Node000009" class="node">
<title>Node9</title>
<g id="a_Node000009"><a xlink:href="group__event__system.html#structSocketData" target="_top" xlink:title="Hash table entry for socket&#45;to&#45;userdata mapping.">
<polygon fill="white" stroke="#666666" points="497,-209.56 429,-209.56 429,-190.56 497,-190.56 497,-209.56"/>
<text text-anchor="middle" x="463" y="-197.56" font-family="Helvetica,sans-Serif" font-size="10.00">SocketData</text>
</a>
</g>
</g>
<!-- Node7&#45;&gt;Node9 -->
<g id="edge11_Node000009_Node000007" class="edge">
<title>Node7&#45;&gt;Node9</title>
<g id="a_edge11_Node000009_Node000007"><a xlink:title=" ">
<path fill="none" stroke="#9a32cd" stroke-dasharray="5,2" d="M261.39,-191.69C307.9,-193.63 384.94,-196.85 428.78,-198.68"/>
<polygon fill="#9a32cd" stroke="#9a32cd" points="261.53,-188.19 251.39,-191.27 261.23,-195.18 261.53,-188.19"/>
</a>
</g>
<text text-anchor="middle" x="285.5" y="-196.06" font-family="Helvetica,sans-Serif" font-size="10.00" fill="grey"> socket</text>
</g>
<!-- Node10 -->
<g id="Node000010" class="node">
<title>Node10</title>
<g id="a_Node000010"><a xlink:href="group__event__system.html#structFdSocketEntry" target="_top" xlink:title="Hash table entry for file descriptor to socket reverse mapping.">
<polygon fill="white" stroke="#666666" points="504,-156.56 422,-156.56 422,-137.56 504,-137.56 504,-156.56"/>
<text text-anchor="middle" x="463" y="-144.56" font-family="Helvetica,sans-Serif" font-size="10.00">FdSocketEntry</text>
</a>
</g>
</g>
<!-- Node7&#45;&gt;Node10 -->
<g id="edge14_Node000010_Node000007" class="edge">
<title>Node7&#45;&gt;Node10</title>
<g id="a_edge14_Node000010_Node000007"><a xlink:title=" ">
<path fill="none" stroke="#9a32cd" stroke-dasharray="5,2" d="M261.03,-178C263.71,-177.3 266.39,-176.65 269,-176.06 321.24,-164.34 382.51,-156.04 421.77,-151.4"/>
<polygon fill="#9a32cd" stroke="#9a32cd" points="260.06,-174.64 251.35,-180.68 261.92,-181.39 260.06,-174.64"/>
</a>
</g>
<text text-anchor="middle" x="285.5" y="-179.06" font-family="Helvetica,sans-Serif" font-size="10.00" fill="grey"> socket</text>
</g>
<!-- Node12 -->
<g id="Node000012" class="node">
<title>Node12</title>
<g id="a_Node000012"><a xlink:href="structAsyncRequest.html" target="_top" xlink:title="Internal structure for tracking asynchronous I/O requests.">
<polygon fill="white" stroke="#666666" points="402,-113.56 321,-113.56 321,-94.56 402,-94.56 402,-113.56"/>
<text text-anchor="middle" x="361.5" y="-101.56" font-family="Helvetica,sans-Serif" font-size="10.00">AsyncRequest</text>
</a>
</g>
</g>
<!-- Node7&#45;&gt;Node12 -->
<g id="edge18_Node000012_Node000007" class="edge">
<title>Node7&#45;&gt;Node12</title>
<g id="a_edge18_Node000012_Node000007"><a xlink:title=" ">
<path fill="none" stroke="#9a32cd" stroke-dasharray="5,2" d="M231.71,-171.36C239.66,-157.12 252.49,-138.14 269,-127.06 284.24,-116.85 303.66,-111.17 320.68,-108.01"/>
<polygon fill="#9a32cd" stroke="#9a32cd" points="228.56,-169.83 226.99,-180.31 234.75,-173.09 228.56,-169.83"/>
</a>
</g>
<text text-anchor="middle" x="285.5" y="-141.06" font-family="Helvetica,sans-Serif" font-size="10.00" fill="grey"> cb</text>
<text text-anchor="middle" x="285.5" y="-130.06" font-family="Helvetica,sans-Serif" font-size="10.00" fill="grey">socket</text>
</g>
<!-- Node16 -->
<g id="Node000016" class="node">
<title>Node16</title>
<g id="a_Node000016"><a xlink:href="group__async__io.html#structSocketHE__Attempt__T" target="_top" xlink:title="Single connection attempt structure in Happy Eyeballs racing.">
<polygon fill="white" stroke="#666666" points="764,-41.56 651,-41.56 651,-22.56 764,-22.56 764,-41.56"/>
<text text-anchor="middle" x="707.5" y="-29.56" font-family="Helvetica,sans-Serif" font-size="10.00">SocketHE_Attempt_T</text>
</a>
</g>
</g>
<!-- Node7&#45;&gt;Node16 -->
<g id="edge25_Node000016_Node000007" class="edge">
<title>Node7&#45;&gt;Node16</title>
<g id="a_edge25_Node000016_Node000007"><a xlink:title=" ">
<path fill="none" stroke="#9a32cd" stroke-dasharray="5,2" d="M227.97,-170.56C238.86,-135.99 266.91,-64.95 320,-37.06 436.14,23.95 600.3,-5.31 671.4,-22.55"/>
<polygon fill="#9a32cd" stroke="#9a32cd" points="224.54,-169.82 225.03,-180.41 231.24,-171.83 224.54,-169.82"/>
</a>
</g>
<text text-anchor="middle" x="361.5" y="-40.06" font-family="Helvetica,sans-Serif" font-size="10.00" fill="grey"> socket</text>
</g>
<!-- Node8 -->
<g id="Node000008" class="node">
<title>Node8</title>
<g id="a_Node000008"><a xlink:href="group__foundation.html#structSocketTimeouts__T" target="_top" xlink:title="Timeout configuration structure for socket operations.">
<polygon fill="white" stroke="#666666" points="99,-199.56 0,-199.56 0,-180.56 99,-180.56 99,-199.56"/>
<text text-anchor="middle" x="49.5" y="-187.56" font-family="Helvetica,sans-Serif" font-size="10.00">SocketTimeouts_T</text>
</a>
</g>
</g>
<!-- Node8&#45;&gt;Node7 -->
<g id="edge9_Node000007_Node000008" class="edge">
<title>Node8&#45;&gt;Node7</title>
<g id="a_edge9_Node000007_Node000008"><a xlink:title=" ">
<path fill="none" stroke="#9a32cd" stroke-dasharray="5,2" d="M109.31,-190.06C137.29,-190.06 169.46,-190.06 191.98,-190.06"/>
<polygon fill="#9a32cd" stroke="#9a32cd" points="109.22,-186.56 99.22,-190.06 109.22,-193.56 109.22,-186.56"/>
</a>
</g>
<text text-anchor="middle" x="145.5" y="-193.06" font-family="Helvetica,sans-Serif" font-size="10.00" fill="grey"> tls_timeouts</text>
</g>
<!-- Node9&#45;&gt;Node5 -->
<g id="edge10_Node000005_Node000009" class="edge">
<title>Node9&#45;&gt;Node5</title>
<g id="a_edge10_Node000005_Node000009"><a xlink:title=" ">
<path fill="none" stroke="#9a32cd" stroke-dasharray="5,2" d="M507.45,-199.73C583.98,-199.13 741.49,-197.9 812.88,-197.35"/>
<polygon fill="#9a32cd" stroke="#9a32cd" points="507.17,-196.23 497.2,-199.81 507.23,-203.23 507.17,-196.23"/>
</a>
</g>
<text text-anchor="middle" x="578" y="-202.06" font-family="Helvetica,sans-Serif" font-size="10.00" fill="grey"> socket_data_map</text>
</g>
<!-- Node9&#45;&gt;Node9 -->
<g id="edge12_Node000009_Node000009" class="edge">
<title>Node9&#45;&gt;Node9</title>
<g id="a_edge12_Node000009_Node000009"><a xlink:title=" ">
<path fill="none" stroke="#9a32cd" stroke-dasharray="5,2" d="M444.58,-219.48C446.03,-224.12 452.17,-227.56 463,-227.56 480.77,-227.56 485.91,-218.3 478.41,-209.65"/>
<polygon fill="#9a32cd" stroke="#9a32cd" points="448.01,-220.23 447.59,-209.65 441.32,-218.19 448.01,-220.23"/>
</a>
</g>
<text text-anchor="middle" x="463" y="-230.56" font-family="Helvetica,sans-Serif" font-size="10.00" fill="grey"> next</text>
</g>
<!-- Node10&#45;&gt;Node5 -->
<g id="edge13_Node000005_Node000010" class="edge">
<title>Node10&#45;&gt;Node5</title>
<g id="a_edge13_Node000005_Node000010"><a xlink:title=" ">
<path fill="none" stroke="#9a32cd" stroke-dasharray="5,2" d="M514.32,-153.59C593.05,-163.8 743.49,-183.31 812.83,-192.31"/>
<polygon fill="#9a32cd" stroke="#9a32cd" points="514.53,-150.09 504.16,-152.27 513.63,-157.03 514.53,-150.09"/>
</a>
</g>
<text text-anchor="middle" x="578" y="-172.06" font-family="Helvetica,sans-Serif" font-size="10.00" fill="grey"> fd_to_socket_map</text>
</g>
<!-- Node10&#45;&gt;Node10 -->
<g id="edge15_Node000010_Node000010" class="edge">
<title>Node10&#45;&gt;Node10</title>
<g id="a_edge15_Node000010_Node000010"><a xlink:title=" ">
<path fill="none" stroke="#9a32cd" stroke-dasharray="5,2" d="M444.58,-166.48C446.03,-171.12 452.17,-174.56 463,-174.56 480.77,-174.56 485.91,-165.3 478.41,-156.65"/>
<polygon fill="#9a32cd" stroke="#9a32cd" points="448.01,-167.23 447.59,-156.65 441.32,-165.19 448.01,-167.23"/>
</a>
</g>
<text text-anchor="middle" x="463" y="-177.56" font-family="Helvetica,sans-Serif" font-size="10.00" fill="grey"> next</text>
</g>
<!-- Node11 -->
<g id="Node000011" class="node">
<title>Node11</title>
<g id="a_Node000011"><a xlink:href="group__async__io.html#structSocketAsync__T" target="_top" xlink:title="Opaque structure representing the asynchronous I/O context.">
<polygon fill="white" stroke="#666666" points="621,-113.56 535,-113.56 535,-94.56 621,-94.56 621,-113.56"/>
<text text-anchor="middle" x="578" y="-101.56" font-family="Helvetica,sans-Serif" font-size="10.00">SocketAsync_T</text>
</a>
</g>
</g>
<!-- Node11&#45;&gt;Node5 -->
<g id="edge16_Node000005_Node000011" class="edge">
<title>Node11&#45;&gt;Node5</title>
<g id="a_edge16_Node000005_Node000011"><a xlink:title=" ">
<path fill="none" stroke="#9a32cd" stroke-dasharray="5,2" d="M631.29,-96.3C671.65,-93.28 726.72,-95.98 764,-125.06 781.96,-139.08 765.75,-157.09 782,-173.06 790.43,-181.35 801.89,-186.79 812.99,-190.35"/>
<polygon fill="#9a32cd" stroke="#9a32cd" points="630.75,-92.83 621.1,-97.21 631.37,-99.81 630.75,-92.83"/>
</a>
</g>
<text text-anchor="middle" x="707.5" y="-128.06" font-family="Helvetica,sans-Serif" font-size="10.00" fill="grey"> async</text>
</g>
<!-- Node12&#45;&gt;Node11 -->
<g id="edge17_Node000011_Node000012" class="edge">
<title>Node12&#45;&gt;Node11</title>
<g id="a_edge17_Node000011_Node000012"><a xlink:title=" ">
<path fill="none" stroke="#9a32cd" stroke-dasharray="5,2" d="M412.19,-104.06C449.31,-104.06 499.5,-104.06 534.7,-104.06"/>
<polygon fill="#9a32cd" stroke="#9a32cd" points="412.09,-100.56 402.09,-104.06 412.09,-107.56 412.09,-100.56"/>
</a>
</g>
<text text-anchor="middle" x="463" y="-107.06" font-family="Helvetica,sans-Serif" font-size="10.00" fill="grey"> requests</text>
</g>
<!-- Node12&#45;&gt;Node12 -->
<g id="edge19_Node000012_Node000012" class="edge">
<title>Node12&#45;&gt;Node12</title>
<g id="a_edge19_Node000012_Node000012"><a xlink:title=" ">
<path fill="none" stroke="#9a32cd" stroke-dasharray="5,2" d="M347.5,-123.48C348.6,-128.12 353.27,-131.56 361.5,-131.56 375.01,-131.56 378.91,-122.3 373.21,-113.65"/>
<polygon fill="#9a32cd" stroke="#9a32cd" points="350.93,-124.18 349.79,-113.65 344.12,-122.6 350.93,-124.18"/>
</a>
</g>
<text text-anchor="middle" x="361.5" y="-134.56" font-family="Helvetica,sans-Serif" font-size="10.00" fill="grey"> next</text>
</g>
<!-- Node13 -->
<g id="Node000013" class="node">
<title>Node13</title>
<g id="a_Node000013"><a xlink:href="SocketTimer-private_8h.html#structSocketTimer__heap__T" target="_top" xlink:title="Typedef for the internal timer heap structure.">
<polygon fill="white" stroke="#666666" points="633,-76.56 523,-76.56 523,-57.56 633,-57.56 633,-76.56"/>
<text text-anchor="middle" x="578" y="-64.56" font-family="Helvetica,sans-Serif" font-size="10.00">SocketTimer_heap_T</text>
</a>
</g>
</g>
<!-- Node13&#45;&gt;Node5 -->
<g id="edge20_Node000005_Node000013" class="edge">
<title>Node13&#45;&gt;Node5</title>
<g id="a_edge20_Node000005_Node000013"><a xlink:title=" ">
<path fill="none" stroke="#9a32cd" stroke-dasharray="5,2" d="M628.71,-55.86C670.02,-49.69 727.71,-48.81 764,-81.06 795.14,-108.74 754.8,-141.5 782,-173.06 789.87,-182.2 801.47,-187.86 812.84,-191.37"/>
<polygon fill="#9a32cd" stroke="#9a32cd" points="627.89,-52.45 618.59,-57.52 629.02,-59.35 627.89,-52.45"/>
</a>
</g>
<text text-anchor="middle" x="707.5" y="-84.06" font-family="Helvetica,sans-Serif" font-size="10.00" fill="grey"> timer_heap</text>
</g>
<!-- Node14 -->
<g id="Node000014" class="node">
<title>Node14</title>
<g id="a_Node000014"><a xlink:href="SocketTimer-private_8h.html#structSocketTimer__T" target="_top" xlink:title=" ">
<polygon fill="white" stroke="#666666" points="403,-76.56 320,-76.56 320,-57.56 403,-57.56 403,-76.56"/>
<text text-anchor="middle" x="361.5" y="-64.56" font-family="Helvetica,sans-Serif" font-size="10.00">SocketTimer_T</text>
</a>
</g>
</g>
<!-- Node14&#45;&gt;Node13 -->
<g id="edge21_Node000013_Node000014" class="edge">
<title>Node14&#45;&gt;Node13</title>
<g id="a_edge21_Node000013_Node000014"><a xlink:title=" ">
<path fill="none" stroke="#9a32cd" stroke-dasharray="5,2" d="M413.42,-67.06C446.37,-67.06 489.21,-67.06 522.79,-67.06"/>
<polygon fill="#9a32cd" stroke="#9a32cd" points="413.1,-63.56 403.1,-67.06 413.1,-70.56 413.1,-63.56"/>
</a>
</g>
<text text-anchor="middle" x="463" y="-70.06" font-family="Helvetica,sans-Serif" font-size="10.00" fill="grey"> timers</text>
</g>
<!-- Node15 -->
<g id="Node000015" class="node">
<title>Node15</title>
<g id="a_Node000015"><a xlink:href="group__async__io.html#structSocketHE__AddressEntry__T" target="_top" xlink:title="Wrapper for resolved addresses in Happy Eyeballs address ordering.">
<polygon fill="white" stroke="#666666" points="919,-119.56 782,-119.56 782,-100.56 919,-100.56 919,-119.56"/>
<text text-anchor="middle" x="850.5" y="-107.56" font-family="Helvetica,sans-Serif" font-size="10.00">SocketHE_AddressEntry_T</text>
</a>
</g>
</g>
<!-- Node15&#45;&gt;Node1 -->
<g id="edge23_Node000001_Node000015" class="edge">
<title>Node15&#45;&gt;Node1</title>
<g id="a_edge23_Node000001_Node000015"><a xlink:title=" ">
<path fill="none" stroke="#9a32cd" stroke-dasharray="5,2" d="M892.4,-98.32C923.36,-92.06 965.3,-89.5 994,-111.06 1022.28,-132.31 1041.06,-246.87 1046.12,-281.28"/>
<polygon fill="#9a32cd" stroke="#9a32cd" points="891.36,-94.97 882.36,-100.56 892.88,-101.8 891.36,-94.97"/>
</a>
</g>
<text text-anchor="middle" x="965.5" y="-136.06" font-family="Helvetica,sans-Serif" font-size="10.00" fill="grey"> addresses</text>
<text text-anchor="middle" x="965.5" y="-125.06" font-family="Helvetica,sans-Serif" font-size="10.00" fill="grey">next_ipv4</text>
<text text-anchor="middle" x="965.5" y="-114.06" font-family="Helvetica,sans-Serif" font-size="10.00" fill="grey">next_ipv6</text>
</g>
<!-- Node16&#45;&gt;Node1 -->
<g id="edge24_Node000001_Node000016" class="edge">
<title>Node16&#45;&gt;Node1</title>
<g id="a_edge24_Node000001_Node000016"><a xlink:title=" ">
<path fill="none" stroke="#9a32cd" stroke-dasharray="5,2" d="M762.68,-47.72C763.13,-48.15 763.57,-48.6 764,-49.06 788.51,-75.44 757.22,-101.93 782,-128.06 825.56,-174.01 863.54,-136.53 919,-167.06 958.16,-188.62 962.01,-202.85 994,-234.06 1010.51,-250.18 1028.69,-270.03 1039.03,-281.54"/>
<polygon fill="#9a32cd" stroke="#9a32cd" points="764.61,-44.79 754.5,-41.64 760.44,-50.41 764.61,-44.79"/>
</a>
</g>
<text text-anchor="middle" x="850.5" y="-170.06" font-family="Helvetica,sans-Serif" font-size="10.00" fill="grey"> attempts</text>
</g>
</g>
</svg>
