<?xml version="1.0" encoding="UTF-8" standalone="no"?>
<!DOCTYPE svg PUBLIC "-//W3C//DTD SVG 1.1//EN"
 "http://www.w3.org/Graphics/SVG/1.1/DTD/svg11.dtd">
<!-- Generated by graphviz version 2.43.0 (0)
 -->
<!-- Title: SocketHTTPServer_T Pages: 1 -->
<svg width="1163pt" height="559pt"
 viewBox="0.00 0.00 1163.00 558.50" xmlns="http://www.w3.org/2000/svg" xmlns:xlink="http://www.w3.org/1999/xlink">
<g id="graph0" class="graph" transform="scale(1 1) rotate(0) translate(4 554.5)">
<title>SocketHTTPServer_T</title>
<!-- Node1 -->
<g id="Node000001" class="node">
<title>Node1</title>
<g id="a_Node000001"><a xlink:title="Internal implementation of the SocketHTTPServer opaque type.">
<polygon fill="#999999" stroke="#666666" points="1155,-195 1042,-195 1042,-176 1155,-176 1155,-195"/>
<text text-anchor="middle" x="1098.5" y="-183" font-family="Helvetica,sans-Serif" font-size="10.00">SocketHTTPServer_T</text>
</a>
</g>
</g>
<!-- Node2 -->
<g id="Node000002" class="node">
<title>Node2</title>
<g id="a_Node000002"><a xlink:href="group__http.html#structSocketHTTPServer__Config" target="_top" xlink:title="HTTP server configuration structure.">
<polygon fill="white" stroke="#666666" points="949,-450 813,-450 813,-431 949,-431 949,-450"/>
<text text-anchor="middle" x="881" y="-438" font-family="Helvetica,sans-Serif" font-size="10.00">SocketHTTPServer_Config</text>
</a>
</g>
</g>
<!-- Node2&#45;&gt;Node1 -->
<g id="edge1_Node000001_Node000002" class="edge">
<title>Node2&#45;&gt;Node1</title>
<g id="a_edge1_Node000001_Node000002"><a xlink:title=" ">
<path fill="none" stroke="#9a32cd" stroke-dasharray="5,2" d="M959.39,-438.68C982.51,-434.59 1006.36,-426.34 1024,-410.5 1090.35,-350.92 1097.03,-230.68 1097.52,-195.43"/>
<polygon fill="#9a32cd" stroke="#9a32cd" points="958.56,-435.27 949.2,-440.24 959.62,-442.19 958.56,-435.27"/>
</a>
</g>
<text text-anchor="middle" x="995.5" y="-439.5" font-family="Helvetica,sans-Serif" font-size="10.00" fill="grey"> config</text>
</g>
<!-- Node3 -->
<g id="Node000003" class="node">
<title>Node3</title>
<g id="a_Node000003"><a xlink:href="group__security.html#structSocketTLSContext__T" target="_top" xlink:title="TLS context structure for managing OpenSSL SSL_CTX with secure defaults, certificates,...">
<polygon fill="white" stroke="#666666" points="721,-493 610,-493 610,-474 721,-474 721,-493"/>
<text text-anchor="middle" x="665.5" y="-481" font-family="Helvetica,sans-Serif" font-size="10.00">SocketTLSContext_T</text>
</a>
</g>
</g>
<!-- Node3&#45;&gt;Node2 -->
<g id="edge2_Node000002_Node000003" class="edge">
<title>Node3&#45;&gt;Node2</title>
<g id="a_edge2_Node000002_Node000003"><a xlink:title=" ">
<path fill="none" stroke="#9a32cd" stroke-dasharray="5,2" d="M723.71,-471.98C757.81,-465.11 800.58,-456.5 832.75,-450.02"/>
<polygon fill="#9a32cd" stroke="#9a32cd" points="722.99,-468.55 713.88,-473.96 724.38,-475.41 722.99,-468.55"/>
</a>
</g>
<text text-anchor="middle" x="767" y="-470.5" font-family="Helvetica,sans-Serif" font-size="10.00" fill="grey"> tls_context</text>
</g>
<!-- Node3&#45;&gt;Node3 -->
<g id="edge5_Node000003_Node000003" class="edge">
<title>Node3&#45;&gt;Node3</title>
<g id="a_edge5_Node000003_Node000003"><a xlink:title=" ">
<path fill="none" stroke="#9a32cd" stroke-dasharray="5,2" d="M647.08,-502.91C648.53,-507.56 654.67,-511 665.5,-511 683.27,-511 688.41,-501.73 680.91,-493.08"/>
<polygon fill="#9a32cd" stroke="#9a32cd" points="650.51,-503.67 650.09,-493.08 643.82,-501.62 650.51,-503.67"/>
</a>
</g>
<text text-anchor="middle" x="665.5" y="-514" font-family="Helvetica,sans-Serif" font-size="10.00" fill="grey"> verify_callback</text>
</g>
<!-- Node4 -->
<g id="Node000004" class="node">
<title>Node4</title>
<g id="a_Node000004"><a xlink:href="structTLSContextSNICerts.html" target="_top" xlink:title="Structure for managing SNI certificate mappings in TLS context.">
<polygon fill="white" stroke="#666666" points="490,-512 380,-512 380,-493 490,-493 490,-512"/>
<text text-anchor="middle" x="435" y="-500" font-family="Helvetica,sans-Serif" font-size="10.00">TLSContextSNICerts</text>
</a>
</g>
</g>
<!-- Node4&#45;&gt;Node3 -->
<g id="edge3_Node000003_Node000004" class="edge">
<title>Node4&#45;&gt;Node3</title>
<g id="a_edge3_Node000003_Node000004"><a xlink:title=" ">
<path fill="none" stroke="#9a32cd" stroke-dasharray="5,2" d="M500.15,-497.17C534.74,-494.29 576.96,-490.78 609.95,-488.04"/>
<polygon fill="#9a32cd" stroke="#9a32cd" points="499.83,-493.68 490.15,-498 500.41,-500.66 499.83,-493.68"/>
</a>
</g>
<text text-anchor="middle" x="550" y="-498.5" font-family="Helvetica,sans-Serif" font-size="10.00" fill="grey"> sni_certs</text>
</g>
<!-- Node5 -->
<g id="Node000005" class="node">
<title>Node5</title>
<g id="a_Node000005"><a xlink:href="group__security.html#structTLSContextALPN" target="_top" xlink:title="Configuration for ALPN protocol negotiation.">
<polygon fill="white" stroke="#666666" points="482.5,-475 387.5,-475 387.5,-456 482.5,-456 482.5,-475"/>
<text text-anchor="middle" x="435" y="-463" font-family="Helvetica,sans-Serif" font-size="10.00">TLSContextALPN</text>
</a>
</g>
</g>
<!-- Node5&#45;&gt;Node3 -->
<g id="edge4_Node000003_Node000005" class="edge">
<title>Node5&#45;&gt;Node3</title>
<g id="a_edge4_Node000003_Node000005"><a xlink:title=" ">
<path fill="none" stroke="#9a32cd" stroke-dasharray="5,2" d="M492.72,-464.71C522.38,-464.86 559.23,-465.94 592,-469.5 601.56,-470.54 611.74,-472.17 621.36,-473.96"/>
<polygon fill="#9a32cd" stroke="#9a32cd" points="492.56,-461.21 482.55,-464.69 492.55,-468.21 492.56,-461.21"/>
</a>
</g>
<text text-anchor="middle" x="550" y="-472.5" font-family="Helvetica,sans-Serif" font-size="10.00" fill="grey"> alpn</text>
</g>
<!-- Node6 -->
<g id="Node000006" class="node">
<title>Node6</title>
<g id="a_Node000006"><a xlink:href="group__security.html#structTLSContextPinning" target="_top" xlink:title="TLSContextPinning &#45; Certificate pinning configuration.">
<polygon fill="white" stroke="#666666" points="485.5,-549 384.5,-549 384.5,-530 485.5,-530 485.5,-549"/>
<text text-anchor="middle" x="435" y="-537" font-family="Helvetica,sans-Serif" font-size="10.00">TLSContextPinning</text>
</a>
</g>
</g>
<!-- Node6&#45;&gt;Node3 -->
<g id="edge6_Node000003_Node000006" class="edge">
<title>Node6&#45;&gt;Node3</title>
<g id="a_edge6_Node000003_Node000006"><a xlink:title=" ">
<path fill="none" stroke="#9a32cd" stroke-dasharray="5,2" d="M495.75,-530.88C525.03,-526.02 560.65,-519.18 592,-510.5 609.09,-505.77 627.83,-498.74 641.97,-493.04"/>
<polygon fill="#9a32cd" stroke="#9a32cd" points="494.99,-527.45 485.68,-532.51 496.11,-534.36 494.99,-527.45"/>
</a>
</g>
<text text-anchor="middle" x="550" y="-530.5" font-family="Helvetica,sans-Serif" font-size="10.00" fill="grey"> pinning</text>
</g>
<!-- Node7 -->
<g id="Node000007" class="node">
<title>Node7</title>
<g id="a_Node000007"><a xlink:href="group__security.html#structTLSCertPin" target="_top" xlink:title="TLSCertPin &#45; Single certificate pin entry (SPKI SHA256 hash)">
<polygon fill="white" stroke="#666666" points="284,-549 216,-549 216,-530 284,-530 284,-549"/>
<text text-anchor="middle" x="250" y="-537" font-family="Helvetica,sans-Serif" font-size="10.00">TLSCertPin</text>
</a>
</g>
</g>
<!-- Node7&#45;&gt;Node6 -->
<g id="edge7_Node000006_Node000007" class="edge">
<title>Node7&#45;&gt;Node6</title>
<g id="a_edge7_Node000006_Node000007"><a xlink:title=" ">
<path fill="none" stroke="#9a32cd" stroke-dasharray="5,2" d="M294.43,-539.5C321.39,-539.5 356.13,-539.5 384.2,-539.5"/>
<polygon fill="#9a32cd" stroke="#9a32cd" points="294.14,-536 284.14,-539.5 294.14,-543 294.14,-536"/>
</a>
</g>
<text text-anchor="middle" x="344" y="-542.5" font-family="Helvetica,sans-Serif" font-size="10.00" fill="grey"> pins</text>
</g>
<!-- Node8 -->
<g id="Node000008" class="node">
<title>Node8</title>
<g id="a_Node000008"><a xlink:title=" ">
<polygon fill="white" stroke="#666666" points="279.5,-287 220.5,-287 220.5,-268 279.5,-268 279.5,-287"/>
<text text-anchor="middle" x="250" y="-275" font-family="Helvetica,sans-Serif" font-size="10.00">Socket_T</text>
</a>
</g>
</g>
<!-- Node8&#45;&gt;Node1 -->
<g id="edge8_Node000001_Node000008" class="edge">
<title>Node8&#45;&gt;Node1</title>
<g id="a_edge8_Node000001_Node000008"><a xlink:title=" ">
<path fill="none" stroke="#9a32cd" stroke-dasharray="5,2" d="M261.19,-259.17C285.39,-218.34 350.58,-123.5 434,-123.5 434,-123.5 434,-123.5 882,-123.5 956.94,-123.5 1041.03,-158.56 1078.13,-175.95"/>
<polygon fill="#9a32cd" stroke="#9a32cd" points="258.14,-257.46 256.17,-267.87 264.2,-260.95 258.14,-257.46"/>
</a>
</g>
<text text-anchor="middle" x="665.5" y="-126.5" font-family="Helvetica,sans-Serif" font-size="10.00" fill="grey"> listen_socket</text>
</g>
<!-- Node11 -->
<g id="Node000011" class="node">
<title>Node11</title>
<g id="a_Node000011"><a xlink:href="group__event__system.html#structSocketEvent__T" target="_top" xlink:title="Event notification structure returned by polling operations.">
<polygon fill="white" stroke="#666666" points="592,-212 508,-212 508,-193 592,-193 592,-212"/>
<text text-anchor="middle" x="550" y="-200" font-family="Helvetica,sans-Serif" font-size="10.00">SocketEvent_T</text>
</a>
</g>
</g>
<!-- Node8&#45;&gt;Node11 -->
<g id="edge12_Node000011_Node000008" class="edge">
<title>Node8&#45;&gt;Node11</title>
<g id="a_edge12_Node000011_Node000008"><a xlink:title=" ">
<path fill="none" stroke="#9a32cd" stroke-dasharray="5,2" d="M276.37,-263.03C290.68,-255.2 309.04,-245.68 326,-238.5 349.29,-228.63 355.28,-225.87 380,-220.5 423.11,-211.13 473.5,-206.57 507.97,-204.39"/>
<polygon fill="#9a32cd" stroke="#9a32cd" points="274.66,-259.98 267.61,-267.89 278.05,-266.1 274.66,-259.98"/>
</a>
</g>
<text text-anchor="middle" x="344" y="-241.5" font-family="Helvetica,sans-Serif" font-size="10.00" fill="grey"> socket</text>
</g>
<!-- Node12 -->
<g id="Node000012" class="node">
<title>Node12</title>
<g id="a_Node000012"><a xlink:href="group__event__system.html#structSocketData" target="_top" xlink:title="Hash table entry for socket&#45;to&#45;userdata mapping.">
<polygon fill="white" stroke="#666666" points="584,-299 516,-299 516,-280 584,-280 584,-299"/>
<text text-anchor="middle" x="550" y="-287" font-family="Helvetica,sans-Serif" font-size="10.00">SocketData</text>
</a>
</g>
</g>
<!-- Node8&#45;&gt;Node12 -->
<g id="edge14_Node000012_Node000008" class="edge">
<title>Node8&#45;&gt;Node12</title>
<g id="a_edge14_Node000012_Node000008"><a xlink:title=" ">
<path fill="none" stroke="#9a32cd" stroke-dasharray="5,2" d="M290.08,-280.81C301.64,-281.74 314.33,-282.71 326,-283.5 349.98,-285.13 355.98,-285.62 380,-286.5 427.21,-288.23 481.88,-288.97 515.96,-289.28"/>
<polygon fill="#9a32cd" stroke="#9a32cd" points="290.09,-277.3 279.84,-279.97 289.52,-284.27 290.09,-277.3"/>
</a>
</g>
<text text-anchor="middle" x="344" y="-288.5" font-family="Helvetica,sans-Serif" font-size="10.00" fill="grey"> socket</text>
</g>
<!-- Node13 -->
<g id="Node000013" class="node">
<title>Node13</title>
<g id="a_Node000013"><a xlink:href="group__event__system.html#structFdSocketEntry" target="_top" xlink:title="Hash table entry for file descriptor to socket reverse mapping.">
<polygon fill="white" stroke="#666666" points="591,-352 509,-352 509,-333 591,-333 591,-352"/>
<text text-anchor="middle" x="550" y="-340" font-family="Helvetica,sans-Serif" font-size="10.00">FdSocketEntry</text>
</a>
</g>
</g>
<!-- Node8&#45;&gt;Node13 -->
<g id="edge17_Node000013_Node000008" class="edge">
<title>Node8&#45;&gt;Node13</title>
<g id="a_edge17_Node000013_Node000008"><a xlink:title=" ">
<path fill="none" stroke="#9a32cd" stroke-dasharray="5,2" d="M289.51,-290.21C301.16,-293.81 314.03,-297.55 326,-300.5 389.3,-316.12 463.96,-329.09 508.83,-336.32"/>
<polygon fill="#9a32cd" stroke="#9a32cd" points="290.23,-286.77 279.64,-287.1 288.13,-293.44 290.23,-286.77"/>
</a>
</g>
<text text-anchor="middle" x="344" y="-311.5" font-family="Helvetica,sans-Serif" font-size="10.00" fill="grey"> socket</text>
</g>
<!-- Node15 -->
<g id="Node000015" class="node">
<title>Node15</title>
<g id="a_Node000015"><a xlink:href="structAsyncRequest.html" target="_top" xlink:title="Internal structure for tracking asynchronous I/O requests.">
<polygon fill="white" stroke="#666666" points="475.5,-248 394.5,-248 394.5,-229 475.5,-229 475.5,-248"/>
<text text-anchor="middle" x="435" y="-236" font-family="Helvetica,sans-Serif" font-size="10.00">AsyncRequest</text>
</a>
</g>
</g>
<!-- Node8&#45;&gt;Node15 -->
<g id="edge21_Node000015_Node000008" class="edge">
<title>Node8&#45;&gt;Node15</title>
<g id="a_edge21_Node000015_Node000008"><a xlink:title=" ">
<path fill="none" stroke="#9a32cd" stroke-dasharray="5,2" d="M289.74,-269.23C301.39,-266.75 314.22,-264.01 326,-261.5 348.59,-256.68 373.85,-251.31 394.25,-246.96"/>
<polygon fill="#9a32cd" stroke="#9a32cd" points="288.9,-265.83 279.85,-271.34 290.36,-272.68 288.9,-265.83"/>
</a>
</g>
<text text-anchor="middle" x="344" y="-275.5" font-family="Helvetica,sans-Serif" font-size="10.00" fill="grey"> cb</text>
<text text-anchor="middle" x="344" y="-264.5" font-family="Helvetica,sans-Serif" font-size="10.00" fill="grey">socket</text>
</g>
<!-- Node18 -->
<g id="Node000018" class="node">
<title>Node18</title>
<g id="a_Node000018"><a xlink:href="group__http.html#structServerConnection" target="_top" xlink:title="Core internal structure representing an active HTTP client connection.">
<polygon fill="white" stroke="#666666" points="482.5,-398 387.5,-398 387.5,-379 482.5,-379 482.5,-398"/>
<text text-anchor="middle" x="435" y="-386" font-family="Helvetica,sans-Serif" font-size="10.00">ServerConnection</text>
</a>
</g>
</g>
<!-- Node8&#45;&gt;Node18 -->
<g id="edge26_Node000018_Node000008" class="edge">
<title>Node8&#45;&gt;Node18</title>
<g id="a_edge26_Node000018_Node000008"><a xlink:title=" ">
<path fill="none" stroke="#9a32cd" stroke-dasharray="5,2" d="M263.9,-295.51C277.47,-313.2 300.37,-339.76 326,-355.5 344.63,-366.94 367.52,-374.68 387.42,-379.76"/>
<polygon fill="#9a32cd" stroke="#9a32cd" points="266.47,-293.11 257.69,-287.17 260.86,-297.29 266.47,-293.11"/>
</a>
</g>
<text text-anchor="middle" x="344" y="-373.5" font-family="Helvetica,sans-Serif" font-size="10.00" fill="grey"> socket</text>
</g>
<!-- Node9 -->
<g id="Node000009" class="node">
<title>Node9</title>
<g id="a_Node000009"><a xlink:href="group__foundation.html#structSocketTimeouts__T" target="_top" xlink:title="Timeout configuration structure for socket operations.">
<polygon fill="white" stroke="#666666" points="99,-287 0,-287 0,-268 99,-268 99,-287"/>
<text text-anchor="middle" x="49.5" y="-275" font-family="Helvetica,sans-Serif" font-size="10.00">SocketTimeouts_T</text>
</a>
</g>
</g>
<!-- Node9&#45;&gt;Node8 -->
<g id="edge9_Node000008_Node000009" class="edge">
<title>Node9&#45;&gt;Node8</title>
<g id="a_edge9_Node000008_Node000009"><a xlink:title=" ">
<path fill="none" stroke="#9a32cd" stroke-dasharray="5,2" d="M109.13,-277.5C145.76,-277.5 191.31,-277.5 220.28,-277.5"/>
<polygon fill="#9a32cd" stroke="#9a32cd" points="109.06,-274 99.06,-277.5 109.06,-281 109.06,-274"/>
</a>
</g>
<text text-anchor="middle" x="145.5" y="-280.5" font-family="Helvetica,sans-Serif" font-size="10.00" fill="grey"> tls_timeouts</text>
</g>
<!-- Node10 -->
<g id="Node000010" class="node">
<title>Node10</title>
<g id="a_Node000010"><a xlink:href="group__event__system.html#structSocketPoll__T" target="_top" xlink:title="Complete internal state for SocketPoll instance.">
<polygon fill="white" stroke="#666666" points="918.5,-235 843.5,-235 843.5,-216 918.5,-216 918.5,-235"/>
<text text-anchor="middle" x="881" y="-223" font-family="Helvetica,sans-Serif" font-size="10.00">SocketPoll_T</text>
</a>
</g>
</g>
<!-- Node10&#45;&gt;Node1 -->
<g id="edge10_Node000001_Node000010" class="edge">
<title>Node10&#45;&gt;Node1</title>
<g id="a_edge10_Node000001_Node000010"><a xlink:title=" ">
<path fill="none" stroke="#9a32cd" stroke-dasharray="5,2" d="M928.43,-216.88C963.08,-210.45 1010.42,-201.66 1046.2,-195.02"/>
<polygon fill="#9a32cd" stroke="#9a32cd" points="927.75,-213.45 918.56,-218.71 929.03,-220.33 927.75,-213.45"/>
</a>
</g>
<text text-anchor="middle" x="995.5" y="-211.5" font-family="Helvetica,sans-Serif" font-size="10.00" fill="grey"> poll</text>
</g>
<!-- Node11&#45;&gt;Node10 -->
<g id="edge11_Node000010_Node000011" class="edge">
<title>Node11&#45;&gt;Node10</title>
<g id="a_edge11_Node000010_Node000011"><a xlink:title=" ">
<path fill="none" stroke="#9a32cd" stroke-dasharray="5,2" d="M602.29,-206.09C669.08,-210.75 784.21,-218.8 843.05,-222.92"/>
<polygon fill="#9a32cd" stroke="#9a32cd" points="602.22,-202.57 592,-205.37 601.73,-209.56 602.22,-202.57"/>
</a>
</g>
<text text-anchor="middle" x="665.5" y="-216.5" font-family="Helvetica,sans-Serif" font-size="10.00" fill="grey"> socketevents</text>
</g>
<!-- Node12&#45;&gt;Node10 -->
<g id="edge13_Node000010_Node000012" class="edge">
<title>Node12&#45;&gt;Node10</title>
<g id="a_edge13_Node000010_Node000012"><a xlink:title=" ">
<path fill="none" stroke="#9a32cd" stroke-dasharray="5,2" d="M594.14,-286C643.3,-281.4 725.81,-271.78 795,-254.5 815.72,-249.32 838.61,-241.38 855.41,-235.12"/>
<polygon fill="#9a32cd" stroke="#9a32cd" points="593.81,-282.52 584.17,-286.91 594.45,-289.49 593.81,-282.52"/>
</a>
</g>
<text text-anchor="middle" x="665.5" y="-286.5" font-family="Helvetica,sans-Serif" font-size="10.00" fill="grey"> socket_data_map</text>
</g>
<!-- Node12&#45;&gt;Node12 -->
<g id="edge15_Node000012_Node000012" class="edge">
<title>Node12&#45;&gt;Node12</title>
<g id="a_edge15_Node000012_Node000012"><a xlink:title=" ">
<path fill="none" stroke="#9a32cd" stroke-dasharray="5,2" d="M528.89,-308.55C530.3,-313.38 537.34,-317 550,-317 570.26,-317 576.12,-307.73 567.57,-299.08"/>
<polygon fill="#9a32cd" stroke="#9a32cd" points="532.21,-309.68 532.43,-299.08 525.65,-307.22 532.21,-309.68"/>
</a>
</g>
<text text-anchor="middle" x="550" y="-320" font-family="Helvetica,sans-Serif" font-size="10.00" fill="grey"> next</text>
</g>
<!-- Node13&#45;&gt;Node10 -->
<g id="edge16_Node000010_Node000013" class="edge">
<title>Node13&#45;&gt;Node10</title>
<g id="a_edge16_Node000010_Node000013"><a xlink:title=" ">
<path fill="none" stroke="#9a32cd" stroke-dasharray="5,2" d="M601.09,-332.78C651.47,-321.99 730.69,-302.21 795,-273.5 820.53,-262.1 848.46,-245.45 865.09,-235.06"/>
<polygon fill="#9a32cd" stroke="#9a32cd" points="600.17,-329.4 591.1,-334.88 601.61,-336.25 600.17,-329.4"/>
</a>
</g>
<text text-anchor="middle" x="665.5" y="-333.5" font-family="Helvetica,sans-Serif" font-size="10.00" fill="grey"> fd_to_socket_map</text>
</g>
<!-- Node13&#45;&gt;Node13 -->
<g id="edge18_Node000013_Node000013" class="edge">
<title>Node13&#45;&gt;Node13</title>
<g id="a_edge18_Node000013_Node000013"><a xlink:title=" ">
<path fill="none" stroke="#9a32cd" stroke-dasharray="5,2" d="M528.89,-361.55C530.3,-366.38 537.34,-370 550,-370 570.26,-370 576.12,-360.73 567.57,-352.08"/>
<polygon fill="#9a32cd" stroke="#9a32cd" points="532.21,-362.68 532.43,-352.08 525.65,-360.22 532.21,-362.68"/>
</a>
</g>
<text text-anchor="middle" x="550" y="-373" font-family="Helvetica,sans-Serif" font-size="10.00" fill="grey"> next</text>
</g>
<!-- Node14 -->
<g id="Node000014" class="node">
<title>Node14</title>
<g id="a_Node000014"><a xlink:href="group__async__io.html#structSocketAsync__T" target="_top" xlink:title="Opaque structure representing the asynchronous I/O context.">
<polygon fill="white" stroke="#666666" points="708.5,-257 622.5,-257 622.5,-238 708.5,-238 708.5,-257"/>
<text text-anchor="middle" x="665.5" y="-245" font-family="Helvetica,sans-Serif" font-size="10.00">SocketAsync_T</text>
</a>
</g>
</g>
<!-- Node14&#45;&gt;Node10 -->
<g id="edge19_Node000010_Node000014" class="edge">
<title>Node14&#45;&gt;Node10</title>
<g id="a_edge19_Node000010_Node000014"><a xlink:title=" ">
<path fill="none" stroke="#9a32cd" stroke-dasharray="5,2" d="M718.7,-242.12C757.3,-238.14 808.91,-232.83 843.25,-229.29"/>
<polygon fill="#9a32cd" stroke="#9a32cd" points="718.27,-238.65 708.68,-243.15 718.99,-245.61 718.27,-238.65"/>
</a>
</g>
<text text-anchor="middle" x="767" y="-242.5" font-family="Helvetica,sans-Serif" font-size="10.00" fill="grey"> async</text>
</g>
<!-- Node15&#45;&gt;Node14 -->
<g id="edge20_Node000014_Node000015" class="edge">
<title>Node15&#45;&gt;Node14</title>
<g id="a_edge20_Node000014_Node000015"><a xlink:title=" ">
<path fill="none" stroke="#9a32cd" stroke-dasharray="5,2" d="M485.55,-240.45C526.39,-242.06 583.68,-244.32 622.35,-245.84"/>
<polygon fill="#9a32cd" stroke="#9a32cd" points="485.67,-236.95 475.54,-240.06 485.4,-243.95 485.67,-236.95"/>
</a>
</g>
<text text-anchor="middle" x="550" y="-247.5" font-family="Helvetica,sans-Serif" font-size="10.00" fill="grey"> requests</text>
</g>
<!-- Node15&#45;&gt;Node15 -->
<g id="edge22_Node000015_Node000015" class="edge">
<title>Node15&#45;&gt;Node15</title>
<g id="a_edge22_Node000015_Node000015"><a xlink:title=" ">
<path fill="none" stroke="#9a32cd" stroke-dasharray="5,2" d="M418.43,-257.91C419.73,-262.56 425.25,-266 435,-266 451,-266 455.62,-256.73 448.87,-248.08"/>
<polygon fill="#9a32cd" stroke="#9a32cd" points="421.85,-258.65 421.13,-248.08 415.1,-256.8 421.85,-258.65"/>
</a>
</g>
<text text-anchor="middle" x="435" y="-269" font-family="Helvetica,sans-Serif" font-size="10.00" fill="grey"> next</text>
</g>
<!-- Node16 -->
<g id="Node000016" class="node">
<title>Node16</title>
<g id="a_Node000016"><a xlink:href="SocketTimer-private_8h.html#structSocketTimer__heap__T" target="_top" xlink:title="Typedef for the internal timer heap structure.">
<polygon fill="white" stroke="#666666" points="720.5,-172 610.5,-172 610.5,-153 720.5,-153 720.5,-172"/>
<text text-anchor="middle" x="665.5" y="-160" font-family="Helvetica,sans-Serif" font-size="10.00">SocketTimer_heap_T</text>
</a>
</g>
</g>
<!-- Node16&#45;&gt;Node10 -->
<g id="edge23_Node000010_Node000016" class="edge">
<title>Node16&#45;&gt;Node10</title>
<g id="a_edge23_Node000010_Node000016"><a xlink:title=" ">
<path fill="none" stroke="#9a32cd" stroke-dasharray="5,2" d="M730.81,-169.19C751.6,-172.36 774.56,-176.94 795,-183.5 820.39,-191.65 847.68,-206.3 864.31,-215.97"/>
<polygon fill="#9a32cd" stroke="#9a32cd" points="731.19,-165.71 720.79,-167.74 730.19,-172.64 731.19,-165.71"/>
</a>
</g>
<text text-anchor="middle" x="767" y="-186.5" font-family="Helvetica,sans-Serif" font-size="10.00" fill="grey"> timer_heap</text>
</g>
<!-- Node17 -->
<g id="Node000017" class="node">
<title>Node17</title>
<g id="a_Node000017"><a xlink:href="SocketTimer-private_8h.html#structSocketTimer__T" target="_top" xlink:title=" ">
<polygon fill="white" stroke="#666666" points="476.5,-172 393.5,-172 393.5,-153 476.5,-153 476.5,-172"/>
<text text-anchor="middle" x="435" y="-160" font-family="Helvetica,sans-Serif" font-size="10.00">SocketTimer_T</text>
</a>
</g>
</g>
<!-- Node17&#45;&gt;Node16 -->
<g id="edge24_Node000016_Node000017" class="edge">
<title>Node17&#45;&gt;Node16</title>
<g id="a_edge24_Node000016_Node000017"><a xlink:title=" ">
<path fill="none" stroke="#9a32cd" stroke-dasharray="5,2" d="M487.03,-162.5C523.61,-162.5 572.81,-162.5 610.13,-162.5"/>
<polygon fill="#9a32cd" stroke="#9a32cd" points="486.59,-159 476.59,-162.5 486.59,-166 486.59,-159"/>
</a>
</g>
<text text-anchor="middle" x="550" y="-165.5" font-family="Helvetica,sans-Serif" font-size="10.00" fill="grey"> timers</text>
</g>
<!-- Node18&#45;&gt;Node1 -->
<g id="edge25_Node000001_Node000018" class="edge">
<title>Node18&#45;&gt;Node1</title>
<g id="a_edge25_Node000001_Node000018"><a xlink:title=" ">
<path fill="none" stroke="#9a32cd" stroke-dasharray="5,2" d="M492.9,-389.59C522.6,-389.33 559.44,-387.72 592,-382.5 794.75,-350.01 1018.76,-230 1080.79,-195.09"/>
<polygon fill="#9a32cd" stroke="#9a32cd" points="492.69,-386.09 482.71,-389.63 492.72,-393.09 492.69,-386.09"/>
</a>
</g>
<text text-anchor="middle" x="767" y="-348.5" font-family="Helvetica,sans-Serif" font-size="10.00" fill="grey"> connections</text>
</g>
<!-- Node18&#45;&gt;Node18 -->
<g id="edge28_Node000018_Node000018" class="edge">
<title>Node18&#45;&gt;Node18</title>
<g id="a_edge28_Node000018_Node000018"><a xlink:title=" ">
<path fill="none" stroke="#9a32cd" stroke-dasharray="5,2" d="M418.43,-407.91C419.73,-412.56 425.25,-416 435,-416 451,-416 455.62,-406.73 448.87,-398.08"/>
<polygon fill="#9a32cd" stroke="#9a32cd" points="421.85,-408.65 421.13,-398.08 415.1,-406.8 421.85,-408.65"/>
</a>
</g>
<text text-anchor="middle" x="435" y="-430" font-family="Helvetica,sans-Serif" font-size="10.00" fill="grey"> next</text>
<text text-anchor="middle" x="435" y="-419" font-family="Helvetica,sans-Serif" font-size="10.00" fill="grey">prev</text>
</g>
<!-- Node19 -->
<g id="Node000019" class="node">
<title>Node19</title>
<g id="a_Node000019"><a xlink:href="group__http.html#structSocketHTTP__Request" target="_top" xlink:title="Protocol&#45;agnostic representation of an HTTP request message.">
<polygon fill="white" stroke="#666666" points="308,-421 192,-421 192,-402 308,-402 308,-421"/>
<text text-anchor="middle" x="250" y="-409" font-family="Helvetica,sans-Serif" font-size="10.00">SocketHTTP_Request</text>
</a>
</g>
</g>
<!-- Node19&#45;&gt;Node18 -->
<g id="edge27_Node000018_Node000019" class="edge">
<title>Node19&#45;&gt;Node18</title>
<g id="a_edge27_Node000018_Node000019"><a xlink:title=" ">
<path fill="none" stroke="#9a32cd" stroke-dasharray="5,2" d="M318.19,-403.06C341.18,-400.17 366.38,-397 387.39,-394.36"/>
<polygon fill="#9a32cd" stroke="#9a32cd" points="317.64,-399.6 308.15,-404.32 318.51,-406.54 317.64,-399.6"/>
</a>
</g>
<text text-anchor="middle" x="344" y="-404.5" font-family="Helvetica,sans-Serif" font-size="10.00" fill="grey"> request</text>
</g>
<!-- Node20 -->
<g id="Node000020" class="node">
<title>Node20</title>
<g id="a_Node000020"><a xlink:href="group__http.html#structRateLimitEntry" target="_top" xlink:title="Linked list entry for per&#45;path rate limiters.">
<polygon fill="white" stroke="#666666" points="922,-19 840,-19 840,0 922,0 922,-19"/>
<text text-anchor="middle" x="881" y="-7" font-family="Helvetica,sans-Serif" font-size="10.00">RateLimitEntry</text>
</a>
</g>
</g>
<!-- Node20&#45;&gt;Node1 -->
<g id="edge29_Node000001_Node000020" class="edge">
<title>Node20&#45;&gt;Node1</title>
<g id="a_edge29_Node000001_Node000020"><a xlink:title=" ">
<path fill="none" stroke="#9a32cd" stroke-dasharray="5,2" d="M932.2,-18.16C961.51,-25.27 997.78,-37.83 1024,-59.5 1063.63,-92.25 1086.63,-152.29 1094.45,-175.75"/>
<polygon fill="#9a32cd" stroke="#9a32cd" points="932.67,-14.68 922.15,-15.86 931.12,-21.5 932.67,-14.68"/>
</a>
</g>
<text text-anchor="middle" x="995.5" y="-62.5" font-family="Helvetica,sans-Serif" font-size="10.00" fill="grey"> rate_limiters</text>
</g>
<!-- Node20&#45;&gt;Node20 -->
<g id="edge31_Node000020_Node000020" class="edge">
<title>Node20&#45;&gt;Node20</title>
<g id="a_edge31_Node000020_Node000020"><a xlink:title=" ">
<path fill="none" stroke="#9a32cd" stroke-dasharray="5,2" d="M859.89,-28.55C861.3,-33.38 868.34,-37 881,-37 901.26,-37 907.12,-27.73 898.57,-19.08"/>
<polygon fill="#9a32cd" stroke="#9a32cd" points="863.21,-29.68 863.43,-19.08 856.65,-27.22 863.21,-29.68"/>
</a>
</g>
<text text-anchor="middle" x="881" y="-40" font-family="Helvetica,sans-Serif" font-size="10.00" fill="grey"> next</text>
</g>
<!-- Node21 -->
<g id="Node000021" class="node">
<title>Node21</title>
<g id="a_Node000021"><a xlink:href="SocketRateLimit-private_8h.html#structSocketRateLimit__T" target="_top" xlink:title=" ">
<polygon fill="white" stroke="#666666" points="716,-78 615,-78 615,-59 716,-59 716,-78"/>
<text text-anchor="middle" x="665.5" y="-66" font-family="Helvetica,sans-Serif" font-size="10.00">SocketRateLimit_T</text>
</a>
</g>
</g>
<!-- Node21&#45;&gt;Node1 -->
<g id="edge32_Node000001_Node000021" class="edge">
<title>Node21&#45;&gt;Node1</title>
<g id="a_edge32_Node000001_Node000021"><a xlink:title=" ">
<path fill="none" stroke="#9a32cd" stroke-dasharray="5,2" d="M726.1,-70.29C813.99,-73.77 973.4,-83.55 1024,-109.5 1054.87,-125.33 1080.22,-159.21 1091.37,-175.86"/>
<polygon fill="#9a32cd" stroke="#9a32cd" points="726.14,-66.79 716.01,-69.91 725.87,-73.79 726.14,-66.79"/>
</a>
</g>
<text text-anchor="middle" x="881" y="-92.5" font-family="Helvetica,sans-Serif" font-size="10.00" fill="grey"> global_rate_limiter</text>
</g>
<!-- Node21&#45;&gt;Node20 -->
<g id="edge30_Node000020_Node000021" class="edge">
<title>Node21&#45;&gt;Node20</title>
<g id="a_edge30_Node000020_Node000021"><a xlink:title=" ">
<path fill="none" stroke="#9a32cd" stroke-dasharray="5,2" d="M711.04,-56.19C751.07,-45.13 809.03,-29.11 845.59,-19.01"/>
<polygon fill="#9a32cd" stroke="#9a32cd" points="709.98,-52.85 701.28,-58.89 711.85,-59.6 709.98,-52.85"/>
</a>
</g>
<text text-anchor="middle" x="767" y="-51.5" font-family="Helvetica,sans-Serif" font-size="10.00" fill="grey"> limiter</text>
</g>
</g>
</svg>
