<?xml version="1.0" encoding="UTF-8" standalone="no"?>
<!DOCTYPE svg PUBLIC "-//W3C//DTD SVG 1.1//EN"
 "http://www.w3.org/Graphics/SVG/1.1/DTD/svg11.dtd">
<!-- Generated by graphviz version 2.43.0 (0)
 -->
<!-- Title: SocketHTTPClient_Request_T Pages: 1 -->
<svg width="248pt" height="93pt"
 viewBox="0.00 0.00 248.00 93.00" xmlns="http://www.w3.org/2000/svg" xmlns:xlink="http://www.w3.org/1999/xlink">
<g id="graph0" class="graph" transform="scale(1 1) rotate(0) translate(4 89)">
<title>SocketHTTPClient_Request_T</title>
<!-- Node1 -->
<g id="Node000001" class="node">
<title>Node1</title>
<g id="a_Node000001"><a xlink:title="Per&#45;request builder and state for custom HTTP requests.">
<polygon fill="#999999" stroke="#666666" points="188.5,-19 36.5,-19 36.5,0 188.5,0 188.5,-19"/>
<text text-anchor="middle" x="112.5" y="-7" font-family="Helvetica,sans-Serif" font-size="10.00">SocketHTTPClient_Request_T</text>
</a>
</g>
</g>
<!-- Node2 -->
<g id="Node000002" class="node">
<title>Node2</title>
<g id="a_Node000002"><a xlink:href="group__http.html#structSocketHTTP__URI" target="_top" xlink:title="Parsed URI components according to RFC 3986.">
<polygon fill="white" stroke="#666666" points="97,-85 0,-85 0,-66 97,-66 97,-85"/>
<text text-anchor="middle" x="48.5" y="-73" font-family="Helvetica,sans-Serif" font-size="10.00">SocketHTTP_URI</text>
</a>
</g>
</g>
<!-- Node2&#45;&gt;Node1 -->
<g id="edge1_Node000001_Node000002" class="edge">
<title>Node2&#45;&gt;Node1</title>
<g id="a_edge1_Node000001_Node000002"><a xlink:title=" ">
<path fill="none" stroke="#9a32cd" stroke-dasharray="5,2" d="M64.52,-58.48C76.88,-46.12 93.51,-29.49 103.59,-19.41"/>
<polygon fill="#9a32cd" stroke="#9a32cd" points="61.73,-56.32 57.13,-65.87 66.68,-61.27 61.73,-56.32"/>
</a>
</g>
<text text-anchor="middle" x="91.5" y="-40" font-family="Helvetica,sans-Serif" font-size="10.00" fill="grey"> uri</text>
</g>
<!-- Node3 -->
<g id="Node000003" class="node">
<title>Node3</title>
<g id="a_Node000003"><a xlink:href="group__http__client.html#structSocketHTTPClient__Auth" target="_top" xlink:title="Authentication credentials structure.">
<polygon fill="white" stroke="#666666" points="240,-85 115,-85 115,-66 240,-66 240,-85"/>
<text text-anchor="middle" x="177.5" y="-73" font-family="Helvetica,sans-Serif" font-size="10.00">SocketHTTPClient_Auth</text>
</a>
</g>
</g>
<!-- Node3&#45;&gt;Node1 -->
<g id="edge2_Node000001_Node000003" class="edge">
<title>Node3&#45;&gt;Node1</title>
<g id="a_edge2_Node000001_Node000003"><a xlink:title=" ">
<path fill="none" stroke="#9a32cd" stroke-dasharray="5,2" d="M161.58,-58.83C149,-46.44 131.88,-29.59 121.54,-19.41"/>
<polygon fill="#9a32cd" stroke="#9a32cd" points="159.15,-61.35 168.73,-65.87 164.06,-56.36 159.15,-61.35"/>
</a>
</g>
<text text-anchor="middle" x="159.5" y="-40" font-family="Helvetica,sans-Serif" font-size="10.00" fill="grey"> auth</text>
</g>
</g>
</svg>
