<?xml version="1.0" encoding="UTF-8" standalone="no"?>
<!DOCTYPE svg PUBLIC "-//W3C//DTD SVG 1.1//EN"
 "http://www.w3.org/Graphics/SVG/1.1/DTD/svg11.dtd">
<!-- Generated by graphviz version 2.43.0 (0)
 -->
<!-- Title: SocketSYNProtect_T Pages: 1 -->
<svg width="356pt" height="247pt"
 viewBox="0.00 0.00 356.00 247.00" xmlns="http://www.w3.org/2000/svg" xmlns:xlink="http://www.w3.org/1999/xlink">

<svg id="main" version="1.1" xmlns="http://www.w3.org/2000/svg" xmlns:xlink="http://www.w3.org/1999/xlink" xml:space="preserve" onload="init(evt)">
<style type="text/css"><![CDATA[
.node, .edge {opacity: 0.7;}
.node.selected, .edge.selected {opacity: 1;}
.edge:hover path { stroke: red; }
.edge:hover polygon { stroke: red; fill: red; }
]]></style>
<script type="application/ecmascript" xlink:href="svg.min.js"/>
<svg id="graph" class="graph">
<g id="graph0" class="graph" transform="scale(1 1) rotate(0) translate(4 243)">
<title>SocketSYNProtect_T</title>
<!-- Node1 -->
<g id="Node000001" class="node">
<title>Node1</title>
<g id="a_Node000001"><a xlink:title="Core internal structure for the SYN protection module.">
<polygon fill="#999999" stroke="#666666" points="348,-89 237,-89 237,-70 348,-70 348,-89"/>
<text text-anchor="middle" x="292.5" y="-77" font-family="Helvetica,sans-Serif" font-size="10.00">SocketSYNProtect_T</text>
</a>
</g>
</g>
<!-- Node2 -->
<g id="Node000002" class="node">
<title>Node2</title>
<g id="a_Node000002"><a xlink:href="group__security.html#structSocketSYN__IPEntry" target="_top" xlink:title="Internal IP tracking entry for hash table and LRU management.">
<polygon fill="white" stroke="#666666" points="121,-188 14,-188 14,-169 121,-169 121,-188"/>
<text text-anchor="middle" x="67.5" y="-176" font-family="Helvetica,sans-Serif" font-size="10.00">SocketSYN_IPEntry</text>
</a>
</g>
</g>
<!-- Node2&#45;&gt;Node1 -->
<g id="edge1_Node000001_Node000002" class="edge">
<title>Node2&#45;&gt;Node1</title>
<g id="a_edge1_Node000001_Node000002"><a xlink:title=" ">
<path fill="none" stroke="#9a32cd" stroke-dasharray="5,2" d="M119.11,-166.02C124.53,-164.32 129.91,-162.48 135,-160.5 188.6,-139.65 247.88,-105.74 275.59,-89.2"/>
<polygon fill="#9a32cd" stroke="#9a32cd" points="117.98,-162.71 109.39,-168.91 119.97,-169.42 117.98,-162.71"/>
</a>
</g>
<text text-anchor="middle" x="186" y="-175.5" font-family="Helvetica,sans-Serif" font-size="10.00" fill="grey"> ip_table</text>
<text text-anchor="middle" x="186" y="-164.5" font-family="Helvetica,sans-Serif" font-size="10.00" fill="grey">lru_head</text>
<text text-anchor="middle" x="186" y="-153.5" font-family="Helvetica,sans-Serif" font-size="10.00" fill="grey">lru_tail</text>
</g>
<!-- Node2&#45;&gt;Node2 -->
<g id="edge2_Node000002_Node000002" class="edge">
<title>Node2&#45;&gt;Node2</title>
<g id="a_edge2_Node000002_Node000002"><a xlink:title=" ">
<path fill="none" stroke="#9a32cd" stroke-dasharray="5,2" d="M45.65,-197.55C47.11,-202.38 54.39,-206 67.5,-206 88.47,-206 94.54,-196.73 85.69,-188.08"/>
<polygon fill="#9a32cd" stroke="#9a32cd" points="48.97,-198.67 49.31,-188.08 42.44,-196.15 48.97,-198.67"/>
</a>
</g>
<text text-anchor="middle" x="67.5" y="-231" font-family="Helvetica,sans-Serif" font-size="10.00" fill="grey"> hash_next</text>
<text text-anchor="middle" x="67.5" y="-220" font-family="Helvetica,sans-Serif" font-size="10.00" fill="grey">lru_next</text>
<text text-anchor="middle" x="67.5" y="-209" font-family="Helvetica,sans-Serif" font-size="10.00" fill="grey">lru_prev</text>
</g>
<!-- Node3 -->
<g id="Node000003" class="node">
<title>Node3</title>
<g id="a_Node000003"><a xlink:href="group__security.html#structSocketSYN__WhitelistEntry" target="_top" xlink:title="Structure for whitelist entries supporting single IPs and CIDR ranges.">
<polygon fill="white" stroke="#666666" points="135,-122 0,-122 0,-103 135,-103 135,-122"/>
<text text-anchor="middle" x="67.5" y="-110" font-family="Helvetica,sans-Serif" font-size="10.00">SocketSYN_WhitelistEntry</text>
</a>
</g>
</g>
<!-- Node3&#45;&gt;Node1 -->
<g id="edge3_Node000001_Node000003" class="edge">
<title>Node3&#45;&gt;Node1</title>
<g id="a_edge3_Node000001_Node000003"><a xlink:title=" ">
<path fill="none" stroke="#9a32cd" stroke-dasharray="5,2" d="M142.93,-101.49C173.62,-96.94 208.54,-91.78 236.81,-87.59"/>
<polygon fill="#9a32cd" stroke="#9a32cd" points="142.08,-98.07 132.7,-103 143.11,-105 142.08,-98.07"/>
</a>
</g>
<text text-anchor="middle" x="186" y="-102.5" font-family="Helvetica,sans-Serif" font-size="10.00" fill="grey"> whitelist_table</text>
</g>
<!-- Node3&#45;&gt;Node3 -->
<g id="edge4_Node000003_Node000003" class="edge">
<title>Node3&#45;&gt;Node3</title>
<g id="a_edge4_Node000003_Node000003"><a xlink:title=" ">
<path fill="none" stroke="#9a32cd" stroke-dasharray="5,2" d="M45.65,-131.55C47.11,-136.38 54.39,-140 67.5,-140 88.47,-140 94.54,-130.73 85.69,-122.08"/>
<polygon fill="#9a32cd" stroke="#9a32cd" points="48.97,-132.67 49.31,-122.08 42.44,-130.15 48.97,-132.67"/>
</a>
</g>
<text text-anchor="middle" x="67.5" y="-143" font-family="Helvetica,sans-Serif" font-size="10.00" fill="grey"> next</text>
</g>
<!-- Node4 -->
<g id="Node000004" class="node">
<title>Node4</title>
<g id="a_Node000004"><a xlink:href="group__security.html#structSocketSYN__BlacklistEntry" target="_top" xlink:title="Internal structure for blacklisted IP addresses with expiry support.">
<polygon fill="white" stroke="#666666" points="134.5,-56 0.5,-56 0.5,-37 134.5,-37 134.5,-56"/>
<text text-anchor="middle" x="67.5" y="-44" font-family="Helvetica,sans-Serif" font-size="10.00">SocketSYN_BlacklistEntry</text>
</a>
</g>
</g>
<!-- Node4&#45;&gt;Node1 -->
<g id="edge5_Node000001_Node000004" class="edge">
<title>Node4&#45;&gt;Node1</title>
<g id="a_edge5_Node000001_Node000004"><a xlink:title=" ">
<path fill="none" stroke="#9a32cd" stroke-dasharray="5,2" d="M142.93,-57.51C173.62,-62.06 208.54,-67.22 236.81,-71.41"/>
<polygon fill="#9a32cd" stroke="#9a32cd" points="143.11,-54 132.7,-56 142.08,-60.93 143.11,-54"/>
</a>
</g>
<text text-anchor="middle" x="186" y="-70.5" font-family="Helvetica,sans-Serif" font-size="10.00" fill="grey"> blacklist_table</text>
</g>
<!-- Node4&#45;&gt;Node4 -->
<g id="edge6_Node000004_Node000004" class="edge">
<title>Node4&#45;&gt;Node4</title>
<g id="a_edge6_Node000004_Node000004"><a xlink:title=" ">
<path fill="none" stroke="#9a32cd" stroke-dasharray="5,2" d="M45.65,-65.55C47.11,-70.38 54.39,-74 67.5,-74 88.47,-74 94.54,-64.73 85.69,-56.08"/>
<polygon fill="#9a32cd" stroke="#9a32cd" points="48.97,-66.67 49.31,-56.08 42.44,-64.15 48.97,-66.67"/>
</a>
</g>
<text text-anchor="middle" x="67.5" y="-77" font-family="Helvetica,sans-Serif" font-size="10.00" fill="grey"> next</text>
</g>
<!-- Node5 -->
<g id="Node000005" class="node">
<title>Node5</title>
<g id="a_Node000005"><a xlink:href="SocketRateLimit-private_8h.html#structSocketRateLimit__T" target="_top" xlink:title=" ">
<polygon fill="white" stroke="#666666" points="118,-19 17,-19 17,0 118,0 118,-19"/>
<text text-anchor="middle" x="67.5" y="-7" font-family="Helvetica,sans-Serif" font-size="10.00">SocketRateLimit_T</text>
</a>
</g>
</g>
<!-- Node5&#45;&gt;Node1 -->
<g id="edge7_Node000001_Node000005" class="edge">
<title>Node5&#45;&gt;Node1</title>
<g id="a_edge7_Node000001_Node000005"><a xlink:title=" ">
<path fill="none" stroke="#9a32cd" stroke-dasharray="5,2" d="M128.19,-19.58C156.2,-25.17 189.78,-33.11 219,-43.5 238.99,-50.61 260.63,-61.86 275.01,-69.89"/>
<polygon fill="#9a32cd" stroke="#9a32cd" points="128.62,-16.1 118.14,-17.63 127.29,-22.97 128.62,-16.1"/>
</a>
</g>
<text text-anchor="middle" x="186" y="-46.5" font-family="Helvetica,sans-Serif" font-size="10.00" fill="grey"> global_limiter</text>
</g>
</g>
</svg>
</svg>

<style type='text/css'>
<![CDATA[
[data-mouse-over-selected='false'] { opacity: 0.7; }
[data-mouse-over-selected='true']  { opacity: 1.0; }
]]>
</style>
<script type="application/ecmascript"><![CDATA[
document.addEventListener('DOMContentLoaded', (event) => {
  highlightEdges();
  highlightAdjacentNodes();
});
]]></script>
</svg>
