<?xml version="1.0" encoding="UTF-8" standalone="no"?>
<!DOCTYPE svg PUBLIC "-//W3C//DTD SVG 1.1//EN"
 "http://www.w3.org/Graphics/SVG/1.1/DTD/svg11.dtd">
<!-- Generated by graphviz version 2.43.0 (0)
 -->
<!-- Title: SocketData Pages: 1 -->
<svg width="132pt" height="159pt"
 viewBox="0.00 0.00 131.50 159.00" xmlns="http://www.w3.org/2000/svg" xmlns:xlink="http://www.w3.org/1999/xlink">
<g id="graph0" class="graph" transform="scale(1 1) rotate(0) translate(4 155)">
<title>SocketData</title>
<!-- Node1 -->
<g id="Node000001" class="node">
<title>Node1</title>
<g id="a_Node000001"><a xlink:title="Hash table entry for socket&#45;to&#45;userdata mapping.">
<polygon fill="#999999" stroke="#666666" points="83.5,-19 15.5,-19 15.5,0 83.5,0 83.5,-19"/>
<text text-anchor="middle" x="49.5" y="-7" font-family="Helvetica,sans-Serif" font-size="10.00">SocketData</text>
</a>
</g>
</g>
<!-- Node1&#45;&gt;Node1 -->
<g id="edge3_Node000001_Node000001" class="edge">
<title>Node1&#45;&gt;Node1</title>
<g id="a_edge3_Node000001_Node000001"><a xlink:title=" ">
<path fill="none" stroke="#9a32cd" stroke-dasharray="5,2" d="M93.65,-14.52C98.42,-13.56 101.5,-11.88 101.5,-9.5 101.5,-5.69 93.63,-3.69 83.51,-3.51"/>
<polygon fill="#9a32cd" stroke="#9a32cd" points="93.13,-11.05 83.51,-15.49 93.8,-18.02 93.13,-11.05"/>
</a>
</g>
<text text-anchor="middle" x="112.5" y="-7" font-family="Helvetica,sans-Serif" font-size="10.00" fill="grey"> next</text>
</g>
<!-- Node2 -->
<g id="Node000002" class="node">
<title>Node2</title>
<g id="a_Node000002"><a xlink:title=" ">
<polygon fill="white" stroke="#666666" points="79,-85 20,-85 20,-66 79,-66 79,-85"/>
<text text-anchor="middle" x="49.5" y="-73" font-family="Helvetica,sans-Serif" font-size="10.00">Socket_T</text>
</a>
</g>
</g>
<!-- Node2&#45;&gt;Node1 -->
<g id="edge1_Node000001_Node000002" class="edge">
<title>Node2&#45;&gt;Node1</title>
<g id="a_edge1_Node000001_Node000002"><a xlink:title=" ">
<path fill="none" stroke="#9a32cd" stroke-dasharray="5,2" d="M49.5,-55.58C49.5,-43.63 49.5,-28.72 49.5,-19.41"/>
<polygon fill="#9a32cd" stroke="#9a32cd" points="46,-55.87 49.5,-65.87 53,-55.87 46,-55.87"/>
</a>
</g>
<text text-anchor="middle" x="66" y="-40" font-family="Helvetica,sans-Serif" font-size="10.00" fill="grey"> socket</text>
</g>
<!-- Node3 -->
<g id="Node000003" class="node">
<title>Node3</title>
<g id="a_Node000003"><a xlink:href="group__foundation.html#structSocketTimeouts__T" target="_top" xlink:title="Timeout configuration structure for socket operations.">
<polygon fill="white" stroke="#666666" points="99,-151 0,-151 0,-132 99,-132 99,-151"/>
<text text-anchor="middle" x="49.5" y="-139" font-family="Helvetica,sans-Serif" font-size="10.00">SocketTimeouts_T</text>
</a>
</g>
</g>
<!-- Node3&#45;&gt;Node2 -->
<g id="edge2_Node000002_Node000003" class="edge">
<title>Node3&#45;&gt;Node2</title>
<g id="a_edge2_Node000002_Node000003"><a xlink:title=" ">
<path fill="none" stroke="#9a32cd" stroke-dasharray="5,2" d="M49.5,-121.58C49.5,-109.63 49.5,-94.72 49.5,-85.41"/>
<polygon fill="#9a32cd" stroke="#9a32cd" points="46,-121.87 49.5,-131.87 53,-121.87 46,-121.87"/>
</a>
</g>
<text text-anchor="middle" x="78" y="-106" font-family="Helvetica,sans-Serif" font-size="10.00" fill="grey"> tls_timeouts</text>
</g>
</g>
</svg>
