<?xml version="1.0" encoding="UTF-8" standalone="no"?>
<!DOCTYPE svg PUBLIC "-//W3C//DTD SVG 1.1//EN"
 "http://www.w3.org/Graphics/SVG/1.1/DTD/svg11.dtd">
<!-- Generated by graphviz version 2.43.0 (0)
 -->
<!-- Title: SocketHTTP1_Parser_T Pages: 1 -->
<svg width="234pt" height="137pt"
 viewBox="0.00 0.00 234.00 137.00" xmlns="http://www.w3.org/2000/svg" xmlns:xlink="http://www.w3.org/1999/xlink">
<g id="graph0" class="graph" transform="scale(1 1) rotate(0) translate(4 133)">
<title>SocketHTTP1_Parser_T</title>
<!-- Node1 -->
<g id="Node000001" class="node">
<title>Node1</title>
<g id="a_Node000001"><a xlink:title="Internal implementation structure for the HTTP/1.1 parser (SocketHTTP1_Parser_T).">
<polygon fill="#999999" stroke="#666666" points="179.5,-19 55.5,-19 55.5,0 179.5,0 179.5,-19"/>
<text text-anchor="middle" x="117.5" y="-7" font-family="Helvetica,sans-Serif" font-size="10.00">SocketHTTP1_Parser_T</text>
</a>
</g>
</g>
<!-- Node2 -->
<g id="Node000002" class="node">
<title>Node2</title>
<g id="a_Node000002"><a xlink:href="group__http1.html#structSocketHTTP1__Config" target="_top" xlink:title="Runtime configuration structure for the HTTP/1.1 parser.">
<polygon fill="white" stroke="#666666" points="113,-129 0,-129 0,-110 113,-110 113,-129"/>
<text text-anchor="middle" x="56.5" y="-117" font-family="Helvetica,sans-Serif" font-size="10.00">SocketHTTP1_Config</text>
</a>
</g>
</g>
<!-- Node2&#45;&gt;Node1 -->
<g id="edge1_Node000001_Node000002" class="edge">
<title>Node2&#45;&gt;Node1</title>
<g id="a_edge1_Node000001_Node000002"><a xlink:title=" ">
<path fill="none" stroke="#9a32cd" stroke-dasharray="5,2" d="M66.52,-100.76C79.78,-77.28 102.64,-36.81 112.61,-19.16"/>
<polygon fill="#9a32cd" stroke="#9a32cd" points="63.36,-99.23 61.49,-109.66 69.46,-102.68 63.36,-99.23"/>
</a>
</g>
<text text-anchor="middle" x="116.5" y="-62" font-family="Helvetica,sans-Serif" font-size="10.00" fill="grey"> config</text>
</g>
<!-- Node3 -->
<g id="Node000003" class="node">
<title>Node3</title>
<g id="a_Node000003"><a xlink:href="group__http1__private.html#structHTTP1__TokenBuf" target="_top" xlink:title="Dynamic resizable buffer for accumulating parsed HTTP tokens.">
<polygon fill="white" stroke="#666666" points="226,-129 131,-129 131,-110 226,-110 226,-129"/>
<text text-anchor="middle" x="178.5" y="-117" font-family="Helvetica,sans-Serif" font-size="10.00">HTTP1_TokenBuf</text>
</a>
</g>
</g>
<!-- Node3&#45;&gt;Node1 -->
<g id="edge2_Node000001_Node000003" class="edge">
<title>Node3&#45;&gt;Node1</title>
<g id="a_edge2_Node000001_Node000003"><a xlink:title=" ">
<path fill="none" stroke="#9a32cd" stroke-dasharray="5,2" d="M169.78,-100.6C161.46,-83.87 148.33,-58.35 135.5,-37 131.83,-30.9 127.33,-24.27 123.75,-19.17"/>
<polygon fill="#9a32cd" stroke="#9a32cd" points="166.73,-102.34 174.29,-109.76 173.01,-99.24 166.73,-102.34"/>
</a>
</g>
<text text-anchor="middle" x="192" y="-84" font-family="Helvetica,sans-Serif" font-size="10.00" fill="grey"> method_buf</text>
<text text-anchor="middle" x="192" y="-73" font-family="Helvetica,sans-Serif" font-size="10.00" fill="grey">name_buf</text>
<text text-anchor="middle" x="192" y="-62" font-family="Helvetica,sans-Serif" font-size="10.00" fill="grey">reason_buf</text>
<text text-anchor="middle" x="192" y="-51" font-family="Helvetica,sans-Serif" font-size="10.00" fill="grey">uri_buf</text>
<text text-anchor="middle" x="192" y="-40" font-family="Helvetica,sans-Serif" font-size="10.00" fill="grey">value_buf</text>
</g>
</g>
</svg>
