<?xml version="1.0" encoding="UTF-8" standalone="no"?>
<!DOCTYPE svg PUBLIC "-//W3C//DTD SVG 1.1//EN"
 "http://www.w3.org/Graphics/SVG/1.1/DTD/svg11.dtd">
<!-- Generated by graphviz version 2.43.0 (0)
 -->
<!-- Title: Connection_T Pages: 1 -->
<svg width="584pt" height="308pt"
 viewBox="0.00 0.00 584.00 308.00" xmlns="http://www.w3.org/2000/svg" xmlns:xlink="http://www.w3.org/1999/xlink">
<g id="graph0" class="graph" transform="scale(1 1) rotate(0) translate(4 304)">
<title>Connection_T</title>
<!-- Node1 -->
<g id="Node000001" class="node">
<title>Node1</title>
<g id="a_Node000001"><a xlink:title="Internal structure representing a pooled connection slot.">
<polygon fill="#999999" stroke="#666666" points="160,-19 83,-19 83,0 160,0 160,-19"/>
<text text-anchor="middle" x="121.5" y="-7" font-family="Helvetica,sans-Serif" font-size="10.00">Connection_T</text>
</a>
</g>
</g>
<!-- Node2 -->
<g id="Node000002" class="node">
<title>Node2</title>
<g id="a_Node000002"><a xlink:title=" ">
<polygon fill="white" stroke="#666666" points="59,-234 0,-234 0,-215 59,-215 59,-234"/>
<text text-anchor="middle" x="29.5" y="-222" font-family="Helvetica,sans-Serif" font-size="10.00">Socket_T</text>
</a>
</g>
</g>
<!-- Node2&#45;&gt;Node1 -->
<g id="edge1_Node000001_Node000002" class="edge">
<title>Node2&#45;&gt;Node1</title>
<g id="a_edge1_Node000001_Node000002"><a xlink:title=" ">
<path fill="none" stroke="#9a32cd" stroke-dasharray="5,2" d="M27.9,-204.69C27.74,-202.11 27.59,-199.49 27.5,-197 26.64,-174.07 30.2,-168.32 35.5,-146 48.19,-92.61 58.75,-79.47 93.5,-37 98.84,-30.47 105.71,-23.95 111.3,-19.01"/>
<polygon fill="#9a32cd" stroke="#9a32cd" points="24.42,-204.97 28.67,-214.68 31.4,-204.44 24.42,-204.97"/>
</a>
</g>
<text text-anchor="middle" x="60" y="-120" font-family="Helvetica,sans-Serif" font-size="10.00" fill="grey"> socket</text>
</g>
<!-- Node3 -->
<g id="Node000003" class="node">
<title>Node3</title>
<g id="a_Node000003"><a xlink:href="group__connection__mgmt.html#structConnection" target="_top" xlink:title="Internal structure representing a pooled connection slot.">
<polygon fill="white" stroke="#666666" points="229,-97.5 152,-97.5 152,-78.5 229,-78.5 229,-97.5"/>
<text text-anchor="middle" x="190.5" y="-85.5" font-family="Helvetica,sans-Serif" font-size="10.00">Connection_T</text>
</a>
</g>
</g>
<!-- Node2&#45;&gt;Node3 -->
<g id="edge3_Node000003_Node000002" class="edge">
<title>Node2&#45;&gt;Node3</title>
<g id="a_edge3_Node000003_Node000002"><a xlink:title=" ">
<path fill="none" stroke="#9a32cd" stroke-dasharray="5,2" d="M30.32,-204.44C32.03,-187.23 37.04,-162.19 51.5,-146 66.62,-129.08 125.4,-108.83 161.51,-97.59"/>
<polygon fill="#9a32cd" stroke="#9a32cd" points="26.8,-204.68 29.59,-214.9 33.78,-205.17 26.8,-204.68"/>
</a>
</g>
<text text-anchor="middle" x="68" y="-154.5" font-family="Helvetica,sans-Serif" font-size="10.00" fill="grey"> socket</text>
</g>
<!-- Node4 -->
<g id="Node000004" class="node">
<title>Node4</title>
<g id="a_Node000004"><a xlink:href="group__reconnect__private.html#structSocketReconnect__T" target="_top" xlink:title="Opaque internal context for reconnecting socket management.">
<polygon fill="white" stroke="#666666" points="199.5,-166.5 93.5,-166.5 93.5,-147.5 199.5,-147.5 199.5,-166.5"/>
<text text-anchor="middle" x="146.5" y="-154.5" font-family="Helvetica,sans-Serif" font-size="10.00">SocketReconnect_T</text>
</a>
</g>
</g>
<!-- Node2&#45;&gt;Node4 -->
<g id="edge7_Node000004_Node000002" class="edge">
<title>Node2&#45;&gt;Node4</title>
<g id="a_edge7_Node000004_Node000002"><a xlink:title=" ">
<path fill="none" stroke="#9a32cd" stroke-dasharray="5,2" d="M53.72,-209.94C77,-196.91 111.49,-177.6 131.2,-166.57"/>
<polygon fill="#9a32cd" stroke="#9a32cd" points="51.81,-207 44.8,-214.94 55.23,-213.11 51.81,-207"/>
</a>
</g>
<text text-anchor="middle" x="112" y="-189" font-family="Helvetica,sans-Serif" font-size="10.00" fill="grey"> socket</text>
</g>
<!-- Node3&#45;&gt;Node1 -->
<g id="edge2_Node000001_Node000003" class="edge">
<title>Node3&#45;&gt;Node1</title>
<g id="a_edge2_Node000001_Node000003"><a xlink:title=" ">
<path fill="none" stroke="#9a32cd" stroke-dasharray="5,2" d="M175.86,-70.77C161.64,-55.01 140.6,-31.68 129.32,-19.17"/>
<polygon fill="#9a32cd" stroke="#9a32cd" points="173.29,-73.14 182.58,-78.22 178.49,-68.45 173.29,-73.14"/>
</a>
</g>
<text text-anchor="middle" x="187.5" y="-51" font-family="Helvetica,sans-Serif" font-size="10.00" fill="grey"> free_next</text>
<text text-anchor="middle" x="187.5" y="-40" font-family="Helvetica,sans-Serif" font-size="10.00" fill="grey">hash_next</text>
</g>
<!-- Node3&#45;&gt;Node3 -->
<g id="edge4_Node000003_Node000003" class="edge">
<title>Node3&#45;&gt;Node3</title>
<g id="a_edge4_Node000003_Node000003"><a xlink:title=" ">
<path fill="none" stroke="#9a32cd" stroke-dasharray="5,2" d="M239.22,-93.18C243.98,-92.13 247,-90.41 247,-88 247,-84.15 239.27,-82.04 229.06,-81.68"/>
<polygon fill="#9a32cd" stroke="#9a32cd" points="238.6,-89.72 229.06,-94.32 239.38,-96.68 238.6,-89.72"/>
</a>
</g>
<text text-anchor="middle" x="270" y="-91" font-family="Helvetica,sans-Serif" font-size="10.00" fill="grey"> free_next</text>
<text text-anchor="middle" x="270" y="-80" font-family="Helvetica,sans-Serif" font-size="10.00" fill="grey">hash_next</text>
</g>
<!-- Node4&#45;&gt;Node1 -->
<g id="edge15_Node000001_Node000004" class="edge">
<title>Node4&#45;&gt;Node1</title>
<g id="a_edge15_Node000001_Node000004"><a xlink:title=" ">
<path fill="none" stroke="#9a32cd" stroke-dasharray="5,2" d="M127.38,-140.65C116.04,-130.26 102.69,-115.46 96.5,-99 85.76,-70.46 104.96,-35.24 115.41,-19.2"/>
<polygon fill="#9a32cd" stroke="#9a32cd" points="125.31,-143.49 135.16,-147.4 129.9,-138.2 125.31,-143.49"/>
</a>
</g>
<text text-anchor="middle" x="119.5" y="-85.5" font-family="Helvetica,sans-Serif" font-size="10.00" fill="grey"> reconnect</text>
</g>
<!-- Node4&#45;&gt;Node3 -->
<g id="edge5_Node000003_Node000004" class="edge">
<title>Node4&#45;&gt;Node3</title>
<g id="a_edge5_Node000003_Node000004"><a xlink:title=" ">
<path fill="none" stroke="#9a32cd" stroke-dasharray="5,2" d="M157.94,-138.57C166.6,-125.39 178.13,-107.84 184.89,-97.55"/>
<polygon fill="#9a32cd" stroke="#9a32cd" points="154.82,-136.96 152.25,-147.24 160.67,-140.8 154.82,-136.96"/>
</a>
</g>
<text text-anchor="middle" x="194.5" y="-120" font-family="Helvetica,sans-Serif" font-size="10.00" fill="grey"> reconnect</text>
</g>
<!-- Node4&#45;&gt;Node4 -->
<g id="edge8_Node000004_Node000004" class="edge">
<title>Node4&#45;&gt;Node4</title>
<g id="a_edge8_Node000004_Node000004"><a xlink:title=" ">
<path fill="none" stroke="#9a32cd" stroke-dasharray="5,2" d="M209.93,-161.74C214.62,-160.68 217.5,-159.1 217.5,-157 217.5,-153.65 210.13,-151.62 199.76,-150.91"/>
<polygon fill="#9a32cd" stroke="#9a32cd" points="209.21,-158.3 199.76,-163.09 210.13,-165.24 209.21,-158.3"/>
</a>
</g>
<text text-anchor="middle" x="246.5" y="-160" font-family="Helvetica,sans-Serif" font-size="10.00" fill="grey"> callback</text>
<text text-anchor="middle" x="246.5" y="-149" font-family="Helvetica,sans-Serif" font-size="10.00" fill="grey">health_check</text>
</g>
<!-- Node5 -->
<g id="Node000005" class="node">
<title>Node5</title>
<g id="a_Node000005"><a xlink:href="group__connection__mgmt.html#structSocketReconnect__Policy__T" target="_top" xlink:title="Configuration structure defining backoff policy, circuit breaker thresholds, and health check paramet...">
<polygon fill="white" stroke="#666666" points="215.5,-234 77.5,-234 77.5,-215 215.5,-215 215.5,-234"/>
<text text-anchor="middle" x="146.5" y="-222" font-family="Helvetica,sans-Serif" font-size="10.00">SocketReconnect_Policy_T</text>
</a>
</g>
</g>
<!-- Node5&#45;&gt;Node4 -->
<g id="edge6_Node000004_Node000005" class="edge">
<title>Node5&#45;&gt;Node4</title>
<g id="a_edge6_Node000004_Node000005"><a xlink:title=" ">
<path fill="none" stroke="#9a32cd" stroke-dasharray="5,2" d="M146.5,-204.68C146.5,-192.21 146.5,-176.42 146.5,-166.77"/>
<polygon fill="#9a32cd" stroke="#9a32cd" points="143,-204.94 146.5,-214.94 150,-204.94 143,-204.94"/>
</a>
</g>
<text text-anchor="middle" x="161" y="-189" font-family="Helvetica,sans-Serif" font-size="10.00" fill="grey"> policy</text>
</g>
<!-- Node6 -->
<g id="Node000006" class="node">
<title>Node6</title>
<g id="a_Node000006"><a xlink:href="group__security.html#structSocketTLSContext__T" target="_top" xlink:title="TLS context structure for managing OpenSSL SSL_CTX with secure defaults, certificates,...">
<polygon fill="white" stroke="#666666" points="405,-166.5 294,-166.5 294,-147.5 405,-147.5 405,-166.5"/>
<text text-anchor="middle" x="349.5" y="-154.5" font-family="Helvetica,sans-Serif" font-size="10.00">SocketTLSContext_T</text>
</a>
</g>
</g>
<!-- Node6&#45;&gt;Node1 -->
<g id="edge16_Node000001_Node000006" class="edge">
<title>Node6&#45;&gt;Node1</title>
<g id="a_edge16_Node000001_Node000006"><a xlink:title=" ">
<path fill="none" stroke="#9a32cd" stroke-dasharray="5,2" d="M342.25,-137.88C334.45,-120.34 320.55,-93.98 301.5,-77 261.21,-41.09 199.83,-24 160.19,-16.29"/>
<polygon fill="#9a32cd" stroke="#9a32cd" points="339.2,-139.65 346.31,-147.5 345.65,-136.93 339.2,-139.65"/>
</a>
</g>
<text text-anchor="middle" x="336" y="-85.5" font-family="Helvetica,sans-Serif" font-size="10.00" fill="grey"> tls_ctx</text>
</g>
<!-- Node6&#45;&gt;Node3 -->
<g id="edge9_Node000003_Node000006" class="edge">
<title>Node6&#45;&gt;Node3</title>
<g id="a_edge9_Node000003_Node000006"><a xlink:title=" ">
<path fill="none" stroke="#9a32cd" stroke-dasharray="5,2" d="M319.79,-143.48C288.03,-130.1 238.51,-109.23 210.88,-97.59"/>
<polygon fill="#9a32cd" stroke="#9a32cd" points="318.46,-146.72 329.04,-147.38 321.18,-140.27 318.46,-146.72"/>
</a>
</g>
<text text-anchor="middle" x="297" y="-120" font-family="Helvetica,sans-Serif" font-size="10.00" fill="grey"> tls_ctx</text>
</g>
<!-- Node6&#45;&gt;Node6 -->
<g id="edge12_Node000006_Node000006" class="edge">
<title>Node6&#45;&gt;Node6</title>
<g id="a_edge12_Node000006_Node000006"><a xlink:title=" ">
<path fill="none" stroke="#9a32cd" stroke-dasharray="5,2" d="M415.45,-161.67C420.14,-160.61 423,-159.05 423,-157 423,-153.71 415.67,-151.7 405.27,-150.95"/>
<polygon fill="#9a32cd" stroke="#9a32cd" points="414.71,-158.24 405.27,-163.05 415.65,-165.18 414.71,-158.24"/>
</a>
</g>
<text text-anchor="middle" x="457.5" y="-154.5" font-family="Helvetica,sans-Serif" font-size="10.00" fill="grey"> verify_callback</text>
</g>
<!-- Node7 -->
<g id="Node000007" class="node">
<title>Node7</title>
<g id="a_Node000007"><a xlink:href="structTLSContextSNICerts.html" target="_top" xlink:title="Structure for managing SNI certificate mappings in TLS context.">
<polygon fill="white" stroke="#666666" points="343.5,-234 233.5,-234 233.5,-215 343.5,-215 343.5,-234"/>
<text text-anchor="middle" x="288.5" y="-222" font-family="Helvetica,sans-Serif" font-size="10.00">TLSContextSNICerts</text>
</a>
</g>
</g>
<!-- Node7&#45;&gt;Node6 -->
<g id="edge10_Node000006_Node000007" class="edge">
<title>Node7&#45;&gt;Node6</title>
<g id="a_edge10_Node000006_Node000007"><a xlink:title=" ">
<path fill="none" stroke="#9a32cd" stroke-dasharray="5,2" d="M303.58,-207.3C315.51,-194.5 331.7,-177.11 341.33,-166.77"/>
<polygon fill="#9a32cd" stroke="#9a32cd" points="300.73,-205.23 296.47,-214.94 305.85,-210 300.73,-205.23"/>
</a>
</g>
<text text-anchor="middle" x="344" y="-189" font-family="Helvetica,sans-Serif" font-size="10.00" fill="grey"> sni_certs</text>
</g>
<!-- Node8 -->
<g id="Node000008" class="node">
<title>Node8</title>
<g id="a_Node000008"><a xlink:href="group__security.html#structTLSContextALPN" target="_top" xlink:title="Configuration for ALPN protocol negotiation.">
<polygon fill="white" stroke="#666666" points="457,-234 362,-234 362,-215 457,-215 457,-234"/>
<text text-anchor="middle" x="409.5" y="-222" font-family="Helvetica,sans-Serif" font-size="10.00">TLSContextALPN</text>
</a>
</g>
</g>
<!-- Node8&#45;&gt;Node6 -->
<g id="edge11_Node000006_Node000008" class="edge">
<title>Node8&#45;&gt;Node6</title>
<g id="a_edge11_Node000006_Node000008"><a xlink:title=" ">
<path fill="none" stroke="#9a32cd" stroke-dasharray="5,2" d="M394.66,-207.3C382.93,-194.5 367.01,-177.11 357.54,-166.77"/>
<polygon fill="#9a32cd" stroke="#9a32cd" points="392.32,-209.93 401.66,-214.94 397.48,-205.2 392.32,-209.93"/>
</a>
</g>
<text text-anchor="middle" x="395.5" y="-189" font-family="Helvetica,sans-Serif" font-size="10.00" fill="grey"> alpn</text>
</g>
<!-- Node9 -->
<g id="Node000009" class="node">
<title>Node9</title>
<g id="a_Node000009"><a xlink:href="group__security.html#structTLSContextPinning" target="_top" xlink:title="TLSContextPinning &#45; Certificate pinning configuration.">
<polygon fill="white" stroke="#666666" points="576,-234 475,-234 475,-215 576,-215 576,-234"/>
<text text-anchor="middle" x="525.5" y="-222" font-family="Helvetica,sans-Serif" font-size="10.00">TLSContextPinning</text>
</a>
</g>
</g>
<!-- Node9&#45;&gt;Node6 -->
<g id="edge13_Node000006_Node000009" class="edge">
<title>Node9&#45;&gt;Node6</title>
<g id="a_edge13_Node000006_Node000009"><a xlink:title=" ">
<path fill="none" stroke="#9a32cd" stroke-dasharray="5,2" d="M492.74,-211.31C457.76,-198.29 403.22,-177.99 372.51,-166.57"/>
<polygon fill="#9a32cd" stroke="#9a32cd" points="491.9,-214.73 502.49,-214.94 494.34,-208.17 491.9,-214.73"/>
</a>
</g>
<text text-anchor="middle" x="469.5" y="-189" font-family="Helvetica,sans-Serif" font-size="10.00" fill="grey"> pinning</text>
</g>
<!-- Node10 -->
<g id="Node000010" class="node">
<title>Node10</title>
<g id="a_Node000010"><a xlink:href="group__security.html#structTLSCertPin" target="_top" xlink:title="TLSCertPin &#45; Single certificate pin entry (SPKI SHA256 hash)">
<polygon fill="white" stroke="#666666" points="559.5,-300 491.5,-300 491.5,-281 559.5,-281 559.5,-300"/>
<text text-anchor="middle" x="525.5" y="-288" font-family="Helvetica,sans-Serif" font-size="10.00">TLSCertPin</text>
</a>
</g>
</g>
<!-- Node10&#45;&gt;Node9 -->
<g id="edge14_Node000009_Node000010" class="edge">
<title>Node10&#45;&gt;Node9</title>
<g id="a_edge14_Node000009_Node000010"><a xlink:title=" ">
<path fill="none" stroke="#9a32cd" stroke-dasharray="5,2" d="M525.5,-270.58C525.5,-258.63 525.5,-243.72 525.5,-234.41"/>
<polygon fill="#9a32cd" stroke="#9a32cd" points="522,-270.87 525.5,-280.87 529,-270.87 522,-270.87"/>
</a>
</g>
<text text-anchor="middle" x="536.5" y="-255" font-family="Helvetica,sans-Serif" font-size="10.00" fill="grey"> pins</text>
</g>
</g>
</svg>
