<?xml version="1.0" encoding="UTF-8" standalone="no"?>
<!DOCTYPE svg PUBLIC "-//W3C//DTD SVG 1.1//EN"
 "http://www.w3.org/Graphics/SVG/1.1/DTD/svg11.dtd">
<!-- Generated by graphviz version 2.43.0 (0)
 -->
<!-- Title: SocketPool_T Pages: 1 -->
<!--zoomable 589 -->

<svg id="main" version="1.1" xmlns="http://www.w3.org/2000/svg" xmlns:xlink="http://www.w3.org/1999/xlink" xml:space="preserve" onload="init(evt)">
<style type="text/css"><![CDATA[
.node, .edge {opacity: 0.7;}
.node.selected, .edge.selected {opacity: 1;}
.edge:hover path { stroke: red; }
.edge:hover polygon { stroke: red; fill: red; }
]]></style>

<defs>
  <circle id="rim" cx="0" cy="0" r="7"/>
  <circle id="rim2" cx="0" cy="0" r="3.5"/>
  <g id="zoomPlus">
    <use xlink:href="#rim" fill="#404040"><set attributeName="fill" to="#808080" begin="zoomplus.mouseover" end="zoomplus.mouseout"/></use>
    <path d="M-4,0h8M0,-4v8" fill="none" stroke="white" stroke-width="1.5" pointer-events="none"/>
  </g>
  <g id="zoomMin">
    <use xlink:href="#rim" fill="#404040"><set attributeName="fill" to="#808080" begin="zoomminus.mouseover" end="zoomminus.mouseout"/></use>
    <path d="M-4,0h8" fill="none" stroke="white" stroke-width="1.5" pointer-events="none"/>
  </g>
  <g id="arrowUp" transform="translate(30 24)">
    <use xlink:href="#rim"/>
    <path pointer-events="none" fill="none" stroke="white" stroke-width="1.5" d="M0,-3.0v7 M-2.5,-0.5L0,-3.0L2.5,-0.5"/>
  </g>
  <g id="arrowRight" transform="rotate(90) translate(36 -43)">
    <use xlink:href="#rim"/>
    <path pointer-events="none" fill="none" stroke="white" stroke-width="1.5" d="M0,-3.0v7 M-2.5,-0.5L0,-3.0L2.5,-0.5"/>
  </g>
  <g id="arrowDown" transform="rotate(180) translate(-30 -48)">
    <use xlink:href="#rim"/>
    <path pointer-events="none" fill="none" stroke="white" stroke-width="1.5" d="M0,-3.0v7 M-2.5,-0.5L0,-3.0L2.5,-0.5"/>
  </g>
  <g id="arrowLeft" transform="rotate(270) translate(-36 17)">
    <use xlink:href="#rim"/>
    <path pointer-events="none" fill="none" stroke="white" stroke-width="1.5" d="M0,-3.0v7 M-2.5,-0.5L0,-3.0L2.5,-0.5"/>
  </g>
  <g id="resetDef">
    <use xlink:href="#rim2" fill="#404040"><set attributeName="fill" to="#808080" begin="reset.mouseover" end="reset.mouseout"/></use>
  </g>
</defs>
<script type="application/ecmascript">
var viewWidth = 1141;
var viewHeight = 589;
var sectionId = 'dynsection-1';
</script>
<script type="application/ecmascript" xlink:href="svg.min.js"/>
<svg id="graph" class="graph">
<g id="viewport">
<title>SocketPool_T</title>
<!-- Node1 -->
<g id="Node000001" class="node">
<title>Node1</title>
<g id="a_Node000001"><a xlink:title=" ">
<polygon fill="#999999" stroke="#666666" points="1111,-238 1033,-238 1033,-219 1111,-219 1111,-238"/>
<text text-anchor="middle" x="1072" y="-226" font-family="Helvetica,sans-Serif" font-size="10.00">SocketPool_T</text>
</a>
</g>
</g>
<!-- Node1&#45;&gt;Node1 -->
<g id="edge34_Node000001_Node000001" class="edge">
<title>Node1&#45;&gt;Node1</title>
<g id="a_edge34_Node000001_Node000001"><a xlink:title=" ">
<path fill="none" stroke="#9a32cd" stroke-dasharray="5,2" d="M1052,-247.55C1053.34,-252.38 1060,-256 1072,-256 1091.2,-256 1096.74,-246.73 1088.65,-238.08"/>
<polygon fill="#9a32cd" stroke="#9a32cd" points="1055.32,-248.68 1055.35,-238.08 1048.72,-246.34 1055.32,-248.68"/>
</a>
</g>
<text text-anchor="middle" x="1072" y="-270" font-family="Helvetica,sans-Serif" font-size="10.00" fill="grey"> drain_cb</text>
<text text-anchor="middle" x="1072" y="-259" font-family="Helvetica,sans-Serif" font-size="10.00" fill="grey">resize_cb</text>
</g>
<!-- Node2 -->
<g id="Node000002" class="node">
<title>Node2</title>
<g id="a_Node000002"><a xlink:href="group__connection__mgmt.html#structConnection" target="_top" xlink:title="Internal structure representing a pooled connection slot.">
<polygon fill="white" stroke="#666666" points="899,-112 822,-112 822,-93 899,-93 899,-112"/>
<text text-anchor="middle" x="860.5" y="-100" font-family="Helvetica,sans-Serif" font-size="10.00">Connection_T</text>
</a>
</g>
</g>
<!-- Node2&#45;&gt;Node1 -->
<g id="edge1_Node000001_Node000002" class="edge">
<title>Node2&#45;&gt;Node1</title>
<g id="a_edge1_Node000001_Node000002"><a xlink:title=" ">
<path fill="none" stroke="#9a32cd" stroke-dasharray="5,2" d="M898.4,-115.64C931.33,-127.68 976.78,-145.15 993,-155.5 1021.77,-173.85 1049.48,-203.53 1062.79,-218.78"/>
<polygon fill="#9a32cd" stroke="#9a32cd" points="899.22,-112.22 888.63,-112.09 896.84,-118.8 899.22,-112.22"/>
</a>
</g>
<text text-anchor="middle" x="963.5" y="-158.5" font-family="Helvetica,sans-Serif" font-size="10.00" fill="grey"> connections</text>
</g>
<!-- Node2&#45;&gt;Node2 -->
<g id="edge6_Node000002_Node000002" class="edge">
<title>Node2&#45;&gt;Node2</title>
<g id="a_edge6_Node000002_Node000002"><a xlink:title=" ">
<path fill="none" stroke="#9a32cd" stroke-dasharray="5,2" d="M841.72,-121.91C843.19,-126.56 849.45,-130 860.5,-130 878.63,-130 883.87,-120.73 876.22,-112.08"/>
<polygon fill="#9a32cd" stroke="#9a32cd" points="845.15,-122.67 844.78,-112.08 838.46,-120.59 845.15,-122.67"/>
</a>
</g>
<text text-anchor="middle" x="860.5" y="-144" font-family="Helvetica,sans-Serif" font-size="10.00" fill="grey"> free_next</text>
<text text-anchor="middle" x="860.5" y="-133" font-family="Helvetica,sans-Serif" font-size="10.00" fill="grey">hash_next</text>
</g>
<!-- Node3 -->
<g id="Node000003" class="node">
<title>Node3</title>
<g id="a_Node000003"><a xlink:title=" ">
<polygon fill="white" stroke="#666666" points="438.5,-170 379.5,-170 379.5,-151 438.5,-151 438.5,-170"/>
<text text-anchor="middle" x="409" y="-158" font-family="Helvetica,sans-Serif" font-size="10.00">Socket_T</text>
</a>
</g>
</g>
<!-- Node3&#45;&gt;Node1 -->
<g id="edge17_Node000001_Node000003" class="edge">
<title>Node3&#45;&gt;Node1</title>
<g id="a_edge17_Node000001_Node000003"><a xlink:title=" ">
<path fill="none" stroke="#9a32cd" stroke-dasharray="5,2" d="M448.82,-157.51C517.37,-152.9 664.22,-146.01 787,-160.5 881.41,-171.64 989.87,-202.94 1041.16,-218.89"/>
<polygon fill="#9a32cd" stroke="#9a32cd" points="448.24,-154.04 438.51,-158.23 448.73,-161.03 448.24,-154.04"/>
</a>
</g>
<text text-anchor="middle" x="748.5" y="-163.5" font-family="Helvetica,sans-Serif" font-size="10.00" fill="grey"> cleanup_buffer</text>
</g>
<!-- Node3&#45;&gt;Node2 -->
<g id="edge2_Node000002_Node000003" class="edge">
<title>Node3&#45;&gt;Node2</title>
<g id="a_edge2_Node000002_Node000003"><a xlink:title=" ">
<path fill="none" stroke="#9a32cd" stroke-dasharray="5,2" d="M448.58,-153.29C478.17,-147.92 520.07,-140.65 557,-135.5 651.97,-122.26 764.33,-111.2 821.68,-105.89"/>
<polygon fill="#9a32cd" stroke="#9a32cd" points="447.86,-149.86 438.65,-155.11 449.12,-156.75 447.86,-149.86"/>
</a>
</g>
<text text-anchor="middle" x="624.5" y="-138.5" font-family="Helvetica,sans-Serif" font-size="10.00" fill="grey"> socket</text>
</g>
<!-- Node7 -->
<g id="Node000007" class="node">
<title>Node7</title>
<g id="a_Node000007"><a xlink:href="group__reconnect__private.html#structSocketReconnect__T" target="_top" xlink:title="Opaque internal context for reconnecting socket management.">
<polygon fill="white" stroke="#666666" points="677.5,-208 571.5,-208 571.5,-189 677.5,-189 677.5,-208"/>
<text text-anchor="middle" x="624.5" y="-196" font-family="Helvetica,sans-Serif" font-size="10.00">SocketReconnect_T</text>
</a>
</g>
</g>
<!-- Node3&#45;&gt;Node7 -->
<g id="edge9_Node000007_Node000003" class="edge">
<title>Node3&#45;&gt;Node7</title>
<g id="a_edge9_Node000007_Node000003"><a xlink:title=" ">
<path fill="none" stroke="#9a32cd" stroke-dasharray="5,2" d="M448.91,-167.43C483.27,-173.54 533.63,-182.5 571.45,-189.24"/>
<polygon fill="#9a32cd" stroke="#9a32cd" points="449.25,-163.93 438.79,-165.62 448.03,-170.82 449.25,-163.93"/>
</a>
</g>
<text text-anchor="middle" x="517.5" y="-186.5" font-family="Helvetica,sans-Serif" font-size="10.00" fill="grey"> socket</text>
</g>
<!-- Node4 -->
<g id="Node000004" class="node">
<title>Node4</title>
<g id="a_Node000004"><a xlink:href="group__core__io.html#structSocketBase__T" target="_top" xlink:title="Internal implementation of SocketBase_T opaque type.">
<polygon fill="white" stroke="#666666" points="279,-170 198,-170 198,-151 279,-151 279,-170"/>
<text text-anchor="middle" x="238.5" y="-158" font-family="Helvetica,sans-Serif" font-size="10.00">SocketBase_T</text>
</a>
</g>
</g>
<!-- Node4&#45;&gt;Node3 -->
<g id="edge3_Node000003_Node000004" class="edge">
<title>Node4&#45;&gt;Node3</title>
<g id="a_edge3_Node000003_Node000004"><a xlink:title=" ">
<path fill="none" stroke="#9a32cd" stroke-dasharray="5,2" d="M289.08,-160.5C318.43,-160.5 354.59,-160.5 379.28,-160.5"/>
<polygon fill="#9a32cd" stroke="#9a32cd" points="289.01,-157 279.01,-160.5 289.01,-164 289.01,-157"/>
</a>
</g>
<text text-anchor="middle" x="309.5" y="-163.5" font-family="Helvetica,sans-Serif" font-size="10.00" fill="grey"> base</text>
</g>
<!-- Node5 -->
<g id="Node000005" class="node">
<title>Node5</title>
<g id="a_Node000005"><a xlink:href="group__foundation.html#structSocketTimeouts__T" target="_top" xlink:title="Basic timeout configuration structure for socket operations.">
<polygon fill="white" stroke="#666666" points="110,-188 11,-188 11,-169 110,-169 110,-188"/>
<text text-anchor="middle" x="60.5" y="-176" font-family="Helvetica,sans-Serif" font-size="10.00">SocketTimeouts_T</text>
</a>
</g>
</g>
<!-- Node5&#45;&gt;Node4 -->
<g id="edge4_Node000004_Node000005" class="edge">
<title>Node5&#45;&gt;Node4</title>
<g id="a_edge4_Node000004_Node000005"><a xlink:title=" ">
<path fill="none" stroke="#9a32cd" stroke-dasharray="5,2" d="M120.03,-172.51C145.65,-169.89 175.02,-166.89 197.99,-164.54"/>
<polygon fill="#9a32cd" stroke="#9a32cd" points="119.65,-169.03 110.06,-173.53 120.36,-176 119.65,-169.03"/>
</a>
</g>
<text text-anchor="middle" x="159.5" y="-173.5" font-family="Helvetica,sans-Serif" font-size="10.00" fill="grey"> timeouts</text>
</g>
<!-- Node6 -->
<g id="Node000006" class="node">
<title>Node6</title>
<g id="a_Node000006"><a xlink:href="group__foundation.html#structSocketMetricsSnapshot" target="_top" xlink:title="SocketMetricsSnapshot &#45; Thread&#45;safe snapshot of all library metrics.">
<polygon fill="white" stroke="#666666" points="121,-151 0,-151 0,-132 121,-132 121,-151"/>
<text text-anchor="middle" x="60.5" y="-139" font-family="Helvetica,sans-Serif" font-size="10.00">SocketMetricsSnapshot</text>
</a>
</g>
</g>
<!-- Node6&#45;&gt;Node4 -->
<g id="edge5_Node000004_Node000006" class="edge">
<title>Node6&#45;&gt;Node4</title>
<g id="a_edge5_Node000004_Node000006"><a xlink:title=" ">
<path fill="none" stroke="#9a32cd" stroke-dasharray="5,2" d="M131.55,-147.47C147.49,-148.97 164.34,-150.69 180,-152.5 185.81,-153.17 191.93,-153.95 197.94,-154.75"/>
<polygon fill="#9a32cd" stroke="#9a32cd" points="131.51,-143.95 121.23,-146.51 130.86,-150.92 131.51,-143.95"/>
</a>
</g>
<text text-anchor="middle" x="159.5" y="-155.5" font-family="Helvetica,sans-Serif" font-size="10.00" fill="grey"> metrics</text>
</g>
<!-- Node7&#45;&gt;Node2 -->
<g id="edge7_Node000002_Node000007" class="edge">
<title>Node7&#45;&gt;Node2</title>
<g id="a_edge7_Node000002_Node000007"><a xlink:title=" ">
<path fill="none" stroke="#9a32cd" stroke-dasharray="5,2" d="M688.11,-198.28C719.24,-195.97 756.61,-189.74 787,-174.5 816.65,-159.63 841.67,-128.07 853,-112.13"/>
<polygon fill="#9a32cd" stroke="#9a32cd" points="687.57,-194.81 677.81,-198.92 688.01,-201.79 687.57,-194.81"/>
</a>
</g>
<text text-anchor="middle" x="748.5" y="-199.5" font-family="Helvetica,sans-Serif" font-size="10.00" fill="grey"> reconnect</text>
</g>
<!-- Node7&#45;&gt;Node7 -->
<g id="edge10_Node000007_Node000007" class="edge">
<title>Node7&#45;&gt;Node7</title>
<g id="a_edge10_Node000007_Node000007"><a xlink:title=" ">
<path fill="none" stroke="#9a32cd" stroke-dasharray="5,2" d="M604.87,-217.55C606.18,-222.38 612.73,-226 624.5,-226 643.34,-226 648.79,-216.73 640.84,-208.08"/>
<polygon fill="#9a32cd" stroke="#9a32cd" points="608.19,-218.68 608.16,-208.08 601.57,-216.38 608.19,-218.68"/>
</a>
</g>
<text text-anchor="middle" x="624.5" y="-240" font-family="Helvetica,sans-Serif" font-size="10.00" fill="grey"> callback</text>
<text text-anchor="middle" x="624.5" y="-229" font-family="Helvetica,sans-Serif" font-size="10.00" fill="grey">health_check</text>
</g>
<!-- Node8 -->
<g id="Node000008" class="node">
<title>Node8</title>
<g id="a_Node000008"><a xlink:href="group__connection__mgmt.html#structSocketReconnect__Policy__T" target="_top" xlink:title="Configuration structure defining backoff policy, circuit breaker thresholds, and health check paramet...">
<polygon fill="white" stroke="#666666" points="478,-268 340,-268 340,-249 478,-249 478,-268"/>
<text text-anchor="middle" x="409" y="-256" font-family="Helvetica,sans-Serif" font-size="10.00">SocketReconnect_Policy_T</text>
</a>
</g>
</g>
<!-- Node8&#45;&gt;Node1 -->
<g id="edge22_Node000001_Node000008" class="edge">
<title>Node8&#45;&gt;Node1</title>
<g id="a_edge22_Node000001_Node000008"><a xlink:title=" ">
<path fill="none" stroke="#9a32cd" stroke-dasharray="5,2" d="M488.43,-259.34C545.03,-259.61 623.27,-259.28 692,-256.5 816.93,-251.45 964.57,-238.53 1032.85,-232.16"/>
<polygon fill="#9a32cd" stroke="#9a32cd" points="488.14,-255.84 478.12,-259.29 488.1,-262.84 488.14,-255.84"/>
</a>
</g>
<text text-anchor="middle" x="748.5" y="-259.5" font-family="Helvetica,sans-Serif" font-size="10.00" fill="grey"> reconnect_policy</text>
</g>
<!-- Node8&#45;&gt;Node7 -->
<g id="edge8_Node000007_Node000008" class="edge">
<title>Node8&#45;&gt;Node7</title>
<g id="a_edge8_Node000007_Node000008"><a xlink:title=" ">
<path fill="none" stroke="#9a32cd" stroke-dasharray="5,2" d="M453.62,-246.24C493.82,-234.94 552.65,-218.41 589.48,-208.06"/>
<polygon fill="#9a32cd" stroke="#9a32cd" points="452.51,-242.92 443.83,-248.99 454.4,-249.66 452.51,-242.92"/>
</a>
</g>
<text text-anchor="middle" x="517.5" y="-237.5" font-family="Helvetica,sans-Serif" font-size="10.00" fill="grey"> policy</text>
</g>
<!-- Node9 -->
<g id="Node000009" class="node">
<title>Node9</title>
<g id="a_Node000009"><a xlink:href="group__security.html#structSocketTLSContext__T" target="_top" xlink:title="TLS context structure for managing OpenSSL SSL_CTX with secure defaults, certificates,...">
<polygon fill="white" stroke="#666666" points="680,-56 569,-56 569,-37 680,-37 680,-56"/>
<text text-anchor="middle" x="624.5" y="-44" font-family="Helvetica,sans-Serif" font-size="10.00">SocketTLSContext_T</text>
</a>
</g>
</g>
<!-- Node9&#45;&gt;Node2 -->
<g id="edge11_Node000002_Node000009" class="edge">
<title>Node9&#45;&gt;Node2</title>
<g id="a_edge11_Node000002_Node000009"><a xlink:title=" ">
<path fill="none" stroke="#9a32cd" stroke-dasharray="5,2" d="M675.33,-58.42C719.11,-68.9 781.86,-83.92 821.64,-93.44"/>
<polygon fill="#9a32cd" stroke="#9a32cd" points="676,-54.99 665.46,-56.06 674.37,-61.79 676,-54.99"/>
</a>
</g>
<text text-anchor="middle" x="748.5" y="-87.5" font-family="Helvetica,sans-Serif" font-size="10.00" fill="grey"> tls_ctx</text>
</g>
<!-- Node9&#45;&gt;Node9 -->
<g id="edge14_Node000009_Node000009" class="edge">
<title>Node9&#45;&gt;Node9</title>
<g id="a_edge14_Node000009_Node000009"><a xlink:title=" ">
<path fill="none" stroke="#9a32cd" stroke-dasharray="5,2" d="M604.87,-65.55C606.18,-70.38 612.73,-74 624.5,-74 643.34,-74 648.79,-64.73 640.84,-56.08"/>
<polygon fill="#9a32cd" stroke="#9a32cd" points="608.19,-66.68 608.16,-56.08 601.57,-64.38 608.19,-66.68"/>
</a>
</g>
<text text-anchor="middle" x="624.5" y="-77" font-family="Helvetica,sans-Serif" font-size="10.00" fill="grey"> verify_callback</text>
</g>
<!-- Node10 -->
<g id="Node000010" class="node">
<title>Node10</title>
<g id="a_Node000010"><a xlink:href="structTLSContextSNICerts.html" target="_top" xlink:title="Structure for managing SNI certificate mappings in TLS context.">
<polygon fill="white" stroke="#666666" points="464,-19 354,-19 354,0 464,0 464,-19"/>
<text text-anchor="middle" x="409" y="-7" font-family="Helvetica,sans-Serif" font-size="10.00">TLSContextSNICerts</text>
</a>
</g>
</g>
<!-- Node10&#45;&gt;Node9 -->
<g id="edge12_Node000009_Node000010" class="edge">
<title>Node10&#45;&gt;Node9</title>
<g id="a_edge12_Node000009_Node000010"><a xlink:title=" ">
<path fill="none" stroke="#9a32cd" stroke-dasharray="5,2" d="M474.25,-20.37C494.93,-23.89 517.94,-27.83 539,-31.5 548.98,-33.24 559.62,-35.11 569.87,-36.92"/>
<polygon fill="#9a32cd" stroke="#9a32cd" points="474.75,-16.9 464.31,-18.68 473.58,-23.81 474.75,-16.9"/>
</a>
</g>
<text text-anchor="middle" x="517.5" y="-34.5" font-family="Helvetica,sans-Serif" font-size="10.00" fill="grey"> sni_certs</text>
</g>
<!-- Node11 -->
<g id="Node000011" class="node">
<title>Node11</title>
<g id="a_Node000011"><a xlink:href="group__security.html#structTLSContextALPN" target="_top" xlink:title="Configuration for ALPN protocol negotiation.">
<polygon fill="white" stroke="#666666" points="456.5,-93 361.5,-93 361.5,-74 456.5,-74 456.5,-93"/>
<text text-anchor="middle" x="409" y="-81" font-family="Helvetica,sans-Serif" font-size="10.00">TLSContextALPN</text>
</a>
</g>
</g>
<!-- Node11&#45;&gt;Node9 -->
<g id="edge13_Node000009_Node000011" class="edge">
<title>Node11&#45;&gt;Node9</title>
<g id="a_edge13_Node000009_Node000011"><a xlink:title=" ">
<path fill="none" stroke="#9a32cd" stroke-dasharray="5,2" d="M466.66,-73.92C489.18,-70.09 515.32,-65.62 539,-61.5 548.98,-59.76 559.62,-57.89 569.87,-56.08"/>
<polygon fill="#9a32cd" stroke="#9a32cd" points="465.86,-70.51 456.59,-75.63 467.03,-77.41 465.86,-70.51"/>
</a>
</g>
<text text-anchor="middle" x="517.5" y="-72.5" font-family="Helvetica,sans-Serif" font-size="10.00" fill="grey"> alpn</text>
</g>
<!-- Node12 -->
<g id="Node000012" class="node">
<title>Node12</title>
<g id="a_Node000012"><a xlink:href="group__security.html#structTLSContextPinning" target="_top" xlink:title="TLSContextPinning &#45; Certificate pinning configuration.">
<polygon fill="white" stroke="#666666" points="459.5,-56 358.5,-56 358.5,-37 459.5,-37 459.5,-56"/>
<text text-anchor="middle" x="409" y="-44" font-family="Helvetica,sans-Serif" font-size="10.00">TLSContextPinning</text>
</a>
</g>
</g>
<!-- Node12&#45;&gt;Node9 -->
<g id="edge15_Node000009_Node000012" class="edge">
<title>Node12&#45;&gt;Node9</title>
<g id="a_edge15_Node000009_Node000012"><a xlink:title=" ">
<path fill="none" stroke="#9a32cd" stroke-dasharray="5,2" d="M469.76,-46.5C500.76,-46.5 538.36,-46.5 568.62,-46.5"/>
<polygon fill="#9a32cd" stroke="#9a32cd" points="469.52,-43 459.52,-46.5 469.52,-50 469.52,-43"/>
</a>
</g>
<text text-anchor="middle" x="517.5" y="-49.5" font-family="Helvetica,sans-Serif" font-size="10.00" fill="grey"> pinning</text>
</g>
<!-- Node13 -->
<g id="Node000013" class="node">
<title>Node13</title>
<g id="a_Node000013"><a xlink:href="group__security.html#structTLSCertPin" target="_top" xlink:title="TLSCertPin &#45; Single certificate pin entry (SPKI SHA256 hash)">
<polygon fill="white" stroke="#666666" points="272.5,-56 204.5,-56 204.5,-37 272.5,-37 272.5,-56"/>
<text text-anchor="middle" x="238.5" y="-44" font-family="Helvetica,sans-Serif" font-size="10.00">TLSCertPin</text>
</a>
</g>
</g>
<!-- Node13&#45;&gt;Node12 -->
<g id="edge16_Node000012_Node000013" class="edge">
<title>Node13&#45;&gt;Node12</title>
<g id="a_edge16_Node000012_Node000013"><a xlink:title=" ">
<path fill="none" stroke="#9a32cd" stroke-dasharray="5,2" d="M282.98,-46.5C306.08,-46.5 334.55,-46.5 358.49,-46.5"/>
<polygon fill="#9a32cd" stroke="#9a32cd" points="282.79,-43 272.79,-46.5 282.79,-50 282.79,-43"/>
</a>
</g>
<text text-anchor="middle" x="309.5" y="-49.5" font-family="Helvetica,sans-Serif" font-size="10.00" fill="grey"> pins</text>
</g>
<!-- Node14 -->
<g id="Node000014" class="node">
<title>Node14</title>
<g id="a_Node000014"><a xlink:href="group__dns.html#structSocketDNS__T" target="_top" xlink:title="Async DNS resolver structure.">
<polygon fill="white" stroke="#666666" points="900.5,-75 820.5,-75 820.5,-56 900.5,-56 900.5,-75"/>
<text text-anchor="middle" x="860.5" y="-63" font-family="Helvetica,sans-Serif" font-size="10.00">SocketDNS_T</text>
</a>
</g>
</g>
<!-- Node14&#45;&gt;Node1 -->
<g id="edge18_Node000001_Node000014" class="edge">
<title>Node14&#45;&gt;Node1</title>
<g id="a_edge18_Node000001_Node000014"><a xlink:title=" ">
<path fill="none" stroke="#9a32cd" stroke-dasharray="5,2" d="M910.62,-76.21C937.12,-83.83 969.18,-96.22 993,-115.5 1030.06,-145.49 1056.82,-197.59 1066.76,-218.95"/>
<polygon fill="#9a32cd" stroke="#9a32cd" points="911.33,-72.77 900.76,-73.51 909.49,-79.53 911.33,-72.77"/>
</a>
</g>
<text text-anchor="middle" x="963.5" y="-118.5" font-family="Helvetica,sans-Serif" font-size="10.00" fill="grey"> dns</text>
</g>
<!-- Node15 -->
<g id="Node000015" class="node">
<title>Node15</title>
<g id="a_Node000015"><a xlink:href="group__dns.html#structSocketDNS__Request__T" target="_top" xlink:title="DNS resolution request structure.">
<polygon fill="white" stroke="#666666" points="1133,-50 1011,-50 1011,-31 1133,-31 1133,-50"/>
<text text-anchor="middle" x="1072" y="-38" font-family="Helvetica,sans-Serif" font-size="10.00">SocketDNS_Request_T</text>
</a>
</g>
</g>
<!-- Node14&#45;&gt;Node15 -->
<g id="edge21_Node000015_Node000014" class="edge">
<title>Node14&#45;&gt;Node15</title>
<g id="a_edge21_Node000015_Node000014"><a xlink:title=" ">
<path fill="none" stroke="#9a32cd" stroke-dasharray="5,2" d="M911.09,-59.58C940.95,-56.02 979.16,-51.46 1010.75,-47.69"/>
<polygon fill="#9a32cd" stroke="#9a32cd" points="910.42,-56.14 900.91,-60.8 911.25,-63.09 910.42,-56.14"/>
</a>
</g>
<text text-anchor="middle" x="963.5" y="-60.5" font-family="Helvetica,sans-Serif" font-size="10.00" fill="grey"> dns_resolver</text>
</g>
<!-- Node15&#45;&gt;Node14 -->
<g id="edge19_Node000014_Node000015" class="edge">
<title>Node15&#45;&gt;Node14</title>
<g id="a_edge19_Node000014_Node000015"><a xlink:title=" ">
<path fill="none" stroke="#9a32cd" stroke-dasharray="5,2" d="M1042.82,-26.78C1014.78,-15.01 970.75,-1.68 934,-13.5 908.05,-21.85 883.51,-43.29 870.71,-55.88"/>
<polygon fill="#9a32cd" stroke="#9a32cd" points="1041.47,-30.01 1052.04,-30.83 1044.29,-23.6 1041.47,-30.01"/>
</a>
</g>
<text text-anchor="middle" x="963.5" y="-38.5" font-family="Helvetica,sans-Serif" font-size="10.00" fill="grey"> queue_head</text>
<text text-anchor="middle" x="963.5" y="-27.5" font-family="Helvetica,sans-Serif" font-size="10.00" fill="grey">queue_tail</text>
<text text-anchor="middle" x="963.5" y="-16.5" font-family="Helvetica,sans-Serif" font-size="10.00" fill="grey">request_hash</text>
</g>
<!-- Node15&#45;&gt;Node15 -->
<g id="edge20_Node000015_Node000015" class="edge">
<title>Node15&#45;&gt;Node15</title>
<g id="a_edge20_Node000015_Node000015"><a xlink:title=" ">
<path fill="none" stroke="#9a32cd" stroke-dasharray="5,2" d="M1052,-59.55C1053.34,-64.38 1060,-68 1072,-68 1091.2,-68 1096.74,-58.73 1088.65,-50.08"/>
<polygon fill="#9a32cd" stroke="#9a32cd" points="1055.32,-60.68 1055.35,-50.08 1048.72,-58.34 1055.32,-60.68"/>
</a>
</g>
<text text-anchor="middle" x="1072" y="-93" font-family="Helvetica,sans-Serif" font-size="10.00" fill="grey"> callback</text>
<text text-anchor="middle" x="1072" y="-82" font-family="Helvetica,sans-Serif" font-size="10.00" fill="grey">hash_next</text>
<text text-anchor="middle" x="1072" y="-71" font-family="Helvetica,sans-Serif" font-size="10.00" fill="grey">queue_next</text>
</g>
<!-- Node16 -->
<g id="Node000016" class="node">
<title>Node16</title>
<g id="a_Node000016"><a xlink:href="group__utilities.html#structSocketRateLimit__T" target="_top" xlink:title="Internal structure implementing the token bucket rate limiter.">
<polygon fill="white" stroke="#666666" points="675,-581 574,-581 574,-562 675,-562 675,-581"/>
<text text-anchor="middle" x="624.5" y="-569" font-family="Helvetica,sans-Serif" font-size="10.00">SocketRateLimit_T</text>
</a>
</g>
</g>
<!-- Node16&#45;&gt;Node1 -->
<g id="edge23_Node000001_Node000016" class="edge">
<title>Node16&#45;&gt;Node1</title>
<g id="a_edge23_Node000001_Node000016"><a xlink:title=" ">
<path fill="none" stroke="#9a32cd" stroke-dasharray="5,2" d="M685.43,-573.14C716.64,-572.13 754.89,-567.93 787,-555.5 898.77,-512.24 922.86,-478.68 993,-381.5 1028.95,-331.7 1057.55,-262.98 1067.35,-238.03"/>
<polygon fill="#9a32cd" stroke="#9a32cd" points="685.05,-569.65 675.13,-573.37 685.21,-576.65 685.05,-569.65"/>
</a>
</g>
<text text-anchor="middle" x="860.5" y="-549.5" font-family="Helvetica,sans-Serif" font-size="10.00" fill="grey"> conn_limiter</text>
</g>
<!-- Node17 -->
<g id="Node000017" class="node">
<title>Node17</title>
<g id="a_Node000017"><a xlink:href="group__security.html#structSocketSYNProtect__T" target="_top" xlink:title="Core internal structure for the SYN protection module.">
<polygon fill="white" stroke="#666666" points="916,-450 805,-450 805,-431 916,-431 916,-450"/>
<text text-anchor="middle" x="860.5" y="-438" font-family="Helvetica,sans-Serif" font-size="10.00">SocketSYNProtect_T</text>
</a>
</g>
</g>
<!-- Node16&#45;&gt;Node17 -->
<g id="edge33_Node000017_Node000016" class="edge">
<title>Node16&#45;&gt;Node17</title>
<g id="a_edge33_Node000017_Node000016"><a xlink:title=" ">
<path fill="none" stroke="#9a32cd" stroke-dasharray="5,2" d="M675.87,-559.04C681.37,-557.33 686.83,-555.48 692,-553.5 693.38,-552.97 785.78,-506.33 787,-505.5 811.85,-488.53 837.19,-463.73 850.33,-450.2"/>
<polygon fill="#9a32cd" stroke="#9a32cd" points="674.61,-555.76 666.01,-561.95 676.59,-562.47 674.61,-555.76"/>
</a>
</g>
<text text-anchor="middle" x="748.5" y="-546.5" font-family="Helvetica,sans-Serif" font-size="10.00" fill="grey"> global_limiter</text>
</g>
<!-- Node17&#45;&gt;Node1 -->
<g id="edge24_Node000001_Node000017" class="edge">
<title>Node17&#45;&gt;Node1</title>
<g id="a_edge24_Node000001_Node000017"><a xlink:title=" ">
<path fill="none" stroke="#9a32cd" stroke-dasharray="5,2" d="M878.29,-423.51C920.22,-381.08 1028.52,-271.48 1061.4,-238.22"/>
<polygon fill="#9a32cd" stroke="#9a32cd" points="875.59,-421.27 871.05,-430.84 880.56,-426.19 875.59,-421.27"/>
</a>
</g>
<text text-anchor="middle" x="963.5" y="-369.5" font-family="Helvetica,sans-Serif" font-size="10.00" fill="grey"> syn_protect</text>
</g>
<!-- Node18 -->
<g id="Node000018" class="node">
<title>Node18</title>
<g id="a_Node000018"><a xlink:href="group__security.html#structSocketSYNProtect__Config" target="_top" xlink:title="Configuration parameters for SYN flood protection.">
<polygon fill="white" stroke="#666666" points="691.5,-478 557.5,-478 557.5,-459 691.5,-459 691.5,-478"/>
<text text-anchor="middle" x="624.5" y="-466" font-family="Helvetica,sans-Serif" font-size="10.00">SocketSYNProtect_Config</text>
</a>
</g>
</g>
<!-- Node18&#45;&gt;Node17 -->
<g id="edge25_Node000017_Node000018" class="edge">
<title>Node18&#45;&gt;Node17</title>
<g id="a_edge25_Node000017_Node000018"><a xlink:title=" ">
<path fill="none" stroke="#9a32cd" stroke-dasharray="5,2" d="M701.88,-459.36C735.54,-455.33 774.32,-450.69 804.99,-447.02"/>
<polygon fill="#9a32cd" stroke="#9a32cd" points="701.13,-455.93 691.62,-460.59 701.96,-462.88 701.13,-455.93"/>
</a>
</g>
<text text-anchor="middle" x="748.5" y="-460.5" font-family="Helvetica,sans-Serif" font-size="10.00" fill="grey"> config</text>
</g>
<!-- Node19 -->
<g id="Node000019" class="node">
<title>Node19</title>
<g id="a_Node000019"><a xlink:href="group__security.html#structSocketSYN__IPEntry" target="_top" xlink:title="Internal IP tracking entry for hash table and LRU management.">
<polygon fill="white" stroke="#666666" points="678,-390 571,-390 571,-371 678,-371 678,-390"/>
<text text-anchor="middle" x="624.5" y="-378" font-family="Helvetica,sans-Serif" font-size="10.00">SocketSYN_IPEntry</text>
</a>
</g>
</g>
<!-- Node19&#45;&gt;Node17 -->
<g id="edge26_Node000017_Node000019" class="edge">
<title>Node19&#45;&gt;Node17</title>
<g id="a_edge26_Node000017_Node000019"><a xlink:title=" ">
<path fill="none" stroke="#9a32cd" stroke-dasharray="5,2" d="M688.03,-390.29C718.23,-395.68 754.81,-403.17 787,-412.5 804.37,-417.53 823.42,-424.97 837.63,-430.91"/>
<polygon fill="#9a32cd" stroke="#9a32cd" points="688.51,-386.82 678.05,-388.55 687.3,-393.72 688.51,-386.82"/>
</a>
</g>
<text text-anchor="middle" x="748.5" y="-437.5" font-family="Helvetica,sans-Serif" font-size="10.00" fill="grey"> ip_table</text>
<text text-anchor="middle" x="748.5" y="-426.5" font-family="Helvetica,sans-Serif" font-size="10.00" fill="grey">lru_head</text>
<text text-anchor="middle" x="748.5" y="-415.5" font-family="Helvetica,sans-Serif" font-size="10.00" fill="grey">lru_tail</text>
</g>
<!-- Node19&#45;&gt;Node19 -->
<g id="edge28_Node000019_Node000019" class="edge">
<title>Node19&#45;&gt;Node19</title>
<g id="a_edge28_Node000019_Node000019"><a xlink:title=" ">
<path fill="none" stroke="#9a32cd" stroke-dasharray="5,2" d="M604.87,-399.55C606.18,-404.38 612.73,-408 624.5,-408 643.34,-408 648.79,-398.73 640.84,-390.08"/>
<polygon fill="#9a32cd" stroke="#9a32cd" points="608.19,-400.68 608.16,-390.08 601.57,-398.38 608.19,-400.68"/>
</a>
</g>
<text text-anchor="middle" x="624.5" y="-433" font-family="Helvetica,sans-Serif" font-size="10.00" fill="grey"> hash_next</text>
<text text-anchor="middle" x="624.5" y="-422" font-family="Helvetica,sans-Serif" font-size="10.00" fill="grey">lru_next</text>
<text text-anchor="middle" x="624.5" y="-411" font-family="Helvetica,sans-Serif" font-size="10.00" fill="grey">lru_prev</text>
</g>
<!-- Node20 -->
<g id="Node000020" class="node">
<title>Node20</title>
<g id="a_Node000020"><a xlink:href="group__security.html#structSocketSYN__IPState" target="_top" xlink:title="Per&#45;IP address tracking and reputation state.">
<polygon fill="white" stroke="#666666" points="462.5,-390 355.5,-390 355.5,-371 462.5,-371 462.5,-390"/>
<text text-anchor="middle" x="409" y="-378" font-family="Helvetica,sans-Serif" font-size="10.00">SocketSYN_IPState</text>
</a>
</g>
</g>
<!-- Node20&#45;&gt;Node19 -->
<g id="edge27_Node000019_Node000020" class="edge">
<title>Node20&#45;&gt;Node19</title>
<g id="a_edge27_Node000019_Node000020"><a xlink:title=" ">
<path fill="none" stroke="#9a32cd" stroke-dasharray="5,2" d="M472.82,-380.5C503.98,-380.5 541.18,-380.5 570.83,-380.5"/>
<polygon fill="#9a32cd" stroke="#9a32cd" points="472.5,-377 462.5,-380.5 472.5,-384 472.5,-377"/>
</a>
</g>
<text text-anchor="middle" x="517.5" y="-383.5" font-family="Helvetica,sans-Serif" font-size="10.00" fill="grey"> state</text>
</g>
<!-- Node21 -->
<g id="Node000021" class="node">
<title>Node21</title>
<g id="a_Node000021"><a xlink:href="group__security.html#structSocketSYN__WhitelistEntry" target="_top" xlink:title="Structure for whitelist entries supporting single IPs and CIDR ranges.">
<polygon fill="white" stroke="#666666" points="692,-324 557,-324 557,-305 692,-305 692,-324"/>
<text text-anchor="middle" x="624.5" y="-312" font-family="Helvetica,sans-Serif" font-size="10.00">SocketSYN_WhitelistEntry</text>
</a>
</g>
</g>
<!-- Node21&#45;&gt;Node17 -->
<g id="edge29_Node000017_Node000021" class="edge">
<title>Node21&#45;&gt;Node17</title>
<g id="a_edge29_Node000017_Node000021"><a xlink:title=" ">
<path fill="none" stroke="#9a32cd" stroke-dasharray="5,2" d="M666.08,-327.24C699.75,-338.69 748.21,-357.27 787,-380.5 811.67,-395.28 836.69,-418.09 849.91,-430.91"/>
<polygon fill="#9a32cd" stroke="#9a32cd" points="667.16,-323.91 656.57,-324.06 664.94,-330.55 667.16,-323.91"/>
</a>
</g>
<text text-anchor="middle" x="748.5" y="-383.5" font-family="Helvetica,sans-Serif" font-size="10.00" fill="grey"> whitelist_table</text>
</g>
<!-- Node21&#45;&gt;Node21 -->
<g id="edge30_Node000021_Node000021" class="edge">
<title>Node21&#45;&gt;Node21</title>
<g id="a_edge30_Node000021_Node000021"><a xlink:title=" ">
<path fill="none" stroke="#9a32cd" stroke-dasharray="5,2" d="M604.87,-333.55C606.18,-338.38 612.73,-342 624.5,-342 643.34,-342 648.79,-332.73 640.84,-324.08"/>
<polygon fill="#9a32cd" stroke="#9a32cd" points="608.19,-334.68 608.16,-324.08 601.57,-332.38 608.19,-334.68"/>
</a>
</g>
<text text-anchor="middle" x="624.5" y="-345" font-family="Helvetica,sans-Serif" font-size="10.00" fill="grey"> next</text>
</g>
<!-- Node22 -->
<g id="Node000022" class="node">
<title>Node22</title>
<g id="a_Node000022"><a xlink:href="group__security.html#structSocketSYN__BlacklistEntry" target="_top" xlink:title="Internal structure for blacklisted IP addresses with expiry support.">
<polygon fill="white" stroke="#666666" points="691.5,-515 557.5,-515 557.5,-496 691.5,-496 691.5,-515"/>
<text text-anchor="middle" x="624.5" y="-503" font-family="Helvetica,sans-Serif" font-size="10.00">SocketSYN_BlacklistEntry</text>
</a>
</g>
</g>
<!-- Node22&#45;&gt;Node17 -->
<g id="edge31_Node000017_Node000022" class="edge">
<title>Node22&#45;&gt;Node17</title>
<g id="a_edge31_Node000017_Node000022"><a xlink:title=" ">
<path fill="none" stroke="#9a32cd" stroke-dasharray="5,2" d="M698.18,-494.07C726.27,-488.77 758.47,-481.6 787,-472.5 805.88,-466.48 826.46,-457.11 840.85,-450.06"/>
<polygon fill="#9a32cd" stroke="#9a32cd" points="697.23,-490.69 688.03,-495.94 698.5,-497.57 697.23,-490.69"/>
</a>
</g>
<text text-anchor="middle" x="748.5" y="-493.5" font-family="Helvetica,sans-Serif" font-size="10.00" fill="grey"> blacklist_table</text>
</g>
<!-- Node22&#45;&gt;Node22 -->
<g id="edge32_Node000022_Node000022" class="edge">
<title>Node22&#45;&gt;Node22</title>
<g id="a_edge32_Node000022_Node000022"><a xlink:title=" ">
<path fill="none" stroke="#9a32cd" stroke-dasharray="5,2" d="M604.87,-524.55C606.18,-529.38 612.73,-533 624.5,-533 643.34,-533 648.79,-523.73 640.84,-515.08"/>
<polygon fill="#9a32cd" stroke="#9a32cd" points="608.19,-525.68 608.16,-515.08 601.57,-523.38 608.19,-525.68"/>
</a>
</g>
<text text-anchor="middle" x="624.5" y="-536" font-family="Helvetica,sans-Serif" font-size="10.00" fill="grey"> next</text>
</g>
</g>
</svg>

<g id="navigator" transform="translate(0 0)" fill="#404254">
  <rect fill="#f2f5e9" fill-opacity="0.5" stroke="#606060" stroke-width=".5" x="0" y="0" width="60" height="60"/>
  <use id="zoomplus" xlink:href="#zoomPlus" x="17" y="9" onmousedown="handleZoom(evt,'in')"/>
  <use id="zoomminus" xlink:href="#zoomMin" x="42" y="9" onmousedown="handleZoom(evt,'out')"/>
  <use id="reset" xlink:href="#resetDef" x="30" y="36" onmousedown="handleReset()"/>
   <use id="arrowup" xlink:href="#arrowUp" x="0" y="0" onmousedown="handlePan(0,-1)"/>
  <use id="arrowright" xlink:href="#arrowRight" x="0" y="0" onmousedown="handlePan(1,0)"/>
  <use id="arrowdown" xlink:href="#arrowDown" x="0" y="0" onmousedown="handlePan(0,1)"/>
  <use id="arrowleft" xlink:href="#arrowLeft" x="0" y="0" onmousedown="handlePan(-1,0)"/>
</g>
<svg viewBox="0 0 15 15" width="100%" height="30px" preserveAspectRatio="xMaxYMin meet">
 <g id="arrow_out" transform="scale(0.3 0.3)">
  <a xlink:href="structSocketPool__T__coll__graph_org.svg" target="_base">
   <rect id="button" ry="5" rx="5" y="6" x="6" height="38" width="38"
        fill="#f2f5e9" fill-opacity="0.5" stroke="#606060" stroke-width="1.0"/>
   <path id="arrow"
     d="M 11.500037,31.436501 C 11.940474,20.09759 22.043105,11.32322 32.158766,21.979434 L 37.068811,17.246167 C 37.068811,17.246167 37.088388,32 37.088388,32 L 22.160133,31.978069 C 22.160133,31.978069 26.997745,27.140456 26.997745,27.140456 C 18.528582,18.264221 13.291696,25.230495 11.500037,31.436501 z"
     style="fill:#404040;"/>
  </a>
 </g>
</svg>

<style type='text/css'>
<![CDATA[
[data-mouse-over-selected='false'] { opacity: 0.7; }
[data-mouse-over-selected='true']  { opacity: 1.0; }
]]>
</style>
<script type="application/ecmascript"><![CDATA[
document.addEventListener('DOMContentLoaded', (event) => {
  highlightEdges();
  highlightAdjacentNodes();
});
]]></script>
</svg>
