<?xml version="1.0" encoding="UTF-8" standalone="no"?>
<!DOCTYPE svg PUBLIC "-//W3C//DTD SVG 1.1//EN"
 "http://www.w3.org/Graphics/SVG/1.1/DTD/svg11.dtd">
<!-- Generated by graphviz version 2.43.0 (0)
 -->
<!-- Title: AsyncConnectContext_T Pages: 1 -->
<svg width="1464pt" height="774pt"
 viewBox="0.00 0.00 1464.00 773.50" xmlns="http://www.w3.org/2000/svg" xmlns:xlink="http://www.w3.org/1999/xlink">
<g id="graph0" class="graph" transform="scale(1 1) rotate(0) translate(4 769.5)">
<title>AsyncConnectContext_T</title>
<!-- Node1 -->
<g id="Node000001" class="node">
<title>Node1</title>
<g id="a_Node000001"><a xlink:title="Internal context structure for tracking asynchronous connect operations.">
<polygon fill="#999999" stroke="#666666" points="1456,-573 1329,-573 1329,-554 1456,-554 1456,-573"/>
<text text-anchor="middle" x="1392.5" y="-561" font-family="Helvetica,sans-Serif" font-size="10.00">AsyncConnectContext_T</text>
</a>
</g>
</g>
<!-- Node2 -->
<g id="Node000002" class="node">
<title>Node2</title>
<g id="a_Node000002"><a xlink:href="SocketPool-private_8h.html#structSocketPool__T" target="_top" xlink:title=" ">
<polygon fill="white" stroke="#666666" points="1086,-456 1008,-456 1008,-437 1086,-437 1086,-456"/>
<text text-anchor="middle" x="1047" y="-444" font-family="Helvetica,sans-Serif" font-size="10.00">SocketPool_T</text>
</a>
</g>
</g>
<!-- Node2&#45;&gt;Node1 -->
<g id="edge1_Node000001_Node000002" class="edge">
<title>Node2&#45;&gt;Node1</title>
<g id="a_edge1_Node000001_Node000002"><a xlink:title=" ">
<path fill="none" stroke="#9a32cd" stroke-dasharray="5,2" d="M1096.41,-449.02C1142.64,-452.75 1213.57,-461.93 1271,-484.5 1315.23,-501.89 1360.18,-536.98 1380.42,-553.92"/>
<polygon fill="#9a32cd" stroke="#9a32cd" points="1096.59,-445.53 1086.36,-448.27 1096.07,-452.51 1096.59,-445.53"/>
</a>
</g>
<text text-anchor="middle" x="1207.5" y="-487.5" font-family="Helvetica,sans-Serif" font-size="10.00" fill="grey"> pool</text>
</g>
<!-- Node2&#45;&gt;Node2 -->
<g id="edge35_Node000002_Node000002" class="edge">
<title>Node2&#45;&gt;Node2</title>
<g id="a_edge35_Node000002_Node000002"><a xlink:title=" ">
<path fill="none" stroke="#9a32cd" stroke-dasharray="5,2" d="M1034.48,-465.91C1035.46,-470.56 1039.64,-474 1047,-474 1059.09,-474 1062.58,-464.73 1057.48,-456.08"/>
<polygon fill="#9a32cd" stroke="#9a32cd" points="1037.91,-466.59 1036.52,-456.08 1031.06,-465.16 1037.91,-466.59"/>
</a>
</g>
<text text-anchor="middle" x="1047" y="-488" font-family="Helvetica,sans-Serif" font-size="10.00" fill="grey"> drain_cb</text>
<text text-anchor="middle" x="1047" y="-477" font-family="Helvetica,sans-Serif" font-size="10.00" fill="grey">resize_cb</text>
</g>
<!-- Node24 -->
<g id="Node000024" class="node">
<title>Node24</title>
<g id="a_Node000024"><a xlink:href="group__connection__mgmt.html#structAsyncConnectContext" target="_top" xlink:title="Internal context structure for tracking asynchronous connect operations.">
<polygon fill="white" stroke="#666666" points="1271,-523 1144,-523 1144,-504 1271,-504 1271,-523"/>
<text text-anchor="middle" x="1207.5" y="-511" font-family="Helvetica,sans-Serif" font-size="10.00">AsyncConnectContext_T</text>
</a>
</g>
</g>
<!-- Node2&#45;&gt;Node24 -->
<g id="edge39_Node000024_Node000002" class="edge">
<title>Node2&#45;&gt;Node24</title>
<g id="a_edge39_Node000024_Node000002"><a xlink:title=" ">
<path fill="none" stroke="#9a32cd" stroke-dasharray="5,2" d="M1070.77,-461.41C1080.72,-467.52 1092.67,-474.35 1104,-479.5 1125.85,-489.43 1151.47,-497.93 1171.64,-503.94"/>
<polygon fill="#9a32cd" stroke="#9a32cd" points="1072.61,-458.43 1062.28,-456.06 1068.88,-464.35 1072.61,-458.43"/>
</a>
</g>
<text text-anchor="middle" x="1115" y="-491.5" font-family="Helvetica,sans-Serif" font-size="10.00" fill="grey"> pool</text>
</g>
<!-- Node3 -->
<g id="Node000003" class="node">
<title>Node3</title>
<g id="a_Node000003"><a xlink:href="group__connection__mgmt.html#structConnection" target="_top" xlink:title="Internal structure representing a pooled connection slot.">
<polygon fill="white" stroke="#666666" points="899,-418 822,-418 822,-399 899,-399 899,-418"/>
<text text-anchor="middle" x="860.5" y="-406" font-family="Helvetica,sans-Serif" font-size="10.00">Connection_T</text>
</a>
</g>
</g>
<!-- Node3&#45;&gt;Node2 -->
<g id="edge2_Node000002_Node000003" class="edge">
<title>Node3&#45;&gt;Node2</title>
<g id="a_edge2_Node000002_Node000003"><a xlink:title=" ">
<path fill="none" stroke="#9a32cd" stroke-dasharray="5,2" d="M909.34,-418.35C940.04,-424.68 979.38,-432.78 1007.95,-438.66"/>
<polygon fill="#9a32cd" stroke="#9a32cd" points="909.78,-414.87 899.28,-416.28 908.37,-421.73 909.78,-414.87"/>
</a>
</g>
<text text-anchor="middle" x="962" y="-436.5" font-family="Helvetica,sans-Serif" font-size="10.00" fill="grey"> connections</text>
</g>
<!-- Node3&#45;&gt;Node3 -->
<g id="edge7_Node000003_Node000003" class="edge">
<title>Node3&#45;&gt;Node3</title>
<g id="a_edge7_Node000003_Node000003"><a xlink:title=" ">
<path fill="none" stroke="#9a32cd" stroke-dasharray="5,2" d="M842.08,-427.91C843.53,-432.56 849.67,-436 860.5,-436 878.27,-436 883.41,-426.73 875.91,-418.08"/>
<polygon fill="#9a32cd" stroke="#9a32cd" points="845.51,-428.67 845.09,-418.08 838.82,-426.62 845.51,-428.67"/>
</a>
</g>
<text text-anchor="middle" x="860.5" y="-450" font-family="Helvetica,sans-Serif" font-size="10.00" fill="grey"> free_next</text>
<text text-anchor="middle" x="860.5" y="-439" font-family="Helvetica,sans-Serif" font-size="10.00" fill="grey">hash_next</text>
</g>
<!-- Node4 -->
<g id="Node000004" class="node">
<title>Node4</title>
<g id="a_Node000004"><a xlink:title=" ">
<polygon fill="white" stroke="#666666" points="438.5,-632 379.5,-632 379.5,-613 438.5,-613 438.5,-632"/>
<text text-anchor="middle" x="409" y="-620" font-family="Helvetica,sans-Serif" font-size="10.00">Socket_T</text>
</a>
</g>
</g>
<!-- Node4&#45;&gt;Node1 -->
<g id="edge36_Node000001_Node000004" class="edge">
<title>Node4&#45;&gt;Node1</title>
<g id="a_edge36_Node000001_Node000004"><a xlink:title=" ">
<path fill="none" stroke="#9a32cd" stroke-dasharray="5,2" d="M448.35,-633.82C490.79,-645.34 561.41,-661.5 623.5,-661.5 623.5,-661.5 623.5,-661.5 1208.5,-661.5 1282.74,-661.5 1356,-598.04 1381.78,-573.25"/>
<polygon fill="#9a32cd" stroke="#9a32cd" points="449.27,-630.45 438.7,-631.16 447.41,-637.2 449.27,-630.45"/>
</a>
</g>
<text text-anchor="middle" x="962" y="-664.5" font-family="Helvetica,sans-Serif" font-size="10.00" fill="grey"> socket</text>
</g>
<!-- Node4&#45;&gt;Node2 -->
<g id="edge18_Node000002_Node000004" class="edge">
<title>Node4&#45;&gt;Node2</title>
<g id="a_edge18_Node000002_Node000004"><a xlink:title=" ">
<path fill="none" stroke="#9a32cd" stroke-dasharray="5,2" d="M429.23,-638.7C445.74,-651.49 470.81,-668.33 496,-675.5 707.17,-735.6 823.46,-819.57 990,-676.5 1010.12,-659.22 1001.71,-584.27 1008,-558.5 1017.44,-519.8 1034.39,-475.44 1042.05,-456.22"/>
<polygon fill="#9a32cd" stroke="#9a32cd" points="430.98,-635.62 420.98,-632.1 426.6,-641.08 430.98,-635.62"/>
</a>
</g>
<text text-anchor="middle" x="748.5" y="-757.5" font-family="Helvetica,sans-Serif" font-size="10.00" fill="grey"> cleanup_buffer</text>
</g>
<!-- Node4&#45;&gt;Node3 -->
<g id="edge3_Node000003_Node000004" class="edge">
<title>Node4&#45;&gt;Node3</title>
<g id="a_edge3_Node000003_Node000004"><a xlink:title=" ">
<path fill="none" stroke="#9a32cd" stroke-dasharray="5,2" d="M426.33,-605.52C451.88,-579.94 503.87,-531.62 557,-504.5 612.41,-476.22 632.62,-486.07 692,-467.5 742.91,-451.58 801.5,-430.23 834.15,-418.06"/>
<polygon fill="#9a32cd" stroke="#9a32cd" points="423.52,-603.39 419,-612.98 428.51,-608.3 423.52,-603.39"/>
</a>
</g>
<text text-anchor="middle" x="624.5" y="-507.5" font-family="Helvetica,sans-Serif" font-size="10.00" fill="grey"> socket</text>
</g>
<!-- Node8 -->
<g id="Node000008" class="node">
<title>Node8</title>
<g id="a_Node000008"><a xlink:href="group__reconnect__private.html#structSocketReconnect__T" target="_top" xlink:title="Opaque internal context for reconnecting socket management.">
<polygon fill="white" stroke="#666666" points="677.5,-418 571.5,-418 571.5,-399 677.5,-399 677.5,-418"/>
<text text-anchor="middle" x="624.5" y="-406" font-family="Helvetica,sans-Serif" font-size="10.00">SocketReconnect_T</text>
</a>
</g>
</g>
<!-- Node4&#45;&gt;Node8 -->
<g id="edge10_Node000008_Node000004" class="edge">
<title>Node4&#45;&gt;Node8</title>
<g id="a_edge10_Node000008_Node000004"><a xlink:title=" ">
<path fill="none" stroke="#9a32cd" stroke-dasharray="5,2" d="M416.48,-603.16C427.96,-571.49 454.61,-508.25 496,-469.5 523.05,-444.18 562.55,-427.5 590.4,-418.09"/>
<polygon fill="#9a32cd" stroke="#9a32cd" points="413.06,-602.35 413.06,-612.95 419.66,-604.67 413.06,-602.35"/>
</a>
</g>
<text text-anchor="middle" x="517.5" y="-472.5" font-family="Helvetica,sans-Serif" font-size="10.00" fill="grey"> socket</text>
</g>
<!-- Node4&#45;&gt;Node24 -->
<g id="edge40_Node000024_Node000004" class="edge">
<title>Node4&#45;&gt;Node24</title>
<g id="a_edge40_Node000024_Node000004"><a xlink:title=" ">
<path fill="none" stroke="#9a32cd" stroke-dasharray="5,2" d="M448.92,-622.5C491.71,-622.5 562.51,-622.5 623.5,-622.5 623.5,-622.5 623.5,-622.5 1048,-622.5 1117.8,-622.5 1179.27,-549.85 1199.49,-523.17"/>
<polygon fill="#9a32cd" stroke="#9a32cd" points="448.66,-619 438.66,-622.5 448.66,-626 448.66,-619"/>
</a>
</g>
<text text-anchor="middle" x="860.5" y="-625.5" font-family="Helvetica,sans-Serif" font-size="10.00" fill="grey"> socket</text>
</g>
<!-- Node5 -->
<g id="Node000005" class="node">
<title>Node5</title>
<g id="a_Node000005"><a xlink:href="group__core__io.html#structSocketBase__T" target="_top" xlink:title="Internal implementation of SocketBase_T opaque type.">
<polygon fill="white" stroke="#666666" points="279,-632 198,-632 198,-613 279,-613 279,-632"/>
<text text-anchor="middle" x="238.5" y="-620" font-family="Helvetica,sans-Serif" font-size="10.00">SocketBase_T</text>
</a>
</g>
</g>
<!-- Node5&#45;&gt;Node4 -->
<g id="edge4_Node000004_Node000005" class="edge">
<title>Node5&#45;&gt;Node4</title>
<g id="a_edge4_Node000004_Node000005"><a xlink:title=" ">
<path fill="none" stroke="#9a32cd" stroke-dasharray="5,2" d="M289.08,-622.5C318.43,-622.5 354.59,-622.5 379.28,-622.5"/>
<polygon fill="#9a32cd" stroke="#9a32cd" points="289.01,-619 279.01,-622.5 289.01,-626 289.01,-619"/>
</a>
</g>
<text text-anchor="middle" x="309.5" y="-625.5" font-family="Helvetica,sans-Serif" font-size="10.00" fill="grey"> base</text>
</g>
<!-- Node6 -->
<g id="Node000006" class="node">
<title>Node6</title>
<g id="a_Node000006"><a xlink:href="group__foundation.html#structSocketTimeouts__T" target="_top" xlink:title="Basic timeout configuration structure for socket operations.">
<polygon fill="white" stroke="#666666" points="110,-650 11,-650 11,-631 110,-631 110,-650"/>
<text text-anchor="middle" x="60.5" y="-638" font-family="Helvetica,sans-Serif" font-size="10.00">SocketTimeouts_T</text>
</a>
</g>
</g>
<!-- Node6&#45;&gt;Node5 -->
<g id="edge5_Node000005_Node000006" class="edge">
<title>Node6&#45;&gt;Node5</title>
<g id="a_edge5_Node000005_Node000006"><a xlink:title=" ">
<path fill="none" stroke="#9a32cd" stroke-dasharray="5,2" d="M120.03,-634.51C145.65,-631.89 175.02,-628.89 197.99,-626.54"/>
<polygon fill="#9a32cd" stroke="#9a32cd" points="119.65,-631.03 110.06,-635.53 120.36,-638 119.65,-631.03"/>
</a>
</g>
<text text-anchor="middle" x="159.5" y="-634.5" font-family="Helvetica,sans-Serif" font-size="10.00" fill="grey"> timeouts</text>
</g>
<!-- Node7 -->
<g id="Node000007" class="node">
<title>Node7</title>
<g id="a_Node000007"><a xlink:href="group__foundation.html#structSocketMetricsSnapshot" target="_top" xlink:title="SocketMetricsSnapshot &#45; Thread&#45;safe snapshot of all library metrics.">
<polygon fill="white" stroke="#666666" points="121,-613 0,-613 0,-594 121,-594 121,-613"/>
<text text-anchor="middle" x="60.5" y="-601" font-family="Helvetica,sans-Serif" font-size="10.00">SocketMetricsSnapshot</text>
</a>
</g>
</g>
<!-- Node7&#45;&gt;Node5 -->
<g id="edge6_Node000005_Node000007" class="edge">
<title>Node7&#45;&gt;Node5</title>
<g id="a_edge6_Node000005_Node000007"><a xlink:title=" ">
<path fill="none" stroke="#9a32cd" stroke-dasharray="5,2" d="M131.58,-608.58C147.52,-609.97 164.36,-611.62 180,-613.5 185.82,-614.2 191.95,-615.04 197.96,-615.93"/>
<polygon fill="#9a32cd" stroke="#9a32cd" points="131.52,-605.07 121.26,-607.71 130.93,-612.04 131.52,-605.07"/>
</a>
</g>
<text text-anchor="middle" x="159.5" y="-616.5" font-family="Helvetica,sans-Serif" font-size="10.00" fill="grey"> metrics</text>
</g>
<!-- Node8&#45;&gt;Node3 -->
<g id="edge8_Node000003_Node000008" class="edge">
<title>Node8&#45;&gt;Node3</title>
<g id="a_edge8_Node000003_Node000008"><a xlink:title=" ">
<path fill="none" stroke="#9a32cd" stroke-dasharray="5,2" d="M687.75,-408.5C730.5,-408.5 785.84,-408.5 821.99,-408.5"/>
<polygon fill="#9a32cd" stroke="#9a32cd" points="687.72,-405 677.72,-408.5 687.72,-412 687.72,-405"/>
</a>
</g>
<text text-anchor="middle" x="748.5" y="-411.5" font-family="Helvetica,sans-Serif" font-size="10.00" fill="grey"> reconnect</text>
</g>
<!-- Node8&#45;&gt;Node8 -->
<g id="edge11_Node000008_Node000008" class="edge">
<title>Node8&#45;&gt;Node8</title>
<g id="a_edge11_Node000008_Node000008"><a xlink:title=" ">
<path fill="none" stroke="#9a32cd" stroke-dasharray="5,2" d="M604.87,-427.55C606.18,-432.38 612.73,-436 624.5,-436 643.34,-436 648.79,-426.73 640.84,-418.08"/>
<polygon fill="#9a32cd" stroke="#9a32cd" points="608.19,-428.68 608.16,-418.08 601.57,-426.38 608.19,-428.68"/>
</a>
</g>
<text text-anchor="middle" x="624.5" y="-450" font-family="Helvetica,sans-Serif" font-size="10.00" fill="grey"> callback</text>
<text text-anchor="middle" x="624.5" y="-439" font-family="Helvetica,sans-Serif" font-size="10.00" fill="grey">health_check</text>
</g>
<!-- Node9 -->
<g id="Node000009" class="node">
<title>Node9</title>
<g id="a_Node000009"><a xlink:href="group__connection__mgmt.html#structSocketReconnect__Policy__T" target="_top" xlink:title="Configuration structure defining backoff policy, circuit breaker thresholds, and health check paramet...">
<polygon fill="white" stroke="#666666" points="478,-401 340,-401 340,-382 478,-382 478,-401"/>
<text text-anchor="middle" x="409" y="-389" font-family="Helvetica,sans-Serif" font-size="10.00">SocketReconnect_Policy_T</text>
</a>
</g>
</g>
<!-- Node9&#45;&gt;Node2 -->
<g id="edge23_Node000002_Node000009" class="edge">
<title>Node9&#45;&gt;Node2</title>
<g id="a_edge23_Node000002_Node000009"><a xlink:title=" ">
<path fill="none" stroke="#9a32cd" stroke-dasharray="5,2" d="M488.31,-382.32C588.47,-372.64 766.83,-362.31 916,-390.5 959.46,-398.71 1006.08,-423.06 1029.92,-436.8"/>
<polygon fill="#9a32cd" stroke="#9a32cd" points="487.88,-378.85 478.27,-383.32 488.57,-385.82 487.88,-378.85"/>
</a>
</g>
<text text-anchor="middle" x="748.5" y="-377.5" font-family="Helvetica,sans-Serif" font-size="10.00" fill="grey"> reconnect_policy</text>
</g>
<!-- Node9&#45;&gt;Node8 -->
<g id="edge9_Node000008_Node000009" class="edge">
<title>Node9&#45;&gt;Node8</title>
<g id="a_edge9_Node000008_Node000009"><a xlink:title=" ">
<path fill="none" stroke="#9a32cd" stroke-dasharray="5,2" d="M488.19,-397.73C515.83,-399.93 546.24,-402.35 571.21,-404.34"/>
<polygon fill="#9a32cd" stroke="#9a32cd" points="488.39,-394.23 478.14,-396.93 487.83,-401.21 488.39,-394.23"/>
</a>
</g>
<text text-anchor="middle" x="517.5" y="-404.5" font-family="Helvetica,sans-Serif" font-size="10.00" fill="grey"> policy</text>
</g>
<!-- Node10 -->
<g id="Node000010" class="node">
<title>Node10</title>
<g id="a_Node000010"><a xlink:href="group__security.html#structSocketTLSContext__T" target="_top" xlink:title="TLS context structure for managing OpenSSL SSL_CTX with secure defaults, certificates,...">
<polygon fill="white" stroke="#666666" points="680,-313 569,-313 569,-294 680,-294 680,-313"/>
<text text-anchor="middle" x="624.5" y="-301" font-family="Helvetica,sans-Serif" font-size="10.00">SocketTLSContext_T</text>
</a>
</g>
</g>
<!-- Node10&#45;&gt;Node3 -->
<g id="edge12_Node000003_Node000010" class="edge">
<title>Node10&#45;&gt;Node3</title>
<g id="a_edge12_Node000003_Node000010"><a xlink:title=" ">
<path fill="none" stroke="#9a32cd" stroke-dasharray="5,2" d="M690.3,-308.67C721.01,-313.19 757.38,-321.65 787,-337.5 815.89,-352.96 841.07,-383.43 852.68,-398.94"/>
<polygon fill="#9a32cd" stroke="#9a32cd" points="690.49,-305.17 680.11,-307.29 689.55,-312.1 690.49,-305.17"/>
</a>
</g>
<text text-anchor="middle" x="748.5" y="-340.5" font-family="Helvetica,sans-Serif" font-size="10.00" fill="grey"> tls_ctx</text>
</g>
<!-- Node10&#45;&gt;Node10 -->
<g id="edge15_Node000010_Node000010" class="edge">
<title>Node10&#45;&gt;Node10</title>
<g id="a_edge15_Node000010_Node000010"><a xlink:title=" ">
<path fill="none" stroke="#9a32cd" stroke-dasharray="5,2" d="M604.87,-322.55C606.18,-327.38 612.73,-331 624.5,-331 643.34,-331 648.79,-321.73 640.84,-313.08"/>
<polygon fill="#9a32cd" stroke="#9a32cd" points="608.19,-323.68 608.16,-313.08 601.57,-321.38 608.19,-323.68"/>
</a>
</g>
<text text-anchor="middle" x="624.5" y="-334" font-family="Helvetica,sans-Serif" font-size="10.00" fill="grey"> verify_callback</text>
</g>
<!-- Node11 -->
<g id="Node000011" class="node">
<title>Node11</title>
<g id="a_Node000011"><a xlink:href="structTLSContextSNICerts.html" target="_top" xlink:title="Structure for managing SNI certificate mappings in TLS context.">
<polygon fill="white" stroke="#666666" points="464,-276 354,-276 354,-257 464,-257 464,-276"/>
<text text-anchor="middle" x="409" y="-264" font-family="Helvetica,sans-Serif" font-size="10.00">TLSContextSNICerts</text>
</a>
</g>
</g>
<!-- Node11&#45;&gt;Node10 -->
<g id="edge13_Node000010_Node000011" class="edge">
<title>Node11&#45;&gt;Node10</title>
<g id="a_edge13_Node000010_Node000011"><a xlink:title=" ">
<path fill="none" stroke="#9a32cd" stroke-dasharray="5,2" d="M474.25,-277.37C494.93,-280.89 517.94,-284.83 539,-288.5 548.98,-290.24 559.62,-292.11 569.87,-293.92"/>
<polygon fill="#9a32cd" stroke="#9a32cd" points="474.75,-273.9 464.31,-275.68 473.58,-280.81 474.75,-273.9"/>
</a>
</g>
<text text-anchor="middle" x="517.5" y="-291.5" font-family="Helvetica,sans-Serif" font-size="10.00" fill="grey"> sni_certs</text>
</g>
<!-- Node12 -->
<g id="Node000012" class="node">
<title>Node12</title>
<g id="a_Node000012"><a xlink:href="group__security.html#structTLSContextALPN" target="_top" xlink:title="Configuration for ALPN protocol negotiation.">
<polygon fill="white" stroke="#666666" points="456.5,-350 361.5,-350 361.5,-331 456.5,-331 456.5,-350"/>
<text text-anchor="middle" x="409" y="-338" font-family="Helvetica,sans-Serif" font-size="10.00">TLSContextALPN</text>
</a>
</g>
</g>
<!-- Node12&#45;&gt;Node10 -->
<g id="edge14_Node000010_Node000012" class="edge">
<title>Node12&#45;&gt;Node10</title>
<g id="a_edge14_Node000010_Node000012"><a xlink:title=" ">
<path fill="none" stroke="#9a32cd" stroke-dasharray="5,2" d="M466.66,-330.92C489.18,-327.09 515.32,-322.62 539,-318.5 548.98,-316.76 559.62,-314.89 569.87,-313.08"/>
<polygon fill="#9a32cd" stroke="#9a32cd" points="465.86,-327.51 456.59,-332.63 467.03,-334.41 465.86,-327.51"/>
</a>
</g>
<text text-anchor="middle" x="517.5" y="-328.5" font-family="Helvetica,sans-Serif" font-size="10.00" fill="grey"> alpn</text>
</g>
<!-- Node13 -->
<g id="Node000013" class="node">
<title>Node13</title>
<g id="a_Node000013"><a xlink:href="group__security.html#structTLSContextPinning" target="_top" xlink:title="TLSContextPinning &#45; Certificate pinning configuration.">
<polygon fill="white" stroke="#666666" points="459.5,-313 358.5,-313 358.5,-294 459.5,-294 459.5,-313"/>
<text text-anchor="middle" x="409" y="-301" font-family="Helvetica,sans-Serif" font-size="10.00">TLSContextPinning</text>
</a>
</g>
</g>
<!-- Node13&#45;&gt;Node10 -->
<g id="edge16_Node000010_Node000013" class="edge">
<title>Node13&#45;&gt;Node10</title>
<g id="a_edge16_Node000010_Node000013"><a xlink:title=" ">
<path fill="none" stroke="#9a32cd" stroke-dasharray="5,2" d="M469.76,-303.5C500.76,-303.5 538.36,-303.5 568.62,-303.5"/>
<polygon fill="#9a32cd" stroke="#9a32cd" points="469.52,-300 459.52,-303.5 469.52,-307 469.52,-300"/>
</a>
</g>
<text text-anchor="middle" x="517.5" y="-306.5" font-family="Helvetica,sans-Serif" font-size="10.00" fill="grey"> pinning</text>
</g>
<!-- Node14 -->
<g id="Node000014" class="node">
<title>Node14</title>
<g id="a_Node000014"><a xlink:href="group__security.html#structTLSCertPin" target="_top" xlink:title="TLSCertPin &#45; Single certificate pin entry (SPKI SHA256 hash)">
<polygon fill="white" stroke="#666666" points="272.5,-313 204.5,-313 204.5,-294 272.5,-294 272.5,-313"/>
<text text-anchor="middle" x="238.5" y="-301" font-family="Helvetica,sans-Serif" font-size="10.00">TLSCertPin</text>
</a>
</g>
</g>
<!-- Node14&#45;&gt;Node13 -->
<g id="edge17_Node000013_Node000014" class="edge">
<title>Node14&#45;&gt;Node13</title>
<g id="a_edge17_Node000013_Node000014"><a xlink:title=" ">
<path fill="none" stroke="#9a32cd" stroke-dasharray="5,2" d="M282.98,-303.5C306.08,-303.5 334.55,-303.5 358.49,-303.5"/>
<polygon fill="#9a32cd" stroke="#9a32cd" points="282.79,-300 272.79,-303.5 282.79,-307 282.79,-300"/>
</a>
</g>
<text text-anchor="middle" x="309.5" y="-306.5" font-family="Helvetica,sans-Serif" font-size="10.00" fill="grey"> pins</text>
</g>
<!-- Node15 -->
<g id="Node000015" class="node">
<title>Node15</title>
<g id="a_Node000015"><a xlink:href="group__dns.html#structSocketDNS__T" target="_top" xlink:title="Async DNS resolver structure.">
<polygon fill="white" stroke="#666666" points="900.5,-495 820.5,-495 820.5,-476 900.5,-476 900.5,-495"/>
<text text-anchor="middle" x="860.5" y="-483" font-family="Helvetica,sans-Serif" font-size="10.00">SocketDNS_T</text>
</a>
</g>
</g>
<!-- Node15&#45;&gt;Node2 -->
<g id="edge19_Node000002_Node000015" class="edge">
<title>Node15&#45;&gt;Node2</title>
<g id="a_edge19_Node000002_Node000015"><a xlink:title=" ">
<path fill="none" stroke="#9a32cd" stroke-dasharray="5,2" d="M910.63,-475.12C941.11,-468.67 979.7,-460.51 1007.88,-454.56"/>
<polygon fill="#9a32cd" stroke="#9a32cd" points="909.69,-471.74 900.63,-477.23 911.14,-478.59 909.69,-471.74"/>
</a>
</g>
<text text-anchor="middle" x="962" y="-471.5" font-family="Helvetica,sans-Serif" font-size="10.00" fill="grey"> dns</text>
</g>
<!-- Node16 -->
<g id="Node000016" class="node">
<title>Node16</title>
<g id="a_Node000016"><a xlink:href="group__dns.html#structSocketDNS__Request__T" target="_top" xlink:title="DNS resolution request structure.">
<polygon fill="white" stroke="#666666" points="685.5,-543 563.5,-543 563.5,-524 685.5,-524 685.5,-543"/>
<text text-anchor="middle" x="624.5" y="-531" font-family="Helvetica,sans-Serif" font-size="10.00">SocketDNS_Request_T</text>
</a>
</g>
</g>
<!-- Node15&#45;&gt;Node16 -->
<g id="edge22_Node000016_Node000015" class="edge">
<title>Node15&#45;&gt;Node16</title>
<g id="a_edge22_Node000016_Node000015"><a xlink:title=" ">
<path fill="none" stroke="#9a32cd" stroke-dasharray="5,2" d="M810.3,-476.26C773.35,-470.41 726.4,-465.63 710,-475.5 695.35,-484.32 704.91,-498.29 692,-509.5 684.77,-515.78 675.77,-520.46 666.76,-523.93"/>
<polygon fill="#9a32cd" stroke="#9a32cd" points="809.99,-479.76 820.43,-477.93 811.13,-472.85 809.99,-479.76"/>
</a>
</g>
<text text-anchor="middle" x="748.5" y="-478.5" font-family="Helvetica,sans-Serif" font-size="10.00" fill="grey"> dns_resolver</text>
</g>
<!-- Node16&#45;&gt;Node1 -->
<g id="edge37_Node000001_Node000016" class="edge">
<title>Node16&#45;&gt;Node1</title>
<g id="a_edge37_Node000001_Node000016"><a xlink:title=" ">
<path fill="none" stroke="#9a32cd" stroke-dasharray="5,2" d="M675.75,-545.09C686.97,-547.27 698.84,-549.25 710,-550.5 901.74,-572.05 951.08,-558.28 1144,-561.5 1206.94,-562.55 1278.9,-563.05 1328.94,-563.29"/>
<polygon fill="#9a32cd" stroke="#9a32cd" points="676.17,-541.61 665.68,-543.06 674.79,-548.47 676.17,-541.61"/>
</a>
</g>
<text text-anchor="middle" x="1047" y="-564.5" font-family="Helvetica,sans-Serif" font-size="10.00" fill="grey"> req</text>
</g>
<!-- Node16&#45;&gt;Node15 -->
<g id="edge20_Node000015_Node000016" class="edge">
<title>Node16&#45;&gt;Node15</title>
<g id="a_edge20_Node000015_Node000016"><a xlink:title=" ">
<path fill="none" stroke="#9a32cd" stroke-dasharray="5,2" d="M661.32,-520.58C683.16,-512.74 707.39,-504.11 710,-503.5 746.9,-494.84 789.96,-490.22 820.37,-487.83"/>
<polygon fill="#9a32cd" stroke="#9a32cd" points="660.08,-517.31 651.85,-523.99 662.45,-523.9 660.08,-517.31"/>
</a>
</g>
<text text-anchor="middle" x="748.5" y="-528.5" font-family="Helvetica,sans-Serif" font-size="10.00" fill="grey"> queue_head</text>
<text text-anchor="middle" x="748.5" y="-517.5" font-family="Helvetica,sans-Serif" font-size="10.00" fill="grey">queue_tail</text>
<text text-anchor="middle" x="748.5" y="-506.5" font-family="Helvetica,sans-Serif" font-size="10.00" fill="grey">request_hash</text>
</g>
<!-- Node16&#45;&gt;Node16 -->
<g id="edge21_Node000016_Node000016" class="edge">
<title>Node16&#45;&gt;Node16</title>
<g id="a_edge21_Node000016_Node000016"><a xlink:title=" ">
<path fill="none" stroke="#9a32cd" stroke-dasharray="5,2" d="M604.87,-552.55C606.18,-557.38 612.73,-561 624.5,-561 643.34,-561 648.79,-551.73 640.84,-543.08"/>
<polygon fill="#9a32cd" stroke="#9a32cd" points="608.19,-553.68 608.16,-543.08 601.57,-551.38 608.19,-553.68"/>
</a>
</g>
<text text-anchor="middle" x="624.5" y="-586" font-family="Helvetica,sans-Serif" font-size="10.00" fill="grey"> callback</text>
<text text-anchor="middle" x="624.5" y="-575" font-family="Helvetica,sans-Serif" font-size="10.00" fill="grey">hash_next</text>
<text text-anchor="middle" x="624.5" y="-564" font-family="Helvetica,sans-Serif" font-size="10.00" fill="grey">queue_next</text>
</g>
<!-- Node16&#45;&gt;Node24 -->
<g id="edge41_Node000024_Node000016" class="edge">
<title>Node16&#45;&gt;Node24</title>
<g id="a_edge41_Node000024_Node000016"><a xlink:title=" ">
<path fill="none" stroke="#9a32cd" stroke-dasharray="5,2" d="M695.92,-536.21C724.22,-536.94 757.17,-537.32 787,-536.5 913.68,-533.03 1061.65,-523.68 1143.65,-518.02"/>
<polygon fill="#9a32cd" stroke="#9a32cd" points="695.8,-532.71 685.71,-535.93 695.61,-539.71 695.8,-532.71"/>
</a>
</g>
<text text-anchor="middle" x="962" y="-532.5" font-family="Helvetica,sans-Serif" font-size="10.00" fill="grey"> req</text>
</g>
<!-- Node17 -->
<g id="Node000017" class="node">
<title>Node17</title>
<g id="a_Node000017"><a xlink:href="group__utilities.html#structSocketRateLimit__T" target="_top" xlink:title="Internal structure implementing the token bucket rate limiter.">
<polygon fill="white" stroke="#666666" points="675,-276 574,-276 574,-257 675,-257 675,-276"/>
<text text-anchor="middle" x="624.5" y="-264" font-family="Helvetica,sans-Serif" font-size="10.00">SocketRateLimit_T</text>
</a>
</g>
</g>
<!-- Node17&#45;&gt;Node2 -->
<g id="edge24_Node000002_Node000017" class="edge">
<title>Node17&#45;&gt;Node2</title>
<g id="a_edge24_Node000002_Node000017"><a xlink:title=" ">
<path fill="none" stroke="#9a32cd" stroke-dasharray="5,2" d="M685.25,-267.76C762.54,-272.19 898.14,-289.78 990,-356.5 1018.89,-377.48 1036.15,-418.35 1042.82,-436.91"/>
<polygon fill="#9a32cd" stroke="#9a32cd" points="685.37,-264.26 675.2,-267.24 685.01,-271.25 685.37,-264.26"/>
</a>
</g>
<text text-anchor="middle" x="860.5" y="-316.5" font-family="Helvetica,sans-Serif" font-size="10.00" fill="grey"> conn_limiter</text>
</g>
<!-- Node18 -->
<g id="Node000018" class="node">
<title>Node18</title>
<g id="a_Node000018"><a xlink:href="group__security.html#structSocketSYNProtect__T" target="_top" xlink:title="Core internal structure for the SYN protection module.">
<polygon fill="white" stroke="#666666" points="916,-191 805,-191 805,-172 916,-172 916,-191"/>
<text text-anchor="middle" x="860.5" y="-179" font-family="Helvetica,sans-Serif" font-size="10.00">SocketSYNProtect_T</text>
</a>
</g>
</g>
<!-- Node17&#45;&gt;Node18 -->
<g id="edge34_Node000018_Node000017" class="edge">
<title>Node17&#45;&gt;Node18</title>
<g id="a_edge34_Node000018_Node000017"><a xlink:title=" ">
<path fill="none" stroke="#9a32cd" stroke-dasharray="5,2" d="M673.47,-254.23C679.73,-252.42 686.04,-250.49 692,-248.5 745.32,-230.69 806.22,-204.91 837.85,-191.1"/>
<polygon fill="#9a32cd" stroke="#9a32cd" points="672.39,-250.9 663.71,-256.97 674.28,-257.64 672.39,-250.9"/>
</a>
</g>
<text text-anchor="middle" x="748.5" y="-244.5" font-family="Helvetica,sans-Serif" font-size="10.00" fill="grey"> global_limiter</text>
</g>
<!-- Node18&#45;&gt;Node2 -->
<g id="edge25_Node000002_Node000018" class="edge">
<title>Node18&#45;&gt;Node2</title>
<g id="a_edge25_Node000002_Node000018"><a xlink:title=" ">
<path fill="none" stroke="#9a32cd" stroke-dasharray="5,2" d="M892.8,-195.7C921.96,-210.45 964.64,-236.19 990,-270.5 1030.03,-324.65 1042.07,-408.39 1045.1,-436.74"/>
<polygon fill="#9a32cd" stroke="#9a32cd" points="893.99,-192.39 883.47,-191.12 890.91,-198.67 893.99,-192.39"/>
</a>
</g>
<text text-anchor="middle" x="962" y="-273.5" font-family="Helvetica,sans-Serif" font-size="10.00" fill="grey"> syn_protect</text>
</g>
<!-- Node19 -->
<g id="Node000019" class="node">
<title>Node19</title>
<g id="a_Node000019"><a xlink:href="group__security.html#structSocketSYNProtect__Config" target="_top" xlink:title="Configuration parameters for SYN flood protection.">
<polygon fill="white" stroke="#666666" points="691.5,-173 557.5,-173 557.5,-154 691.5,-154 691.5,-173"/>
<text text-anchor="middle" x="624.5" y="-161" font-family="Helvetica,sans-Serif" font-size="10.00">SocketSYNProtect_Config</text>
</a>
</g>
</g>
<!-- Node19&#45;&gt;Node18 -->
<g id="edge26_Node000018_Node000019" class="edge">
<title>Node19&#45;&gt;Node18</title>
<g id="a_edge26_Node000018_Node000019"><a xlink:title=" ">
<path fill="none" stroke="#9a32cd" stroke-dasharray="5,2" d="M701.84,-162.02C728.81,-162.26 759.32,-163.41 787,-166.5 797.86,-167.71 809.5,-169.77 820.2,-171.99"/>
<polygon fill="#9a32cd" stroke="#9a32cd" points="701.7,-158.52 691.68,-161.97 701.67,-165.52 701.7,-158.52"/>
</a>
</g>
<text text-anchor="middle" x="748.5" y="-169.5" font-family="Helvetica,sans-Serif" font-size="10.00" fill="grey"> config</text>
</g>
<!-- Node20 -->
<g id="Node000020" class="node">
<title>Node20</title>
<g id="a_Node000020"><a xlink:href="group__security.html#structSocketSYN__IPEntry" target="_top" xlink:title="Internal IP tracking entry for hash table and LRU management.">
<polygon fill="white" stroke="#666666" points="678,-19 571,-19 571,0 678,0 678,-19"/>
<text text-anchor="middle" x="624.5" y="-7" font-family="Helvetica,sans-Serif" font-size="10.00">SocketSYN_IPEntry</text>
</a>
</g>
</g>
<!-- Node20&#45;&gt;Node18 -->
<g id="edge27_Node000018_Node000020" class="edge">
<title>Node20&#45;&gt;Node18</title>
<g id="a_edge27_Node000018_Node000020"><a xlink:title=" ">
<path fill="none" stroke="#9a32cd" stroke-dasharray="5,2" d="M667.99,-22.35C702.59,-34.28 751.36,-54.58 787,-83.5 819.04,-109.51 844.34,-152.75 854.57,-171.89"/>
<polygon fill="#9a32cd" stroke="#9a32cd" points="668.78,-18.92 658.18,-19.06 666.55,-25.55 668.78,-18.92"/>
</a>
</g>
<text text-anchor="middle" x="748.5" y="-108.5" font-family="Helvetica,sans-Serif" font-size="10.00" fill="grey"> ip_table</text>
<text text-anchor="middle" x="748.5" y="-97.5" font-family="Helvetica,sans-Serif" font-size="10.00" fill="grey">lru_head</text>
<text text-anchor="middle" x="748.5" y="-86.5" font-family="Helvetica,sans-Serif" font-size="10.00" fill="grey">lru_tail</text>
</g>
<!-- Node20&#45;&gt;Node20 -->
<g id="edge29_Node000020_Node000020" class="edge">
<title>Node20&#45;&gt;Node20</title>
<g id="a_edge29_Node000020_Node000020"><a xlink:title=" ">
<path fill="none" stroke="#9a32cd" stroke-dasharray="5,2" d="M604.87,-28.55C606.18,-33.38 612.73,-37 624.5,-37 643.34,-37 648.79,-27.73 640.84,-19.08"/>
<polygon fill="#9a32cd" stroke="#9a32cd" points="608.19,-29.68 608.16,-19.08 601.57,-27.38 608.19,-29.68"/>
</a>
</g>
<text text-anchor="middle" x="624.5" y="-62" font-family="Helvetica,sans-Serif" font-size="10.00" fill="grey"> hash_next</text>
<text text-anchor="middle" x="624.5" y="-51" font-family="Helvetica,sans-Serif" font-size="10.00" fill="grey">lru_next</text>
<text text-anchor="middle" x="624.5" y="-40" font-family="Helvetica,sans-Serif" font-size="10.00" fill="grey">lru_prev</text>
</g>
<!-- Node21 -->
<g id="Node000021" class="node">
<title>Node21</title>
<g id="a_Node000021"><a xlink:href="group__security.html#structSocketSYN__IPState" target="_top" xlink:title="Per&#45;IP address tracking and reputation state.">
<polygon fill="white" stroke="#666666" points="462.5,-19 355.5,-19 355.5,0 462.5,0 462.5,-19"/>
<text text-anchor="middle" x="409" y="-7" font-family="Helvetica,sans-Serif" font-size="10.00">SocketSYN_IPState</text>
</a>
</g>
</g>
<!-- Node21&#45;&gt;Node20 -->
<g id="edge28_Node000020_Node000021" class="edge">
<title>Node21&#45;&gt;Node20</title>
<g id="a_edge28_Node000020_Node000021"><a xlink:title=" ">
<path fill="none" stroke="#9a32cd" stroke-dasharray="5,2" d="M472.82,-9.5C503.98,-9.5 541.18,-9.5 570.83,-9.5"/>
<polygon fill="#9a32cd" stroke="#9a32cd" points="472.5,-6 462.5,-9.5 472.5,-13 472.5,-6"/>
</a>
</g>
<text text-anchor="middle" x="517.5" y="-12.5" font-family="Helvetica,sans-Serif" font-size="10.00" fill="grey"> state</text>
</g>
<!-- Node22 -->
<g id="Node000022" class="node">
<title>Node22</title>
<g id="a_Node000022"><a xlink:href="group__security.html#structSocketSYN__WhitelistEntry" target="_top" xlink:title="Structure for whitelist entries supporting single IPs and CIDR ranges.">
<polygon fill="white" stroke="#666666" points="692,-107 557,-107 557,-88 692,-88 692,-107"/>
<text text-anchor="middle" x="624.5" y="-95" font-family="Helvetica,sans-Serif" font-size="10.00">SocketSYN_WhitelistEntry</text>
</a>
</g>
</g>
<!-- Node22&#45;&gt;Node18 -->
<g id="edge30_Node000018_Node000022" class="edge">
<title>Node22&#45;&gt;Node18</title>
<g id="a_edge30_Node000018_Node000022"><a xlink:title=" ">
<path fill="none" stroke="#9a32cd" stroke-dasharray="5,2" d="M672.65,-109.72C705.22,-118.67 749.28,-131.77 787,-146.5 806.14,-153.97 827.2,-164.4 841.67,-171.93"/>
<polygon fill="#9a32cd" stroke="#9a32cd" points="673.51,-106.33 662.94,-107.08 671.67,-113.08 673.51,-106.33"/>
</a>
</g>
<text text-anchor="middle" x="748.5" y="-149.5" font-family="Helvetica,sans-Serif" font-size="10.00" fill="grey"> whitelist_table</text>
</g>
<!-- Node22&#45;&gt;Node22 -->
<g id="edge31_Node000022_Node000022" class="edge">
<title>Node22&#45;&gt;Node22</title>
<g id="a_edge31_Node000022_Node000022"><a xlink:title=" ">
<path fill="none" stroke="#9a32cd" stroke-dasharray="5,2" d="M604.87,-116.55C606.18,-121.38 612.73,-125 624.5,-125 643.34,-125 648.79,-115.73 640.84,-107.08"/>
<polygon fill="#9a32cd" stroke="#9a32cd" points="608.19,-117.68 608.16,-107.08 601.57,-115.38 608.19,-117.68"/>
</a>
</g>
<text text-anchor="middle" x="624.5" y="-128" font-family="Helvetica,sans-Serif" font-size="10.00" fill="grey"> next</text>
</g>
<!-- Node23 -->
<g id="Node000023" class="node">
<title>Node23</title>
<g id="a_Node000023"><a xlink:href="group__security.html#structSocketSYN__BlacklistEntry" target="_top" xlink:title="Internal structure for blacklisted IP addresses with expiry support.">
<polygon fill="white" stroke="#666666" points="691.5,-210 557.5,-210 557.5,-191 691.5,-191 691.5,-210"/>
<text text-anchor="middle" x="624.5" y="-198" font-family="Helvetica,sans-Serif" font-size="10.00">SocketSYN_BlacklistEntry</text>
</a>
</g>
</g>
<!-- Node23&#45;&gt;Node18 -->
<g id="edge32_Node000018_Node000023" class="edge">
<title>Node23&#45;&gt;Node18</title>
<g id="a_edge32_Node000018_Node000023"><a xlink:title=" ">
<path fill="none" stroke="#9a32cd" stroke-dasharray="5,2" d="M701.88,-194.3C735.54,-191.57 774.32,-188.42 804.99,-185.93"/>
<polygon fill="#9a32cd" stroke="#9a32cd" points="701.3,-190.83 691.62,-195.13 701.87,-197.81 701.3,-190.83"/>
</a>
</g>
<text text-anchor="middle" x="748.5" y="-195.5" font-family="Helvetica,sans-Serif" font-size="10.00" fill="grey"> blacklist_table</text>
</g>
<!-- Node23&#45;&gt;Node23 -->
<g id="edge33_Node000023_Node000023" class="edge">
<title>Node23&#45;&gt;Node23</title>
<g id="a_edge33_Node000023_Node000023"><a xlink:title=" ">
<path fill="none" stroke="#9a32cd" stroke-dasharray="5,2" d="M604.87,-219.55C606.18,-224.38 612.73,-228 624.5,-228 643.34,-228 648.79,-218.73 640.84,-210.08"/>
<polygon fill="#9a32cd" stroke="#9a32cd" points="608.19,-220.68 608.16,-210.08 601.57,-218.38 608.19,-220.68"/>
</a>
</g>
<text text-anchor="middle" x="624.5" y="-231" font-family="Helvetica,sans-Serif" font-size="10.00" fill="grey"> next</text>
</g>
<!-- Node24&#45;&gt;Node1 -->
<g id="edge38_Node000001_Node000024" class="edge">
<title>Node24&#45;&gt;Node1</title>
<g id="a_edge38_Node000001_Node000024"><a xlink:title=" ">
<path fill="none" stroke="#9a32cd" stroke-dasharray="5,2" d="M1253.28,-525.74C1285.06,-534.42 1327.13,-545.91 1356.47,-553.93"/>
<polygon fill="#9a32cd" stroke="#9a32cd" points="1253.92,-522.28 1243.35,-523.02 1252.08,-529.03 1253.92,-522.28"/>
</a>
</g>
<text text-anchor="middle" x="1300" y="-543.5" font-family="Helvetica,sans-Serif" font-size="10.00" fill="grey"> next</text>
</g>
<!-- Node24&#45;&gt;Node24 -->
<g id="edge42_Node000024_Node000024" class="edge">
<title>Node24&#45;&gt;Node24</title>
<g id="a_edge42_Node000024_Node000024"><a xlink:title=" ">
<path fill="none" stroke="#9a32cd" stroke-dasharray="5,2" d="M1190.56,-532.91C1191.89,-537.56 1197.54,-541 1207.5,-541 1223.85,-541 1228.58,-531.73 1221.68,-523.08"/>
<polygon fill="#9a32cd" stroke="#9a32cd" points="1193.98,-533.66 1193.32,-523.08 1187.25,-531.76 1193.98,-533.66"/>
</a>
</g>
<text text-anchor="middle" x="1207.5" y="-544" font-family="Helvetica,sans-Serif" font-size="10.00" fill="grey"> next</text>
</g>
</g>
</svg>
