<?xml version="1.0" encoding="UTF-8" standalone="no"?>
<!DOCTYPE svg PUBLIC "-//W3C//DTD SVG 1.1//EN"
 "http://www.w3.org/Graphics/SVG/1.1/DTD/svg11.dtd">
<!-- Generated by graphviz version 2.43.0 (0)
 -->
<!-- Title: SocketHE_T Pages: 1 -->
<svg width="1007pt" height="478pt"
 viewBox="0.00 0.00 1006.50 478.00" xmlns="http://www.w3.org/2000/svg" xmlns:xlink="http://www.w3.org/1999/xlink">
<g id="graph0" class="graph" transform="scale(1 1) rotate(0) translate(4 474)">
<title>SocketHE_T</title>
<!-- Node1 -->
<g id="Node000001" class="node">
<title>Node1</title>
<g id="a_Node000001"><a xlink:title="Main opaque context for Happy Eyeballs (RFC 8305) dual&#45;stack connection racing.">
<polygon fill="#999999" stroke="#666666" points="278,-19 205,-19 205,0 278,0 278,-19"/>
<text text-anchor="middle" x="241.5" y="-7" font-family="Helvetica,sans-Serif" font-size="10.00">SocketHE_T</text>
</a>
</g>
</g>
<!-- Node2 -->
<g id="Node000002" class="node">
<title>Node2</title>
<g id="a_Node000002"><a xlink:href="group__async__io.html#structSocketHE__Config__T" target="_top" xlink:title="Happy Eyeballs configuration structure.">
<polygon fill="white" stroke="#666666" points="107,-92 0,-92 0,-73 107,-73 107,-92"/>
<text text-anchor="middle" x="53.5" y="-80" font-family="Helvetica,sans-Serif" font-size="10.00">SocketHE_Config_T</text>
</a>
</g>
</g>
<!-- Node2&#45;&gt;Node1 -->
<g id="edge1_Node000001_Node000002" class="edge">
<title>Node2&#45;&gt;Node1</title>
<g id="a_edge1_Node000001_Node000002"><a xlink:title=" ">
<path fill="none" stroke="#9a32cd" stroke-dasharray="5,2" d="M66.35,-64.92C74.74,-55.26 86.52,-43.7 99.5,-37 132.59,-19.91 175.07,-13.73 204.92,-11.56"/>
<polygon fill="#9a32cd" stroke="#9a32cd" points="63.56,-62.8 59.9,-72.74 68.96,-67.25 63.56,-62.8"/>
</a>
</g>
<text text-anchor="middle" x="114.5" y="-40" font-family="Helvetica,sans-Serif" font-size="10.00" fill="grey"> config</text>
</g>
<!-- Node3 -->
<g id="Node000003" class="node">
<title>Node3</title>
<g id="a_Node000003"><a xlink:href="group__dns.html#structSocketDNS__T" target="_top" xlink:title="Async DNS resolver structure.">
<polygon fill="white" stroke="#666666" points="216.5,-187 136.5,-187 136.5,-168 216.5,-168 216.5,-187"/>
<text text-anchor="middle" x="176.5" y="-175" font-family="Helvetica,sans-Serif" font-size="10.00">SocketDNS_T</text>
</a>
</g>
</g>
<!-- Node3&#45;&gt;Node1 -->
<g id="edge2_Node000001_Node000003" class="edge">
<title>Node3&#45;&gt;Node1</title>
<g id="a_edge2_Node000001_Node000003"><a xlink:title=" ">
<path fill="none" stroke="#9a32cd" stroke-dasharray="5,2" d="M165.64,-159.03C153.01,-136.28 135.91,-95.91 152.5,-66 165.66,-42.28 193.65,-27.37 214.75,-19.05"/>
<polygon fill="#9a32cd" stroke="#9a32cd" points="162.75,-161.02 170.82,-167.88 168.79,-157.48 162.75,-161.02"/>
</a>
</g>
<text text-anchor="middle" x="162" y="-80" font-family="Helvetica,sans-Serif" font-size="10.00" fill="grey"> dns</text>
</g>
<!-- Node4 -->
<g id="Node000004" class="node">
<title>Node4</title>
<g id="a_Node000004"><a xlink:href="group__dns.html#structSocketDNS__Request__T" target="_top" xlink:title="DNS resolution request structure.">
<polygon fill="white" stroke="#666666" points="302.5,-92 180.5,-92 180.5,-73 302.5,-73 302.5,-92"/>
<text text-anchor="middle" x="241.5" y="-80" font-family="Helvetica,sans-Serif" font-size="10.00">SocketDNS_Request_T</text>
</a>
</g>
</g>
<!-- Node3&#45;&gt;Node4 -->
<g id="edge5_Node000004_Node000003" class="edge">
<title>Node3&#45;&gt;Node4</title>
<g id="a_edge5_Node000004_Node000003"><a xlink:title=" ">
<path fill="none" stroke="#9a32cd" stroke-dasharray="5,2" d="M170.35,-157.86C167.41,-145.38 165.98,-129.09 173.5,-117 181.01,-104.93 194.28,-97.08 207.12,-92.04"/>
<polygon fill="#9a32cd" stroke="#9a32cd" points="167.03,-158.98 173.13,-167.65 173.76,-157.07 167.03,-158.98"/>
</a>
</g>
<text text-anchor="middle" x="203" y="-131" font-family="Helvetica,sans-Serif" font-size="10.00" fill="grey"> dns_resolver</text>
</g>
<!-- Node4&#45;&gt;Node1 -->
<g id="edge24_Node000001_Node000004" class="edge">
<title>Node4&#45;&gt;Node1</title>
<g id="a_edge24_Node000001_Node000004"><a xlink:title=" ">
<path fill="none" stroke="#9a32cd" stroke-dasharray="5,2" d="M241.5,-62.73C241.5,-48.66 241.5,-30.06 241.5,-19.28"/>
<polygon fill="#9a32cd" stroke="#9a32cd" points="238,-62.79 241.5,-72.79 245,-62.79 238,-62.79"/>
</a>
</g>
<text text-anchor="middle" x="270" y="-40" font-family="Helvetica,sans-Serif" font-size="10.00" fill="grey"> dns_request</text>
</g>
<!-- Node4&#45;&gt;Node3 -->
<g id="edge3_Node000003_Node000004" class="edge">
<title>Node4&#45;&gt;Node3</title>
<g id="a_edge3_Node000003_Node000004"><a xlink:title=" ">
<path fill="none" stroke="#9a32cd" stroke-dasharray="5,2" d="M244.95,-102.38C246.5,-116.72 246.2,-136.27 236.5,-150 230.65,-158.28 221.62,-164 212.32,-167.95"/>
<polygon fill="#9a32cd" stroke="#9a32cd" points="248.37,-101.58 243.45,-92.19 241.45,-102.6 248.37,-101.58"/>
</a>
</g>
<text text-anchor="middle" x="276" y="-142" font-family="Helvetica,sans-Serif" font-size="10.00" fill="grey"> queue_head</text>
<text text-anchor="middle" x="276" y="-131" font-family="Helvetica,sans-Serif" font-size="10.00" fill="grey">queue_tail</text>
<text text-anchor="middle" x="276" y="-120" font-family="Helvetica,sans-Serif" font-size="10.00" fill="grey">request_hash</text>
</g>
<!-- Node4&#45;&gt;Node4 -->
<g id="edge4_Node000004_Node000004" class="edge">
<title>Node4&#45;&gt;Node4</title>
<g id="a_edge4_Node000004_Node000004"><a xlink:title=" ">
<path fill="none" stroke="#9a32cd" stroke-dasharray="5,2" d="M312.99,-87.84C317.67,-86.6 320.5,-84.82 320.5,-82.5 320.5,-78.79 313.25,-76.46 302.78,-75.5"/>
<polygon fill="#9a32cd" stroke="#9a32cd" points="312.09,-84.44 302.78,-89.5 313.21,-91.35 312.09,-84.44"/>
</a>
</g>
<text text-anchor="middle" x="346" y="-91" font-family="Helvetica,sans-Serif" font-size="10.00" fill="grey"> callback</text>
<text text-anchor="middle" x="346" y="-80" font-family="Helvetica,sans-Serif" font-size="10.00" fill="grey">hash_next</text>
<text text-anchor="middle" x="346" y="-69" font-family="Helvetica,sans-Serif" font-size="10.00" fill="grey">queue_next</text>
</g>
<!-- Node5 -->
<g id="Node000005" class="node">
<title>Node5</title>
<g id="a_Node000005"><a xlink:title=" ">
<polygon fill="white" stroke="#666666" points="662,-92 587,-92 587,-73 662,-73 662,-92"/>
<text text-anchor="middle" x="624.5" y="-80" font-family="Helvetica,sans-Serif" font-size="10.00">SocketPoll_T</text>
</a>
</g>
</g>
<!-- Node5&#45;&gt;Node1 -->
<g id="edge6_Node000001_Node000005" class="edge">
<title>Node5&#45;&gt;Node1</title>
<g id="a_edge6_Node000001_Node000005"><a xlink:title=" ">
<path fill="none" stroke="#9a32cd" stroke-dasharray="5,2" d="M577.06,-70.72C534.39,-61.2 469.93,-47.29 413.5,-37 366.98,-28.52 313.06,-20.5 278.17,-15.55"/>
<polygon fill="#9a32cd" stroke="#9a32cd" points="576.37,-74.15 586.89,-72.92 577.89,-67.32 576.37,-74.15"/>
</a>
</g>
<text text-anchor="middle" x="476" y="-40" font-family="Helvetica,sans-Serif" font-size="10.00" fill="grey"> poll</text>
</g>
<!-- Node6 -->
<g id="Node000006" class="node">
<title>Node6</title>
<g id="a_Node000006"><a xlink:href="group__event__system.html#structSocketEvent__T" target="_top" xlink:title="Event notification structure returned by polling operations.">
<polygon fill="white" stroke="#666666" points="516.5,-224 432.5,-224 432.5,-205 516.5,-205 516.5,-224"/>
<text text-anchor="middle" x="474.5" y="-212" font-family="Helvetica,sans-Serif" font-size="10.00">SocketEvent_T</text>
</a>
</g>
</g>
<!-- Node6&#45;&gt;Node5 -->
<g id="edge7_Node000005_Node000006" class="edge">
<title>Node6&#45;&gt;Node5</title>
<g id="a_edge7_Node000005_Node000006"><a xlink:title=" ">
<path fill="none" stroke="#9a32cd" stroke-dasharray="5,2" d="M484.39,-195.97C489.92,-187.03 497.34,-176.32 505.5,-168 537.97,-134.9 584.83,-105.94 608.91,-92.12"/>
<polygon fill="#9a32cd" stroke="#9a32cd" points="481.26,-194.39 479.18,-204.78 487.28,-197.96 481.26,-194.39"/>
</a>
</g>
<text text-anchor="middle" x="536.5" y="-175" font-family="Helvetica,sans-Serif" font-size="10.00" fill="grey"> socketevents</text>
</g>
<!-- Node7 -->
<g id="Node000007" class="node">
<title>Node7</title>
<g id="a_Node000007"><a xlink:title=" ">
<polygon fill="white" stroke="#666666" points="592,-338 533,-338 533,-319 592,-319 592,-338"/>
<text text-anchor="middle" x="562.5" y="-326" font-family="Helvetica,sans-Serif" font-size="10.00">Socket_T</text>
</a>
</g>
</g>
<!-- Node7&#45;&gt;Node1 -->
<g id="edge25_Node000001_Node000007" class="edge">
<title>Node7&#45;&gt;Node1</title>
<g id="a_edge25_Node000001_Node000007"><a xlink:title=" ">
<path fill="none" stroke="#9a32cd" stroke-dasharray="5,2" d="M522.83,-326.01C474.59,-321.83 399.5,-306.62 399.5,-252.5 399.5,-252.5 399.5,-252.5 399.5,-81.5 399.5,-28.57 324.82,-14.86 278.15,-11.46"/>
<polygon fill="#9a32cd" stroke="#9a32cd" points="522.75,-329.51 532.98,-326.76 523.27,-322.53 522.75,-329.51"/>
</a>
</g>
<text text-anchor="middle" x="415.5" y="-175" font-family="Helvetica,sans-Serif" font-size="10.00" fill="grey"> winner</text>
</g>
<!-- Node7&#45;&gt;Node6 -->
<g id="edge8_Node000006_Node000007" class="edge">
<title>Node7&#45;&gt;Node6</title>
<g id="a_edge8_Node000006_Node000007"><a xlink:title=" ">
<path fill="none" stroke="#9a32cd" stroke-dasharray="5,2" d="M539.18,-313.03C534.35,-309.44 529.51,-305.36 525.5,-301 503.04,-276.57 485.58,-240.69 478.26,-224.28"/>
<polygon fill="#9a32cd" stroke="#9a32cd" points="537.49,-316.11 547.7,-318.92 541.46,-310.35 537.49,-316.11"/>
</a>
</g>
<text text-anchor="middle" x="542" y="-287.5" font-family="Helvetica,sans-Serif" font-size="10.00" fill="grey"> socket</text>
</g>
<!-- Node11 -->
<g id="Node000011" class="node">
<title>Node11</title>
<g id="a_Node000011"><a xlink:title=" ">
<polygon fill="white" stroke="#666666" points="596.5,-224 528.5,-224 528.5,-205 596.5,-205 596.5,-224"/>
<text text-anchor="middle" x="562.5" y="-212" font-family="Helvetica,sans-Serif" font-size="10.00">SocketData</text>
</a>
</g>
</g>
<!-- Node7&#45;&gt;Node11 -->
<g id="edge13_Node000011_Node000007" class="edge">
<title>Node7&#45;&gt;Node11</title>
<g id="a_edge13_Node000011_Node000007"><a xlink:title=" ">
<path fill="none" stroke="#9a32cd" stroke-dasharray="5,2" d="M562.5,-308.51C562.5,-283.98 562.5,-242.29 562.5,-224.25"/>
<polygon fill="#9a32cd" stroke="#9a32cd" points="559,-308.71 562.5,-318.71 566,-308.71 559,-308.71"/>
</a>
</g>
<text text-anchor="middle" x="579" y="-287.5" font-family="Helvetica,sans-Serif" font-size="10.00" fill="grey"> socket</text>
</g>
<!-- Node12 -->
<g id="Node000012" class="node">
<title>Node12</title>
<g id="a_Node000012"><a xlink:title=" ">
<polygon fill="white" stroke="#666666" points="723.5,-224 641.5,-224 641.5,-205 723.5,-205 723.5,-224"/>
<text text-anchor="middle" x="682.5" y="-212" font-family="Helvetica,sans-Serif" font-size="10.00">FdSocketEntry</text>
</a>
</g>
</g>
<!-- Node7&#45;&gt;Node12 -->
<g id="edge16_Node000012_Node000007" class="edge">
<title>Node7&#45;&gt;Node12</title>
<g id="a_edge16_Node000012_Node000007"><a xlink:title=" ">
<path fill="none" stroke="#9a32cd" stroke-dasharray="5,2" d="M583.99,-313.1C589.2,-309.33 594.67,-305.16 599.5,-301 629.44,-275.22 660.91,-240.31 674.96,-224.25"/>
<polygon fill="#9a32cd" stroke="#9a32cd" points="581.78,-310.36 575.6,-318.96 585.8,-316.1 581.78,-310.36"/>
</a>
</g>
<text text-anchor="middle" x="639" y="-287.5" font-family="Helvetica,sans-Serif" font-size="10.00" fill="grey"> socket</text>
</g>
<!-- Node14 -->
<g id="Node000014" class="node">
<title>Node14</title>
<g id="a_Node000014"><a xlink:href="structAsyncRequest.html" target="_top" xlink:title="Internal structure for tracking asynchronous I/O requests.">
<polygon fill="white" stroke="#666666" points="786,-261 705,-261 705,-242 786,-242 786,-261"/>
<text text-anchor="middle" x="745.5" y="-249" font-family="Helvetica,sans-Serif" font-size="10.00">AsyncRequest</text>
</a>
</g>
</g>
<!-- Node7&#45;&gt;Node14 -->
<g id="edge20_Node000014_Node000007" class="edge">
<title>Node7&#45;&gt;Node14</title>
<g id="a_edge20_Node000014_Node000007"><a xlink:title=" ">
<path fill="none" stroke="#9a32cd" stroke-dasharray="5,2" d="M602.13,-323.55C626.75,-319.98 658.54,-313.31 684.5,-301 705.77,-290.91 726.31,-272.13 737.28,-261.14"/>
<polygon fill="#9a32cd" stroke="#9a32cd" points="601.51,-320.1 592.06,-324.89 602.43,-327.04 601.51,-320.1"/>
</a>
</g>
<text text-anchor="middle" x="731.5" y="-293" font-family="Helvetica,sans-Serif" font-size="10.00" fill="grey"> cb</text>
<text text-anchor="middle" x="731.5" y="-282" font-family="Helvetica,sans-Serif" font-size="10.00" fill="grey">socket</text>
</g>
<!-- Node8 -->
<g id="Node000008" class="node">
<title>Node8</title>
<g id="a_Node000008"><a xlink:href="group__core__io.html#structSocketBase__T" target="_top" xlink:title="Internal implementation of SocketBase_T opaque type.">
<polygon fill="white" stroke="#666666" points="603,-404 522,-404 522,-385 603,-385 603,-404"/>
<text text-anchor="middle" x="562.5" y="-392" font-family="Helvetica,sans-Serif" font-size="10.00">SocketBase_T</text>
</a>
</g>
</g>
<!-- Node8&#45;&gt;Node7 -->
<g id="edge9_Node000007_Node000008" class="edge">
<title>Node8&#45;&gt;Node7</title>
<g id="a_edge9_Node000007_Node000008"><a xlink:title=" ">
<path fill="none" stroke="#9a32cd" stroke-dasharray="5,2" d="M562.5,-374.58C562.5,-362.63 562.5,-347.72 562.5,-338.41"/>
<polygon fill="#9a32cd" stroke="#9a32cd" points="559,-374.87 562.5,-384.87 566,-374.87 559,-374.87"/>
</a>
</g>
<text text-anchor="middle" x="575" y="-359" font-family="Helvetica,sans-Serif" font-size="10.00" fill="grey"> base</text>
</g>
<!-- Node9 -->
<g id="Node000009" class="node">
<title>Node9</title>
<g id="a_Node000009"><a xlink:href="group__foundation.html#structSocketTimeouts__T" target="_top" xlink:title="Basic timeout configuration structure for socket operations.">
<polygon fill="white" stroke="#666666" points="548,-470 449,-470 449,-451 548,-451 548,-470"/>
<text text-anchor="middle" x="498.5" y="-458" font-family="Helvetica,sans-Serif" font-size="10.00">SocketTimeouts_T</text>
</a>
</g>
</g>
<!-- Node9&#45;&gt;Node8 -->
<g id="edge10_Node000008_Node000009" class="edge">
<title>Node9&#45;&gt;Node8</title>
<g id="a_edge10_Node000008_Node000009"><a xlink:title=" ">
<path fill="none" stroke="#9a32cd" stroke-dasharray="5,2" d="M514.52,-443.48C526.88,-431.12 543.51,-414.49 553.59,-404.41"/>
<polygon fill="#9a32cd" stroke="#9a32cd" points="511.73,-441.32 507.13,-450.87 516.68,-446.27 511.73,-441.32"/>
</a>
</g>
<text text-anchor="middle" x="555" y="-425" font-family="Helvetica,sans-Serif" font-size="10.00" fill="grey"> timeouts</text>
</g>
<!-- Node10 -->
<g id="Node000010" class="node">
<title>Node10</title>
<g id="a_Node000010"><a xlink:href="group__foundation.html#structSocketMetricsSnapshot" target="_top" xlink:title="SocketMetricsSnapshot &#45; Thread&#45;safe snapshot of all library metrics.">
<polygon fill="white" stroke="#666666" points="687,-470 566,-470 566,-451 687,-451 687,-470"/>
<text text-anchor="middle" x="626.5" y="-458" font-family="Helvetica,sans-Serif" font-size="10.00">SocketMetricsSnapshot</text>
</a>
</g>
</g>
<!-- Node10&#45;&gt;Node8 -->
<g id="edge11_Node000008_Node000010" class="edge">
<title>Node10&#45;&gt;Node8</title>
<g id="a_edge11_Node000008_Node000010"><a xlink:title=" ">
<path fill="none" stroke="#9a32cd" stroke-dasharray="5,2" d="M610.48,-443.48C598.12,-431.12 581.49,-414.49 571.41,-404.41"/>
<polygon fill="#9a32cd" stroke="#9a32cd" points="608.32,-446.27 617.87,-450.87 613.27,-441.32 608.32,-446.27"/>
</a>
</g>
<text text-anchor="middle" x="616.5" y="-425" font-family="Helvetica,sans-Serif" font-size="10.00" fill="grey"> metrics</text>
</g>
<!-- Node11&#45;&gt;Node5 -->
<g id="edge12_Node000005_Node000011" class="edge">
<title>Node11&#45;&gt;Node5</title>
<g id="a_edge12_Node000005_Node000011"><a xlink:title=" ">
<path fill="none" stroke="#9a32cd" stroke-dasharray="5,2" d="M568.13,-195.37C570.94,-186.93 574.58,-176.82 578.5,-168 591.26,-139.31 610.08,-107.18 619.19,-92.15"/>
<polygon fill="#9a32cd" stroke="#9a32cd" points="564.78,-194.37 565.05,-204.96 571.44,-196.51 564.78,-194.37"/>
</a>
</g>
<text text-anchor="middle" x="619" y="-175" font-family="Helvetica,sans-Serif" font-size="10.00" fill="grey"> socket_data_map</text>
</g>
<!-- Node11&#45;&gt;Node11 -->
<g id="edge14_Node000011_Node000011" class="edge">
<title>Node11&#45;&gt;Node11</title>
<g id="a_edge14_Node000011_Node000011"><a xlink:title=" ">
<path fill="none" stroke="#9a32cd" stroke-dasharray="5,2" d="M606.65,-220.15C611.42,-219.06 614.5,-217.18 614.5,-214.5 614.5,-210.21 606.63,-207.97 596.51,-207.76"/>
<polygon fill="#9a32cd" stroke="#9a32cd" points="606.08,-216.69 596.51,-221.24 606.82,-223.65 606.08,-216.69"/>
</a>
</g>
<text text-anchor="middle" x="625.5" y="-212" font-family="Helvetica,sans-Serif" font-size="10.00" fill="grey"> next</text>
</g>
<!-- Node12&#45;&gt;Node5 -->
<g id="edge15_Node000005_Node000012" class="edge">
<title>Node12&#45;&gt;Node5</title>
<g id="a_edge15_Node000005_Node000012"><a xlink:title=" ">
<path fill="none" stroke="#9a32cd" stroke-dasharray="5,2" d="M674.46,-195.49C661.83,-167.17 637.79,-113.28 628.4,-92.23"/>
<polygon fill="#9a32cd" stroke="#9a32cd" points="671.42,-197.26 678.69,-204.97 677.82,-194.41 671.42,-197.26"/>
</a>
</g>
<text text-anchor="middle" x="712.5" y="-175" font-family="Helvetica,sans-Serif" font-size="10.00" fill="grey"> fd_to_socket_map</text>
</g>
<!-- Node12&#45;&gt;Node12 -->
<g id="edge17_Node000012_Node000012" class="edge">
<title>Node12&#45;&gt;Node12</title>
<g id="a_edge17_Node000012_Node000012"><a xlink:title=" ">
<path fill="none" stroke="#9a32cd" stroke-dasharray="5,2" d="M733.76,-219.89C738.51,-218.78 741.5,-216.98 741.5,-214.5 741.5,-210.53 733.84,-208.31 723.58,-207.84"/>
<polygon fill="#9a32cd" stroke="#9a32cd" points="733.08,-216.45 723.58,-221.16 733.94,-223.4 733.08,-216.45"/>
</a>
</g>
<text text-anchor="middle" x="752.5" y="-212" font-family="Helvetica,sans-Serif" font-size="10.00" fill="grey"> next</text>
</g>
<!-- Node13 -->
<g id="Node000013" class="node">
<title>Node13</title>
<g id="a_Node000013"><a xlink:href="group__async__io.html#structSocketAsync__T" target="_top" xlink:title="Core structure for asynchronous I/O context management.">
<polygon fill="white" stroke="#666666" points="870.5,-187 784.5,-187 784.5,-168 870.5,-168 870.5,-187"/>
<text text-anchor="middle" x="827.5" y="-175" font-family="Helvetica,sans-Serif" font-size="10.00">SocketAsync_T</text>
</a>
</g>
</g>
<!-- Node13&#45;&gt;Node5 -->
<g id="edge18_Node000005_Node000013" class="edge">
<title>Node13&#45;&gt;Node5</title>
<g id="a_edge18_Node000005_Node000013"><a xlink:title=" ">
<path fill="none" stroke="#9a32cd" stroke-dasharray="5,2" d="M799.64,-163.74C757.6,-144.47 679.03,-108.48 643.19,-92.06"/>
<polygon fill="#9a32cd" stroke="#9a32cd" points="798.22,-166.93 808.77,-167.92 801.13,-160.57 798.22,-166.93"/>
</a>
</g>
<text text-anchor="middle" x="783.5" y="-131" font-family="Helvetica,sans-Serif" font-size="10.00" fill="grey"> async</text>
</g>
<!-- Node14&#45;&gt;Node13 -->
<g id="edge19_Node000013_Node000014" class="edge">
<title>Node14&#45;&gt;Node13</title>
<g id="a_edge19_Node000013_Node000014"><a xlink:title=" ">
<path fill="none" stroke="#9a32cd" stroke-dasharray="5,2" d="M763.16,-234.99C779.88,-220.31 804.35,-198.83 817.78,-187.03"/>
<polygon fill="#9a32cd" stroke="#9a32cd" points="760.43,-232.73 755.23,-241.96 765.05,-237.99 760.43,-232.73"/>
</a>
</g>
<text text-anchor="middle" x="817" y="-212" font-family="Helvetica,sans-Serif" font-size="10.00" fill="grey"> requests</text>
</g>
<!-- Node14&#45;&gt;Node14 -->
<g id="edge21_Node000014_Node000014" class="edge">
<title>Node14&#45;&gt;Node14</title>
<g id="a_edge21_Node000014_Node000014"><a xlink:title=" ">
<path fill="none" stroke="#9a32cd" stroke-dasharray="5,2" d="M796.32,-256.89C801.03,-255.78 804,-253.98 804,-251.5 804,-247.53 796.4,-245.31 786.23,-244.84"/>
<polygon fill="#9a32cd" stroke="#9a32cd" points="795.72,-253.44 786.23,-258.16 796.59,-260.39 795.72,-253.44"/>
</a>
</g>
<text text-anchor="middle" x="815" y="-249" font-family="Helvetica,sans-Serif" font-size="10.00" fill="grey"> next</text>
</g>
<!-- Node15 -->
<g id="Node000015" class="node">
<title>Node15</title>
<g id="a_Node000015"><a xlink:href="group__event__system.html#structSocketTimer__heap__T" target="_top" xlink:title="Binary min&#45;heap container for managing multiple SocketTimer_T instances.">
<polygon fill="white" stroke="#666666" points="998.5,-187 888.5,-187 888.5,-168 998.5,-168 998.5,-187"/>
<text text-anchor="middle" x="943.5" y="-175" font-family="Helvetica,sans-Serif" font-size="10.00">SocketTimer_heap_T</text>
</a>
</g>
</g>
<!-- Node15&#45;&gt;Node5 -->
<g id="edge22_Node000005_Node000015" class="edge">
<title>Node15&#45;&gt;Node5</title>
<g id="a_edge22_Node000005_Node000015"><a xlink:title=" ">
<path fill="none" stroke="#9a32cd" stroke-dasharray="5,2" d="M917.51,-163.55C889.68,-150.15 843.92,-129.48 802.5,-117 755.08,-102.71 698.63,-93.32 662.22,-88.22"/>
<polygon fill="#9a32cd" stroke="#9a32cd" points="916.05,-166.73 926.57,-167.96 919.11,-160.43 916.05,-166.73"/>
</a>
</g>
<text text-anchor="middle" x="913.5" y="-131" font-family="Helvetica,sans-Serif" font-size="10.00" fill="grey"> timer_heap</text>
</g>
<!-- Node16 -->
<g id="Node000016" class="node">
<title>Node16</title>
<g id="a_Node000016"><a xlink:href="group__event__system.html#structSocketTimer__T" target="_top" xlink:title="Internal representation of a single scheduled timer event.">
<polygon fill="white" stroke="#666666" points="985,-261 902,-261 902,-242 985,-242 985,-261"/>
<text text-anchor="middle" x="943.5" y="-249" font-family="Helvetica,sans-Serif" font-size="10.00">SocketTimer_T</text>
</a>
</g>
</g>
<!-- Node16&#45;&gt;Node15 -->
<g id="edge23_Node000015_Node000016" class="edge">
<title>Node16&#45;&gt;Node15</title>
<g id="a_edge23_Node000015_Node000016"><a xlink:title=" ">
<path fill="none" stroke="#9a32cd" stroke-dasharray="5,2" d="M943.5,-231.66C943.5,-217.21 943.5,-197.96 943.5,-187.03"/>
<polygon fill="#9a32cd" stroke="#9a32cd" points="940,-231.96 943.5,-241.96 947,-231.96 940,-231.96"/>
</a>
</g>
<text text-anchor="middle" x="959" y="-212" font-family="Helvetica,sans-Serif" font-size="10.00" fill="grey"> timers</text>
</g>
</g>
</svg>
