<?xml version="1.0" encoding="UTF-8" standalone="no"?>
<!DOCTYPE svg PUBLIC "-//W3C//DTD SVG 1.1//EN"
 "http://www.w3.org/Graphics/SVG/1.1/DTD/svg11.dtd">
<!-- Generated by graphviz version 2.43.0 (0)
 -->
<!-- Title: Connection_T Pages: 1 -->
<!--zoomable 289 -->

<svg id="main" version="1.1" xmlns="http://www.w3.org/2000/svg" xmlns:xlink="http://www.w3.org/1999/xlink" xml:space="preserve" onload="init(evt)">
<style type="text/css"><![CDATA[
.node, .edge {opacity: 0.7;}
.node.selected, .edge.selected {opacity: 1;}
.edge:hover path { stroke: red; }
.edge:hover polygon { stroke: red; fill: red; }
]]></style>

<defs>
  <circle id="rim" cx="0" cy="0" r="7"/>
  <circle id="rim2" cx="0" cy="0" r="3.5"/>
  <g id="zoomPlus">
    <use xlink:href="#rim" fill="#404040"><set attributeName="fill" to="#808080" begin="zoomplus.mouseover" end="zoomplus.mouseout"/></use>
    <path d="M-4,0h8M0,-4v8" fill="none" stroke="white" stroke-width="1.5" pointer-events="none"/>
  </g>
  <g id="zoomMin">
    <use xlink:href="#rim" fill="#404040"><set attributeName="fill" to="#808080" begin="zoomminus.mouseover" end="zoomminus.mouseout"/></use>
    <path d="M-4,0h8" fill="none" stroke="white" stroke-width="1.5" pointer-events="none"/>
  </g>
  <g id="arrowUp" transform="translate(30 24)">
    <use xlink:href="#rim"/>
    <path pointer-events="none" fill="none" stroke="white" stroke-width="1.5" d="M0,-3.0v7 M-2.5,-0.5L0,-3.0L2.5,-0.5"/>
  </g>
  <g id="arrowRight" transform="rotate(90) translate(36 -43)">
    <use xlink:href="#rim"/>
    <path pointer-events="none" fill="none" stroke="white" stroke-width="1.5" d="M0,-3.0v7 M-2.5,-0.5L0,-3.0L2.5,-0.5"/>
  </g>
  <g id="arrowDown" transform="rotate(180) translate(-30 -48)">
    <use xlink:href="#rim"/>
    <path pointer-events="none" fill="none" stroke="white" stroke-width="1.5" d="M0,-3.0v7 M-2.5,-0.5L0,-3.0L2.5,-0.5"/>
  </g>
  <g id="arrowLeft" transform="rotate(270) translate(-36 17)">
    <use xlink:href="#rim"/>
    <path pointer-events="none" fill="none" stroke="white" stroke-width="1.5" d="M0,-3.0v7 M-2.5,-0.5L0,-3.0L2.5,-0.5"/>
  </g>
  <g id="resetDef">
    <use xlink:href="#rim2" fill="#404040"><set attributeName="fill" to="#808080" begin="reset.mouseover" end="reset.mouseout"/></use>
  </g>
</defs>
<script type="application/ecmascript">
var viewWidth = 994;
var viewHeight = 289;
var sectionId = 'dynsection-1';
</script>
<script type="application/ecmascript" xlink:href="svg.min.js"/>
<svg id="graph" class="graph">
<g id="viewport">
<title>Connection_T</title>
<!-- Node1 -->
<g id="Node000001" class="node">
<title>Node1</title>
<g id="a_Node000001"><a xlink:title="Internal structure representing a pooled connection slot.">
<polygon fill="#999999" stroke="#666666" points="986,-172 909,-172 909,-153 986,-153 986,-172"/>
<text text-anchor="middle" x="947.5" y="-160" font-family="Helvetica,sans-Serif" font-size="10.00">Connection_T</text>
</a>
</g>
</g>
<!-- Node2 -->
<g id="Node000002" class="node">
<title>Node2</title>
<g id="a_Node000002"><a xlink:title=" ">
<polygon fill="white" stroke="#666666" points="438.5,-170 379.5,-170 379.5,-151 438.5,-151 438.5,-170"/>
<text text-anchor="middle" x="409" y="-158" font-family="Helvetica,sans-Serif" font-size="10.00">Socket_T</text>
</a>
</g>
</g>
<!-- Node2&#45;&gt;Node1 -->
<g id="edge1_Node000001_Node000002" class="edge">
<title>Node2&#45;&gt;Node1</title>
<g id="a_edge1_Node000001_Node000002"><a xlink:title=" ">
<path fill="none" stroke="#9a32cd" stroke-dasharray="5,2" d="M436.41,-174.7C465.13,-189.27 512.85,-210.97 557,-219.5 693.55,-245.88 859.13,-194.3 921.3,-172.04"/>
<polygon fill="#9a32cd" stroke="#9a32cd" points="437.92,-171.54 427.43,-170.06 434.71,-177.76 437.92,-171.54"/>
</a>
</g>
<text text-anchor="middle" x="709" y="-227.5" font-family="Helvetica,sans-Serif" font-size="10.00" fill="grey"> socket</text>
</g>
<!-- Node6 -->
<g id="Node000006" class="node">
<title>Node6</title>
<g id="a_Node000006"><a xlink:href="group__connection__mgmt.html#structConnection" target="_top" xlink:title="Internal structure representing a pooled connection slot.">
<polygon fill="white" stroke="#666666" points="827,-108 750,-108 750,-89 827,-89 827,-108"/>
<text text-anchor="middle" x="788.5" y="-96" font-family="Helvetica,sans-Serif" font-size="10.00">Connection_T</text>
</a>
</g>
</g>
<!-- Node2&#45;&gt;Node6 -->
<g id="edge6_Node000006_Node000002" class="edge">
<title>Node2&#45;&gt;Node6</title>
<g id="a_edge6_Node000006_Node000002"><a xlink:title=" ">
<path fill="none" stroke="#9a32cd" stroke-dasharray="5,2" d="M448.55,-151.94C478.13,-145.54 520.03,-136.83 557,-130.5 624.7,-118.91 704.13,-108.6 749.86,-102.98"/>
<polygon fill="#9a32cd" stroke="#9a32cd" points="447.66,-148.55 438.63,-154.1 449.15,-155.39 447.66,-148.55"/>
</a>
</g>
<text text-anchor="middle" x="612.5" y="-133.5" font-family="Helvetica,sans-Serif" font-size="10.00" fill="grey"> socket</text>
</g>
<!-- Node7 -->
<g id="Node000007" class="node">
<title>Node7</title>
<g id="a_Node000007"><a xlink:href="group__reconnect__private.html#structSocketReconnect__T" target="_top" xlink:title="Opaque internal context for reconnecting socket management.">
<polygon fill="white" stroke="#666666" points="665.5,-170 559.5,-170 559.5,-151 665.5,-151 665.5,-170"/>
<text text-anchor="middle" x="612.5" y="-158" font-family="Helvetica,sans-Serif" font-size="10.00">SocketReconnect_T</text>
</a>
</g>
</g>
<!-- Node2&#45;&gt;Node7 -->
<g id="edge10_Node000007_Node000002" class="edge">
<title>Node2&#45;&gt;Node7</title>
<g id="a_edge10_Node000007_Node000002"><a xlink:title=" ">
<path fill="none" stroke="#9a32cd" stroke-dasharray="5,2" d="M448.99,-160.5C480.38,-160.5 524.81,-160.5 559.28,-160.5"/>
<polygon fill="#9a32cd" stroke="#9a32cd" points="448.87,-157 438.87,-160.5 448.87,-164 448.87,-157"/>
</a>
</g>
<text text-anchor="middle" x="517.5" y="-163.5" font-family="Helvetica,sans-Serif" font-size="10.00" fill="grey"> socket</text>
</g>
<!-- Node3 -->
<g id="Node000003" class="node">
<title>Node3</title>
<g id="a_Node000003"><a xlink:href="group__core__io.html#structSocketBase__T" target="_top" xlink:title="Internal implementation of SocketBase_T opaque type.">
<polygon fill="white" stroke="#666666" points="279,-170 198,-170 198,-151 279,-151 279,-170"/>
<text text-anchor="middle" x="238.5" y="-158" font-family="Helvetica,sans-Serif" font-size="10.00">SocketBase_T</text>
</a>
</g>
</g>
<!-- Node3&#45;&gt;Node2 -->
<g id="edge2_Node000002_Node000003" class="edge">
<title>Node3&#45;&gt;Node2</title>
<g id="a_edge2_Node000002_Node000003"><a xlink:title=" ">
<path fill="none" stroke="#9a32cd" stroke-dasharray="5,2" d="M289.08,-160.5C318.43,-160.5 354.59,-160.5 379.28,-160.5"/>
<polygon fill="#9a32cd" stroke="#9a32cd" points="289.01,-157 279.01,-160.5 289.01,-164 289.01,-157"/>
</a>
</g>
<text text-anchor="middle" x="309.5" y="-163.5" font-family="Helvetica,sans-Serif" font-size="10.00" fill="grey"> base</text>
</g>
<!-- Node4 -->
<g id="Node000004" class="node">
<title>Node4</title>
<g id="a_Node000004"><a xlink:href="group__foundation.html#structSocketTimeouts__T" target="_top" xlink:title="Basic timeout configuration structure for socket operations.">
<polygon fill="white" stroke="#666666" points="110,-188 11,-188 11,-169 110,-169 110,-188"/>
<text text-anchor="middle" x="60.5" y="-176" font-family="Helvetica,sans-Serif" font-size="10.00">SocketTimeouts_T</text>
</a>
</g>
</g>
<!-- Node4&#45;&gt;Node3 -->
<g id="edge3_Node000003_Node000004" class="edge">
<title>Node4&#45;&gt;Node3</title>
<g id="a_edge3_Node000003_Node000004"><a xlink:title=" ">
<path fill="none" stroke="#9a32cd" stroke-dasharray="5,2" d="M120.03,-172.51C145.65,-169.89 175.02,-166.89 197.99,-164.54"/>
<polygon fill="#9a32cd" stroke="#9a32cd" points="119.65,-169.03 110.06,-173.53 120.36,-176 119.65,-169.03"/>
</a>
</g>
<text text-anchor="middle" x="159.5" y="-173.5" font-family="Helvetica,sans-Serif" font-size="10.00" fill="grey"> timeouts</text>
</g>
<!-- Node5 -->
<g id="Node000005" class="node">
<title>Node5</title>
<g id="a_Node000005"><a xlink:href="group__foundation.html#structSocketMetricsSnapshot" target="_top" xlink:title="SocketMetricsSnapshot &#45; Thread&#45;safe snapshot of all library metrics.">
<polygon fill="white" stroke="#666666" points="121,-151 0,-151 0,-132 121,-132 121,-151"/>
<text text-anchor="middle" x="60.5" y="-139" font-family="Helvetica,sans-Serif" font-size="10.00">SocketMetricsSnapshot</text>
</a>
</g>
</g>
<!-- Node5&#45;&gt;Node3 -->
<g id="edge4_Node000003_Node000005" class="edge">
<title>Node5&#45;&gt;Node3</title>
<g id="a_edge4_Node000003_Node000005"><a xlink:title=" ">
<path fill="none" stroke="#9a32cd" stroke-dasharray="5,2" d="M131.55,-147.47C147.49,-148.97 164.34,-150.69 180,-152.5 185.81,-153.17 191.93,-153.95 197.94,-154.75"/>
<polygon fill="#9a32cd" stroke="#9a32cd" points="131.51,-143.95 121.23,-146.51 130.86,-150.92 131.51,-143.95"/>
</a>
</g>
<text text-anchor="middle" x="159.5" y="-155.5" font-family="Helvetica,sans-Serif" font-size="10.00" fill="grey"> metrics</text>
</g>
<!-- Node6&#45;&gt;Node1 -->
<g id="edge5_Node000001_Node000006" class="edge">
<title>Node6&#45;&gt;Node1</title>
<g id="a_edge5_Node000001_Node000006"><a xlink:title=" ">
<path fill="none" stroke="#9a32cd" stroke-dasharray="5,2" d="M822.66,-112.02C852.78,-124.3 896.46,-142.1 923.09,-152.96"/>
<polygon fill="#9a32cd" stroke="#9a32cd" points="823.59,-108.62 813,-108.08 820.94,-115.1 823.59,-108.62"/>
</a>
</g>
<text text-anchor="middle" x="868" y="-152.5" font-family="Helvetica,sans-Serif" font-size="10.00" fill="grey"> free_next</text>
<text text-anchor="middle" x="868" y="-141.5" font-family="Helvetica,sans-Serif" font-size="10.00" fill="grey">hash_next</text>
</g>
<!-- Node6&#45;&gt;Node6 -->
<g id="edge7_Node000006_Node000006" class="edge">
<title>Node6&#45;&gt;Node6</title>
<g id="a_edge7_Node000006_Node000006"><a xlink:title=" ">
<path fill="none" stroke="#9a32cd" stroke-dasharray="5,2" d="M774.14,-117.91C775.26,-122.56 780.05,-126 788.5,-126 802.36,-126 806.37,-116.73 800.52,-108.08"/>
<polygon fill="#9a32cd" stroke="#9a32cd" points="777.56,-118.62 776.48,-108.08 770.76,-117 777.56,-118.62"/>
</a>
</g>
<text text-anchor="middle" x="788.5" y="-140" font-family="Helvetica,sans-Serif" font-size="10.00" fill="grey"> free_next</text>
<text text-anchor="middle" x="788.5" y="-129" font-family="Helvetica,sans-Serif" font-size="10.00" fill="grey">hash_next</text>
</g>
<!-- Node7&#45;&gt;Node1 -->
<g id="edge18_Node000001_Node000007" class="edge">
<title>Node7&#45;&gt;Node1</title>
<g id="a_edge18_Node000001_Node000007"><a xlink:title=" ">
<path fill="none" stroke="#9a32cd" stroke-dasharray="5,2" d="M675.97,-164.17C679.37,-164.3 682.72,-164.41 686,-164.5 777.08,-167.01 799.9,-166.14 891,-164.5 896.78,-164.4 902.91,-164.23 908.89,-164.04"/>
<polygon fill="#9a32cd" stroke="#9a32cd" points="675.9,-160.66 665.76,-163.73 675.6,-167.65 675.9,-160.66"/>
</a>
</g>
<text text-anchor="middle" x="788.5" y="-169.5" font-family="Helvetica,sans-Serif" font-size="10.00" fill="grey"> reconnect</text>
</g>
<!-- Node7&#45;&gt;Node6 -->
<g id="edge8_Node000006_Node000007" class="edge">
<title>Node7&#45;&gt;Node6</title>
<g id="a_edge8_Node000006_Node000007"><a xlink:title=" ">
<path fill="none" stroke="#9a32cd" stroke-dasharray="5,2" d="M675.41,-152.04C694.05,-148.28 714.26,-142.96 732,-135.5 748.44,-128.59 765.18,-116.6 775.92,-108.15"/>
<polygon fill="#9a32cd" stroke="#9a32cd" points="674.7,-148.61 665.53,-153.92 676.01,-155.49 674.7,-148.61"/>
</a>
</g>
<text text-anchor="middle" x="709" y="-152.5" font-family="Helvetica,sans-Serif" font-size="10.00" fill="grey"> reconnect</text>
</g>
<!-- Node7&#45;&gt;Node7 -->
<g id="edge11_Node000007_Node000007" class="edge">
<title>Node7&#45;&gt;Node7</title>
<g id="a_edge11_Node000007_Node000007"><a xlink:title=" ">
<path fill="none" stroke="#9a32cd" stroke-dasharray="5,2" d="M595.19,-179.91C596.55,-184.56 602.32,-188 612.5,-188 629.21,-188 634.04,-178.73 626.99,-170.08"/>
<polygon fill="#9a32cd" stroke="#9a32cd" points="598.62,-180.66 598.01,-170.08 591.89,-178.73 598.62,-180.66"/>
</a>
</g>
<text text-anchor="middle" x="612.5" y="-202" font-family="Helvetica,sans-Serif" font-size="10.00" fill="grey"> callback</text>
<text text-anchor="middle" x="612.5" y="-191" font-family="Helvetica,sans-Serif" font-size="10.00" fill="grey">health_check</text>
</g>
<!-- Node8 -->
<g id="Node000008" class="node">
<title>Node8</title>
<g id="a_Node000008"><a xlink:href="group__connection__mgmt.html#structSocketReconnect__Policy__T" target="_top" xlink:title="Configuration structure defining backoff policy, circuit breaker thresholds, and health check paramet...">
<polygon fill="white" stroke="#666666" points="478,-281 340,-281 340,-262 478,-262 478,-281"/>
<text text-anchor="middle" x="409" y="-269" font-family="Helvetica,sans-Serif" font-size="10.00">SocketReconnect_Policy_T</text>
</a>
</g>
</g>
<!-- Node8&#45;&gt;Node7 -->
<g id="edge9_Node000007_Node000008" class="edge">
<title>Node8&#45;&gt;Node7</title>
<g id="a_edge9_Node000007_Node000008"><a xlink:title=" ">
<path fill="none" stroke="#9a32cd" stroke-dasharray="5,2" d="M436.33,-257C478.18,-233.94 558.79,-189.53 594.15,-170.05"/>
<polygon fill="#9a32cd" stroke="#9a32cd" points="434.6,-253.95 427.53,-261.84 437.98,-260.08 434.6,-253.95"/>
</a>
</g>
<text text-anchor="middle" x="517.5" y="-225.5" font-family="Helvetica,sans-Serif" font-size="10.00" fill="grey"> policy</text>
</g>
<!-- Node9 -->
<g id="Node000009" class="node">
<title>Node9</title>
<g id="a_Node000009"><a xlink:href="group__security.html#structSocketTLSContext__T" target="_top" xlink:title="TLS context structure for managing OpenSSL SSL_CTX with secure defaults, certificates,...">
<polygon fill="white" stroke="#666666" points="668,-56 557,-56 557,-37 668,-37 668,-56"/>
<text text-anchor="middle" x="612.5" y="-44" font-family="Helvetica,sans-Serif" font-size="10.00">SocketTLSContext_T</text>
</a>
</g>
</g>
<!-- Node9&#45;&gt;Node1 -->
<g id="edge19_Node000001_Node000009" class="edge">
<title>Node9&#45;&gt;Node1</title>
<g id="a_edge19_Node000001_Node000009"><a xlink:title=" ">
<path fill="none" stroke="#9a32cd" stroke-dasharray="5,2" d="M678.32,-43.93C721.85,-44.39 779.67,-49.34 827,-68.5 875.2,-88.01 919.98,-133.16 938.06,-152.93"/>
<polygon fill="#9a32cd" stroke="#9a32cd" points="678.15,-40.43 668.14,-43.9 678.13,-47.43 678.15,-40.43"/>
</a>
</g>
<text text-anchor="middle" x="788.5" y="-71.5" font-family="Helvetica,sans-Serif" font-size="10.00" fill="grey"> tls_ctx</text>
</g>
<!-- Node9&#45;&gt;Node6 -->
<g id="edge12_Node000006_Node000009" class="edge">
<title>Node9&#45;&gt;Node6</title>
<g id="a_edge12_Node000006_Node000009"><a xlink:title=" ">
<path fill="none" stroke="#9a32cd" stroke-dasharray="5,2" d="M652.66,-59.15C663.45,-62.57 675.16,-66.23 686,-69.5 708.28,-76.22 733.44,-83.41 753.13,-88.95"/>
<polygon fill="#9a32cd" stroke="#9a32cd" points="653.66,-55.8 643.07,-56.09 651.53,-62.47 653.66,-55.8"/>
</a>
</g>
<text text-anchor="middle" x="709" y="-86.5" font-family="Helvetica,sans-Serif" font-size="10.00" fill="grey"> tls_ctx</text>
</g>
<!-- Node9&#45;&gt;Node9 -->
<g id="edge15_Node000009_Node000009" class="edge">
<title>Node9&#45;&gt;Node9</title>
<g id="a_edge15_Node000009_Node000009"><a xlink:title=" ">
<path fill="none" stroke="#9a32cd" stroke-dasharray="5,2" d="M595.19,-65.91C596.55,-70.56 602.32,-74 612.5,-74 629.21,-74 634.04,-64.73 626.99,-56.08"/>
<polygon fill="#9a32cd" stroke="#9a32cd" points="598.62,-66.66 598.01,-56.08 591.89,-64.73 598.62,-66.66"/>
</a>
</g>
<text text-anchor="middle" x="612.5" y="-77" font-family="Helvetica,sans-Serif" font-size="10.00" fill="grey"> verify_callback</text>
</g>
<!-- Node10 -->
<g id="Node000010" class="node">
<title>Node10</title>
<g id="a_Node000010"><a xlink:href="structTLSContextSNICerts.html" target="_top" xlink:title="Structure for managing SNI certificate mappings in TLS context.">
<polygon fill="white" stroke="#666666" points="464,-56 354,-56 354,-37 464,-37 464,-56"/>
<text text-anchor="middle" x="409" y="-44" font-family="Helvetica,sans-Serif" font-size="10.00">TLSContextSNICerts</text>
</a>
</g>
</g>
<!-- Node10&#45;&gt;Node9 -->
<g id="edge13_Node000009_Node000010" class="edge">
<title>Node10&#45;&gt;Node9</title>
<g id="a_edge13_Node000009_Node000010"><a xlink:title=" ">
<path fill="none" stroke="#9a32cd" stroke-dasharray="5,2" d="M474.59,-46.5C501.08,-46.5 531.42,-46.5 556.79,-46.5"/>
<polygon fill="#9a32cd" stroke="#9a32cd" points="474.26,-43 464.26,-46.5 474.26,-50 474.26,-43"/>
</a>
</g>
<text text-anchor="middle" x="517.5" y="-49.5" font-family="Helvetica,sans-Serif" font-size="10.00" fill="grey"> sni_certs</text>
</g>
<!-- Node11 -->
<g id="Node000011" class="node">
<title>Node11</title>
<g id="a_Node000011"><a xlink:href="group__security.html#structTLSContextALPN" target="_top" xlink:title="Configuration for ALPN protocol negotiation.">
<polygon fill="white" stroke="#666666" points="456.5,-19 361.5,-19 361.5,0 456.5,0 456.5,-19"/>
<text text-anchor="middle" x="409" y="-7" font-family="Helvetica,sans-Serif" font-size="10.00">TLSContextALPN</text>
</a>
</g>
</g>
<!-- Node11&#45;&gt;Node9 -->
<g id="edge14_Node000009_Node000011" class="edge">
<title>Node11&#45;&gt;Node9</title>
<g id="a_edge14_Node000009_Node000011"><a xlink:title=" ">
<path fill="none" stroke="#9a32cd" stroke-dasharray="5,2" d="M466.72,-18.73C489.25,-22.51 515.38,-27.04 539,-31.5 547.97,-33.19 557.54,-35.1 566.69,-36.97"/>
<polygon fill="#9a32cd" stroke="#9a32cd" points="467.08,-15.24 456.64,-17.05 465.93,-22.15 467.08,-15.24"/>
</a>
</g>
<text text-anchor="middle" x="517.5" y="-34.5" font-family="Helvetica,sans-Serif" font-size="10.00" fill="grey"> alpn</text>
</g>
<!-- Node12 -->
<g id="Node000012" class="node">
<title>Node12</title>
<g id="a_Node000012"><a xlink:href="group__security.html#structTLSContextPinning" target="_top" xlink:title="TLSContextPinning &#45; Certificate pinning configuration.">
<polygon fill="white" stroke="#666666" points="459.5,-93 358.5,-93 358.5,-74 459.5,-74 459.5,-93"/>
<text text-anchor="middle" x="409" y="-81" font-family="Helvetica,sans-Serif" font-size="10.00">TLSContextPinning</text>
</a>
</g>
</g>
<!-- Node12&#45;&gt;Node9 -->
<g id="edge16_Node000009_Node000012" class="edge">
<title>Node12&#45;&gt;Node9</title>
<g id="a_edge16_Node000009_Node000012"><a xlink:title=" ">
<path fill="none" stroke="#9a32cd" stroke-dasharray="5,2" d="M469.76,-73.03C491.56,-69.16 516.41,-64.69 539,-60.5 546.69,-59.07 554.83,-57.53 562.77,-56.01"/>
<polygon fill="#9a32cd" stroke="#9a32cd" points="468.89,-69.63 459.65,-74.82 470.11,-76.52 468.89,-69.63"/>
</a>
</g>
<text text-anchor="middle" x="517.5" y="-71.5" font-family="Helvetica,sans-Serif" font-size="10.00" fill="grey"> pinning</text>
</g>
<!-- Node13 -->
<g id="Node000013" class="node">
<title>Node13</title>
<g id="a_Node000013"><a xlink:href="group__security.html#structTLSCertPin" target="_top" xlink:title="TLSCertPin &#45; Single certificate pin entry (SPKI SHA256 hash)">
<polygon fill="white" stroke="#666666" points="272.5,-93 204.5,-93 204.5,-74 272.5,-74 272.5,-93"/>
<text text-anchor="middle" x="238.5" y="-81" font-family="Helvetica,sans-Serif" font-size="10.00">TLSCertPin</text>
</a>
</g>
</g>
<!-- Node13&#45;&gt;Node12 -->
<g id="edge17_Node000012_Node000013" class="edge">
<title>Node13&#45;&gt;Node12</title>
<g id="a_edge17_Node000012_Node000013"><a xlink:title=" ">
<path fill="none" stroke="#9a32cd" stroke-dasharray="5,2" d="M282.98,-83.5C306.08,-83.5 334.55,-83.5 358.49,-83.5"/>
<polygon fill="#9a32cd" stroke="#9a32cd" points="282.79,-80 272.79,-83.5 282.79,-87 282.79,-80"/>
</a>
</g>
<text text-anchor="middle" x="309.5" y="-86.5" font-family="Helvetica,sans-Serif" font-size="10.00" fill="grey"> pins</text>
</g>
</g>
</svg>

<g id="navigator" transform="translate(0 0)" fill="#404254">
  <rect fill="#f2f5e9" fill-opacity="0.5" stroke="#606060" stroke-width=".5" x="0" y="0" width="60" height="60"/>
  <use id="zoomplus" xlink:href="#zoomPlus" x="17" y="9" onmousedown="handleZoom(evt,'in')"/>
  <use id="zoomminus" xlink:href="#zoomMin" x="42" y="9" onmousedown="handleZoom(evt,'out')"/>
  <use id="reset" xlink:href="#resetDef" x="30" y="36" onmousedown="handleReset()"/>
   <use id="arrowup" xlink:href="#arrowUp" x="0" y="0" onmousedown="handlePan(0,-1)"/>
  <use id="arrowright" xlink:href="#arrowRight" x="0" y="0" onmousedown="handlePan(1,0)"/>
  <use id="arrowdown" xlink:href="#arrowDown" x="0" y="0" onmousedown="handlePan(0,1)"/>
  <use id="arrowleft" xlink:href="#arrowLeft" x="0" y="0" onmousedown="handlePan(-1,0)"/>
</g>
<svg viewBox="0 0 15 15" width="100%" height="30px" preserveAspectRatio="xMaxYMin meet">
 <g id="arrow_out" transform="scale(0.3 0.3)">
  <a xlink:href="structConnection__coll__graph_org.svg" target="_base">
   <rect id="button" ry="5" rx="5" y="6" x="6" height="38" width="38"
        fill="#f2f5e9" fill-opacity="0.5" stroke="#606060" stroke-width="1.0"/>
   <path id="arrow"
     d="M 11.500037,31.436501 C 11.940474,20.09759 22.043105,11.32322 32.158766,21.979434 L 37.068811,17.246167 C 37.068811,17.246167 37.088388,32 37.088388,32 L 22.160133,31.978069 C 22.160133,31.978069 26.997745,27.140456 26.997745,27.140456 C 18.528582,18.264221 13.291696,25.230495 11.500037,31.436501 z"
     style="fill:#404040;"/>
  </a>
 </g>
</svg>

<style type='text/css'>
<![CDATA[
[data-mouse-over-selected='false'] { opacity: 0.7; }
[data-mouse-over-selected='true']  { opacity: 1.0; }
]]>
</style>
<script type="application/ecmascript"><![CDATA[
document.addEventListener('DOMContentLoaded', (event) => {
  highlightEdges();
  highlightAdjacentNodes();
});
]]></script>
</svg>
