<?xml version="1.0" encoding="UTF-8" standalone="no"?>
<!DOCTYPE svg PUBLIC "-//W3C//DTD SVG 1.1//EN"
 "http://www.w3.org/Graphics/SVG/1.1/DTD/svg11.dtd">
<!-- Generated by graphviz version 2.43.0 (0)
 -->
<!-- Title: SocketHTTPServer_Request_T Pages: 1 -->
<svg width="222pt" height="228pt"
 viewBox="0.00 0.00 221.50 228.00" xmlns="http://www.w3.org/2000/svg" xmlns:xlink="http://www.w3.org/1999/xlink">

<svg id="main" version="1.1" xmlns="http://www.w3.org/2000/svg" xmlns:xlink="http://www.w3.org/1999/xlink" xml:space="preserve" onload="init(evt)">
<style type="text/css"><![CDATA[
.node, .edge {opacity: 0.7;}
.node.selected, .edge.selected {opacity: 1;}
.edge:hover path { stroke: red; }
.edge:hover polygon { stroke: red; fill: red; }
]]></style>
<script type="application/ecmascript" xlink:href="svg.min.js"/>
<svg id="graph" class="graph">
<g id="graph0" class="graph" transform="scale(1 1) rotate(0) translate(4 224)">
<title>SocketHTTPServer_Request_T</title>
<!-- Node1 -->
<g id="Node000001" class="node">
<title>Node1</title>
<g id="a_Node000001"><a xlink:title="Internal implementation details of the SocketHTTPServer_Request opaque type.">
<polygon fill="#999999" stroke="#666666" points="180,-19 25,-19 25,0 180,0 180,-19"/>
<text text-anchor="middle" x="102.5" y="-7" font-family="Helvetica,sans-Serif" font-size="10.00">SocketHTTPServer_Request_T</text>
</a>
</g>
</g>
<!-- Node2 -->
<g id="Node000002" class="node">
<title>Node2</title>
<g id="a_Node000002"><a xlink:href="group__http.html#structServerConnection" target="_top" xlink:title="Core internal structure representing an active HTTP client connection.">
<polygon fill="white" stroke="#666666" points="150,-86.5 55,-86.5 55,-67.5 150,-67.5 150,-86.5"/>
<text text-anchor="middle" x="102.5" y="-74.5" font-family="Helvetica,sans-Serif" font-size="10.00">ServerConnection</text>
</a>
</g>
</g>
<!-- Node2&#45;&gt;Node1 -->
<g id="edge1_Node000001_Node000002" class="edge">
<title>Node2&#45;&gt;Node1</title>
<g id="a_edge1_Node000001_Node000002"><a xlink:title=" ">
<path fill="none" stroke="#9a32cd" stroke-dasharray="5,2" d="M102.5,-57.18C102.5,-44.71 102.5,-28.92 102.5,-19.27"/>
<polygon fill="#9a32cd" stroke="#9a32cd" points="99,-57.44 102.5,-67.44 106,-57.44 99,-57.44"/>
</a>
</g>
<text text-anchor="middle" x="115" y="-40" font-family="Helvetica,sans-Serif" font-size="10.00" fill="grey"> conn</text>
</g>
<!-- Node2&#45;&gt;Node2 -->
<g id="edge5_Node000002_Node000002" class="edge">
<title>Node2&#45;&gt;Node2</title>
<g id="a_edge5_Node000002_Node000002"><a xlink:title=" ">
<path fill="none" stroke="#9a32cd" stroke-dasharray="5,2" d="M160.36,-81.89C165.08,-80.83 168,-79.2 168,-77 168,-73.48 160.51,-71.42 150.19,-70.81"/>
<polygon fill="#9a32cd" stroke="#9a32cd" points="159.67,-78.45 150.19,-83.19 160.55,-85.4 159.67,-78.45"/>
</a>
</g>
<text text-anchor="middle" x="179" y="-80" font-family="Helvetica,sans-Serif" font-size="10.00" fill="grey"> next</text>
<text text-anchor="middle" x="179" y="-69" font-family="Helvetica,sans-Serif" font-size="10.00" fill="grey">prev</text>
</g>
<!-- Node3 -->
<g id="Node000003" class="node">
<title>Node3</title>
<g id="a_Node000003"><a xlink:title=" ">
<polygon fill="white" stroke="#666666" points="79,-154 20,-154 20,-135 79,-135 79,-154"/>
<text text-anchor="middle" x="49.5" y="-142" font-family="Helvetica,sans-Serif" font-size="10.00">Socket_T</text>
</a>
</g>
</g>
<!-- Node3&#45;&gt;Node2 -->
<g id="edge2_Node000002_Node000003" class="edge">
<title>Node3&#45;&gt;Node2</title>
<g id="a_edge2_Node000002_Node000003"><a xlink:title=" ">
<path fill="none" stroke="#9a32cd" stroke-dasharray="5,2" d="M62.9,-126.94C73.23,-114.17 87.12,-97.01 95.4,-86.77"/>
<polygon fill="#9a32cd" stroke="#9a32cd" points="60,-124.96 56.43,-134.94 65.44,-129.36 60,-124.96"/>
</a>
</g>
<text text-anchor="middle" x="96" y="-109" font-family="Helvetica,sans-Serif" font-size="10.00" fill="grey"> socket</text>
</g>
<!-- Node4 -->
<g id="Node000004" class="node">
<title>Node4</title>
<g id="a_Node000004"><a xlink:href="group__foundation.html#structSocketTimeouts__T" target="_top" xlink:title="Timeout configuration structure for socket operations.">
<polygon fill="white" stroke="#666666" points="99,-220 0,-220 0,-201 99,-201 99,-220"/>
<text text-anchor="middle" x="49.5" y="-208" font-family="Helvetica,sans-Serif" font-size="10.00">SocketTimeouts_T</text>
</a>
</g>
</g>
<!-- Node4&#45;&gt;Node3 -->
<g id="edge3_Node000003_Node000004" class="edge">
<title>Node4&#45;&gt;Node3</title>
<g id="a_edge3_Node000003_Node000004"><a xlink:title=" ">
<path fill="none" stroke="#9a32cd" stroke-dasharray="5,2" d="M49.5,-190.58C49.5,-178.63 49.5,-163.72 49.5,-154.41"/>
<polygon fill="#9a32cd" stroke="#9a32cd" points="46,-190.87 49.5,-200.87 53,-190.87 46,-190.87"/>
</a>
</g>
<text text-anchor="middle" x="78" y="-175" font-family="Helvetica,sans-Serif" font-size="10.00" fill="grey"> tls_timeouts</text>
</g>
<!-- Node5 -->
<g id="Node000005" class="node">
<title>Node5</title>
<g id="a_Node000005"><a xlink:href="group__http.html#structSocketHTTP__Request" target="_top" xlink:title="Protocol&#45;agnostic representation of an HTTP request message.">
<polygon fill="white" stroke="#666666" points="213.5,-154 97.5,-154 97.5,-135 213.5,-135 213.5,-154"/>
<text text-anchor="middle" x="155.5" y="-142" font-family="Helvetica,sans-Serif" font-size="10.00">SocketHTTP_Request</text>
</a>
</g>
</g>
<!-- Node5&#45;&gt;Node2 -->
<g id="edge4_Node000002_Node000005" class="edge">
<title>Node5&#45;&gt;Node2</title>
<g id="a_edge4_Node000002_Node000005"><a xlink:title=" ">
<path fill="none" stroke="#9a32cd" stroke-dasharray="5,2" d="M142.1,-126.94C131.77,-114.17 117.88,-97.01 109.6,-86.77"/>
<polygon fill="#9a32cd" stroke="#9a32cd" points="139.56,-129.36 148.57,-134.94 145,-124.96 139.56,-129.36"/>
</a>
</g>
<text text-anchor="middle" x="151.5" y="-109" font-family="Helvetica,sans-Serif" font-size="10.00" fill="grey"> request</text>
</g>
</g>
</svg>
</svg>

<style type='text/css'>
<![CDATA[
[data-mouse-over-selected='false'] { opacity: 0.7; }
[data-mouse-over-selected='true']  { opacity: 1.0; }
]]>
</style>
<script type="application/ecmascript"><![CDATA[
document.addEventListener('DOMContentLoaded', (event) => {
  highlightEdges();
  highlightAdjacentNodes();
});
]]></script>
</svg>
