<?xml version="1.0" encoding="UTF-8" standalone="no"?>
<!DOCTYPE svg PUBLIC "-//W3C//DTD SVG 1.1//EN"
 "http://www.w3.org/Graphics/SVG/1.1/DTD/svg11.dtd">
<!-- Generated by graphviz version 2.43.0 (0)
 -->
<!-- Title: SocketEvent_T Pages: 1 -->
<svg width="246pt" height="225pt"
 viewBox="0.00 0.00 246.00 225.00" xmlns="http://www.w3.org/2000/svg" xmlns:xlink="http://www.w3.org/1999/xlink">
<g id="graph0" class="graph" transform="scale(1 1) rotate(0) translate(4 221)">
<title>SocketEvent_T</title>
<!-- Node1 -->
<g id="Node000001" class="node">
<title>Node1</title>
<g id="a_Node000001"><a xlink:title="Event notification structure returned by polling operations.">
<polygon fill="#999999" stroke="#666666" points="155.5,-19 71.5,-19 71.5,0 155.5,0 155.5,-19"/>
<text text-anchor="middle" x="113.5" y="-7" font-family="Helvetica,sans-Serif" font-size="10.00">SocketEvent_T</text>
</a>
</g>
</g>
<!-- Node2 -->
<g id="Node000002" class="node">
<title>Node2</title>
<g id="a_Node000002"><a xlink:title=" ">
<polygon fill="white" stroke="#666666" points="143,-85 84,-85 84,-66 143,-66 143,-85"/>
<text text-anchor="middle" x="113.5" y="-73" font-family="Helvetica,sans-Serif" font-size="10.00">Socket_T</text>
</a>
</g>
</g>
<!-- Node2&#45;&gt;Node1 -->
<g id="edge1_Node000001_Node000002" class="edge">
<title>Node2&#45;&gt;Node1</title>
<g id="a_edge1_Node000001_Node000002"><a xlink:title=" ">
<path fill="none" stroke="#9a32cd" stroke-dasharray="5,2" d="M113.5,-55.58C113.5,-43.63 113.5,-28.72 113.5,-19.41"/>
<polygon fill="#9a32cd" stroke="#9a32cd" points="110,-55.87 113.5,-65.87 117,-55.87 110,-55.87"/>
</a>
</g>
<text text-anchor="middle" x="130" y="-40" font-family="Helvetica,sans-Serif" font-size="10.00" fill="grey"> socket</text>
</g>
<!-- Node3 -->
<g id="Node000003" class="node">
<title>Node3</title>
<g id="a_Node000003"><a xlink:href="group__core__io.html#structSocketBase__T" target="_top" xlink:title="Internal implementation of SocketBase_T opaque type.">
<polygon fill="white" stroke="#666666" points="154,-151 73,-151 73,-132 154,-132 154,-151"/>
<text text-anchor="middle" x="113.5" y="-139" font-family="Helvetica,sans-Serif" font-size="10.00">SocketBase_T</text>
</a>
</g>
</g>
<!-- Node3&#45;&gt;Node2 -->
<g id="edge2_Node000002_Node000003" class="edge">
<title>Node3&#45;&gt;Node2</title>
<g id="a_edge2_Node000002_Node000003"><a xlink:title=" ">
<path fill="none" stroke="#9a32cd" stroke-dasharray="5,2" d="M113.5,-121.58C113.5,-109.63 113.5,-94.72 113.5,-85.41"/>
<polygon fill="#9a32cd" stroke="#9a32cd" points="110,-121.87 113.5,-131.87 117,-121.87 110,-121.87"/>
</a>
</g>
<text text-anchor="middle" x="126" y="-106" font-family="Helvetica,sans-Serif" font-size="10.00" fill="grey"> base</text>
</g>
<!-- Node4 -->
<g id="Node000004" class="node">
<title>Node4</title>
<g id="a_Node000004"><a xlink:href="group__foundation.html#structSocketTimeouts__T" target="_top" xlink:title="Basic timeout configuration structure for socket operations.">
<polygon fill="white" stroke="#666666" points="99,-217 0,-217 0,-198 99,-198 99,-217"/>
<text text-anchor="middle" x="49.5" y="-205" font-family="Helvetica,sans-Serif" font-size="10.00">SocketTimeouts_T</text>
</a>
</g>
</g>
<!-- Node4&#45;&gt;Node3 -->
<g id="edge3_Node000003_Node000004" class="edge">
<title>Node4&#45;&gt;Node3</title>
<g id="a_edge3_Node000003_Node000004"><a xlink:title=" ">
<path fill="none" stroke="#9a32cd" stroke-dasharray="5,2" d="M65.52,-190.48C77.88,-178.12 94.51,-161.49 104.59,-151.41"/>
<polygon fill="#9a32cd" stroke="#9a32cd" points="62.73,-188.32 58.13,-197.87 67.68,-193.27 62.73,-188.32"/>
</a>
</g>
<text text-anchor="middle" x="106" y="-172" font-family="Helvetica,sans-Serif" font-size="10.00" fill="grey"> timeouts</text>
</g>
<!-- Node5 -->
<g id="Node000005" class="node">
<title>Node5</title>
<g id="a_Node000005"><a xlink:href="group__foundation.html#structSocketMetricsSnapshot" target="_top" xlink:title="SocketMetricsSnapshot &#45; Thread&#45;safe snapshot of all library metrics.">
<polygon fill="white" stroke="#666666" points="238,-217 117,-217 117,-198 238,-198 238,-217"/>
<text text-anchor="middle" x="177.5" y="-205" font-family="Helvetica,sans-Serif" font-size="10.00">SocketMetricsSnapshot</text>
</a>
</g>
</g>
<!-- Node5&#45;&gt;Node3 -->
<g id="edge4_Node000003_Node000005" class="edge">
<title>Node5&#45;&gt;Node3</title>
<g id="a_edge4_Node000003_Node000005"><a xlink:title=" ">
<path fill="none" stroke="#9a32cd" stroke-dasharray="5,2" d="M161.48,-190.48C149.12,-178.12 132.49,-161.49 122.41,-151.41"/>
<polygon fill="#9a32cd" stroke="#9a32cd" points="159.32,-193.27 168.87,-197.87 164.27,-188.32 159.32,-193.27"/>
</a>
</g>
<text text-anchor="middle" x="166.5" y="-172" font-family="Helvetica,sans-Serif" font-size="10.00" fill="grey"> metrics</text>
</g>
</g>
</svg>
