<?xml version="1.0" encoding="UTF-8" standalone="no"?>
<!DOCTYPE svg PUBLIC "-//W3C//DTD SVG 1.1//EN"
 "http://www.w3.org/Graphics/SVG/1.1/DTD/svg11.dtd">
<!-- Generated by graphviz version 2.43.0 (0)
 -->
<!-- Title: Except_Frame Pages: 1 -->
<svg width="128pt" height="93pt"
 viewBox="0.00 0.00 128.00 93.00" xmlns="http://www.w3.org/2000/svg" xmlns:xlink="http://www.w3.org/1999/xlink">
<g id="graph0" class="graph" transform="scale(1 1) rotate(0) translate(4 89)">
<title>Except_Frame</title>
<!-- Node1 -->
<g id="Node000001" class="node">
<title>Node1</title>
<g id="a_Node000001"><a xlink:title="Exception frame for TRY/EXCEPT/FINALLY blocks.">
<polygon fill="#999999" stroke="#666666" points="80,-19 0,-19 0,0 80,0 80,-19"/>
<text text-anchor="middle" x="40" y="-7" font-family="Helvetica,sans-Serif" font-size="10.00">Except_Frame</text>
</a>
</g>
</g>
<!-- Node1&#45;&gt;Node1 -->
<g id="edge1_Node000001_Node000001" class="edge">
<title>Node1&#45;&gt;Node1</title>
<g id="a_edge1_Node000001_Node000001"><a xlink:title=" ">
<path fill="none" stroke="#9a32cd" stroke-dasharray="5,2" d="M90.26,-14.32C95,-13.33 98,-11.73 98,-9.5 98,-5.94 90.33,-3.96 80.12,-3.57"/>
<polygon fill="#9a32cd" stroke="#9a32cd" points="89.68,-10.86 80.12,-15.43 90.44,-17.82 89.68,-10.86"/>
</a>
</g>
<text text-anchor="middle" x="109" y="-7" font-family="Helvetica,sans-Serif" font-size="10.00" fill="grey"> prev</text>
</g>
<!-- Node2 -->
<g id="Node000002" class="node">
<title>Node2</title>
<g id="a_Node000002"><a xlink:href="group__foundation.html#structExcept__T" target="_top" xlink:title="Exception structure for structured error handling.">
<polygon fill="white" stroke="#666666" points="69.5,-85 10.5,-85 10.5,-66 69.5,-66 69.5,-85"/>
<text text-anchor="middle" x="40" y="-73" font-family="Helvetica,sans-Serif" font-size="10.00">Except_T</text>
</a>
</g>
</g>
<!-- Node2&#45;&gt;Node1 -->
<g id="edge2_Node000001_Node000002" class="edge">
<title>Node2&#45;&gt;Node1</title>
<g id="a_edge2_Node000001_Node000002"><a xlink:title=" ">
<path fill="none" stroke="#9a32cd" stroke-dasharray="5,2" d="M40,-55.58C40,-43.63 40,-28.72 40,-19.41"/>
<polygon fill="#9a32cd" stroke="#9a32cd" points="36.5,-55.87 40,-65.87 43.5,-55.87 36.5,-55.87"/>
</a>
</g>
<text text-anchor="middle" x="63" y="-40" font-family="Helvetica,sans-Serif" font-size="10.00" fill="grey"> exception</text>
</g>
<!-- Node2&#45;&gt;Node2 -->
<g id="edge3_Node000002_Node000002" class="edge">
<title>Node2&#45;&gt;Node2</title>
<g id="a_edge3_Node000002_Node000002"><a xlink:title=" ">
<path fill="none" stroke="#9a32cd" stroke-dasharray="5,2" d="M79.67,-80.66C84.41,-79.72 87.5,-78 87.5,-75.5 87.5,-71.5 79.58,-69.5 69.69,-69.5"/>
<polygon fill="#9a32cd" stroke="#9a32cd" points="79.36,-77.17 69.69,-81.5 79.95,-84.15 79.36,-77.17"/>
</a>
</g>
<text text-anchor="middle" x="98.5" y="-73" font-family="Helvetica,sans-Serif" font-size="10.00" fill="grey"> type</text>
</g>
</g>
</svg>
