<?xml version="1.0" encoding="UTF-8" standalone="no"?>
<!DOCTYPE svg PUBLIC "-//W3C//DTD SVG 1.1//EN"
 "http://www.w3.org/Graphics/SVG/1.1/DTD/svg11.dtd">
<!-- Generated by graphviz version 2.43.0 (0)
 -->
<!-- Title: SocketDTLSContext_T Pages: 1 -->
<svg width="236pt" height="93pt"
 viewBox="0.00 0.00 236.00 93.00" xmlns="http://www.w3.org/2000/svg" xmlns:xlink="http://www.w3.org/1999/xlink">
<g id="graph0" class="graph" transform="scale(1 1) rotate(0) translate(4 89)">
<title>SocketDTLSContext_T</title>
<!-- Node1 -->
<g id="Node000001" class="node">
<title>Node1</title>
<g id="a_Node000001"><a xlink:title="SocketDTLSContext_T &#45; DTLS Context Structure.">
<polygon fill="#999999" stroke="#666666" points="174,-19 55,-19 55,0 174,0 174,-19"/>
<text text-anchor="middle" x="114.5" y="-7" font-family="Helvetica,sans-Serif" font-size="10.00">SocketDTLSContext_T</text>
</a>
</g>
</g>
<!-- Node2 -->
<g id="Node000002" class="node">
<title>Node2</title>
<g id="a_Node000002"><a xlink:href="group__security.html#structDTLSContextCookie" target="_top" xlink:title="Cookie state structure for server&#45;side DTLS cookie exchange.">
<polygon fill="white" stroke="#666666" points="107,-85 0,-85 0,-66 107,-66 107,-85"/>
<text text-anchor="middle" x="53.5" y="-73" font-family="Helvetica,sans-Serif" font-size="10.00">DTLSContextCookie</text>
</a>
</g>
</g>
<!-- Node2&#45;&gt;Node1 -->
<g id="edge1_Node000001_Node000002" class="edge">
<title>Node2&#45;&gt;Node1</title>
<g id="a_edge1_Node000001_Node000002"><a xlink:title=" ">
<path fill="none" stroke="#9a32cd" stroke-dasharray="5,2" d="M68.77,-58.48C80.55,-46.12 96.4,-29.49 106.01,-19.41"/>
<polygon fill="#9a32cd" stroke="#9a32cd" points="66.09,-56.22 61.73,-65.87 71.16,-61.04 66.09,-56.22"/>
</a>
</g>
<text text-anchor="middle" x="104.5" y="-40" font-family="Helvetica,sans-Serif" font-size="10.00" fill="grey"> cookie</text>
</g>
<!-- Node3 -->
<g id="Node000003" class="node">
<title>Node3</title>
<g id="a_Node000003"><a xlink:href="group__security.html#structDTLSContextALPN" target="_top" xlink:title="ALPN configuration structure for DTLS contexts.">
<polygon fill="white" stroke="#666666" points="228,-85 125,-85 125,-66 228,-66 228,-85"/>
<text text-anchor="middle" x="176.5" y="-73" font-family="Helvetica,sans-Serif" font-size="10.00">DTLSContextALPN</text>
</a>
</g>
</g>
<!-- Node3&#45;&gt;Node1 -->
<g id="edge2_Node000001_Node000003" class="edge">
<title>Node3&#45;&gt;Node1</title>
<g id="a_edge2_Node000001_Node000003"><a xlink:title=" ">
<path fill="none" stroke="#9a32cd" stroke-dasharray="5,2" d="M160.98,-58.48C149.01,-46.12 132.9,-29.49 123.13,-19.41"/>
<polygon fill="#9a32cd" stroke="#9a32cd" points="158.67,-61.12 168.14,-65.87 163.69,-56.25 158.67,-61.12"/>
</a>
</g>
<text text-anchor="middle" x="159.5" y="-40" font-family="Helvetica,sans-Serif" font-size="10.00" fill="grey"> alpn</text>
</g>
</g>
</svg>
