<?xml version="1.0" encoding="UTF-8" standalone="no"?>
<!DOCTYPE svg PUBLIC "-//W3C//DTD SVG 1.1//EN"
 "http://www.w3.org/Graphics/SVG/1.1/DTD/svg11.dtd">
<!-- Generated by graphviz version 2.43.0 (0)
 -->
<!-- Title: SocketPool_T Pages: 1 -->
<svg width="927pt" height="672pt"
 viewBox="0.00 0.00 927.00 672.39" xmlns="http://www.w3.org/2000/svg" xmlns:xlink="http://www.w3.org/1999/xlink">
<g id="graph0" class="graph" transform="scale(1 1) rotate(0) translate(4 668.39)">
<title>SocketPool_T</title>
<!-- Node1 -->
<g id="Node000001" class="node">
<title>Node1</title>
<g id="a_Node000001"><a xlink:title=" ">
<polygon fill="#999999" stroke="#666666" points="897,-277.39 819,-277.39 819,-258.39 897,-258.39 897,-277.39"/>
<text text-anchor="middle" x="858" y="-265.39" font-family="Helvetica,sans-Serif" font-size="10.00">SocketPool_T</text>
</a>
</g>
</g>
<!-- Node1&#45;&gt;Node1 -->
<g id="edge33_Node000001_Node000001" class="edge">
<title>Node1&#45;&gt;Node1</title>
<g id="a_edge33_Node000001_Node000001"><a xlink:title=" ">
<path fill="none" stroke="#9a32cd" stroke-dasharray="5,2" d="M838,-286.95C839.34,-291.77 846,-295.39 858,-295.39 877.2,-295.39 882.74,-286.13 874.65,-277.48"/>
<polygon fill="#9a32cd" stroke="#9a32cd" points="841.32,-288.07 841.35,-277.48 834.72,-285.73 841.32,-288.07"/>
</a>
</g>
<text text-anchor="middle" x="858" y="-309.39" font-family="Helvetica,sans-Serif" font-size="10.00" fill="grey"> drain_cb</text>
<text text-anchor="middle" x="858" y="-298.39" font-family="Helvetica,sans-Serif" font-size="10.00" fill="grey">resize_cb</text>
</g>
<!-- Node2 -->
<g id="Node000002" class="node">
<title>Node2</title>
<g id="a_Node000002"><a xlink:href="group__connection__mgmt.html#structConnection" target="_top" xlink:title="Internal structure representing a pooled connection slot.">
<polygon fill="white" stroke="#666666" points="685,-225.39 608,-225.39 608,-206.39 685,-206.39 685,-225.39"/>
<text text-anchor="middle" x="646.5" y="-213.39" font-family="Helvetica,sans-Serif" font-size="10.00">Connection_T</text>
</a>
</g>
</g>
<!-- Node2&#45;&gt;Node1 -->
<g id="edge1_Node000001_Node000002" class="edge">
<title>Node2&#45;&gt;Node1</title>
<g id="a_edge1_Node000001_Node000002"><a xlink:title=" ">
<path fill="none" stroke="#9a32cd" stroke-dasharray="5,2" d="M695.61,-227.84C733.08,-237.13 784.37,-249.87 818.99,-258.46"/>
<polygon fill="#9a32cd" stroke="#9a32cd" points="695.99,-224.32 685.44,-225.31 694.3,-231.12 695.99,-224.32"/>
</a>
</g>
<text text-anchor="middle" x="749.5" y="-251.89" font-family="Helvetica,sans-Serif" font-size="10.00" fill="grey"> connections</text>
</g>
<!-- Node2&#45;&gt;Node2 -->
<g id="edge3_Node000002_Node000002" class="edge">
<title>Node2&#45;&gt;Node2</title>
<g id="a_edge3_Node000002_Node000002"><a xlink:title=" ">
<path fill="none" stroke="#9a32cd" stroke-dasharray="5,2" d="M627.72,-235.31C629.19,-239.95 635.45,-243.39 646.5,-243.39 664.63,-243.39 669.87,-234.13 662.22,-225.48"/>
<polygon fill="#9a32cd" stroke="#9a32cd" points="631.15,-236.06 630.78,-225.48 624.46,-233.98 631.15,-236.06"/>
</a>
</g>
<text text-anchor="middle" x="646.5" y="-257.39" font-family="Helvetica,sans-Serif" font-size="10.00" fill="grey"> free_next</text>
<text text-anchor="middle" x="646.5" y="-246.39" font-family="Helvetica,sans-Serif" font-size="10.00" fill="grey">hash_next</text>
</g>
<!-- Node3 -->
<g id="Node000003" class="node">
<title>Node3</title>
<g id="a_Node000003"><a xlink:title=" ">
<polygon fill="white" stroke="#666666" points="224.5,-186.39 165.5,-186.39 165.5,-167.39 224.5,-167.39 224.5,-186.39"/>
<text text-anchor="middle" x="195" y="-174.39" font-family="Helvetica,sans-Serif" font-size="10.00">Socket_T</text>
</a>
</g>
</g>
<!-- Node3&#45;&gt;Node1 -->
<g id="edge14_Node000001_Node000003" class="edge">
<title>Node3&#45;&gt;Node1</title>
<g id="a_edge14_Node000001_Node000003"><a xlink:title=" ">
<path fill="none" stroke="#9a32cd" stroke-dasharray="5,2" d="M234.64,-171.9C320.8,-162.14 534.3,-145.73 702,-196.89 754.37,-212.87 812,-242.83 839.93,-258.23"/>
<polygon fill="#9a32cd" stroke="#9a32cd" points="234.06,-168.44 224.53,-173.08 234.87,-175.39 234.06,-168.44"/>
</a>
</g>
<text text-anchor="middle" x="534.5" y="-173.89" font-family="Helvetica,sans-Serif" font-size="10.00" fill="grey"> cleanup_buffer</text>
</g>
<!-- Node3&#45;&gt;Node2 -->
<g id="edge2_Node000002_Node000003" class="edge">
<title>Node3&#45;&gt;Node2</title>
<g id="a_edge2_Node000002_Node000003"><a xlink:title=" ">
<path fill="none" stroke="#9a32cd" stroke-dasharray="5,2" d="M234.75,-176.35C289.22,-176 391.45,-176.81 478,-185.89 522.95,-190.61 574,-200.4 607.81,-207.52"/>
<polygon fill="#9a32cd" stroke="#9a32cd" points="234.48,-172.86 224.51,-176.44 234.54,-179.86 234.48,-172.86"/>
</a>
</g>
<text text-anchor="middle" x="410.5" y="-188.89" font-family="Helvetica,sans-Serif" font-size="10.00" fill="grey"> socket</text>
</g>
<!-- Node4 -->
<g id="Node000004" class="node">
<title>Node4</title>
<g id="a_Node000004"><a xlink:href="group__reconnect__private.html#structSocketReconnect__T" target="_top" xlink:title="Opaque internal context for reconnecting socket management.">
<polygon fill="white" stroke="#666666" points="463.5,-225.39 357.5,-225.39 357.5,-206.39 463.5,-206.39 463.5,-225.39"/>
<text text-anchor="middle" x="410.5" y="-213.39" font-family="Helvetica,sans-Serif" font-size="10.00">SocketReconnect_T</text>
</a>
</g>
</g>
<!-- Node3&#45;&gt;Node4 -->
<g id="edge6_Node000004_Node000003" class="edge">
<title>Node3&#45;&gt;Node4</title>
<g id="a_edge6_Node000004_Node000003"><a xlink:title=" ">
<path fill="none" stroke="#9a32cd" stroke-dasharray="5,2" d="M234.91,-184C269.27,-190.28 319.63,-199.48 357.45,-206.38"/>
<polygon fill="#9a32cd" stroke="#9a32cd" points="235.26,-180.51 224.79,-182.15 234,-187.39 235.26,-180.51"/>
</a>
</g>
<text text-anchor="middle" x="303.5" y="-202.89" font-family="Helvetica,sans-Serif" font-size="10.00" fill="grey"> socket</text>
</g>
<!-- Node4&#45;&gt;Node2 -->
<g id="edge4_Node000002_Node000004" class="edge">
<title>Node4&#45;&gt;Node2</title>
<g id="a_edge4_Node000002_Node000004"><a xlink:title=" ">
<path fill="none" stroke="#9a32cd" stroke-dasharray="5,2" d="M473.75,-215.89C516.5,-215.89 571.84,-215.89 607.99,-215.89"/>
<polygon fill="#9a32cd" stroke="#9a32cd" points="473.72,-212.39 463.72,-215.89 473.72,-219.39 473.72,-212.39"/>
</a>
</g>
<text text-anchor="middle" x="534.5" y="-218.89" font-family="Helvetica,sans-Serif" font-size="10.00" fill="grey"> reconnect</text>
</g>
<!-- Node4&#45;&gt;Node4 -->
<g id="edge7_Node000004_Node000004" class="edge">
<title>Node4&#45;&gt;Node4</title>
<g id="a_edge7_Node000004_Node000004"><a xlink:title=" ">
<path fill="none" stroke="#9a32cd" stroke-dasharray="5,2" d="M390.87,-234.95C392.18,-239.77 398.73,-243.39 410.5,-243.39 429.34,-243.39 434.79,-234.13 426.84,-225.48"/>
<polygon fill="#9a32cd" stroke="#9a32cd" points="394.19,-236.07 394.16,-225.48 387.57,-233.77 394.19,-236.07"/>
</a>
</g>
<text text-anchor="middle" x="410.5" y="-257.39" font-family="Helvetica,sans-Serif" font-size="10.00" fill="grey"> callback</text>
<text text-anchor="middle" x="410.5" y="-246.39" font-family="Helvetica,sans-Serif" font-size="10.00" fill="grey">health_check</text>
</g>
<!-- Node5 -->
<g id="Node000005" class="node">
<title>Node5</title>
<g id="a_Node000005"><a xlink:href="group__connection__mgmt.html#structSocketReconnect__Policy__T" target="_top" xlink:title="Configuration structure defining backoff policy, circuit breaker thresholds, and health check paramet...">
<polygon fill="white" stroke="#666666" points="264,-281.39 126,-281.39 126,-262.39 264,-262.39 264,-281.39"/>
<text text-anchor="middle" x="195" y="-269.39" font-family="Helvetica,sans-Serif" font-size="10.00">SocketReconnect_Policy_T</text>
</a>
</g>
</g>
<!-- Node5&#45;&gt;Node1 -->
<g id="edge21_Node000001_Node000005" class="edge">
<title>Node5&#45;&gt;Node1</title>
<g id="a_edge21_Node000001_Node000005"><a xlink:title=" ">
<path fill="none" stroke="#9a32cd" stroke-dasharray="5,2" d="M274.13,-273.15C296.38,-273.46 320.65,-273.74 343,-273.89 502.55,-274.98 542.47,-276.98 702,-273.89 741.85,-273.12 787.43,-271.24 818.79,-269.78"/>
<polygon fill="#9a32cd" stroke="#9a32cd" points="274.11,-269.65 264.06,-273.01 274.01,-276.65 274.11,-269.65"/>
</a>
</g>
<text text-anchor="middle" x="534.5" y="-278.89" font-family="Helvetica,sans-Serif" font-size="10.00" fill="grey"> reconnect_policy</text>
</g>
<!-- Node5&#45;&gt;Node4 -->
<g id="edge5_Node000004_Node000005" class="edge">
<title>Node5&#45;&gt;Node4</title>
<g id="a_edge5_Node000004_Node000005"><a xlink:title=" ">
<path fill="none" stroke="#9a32cd" stroke-dasharray="5,2" d="M242.57,-259.68C281.84,-249.38 337.25,-234.84 373.28,-225.39"/>
<polygon fill="#9a32cd" stroke="#9a32cd" points="241.49,-256.34 232.7,-262.27 243.26,-263.11 241.49,-256.34"/>
</a>
</g>
<text text-anchor="middle" x="303.5" y="-252.89" font-family="Helvetica,sans-Serif" font-size="10.00" fill="grey"> policy</text>
</g>
<!-- Node6 -->
<g id="Node000006" class="node">
<title>Node6</title>
<g id="a_Node000006"><a xlink:href="group__security.html#structSocketTLSContext__T" target="_top" xlink:title="TLS context structure for managing OpenSSL SSL_CTX with secure defaults, certificates,...">
<polygon fill="white" stroke="#666666" points="466,-341.39 355,-341.39 355,-322.39 466,-322.39 466,-341.39"/>
<text text-anchor="middle" x="410.5" y="-329.39" font-family="Helvetica,sans-Serif" font-size="10.00">SocketTLSContext_T</text>
</a>
</g>
</g>
<!-- Node6&#45;&gt;Node2 -->
<g id="edge8_Node000002_Node000006" class="edge">
<title>Node6&#45;&gt;Node2</title>
<g id="a_edge8_Node000002_Node000006"><a xlink:title=" ">
<path fill="none" stroke="#9a32cd" stroke-dasharray="5,2" d="M476.35,-333.12C507.4,-331.1 544.03,-324.69 573,-307.89 607.3,-288 631.41,-245.03 640.96,-225.69"/>
<polygon fill="#9a32cd" stroke="#9a32cd" points="475.87,-329.64 466.06,-333.65 476.22,-336.63 475.87,-329.64"/>
</a>
</g>
<text text-anchor="middle" x="534.5" y="-334.89" font-family="Helvetica,sans-Serif" font-size="10.00" fill="grey"> tls_ctx</text>
</g>
<!-- Node6&#45;&gt;Node6 -->
<g id="edge11_Node000006_Node000006" class="edge">
<title>Node6&#45;&gt;Node6</title>
<g id="a_edge11_Node000006_Node000006"><a xlink:title=" ">
<path fill="none" stroke="#9a32cd" stroke-dasharray="5,2" d="M390.87,-350.95C392.18,-355.77 398.73,-359.39 410.5,-359.39 429.34,-359.39 434.79,-350.13 426.84,-341.48"/>
<polygon fill="#9a32cd" stroke="#9a32cd" points="394.19,-352.07 394.16,-341.48 387.57,-349.77 394.19,-352.07"/>
</a>
</g>
<text text-anchor="middle" x="410.5" y="-362.39" font-family="Helvetica,sans-Serif" font-size="10.00" fill="grey"> verify_callback</text>
</g>
<!-- Node7 -->
<g id="Node000007" class="node">
<title>Node7</title>
<g id="a_Node000007"><a xlink:href="structTLSContextSNICerts.html" target="_top" xlink:title="Structure for managing SNI certificate mappings in TLS context.">
<polygon fill="white" stroke="#666666" points="250,-333.39 140,-333.39 140,-314.39 250,-314.39 250,-333.39"/>
<text text-anchor="middle" x="195" y="-321.39" font-family="Helvetica,sans-Serif" font-size="10.00">TLSContextSNICerts</text>
</a>
</g>
</g>
<!-- Node7&#45;&gt;Node6 -->
<g id="edge9_Node000006_Node000007" class="edge">
<title>Node7&#45;&gt;Node6</title>
<g id="a_edge9_Node000006_Node000007"><a xlink:title=" ">
<path fill="none" stroke="#9a32cd" stroke-dasharray="5,2" d="M260.53,-325.69C281.13,-326.32 304.03,-327.07 325,-327.89 334.69,-328.27 344.99,-328.72 354.96,-329.18"/>
<polygon fill="#9a32cd" stroke="#9a32cd" points="260.4,-322.18 250.3,-325.38 260.19,-329.18 260.4,-322.18"/>
</a>
</g>
<text text-anchor="middle" x="303.5" y="-330.89" font-family="Helvetica,sans-Serif" font-size="10.00" fill="grey"> sni_certs</text>
</g>
<!-- Node8 -->
<g id="Node000008" class="node">
<title>Node8</title>
<g id="a_Node000008"><a xlink:href="group__security.html#structTLSContextALPN" target="_top" xlink:title="Configuration for ALPN protocol negotiation.">
<polygon fill="white" stroke="#666666" points="242.5,-407.39 147.5,-407.39 147.5,-388.39 242.5,-388.39 242.5,-407.39"/>
<text text-anchor="middle" x="195" y="-395.39" font-family="Helvetica,sans-Serif" font-size="10.00">TLSContextALPN</text>
</a>
</g>
</g>
<!-- Node8&#45;&gt;Node6 -->
<g id="edge10_Node000006_Node000008" class="edge">
<title>Node8&#45;&gt;Node6</title>
<g id="a_edge10_Node000006_Node000008"><a xlink:title=" ">
<path fill="none" stroke="#9a32cd" stroke-dasharray="5,2" d="M248.59,-385.98C272.15,-380.25 300.16,-372.89 325,-364.89 346.44,-357.99 370.29,-348.5 387.17,-341.47"/>
<polygon fill="#9a32cd" stroke="#9a32cd" points="247.69,-382.59 238.79,-388.33 249.33,-389.4 247.69,-382.59"/>
</a>
</g>
<text text-anchor="middle" x="303.5" y="-380.89" font-family="Helvetica,sans-Serif" font-size="10.00" fill="grey"> alpn</text>
</g>
<!-- Node9 -->
<g id="Node000009" class="node">
<title>Node9</title>
<g id="a_Node000009"><a xlink:href="group__security.html#structTLSContextPinning" target="_top" xlink:title="TLSContextPinning &#45; Certificate pinning configuration.">
<polygon fill="white" stroke="#666666" points="245.5,-370.39 144.5,-370.39 144.5,-351.39 245.5,-351.39 245.5,-370.39"/>
<text text-anchor="middle" x="195" y="-358.39" font-family="Helvetica,sans-Serif" font-size="10.00">TLSContextPinning</text>
</a>
</g>
</g>
<!-- Node9&#45;&gt;Node6 -->
<g id="edge12_Node000006_Node000009" class="edge">
<title>Node9&#45;&gt;Node6</title>
<g id="a_edge12_Node000006_Node000009"><a xlink:title=" ">
<path fill="none" stroke="#9a32cd" stroke-dasharray="5,2" d="M255.76,-352.78C286.76,-348.57 324.36,-343.46 354.62,-339.35"/>
<polygon fill="#9a32cd" stroke="#9a32cd" points="254.96,-349.35 245.52,-354.17 255.9,-356.29 254.96,-349.35"/>
</a>
</g>
<text text-anchor="middle" x="303.5" y="-352.89" font-family="Helvetica,sans-Serif" font-size="10.00" fill="grey"> pinning</text>
</g>
<!-- Node10 -->
<g id="Node000010" class="node">
<title>Node10</title>
<g id="a_Node000010"><a xlink:href="group__security.html#structTLSCertPin" target="_top" xlink:title="TLSCertPin &#45; Single certificate pin entry (SPKI SHA256 hash)">
<polygon fill="white" stroke="#666666" points="68,-370.39 0,-370.39 0,-351.39 68,-351.39 68,-370.39"/>
<text text-anchor="middle" x="34" y="-358.39" font-family="Helvetica,sans-Serif" font-size="10.00">TLSCertPin</text>
</a>
</g>
</g>
<!-- Node10&#45;&gt;Node9 -->
<g id="edge13_Node000009_Node000010" class="edge">
<title>Node10&#45;&gt;Node9</title>
<g id="a_edge13_Node000009_Node000010"><a xlink:title=" ">
<path fill="none" stroke="#9a32cd" stroke-dasharray="5,2" d="M78.59,-360.89C98.96,-360.89 123.32,-360.89 144.4,-360.89"/>
<polygon fill="#9a32cd" stroke="#9a32cd" points="78.33,-357.39 68.33,-360.89 78.33,-364.39 78.33,-357.39"/>
</a>
</g>
<text text-anchor="middle" x="97" y="-363.89" font-family="Helvetica,sans-Serif" font-size="10.00" fill="grey"> pins</text>
</g>
<!-- Node11 -->
<g id="Node000011" class="node">
<title>Node11</title>
<g id="a_Node000011"><a xlink:href="group__dns.html#structSocketDNS__T" target="_top" xlink:title="Async DNS resolver structure.">
<polygon fill="white" stroke="#666666" points="686.5,-67.39 606.5,-67.39 606.5,-48.39 686.5,-48.39 686.5,-67.39"/>
<text text-anchor="middle" x="646.5" y="-55.39" font-family="Helvetica,sans-Serif" font-size="10.00">SocketDNS_T</text>
</a>
</g>
</g>
<!-- Node11&#45;&gt;Node1 -->
<g id="edge15_Node000001_Node000011" class="edge">
<title>Node11&#45;&gt;Node1</title>
<g id="a_edge15_Node000001_Node000011"><a xlink:title=" ">
<path fill="none" stroke="#9a32cd" stroke-dasharray="5,2" d="M696.72,-66.42C723.68,-73.23 756.16,-85.2 779,-105.89 827.58,-149.9 848.95,-230.72 855.06,-258.34"/>
<polygon fill="#9a32cd" stroke="#9a32cd" points="697.23,-62.94 686.69,-64.06 695.62,-69.76 697.23,-62.94"/>
</a>
</g>
<text text-anchor="middle" x="749.5" y="-108.89" font-family="Helvetica,sans-Serif" font-size="10.00" fill="grey"> dns</text>
</g>
<!-- Node12 -->
<g id="Node000012" class="node">
<title>Node12</title>
<g id="a_Node000012"><a xlink:href="group__dns.html#structSocketDNS__Request__T" target="_top" xlink:title="DNS resolution request structure.">
<polygon fill="white" stroke="#666666" points="919,-41.39 797,-41.39 797,-22.39 919,-22.39 919,-41.39"/>
<text text-anchor="middle" x="858" y="-29.39" font-family="Helvetica,sans-Serif" font-size="10.00">SocketDNS_Request_T</text>
</a>
</g>
</g>
<!-- Node11&#45;&gt;Node12 -->
<g id="edge18_Node000012_Node000011" class="edge">
<title>Node11&#45;&gt;Node12</title>
<g id="a_edge18_Node000012_Node000011"><a xlink:title=" ">
<path fill="none" stroke="#9a32cd" stroke-dasharray="5,2" d="M697.09,-51.74C726.95,-48.03 765.16,-43.29 796.75,-39.37"/>
<polygon fill="#9a32cd" stroke="#9a32cd" points="696.4,-48.3 686.91,-53 697.26,-55.24 696.4,-48.3"/>
</a>
</g>
<text text-anchor="middle" x="749.5" y="-51.89" font-family="Helvetica,sans-Serif" font-size="10.00" fill="grey"> dns_resolver</text>
</g>
<!-- Node12&#45;&gt;Node11 -->
<g id="edge16_Node000011_Node000012" class="edge">
<title>Node12&#45;&gt;Node11</title>
<g id="a_edge16_Node000011_Node000012"><a xlink:title=" ">
<path fill="none" stroke="#9a32cd" stroke-dasharray="5,2" d="M829.27,-18.3C801.24,-6.43 756.9,7.16 720,-4.89 693.91,-13.41 669.43,-35.27 656.67,-48.1"/>
<polygon fill="#9a32cd" stroke="#9a32cd" points="827.91,-21.52 838.47,-22.38 830.75,-15.12 827.91,-21.52"/>
</a>
</g>
<text text-anchor="middle" x="749.5" y="-29.89" font-family="Helvetica,sans-Serif" font-size="10.00" fill="grey"> queue_head</text>
<text text-anchor="middle" x="749.5" y="-18.89" font-family="Helvetica,sans-Serif" font-size="10.00" fill="grey">queue_tail</text>
<text text-anchor="middle" x="749.5" y="-7.89" font-family="Helvetica,sans-Serif" font-size="10.00" fill="grey">request_hash</text>
</g>
<!-- Node12&#45;&gt;Node12 -->
<g id="edge17_Node000012_Node000012" class="edge">
<title>Node12&#45;&gt;Node12</title>
<g id="a_edge17_Node000012_Node000012"><a xlink:title=" ">
<path fill="none" stroke="#9a32cd" stroke-dasharray="5,2" d="M838,-50.95C839.34,-55.77 846,-59.39 858,-59.39 877.2,-59.39 882.74,-50.13 874.65,-41.48"/>
<polygon fill="#9a32cd" stroke="#9a32cd" points="841.32,-52.07 841.35,-41.48 834.72,-49.73 841.32,-52.07"/>
</a>
</g>
<text text-anchor="middle" x="858" y="-84.39" font-family="Helvetica,sans-Serif" font-size="10.00" fill="grey"> callback</text>
<text text-anchor="middle" x="858" y="-73.39" font-family="Helvetica,sans-Serif" font-size="10.00" fill="grey">hash_next</text>
<text text-anchor="middle" x="858" y="-62.39" font-family="Helvetica,sans-Serif" font-size="10.00" fill="grey">queue_next</text>
</g>
<!-- Node13 -->
<g id="Node000013" class="node">
<title>Node13</title>
<g id="a_Node000013"><a xlink:href="group__dns.html#structSocketDNS__CacheEntry" target="_top" xlink:title="DNS cache entry structure.">
<polygon fill="white" stroke="#666666" points="473.5,-51.39 347.5,-51.39 347.5,-32.39 473.5,-32.39 473.5,-51.39"/>
<text text-anchor="middle" x="410.5" y="-39.39" font-family="Helvetica,sans-Serif" font-size="10.00">SocketDNS_CacheEntry</text>
</a>
</g>
</g>
<!-- Node13&#45;&gt;Node11 -->
<g id="edge19_Node000011_Node000013" class="edge">
<title>Node13&#45;&gt;Node11</title>
<g id="a_edge19_Node000011_Node000013"><a xlink:title=" ">
<path fill="none" stroke="#9a32cd" stroke-dasharray="5,2" d="M483.67,-46.83C524.09,-49.59 572.91,-52.93 606.29,-55.21"/>
<polygon fill="#9a32cd" stroke="#9a32cd" points="483.81,-43.33 473.59,-46.14 483.33,-50.31 483.81,-43.33"/>
</a>
</g>
<text text-anchor="middle" x="534.5" y="-77.89" font-family="Helvetica,sans-Serif" font-size="10.00" fill="grey"> cache_hash</text>
<text text-anchor="middle" x="534.5" y="-66.89" font-family="Helvetica,sans-Serif" font-size="10.00" fill="grey">cache_lru_head</text>
<text text-anchor="middle" x="534.5" y="-55.89" font-family="Helvetica,sans-Serif" font-size="10.00" fill="grey">cache_lru_tail</text>
</g>
<!-- Node13&#45;&gt;Node13 -->
<g id="edge20_Node000013_Node000013" class="edge">
<title>Node13&#45;&gt;Node13</title>
<g id="a_edge20_Node000013_Node000013"><a xlink:title=" ">
<path fill="none" stroke="#9a32cd" stroke-dasharray="5,2" d="M390.87,-60.95C392.18,-65.77 398.73,-69.39 410.5,-69.39 429.34,-69.39 434.79,-60.13 426.84,-51.48"/>
<polygon fill="#9a32cd" stroke="#9a32cd" points="394.19,-62.07 394.16,-51.48 387.57,-59.77 394.19,-62.07"/>
</a>
</g>
<text text-anchor="middle" x="410.5" y="-94.39" font-family="Helvetica,sans-Serif" font-size="10.00" fill="grey"> hash_next</text>
<text text-anchor="middle" x="410.5" y="-83.39" font-family="Helvetica,sans-Serif" font-size="10.00" fill="grey">lru_next</text>
<text text-anchor="middle" x="410.5" y="-72.39" font-family="Helvetica,sans-Serif" font-size="10.00" fill="grey">lru_prev</text>
</g>
<!-- Node14 -->
<g id="Node000014" class="node">
<title>Node14</title>
<g id="a_Node000014"><a xlink:href="group__utilities.html#structSocketRateLimit__T" target="_top" xlink:title="Internal structure implementing the token bucket rate limiter.">
<polygon fill="white" stroke="#666666" points="461,-664.39 360,-664.39 360,-645.39 461,-645.39 461,-664.39"/>
<text text-anchor="middle" x="410.5" y="-652.39" font-family="Helvetica,sans-Serif" font-size="10.00">SocketRateLimit_T</text>
</a>
</g>
</g>
<!-- Node14&#45;&gt;Node1 -->
<g id="edge22_Node000001_Node000014" class="edge">
<title>Node14&#45;&gt;Node1</title>
<g id="a_edge22_Node000001_Node000014"><a xlink:title=" ">
<path fill="none" stroke="#9a32cd" stroke-dasharray="5,2" d="M471.58,-655.8C502.99,-654.25 541.38,-649.06 573,-634.89 689.45,-582.71 708.99,-541.58 779,-434.89 815.52,-379.25 844.19,-303.78 853.65,-277.44"/>
<polygon fill="#9a32cd" stroke="#9a32cd" points="471.07,-652.32 461.21,-656.2 471.34,-659.31 471.07,-652.32"/>
</a>
</g>
<text text-anchor="middle" x="646.5" y="-628.89" font-family="Helvetica,sans-Serif" font-size="10.00" fill="grey"> conn_limiter</text>
</g>
<!-- Node15 -->
<g id="Node000015" class="node">
<title>Node15</title>
<g id="a_Node000015"><a xlink:href="group__security.html#structSocketSYNProtect__T" target="_top" xlink:title="Core internal structure for the SYN protection module.">
<polygon fill="white" stroke="#666666" points="702,-512.39 591,-512.39 591,-493.39 702,-493.39 702,-512.39"/>
<text text-anchor="middle" x="646.5" y="-500.39" font-family="Helvetica,sans-Serif" font-size="10.00">SocketSYNProtect_T</text>
</a>
</g>
</g>
<!-- Node14&#45;&gt;Node15 -->
<g id="edge32_Node000015_Node000014" class="edge">
<title>Node14&#45;&gt;Node15</title>
<g id="a_edge32_Node000015_Node000014"><a xlink:title=" ">
<path fill="none" stroke="#9a32cd" stroke-dasharray="5,2" d="M465.26,-642.17C469.64,-640.58 473.94,-638.83 478,-636.89 486.91,-632.65 487.73,-629.28 496,-623.89 529.22,-602.26 541.9,-603.47 573,-578.89 599.32,-558.09 625.26,-527.93 637.77,-512.61"/>
<polygon fill="#9a32cd" stroke="#9a32cd" points="463.99,-638.9 455.6,-645.37 466.19,-645.55 463.99,-638.9"/>
</a>
</g>
<text text-anchor="middle" x="534.5" y="-626.89" font-family="Helvetica,sans-Serif" font-size="10.00" fill="grey"> global_limiter</text>
</g>
<!-- Node15&#45;&gt;Node1 -->
<g id="edge23_Node000001_Node000015" class="edge">
<title>Node15&#45;&gt;Node1</title>
<g id="a_edge23_Node000001_Node000015"><a xlink:title=" ">
<path fill="none" stroke="#9a32cd" stroke-dasharray="5,2" d="M662.81,-485.72C704.04,-439.47 816.46,-313.36 848.42,-277.51"/>
<polygon fill="#9a32cd" stroke="#9a32cd" points="660.01,-483.6 655.97,-493.39 665.24,-488.25 660.01,-483.6"/>
</a>
</g>
<text text-anchor="middle" x="749.5" y="-422.89" font-family="Helvetica,sans-Serif" font-size="10.00" fill="grey"> syn_protect</text>
</g>
<!-- Node16 -->
<g id="Node000016" class="node">
<title>Node16</title>
<g id="a_Node000016"><a xlink:href="group__security.html#structSocketSYNProtect__Config" target="_top" xlink:title="Configuration parameters for SYN flood protection.">
<polygon fill="white" stroke="#666666" points="477.5,-495.39 343.5,-495.39 343.5,-476.39 477.5,-476.39 477.5,-495.39"/>
<text text-anchor="middle" x="410.5" y="-483.39" font-family="Helvetica,sans-Serif" font-size="10.00">SocketSYNProtect_Config</text>
</a>
</g>
</g>
<!-- Node16&#45;&gt;Node15 -->
<g id="edge24_Node000015_Node000016" class="edge">
<title>Node16&#45;&gt;Node15</title>
<g id="a_edge24_Node000015_Node000016"><a xlink:title=" ">
<path fill="none" stroke="#9a32cd" stroke-dasharray="5,2" d="M487.83,-483.84C514.81,-483.91 545.32,-484.89 573,-487.89 583.86,-489.07 595.5,-491.12 606.21,-493.34"/>
<polygon fill="#9a32cd" stroke="#9a32cd" points="487.67,-480.34 477.68,-483.86 487.68,-487.34 487.67,-480.34"/>
</a>
</g>
<text text-anchor="middle" x="534.5" y="-490.89" font-family="Helvetica,sans-Serif" font-size="10.00" fill="grey"> config</text>
</g>
<!-- Node17 -->
<g id="Node000017" class="node">
<title>Node17</title>
<g id="a_Node000017"><a xlink:href="group__security.html#structSocketSYN__IPEntry" target="_top" xlink:title="Internal IP tracking entry for hash table and LRU management.">
<polygon fill="white" stroke="#666666" points="464,-407.39 357,-407.39 357,-388.39 464,-388.39 464,-407.39"/>
<text text-anchor="middle" x="410.5" y="-395.39" font-family="Helvetica,sans-Serif" font-size="10.00">SocketSYN_IPEntry</text>
</a>
</g>
</g>
<!-- Node17&#45;&gt;Node15 -->
<g id="edge25_Node000015_Node000017" class="edge">
<title>Node17&#45;&gt;Node15</title>
<g id="a_edge25_Node000015_Node000017"><a xlink:title=" ">
<path fill="none" stroke="#9a32cd" stroke-dasharray="5,2" d="M468.85,-409.9C500.63,-417.86 540.22,-429.99 573,-446.89 597.6,-459.58 622.25,-480.89 635.52,-493.24"/>
<polygon fill="#9a32cd" stroke="#9a32cd" points="469.37,-406.42 458.83,-407.46 467.72,-413.23 469.37,-406.42"/>
</a>
</g>
<text text-anchor="middle" x="534.5" y="-471.89" font-family="Helvetica,sans-Serif" font-size="10.00" fill="grey"> ip_table</text>
<text text-anchor="middle" x="534.5" y="-460.89" font-family="Helvetica,sans-Serif" font-size="10.00" fill="grey">lru_head</text>
<text text-anchor="middle" x="534.5" y="-449.89" font-family="Helvetica,sans-Serif" font-size="10.00" fill="grey">lru_tail</text>
</g>
<!-- Node17&#45;&gt;Node17 -->
<g id="edge27_Node000017_Node000017" class="edge">
<title>Node17&#45;&gt;Node17</title>
<g id="a_edge27_Node000017_Node000017"><a xlink:title=" ">
<path fill="none" stroke="#9a32cd" stroke-dasharray="5,2" d="M390.87,-416.95C392.18,-421.77 398.73,-425.39 410.5,-425.39 429.34,-425.39 434.79,-416.13 426.84,-407.48"/>
<polygon fill="#9a32cd" stroke="#9a32cd" points="394.19,-418.07 394.16,-407.48 387.57,-415.77 394.19,-418.07"/>
</a>
</g>
<text text-anchor="middle" x="410.5" y="-450.39" font-family="Helvetica,sans-Serif" font-size="10.00" fill="grey"> hash_next</text>
<text text-anchor="middle" x="410.5" y="-439.39" font-family="Helvetica,sans-Serif" font-size="10.00" fill="grey">lru_next</text>
<text text-anchor="middle" x="410.5" y="-428.39" font-family="Helvetica,sans-Serif" font-size="10.00" fill="grey">lru_prev</text>
</g>
<!-- Node18 -->
<g id="Node000018" class="node">
<title>Node18</title>
<g id="a_Node000018"><a xlink:href="group__security.html#structSocketSYN__IPState" target="_top" xlink:title="Per&#45;IP address tracking and reputation state.">
<polygon fill="white" stroke="#666666" points="248.5,-444.39 141.5,-444.39 141.5,-425.39 248.5,-425.39 248.5,-444.39"/>
<text text-anchor="middle" x="195" y="-432.39" font-family="Helvetica,sans-Serif" font-size="10.00">SocketSYN_IPState</text>
</a>
</g>
</g>
<!-- Node18&#45;&gt;Node17 -->
<g id="edge26_Node000017_Node000018" class="edge">
<title>Node18&#45;&gt;Node17</title>
<g id="a_edge26_Node000017_Node000018"><a xlink:title=" ">
<path fill="none" stroke="#9a32cd" stroke-dasharray="5,2" d="M258.84,-424.26C279.88,-420.68 303.46,-416.64 325,-412.89 335.28,-411.1 346.25,-409.17 356.77,-407.31"/>
<polygon fill="#9a32cd" stroke="#9a32cd" points="258.01,-420.86 248.74,-425.98 259.18,-427.76 258.01,-420.86"/>
</a>
</g>
<text text-anchor="middle" x="303.5" y="-422.89" font-family="Helvetica,sans-Serif" font-size="10.00" fill="grey"> state</text>
</g>
<!-- Node19 -->
<g id="Node000019" class="node">
<title>Node19</title>
<g id="a_Node000019"><a xlink:href="group__security.html#structSocketSYN__WhitelistEntry" target="_top" xlink:title="Structure for whitelist entries supporting single IPs and CIDR ranges.">
<polygon fill="white" stroke="#666666" points="478,-598.39 343,-598.39 343,-579.39 478,-579.39 478,-598.39"/>
<text text-anchor="middle" x="410.5" y="-586.39" font-family="Helvetica,sans-Serif" font-size="10.00">SocketSYN_WhitelistEntry</text>
</a>
</g>
</g>
<!-- Node19&#45;&gt;Node15 -->
<g id="edge28_Node000015_Node000019" class="edge">
<title>Node19&#45;&gt;Node15</title>
<g id="a_edge28_Node000015_Node000019"><a xlink:title=" ">
<path fill="none" stroke="#9a32cd" stroke-dasharray="5,2" d="M459.71,-576.59C465.9,-574.79 472.12,-572.87 478,-570.89 531.68,-552.8 592.94,-526.42 624.39,-512.43"/>
<polygon fill="#9a32cd" stroke="#9a32cd" points="458.74,-573.22 450.07,-579.3 460.64,-579.96 458.74,-573.22"/>
</a>
</g>
<text text-anchor="middle" x="534.5" y="-566.89" font-family="Helvetica,sans-Serif" font-size="10.00" fill="grey"> whitelist_table</text>
</g>
<!-- Node19&#45;&gt;Node19 -->
<g id="edge29_Node000019_Node000019" class="edge">
<title>Node19&#45;&gt;Node19</title>
<g id="a_edge29_Node000019_Node000019"><a xlink:title=" ">
<path fill="none" stroke="#9a32cd" stroke-dasharray="5,2" d="M390.87,-607.95C392.18,-612.77 398.73,-616.39 410.5,-616.39 429.34,-616.39 434.79,-607.13 426.84,-598.48"/>
<polygon fill="#9a32cd" stroke="#9a32cd" points="394.19,-609.07 394.16,-598.48 387.57,-606.77 394.19,-609.07"/>
</a>
</g>
<text text-anchor="middle" x="410.5" y="-619.39" font-family="Helvetica,sans-Serif" font-size="10.00" fill="grey"> next</text>
</g>
<!-- Node20 -->
<g id="Node000020" class="node">
<title>Node20</title>
<g id="a_Node000020"><a xlink:href="group__security.html#structSocketSYN__BlacklistEntry" target="_top" xlink:title="Internal structure for blacklisted IP addresses with expiry support.">
<polygon fill="white" stroke="#666666" points="477.5,-532.39 343.5,-532.39 343.5,-513.39 477.5,-513.39 477.5,-532.39"/>
<text text-anchor="middle" x="410.5" y="-520.39" font-family="Helvetica,sans-Serif" font-size="10.00">SocketSYN_BlacklistEntry</text>
</a>
</g>
</g>
<!-- Node20&#45;&gt;Node15 -->
<g id="edge30_Node000015_Node000020" class="edge">
<title>Node20&#45;&gt;Node15</title>
<g id="a_edge30_Node000015_Node000020"><a xlink:title=" ">
<path fill="none" stroke="#9a32cd" stroke-dasharray="5,2" d="M487.88,-516.36C521.54,-513.49 560.32,-510.17 590.99,-507.55"/>
<polygon fill="#9a32cd" stroke="#9a32cd" points="487.28,-512.9 477.62,-517.24 487.88,-519.88 487.28,-512.9"/>
</a>
</g>
<text text-anchor="middle" x="534.5" y="-517.89" font-family="Helvetica,sans-Serif" font-size="10.00" fill="grey"> blacklist_table</text>
</g>
<!-- Node20&#45;&gt;Node20 -->
<g id="edge31_Node000020_Node000020" class="edge">
<title>Node20&#45;&gt;Node20</title>
<g id="a_edge31_Node000020_Node000020"><a xlink:title=" ">
<path fill="none" stroke="#9a32cd" stroke-dasharray="5,2" d="M390.87,-541.95C392.18,-546.77 398.73,-550.39 410.5,-550.39 429.34,-550.39 434.79,-541.13 426.84,-532.48"/>
<polygon fill="#9a32cd" stroke="#9a32cd" points="394.19,-543.07 394.16,-532.48 387.57,-540.77 394.19,-543.07"/>
</a>
</g>
<text text-anchor="middle" x="410.5" y="-553.39" font-family="Helvetica,sans-Serif" font-size="10.00" fill="grey"> next</text>
</g>
</g>
</svg>
