<?xml version="1.0" encoding="UTF-8" standalone="no"?>
<!DOCTYPE svg PUBLIC "-//W3C//DTD SVG 1.1//EN"
 "http://www.w3.org/Graphics/SVG/1.1/DTD/svg11.dtd">
<!-- Generated by graphviz version 2.43.0 (0)
 -->
<!-- Title: SocketProxy_Conn_T Pages: 1 -->
<!--zoomable 561 -->

<svg id="main" version="1.1" xmlns="http://www.w3.org/2000/svg" xmlns:xlink="http://www.w3.org/1999/xlink" xml:space="preserve" onload="init(evt)">
<style type="text/css"><![CDATA[
.node, .edge {opacity: 0.7;}
.node.selected, .edge.selected {opacity: 1;}
.edge:hover path { stroke: red; }
.edge:hover polygon { stroke: red; fill: red; }
]]></style>

<defs>
  <circle id="rim" cx="0" cy="0" r="7"/>
  <circle id="rim2" cx="0" cy="0" r="3.5"/>
  <g id="zoomPlus">
    <use xlink:href="#rim" fill="#404040"><set attributeName="fill" to="#808080" begin="zoomplus.mouseover" end="zoomplus.mouseout"/></use>
    <path d="M-4,0h8M0,-4v8" fill="none" stroke="white" stroke-width="1.5" pointer-events="none"/>
  </g>
  <g id="zoomMin">
    <use xlink:href="#rim" fill="#404040"><set attributeName="fill" to="#808080" begin="zoomminus.mouseover" end="zoomminus.mouseout"/></use>
    <path d="M-4,0h8" fill="none" stroke="white" stroke-width="1.5" pointer-events="none"/>
  </g>
  <g id="arrowUp" transform="translate(30 24)">
    <use xlink:href="#rim"/>
    <path pointer-events="none" fill="none" stroke="white" stroke-width="1.5" d="M0,-3.0v7 M-2.5,-0.5L0,-3.0L2.5,-0.5"/>
  </g>
  <g id="arrowRight" transform="rotate(90) translate(36 -43)">
    <use xlink:href="#rim"/>
    <path pointer-events="none" fill="none" stroke="white" stroke-width="1.5" d="M0,-3.0v7 M-2.5,-0.5L0,-3.0L2.5,-0.5"/>
  </g>
  <g id="arrowDown" transform="rotate(180) translate(-30 -48)">
    <use xlink:href="#rim"/>
    <path pointer-events="none" fill="none" stroke="white" stroke-width="1.5" d="M0,-3.0v7 M-2.5,-0.5L0,-3.0L2.5,-0.5"/>
  </g>
  <g id="arrowLeft" transform="rotate(270) translate(-36 17)">
    <use xlink:href="#rim"/>
    <path pointer-events="none" fill="none" stroke="white" stroke-width="1.5" d="M0,-3.0v7 M-2.5,-0.5L0,-3.0L2.5,-0.5"/>
  </g>
  <g id="resetDef">
    <use xlink:href="#rim2" fill="#404040"><set attributeName="fill" to="#808080" begin="reset.mouseover" end="reset.mouseout"/></use>
  </g>
</defs>
<script type="application/ecmascript">
var viewWidth = 1392;
var viewHeight = 561;
var sectionId = 'dynsection-2';
</script>
<script type="application/ecmascript" xlink:href="svg.min.js"/>
<svg id="graph" class="graph">
<g id="viewport">
<title>SocketProxy_Conn_T</title>
<!-- Node1 -->
<g id="Node000001" class="node">
<title>Node1</title>
<g id="a_Node000001"><a xlink:title="Opaque proxy connection context for managing tunneling negotiation.">
<polygon fill="#999999" stroke="#666666" points="1384,-300.68 1271,-300.68 1271,-281.68 1384,-281.68 1384,-300.68"/>
<text text-anchor="middle" x="1327.5" y="-288.68" font-family="Helvetica,sans-Serif" font-size="10.00">SocketProxy_Conn_T</text>
</a>
</g>
</g>
<!-- Node2 -->
<g id="Node000002" class="node">
<title>Node2</title>
<g id="a_Node000002"><a xlink:href="group__security.html#structSocketTLSContext__T" target="_top" xlink:title="TLS context structure for managing OpenSSL SSL_CTX with secure defaults, certificates,...">
<polygon fill="white" stroke="#666666" points="1202,-496.68 1091,-496.68 1091,-477.68 1202,-477.68 1202,-496.68"/>
<text text-anchor="middle" x="1146.5" y="-484.68" font-family="Helvetica,sans-Serif" font-size="10.00">SocketTLSContext_T</text>
</a>
</g>
</g>
<!-- Node2&#45;&gt;Node1 -->
<g id="edge1_Node000001_Node000002" class="edge">
<title>Node2&#45;&gt;Node1</title>
<g id="a_edge1_Node000001_Node000002"><a xlink:title=" ">
<path fill="none" stroke="#9a32cd" stroke-dasharray="5,2" d="M1201,-474.49C1219.19,-468.08 1238.54,-458.71 1253,-445.18 1298,-403.07 1318.39,-327.72 1324.46,-300.95"/>
<polygon fill="#9a32cd" stroke="#9a32cd" points="1199.76,-471.21 1191.35,-477.66 1201.94,-477.86 1199.76,-471.21"/>
</a>
</g>
<text text-anchor="middle" x="1236.5" y="-468.18" font-family="Helvetica,sans-Serif" font-size="10.00" fill="grey"> tls_ctx</text>
</g>
<!-- Node2&#45;&gt;Node2 -->
<g id="edge4_Node000002_Node000002" class="edge">
<title>Node2&#45;&gt;Node2</title>
<g id="a_edge4_Node000002_Node000002"><a xlink:title=" ">
<path fill="none" stroke="#9a32cd" stroke-dasharray="5,2" d="M1129.93,-506.59C1131.23,-511.23 1136.75,-514.68 1146.5,-514.68 1162.5,-514.68 1167.12,-505.41 1160.37,-496.76"/>
<polygon fill="#9a32cd" stroke="#9a32cd" points="1133.35,-507.33 1132.63,-496.76 1126.6,-505.47 1133.35,-507.33"/>
</a>
</g>
<text text-anchor="middle" x="1146.5" y="-517.68" font-family="Helvetica,sans-Serif" font-size="10.00" fill="grey"> verify_callback</text>
</g>
<!-- Node3 -->
<g id="Node000003" class="node">
<title>Node3</title>
<g id="a_Node000003"><a xlink:href="structTLSContextSNICerts.html" target="_top" xlink:title="Structure for managing SNI certificate mappings in TLS context.">
<polygon fill="white" stroke="#666666" points="992,-478.68 882,-478.68 882,-459.68 992,-459.68 992,-478.68"/>
<text text-anchor="middle" x="937" y="-466.68" font-family="Helvetica,sans-Serif" font-size="10.00">TLSContextSNICerts</text>
</a>
</g>
</g>
<!-- Node3&#45;&gt;Node2 -->
<g id="edge2_Node000002_Node000003" class="edge">
<title>Node3&#45;&gt;Node2</title>
<g id="a_edge2_Node000002_Node000003"><a xlink:title=" ">
<path fill="none" stroke="#9a32cd" stroke-dasharray="5,2" d="M1002.12,-468.22C1024.6,-468.52 1049.97,-469.56 1073,-472.18 1083.73,-473.39 1095.22,-475.43 1105.82,-477.61"/>
<polygon fill="#9a32cd" stroke="#9a32cd" points="1002.05,-464.72 992.02,-468.14 1001.99,-471.72 1002.05,-464.72"/>
</a>
</g>
<text text-anchor="middle" x="1044.5" y="-475.18" font-family="Helvetica,sans-Serif" font-size="10.00" fill="grey"> sni_certs</text>
</g>
<!-- Node4 -->
<g id="Node000004" class="node">
<title>Node4</title>
<g id="a_Node000004"><a xlink:href="group__security.html#structTLSContextALPN" target="_top" xlink:title="Configuration for ALPN protocol negotiation.">
<polygon fill="white" stroke="#666666" points="984.5,-552.68 889.5,-552.68 889.5,-533.68 984.5,-533.68 984.5,-552.68"/>
<text text-anchor="middle" x="937" y="-540.68" font-family="Helvetica,sans-Serif" font-size="10.00">TLSContextALPN</text>
</a>
</g>
</g>
<!-- Node4&#45;&gt;Node2 -->
<g id="edge3_Node000002_Node000004" class="edge">
<title>Node4&#45;&gt;Node2</title>
<g id="a_edge3_Node000002_Node000004"><a xlink:title=" ">
<path fill="none" stroke="#9a32cd" stroke-dasharray="5,2" d="M994.4,-532.29C1018.75,-527.17 1047.46,-520.56 1073,-513.18 1089.31,-508.46 1107.28,-502.02 1121.25,-496.73"/>
<polygon fill="#9a32cd" stroke="#9a32cd" points="993.68,-528.87 984.6,-534.33 995.1,-535.72 993.68,-528.87"/>
</a>
</g>
<text text-anchor="middle" x="1044.5" y="-530.18" font-family="Helvetica,sans-Serif" font-size="10.00" fill="grey"> alpn</text>
</g>
<!-- Node5 -->
<g id="Node000005" class="node">
<title>Node5</title>
<g id="a_Node000005"><a xlink:href="group__security.html#structTLSContextPinning" target="_top" xlink:title="TLSContextPinning &#45; Certificate pinning configuration.">
<polygon fill="white" stroke="#666666" points="987.5,-515.68 886.5,-515.68 886.5,-496.68 987.5,-496.68 987.5,-515.68"/>
<text text-anchor="middle" x="937" y="-503.68" font-family="Helvetica,sans-Serif" font-size="10.00">TLSContextPinning</text>
</a>
</g>
</g>
<!-- Node5&#45;&gt;Node2 -->
<g id="edge5_Node000002_Node000005" class="edge">
<title>Node5&#45;&gt;Node2</title>
<g id="a_edge5_Node000002_Node000005"><a xlink:title=" ">
<path fill="none" stroke="#9a32cd" stroke-dasharray="5,2" d="M997.81,-500.7C1027.11,-498.02 1062.14,-494.81 1090.73,-492.19"/>
<polygon fill="#9a32cd" stroke="#9a32cd" points="997.34,-497.23 987.7,-501.62 997.98,-504.2 997.34,-497.23"/>
</a>
</g>
<text text-anchor="middle" x="1044.5" y="-501.18" font-family="Helvetica,sans-Serif" font-size="10.00" fill="grey"> pinning</text>
</g>
<!-- Node6 -->
<g id="Node000006" class="node">
<title>Node6</title>
<g id="a_Node000006"><a xlink:href="group__security.html#structTLSCertPin" target="_top" xlink:title="TLSCertPin &#45; Single certificate pin entry (SPKI SHA256 hash)">
<polygon fill="white" stroke="#666666" points="760,-515.68 692,-515.68 692,-496.68 760,-496.68 760,-515.68"/>
<text text-anchor="middle" x="726" y="-503.68" font-family="Helvetica,sans-Serif" font-size="10.00">TLSCertPin</text>
</a>
</g>
</g>
<!-- Node6&#45;&gt;Node5 -->
<g id="edge6_Node000005_Node000006" class="edge">
<title>Node6&#45;&gt;Node5</title>
<g id="a_edge6_Node000005_Node000006"><a xlink:title=" ">
<path fill="none" stroke="#9a32cd" stroke-dasharray="5,2" d="M770.15,-506.18C803.92,-506.18 850.94,-506.18 886.3,-506.18"/>
<polygon fill="#9a32cd" stroke="#9a32cd" points="770.12,-502.68 760.12,-506.18 770.12,-509.68 770.12,-502.68"/>
</a>
</g>
<text text-anchor="middle" x="828.5" y="-509.18" font-family="Helvetica,sans-Serif" font-size="10.00" fill="grey"> pins</text>
</g>
<!-- Node7 -->
<g id="Node000007" class="node">
<title>Node7</title>
<g id="a_Node000007"><a xlink:title=" ">
<polygon fill="white" stroke="#666666" points="399,-279.68 340,-279.68 340,-260.68 399,-260.68 399,-279.68"/>
<text text-anchor="middle" x="369.5" y="-267.68" font-family="Helvetica,sans-Serif" font-size="10.00">Socket_T</text>
</a>
</g>
</g>
<!-- Node7&#45;&gt;Node1 -->
<g id="edge7_Node000001_Node000007" class="edge">
<title>Node7&#45;&gt;Node1</title>
<g id="a_edge7_Node000001_Node000007"><a xlink:title=" ">
<path fill="none" stroke="#9a32cd" stroke-dasharray="5,2" d="M376.63,-289.3C391.65,-331.96 434.52,-431.18 508.5,-431.18 508.5,-431.18 508.5,-431.18 1147.5,-431.18 1232.32,-431.18 1300.93,-332.43 1320.72,-300.8"/>
<polygon fill="#9a32cd" stroke="#9a32cd" points="379.93,-288.12 373.41,-279.77 373.3,-290.36 379.93,-288.12"/>
</a>
</g>
<text text-anchor="middle" x="828.5" y="-434.18" font-family="Helvetica,sans-Serif" font-size="10.00" fill="grey"> socket</text>
</g>
<!-- Node14 -->
<g id="Node000014" class="node">
<title>Node14</title>
<g id="a_Node000014"><a xlink:href="group__event__system.html#structSocketEvent__T" target="_top" xlink:title="Event notification structure returned by polling operations.">
<polygon fill="white" stroke="#666666" points="653,-313.68 569,-313.68 569,-294.68 653,-294.68 653,-313.68"/>
<text text-anchor="middle" x="611" y="-301.68" font-family="Helvetica,sans-Serif" font-size="10.00">SocketEvent_T</text>
</a>
</g>
</g>
<!-- Node7&#45;&gt;Node14 -->
<g id="edge17_Node000014_Node000007" class="edge">
<title>Node7&#45;&gt;Node14</title>
<g id="a_edge17_Node000014_Node000007"><a xlink:title=" ">
<path fill="none" stroke="#9a32cd" stroke-dasharray="5,2" d="M409.39,-275.7C453.25,-281.92 524.27,-292.01 568.99,-298.35"/>
<polygon fill="#9a32cd" stroke="#9a32cd" points="409.78,-272.22 399.39,-274.28 408.8,-279.15 409.78,-272.22"/>
</a>
</g>
<text text-anchor="middle" x="433.5" y="-285.18" font-family="Helvetica,sans-Serif" font-size="10.00" fill="grey"> socket</text>
</g>
<!-- Node15 -->
<g id="Node000015" class="node">
<title>Node15</title>
<g id="a_Node000015"><a xlink:title=" ">
<polygon fill="white" stroke="#666666" points="645,-260.68 577,-260.68 577,-241.68 645,-241.68 645,-260.68"/>
<text text-anchor="middle" x="611" y="-248.68" font-family="Helvetica,sans-Serif" font-size="10.00">SocketData</text>
</a>
</g>
</g>
<!-- Node7&#45;&gt;Node15 -->
<g id="edge19_Node000015_Node000007" class="edge">
<title>Node7&#45;&gt;Node15</title>
<g id="a_edge19_Node000015_Node000007"><a xlink:title=" ">
<path fill="none" stroke="#9a32cd" stroke-dasharray="5,2" d="M407.65,-258.04C410.79,-257.31 413.94,-256.67 417,-256.18 472.6,-247.25 538.34,-247.89 576.97,-249.38"/>
<polygon fill="#9a32cd" stroke="#9a32cd" points="406.53,-254.72 397.76,-260.65 408.32,-261.49 406.53,-254.72"/>
</a>
</g>
<text text-anchor="middle" x="433.5" y="-259.18" font-family="Helvetica,sans-Serif" font-size="10.00" fill="grey"> socket</text>
</g>
<!-- Node16 -->
<g id="Node000016" class="node">
<title>Node16</title>
<g id="a_Node000016"><a xlink:title=" ">
<polygon fill="white" stroke="#666666" points="652,-207.68 570,-207.68 570,-188.68 652,-188.68 652,-207.68"/>
<text text-anchor="middle" x="611" y="-195.68" font-family="Helvetica,sans-Serif" font-size="10.00">FdSocketEntry</text>
</a>
</g>
</g>
<!-- Node7&#45;&gt;Node16 -->
<g id="edge22_Node000016_Node000007" class="edge">
<title>Node7&#45;&gt;Node16</title>
<g id="a_edge22_Node000016_Node000007"><a xlink:title=" ">
<path fill="none" stroke="#9a32cd" stroke-dasharray="5,2" d="M389.57,-254.49C397.61,-248.59 407.34,-242.3 417,-238.18 467.2,-216.74 529.76,-206.49 569.8,-201.81"/>
<polygon fill="#9a32cd" stroke="#9a32cd" points="387.38,-251.77 381.59,-260.64 391.65,-257.31 387.38,-251.77"/>
</a>
</g>
<text text-anchor="middle" x="433.5" y="-241.18" font-family="Helvetica,sans-Serif" font-size="10.00" fill="grey"> socket</text>
</g>
<!-- Node18 -->
<g id="Node000018" class="node">
<title>Node18</title>
<g id="a_Node000018"><a xlink:href="structAsyncRequest.html" target="_top" xlink:title="Internal structure for tracking asynchronous I/O requests.">
<polygon fill="white" stroke="#666666" points="550,-373.68 469,-373.68 469,-354.68 550,-354.68 550,-373.68"/>
<text text-anchor="middle" x="509.5" y="-361.68" font-family="Helvetica,sans-Serif" font-size="10.00">AsyncRequest</text>
</a>
</g>
</g>
<!-- Node7&#45;&gt;Node18 -->
<g id="edge26_Node000018_Node000007" class="edge">
<title>Node7&#45;&gt;Node18</title>
<g id="a_edge26_Node000018_Node000007"><a xlink:title=" ">
<path fill="none" stroke="#9a32cd" stroke-dasharray="5,2" d="M388.52,-286.42C407.38,-302.88 438.34,-328.39 468,-346.18 473.15,-349.26 478.92,-352.14 484.45,-354.65"/>
<polygon fill="#9a32cd" stroke="#9a32cd" points="390.79,-283.76 380.98,-279.76 386.16,-289 390.79,-283.76"/>
</a>
</g>
<text text-anchor="middle" x="433.5" y="-347.18" font-family="Helvetica,sans-Serif" font-size="10.00" fill="grey"> cb</text>
<text text-anchor="middle" x="433.5" y="-336.18" font-family="Helvetica,sans-Serif" font-size="10.00" fill="grey">socket</text>
</g>
<!-- Node21 -->
<g id="Node000021" class="node">
<title>Node21</title>
<g id="a_Node000021"><a xlink:href="group__async__io.html#structSocketHE__T" target="_top" xlink:title="Main opaque context for Happy Eyeballs (RFC 8305) dual&#45;stack connection racing.">
<polygon fill="white" stroke="#666666" points="1183,-189.68 1110,-189.68 1110,-170.68 1183,-170.68 1183,-189.68"/>
<text text-anchor="middle" x="1146.5" y="-177.68" font-family="Helvetica,sans-Serif" font-size="10.00">SocketHE_T</text>
</a>
</g>
</g>
<!-- Node7&#45;&gt;Node21 -->
<g id="edge35_Node000021_Node000007" class="edge">
<title>Node7&#45;&gt;Node21</title>
<g id="a_edge35_Node000021_Node000007"><a xlink:title=" ">
<path fill="none" stroke="#9a32cd" stroke-dasharray="5,2" d="M381.92,-251.89C402.87,-220.84 450.67,-161.18 508.5,-161.18 508.5,-161.18 508.5,-161.18 938,-161.18 998.59,-161.18 1068.73,-169.31 1109.98,-174.93"/>
<polygon fill="#9a32cd" stroke="#9a32cd" points="378.83,-250.22 376.29,-260.5 384.69,-254.04 378.83,-250.22"/>
</a>
</g>
<text text-anchor="middle" x="726" y="-164.18" font-family="Helvetica,sans-Serif" font-size="10.00" fill="grey"> winner</text>
</g>
<!-- Node8 -->
<g id="Node000008" class="node">
<title>Node8</title>
<g id="a_Node000008"><a xlink:href="group__core__io.html#structSocketBase__T" target="_top" xlink:title="Internal implementation of SocketBase_T opaque type.">
<polygon fill="white" stroke="#666666" points="279,-279.68 198,-279.68 198,-260.68 279,-260.68 279,-279.68"/>
<text text-anchor="middle" x="238.5" y="-267.68" font-family="Helvetica,sans-Serif" font-size="10.00">SocketBase_T</text>
</a>
</g>
</g>
<!-- Node8&#45;&gt;Node7 -->
<g id="edge8_Node000007_Node000008" class="edge">
<title>Node8&#45;&gt;Node7</title>
<g id="a_edge8_Node000007_Node000008"><a xlink:title=" ">
<path fill="none" stroke="#9a32cd" stroke-dasharray="5,2" d="M289.61,-270.18C306.59,-270.18 324.98,-270.18 339.73,-270.18"/>
<polygon fill="#9a32cd" stroke="#9a32cd" points="289.26,-266.68 279.26,-270.18 289.26,-273.68 289.26,-266.68"/>
</a>
</g>
<text text-anchor="middle" x="309.5" y="-273.18" font-family="Helvetica,sans-Serif" font-size="10.00" fill="grey"> base</text>
</g>
<!-- Node9 -->
<g id="Node000009" class="node">
<title>Node9</title>
<g id="a_Node000009"><a xlink:href="group__foundation.html#structSocketTimeouts__T" target="_top" xlink:title="Basic timeout configuration structure for socket operations.">
<polygon fill="white" stroke="#666666" points="110,-298.68 11,-298.68 11,-279.68 110,-279.68 110,-298.68"/>
<text text-anchor="middle" x="60.5" y="-286.68" font-family="Helvetica,sans-Serif" font-size="10.00">SocketTimeouts_T</text>
</a>
</g>
</g>
<!-- Node9&#45;&gt;Node8 -->
<g id="edge9_Node000008_Node000009" class="edge">
<title>Node9&#45;&gt;Node8</title>
<g id="a_edge9_Node000008_Node000009"><a xlink:title=" ">
<path fill="none" stroke="#9a32cd" stroke-dasharray="5,2" d="M120.03,-282.86C145.65,-280.09 175.02,-276.92 197.99,-274.44"/>
<polygon fill="#9a32cd" stroke="#9a32cd" points="119.63,-279.38 110.06,-283.93 120.38,-286.34 119.63,-279.38"/>
</a>
</g>
<text text-anchor="middle" x="159.5" y="-284.18" font-family="Helvetica,sans-Serif" font-size="10.00" fill="grey"> timeouts</text>
</g>
<!-- Node10 -->
<g id="Node000010" class="node">
<title>Node10</title>
<g id="a_Node000010"><a xlink:href="group__foundation.html#structSocketMetricsSnapshot" target="_top" xlink:title="SocketMetricsSnapshot &#45; Thread&#45;safe snapshot of all library metrics.">
<polygon fill="white" stroke="#666666" points="121,-261.68 0,-261.68 0,-242.68 121,-242.68 121,-261.68"/>
<text text-anchor="middle" x="60.5" y="-249.68" font-family="Helvetica,sans-Serif" font-size="10.00">SocketMetricsSnapshot</text>
</a>
</g>
</g>
<!-- Node10&#45;&gt;Node8 -->
<g id="edge10_Node000008_Node000010" class="edge">
<title>Node10&#45;&gt;Node8</title>
<g id="a_edge10_Node000008_Node000010"><a xlink:title=" ">
<path fill="none" stroke="#9a32cd" stroke-dasharray="5,2" d="M131.44,-252.16C147.45,-252.81 164.36,-254.03 180,-256.18 187.63,-257.22 195.73,-258.86 203.36,-260.65"/>
<polygon fill="#9a32cd" stroke="#9a32cd" points="131.19,-248.65 121.08,-251.8 130.95,-255.64 131.19,-248.65"/>
</a>
</g>
<text text-anchor="middle" x="159.5" y="-259.18" font-family="Helvetica,sans-Serif" font-size="10.00" fill="grey"> metrics</text>
</g>
<!-- Node11 -->
<g id="Node000011" class="node">
<title>Node11</title>
<g id="a_Node000011"><a xlink:href="group__dns.html#structSocketDNS__T" target="_top" xlink:title="Async DNS resolver structure.">
<polygon fill="white" stroke="#666666" points="766,-59.68 686,-59.68 686,-40.68 766,-40.68 766,-59.68"/>
<text text-anchor="middle" x="726" y="-47.68" font-family="Helvetica,sans-Serif" font-size="10.00">SocketDNS_T</text>
</a>
</g>
</g>
<!-- Node11&#45;&gt;Node1 -->
<g id="edge11_Node000001_Node000011" class="edge">
<title>Node11&#45;&gt;Node1</title>
<g id="a_edge11_Node000001_Node000011"><a xlink:title=" ">
<path fill="none" stroke="#9a32cd" stroke-dasharray="5,2" d="M756.19,-36.6C769.03,-31.33 784.47,-25.91 799,-23.18 918.81,-0.64 964.7,19.81 1073,-36.18 1195.28,-99.38 1294.98,-242.89 1320.28,-281.47"/>
<polygon fill="#9a32cd" stroke="#9a32cd" points="754.76,-33.41 746.94,-40.56 757.51,-39.85 754.76,-33.41"/>
</a>
</g>
<text text-anchor="middle" x="1044.5" y="-39.18" font-family="Helvetica,sans-Serif" font-size="10.00" fill="grey"> dns</text>
</g>
<!-- Node12 -->
<g id="Node000012" class="node">
<title>Node12</title>
<g id="a_Node000012"><a xlink:href="group__dns.html#structSocketDNS__Request__T" target="_top" xlink:title="DNS resolution request structure.">
<polygon fill="white" stroke="#666666" points="998,-81.68 876,-81.68 876,-62.68 998,-62.68 998,-81.68"/>
<text text-anchor="middle" x="937" y="-69.68" font-family="Helvetica,sans-Serif" font-size="10.00">SocketDNS_Request_T</text>
</a>
</g>
</g>
<!-- Node11&#45;&gt;Node12 -->
<g id="edge14_Node000012_Node000011" class="edge">
<title>Node11&#45;&gt;Node12</title>
<g id="a_edge14_Node000012_Node000011"><a xlink:title=" ">
<path fill="none" stroke="#9a32cd" stroke-dasharray="5,2" d="M744.25,-66.73C757.89,-78.61 778.07,-93.62 799,-100.18 840.47,-113.16 890.93,-94.3 917.53,-81.78"/>
<polygon fill="#9a32cd" stroke="#9a32cd" points="746.41,-63.96 736.65,-59.84 741.71,-69.15 746.41,-63.96"/>
</a>
</g>
<text text-anchor="middle" x="828.5" y="-108.18" font-family="Helvetica,sans-Serif" font-size="10.00" fill="grey"> dns_resolver</text>
</g>
<!-- Node11&#45;&gt;Node21 -->
<g id="edge32_Node000021_Node000011" class="edge">
<title>Node11&#45;&gt;Node21</title>
<g id="a_edge32_Node000021_Node000011"><a xlink:title=" ">
<path fill="none" stroke="#9a32cd" stroke-dasharray="5,2" d="M774.21,-38.5C829.64,-27.09 923.47,-15.03 998,-42.18 1066.87,-67.26 1121.6,-143.37 1139.37,-170.47"/>
<polygon fill="#9a32cd" stroke="#9a32cd" points="773.36,-35.1 764.32,-40.61 774.83,-41.95 773.36,-35.1"/>
</a>
</g>
<text text-anchor="middle" x="937" y="-45.18" font-family="Helvetica,sans-Serif" font-size="10.00" fill="grey"> dns</text>
</g>
<!-- Node12&#45;&gt;Node11 -->
<g id="edge12_Node000011_Node000012" class="edge">
<title>Node12&#45;&gt;Node11</title>
<g id="a_edge12_Node000011_Node000012"><a xlink:title=" ">
<path fill="none" stroke="#9a32cd" stroke-dasharray="5,2" d="M865.78,-64.78C832.62,-61.29 794.28,-57.26 766.31,-54.31"/>
<polygon fill="#9a32cd" stroke="#9a32cd" points="865.58,-68.28 875.89,-65.85 866.31,-61.32 865.58,-68.28"/>
</a>
</g>
<text text-anchor="middle" x="828.5" y="-89.18" font-family="Helvetica,sans-Serif" font-size="10.00" fill="grey"> queue_head</text>
<text text-anchor="middle" x="828.5" y="-78.18" font-family="Helvetica,sans-Serif" font-size="10.00" fill="grey">queue_tail</text>
<text text-anchor="middle" x="828.5" y="-67.18" font-family="Helvetica,sans-Serif" font-size="10.00" fill="grey">request_hash</text>
</g>
<!-- Node12&#45;&gt;Node12 -->
<g id="edge13_Node000012_Node000012" class="edge">
<title>Node12&#45;&gt;Node12</title>
<g id="a_edge13_Node000012_Node000012"><a xlink:title=" ">
<path fill="none" stroke="#9a32cd" stroke-dasharray="5,2" d="M917.37,-91.23C918.68,-96.06 925.23,-99.68 937,-99.68 955.84,-99.68 961.29,-90.41 953.34,-81.76"/>
<polygon fill="#9a32cd" stroke="#9a32cd" points="920.69,-92.35 920.66,-81.76 914.07,-90.06 920.69,-92.35"/>
</a>
</g>
<text text-anchor="middle" x="937" y="-124.68" font-family="Helvetica,sans-Serif" font-size="10.00" fill="grey"> callback</text>
<text text-anchor="middle" x="937" y="-113.68" font-family="Helvetica,sans-Serif" font-size="10.00" fill="grey">hash_next</text>
<text text-anchor="middle" x="937" y="-102.68" font-family="Helvetica,sans-Serif" font-size="10.00" fill="grey">queue_next</text>
</g>
<!-- Node12&#45;&gt;Node21 -->
<g id="edge34_Node000021_Node000012" class="edge">
<title>Node12&#45;&gt;Node21</title>
<g id="a_edge34_Node000021_Node000012"><a xlink:title=" ">
<path fill="none" stroke="#9a32cd" stroke-dasharray="5,2" d="M969.03,-85.79C996.68,-98.18 1038.07,-117.36 1073,-136.18 1093.48,-147.21 1116.3,-161.38 1130.76,-170.62"/>
<polygon fill="#9a32cd" stroke="#9a32cd" points="970.41,-82.57 959.85,-81.7 967.56,-88.97 970.41,-82.57"/>
</a>
</g>
<text text-anchor="middle" x="1044.5" y="-139.18" font-family="Helvetica,sans-Serif" font-size="10.00" fill="grey"> dns_request</text>
</g>
<!-- Node13 -->
<g id="Node000013" class="node">
<title>Node13</title>
<g id="a_Node000013"><a xlink:title=" ">
<polygon fill="white" stroke="#666666" points="974.5,-300.68 899.5,-300.68 899.5,-281.68 974.5,-281.68 974.5,-300.68"/>
<text text-anchor="middle" x="937" y="-288.68" font-family="Helvetica,sans-Serif" font-size="10.00">SocketPoll_T</text>
</a>
</g>
</g>
<!-- Node13&#45;&gt;Node1 -->
<g id="edge15_Node000001_Node000013" class="edge">
<title>Node13&#45;&gt;Node1</title>
<g id="a_edge15_Node000001_Node000013"><a xlink:title=" ">
<path fill="none" stroke="#9a32cd" stroke-dasharray="5,2" d="M984.66,-291.18C1056.5,-291.18 1193.93,-291.18 1270.85,-291.18"/>
<polygon fill="#9a32cd" stroke="#9a32cd" points="984.55,-287.68 974.55,-291.18 984.55,-294.68 984.55,-287.68"/>
</a>
</g>
<text text-anchor="middle" x="1146.5" y="-294.18" font-family="Helvetica,sans-Serif" font-size="10.00" fill="grey"> poll</text>
</g>
<!-- Node13&#45;&gt;Node21 -->
<g id="edge33_Node000021_Node000013" class="edge">
<title>Node13&#45;&gt;Node21</title>
<g id="a_edge33_Node000021_Node000013"><a xlink:title=" ">
<path fill="none" stroke="#9a32cd" stroke-dasharray="5,2" d="M965.11,-276.67C1008.22,-253.61 1091.22,-209.21 1127.64,-189.73"/>
<polygon fill="#9a32cd" stroke="#9a32cd" points="963.22,-273.72 956.05,-281.52 966.52,-279.89 963.22,-273.72"/>
</a>
</g>
<text text-anchor="middle" x="1044.5" y="-252.18" font-family="Helvetica,sans-Serif" font-size="10.00" fill="grey"> poll</text>
</g>
<!-- Node14&#45;&gt;Node13 -->
<g id="edge16_Node000013_Node000014" class="edge">
<title>Node14&#45;&gt;Node13</title>
<g id="a_edge16_Node000013_Node000014"><a xlink:title=" ">
<path fill="none" stroke="#9a32cd" stroke-dasharray="5,2" d="M663.17,-302.12C728.92,-299.48 841.45,-294.97 899.29,-292.65"/>
<polygon fill="#9a32cd" stroke="#9a32cd" points="662.89,-298.63 653.03,-302.53 663.17,-305.63 662.89,-298.63"/>
</a>
</g>
<text text-anchor="middle" x="726" y="-304.18" font-family="Helvetica,sans-Serif" font-size="10.00" fill="grey"> socketevents</text>
</g>
<!-- Node15&#45;&gt;Node13 -->
<g id="edge18_Node000013_Node000015" class="edge">
<title>Node15&#45;&gt;Node13</title>
<g id="a_edge18_Node000013_Node000015"><a xlink:title=" ">
<path fill="none" stroke="#9a32cd" stroke-dasharray="5,2" d="M655.36,-256.53C719.7,-264.47 839.28,-279.24 899.44,-286.66"/>
<polygon fill="#9a32cd" stroke="#9a32cd" points="655.5,-253.02 645.15,-255.27 654.65,-259.97 655.5,-253.02"/>
</a>
</g>
<text text-anchor="middle" x="726" y="-275.18" font-family="Helvetica,sans-Serif" font-size="10.00" fill="grey"> socket_data_map</text>
</g>
<!-- Node15&#45;&gt;Node15 -->
<g id="edge20_Node000015_Node000015" class="edge">
<title>Node15&#45;&gt;Node15</title>
<g id="a_edge20_Node000015_Node000015"><a xlink:title=" ">
<path fill="none" stroke="#9a32cd" stroke-dasharray="5,2" d="M592.58,-270.59C594.03,-275.23 600.17,-278.68 611,-278.68 628.77,-278.68 633.91,-269.41 626.41,-260.76"/>
<polygon fill="#9a32cd" stroke="#9a32cd" points="596.01,-271.34 595.59,-260.76 589.32,-269.3 596.01,-271.34"/>
</a>
</g>
<text text-anchor="middle" x="611" y="-281.68" font-family="Helvetica,sans-Serif" font-size="10.00" fill="grey"> next</text>
</g>
<!-- Node16&#45;&gt;Node13 -->
<g id="edge21_Node000013_Node000016" class="edge">
<title>Node16&#45;&gt;Node13</title>
<g id="a_edge21_Node000013_Node000016"><a xlink:title=" ">
<path fill="none" stroke="#9a32cd" stroke-dasharray="5,2" d="M658.02,-210.32C692.06,-219.39 739.51,-232.24 781,-244.18 824.37,-256.65 874.29,-271.96 905.49,-281.64"/>
<polygon fill="#9a32cd" stroke="#9a32cd" points="658.91,-206.94 648.35,-207.75 657.11,-213.7 658.91,-206.94"/>
</a>
</g>
<text text-anchor="middle" x="726" y="-247.18" font-family="Helvetica,sans-Serif" font-size="10.00" fill="grey"> fd_to_socket_map</text>
</g>
<!-- Node16&#45;&gt;Node16 -->
<g id="edge23_Node000016_Node000016" class="edge">
<title>Node16&#45;&gt;Node16</title>
<g id="a_edge23_Node000016_Node000016"><a xlink:title=" ">
<path fill="none" stroke="#9a32cd" stroke-dasharray="5,2" d="M592.58,-217.59C594.03,-222.23 600.17,-225.68 611,-225.68 628.77,-225.68 633.91,-216.41 626.41,-207.76"/>
<polygon fill="#9a32cd" stroke="#9a32cd" points="596.01,-218.34 595.59,-207.76 589.32,-216.3 596.01,-218.34"/>
</a>
</g>
<text text-anchor="middle" x="611" y="-228.68" font-family="Helvetica,sans-Serif" font-size="10.00" fill="grey"> next</text>
</g>
<!-- Node17 -->
<g id="Node000017" class="node">
<title>Node17</title>
<g id="a_Node000017"><a xlink:href="group__async__io.html#structSocketAsync__T" target="_top" xlink:title="Core structure for asynchronous I/O context management.">
<polygon fill="white" stroke="#666666" points="769,-387.68 683,-387.68 683,-368.68 769,-368.68 769,-387.68"/>
<text text-anchor="middle" x="726" y="-375.68" font-family="Helvetica,sans-Serif" font-size="10.00">SocketAsync_T</text>
</a>
</g>
</g>
<!-- Node17&#45;&gt;Node13 -->
<g id="edge24_Node000013_Node000017" class="edge">
<title>Node17&#45;&gt;Node13</title>
<g id="a_edge24_Node000013_Node000017"><a xlink:title=" ">
<path fill="none" stroke="#9a32cd" stroke-dasharray="5,2" d="M779.07,-368.38C803.66,-362.73 833.02,-354.47 858,-343.18 883.36,-331.71 909.64,-312.36 924.3,-300.78"/>
<polygon fill="#9a32cd" stroke="#9a32cd" points="778.21,-364.99 769.2,-370.57 779.72,-371.82 778.21,-364.99"/>
</a>
</g>
<text text-anchor="middle" x="828.5" y="-365.18" font-family="Helvetica,sans-Serif" font-size="10.00" fill="grey"> async</text>
</g>
<!-- Node18&#45;&gt;Node17 -->
<g id="edge25_Node000017_Node000018" class="edge">
<title>Node18&#45;&gt;Node17</title>
<g id="a_edge25_Node000017_Node000018"><a xlink:title=" ">
<path fill="none" stroke="#9a32cd" stroke-dasharray="5,2" d="M560.19,-367.42C597.31,-369.84 647.5,-373.12 682.7,-375.42"/>
<polygon fill="#9a32cd" stroke="#9a32cd" points="560.3,-363.92 550.09,-366.76 559.84,-370.9 560.3,-363.92"/>
</a>
</g>
<text text-anchor="middle" x="611" y="-376.18" font-family="Helvetica,sans-Serif" font-size="10.00" fill="grey"> requests</text>
</g>
<!-- Node18&#45;&gt;Node18 -->
<g id="edge27_Node000018_Node000018" class="edge">
<title>Node18&#45;&gt;Node18</title>
<g id="a_edge27_Node000018_Node000018"><a xlink:title=" ">
<path fill="none" stroke="#9a32cd" stroke-dasharray="5,2" d="M495.5,-383.59C496.6,-388.23 501.27,-391.68 509.5,-391.68 523.01,-391.68 526.91,-382.41 521.21,-373.76"/>
<polygon fill="#9a32cd" stroke="#9a32cd" points="498.93,-384.29 497.79,-373.76 492.12,-382.71 498.93,-384.29"/>
</a>
</g>
<text text-anchor="middle" x="509.5" y="-394.68" font-family="Helvetica,sans-Serif" font-size="10.00" fill="grey"> next</text>
</g>
<!-- Node19 -->
<g id="Node000019" class="node">
<title>Node19</title>
<g id="a_Node000019"><a xlink:href="group__event__system.html#structSocketTimer__heap__T" target="_top" xlink:title="Binary min&#45;heap container for managing multiple SocketTimer_T instances.">
<polygon fill="white" stroke="#666666" points="781,-350.68 671,-350.68 671,-331.68 781,-331.68 781,-350.68"/>
<text text-anchor="middle" x="726" y="-338.68" font-family="Helvetica,sans-Serif" font-size="10.00">SocketTimer_heap_T</text>
</a>
</g>
</g>
<!-- Node19&#45;&gt;Node13 -->
<g id="edge28_Node000013_Node000019" class="edge">
<title>Node19&#45;&gt;Node13</title>
<g id="a_edge28_Node000013_Node000019"><a xlink:title=" ">
<path fill="none" stroke="#9a32cd" stroke-dasharray="5,2" d="M791.14,-330.55C812.53,-326.57 836.4,-321.68 858,-316.18 875.09,-311.82 893.92,-305.82 908.8,-300.79"/>
<polygon fill="#9a32cd" stroke="#9a32cd" points="790.39,-327.12 781.18,-332.36 791.65,-334.01 790.39,-327.12"/>
</a>
</g>
<text text-anchor="middle" x="828.5" y="-331.18" font-family="Helvetica,sans-Serif" font-size="10.00" fill="grey"> timer_heap</text>
</g>
<!-- Node20 -->
<g id="Node000020" class="node">
<title>Node20</title>
<g id="a_Node000020"><a xlink:href="group__event__system.html#structSocketTimer__T" target="_top" xlink:title="Internal representation of a single scheduled timer event.">
<polygon fill="white" stroke="#666666" points="551,-336.68 468,-336.68 468,-317.68 551,-317.68 551,-336.68"/>
<text text-anchor="middle" x="509.5" y="-324.68" font-family="Helvetica,sans-Serif" font-size="10.00">SocketTimer_T</text>
</a>
</g>
</g>
<!-- Node20&#45;&gt;Node19 -->
<g id="edge29_Node000019_Node000020" class="edge">
<title>Node20&#45;&gt;Node19</title>
<g id="a_edge29_Node000019_Node000020"><a xlink:title=" ">
<path fill="none" stroke="#9a32cd" stroke-dasharray="5,2" d="M561.42,-330.5C594.37,-332.65 637.21,-335.45 670.79,-337.64"/>
<polygon fill="#9a32cd" stroke="#9a32cd" points="561.3,-326.98 551.1,-329.83 560.85,-333.97 561.3,-326.98"/>
</a>
</g>
<text text-anchor="middle" x="611" y="-339.18" font-family="Helvetica,sans-Serif" font-size="10.00" fill="grey"> timers</text>
</g>
<!-- Node21&#45;&gt;Node1 -->
<g id="edge30_Node000001_Node000021" class="edge">
<title>Node21&#45;&gt;Node1</title>
<g id="a_edge30_Node000001_Node000021"><a xlink:title=" ">
<path fill="none" stroke="#9a32cd" stroke-dasharray="5,2" d="M1171.83,-195.26C1209.27,-218.48 1279.94,-262.31 1311.09,-281.62"/>
<polygon fill="#9a32cd" stroke="#9a32cd" points="1173.42,-192.13 1163.07,-189.83 1169.73,-198.08 1173.42,-192.13"/>
</a>
</g>
<text text-anchor="middle" x="1236.5" y="-246.18" font-family="Helvetica,sans-Serif" font-size="10.00" fill="grey"> he</text>
</g>
<!-- Node22 -->
<g id="Node000022" class="node">
<title>Node22</title>
<g id="a_Node000022"><a xlink:href="group__async__io.html#structSocketHE__Config__T" target="_top" xlink:title="Happy Eyeballs configuration structure.">
<polygon fill="white" stroke="#666666" points="990.5,-208.68 883.5,-208.68 883.5,-189.68 990.5,-189.68 990.5,-208.68"/>
<text text-anchor="middle" x="937" y="-196.68" font-family="Helvetica,sans-Serif" font-size="10.00">SocketHE_Config_T</text>
</a>
</g>
</g>
<!-- Node22&#45;&gt;Node21 -->
<g id="edge31_Node000021_Node000022" class="edge">
<title>Node22&#45;&gt;Node21</title>
<g id="a_edge31_Node000021_Node000022"><a xlink:title=" ">
<path fill="none" stroke="#9a32cd" stroke-dasharray="5,2" d="M1000.96,-193.41C1036.66,-190.14 1080.04,-186.17 1109.9,-183.44"/>
<polygon fill="#9a32cd" stroke="#9a32cd" points="1000.27,-189.96 990.63,-194.36 1000.91,-196.93 1000.27,-189.96"/>
</a>
</g>
<text text-anchor="middle" x="1044.5" y="-195.18" font-family="Helvetica,sans-Serif" font-size="10.00" fill="grey"> config</text>
</g>
</g>
</svg>

<g id="navigator" transform="translate(0 0)" fill="#404254">
  <rect fill="#f2f5e9" fill-opacity="0.5" stroke="#606060" stroke-width=".5" x="0" y="0" width="60" height="60"/>
  <use id="zoomplus" xlink:href="#zoomPlus" x="17" y="9" onmousedown="handleZoom(evt,'in')"/>
  <use id="zoomminus" xlink:href="#zoomMin" x="42" y="9" onmousedown="handleZoom(evt,'out')"/>
  <use id="reset" xlink:href="#resetDef" x="30" y="36" onmousedown="handleReset()"/>
   <use id="arrowup" xlink:href="#arrowUp" x="0" y="0" onmousedown="handlePan(0,-1)"/>
  <use id="arrowright" xlink:href="#arrowRight" x="0" y="0" onmousedown="handlePan(1,0)"/>
  <use id="arrowdown" xlink:href="#arrowDown" x="0" y="0" onmousedown="handlePan(0,1)"/>
  <use id="arrowleft" xlink:href="#arrowLeft" x="0" y="0" onmousedown="handlePan(-1,0)"/>
</g>
<svg viewBox="0 0 15 15" width="100%" height="30px" preserveAspectRatio="xMaxYMin meet">
 <g id="arrow_out" transform="scale(0.3 0.3)">
  <a xlink:href="structSocketProxy__Conn__T__coll__graph_org.svg" target="_base">
   <rect id="button" ry="5" rx="5" y="6" x="6" height="38" width="38"
        fill="#f2f5e9" fill-opacity="0.5" stroke="#606060" stroke-width="1.0"/>
   <path id="arrow"
     d="M 11.500037,31.436501 C 11.940474,20.09759 22.043105,11.32322 32.158766,21.979434 L 37.068811,17.246167 C 37.068811,17.246167 37.088388,32 37.088388,32 L 22.160133,31.978069 C 22.160133,31.978069 26.997745,27.140456 26.997745,27.140456 C 18.528582,18.264221 13.291696,25.230495 11.500037,31.436501 z"
     style="fill:#404040;"/>
  </a>
 </g>
</svg>

<style type='text/css'>
<![CDATA[
[data-mouse-over-selected='false'] { opacity: 0.7; }
[data-mouse-over-selected='true']  { opacity: 1.0; }
]]>
</style>
<script type="application/ecmascript"><![CDATA[
document.addEventListener('DOMContentLoaded', (event) => {
  highlightEdges();
  highlightAdjacentNodes();
});
]]></script>
</svg>
