<?xml version="1.0" encoding="UTF-8" standalone="no"?>
<!DOCTYPE svg PUBLIC "-//W3C//DTD SVG 1.1//EN"
 "http://www.w3.org/Graphics/SVG/1.1/DTD/svg11.dtd">
<!-- Generated by graphviz version 2.43.0 (0)
 -->
<!-- Title: SocketReconnect_T Pages: 1 -->
<svg width="464pt" height="228pt"
 viewBox="0.00 0.00 463.50 228.00" xmlns="http://www.w3.org/2000/svg" xmlns:xlink="http://www.w3.org/1999/xlink">

<svg id="main" version="1.1" xmlns="http://www.w3.org/2000/svg" xmlns:xlink="http://www.w3.org/1999/xlink" xml:space="preserve" onload="init(evt)">
<style type="text/css"><![CDATA[
.node, .edge {opacity: 0.7;}
.node.selected, .edge.selected {opacity: 1;}
.edge:hover path { stroke: red; }
.edge:hover polygon { stroke: red; fill: red; }
]]></style>
<script type="application/ecmascript" xlink:href="svg.min.js"/>
<svg id="graph" class="graph">
<g id="graph0" class="graph" transform="scale(1 1) rotate(0) translate(4 224)">
<title>SocketReconnect_T</title>
<!-- Node1 -->
<g id="Node000001" class="node">
<title>Node1</title>
<g id="a_Node000001"><a xlink:title="Opaque internal context for reconnecting socket management.">
<polygon fill="#999999" stroke="#666666" points="239,-20.5 133,-20.5 133,-1.5 239,-1.5 239,-20.5"/>
<text text-anchor="middle" x="186" y="-8.5" font-family="Helvetica,sans-Serif" font-size="10.00">SocketReconnect_T</text>
</a>
</g>
</g>
<!-- Node1&#45;&gt;Node1 -->
<g id="edge3_Node000001_Node000001" class="edge">
<title>Node1&#45;&gt;Node1</title>
<g id="a_edge3_Node000001_Node000001"><a xlink:title=" ">
<path fill="none" stroke="#9a32cd" stroke-dasharray="5,2" d="M249.43,-15.74C254.12,-14.68 257,-13.1 257,-11 257,-7.65 249.63,-5.62 239.26,-4.91"/>
<polygon fill="#9a32cd" stroke="#9a32cd" points="248.71,-12.3 239.26,-17.09 249.63,-19.24 248.71,-12.3"/>
</a>
</g>
<text text-anchor="middle" x="286" y="-14" font-family="Helvetica,sans-Serif" font-size="10.00" fill="grey"> callback</text>
<text text-anchor="middle" x="286" y="-3" font-family="Helvetica,sans-Serif" font-size="10.00" fill="grey">health_check</text>
</g>
<!-- Node2 -->
<g id="Node000002" class="node">
<title>Node2</title>
<g id="a_Node000002"><a xlink:href="group__connection__mgmt.html#structSocketReconnect__Policy__T" target="_top" xlink:title="Configuration structure defining backoff policy, circuit breaker thresholds, and health check paramet...">
<polygon fill="white" stroke="#666666" points="138,-88 0,-88 0,-69 138,-69 138,-88"/>
<text text-anchor="middle" x="69" y="-76" font-family="Helvetica,sans-Serif" font-size="10.00">SocketReconnect_Policy_T</text>
</a>
</g>
</g>
<!-- Node2&#45;&gt;Node1 -->
<g id="edge1_Node000001_Node000002" class="edge">
<title>Node2&#45;&gt;Node1</title>
<g id="a_edge1_Node000001_Node000002"><a xlink:title=" ">
<path fill="none" stroke="#9a32cd" stroke-dasharray="5,2" d="M93.22,-63.94C116.5,-50.91 150.99,-31.6 170.7,-20.57"/>
<polygon fill="#9a32cd" stroke="#9a32cd" points="91.31,-61 84.3,-68.94 94.73,-67.11 91.31,-61"/>
</a>
</g>
<text text-anchor="middle" x="149.5" y="-43" font-family="Helvetica,sans-Serif" font-size="10.00" fill="grey"> policy</text>
</g>
<!-- Node3 -->
<g id="Node000003" class="node">
<title>Node3</title>
<g id="a_Node000003"><a xlink:title=" ">
<polygon fill="white" stroke="#666666" points="215.5,-88 156.5,-88 156.5,-69 215.5,-69 215.5,-88"/>
<text text-anchor="middle" x="186" y="-76" font-family="Helvetica,sans-Serif" font-size="10.00">Socket_T</text>
</a>
</g>
</g>
<!-- Node3&#45;&gt;Node1 -->
<g id="edge2_Node000001_Node000003" class="edge">
<title>Node3&#45;&gt;Node1</title>
<g id="a_edge2_Node000001_Node000003"><a xlink:title=" ">
<path fill="none" stroke="#9a32cd" stroke-dasharray="5,2" d="M186,-58.68C186,-46.21 186,-30.42 186,-20.77"/>
<polygon fill="#9a32cd" stroke="#9a32cd" points="182.5,-58.94 186,-68.94 189.5,-58.94 182.5,-58.94"/>
</a>
</g>
<text text-anchor="middle" x="202.5" y="-43" font-family="Helvetica,sans-Serif" font-size="10.00" fill="grey"> socket</text>
</g>
<!-- Node4 -->
<g id="Node000004" class="node">
<title>Node4</title>
<g id="a_Node000004"><a xlink:href="group__security.html#structSocketTLSContext__T" target="_top" xlink:title="TLS context structure for managing OpenSSL SSL_CTX with secure defaults, certificates,...">
<polygon fill="white" stroke="#666666" points="344.5,-88 233.5,-88 233.5,-69 344.5,-69 344.5,-88"/>
<text text-anchor="middle" x="289" y="-76" font-family="Helvetica,sans-Serif" font-size="10.00">SocketTLSContext_T</text>
</a>
</g>
</g>
<!-- Node4&#45;&gt;Node1 -->
<g id="edge4_Node000001_Node000004" class="edge">
<title>Node4&#45;&gt;Node1</title>
<g id="a_edge4_Node000001_Node000004"><a xlink:title=" ">
<path fill="none" stroke="#9a32cd" stroke-dasharray="5,2" d="M266.86,-63.42C246.37,-50.39 216.59,-31.45 199.47,-20.57"/>
<polygon fill="#9a32cd" stroke="#9a32cd" points="265.22,-66.52 275.53,-68.94 268.97,-60.62 265.22,-66.52"/>
</a>
</g>
<text text-anchor="middle" x="263.5" y="-43" font-family="Helvetica,sans-Serif" font-size="10.00" fill="grey"> tls_ctx</text>
</g>
<!-- Node4&#45;&gt;Node4 -->
<g id="edge7_Node000004_Node000004" class="edge">
<title>Node4&#45;&gt;Node4</title>
<g id="a_edge7_Node000004_Node000004"><a xlink:title=" ">
<path fill="none" stroke="#9a32cd" stroke-dasharray="5,2" d="M354.95,-82.9C359.64,-81.9 362.5,-80.43 362.5,-78.5 362.5,-75.41 355.17,-73.51 344.77,-72.81"/>
<polygon fill="#9a32cd" stroke="#9a32cd" points="354.25,-79.46 344.77,-84.19 355.13,-86.4 354.25,-79.46"/>
</a>
</g>
<text text-anchor="middle" x="397" y="-76" font-family="Helvetica,sans-Serif" font-size="10.00" fill="grey"> verify_callback</text>
</g>
<!-- Node5 -->
<g id="Node000005" class="node">
<title>Node5</title>
<g id="a_Node000005"><a xlink:href="structTLSContextSNICerts.html" target="_top" xlink:title="Structure for managing SNI certificate mappings in TLS context.">
<polygon fill="white" stroke="#666666" points="223,-154 113,-154 113,-135 223,-135 223,-154"/>
<text text-anchor="middle" x="168" y="-142" font-family="Helvetica,sans-Serif" font-size="10.00">TLSContextSNICerts</text>
</a>
</g>
</g>
<!-- Node5&#45;&gt;Node4 -->
<g id="edge5_Node000004_Node000005" class="edge">
<title>Node5&#45;&gt;Node4</title>
<g id="a_edge5_Node000004_Node000005"><a xlink:title=" ">
<path fill="none" stroke="#9a32cd" stroke-dasharray="5,2" d="M193.47,-130.03C217.3,-117.42 252.2,-98.97 272.55,-88.2"/>
<polygon fill="#9a32cd" stroke="#9a32cd" points="191.52,-127.1 184.32,-134.87 194.79,-133.29 191.52,-127.1"/>
</a>
</g>
<text text-anchor="middle" x="257.5" y="-109" font-family="Helvetica,sans-Serif" font-size="10.00" fill="grey"> sni_certs</text>
</g>
<!-- Node6 -->
<g id="Node000006" class="node">
<title>Node6</title>
<g id="a_Node000006"><a xlink:href="group__security.html#structTLSContextALPN" target="_top" xlink:title="Configuration for ALPN protocol negotiation.">
<polygon fill="white" stroke="#666666" points="336.5,-154 241.5,-154 241.5,-135 336.5,-135 336.5,-154"/>
<text text-anchor="middle" x="289" y="-142" font-family="Helvetica,sans-Serif" font-size="10.00">TLSContextALPN</text>
</a>
</g>
</g>
<!-- Node6&#45;&gt;Node4 -->
<g id="edge6_Node000004_Node000006" class="edge">
<title>Node6&#45;&gt;Node4</title>
<g id="a_edge6_Node000004_Node000006"><a xlink:title=" ">
<path fill="none" stroke="#9a32cd" stroke-dasharray="5,2" d="M289,-124.58C289,-112.63 289,-97.72 289,-88.41"/>
<polygon fill="#9a32cd" stroke="#9a32cd" points="285.5,-124.87 289,-134.87 292.5,-124.87 285.5,-124.87"/>
</a>
</g>
<text text-anchor="middle" x="300" y="-109" font-family="Helvetica,sans-Serif" font-size="10.00" fill="grey"> alpn</text>
</g>
<!-- Node7 -->
<g id="Node000007" class="node">
<title>Node7</title>
<g id="a_Node000007"><a xlink:href="group__security.html#structTLSContextPinning" target="_top" xlink:title="TLSContextPinning &#45; Certificate pinning configuration.">
<polygon fill="white" stroke="#666666" points="455.5,-154 354.5,-154 354.5,-135 455.5,-135 455.5,-154"/>
<text text-anchor="middle" x="405" y="-142" font-family="Helvetica,sans-Serif" font-size="10.00">TLSContextPinning</text>
</a>
</g>
</g>
<!-- Node7&#45;&gt;Node4 -->
<g id="edge8_Node000004_Node000007" class="edge">
<title>Node7&#45;&gt;Node4</title>
<g id="a_edge8_Node000004_Node000007"><a xlink:title=" ">
<path fill="none" stroke="#9a32cd" stroke-dasharray="5,2" d="M380.58,-130.03C357.73,-117.42 324.28,-98.97 304.77,-88.2"/>
<polygon fill="#9a32cd" stroke="#9a32cd" points="378.91,-133.1 389.36,-134.87 382.29,-126.97 378.91,-133.1"/>
</a>
</g>
<text text-anchor="middle" x="370" y="-109" font-family="Helvetica,sans-Serif" font-size="10.00" fill="grey"> pinning</text>
</g>
<!-- Node8 -->
<g id="Node000008" class="node">
<title>Node8</title>
<g id="a_Node000008"><a xlink:href="group__security.html#structTLSCertPin" target="_top" xlink:title="TLSCertPin &#45; Single certificate pin entry (SPKI SHA256 hash)">
<polygon fill="white" stroke="#666666" points="439,-220 371,-220 371,-201 439,-201 439,-220"/>
<text text-anchor="middle" x="405" y="-208" font-family="Helvetica,sans-Serif" font-size="10.00">TLSCertPin</text>
</a>
</g>
</g>
<!-- Node8&#45;&gt;Node7 -->
<g id="edge9_Node000007_Node000008" class="edge">
<title>Node8&#45;&gt;Node7</title>
<g id="a_edge9_Node000007_Node000008"><a xlink:title=" ">
<path fill="none" stroke="#9a32cd" stroke-dasharray="5,2" d="M405,-190.58C405,-178.63 405,-163.72 405,-154.41"/>
<polygon fill="#9a32cd" stroke="#9a32cd" points="401.5,-190.87 405,-200.87 408.5,-190.87 401.5,-190.87"/>
</a>
</g>
<text text-anchor="middle" x="416" y="-175" font-family="Helvetica,sans-Serif" font-size="10.00" fill="grey"> pins</text>
</g>
</g>
</svg>
</svg>

<style type='text/css'>
<![CDATA[
[data-mouse-over-selected='false'] { opacity: 0.7; }
[data-mouse-over-selected='true']  { opacity: 1.0; }
]]>
</style>
<script type="application/ecmascript"><![CDATA[
document.addEventListener('DOMContentLoaded', (event) => {
  highlightEdges();
  highlightAdjacentNodes();
});
]]></script>
</svg>
