<?xml version="1.0" encoding="UTF-8" standalone="no"?>
<!DOCTYPE svg PUBLIC "-//W3C//DTD SVG 1.1//EN"
 "http://www.w3.org/Graphics/SVG/1.1/DTD/svg11.dtd">
<!-- Generated by graphviz version 2.43.0 (0)
 -->
<!-- Title: SocketHTTPServer_Request_T Pages: 1 -->
<svg width="286pt" height="294pt"
 viewBox="0.00 0.00 285.50 294.00" xmlns="http://www.w3.org/2000/svg" xmlns:xlink="http://www.w3.org/1999/xlink">
<g id="graph0" class="graph" transform="scale(1 1) rotate(0) translate(4 290)">
<title>SocketHTTPServer_Request_T</title>
<!-- Node1 -->
<g id="Node000001" class="node">
<title>Node1</title>
<g id="a_Node000001"><a xlink:title="Internal implementation details of the SocketHTTPServer_Request opaque type.">
<polygon fill="#999999" stroke="#666666" points="244,-19 89,-19 89,0 244,0 244,-19"/>
<text text-anchor="middle" x="166.5" y="-7" font-family="Helvetica,sans-Serif" font-size="10.00">SocketHTTPServer_Request_T</text>
</a>
</g>
</g>
<!-- Node2 -->
<g id="Node000002" class="node">
<title>Node2</title>
<g id="a_Node000002"><a xlink:href="group__http.html#structServerConnection" target="_top" xlink:title="Core internal structure representing an active HTTP client connection.">
<polygon fill="white" stroke="#666666" points="214,-86.5 119,-86.5 119,-67.5 214,-67.5 214,-86.5"/>
<text text-anchor="middle" x="166.5" y="-74.5" font-family="Helvetica,sans-Serif" font-size="10.00">ServerConnection</text>
</a>
</g>
</g>
<!-- Node2&#45;&gt;Node1 -->
<g id="edge1_Node000001_Node000002" class="edge">
<title>Node2&#45;&gt;Node1</title>
<g id="a_edge1_Node000001_Node000002"><a xlink:title=" ">
<path fill="none" stroke="#9a32cd" stroke-dasharray="5,2" d="M166.5,-57.18C166.5,-44.71 166.5,-28.92 166.5,-19.27"/>
<polygon fill="#9a32cd" stroke="#9a32cd" points="163,-57.44 166.5,-67.44 170,-57.44 163,-57.44"/>
</a>
</g>
<text text-anchor="middle" x="179" y="-40" font-family="Helvetica,sans-Serif" font-size="10.00" fill="grey"> conn</text>
</g>
<!-- Node2&#45;&gt;Node2 -->
<g id="edge7_Node000002_Node000002" class="edge">
<title>Node2&#45;&gt;Node2</title>
<g id="a_edge7_Node000002_Node000002"><a xlink:title=" ">
<path fill="none" stroke="#9a32cd" stroke-dasharray="5,2" d="M224.36,-81.89C229.08,-80.83 232,-79.2 232,-77 232,-73.48 224.51,-71.42 214.19,-70.81"/>
<polygon fill="#9a32cd" stroke="#9a32cd" points="223.67,-78.45 214.19,-83.19 224.55,-85.4 223.67,-78.45"/>
</a>
</g>
<text text-anchor="middle" x="243" y="-80" font-family="Helvetica,sans-Serif" font-size="10.00" fill="grey"> next</text>
<text text-anchor="middle" x="243" y="-69" font-family="Helvetica,sans-Serif" font-size="10.00" fill="grey">prev</text>
</g>
<!-- Node3 -->
<g id="Node000003" class="node">
<title>Node3</title>
<g id="a_Node000003"><a xlink:title=" ">
<polygon fill="white" stroke="#666666" points="143,-154 84,-154 84,-135 143,-135 143,-154"/>
<text text-anchor="middle" x="113.5" y="-142" font-family="Helvetica,sans-Serif" font-size="10.00">Socket_T</text>
</a>
</g>
</g>
<!-- Node3&#45;&gt;Node2 -->
<g id="edge2_Node000002_Node000003" class="edge">
<title>Node3&#45;&gt;Node2</title>
<g id="a_edge2_Node000002_Node000003"><a xlink:title=" ">
<path fill="none" stroke="#9a32cd" stroke-dasharray="5,2" d="M126.9,-126.94C137.23,-114.17 151.12,-97.01 159.4,-86.77"/>
<polygon fill="#9a32cd" stroke="#9a32cd" points="124,-124.96 120.43,-134.94 129.44,-129.36 124,-124.96"/>
</a>
</g>
<text text-anchor="middle" x="160" y="-109" font-family="Helvetica,sans-Serif" font-size="10.00" fill="grey"> socket</text>
</g>
<!-- Node4 -->
<g id="Node000004" class="node">
<title>Node4</title>
<g id="a_Node000004"><a xlink:href="group__core__io.html#structSocketBase__T" target="_top" xlink:title="Internal implementation of SocketBase_T opaque type.">
<polygon fill="white" stroke="#666666" points="154,-220 73,-220 73,-201 154,-201 154,-220"/>
<text text-anchor="middle" x="113.5" y="-208" font-family="Helvetica,sans-Serif" font-size="10.00">SocketBase_T</text>
</a>
</g>
</g>
<!-- Node4&#45;&gt;Node3 -->
<g id="edge3_Node000003_Node000004" class="edge">
<title>Node4&#45;&gt;Node3</title>
<g id="a_edge3_Node000003_Node000004"><a xlink:title=" ">
<path fill="none" stroke="#9a32cd" stroke-dasharray="5,2" d="M113.5,-190.58C113.5,-178.63 113.5,-163.72 113.5,-154.41"/>
<polygon fill="#9a32cd" stroke="#9a32cd" points="110,-190.87 113.5,-200.87 117,-190.87 110,-190.87"/>
</a>
</g>
<text text-anchor="middle" x="126" y="-175" font-family="Helvetica,sans-Serif" font-size="10.00" fill="grey"> base</text>
</g>
<!-- Node5 -->
<g id="Node000005" class="node">
<title>Node5</title>
<g id="a_Node000005"><a xlink:href="group__foundation.html#structSocketTimeouts__T" target="_top" xlink:title="Basic timeout configuration structure for socket operations.">
<polygon fill="white" stroke="#666666" points="99,-286 0,-286 0,-267 99,-267 99,-286"/>
<text text-anchor="middle" x="49.5" y="-274" font-family="Helvetica,sans-Serif" font-size="10.00">SocketTimeouts_T</text>
</a>
</g>
</g>
<!-- Node5&#45;&gt;Node4 -->
<g id="edge4_Node000004_Node000005" class="edge">
<title>Node5&#45;&gt;Node4</title>
<g id="a_edge4_Node000004_Node000005"><a xlink:title=" ">
<path fill="none" stroke="#9a32cd" stroke-dasharray="5,2" d="M65.52,-259.48C77.88,-247.12 94.51,-230.49 104.59,-220.41"/>
<polygon fill="#9a32cd" stroke="#9a32cd" points="62.73,-257.32 58.13,-266.87 67.68,-262.27 62.73,-257.32"/>
</a>
</g>
<text text-anchor="middle" x="106" y="-241" font-family="Helvetica,sans-Serif" font-size="10.00" fill="grey"> timeouts</text>
</g>
<!-- Node6 -->
<g id="Node000006" class="node">
<title>Node6</title>
<g id="a_Node000006"><a xlink:href="group__foundation.html#structSocketMetricsSnapshot" target="_top" xlink:title="SocketMetricsSnapshot &#45; Thread&#45;safe snapshot of all library metrics.">
<polygon fill="white" stroke="#666666" points="238,-286 117,-286 117,-267 238,-267 238,-286"/>
<text text-anchor="middle" x="177.5" y="-274" font-family="Helvetica,sans-Serif" font-size="10.00">SocketMetricsSnapshot</text>
</a>
</g>
</g>
<!-- Node6&#45;&gt;Node4 -->
<g id="edge5_Node000004_Node000006" class="edge">
<title>Node6&#45;&gt;Node4</title>
<g id="a_edge5_Node000004_Node000006"><a xlink:title=" ">
<path fill="none" stroke="#9a32cd" stroke-dasharray="5,2" d="M161.48,-259.48C149.12,-247.12 132.49,-230.49 122.41,-220.41"/>
<polygon fill="#9a32cd" stroke="#9a32cd" points="159.32,-262.27 168.87,-266.87 164.27,-257.32 159.32,-262.27"/>
</a>
</g>
<text text-anchor="middle" x="167.5" y="-241" font-family="Helvetica,sans-Serif" font-size="10.00" fill="grey"> metrics</text>
</g>
<!-- Node7 -->
<g id="Node000007" class="node">
<title>Node7</title>
<g id="a_Node000007"><a xlink:href="group__http.html#structSocketHTTP__Request" target="_top" xlink:title="Protocol&#45;agnostic representation of an HTTP request message.">
<polygon fill="white" stroke="#666666" points="277.5,-154 161.5,-154 161.5,-135 277.5,-135 277.5,-154"/>
<text text-anchor="middle" x="219.5" y="-142" font-family="Helvetica,sans-Serif" font-size="10.00">SocketHTTP_Request</text>
</a>
</g>
</g>
<!-- Node7&#45;&gt;Node2 -->
<g id="edge6_Node000002_Node000007" class="edge">
<title>Node7&#45;&gt;Node2</title>
<g id="a_edge6_Node000002_Node000007"><a xlink:title=" ">
<path fill="none" stroke="#9a32cd" stroke-dasharray="5,2" d="M206.1,-126.94C195.77,-114.17 181.88,-97.01 173.6,-86.77"/>
<polygon fill="#9a32cd" stroke="#9a32cd" points="203.56,-129.36 212.57,-134.94 209,-124.96 203.56,-129.36"/>
</a>
</g>
<text text-anchor="middle" x="215.5" y="-109" font-family="Helvetica,sans-Serif" font-size="10.00" fill="grey"> request</text>
</g>
</g>
</svg>
