<?xml version="1.0" encoding="UTF-8" standalone="no"?>
<!DOCTYPE svg PUBLIC "-//W3C//DTD SVG 1.1//EN"
 "http://www.w3.org/Graphics/SVG/1.1/DTD/svg11.dtd">
<!-- Generated by graphviz version 2.43.0 (0)
 -->
<!-- Title: SocketHTTP2_Stream_T Pages: 1 -->
<svg width="306pt" height="173pt"
 viewBox="0.00 0.00 306.00 173.00" xmlns="http://www.w3.org/2000/svg" xmlns:xlink="http://www.w3.org/1999/xlink">

<svg id="main" version="1.1" xmlns="http://www.w3.org/2000/svg" xmlns:xlink="http://www.w3.org/1999/xlink" xml:space="preserve" onload="init(evt)">
<style type="text/css"><![CDATA[
.node, .edge {opacity: 0.7;}
.node.selected, .edge.selected {opacity: 1;}
.edge:hover path { stroke: red; }
.edge:hover polygon { stroke: red; fill: red; }
]]></style>
<script type="application/ecmascript" xlink:href="svg.min.js"/>
<svg id="graph" class="graph">
<g id="graph0" class="graph" transform="scale(1 1) rotate(0) translate(4 169)">
<title>SocketHTTP2_Stream_T</title>
<!-- Node1 -->
<g id="Node000001" class="node">
<title>Node1</title>
<g id="a_Node000001"><a xlink:title="Internal structure for managing an HTTP/2 stream.">
<polygon fill="#999999" stroke="#666666" points="127,-19 0,-19 0,0 127,0 127,-19"/>
<text text-anchor="middle" x="63.5" y="-7" font-family="Helvetica,sans-Serif" font-size="10.00">SocketHTTP2_Stream_T</text>
</a>
</g>
</g>
<!-- Node2 -->
<g id="Node000002" class="node">
<title>Node2</title>
<g id="a_Node000002"><a xlink:href="group__hpack.html#structSocketHPACK__Header" target="_top" xlink:title="HPACK header field representation.">
<polygon fill="white" stroke="#666666" points="122.5,-165 4.5,-165 4.5,-146 122.5,-146 122.5,-165"/>
<text text-anchor="middle" x="63.5" y="-153" font-family="Helvetica,sans-Serif" font-size="10.00">SocketHPACK_Header</text>
</a>
</g>
</g>
<!-- Node2&#45;&gt;Node1 -->
<g id="edge1_Node000001_Node000002" class="edge">
<title>Node2&#45;&gt;Node1</title>
<g id="a_edge1_Node000001_Node000002"><a xlink:title=" ">
<path fill="none" stroke="#9a32cd" stroke-dasharray="5,2" d="M60.51,-136.01C57.98,-118.12 54.98,-90.22 56.5,-66 57.55,-49.33 60.35,-30.01 62.07,-19.12"/>
<polygon fill="#9a32cd" stroke="#9a32cd" points="57.06,-136.6 62.02,-145.96 63.98,-135.55 57.06,-136.6"/>
</a>
</g>
<text text-anchor="middle" x="75.5" y="-80" font-family="Helvetica,sans-Serif" font-size="10.00" fill="grey"> headers</text>
<text text-anchor="middle" x="75.5" y="-69" font-family="Helvetica,sans-Serif" font-size="10.00" fill="grey">trailers</text>
</g>
<!-- Node3 -->
<g id="Node000003" class="node">
<title>Node3</title>
<g id="a_Node000003"><a xlink:href="group__http2__private.html#structSocketHTTP2__Stream" target="_top" xlink:title="Internal structure for managing an HTTP/2 stream.">
<polygon fill="white" stroke="#666666" points="231,-86.5 104,-86.5 104,-67.5 231,-67.5 231,-86.5"/>
<text text-anchor="middle" x="167.5" y="-74.5" font-family="Helvetica,sans-Serif" font-size="10.00">SocketHTTP2_Stream_T</text>
</a>
</g>
</g>
<!-- Node2&#45;&gt;Node3 -->
<g id="edge3_Node000003_Node000002" class="edge">
<title>Node2&#45;&gt;Node3</title>
<g id="a_edge3_Node000003_Node000002"><a xlink:title=" ">
<path fill="none" stroke="#9a32cd" stroke-dasharray="5,2" d="M83.53,-139.76C104.94,-124.02 138.16,-99.58 155.71,-86.67"/>
<polygon fill="#9a32cd" stroke="#9a32cd" points="81.41,-136.98 75.43,-145.72 85.56,-142.62 81.41,-136.98"/>
</a>
</g>
<text text-anchor="middle" x="146.5" y="-120" font-family="Helvetica,sans-Serif" font-size="10.00" fill="grey"> headers</text>
<text text-anchor="middle" x="146.5" y="-109" font-family="Helvetica,sans-Serif" font-size="10.00" fill="grey">trailers</text>
</g>
<!-- Node3&#45;&gt;Node1 -->
<g id="edge2_Node000001_Node000003" class="edge">
<title>Node3&#45;&gt;Node1</title>
<g id="a_edge2_Node000001_Node000003"><a xlink:title=" ">
<path fill="none" stroke="#9a32cd" stroke-dasharray="5,2" d="M145.42,-62.09C124.73,-49.06 94.46,-30 77.1,-19.07"/>
<polygon fill="#9a32cd" stroke="#9a32cd" points="143.58,-65.07 153.9,-67.44 147.31,-59.15 143.58,-65.07"/>
</a>
</g>
<text text-anchor="middle" x="146" y="-40" font-family="Helvetica,sans-Serif" font-size="10.00" fill="grey"> hash_next</text>
</g>
<!-- Node3&#45;&gt;Node3 -->
<g id="edge4_Node000003_Node000003" class="edge">
<title>Node3&#45;&gt;Node3</title>
<g id="a_edge4_Node000003_Node000003"><a xlink:title=" ">
<path fill="none" stroke="#9a32cd" stroke-dasharray="5,2" d="M241.04,-81.59C245.99,-80.53 249,-79 249,-77 249,-73.88 241.67,-71.9 231.06,-71.07"/>
<polygon fill="#9a32cd" stroke="#9a32cd" points="240.5,-78.13 231.06,-82.93 241.43,-85.07 240.5,-78.13"/>
</a>
</g>
<text text-anchor="middle" x="273.5" y="-74.5" font-family="Helvetica,sans-Serif" font-size="10.00" fill="grey"> hash_next</text>
</g>
</g>
</svg>
</svg>

<style type='text/css'>
<![CDATA[
[data-mouse-over-selected='false'] { opacity: 0.7; }
[data-mouse-over-selected='true']  { opacity: 1.0; }
]]>
</style>
<script type="application/ecmascript"><![CDATA[
document.addEventListener('DOMContentLoaded', (event) => {
  highlightEdges();
  highlightAdjacentNodes();
});
]]></script>
</svg>
