<?xml version="1.0" encoding="UTF-8" standalone="no"?>
<!DOCTYPE svg PUBLIC "-//W3C//DTD SVG 1.1//EN"
 "http://www.w3.org/Graphics/SVG/1.1/DTD/svg11.dtd">
<!-- Generated by graphviz version 2.43.0 (0)
 -->
<!-- Title: SocketPoll_T Pages: 1 -->
<svg width="573pt" height="310pt"
 viewBox="0.00 0.00 573.00 310.00" xmlns="http://www.w3.org/2000/svg" xmlns:xlink="http://www.w3.org/1999/xlink">
<g id="graph0" class="graph" transform="scale(1 1) rotate(0) translate(4 306)">
<title>SocketPoll_T</title>
<!-- Node1 -->
<g id="Node000001" class="node">
<title>Node1</title>
<g id="a_Node000001"><a xlink:title="Complete internal state for SocketPoll instance.">
<polygon fill="#999999" stroke="#666666" points="286.5,-19 211.5,-19 211.5,0 286.5,0 286.5,-19"/>
<text text-anchor="middle" x="249" y="-7" font-family="Helvetica,sans-Serif" font-size="10.00">SocketPoll_T</text>
</a>
</g>
</g>
<!-- Node2 -->
<g id="Node000002" class="node">
<title>Node2</title>
<g id="a_Node000002"><a xlink:href="group__event__system.html#structSocketEvent__T" target="_top" xlink:title="Event notification structure returned by polling operations.">
<polygon fill="white" stroke="#666666" points="84,-122 0,-122 0,-103 84,-103 84,-122"/>
<text text-anchor="middle" x="42" y="-110" font-family="Helvetica,sans-Serif" font-size="10.00">SocketEvent_T</text>
</a>
</g>
</g>
<!-- Node2&#45;&gt;Node1 -->
<g id="edge1_Node000001_Node000002" class="edge">
<title>Node2&#45;&gt;Node1</title>
<g id="a_edge1_Node000001_Node000002"><a xlink:title=" ">
<path fill="none" stroke="#9a32cd" stroke-dasharray="5,2" d="M53.59,-94.82C61.02,-85.22 71.42,-73.58 83,-66 122.78,-39.94 175.96,-25 211.29,-17.32"/>
<polygon fill="#9a32cd" stroke="#9a32cd" points="50.76,-92.77 47.65,-102.9 56.4,-96.92 50.76,-92.77"/>
</a>
</g>
<text text-anchor="middle" x="114" y="-73" font-family="Helvetica,sans-Serif" font-size="10.00" fill="grey"> socketevents</text>
</g>
<!-- Node3 -->
<g id="Node000003" class="node">
<title>Node3</title>
<g id="a_Node000003"><a xlink:title=" ">
<polygon fill="white" stroke="#666666" points="234.5,-236 175.5,-236 175.5,-217 234.5,-217 234.5,-236"/>
<text text-anchor="middle" x="205" y="-224" font-family="Helvetica,sans-Serif" font-size="10.00">Socket_T</text>
</a>
</g>
</g>
<!-- Node3&#45;&gt;Node2 -->
<g id="edge2_Node000002_Node000003" class="edge">
<title>Node3&#45;&gt;Node2</title>
<g id="a_edge2_Node000002_Node000003"><a xlink:title=" ">
<path fill="none" stroke="#9a32cd" stroke-dasharray="5,2" d="M165.41,-216.48C151.96,-212.38 137.25,-206.68 125,-199 90.82,-177.57 60.55,-139.18 48.07,-122.1"/>
<polygon fill="#9a32cd" stroke="#9a32cd" points="164.81,-219.95 175.39,-219.32 166.72,-213.22 164.81,-219.95"/>
</a>
</g>
<text text-anchor="middle" x="141.5" y="-185.5" font-family="Helvetica,sans-Serif" font-size="10.00" fill="grey"> socket</text>
</g>
<!-- Node5 -->
<g id="Node000005" class="node">
<title>Node5</title>
<g id="a_Node000005"><a xlink:href="group__event__system.html#structSocketData" target="_top" xlink:title="Hash table entry for socket&#45;to&#45;userdata mapping.">
<polygon fill="white" stroke="#666666" points="164,-122 96,-122 96,-103 164,-103 164,-122"/>
<text text-anchor="middle" x="130" y="-110" font-family="Helvetica,sans-Serif" font-size="10.00">SocketData</text>
</a>
</g>
</g>
<!-- Node3&#45;&gt;Node5 -->
<g id="edge5_Node000005_Node000003" class="edge">
<title>Node3&#45;&gt;Node5</title>
<g id="a_edge5_Node000005_Node000003"><a xlink:title=" ">
<path fill="none" stroke="#9a32cd" stroke-dasharray="5,2" d="M186.22,-210.07C182.6,-206.63 179.01,-202.86 176,-199 156.11,-173.47 140.18,-138.14 133.46,-122.07"/>
<polygon fill="#9a32cd" stroke="#9a32cd" points="184.17,-212.92 193.97,-216.95 188.82,-207.69 184.17,-212.92"/>
</a>
</g>
<text text-anchor="middle" x="192.5" y="-185.5" font-family="Helvetica,sans-Serif" font-size="10.00" fill="grey"> socket</text>
</g>
<!-- Node6 -->
<g id="Node000006" class="node">
<title>Node6</title>
<g id="a_Node000006"><a xlink:href="group__event__system.html#structFdSocketEntry" target="_top" xlink:title="Hash table entry for file descriptor to socket reverse mapping.">
<polygon fill="white" stroke="#666666" points="291,-122 209,-122 209,-103 291,-103 291,-122"/>
<text text-anchor="middle" x="250" y="-110" font-family="Helvetica,sans-Serif" font-size="10.00">FdSocketEntry</text>
</a>
</g>
</g>
<!-- Node3&#45;&gt;Node6 -->
<g id="edge8_Node000006_Node000003" class="edge">
<title>Node3&#45;&gt;Node6</title>
<g id="a_edge8_Node000006_Node000003"><a xlink:title=" ">
<path fill="none" stroke="#9a32cd" stroke-dasharray="5,2" d="M210.09,-206.87C212.75,-197.76 216.23,-186.7 220,-177 227.77,-157 239.04,-134.49 245.32,-122.37"/>
<polygon fill="#9a32cd" stroke="#9a32cd" points="206.64,-206.21 207.29,-216.79 213.38,-208.11 206.64,-206.21"/>
</a>
</g>
<text text-anchor="middle" x="236.5" y="-185.5" font-family="Helvetica,sans-Serif" font-size="10.00" fill="grey"> socket</text>
</g>
<!-- Node8 -->
<g id="Node000008" class="node">
<title>Node8</title>
<g id="a_Node000008"><a xlink:href="structAsyncRequest.html" target="_top" xlink:title="Internal structure for tracking asynchronous I/O requests.">
<polygon fill="white" stroke="#666666" points="384.5,-159 303.5,-159 303.5,-140 384.5,-140 384.5,-159"/>
<text text-anchor="middle" x="344" y="-147" font-family="Helvetica,sans-Serif" font-size="10.00">AsyncRequest</text>
</a>
</g>
</g>
<!-- Node3&#45;&gt;Node8 -->
<g id="edge12_Node000008_Node000003" class="edge">
<title>Node3&#45;&gt;Node8</title>
<g id="a_edge12_Node000008_Node000003"><a xlink:title=" ">
<path fill="none" stroke="#9a32cd" stroke-dasharray="5,2" d="M231.55,-212.21C239.75,-208.04 248.77,-203.39 257,-199 282.48,-185.41 311.74,-168.91 329.01,-159.08"/>
<polygon fill="#9a32cd" stroke="#9a32cd" points="229.76,-209.19 222.42,-216.83 232.92,-215.44 229.76,-209.19"/>
</a>
</g>
<text text-anchor="middle" x="311" y="-191" font-family="Helvetica,sans-Serif" font-size="10.00" fill="grey"> cb</text>
<text text-anchor="middle" x="311" y="-180" font-family="Helvetica,sans-Serif" font-size="10.00" fill="grey">socket</text>
</g>
<!-- Node4 -->
<g id="Node000004" class="node">
<title>Node4</title>
<g id="a_Node000004"><a xlink:href="group__foundation.html#structSocketTimeouts__T" target="_top" xlink:title="Timeout configuration structure for socket operations.">
<polygon fill="white" stroke="#666666" points="254.5,-302 155.5,-302 155.5,-283 254.5,-283 254.5,-302"/>
<text text-anchor="middle" x="205" y="-290" font-family="Helvetica,sans-Serif" font-size="10.00">SocketTimeouts_T</text>
</a>
</g>
</g>
<!-- Node4&#45;&gt;Node3 -->
<g id="edge3_Node000003_Node000004" class="edge">
<title>Node4&#45;&gt;Node3</title>
<g id="a_edge3_Node000003_Node000004"><a xlink:title=" ">
<path fill="none" stroke="#9a32cd" stroke-dasharray="5,2" d="M205,-272.58C205,-260.63 205,-245.72 205,-236.41"/>
<polygon fill="#9a32cd" stroke="#9a32cd" points="201.5,-272.87 205,-282.87 208.5,-272.87 201.5,-272.87"/>
</a>
</g>
<text text-anchor="middle" x="233.5" y="-257" font-family="Helvetica,sans-Serif" font-size="10.00" fill="grey"> tls_timeouts</text>
</g>
<!-- Node5&#45;&gt;Node1 -->
<g id="edge4_Node000001_Node000005" class="edge">
<title>Node5&#45;&gt;Node1</title>
<g id="a_edge4_Node000001_Node000005"><a xlink:title=" ">
<path fill="none" stroke="#9a32cd" stroke-dasharray="5,2" d="M141.23,-94.22C147.57,-85.22 156.01,-74.36 165,-66 186.11,-46.35 214.9,-28.98 232.71,-19.1"/>
<polygon fill="#9a32cd" stroke="#9a32cd" points="138.15,-92.52 135.45,-102.76 143.95,-96.44 138.15,-92.52"/>
</a>
</g>
<text text-anchor="middle" x="205.5" y="-73" font-family="Helvetica,sans-Serif" font-size="10.00" fill="grey"> socket_data_map</text>
</g>
<!-- Node5&#45;&gt;Node5 -->
<g id="edge6_Node000005_Node000005" class="edge">
<title>Node5&#45;&gt;Node5</title>
<g id="a_edge6_Node000005_Node000005"><a xlink:title=" ">
<path fill="none" stroke="#9a32cd" stroke-dasharray="5,2" d="M174.15,-118.15C178.92,-117.06 182,-115.18 182,-112.5 182,-108.21 174.13,-105.97 164.01,-105.76"/>
<polygon fill="#9a32cd" stroke="#9a32cd" points="173.58,-114.69 164.01,-119.24 174.32,-121.65 173.58,-114.69"/>
</a>
</g>
<text text-anchor="middle" x="193" y="-110" font-family="Helvetica,sans-Serif" font-size="10.00" fill="grey"> next</text>
</g>
<!-- Node6&#45;&gt;Node1 -->
<g id="edge7_Node000001_Node000006" class="edge">
<title>Node6&#45;&gt;Node1</title>
<g id="a_edge7_Node000001_Node000006"><a xlink:title=" ">
<path fill="none" stroke="#9a32cd" stroke-dasharray="5,2" d="M249.81,-92.81C249.6,-70.84 249.25,-35.32 249.09,-19.09"/>
<polygon fill="#9a32cd" stroke="#9a32cd" points="246.32,-92.92 249.91,-102.89 253.32,-92.85 246.32,-92.92"/>
</a>
</g>
<text text-anchor="middle" x="292" y="-73" font-family="Helvetica,sans-Serif" font-size="10.00" fill="grey"> fd_to_socket_map</text>
</g>
<!-- Node6&#45;&gt;Node6 -->
<g id="edge9_Node000006_Node000006" class="edge">
<title>Node6&#45;&gt;Node6</title>
<g id="a_edge9_Node000006_Node000006"><a xlink:title=" ">
<path fill="none" stroke="#9a32cd" stroke-dasharray="5,2" d="M301.26,-117.89C306.01,-116.78 309,-114.98 309,-112.5 309,-108.53 301.34,-106.31 291.08,-105.84"/>
<polygon fill="#9a32cd" stroke="#9a32cd" points="300.58,-114.45 291.08,-119.16 301.44,-121.4 300.58,-114.45"/>
</a>
</g>
<text text-anchor="middle" x="320" y="-110" font-family="Helvetica,sans-Serif" font-size="10.00" fill="grey"> next</text>
</g>
<!-- Node7 -->
<g id="Node000007" class="node">
<title>Node7</title>
<g id="a_Node000007"><a xlink:href="group__async__io.html#structSocketAsync__T" target="_top" xlink:title="Opaque structure representing the asynchronous I/O context.">
<polygon fill="white" stroke="#666666" points="437,-85 351,-85 351,-66 437,-66 437,-85"/>
<text text-anchor="middle" x="394" y="-73" font-family="Helvetica,sans-Serif" font-size="10.00">SocketAsync_T</text>
</a>
</g>
</g>
<!-- Node7&#45;&gt;Node1 -->
<g id="edge10_Node000001_Node000007" class="edge">
<title>Node7&#45;&gt;Node1</title>
<g id="a_edge10_Node000001_Node000007"><a xlink:title=" ">
<path fill="none" stroke="#9a32cd" stroke-dasharray="5,2" d="M364.99,-61.69C336.41,-49.08 293.54,-30.16 268.71,-19.2"/>
<polygon fill="#9a32cd" stroke="#9a32cd" points="363.88,-65.03 374.44,-65.87 366.71,-58.63 363.88,-65.03"/>
</a>
</g>
<text text-anchor="middle" x="346" y="-40" font-family="Helvetica,sans-Serif" font-size="10.00" fill="grey"> async</text>
</g>
<!-- Node8&#45;&gt;Node7 -->
<g id="edge11_Node000007_Node000008" class="edge">
<title>Node8&#45;&gt;Node7</title>
<g id="a_edge11_Node000007_Node000008"><a xlink:title=" ">
<path fill="none" stroke="#9a32cd" stroke-dasharray="5,2" d="M355.91,-131.35C366.05,-116.75 380.19,-96.39 388.08,-85.03"/>
<polygon fill="#9a32cd" stroke="#9a32cd" points="352.76,-129.75 349.93,-139.96 358.51,-133.74 352.76,-129.75"/>
</a>
</g>
<text text-anchor="middle" x="395.5" y="-110" font-family="Helvetica,sans-Serif" font-size="10.00" fill="grey"> requests</text>
</g>
<!-- Node8&#45;&gt;Node8 -->
<g id="edge13_Node000008_Node000008" class="edge">
<title>Node8&#45;&gt;Node8</title>
<g id="a_edge13_Node000008_Node000008"><a xlink:title=" ">
<path fill="none" stroke="#9a32cd" stroke-dasharray="5,2" d="M394.82,-154.89C399.53,-153.78 402.5,-151.98 402.5,-149.5 402.5,-145.53 394.9,-143.31 384.73,-142.84"/>
<polygon fill="#9a32cd" stroke="#9a32cd" points="394.22,-151.44 384.73,-156.16 395.09,-158.39 394.22,-151.44"/>
</a>
</g>
<text text-anchor="middle" x="413.5" y="-147" font-family="Helvetica,sans-Serif" font-size="10.00" fill="grey"> next</text>
</g>
<!-- Node9 -->
<g id="Node000009" class="node">
<title>Node9</title>
<g id="a_Node000009"><a xlink:href="SocketTimer-private_8h.html#structSocketTimer__heap__T" target="_top" xlink:title="Typedef for the internal timer heap structure.">
<polygon fill="white" stroke="#666666" points="565,-85 455,-85 455,-66 565,-66 565,-85"/>
<text text-anchor="middle" x="510" y="-73" font-family="Helvetica,sans-Serif" font-size="10.00">SocketTimer_heap_T</text>
</a>
</g>
</g>
<!-- Node9&#45;&gt;Node1 -->
<g id="edge14_Node000001_Node000009" class="edge">
<title>Node9&#45;&gt;Node1</title>
<g id="a_edge14_Node000001_Node000009"><a xlink:title=" ">
<path fill="none" stroke="#9a32cd" stroke-dasharray="5,2" d="M468.33,-63.39C439.39,-55.75 399.92,-45.5 365,-37 338.91,-30.65 309.4,-23.91 286.68,-18.82"/>
<polygon fill="#9a32cd" stroke="#9a32cd" points="467.54,-66.8 478.1,-65.97 469.33,-60.03 467.54,-66.8"/>
</a>
</g>
<text text-anchor="middle" x="435" y="-40" font-family="Helvetica,sans-Serif" font-size="10.00" fill="grey"> timer_heap</text>
</g>
<!-- Node10 -->
<g id="Node000010" class="node">
<title>Node10</title>
<g id="a_Node000010"><a xlink:href="SocketTimer-private_8h.html#structSocketTimer__T" target="_top" xlink:title=" ">
<polygon fill="white" stroke="#666666" points="551.5,-159 468.5,-159 468.5,-140 551.5,-140 551.5,-159"/>
<text text-anchor="middle" x="510" y="-147" font-family="Helvetica,sans-Serif" font-size="10.00">SocketTimer_T</text>
</a>
</g>
</g>
<!-- Node10&#45;&gt;Node9 -->
<g id="edge15_Node000009_Node000010" class="edge">
<title>Node10&#45;&gt;Node9</title>
<g id="a_edge15_Node000009_Node000010"><a xlink:title=" ">
<path fill="none" stroke="#9a32cd" stroke-dasharray="5,2" d="M510,-129.66C510,-115.21 510,-95.96 510,-85.03"/>
<polygon fill="#9a32cd" stroke="#9a32cd" points="506.5,-129.96 510,-139.96 513.5,-129.96 506.5,-129.96"/>
</a>
</g>
<text text-anchor="middle" x="525.5" y="-110" font-family="Helvetica,sans-Serif" font-size="10.00" fill="grey"> timers</text>
</g>
</g>
</svg>
