<?xml version="1.0" encoding="UTF-8" standalone="no"?>
<!DOCTYPE svg PUBLIC "-//W3C//DTD SVG 1.1//EN"
 "http://www.w3.org/Graphics/SVG/1.1/DTD/svg11.dtd">
<!-- Generated by graphviz version 2.43.0 (0)
 -->
<!-- Title: SocketDNS_T Pages: 1 -->
<svg width="199pt" height="129pt"
 viewBox="0.00 0.00 199.00 129.00" xmlns="http://www.w3.org/2000/svg" xmlns:xlink="http://www.w3.org/1999/xlink">
<g id="graph0" class="graph" transform="scale(1 1) rotate(0) translate(4 125)">
<title>SocketDNS_T</title>
<!-- Node1 -->
<g id="Node000001" class="node">
<title>Node1</title>
<g id="a_Node000001"><a xlink:title="Async DNS resolver structure.">
<polygon fill="#999999" stroke="#666666" points="101,-121 21,-121 21,-102 101,-102 101,-121"/>
<text text-anchor="middle" x="61" y="-109" font-family="Helvetica,sans-Serif" font-size="10.00">SocketDNS_T</text>
</a>
</g>
</g>
<!-- Node2 -->
<g id="Node000002" class="node">
<title>Node2</title>
<g id="a_Node000002"><a xlink:href="group__dns.html#structSocketDNS__Request__T" target="_top" xlink:title="DNS resolution request structure.">
<polygon fill="white" stroke="#666666" points="122,-26 0,-26 0,-7 122,-7 122,-26"/>
<text text-anchor="middle" x="61" y="-14" font-family="Helvetica,sans-Serif" font-size="10.00">SocketDNS_Request_T</text>
</a>
</g>
</g>
<!-- Node1&#45;&gt;Node2 -->
<g id="edge3_Node000002_Node000001" class="edge">
<title>Node1&#45;&gt;Node2</title>
<g id="a_edge3_Node000002_Node000001"><a xlink:title=" ">
<path fill="none" stroke="#9a32cd" stroke-dasharray="5,2" d="M28.56,-96.49C23.93,-93.08 19.8,-88.95 17,-84 9.78,-71.23 10.49,-64.14 17,-51 22.37,-40.16 33.11,-31.88 42.64,-26.26"/>
<polygon fill="#9a32cd" stroke="#9a32cd" points="26.9,-99.58 37.25,-101.87 30.59,-93.62 26.9,-99.58"/>
</a>
</g>
<text text-anchor="middle" x="46.5" y="-65" font-family="Helvetica,sans-Serif" font-size="10.00" fill="grey"> dns_resolver</text>
</g>
<!-- Node2&#45;&gt;Node1 -->
<g id="edge1_Node000001_Node000002" class="edge">
<title>Node2&#45;&gt;Node1</title>
<g id="a_edge1_Node000001_Node000002"><a xlink:title=" ">
<path fill="none" stroke="#9a32cd" stroke-dasharray="5,2" d="M73.01,-34.75C75.88,-39.77 78.52,-45.41 80,-51 83.74,-65.18 84.49,-70.04 80,-84 77.85,-90.68 73.33,-97.11 69.23,-101.96"/>
<polygon fill="#9a32cd" stroke="#9a32cd" points="75.81,-32.63 67.51,-26.05 69.9,-36.37 75.81,-32.63"/>
</a>
</g>
<text text-anchor="middle" x="112.5" y="-76" font-family="Helvetica,sans-Serif" font-size="10.00" fill="grey"> queue_head</text>
<text text-anchor="middle" x="112.5" y="-65" font-family="Helvetica,sans-Serif" font-size="10.00" fill="grey">queue_tail</text>
<text text-anchor="middle" x="112.5" y="-54" font-family="Helvetica,sans-Serif" font-size="10.00" fill="grey">request_hash</text>
</g>
<!-- Node2&#45;&gt;Node2 -->
<g id="edge2_Node000002_Node000002" class="edge">
<title>Node2&#45;&gt;Node2</title>
<g id="a_edge2_Node000002_Node000002"><a xlink:title=" ">
<path fill="none" stroke="#9a32cd" stroke-dasharray="5,2" d="M132.13,-23.3C137.02,-21.74 140,-19.47 140,-16.5 140,-11.86 132.75,-8.94 122.28,-7.75"/>
<polygon fill="#9a32cd" stroke="#9a32cd" points="131.41,-19.87 122.28,-25.25 132.77,-26.74 131.41,-19.87"/>
</a>
</g>
<text text-anchor="middle" x="165.5" y="-25" font-family="Helvetica,sans-Serif" font-size="10.00" fill="grey"> callback</text>
<text text-anchor="middle" x="165.5" y="-14" font-family="Helvetica,sans-Serif" font-size="10.00" fill="grey">hash_next</text>
<text text-anchor="middle" x="165.5" y="-3" font-family="Helvetica,sans-Serif" font-size="10.00" fill="grey">queue_next</text>
</g>
</g>
</svg>
