<?xml version="1.0" encoding="UTF-8" standalone="no"?>
<!DOCTYPE svg PUBLIC "-//W3C//DTD SVG 1.1//EN"
 "http://www.w3.org/Graphics/SVG/1.1/DTD/svg11.dtd">
<!-- Generated by graphviz version 2.43.0 (0)
 -->
<!-- Title: SocketProxy_Conn_T Pages: 1 -->
<svg width="1313pt" height="656pt"
 viewBox="0.00 0.00 1313.00 655.50" xmlns="http://www.w3.org/2000/svg" xmlns:xlink="http://www.w3.org/1999/xlink">
<g id="graph0" class="graph" transform="scale(1 1) rotate(0) translate(4 651.5)">
<title>SocketProxy_Conn_T</title>
<!-- Node1 -->
<g id="Node000001" class="node">
<title>Node1</title>
<g id="a_Node000001"><a xlink:title="Opaque proxy connection context for managing tunneling negotiation.">
<polygon fill="#999999" stroke="#666666" points="1305,-323.5 1192,-323.5 1192,-304.5 1305,-304.5 1305,-323.5"/>
<text text-anchor="middle" x="1248.5" y="-311.5" font-family="Helvetica,sans-Serif" font-size="10.00">SocketProxy_Conn_T</text>
</a>
</g>
</g>
<!-- Node2 -->
<g id="Node000002" class="node">
<title>Node2</title>
<g id="a_Node000002"><a xlink:href="group__security.html#structSocketTLSContext__T" target="_top" xlink:title="TLS context structure for managing OpenSSL SSL_CTX with secure defaults, certificates,...">
<polygon fill="white" stroke="#666666" points="1123,-592.5 1012,-592.5 1012,-573.5 1123,-573.5 1123,-592.5"/>
<text text-anchor="middle" x="1067.5" y="-580.5" font-family="Helvetica,sans-Serif" font-size="10.00">SocketTLSContext_T</text>
</a>
</g>
</g>
<!-- Node2&#45;&gt;Node1 -->
<g id="edge1_Node000001_Node000002" class="edge">
<title>Node2&#45;&gt;Node1</title>
<g id="a_edge1_Node000001_Node000002"><a xlink:title=" ">
<path fill="none" stroke="#9a32cd" stroke-dasharray="5,2" d="M1092.13,-567.83C1115.62,-551.72 1151.33,-524.29 1174,-493 1215.4,-435.87 1238.34,-352.02 1245.24,-323.73"/>
<polygon fill="#9a32cd" stroke="#9a32cd" points="1090.13,-564.96 1083.78,-573.44 1094.03,-570.77 1090.13,-564.96"/>
</a>
</g>
<text text-anchor="middle" x="1157.5" y="-529" font-family="Helvetica,sans-Serif" font-size="10.00" fill="grey"> tls_ctx</text>
</g>
<!-- Node2&#45;&gt;Node2 -->
<g id="edge4_Node000002_Node000002" class="edge">
<title>Node2&#45;&gt;Node2</title>
<g id="a_edge4_Node000002_Node000002"><a xlink:title=" ">
<path fill="none" stroke="#9a32cd" stroke-dasharray="5,2" d="M1050.93,-602.41C1052.23,-607.06 1057.75,-610.5 1067.5,-610.5 1083.5,-610.5 1088.12,-601.23 1081.37,-592.58"/>
<polygon fill="#9a32cd" stroke="#9a32cd" points="1054.35,-603.15 1053.63,-592.58 1047.6,-601.3 1054.35,-603.15"/>
</a>
</g>
<text text-anchor="middle" x="1067.5" y="-613.5" font-family="Helvetica,sans-Serif" font-size="10.00" fill="grey"> verify_callback</text>
</g>
<!-- Node3 -->
<g id="Node000003" class="node">
<title>Node3</title>
<g id="a_Node000003"><a xlink:href="structTLSContextSNICerts.html" target="_top" xlink:title="Structure for managing SNI certificate mappings in TLS context.">
<polygon fill="white" stroke="#666666" points="905.5,-647.5 795.5,-647.5 795.5,-628.5 905.5,-628.5 905.5,-647.5"/>
<text text-anchor="middle" x="850.5" y="-635.5" font-family="Helvetica,sans-Serif" font-size="10.00">TLSContextSNICerts</text>
</a>
</g>
</g>
<!-- Node3&#45;&gt;Node2 -->
<g id="edge2_Node000002_Node000003" class="edge">
<title>Node3&#45;&gt;Node2</title>
<g id="a_edge2_Node000002_Node000003"><a xlink:title=" ">
<path fill="none" stroke="#9a32cd" stroke-dasharray="5,2" d="M914.71,-626.45C939.59,-621.45 968.3,-615.11 994,-608 1009.91,-603.6 1027.42,-597.6 1041.24,-592.58"/>
<polygon fill="#9a32cd" stroke="#9a32cd" points="913.79,-623.07 904.66,-628.44 915.15,-629.93 913.79,-623.07"/>
</a>
</g>
<text text-anchor="middle" x="965.5" y="-624" font-family="Helvetica,sans-Serif" font-size="10.00" fill="grey"> sni_certs</text>
</g>
<!-- Node4 -->
<g id="Node000004" class="node">
<title>Node4</title>
<g id="a_Node000004"><a xlink:href="group__security.html#structTLSContextALPN" target="_top" xlink:title="Configuration for ALPN protocol negotiation.">
<polygon fill="white" stroke="#666666" points="898,-610.5 803,-610.5 803,-591.5 898,-591.5 898,-610.5"/>
<text text-anchor="middle" x="850.5" y="-598.5" font-family="Helvetica,sans-Serif" font-size="10.00">TLSContextALPN</text>
</a>
</g>
</g>
<!-- Node4&#45;&gt;Node2 -->
<g id="edge3_Node000002_Node000004" class="edge">
<title>Node4&#45;&gt;Node2</title>
<g id="a_edge3_Node000002_Node000004"><a xlink:title=" ">
<path fill="none" stroke="#9a32cd" stroke-dasharray="5,2" d="M908.27,-596.25C940.35,-593.56 980.25,-590.22 1011.96,-587.57"/>
<polygon fill="#9a32cd" stroke="#9a32cd" points="907.82,-592.77 898.15,-597.09 908.41,-599.75 907.82,-592.77"/>
</a>
</g>
<text text-anchor="middle" x="965.5" y="-596" font-family="Helvetica,sans-Serif" font-size="10.00" fill="grey"> alpn</text>
</g>
<!-- Node5 -->
<g id="Node000005" class="node">
<title>Node5</title>
<g id="a_Node000005"><a xlink:href="group__security.html#structTLSContextPinning" target="_top" xlink:title="TLSContextPinning &#45; Certificate pinning configuration.">
<polygon fill="white" stroke="#666666" points="901,-573.5 800,-573.5 800,-554.5 901,-554.5 901,-573.5"/>
<text text-anchor="middle" x="850.5" y="-561.5" font-family="Helvetica,sans-Serif" font-size="10.00">TLSContextPinning</text>
</a>
</g>
</g>
<!-- Node5&#45;&gt;Node2 -->
<g id="edge5_Node000002_Node000005" class="edge">
<title>Node5&#45;&gt;Node2</title>
<g id="a_edge5_Node000002_Node000005"><a xlink:title=" ">
<path fill="none" stroke="#9a32cd" stroke-dasharray="5,2" d="M911.28,-567.48C936.79,-569.15 966.88,-571.37 994,-574 999.81,-574.56 1005.87,-575.22 1011.9,-575.91"/>
<polygon fill="#9a32cd" stroke="#9a32cd" points="911.22,-563.97 901.02,-566.82 910.77,-570.96 911.22,-563.97"/>
</a>
</g>
<text text-anchor="middle" x="965.5" y="-577" font-family="Helvetica,sans-Serif" font-size="10.00" fill="grey"> pinning</text>
</g>
<!-- Node6 -->
<g id="Node000006" class="node">
<title>Node6</title>
<g id="a_Node000006"><a xlink:href="group__security.html#structTLSCertPin" target="_top" xlink:title="TLSCertPin &#45; Single certificate pin entry (SPKI SHA256 hash)">
<polygon fill="white" stroke="#666666" points="612,-573.5 544,-573.5 544,-554.5 612,-554.5 612,-573.5"/>
<text text-anchor="middle" x="578" y="-561.5" font-family="Helvetica,sans-Serif" font-size="10.00">TLSCertPin</text>
</a>
</g>
</g>
<!-- Node6&#45;&gt;Node5 -->
<g id="edge6_Node000005_Node000006" class="edge">
<title>Node6&#45;&gt;Node5</title>
<g id="a_edge6_Node000005_Node000006"><a xlink:title=" ">
<path fill="none" stroke="#9a32cd" stroke-dasharray="5,2" d="M622.33,-564C670.79,-564 749.14,-564 799.98,-564"/>
<polygon fill="#9a32cd" stroke="#9a32cd" points="622.17,-560.5 612.17,-564 622.17,-567.5 622.17,-560.5"/>
</a>
</g>
<text text-anchor="middle" x="707.5" y="-567" font-family="Helvetica,sans-Serif" font-size="10.00" fill="grey"> pins</text>
</g>
<!-- Node7 -->
<g id="Node000007" class="node">
<title>Node7</title>
<g id="a_Node000007"><a xlink:title=" ">
<polygon fill="white" stroke="#666666" points="251,-172.5 192,-172.5 192,-153.5 251,-153.5 251,-172.5"/>
<text text-anchor="middle" x="221.5" y="-160.5" font-family="Helvetica,sans-Serif" font-size="10.00">Socket_T</text>
</a>
</g>
</g>
<!-- Node7&#45;&gt;Node1 -->
<g id="edge7_Node000001_Node000007" class="edge">
<title>Node7&#45;&gt;Node1</title>
<g id="a_edge7_Node000001_Node000007"><a xlink:title=" ">
<path fill="none" stroke="#9a32cd" stroke-dasharray="5,2" d="M228.56,-143.64C243.42,-100.45 285.98,0 360.5,0 360.5,0 360.5,0 1068.5,0 1212.2,0 1242.04,-251.26 1246.74,-304.26"/>
<polygon fill="#9a32cd" stroke="#9a32cd" points="225.18,-142.7 225.38,-153.29 231.83,-144.89 225.18,-142.7"/>
</a>
</g>
<text text-anchor="middle" x="707.5" y="-3" font-family="Helvetica,sans-Serif" font-size="10.00" fill="grey"> socket</text>
</g>
<!-- Node12 -->
<g id="Node000012" class="node">
<title>Node12</title>
<g id="a_Node000012"><a xlink:href="group__event__system.html#structSocketEvent__T" target="_top" xlink:title="Event notification structure returned by polling operations.">
<polygon fill="white" stroke="#666666" points="505,-102.5 421,-102.5 421,-83.5 505,-83.5 505,-102.5"/>
<text text-anchor="middle" x="463" y="-90.5" font-family="Helvetica,sans-Serif" font-size="10.00">SocketEvent_T</text>
</a>
</g>
</g>
<!-- Node7&#45;&gt;Node12 -->
<g id="edge15_Node000012_Node000007" class="edge">
<title>Node7&#45;&gt;Node12</title>
<g id="a_edge15_Node000012_Node000007"><a xlink:title=" ">
<path fill="none" stroke="#9a32cd" stroke-dasharray="5,2" d="M243.41,-147.47C262.36,-134.28 291.59,-116.09 320,-107 352.91,-96.46 392.12,-93.25 420.99,-92.51"/>
<polygon fill="#9a32cd" stroke="#9a32cd" points="241.34,-144.65 235.22,-153.3 245.4,-150.35 241.34,-144.65"/>
</a>
</g>
<text text-anchor="middle" x="285.5" y="-134" font-family="Helvetica,sans-Serif" font-size="10.00" fill="grey"> socket</text>
</g>
<!-- Node13 -->
<g id="Node000013" class="node">
<title>Node13</title>
<g id="a_Node000013"><a xlink:href="group__event__system.html#structSocketData" target="_top" xlink:title="Hash table entry for socket&#45;to&#45;userdata mapping.">
<polygon fill="white" stroke="#666666" points="497,-49.5 429,-49.5 429,-30.5 497,-30.5 497,-49.5"/>
<text text-anchor="middle" x="463" y="-37.5" font-family="Helvetica,sans-Serif" font-size="10.00">SocketData</text>
</a>
</g>
</g>
<!-- Node7&#45;&gt;Node13 -->
<g id="edge17_Node000013_Node000007" class="edge">
<title>Node7&#45;&gt;Node13</title>
<g id="a_edge17_Node000013_Node000007"><a xlink:title=" ">
<path fill="none" stroke="#9a32cd" stroke-dasharray="5,2" d="M231.88,-144.54C239.93,-130.44 252.8,-111.52 269,-100 318.04,-65.12 387.99,-50.05 428.83,-43.9"/>
<polygon fill="#9a32cd" stroke="#9a32cd" points="228.77,-142.93 227.09,-153.39 234.93,-146.26 228.77,-142.93"/>
</a>
</g>
<text text-anchor="middle" x="285.5" y="-103" font-family="Helvetica,sans-Serif" font-size="10.00" fill="grey"> socket</text>
</g>
<!-- Node14 -->
<g id="Node000014" class="node">
<title>Node14</title>
<g id="a_Node000014"><a xlink:href="group__event__system.html#structFdSocketEntry" target="_top" xlink:title="Hash table entry for file descriptor to socket reverse mapping.">
<polygon fill="white" stroke="#666666" points="504,-223.5 422,-223.5 422,-204.5 504,-204.5 504,-223.5"/>
<text text-anchor="middle" x="463" y="-211.5" font-family="Helvetica,sans-Serif" font-size="10.00">FdSocketEntry</text>
</a>
</g>
</g>
<!-- Node7&#45;&gt;Node14 -->
<g id="edge20_Node000014_Node000007" class="edge">
<title>Node7&#45;&gt;Node14</title>
<g id="a_edge20_Node000014_Node000007"><a xlink:title=" ">
<path fill="none" stroke="#9a32cd" stroke-dasharray="5,2" d="M247.49,-177.69C254.37,-181.54 261.9,-185.57 269,-189 291.07,-199.67 296.02,-204.9 320,-210 353.77,-217.18 393.08,-217.7 421.76,-216.7"/>
<polygon fill="#9a32cd" stroke="#9a32cd" points="249.02,-174.54 238.6,-172.63 245.56,-180.62 249.02,-174.54"/>
</a>
</g>
<text text-anchor="middle" x="285.5" y="-208" font-family="Helvetica,sans-Serif" font-size="10.00" fill="grey"> socket</text>
</g>
<!-- Node16 -->
<g id="Node000016" class="node">
<title>Node16</title>
<g id="a_Node000016"><a xlink:href="structAsyncRequest.html" target="_top" xlink:title="Internal structure for tracking asynchronous I/O requests.">
<polygon fill="white" stroke="#666666" points="402,-172.5 321,-172.5 321,-153.5 402,-153.5 402,-172.5"/>
<text text-anchor="middle" x="361.5" y="-160.5" font-family="Helvetica,sans-Serif" font-size="10.00">AsyncRequest</text>
</a>
</g>
</g>
<!-- Node7&#45;&gt;Node16 -->
<g id="edge24_Node000016_Node000007" class="edge">
<title>Node7&#45;&gt;Node16</title>
<g id="a_edge24_Node000016_Node000007"><a xlink:title=" ">
<path fill="none" stroke="#9a32cd" stroke-dasharray="5,2" d="M261.3,-163C279.94,-163 302.23,-163 320.95,-163"/>
<polygon fill="#9a32cd" stroke="#9a32cd" points="261.09,-159.5 251.09,-163 261.09,-166.5 261.09,-159.5"/>
</a>
</g>
<text text-anchor="middle" x="285.5" y="-177" font-family="Helvetica,sans-Serif" font-size="10.00" fill="grey"> cb</text>
<text text-anchor="middle" x="285.5" y="-166" font-family="Helvetica,sans-Serif" font-size="10.00" fill="grey">socket</text>
</g>
<!-- Node19 -->
<g id="Node000019" class="node">
<title>Node19</title>
<g id="a_Node000019"><a xlink:href="group__async__io.html#structSocketHE__T" target="_top" xlink:title="Main context structure for Happy Eyeballs (RFC 8305) connection racing.">
<polygon fill="white" stroke="#666666" points="1104,-323.5 1031,-323.5 1031,-304.5 1104,-304.5 1104,-323.5"/>
<text text-anchor="middle" x="1067.5" y="-311.5" font-family="Helvetica,sans-Serif" font-size="10.00">SocketHE_T</text>
</a>
</g>
</g>
<!-- Node7&#45;&gt;Node19 -->
<g id="edge36_Node000019_Node000007" class="edge">
<title>Node7&#45;&gt;Node19</title>
<g id="a_edge36_Node000019_Node000007"><a xlink:title=" ">
<path fill="none" stroke="#9a32cd" stroke-dasharray="5,2" d="M234.39,-181.05C255.75,-211.07 303.75,-268 360.5,-268 360.5,-268 360.5,-268 851.5,-268 920.59,-268 999.46,-291 1039.74,-304.47"/>
<polygon fill="#9a32cd" stroke="#9a32cd" points="237.18,-178.94 228.63,-172.69 231.42,-182.91 237.18,-178.94"/>
</a>
</g>
<text text-anchor="middle" x="578" y="-271" font-family="Helvetica,sans-Serif" font-size="10.00" fill="grey"> winner</text>
</g>
<!-- Node22 -->
<g id="Node000022" class="node">
<title>Node22</title>
<g id="a_Node000022"><a xlink:href="group__async__io.html#structSocketHE__Attempt__T" target="_top" xlink:title="Single connection attempt structure in Happy Eyeballs racing.">
<polygon fill="white" stroke="#666666" points="764,-524.5 651,-524.5 651,-505.5 764,-505.5 764,-524.5"/>
<text text-anchor="middle" x="707.5" y="-512.5" font-family="Helvetica,sans-Serif" font-size="10.00">SocketHE_Attempt_T</text>
</a>
</g>
</g>
<!-- Node7&#45;&gt;Node22 -->
<g id="edge35_Node000022_Node000007" class="edge">
<title>Node7&#45;&gt;Node22</title>
<g id="a_edge35_Node000022_Node000007"><a xlink:title=" ">
<path fill="none" stroke="#9a32cd" stroke-dasharray="5,2" d="M225.91,-182.77C231.2,-208.31 243.54,-252.93 269,-282 383.11,-412.28 588.19,-481.72 670.68,-505.46"/>
<polygon fill="#9a32cd" stroke="#9a32cd" points="229.32,-181.97 224.01,-172.8 222.44,-183.28 229.32,-181.97"/>
</a>
</g>
<text text-anchor="middle" x="361.5" y="-392" font-family="Helvetica,sans-Serif" font-size="10.00" fill="grey"> socket</text>
</g>
<!-- Node8 -->
<g id="Node000008" class="node">
<title>Node8</title>
<g id="a_Node000008"><a xlink:href="group__foundation.html#structSocketTimeouts__T" target="_top" xlink:title="Timeout configuration structure for socket operations.">
<polygon fill="white" stroke="#666666" points="99,-172.5 0,-172.5 0,-153.5 99,-153.5 99,-172.5"/>
<text text-anchor="middle" x="49.5" y="-160.5" font-family="Helvetica,sans-Serif" font-size="10.00">SocketTimeouts_T</text>
</a>
</g>
</g>
<!-- Node8&#45;&gt;Node7 -->
<g id="edge8_Node000007_Node000008" class="edge">
<title>Node8&#45;&gt;Node7</title>
<g id="a_edge8_Node000007_Node000008"><a xlink:title=" ">
<path fill="none" stroke="#9a32cd" stroke-dasharray="5,2" d="M109.31,-163C137.29,-163 169.46,-163 191.98,-163"/>
<polygon fill="#9a32cd" stroke="#9a32cd" points="109.22,-159.5 99.22,-163 109.22,-166.5 109.22,-159.5"/>
</a>
</g>
<text text-anchor="middle" x="145.5" y="-166" font-family="Helvetica,sans-Serif" font-size="10.00" fill="grey"> tls_timeouts</text>
</g>
<!-- Node9 -->
<g id="Node000009" class="node">
<title>Node9</title>
<g id="a_Node000009"><a xlink:href="group__dns.html#structSocketDNS__T" target="_top" xlink:title="Async DNS resolver structure.">
<polygon fill="white" stroke="#666666" points="618,-387.5 538,-387.5 538,-368.5 618,-368.5 618,-387.5"/>
<text text-anchor="middle" x="578" y="-375.5" font-family="Helvetica,sans-Serif" font-size="10.00">SocketDNS_T</text>
</a>
</g>
</g>
<!-- Node9&#45;&gt;Node1 -->
<g id="edge9_Node000001_Node000009" class="edge">
<title>Node9&#45;&gt;Node1</title>
<g id="a_edge9_Node000001_Node000009"><a xlink:title=" ">
<path fill="none" stroke="#9a32cd" stroke-dasharray="5,2" d="M605.5,-392.57C643.32,-412.46 715.55,-447.09 782,-460 841.77,-471.62 858.84,-469.39 919,-460 1049.73,-439.59 1189.22,-352.86 1233.31,-323.65"/>
<polygon fill="#9a32cd" stroke="#9a32cd" points="606.69,-389.24 596.22,-387.62 603.39,-395.42 606.69,-389.24"/>
</a>
</g>
<text text-anchor="middle" x="965.5" y="-459" font-family="Helvetica,sans-Serif" font-size="10.00" fill="grey"> dns</text>
</g>
<!-- Node10 -->
<g id="Node000010" class="node">
<title>Node10</title>
<g id="a_Node000010"><a xlink:href="group__dns.html#structSocketDNS__Request__T" target="_top" xlink:title="DNS resolution request structure.">
<polygon fill="white" stroke="#666666" points="911.5,-362.5 789.5,-362.5 789.5,-343.5 911.5,-343.5 911.5,-362.5"/>
<text text-anchor="middle" x="850.5" y="-350.5" font-family="Helvetica,sans-Serif" font-size="10.00">SocketDNS_Request_T</text>
</a>
</g>
</g>
<!-- Node9&#45;&gt;Node10 -->
<g id="edge12_Node000010_Node000009" class="edge">
<title>Node9&#45;&gt;Node10</title>
<g id="a_edge12_Node000010_Node000009"><a xlink:title=" ">
<path fill="none" stroke="#9a32cd" stroke-dasharray="5,2" d="M628.46,-385.08C665.95,-389.13 718.58,-391.98 764,-384 787.17,-379.93 812.33,-370.1 829.32,-362.59"/>
<polygon fill="#9a32cd" stroke="#9a32cd" points="628.64,-381.58 618.31,-383.91 627.84,-388.53 628.64,-381.58"/>
</a>
</g>
<text text-anchor="middle" x="707.5" y="-392" font-family="Helvetica,sans-Serif" font-size="10.00" fill="grey"> dns_resolver</text>
</g>
<!-- Node9&#45;&gt;Node19 -->
<g id="edge30_Node000019_Node000009" class="edge">
<title>Node9&#45;&gt;Node19</title>
<g id="a_edge30_Node000019_Node000009"><a xlink:title=" ">
<path fill="none" stroke="#9a32cd" stroke-dasharray="5,2" d="M601.93,-363.13C615.63,-354.96 633.69,-345.42 651,-340 786.01,-297.71 957.49,-304.89 1030.72,-310.61"/>
<polygon fill="#9a32cd" stroke="#9a32cd" points="599.89,-360.27 593.21,-368.49 603.56,-366.24 599.89,-360.27"/>
</a>
</g>
<text text-anchor="middle" x="850.5" y="-315" font-family="Helvetica,sans-Serif" font-size="10.00" fill="grey"> dns</text>
</g>
<!-- Node10&#45;&gt;Node9 -->
<g id="edge10_Node000009_Node000010" class="edge">
<title>Node10&#45;&gt;Node9</title>
<g id="a_edge10_Node000009_Node000010"><a xlink:title=" ">
<path fill="none" stroke="#9a32cd" stroke-dasharray="5,2" d="M779.07,-345.87C740.88,-343.61 693.02,-343.38 651,-351 632.61,-354.33 612.8,-362.1 598.62,-368.45"/>
<polygon fill="#9a32cd" stroke="#9a32cd" points="778.86,-349.36 789.07,-346.52 779.31,-342.38 778.86,-349.36"/>
</a>
</g>
<text text-anchor="middle" x="707.5" y="-376" font-family="Helvetica,sans-Serif" font-size="10.00" fill="grey"> queue_head</text>
<text text-anchor="middle" x="707.5" y="-365" font-family="Helvetica,sans-Serif" font-size="10.00" fill="grey">queue_tail</text>
<text text-anchor="middle" x="707.5" y="-354" font-family="Helvetica,sans-Serif" font-size="10.00" fill="grey">request_hash</text>
</g>
<!-- Node10&#45;&gt;Node10 -->
<g id="edge11_Node000010_Node000010" class="edge">
<title>Node10&#45;&gt;Node10</title>
<g id="a_edge11_Node000010_Node000010"><a xlink:title=" ">
<path fill="none" stroke="#9a32cd" stroke-dasharray="5,2" d="M829.39,-372.05C830.8,-376.88 837.84,-380.5 850.5,-380.5 870.76,-380.5 876.62,-371.23 868.07,-362.58"/>
<polygon fill="#9a32cd" stroke="#9a32cd" points="832.71,-373.18 832.93,-362.58 826.15,-370.72 832.71,-373.18"/>
</a>
</g>
<text text-anchor="middle" x="850.5" y="-405.5" font-family="Helvetica,sans-Serif" font-size="10.00" fill="grey"> callback</text>
<text text-anchor="middle" x="850.5" y="-394.5" font-family="Helvetica,sans-Serif" font-size="10.00" fill="grey">hash_next</text>
<text text-anchor="middle" x="850.5" y="-383.5" font-family="Helvetica,sans-Serif" font-size="10.00" fill="grey">queue_next</text>
</g>
<!-- Node10&#45;&gt;Node19 -->
<g id="edge32_Node000019_Node000010" class="edge">
<title>Node10&#45;&gt;Node19</title>
<g id="a_edge32_Node000019_Node000010"><a xlink:title=" ">
<path fill="none" stroke="#9a32cd" stroke-dasharray="5,2" d="M917.16,-341.72C941.34,-337.51 968.93,-332.62 994,-328 1005.98,-325.79 1019.05,-323.3 1030.75,-321.03"/>
<polygon fill="#9a32cd" stroke="#9a32cd" points="916.28,-338.32 907.03,-343.48 917.48,-345.22 916.28,-338.32"/>
</a>
</g>
<text text-anchor="middle" x="965.5" y="-340" font-family="Helvetica,sans-Serif" font-size="10.00" fill="grey"> dns_request</text>
</g>
<!-- Node11 -->
<g id="Node000011" class="node">
<title>Node11</title>
<g id="a_Node000011"><a xlink:href="group__event__system.html#structSocketPoll__T" target="_top" xlink:title="Complete internal state for SocketPoll instance.">
<polygon fill="white" stroke="#666666" points="888,-175.5 813,-175.5 813,-156.5 888,-156.5 888,-175.5"/>
<text text-anchor="middle" x="850.5" y="-163.5" font-family="Helvetica,sans-Serif" font-size="10.00">SocketPoll_T</text>
</a>
</g>
</g>
<!-- Node11&#45;&gt;Node1 -->
<g id="edge13_Node000001_Node000011" class="edge">
<title>Node11&#45;&gt;Node1</title>
<g id="a_edge13_Node000001_Node000011"><a xlink:title=" ">
<path fill="none" stroke="#9a32cd" stroke-dasharray="5,2" d="M898.27,-167.37C926.51,-169.23 962.92,-173.46 994,-183 1091.56,-212.95 1196.26,-279.52 1233.43,-304.39"/>
<polygon fill="#9a32cd" stroke="#9a32cd" points="898.45,-163.88 888.26,-166.79 898.04,-170.87 898.45,-163.88"/>
</a>
</g>
<text text-anchor="middle" x="1067.5" y="-241" font-family="Helvetica,sans-Serif" font-size="10.00" fill="grey"> poll</text>
</g>
<!-- Node11&#45;&gt;Node19 -->
<g id="edge31_Node000019_Node000011" class="edge">
<title>Node11&#45;&gt;Node19</title>
<g id="a_edge31_Node000019_Node000011"><a xlink:title=" ">
<path fill="none" stroke="#9a32cd" stroke-dasharray="5,2" d="M898.13,-174.09C927.75,-180.98 965.69,-193.18 994,-214 1027.86,-238.9 1052.37,-284.29 1062,-304.2"/>
<polygon fill="#9a32cd" stroke="#9a32cd" points="898.55,-170.6 888.03,-171.88 897.05,-177.44 898.55,-170.6"/>
</a>
</g>
<text text-anchor="middle" x="965.5" y="-217" font-family="Helvetica,sans-Serif" font-size="10.00" fill="grey"> poll</text>
</g>
<!-- Node12&#45;&gt;Node11 -->
<g id="edge14_Node000011_Node000012" class="edge">
<title>Node12&#45;&gt;Node11</title>
<g id="a_edge14_Node000011_Node000012"><a xlink:title=" ">
<path fill="none" stroke="#9a32cd" stroke-dasharray="5,2" d="M515.28,-93.06C548.93,-93.76 593.79,-95.93 633,-102 692.44,-111.2 706.46,-118.47 764,-136 784.32,-142.19 806.98,-150.19 823.87,-156.38"/>
<polygon fill="#9a32cd" stroke="#9a32cd" points="515.28,-89.56 505.22,-92.89 515.16,-96.56 515.28,-89.56"/>
</a>
</g>
<text text-anchor="middle" x="578" y="-105" font-family="Helvetica,sans-Serif" font-size="10.00" fill="grey"> socketevents</text>
</g>
<!-- Node13&#45;&gt;Node11 -->
<g id="edge16_Node000011_Node000013" class="edge">
<title>Node13&#45;&gt;Node11</title>
<g id="a_edge16_Node000011_Node000013"><a xlink:title=" ">
<path fill="none" stroke="#9a32cd" stroke-dasharray="5,2" d="M507.68,-43.04C567.76,-48.52 678.23,-63.37 764,-102 794.43,-115.71 824.34,-141.78 839.41,-156.05"/>
<polygon fill="#9a32cd" stroke="#9a32cd" points="507.68,-39.52 497.41,-42.15 507.07,-46.5 507.68,-39.52"/>
</a>
</g>
<text text-anchor="middle" x="578" y="-65" font-family="Helvetica,sans-Serif" font-size="10.00" fill="grey"> socket_data_map</text>
</g>
<!-- Node13&#45;&gt;Node13 -->
<g id="edge18_Node000013_Node000013" class="edge">
<title>Node13&#45;&gt;Node13</title>
<g id="a_edge18_Node000013_Node000013"><a xlink:title=" ">
<path fill="none" stroke="#9a32cd" stroke-dasharray="5,2" d="M444.58,-59.41C446.03,-64.06 452.17,-67.5 463,-67.5 480.77,-67.5 485.91,-58.23 478.41,-49.58"/>
<polygon fill="#9a32cd" stroke="#9a32cd" points="448.01,-60.17 447.59,-49.58 441.32,-58.12 448.01,-60.17"/>
</a>
</g>
<text text-anchor="middle" x="463" y="-70.5" font-family="Helvetica,sans-Serif" font-size="10.00" fill="grey"> next</text>
</g>
<!-- Node14&#45;&gt;Node11 -->
<g id="edge19_Node000011_Node000014" class="edge">
<title>Node14&#45;&gt;Node11</title>
<g id="a_edge19_Node000011_Node000014"><a xlink:title=" ">
<path fill="none" stroke="#9a32cd" stroke-dasharray="5,2" d="M514.75,-210.6C574.58,-206.21 676.9,-197.48 764,-184 780.04,-181.52 797.61,-177.97 812.62,-174.67"/>
<polygon fill="#9a32cd" stroke="#9a32cd" points="514.17,-207.13 504.45,-211.35 514.68,-214.12 514.17,-207.13"/>
</a>
</g>
<text text-anchor="middle" x="578" y="-213" font-family="Helvetica,sans-Serif" font-size="10.00" fill="grey"> fd_to_socket_map</text>
</g>
<!-- Node14&#45;&gt;Node14 -->
<g id="edge21_Node000014_Node000014" class="edge">
<title>Node14&#45;&gt;Node14</title>
<g id="a_edge21_Node000014_Node000014"><a xlink:title=" ">
<path fill="none" stroke="#9a32cd" stroke-dasharray="5,2" d="M444.58,-233.41C446.03,-238.06 452.17,-241.5 463,-241.5 480.77,-241.5 485.91,-232.23 478.41,-223.58"/>
<polygon fill="#9a32cd" stroke="#9a32cd" points="448.01,-234.17 447.59,-223.58 441.32,-232.12 448.01,-234.17"/>
</a>
</g>
<text text-anchor="middle" x="463" y="-244.5" font-family="Helvetica,sans-Serif" font-size="10.00" fill="grey"> next</text>
</g>
<!-- Node15 -->
<g id="Node000015" class="node">
<title>Node15</title>
<g id="a_Node000015"><a xlink:href="group__async__io.html#structSocketAsync__T" target="_top" xlink:title="Opaque structure representing the asynchronous I/O context.">
<polygon fill="white" stroke="#666666" points="621,-178.5 535,-178.5 535,-159.5 621,-159.5 621,-178.5"/>
<text text-anchor="middle" x="578" y="-166.5" font-family="Helvetica,sans-Serif" font-size="10.00">SocketAsync_T</text>
</a>
</g>
</g>
<!-- Node15&#45;&gt;Node11 -->
<g id="edge22_Node000011_Node000015" class="edge">
<title>Node15&#45;&gt;Node11</title>
<g id="a_edge22_Node000011_Node000015"><a xlink:title=" ">
<path fill="none" stroke="#9a32cd" stroke-dasharray="5,2" d="M631.54,-168.42C684.84,-167.83 765.95,-166.93 812.74,-166.41"/>
<polygon fill="#9a32cd" stroke="#9a32cd" points="631.23,-164.92 621.27,-168.53 631.3,-171.92 631.23,-164.92"/>
</a>
</g>
<text text-anchor="middle" x="707.5" y="-172" font-family="Helvetica,sans-Serif" font-size="10.00" fill="grey"> async</text>
</g>
<!-- Node16&#45;&gt;Node15 -->
<g id="edge23_Node000015_Node000016" class="edge">
<title>Node16&#45;&gt;Node15</title>
<g id="a_edge23_Node000015_Node000016"><a xlink:title=" ">
<path fill="none" stroke="#9a32cd" stroke-dasharray="5,2" d="M412.19,-164.39C449.31,-165.43 499.5,-166.83 534.7,-167.82"/>
<polygon fill="#9a32cd" stroke="#9a32cd" points="412.19,-160.89 402.09,-164.11 411.99,-167.89 412.19,-160.89"/>
</a>
</g>
<text text-anchor="middle" x="463" y="-170" font-family="Helvetica,sans-Serif" font-size="10.00" fill="grey"> requests</text>
</g>
<!-- Node16&#45;&gt;Node16 -->
<g id="edge25_Node000016_Node000016" class="edge">
<title>Node16&#45;&gt;Node16</title>
<g id="a_edge25_Node000016_Node000016"><a xlink:title=" ">
<path fill="none" stroke="#9a32cd" stroke-dasharray="5,2" d="M347.5,-182.41C348.6,-187.06 353.27,-190.5 361.5,-190.5 375.01,-190.5 378.91,-181.23 373.21,-172.58"/>
<polygon fill="#9a32cd" stroke="#9a32cd" points="350.93,-183.12 349.79,-172.58 344.12,-181.53 350.93,-183.12"/>
</a>
</g>
<text text-anchor="middle" x="361.5" y="-193.5" font-family="Helvetica,sans-Serif" font-size="10.00" fill="grey"> next</text>
</g>
<!-- Node17 -->
<g id="Node000017" class="node">
<title>Node17</title>
<g id="a_Node000017"><a xlink:href="SocketTimer-private_8h.html#structSocketTimer__heap__T" target="_top" xlink:title="Typedef for the internal timer heap structure.">
<polygon fill="white" stroke="#666666" points="633,-141.5 523,-141.5 523,-122.5 633,-122.5 633,-141.5"/>
<text text-anchor="middle" x="578" y="-129.5" font-family="Helvetica,sans-Serif" font-size="10.00">SocketTimer_heap_T</text>
</a>
</g>
</g>
<!-- Node17&#45;&gt;Node11 -->
<g id="edge26_Node000011_Node000017" class="edge">
<title>Node17&#45;&gt;Node11</title>
<g id="a_edge26_Node000011_Node000017"><a xlink:title=" ">
<path fill="none" stroke="#9a32cd" stroke-dasharray="5,2" d="M643.58,-138.11C679.16,-141.69 724.08,-146.58 764,-152 780.1,-154.19 797.83,-157.02 812.95,-159.56"/>
<polygon fill="#9a32cd" stroke="#9a32cd" points="643.63,-134.6 633.33,-137.09 642.93,-141.56 643.63,-134.6"/>
</a>
</g>
<text text-anchor="middle" x="707.5" y="-155" font-family="Helvetica,sans-Serif" font-size="10.00" fill="grey"> timer_heap</text>
</g>
<!-- Node18 -->
<g id="Node000018" class="node">
<title>Node18</title>
<g id="a_Node000018"><a xlink:href="SocketTimer-private_8h.html#structSocketTimer__T" target="_top" xlink:title=" ">
<polygon fill="white" stroke="#666666" points="403,-135.5 320,-135.5 320,-116.5 403,-116.5 403,-135.5"/>
<text text-anchor="middle" x="361.5" y="-123.5" font-family="Helvetica,sans-Serif" font-size="10.00">SocketTimer_T</text>
</a>
</g>
</g>
<!-- Node18&#45;&gt;Node17 -->
<g id="edge27_Node000017_Node000018" class="edge">
<title>Node18&#45;&gt;Node17</title>
<g id="a_edge27_Node000017_Node000018"><a xlink:title=" ">
<path fill="none" stroke="#9a32cd" stroke-dasharray="5,2" d="M413.42,-127.42C446.37,-128.35 489.21,-129.54 522.79,-130.48"/>
<polygon fill="#9a32cd" stroke="#9a32cd" points="413.19,-123.92 403.1,-127.14 413,-130.91 413.19,-123.92"/>
</a>
</g>
<text text-anchor="middle" x="463" y="-133" font-family="Helvetica,sans-Serif" font-size="10.00" fill="grey"> timers</text>
</g>
<!-- Node19&#45;&gt;Node1 -->
<g id="edge28_Node000001_Node000019" class="edge">
<title>Node19&#45;&gt;Node1</title>
<g id="a_edge28_Node000001_Node000019"><a xlink:title=" ">
<path fill="none" stroke="#9a32cd" stroke-dasharray="5,2" d="M1114.37,-314C1137.93,-314 1166.83,-314 1191.68,-314"/>
<polygon fill="#9a32cd" stroke="#9a32cd" points="1114.29,-310.5 1104.29,-314 1114.29,-317.5 1114.29,-310.5"/>
</a>
</g>
<text text-anchor="middle" x="1157.5" y="-317" font-family="Helvetica,sans-Serif" font-size="10.00" fill="grey"> he</text>
</g>
<!-- Node20 -->
<g id="Node000020" class="node">
<title>Node20</title>
<g id="a_Node000020"><a xlink:href="group__async__io.html#structSocketHE__Config__T" target="_top" xlink:title="Happy Eyeballs configuration structure.">
<polygon fill="white" stroke="#666666" points="904,-239.5 797,-239.5 797,-220.5 904,-220.5 904,-239.5"/>
<text text-anchor="middle" x="850.5" y="-227.5" font-family="Helvetica,sans-Serif" font-size="10.00">SocketHE_Config_T</text>
</a>
</g>
</g>
<!-- Node20&#45;&gt;Node19 -->
<g id="edge29_Node000019_Node000020" class="edge">
<title>Node20&#45;&gt;Node19</title>
<g id="a_edge29_Node000019_Node000020"><a xlink:title=" ">
<path fill="none" stroke="#9a32cd" stroke-dasharray="5,2" d="M914.16,-226.7C939.92,-227.59 969.41,-231.64 994,-243 1023.9,-256.82 1048.81,-288.34 1060.06,-304.32"/>
<polygon fill="#9a32cd" stroke="#9a32cd" points="914.19,-223.2 904.12,-226.5 914.05,-230.2 914.19,-223.2"/>
</a>
</g>
<text text-anchor="middle" x="965.5" y="-246" font-family="Helvetica,sans-Serif" font-size="10.00" fill="grey"> config</text>
</g>
<!-- Node21 -->
<g id="Node000021" class="node">
<title>Node21</title>
<g id="a_Node000021"><a xlink:href="group__async__io.html#structSocketHE__AddressEntry__T" target="_top" xlink:title="Wrapper for resolved addresses in Happy Eyeballs address ordering.">
<polygon fill="white" stroke="#666666" points="919,-450.5 782,-450.5 782,-431.5 919,-431.5 919,-450.5"/>
<text text-anchor="middle" x="850.5" y="-438.5" font-family="Helvetica,sans-Serif" font-size="10.00">SocketHE_AddressEntry_T</text>
</a>
</g>
</g>
<!-- Node21&#45;&gt;Node19 -->
<g id="edge33_Node000019_Node000021" class="edge">
<title>Node21&#45;&gt;Node19</title>
<g id="a_edge33_Node000019_Node000021"><a xlink:title=" ">
<path fill="none" stroke="#9a32cd" stroke-dasharray="5,2" d="M911.83,-427.23C914.32,-425.94 916.72,-424.54 919,-423 930.05,-415.54 927.28,-408.13 937,-399 971.89,-366.23 1020.87,-337.94 1047.48,-323.74"/>
<polygon fill="#9a32cd" stroke="#9a32cd" points="910.23,-424.11 902.52,-431.38 913.08,-430.51 910.23,-424.11"/>
</a>
</g>
<text text-anchor="middle" x="965.5" y="-424" font-family="Helvetica,sans-Serif" font-size="10.00" fill="grey"> addresses</text>
<text text-anchor="middle" x="965.5" y="-413" font-family="Helvetica,sans-Serif" font-size="10.00" fill="grey">next_ipv4</text>
<text text-anchor="middle" x="965.5" y="-402" font-family="Helvetica,sans-Serif" font-size="10.00" fill="grey">next_ipv6</text>
</g>
<!-- Node22&#45;&gt;Node19 -->
<g id="edge34_Node000019_Node000022" class="edge">
<title>Node22&#45;&gt;Node19</title>
<g id="a_edge34_Node000019_Node000022"><a xlink:title=" ">
<path fill="none" stroke="#9a32cd" stroke-dasharray="5,2" d="M768.37,-503.4C841.44,-488.26 959.55,-460.35 994,-432 1031.32,-401.29 1054.73,-346.06 1063.07,-323.75"/>
<polygon fill="#9a32cd" stroke="#9a32cd" points="767.46,-500.01 758.37,-505.45 768.87,-506.87 767.46,-500.01"/>
</a>
</g>
<text text-anchor="middle" x="850.5" y="-503" font-family="Helvetica,sans-Serif" font-size="10.00" fill="grey"> attempts</text>
</g>
</g>
</svg>
