<?xml version="1.0" encoding="UTF-8" standalone="no"?>
<!DOCTYPE svg PUBLIC "-//W3C//DTD SVG 1.1//EN"
 "http://www.w3.org/Graphics/SVG/1.1/DTD/svg11.dtd">
<!-- Generated by graphviz version 2.43.0 (0)
 -->
<!-- Title: AsyncRequest Pages: 1 -->
<svg width="246pt" height="236pt"
 viewBox="0.00 0.00 246.00 236.00" xmlns="http://www.w3.org/2000/svg" xmlns:xlink="http://www.w3.org/1999/xlink">
<g id="graph0" class="graph" transform="scale(1 1) rotate(0) translate(4 232)">
<title>AsyncRequest</title>
<!-- Node1 -->
<g id="Node000001" class="node">
<title>Node1</title>
<g id="a_Node000001"><a xlink:title="Internal structure for tracking asynchronous I/O requests.">
<polygon fill="#999999" stroke="#666666" points="154,-19 73,-19 73,0 154,0 154,-19"/>
<text text-anchor="middle" x="113.5" y="-7" font-family="Helvetica,sans-Serif" font-size="10.00">AsyncRequest</text>
</a>
</g>
</g>
<!-- Node1&#45;&gt;Node1 -->
<g id="edge5_Node000001_Node000001" class="edge">
<title>Node1&#45;&gt;Node1</title>
<g id="a_edge5_Node000001_Node000001"><a xlink:title=" ">
<path fill="none" stroke="#9a32cd" stroke-dasharray="5,2" d="M164.32,-15.19C169.03,-14.02 172,-12.12 172,-9.5 172,-5.31 164.4,-2.96 154.23,-2.47"/>
<polygon fill="#9a32cd" stroke="#9a32cd" points="163.69,-11.75 154.23,-16.53 164.61,-18.69 163.69,-11.75"/>
</a>
</g>
<text text-anchor="middle" x="183" y="-7" font-family="Helvetica,sans-Serif" font-size="10.00" fill="grey"> next</text>
</g>
<!-- Node2 -->
<g id="Node000002" class="node">
<title>Node2</title>
<g id="a_Node000002"><a xlink:title=" ">
<polygon fill="white" stroke="#666666" points="143,-96 84,-96 84,-77 143,-77 143,-96"/>
<text text-anchor="middle" x="113.5" y="-84" font-family="Helvetica,sans-Serif" font-size="10.00">Socket_T</text>
</a>
</g>
</g>
<!-- Node2&#45;&gt;Node1 -->
<g id="edge1_Node000001_Node000002" class="edge">
<title>Node2&#45;&gt;Node1</title>
<g id="a_edge1_Node000001_Node000002"><a xlink:title=" ">
<path fill="none" stroke="#9a32cd" stroke-dasharray="5,2" d="M113.5,-66.52C113.5,-51.24 113.5,-30.48 113.5,-19"/>
<polygon fill="#9a32cd" stroke="#9a32cd" points="110,-66.9 113.5,-76.9 117,-66.9 110,-66.9"/>
</a>
</g>
<text text-anchor="middle" x="128.5" y="-51" font-family="Helvetica,sans-Serif" font-size="10.00" fill="grey"> cb</text>
<text text-anchor="middle" x="128.5" y="-40" font-family="Helvetica,sans-Serif" font-size="10.00" fill="grey">socket</text>
</g>
<!-- Node3 -->
<g id="Node000003" class="node">
<title>Node3</title>
<g id="a_Node000003"><a xlink:href="group__core__io.html#structSocketBase__T" target="_top" xlink:title="Internal implementation of SocketBase_T opaque type.">
<polygon fill="white" stroke="#666666" points="154,-162 73,-162 73,-143 154,-143 154,-162"/>
<text text-anchor="middle" x="113.5" y="-150" font-family="Helvetica,sans-Serif" font-size="10.00">SocketBase_T</text>
</a>
</g>
</g>
<!-- Node3&#45;&gt;Node2 -->
<g id="edge2_Node000002_Node000003" class="edge">
<title>Node3&#45;&gt;Node2</title>
<g id="a_edge2_Node000002_Node000003"><a xlink:title=" ">
<path fill="none" stroke="#9a32cd" stroke-dasharray="5,2" d="M113.5,-132.58C113.5,-120.63 113.5,-105.72 113.5,-96.41"/>
<polygon fill="#9a32cd" stroke="#9a32cd" points="110,-132.87 113.5,-142.87 117,-132.87 110,-132.87"/>
</a>
</g>
<text text-anchor="middle" x="126" y="-117" font-family="Helvetica,sans-Serif" font-size="10.00" fill="grey"> base</text>
</g>
<!-- Node4 -->
<g id="Node000004" class="node">
<title>Node4</title>
<g id="a_Node000004"><a xlink:href="group__foundation.html#structSocketTimeouts__T" target="_top" xlink:title="Basic timeout configuration structure for socket operations.">
<polygon fill="white" stroke="#666666" points="99,-228 0,-228 0,-209 99,-209 99,-228"/>
<text text-anchor="middle" x="49.5" y="-216" font-family="Helvetica,sans-Serif" font-size="10.00">SocketTimeouts_T</text>
</a>
</g>
</g>
<!-- Node4&#45;&gt;Node3 -->
<g id="edge3_Node000003_Node000004" class="edge">
<title>Node4&#45;&gt;Node3</title>
<g id="a_edge3_Node000003_Node000004"><a xlink:title=" ">
<path fill="none" stroke="#9a32cd" stroke-dasharray="5,2" d="M65.52,-201.48C77.88,-189.12 94.51,-172.49 104.59,-162.41"/>
<polygon fill="#9a32cd" stroke="#9a32cd" points="62.73,-199.32 58.13,-208.87 67.68,-204.27 62.73,-199.32"/>
</a>
</g>
<text text-anchor="middle" x="106" y="-183" font-family="Helvetica,sans-Serif" font-size="10.00" fill="grey"> timeouts</text>
</g>
<!-- Node5 -->
<g id="Node000005" class="node">
<title>Node5</title>
<g id="a_Node000005"><a xlink:href="group__foundation.html#structSocketMetricsSnapshot" target="_top" xlink:title="SocketMetricsSnapshot &#45; Thread&#45;safe snapshot of all library metrics.">
<polygon fill="white" stroke="#666666" points="238,-228 117,-228 117,-209 238,-209 238,-228"/>
<text text-anchor="middle" x="177.5" y="-216" font-family="Helvetica,sans-Serif" font-size="10.00">SocketMetricsSnapshot</text>
</a>
</g>
</g>
<!-- Node5&#45;&gt;Node3 -->
<g id="edge4_Node000003_Node000005" class="edge">
<title>Node5&#45;&gt;Node3</title>
<g id="a_edge4_Node000003_Node000005"><a xlink:title=" ">
<path fill="none" stroke="#9a32cd" stroke-dasharray="5,2" d="M161.48,-201.48C149.12,-189.12 132.49,-172.49 122.41,-162.41"/>
<polygon fill="#9a32cd" stroke="#9a32cd" points="159.32,-204.27 168.87,-208.87 164.27,-199.32 159.32,-204.27"/>
</a>
</g>
<text text-anchor="middle" x="166.5" y="-183" font-family="Helvetica,sans-Serif" font-size="10.00" fill="grey"> metrics</text>
</g>
</g>
</svg>
