<?xml version="1.0" encoding="UTF-8" standalone="no"?>
<!DOCTYPE svg PUBLIC "-//W3C//DTD SVG 1.1//EN"
 "http://www.w3.org/Graphics/SVG/1.1/DTD/svg11.dtd">
<!-- Generated by graphviz version 2.43.0 (0)
 -->
<!-- Title: SocketHTTP2_Conn_T Pages: 1 -->
<svg width="488pt" height="247pt"
 viewBox="0.00 0.00 488.00 247.00" xmlns="http://www.w3.org/2000/svg" xmlns:xlink="http://www.w3.org/1999/xlink">

<svg id="main" version="1.1" xmlns="http://www.w3.org/2000/svg" xmlns:xlink="http://www.w3.org/1999/xlink" xml:space="preserve" onload="init(evt)">
<style type="text/css"><![CDATA[
.node, .edge {opacity: 0.7;}
.node.selected, .edge.selected {opacity: 1;}
.edge:hover path { stroke: red; }
.edge:hover polygon { stroke: red; fill: red; }
]]></style>
<script type="application/ecmascript" xlink:href="svg.min.js"/>
<svg id="graph" class="graph">
<g id="graph0" class="graph" transform="scale(1 1) rotate(0) translate(4 243)">
<title>SocketHTTP2_Conn_T</title>
<!-- Node1 -->
<g id="Node000001" class="node">
<title>Node1</title>
<g id="a_Node000001"><a xlink:title="Internal structure for HTTP/2 connection management.">
<polygon fill="#999999" stroke="#666666" points="290,-19 171,-19 171,0 290,0 290,-19"/>
<text text-anchor="middle" x="230.5" y="-7" font-family="Helvetica,sans-Serif" font-size="10.00">SocketHTTP2_Conn_T</text>
</a>
</g>
</g>
<!-- Node2 -->
<g id="Node000002" class="node">
<title>Node2</title>
<g id="a_Node000002"><a xlink:title=" ">
<polygon fill="white" stroke="#666666" points="147,-96 88,-96 88,-77 147,-77 147,-96"/>
<text text-anchor="middle" x="117.5" y="-84" font-family="Helvetica,sans-Serif" font-size="10.00">Socket_T</text>
</a>
</g>
</g>
<!-- Node2&#45;&gt;Node1 -->
<g id="edge1_Node000001_Node000002" class="edge">
<title>Node2&#45;&gt;Node1</title>
<g id="a_edge1_Node000001_Node000002"><a xlink:title=" ">
<path fill="none" stroke="#9a32cd" stroke-dasharray="5,2" d="M138.96,-71.26C162.21,-55.83 198.54,-31.72 217.69,-19"/>
<polygon fill="#9a32cd" stroke="#9a32cd" points="136.86,-68.45 130.46,-76.9 140.73,-74.28 136.86,-68.45"/>
</a>
</g>
<text text-anchor="middle" x="204" y="-45.5" font-family="Helvetica,sans-Serif" font-size="10.00" fill="grey"> socket</text>
</g>
<!-- Node3 -->
<g id="Node000003" class="node">
<title>Node3</title>
<g id="a_Node000003"><a xlink:href="group__core__io.html#structSocketBase__T" target="_top" xlink:title="Internal implementation of SocketBase_T opaque type.">
<polygon fill="white" stroke="#666666" points="154,-173 73,-173 73,-154 154,-154 154,-173"/>
<text text-anchor="middle" x="113.5" y="-161" font-family="Helvetica,sans-Serif" font-size="10.00">SocketBase_T</text>
</a>
</g>
</g>
<!-- Node3&#45;&gt;Node2 -->
<g id="edge2_Node000002_Node000003" class="edge">
<title>Node3&#45;&gt;Node2</title>
<g id="a_edge2_Node000002_Node000003"><a xlink:title=" ">
<path fill="none" stroke="#9a32cd" stroke-dasharray="5,2" d="M114.51,-143.52C115.33,-128.24 116.43,-107.48 117.05,-96"/>
<polygon fill="#9a32cd" stroke="#9a32cd" points="111,-143.72 113.96,-153.9 117.99,-144.1 111,-143.72"/>
</a>
</g>
<text text-anchor="middle" x="129" y="-122.5" font-family="Helvetica,sans-Serif" font-size="10.00" fill="grey"> base</text>
</g>
<!-- Node4 -->
<g id="Node000004" class="node">
<title>Node4</title>
<g id="a_Node000004"><a xlink:href="group__foundation.html#structSocketTimeouts__T" target="_top" xlink:title="Basic timeout configuration structure for socket operations.">
<polygon fill="white" stroke="#666666" points="99,-239 0,-239 0,-220 99,-220 99,-239"/>
<text text-anchor="middle" x="49.5" y="-227" font-family="Helvetica,sans-Serif" font-size="10.00">SocketTimeouts_T</text>
</a>
</g>
</g>
<!-- Node4&#45;&gt;Node3 -->
<g id="edge3_Node000003_Node000004" class="edge">
<title>Node4&#45;&gt;Node3</title>
<g id="a_edge3_Node000003_Node000004"><a xlink:title=" ">
<path fill="none" stroke="#9a32cd" stroke-dasharray="5,2" d="M65.52,-212.48C77.88,-200.12 94.51,-183.49 104.59,-173.41"/>
<polygon fill="#9a32cd" stroke="#9a32cd" points="62.73,-210.32 58.13,-219.87 67.68,-215.27 62.73,-210.32"/>
</a>
</g>
<text text-anchor="middle" x="106" y="-194" font-family="Helvetica,sans-Serif" font-size="10.00" fill="grey"> timeouts</text>
</g>
<!-- Node5 -->
<g id="Node000005" class="node">
<title>Node5</title>
<g id="a_Node000005"><a xlink:href="group__foundation.html#structSocketMetricsSnapshot" target="_top" xlink:title="SocketMetricsSnapshot &#45; Thread&#45;safe snapshot of all library metrics.">
<polygon fill="white" stroke="#666666" points="238,-239 117,-239 117,-220 238,-220 238,-239"/>
<text text-anchor="middle" x="177.5" y="-227" font-family="Helvetica,sans-Serif" font-size="10.00">SocketMetricsSnapshot</text>
</a>
</g>
</g>
<!-- Node5&#45;&gt;Node3 -->
<g id="edge4_Node000003_Node000005" class="edge">
<title>Node5&#45;&gt;Node3</title>
<g id="a_edge4_Node000003_Node000005"><a xlink:title=" ">
<path fill="none" stroke="#9a32cd" stroke-dasharray="5,2" d="M161.48,-212.48C149.12,-200.12 132.49,-183.49 122.41,-173.41"/>
<polygon fill="#9a32cd" stroke="#9a32cd" points="159.32,-215.27 168.87,-219.87 164.27,-210.32 159.32,-215.27"/>
</a>
</g>
<text text-anchor="middle" x="167.5" y="-194" font-family="Helvetica,sans-Serif" font-size="10.00" fill="grey"> metrics</text>
</g>
<!-- Node6 -->
<g id="Node000006" class="node">
<title>Node6</title>
<g id="a_Node000006"><a xlink:href="group__http2__private.html#structSocketHTTP2__Stream" target="_top" xlink:title="Internal structure for managing an HTTP/2 stream.">
<polygon fill="white" stroke="#666666" points="294,-96 167,-96 167,-77 294,-77 294,-96"/>
<text text-anchor="middle" x="230.5" y="-84" font-family="Helvetica,sans-Serif" font-size="10.00">SocketHTTP2_Stream_T</text>
</a>
</g>
</g>
<!-- Node6&#45;&gt;Node1 -->
<g id="edge5_Node000001_Node000006" class="edge">
<title>Node6&#45;&gt;Node1</title>
<g id="a_edge5_Node000001_Node000006"><a xlink:title=" ">
<path fill="none" stroke="#9a32cd" stroke-dasharray="5,2" d="M230.5,-66.52C230.5,-51.24 230.5,-30.48 230.5,-19"/>
<polygon fill="#9a32cd" stroke="#9a32cd" points="227,-66.9 230.5,-76.9 234,-66.9 227,-66.9"/>
</a>
</g>
<text text-anchor="middle" x="250" y="-45.5" font-family="Helvetica,sans-Serif" font-size="10.00" fill="grey"> streams</text>
</g>
<!-- Node6&#45;&gt;Node6 -->
<g id="edge7_Node000006_Node000006" class="edge">
<title>Node6&#45;&gt;Node6</title>
<g id="a_edge7_Node000006_Node000006"><a xlink:title=" ">
<path fill="none" stroke="#9a32cd" stroke-dasharray="5,2" d="M304.04,-91.63C308.99,-90.44 312,-88.73 312,-86.5 312,-83.01 304.67,-80.8 294.06,-79.88"/>
<polygon fill="#9a32cd" stroke="#9a32cd" points="303.43,-88.18 294.06,-93.12 304.47,-95.1 303.43,-88.18"/>
</a>
</g>
<text text-anchor="middle" x="336.5" y="-84" font-family="Helvetica,sans-Serif" font-size="10.00" fill="grey"> hash_next</text>
</g>
<!-- Node7 -->
<g id="Node000007" class="node">
<title>Node7</title>
<g id="a_Node000007"><a xlink:href="group__hpack.html#structSocketHPACK__Header" target="_top" xlink:title="HPACK header field representation.">
<polygon fill="white" stroke="#666666" points="290.5,-173 172.5,-173 172.5,-154 290.5,-154 290.5,-173"/>
<text text-anchor="middle" x="231.5" y="-161" font-family="Helvetica,sans-Serif" font-size="10.00">SocketHPACK_Header</text>
</a>
</g>
</g>
<!-- Node7&#45;&gt;Node6 -->
<g id="edge6_Node000006_Node000007" class="edge">
<title>Node7&#45;&gt;Node6</title>
<g id="a_edge6_Node000006_Node000007"><a xlink:title=" ">
<path fill="none" stroke="#9a32cd" stroke-dasharray="5,2" d="M231.25,-143.52C231.04,-128.24 230.77,-107.48 230.61,-96"/>
<polygon fill="#9a32cd" stroke="#9a32cd" points="227.75,-143.94 231.39,-153.9 234.75,-143.85 227.75,-143.94"/>
</a>
</g>
<text text-anchor="middle" x="250.5" y="-128" font-family="Helvetica,sans-Serif" font-size="10.00" fill="grey"> headers</text>
<text text-anchor="middle" x="250.5" y="-117" font-family="Helvetica,sans-Serif" font-size="10.00" fill="grey">trailers</text>
</g>
<!-- Node8 -->
<g id="Node000008" class="node">
<title>Node8</title>
<g id="a_Node000008"><a xlink:href="group__utilities.html#structSocketRateLimit__T" target="_top" xlink:title="Internal structure implementing the token bucket rate limiter.">
<polygon fill="white" stroke="#666666" points="480,-96 379,-96 379,-77 480,-77 480,-96"/>
<text text-anchor="middle" x="429.5" y="-84" font-family="Helvetica,sans-Serif" font-size="10.00">SocketRateLimit_T</text>
</a>
</g>
</g>
<!-- Node8&#45;&gt;Node1 -->
<g id="edge8_Node000001_Node000008" class="edge">
<title>Node8&#45;&gt;Node1</title>
<g id="a_edge8_Node000001_Node000008"><a xlink:title=" ">
<path fill="none" stroke="#9a32cd" stroke-dasharray="5,2" d="M397.26,-73.35C356.78,-58.09 288.36,-32.31 253.06,-19"/>
<polygon fill="#9a32cd" stroke="#9a32cd" points="396.08,-76.64 406.67,-76.9 398.55,-70.09 396.08,-76.64"/>
</a>
</g>
<text text-anchor="middle" x="407" y="-51" font-family="Helvetica,sans-Serif" font-size="10.00" fill="grey"> stream_close_rate_limit</text>
<text text-anchor="middle" x="407" y="-40" font-family="Helvetica,sans-Serif" font-size="10.00" fill="grey">stream_open_rate_limit</text>
</g>
</g>
</svg>
</svg>

<style type='text/css'>
<![CDATA[
[data-mouse-over-selected='false'] { opacity: 0.7; }
[data-mouse-over-selected='true']  { opacity: 1.0; }
]]>
</style>
<script type="application/ecmascript"><![CDATA[
document.addEventListener('DOMContentLoaded', (event) => {
  highlightEdges();
  highlightAdjacentNodes();
});
]]></script>
</svg>
