<?xml version="1.0" encoding="UTF-8" standalone="no"?>
<!DOCTYPE svg PUBLIC "-//W3C//DTD SVG 1.1//EN"
 "http://www.w3.org/Graphics/SVG/1.1/DTD/svg11.dtd">
<!-- Generated by graphviz version 2.43.0 (0)
 -->
<!-- Title: SocketHTTPClient_Config Pages: 1 -->
<svg width="351pt" height="291pt"
 viewBox="0.00 0.00 350.50 291.00" xmlns="http://www.w3.org/2000/svg" xmlns:xlink="http://www.w3.org/1999/xlink">
<g id="graph0" class="graph" transform="scale(1 1) rotate(0) translate(4 287)">
<title>SocketHTTPClient_Config</title>
<!-- Node1 -->
<g id="Node000001" class="node">
<title>Node1</title>
<g id="a_Node000001"><a xlink:title="HTTP client configuration structure.">
<polygon fill="#999999" stroke="#666666" points="242.5,-19 109.5,-19 109.5,0 242.5,0 242.5,-19"/>
<text text-anchor="middle" x="176" y="-7" font-family="Helvetica,sans-Serif" font-size="10.00">SocketHTTPClient_Config</text>
</a>
</g>
</g>
<!-- Node2 -->
<g id="Node000002" class="node">
<title>Node2</title>
<g id="a_Node000002"><a xlink:href="group__security.html#structSocketTLSContext__T" target="_top" xlink:title="TLS context structure for managing OpenSSL SSL_CTX with secure defaults, certificates,...">
<polygon fill="white" stroke="#666666" points="231.5,-151 120.5,-151 120.5,-132 231.5,-132 231.5,-151"/>
<text text-anchor="middle" x="176" y="-139" font-family="Helvetica,sans-Serif" font-size="10.00">SocketTLSContext_T</text>
</a>
</g>
</g>
<!-- Node2&#45;&gt;Node1 -->
<g id="edge1_Node000001_Node000002" class="edge">
<title>Node2&#45;&gt;Node1</title>
<g id="a_edge1_Node000001_Node000002"><a xlink:title=" ">
<path fill="none" stroke="#9a32cd" stroke-dasharray="5,2" d="M173.09,-121.73C171.09,-106.67 168.98,-85 170,-66 170.9,-49.35 173.3,-30.02 174.78,-19.13"/>
<polygon fill="#9a32cd" stroke="#9a32cd" points="169.65,-122.39 174.54,-131.79 176.58,-121.4 169.65,-122.39"/>
</a>
</g>
<text text-anchor="middle" x="196" y="-73" font-family="Helvetica,sans-Serif" font-size="10.00" fill="grey"> tls_context</text>
</g>
<!-- Node2&#45;&gt;Node2 -->
<g id="edge4_Node000002_Node000002" class="edge">
<title>Node2&#45;&gt;Node2</title>
<g id="a_edge4_Node000002_Node000002"><a xlink:title=" ">
<path fill="none" stroke="#9a32cd" stroke-dasharray="5,2" d="M241.95,-145.9C246.64,-144.9 249.5,-143.43 249.5,-141.5 249.5,-138.41 242.17,-136.51 231.77,-135.81"/>
<polygon fill="#9a32cd" stroke="#9a32cd" points="241.25,-142.46 231.77,-147.19 242.13,-149.4 241.25,-142.46"/>
</a>
</g>
<text text-anchor="middle" x="284" y="-139" font-family="Helvetica,sans-Serif" font-size="10.00" fill="grey"> verify_callback</text>
</g>
<!-- Node7 -->
<g id="Node000007" class="node">
<title>Node7</title>
<g id="a_Node000007"><a xlink:href="group__proxy.html#structSocketProxy__Config" target="_top" xlink:title="Configuration structure for proxy connections.">
<polygon fill="white" stroke="#666666" points="337.5,-85 230.5,-85 230.5,-66 337.5,-66 337.5,-85"/>
<text text-anchor="middle" x="284" y="-73" font-family="Helvetica,sans-Serif" font-size="10.00">SocketProxy_Config</text>
</a>
</g>
</g>
<!-- Node2&#45;&gt;Node7 -->
<g id="edge8_Node000007_Node000002" class="edge">
<title>Node2&#45;&gt;Node7</title>
<g id="a_edge8_Node000007_Node000002"><a xlink:title=" ">
<path fill="none" stroke="#9a32cd" stroke-dasharray="5,2" d="M199.3,-126.69C220.56,-114.09 251.31,-95.87 269.32,-85.2"/>
<polygon fill="#9a32cd" stroke="#9a32cd" points="197.38,-123.76 190.57,-131.87 200.95,-129.78 197.38,-123.76"/>
</a>
</g>
<text text-anchor="middle" x="252.5" y="-106" font-family="Helvetica,sans-Serif" font-size="10.00" fill="grey"> tls_ctx</text>
</g>
<!-- Node3 -->
<g id="Node000003" class="node">
<title>Node3</title>
<g id="a_Node000003"><a xlink:href="structTLSContextSNICerts.html" target="_top" xlink:title="Structure for managing SNI certificate mappings in TLS context.">
<polygon fill="white" stroke="#666666" points="110,-217 0,-217 0,-198 110,-198 110,-217"/>
<text text-anchor="middle" x="55" y="-205" font-family="Helvetica,sans-Serif" font-size="10.00">TLSContextSNICerts</text>
</a>
</g>
</g>
<!-- Node3&#45;&gt;Node2 -->
<g id="edge2_Node000002_Node000003" class="edge">
<title>Node3&#45;&gt;Node2</title>
<g id="a_edge2_Node000002_Node000003"><a xlink:title=" ">
<path fill="none" stroke="#9a32cd" stroke-dasharray="5,2" d="M80.47,-193.03C104.3,-180.42 139.2,-161.97 159.55,-151.2"/>
<polygon fill="#9a32cd" stroke="#9a32cd" points="78.52,-190.1 71.32,-197.87 81.79,-196.29 78.52,-190.1"/>
</a>
</g>
<text text-anchor="middle" x="144.5" y="-172" font-family="Helvetica,sans-Serif" font-size="10.00" fill="grey"> sni_certs</text>
</g>
<!-- Node4 -->
<g id="Node000004" class="node">
<title>Node4</title>
<g id="a_Node000004"><a xlink:href="group__security.html#structTLSContextALPN" target="_top" xlink:title="Configuration for ALPN protocol negotiation.">
<polygon fill="white" stroke="#666666" points="223.5,-217 128.5,-217 128.5,-198 223.5,-198 223.5,-217"/>
<text text-anchor="middle" x="176" y="-205" font-family="Helvetica,sans-Serif" font-size="10.00">TLSContextALPN</text>
</a>
</g>
</g>
<!-- Node4&#45;&gt;Node2 -->
<g id="edge3_Node000002_Node000004" class="edge">
<title>Node4&#45;&gt;Node2</title>
<g id="a_edge3_Node000002_Node000004"><a xlink:title=" ">
<path fill="none" stroke="#9a32cd" stroke-dasharray="5,2" d="M176,-187.58C176,-175.63 176,-160.72 176,-151.41"/>
<polygon fill="#9a32cd" stroke="#9a32cd" points="172.5,-187.87 176,-197.87 179.5,-187.87 172.5,-187.87"/>
</a>
</g>
<text text-anchor="middle" x="187" y="-172" font-family="Helvetica,sans-Serif" font-size="10.00" fill="grey"> alpn</text>
</g>
<!-- Node5 -->
<g id="Node000005" class="node">
<title>Node5</title>
<g id="a_Node000005"><a xlink:href="group__security.html#structTLSContextPinning" target="_top" xlink:title="TLSContextPinning &#45; Certificate pinning configuration.">
<polygon fill="white" stroke="#666666" points="342.5,-217 241.5,-217 241.5,-198 342.5,-198 342.5,-217"/>
<text text-anchor="middle" x="292" y="-205" font-family="Helvetica,sans-Serif" font-size="10.00">TLSContextPinning</text>
</a>
</g>
</g>
<!-- Node5&#45;&gt;Node2 -->
<g id="edge5_Node000002_Node000005" class="edge">
<title>Node5&#45;&gt;Node2</title>
<g id="a_edge5_Node000002_Node000005"><a xlink:title=" ">
<path fill="none" stroke="#9a32cd" stroke-dasharray="5,2" d="M267.58,-193.03C244.73,-180.42 211.28,-161.97 191.77,-151.2"/>
<polygon fill="#9a32cd" stroke="#9a32cd" points="265.91,-196.1 276.36,-197.87 269.29,-189.97 265.91,-196.1"/>
</a>
</g>
<text text-anchor="middle" x="257" y="-172" font-family="Helvetica,sans-Serif" font-size="10.00" fill="grey"> pinning</text>
</g>
<!-- Node6 -->
<g id="Node000006" class="node">
<title>Node6</title>
<g id="a_Node000006"><a xlink:href="group__security.html#structTLSCertPin" target="_top" xlink:title="TLSCertPin &#45; Single certificate pin entry (SPKI SHA256 hash)">
<polygon fill="white" stroke="#666666" points="326,-283 258,-283 258,-264 326,-264 326,-283"/>
<text text-anchor="middle" x="292" y="-271" font-family="Helvetica,sans-Serif" font-size="10.00">TLSCertPin</text>
</a>
</g>
</g>
<!-- Node6&#45;&gt;Node5 -->
<g id="edge6_Node000005_Node000006" class="edge">
<title>Node6&#45;&gt;Node5</title>
<g id="a_edge6_Node000005_Node000006"><a xlink:title=" ">
<path fill="none" stroke="#9a32cd" stroke-dasharray="5,2" d="M292,-253.58C292,-241.63 292,-226.72 292,-217.41"/>
<polygon fill="#9a32cd" stroke="#9a32cd" points="288.5,-253.87 292,-263.87 295.5,-253.87 288.5,-253.87"/>
</a>
</g>
<text text-anchor="middle" x="303" y="-238" font-family="Helvetica,sans-Serif" font-size="10.00" fill="grey"> pins</text>
</g>
<!-- Node7&#45;&gt;Node1 -->
<g id="edge7_Node000001_Node000007" class="edge">
<title>Node7&#45;&gt;Node1</title>
<g id="a_edge7_Node000001_Node000007"><a xlink:title=" ">
<path fill="none" stroke="#9a32cd" stroke-dasharray="5,2" d="M260.7,-60.69C239.44,-48.09 208.69,-29.87 190.68,-19.2"/>
<polygon fill="#9a32cd" stroke="#9a32cd" points="259.05,-63.78 269.43,-65.87 262.62,-57.76 259.05,-63.78"/>
</a>
</g>
<text text-anchor="middle" x="250" y="-40" font-family="Helvetica,sans-Serif" font-size="10.00" fill="grey"> proxy</text>
</g>
</g>
</svg>
