<?xml version="1.0" encoding="UTF-8" standalone="no"?>
<!DOCTYPE svg PUBLIC "-//W3C//DTD SVG 1.1//EN"
 "http://www.w3.org/Graphics/SVG/1.1/DTD/svg11.dtd">
<!-- Generated by graphviz version 2.43.0 (0)
 -->
<!-- Title: AsyncConnectContext_T Pages: 1 -->
<svg width="1250pt" height="748pt"
 viewBox="0.00 0.00 1250.00 748.00" xmlns="http://www.w3.org/2000/svg" xmlns:xlink="http://www.w3.org/1999/xlink">
<g id="graph0" class="graph" transform="scale(1 1) rotate(0) translate(4 744)">
<title>AsyncConnectContext_T</title>
<!-- Node1 -->
<g id="Node000001" class="node">
<title>Node1</title>
<g id="a_Node000001"><a xlink:title="Internal context structure for tracking asynchronous connect operations.">
<polygon fill="#999999" stroke="#666666" points="1242,-418.5 1115,-418.5 1115,-399.5 1242,-399.5 1242,-418.5"/>
<text text-anchor="middle" x="1178.5" y="-406.5" font-family="Helvetica,sans-Serif" font-size="10.00">AsyncConnectContext_T</text>
</a>
</g>
</g>
<!-- Node2 -->
<g id="Node000002" class="node">
<title>Node2</title>
<g id="a_Node000002"><a xlink:href="SocketPool-private_8h.html#structSocketPool__T" target="_top" xlink:title=" ">
<polygon fill="white" stroke="#666666" points="872,-418.5 794,-418.5 794,-399.5 872,-399.5 872,-418.5"/>
<text text-anchor="middle" x="833" y="-406.5" font-family="Helvetica,sans-Serif" font-size="10.00">SocketPool_T</text>
</a>
</g>
</g>
<!-- Node2&#45;&gt;Node1 -->
<g id="edge1_Node000001_Node000002" class="edge">
<title>Node2&#45;&gt;Node1</title>
<g id="a_edge1_Node000001_Node000002"><a xlink:title=" ">
<path fill="none" stroke="#9a32cd" stroke-dasharray="5,2" d="M882.48,-404.17C897.68,-402.87 914.52,-401.64 930,-401 986.4,-398.65 1000.59,-399.13 1057,-401 1075.86,-401.63 1096.35,-402.8 1115,-404.06"/>
<polygon fill="#9a32cd" stroke="#9a32cd" points="881.91,-400.71 872.26,-405.08 882.53,-407.68 881.91,-400.71"/>
</a>
</g>
<text text-anchor="middle" x="993.5" y="-404" font-family="Helvetica,sans-Serif" font-size="10.00" fill="grey"> pool</text>
</g>
<!-- Node2&#45;&gt;Node2 -->
<g id="edge32_Node000002_Node000002" class="edge">
<title>Node2&#45;&gt;Node2</title>
<g id="a_edge32_Node000002_Node000002"><a xlink:title=" ">
<path fill="none" stroke="#9a32cd" stroke-dasharray="5,2" d="M820.48,-428.41C821.46,-433.06 825.64,-436.5 833,-436.5 845.09,-436.5 848.58,-427.23 843.48,-418.58"/>
<polygon fill="#9a32cd" stroke="#9a32cd" points="823.91,-429.09 822.52,-418.58 817.06,-427.66 823.91,-429.09"/>
</a>
</g>
<text text-anchor="middle" x="833" y="-450.5" font-family="Helvetica,sans-Serif" font-size="10.00" fill="grey"> drain_cb</text>
<text text-anchor="middle" x="833" y="-439.5" font-family="Helvetica,sans-Serif" font-size="10.00" fill="grey">resize_cb</text>
</g>
<!-- Node21 -->
<g id="Node000021" class="node">
<title>Node21</title>
<g id="a_Node000021"><a xlink:href="group__connection__mgmt.html#structAsyncConnectContext" target="_top" xlink:title="Internal context structure for tracking asynchronous connect operations.">
<polygon fill="white" stroke="#666666" points="1057,-439.5 930,-439.5 930,-420.5 1057,-420.5 1057,-439.5"/>
<text text-anchor="middle" x="993.5" y="-427.5" font-family="Helvetica,sans-Serif" font-size="10.00">AsyncConnectContext_T</text>
</a>
</g>
</g>
<!-- Node2&#45;&gt;Node21 -->
<g id="edge36_Node000021_Node000002" class="edge">
<title>Node2&#45;&gt;Node21</title>
<g id="a_edge36_Node000021_Node000002"><a xlink:title=" ">
<path fill="none" stroke="#9a32cd" stroke-dasharray="5,2" d="M882.4,-415.41C897.33,-417.39 914,-419.6 929.76,-421.69"/>
<polygon fill="#9a32cd" stroke="#9a32cd" points="882.74,-411.93 872.37,-414.08 881.82,-418.87 882.74,-411.93"/>
</a>
</g>
<text text-anchor="middle" x="901" y="-421" font-family="Helvetica,sans-Serif" font-size="10.00" fill="grey"> pool</text>
</g>
<!-- Node3 -->
<g id="Node000003" class="node">
<title>Node3</title>
<g id="a_Node000003"><a xlink:href="group__connection__mgmt.html#structConnection" target="_top" xlink:title="Internal structure representing a pooled connection slot.">
<polygon fill="white" stroke="#666666" points="685,-488.5 608,-488.5 608,-469.5 685,-469.5 685,-488.5"/>
<text text-anchor="middle" x="646.5" y="-476.5" font-family="Helvetica,sans-Serif" font-size="10.00">Connection_T</text>
</a>
</g>
</g>
<!-- Node3&#45;&gt;Node2 -->
<g id="edge2_Node000002_Node000003" class="edge">
<title>Node3&#45;&gt;Node2</title>
<g id="a_edge2_Node000002_Node000003"><a xlink:title=" ">
<path fill="none" stroke="#9a32cd" stroke-dasharray="5,2" d="M687.91,-466.37C713.42,-458.1 746.93,-446.69 776,-435 788.43,-430 802.07,-423.69 812.78,-418.53"/>
<polygon fill="#9a32cd" stroke="#9a32cd" points="686.66,-463.09 678.21,-469.49 688.8,-469.76 686.66,-463.09"/>
</a>
</g>
<text text-anchor="middle" x="748" y="-458" font-family="Helvetica,sans-Serif" font-size="10.00" fill="grey"> connections</text>
</g>
<!-- Node3&#45;&gt;Node3 -->
<g id="edge4_Node000003_Node000003" class="edge">
<title>Node3&#45;&gt;Node3</title>
<g id="a_edge4_Node000003_Node000003"><a xlink:title=" ">
<path fill="none" stroke="#9a32cd" stroke-dasharray="5,2" d="M628.08,-498.41C629.53,-503.06 635.67,-506.5 646.5,-506.5 664.27,-506.5 669.41,-497.23 661.91,-488.58"/>
<polygon fill="#9a32cd" stroke="#9a32cd" points="631.51,-499.17 631.09,-488.58 624.82,-497.12 631.51,-499.17"/>
</a>
</g>
<text text-anchor="middle" x="646.5" y="-520.5" font-family="Helvetica,sans-Serif" font-size="10.00" fill="grey"> free_next</text>
<text text-anchor="middle" x="646.5" y="-509.5" font-family="Helvetica,sans-Serif" font-size="10.00" fill="grey">hash_next</text>
</g>
<!-- Node4 -->
<g id="Node000004" class="node">
<title>Node4</title>
<g id="a_Node000004"><a xlink:title=" ">
<polygon fill="white" stroke="#666666" points="224.5,-661.5 165.5,-661.5 165.5,-642.5 224.5,-642.5 224.5,-661.5"/>
<text text-anchor="middle" x="195" y="-649.5" font-family="Helvetica,sans-Serif" font-size="10.00">Socket_T</text>
</a>
</g>
</g>
<!-- Node4&#45;&gt;Node1 -->
<g id="edge33_Node000001_Node000004" class="edge">
<title>Node4&#45;&gt;Node1</title>
<g id="a_edge33_Node000001_Node000004"><a xlink:title=" ">
<path fill="none" stroke="#9a32cd" stroke-dasharray="5,2" d="M220.01,-666.88C258.5,-689.26 337.03,-729 409.5,-729 409.5,-729 409.5,-729 994.5,-729 1141.38,-729 1171.98,-471.82 1176.74,-418.58"/>
<polygon fill="#9a32cd" stroke="#9a32cd" points="221.51,-663.69 211.12,-661.6 217.93,-669.71 221.51,-663.69"/>
</a>
</g>
<text text-anchor="middle" x="748" y="-732" font-family="Helvetica,sans-Serif" font-size="10.00" fill="grey"> socket</text>
</g>
<!-- Node4&#45;&gt;Node2 -->
<g id="edge15_Node000002_Node000004" class="edge">
<title>Node4&#45;&gt;Node2</title>
<g id="a_edge15_Node000002_Node000004"><a xlink:title=" ">
<path fill="none" stroke="#9a32cd" stroke-dasharray="5,2" d="M234.92,-654.1C289.9,-656.1 393.09,-656.29 478,-636 583.69,-610.75 610.97,-597.35 702,-538 756.07,-502.75 806.13,-442.29 824.54,-418.77"/>
<polygon fill="#9a32cd" stroke="#9a32cd" points="235.04,-650.6 224.9,-653.69 234.75,-657.59 235.04,-650.6"/>
</a>
</g>
<text text-anchor="middle" x="534.5" y="-634" font-family="Helvetica,sans-Serif" font-size="10.00" fill="grey"> cleanup_buffer</text>
</g>
<!-- Node4&#45;&gt;Node3 -->
<g id="edge3_Node000003_Node000004" class="edge">
<title>Node4&#45;&gt;Node3</title>
<g id="a_edge3_Node000003_Node000004"><a xlink:title=" ">
<path fill="none" stroke="#9a32cd" stroke-dasharray="5,2" d="M234.95,-644.58C301.53,-631.61 434.24,-604.46 478,-586 541.27,-559.31 607.39,-509.46 633.7,-488.58"/>
<polygon fill="#9a32cd" stroke="#9a32cd" points="234.01,-641.19 224.86,-646.53 235.34,-648.07 234.01,-641.19"/>
</a>
</g>
<text text-anchor="middle" x="410.5" y="-624" font-family="Helvetica,sans-Serif" font-size="10.00" fill="grey"> socket</text>
</g>
<!-- Node5 -->
<g id="Node000005" class="node">
<title>Node5</title>
<g id="a_Node000005"><a xlink:href="group__reconnect__private.html#structSocketReconnect__T" target="_top" xlink:title="Opaque internal context for reconnecting socket management.">
<polygon fill="white" stroke="#666666" points="463.5,-536.5 357.5,-536.5 357.5,-517.5 463.5,-517.5 463.5,-536.5"/>
<text text-anchor="middle" x="410.5" y="-524.5" font-family="Helvetica,sans-Serif" font-size="10.00">SocketReconnect_T</text>
</a>
</g>
</g>
<!-- Node4&#45;&gt;Node5 -->
<g id="edge7_Node000005_Node000004" class="edge">
<title>Node4&#45;&gt;Node5</title>
<g id="a_edge7_Node000005_Node000004"><a xlink:title=" ">
<path fill="none" stroke="#9a32cd" stroke-dasharray="5,2" d="M215.48,-635.79C232.43,-622.11 257.98,-602.49 282,-588 316.87,-566.95 360.13,-547.55 386.24,-536.51"/>
<polygon fill="#9a32cd" stroke="#9a32cd" points="212.99,-633.3 207.46,-642.34 217.42,-638.73 212.99,-633.3"/>
</a>
</g>
<text text-anchor="middle" x="303.5" y="-591" font-family="Helvetica,sans-Serif" font-size="10.00" fill="grey"> socket</text>
</g>
<!-- Node4&#45;&gt;Node21 -->
<g id="edge37_Node000021_Node000004" class="edge">
<title>Node4&#45;&gt;Node21</title>
<g id="a_edge37_Node000021_Node000004"><a xlink:title=" ">
<path fill="none" stroke="#9a32cd" stroke-dasharray="5,2" d="M234.64,-663.11C277.12,-674.32 347.59,-690 409.5,-690 409.5,-690 409.5,-690 834,-690 953.74,-690 985.67,-486.47 991.44,-439.56"/>
<polygon fill="#9a32cd" stroke="#9a32cd" points="235.29,-659.66 224.72,-660.43 233.46,-666.41 235.29,-659.66"/>
</a>
</g>
<text text-anchor="middle" x="646.5" y="-693" font-family="Helvetica,sans-Serif" font-size="10.00" fill="grey"> socket</text>
</g>
<!-- Node5&#45;&gt;Node3 -->
<g id="edge5_Node000003_Node000005" class="edge">
<title>Node5&#45;&gt;Node3</title>
<g id="a_edge5_Node000003_Node000005"><a xlink:title=" ">
<path fill="none" stroke="#9a32cd" stroke-dasharray="5,2" d="M467.86,-515.44C511.29,-506.53 570.11,-494.46 607.94,-486.7"/>
<polygon fill="#9a32cd" stroke="#9a32cd" points="467.1,-512.02 458.01,-517.46 468.51,-518.88 467.1,-512.02"/>
</a>
</g>
<text text-anchor="middle" x="534.5" y="-511" font-family="Helvetica,sans-Serif" font-size="10.00" fill="grey"> reconnect</text>
</g>
<!-- Node5&#45;&gt;Node5 -->
<g id="edge8_Node000005_Node000005" class="edge">
<title>Node5&#45;&gt;Node5</title>
<g id="a_edge8_Node000005_Node000005"><a xlink:title=" ">
<path fill="none" stroke="#9a32cd" stroke-dasharray="5,2" d="M390.87,-546.05C392.18,-550.88 398.73,-554.5 410.5,-554.5 429.34,-554.5 434.79,-545.23 426.84,-536.58"/>
<polygon fill="#9a32cd" stroke="#9a32cd" points="394.19,-547.18 394.16,-536.58 387.57,-544.88 394.19,-547.18"/>
</a>
</g>
<text text-anchor="middle" x="410.5" y="-568.5" font-family="Helvetica,sans-Serif" font-size="10.00" fill="grey"> callback</text>
<text text-anchor="middle" x="410.5" y="-557.5" font-family="Helvetica,sans-Serif" font-size="10.00" fill="grey">health_check</text>
</g>
<!-- Node6 -->
<g id="Node000006" class="node">
<title>Node6</title>
<g id="a_Node000006"><a xlink:href="group__connection__mgmt.html#structSocketReconnect__Policy__T" target="_top" xlink:title="Configuration structure defining backoff policy, circuit breaker thresholds, and health check paramet...">
<polygon fill="white" stroke="#666666" points="264,-311.5 126,-311.5 126,-292.5 264,-292.5 264,-311.5"/>
<text text-anchor="middle" x="195" y="-299.5" font-family="Helvetica,sans-Serif" font-size="10.00">SocketReconnect_Policy_T</text>
</a>
</g>
</g>
<!-- Node6&#45;&gt;Node2 -->
<g id="edge20_Node000002_Node000006" class="edge">
<title>Node6&#45;&gt;Node2</title>
<g id="a_edge20_Node000002_Node000006"><a xlink:title=" ">
<path fill="none" stroke="#9a32cd" stroke-dasharray="5,2" d="M220.36,-287.42C248.68,-271.39 297.38,-246.64 343,-237 401.7,-224.6 418.21,-232 478,-237 619.63,-248.84 665.95,-263.07 776,-353 794.1,-367.79 812.86,-387.63 823.41,-399.29"/>
<polygon fill="#9a32cd" stroke="#9a32cd" points="218.49,-284.46 211.57,-292.48 221.98,-290.52 218.49,-284.46"/>
</a>
</g>
<text text-anchor="middle" x="534.5" y="-251" font-family="Helvetica,sans-Serif" font-size="10.00" fill="grey"> reconnect_policy</text>
</g>
<!-- Node6&#45;&gt;Node5 -->
<g id="edge6_Node000005_Node000006" class="edge">
<title>Node6&#45;&gt;Node5</title>
<g id="a_edge6_Node000005_Node000006"><a xlink:title=" ">
<path fill="none" stroke="#9a32cd" stroke-dasharray="5,2" d="M210.22,-319.85C225.48,-339.79 249.48,-373.56 264,-406 276.59,-434.14 262.39,-449.21 282,-473 295.53,-489.41 307.15,-482.44 325,-494 333.74,-499.66 333.76,-504.2 343,-509 349.47,-512.37 356.64,-515.15 363.8,-517.44"/>
<polygon fill="#9a32cd" stroke="#9a32cd" points="212.79,-317.46 203.89,-311.71 207.27,-321.75 212.79,-317.46"/>
</a>
</g>
<text text-anchor="middle" x="303.5" y="-497" font-family="Helvetica,sans-Serif" font-size="10.00" fill="grey"> policy</text>
</g>
<!-- Node7 -->
<g id="Node000007" class="node">
<title>Node7</title>
<g id="a_Node000007"><a xlink:href="group__security.html#structSocketTLSContext__T" target="_top" xlink:title="TLS context structure for managing OpenSSL SSL_CTX with secure defaults, certificates,...">
<polygon fill="white" stroke="#666666" points="466,-470.5 355,-470.5 355,-451.5 466,-451.5 466,-470.5"/>
<text text-anchor="middle" x="410.5" y="-458.5" font-family="Helvetica,sans-Serif" font-size="10.00">SocketTLSContext_T</text>
</a>
</g>
</g>
<!-- Node7&#45;&gt;Node3 -->
<g id="edge9_Node000003_Node000007" class="edge">
<title>Node7&#45;&gt;Node3</title>
<g id="a_edge9_Node000003_Node000007"><a xlink:title=" ">
<path fill="none" stroke="#9a32cd" stroke-dasharray="5,2" d="M476.27,-465.98C518.53,-469.23 572.23,-473.36 607.68,-476.09"/>
<polygon fill="#9a32cd" stroke="#9a32cd" points="476.31,-462.47 466.07,-465.2 475.77,-469.45 476.31,-462.47"/>
</a>
</g>
<text text-anchor="middle" x="534.5" y="-476" font-family="Helvetica,sans-Serif" font-size="10.00" fill="grey"> tls_ctx</text>
</g>
<!-- Node7&#45;&gt;Node7 -->
<g id="edge12_Node000007_Node000007" class="edge">
<title>Node7&#45;&gt;Node7</title>
<g id="a_edge12_Node000007_Node000007"><a xlink:title=" ">
<path fill="none" stroke="#9a32cd" stroke-dasharray="5,2" d="M390.87,-480.05C392.18,-484.88 398.73,-488.5 410.5,-488.5 429.34,-488.5 434.79,-479.23 426.84,-470.58"/>
<polygon fill="#9a32cd" stroke="#9a32cd" points="394.19,-481.18 394.16,-470.58 387.57,-478.88 394.19,-481.18"/>
</a>
</g>
<text text-anchor="middle" x="410.5" y="-491.5" font-family="Helvetica,sans-Serif" font-size="10.00" fill="grey"> verify_callback</text>
</g>
<!-- Node8 -->
<g id="Node000008" class="node">
<title>Node8</title>
<g id="a_Node000008"><a xlink:href="structTLSContextSNICerts.html" target="_top" xlink:title="Structure for managing SNI certificate mappings in TLS context.">
<polygon fill="white" stroke="#666666" points="250,-470.5 140,-470.5 140,-451.5 250,-451.5 250,-470.5"/>
<text text-anchor="middle" x="195" y="-458.5" font-family="Helvetica,sans-Serif" font-size="10.00">TLSContextSNICerts</text>
</a>
</g>
</g>
<!-- Node8&#45;&gt;Node7 -->
<g id="edge10_Node000007_Node000008" class="edge">
<title>Node8&#45;&gt;Node7</title>
<g id="a_edge10_Node000007_Node000008"><a xlink:title=" ">
<path fill="none" stroke="#9a32cd" stroke-dasharray="5,2" d="M260.54,-461C290.58,-461 325.94,-461 354.66,-461"/>
<polygon fill="#9a32cd" stroke="#9a32cd" points="260.15,-457.5 250.15,-461 260.15,-464.5 260.15,-457.5"/>
</a>
</g>
<text text-anchor="middle" x="303.5" y="-464" font-family="Helvetica,sans-Serif" font-size="10.00" fill="grey"> sni_certs</text>
</g>
<!-- Node9 -->
<g id="Node000009" class="node">
<title>Node9</title>
<g id="a_Node000009"><a xlink:href="group__security.html#structTLSContextALPN" target="_top" xlink:title="Configuration for ALPN protocol negotiation.">
<polygon fill="white" stroke="#666666" points="242.5,-433.5 147.5,-433.5 147.5,-414.5 242.5,-414.5 242.5,-433.5"/>
<text text-anchor="middle" x="195" y="-421.5" font-family="Helvetica,sans-Serif" font-size="10.00">TLSContextALPN</text>
</a>
</g>
</g>
<!-- Node9&#45;&gt;Node7 -->
<g id="edge11_Node000007_Node000009" class="edge">
<title>Node9&#45;&gt;Node7</title>
<g id="a_edge11_Node000007_Node000009"><a xlink:title=" ">
<path fill="none" stroke="#9a32cd" stroke-dasharray="5,2" d="M252.66,-433.58C275.18,-437.41 301.32,-441.88 325,-446 334.98,-447.74 345.62,-449.61 355.87,-451.42"/>
<polygon fill="#9a32cd" stroke="#9a32cd" points="253.03,-430.09 242.59,-431.87 251.86,-436.99 253.03,-430.09"/>
</a>
</g>
<text text-anchor="middle" x="303.5" y="-449" font-family="Helvetica,sans-Serif" font-size="10.00" fill="grey"> alpn</text>
</g>
<!-- Node10 -->
<g id="Node000010" class="node">
<title>Node10</title>
<g id="a_Node000010"><a xlink:href="group__security.html#structTLSContextPinning" target="_top" xlink:title="TLSContextPinning &#45; Certificate pinning configuration.">
<polygon fill="white" stroke="#666666" points="245.5,-538.5 144.5,-538.5 144.5,-519.5 245.5,-519.5 245.5,-538.5"/>
<text text-anchor="middle" x="195" y="-526.5" font-family="Helvetica,sans-Serif" font-size="10.00">TLSContextPinning</text>
</a>
</g>
</g>
<!-- Node10&#45;&gt;Node7 -->
<g id="edge13_Node000007_Node000010" class="edge">
<title>Node10&#45;&gt;Node7</title>
<g id="a_edge13_Node000007_Node000010"><a xlink:title=" ">
<path fill="none" stroke="#9a32cd" stroke-dasharray="5,2" d="M255.62,-523.01C277.81,-519.7 302.94,-514.65 325,-507 351.36,-497.86 379.28,-481.07 395.52,-470.5"/>
<polygon fill="#9a32cd" stroke="#9a32cd" points="255.07,-519.55 245.65,-524.41 256.04,-526.48 255.07,-519.55"/>
</a>
</g>
<text text-anchor="middle" x="303.5" y="-521" font-family="Helvetica,sans-Serif" font-size="10.00" fill="grey"> pinning</text>
</g>
<!-- Node11 -->
<g id="Node000011" class="node">
<title>Node11</title>
<g id="a_Node000011"><a xlink:href="group__security.html#structTLSCertPin" target="_top" xlink:title="TLSCertPin &#45; Single certificate pin entry (SPKI SHA256 hash)">
<polygon fill="white" stroke="#666666" points="68,-538.5 0,-538.5 0,-519.5 68,-519.5 68,-538.5"/>
<text text-anchor="middle" x="34" y="-526.5" font-family="Helvetica,sans-Serif" font-size="10.00">TLSCertPin</text>
</a>
</g>
</g>
<!-- Node11&#45;&gt;Node10 -->
<g id="edge14_Node000010_Node000011" class="edge">
<title>Node11&#45;&gt;Node10</title>
<g id="a_edge14_Node000010_Node000011"><a xlink:title=" ">
<path fill="none" stroke="#9a32cd" stroke-dasharray="5,2" d="M78.59,-529C98.96,-529 123.32,-529 144.4,-529"/>
<polygon fill="#9a32cd" stroke="#9a32cd" points="78.33,-525.5 68.33,-529 78.33,-532.5 78.33,-525.5"/>
</a>
</g>
<text text-anchor="middle" x="97" y="-532" font-family="Helvetica,sans-Serif" font-size="10.00" fill="grey"> pins</text>
</g>
<!-- Node12 -->
<g id="Node000012" class="node">
<title>Node12</title>
<g id="a_Node000012"><a xlink:href="group__dns.html#structSocketDNS__T" target="_top" xlink:title="Async DNS resolver structure.">
<polygon fill="white" stroke="#666666" points="686.5,-137.5 606.5,-137.5 606.5,-118.5 686.5,-118.5 686.5,-137.5"/>
<text text-anchor="middle" x="646.5" y="-125.5" font-family="Helvetica,sans-Serif" font-size="10.00">SocketDNS_T</text>
</a>
</g>
</g>
<!-- Node12&#45;&gt;Node2 -->
<g id="edge16_Node000002_Node000012" class="edge">
<title>Node12&#45;&gt;Node2</title>
<g id="a_edge16_Node000002_Node000012"><a xlink:title=" ">
<path fill="none" stroke="#9a32cd" stroke-dasharray="5,2" d="M693.92,-140.8C721.58,-150.72 755.24,-167.22 776,-193 828.25,-257.86 832.23,-366.13 832.17,-399.14"/>
<polygon fill="#9a32cd" stroke="#9a32cd" points="695.02,-137.47 684.42,-137.56 692.76,-144.1 695.02,-137.47"/>
</a>
</g>
<text text-anchor="middle" x="748" y="-196" font-family="Helvetica,sans-Serif" font-size="10.00" fill="grey"> dns</text>
</g>
<!-- Node13 -->
<g id="Node000013" class="node">
<title>Node13</title>
<g id="a_Node000013"><a xlink:href="group__dns.html#structSocketDNS__Request__T" target="_top" xlink:title="DNS resolution request structure.">
<polygon fill="white" stroke="#666666" points="471.5,-49.5 349.5,-49.5 349.5,-30.5 471.5,-30.5 471.5,-49.5"/>
<text text-anchor="middle" x="410.5" y="-37.5" font-family="Helvetica,sans-Serif" font-size="10.00">SocketDNS_Request_T</text>
</a>
</g>
</g>
<!-- Node12&#45;&gt;Node13 -->
<g id="edge19_Node000013_Node000012" class="edge">
<title>Node12&#45;&gt;Node13</title>
<g id="a_edge19_Node000013_Node000012"><a xlink:title=" ">
<path fill="none" stroke="#9a32cd" stroke-dasharray="5,2" d="M596.01,-127.07C566.03,-124.98 527.6,-119.53 496,-106 464.51,-92.52 434.64,-64.32 420.32,-49.53"/>
<polygon fill="#9a32cd" stroke="#9a32cd" points="596.04,-130.57 606.23,-127.67 596.46,-123.59 596.04,-130.57"/>
</a>
</g>
<text text-anchor="middle" x="534.5" y="-128" font-family="Helvetica,sans-Serif" font-size="10.00" fill="grey"> dns_resolver</text>
</g>
<!-- Node13&#45;&gt;Node1 -->
<g id="edge34_Node000001_Node000013" class="edge">
<title>Node13&#45;&gt;Node1</title>
<g id="a_edge34_Node000001_Node000013"><a xlink:title=" ">
<path fill="none" stroke="#9a32cd" stroke-dasharray="5,2" d="M455.48,-27.91C502.23,-16.13 578.5,0 645.5,0 645.5,0 645.5,0 994.5,0 1175.36,0 1178.65,-337.36 1177.73,-399.29"/>
<polygon fill="#9a32cd" stroke="#9a32cd" points="454.5,-24.54 445.68,-30.42 456.24,-31.32 454.5,-24.54"/>
</a>
</g>
<text text-anchor="middle" x="833" y="-3" font-family="Helvetica,sans-Serif" font-size="10.00" fill="grey"> req</text>
</g>
<!-- Node13&#45;&gt;Node12 -->
<g id="edge17_Node000012_Node000013" class="edge">
<title>Node13&#45;&gt;Node12</title>
<g id="a_edge17_Node000012_Node000013"><a xlink:title=" ">
<path fill="none" stroke="#9a32cd" stroke-dasharray="5,2" d="M481.71,-51.18C517.39,-57.49 556.62,-65.58 573,-73 598.04,-84.34 622.54,-105.67 635.66,-118.18"/>
<polygon fill="#9a32cd" stroke="#9a32cd" points="482.21,-47.71 471.76,-49.45 481.01,-54.61 482.21,-47.71"/>
</a>
</g>
<text text-anchor="middle" x="534.5" y="-98" font-family="Helvetica,sans-Serif" font-size="10.00" fill="grey"> queue_head</text>
<text text-anchor="middle" x="534.5" y="-87" font-family="Helvetica,sans-Serif" font-size="10.00" fill="grey">queue_tail</text>
<text text-anchor="middle" x="534.5" y="-76" font-family="Helvetica,sans-Serif" font-size="10.00" fill="grey">request_hash</text>
</g>
<!-- Node13&#45;&gt;Node13 -->
<g id="edge18_Node000013_Node000013" class="edge">
<title>Node13&#45;&gt;Node13</title>
<g id="a_edge18_Node000013_Node000013"><a xlink:title=" ">
<path fill="none" stroke="#9a32cd" stroke-dasharray="5,2" d="M390.87,-59.05C392.18,-63.88 398.73,-67.5 410.5,-67.5 429.34,-67.5 434.79,-58.23 426.84,-49.58"/>
<polygon fill="#9a32cd" stroke="#9a32cd" points="394.19,-60.18 394.16,-49.58 387.57,-57.88 394.19,-60.18"/>
</a>
</g>
<text text-anchor="middle" x="410.5" y="-92.5" font-family="Helvetica,sans-Serif" font-size="10.00" fill="grey"> callback</text>
<text text-anchor="middle" x="410.5" y="-81.5" font-family="Helvetica,sans-Serif" font-size="10.00" fill="grey">hash_next</text>
<text text-anchor="middle" x="410.5" y="-70.5" font-family="Helvetica,sans-Serif" font-size="10.00" fill="grey">queue_next</text>
</g>
<!-- Node13&#45;&gt;Node21 -->
<g id="edge38_Node000021_Node000013" class="edge">
<title>Node13&#45;&gt;Node21</title>
<g id="a_edge38_Node000021_Node000013"><a xlink:title=" ">
<path fill="none" stroke="#9a32cd" stroke-dasharray="5,2" d="M481.59,-40.49C562.16,-44.75 693.83,-63.55 776,-137 881.6,-231.39 816.68,-331.03 930,-416 932.22,-417.67 934.61,-419.14 937.1,-420.45"/>
<polygon fill="#9a32cd" stroke="#9a32cd" points="481.69,-36.99 471.54,-40.02 481.37,-43.99 481.69,-36.99"/>
</a>
</g>
<text text-anchor="middle" x="748" y="-140" font-family="Helvetica,sans-Serif" font-size="10.00" fill="grey"> req</text>
</g>
<!-- Node14 -->
<g id="Node000014" class="node">
<title>Node14</title>
<g id="a_Node000014"><a xlink:href="group__utilities.html#structSocketRateLimit__T" target="_top" xlink:title="Internal structure implementing the token bucket rate limiter.">
<polygon fill="white" stroke="#666666" points="461,-433.5 360,-433.5 360,-414.5 461,-414.5 461,-433.5"/>
<text text-anchor="middle" x="410.5" y="-421.5" font-family="Helvetica,sans-Serif" font-size="10.00">SocketRateLimit_T</text>
</a>
</g>
</g>
<!-- Node14&#45;&gt;Node2 -->
<g id="edge21_Node000002_Node000014" class="edge">
<title>Node14&#45;&gt;Node2</title>
<g id="a_edge21_Node000002_Node000014"><a xlink:title=" ">
<path fill="none" stroke="#9a32cd" stroke-dasharray="5,2" d="M471.47,-421.86C559.36,-418.73 720.63,-412.97 793.94,-410.36"/>
<polygon fill="#9a32cd" stroke="#9a32cd" points="471.26,-418.37 461.39,-422.22 471.51,-425.36 471.26,-418.37"/>
</a>
</g>
<text text-anchor="middle" x="646.5" y="-420" font-family="Helvetica,sans-Serif" font-size="10.00" fill="grey"> conn_limiter</text>
</g>
<!-- Node15 -->
<g id="Node000015" class="node">
<title>Node15</title>
<g id="a_Node000015"><a xlink:href="group__security.html#structSocketSYNProtect__T" target="_top" xlink:title="Core internal structure for the SYN protection module.">
<polygon fill="white" stroke="#666666" points="702,-331.5 591,-331.5 591,-312.5 702,-312.5 702,-331.5"/>
<text text-anchor="middle" x="646.5" y="-319.5" font-family="Helvetica,sans-Serif" font-size="10.00">SocketSYNProtect_T</text>
</a>
</g>
</g>
<!-- Node14&#45;&gt;Node15 -->
<g id="edge31_Node000015_Node000014" class="edge">
<title>Node14&#45;&gt;Node15</title>
<g id="a_edge31_Node000015_Node000014"><a xlink:title=" ">
<path fill="none" stroke="#9a32cd" stroke-dasharray="5,2" d="M462.39,-411.6C467.72,-409.89 473.01,-408.02 478,-406 486.48,-402.56 487.87,-400.21 496,-396 529.72,-378.55 538.98,-375.85 573,-359 591.49,-349.84 612.47,-339.1 627.09,-331.55"/>
<polygon fill="#9a32cd" stroke="#9a32cd" points="461.37,-408.25 452.81,-414.49 463.4,-414.95 461.37,-408.25"/>
</a>
</g>
<text text-anchor="middle" x="534.5" y="-399" font-family="Helvetica,sans-Serif" font-size="10.00" fill="grey"> global_limiter</text>
</g>
<!-- Node15&#45;&gt;Node2 -->
<g id="edge22_Node000002_Node000015" class="edge">
<title>Node15&#45;&gt;Node2</title>
<g id="a_edge22_Node000002_Node000015"><a xlink:title=" ">
<path fill="none" stroke="#9a32cd" stroke-dasharray="5,2" d="M677.41,-336.1C715.2,-353.92 779.22,-384.11 811.74,-399.45"/>
<polygon fill="#9a32cd" stroke="#9a32cd" points="678.49,-332.74 667.95,-331.64 675.5,-339.07 678.49,-332.74"/>
</a>
</g>
<text text-anchor="middle" x="748" y="-383" font-family="Helvetica,sans-Serif" font-size="10.00" fill="grey"> syn_protect</text>
</g>
<!-- Node16 -->
<g id="Node000016" class="node">
<title>Node16</title>
<g id="a_Node000016"><a xlink:href="group__security.html#structSocketSYNProtect__Config" target="_top" xlink:title="Configuration parameters for SYN flood protection.">
<polygon fill="white" stroke="#666666" points="477.5,-264.5 343.5,-264.5 343.5,-245.5 477.5,-245.5 477.5,-264.5"/>
<text text-anchor="middle" x="410.5" y="-252.5" font-family="Helvetica,sans-Serif" font-size="10.00">SocketSYNProtect_Config</text>
</a>
</g>
</g>
<!-- Node16&#45;&gt;Node15 -->
<g id="edge23_Node000015_Node000016" class="edge">
<title>Node16&#45;&gt;Node15</title>
<g id="a_edge23_Node000015_Node000016"><a xlink:title=" ">
<path fill="none" stroke="#9a32cd" stroke-dasharray="5,2" d="M485.73,-266.36C513.49,-271.59 545.06,-278.74 573,-288 592.53,-294.47 613.71,-304.83 628.1,-312.41"/>
<polygon fill="#9a32cd" stroke="#9a32cd" points="486.16,-262.88 475.69,-264.51 484.89,-269.76 486.16,-262.88"/>
</a>
</g>
<text text-anchor="middle" x="534.5" y="-291" font-family="Helvetica,sans-Serif" font-size="10.00" fill="grey"> config</text>
</g>
<!-- Node17 -->
<g id="Node000017" class="node">
<title>Node17</title>
<g id="a_Node000017"><a xlink:href="group__security.html#structSocketSYN__IPEntry" target="_top" xlink:title="Internal IP tracking entry for hash table and LRU management.">
<polygon fill="white" stroke="#666666" points="464,-137.5 357,-137.5 357,-118.5 464,-118.5 464,-137.5"/>
<text text-anchor="middle" x="410.5" y="-125.5" font-family="Helvetica,sans-Serif" font-size="10.00">SocketSYN_IPEntry</text>
</a>
</g>
</g>
<!-- Node17&#45;&gt;Node15 -->
<g id="edge24_Node000015_Node000017" class="edge">
<title>Node17&#45;&gt;Node15</title>
<g id="a_edge24_Node000015_Node000017"><a xlink:title=" ">
<path fill="none" stroke="#9a32cd" stroke-dasharray="5,2" d="M474.24,-138.82C516.17,-146.53 565.06,-156.61 573,-163 622.61,-202.97 639.62,-284.36 644.12,-312.32"/>
<polygon fill="#9a32cd" stroke="#9a32cd" points="474.78,-135.36 464.32,-137.02 473.53,-142.25 474.78,-135.36"/>
</a>
</g>
<text text-anchor="middle" x="534.5" y="-188" font-family="Helvetica,sans-Serif" font-size="10.00" fill="grey"> ip_table</text>
<text text-anchor="middle" x="534.5" y="-177" font-family="Helvetica,sans-Serif" font-size="10.00" fill="grey">lru_head</text>
<text text-anchor="middle" x="534.5" y="-166" font-family="Helvetica,sans-Serif" font-size="10.00" fill="grey">lru_tail</text>
</g>
<!-- Node17&#45;&gt;Node17 -->
<g id="edge26_Node000017_Node000017" class="edge">
<title>Node17&#45;&gt;Node17</title>
<g id="a_edge26_Node000017_Node000017"><a xlink:title=" ">
<path fill="none" stroke="#9a32cd" stroke-dasharray="5,2" d="M390.87,-147.05C392.18,-151.88 398.73,-155.5 410.5,-155.5 429.34,-155.5 434.79,-146.23 426.84,-137.58"/>
<polygon fill="#9a32cd" stroke="#9a32cd" points="394.19,-148.18 394.16,-137.58 387.57,-145.88 394.19,-148.18"/>
</a>
</g>
<text text-anchor="middle" x="410.5" y="-180.5" font-family="Helvetica,sans-Serif" font-size="10.00" fill="grey"> hash_next</text>
<text text-anchor="middle" x="410.5" y="-169.5" font-family="Helvetica,sans-Serif" font-size="10.00" fill="grey">lru_next</text>
<text text-anchor="middle" x="410.5" y="-158.5" font-family="Helvetica,sans-Serif" font-size="10.00" fill="grey">lru_prev</text>
</g>
<!-- Node18 -->
<g id="Node000018" class="node">
<title>Node18</title>
<g id="a_Node000018"><a xlink:href="group__security.html#structSocketSYN__IPState" target="_top" xlink:title="Per&#45;IP address tracking and reputation state.">
<polygon fill="white" stroke="#666666" points="248.5,-137.5 141.5,-137.5 141.5,-118.5 248.5,-118.5 248.5,-137.5"/>
<text text-anchor="middle" x="195" y="-125.5" font-family="Helvetica,sans-Serif" font-size="10.00">SocketSYN_IPState</text>
</a>
</g>
</g>
<!-- Node18&#45;&gt;Node17 -->
<g id="edge25_Node000017_Node000018" class="edge">
<title>Node18&#45;&gt;Node17</title>
<g id="a_edge25_Node000017_Node000018"><a xlink:title=" ">
<path fill="none" stroke="#9a32cd" stroke-dasharray="5,2" d="M258.82,-128C289.98,-128 327.18,-128 356.83,-128"/>
<polygon fill="#9a32cd" stroke="#9a32cd" points="258.5,-124.5 248.5,-128 258.5,-131.5 258.5,-124.5"/>
</a>
</g>
<text text-anchor="middle" x="303.5" y="-131" font-family="Helvetica,sans-Serif" font-size="10.00" fill="grey"> state</text>
</g>
<!-- Node19 -->
<g id="Node000019" class="node">
<title>Node19</title>
<g id="a_Node000019"><a xlink:href="group__security.html#structSocketSYN__WhitelistEntry" target="_top" xlink:title="Structure for whitelist entries supporting single IPs and CIDR ranges.">
<polygon fill="white" stroke="#666666" points="478,-367.5 343,-367.5 343,-348.5 478,-348.5 478,-367.5"/>
<text text-anchor="middle" x="410.5" y="-355.5" font-family="Helvetica,sans-Serif" font-size="10.00">SocketSYN_WhitelistEntry</text>
</a>
</g>
</g>
<!-- Node19&#45;&gt;Node15 -->
<g id="edge27_Node000015_Node000019" class="edge">
<title>Node19&#45;&gt;Node15</title>
<g id="a_edge27_Node000015_Node000019"><a xlink:title=" ">
<path fill="none" stroke="#9a32cd" stroke-dasharray="5,2" d="M483.35,-346.95C518.01,-341.61 558.9,-335.32 590.95,-330.39"/>
<polygon fill="#9a32cd" stroke="#9a32cd" points="482.64,-343.51 473.29,-348.49 483.7,-350.43 482.64,-343.51"/>
</a>
</g>
<text text-anchor="middle" x="534.5" y="-347" font-family="Helvetica,sans-Serif" font-size="10.00" fill="grey"> whitelist_table</text>
</g>
<!-- Node19&#45;&gt;Node19 -->
<g id="edge28_Node000019_Node000019" class="edge">
<title>Node19&#45;&gt;Node19</title>
<g id="a_edge28_Node000019_Node000019"><a xlink:title=" ">
<path fill="none" stroke="#9a32cd" stroke-dasharray="5,2" d="M390.87,-377.05C392.18,-381.88 398.73,-385.5 410.5,-385.5 429.34,-385.5 434.79,-376.23 426.84,-367.58"/>
<polygon fill="#9a32cd" stroke="#9a32cd" points="394.19,-378.18 394.16,-367.58 387.57,-375.88 394.19,-378.18"/>
</a>
</g>
<text text-anchor="middle" x="410.5" y="-388.5" font-family="Helvetica,sans-Serif" font-size="10.00" fill="grey"> next</text>
</g>
<!-- Node20 -->
<g id="Node000020" class="node">
<title>Node20</title>
<g id="a_Node000020"><a xlink:href="group__security.html#structSocketSYN__BlacklistEntry" target="_top" xlink:title="Internal structure for blacklisted IP addresses with expiry support.">
<polygon fill="white" stroke="#666666" points="477.5,-301.5 343.5,-301.5 343.5,-282.5 477.5,-282.5 477.5,-301.5"/>
<text text-anchor="middle" x="410.5" y="-289.5" font-family="Helvetica,sans-Serif" font-size="10.00">SocketSYN_BlacklistEntry</text>
</a>
</g>
</g>
<!-- Node20&#45;&gt;Node15 -->
<g id="edge29_Node000015_Node000020" class="edge">
<title>Node20&#45;&gt;Node15</title>
<g id="a_edge29_Node000015_Node000020"><a xlink:title=" ">
<path fill="none" stroke="#9a32cd" stroke-dasharray="5,2" d="M487.88,-301.79C521.54,-306.11 560.32,-311.08 590.99,-315.01"/>
<polygon fill="#9a32cd" stroke="#9a32cd" points="487.98,-298.28 477.62,-300.48 487.09,-305.22 487.98,-298.28"/>
</a>
</g>
<text text-anchor="middle" x="534.5" y="-315" font-family="Helvetica,sans-Serif" font-size="10.00" fill="grey"> blacklist_table</text>
</g>
<!-- Node20&#45;&gt;Node20 -->
<g id="edge30_Node000020_Node000020" class="edge">
<title>Node20&#45;&gt;Node20</title>
<g id="a_edge30_Node000020_Node000020"><a xlink:title=" ">
<path fill="none" stroke="#9a32cd" stroke-dasharray="5,2" d="M390.87,-311.05C392.18,-315.88 398.73,-319.5 410.5,-319.5 429.34,-319.5 434.79,-310.23 426.84,-301.58"/>
<polygon fill="#9a32cd" stroke="#9a32cd" points="394.19,-312.18 394.16,-301.58 387.57,-309.88 394.19,-312.18"/>
</a>
</g>
<text text-anchor="middle" x="410.5" y="-322.5" font-family="Helvetica,sans-Serif" font-size="10.00" fill="grey"> next</text>
</g>
<!-- Node21&#45;&gt;Node1 -->
<g id="edge35_Node000001_Node000021" class="edge">
<title>Node21&#45;&gt;Node1</title>
<g id="a_edge35_Node000001_Node000021"><a xlink:title=" ">
<path fill="none" stroke="#9a32cd" stroke-dasharray="5,2" d="M1067.41,-421.63C1083.12,-419.83 1099.59,-417.94 1114.86,-416.19"/>
<polygon fill="#9a32cd" stroke="#9a32cd" points="1066.76,-418.19 1057.22,-422.8 1067.56,-425.14 1066.76,-418.19"/>
</a>
</g>
<text text-anchor="middle" x="1086" y="-423" font-family="Helvetica,sans-Serif" font-size="10.00" fill="grey"> next</text>
</g>
<!-- Node21&#45;&gt;Node21 -->
<g id="edge39_Node000021_Node000021" class="edge">
<title>Node21&#45;&gt;Node21</title>
<g id="a_edge39_Node000021_Node000021"><a xlink:title=" ">
<path fill="none" stroke="#9a32cd" stroke-dasharray="5,2" d="M976.56,-449.41C977.89,-454.06 983.54,-457.5 993.5,-457.5 1009.85,-457.5 1014.58,-448.23 1007.68,-439.58"/>
<polygon fill="#9a32cd" stroke="#9a32cd" points="979.98,-450.16 979.32,-439.58 973.25,-448.26 979.98,-450.16"/>
</a>
</g>
<text text-anchor="middle" x="993.5" y="-460.5" font-family="Helvetica,sans-Serif" font-size="10.00" fill="grey"> next</text>
</g>
</g>
</svg>
