<?xml version="1.0" encoding="UTF-8" standalone="no"?>
<!DOCTYPE svg PUBLIC "-//W3C//DTD SVG 1.1//EN"
 "http://www.w3.org/Graphics/SVG/1.1/DTD/svg11.dtd">
<!-- Generated by graphviz version 2.43.0 (0)
 -->
<!-- Title: SocketHTTPClient_AsyncRequest_T Pages: 1 -->
<svg width="358pt" height="187pt"
 viewBox="0.00 0.00 358.15 187.00" xmlns="http://www.w3.org/2000/svg" xmlns:xlink="http://www.w3.org/1999/xlink">
<g id="graph0" class="graph" transform="scale(1 1) rotate(0) translate(4 183)">
<title>SocketHTTPClient_AsyncRequest_T</title>
<!-- Node1 -->
<g id="Node000001" class="node">
<title>Node1</title>
<g id="a_Node000001"><a xlink:title="Asynchronous HTTP request state and callback handler.">
<polygon fill="#999999" stroke="#666666" points="219.65,-19 39.65,-19 39.65,0 219.65,0 219.65,-19"/>
<text text-anchor="middle" x="129.65" y="-7" font-family="Helvetica,sans-Serif" font-size="10.00">SocketHTTPClient_AsyncRequest_T</text>
</a>
</g>
</g>
<!-- Node2 -->
<g id="Node000002" class="node">
<title>Node2</title>
<g id="a_Node000002"><a xlink:href="group__http.html#structHTTPPoolEntry" target="_top" xlink:title="HTTP connection pool entry for reusing connections to the same host:port.">
<polygon fill="white" stroke="#666666" points="95.65,-172 9.65,-172 9.65,-153 95.65,-153 95.65,-172"/>
<text text-anchor="middle" x="52.65" y="-160" font-family="Helvetica,sans-Serif" font-size="10.00">HTTPPoolEntry</text>
</a>
</g>
</g>
<!-- Node2&#45;&gt;Node1 -->
<g id="edge1_Node000001_Node000002" class="edge">
<title>Node2&#45;&gt;Node1</title>
<g id="a_edge1_Node000001_Node000002"><a xlink:title=" ">
<path fill="none" stroke="#9a32cd" stroke-dasharray="5,2" d="M35.26,-146.07C15.57,-126.67 -11.65,-92.7 5.65,-66 22.2,-40.47 53.56,-26.57 80.6,-19.07"/>
<polygon fill="#9a32cd" stroke="#9a32cd" points="32.9,-148.66 42.58,-152.97 37.71,-143.56 32.9,-148.66"/>
</a>
</g>
<text text-anchor="middle" x="18.15" y="-74.5" font-family="Helvetica,sans-Serif" font-size="10.00" fill="grey"> conn</text>
</g>
<!-- Node2&#45;&gt;Node2 -->
<g id="edge2_Node000002_Node000002" class="edge">
<title>Node2&#45;&gt;Node2</title>
<g id="a_edge2_Node000002_Node000002"><a xlink:title=" ">
<path fill="none" stroke="#9a32cd" stroke-dasharray="5,2" d="M105.91,-169.02C110.67,-167.65 113.65,-165.48 113.65,-162.5 113.65,-157.73 106.01,-155.03 95.69,-154.4"/>
<polygon fill="#9a32cd" stroke="#9a32cd" points="105.04,-165.61 95.69,-170.6 106.11,-172.53 105.04,-165.61"/>
</a>
</g>
<text text-anchor="middle" x="138.15" y="-171" font-family="Helvetica,sans-Serif" font-size="10.00" fill="grey"> hash_next</text>
<text text-anchor="middle" x="138.15" y="-160" font-family="Helvetica,sans-Serif" font-size="10.00" fill="grey">next</text>
<text text-anchor="middle" x="138.15" y="-149" font-family="Helvetica,sans-Serif" font-size="10.00" fill="grey">prev</text>
</g>
<!-- Node4 -->
<g id="Node000004" class="node">
<title>Node4</title>
<g id="a_Node000004"><a xlink:href="group__http.html#structSocketHTTPClient__AsyncRequest" target="_top" xlink:title="Asynchronous HTTP request state and callback handler.">
<polygon fill="white" stroke="#666666" points="219.65,-86.5 39.65,-86.5 39.65,-67.5 219.65,-67.5 219.65,-86.5"/>
<text text-anchor="middle" x="129.65" y="-74.5" font-family="Helvetica,sans-Serif" font-size="10.00">SocketHTTPClient_AsyncRequest_T</text>
</a>
</g>
</g>
<!-- Node2&#45;&gt;Node4 -->
<g id="edge5_Node000004_Node000002" class="edge">
<title>Node2&#45;&gt;Node4</title>
<g id="a_edge5_Node000004_Node000002"><a xlink:title=" ">
<path fill="none" stroke="#9a32cd" stroke-dasharray="5,2" d="M67.73,-145.15C83.88,-127.64 108.9,-100.5 121.63,-86.7"/>
<polygon fill="#9a32cd" stroke="#9a32cd" points="64.81,-143.15 60.6,-152.88 69.96,-147.9 64.81,-143.15"/>
</a>
</g>
<text text-anchor="middle" x="115.15" y="-114.5" font-family="Helvetica,sans-Serif" font-size="10.00" fill="grey"> conn</text>
</g>
<!-- Node3 -->
<g id="Node000003" class="node">
<title>Node3</title>
<g id="a_Node000003"><a xlink:href="group__http__client.html#structSocketHTTPClient__Response" target="_top" xlink:title="HTTP response structure returned by client functions.">
<polygon fill="white" stroke="#666666" points="350.15,-172 201.15,-172 201.15,-153 350.15,-153 350.15,-172"/>
<text text-anchor="middle" x="275.65" y="-160" font-family="Helvetica,sans-Serif" font-size="10.00">SocketHTTPClient_Response</text>
</a>
</g>
</g>
<!-- Node3&#45;&gt;Node1 -->
<g id="edge3_Node000001_Node000003" class="edge">
<title>Node3&#45;&gt;Node1</title>
<g id="a_edge3_Node000001_Node000003"><a xlink:title=" ">
<path fill="none" stroke="#9a32cd" stroke-dasharray="5,2" d="M279.7,-142.73C283.06,-121.9 284.98,-88.29 268.65,-66 249.85,-40.32 217.21,-26.51 188.29,-19.09"/>
<polygon fill="#9a32cd" stroke="#9a32cd" points="276.21,-142.36 277.79,-152.83 283.09,-143.65 276.21,-142.36"/>
</a>
</g>
<text text-anchor="middle" x="298.65" y="-80" font-family="Helvetica,sans-Serif" font-size="10.00" fill="grey"> callback</text>
<text text-anchor="middle" x="298.65" y="-69" font-family="Helvetica,sans-Serif" font-size="10.00" fill="grey">response</text>
</g>
<!-- Node3&#45;&gt;Node4 -->
<g id="edge6_Node000004_Node000003" class="edge">
<title>Node3&#45;&gt;Node4</title>
<g id="a_edge6_Node000004_Node000003"><a xlink:title=" ">
<path fill="none" stroke="#9a32cd" stroke-dasharray="5,2" d="M251.54,-147.71C221.25,-130.39 170.2,-101.19 144.87,-86.7"/>
<polygon fill="#9a32cd" stroke="#9a32cd" points="250.16,-150.95 260.58,-152.88 253.64,-144.88 250.16,-150.95"/>
</a>
</g>
<text text-anchor="middle" x="235.65" y="-120" font-family="Helvetica,sans-Serif" font-size="10.00" fill="grey"> callback</text>
<text text-anchor="middle" x="235.65" y="-109" font-family="Helvetica,sans-Serif" font-size="10.00" fill="grey">response</text>
</g>
<!-- Node4&#45;&gt;Node1 -->
<g id="edge4_Node000001_Node000004" class="edge">
<title>Node4&#45;&gt;Node1</title>
<g id="a_edge4_Node000001_Node000004"><a xlink:title=" ">
<path fill="none" stroke="#9a32cd" stroke-dasharray="5,2" d="M129.65,-57.18C129.65,-44.71 129.65,-28.92 129.65,-19.27"/>
<polygon fill="#9a32cd" stroke="#9a32cd" points="126.15,-57.44 129.65,-67.44 133.15,-57.44 126.15,-57.44"/>
</a>
</g>
<text text-anchor="middle" x="140.65" y="-40" font-family="Helvetica,sans-Serif" font-size="10.00" fill="grey"> next</text>
</g>
<!-- Node4&#45;&gt;Node4 -->
<g id="edge7_Node000004_Node000004" class="edge">
<title>Node4&#45;&gt;Node4</title>
<g id="a_edge7_Node000004_Node000004"><a xlink:title=" ">
<path fill="none" stroke="#9a32cd" stroke-dasharray="5,2" d="M229.86,-81.08C234.77,-80.06 237.65,-78.7 237.65,-77 237.65,-74.34 230.62,-72.52 219.86,-71.52"/>
<polygon fill="#9a32cd" stroke="#9a32cd" points="229.28,-77.63 219.86,-82.48 230.24,-84.56 229.28,-77.63"/>
</a>
</g>
<text text-anchor="middle" x="248.65" y="-74.5" font-family="Helvetica,sans-Serif" font-size="10.00" fill="grey"> next</text>
</g>
</g>
</svg>
