<?xml version="1.0" encoding="UTF-8" standalone="no"?>
<!DOCTYPE svg PUBLIC "-//W3C//DTD SVG 1.1//EN"
 "http://www.w3.org/Graphics/SVG/1.1/DTD/svg11.dtd">
<!-- Generated by graphviz version 2.43.0 (0)
 -->
<!-- Title: SocketProxy_Conn_T Pages: 1 -->
<!--zoomable 639 -->

<svg id="main" version="1.1" xmlns="http://www.w3.org/2000/svg" xmlns:xlink="http://www.w3.org/1999/xlink" xml:space="preserve" onload="init(evt)">
<style type="text/css"><![CDATA[
.node, .edge {opacity: 0.7;}
.node.selected, .edge.selected {opacity: 1;}
.edge:hover path { stroke: red; }
.edge:hover polygon { stroke: red; fill: red; }
]]></style>

<defs>
  <circle id="rim" cx="0" cy="0" r="7"/>
  <circle id="rim2" cx="0" cy="0" r="3.5"/>
  <g id="zoomPlus">
    <use xlink:href="#rim" fill="#404040"><set attributeName="fill" to="#808080" begin="zoomplus.mouseover" end="zoomplus.mouseout"/></use>
    <path d="M-4,0h8M0,-4v8" fill="none" stroke="white" stroke-width="1.5" pointer-events="none"/>
  </g>
  <g id="zoomMin">
    <use xlink:href="#rim" fill="#404040"><set attributeName="fill" to="#808080" begin="zoomminus.mouseover" end="zoomminus.mouseout"/></use>
    <path d="M-4,0h8" fill="none" stroke="white" stroke-width="1.5" pointer-events="none"/>
  </g>
  <g id="arrowUp" transform="translate(30 24)">
    <use xlink:href="#rim"/>
    <path pointer-events="none" fill="none" stroke="white" stroke-width="1.5" d="M0,-3.0v7 M-2.5,-0.5L0,-3.0L2.5,-0.5"/>
  </g>
  <g id="arrowRight" transform="rotate(90) translate(36 -43)">
    <use xlink:href="#rim"/>
    <path pointer-events="none" fill="none" stroke="white" stroke-width="1.5" d="M0,-3.0v7 M-2.5,-0.5L0,-3.0L2.5,-0.5"/>
  </g>
  <g id="arrowDown" transform="rotate(180) translate(-30 -48)">
    <use xlink:href="#rim"/>
    <path pointer-events="none" fill="none" stroke="white" stroke-width="1.5" d="M0,-3.0v7 M-2.5,-0.5L0,-3.0L2.5,-0.5"/>
  </g>
  <g id="arrowLeft" transform="rotate(270) translate(-36 17)">
    <use xlink:href="#rim"/>
    <path pointer-events="none" fill="none" stroke="white" stroke-width="1.5" d="M0,-3.0v7 M-2.5,-0.5L0,-3.0L2.5,-0.5"/>
  </g>
  <g id="resetDef">
    <use xlink:href="#rim2" fill="#404040"><set attributeName="fill" to="#808080" begin="reset.mouseover" end="reset.mouseout"/></use>
  </g>
</defs>
<script type="application/ecmascript">
var viewWidth = 1202;
var viewHeight = 639;
var sectionId = 'dynsection-2';
</script>
<script type="application/ecmascript" xlink:href="svg.min.js"/>
<svg id="graph" class="graph">
<g id="viewport">
<title>SocketProxy_Conn_T</title>
<!-- Node1 -->
<g id="Node000001" class="node">
<title>Node1</title>
<g id="a_Node000001"><a xlink:title="Opaque proxy connection context for managing tunneling negotiation.">
<polygon fill="#999999" stroke="#666666" points="1194,-412 1081,-412 1081,-393 1194,-393 1194,-412"/>
<text text-anchor="middle" x="1137.5" y="-400" font-family="Helvetica,sans-Serif" font-size="10.00">SocketProxy_Conn_T</text>
</a>
</g>
</g>
<!-- Node2 -->
<g id="Node000002" class="node">
<title>Node2</title>
<g id="a_Node000002"><a xlink:href="group__security.html#structSocketTLSContext__T" target="_top" xlink:title="TLS context structure for managing OpenSSL SSL_CTX with secure defaults, certificates,...">
<polygon fill="white" stroke="#666666" points="1012,-576 901,-576 901,-557 1012,-557 1012,-576"/>
<text text-anchor="middle" x="956.5" y="-564" font-family="Helvetica,sans-Serif" font-size="10.00">SocketTLSContext_T</text>
</a>
</g>
</g>
<!-- Node2&#45;&gt;Node1 -->
<g id="edge1_Node000001_Node000002" class="edge">
<title>Node2&#45;&gt;Node1</title>
<g id="a_edge1_Node000001_Node000002"><a xlink:title=" ">
<path fill="none" stroke="#9a32cd" stroke-dasharray="5,2" d="M1006.82,-553.69C1025.87,-546.97 1046.91,-537.21 1063,-523.5 1100.78,-491.29 1124.7,-434.57 1133.11,-412.08"/>
<polygon fill="#9a32cd" stroke="#9a32cd" points="1005.46,-550.45 997.07,-556.92 1007.66,-557.09 1005.46,-550.45"/>
</a>
</g>
<text text-anchor="middle" x="1046.5" y="-545.5" font-family="Helvetica,sans-Serif" font-size="10.00" fill="grey"> tls_ctx</text>
</g>
<!-- Node2&#45;&gt;Node2 -->
<g id="edge4_Node000002_Node000002" class="edge">
<title>Node2&#45;&gt;Node2</title>
<g id="a_edge4_Node000002_Node000002"><a xlink:title=" ">
<path fill="none" stroke="#9a32cd" stroke-dasharray="5,2" d="M939.93,-585.91C941.23,-590.56 946.75,-594 956.5,-594 972.5,-594 977.12,-584.73 970.37,-576.08"/>
<polygon fill="#9a32cd" stroke="#9a32cd" points="943.35,-586.65 942.63,-576.08 936.6,-584.8 943.35,-586.65"/>
</a>
</g>
<text text-anchor="middle" x="956.5" y="-597" font-family="Helvetica,sans-Serif" font-size="10.00" fill="grey"> verify_callback</text>
</g>
<!-- Node3 -->
<g id="Node000003" class="node">
<title>Node3</title>
<g id="a_Node000003"><a xlink:href="structTLSContextSNICerts.html" target="_top" xlink:title="Structure for managing SNI certificate mappings in TLS context.">
<polygon fill="white" stroke="#666666" points="802,-631 692,-631 692,-612 802,-612 802,-631"/>
<text text-anchor="middle" x="747" y="-619" font-family="Helvetica,sans-Serif" font-size="10.00">TLSContextSNICerts</text>
</a>
</g>
</g>
<!-- Node3&#45;&gt;Node2 -->
<g id="edge2_Node000002_Node000003" class="edge">
<title>Node3&#45;&gt;Node2</title>
<g id="a_edge2_Node000002_Node000003"><a xlink:title=" ">
<path fill="none" stroke="#9a32cd" stroke-dasharray="5,2" d="M810.31,-609.92C833.32,-605.17 859.51,-599.2 883,-592.5 899.33,-587.84 917.3,-581.4 931.26,-576.1"/>
<polygon fill="#9a32cd" stroke="#9a32cd" points="809.43,-606.52 800.33,-611.94 810.82,-613.38 809.43,-606.52"/>
</a>
</g>
<text text-anchor="middle" x="854.5" y="-608.5" font-family="Helvetica,sans-Serif" font-size="10.00" fill="grey"> sni_certs</text>
</g>
<!-- Node4 -->
<g id="Node000004" class="node">
<title>Node4</title>
<g id="a_Node000004"><a xlink:href="group__security.html#structTLSContextALPN" target="_top" xlink:title="Configuration for ALPN protocol negotiation.">
<polygon fill="white" stroke="#666666" points="794.5,-594 699.5,-594 699.5,-575 794.5,-575 794.5,-594"/>
<text text-anchor="middle" x="747" y="-582" font-family="Helvetica,sans-Serif" font-size="10.00">TLSContextALPN</text>
</a>
</g>
</g>
<!-- Node4&#45;&gt;Node2 -->
<g id="edge3_Node000002_Node000004" class="edge">
<title>Node4&#45;&gt;Node2</title>
<g id="a_edge3_Node000002_Node000004"><a xlink:title=" ">
<path fill="none" stroke="#9a32cd" stroke-dasharray="5,2" d="M804.83,-579.57C834.67,-576.98 871.08,-573.82 900.63,-571.26"/>
<polygon fill="#9a32cd" stroke="#9a32cd" points="804.23,-576.11 794.57,-580.46 804.83,-583.08 804.23,-576.11"/>
</a>
</g>
<text text-anchor="middle" x="854.5" y="-580.5" font-family="Helvetica,sans-Serif" font-size="10.00" fill="grey"> alpn</text>
</g>
<!-- Node5 -->
<g id="Node000005" class="node">
<title>Node5</title>
<g id="a_Node000005"><a xlink:href="group__security.html#structTLSContextPinning" target="_top" xlink:title="TLSContextPinning &#45; Certificate pinning configuration.">
<polygon fill="white" stroke="#666666" points="797.5,-557 696.5,-557 696.5,-538 797.5,-538 797.5,-557"/>
<text text-anchor="middle" x="747" y="-545" font-family="Helvetica,sans-Serif" font-size="10.00">TLSContextPinning</text>
</a>
</g>
</g>
<!-- Node5&#45;&gt;Node2 -->
<g id="edge5_Node000002_Node000005" class="edge">
<title>Node5&#45;&gt;Node2</title>
<g id="a_edge5_Node000002_Node000005"><a xlink:title=" ">
<path fill="none" stroke="#9a32cd" stroke-dasharray="5,2" d="M807.89,-551.3C831.34,-552.95 858.45,-555.07 883,-557.5 888.81,-558.08 894.87,-558.73 900.9,-559.43"/>
<polygon fill="#9a32cd" stroke="#9a32cd" points="807.96,-547.79 797.74,-550.59 807.47,-554.78 807.96,-547.79"/>
</a>
</g>
<text text-anchor="middle" x="854.5" y="-560.5" font-family="Helvetica,sans-Serif" font-size="10.00" fill="grey"> pinning</text>
</g>
<!-- Node6 -->
<g id="Node000006" class="node">
<title>Node6</title>
<g id="a_Node000006"><a xlink:href="group__security.html#structTLSCertPin" target="_top" xlink:title="TLSCertPin &#45; Single certificate pin entry (SPKI SHA256 hash)">
<polygon fill="white" stroke="#666666" points="492,-557 424,-557 424,-538 492,-538 492,-557"/>
<text text-anchor="middle" x="458" y="-545" font-family="Helvetica,sans-Serif" font-size="10.00">TLSCertPin</text>
</a>
</g>
</g>
<!-- Node6&#45;&gt;Node5 -->
<g id="edge6_Node000005_Node000006" class="edge">
<title>Node6&#45;&gt;Node5</title>
<g id="a_edge6_Node000005_Node000006"><a xlink:title=" ">
<path fill="none" stroke="#9a32cd" stroke-dasharray="5,2" d="M502.45,-547.5C554.52,-547.5 641.6,-547.5 696.3,-547.5"/>
<polygon fill="#9a32cd" stroke="#9a32cd" points="502.2,-544 492.2,-547.5 502.2,-551 502.2,-544"/>
</a>
</g>
<text text-anchor="middle" x="599.5" y="-550.5" font-family="Helvetica,sans-Serif" font-size="10.00" fill="grey"> pins</text>
</g>
<!-- Node7 -->
<g id="Node000007" class="node">
<title>Node7</title>
<g id="a_Node000007"><a xlink:title=" ">
<polygon fill="white" stroke="#666666" points="59,-222 0,-222 0,-203 59,-203 59,-222"/>
<text text-anchor="middle" x="29.5" y="-210" font-family="Helvetica,sans-Serif" font-size="10.00">Socket_T</text>
</a>
</g>
</g>
<!-- Node7&#45;&gt;Node1 -->
<g id="edge7_Node000001_Node000007" class="edge">
<title>Node7&#45;&gt;Node1</title>
<g id="a_edge7_Node000001_Node000007"><a xlink:title=" ">
<path fill="none" stroke="#9a32cd" stroke-dasharray="5,2" d="M31.74,-232.39C37.05,-298.93 63.84,-509.5 190,-509.5 190,-509.5 190,-509.5 957.5,-509.5 1032.81,-509.5 1103.91,-438.86 1127.92,-412.37"/>
<polygon fill="#9a32cd" stroke="#9a32cd" points="35.2,-231.77 31,-222.05 28.22,-232.27 35.2,-231.77"/>
</a>
</g>
<text text-anchor="middle" x="599.5" y="-512.5" font-family="Helvetica,sans-Serif" font-size="10.00" fill="grey"> socket</text>
</g>
<!-- Node12 -->
<g id="Node000012" class="node">
<title>Node12</title>
<g id="a_Node000012"><a xlink:href="group__event__system.html#structSocketEvent__T" target="_top" xlink:title="Event notification structure returned by polling operations.">
<polygon fill="white" stroke="#666666" points="370.5,-241 286.5,-241 286.5,-222 370.5,-222 370.5,-241"/>
<text text-anchor="middle" x="328.5" y="-229" font-family="Helvetica,sans-Serif" font-size="10.00">SocketEvent_T</text>
</a>
</g>
</g>
<!-- Node7&#45;&gt;Node12 -->
<g id="edge16_Node000012_Node000007" class="edge">
<title>Node7&#45;&gt;Node12</title>
<g id="a_edge16_Node000012_Node000007"><a xlink:title=" ">
<path fill="none" stroke="#9a32cd" stroke-dasharray="5,2" d="M69.51,-215C125.76,-218.59 229.16,-225.21 286.5,-228.88"/>
<polygon fill="#9a32cd" stroke="#9a32cd" points="69.45,-211.48 59.25,-214.34 69,-218.47 69.45,-211.48"/>
</a>
</g>
<text text-anchor="middle" x="93.5" y="-219.5" font-family="Helvetica,sans-Serif" font-size="10.00" fill="grey"> socket</text>
</g>
<!-- Node13 -->
<g id="Node000013" class="node">
<title>Node13</title>
<g id="a_Node000013"><a xlink:href="group__poll__private.html#structSocketData" target="_top" xlink:title="Linked&#45;list node for socket&#45;to&#45;userdata mapping in internal hash table.">
<polygon fill="white" stroke="#666666" points="362.5,-188 294.5,-188 294.5,-169 362.5,-169 362.5,-188"/>
<text text-anchor="middle" x="328.5" y="-176" font-family="Helvetica,sans-Serif" font-size="10.00">SocketData</text>
</a>
</g>
</g>
<!-- Node7&#45;&gt;Node13 -->
<g id="edge18_Node000013_Node000007" class="edge">
<title>Node7&#45;&gt;Node13</title>
<g id="a_edge18_Node000013_Node000007"><a xlink:title=" ">
<path fill="none" stroke="#9a32cd" stroke-dasharray="5,2" d="M69.31,-201.98C71.9,-201.43 74.48,-200.93 77,-200.5 154.23,-187.24 246.32,-181.76 294.45,-179.67"/>
<polygon fill="#9a32cd" stroke="#9a32cd" points="68.32,-198.61 59.36,-204.27 69.89,-205.44 68.32,-198.61"/>
</a>
</g>
<text text-anchor="middle" x="93.5" y="-203.5" font-family="Helvetica,sans-Serif" font-size="10.00" fill="grey"> socket</text>
</g>
<!-- Node14 -->
<g id="Node000014" class="node">
<title>Node14</title>
<g id="a_Node000014"><a xlink:href="group__poll__private.html#structFdSocketEntry" target="_top" xlink:title="Linked&#45;list node for FD&#45;to&#45;socket reverse mapping in internal hash table.">
<polygon fill="white" stroke="#666666" points="369.5,-135 287.5,-135 287.5,-116 369.5,-116 369.5,-135"/>
<text text-anchor="middle" x="328.5" y="-123" font-family="Helvetica,sans-Serif" font-size="10.00">FdSocketEntry</text>
</a>
</g>
</g>
<!-- Node7&#45;&gt;Node14 -->
<g id="edge21_Node000014_Node000007" class="edge">
<title>Node7&#45;&gt;Node14</title>
<g id="a_edge21_Node000014_Node000007"><a xlink:title=" ">
<path fill="none" stroke="#9a32cd" stroke-dasharray="5,2" d="M49.93,-196.63C57.91,-190.8 67.49,-184.63 77,-180.5 114.37,-164.28 226.32,-143.15 287.13,-132.41"/>
<polygon fill="#9a32cd" stroke="#9a32cd" points="47.8,-193.86 41.98,-202.71 52.05,-199.42 47.8,-193.86"/>
</a>
</g>
<text text-anchor="middle" x="93.5" y="-183.5" font-family="Helvetica,sans-Serif" font-size="10.00" fill="grey"> socket</text>
</g>
<!-- Node16 -->
<g id="Node000016" class="node">
<title>Node16</title>
<g id="a_Node000016"><a xlink:href="structAsyncRequest.html" target="_top" xlink:title="Internal structure for tracking asynchronous I/O requests.">
<polygon fill="white" stroke="#666666" points="231.5,-96 150.5,-96 150.5,-77 231.5,-77 231.5,-96"/>
<text text-anchor="middle" x="191" y="-84" font-family="Helvetica,sans-Serif" font-size="10.00">AsyncRequest</text>
</a>
</g>
</g>
<!-- Node7&#45;&gt;Node16 -->
<g id="edge25_Node000016_Node000007" class="edge">
<title>Node7&#45;&gt;Node16</title>
<g id="a_edge25_Node000016_Node000007"><a xlink:title=" ">
<path fill="none" stroke="#9a32cd" stroke-dasharray="5,2" d="M33.97,-192.77C39.13,-169.46 51.17,-131.22 77,-110.5 97.57,-94 126.82,-88.11 150.41,-86.3"/>
<polygon fill="#9a32cd" stroke="#9a32cd" points="30.47,-192.39 31.95,-202.88 37.34,-193.76 30.47,-192.39"/>
</a>
</g>
<text text-anchor="middle" x="93.5" y="-124.5" font-family="Helvetica,sans-Serif" font-size="10.00" fill="grey"> cb</text>
<text text-anchor="middle" x="93.5" y="-113.5" font-family="Helvetica,sans-Serif" font-size="10.00" fill="grey">socket</text>
</g>
<!-- Node19 -->
<g id="Node000019" class="node">
<title>Node19</title>
<g id="a_Node000019"><a xlink:href="group__async__io.html#structSocketHE__T" target="_top" xlink:title="Wrapper structure for resolved addresses in Happy Eyeballs address preference ordering.">
<polygon fill="white" stroke="#666666" points="993,-261 920,-261 920,-242 993,-242 993,-261"/>
<text text-anchor="middle" x="956.5" y="-249" font-family="Helvetica,sans-Serif" font-size="10.00">SocketHE_T</text>
</a>
</g>
</g>
<!-- Node7&#45;&gt;Node19 -->
<g id="edge38_Node000019_Node000007" class="edge">
<title>Node7&#45;&gt;Node19</title>
<g id="a_edge38_Node000019_Node000007"><a xlink:title=" ">
<path fill="none" stroke="#9a32cd" stroke-dasharray="5,2" d="M60.03,-226.05C65.57,-228.17 71.39,-230.11 77,-231.5 91.23,-235.02 154.18,-244.79 272,-250.5 322.16,-252.93 334.86,-253.43 385,-250.5 442.18,-247.16 456.21,-242.93 513,-235.5 590.03,-225.42 608.51,-216.07 686,-210.5 740.08,-206.61 754.32,-202.87 808,-210.5 850.61,-216.56 859.49,-226.14 901,-237.5 907.12,-239.18 913.65,-240.9 919.98,-242.55"/>
<polygon fill="#9a32cd" stroke="#9a32cd" points="61.02,-222.68 50.44,-222.14 58.38,-229.16 61.02,-222.68"/>
</a>
</g>
<text text-anchor="middle" x="458" y="-251.5" font-family="Helvetica,sans-Serif" font-size="10.00" fill="grey"> winner</text>
</g>
<!-- Node21 -->
<g id="Node000021" class="node">
<title>Node21</title>
<g id="a_Node000021"><a xlink:href="group__async__io.html#structSocketHE__AddressEntry__T" target="_top" xlink:title="Single connection attempt structure in Happy Eyeballs racing.">
<polygon fill="white" stroke="#666666" points="668,-448 531,-448 531,-429 668,-429 668,-448"/>
<text text-anchor="middle" x="599.5" y="-436" font-family="Helvetica,sans-Serif" font-size="10.00">SocketHE_AddressEntry_T</text>
</a>
</g>
</g>
<!-- Node7&#45;&gt;Node21 -->
<g id="edge35_Node000021_Node000007" class="edge">
<title>Node7&#45;&gt;Node21</title>
<g id="a_edge35_Node000021_Node000007"><a xlink:title=" ">
<path fill="none" stroke="#9a32cd" stroke-dasharray="5,2" d="M34.97,-231.96C44.69,-269.41 71.56,-351.08 128,-388.5 256.2,-473.49 448.58,-460.9 542.67,-448.01"/>
<polygon fill="#9a32cd" stroke="#9a32cd" points="38.37,-231.12 32.58,-222.25 31.57,-232.8 38.37,-231.12"/>
</a>
</g>
<text text-anchor="middle" x="191" y="-442.5" font-family="Helvetica,sans-Serif" font-size="10.00" fill="grey"> socket</text>
</g>
<!-- Node22 -->
<g id="Node000022" class="node">
<title>Node22</title>
<g id="a_Node000022"><a xlink:href="SocketHappyEyeballs-private_8h.html#structSocketHE__Attempt__T" target="_top" xlink:title=" ">
<polygon fill="white" stroke="#666666" points="385,-19 272,-19 272,0 385,0 385,-19"/>
<text text-anchor="middle" x="328.5" y="-7" font-family="Helvetica,sans-Serif" font-size="10.00">SocketHE_Attempt_T</text>
</a>
</g>
</g>
<!-- Node7&#45;&gt;Node22 -->
<g id="edge37_Node000022_Node000007" class="edge">
<title>Node7&#45;&gt;Node22</title>
<g id="a_edge37_Node000022_Node000007"><a xlink:title=" ">
<path fill="none" stroke="#9a32cd" stroke-dasharray="5,2" d="M33.33,-192.79C40.46,-151.86 63.43,-58.91 128,-28.5 173.17,-7.23 230.38,-3.83 271.95,-4.96"/>
<polygon fill="#9a32cd" stroke="#9a32cd" points="29.85,-192.44 31.72,-202.86 36.76,-193.54 29.85,-192.44"/>
</a>
</g>
<text text-anchor="middle" x="93.5" y="-74.5" font-family="Helvetica,sans-Serif" font-size="10.00" fill="grey"> socket</text>
</g>
<!-- Node8 -->
<g id="Node000008" class="node">
<title>Node8</title>
<g id="a_Node000008"><a xlink:href="group__dns.html#structSocketDNS__T" target="_top" xlink:title="Async DNS resolver structure.">
<polygon fill="white" stroke="#666666" points="498,-328 418,-328 418,-309 498,-309 498,-328"/>
<text text-anchor="middle" x="458" y="-316" font-family="Helvetica,sans-Serif" font-size="10.00">SocketDNS_T</text>
</a>
</g>
</g>
<!-- Node8&#45;&gt;Node1 -->
<g id="edge8_Node000001_Node000008" class="edge">
<title>Node8&#45;&gt;Node1</title>
<g id="a_edge8_Node000001_Node000008"><a xlink:title=" ">
<path fill="none" stroke="#9a32cd" stroke-dasharray="5,2" d="M477.48,-334.9C491.23,-346.11 511.01,-360.2 531,-367.5 631.02,-404.03 950.93,-404.69 1080.86,-403.35"/>
<polygon fill="#9a32cd" stroke="#9a32cd" points="479.65,-332.16 469.74,-328.39 475.13,-337.51 479.65,-332.16"/>
</a>
</g>
<text text-anchor="middle" x="854.5" y="-404.5" font-family="Helvetica,sans-Serif" font-size="10.00" fill="grey"> dns</text>
</g>
<!-- Node9 -->
<g id="Node000009" class="node">
<title>Node9</title>
<g id="a_Node000009"><a xlink:href="group__dns.html#structSocketDNS__Request__T" target="_top" xlink:title="DNS resolution request structure.">
<polygon fill="white" stroke="#666666" points="808,-323 686,-323 686,-304 808,-304 808,-323"/>
<text text-anchor="middle" x="747" y="-311" font-family="Helvetica,sans-Serif" font-size="10.00">SocketDNS_Request_T</text>
</a>
</g>
</g>
<!-- Node8&#45;&gt;Node9 -->
<g id="edge11_Node000009_Node000008" class="edge">
<title>Node8&#45;&gt;Node9</title>
<g id="a_edge11_Node000009_Node000008"><a xlink:title=" ">
<path fill="none" stroke="#9a32cd" stroke-dasharray="5,2" d="M489.16,-332.03C501.81,-337 516.85,-342.02 531,-344.5 590.98,-355 608.2,-355.95 668,-344.5 689.32,-340.42 712.25,-330.59 727.69,-323.08"/>
<polygon fill="#9a32cd" stroke="#9a32cd" points="490.16,-328.66 479.58,-328.1 487.5,-335.13 490.16,-328.66"/>
</a>
</g>
<text text-anchor="middle" x="599.5" y="-355.5" font-family="Helvetica,sans-Serif" font-size="10.00" fill="grey"> dns_resolver</text>
</g>
<!-- Node8&#45;&gt;Node19 -->
<g id="edge31_Node000019_Node000008" class="edge">
<title>Node8&#45;&gt;Node19</title>
<g id="a_edge31_Node000019_Node000008"><a xlink:title=" ">
<path fill="none" stroke="#9a32cd" stroke-dasharray="5,2" d="M508.1,-309.34C515.76,-307.99 523.58,-306.67 531,-305.5 674.65,-282.81 846.81,-263.25 919.9,-255.3"/>
<polygon fill="#9a32cd" stroke="#9a32cd" points="507.41,-305.9 498.18,-311.1 508.64,-312.8 507.41,-305.9"/>
</a>
</g>
<text text-anchor="middle" x="747" y="-285.5" font-family="Helvetica,sans-Serif" font-size="10.00" fill="grey"> dns</text>
</g>
<!-- Node9&#45;&gt;Node8 -->
<g id="edge9_Node000008_Node000009" class="edge">
<title>Node9&#45;&gt;Node8</title>
<g id="a_edge9_Node000008_Node000009"><a xlink:title=" ">
<path fill="none" stroke="#9a32cd" stroke-dasharray="5,2" d="M675.6,-310.8C633.6,-309.7 579.22,-309.16 531,-311.5 520.34,-312.02 508.82,-312.96 498.19,-313.99"/>
<polygon fill="#9a32cd" stroke="#9a32cd" points="675.63,-314.3 685.73,-311.08 675.83,-307.3 675.63,-314.3"/>
</a>
</g>
<text text-anchor="middle" x="599.5" y="-336.5" font-family="Helvetica,sans-Serif" font-size="10.00" fill="grey"> queue_head</text>
<text text-anchor="middle" x="599.5" y="-325.5" font-family="Helvetica,sans-Serif" font-size="10.00" fill="grey">queue_tail</text>
<text text-anchor="middle" x="599.5" y="-314.5" font-family="Helvetica,sans-Serif" font-size="10.00" fill="grey">request_hash</text>
</g>
<!-- Node9&#45;&gt;Node9 -->
<g id="edge10_Node000009_Node000009" class="edge">
<title>Node9&#45;&gt;Node9</title>
<g id="a_edge10_Node000009_Node000009"><a xlink:title=" ">
<path fill="none" stroke="#9a32cd" stroke-dasharray="5,2" d="M727.37,-332.55C728.68,-337.38 735.23,-341 747,-341 765.84,-341 771.29,-331.73 763.34,-323.08"/>
<polygon fill="#9a32cd" stroke="#9a32cd" points="730.69,-333.68 730.66,-323.08 724.07,-331.38 730.69,-333.68"/>
</a>
</g>
<text text-anchor="middle" x="747" y="-366" font-family="Helvetica,sans-Serif" font-size="10.00" fill="grey"> callback</text>
<text text-anchor="middle" x="747" y="-355" font-family="Helvetica,sans-Serif" font-size="10.00" fill="grey">hash_next</text>
<text text-anchor="middle" x="747" y="-344" font-family="Helvetica,sans-Serif" font-size="10.00" fill="grey">queue_next</text>
</g>
<!-- Node9&#45;&gt;Node19 -->
<g id="edge33_Node000019_Node000009" class="edge">
<title>Node9&#45;&gt;Node19</title>
<g id="a_edge33_Node000019_Node000009"><a xlink:title=" ">
<path fill="none" stroke="#9a32cd" stroke-dasharray="5,2" d="M818,-304.49C839.21,-300.71 862.35,-295.52 883,-288.5 903.61,-281.5 925.66,-269.53 939.96,-261.11"/>
<polygon fill="#9a32cd" stroke="#9a32cd" points="817.36,-301.05 808.09,-306.18 818.54,-307.95 817.36,-301.05"/>
</a>
</g>
<text text-anchor="middle" x="854.5" y="-305.5" font-family="Helvetica,sans-Serif" font-size="10.00" fill="grey"> dns_request</text>
</g>
<!-- Node10 -->
<g id="Node000010" class="node">
<title>Node10</title>
<g id="a_Node000010"><a xlink:href="group__dns.html#structSocketDNS__CacheEntry" target="_top" xlink:title="DNS cache entry structure.">
<polygon fill="white" stroke="#666666" points="254,-328 128,-328 128,-309 254,-309 254,-328"/>
<text text-anchor="middle" x="191" y="-316" font-family="Helvetica,sans-Serif" font-size="10.00">SocketDNS_CacheEntry</text>
</a>
</g>
</g>
<!-- Node10&#45;&gt;Node8 -->
<g id="edge12_Node000008_Node000010" class="edge">
<title>Node10&#45;&gt;Node8</title>
<g id="a_edge12_Node000008_Node000010"><a xlink:title=" ">
<path fill="none" stroke="#9a32cd" stroke-dasharray="5,2" d="M264.15,-318.5C313.67,-318.5 377.5,-318.5 417.85,-318.5"/>
<polygon fill="#9a32cd" stroke="#9a32cd" points="264.13,-315 254.13,-318.5 264.13,-322 264.13,-315"/>
</a>
</g>
<text text-anchor="middle" x="328.5" y="-343.5" font-family="Helvetica,sans-Serif" font-size="10.00" fill="grey"> cache_hash</text>
<text text-anchor="middle" x="328.5" y="-332.5" font-family="Helvetica,sans-Serif" font-size="10.00" fill="grey">cache_lru_head</text>
<text text-anchor="middle" x="328.5" y="-321.5" font-family="Helvetica,sans-Serif" font-size="10.00" fill="grey">cache_lru_tail</text>
</g>
<!-- Node10&#45;&gt;Node10 -->
<g id="edge13_Node000010_Node000010" class="edge">
<title>Node10&#45;&gt;Node10</title>
<g id="a_edge13_Node000010_Node000010"><a xlink:title=" ">
<path fill="none" stroke="#9a32cd" stroke-dasharray="5,2" d="M173.32,-337.91C174.71,-342.56 180.6,-346 191,-346 208.06,-346 212.99,-336.73 205.8,-328.08"/>
<polygon fill="#9a32cd" stroke="#9a32cd" points="176.75,-338.66 176.2,-328.08 170.03,-336.69 176.75,-338.66"/>
</a>
</g>
<text text-anchor="middle" x="191" y="-371" font-family="Helvetica,sans-Serif" font-size="10.00" fill="grey"> hash_next</text>
<text text-anchor="middle" x="191" y="-360" font-family="Helvetica,sans-Serif" font-size="10.00" fill="grey">lru_next</text>
<text text-anchor="middle" x="191" y="-349" font-family="Helvetica,sans-Serif" font-size="10.00" fill="grey">lru_prev</text>
</g>
<!-- Node11 -->
<g id="Node000011" class="node">
<title>Node11</title>
<g id="a_Node000011"><a xlink:href="group__poll__private.html#structSocketPoll__T" target="_top" xlink:title="Opaque internal state structure for SocketPoll instance.">
<polygon fill="white" stroke="#666666" points="784.5,-140 709.5,-140 709.5,-121 784.5,-121 784.5,-140"/>
<text text-anchor="middle" x="747" y="-128" font-family="Helvetica,sans-Serif" font-size="10.00">SocketPoll_T</text>
</a>
</g>
</g>
<!-- Node11&#45;&gt;Node1 -->
<g id="edge14_Node000001_Node000011" class="edge">
<title>Node11&#45;&gt;Node1</title>
<g id="a_edge14_Node000001_Node000011"><a xlink:title=" ">
<path fill="none" stroke="#9a32cd" stroke-dasharray="5,2" d="M794.92,-126.95C821.4,-126.42 854.75,-128.23 883,-137.5 948.24,-158.92 962.91,-174.5 1012,-222.5 1069.32,-278.55 1116.73,-364.49 1131.63,-392.97"/>
<polygon fill="#9a32cd" stroke="#9a32cd" points="794.64,-123.46 784.76,-127.28 794.87,-130.46 794.64,-123.46"/>
</a>
</g>
<text text-anchor="middle" x="956.5" y="-225.5" font-family="Helvetica,sans-Serif" font-size="10.00" fill="grey"> poll</text>
</g>
<!-- Node11&#45;&gt;Node19 -->
<g id="edge32_Node000019_Node000011" class="edge">
<title>Node11&#45;&gt;Node19</title>
<g id="a_edge32_Node000019_Node000011"><a xlink:title=" ">
<path fill="none" stroke="#9a32cd" stroke-dasharray="5,2" d="M794.9,-135.46C822.25,-140.04 856.48,-148.8 883,-165.5 914.73,-185.48 939.64,-223.87 950.12,-241.81"/>
<polygon fill="#9a32cd" stroke="#9a32cd" points="795.2,-131.96 784.79,-133.9 794.14,-138.88 795.2,-131.96"/>
</a>
</g>
<text text-anchor="middle" x="854.5" y="-168.5" font-family="Helvetica,sans-Serif" font-size="10.00" fill="grey"> poll</text>
</g>
<!-- Node12&#45;&gt;Node11 -->
<g id="edge15_Node000011_Node000012" class="edge">
<title>Node12&#45;&gt;Node11</title>
<g id="a_edge15_Node000011_Node000012"><a xlink:title=" ">
<path fill="none" stroke="#9a32cd" stroke-dasharray="5,2" d="M380.83,-224.49C447.85,-214.6 568.37,-194.24 668,-163.5 688.51,-157.17 711,-147.33 726.53,-140.04"/>
<polygon fill="#9a32cd" stroke="#9a32cd" points="379.93,-221.09 370.54,-225.99 380.94,-228.01 379.93,-221.09"/>
</a>
</g>
<text text-anchor="middle" x="458" y="-223.5" font-family="Helvetica,sans-Serif" font-size="10.00" fill="grey"> socketevents</text>
</g>
<!-- Node13&#45;&gt;Node11 -->
<g id="edge17_Node000011_Node000013" class="edge">
<title>Node13&#45;&gt;Node11</title>
<g id="a_edge17_Node000011_Node000013"><a xlink:title=" ">
<path fill="none" stroke="#9a32cd" stroke-dasharray="5,2" d="M372.91,-174.54C437.39,-168.5 562.24,-156.25 668,-142.5 681.45,-140.75 696.16,-138.56 709.15,-136.53"/>
<polygon fill="#9a32cd" stroke="#9a32cd" points="372.35,-171.07 362.71,-175.49 372.99,-178.04 372.35,-171.07"/>
</a>
</g>
<text text-anchor="middle" x="458" y="-173.5" font-family="Helvetica,sans-Serif" font-size="10.00" fill="grey"> socket_data_map</text>
</g>
<!-- Node13&#45;&gt;Node13 -->
<g id="edge19_Node000013_Node000013" class="edge">
<title>Node13&#45;&gt;Node13</title>
<g id="a_edge19_Node000013_Node000013"><a xlink:title=" ">
<path fill="none" stroke="#9a32cd" stroke-dasharray="5,2" d="M304.8,-197.55C306.38,-202.38 314.28,-206 328.5,-206 351.25,-206 357.83,-196.73 348.23,-188.08"/>
<polygon fill="#9a32cd" stroke="#9a32cd" points="308.13,-198.66 308.77,-188.08 301.67,-195.95 308.13,-198.66"/>
</a>
</g>
<text text-anchor="middle" x="328.5" y="-209" font-family="Helvetica,sans-Serif" font-size="10.00" fill="grey"> next</text>
</g>
<!-- Node14&#45;&gt;Node11 -->
<g id="edge20_Node000011_Node000014" class="edge">
<title>Node14&#45;&gt;Node11</title>
<g id="a_edge20_Node000011_Node000014"><a xlink:title=" ">
<path fill="none" stroke="#9a32cd" stroke-dasharray="5,2" d="M379.99,-126.11C464.97,-127.13 634.6,-129.16 709.27,-130.06"/>
<polygon fill="#9a32cd" stroke="#9a32cd" points="379.86,-122.6 369.81,-125.98 379.77,-129.6 379.86,-122.6"/>
</a>
</g>
<text text-anchor="middle" x="458" y="-130.5" font-family="Helvetica,sans-Serif" font-size="10.00" fill="grey"> fd_to_socket_map</text>
</g>
<!-- Node14&#45;&gt;Node14 -->
<g id="edge22_Node000014_Node000014" class="edge">
<title>Node14&#45;&gt;Node14</title>
<g id="a_edge22_Node000014_Node000014"><a xlink:title=" ">
<path fill="none" stroke="#9a32cd" stroke-dasharray="5,2" d="M304.8,-144.55C306.38,-149.38 314.28,-153 328.5,-153 351.25,-153 357.83,-143.73 348.23,-135.08"/>
<polygon fill="#9a32cd" stroke="#9a32cd" points="308.13,-145.66 308.77,-135.08 301.67,-142.95 308.13,-145.66"/>
</a>
</g>
<text text-anchor="middle" x="328.5" y="-156" font-family="Helvetica,sans-Serif" font-size="10.00" fill="grey"> next</text>
</g>
<!-- Node15 -->
<g id="Node000015" class="node">
<title>Node15</title>
<g id="a_Node000015"><a xlink:href="group__async__io.html#structSocketAsync__T" target="_top" xlink:title="Core structure for asynchronous I/O context management.">
<polygon fill="white" stroke="#666666" points="501,-94 415,-94 415,-75 501,-75 501,-94"/>
<text text-anchor="middle" x="458" y="-82" font-family="Helvetica,sans-Serif" font-size="10.00">SocketAsync_T</text>
</a>
</g>
</g>
<!-- Node15&#45;&gt;Node11 -->
<g id="edge23_Node000011_Node000015" class="edge">
<title>Node15&#45;&gt;Node11</title>
<g id="a_edge23_Node000011_Node000015"><a xlink:title=" ">
<path fill="none" stroke="#9a32cd" stroke-dasharray="5,2" d="M511.16,-86.7C553.72,-89.22 615.23,-94.52 668,-105.5 685.96,-109.24 705.62,-115.56 720.72,-120.91"/>
<polygon fill="#9a32cd" stroke="#9a32cd" points="511.21,-83.2 501.03,-86.13 510.82,-90.18 511.21,-83.2"/>
</a>
</g>
<text text-anchor="middle" x="599.5" y="-108.5" font-family="Helvetica,sans-Serif" font-size="10.00" fill="grey"> async</text>
</g>
<!-- Node16&#45;&gt;Node15 -->
<g id="edge24_Node000015_Node000016" class="edge">
<title>Node16&#45;&gt;Node15</title>
<g id="a_edge24_Node000015_Node000016"><a xlink:title=" ">
<path fill="none" stroke="#9a32cd" stroke-dasharray="5,2" d="M241.92,-86.12C291.87,-85.75 367.85,-85.17 414.86,-84.82"/>
<polygon fill="#9a32cd" stroke="#9a32cd" points="241.65,-82.63 231.67,-86.2 241.7,-89.62 241.65,-82.63"/>
</a>
</g>
<text text-anchor="middle" x="328.5" y="-88.5" font-family="Helvetica,sans-Serif" font-size="10.00" fill="grey"> requests</text>
</g>
<!-- Node16&#45;&gt;Node16 -->
<g id="edge26_Node000016_Node000016" class="edge">
<title>Node16&#45;&gt;Node16</title>
<g id="a_edge26_Node000016_Node000016"><a xlink:title=" ">
<path fill="none" stroke="#9a32cd" stroke-dasharray="5,2" d="M173.32,-105.91C174.71,-110.56 180.6,-114 191,-114 208.06,-114 212.99,-104.73 205.8,-96.08"/>
<polygon fill="#9a32cd" stroke="#9a32cd" points="176.75,-106.66 176.2,-96.08 170.03,-104.69 176.75,-106.66"/>
</a>
</g>
<text text-anchor="middle" x="191" y="-117" font-family="Helvetica,sans-Serif" font-size="10.00" fill="grey"> next</text>
</g>
<!-- Node17 -->
<g id="Node000017" class="node">
<title>Node17</title>
<g id="a_Node000017"><a xlink:href="group__event__system.html#structSocketTimer__heap__T" target="_top" xlink:title="Binary min&#45;heap container for managing multiple SocketTimer_T instances.">
<polygon fill="white" stroke="#666666" points="513,-57 403,-57 403,-38 513,-38 513,-57"/>
<text text-anchor="middle" x="458" y="-45" font-family="Helvetica,sans-Serif" font-size="10.00">SocketTimer_heap_T</text>
</a>
</g>
</g>
<!-- Node17&#45;&gt;Node11 -->
<g id="edge27_Node000011_Node000017" class="edge">
<title>Node17&#45;&gt;Node11</title>
<g id="a_edge27_Node000011_Node000017"><a xlink:title=" ">
<path fill="none" stroke="#9a32cd" stroke-dasharray="5,2" d="M523.47,-46.71C565.89,-48.21 621.9,-54.13 668,-72.5 695.9,-83.62 722.71,-107.32 736.46,-120.72"/>
<polygon fill="#9a32cd" stroke="#9a32cd" points="523.36,-43.2 513.26,-46.42 523.16,-50.2 523.36,-43.2"/>
</a>
</g>
<text text-anchor="middle" x="599.5" y="-75.5" font-family="Helvetica,sans-Serif" font-size="10.00" fill="grey"> timer_heap</text>
</g>
<!-- Node18 -->
<g id="Node000018" class="node">
<title>Node18</title>
<g id="a_Node000018"><a xlink:href="group__event__system.html#structSocketTimer__T" target="_top" xlink:title="Internal representation of a single scheduled timer event.">
<polygon fill="white" stroke="#666666" points="232.5,-57 149.5,-57 149.5,-38 232.5,-38 232.5,-57"/>
<text text-anchor="middle" x="191" y="-45" font-family="Helvetica,sans-Serif" font-size="10.00">SocketTimer_T</text>
</a>
</g>
</g>
<!-- Node18&#45;&gt;Node17 -->
<g id="edge28_Node000017_Node000018" class="edge">
<title>Node18&#45;&gt;Node17</title>
<g id="a_edge28_Node000017_Node000018"><a xlink:title=" ">
<path fill="none" stroke="#9a32cd" stroke-dasharray="5,2" d="M242.55,-47.5C288.37,-47.5 355.72,-47.5 402.68,-47.5"/>
<polygon fill="#9a32cd" stroke="#9a32cd" points="242.54,-44 232.54,-47.5 242.54,-51 242.54,-44"/>
</a>
</g>
<text text-anchor="middle" x="328.5" y="-50.5" font-family="Helvetica,sans-Serif" font-size="10.00" fill="grey"> timers</text>
</g>
<!-- Node19&#45;&gt;Node1 -->
<g id="edge29_Node000001_Node000019" class="edge">
<title>Node19&#45;&gt;Node1</title>
<g id="a_edge29_Node000001_Node000019"><a xlink:title=" ">
<path fill="none" stroke="#9a32cd" stroke-dasharray="5,2" d="M977.08,-268.02C1014.44,-299.54 1094.88,-367.39 1124.89,-392.71"/>
<polygon fill="#9a32cd" stroke="#9a32cd" points="978.87,-264.95 968.97,-261.18 974.36,-270.3 978.87,-264.95"/>
</a>
</g>
<text text-anchor="middle" x="1046.5" y="-338.5" font-family="Helvetica,sans-Serif" font-size="10.00" fill="grey"> he</text>
</g>
<!-- Node20 -->
<g id="Node000020" class="node">
<title>Node20</title>
<g id="a_Node000020"><a xlink:href="group__async__io.html#structSocketHE__Config__T" target="_top" xlink:title="Happy Eyeballs configuration structure.">
<polygon fill="white" stroke="#666666" points="800.5,-238 693.5,-238 693.5,-219 800.5,-219 800.5,-238"/>
<text text-anchor="middle" x="747" y="-226" font-family="Helvetica,sans-Serif" font-size="10.00">SocketHE_Config_T</text>
</a>
</g>
</g>
<!-- Node20&#45;&gt;Node19 -->
<g id="edge30_Node000019_Node000020" class="edge">
<title>Node20&#45;&gt;Node19</title>
<g id="a_edge30_Node000019_Node000020"><a xlink:title=" ">
<path fill="none" stroke="#9a32cd" stroke-dasharray="5,2" d="M810.96,-235.48C846.66,-239.44 890.04,-244.24 919.9,-247.55"/>
<polygon fill="#9a32cd" stroke="#9a32cd" points="810.95,-231.96 800.63,-234.33 810.18,-238.91 810.95,-231.96"/>
</a>
</g>
<text text-anchor="middle" x="854.5" y="-245.5" font-family="Helvetica,sans-Serif" font-size="10.00" fill="grey"> config</text>
</g>
<!-- Node21&#45;&gt;Node19 -->
<g id="edge34_Node000019_Node000021" class="edge">
<title>Node21&#45;&gt;Node19</title>
<g id="a_edge34_Node000019_Node000021"><a xlink:title=" ">
<path fill="none" stroke="#9a32cd" stroke-dasharray="5,2" d="M676.8,-427.03C717.44,-418.8 767.3,-405.23 808,-383.5 870.15,-350.32 927.35,-285.64 947.67,-261.18"/>
<polygon fill="#9a32cd" stroke="#9a32cd" points="676.09,-423.6 666.94,-428.96 677.43,-430.47 676.09,-423.6"/>
</a>
</g>
<text text-anchor="middle" x="747" y="-449.5" font-family="Helvetica,sans-Serif" font-size="10.00" fill="grey"> addresses</text>
<text text-anchor="middle" x="747" y="-438.5" font-family="Helvetica,sans-Serif" font-size="10.00" fill="grey">next_ipv4</text>
<text text-anchor="middle" x="747" y="-427.5" font-family="Helvetica,sans-Serif" font-size="10.00" fill="grey">next_ipv6</text>
</g>
<!-- Node22&#45;&gt;Node19 -->
<g id="edge36_Node000019_Node000022" class="edge">
<title>Node22&#45;&gt;Node19</title>
<g id="a_edge36_Node000019_Node000022"><a xlink:title=" ">
<path fill="none" stroke="#9a32cd" stroke-dasharray="5,2" d="M395.4,-6.25C464.53,-4.57 575.74,-6.81 668,-31.5 770.92,-59.04 818.91,-52.39 883,-137.5 910.16,-173.57 870.26,-204.42 901,-237.5 905.99,-242.87 912.73,-246.29 919.77,-248.45"/>
<polygon fill="#9a32cd" stroke="#9a32cd" points="394.99,-2.76 385.09,-6.54 395.19,-9.76 394.99,-2.76"/>
</a>
</g>
<text text-anchor="middle" x="599.5" y="-34.5" font-family="Helvetica,sans-Serif" font-size="10.00" fill="grey"> attempts</text>
</g>
</g>
</svg>

<g id="navigator" transform="translate(0 0)" fill="#404254">
  <rect fill="#f2f5e9" fill-opacity="0.5" stroke="#606060" stroke-width=".5" x="0" y="0" width="60" height="60"/>
  <use id="zoomplus" xlink:href="#zoomPlus" x="17" y="9" onmousedown="handleZoom(evt,'in')"/>
  <use id="zoomminus" xlink:href="#zoomMin" x="42" y="9" onmousedown="handleZoom(evt,'out')"/>
  <use id="reset" xlink:href="#resetDef" x="30" y="36" onmousedown="handleReset()"/>
   <use id="arrowup" xlink:href="#arrowUp" x="0" y="0" onmousedown="handlePan(0,-1)"/>
  <use id="arrowright" xlink:href="#arrowRight" x="0" y="0" onmousedown="handlePan(1,0)"/>
  <use id="arrowdown" xlink:href="#arrowDown" x="0" y="0" onmousedown="handlePan(0,1)"/>
  <use id="arrowleft" xlink:href="#arrowLeft" x="0" y="0" onmousedown="handlePan(-1,0)"/>
</g>
<svg viewBox="0 0 15 15" width="100%" height="30px" preserveAspectRatio="xMaxYMin meet">
 <g id="arrow_out" transform="scale(0.3 0.3)">
  <a xlink:href="structSocketProxy__Conn__T__coll__graph_org.svg" target="_base">
   <rect id="button" ry="5" rx="5" y="6" x="6" height="38" width="38"
        fill="#f2f5e9" fill-opacity="0.5" stroke="#606060" stroke-width="1.0"/>
   <path id="arrow"
     d="M 11.500037,31.436501 C 11.940474,20.09759 22.043105,11.32322 32.158766,21.979434 L 37.068811,17.246167 C 37.068811,17.246167 37.088388,32 37.088388,32 L 22.160133,31.978069 C 22.160133,31.978069 26.997745,27.140456 26.997745,27.140456 C 18.528582,18.264221 13.291696,25.230495 11.500037,31.436501 z"
     style="fill:#404040;"/>
  </a>
 </g>
</svg>

<style type='text/css'>
<![CDATA[
[data-mouse-over-selected='false'] { opacity: 0.7; }
[data-mouse-over-selected='true']  { opacity: 1.0; }
]]>
</style>
<script type="application/ecmascript"><![CDATA[
document.addEventListener('DOMContentLoaded', (event) => {
  highlightEdges();
  highlightAdjacentNodes();
});
]]></script>
</svg>
