<?xml version="1.0" encoding="UTF-8" standalone="no"?>
<!DOCTYPE svg PUBLIC "-//W3C//DTD SVG 1.1//EN"
 "http://www.w3.org/Graphics/SVG/1.1/DTD/svg11.dtd">
<!-- Generated by graphviz version 2.43.0 (0)
 -->
<!-- Title: SocketPool_T Pages: 1 -->
<!--zoomable 648 -->

<svg id="main" version="1.1" xmlns="http://www.w3.org/2000/svg" xmlns:xlink="http://www.w3.org/1999/xlink" xml:space="preserve" onload="init(evt)">
<style type="text/css"><![CDATA[
.node, .edge {opacity: 0.7;}
.node.selected, .edge.selected {opacity: 1;}
.edge:hover path { stroke: red; }
.edge:hover polygon { stroke: red; fill: red; }
]]></style>

<defs>
  <circle id="rim" cx="0" cy="0" r="7"/>
  <circle id="rim2" cx="0" cy="0" r="3.5"/>
  <g id="zoomPlus">
    <use xlink:href="#rim" fill="#404040"><set attributeName="fill" to="#808080" begin="zoomplus.mouseover" end="zoomplus.mouseout"/></use>
    <path d="M-4,0h8M0,-4v8" fill="none" stroke="white" stroke-width="1.5" pointer-events="none"/>
  </g>
  <g id="zoomMin">
    <use xlink:href="#rim" fill="#404040"><set attributeName="fill" to="#808080" begin="zoomminus.mouseover" end="zoomminus.mouseout"/></use>
    <path d="M-4,0h8" fill="none" stroke="white" stroke-width="1.5" pointer-events="none"/>
  </g>
  <g id="arrowUp" transform="translate(30 24)">
    <use xlink:href="#rim"/>
    <path pointer-events="none" fill="none" stroke="white" stroke-width="1.5" d="M0,-3.0v7 M-2.5,-0.5L0,-3.0L2.5,-0.5"/>
  </g>
  <g id="arrowRight" transform="rotate(90) translate(36 -43)">
    <use xlink:href="#rim"/>
    <path pointer-events="none" fill="none" stroke="white" stroke-width="1.5" d="M0,-3.0v7 M-2.5,-0.5L0,-3.0L2.5,-0.5"/>
  </g>
  <g id="arrowDown" transform="rotate(180) translate(-30 -48)">
    <use xlink:href="#rim"/>
    <path pointer-events="none" fill="none" stroke="white" stroke-width="1.5" d="M0,-3.0v7 M-2.5,-0.5L0,-3.0L2.5,-0.5"/>
  </g>
  <g id="arrowLeft" transform="rotate(270) translate(-36 17)">
    <use xlink:href="#rim"/>
    <path pointer-events="none" fill="none" stroke="white" stroke-width="1.5" d="M0,-3.0v7 M-2.5,-0.5L0,-3.0L2.5,-0.5"/>
  </g>
  <g id="resetDef">
    <use xlink:href="#rim2" fill="#404040"><set attributeName="fill" to="#808080" begin="reset.mouseover" end="reset.mouseout"/></use>
  </g>
</defs>
<script type="application/ecmascript">
var viewWidth = 1106;
var viewHeight = 648;
var sectionId = 'dynsection-1';
</script>
<script type="application/ecmascript" xlink:href="svg.min.js"/>
<svg id="graph" class="graph">
<g id="viewport">
<title>SocketPool_T</title>
<!-- Node1 -->
<g id="Node000001" class="node">
<title>Node1</title>
<g id="a_Node000001"><a xlink:title=" ">
<polygon fill="#999999" stroke="#666666" points="1076,-335.39 998,-335.39 998,-316.39 1076,-316.39 1076,-335.39"/>
<text text-anchor="middle" x="1037" y="-323.39" font-family="Helvetica,sans-Serif" font-size="10.00">SocketPool_T</text>
</a>
</g>
</g>
<!-- Node1&#45;&gt;Node1 -->
<g id="edge34_Node000001_Node000001" class="edge">
<title>Node1&#45;&gt;Node1</title>
<g id="a_edge34_Node000001_Node000001"><a xlink:title=" ">
<path fill="none" stroke="#9a32cd" stroke-dasharray="5,2" d="M1017,-344.95C1018.34,-349.77 1025,-353.39 1037,-353.39 1056.2,-353.39 1061.74,-344.13 1053.65,-335.48"/>
<polygon fill="#9a32cd" stroke="#9a32cd" points="1020.32,-346.07 1020.35,-335.48 1013.72,-343.73 1020.32,-346.07"/>
</a>
</g>
<text text-anchor="middle" x="1037" y="-367.39" font-family="Helvetica,sans-Serif" font-size="10.00" fill="grey"> drain_cb</text>
<text text-anchor="middle" x="1037" y="-356.39" font-family="Helvetica,sans-Serif" font-size="10.00" fill="grey">resize_cb</text>
</g>
<!-- Node2 -->
<g id="Node000002" class="node">
<title>Node2</title>
<g id="a_Node000002"><a xlink:href="group__connection__mgmt.html#structConnection" target="_top" xlink:title="Internal structure representing a pooled connection slot.">
<polygon fill="white" stroke="#666666" points="864,-248.39 787,-248.39 787,-229.39 864,-229.39 864,-248.39"/>
<text text-anchor="middle" x="825.5" y="-236.39" font-family="Helvetica,sans-Serif" font-size="10.00">Connection_T</text>
</a>
</g>
</g>
<!-- Node2&#45;&gt;Node1 -->
<g id="edge1_Node000001_Node000002" class="edge">
<title>Node2&#45;&gt;Node1</title>
<g id="a_edge1_Node000001_Node000002"><a xlink:title=" ">
<path fill="none" stroke="#9a32cd" stroke-dasharray="5,2" d="M859.1,-252.43C901.82,-270.17 975.68,-300.84 1012.99,-316.34"/>
<polygon fill="#9a32cd" stroke="#9a32cd" points="860.3,-249.14 849.72,-248.54 857.61,-255.6 860.3,-249.14"/>
</a>
</g>
<text text-anchor="middle" x="928.5" y="-295.89" font-family="Helvetica,sans-Serif" font-size="10.00" fill="grey"> connections</text>
</g>
<!-- Node2&#45;&gt;Node2 -->
<g id="edge3_Node000002_Node000002" class="edge">
<title>Node2&#45;&gt;Node2</title>
<g id="a_edge3_Node000002_Node000002"><a xlink:title=" ">
<path fill="none" stroke="#9a32cd" stroke-dasharray="5,2" d="M806.72,-258.31C808.19,-262.95 814.45,-266.39 825.5,-266.39 843.63,-266.39 848.87,-257.13 841.22,-248.48"/>
<polygon fill="#9a32cd" stroke="#9a32cd" points="810.15,-259.06 809.78,-248.48 803.46,-256.98 810.15,-259.06"/>
</a>
</g>
<text text-anchor="middle" x="825.5" y="-280.39" font-family="Helvetica,sans-Serif" font-size="10.00" fill="grey"> free_next</text>
<text text-anchor="middle" x="825.5" y="-269.39" font-family="Helvetica,sans-Serif" font-size="10.00" fill="grey">hash_next</text>
</g>
<!-- Node3 -->
<g id="Node000003" class="node">
<title>Node3</title>
<g id="a_Node000003"><a xlink:title=" ">
<polygon fill="white" stroke="#666666" points="413.5,-181.39 354.5,-181.39 354.5,-162.39 413.5,-162.39 413.5,-181.39"/>
<text text-anchor="middle" x="384" y="-169.39" font-family="Helvetica,sans-Serif" font-size="10.00">Socket_T</text>
</a>
</g>
</g>
<!-- Node3&#45;&gt;Node1 -->
<g id="edge15_Node000001_Node000003" class="edge">
<title>Node3&#45;&gt;Node1</title>
<g id="a_edge15_Node000001_Node000003"><a xlink:title=" ">
<path fill="none" stroke="#9a32cd" stroke-dasharray="5,2" d="M423.68,-166.29C491.21,-157.69 634.61,-144.73 752,-169.89 850.77,-191.07 874.47,-209.1 958,-265.89 982.44,-282.51 1009.47,-304.07 1024.43,-316.3"/>
<polygon fill="#9a32cd" stroke="#9a32cd" points="422.97,-162.85 413.51,-167.62 423.88,-169.79 422.97,-162.85"/>
</a>
</g>
<text text-anchor="middle" x="713.5" y="-172.89" font-family="Helvetica,sans-Serif" font-size="10.00" fill="grey"> cleanup_buffer</text>
</g>
<!-- Node3&#45;&gt;Node2 -->
<g id="edge2_Node000002_Node000003" class="edge">
<title>Node3&#45;&gt;Node2</title>
<g id="a_edge2_Node000002_Node000003"><a xlink:title=" ">
<path fill="none" stroke="#9a32cd" stroke-dasharray="5,2" d="M423.9,-169.55C477.06,-167.17 575.12,-165.72 657,-180.89 711.62,-191.01 772.49,-215.7 803.64,-229.37"/>
<polygon fill="#9a32cd" stroke="#9a32cd" points="423.71,-166.06 413.89,-170.04 424.05,-173.05 423.71,-166.06"/>
</a>
</g>
<text text-anchor="middle" x="589.5" y="-183.89" font-family="Helvetica,sans-Serif" font-size="10.00" fill="grey"> socket</text>
</g>
<!-- Node4 -->
<g id="Node000004" class="node">
<title>Node4</title>
<g id="a_Node000004"><a xlink:href="group__reconnect__private.html#structSocketReconnect__T" target="_top" xlink:title="Opaque internal context for reconnecting socket management.">
<polygon fill="white" stroke="#666666" points="642.5,-220.39 536.5,-220.39 536.5,-201.39 642.5,-201.39 642.5,-220.39"/>
<text text-anchor="middle" x="589.5" y="-208.39" font-family="Helvetica,sans-Serif" font-size="10.00">SocketReconnect_T</text>
</a>
</g>
</g>
<!-- Node3&#45;&gt;Node4 -->
<g id="edge6_Node000004_Node000003" class="edge">
<title>Node3&#45;&gt;Node4</title>
<g id="a_edge6_Node000004_Node000003"><a xlink:title=" ">
<path fill="none" stroke="#9a32cd" stroke-dasharray="5,2" d="M423.79,-179.33C456.44,-185.58 503.33,-194.57 538.74,-201.36"/>
<polygon fill="#9a32cd" stroke="#9a32cd" points="424.21,-175.84 413.72,-177.4 422.89,-182.72 424.21,-175.84"/>
</a>
</g>
<text text-anchor="middle" x="487.5" y="-196.89" font-family="Helvetica,sans-Serif" font-size="10.00" fill="grey"> socket</text>
</g>
<!-- Node4&#45;&gt;Node2 -->
<g id="edge4_Node000002_Node000004" class="edge">
<title>Node4&#45;&gt;Node2</title>
<g id="a_edge4_Node000002_Node000004"><a xlink:title=" ">
<path fill="none" stroke="#9a32cd" stroke-dasharray="5,2" d="M652.75,-218.34C695.5,-223.46 750.84,-230.08 786.99,-234.4"/>
<polygon fill="#9a32cd" stroke="#9a32cd" points="653.07,-214.85 642.72,-217.14 652.24,-221.81 653.07,-214.85"/>
</a>
</g>
<text text-anchor="middle" x="713.5" y="-232.89" font-family="Helvetica,sans-Serif" font-size="10.00" fill="grey"> reconnect</text>
</g>
<!-- Node4&#45;&gt;Node4 -->
<g id="edge7_Node000004_Node000004" class="edge">
<title>Node4&#45;&gt;Node4</title>
<g id="a_edge7_Node000004_Node000004"><a xlink:title=" ">
<path fill="none" stroke="#9a32cd" stroke-dasharray="5,2" d="M570.72,-230.31C572.19,-234.95 578.45,-238.39 589.5,-238.39 607.63,-238.39 612.87,-229.13 605.22,-220.48"/>
<polygon fill="#9a32cd" stroke="#9a32cd" points="574.15,-231.06 573.78,-220.48 567.46,-228.98 574.15,-231.06"/>
</a>
</g>
<text text-anchor="middle" x="589.5" y="-252.39" font-family="Helvetica,sans-Serif" font-size="10.00" fill="grey"> callback</text>
<text text-anchor="middle" x="589.5" y="-241.39" font-family="Helvetica,sans-Serif" font-size="10.00" fill="grey">health_check</text>
</g>
<!-- Node5 -->
<g id="Node000005" class="node">
<title>Node5</title>
<g id="a_Node000005"><a xlink:href="group__connection__mgmt.html#structSocketReconnect__Policy__T" target="_top" xlink:title="Configuration structure defining backoff policy, circuit breaker thresholds, and health check paramet...">
<polygon fill="white" stroke="#666666" points="453,-332.39 315,-332.39 315,-313.39 453,-313.39 453,-332.39"/>
<text text-anchor="middle" x="384" y="-320.39" font-family="Helvetica,sans-Serif" font-size="10.00">SocketReconnect_Policy_T</text>
</a>
</g>
</g>
<!-- Node5&#45;&gt;Node1 -->
<g id="edge22_Node000001_Node000005" class="edge">
<title>Node5&#45;&gt;Node1</title>
<g id="a_edge22_Node000001_Node000005"><a xlink:title=" ">
<path fill="none" stroke="#9a32cd" stroke-dasharray="5,2" d="M463.39,-323.25C603.87,-323.9 893.55,-325.24 997.67,-325.72"/>
<polygon fill="#9a32cd" stroke="#9a32cd" points="463.15,-319.75 453.13,-323.21 463.12,-326.75 463.15,-319.75"/>
</a>
</g>
<text text-anchor="middle" x="713.5" y="-327.89" font-family="Helvetica,sans-Serif" font-size="10.00" fill="grey"> reconnect_policy</text>
</g>
<!-- Node5&#45;&gt;Node4 -->
<g id="edge5_Node000004_Node000005" class="edge">
<title>Node5&#45;&gt;Node4</title>
<g id="a_edge5_Node000004_Node000005"><a xlink:title=" ">
<path fill="none" stroke="#9a32cd" stroke-dasharray="5,2" d="M421.84,-309.68C432.09,-305.62 443.13,-300.9 453,-295.89 499.81,-272.16 551.36,-237.14 575.13,-220.44"/>
<polygon fill="#9a32cd" stroke="#9a32cd" points="420.38,-306.49 412.3,-313.35 422.89,-313.02 420.38,-306.49"/>
</a>
</g>
<text text-anchor="middle" x="487.5" y="-288.89" font-family="Helvetica,sans-Serif" font-size="10.00" fill="grey"> policy</text>
</g>
<!-- Node6 -->
<g id="Node000006" class="node">
<title>Node6</title>
<g id="a_Node000006"><a xlink:href="group__security.html#structSocketTLSContext__T" target="_top" xlink:title="TLS context structure for managing OpenSSL SSL_CTX with secure defaults, certificates,...">
<polygon fill="white" stroke="#666666" points="439.5,-258.39 328.5,-258.39 328.5,-239.39 439.5,-239.39 439.5,-258.39"/>
<text text-anchor="middle" x="384" y="-246.39" font-family="Helvetica,sans-Serif" font-size="10.00">SocketTLSContext_T</text>
</a>
</g>
</g>
<!-- Node6&#45;&gt;Node2 -->
<g id="edge14_Node000002_Node000006" class="edge">
<title>Node6&#45;&gt;Node2</title>
<g id="a_edge14_Node000002_Node000006"><a xlink:title=" ">
<path fill="none" stroke="#9a32cd" stroke-dasharray="5,2" d="M447.89,-260.03C471.1,-263.62 497.67,-267.13 522,-268.89 581.84,-273.24 597.24,-274.2 657,-268.89 702.02,-264.89 753.06,-254.96 786.84,-247.61"/>
<polygon fill="#9a32cd" stroke="#9a32cd" points="448.25,-256.54 437.83,-258.43 447.16,-263.45 448.25,-256.54"/>
</a>
</g>
<text text-anchor="middle" x="589.5" y="-275.89" font-family="Helvetica,sans-Serif" font-size="10.00" fill="grey"> tls_ctx</text>
</g>
<!-- Node6&#45;&gt;Node4 -->
<g id="edge8_Node000004_Node000006" class="edge">
<title>Node6&#45;&gt;Node4</title>
<g id="a_edge8_Node000004_Node000006"><a xlink:title=" ">
<path fill="none" stroke="#9a32cd" stroke-dasharray="5,2" d="M446.15,-237.47C475.26,-232.04 509.69,-225.61 537.39,-220.44"/>
<polygon fill="#9a32cd" stroke="#9a32cd" points="445.28,-234.08 436.09,-239.35 446.56,-240.96 445.28,-234.08"/>
</a>
</g>
<text text-anchor="middle" x="487.5" y="-235.89" font-family="Helvetica,sans-Serif" font-size="10.00" fill="grey"> tls_ctx</text>
</g>
<!-- Node6&#45;&gt;Node6 -->
<g id="edge11_Node000006_Node000006" class="edge">
<title>Node6&#45;&gt;Node6</title>
<g id="a_edge11_Node000006_Node000006"><a xlink:title=" ">
<path fill="none" stroke="#9a32cd" stroke-dasharray="5,2" d="M365.22,-268.31C366.69,-272.95 372.95,-276.39 384,-276.39 402.13,-276.39 407.37,-267.13 399.72,-258.48"/>
<polygon fill="#9a32cd" stroke="#9a32cd" points="368.65,-269.06 368.28,-258.48 361.96,-266.98 368.65,-269.06"/>
</a>
</g>
<text text-anchor="middle" x="384" y="-279.39" font-family="Helvetica,sans-Serif" font-size="10.00" fill="grey"> verify_callback</text>
</g>
<!-- Node7 -->
<g id="Node000007" class="node">
<title>Node7</title>
<g id="a_Node000007"><a xlink:href="structTLSContextSNICerts.html" target="_top" xlink:title="Structure for managing SNI certificate mappings in TLS context.">
<polygon fill="white" stroke="#666666" points="236,-295.39 126,-295.39 126,-276.39 236,-276.39 236,-295.39"/>
<text text-anchor="middle" x="181" y="-283.39" font-family="Helvetica,sans-Serif" font-size="10.00">TLSContextSNICerts</text>
</a>
</g>
</g>
<!-- Node7&#45;&gt;Node6 -->
<g id="edge9_Node000006_Node000007" class="edge">
<title>Node7&#45;&gt;Node6</title>
<g id="a_edge9_Node000006_Node000007"><a xlink:title=" ">
<path fill="none" stroke="#9a32cd" stroke-dasharray="5,2" d="M243.82,-274.51C271.77,-269.37 304.41,-263.36 331.06,-258.45"/>
<polygon fill="#9a32cd" stroke="#9a32cd" points="242.96,-271.11 233.76,-276.36 244.23,-278 242.96,-271.11"/>
</a>
</g>
<text text-anchor="middle" x="275.5" y="-274.89" font-family="Helvetica,sans-Serif" font-size="10.00" fill="grey"> sni_certs</text>
</g>
<!-- Node8 -->
<g id="Node000008" class="node">
<title>Node8</title>
<g id="a_Node000008"><a xlink:href="group__security.html#structTLSContextALPN" target="_top" xlink:title="Configuration for ALPN protocol negotiation.">
<polygon fill="white" stroke="#666666" points="228.5,-258.39 133.5,-258.39 133.5,-239.39 228.5,-239.39 228.5,-258.39"/>
<text text-anchor="middle" x="181" y="-246.39" font-family="Helvetica,sans-Serif" font-size="10.00">TLSContextALPN</text>
</a>
</g>
</g>
<!-- Node8&#45;&gt;Node6 -->
<g id="edge10_Node000006_Node000008" class="edge">
<title>Node8&#45;&gt;Node6</title>
<g id="a_edge10_Node000006_Node000008"><a xlink:title=" ">
<path fill="none" stroke="#9a32cd" stroke-dasharray="5,2" d="M238.7,-248.89C266.82,-248.89 300.62,-248.89 328.44,-248.89"/>
<polygon fill="#9a32cd" stroke="#9a32cd" points="238.62,-245.39 228.62,-248.89 238.62,-252.39 238.62,-245.39"/>
</a>
</g>
<text text-anchor="middle" x="275.5" y="-251.89" font-family="Helvetica,sans-Serif" font-size="10.00" fill="grey"> alpn</text>
</g>
<!-- Node9 -->
<g id="Node000009" class="node">
<title>Node9</title>
<g id="a_Node000009"><a xlink:href="group__security.html#structTLSContextPinning" target="_top" xlink:title="TLSContextPinning &#45; Certificate pinning configuration.">
<polygon fill="white" stroke="#666666" points="231.5,-221.39 130.5,-221.39 130.5,-202.39 231.5,-202.39 231.5,-221.39"/>
<text text-anchor="middle" x="181" y="-209.39" font-family="Helvetica,sans-Serif" font-size="10.00">TLSContextPinning</text>
</a>
</g>
</g>
<!-- Node9&#45;&gt;Node6 -->
<g id="edge12_Node000006_Node000009" class="edge">
<title>Node9&#45;&gt;Node6</title>
<g id="a_edge12_Node000006_Node000009"><a xlink:title=" ">
<path fill="none" stroke="#9a32cd" stroke-dasharray="5,2" d="M241.88,-222.92C270.25,-228.14 303.81,-234.32 331.08,-239.34"/>
<polygon fill="#9a32cd" stroke="#9a32cd" points="242.15,-219.41 231.69,-221.04 240.89,-226.29 242.15,-219.41"/>
</a>
</g>
<text text-anchor="middle" x="275.5" y="-235.89" font-family="Helvetica,sans-Serif" font-size="10.00" fill="grey"> pinning</text>
</g>
<!-- Node10 -->
<g id="Node000010" class="node">
<title>Node10</title>
<g id="a_Node000010"><a xlink:href="group__security.html#structTLSCertPin" target="_top" xlink:title="TLSCertPin &#45; Single certificate pin entry (SPKI SHA256 hash)">
<polygon fill="white" stroke="#666666" points="68,-221.39 0,-221.39 0,-202.39 68,-202.39 68,-221.39"/>
<text text-anchor="middle" x="34" y="-209.39" font-family="Helvetica,sans-Serif" font-size="10.00">TLSCertPin</text>
</a>
</g>
</g>
<!-- Node10&#45;&gt;Node9 -->
<g id="edge13_Node000009_Node000010" class="edge">
<title>Node10&#45;&gt;Node9</title>
<g id="a_edge13_Node000009_Node000010"><a xlink:title=" ">
<path fill="none" stroke="#9a32cd" stroke-dasharray="5,2" d="M78.61,-211.89C94.92,-211.89 113.56,-211.89 130.37,-211.89"/>
<polygon fill="#9a32cd" stroke="#9a32cd" points="78.27,-208.39 68.27,-211.89 78.27,-215.39 78.27,-208.39"/>
</a>
</g>
<text text-anchor="middle" x="97" y="-214.89" font-family="Helvetica,sans-Serif" font-size="10.00" fill="grey"> pins</text>
</g>
<!-- Node11 -->
<g id="Node000011" class="node">
<title>Node11</title>
<g id="a_Node000011"><a xlink:href="group__dns.html#structSocketDNS__T" target="_top" xlink:title="Async DNS resolver structure.">
<polygon fill="white" stroke="#666666" points="865.5,-67.39 785.5,-67.39 785.5,-48.39 865.5,-48.39 865.5,-67.39"/>
<text text-anchor="middle" x="825.5" y="-55.39" font-family="Helvetica,sans-Serif" font-size="10.00">SocketDNS_T</text>
</a>
</g>
</g>
<!-- Node11&#45;&gt;Node1 -->
<g id="edge16_Node000001_Node000011" class="edge">
<title>Node11&#45;&gt;Node1</title>
<g id="a_edge16_Node000001_Node000011"><a xlink:title=" ">
<path fill="none" stroke="#9a32cd" stroke-dasharray="5,2" d="M875.72,-63.22C903.13,-68.57 936.05,-79.32 958,-100.89 1022,-163.77 1033.54,-281.72 1035.58,-316.2"/>
<polygon fill="#9a32cd" stroke="#9a32cd" points="875.97,-59.71 865.52,-61.42 874.76,-66.6 875.97,-59.71"/>
</a>
</g>
<text text-anchor="middle" x="928.5" y="-103.89" font-family="Helvetica,sans-Serif" font-size="10.00" fill="grey"> dns</text>
</g>
<!-- Node12 -->
<g id="Node000012" class="node">
<title>Node12</title>
<g id="a_Node000012"><a xlink:href="group__dns.html#structSocketDNS__Request__T" target="_top" xlink:title="DNS resolution request structure.">
<polygon fill="white" stroke="#666666" points="1098,-41.39 976,-41.39 976,-22.39 1098,-22.39 1098,-41.39"/>
<text text-anchor="middle" x="1037" y="-29.39" font-family="Helvetica,sans-Serif" font-size="10.00">SocketDNS_Request_T</text>
</a>
</g>
</g>
<!-- Node11&#45;&gt;Node12 -->
<g id="edge19_Node000012_Node000011" class="edge">
<title>Node11&#45;&gt;Node12</title>
<g id="a_edge19_Node000012_Node000011"><a xlink:title=" ">
<path fill="none" stroke="#9a32cd" stroke-dasharray="5,2" d="M876.09,-51.74C905.95,-48.03 944.16,-43.29 975.75,-39.37"/>
<polygon fill="#9a32cd" stroke="#9a32cd" points="875.4,-48.3 865.91,-53 876.26,-55.24 875.4,-48.3"/>
</a>
</g>
<text text-anchor="middle" x="928.5" y="-51.89" font-family="Helvetica,sans-Serif" font-size="10.00" fill="grey"> dns_resolver</text>
</g>
<!-- Node12&#45;&gt;Node11 -->
<g id="edge17_Node000011_Node000012" class="edge">
<title>Node12&#45;&gt;Node11</title>
<g id="a_edge17_Node000011_Node000012"><a xlink:title=" ">
<path fill="none" stroke="#9a32cd" stroke-dasharray="5,2" d="M1008.27,-18.3C980.24,-6.43 935.9,7.16 899,-4.89 872.91,-13.41 848.43,-35.27 835.67,-48.1"/>
<polygon fill="#9a32cd" stroke="#9a32cd" points="1006.91,-21.52 1017.47,-22.38 1009.75,-15.12 1006.91,-21.52"/>
</a>
</g>
<text text-anchor="middle" x="928.5" y="-29.89" font-family="Helvetica,sans-Serif" font-size="10.00" fill="grey"> queue_head</text>
<text text-anchor="middle" x="928.5" y="-18.89" font-family="Helvetica,sans-Serif" font-size="10.00" fill="grey">queue_tail</text>
<text text-anchor="middle" x="928.5" y="-7.89" font-family="Helvetica,sans-Serif" font-size="10.00" fill="grey">request_hash</text>
</g>
<!-- Node12&#45;&gt;Node12 -->
<g id="edge18_Node000012_Node000012" class="edge">
<title>Node12&#45;&gt;Node12</title>
<g id="a_edge18_Node000012_Node000012"><a xlink:title=" ">
<path fill="none" stroke="#9a32cd" stroke-dasharray="5,2" d="M1017,-50.95C1018.34,-55.77 1025,-59.39 1037,-59.39 1056.2,-59.39 1061.74,-50.13 1053.65,-41.48"/>
<polygon fill="#9a32cd" stroke="#9a32cd" points="1020.32,-52.07 1020.35,-41.48 1013.72,-49.73 1020.32,-52.07"/>
</a>
</g>
<text text-anchor="middle" x="1037" y="-84.39" font-family="Helvetica,sans-Serif" font-size="10.00" fill="grey"> callback</text>
<text text-anchor="middle" x="1037" y="-73.39" font-family="Helvetica,sans-Serif" font-size="10.00" fill="grey">hash_next</text>
<text text-anchor="middle" x="1037" y="-62.39" font-family="Helvetica,sans-Serif" font-size="10.00" fill="grey">queue_next</text>
</g>
<!-- Node13 -->
<g id="Node000013" class="node">
<title>Node13</title>
<g id="a_Node000013"><a xlink:href="group__dns.html#structSocketDNS__CacheEntry" target="_top" xlink:title="DNS cache entry structure.">
<polygon fill="white" stroke="#666666" points="652.5,-46.39 526.5,-46.39 526.5,-27.39 652.5,-27.39 652.5,-46.39"/>
<text text-anchor="middle" x="589.5" y="-34.39" font-family="Helvetica,sans-Serif" font-size="10.00">SocketDNS_CacheEntry</text>
</a>
</g>
</g>
<!-- Node13&#45;&gt;Node11 -->
<g id="edge20_Node000011_Node000013" class="edge">
<title>Node13&#45;&gt;Node11</title>
<g id="a_edge20_Node000011_Node000013"><a xlink:title=" ">
<path fill="none" stroke="#9a32cd" stroke-dasharray="5,2" d="M662.67,-43.37C703.09,-47 751.91,-51.38 785.29,-54.37"/>
<polygon fill="#9a32cd" stroke="#9a32cd" points="662.87,-39.87 652.59,-42.47 662.24,-46.85 662.87,-39.87"/>
</a>
</g>
<text text-anchor="middle" x="713.5" y="-76.89" font-family="Helvetica,sans-Serif" font-size="10.00" fill="grey"> cache_hash</text>
<text text-anchor="middle" x="713.5" y="-65.89" font-family="Helvetica,sans-Serif" font-size="10.00" fill="grey">cache_lru_head</text>
<text text-anchor="middle" x="713.5" y="-54.89" font-family="Helvetica,sans-Serif" font-size="10.00" fill="grey">cache_lru_tail</text>
</g>
<!-- Node13&#45;&gt;Node13 -->
<g id="edge21_Node000013_Node000013" class="edge">
<title>Node13&#45;&gt;Node13</title>
<g id="a_edge21_Node000013_Node000013"><a xlink:title=" ">
<path fill="none" stroke="#9a32cd" stroke-dasharray="5,2" d="M570.72,-56.31C572.19,-60.95 578.45,-64.39 589.5,-64.39 607.63,-64.39 612.87,-55.13 605.22,-46.48"/>
<polygon fill="#9a32cd" stroke="#9a32cd" points="574.15,-57.06 573.78,-46.48 567.46,-54.98 574.15,-57.06"/>
</a>
</g>
<text text-anchor="middle" x="589.5" y="-89.39" font-family="Helvetica,sans-Serif" font-size="10.00" fill="grey"> hash_next</text>
<text text-anchor="middle" x="589.5" y="-78.39" font-family="Helvetica,sans-Serif" font-size="10.00" fill="grey">lru_next</text>
<text text-anchor="middle" x="589.5" y="-67.39" font-family="Helvetica,sans-Serif" font-size="10.00" fill="grey">lru_prev</text>
</g>
<!-- Node14 -->
<g id="Node000014" class="node">
<title>Node14</title>
<g id="a_Node000014"><a xlink:href="group__utilities.html#structSocketRateLimit__T" target="_top" xlink:title="Internal structure implementing the token bucket rate limiter.">
<polygon fill="white" stroke="#666666" points="640,-640.39 539,-640.39 539,-621.39 640,-621.39 640,-640.39"/>
<text text-anchor="middle" x="589.5" y="-628.39" font-family="Helvetica,sans-Serif" font-size="10.00">SocketRateLimit_T</text>
</a>
</g>
</g>
<!-- Node14&#45;&gt;Node1 -->
<g id="edge23_Node000001_Node000014" class="edge">
<title>Node14&#45;&gt;Node1</title>
<g id="a_edge23_Node000001_Node000014"><a xlink:title=" ">
<path fill="none" stroke="#9a32cd" stroke-dasharray="5,2" d="M650.43,-631.46C681.8,-629.81 720.2,-624.64 752,-610.89 861.22,-563.68 877.85,-527.84 958,-439.89 989.82,-404.97 1018.86,-356.29 1030.55,-335.7"/>
<polygon fill="#9a32cd" stroke="#9a32cd" points="649.92,-627.98 640.08,-631.89 650.22,-634.97 649.92,-627.98"/>
</a>
</g>
<text text-anchor="middle" x="825.5" y="-603.89" font-family="Helvetica,sans-Serif" font-size="10.00" fill="grey"> conn_limiter</text>
</g>
<!-- Node15 -->
<g id="Node000015" class="node">
<title>Node15</title>
<g id="a_Node000015"><a xlink:href="group__security.html#structSocketSYNProtect__T" target="_top" xlink:title="Core internal structure for the SYN protection module.">
<polygon fill="white" stroke="#666666" points="881,-488.39 770,-488.39 770,-469.39 881,-469.39 881,-488.39"/>
<text text-anchor="middle" x="825.5" y="-476.39" font-family="Helvetica,sans-Serif" font-size="10.00">SocketSYNProtect_T</text>
</a>
</g>
</g>
<!-- Node14&#45;&gt;Node15 -->
<g id="edge33_Node000015_Node000014" class="edge">
<title>Node14&#45;&gt;Node15</title>
<g id="a_edge33_Node000015_Node000014"><a xlink:title=" ">
<path fill="none" stroke="#9a32cd" stroke-dasharray="5,2" d="M644.26,-618.17C648.64,-616.58 652.94,-614.83 657,-612.89 665.91,-608.65 666.73,-605.28 675,-599.89 708.22,-578.26 720.9,-579.47 752,-554.89 778.32,-534.09 804.26,-503.93 816.77,-488.61"/>
<polygon fill="#9a32cd" stroke="#9a32cd" points="642.99,-614.9 634.6,-621.37 645.19,-621.55 642.99,-614.9"/>
</a>
</g>
<text text-anchor="middle" x="713.5" y="-602.89" font-family="Helvetica,sans-Serif" font-size="10.00" fill="grey"> global_limiter</text>
</g>
<!-- Node15&#45;&gt;Node1 -->
<g id="edge24_Node000001_Node000015" class="edge">
<title>Node15&#45;&gt;Node1</title>
<g id="a_edge24_Node000001_Node000015"><a xlink:title=" ">
<path fill="none" stroke="#9a32cd" stroke-dasharray="5,2" d="M847.72,-463.4C890.86,-431.89 987.71,-361.16 1022.9,-335.46"/>
<polygon fill="#9a32cd" stroke="#9a32cd" points="845.62,-460.6 839.61,-469.32 849.75,-466.25 845.62,-460.6"/>
</a>
</g>
<text text-anchor="middle" x="928.5" y="-427.89" font-family="Helvetica,sans-Serif" font-size="10.00" fill="grey"> syn_protect</text>
</g>
<!-- Node16 -->
<g id="Node000016" class="node">
<title>Node16</title>
<g id="a_Node000016"><a xlink:href="group__security.html#structSocketSYNProtect__Config" target="_top" xlink:title="Configuration parameters for SYN flood protection.">
<polygon fill="white" stroke="#666666" points="656.5,-471.39 522.5,-471.39 522.5,-452.39 656.5,-452.39 656.5,-471.39"/>
<text text-anchor="middle" x="589.5" y="-459.39" font-family="Helvetica,sans-Serif" font-size="10.00">SocketSYNProtect_Config</text>
</a>
</g>
</g>
<!-- Node16&#45;&gt;Node15 -->
<g id="edge25_Node000015_Node000016" class="edge">
<title>Node16&#45;&gt;Node15</title>
<g id="a_edge25_Node000015_Node000016"><a xlink:title=" ">
<path fill="none" stroke="#9a32cd" stroke-dasharray="5,2" d="M666.83,-459.84C693.81,-459.91 724.32,-460.89 752,-463.89 762.86,-465.07 774.5,-467.12 785.21,-469.34"/>
<polygon fill="#9a32cd" stroke="#9a32cd" points="666.67,-456.34 656.68,-459.86 666.68,-463.34 666.67,-456.34"/>
</a>
</g>
<text text-anchor="middle" x="713.5" y="-466.89" font-family="Helvetica,sans-Serif" font-size="10.00" fill="grey"> config</text>
</g>
<!-- Node17 -->
<g id="Node000017" class="node">
<title>Node17</title>
<g id="a_Node000017"><a xlink:href="group__security.html#structSocketSYN__IPEntry" target="_top" xlink:title="Internal IP tracking entry for hash table and LRU management.">
<polygon fill="white" stroke="#666666" points="643,-383.39 536,-383.39 536,-364.39 643,-364.39 643,-383.39"/>
<text text-anchor="middle" x="589.5" y="-371.39" font-family="Helvetica,sans-Serif" font-size="10.00">SocketSYN_IPEntry</text>
</a>
</g>
</g>
<!-- Node17&#45;&gt;Node15 -->
<g id="edge26_Node000015_Node000017" class="edge">
<title>Node17&#45;&gt;Node15</title>
<g id="a_edge26_Node000015_Node000017"><a xlink:title=" ">
<path fill="none" stroke="#9a32cd" stroke-dasharray="5,2" d="M647.85,-385.9C679.63,-393.86 719.22,-405.99 752,-422.89 776.6,-435.58 801.25,-456.89 814.52,-469.24"/>
<polygon fill="#9a32cd" stroke="#9a32cd" points="648.37,-382.42 637.83,-383.46 646.72,-389.23 648.37,-382.42"/>
</a>
</g>
<text text-anchor="middle" x="713.5" y="-447.89" font-family="Helvetica,sans-Serif" font-size="10.00" fill="grey"> ip_table</text>
<text text-anchor="middle" x="713.5" y="-436.89" font-family="Helvetica,sans-Serif" font-size="10.00" fill="grey">lru_head</text>
<text text-anchor="middle" x="713.5" y="-425.89" font-family="Helvetica,sans-Serif" font-size="10.00" fill="grey">lru_tail</text>
</g>
<!-- Node17&#45;&gt;Node17 -->
<g id="edge28_Node000017_Node000017" class="edge">
<title>Node17&#45;&gt;Node17</title>
<g id="a_edge28_Node000017_Node000017"><a xlink:title=" ">
<path fill="none" stroke="#9a32cd" stroke-dasharray="5,2" d="M570.72,-393.31C572.19,-397.95 578.45,-401.39 589.5,-401.39 607.63,-401.39 612.87,-392.13 605.22,-383.48"/>
<polygon fill="#9a32cd" stroke="#9a32cd" points="574.15,-394.06 573.78,-383.48 567.46,-391.98 574.15,-394.06"/>
</a>
</g>
<text text-anchor="middle" x="589.5" y="-426.39" font-family="Helvetica,sans-Serif" font-size="10.00" fill="grey"> hash_next</text>
<text text-anchor="middle" x="589.5" y="-415.39" font-family="Helvetica,sans-Serif" font-size="10.00" fill="grey">lru_next</text>
<text text-anchor="middle" x="589.5" y="-404.39" font-family="Helvetica,sans-Serif" font-size="10.00" fill="grey">lru_prev</text>
</g>
<!-- Node18 -->
<g id="Node000018" class="node">
<title>Node18</title>
<g id="a_Node000018"><a xlink:href="group__security.html#structSocketSYN__IPState" target="_top" xlink:title="Per&#45;IP address tracking and reputation state.">
<polygon fill="white" stroke="#666666" points="437.5,-383.39 330.5,-383.39 330.5,-364.39 437.5,-364.39 437.5,-383.39"/>
<text text-anchor="middle" x="384" y="-371.39" font-family="Helvetica,sans-Serif" font-size="10.00">SocketSYN_IPState</text>
</a>
</g>
</g>
<!-- Node18&#45;&gt;Node17 -->
<g id="edge27_Node000017_Node000018" class="edge">
<title>Node18&#45;&gt;Node17</title>
<g id="a_edge27_Node000017_Node000018"><a xlink:title=" ">
<path fill="none" stroke="#9a32cd" stroke-dasharray="5,2" d="M447.81,-373.89C475.98,-373.89 508.83,-373.89 535.7,-373.89"/>
<polygon fill="#9a32cd" stroke="#9a32cd" points="447.67,-370.39 437.67,-373.89 447.67,-377.39 447.67,-370.39"/>
</a>
</g>
<text text-anchor="middle" x="487.5" y="-376.89" font-family="Helvetica,sans-Serif" font-size="10.00" fill="grey"> state</text>
</g>
<!-- Node19 -->
<g id="Node000019" class="node">
<title>Node19</title>
<g id="a_Node000019"><a xlink:href="group__security.html#structSocketSYN__WhitelistEntry" target="_top" xlink:title="Structure for whitelist entries supporting single IPs and CIDR ranges.">
<polygon fill="white" stroke="#666666" points="657,-574.39 522,-574.39 522,-555.39 657,-555.39 657,-574.39"/>
<text text-anchor="middle" x="589.5" y="-562.39" font-family="Helvetica,sans-Serif" font-size="10.00">SocketSYN_WhitelistEntry</text>
</a>
</g>
</g>
<!-- Node19&#45;&gt;Node15 -->
<g id="edge29_Node000015_Node000019" class="edge">
<title>Node19&#45;&gt;Node15</title>
<g id="a_edge29_Node000015_Node000019"><a xlink:title=" ">
<path fill="none" stroke="#9a32cd" stroke-dasharray="5,2" d="M638.71,-552.59C644.9,-550.79 651.12,-548.87 657,-546.89 710.68,-528.8 771.94,-502.42 803.39,-488.43"/>
<polygon fill="#9a32cd" stroke="#9a32cd" points="637.74,-549.22 629.07,-555.3 639.64,-555.96 637.74,-549.22"/>
</a>
</g>
<text text-anchor="middle" x="713.5" y="-542.89" font-family="Helvetica,sans-Serif" font-size="10.00" fill="grey"> whitelist_table</text>
</g>
<!-- Node19&#45;&gt;Node19 -->
<g id="edge30_Node000019_Node000019" class="edge">
<title>Node19&#45;&gt;Node19</title>
<g id="a_edge30_Node000019_Node000019"><a xlink:title=" ">
<path fill="none" stroke="#9a32cd" stroke-dasharray="5,2" d="M570.72,-584.31C572.19,-588.95 578.45,-592.39 589.5,-592.39 607.63,-592.39 612.87,-583.13 605.22,-574.48"/>
<polygon fill="#9a32cd" stroke="#9a32cd" points="574.15,-585.06 573.78,-574.48 567.46,-582.98 574.15,-585.06"/>
</a>
</g>
<text text-anchor="middle" x="589.5" y="-595.39" font-family="Helvetica,sans-Serif" font-size="10.00" fill="grey"> next</text>
</g>
<!-- Node20 -->
<g id="Node000020" class="node">
<title>Node20</title>
<g id="a_Node000020"><a xlink:href="group__security.html#structSocketSYN__BlacklistEntry" target="_top" xlink:title="Internal structure for blacklisted IP addresses with expiry support.">
<polygon fill="white" stroke="#666666" points="656.5,-508.39 522.5,-508.39 522.5,-489.39 656.5,-489.39 656.5,-508.39"/>
<text text-anchor="middle" x="589.5" y="-496.39" font-family="Helvetica,sans-Serif" font-size="10.00">SocketSYN_BlacklistEntry</text>
</a>
</g>
</g>
<!-- Node20&#45;&gt;Node15 -->
<g id="edge31_Node000015_Node000020" class="edge">
<title>Node20&#45;&gt;Node15</title>
<g id="a_edge31_Node000015_Node000020"><a xlink:title=" ">
<path fill="none" stroke="#9a32cd" stroke-dasharray="5,2" d="M666.88,-492.36C700.54,-489.49 739.32,-486.17 769.99,-483.55"/>
<polygon fill="#9a32cd" stroke="#9a32cd" points="666.28,-488.9 656.62,-493.24 666.88,-495.88 666.28,-488.9"/>
</a>
</g>
<text text-anchor="middle" x="713.5" y="-493.89" font-family="Helvetica,sans-Serif" font-size="10.00" fill="grey"> blacklist_table</text>
</g>
<!-- Node20&#45;&gt;Node20 -->
<g id="edge32_Node000020_Node000020" class="edge">
<title>Node20&#45;&gt;Node20</title>
<g id="a_edge32_Node000020_Node000020"><a xlink:title=" ">
<path fill="none" stroke="#9a32cd" stroke-dasharray="5,2" d="M570.72,-518.31C572.19,-522.95 578.45,-526.39 589.5,-526.39 607.63,-526.39 612.87,-517.13 605.22,-508.48"/>
<polygon fill="#9a32cd" stroke="#9a32cd" points="574.15,-519.06 573.78,-508.48 567.46,-516.98 574.15,-519.06"/>
</a>
</g>
<text text-anchor="middle" x="589.5" y="-529.39" font-family="Helvetica,sans-Serif" font-size="10.00" fill="grey"> next</text>
</g>
</g>
</svg>

<g id="navigator" transform="translate(0 0)" fill="#404254">
  <rect fill="#f2f5e9" fill-opacity="0.5" stroke="#606060" stroke-width=".5" x="0" y="0" width="60" height="60"/>
  <use id="zoomplus" xlink:href="#zoomPlus" x="17" y="9" onmousedown="handleZoom(evt,'in')"/>
  <use id="zoomminus" xlink:href="#zoomMin" x="42" y="9" onmousedown="handleZoom(evt,'out')"/>
  <use id="reset" xlink:href="#resetDef" x="30" y="36" onmousedown="handleReset()"/>
   <use id="arrowup" xlink:href="#arrowUp" x="0" y="0" onmousedown="handlePan(0,-1)"/>
  <use id="arrowright" xlink:href="#arrowRight" x="0" y="0" onmousedown="handlePan(1,0)"/>
  <use id="arrowdown" xlink:href="#arrowDown" x="0" y="0" onmousedown="handlePan(0,1)"/>
  <use id="arrowleft" xlink:href="#arrowLeft" x="0" y="0" onmousedown="handlePan(-1,0)"/>
</g>
<svg viewBox="0 0 15 15" width="100%" height="30px" preserveAspectRatio="xMaxYMin meet">
 <g id="arrow_out" transform="scale(0.3 0.3)">
  <a xlink:href="structSocketPool__T__coll__graph_org.svg" target="_base">
   <rect id="button" ry="5" rx="5" y="6" x="6" height="38" width="38"
        fill="#f2f5e9" fill-opacity="0.5" stroke="#606060" stroke-width="1.0"/>
   <path id="arrow"
     d="M 11.500037,31.436501 C 11.940474,20.09759 22.043105,11.32322 32.158766,21.979434 L 37.068811,17.246167 C 37.068811,17.246167 37.088388,32 37.088388,32 L 22.160133,31.978069 C 22.160133,31.978069 26.997745,27.140456 26.997745,27.140456 C 18.528582,18.264221 13.291696,25.230495 11.500037,31.436501 z"
     style="fill:#404040;"/>
  </a>
 </g>
</svg>

<style type='text/css'>
<![CDATA[
[data-mouse-over-selected='false'] { opacity: 0.7; }
[data-mouse-over-selected='true']  { opacity: 1.0; }
]]>
</style>
<script type="application/ecmascript"><![CDATA[
document.addEventListener('DOMContentLoaded', (event) => {
  highlightEdges();
  highlightAdjacentNodes();
});
]]></script>
</svg>
