<?xml version="1.0" encoding="UTF-8" standalone="no"?>
<!DOCTYPE svg PUBLIC "-//W3C//DTD SVG 1.1//EN"
 "http://www.w3.org/Graphics/SVG/1.1/DTD/svg11.dtd">
<!-- Generated by graphviz version 2.43.0 (0)
 -->
<!-- Title: AsyncRequest Pages: 1 -->
<svg width="138pt" height="170pt"
 viewBox="0.00 0.00 138.00 170.00" xmlns="http://www.w3.org/2000/svg" xmlns:xlink="http://www.w3.org/1999/xlink">
<g id="graph0" class="graph" transform="scale(1 1) rotate(0) translate(4 166)">
<title>AsyncRequest</title>
<!-- Node1 -->
<g id="Node000001" class="node">
<title>Node1</title>
<g id="a_Node000001"><a xlink:title="Internal structure for tracking asynchronous I/O requests.">
<polygon fill="#999999" stroke="#666666" points="90,-19 9,-19 9,0 90,0 90,-19"/>
<text text-anchor="middle" x="49.5" y="-7" font-family="Helvetica,sans-Serif" font-size="10.00">AsyncRequest</text>
</a>
</g>
</g>
<!-- Node1&#45;&gt;Node1 -->
<g id="edge3_Node000001_Node000001" class="edge">
<title>Node1&#45;&gt;Node1</title>
<g id="a_edge3_Node000001_Node000001"><a xlink:title=" ">
<path fill="none" stroke="#9a32cd" stroke-dasharray="5,2" d="M100.32,-15.19C105.03,-14.02 108,-12.12 108,-9.5 108,-5.31 100.4,-2.96 90.23,-2.47"/>
<polygon fill="#9a32cd" stroke="#9a32cd" points="99.69,-11.75 90.23,-16.53 100.61,-18.69 99.69,-11.75"/>
</a>
</g>
<text text-anchor="middle" x="119" y="-7" font-family="Helvetica,sans-Serif" font-size="10.00" fill="grey"> next</text>
</g>
<!-- Node2 -->
<g id="Node000002" class="node">
<title>Node2</title>
<g id="a_Node000002"><a xlink:title=" ">
<polygon fill="white" stroke="#666666" points="79,-96 20,-96 20,-77 79,-77 79,-96"/>
<text text-anchor="middle" x="49.5" y="-84" font-family="Helvetica,sans-Serif" font-size="10.00">Socket_T</text>
</a>
</g>
</g>
<!-- Node2&#45;&gt;Node1 -->
<g id="edge1_Node000001_Node000002" class="edge">
<title>Node2&#45;&gt;Node1</title>
<g id="a_edge1_Node000001_Node000002"><a xlink:title=" ">
<path fill="none" stroke="#9a32cd" stroke-dasharray="5,2" d="M49.5,-66.52C49.5,-51.24 49.5,-30.48 49.5,-19"/>
<polygon fill="#9a32cd" stroke="#9a32cd" points="46,-66.9 49.5,-76.9 53,-66.9 46,-66.9"/>
</a>
</g>
<text text-anchor="middle" x="64.5" y="-51" font-family="Helvetica,sans-Serif" font-size="10.00" fill="grey"> cb</text>
<text text-anchor="middle" x="64.5" y="-40" font-family="Helvetica,sans-Serif" font-size="10.00" fill="grey">socket</text>
</g>
<!-- Node3 -->
<g id="Node000003" class="node">
<title>Node3</title>
<g id="a_Node000003"><a xlink:href="group__foundation.html#structSocketTimeouts__T" target="_top" xlink:title="Timeout configuration structure for socket operations.">
<polygon fill="white" stroke="#666666" points="99,-162 0,-162 0,-143 99,-143 99,-162"/>
<text text-anchor="middle" x="49.5" y="-150" font-family="Helvetica,sans-Serif" font-size="10.00">SocketTimeouts_T</text>
</a>
</g>
</g>
<!-- Node3&#45;&gt;Node2 -->
<g id="edge2_Node000002_Node000003" class="edge">
<title>Node3&#45;&gt;Node2</title>
<g id="a_edge2_Node000002_Node000003"><a xlink:title=" ">
<path fill="none" stroke="#9a32cd" stroke-dasharray="5,2" d="M49.5,-132.58C49.5,-120.63 49.5,-105.72 49.5,-96.41"/>
<polygon fill="#9a32cd" stroke="#9a32cd" points="46,-132.87 49.5,-142.87 53,-132.87 46,-132.87"/>
</a>
</g>
<text text-anchor="middle" x="78" y="-117" font-family="Helvetica,sans-Serif" font-size="10.00" fill="grey"> tls_timeouts</text>
</g>
</g>
</svg>
