<?xml version="1.0" encoding="UTF-8" standalone="no"?>
<!DOCTYPE svg PUBLIC "-//W3C//DTD SVG 1.1//EN"
 "http://www.w3.org/Graphics/SVG/1.1/DTD/svg11.dtd">
<!-- Generated by graphviz version 2.43.0 (0)
 -->
<!-- Title: SocketPool_T Pages: 1 -->
<!--zoomable 571 -->

<svg id="main" version="1.1" xmlns="http://www.w3.org/2000/svg" xmlns:xlink="http://www.w3.org/1999/xlink" xml:space="preserve" onload="init(evt)">
<style type="text/css"><![CDATA[
.node, .edge {opacity: 0.7;}
.node.selected, .edge.selected {opacity: 1;}
.edge:hover path { stroke: red; }
.edge:hover polygon { stroke: red; fill: red; }
]]></style>

<defs>
  <circle id="rim" cx="0" cy="0" r="7"/>
  <circle id="rim2" cx="0" cy="0" r="3.5"/>
  <g id="zoomPlus">
    <use xlink:href="#rim" fill="#404040"><set attributeName="fill" to="#808080" begin="zoomplus.mouseover" end="zoomplus.mouseout"/></use>
    <path d="M-4,0h8M0,-4v8" fill="none" stroke="white" stroke-width="1.5" pointer-events="none"/>
  </g>
  <g id="zoomMin">
    <use xlink:href="#rim" fill="#404040"><set attributeName="fill" to="#808080" begin="zoomminus.mouseover" end="zoomminus.mouseout"/></use>
    <path d="M-4,0h8" fill="none" stroke="white" stroke-width="1.5" pointer-events="none"/>
  </g>
  <g id="arrowUp" transform="translate(30 24)">
    <use xlink:href="#rim"/>
    <path pointer-events="none" fill="none" stroke="white" stroke-width="1.5" d="M0,-3.0v7 M-2.5,-0.5L0,-3.0L2.5,-0.5"/>
  </g>
  <g id="arrowRight" transform="rotate(90) translate(36 -43)">
    <use xlink:href="#rim"/>
    <path pointer-events="none" fill="none" stroke="white" stroke-width="1.5" d="M0,-3.0v7 M-2.5,-0.5L0,-3.0L2.5,-0.5"/>
  </g>
  <g id="arrowDown" transform="rotate(180) translate(-30 -48)">
    <use xlink:href="#rim"/>
    <path pointer-events="none" fill="none" stroke="white" stroke-width="1.5" d="M0,-3.0v7 M-2.5,-0.5L0,-3.0L2.5,-0.5"/>
  </g>
  <g id="arrowLeft" transform="rotate(270) translate(-36 17)">
    <use xlink:href="#rim"/>
    <path pointer-events="none" fill="none" stroke="white" stroke-width="1.5" d="M0,-3.0v7 M-2.5,-0.5L0,-3.0L2.5,-0.5"/>
  </g>
  <g id="resetDef">
    <use xlink:href="#rim2" fill="#404040"><set attributeName="fill" to="#808080" begin="reset.mouseover" end="reset.mouseout"/></use>
  </g>
</defs>
<script type="application/ecmascript">
var viewWidth = 927;
var viewHeight = 571;
var sectionId = 'dynsection-1';
</script>
<script type="application/ecmascript" xlink:href="svg.min.js"/>
<svg id="graph" class="graph">
<g id="viewport">
<title>SocketPool_T</title>
<!-- Node1 -->
<g id="Node000001" class="node">
<title>Node1</title>
<g id="a_Node000001"><a xlink:title=" ">
<polygon fill="#999999" stroke="#666666" points="897,-230 819,-230 819,-211 897,-211 897,-230"/>
<text text-anchor="middle" x="858" y="-218" font-family="Helvetica,sans-Serif" font-size="10.00">SocketPool_T</text>
</a>
</g>
</g>
<!-- Node1&#45;&gt;Node1 -->
<g id="edge31_Node000001_Node000001" class="edge">
<title>Node1&#45;&gt;Node1</title>
<g id="a_edge31_Node000001_Node000001"><a xlink:title=" ">
<path fill="none" stroke="#9a32cd" stroke-dasharray="5,2" d="M838,-239.55C839.34,-244.38 846,-248 858,-248 877.2,-248 882.74,-238.73 874.65,-230.08"/>
<polygon fill="#9a32cd" stroke="#9a32cd" points="841.32,-240.68 841.35,-230.08 834.72,-238.34 841.32,-240.68"/>
</a>
</g>
<text text-anchor="middle" x="858" y="-262" font-family="Helvetica,sans-Serif" font-size="10.00" fill="grey"> drain_cb</text>
<text text-anchor="middle" x="858" y="-251" font-family="Helvetica,sans-Serif" font-size="10.00" fill="grey">resize_cb</text>
</g>
<!-- Node2 -->
<g id="Node000002" class="node">
<title>Node2</title>
<g id="a_Node000002"><a xlink:href="group__connection__mgmt.html#structConnection" target="_top" xlink:title="Internal structure representing a pooled connection slot.">
<polygon fill="white" stroke="#666666" points="685,-112 608,-112 608,-93 685,-93 685,-112"/>
<text text-anchor="middle" x="646.5" y="-100" font-family="Helvetica,sans-Serif" font-size="10.00">Connection_T</text>
</a>
</g>
</g>
<!-- Node2&#45;&gt;Node1 -->
<g id="edge1_Node000001_Node000002" class="edge">
<title>Node2&#45;&gt;Node1</title>
<g id="a_edge1_Node000001_Node000002"><a xlink:title=" ">
<path fill="none" stroke="#9a32cd" stroke-dasharray="5,2" d="M683.7,-115.64C716.58,-127.84 762.39,-145.57 779,-155.5 805.93,-171.6 833.12,-196.74 847.19,-210.56"/>
<polygon fill="#9a32cd" stroke="#9a32cd" points="684.55,-112.23 673.96,-112.05 682.13,-118.8 684.55,-112.23"/>
</a>
</g>
<text text-anchor="middle" x="749.5" y="-158.5" font-family="Helvetica,sans-Serif" font-size="10.00" fill="grey"> connections</text>
</g>
<!-- Node2&#45;&gt;Node2 -->
<g id="edge3_Node000002_Node000002" class="edge">
<title>Node2&#45;&gt;Node2</title>
<g id="a_edge3_Node000002_Node000002"><a xlink:title=" ">
<path fill="none" stroke="#9a32cd" stroke-dasharray="5,2" d="M627.72,-121.91C629.19,-126.56 635.45,-130 646.5,-130 664.63,-130 669.87,-120.73 662.22,-112.08"/>
<polygon fill="#9a32cd" stroke="#9a32cd" points="631.15,-122.67 630.78,-112.08 624.46,-120.59 631.15,-122.67"/>
</a>
</g>
<text text-anchor="middle" x="646.5" y="-144" font-family="Helvetica,sans-Serif" font-size="10.00" fill="grey"> free_next</text>
<text text-anchor="middle" x="646.5" y="-133" font-family="Helvetica,sans-Serif" font-size="10.00" fill="grey">hash_next</text>
</g>
<!-- Node3 -->
<g id="Node000003" class="node">
<title>Node3</title>
<g id="a_Node000003"><a xlink:title=" ">
<polygon fill="white" stroke="#666666" points="224.5,-170 165.5,-170 165.5,-151 224.5,-151 224.5,-170"/>
<text text-anchor="middle" x="195" y="-158" font-family="Helvetica,sans-Serif" font-size="10.00">Socket_T</text>
</a>
</g>
</g>
<!-- Node3&#45;&gt;Node1 -->
<g id="edge14_Node000001_Node000003" class="edge">
<title>Node3&#45;&gt;Node1</title>
<g id="a_edge14_Node000001_Node000003"><a xlink:title=" ">
<path fill="none" stroke="#9a32cd" stroke-dasharray="5,2" d="M235.3,-157.82C304.01,-153.73 450.34,-147.68 573,-160.5 664.72,-170.08 770.43,-196.63 823.27,-210.98"/>
<polygon fill="#9a32cd" stroke="#9a32cd" points="234.72,-154.35 224.96,-158.46 235.15,-161.34 234.72,-154.35"/>
</a>
</g>
<text text-anchor="middle" x="534.5" y="-163.5" font-family="Helvetica,sans-Serif" font-size="10.00" fill="grey"> cleanup_buffer</text>
</g>
<!-- Node3&#45;&gt;Node2 -->
<g id="edge2_Node000002_Node000003" class="edge">
<title>Node3&#45;&gt;Node2</title>
<g id="a_edge2_Node000002_Node000003"><a xlink:title=" ">
<path fill="none" stroke="#9a32cd" stroke-dasharray="5,2" d="M234.58,-153.29C264.17,-147.92 306.07,-140.65 343,-135.5 437.97,-122.26 550.33,-111.2 607.68,-105.89"/>
<polygon fill="#9a32cd" stroke="#9a32cd" points="233.86,-149.86 224.65,-155.11 235.12,-156.75 233.86,-149.86"/>
</a>
</g>
<text text-anchor="middle" x="410.5" y="-138.5" font-family="Helvetica,sans-Serif" font-size="10.00" fill="grey"> socket</text>
</g>
<!-- Node4 -->
<g id="Node000004" class="node">
<title>Node4</title>
<g id="a_Node000004"><a xlink:href="group__reconnect__private.html#structSocketReconnect__T" target="_top" xlink:title="Opaque internal context for reconnecting socket management.">
<polygon fill="white" stroke="#666666" points="463.5,-208 357.5,-208 357.5,-189 463.5,-189 463.5,-208"/>
<text text-anchor="middle" x="410.5" y="-196" font-family="Helvetica,sans-Serif" font-size="10.00">SocketReconnect_T</text>
</a>
</g>
</g>
<!-- Node3&#45;&gt;Node4 -->
<g id="edge6_Node000004_Node000003" class="edge">
<title>Node3&#45;&gt;Node4</title>
<g id="a_edge6_Node000004_Node000003"><a xlink:title=" ">
<path fill="none" stroke="#9a32cd" stroke-dasharray="5,2" d="M234.91,-167.43C269.27,-173.54 319.63,-182.5 357.45,-189.24"/>
<polygon fill="#9a32cd" stroke="#9a32cd" points="235.25,-163.93 224.79,-165.62 234.03,-170.82 235.25,-163.93"/>
</a>
</g>
<text text-anchor="middle" x="303.5" y="-186.5" font-family="Helvetica,sans-Serif" font-size="10.00" fill="grey"> socket</text>
</g>
<!-- Node4&#45;&gt;Node2 -->
<g id="edge4_Node000002_Node000004" class="edge">
<title>Node4&#45;&gt;Node2</title>
<g id="a_edge4_Node000002_Node000004"><a xlink:title=" ">
<path fill="none" stroke="#9a32cd" stroke-dasharray="5,2" d="M474.11,-198.28C505.24,-195.97 542.61,-189.74 573,-174.5 602.65,-159.63 627.67,-128.07 639,-112.13"/>
<polygon fill="#9a32cd" stroke="#9a32cd" points="473.57,-194.81 463.81,-198.92 474.01,-201.79 473.57,-194.81"/>
</a>
</g>
<text text-anchor="middle" x="534.5" y="-199.5" font-family="Helvetica,sans-Serif" font-size="10.00" fill="grey"> reconnect</text>
</g>
<!-- Node4&#45;&gt;Node4 -->
<g id="edge7_Node000004_Node000004" class="edge">
<title>Node4&#45;&gt;Node4</title>
<g id="a_edge7_Node000004_Node000004"><a xlink:title=" ">
<path fill="none" stroke="#9a32cd" stroke-dasharray="5,2" d="M390.87,-217.55C392.18,-222.38 398.73,-226 410.5,-226 429.34,-226 434.79,-216.73 426.84,-208.08"/>
<polygon fill="#9a32cd" stroke="#9a32cd" points="394.19,-218.68 394.16,-208.08 387.57,-216.38 394.19,-218.68"/>
</a>
</g>
<text text-anchor="middle" x="410.5" y="-240" font-family="Helvetica,sans-Serif" font-size="10.00" fill="grey"> callback</text>
<text text-anchor="middle" x="410.5" y="-229" font-family="Helvetica,sans-Serif" font-size="10.00" fill="grey">health_check</text>
</g>
<!-- Node5 -->
<g id="Node000005" class="node">
<title>Node5</title>
<g id="a_Node000005"><a xlink:href="group__connection__mgmt.html#structSocketReconnect__Policy__T" target="_top" xlink:title="Configuration structure defining backoff policy, circuit breaker thresholds, and health check paramet...">
<polygon fill="white" stroke="#666666" points="264,-541 126,-541 126,-522 264,-522 264,-541"/>
<text text-anchor="middle" x="195" y="-529" font-family="Helvetica,sans-Serif" font-size="10.00">SocketReconnect_Policy_T</text>
</a>
</g>
</g>
<!-- Node5&#45;&gt;Node1 -->
<g id="edge19_Node000001_Node000005" class="edge">
<title>Node5&#45;&gt;Node1</title>
<g id="a_edge19_Node000001_Node000005"><a xlink:title=" ">
<path fill="none" stroke="#9a32cd" stroke-dasharray="5,2" d="M238.83,-543.51C294.93,-557.24 395.8,-574.95 478,-551.5 668.7,-497.1 819.2,-278.92 850.85,-230.19"/>
<polygon fill="#9a32cd" stroke="#9a32cd" points="239.44,-540.06 228.89,-541.01 237.73,-546.85 239.44,-540.06"/>
</a>
</g>
<text text-anchor="middle" x="534.5" y="-547.5" font-family="Helvetica,sans-Serif" font-size="10.00" fill="grey"> reconnect_policy</text>
</g>
<!-- Node5&#45;&gt;Node4 -->
<g id="edge5_Node000004_Node000005" class="edge">
<title>Node5&#45;&gt;Node4</title>
<g id="a_edge5_Node000004_Node000005"><a xlink:title=" ">
<path fill="none" stroke="#9a32cd" stroke-dasharray="5,2" d="M274.02,-526.12C293.39,-520.97 312.23,-511.96 325,-496.5 359.06,-455.26 319.05,-304.32 343,-256.5 353.77,-234.99 376.34,-218.05 392.19,-208.16"/>
<polygon fill="#9a32cd" stroke="#9a32cd" points="273.13,-522.74 264.19,-528.42 274.72,-529.55 273.13,-522.74"/>
</a>
</g>
<text text-anchor="middle" x="303.5" y="-525.5" font-family="Helvetica,sans-Serif" font-size="10.00" fill="grey"> policy</text>
</g>
<!-- Node6 -->
<g id="Node000006" class="node">
<title>Node6</title>
<g id="a_Node000006"><a xlink:href="group__security.html#structSocketTLSContext__T" target="_top" xlink:title="TLS context structure for managing OpenSSL SSL_CTX with secure defaults, certificates,...">
<polygon fill="white" stroke="#666666" points="466,-56 355,-56 355,-37 466,-37 466,-56"/>
<text text-anchor="middle" x="410.5" y="-44" font-family="Helvetica,sans-Serif" font-size="10.00">SocketTLSContext_T</text>
</a>
</g>
</g>
<!-- Node6&#45;&gt;Node2 -->
<g id="edge8_Node000002_Node000006" class="edge">
<title>Node6&#45;&gt;Node2</title>
<g id="a_edge8_Node000002_Node000006"><a xlink:title=" ">
<path fill="none" stroke="#9a32cd" stroke-dasharray="5,2" d="M461.33,-58.42C505.11,-68.9 567.86,-83.92 607.64,-93.44"/>
<polygon fill="#9a32cd" stroke="#9a32cd" points="462,-54.99 451.46,-56.06 460.37,-61.79 462,-54.99"/>
</a>
</g>
<text text-anchor="middle" x="534.5" y="-87.5" font-family="Helvetica,sans-Serif" font-size="10.00" fill="grey"> tls_ctx</text>
</g>
<!-- Node6&#45;&gt;Node6 -->
<g id="edge11_Node000006_Node000006" class="edge">
<title>Node6&#45;&gt;Node6</title>
<g id="a_edge11_Node000006_Node000006"><a xlink:title=" ">
<path fill="none" stroke="#9a32cd" stroke-dasharray="5,2" d="M390.87,-65.55C392.18,-70.38 398.73,-74 410.5,-74 429.34,-74 434.79,-64.73 426.84,-56.08"/>
<polygon fill="#9a32cd" stroke="#9a32cd" points="394.19,-66.68 394.16,-56.08 387.57,-64.38 394.19,-66.68"/>
</a>
</g>
<text text-anchor="middle" x="410.5" y="-77" font-family="Helvetica,sans-Serif" font-size="10.00" fill="grey"> verify_callback</text>
</g>
<!-- Node7 -->
<g id="Node000007" class="node">
<title>Node7</title>
<g id="a_Node000007"><a xlink:href="structTLSContextSNICerts.html" target="_top" xlink:title="Structure for managing SNI certificate mappings in TLS context.">
<polygon fill="white" stroke="#666666" points="250,-93 140,-93 140,-74 250,-74 250,-93"/>
<text text-anchor="middle" x="195" y="-81" font-family="Helvetica,sans-Serif" font-size="10.00">TLSContextSNICerts</text>
</a>
</g>
</g>
<!-- Node7&#45;&gt;Node6 -->
<g id="edge9_Node000006_Node000007" class="edge">
<title>Node7&#45;&gt;Node6</title>
<g id="a_edge9_Node000006_Node000007"><a xlink:title=" ">
<path fill="none" stroke="#9a32cd" stroke-dasharray="5,2" d="M260.25,-72.63C280.93,-69.11 303.94,-65.17 325,-61.5 334.98,-59.76 345.62,-57.89 355.87,-56.08"/>
<polygon fill="#9a32cd" stroke="#9a32cd" points="259.58,-69.19 250.31,-74.32 260.75,-76.1 259.58,-69.19"/>
</a>
</g>
<text text-anchor="middle" x="303.5" y="-72.5" font-family="Helvetica,sans-Serif" font-size="10.00" fill="grey"> sni_certs</text>
</g>
<!-- Node8 -->
<g id="Node000008" class="node">
<title>Node8</title>
<g id="a_Node000008"><a xlink:href="group__security.html#structTLSContextALPN" target="_top" xlink:title="Configuration for ALPN protocol negotiation.">
<polygon fill="white" stroke="#666666" points="242.5,-56 147.5,-56 147.5,-37 242.5,-37 242.5,-56"/>
<text text-anchor="middle" x="195" y="-44" font-family="Helvetica,sans-Serif" font-size="10.00">TLSContextALPN</text>
</a>
</g>
</g>
<!-- Node8&#45;&gt;Node6 -->
<g id="edge10_Node000006_Node000008" class="edge">
<title>Node8&#45;&gt;Node6</title>
<g id="a_edge10_Node000006_Node000008"><a xlink:title=" ">
<path fill="none" stroke="#9a32cd" stroke-dasharray="5,2" d="M252.98,-46.5C284.51,-46.5 323.52,-46.5 354.7,-46.5"/>
<polygon fill="#9a32cd" stroke="#9a32cd" points="252.59,-43 242.59,-46.5 252.59,-50 252.59,-43"/>
</a>
</g>
<text text-anchor="middle" x="303.5" y="-49.5" font-family="Helvetica,sans-Serif" font-size="10.00" fill="grey"> alpn</text>
</g>
<!-- Node9 -->
<g id="Node000009" class="node">
<title>Node9</title>
<g id="a_Node000009"><a xlink:href="group__security.html#structTLSContextPinning" target="_top" xlink:title="TLSContextPinning &#45; Certificate pinning configuration.">
<polygon fill="white" stroke="#666666" points="245.5,-19 144.5,-19 144.5,0 245.5,0 245.5,-19"/>
<text text-anchor="middle" x="195" y="-7" font-family="Helvetica,sans-Serif" font-size="10.00">TLSContextPinning</text>
</a>
</g>
</g>
<!-- Node9&#45;&gt;Node6 -->
<g id="edge12_Node000006_Node000009" class="edge">
<title>Node9&#45;&gt;Node6</title>
<g id="a_edge12_Node000006_Node000009"><a xlink:title=" ">
<path fill="none" stroke="#9a32cd" stroke-dasharray="5,2" d="M255.74,-19.6C277.54,-23.31 302.39,-27.57 325,-31.5 334.98,-33.24 345.62,-35.11 355.87,-36.92"/>
<polygon fill="#9a32cd" stroke="#9a32cd" points="256.08,-16.11 245.63,-17.88 254.9,-23.01 256.08,-16.11"/>
</a>
</g>
<text text-anchor="middle" x="303.5" y="-34.5" font-family="Helvetica,sans-Serif" font-size="10.00" fill="grey"> pinning</text>
</g>
<!-- Node10 -->
<g id="Node000010" class="node">
<title>Node10</title>
<g id="a_Node000010"><a xlink:href="group__security.html#structTLSCertPin" target="_top" xlink:title="TLSCertPin &#45; Single certificate pin entry (SPKI SHA256 hash)">
<polygon fill="white" stroke="#666666" points="68,-19 0,-19 0,0 68,0 68,-19"/>
<text text-anchor="middle" x="34" y="-7" font-family="Helvetica,sans-Serif" font-size="10.00">TLSCertPin</text>
</a>
</g>
</g>
<!-- Node10&#45;&gt;Node9 -->
<g id="edge13_Node000009_Node000010" class="edge">
<title>Node10&#45;&gt;Node9</title>
<g id="a_edge13_Node000009_Node000010"><a xlink:title=" ">
<path fill="none" stroke="#9a32cd" stroke-dasharray="5,2" d="M78.59,-9.5C98.96,-9.5 123.32,-9.5 144.4,-9.5"/>
<polygon fill="#9a32cd" stroke="#9a32cd" points="78.33,-6 68.33,-9.5 78.33,-13 78.33,-6"/>
</a>
</g>
<text text-anchor="middle" x="97" y="-12.5" font-family="Helvetica,sans-Serif" font-size="10.00" fill="grey"> pins</text>
</g>
<!-- Node11 -->
<g id="Node000011" class="node">
<title>Node11</title>
<g id="a_Node000011"><a xlink:href="group__dns.html#structSocketDNS__T" target="_top" xlink:title="Async DNS resolver structure.">
<polygon fill="white" stroke="#666666" points="686.5,-75 606.5,-75 606.5,-56 686.5,-56 686.5,-75"/>
<text text-anchor="middle" x="646.5" y="-63" font-family="Helvetica,sans-Serif" font-size="10.00">SocketDNS_T</text>
</a>
</g>
</g>
<!-- Node11&#45;&gt;Node1 -->
<g id="edge15_Node000001_Node000011" class="edge">
<title>Node11&#45;&gt;Node1</title>
<g id="a_edge15_Node000001_Node000011"><a xlink:title=" ">
<path fill="none" stroke="#9a32cd" stroke-dasharray="5,2" d="M696.36,-76.53C722.78,-84.26 754.84,-96.64 779,-115.5 814.26,-143.03 841.44,-190.37 852.1,-210.73"/>
<polygon fill="#9a32cd" stroke="#9a32cd" points="697.11,-73.11 686.54,-73.8 695.23,-79.85 697.11,-73.11"/>
</a>
</g>
<text text-anchor="middle" x="749.5" y="-118.5" font-family="Helvetica,sans-Serif" font-size="10.00" fill="grey"> dns</text>
</g>
<!-- Node12 -->
<g id="Node000012" class="node">
<title>Node12</title>
<g id="a_Node000012"><a xlink:href="group__dns.html#structSocketDNS__Request__T" target="_top" xlink:title="DNS resolution request structure.">
<polygon fill="white" stroke="#666666" points="919,-50 797,-50 797,-31 919,-31 919,-50"/>
<text text-anchor="middle" x="858" y="-38" font-family="Helvetica,sans-Serif" font-size="10.00">SocketDNS_Request_T</text>
</a>
</g>
</g>
<!-- Node11&#45;&gt;Node12 -->
<g id="edge18_Node000012_Node000011" class="edge">
<title>Node11&#45;&gt;Node12</title>
<g id="a_edge18_Node000012_Node000011"><a xlink:title=" ">
<path fill="none" stroke="#9a32cd" stroke-dasharray="5,2" d="M697.09,-59.58C726.95,-56.02 765.16,-51.46 796.75,-47.69"/>
<polygon fill="#9a32cd" stroke="#9a32cd" points="696.42,-56.14 686.91,-60.8 697.25,-63.09 696.42,-56.14"/>
</a>
</g>
<text text-anchor="middle" x="749.5" y="-60.5" font-family="Helvetica,sans-Serif" font-size="10.00" fill="grey"> dns_resolver</text>
</g>
<!-- Node12&#45;&gt;Node11 -->
<g id="edge16_Node000011_Node000012" class="edge">
<title>Node12&#45;&gt;Node11</title>
<g id="a_edge16_Node000011_Node000012"><a xlink:title=" ">
<path fill="none" stroke="#9a32cd" stroke-dasharray="5,2" d="M828.82,-26.78C800.78,-15.01 756.75,-1.68 720,-13.5 694.05,-21.85 669.51,-43.29 656.71,-55.88"/>
<polygon fill="#9a32cd" stroke="#9a32cd" points="827.47,-30.01 838.04,-30.83 830.29,-23.6 827.47,-30.01"/>
</a>
</g>
<text text-anchor="middle" x="749.5" y="-38.5" font-family="Helvetica,sans-Serif" font-size="10.00" fill="grey"> queue_head</text>
<text text-anchor="middle" x="749.5" y="-27.5" font-family="Helvetica,sans-Serif" font-size="10.00" fill="grey">queue_tail</text>
<text text-anchor="middle" x="749.5" y="-16.5" font-family="Helvetica,sans-Serif" font-size="10.00" fill="grey">request_hash</text>
</g>
<!-- Node12&#45;&gt;Node12 -->
<g id="edge17_Node000012_Node000012" class="edge">
<title>Node12&#45;&gt;Node12</title>
<g id="a_edge17_Node000012_Node000012"><a xlink:title=" ">
<path fill="none" stroke="#9a32cd" stroke-dasharray="5,2" d="M838,-59.55C839.34,-64.38 846,-68 858,-68 877.2,-68 882.74,-58.73 874.65,-50.08"/>
<polygon fill="#9a32cd" stroke="#9a32cd" points="841.32,-60.68 841.35,-50.08 834.72,-58.34 841.32,-60.68"/>
</a>
</g>
<text text-anchor="middle" x="858" y="-93" font-family="Helvetica,sans-Serif" font-size="10.00" fill="grey"> callback</text>
<text text-anchor="middle" x="858" y="-82" font-family="Helvetica,sans-Serif" font-size="10.00" fill="grey">hash_next</text>
<text text-anchor="middle" x="858" y="-71" font-family="Helvetica,sans-Serif" font-size="10.00" fill="grey">queue_next</text>
</g>
<!-- Node13 -->
<g id="Node000013" class="node">
<title>Node13</title>
<g id="a_Node000013"><a xlink:href="group__utilities.html#structSocketRateLimit__T" target="_top" xlink:title="Internal structure implementing the token bucket rate limiter.">
<polygon fill="white" stroke="#666666" points="461,-285 360,-285 360,-266 461,-266 461,-285"/>
<text text-anchor="middle" x="410.5" y="-273" font-family="Helvetica,sans-Serif" font-size="10.00">SocketRateLimit_T</text>
</a>
</g>
</g>
<!-- Node13&#45;&gt;Node1 -->
<g id="edge20_Node000001_Node000013" class="edge">
<title>Node13&#45;&gt;Node1</title>
<g id="a_edge20_Node000001_Node000013"><a xlink:title=" ">
<path fill="none" stroke="#9a32cd" stroke-dasharray="5,2" d="M471.41,-268.1C564.49,-256.61 741.19,-234.8 818.81,-225.21"/>
<polygon fill="#9a32cd" stroke="#9a32cd" points="470.8,-264.65 461.31,-269.35 471.66,-271.6 470.8,-264.65"/>
</a>
</g>
<text text-anchor="middle" x="646.5" y="-256.5" font-family="Helvetica,sans-Serif" font-size="10.00" fill="grey"> conn_limiter</text>
</g>
<!-- Node14 -->
<g id="Node000014" class="node">
<title>Node14</title>
<g id="a_Node000014"><a xlink:href="group__security.html#structSocketSYNProtect__T" target="_top" xlink:title="Core internal structure for the SYN protection module.">
<polygon fill="white" stroke="#666666" points="702,-367 591,-367 591,-348 702,-348 702,-367"/>
<text text-anchor="middle" x="646.5" y="-355" font-family="Helvetica,sans-Serif" font-size="10.00">SocketSYNProtect_T</text>
</a>
</g>
</g>
<!-- Node13&#45;&gt;Node14 -->
<g id="edge30_Node000014_Node000013" class="edge">
<title>Node13&#45;&gt;Node14</title>
<g id="a_edge30_Node000014_Node000013"><a xlink:title=" ">
<path fill="none" stroke="#9a32cd" stroke-dasharray="5,2" d="M470.86,-286.01C501.95,-292.55 540.25,-302.27 573,-315.5 594.58,-324.22 617.51,-338.44 631.66,-347.89"/>
<polygon fill="#9a32cd" stroke="#9a32cd" points="471.54,-282.58 461.04,-284 470.13,-289.44 471.54,-282.58"/>
</a>
</g>
<text text-anchor="middle" x="534.5" y="-318.5" font-family="Helvetica,sans-Serif" font-size="10.00" fill="grey"> global_limiter</text>
</g>
<!-- Node14&#45;&gt;Node1 -->
<g id="edge21_Node000001_Node000014" class="edge">
<title>Node14&#45;&gt;Node1</title>
<g id="a_edge21_Node000001_Node000014"><a xlink:title=" ">
<path fill="none" stroke="#9a32cd" stroke-dasharray="5,2" d="M671.65,-342.69C698.17,-326.31 741.94,-299.01 779,-274.5 801.94,-259.33 828.15,-240.97 843.59,-230.04"/>
<polygon fill="#9a32cd" stroke="#9a32cd" points="669.7,-339.77 663.02,-348 673.37,-345.73 669.7,-339.77"/>
</a>
</g>
<text text-anchor="middle" x="749.5" y="-314.5" font-family="Helvetica,sans-Serif" font-size="10.00" fill="grey"> syn_protect</text>
</g>
<!-- Node15 -->
<g id="Node000015" class="node">
<title>Node15</title>
<g id="a_Node000015"><a xlink:href="group__security.html#structSocketSYNProtect__Config" target="_top" xlink:title="Configuration parameters for SYN flood protection.">
<polygon fill="white" stroke="#666666" points="477.5,-388 343.5,-388 343.5,-369 477.5,-369 477.5,-388"/>
<text text-anchor="middle" x="410.5" y="-376" font-family="Helvetica,sans-Serif" font-size="10.00">SocketSYNProtect_Config</text>
</a>
</g>
</g>
<!-- Node15&#45;&gt;Node14 -->
<g id="edge22_Node000014_Node000015" class="edge">
<title>Node15&#45;&gt;Node14</title>
<g id="a_edge22_Node000014_Node000015"><a xlink:title=" ">
<path fill="none" stroke="#9a32cd" stroke-dasharray="5,2" d="M487.88,-371.65C521.54,-368.62 560.32,-365.14 590.99,-362.39"/>
<polygon fill="#9a32cd" stroke="#9a32cd" points="487.26,-368.19 477.62,-372.57 487.89,-375.16 487.26,-368.19"/>
</a>
</g>
<text text-anchor="middle" x="534.5" y="-372.5" font-family="Helvetica,sans-Serif" font-size="10.00" fill="grey"> config</text>
</g>
<!-- Node16 -->
<g id="Node000016" class="node">
<title>Node16</title>
<g id="a_Node000016"><a xlink:href="group__security.html#structSocketSYN__IPEntry" target="_top" xlink:title="Internal IP tracking entry for hash table and LRU management.">
<polygon fill="white" stroke="#666666" points="464,-491 357,-491 357,-472 464,-472 464,-491"/>
<text text-anchor="middle" x="410.5" y="-479" font-family="Helvetica,sans-Serif" font-size="10.00">SocketSYN_IPEntry</text>
</a>
</g>
</g>
<!-- Node16&#45;&gt;Node14 -->
<g id="edge23_Node000014_Node000016" class="edge">
<title>Node16&#45;&gt;Node14</title>
<g id="a_edge23_Node000014_Node000016"><a xlink:title=" ">
<path fill="none" stroke="#9a32cd" stroke-dasharray="5,2" d="M461.63,-469.06C467.2,-467.35 472.76,-465.48 478,-463.5 522.06,-446.82 533.37,-441.97 573,-416.5 596.75,-401.23 621.71,-379.46 635.26,-367.08"/>
<polygon fill="#9a32cd" stroke="#9a32cd" points="460.25,-465.82 451.64,-471.99 462.22,-472.54 460.25,-465.82"/>
</a>
</g>
<text text-anchor="middle" x="534.5" y="-480.5" font-family="Helvetica,sans-Serif" font-size="10.00" fill="grey"> ip_table</text>
<text text-anchor="middle" x="534.5" y="-469.5" font-family="Helvetica,sans-Serif" font-size="10.00" fill="grey">lru_head</text>
<text text-anchor="middle" x="534.5" y="-458.5" font-family="Helvetica,sans-Serif" font-size="10.00" fill="grey">lru_tail</text>
</g>
<!-- Node16&#45;&gt;Node16 -->
<g id="edge25_Node000016_Node000016" class="edge">
<title>Node16&#45;&gt;Node16</title>
<g id="a_edge25_Node000016_Node000016"><a xlink:title=" ">
<path fill="none" stroke="#9a32cd" stroke-dasharray="5,2" d="M390.87,-500.55C392.18,-505.38 398.73,-509 410.5,-509 429.34,-509 434.79,-499.73 426.84,-491.08"/>
<polygon fill="#9a32cd" stroke="#9a32cd" points="394.19,-501.68 394.16,-491.08 387.57,-499.38 394.19,-501.68"/>
</a>
</g>
<text text-anchor="middle" x="410.5" y="-534" font-family="Helvetica,sans-Serif" font-size="10.00" fill="grey"> hash_next</text>
<text text-anchor="middle" x="410.5" y="-523" font-family="Helvetica,sans-Serif" font-size="10.00" fill="grey">lru_next</text>
<text text-anchor="middle" x="410.5" y="-512" font-family="Helvetica,sans-Serif" font-size="10.00" fill="grey">lru_prev</text>
</g>
<!-- Node17 -->
<g id="Node000017" class="node">
<title>Node17</title>
<g id="a_Node000017"><a xlink:href="group__security.html#structSocketSYN__IPState" target="_top" xlink:title="Per&#45;IP address tracking and reputation state.">
<polygon fill="white" stroke="#666666" points="248.5,-491 141.5,-491 141.5,-472 248.5,-472 248.5,-491"/>
<text text-anchor="middle" x="195" y="-479" font-family="Helvetica,sans-Serif" font-size="10.00">SocketSYN_IPState</text>
</a>
</g>
</g>
<!-- Node17&#45;&gt;Node16 -->
<g id="edge24_Node000016_Node000017" class="edge">
<title>Node17&#45;&gt;Node16</title>
<g id="a_edge24_Node000016_Node000017"><a xlink:title=" ">
<path fill="none" stroke="#9a32cd" stroke-dasharray="5,2" d="M258.82,-481.5C289.98,-481.5 327.18,-481.5 356.83,-481.5"/>
<polygon fill="#9a32cd" stroke="#9a32cd" points="258.5,-478 248.5,-481.5 258.5,-485 258.5,-478"/>
</a>
</g>
<text text-anchor="middle" x="303.5" y="-484.5" font-family="Helvetica,sans-Serif" font-size="10.00" fill="grey"> state</text>
</g>
<!-- Node18 -->
<g id="Node000018" class="node">
<title>Node18</title>
<g id="a_Node000018"><a xlink:href="group__security.html#structSocketSYN__WhitelistEntry" target="_top" xlink:title="Structure for whitelist entries supporting single IPs and CIDR ranges.">
<polygon fill="white" stroke="#666666" points="478,-322 343,-322 343,-303 478,-303 478,-322"/>
<text text-anchor="middle" x="410.5" y="-310" font-family="Helvetica,sans-Serif" font-size="10.00">SocketSYN_WhitelistEntry</text>
</a>
</g>
</g>
<!-- Node18&#45;&gt;Node14 -->
<g id="edge26_Node000014_Node000018" class="edge">
<title>Node18&#45;&gt;Node14</title>
<g id="a_edge26_Node000014_Node000018"><a xlink:title=" ">
<path fill="none" stroke="#9a32cd" stroke-dasharray="5,2" d="M471.2,-323.98C509.82,-331.41 559.51,-340.96 595.95,-347.97"/>
<polygon fill="#9a32cd" stroke="#9a32cd" points="471.61,-320.49 461.13,-322.04 470.28,-327.37 471.61,-320.49"/>
</a>
</g>
<text text-anchor="middle" x="534.5" y="-346.5" font-family="Helvetica,sans-Serif" font-size="10.00" fill="grey"> whitelist_table</text>
</g>
<!-- Node18&#45;&gt;Node18 -->
<g id="edge27_Node000018_Node000018" class="edge">
<title>Node18&#45;&gt;Node18</title>
<g id="a_edge27_Node000018_Node000018"><a xlink:title=" ">
<path fill="none" stroke="#9a32cd" stroke-dasharray="5,2" d="M390.87,-331.55C392.18,-336.38 398.73,-340 410.5,-340 429.34,-340 434.79,-330.73 426.84,-322.08"/>
<polygon fill="#9a32cd" stroke="#9a32cd" points="394.19,-332.68 394.16,-322.08 387.57,-330.38 394.19,-332.68"/>
</a>
</g>
<text text-anchor="middle" x="410.5" y="-343" font-family="Helvetica,sans-Serif" font-size="10.00" fill="grey"> next</text>
</g>
<!-- Node19 -->
<g id="Node000019" class="node">
<title>Node19</title>
<g id="a_Node000019"><a xlink:href="group__security.html#structSocketSYN__BlacklistEntry" target="_top" xlink:title="Internal structure for blacklisted IP addresses with expiry support.">
<polygon fill="white" stroke="#666666" points="477.5,-425 343.5,-425 343.5,-406 477.5,-406 477.5,-425"/>
<text text-anchor="middle" x="410.5" y="-413" font-family="Helvetica,sans-Serif" font-size="10.00">SocketSYN_BlacklistEntry</text>
</a>
</g>
</g>
<!-- Node19&#45;&gt;Node14 -->
<g id="edge28_Node000014_Node000019" class="edge">
<title>Node19&#45;&gt;Node14</title>
<g id="a_edge28_Node000014_Node000019"><a xlink:title=" ">
<path fill="none" stroke="#9a32cd" stroke-dasharray="5,2" d="M484.29,-404.19C512.27,-399.15 544.35,-392.52 573,-384.5 590.07,-379.72 608.81,-372.69 622.97,-367"/>
<polygon fill="#9a32cd" stroke="#9a32cd" points="483.42,-400.79 474.18,-405.97 484.64,-407.68 483.42,-400.79"/>
</a>
</g>
<text text-anchor="middle" x="534.5" y="-404.5" font-family="Helvetica,sans-Serif" font-size="10.00" fill="grey"> blacklist_table</text>
</g>
<!-- Node19&#45;&gt;Node19 -->
<g id="edge29_Node000019_Node000019" class="edge">
<title>Node19&#45;&gt;Node19</title>
<g id="a_edge29_Node000019_Node000019"><a xlink:title=" ">
<path fill="none" stroke="#9a32cd" stroke-dasharray="5,2" d="M390.87,-434.55C392.18,-439.38 398.73,-443 410.5,-443 429.34,-443 434.79,-433.73 426.84,-425.08"/>
<polygon fill="#9a32cd" stroke="#9a32cd" points="394.19,-435.68 394.16,-425.08 387.57,-433.38 394.19,-435.68"/>
</a>
</g>
<text text-anchor="middle" x="410.5" y="-446" font-family="Helvetica,sans-Serif" font-size="10.00" fill="grey"> next</text>
</g>
</g>
</svg>

<g id="navigator" transform="translate(0 0)" fill="#404254">
  <rect fill="#f2f5e9" fill-opacity="0.5" stroke="#606060" stroke-width=".5" x="0" y="0" width="60" height="60"/>
  <use id="zoomplus" xlink:href="#zoomPlus" x="17" y="9" onmousedown="handleZoom(evt,'in')"/>
  <use id="zoomminus" xlink:href="#zoomMin" x="42" y="9" onmousedown="handleZoom(evt,'out')"/>
  <use id="reset" xlink:href="#resetDef" x="30" y="36" onmousedown="handleReset()"/>
   <use id="arrowup" xlink:href="#arrowUp" x="0" y="0" onmousedown="handlePan(0,-1)"/>
  <use id="arrowright" xlink:href="#arrowRight" x="0" y="0" onmousedown="handlePan(1,0)"/>
  <use id="arrowdown" xlink:href="#arrowDown" x="0" y="0" onmousedown="handlePan(0,1)"/>
  <use id="arrowleft" xlink:href="#arrowLeft" x="0" y="0" onmousedown="handlePan(-1,0)"/>
</g>
<svg viewBox="0 0 15 15" width="100%" height="30px" preserveAspectRatio="xMaxYMin meet">
 <g id="arrow_out" transform="scale(0.3 0.3)">
  <a xlink:href="structSocketPool__T__coll__graph_org.svg" target="_base">
   <rect id="button" ry="5" rx="5" y="6" x="6" height="38" width="38"
        fill="#f2f5e9" fill-opacity="0.5" stroke="#606060" stroke-width="1.0"/>
   <path id="arrow"
     d="M 11.500037,31.436501 C 11.940474,20.09759 22.043105,11.32322 32.158766,21.979434 L 37.068811,17.246167 C 37.068811,17.246167 37.088388,32 37.088388,32 L 22.160133,31.978069 C 22.160133,31.978069 26.997745,27.140456 26.997745,27.140456 C 18.528582,18.264221 13.291696,25.230495 11.500037,31.436501 z"
     style="fill:#404040;"/>
  </a>
 </g>
</svg>

<style type='text/css'>
<![CDATA[
[data-mouse-over-selected='false'] { opacity: 0.7; }
[data-mouse-over-selected='true']  { opacity: 1.0; }
]]>
</style>
<script type="application/ecmascript"><![CDATA[
document.addEventListener('DOMContentLoaded', (event) => {
  highlightEdges();
  highlightAdjacentNodes();
});
]]></script>
</svg>
