<?xml version="1.0" encoding="UTF-8" standalone="no"?>
<!DOCTYPE svg PUBLIC "-//W3C//DTD SVG 1.1//EN"
 "http://www.w3.org/Graphics/SVG/1.1/DTD/svg11.dtd">
<!-- Generated by graphviz version 2.43.0 (0)
 -->
<!-- Title: SocketDgram_T Pages: 1 -->
<svg width="347pt" height="159pt"
 viewBox="0.00 0.00 346.50 159.00" xmlns="http://www.w3.org/2000/svg" xmlns:xlink="http://www.w3.org/1999/xlink">
<g id="graph0" class="graph" transform="scale(1 1) rotate(0) translate(4 155)">
<title>SocketDgram_T</title>
<!-- Node1 -->
<g id="Node000001" class="node">
<title>Node1</title>
<g id="a_Node000001"><a xlink:title="Opaque type representing a datagram socket instance.">
<polygon fill="#999999" stroke="#666666" points="221.5,-19 133.5,-19 133.5,0 221.5,0 221.5,-19"/>
<text text-anchor="middle" x="177.5" y="-7" font-family="Helvetica,sans-Serif" font-size="10.00">SocketDgram_T</text>
</a>
</g>
</g>
<!-- Node2 -->
<g id="Node000002" class="node">
<title>Node2</title>
<g id="a_Node000002"><a xlink:href="group__core__io.html#structSocketBase__T" target="_top" xlink:title="Internal implementation of SocketBase_T opaque type.">
<polygon fill="white" stroke="#666666" points="218,-85 137,-85 137,-66 218,-66 218,-85"/>
<text text-anchor="middle" x="177.5" y="-73" font-family="Helvetica,sans-Serif" font-size="10.00">SocketBase_T</text>
</a>
</g>
</g>
<!-- Node2&#45;&gt;Node1 -->
<g id="edge1_Node000001_Node000002" class="edge">
<title>Node2&#45;&gt;Node1</title>
<g id="a_edge1_Node000001_Node000002"><a xlink:title=" ">
<path fill="none" stroke="#9a32cd" stroke-dasharray="5,2" d="M177.5,-55.58C177.5,-43.63 177.5,-28.72 177.5,-19.41"/>
<polygon fill="#9a32cd" stroke="#9a32cd" points="174,-55.87 177.5,-65.87 181,-55.87 174,-55.87"/>
</a>
</g>
<text text-anchor="middle" x="190" y="-40" font-family="Helvetica,sans-Serif" font-size="10.00" fill="grey"> base</text>
</g>
<!-- Node3 -->
<g id="Node000003" class="node">
<title>Node3</title>
<g id="a_Node000003"><a xlink:href="group__foundation.html#structSocketTimeouts__T" target="_top" xlink:title="Basic timeout configuration structure for socket operations.">
<polygon fill="white" stroke="#666666" points="99,-151 0,-151 0,-132 99,-132 99,-151"/>
<text text-anchor="middle" x="49.5" y="-139" font-family="Helvetica,sans-Serif" font-size="10.00">SocketTimeouts_T</text>
</a>
</g>
</g>
<!-- Node3&#45;&gt;Node2 -->
<g id="edge2_Node000002_Node000003" class="edge">
<title>Node3&#45;&gt;Node2</title>
<g id="a_edge2_Node000002_Node000003"><a xlink:title=" ">
<path fill="none" stroke="#9a32cd" stroke-dasharray="5,2" d="M75.78,-127.36C101,-114.75 138.37,-96.06 160.1,-85.2"/>
<polygon fill="#9a32cd" stroke="#9a32cd" points="74.14,-124.27 66.76,-131.87 77.27,-130.53 74.14,-124.27"/>
</a>
</g>
<text text-anchor="middle" x="142" y="-106" font-family="Helvetica,sans-Serif" font-size="10.00" fill="grey"> timeouts</text>
</g>
<!-- Node4 -->
<g id="Node000004" class="node">
<title>Node4</title>
<g id="a_Node000004"><a xlink:href="group__foundation.html#structSocketMetricsSnapshot" target="_top" xlink:title="SocketMetricsSnapshot &#45; Thread&#45;safe snapshot of all library metrics.">
<polygon fill="white" stroke="#666666" points="238,-151 117,-151 117,-132 238,-132 238,-151"/>
<text text-anchor="middle" x="177.5" y="-139" font-family="Helvetica,sans-Serif" font-size="10.00">SocketMetricsSnapshot</text>
</a>
</g>
</g>
<!-- Node4&#45;&gt;Node2 -->
<g id="edge3_Node000002_Node000004" class="edge">
<title>Node4&#45;&gt;Node2</title>
<g id="a_edge3_Node000002_Node000004"><a xlink:title=" ">
<path fill="none" stroke="#9a32cd" stroke-dasharray="5,2" d="M177.5,-121.58C177.5,-109.63 177.5,-94.72 177.5,-85.41"/>
<polygon fill="#9a32cd" stroke="#9a32cd" points="174,-121.87 177.5,-131.87 181,-121.87 174,-121.87"/>
</a>
</g>
<text text-anchor="middle" x="195.5" y="-106" font-family="Helvetica,sans-Serif" font-size="10.00" fill="grey"> metrics</text>
</g>
<!-- Node5 -->
<g id="Node000005" class="node">
<title>Node5</title>
<g id="a_Node000005"><a xlink:href="group__core__io.html#structSocketStats__T" target="_top" xlink:title="Per&#45;socket I/O statistics structure.">
<polygon fill="white" stroke="#666666" points="338.5,-151 256.5,-151 256.5,-132 338.5,-132 338.5,-151"/>
<text text-anchor="middle" x="297.5" y="-139" font-family="Helvetica,sans-Serif" font-size="10.00">SocketStats_T</text>
</a>
</g>
</g>
<!-- Node5&#45;&gt;Node2 -->
<g id="edge4_Node000002_Node000005" class="edge">
<title>Node5&#45;&gt;Node2</title>
<g id="a_edge4_Node000002_Node000005"><a xlink:title=" ">
<path fill="none" stroke="#9a32cd" stroke-dasharray="5,2" d="M272.24,-127.03C248.6,-114.42 214,-95.97 193.81,-85.2"/>
<polygon fill="#9a32cd" stroke="#9a32cd" points="270.85,-130.25 281.32,-131.87 274.14,-124.07 270.85,-130.25"/>
</a>
</g>
<text text-anchor="middle" x="257" y="-106" font-family="Helvetica,sans-Serif" font-size="10.00" fill="grey"> stats</text>
</g>
</g>
</svg>
