<?xml version="1.0" encoding="UTF-8" standalone="no"?>
<!DOCTYPE svg PUBLIC "-//W3C//DTD SVG 1.1//EN"
 "http://www.w3.org/Graphics/SVG/1.1/DTD/svg11.dtd">
<!-- Generated by graphviz version 2.43.0 (0)
 -->
<!-- Title: SocketHE_T Pages: 1 -->
<!--zoomable 518 -->

<svg id="main" version="1.1" xmlns="http://www.w3.org/2000/svg" xmlns:xlink="http://www.w3.org/1999/xlink" xml:space="preserve" onload="init(evt)">
<style type="text/css"><![CDATA[
.node, .edge {opacity: 0.7;}
.node.selected, .edge.selected {opacity: 1;}
.edge:hover path { stroke: red; }
.edge:hover polygon { stroke: red; fill: red; }
]]></style>

<defs>
  <circle id="rim" cx="0" cy="0" r="7"/>
  <circle id="rim2" cx="0" cy="0" r="3.5"/>
  <g id="zoomPlus">
    <use xlink:href="#rim" fill="#404040"><set attributeName="fill" to="#808080" begin="zoomplus.mouseover" end="zoomplus.mouseout"/></use>
    <path d="M-4,0h8M0,-4v8" fill="none" stroke="white" stroke-width="1.5" pointer-events="none"/>
  </g>
  <g id="zoomMin">
    <use xlink:href="#rim" fill="#404040"><set attributeName="fill" to="#808080" begin="zoomminus.mouseover" end="zoomminus.mouseout"/></use>
    <path d="M-4,0h8" fill="none" stroke="white" stroke-width="1.5" pointer-events="none"/>
  </g>
  <g id="arrowUp" transform="translate(30 24)">
    <use xlink:href="#rim"/>
    <path pointer-events="none" fill="none" stroke="white" stroke-width="1.5" d="M0,-3.0v7 M-2.5,-0.5L0,-3.0L2.5,-0.5"/>
  </g>
  <g id="arrowRight" transform="rotate(90) translate(36 -43)">
    <use xlink:href="#rim"/>
    <path pointer-events="none" fill="none" stroke="white" stroke-width="1.5" d="M0,-3.0v7 M-2.5,-0.5L0,-3.0L2.5,-0.5"/>
  </g>
  <g id="arrowDown" transform="rotate(180) translate(-30 -48)">
    <use xlink:href="#rim"/>
    <path pointer-events="none" fill="none" stroke="white" stroke-width="1.5" d="M0,-3.0v7 M-2.5,-0.5L0,-3.0L2.5,-0.5"/>
  </g>
  <g id="arrowLeft" transform="rotate(270) translate(-36 17)">
    <use xlink:href="#rim"/>
    <path pointer-events="none" fill="none" stroke="white" stroke-width="1.5" d="M0,-3.0v7 M-2.5,-0.5L0,-3.0L2.5,-0.5"/>
  </g>
  <g id="resetDef">
    <use xlink:href="#rim2" fill="#404040"><set attributeName="fill" to="#808080" begin="reset.mouseover" end="reset.mouseout"/></use>
  </g>
</defs>
<script type="application/ecmascript">
var viewWidth = 953;
var viewHeight = 518;
var sectionId = 'dynsection-3';
</script>
<script type="application/ecmascript" xlink:href="svg.min.js"/>
<svg id="graph" class="graph">
<g id="viewport">
<title>SocketHE_T</title>
<!-- Node1 -->
<g id="Node000001" class="node">
<title>Node1</title>
<g id="a_Node000001"><a xlink:title="Wrapper structure for resolved addresses in Happy Eyeballs address preference ordering.">
<polygon fill="#999999" stroke="#666666" points="945,-337.22 872,-337.22 872,-318.22 945,-318.22 945,-337.22"/>
<text text-anchor="middle" x="908.5" y="-325.22" font-family="Helvetica,sans-Serif" font-size="10.00">SocketHE_T</text>
</a>
</g>
</g>
<!-- Node2 -->
<g id="Node000002" class="node">
<title>Node2</title>
<g id="a_Node000002"><a xlink:href="group__async__io.html#structSocketHE__Config__T" target="_top" xlink:title="Happy Eyeballs configuration structure.">
<polygon fill="white" stroke="#666666" points="771.5,-510.22 664.5,-510.22 664.5,-491.22 771.5,-491.22 771.5,-510.22"/>
<text text-anchor="middle" x="718" y="-498.22" font-family="Helvetica,sans-Serif" font-size="10.00">SocketHE_Config_T</text>
</a>
</g>
</g>
<!-- Node2&#45;&gt;Node1 -->
<g id="edge1_Node000001_Node000002" class="edge">
<title>Node2&#45;&gt;Node1</title>
<g id="a_edge1_Node000001_Node000002"><a xlink:title=" ">
<path fill="none" stroke="#9a32cd" stroke-dasharray="5,2" d="M768.57,-487.56C772.17,-486.09 775.68,-484.48 779,-482.72 816.97,-462.61 826.23,-454.51 854,-421.72 877.3,-394.21 895.74,-355.09 903.51,-337.25"/>
<polygon fill="#9a32cd" stroke="#9a32cd" points="767.09,-484.38 758.93,-491.14 769.52,-490.94 767.09,-484.38"/>
</a>
</g>
<text text-anchor="middle" x="825.5" y="-474.72" font-family="Helvetica,sans-Serif" font-size="10.00" fill="grey"> config</text>
</g>
<!-- Node3 -->
<g id="Node000003" class="node">
<title>Node3</title>
<g id="a_Node000003"><a xlink:href="group__dns.html#structSocketDNS__T" target="_top" xlink:title="Async DNS resolver structure.">
<polygon fill="white" stroke="#666666" points="469,-416.22 389,-416.22 389,-397.22 469,-397.22 469,-416.22"/>
<text text-anchor="middle" x="429" y="-404.22" font-family="Helvetica,sans-Serif" font-size="10.00">SocketDNS_T</text>
</a>
</g>
</g>
<!-- Node3&#45;&gt;Node1 -->
<g id="edge2_Node000001_Node000003" class="edge">
<title>Node3&#45;&gt;Node1</title>
<g id="a_edge2_Node000001_Node000003"><a xlink:title=" ">
<path fill="none" stroke="#9a32cd" stroke-dasharray="5,2" d="M479.3,-400.85C558.67,-391.03 719.47,-369.55 854,-341.72 860.21,-340.44 866.77,-338.88 873.09,-337.29"/>
<polygon fill="#9a32cd" stroke="#9a32cd" points="478.61,-397.41 469.12,-402.1 479.47,-404.36 478.61,-397.41"/>
</a>
</g>
<text text-anchor="middle" x="718" y="-378.72" font-family="Helvetica,sans-Serif" font-size="10.00" fill="grey"> dns</text>
</g>
<!-- Node4 -->
<g id="Node000004" class="node">
<title>Node4</title>
<g id="a_Node000004"><a xlink:href="group__dns.html#structSocketDNS__Request__T" target="_top" xlink:title="DNS resolution request structure.">
<polygon fill="white" stroke="#666666" points="779,-422.22 657,-422.22 657,-403.22 779,-403.22 779,-422.22"/>
<text text-anchor="middle" x="718" y="-410.22" font-family="Helvetica,sans-Serif" font-size="10.00">SocketDNS_Request_T</text>
</a>
</g>
</g>
<!-- Node3&#45;&gt;Node4 -->
<g id="edge5_Node000004_Node000003" class="edge">
<title>Node3&#45;&gt;Node4</title>
<g id="a_edge5_Node000004_Node000003"><a xlink:title=" ">
<path fill="none" stroke="#9a32cd" stroke-dasharray="5,2" d="M479.41,-405.94C486.97,-405.85 494.69,-405.77 502,-405.72 562.89,-405.3 578.17,-403 639,-405.72 644.84,-405.98 650.92,-406.35 656.99,-406.79"/>
<polygon fill="#9a32cd" stroke="#9a32cd" points="479.19,-402.45 469.24,-406.08 479.28,-409.45 479.19,-402.45"/>
</a>
</g>
<text text-anchor="middle" x="570.5" y="-408.72" font-family="Helvetica,sans-Serif" font-size="10.00" fill="grey"> dns_resolver</text>
</g>
<!-- Node4&#45;&gt;Node1 -->
<g id="edge23_Node000001_Node000004" class="edge">
<title>Node4&#45;&gt;Node1</title>
<g id="a_edge23_Node000001_Node000004"><a xlink:title=" ">
<path fill="none" stroke="#9a32cd" stroke-dasharray="5,2" d="M788.94,-408.62C810.83,-405.07 834.37,-398.78 854,-387.72 875.65,-375.53 893.06,-351.28 901.66,-337.64"/>
<polygon fill="#9a32cd" stroke="#9a32cd" points="788.42,-405.16 779.03,-410.07 789.43,-412.09 788.42,-405.16"/>
</a>
</g>
<text text-anchor="middle" x="825.5" y="-409.72" font-family="Helvetica,sans-Serif" font-size="10.00" fill="grey"> dns_request</text>
</g>
<!-- Node4&#45;&gt;Node3 -->
<g id="edge3_Node000003_Node000004" class="edge">
<title>Node4&#45;&gt;Node3</title>
<g id="a_edge3_Node000003_Node000004"><a xlink:title=" ">
<path fill="none" stroke="#9a32cd" stroke-dasharray="5,2" d="M646.53,-418.6C604.51,-421.13 550.13,-422.7 502,-418.72 491.27,-417.83 479.72,-416.21 469.09,-414.44"/>
<polygon fill="#9a32cd" stroke="#9a32cd" points="646.91,-422.08 656.66,-417.96 646.46,-415.1 646.91,-422.08"/>
</a>
</g>
<text text-anchor="middle" x="570.5" y="-445.72" font-family="Helvetica,sans-Serif" font-size="10.00" fill="grey"> queue_head</text>
<text text-anchor="middle" x="570.5" y="-434.72" font-family="Helvetica,sans-Serif" font-size="10.00" fill="grey">queue_tail</text>
<text text-anchor="middle" x="570.5" y="-423.72" font-family="Helvetica,sans-Serif" font-size="10.00" fill="grey">request_hash</text>
</g>
<!-- Node4&#45;&gt;Node4 -->
<g id="edge4_Node000004_Node000004" class="edge">
<title>Node4&#45;&gt;Node4</title>
<g id="a_edge4_Node000004_Node000004"><a xlink:title=" ">
<path fill="none" stroke="#9a32cd" stroke-dasharray="5,2" d="M698.37,-431.77C699.68,-436.6 706.23,-440.22 718,-440.22 736.84,-440.22 742.29,-430.95 734.34,-422.3"/>
<polygon fill="#9a32cd" stroke="#9a32cd" points="701.69,-432.9 701.66,-422.3 695.07,-430.6 701.69,-432.9"/>
</a>
</g>
<text text-anchor="middle" x="718" y="-465.22" font-family="Helvetica,sans-Serif" font-size="10.00" fill="grey"> callback</text>
<text text-anchor="middle" x="718" y="-454.22" font-family="Helvetica,sans-Serif" font-size="10.00" fill="grey">hash_next</text>
<text text-anchor="middle" x="718" y="-443.22" font-family="Helvetica,sans-Serif" font-size="10.00" fill="grey">queue_next</text>
</g>
<!-- Node5 -->
<g id="Node000005" class="node">
<title>Node5</title>
<g id="a_Node000005"><a xlink:href="group__dns.html#structSocketDNS__CacheEntry" target="_top" xlink:title="DNS cache entry structure.">
<polygon fill="white" stroke="#666666" points="254,-416.22 128,-416.22 128,-397.22 254,-397.22 254,-416.22"/>
<text text-anchor="middle" x="191" y="-404.22" font-family="Helvetica,sans-Serif" font-size="10.00">SocketDNS_CacheEntry</text>
</a>
</g>
</g>
<!-- Node5&#45;&gt;Node3 -->
<g id="edge6_Node000003_Node000005" class="edge">
<title>Node5&#45;&gt;Node3</title>
<g id="a_edge6_Node000003_Node000005"><a xlink:title=" ">
<path fill="none" stroke="#9a32cd" stroke-dasharray="5,2" d="M264.24,-406.72C305.31,-406.72 355.13,-406.72 388.95,-406.72"/>
<polygon fill="#9a32cd" stroke="#9a32cd" points="264.01,-403.22 254.01,-406.72 264.01,-410.22 264.01,-403.22"/>
</a>
</g>
<text text-anchor="middle" x="314" y="-431.72" font-family="Helvetica,sans-Serif" font-size="10.00" fill="grey"> cache_hash</text>
<text text-anchor="middle" x="314" y="-420.72" font-family="Helvetica,sans-Serif" font-size="10.00" fill="grey">cache_lru_head</text>
<text text-anchor="middle" x="314" y="-409.72" font-family="Helvetica,sans-Serif" font-size="10.00" fill="grey">cache_lru_tail</text>
</g>
<!-- Node5&#45;&gt;Node5 -->
<g id="edge7_Node000005_Node000005" class="edge">
<title>Node5&#45;&gt;Node5</title>
<g id="a_edge7_Node000005_Node000005"><a xlink:title=" ">
<path fill="none" stroke="#9a32cd" stroke-dasharray="5,2" d="M173.32,-426.13C174.71,-430.78 180.6,-434.22 191,-434.22 208.06,-434.22 212.99,-424.95 205.8,-416.3"/>
<polygon fill="#9a32cd" stroke="#9a32cd" points="176.75,-426.88 176.2,-416.3 170.03,-424.91 176.75,-426.88"/>
</a>
</g>
<text text-anchor="middle" x="191" y="-459.22" font-family="Helvetica,sans-Serif" font-size="10.00" fill="grey"> hash_next</text>
<text text-anchor="middle" x="191" y="-448.22" font-family="Helvetica,sans-Serif" font-size="10.00" fill="grey">lru_next</text>
<text text-anchor="middle" x="191" y="-437.22" font-family="Helvetica,sans-Serif" font-size="10.00" fill="grey">lru_prev</text>
</g>
<!-- Node6 -->
<g id="Node000006" class="node">
<title>Node6</title>
<g id="a_Node000006"><a xlink:href="group__poll__private.html#structSocketPoll__T" target="_top" xlink:title="Opaque internal state structure for SocketPoll instance.">
<polygon fill="white" stroke="#666666" points="755.5,-229.22 680.5,-229.22 680.5,-210.22 755.5,-210.22 755.5,-229.22"/>
<text text-anchor="middle" x="718" y="-217.22" font-family="Helvetica,sans-Serif" font-size="10.00">SocketPoll_T</text>
</a>
</g>
</g>
<!-- Node6&#45;&gt;Node1 -->
<g id="edge8_Node000001_Node000006" class="edge">
<title>Node6&#45;&gt;Node1</title>
<g id="a_edge8_Node000001_Node000006"><a xlink:title=" ">
<path fill="none" stroke="#9a32cd" stroke-dasharray="5,2" d="M744.44,-234.3C783.64,-256.76 857.72,-299.2 890.81,-318.16"/>
<polygon fill="#9a32cd" stroke="#9a32cd" points="746.14,-231.24 735.73,-229.3 742.66,-237.31 746.14,-231.24"/>
</a>
</g>
<text text-anchor="middle" x="825.5" y="-298.72" font-family="Helvetica,sans-Serif" font-size="10.00" fill="grey"> poll</text>
</g>
<!-- Node7 -->
<g id="Node000007" class="node">
<title>Node7</title>
<g id="a_Node000007"><a xlink:href="group__event__system.html#structSocketEvent__T" target="_top" xlink:title="Event notification structure returned by polling operations.">
<polygon fill="white" stroke="#666666" points="356,-260.22 272,-260.22 272,-241.22 356,-241.22 356,-260.22"/>
<text text-anchor="middle" x="314" y="-248.22" font-family="Helvetica,sans-Serif" font-size="10.00">SocketEvent_T</text>
</a>
</g>
</g>
<!-- Node7&#45;&gt;Node6 -->
<g id="edge9_Node000006_Node000007" class="edge">
<title>Node7&#45;&gt;Node6</title>
<g id="a_edge9_Node000006_Node000007"><a xlink:title=" ">
<path fill="none" stroke="#9a32cd" stroke-dasharray="5,2" d="M366.4,-247.16C430.31,-242.68 542.75,-234.6 639,-226.72 652.42,-225.62 667.12,-224.33 680.11,-223.15"/>
<polygon fill="#9a32cd" stroke="#9a32cd" points="365.92,-243.69 356.19,-247.88 366.41,-250.67 365.92,-243.69"/>
</a>
</g>
<text text-anchor="middle" x="429" y="-249.72" font-family="Helvetica,sans-Serif" font-size="10.00" fill="grey"> socketevents</text>
</g>
<!-- Node8 -->
<g id="Node000008" class="node">
<title>Node8</title>
<g id="a_Node000008"><a xlink:title=" ">
<polygon fill="white" stroke="#666666" points="59,-180.22 0,-180.22 0,-161.22 59,-161.22 59,-180.22"/>
<text text-anchor="middle" x="29.5" y="-168.22" font-family="Helvetica,sans-Serif" font-size="10.00">Socket_T</text>
</a>
</g>
</g>
<!-- Node8&#45;&gt;Node1 -->
<g id="edge28_Node000001_Node000008" class="edge">
<title>Node8&#45;&gt;Node1</title>
<g id="a_edge28_Node000001_Node000008"><a xlink:title=" ">
<path fill="none" stroke="#9a32cd" stroke-dasharray="5,2" d="M38.76,-189.68C58.4,-231.44 112.11,-327.72 190,-327.72 190,-327.72 190,-327.72 719,-327.72 772.18,-327.72 833.8,-327.72 871.71,-327.72"/>
<polygon fill="#9a32cd" stroke="#9a32cd" points="41.93,-188.19 34.61,-180.54 35.56,-191.09 41.93,-188.19"/>
</a>
</g>
<text text-anchor="middle" x="429" y="-330.72" font-family="Helvetica,sans-Serif" font-size="10.00" fill="grey"> winner</text>
</g>
<!-- Node8&#45;&gt;Node7 -->
<g id="edge10_Node000007_Node000008" class="edge">
<title>Node8&#45;&gt;Node7</title>
<g id="a_edge10_Node000007_Node000008"><a xlink:title=" ">
<path fill="none" stroke="#9a32cd" stroke-dasharray="5,2" d="M50.23,-186.31C58.16,-191.91 67.64,-197.8 77,-201.72 142.04,-228.94 223.71,-241.56 271.93,-247"/>
<polygon fill="#9a32cd" stroke="#9a32cd" points="52.13,-183.37 42.01,-180.23 47.97,-188.99 52.13,-183.37"/>
</a>
</g>
<text text-anchor="middle" x="93.5" y="-216.72" font-family="Helvetica,sans-Serif" font-size="10.00" fill="grey"> socket</text>
</g>
<!-- Node9 -->
<g id="Node000009" class="node">
<title>Node9</title>
<g id="a_Node000009"><a xlink:href="group__poll__private.html#structSocketData" target="_top" xlink:title="Linked&#45;list node for socket&#45;to&#45;userdata mapping in internal hash table.">
<polygon fill="white" stroke="#666666" points="348,-207.22 280,-207.22 280,-188.22 348,-188.22 348,-207.22"/>
<text text-anchor="middle" x="314" y="-195.22" font-family="Helvetica,sans-Serif" font-size="10.00">SocketData</text>
</a>
</g>
</g>
<!-- Node8&#45;&gt;Node9 -->
<g id="edge12_Node000009_Node000008" class="edge">
<title>Node8&#45;&gt;Node9</title>
<g id="a_edge12_Node000009_Node000008"><a xlink:title=" ">
<path fill="none" stroke="#9a32cd" stroke-dasharray="5,2" d="M69.32,-180.4C71.91,-180.89 74.49,-181.34 77,-181.72 148.87,-192.58 234.18,-196.07 279.98,-197.19"/>
<polygon fill="#9a32cd" stroke="#9a32cd" points="69.88,-176.94 59.38,-178.33 68.45,-183.8 69.88,-176.94"/>
</a>
</g>
<text text-anchor="middle" x="93.5" y="-189.72" font-family="Helvetica,sans-Serif" font-size="10.00" fill="grey"> socket</text>
</g>
<!-- Node10 -->
<g id="Node000010" class="node">
<title>Node10</title>
<g id="a_Node000010"><a xlink:href="group__poll__private.html#structFdSocketEntry" target="_top" xlink:title="Linked&#45;list node for FD&#45;to&#45;socket reverse mapping in internal hash table.">
<polygon fill="white" stroke="#666666" points="355,-154.22 273,-154.22 273,-135.22 355,-135.22 355,-154.22"/>
<text text-anchor="middle" x="314" y="-142.22" font-family="Helvetica,sans-Serif" font-size="10.00">FdSocketEntry</text>
</a>
</g>
</g>
<!-- Node8&#45;&gt;Node10 -->
<g id="edge15_Node000010_Node000008" class="edge">
<title>Node8&#45;&gt;Node10</title>
<g id="a_edge15_Node000010_Node000008"><a xlink:title=" ">
<path fill="none" stroke="#9a32cd" stroke-dasharray="5,2" d="M69.19,-167.4C113.76,-163.54 189.2,-156.91 254,-150.72 260.05,-150.14 266.44,-149.51 272.7,-148.88"/>
<polygon fill="#9a32cd" stroke="#9a32cd" points="68.75,-163.93 59.09,-168.27 69.35,-170.9 68.75,-163.93"/>
</a>
</g>
<text text-anchor="middle" x="93.5" y="-169.72" font-family="Helvetica,sans-Serif" font-size="10.00" fill="grey"> socket</text>
</g>
<!-- Node12 -->
<g id="Node000012" class="node">
<title>Node12</title>
<g id="a_Node000012"><a xlink:href="structAsyncRequest.html" target="_top" xlink:title="Internal structure for tracking asynchronous I/O requests.">
<polygon fill="white" stroke="#666666" points="231.5,-113.22 150.5,-113.22 150.5,-94.22 231.5,-94.22 231.5,-113.22"/>
<text text-anchor="middle" x="191" y="-101.22" font-family="Helvetica,sans-Serif" font-size="10.00">AsyncRequest</text>
</a>
</g>
</g>
<!-- Node8&#45;&gt;Node12 -->
<g id="edge19_Node000012_Node000008" class="edge">
<title>Node8&#45;&gt;Node12</title>
<g id="a_edge19_Node000012_Node000008"><a xlink:title=" ">
<path fill="none" stroke="#9a32cd" stroke-dasharray="5,2" d="M44.51,-153.39C52.96,-144.08 64.49,-133.22 77,-126.72 99.65,-114.95 127.77,-109.2 150.29,-106.39"/>
<polygon fill="#9a32cd" stroke="#9a32cd" points="41.82,-151.16 37.93,-161.01 47.12,-155.73 41.82,-151.16"/>
</a>
</g>
<text text-anchor="middle" x="93.5" y="-140.72" font-family="Helvetica,sans-Serif" font-size="10.00" fill="grey"> cb</text>
<text text-anchor="middle" x="93.5" y="-129.72" font-family="Helvetica,sans-Serif" font-size="10.00" fill="grey">socket</text>
</g>
<!-- Node15 -->
<g id="Node000015" class="node">
<title>Node15</title>
<g id="a_Node000015"><a xlink:href="group__async__io.html#structSocketHE__AddressEntry__T" target="_top" xlink:title="Single connection attempt structure in Happy Eyeballs racing.">
<polygon fill="white" stroke="#666666" points="639,-81.22 502,-81.22 502,-62.22 639,-62.22 639,-81.22"/>
<text text-anchor="middle" x="570.5" y="-69.22" font-family="Helvetica,sans-Serif" font-size="10.00">SocketHE_AddressEntry_T</text>
</a>
</g>
</g>
<!-- Node8&#45;&gt;Node15 -->
<g id="edge25_Node000015_Node000008" class="edge">
<title>Node8&#45;&gt;Node15</title>
<g id="a_edge25_Node000015_Node000008"><a xlink:title=" ">
<path fill="none" stroke="#9a32cd" stroke-dasharray="5,2" d="M41.26,-152.28C56.75,-127.99 87.93,-86.82 128,-73.72 263.69,-29.34 435.63,-48.48 519.25,-62.2"/>
<polygon fill="#9a32cd" stroke="#9a32cd" points="38.19,-150.6 35.94,-160.96 44.15,-154.26 38.19,-150.6"/>
</a>
</g>
<text text-anchor="middle" x="191" y="-76.72" font-family="Helvetica,sans-Serif" font-size="10.00" fill="grey"> socket</text>
</g>
<!-- Node16 -->
<g id="Node000016" class="node">
<title>Node16</title>
<g id="a_Node000016"><a xlink:href="SocketHappyEyeballs-private_8h.html#structSocketHE__Attempt__T" target="_top" xlink:title=" ">
<polygon fill="white" stroke="#666666" points="627,-33.22 514,-33.22 514,-14.22 627,-14.22 627,-33.22"/>
<text text-anchor="middle" x="570.5" y="-21.22" font-family="Helvetica,sans-Serif" font-size="10.00">SocketHE_Attempt_T</text>
</a>
</g>
</g>
<!-- Node8&#45;&gt;Node16 -->
<g id="edge27_Node000016_Node000008" class="edge">
<title>Node8&#45;&gt;Node16</title>
<g id="a_edge27_Node000016_Node000008"><a xlink:title=" ">
<path fill="none" stroke="#9a32cd" stroke-dasharray="5,2" d="M36.74,-151.08C48.42,-118.36 77.11,-54.36 128,-34.72 261.04,16.63 433.82,-0.83 518.36,-14.22"/>
<polygon fill="#9a32cd" stroke="#9a32cd" points="33.32,-150.27 33.42,-160.86 39.95,-152.51 33.32,-150.27"/>
</a>
</g>
<text text-anchor="middle" x="191" y="-37.72" font-family="Helvetica,sans-Serif" font-size="10.00" fill="grey"> socket</text>
</g>
<!-- Node9&#45;&gt;Node6 -->
<g id="edge11_Node000006_Node000009" class="edge">
<title>Node9&#45;&gt;Node6</title>
<g id="a_edge11_Node000006_Node000009"><a xlink:title=" ">
<path fill="none" stroke="#9a32cd" stroke-dasharray="5,2" d="M358.41,-200.1C438,-204.45 605.93,-213.64 680.26,-217.71"/>
<polygon fill="#9a32cd" stroke="#9a32cd" points="358.42,-196.59 348.24,-199.54 358.03,-203.58 358.42,-196.59"/>
</a>
</g>
<text text-anchor="middle" x="429" y="-210.72" font-family="Helvetica,sans-Serif" font-size="10.00" fill="grey"> socket_data_map</text>
</g>
<!-- Node9&#45;&gt;Node9 -->
<g id="edge13_Node000009_Node000009" class="edge">
<title>Node9&#45;&gt;Node9</title>
<g id="a_edge13_Node000009_Node000009"><a xlink:title=" ">
<path fill="none" stroke="#9a32cd" stroke-dasharray="5,2" d="M292.89,-216.77C294.3,-221.6 301.34,-225.22 314,-225.22 334.26,-225.22 340.12,-215.95 331.57,-207.3"/>
<polygon fill="#9a32cd" stroke="#9a32cd" points="296.21,-217.9 296.43,-207.3 289.65,-215.44 296.21,-217.9"/>
</a>
</g>
<text text-anchor="middle" x="314" y="-228.22" font-family="Helvetica,sans-Serif" font-size="10.00" fill="grey"> next</text>
</g>
<!-- Node10&#45;&gt;Node6 -->
<g id="edge14_Node000006_Node000010" class="edge">
<title>Node10&#45;&gt;Node6</title>
<g id="a_edge14_Node000006_Node000010"><a xlink:title=" ">
<path fill="none" stroke="#9a32cd" stroke-dasharray="5,2" d="M365.34,-153.93C429.07,-165.62 542.22,-186.45 639,-204.72 652.42,-207.25 667.12,-210.07 680.11,-212.57"/>
<polygon fill="#9a32cd" stroke="#9a32cd" points="365.64,-150.43 355.17,-152.07 364.38,-157.31 365.64,-150.43"/>
</a>
</g>
<text text-anchor="middle" x="429" y="-178.72" font-family="Helvetica,sans-Serif" font-size="10.00" fill="grey"> fd_to_socket_map</text>
</g>
<!-- Node10&#45;&gt;Node10 -->
<g id="edge16_Node000010_Node000010" class="edge">
<title>Node10&#45;&gt;Node10</title>
<g id="a_edge16_Node000010_Node000010"><a xlink:title=" ">
<path fill="none" stroke="#9a32cd" stroke-dasharray="5,2" d="M292.89,-163.77C294.3,-168.6 301.34,-172.22 314,-172.22 334.26,-172.22 340.12,-162.95 331.57,-154.3"/>
<polygon fill="#9a32cd" stroke="#9a32cd" points="296.21,-164.9 296.43,-154.3 289.65,-162.44 296.21,-164.9"/>
</a>
</g>
<text text-anchor="middle" x="314" y="-175.22" font-family="Helvetica,sans-Serif" font-size="10.00" fill="grey"> next</text>
</g>
<!-- Node11 -->
<g id="Node000011" class="node">
<title>Node11</title>
<g id="a_Node000011"><a xlink:href="group__async__io.html#structSocketAsync__T" target="_top" xlink:title="Core structure for asynchronous I/O context management.">
<polygon fill="white" stroke="#666666" points="472,-112.22 386,-112.22 386,-93.22 472,-93.22 472,-112.22"/>
<text text-anchor="middle" x="429" y="-100.22" font-family="Helvetica,sans-Serif" font-size="10.00">SocketAsync_T</text>
</a>
</g>
</g>
<!-- Node11&#45;&gt;Node6 -->
<g id="edge17_Node000006_Node000011" class="edge">
<title>Node11&#45;&gt;Node6</title>
<g id="a_edge17_Node000006_Node000011"><a xlink:title=" ">
<path fill="none" stroke="#9a32cd" stroke-dasharray="5,2" d="M482.14,-93.6C528.21,-88.59 594.77,-89.2 639,-123.72 657.62,-138.25 643.06,-154.65 657,-173.72 668.31,-189.19 686.23,-201.98 699.55,-210.11"/>
<polygon fill="#9a32cd" stroke="#9a32cd" points="481.56,-90.14 472.05,-94.82 482.4,-97.09 481.56,-90.14"/>
</a>
</g>
<text text-anchor="middle" x="570.5" y="-126.72" font-family="Helvetica,sans-Serif" font-size="10.00" fill="grey"> async</text>
</g>
<!-- Node12&#45;&gt;Node11 -->
<g id="edge18_Node000011_Node000012" class="edge">
<title>Node12&#45;&gt;Node11</title>
<g id="a_edge18_Node000011_Node000012"><a xlink:title=" ">
<path fill="none" stroke="#9a32cd" stroke-dasharray="5,2" d="M241.69,-103.51C284.49,-103.33 345.58,-103.07 385.98,-102.9"/>
<polygon fill="#9a32cd" stroke="#9a32cd" points="241.49,-100.01 231.5,-103.55 241.52,-107.01 241.49,-100.01"/>
</a>
</g>
<text text-anchor="middle" x="314" y="-106.72" font-family="Helvetica,sans-Serif" font-size="10.00" fill="grey"> requests</text>
</g>
<!-- Node12&#45;&gt;Node12 -->
<g id="edge20_Node000012_Node000012" class="edge">
<title>Node12&#45;&gt;Node12</title>
<g id="a_edge20_Node000012_Node000012"><a xlink:title=" ">
<path fill="none" stroke="#9a32cd" stroke-dasharray="5,2" d="M173.32,-123.13C174.71,-127.78 180.6,-131.22 191,-131.22 208.06,-131.22 212.99,-121.95 205.8,-113.3"/>
<polygon fill="#9a32cd" stroke="#9a32cd" points="176.75,-123.88 176.2,-113.3 170.03,-121.91 176.75,-123.88"/>
</a>
</g>
<text text-anchor="middle" x="191" y="-134.22" font-family="Helvetica,sans-Serif" font-size="10.00" fill="grey"> next</text>
</g>
<!-- Node13 -->
<g id="Node000013" class="node">
<title>Node13</title>
<g id="a_Node000013"><a xlink:href="group__event__system.html#structSocketTimer__heap__T" target="_top" xlink:title="Binary min&#45;heap container for managing multiple SocketTimer_T instances.">
<polygon fill="white" stroke="#666666" points="484,-291.22 374,-291.22 374,-272.22 484,-272.22 484,-291.22"/>
<text text-anchor="middle" x="429" y="-279.22" font-family="Helvetica,sans-Serif" font-size="10.00">SocketTimer_heap_T</text>
</a>
</g>
</g>
<!-- Node13&#45;&gt;Node6 -->
<g id="edge21_Node000006_Node000013" class="edge">
<title>Node13&#45;&gt;Node6</title>
<g id="a_edge21_Node000006_Node000013"><a xlink:title=" ">
<path fill="none" stroke="#9a32cd" stroke-dasharray="5,2" d="M494.28,-279.41C536.17,-276.59 591.64,-270.39 639,-256.72 661.46,-250.24 685.51,-237.92 700.88,-229.28"/>
<polygon fill="#9a32cd" stroke="#9a32cd" points="493.97,-275.92 484.21,-280.03 494.41,-282.9 493.97,-275.92"/>
</a>
</g>
<text text-anchor="middle" x="570.5" y="-281.72" font-family="Helvetica,sans-Serif" font-size="10.00" fill="grey"> timer_heap</text>
</g>
<!-- Node14 -->
<g id="Node000014" class="node">
<title>Node14</title>
<g id="a_Node000014"><a xlink:href="group__event__system.html#structSocketTimer__T" target="_top" xlink:title="Internal representation of a single scheduled timer event.">
<polygon fill="white" stroke="#666666" points="232.5,-294.22 149.5,-294.22 149.5,-275.22 232.5,-275.22 232.5,-294.22"/>
<text text-anchor="middle" x="191" y="-282.22" font-family="Helvetica,sans-Serif" font-size="10.00">SocketTimer_T</text>
</a>
</g>
</g>
<!-- Node14&#45;&gt;Node13 -->
<g id="edge22_Node000013_Node000014" class="edge">
<title>Node14&#45;&gt;Node13</title>
<g id="a_edge22_Node000013_Node000014"><a xlink:title=" ">
<path fill="none" stroke="#9a32cd" stroke-dasharray="5,2" d="M243.05,-284.07C281.64,-283.58 334.5,-282.91 373.83,-282.41"/>
<polygon fill="#9a32cd" stroke="#9a32cd" points="242.52,-280.58 232.57,-284.2 242.61,-287.58 242.52,-280.58"/>
</a>
</g>
<text text-anchor="middle" x="314" y="-286.72" font-family="Helvetica,sans-Serif" font-size="10.00" fill="grey"> timers</text>
</g>
<!-- Node15&#45;&gt;Node1 -->
<g id="edge24_Node000001_Node000015" class="edge">
<title>Node15&#45;&gt;Node1</title>
<g id="a_edge24_Node000001_Node000015"><a xlink:title=" ">
<path fill="none" stroke="#9a32cd" stroke-dasharray="5,2" d="M628.98,-84.14C632.4,-85.25 635.77,-86.44 639,-87.72 705.66,-114.03 724.5,-121.19 779,-167.72 835.36,-215.84 884.96,-291.39 901.59,-318.03"/>
<polygon fill="#9a32cd" stroke="#9a32cd" points="629.82,-80.74 619.24,-81.22 627.81,-87.44 629.82,-80.74"/>
</a>
</g>
<text text-anchor="middle" x="718" y="-192.72" font-family="Helvetica,sans-Serif" font-size="10.00" fill="grey"> addresses</text>
<text text-anchor="middle" x="718" y="-181.72" font-family="Helvetica,sans-Serif" font-size="10.00" fill="grey">next_ipv4</text>
<text text-anchor="middle" x="718" y="-170.72" font-family="Helvetica,sans-Serif" font-size="10.00" fill="grey">next_ipv6</text>
</g>
<!-- Node16&#45;&gt;Node1 -->
<g id="edge26_Node000001_Node000016" class="edge">
<title>Node16&#45;&gt;Node1</title>
<g id="a_edge26_Node000001_Node000016"><a xlink:title=" ">
<path fill="none" stroke="#9a32cd" stroke-dasharray="5,2" d="M637.41,-30.49C680.74,-37.53 736.97,-51.81 779,-80.72 866.62,-140.98 898.54,-280.08 905.79,-318.02"/>
<polygon fill="#9a32cd" stroke="#9a32cd" points="637.67,-26.99 627.26,-28.93 636.61,-33.91 637.67,-26.99"/>
</a>
</g>
<text text-anchor="middle" x="718" y="-83.72" font-family="Helvetica,sans-Serif" font-size="10.00" fill="grey"> attempts</text>
</g>
</g>
</svg>

<g id="navigator" transform="translate(0 0)" fill="#404254">
  <rect fill="#f2f5e9" fill-opacity="0.5" stroke="#606060" stroke-width=".5" x="0" y="0" width="60" height="60"/>
  <use id="zoomplus" xlink:href="#zoomPlus" x="17" y="9" onmousedown="handleZoom(evt,'in')"/>
  <use id="zoomminus" xlink:href="#zoomMin" x="42" y="9" onmousedown="handleZoom(evt,'out')"/>
  <use id="reset" xlink:href="#resetDef" x="30" y="36" onmousedown="handleReset()"/>
   <use id="arrowup" xlink:href="#arrowUp" x="0" y="0" onmousedown="handlePan(0,-1)"/>
  <use id="arrowright" xlink:href="#arrowRight" x="0" y="0" onmousedown="handlePan(1,0)"/>
  <use id="arrowdown" xlink:href="#arrowDown" x="0" y="0" onmousedown="handlePan(0,1)"/>
  <use id="arrowleft" xlink:href="#arrowLeft" x="0" y="0" onmousedown="handlePan(-1,0)"/>
</g>
<svg viewBox="0 0 15 15" width="100%" height="30px" preserveAspectRatio="xMaxYMin meet">
 <g id="arrow_out" transform="scale(0.3 0.3)">
  <a xlink:href="structSocketHE__T__coll__graph_org.svg" target="_base">
   <rect id="button" ry="5" rx="5" y="6" x="6" height="38" width="38"
        fill="#f2f5e9" fill-opacity="0.5" stroke="#606060" stroke-width="1.0"/>
   <path id="arrow"
     d="M 11.500037,31.436501 C 11.940474,20.09759 22.043105,11.32322 32.158766,21.979434 L 37.068811,17.246167 C 37.068811,17.246167 37.088388,32 37.088388,32 L 22.160133,31.978069 C 22.160133,31.978069 26.997745,27.140456 26.997745,27.140456 C 18.528582,18.264221 13.291696,25.230495 11.500037,31.436501 z"
     style="fill:#404040;"/>
  </a>
 </g>
</svg>

<style type='text/css'>
<![CDATA[
[data-mouse-over-selected='false'] { opacity: 0.7; }
[data-mouse-over-selected='true']  { opacity: 1.0; }
]]>
</style>
<script type="application/ecmascript"><![CDATA[
document.addEventListener('DOMContentLoaded', (event) => {
  highlightEdges();
  highlightAdjacentNodes();
});
]]></script>
</svg>
