<?xml version="1.0" encoding="UTF-8" standalone="no"?>
<!DOCTYPE svg PUBLIC "-//W3C//DTD SVG 1.1//EN"
 "http://www.w3.org/Graphics/SVG/1.1/DTD/svg11.dtd">
<!-- Generated by graphviz version 2.43.0 (0)
 -->
<!-- Title: SocketPool_T Pages: 1 -->
<!--zoomable 562 -->

<svg id="main" version="1.1" xmlns="http://www.w3.org/2000/svg" xmlns:xlink="http://www.w3.org/1999/xlink" xml:space="preserve" onload="init(evt)">
<style type="text/css"><![CDATA[
.node, .edge {opacity: 0.7;}
.node.selected, .edge.selected {opacity: 1;}
.edge:hover path { stroke: red; }
.edge:hover polygon { stroke: red; fill: red; }
]]></style>

<defs>
  <circle id="rim" cx="0" cy="0" r="7"/>
  <circle id="rim2" cx="0" cy="0" r="3.5"/>
  <g id="zoomPlus">
    <use xlink:href="#rim" fill="#404040"><set attributeName="fill" to="#808080" begin="zoomplus.mouseover" end="zoomplus.mouseout"/></use>
    <path d="M-4,0h8M0,-4v8" fill="none" stroke="white" stroke-width="1.5" pointer-events="none"/>
  </g>
  <g id="zoomMin">
    <use xlink:href="#rim" fill="#404040"><set attributeName="fill" to="#808080" begin="zoomminus.mouseover" end="zoomminus.mouseout"/></use>
    <path d="M-4,0h8" fill="none" stroke="white" stroke-width="1.5" pointer-events="none"/>
  </g>
  <g id="arrowUp" transform="translate(30 24)">
    <use xlink:href="#rim"/>
    <path pointer-events="none" fill="none" stroke="white" stroke-width="1.5" d="M0,-3.0v7 M-2.5,-0.5L0,-3.0L2.5,-0.5"/>
  </g>
  <g id="arrowRight" transform="rotate(90) translate(36 -43)">
    <use xlink:href="#rim"/>
    <path pointer-events="none" fill="none" stroke="white" stroke-width="1.5" d="M0,-3.0v7 M-2.5,-0.5L0,-3.0L2.5,-0.5"/>
  </g>
  <g id="arrowDown" transform="rotate(180) translate(-30 -48)">
    <use xlink:href="#rim"/>
    <path pointer-events="none" fill="none" stroke="white" stroke-width="1.5" d="M0,-3.0v7 M-2.5,-0.5L0,-3.0L2.5,-0.5"/>
  </g>
  <g id="arrowLeft" transform="rotate(270) translate(-36 17)">
    <use xlink:href="#rim"/>
    <path pointer-events="none" fill="none" stroke="white" stroke-width="1.5" d="M0,-3.0v7 M-2.5,-0.5L0,-3.0L2.5,-0.5"/>
  </g>
  <g id="resetDef">
    <use xlink:href="#rim2" fill="#404040"><set attributeName="fill" to="#808080" begin="reset.mouseover" end="reset.mouseout"/></use>
  </g>
</defs>
<script type="application/ecmascript">
var viewWidth = 993;
var viewHeight = 562;
var sectionId = 'dynsection-1';
</script>
<script type="application/ecmascript" xlink:href="svg.min.js"/>
<svg id="graph" class="graph">
<g id="viewport">
<title>SocketPool_T</title>
<!-- Node1 -->
<g id="Node000001" class="node">
<title>Node1</title>
<g id="a_Node000001"><a xlink:title=" ">
<polygon fill="#999999" stroke="#666666" points="963,-271 885,-271 885,-252 963,-252 963,-271"/>
<text text-anchor="middle" x="924" y="-259" font-family="Helvetica,sans-Serif" font-size="10.00">SocketPool_T</text>
</a>
</g>
</g>
<!-- Node1&#45;&gt;Node1 -->
<g id="edge30_Node000001_Node000001" class="edge">
<title>Node1&#45;&gt;Node1</title>
<g id="a_edge30_Node000001_Node000001"><a xlink:title=" ">
<path fill="none" stroke="#9a32cd" stroke-dasharray="5,2" d="M904,-280.55C905.34,-285.38 912,-289 924,-289 943.2,-289 948.74,-279.73 940.65,-271.08"/>
<polygon fill="#9a32cd" stroke="#9a32cd" points="907.32,-281.68 907.35,-271.08 900.72,-279.34 907.32,-281.68"/>
</a>
</g>
<text text-anchor="middle" x="924" y="-303" font-family="Helvetica,sans-Serif" font-size="10.00" fill="grey"> drain_cb</text>
<text text-anchor="middle" x="924" y="-292" font-family="Helvetica,sans-Serif" font-size="10.00" fill="grey">resize_cb</text>
</g>
<!-- Node2 -->
<g id="Node000002" class="node">
<title>Node2</title>
<g id="a_Node000002"><a xlink:href="group__connection__mgmt.html#structConnection" target="_top" xlink:title="Internal structure representing a pooled connection slot.">
<polygon fill="white" stroke="#666666" points="751,-170 674,-170 674,-151 751,-151 751,-170"/>
<text text-anchor="middle" x="712.5" y="-158" font-family="Helvetica,sans-Serif" font-size="10.00">Connection_T</text>
</a>
</g>
</g>
<!-- Node2&#45;&gt;Node1 -->
<g id="edge1_Node000001_Node000002" class="edge">
<title>Node2&#45;&gt;Node1</title>
<g id="a_edge1_Node000001_Node000002"><a xlink:title=" ">
<path fill="none" stroke="#9a32cd" stroke-dasharray="5,2" d="M750.77,-173.61C777.51,-183.47 814.12,-197.91 845,-213.5 868.28,-225.25 893.74,-241.64 909.04,-251.91"/>
<polygon fill="#9a32cd" stroke="#9a32cd" points="751.63,-170.19 741.04,-170.06 749.23,-176.77 751.63,-170.19"/>
</a>
</g>
<text text-anchor="middle" x="815.5" y="-216.5" font-family="Helvetica,sans-Serif" font-size="10.00" fill="grey"> connections</text>
</g>
<!-- Node2&#45;&gt;Node2 -->
<g id="edge4_Node000002_Node000002" class="edge">
<title>Node2&#45;&gt;Node2</title>
<g id="a_edge4_Node000002_Node000002"><a xlink:title=" ">
<path fill="none" stroke="#9a32cd" stroke-dasharray="5,2" d="M693.72,-179.91C695.19,-184.56 701.45,-188 712.5,-188 730.63,-188 735.87,-178.73 728.22,-170.08"/>
<polygon fill="#9a32cd" stroke="#9a32cd" points="697.15,-180.67 696.78,-170.08 690.46,-178.59 697.15,-180.67"/>
</a>
</g>
<text text-anchor="middle" x="712.5" y="-202" font-family="Helvetica,sans-Serif" font-size="10.00" fill="grey"> free_next</text>
<text text-anchor="middle" x="712.5" y="-191" font-family="Helvetica,sans-Serif" font-size="10.00" fill="grey">hash_next</text>
</g>
<!-- Node3 -->
<g id="Node000003" class="node">
<title>Node3</title>
<g id="a_Node000003"><a xlink:title=" ">
<polygon fill="white" stroke="#666666" points="290.5,-170 231.5,-170 231.5,-151 290.5,-151 290.5,-170"/>
<text text-anchor="middle" x="261" y="-158" font-family="Helvetica,sans-Serif" font-size="10.00">Socket_T</text>
</a>
</g>
</g>
<!-- Node3&#45;&gt;Node1 -->
<g id="edge15_Node000001_Node000003" class="edge">
<title>Node3&#45;&gt;Node1</title>
<g id="a_edge15_Node000001_Node000003"><a xlink:title=" ">
<path fill="none" stroke="#9a32cd" stroke-dasharray="5,2" d="M299.99,-171.63C310.09,-175.34 320.76,-179.97 330,-185.5 339.18,-191 338.6,-196.38 348,-201.5 372.71,-214.97 381.3,-213.53 409,-218.5 585.06,-250.11 799.31,-258.57 884.96,-260.76"/>
<polygon fill="#9a32cd" stroke="#9a32cd" points="301.13,-168.32 290.53,-168.35 298.84,-174.93 301.13,-168.32"/>
</a>
</g>
<text text-anchor="middle" x="600.5" y="-250.5" font-family="Helvetica,sans-Serif" font-size="10.00" fill="grey"> cleanup_buffer</text>
</g>
<!-- Node3&#45;&gt;Node2 -->
<g id="edge2_Node000002_Node000003" class="edge">
<title>Node3&#45;&gt;Node2</title>
<g id="a_edge2_Node000002_Node000003"><a xlink:title=" ">
<path fill="none" stroke="#9a32cd" stroke-dasharray="5,2" d="M300.63,-150.4C330.08,-143.24 371.79,-134.26 409,-130.5 468.7,-124.47 484.24,-125.19 544,-130.5 589.02,-134.5 640.06,-144.43 673.84,-151.78"/>
<polygon fill="#9a32cd" stroke="#9a32cd" points="299.61,-147.04 290.74,-152.84 301.29,-153.84 299.61,-147.04"/>
</a>
</g>
<text text-anchor="middle" x="476.5" y="-133.5" font-family="Helvetica,sans-Serif" font-size="10.00" fill="grey"> socket</text>
</g>
<!-- Node5 -->
<g id="Node000005" class="node">
<title>Node5</title>
<g id="a_Node000005"><a xlink:href="group__connection__mgmt.html#structSocketReconnect__T" target="_top" xlink:title="Opaque context for managing reconnecting socket connections.">
<polygon fill="white" stroke="#666666" points="529.5,-170 423.5,-170 423.5,-151 529.5,-151 529.5,-170"/>
<text text-anchor="middle" x="476.5" y="-158" font-family="Helvetica,sans-Serif" font-size="10.00">SocketReconnect_T</text>
</a>
</g>
</g>
<!-- Node3&#45;&gt;Node5 -->
<g id="edge7_Node000005_Node000003" class="edge">
<title>Node3&#45;&gt;Node5</title>
<g id="a_edge7_Node000005_Node000003"><a xlink:title=" ">
<path fill="none" stroke="#9a32cd" stroke-dasharray="5,2" d="M300.91,-160.5C335.27,-160.5 385.63,-160.5 423.45,-160.5"/>
<polygon fill="#9a32cd" stroke="#9a32cd" points="300.79,-157 290.79,-160.5 300.79,-164 300.79,-157"/>
</a>
</g>
<text text-anchor="middle" x="369.5" y="-163.5" font-family="Helvetica,sans-Serif" font-size="10.00" fill="grey"> socket</text>
</g>
<!-- Node4 -->
<g id="Node000004" class="node">
<title>Node4</title>
<g id="a_Node000004"><a xlink:href="group__foundation.html#structSocketTimeouts__T" target="_top" xlink:title="Timeout configuration structure for socket operations.">
<polygon fill="white" stroke="#666666" points="99,-170 0,-170 0,-151 99,-151 99,-170"/>
<text text-anchor="middle" x="49.5" y="-158" font-family="Helvetica,sans-Serif" font-size="10.00">SocketTimeouts_T</text>
</a>
</g>
</g>
<!-- Node4&#45;&gt;Node3 -->
<g id="edge3_Node000003_Node000004" class="edge">
<title>Node4&#45;&gt;Node3</title>
<g id="a_edge3_Node000003_Node000004"><a xlink:title=" ">
<path fill="none" stroke="#9a32cd" stroke-dasharray="5,2" d="M109.23,-160.5C149.09,-160.5 200.05,-160.5 231.34,-160.5"/>
<polygon fill="#9a32cd" stroke="#9a32cd" points="109.09,-157 99.09,-160.5 109.09,-164 109.09,-157"/>
</a>
</g>
<text text-anchor="middle" x="145.5" y="-163.5" font-family="Helvetica,sans-Serif" font-size="10.00" fill="grey"> tls_timeouts</text>
</g>
<!-- Node5&#45;&gt;Node2 -->
<g id="edge5_Node000002_Node000005" class="edge">
<title>Node5&#45;&gt;Node2</title>
<g id="a_edge5_Node000002_Node000005"><a xlink:title=" ">
<path fill="none" stroke="#9a32cd" stroke-dasharray="5,2" d="M539.75,-160.5C582.5,-160.5 637.84,-160.5 673.99,-160.5"/>
<polygon fill="#9a32cd" stroke="#9a32cd" points="539.72,-157 529.72,-160.5 539.72,-164 539.72,-157"/>
</a>
</g>
<text text-anchor="middle" x="600.5" y="-163.5" font-family="Helvetica,sans-Serif" font-size="10.00" fill="grey"> reconnect</text>
</g>
<!-- Node5&#45;&gt;Node5 -->
<g id="edge8_Node000005_Node000005" class="edge">
<title>Node5&#45;&gt;Node5</title>
<g id="a_edge8_Node000005_Node000005"><a xlink:title=" ">
<path fill="none" stroke="#9a32cd" stroke-dasharray="5,2" d="M456.87,-179.55C458.18,-184.38 464.73,-188 476.5,-188 495.34,-188 500.79,-178.73 492.84,-170.08"/>
<polygon fill="#9a32cd" stroke="#9a32cd" points="460.19,-180.68 460.16,-170.08 453.57,-178.38 460.19,-180.68"/>
</a>
</g>
<text text-anchor="middle" x="476.5" y="-202" font-family="Helvetica,sans-Serif" font-size="10.00" fill="grey"> callback</text>
<text text-anchor="middle" x="476.5" y="-191" font-family="Helvetica,sans-Serif" font-size="10.00" fill="grey">health_check</text>
</g>
<!-- Node6 -->
<g id="Node000006" class="node">
<title>Node6</title>
<g id="a_Node000006"><a xlink:href="group__connection__mgmt.html#structSocketReconnect__Policy__T" target="_top" xlink:title="Configuration structure for reconnection backoff and circuit breaker policy.">
<polygon fill="white" stroke="#666666" points="330,-214 192,-214 192,-195 330,-195 330,-214"/>
<text text-anchor="middle" x="261" y="-202" font-family="Helvetica,sans-Serif" font-size="10.00">SocketReconnect_Policy_T</text>
</a>
</g>
</g>
<!-- Node6&#45;&gt;Node1 -->
<g id="edge20_Node000001_Node000006" class="edge">
<title>Node6&#45;&gt;Node1</title>
<g id="a_edge20_Node000001_Node000006"><a xlink:title=" ">
<path fill="none" stroke="#9a32cd" stroke-dasharray="5,2" d="M264.04,-224.11C271.23,-282.03 301.15,-452.63 409,-521.5 604.54,-646.37 867.81,-331.38 915.45,-271.22"/>
<polygon fill="#9a32cd" stroke="#9a32cd" points="267.5,-223.62 262.88,-214.09 260.55,-224.42 267.5,-223.62"/>
</a>
</g>
<text text-anchor="middle" x="600.5" y="-545.5" font-family="Helvetica,sans-Serif" font-size="10.00" fill="grey"> reconnect_policy</text>
</g>
<!-- Node6&#45;&gt;Node5 -->
<g id="edge6_Node000005_Node000006" class="edge">
<title>Node6&#45;&gt;Node5</title>
<g id="a_edge6_Node000005_Node000006"><a xlink:title=" ">
<path fill="none" stroke="#9a32cd" stroke-dasharray="5,2" d="M318.29,-192.9C352.89,-185.77 396.69,-176.74 429.26,-170.03"/>
<polygon fill="#9a32cd" stroke="#9a32cd" points="317.41,-189.51 308.33,-194.95 318.83,-196.36 317.41,-189.51"/>
</a>
</g>
<text text-anchor="middle" x="369.5" y="-189.5" font-family="Helvetica,sans-Serif" font-size="10.00" fill="grey"> policy</text>
</g>
<!-- Node7 -->
<g id="Node000007" class="node">
<title>Node7</title>
<g id="a_Node000007"><a xlink:href="group__security.html#structSocketTLSContext__T" target="_top" xlink:title="TLS context structure for managing OpenSSL SSL_CTX with secure defaults, certificates,...">
<polygon fill="white" stroke="#666666" points="532,-56 421,-56 421,-37 532,-37 532,-56"/>
<text text-anchor="middle" x="476.5" y="-44" font-family="Helvetica,sans-Serif" font-size="10.00">SocketTLSContext_T</text>
</a>
</g>
</g>
<!-- Node7&#45;&gt;Node2 -->
<g id="edge9_Node000002_Node000007" class="edge">
<title>Node7&#45;&gt;Node2</title>
<g id="a_edge9_Node000002_Node000007"><a xlink:title=" ">
<path fill="none" stroke="#9a32cd" stroke-dasharray="5,2" d="M542.02,-53.24C574.56,-59.65 612.61,-72.15 639,-96.5 654.83,-111.11 641.43,-126.62 657,-141.5 661.78,-146.07 667.72,-149.55 673.9,-152.19"/>
<polygon fill="#9a32cd" stroke="#9a32cd" points="542.58,-49.79 532.12,-51.44 541.33,-56.67 542.58,-49.79"/>
</a>
</g>
<text text-anchor="middle" x="600.5" y="-99.5" font-family="Helvetica,sans-Serif" font-size="10.00" fill="grey"> tls_ctx</text>
</g>
<!-- Node7&#45;&gt;Node7 -->
<g id="edge12_Node000007_Node000007" class="edge">
<title>Node7&#45;&gt;Node7</title>
<g id="a_edge12_Node000007_Node000007"><a xlink:title=" ">
<path fill="none" stroke="#9a32cd" stroke-dasharray="5,2" d="M456.87,-65.55C458.18,-70.38 464.73,-74 476.5,-74 495.34,-74 500.79,-64.73 492.84,-56.08"/>
<polygon fill="#9a32cd" stroke="#9a32cd" points="460.19,-66.68 460.16,-56.08 453.57,-64.38 460.19,-66.68"/>
</a>
</g>
<text text-anchor="middle" x="476.5" y="-77" font-family="Helvetica,sans-Serif" font-size="10.00" fill="grey"> verify_callback</text>
</g>
<!-- Node8 -->
<g id="Node000008" class="node">
<title>Node8</title>
<g id="a_Node000008"><a xlink:href="structTLSContextSNICerts.html" target="_top" xlink:title="Structure for managing SNI certificate mappings in TLS context.">
<polygon fill="white" stroke="#666666" points="316,-19 206,-19 206,0 316,0 316,-19"/>
<text text-anchor="middle" x="261" y="-7" font-family="Helvetica,sans-Serif" font-size="10.00">TLSContextSNICerts</text>
</a>
</g>
</g>
<!-- Node8&#45;&gt;Node7 -->
<g id="edge10_Node000007_Node000008" class="edge">
<title>Node8&#45;&gt;Node7</title>
<g id="a_edge10_Node000007_Node000008"><a xlink:title=" ">
<path fill="none" stroke="#9a32cd" stroke-dasharray="5,2" d="M326.25,-20.37C346.93,-23.89 369.94,-27.83 391,-31.5 400.98,-33.24 411.62,-35.11 421.87,-36.92"/>
<polygon fill="#9a32cd" stroke="#9a32cd" points="326.75,-16.9 316.31,-18.68 325.58,-23.81 326.75,-16.9"/>
</a>
</g>
<text text-anchor="middle" x="369.5" y="-34.5" font-family="Helvetica,sans-Serif" font-size="10.00" fill="grey"> sni_certs</text>
</g>
<!-- Node9 -->
<g id="Node000009" class="node">
<title>Node9</title>
<g id="a_Node000009"><a xlink:href="group__security.html#structTLSContextALPN" target="_top" xlink:title="Configuration for ALPN protocol negotiation.">
<polygon fill="white" stroke="#666666" points="308.5,-93 213.5,-93 213.5,-74 308.5,-74 308.5,-93"/>
<text text-anchor="middle" x="261" y="-81" font-family="Helvetica,sans-Serif" font-size="10.00">TLSContextALPN</text>
</a>
</g>
</g>
<!-- Node9&#45;&gt;Node7 -->
<g id="edge11_Node000007_Node000009" class="edge">
<title>Node9&#45;&gt;Node7</title>
<g id="a_edge11_Node000007_Node000009"><a xlink:title=" ">
<path fill="none" stroke="#9a32cd" stroke-dasharray="5,2" d="M318.66,-73.92C341.18,-70.09 367.32,-65.62 391,-61.5 400.98,-59.76 411.62,-57.89 421.87,-56.08"/>
<polygon fill="#9a32cd" stroke="#9a32cd" points="317.86,-70.51 308.59,-75.63 319.03,-77.41 317.86,-70.51"/>
</a>
</g>
<text text-anchor="middle" x="369.5" y="-72.5" font-family="Helvetica,sans-Serif" font-size="10.00" fill="grey"> alpn</text>
</g>
<!-- Node10 -->
<g id="Node000010" class="node">
<title>Node10</title>
<g id="a_Node000010"><a xlink:href="group__security.html#structTLSContextPinning" target="_top" xlink:title="TLSContextPinning &#45; Certificate pinning configuration.">
<polygon fill="white" stroke="#666666" points="311.5,-56 210.5,-56 210.5,-37 311.5,-37 311.5,-56"/>
<text text-anchor="middle" x="261" y="-44" font-family="Helvetica,sans-Serif" font-size="10.00">TLSContextPinning</text>
</a>
</g>
</g>
<!-- Node10&#45;&gt;Node7 -->
<g id="edge13_Node000007_Node000010" class="edge">
<title>Node10&#45;&gt;Node7</title>
<g id="a_edge13_Node000007_Node000010"><a xlink:title=" ">
<path fill="none" stroke="#9a32cd" stroke-dasharray="5,2" d="M321.76,-46.5C352.76,-46.5 390.36,-46.5 420.62,-46.5"/>
<polygon fill="#9a32cd" stroke="#9a32cd" points="321.52,-43 311.52,-46.5 321.52,-50 321.52,-43"/>
</a>
</g>
<text text-anchor="middle" x="369.5" y="-49.5" font-family="Helvetica,sans-Serif" font-size="10.00" fill="grey"> pinning</text>
</g>
<!-- Node11 -->
<g id="Node000011" class="node">
<title>Node11</title>
<g id="a_Node000011"><a xlink:href="group__security.html#structTLSCertPin" target="_top" xlink:title="TLSCertPin &#45; Single certificate pin entry (SPKI SHA256 hash)">
<polygon fill="white" stroke="#666666" points="83.5,-56 15.5,-56 15.5,-37 83.5,-37 83.5,-56"/>
<text text-anchor="middle" x="49.5" y="-44" font-family="Helvetica,sans-Serif" font-size="10.00">TLSCertPin</text>
</a>
</g>
</g>
<!-- Node11&#45;&gt;Node10 -->
<g id="edge14_Node000010_Node000011" class="edge">
<title>Node11&#45;&gt;Node10</title>
<g id="a_edge14_Node000010_Node000011"><a xlink:title=" ">
<path fill="none" stroke="#9a32cd" stroke-dasharray="5,2" d="M93.75,-46.5C127.61,-46.5 174.74,-46.5 210.18,-46.5"/>
<polygon fill="#9a32cd" stroke="#9a32cd" points="93.7,-43 83.7,-46.5 93.7,-50 93.7,-43"/>
</a>
</g>
<text text-anchor="middle" x="145.5" y="-49.5" font-family="Helvetica,sans-Serif" font-size="10.00" fill="grey"> pins</text>
</g>
<!-- Node12 -->
<g id="Node000012" class="node">
<title>Node12</title>
<g id="a_Node000012"><a xlink:href="group__dns.html#structSocketDNS__T" target="_top" xlink:title="Async DNS resolver structure.">
<polygon fill="white" stroke="#666666" points="752.5,-133 672.5,-133 672.5,-114 752.5,-114 752.5,-133"/>
<text text-anchor="middle" x="712.5" y="-121" font-family="Helvetica,sans-Serif" font-size="10.00">SocketDNS_T</text>
</a>
</g>
</g>
<!-- Node12&#45;&gt;Node1 -->
<g id="edge16_Node000001_Node000012" class="edge">
<title>Node12&#45;&gt;Node1</title>
<g id="a_edge16_Node000001_Node000012"><a xlink:title=" ">
<path fill="none" stroke="#9a32cd" stroke-dasharray="5,2" d="M762.3,-135.53C788.42,-143.51 820.23,-155.83 845,-173.5 876.74,-196.15 904.54,-233.99 916.61,-251.74"/>
<polygon fill="#9a32cd" stroke="#9a32cd" points="763.17,-132.14 752.59,-132.68 761.2,-138.85 763.17,-132.14"/>
</a>
</g>
<text text-anchor="middle" x="815.5" y="-176.5" font-family="Helvetica,sans-Serif" font-size="10.00" fill="grey"> dns</text>
</g>
<!-- Node13 -->
<g id="Node000013" class="node">
<title>Node13</title>
<g id="a_Node000013"><a xlink:href="group__dns.html#structSocketDNS__Request__T" target="_top" xlink:title="DNS resolution request structure.">
<polygon fill="white" stroke="#666666" points="985,-108 863,-108 863,-89 985,-89 985,-108"/>
<text text-anchor="middle" x="924" y="-96" font-family="Helvetica,sans-Serif" font-size="10.00">SocketDNS_Request_T</text>
</a>
</g>
</g>
<!-- Node12&#45;&gt;Node13 -->
<g id="edge19_Node000013_Node000012" class="edge">
<title>Node12&#45;&gt;Node13</title>
<g id="a_edge19_Node000013_Node000012"><a xlink:title=" ">
<path fill="none" stroke="#9a32cd" stroke-dasharray="5,2" d="M763.09,-117.58C792.95,-114.02 831.16,-109.46 862.75,-105.69"/>
<polygon fill="#9a32cd" stroke="#9a32cd" points="762.42,-114.14 752.91,-118.8 763.25,-121.09 762.42,-114.14"/>
</a>
</g>
<text text-anchor="middle" x="815.5" y="-118.5" font-family="Helvetica,sans-Serif" font-size="10.00" fill="grey"> dns_resolver</text>
</g>
<!-- Node13&#45;&gt;Node12 -->
<g id="edge17_Node000012_Node000013" class="edge">
<title>Node13&#45;&gt;Node12</title>
<g id="a_edge17_Node000012_Node000013"><a xlink:title=" ">
<path fill="none" stroke="#9a32cd" stroke-dasharray="5,2" d="M894.82,-84.78C866.78,-73.01 822.75,-59.68 786,-71.5 760.05,-79.85 735.51,-101.29 722.71,-113.88"/>
<polygon fill="#9a32cd" stroke="#9a32cd" points="893.47,-88.01 904.04,-88.83 896.29,-81.6 893.47,-88.01"/>
</a>
</g>
<text text-anchor="middle" x="815.5" y="-96.5" font-family="Helvetica,sans-Serif" font-size="10.00" fill="grey"> queue_head</text>
<text text-anchor="middle" x="815.5" y="-85.5" font-family="Helvetica,sans-Serif" font-size="10.00" fill="grey">queue_tail</text>
<text text-anchor="middle" x="815.5" y="-74.5" font-family="Helvetica,sans-Serif" font-size="10.00" fill="grey">request_hash</text>
</g>
<!-- Node13&#45;&gt;Node13 -->
<g id="edge18_Node000013_Node000013" class="edge">
<title>Node13&#45;&gt;Node13</title>
<g id="a_edge18_Node000013_Node000013"><a xlink:title=" ">
<path fill="none" stroke="#9a32cd" stroke-dasharray="5,2" d="M904,-117.55C905.34,-122.38 912,-126 924,-126 943.2,-126 948.74,-116.73 940.65,-108.08"/>
<polygon fill="#9a32cd" stroke="#9a32cd" points="907.32,-118.68 907.35,-108.08 900.72,-116.34 907.32,-118.68"/>
</a>
</g>
<text text-anchor="middle" x="924" y="-151" font-family="Helvetica,sans-Serif" font-size="10.00" fill="grey"> callback</text>
<text text-anchor="middle" x="924" y="-140" font-family="Helvetica,sans-Serif" font-size="10.00" fill="grey">hash_next</text>
<text text-anchor="middle" x="924" y="-129" font-family="Helvetica,sans-Serif" font-size="10.00" fill="grey">queue_next</text>
</g>
<!-- Node14 -->
<g id="Node000014" class="node">
<title>Node14</title>
<g id="a_Node000014"><a xlink:href="SocketRateLimit-private_8h.html#structSocketRateLimit__T" target="_top" xlink:title=" ">
<polygon fill="white" stroke="#666666" points="527,-292 426,-292 426,-273 527,-273 527,-292"/>
<text text-anchor="middle" x="476.5" y="-280" font-family="Helvetica,sans-Serif" font-size="10.00">SocketRateLimit_T</text>
</a>
</g>
</g>
<!-- Node14&#45;&gt;Node1 -->
<g id="edge21_Node000001_Node000014" class="edge">
<title>Node14&#45;&gt;Node1</title>
<g id="a_edge21_Node000001_Node000014"><a xlink:title=" ">
<path fill="none" stroke="#9a32cd" stroke-dasharray="5,2" d="M537.41,-279.68C630.49,-275.29 807.19,-266.96 884.81,-263.3"/>
<polygon fill="#9a32cd" stroke="#9a32cd" points="537.13,-276.19 527.31,-280.15 537.46,-283.18 537.13,-276.19"/>
</a>
</g>
<text text-anchor="middle" x="712.5" y="-277.5" font-family="Helvetica,sans-Serif" font-size="10.00" fill="grey"> conn_limiter</text>
</g>
<!-- Node15 -->
<g id="Node000015" class="node">
<title>Node15</title>
<g id="a_Node000015"><a xlink:href="group__security.html#structSocketSYNProtect__T" target="_top" xlink:title="Core internal structure for the SYN protection module.">
<polygon fill="white" stroke="#666666" points="768,-361 657,-361 657,-342 768,-342 768,-361"/>
<text text-anchor="middle" x="712.5" y="-349" font-family="Helvetica,sans-Serif" font-size="10.00">SocketSYNProtect_T</text>
</a>
</g>
</g>
<!-- Node14&#45;&gt;Node15 -->
<g id="edge29_Node000015_Node000014" class="edge">
<title>Node14&#45;&gt;Node15</title>
<g id="a_edge29_Node000015_Node000014"><a xlink:title=" ">
<path fill="none" stroke="#9a32cd" stroke-dasharray="5,2" d="M537.21,-292.12C568.05,-297.92 606.04,-306.36 639,-317.5 658.49,-324.09 679.68,-334.42 694.08,-341.97"/>
<polygon fill="#9a32cd" stroke="#9a32cd" points="537.51,-288.62 527.04,-290.25 536.25,-295.5 537.51,-288.62"/>
</a>
</g>
<text text-anchor="middle" x="600.5" y="-320.5" font-family="Helvetica,sans-Serif" font-size="10.00" fill="grey"> global_limiter</text>
</g>
<!-- Node15&#45;&gt;Node1 -->
<g id="edge22_Node000001_Node000015" class="edge">
<title>Node15&#45;&gt;Node1</title>
<g id="a_edge22_Node000001_Node000015"><a xlink:title=" ">
<path fill="none" stroke="#9a32cd" stroke-dasharray="5,2" d="M748.05,-338.23C774.71,-327.83 812.42,-312.78 845,-298.5 865.18,-289.66 887.9,-278.77 903.59,-271.1"/>
<polygon fill="#9a32cd" stroke="#9a32cd" points="746.46,-335.09 738.41,-341.97 748.99,-341.62 746.46,-335.09"/>
</a>
</g>
<text text-anchor="middle" x="815.5" y="-326.5" font-family="Helvetica,sans-Serif" font-size="10.00" fill="grey"> syn_protect</text>
</g>
<!-- Node16 -->
<g id="Node000016" class="node">
<title>Node16</title>
<g id="a_Node000016"><a xlink:href="group__security.html#structSocketSYN__IPEntry" target="_top" xlink:title="Internal IP tracking entry for hash table and LRU management.">
<polygon fill="white" stroke="#666666" points="530,-329 423,-329 423,-310 530,-310 530,-329"/>
<text text-anchor="middle" x="476.5" y="-317" font-family="Helvetica,sans-Serif" font-size="10.00">SocketSYN_IPEntry</text>
</a>
</g>
</g>
<!-- Node16&#45;&gt;Node15 -->
<g id="edge23_Node000015_Node000016" class="edge">
<title>Node16&#45;&gt;Node15</title>
<g id="a_edge23_Node000015_Node000016"><a xlink:title=" ">
<path fill="none" stroke="#9a32cd" stroke-dasharray="5,2" d="M540.01,-328.05C576.37,-333.02 621.77,-339.23 656.72,-344.01"/>
<polygon fill="#9a32cd" stroke="#9a32cd" points="540.4,-324.57 530.01,-326.68 539.45,-331.5 540.4,-324.57"/>
</a>
</g>
<text text-anchor="middle" x="600.5" y="-366.5" font-family="Helvetica,sans-Serif" font-size="10.00" fill="grey"> ip_table</text>
<text text-anchor="middle" x="600.5" y="-355.5" font-family="Helvetica,sans-Serif" font-size="10.00" fill="grey">lru_head</text>
<text text-anchor="middle" x="600.5" y="-344.5" font-family="Helvetica,sans-Serif" font-size="10.00" fill="grey">lru_tail</text>
</g>
<!-- Node16&#45;&gt;Node16 -->
<g id="edge24_Node000016_Node000016" class="edge">
<title>Node16&#45;&gt;Node16</title>
<g id="a_edge24_Node000016_Node000016"><a xlink:title=" ">
<path fill="none" stroke="#9a32cd" stroke-dasharray="5,2" d="M456.87,-338.55C458.18,-343.38 464.73,-347 476.5,-347 495.34,-347 500.79,-337.73 492.84,-329.08"/>
<polygon fill="#9a32cd" stroke="#9a32cd" points="460.19,-339.68 460.16,-329.08 453.57,-337.38 460.19,-339.68"/>
</a>
</g>
<text text-anchor="middle" x="476.5" y="-372" font-family="Helvetica,sans-Serif" font-size="10.00" fill="grey"> hash_next</text>
<text text-anchor="middle" x="476.5" y="-361" font-family="Helvetica,sans-Serif" font-size="10.00" fill="grey">lru_next</text>
<text text-anchor="middle" x="476.5" y="-350" font-family="Helvetica,sans-Serif" font-size="10.00" fill="grey">lru_prev</text>
</g>
<!-- Node17 -->
<g id="Node000017" class="node">
<title>Node17</title>
<g id="a_Node000017"><a xlink:href="group__security.html#structSocketSYN__WhitelistEntry" target="_top" xlink:title="Structure for whitelist entries supporting single IPs and CIDR ranges.">
<polygon fill="white" stroke="#666666" points="544,-483 409,-483 409,-464 544,-464 544,-483"/>
<text text-anchor="middle" x="476.5" y="-471" font-family="Helvetica,sans-Serif" font-size="10.00">SocketSYN_WhitelistEntry</text>
</a>
</g>
</g>
<!-- Node17&#45;&gt;Node15 -->
<g id="edge25_Node000015_Node000017" class="edge">
<title>Node17&#45;&gt;Node15</title>
<g id="a_edge25_Node000015_Node000017"><a xlink:title=" ">
<path fill="none" stroke="#9a32cd" stroke-dasharray="5,2" d="M527.61,-461.02C533.19,-459.31 538.75,-457.46 544,-455.5 587.94,-439.08 599.32,-434.53 639,-409.5 662.45,-394.71 687.12,-373.61 700.78,-361.36"/>
<polygon fill="#9a32cd" stroke="#9a32cd" points="526.24,-457.77 517.62,-463.94 528.2,-464.49 526.24,-457.77"/>
</a>
</g>
<text text-anchor="middle" x="600.5" y="-450.5" font-family="Helvetica,sans-Serif" font-size="10.00" fill="grey"> whitelist_table</text>
</g>
<!-- Node17&#45;&gt;Node17 -->
<g id="edge26_Node000017_Node000017" class="edge">
<title>Node17&#45;&gt;Node17</title>
<g id="a_edge26_Node000017_Node000017"><a xlink:title=" ">
<path fill="none" stroke="#9a32cd" stroke-dasharray="5,2" d="M456.87,-492.55C458.18,-497.38 464.73,-501 476.5,-501 495.34,-501 500.79,-491.73 492.84,-483.08"/>
<polygon fill="#9a32cd" stroke="#9a32cd" points="460.19,-493.68 460.16,-483.08 453.57,-491.38 460.19,-493.68"/>
</a>
</g>
<text text-anchor="middle" x="476.5" y="-504" font-family="Helvetica,sans-Serif" font-size="10.00" fill="grey"> next</text>
</g>
<!-- Node18 -->
<g id="Node000018" class="node">
<title>Node18</title>
<g id="a_Node000018"><a xlink:href="group__security.html#structSocketSYN__BlacklistEntry" target="_top" xlink:title="Internal structure for blacklisted IP addresses with expiry support.">
<polygon fill="white" stroke="#666666" points="543.5,-417 409.5,-417 409.5,-398 543.5,-398 543.5,-417"/>
<text text-anchor="middle" x="476.5" y="-405" font-family="Helvetica,sans-Serif" font-size="10.00">SocketSYN_BlacklistEntry</text>
</a>
</g>
</g>
<!-- Node18&#45;&gt;Node15 -->
<g id="edge27_Node000015_Node000018" class="edge">
<title>Node18&#45;&gt;Node15</title>
<g id="a_edge27_Node000015_Node000018"><a xlink:title=" ">
<path fill="none" stroke="#9a32cd" stroke-dasharray="5,2" d="M553.91,-396.66C581.02,-392.06 611.59,-386 639,-378.5 656.1,-373.82 674.84,-366.79 688.99,-361.07"/>
<polygon fill="#9a32cd" stroke="#9a32cd" points="553,-393.26 543.71,-398.35 554.15,-400.17 553,-393.26"/>
</a>
</g>
<text text-anchor="middle" x="600.5" y="-397.5" font-family="Helvetica,sans-Serif" font-size="10.00" fill="grey"> blacklist_table</text>
</g>
<!-- Node18&#45;&gt;Node18 -->
<g id="edge28_Node000018_Node000018" class="edge">
<title>Node18&#45;&gt;Node18</title>
<g id="a_edge28_Node000018_Node000018"><a xlink:title=" ">
<path fill="none" stroke="#9a32cd" stroke-dasharray="5,2" d="M456.87,-426.55C458.18,-431.38 464.73,-435 476.5,-435 495.34,-435 500.79,-425.73 492.84,-417.08"/>
<polygon fill="#9a32cd" stroke="#9a32cd" points="460.19,-427.68 460.16,-417.08 453.57,-425.38 460.19,-427.68"/>
</a>
</g>
<text text-anchor="middle" x="476.5" y="-438" font-family="Helvetica,sans-Serif" font-size="10.00" fill="grey"> next</text>
</g>
</g>
</svg>

<g id="navigator" transform="translate(0 0)" fill="#404254">
  <rect fill="#f2f5e9" fill-opacity="0.5" stroke="#606060" stroke-width=".5" x="0" y="0" width="60" height="60"/>
  <use id="zoomplus" xlink:href="#zoomPlus" x="17" y="9" onmousedown="handleZoom(evt,'in')"/>
  <use id="zoomminus" xlink:href="#zoomMin" x="42" y="9" onmousedown="handleZoom(evt,'out')"/>
  <use id="reset" xlink:href="#resetDef" x="30" y="36" onmousedown="handleReset()"/>
   <use id="arrowup" xlink:href="#arrowUp" x="0" y="0" onmousedown="handlePan(0,-1)"/>
  <use id="arrowright" xlink:href="#arrowRight" x="0" y="0" onmousedown="handlePan(1,0)"/>
  <use id="arrowdown" xlink:href="#arrowDown" x="0" y="0" onmousedown="handlePan(0,1)"/>
  <use id="arrowleft" xlink:href="#arrowLeft" x="0" y="0" onmousedown="handlePan(-1,0)"/>
</g>
<svg viewBox="0 0 15 15" width="100%" height="30px" preserveAspectRatio="xMaxYMin meet">
 <g id="arrow_out" transform="scale(0.3 0.3)">
  <a xlink:href="structSocketPool__T__coll__graph_org.svg" target="_base">
   <rect id="button" ry="5" rx="5" y="6" x="6" height="38" width="38"
        fill="#f2f5e9" fill-opacity="0.5" stroke="#606060" stroke-width="1.0"/>
   <path id="arrow"
     d="M 11.500037,31.436501 C 11.940474,20.09759 22.043105,11.32322 32.158766,21.979434 L 37.068811,17.246167 C 37.068811,17.246167 37.088388,32 37.088388,32 L 22.160133,31.978069 C 22.160133,31.978069 26.997745,27.140456 26.997745,27.140456 C 18.528582,18.264221 13.291696,25.230495 11.500037,31.436501 z"
     style="fill:#404040;"/>
  </a>
 </g>
</svg>

<style type='text/css'>
<![CDATA[
[data-mouse-over-selected='false'] { opacity: 0.7; }
[data-mouse-over-selected='true']  { opacity: 1.0; }
]]>
</style>
<script type="application/ecmascript"><![CDATA[
document.addEventListener('DOMContentLoaded', (event) => {
  highlightEdges();
  highlightAdjacentNodes();
});
]]></script>
</svg>
