<?xml version="1.0" encoding="UTF-8" standalone="no"?>
<!DOCTYPE svg PUBLIC "-//W3C//DTD SVG 1.1//EN"
 "http://www.w3.org/Graphics/SVG/1.1/DTD/svg11.dtd">
<!-- Generated by graphviz version 2.43.0 (0)
 -->
<!-- Title: SocketSYNProtect_T Pages: 1 -->
<!--zoomable 284 -->

<svg id="main" version="1.1" xmlns="http://www.w3.org/2000/svg" xmlns:xlink="http://www.w3.org/1999/xlink" xml:space="preserve" onload="init(evt)">
<style type="text/css"><![CDATA[
.node, .edge {opacity: 0.7;}
.node.selected, .edge.selected {opacity: 1;}
.edge:hover path { stroke: red; }
.edge:hover polygon { stroke: red; fill: red; }
]]></style>

<defs>
  <circle id="rim" cx="0" cy="0" r="7"/>
  <circle id="rim2" cx="0" cy="0" r="3.5"/>
  <g id="zoomPlus">
    <use xlink:href="#rim" fill="#404040"><set attributeName="fill" to="#808080" begin="zoomplus.mouseover" end="zoomplus.mouseout"/></use>
    <path d="M-4,0h8M0,-4v8" fill="none" stroke="white" stroke-width="1.5" pointer-events="none"/>
  </g>
  <g id="zoomMin">
    <use xlink:href="#rim" fill="#404040"><set attributeName="fill" to="#808080" begin="zoomminus.mouseover" end="zoomminus.mouseout"/></use>
    <path d="M-4,0h8" fill="none" stroke="white" stroke-width="1.5" pointer-events="none"/>
  </g>
  <g id="arrowUp" transform="translate(30 24)">
    <use xlink:href="#rim"/>
    <path pointer-events="none" fill="none" stroke="white" stroke-width="1.5" d="M0,-3.0v7 M-2.5,-0.5L0,-3.0L2.5,-0.5"/>
  </g>
  <g id="arrowRight" transform="rotate(90) translate(36 -43)">
    <use xlink:href="#rim"/>
    <path pointer-events="none" fill="none" stroke="white" stroke-width="1.5" d="M0,-3.0v7 M-2.5,-0.5L0,-3.0L2.5,-0.5"/>
  </g>
  <g id="arrowDown" transform="rotate(180) translate(-30 -48)">
    <use xlink:href="#rim"/>
    <path pointer-events="none" fill="none" stroke="white" stroke-width="1.5" d="M0,-3.0v7 M-2.5,-0.5L0,-3.0L2.5,-0.5"/>
  </g>
  <g id="arrowLeft" transform="rotate(270) translate(-36 17)">
    <use xlink:href="#rim"/>
    <path pointer-events="none" fill="none" stroke="white" stroke-width="1.5" d="M0,-3.0v7 M-2.5,-0.5L0,-3.0L2.5,-0.5"/>
  </g>
  <g id="resetDef">
    <use xlink:href="#rim2" fill="#404040"><set attributeName="fill" to="#808080" begin="reset.mouseover" end="reset.mouseout"/></use>
  </g>
</defs>
<script type="application/ecmascript">
var viewWidth = 524;
var viewHeight = 284;
var sectionId = 'dynsection-4';
</script>
<script type="application/ecmascript" xlink:href="svg.min.js"/>
<svg id="graph" class="graph">
<g id="viewport">
<title>SocketSYNProtect_T</title>
<!-- Node1 -->
<g id="Node000001" class="node">
<title>Node1</title>
<g id="a_Node000001"><a xlink:title="Core internal structure for the SYN protection module.">
<polygon fill="#999999" stroke="#666666" points="516,-122 405,-122 405,-103 516,-103 516,-122"/>
<text text-anchor="middle" x="460.5" y="-110" font-family="Helvetica,sans-Serif" font-size="10.00">SocketSYNProtect_T</text>
</a>
</g>
</g>
<!-- Node2 -->
<g id="Node000002" class="node">
<title>Node2</title>
<g id="a_Node000002"><a xlink:href="group__security.html#structSocketSYNProtect__Config" target="_top" xlink:title="Configuration parameters for SYN flood protection.">
<polygon fill="white" stroke="#666666" points="302.5,-276 168.5,-276 168.5,-257 302.5,-257 302.5,-276"/>
<text text-anchor="middle" x="235.5" y="-264" font-family="Helvetica,sans-Serif" font-size="10.00">SocketSYNProtect_Config</text>
</a>
</g>
</g>
<!-- Node2&#45;&gt;Node1 -->
<g id="edge1_Node000001_Node000002" class="edge">
<title>Node2&#45;&gt;Node1</title>
<g id="a_edge1_Node000001_Node000002"><a xlink:title=" ">
<path fill="none" stroke="#9a32cd" stroke-dasharray="5,2" d="M290.01,-253.75C294.48,-252.17 298.86,-250.42 303,-248.5 344.16,-229.41 352.69,-220.18 387,-190.5 412.73,-168.25 438.93,-137.69 451.63,-122.26"/>
<polygon fill="#9a32cd" stroke="#9a32cd" points="288.6,-250.53 280.19,-256.96 290.78,-257.18 288.6,-250.53"/>
</a>
</g>
<text text-anchor="middle" x="354" y="-241.5" font-family="Helvetica,sans-Serif" font-size="10.00" fill="grey"> config</text>
</g>
<!-- Node3 -->
<g id="Node000003" class="node">
<title>Node3</title>
<g id="a_Node000003"><a xlink:href="group__security.html#structSocketSYN__IPEntry" target="_top" xlink:title="Internal IP tracking entry for hash table and LRU management.">
<polygon fill="white" stroke="#666666" points="289,-188 182,-188 182,-169 289,-169 289,-188"/>
<text text-anchor="middle" x="235.5" y="-176" font-family="Helvetica,sans-Serif" font-size="10.00">SocketSYN_IPEntry</text>
</a>
</g>
</g>
<!-- Node3&#45;&gt;Node1 -->
<g id="edge2_Node000001_Node000003" class="edge">
<title>Node3&#45;&gt;Node1</title>
<g id="a_edge2_Node000001_Node000003"><a xlink:title=" ">
<path fill="none" stroke="#9a32cd" stroke-dasharray="5,2" d="M280.18,-166.11C287.79,-163.93 295.63,-161.66 303,-159.5 346.42,-146.78 396.49,-131.66 428.06,-122.08"/>
<polygon fill="#9a32cd" stroke="#9a32cd" points="279.01,-162.81 270.36,-168.92 280.93,-169.54 279.01,-162.81"/>
</a>
</g>
<text text-anchor="middle" x="354" y="-178.5" font-family="Helvetica,sans-Serif" font-size="10.00" fill="grey"> ip_table</text>
<text text-anchor="middle" x="354" y="-167.5" font-family="Helvetica,sans-Serif" font-size="10.00" fill="grey">lru_head</text>
<text text-anchor="middle" x="354" y="-156.5" font-family="Helvetica,sans-Serif" font-size="10.00" fill="grey">lru_tail</text>
</g>
<!-- Node3&#45;&gt;Node3 -->
<g id="edge4_Node000003_Node000003" class="edge">
<title>Node3&#45;&gt;Node3</title>
<g id="a_edge4_Node000003_Node000003"><a xlink:title=" ">
<path fill="none" stroke="#9a32cd" stroke-dasharray="5,2" d="M217.45,-197.91C218.87,-202.56 224.89,-206 235.5,-206 252.92,-206 257.95,-196.73 250.6,-188.08"/>
<polygon fill="#9a32cd" stroke="#9a32cd" points="220.88,-198.67 220.4,-188.08 214.17,-196.66 220.88,-198.67"/>
</a>
</g>
<text text-anchor="middle" x="235.5" y="-231" font-family="Helvetica,sans-Serif" font-size="10.00" fill="grey"> hash_next</text>
<text text-anchor="middle" x="235.5" y="-220" font-family="Helvetica,sans-Serif" font-size="10.00" fill="grey">lru_next</text>
<text text-anchor="middle" x="235.5" y="-209" font-family="Helvetica,sans-Serif" font-size="10.00" fill="grey">lru_prev</text>
</g>
<!-- Node4 -->
<g id="Node000004" class="node">
<title>Node4</title>
<g id="a_Node000004"><a xlink:href="group__security.html#structSocketSYN__IPState" target="_top" xlink:title="Per&#45;IP address tracking and reputation state.">
<polygon fill="white" stroke="#666666" points="107,-188 0,-188 0,-169 107,-169 107,-188"/>
<text text-anchor="middle" x="53.5" y="-176" font-family="Helvetica,sans-Serif" font-size="10.00">SocketSYN_IPState</text>
</a>
</g>
</g>
<!-- Node4&#45;&gt;Node3 -->
<g id="edge3_Node000003_Node000004" class="edge">
<title>Node4&#45;&gt;Node3</title>
<g id="a_edge3_Node000003_Node000004"><a xlink:title=" ">
<path fill="none" stroke="#9a32cd" stroke-dasharray="5,2" d="M117.21,-178.5C138.32,-178.5 161.64,-178.5 181.89,-178.5"/>
<polygon fill="#9a32cd" stroke="#9a32cd" points="117.05,-175 107.05,-178.5 117.05,-182 117.05,-175"/>
</a>
</g>
<text text-anchor="middle" x="137.5" y="-181.5" font-family="Helvetica,sans-Serif" font-size="10.00" fill="grey"> state</text>
</g>
<!-- Node5 -->
<g id="Node000005" class="node">
<title>Node5</title>
<g id="a_Node000005"><a xlink:href="group__security.html#structSocketSYN__WhitelistEntry" target="_top" xlink:title="Structure for whitelist entries supporting single IPs and CIDR ranges.">
<polygon fill="white" stroke="#666666" points="303,-122 168,-122 168,-103 303,-103 303,-122"/>
<text text-anchor="middle" x="235.5" y="-110" font-family="Helvetica,sans-Serif" font-size="10.00">SocketSYN_WhitelistEntry</text>
</a>
</g>
</g>
<!-- Node5&#45;&gt;Node1 -->
<g id="edge5_Node000001_Node000005" class="edge">
<title>Node5&#45;&gt;Node1</title>
<g id="a_edge5_Node000001_Node000005"><a xlink:title=" ">
<path fill="none" stroke="#9a32cd" stroke-dasharray="5,2" d="M313.17,-112.5C343.33,-112.5 377.26,-112.5 404.85,-112.5"/>
<polygon fill="#9a32cd" stroke="#9a32cd" points="313.11,-109 303.11,-112.5 313.11,-116 313.11,-109"/>
</a>
</g>
<text text-anchor="middle" x="354" y="-115.5" font-family="Helvetica,sans-Serif" font-size="10.00" fill="grey"> whitelist_table</text>
</g>
<!-- Node5&#45;&gt;Node5 -->
<g id="edge6_Node000005_Node000005" class="edge">
<title>Node5&#45;&gt;Node5</title>
<g id="a_edge6_Node000005_Node000005"><a xlink:title=" ">
<path fill="none" stroke="#9a32cd" stroke-dasharray="5,2" d="M217.45,-131.91C218.87,-136.56 224.89,-140 235.5,-140 252.92,-140 257.95,-130.73 250.6,-122.08"/>
<polygon fill="#9a32cd" stroke="#9a32cd" points="220.88,-132.67 220.4,-122.08 214.17,-130.66 220.88,-132.67"/>
</a>
</g>
<text text-anchor="middle" x="235.5" y="-143" font-family="Helvetica,sans-Serif" font-size="10.00" fill="grey"> next</text>
</g>
<!-- Node6 -->
<g id="Node000006" class="node">
<title>Node6</title>
<g id="a_Node000006"><a xlink:href="group__security.html#structSocketSYN__BlacklistEntry" target="_top" xlink:title="Internal structure for blacklisted IP addresses with expiry support.">
<polygon fill="white" stroke="#666666" points="302.5,-56 168.5,-56 168.5,-37 302.5,-37 302.5,-56"/>
<text text-anchor="middle" x="235.5" y="-44" font-family="Helvetica,sans-Serif" font-size="10.00">SocketSYN_BlacklistEntry</text>
</a>
</g>
</g>
<!-- Node6&#45;&gt;Node1 -->
<g id="edge7_Node000001_Node000006" class="edge">
<title>Node6&#45;&gt;Node1</title>
<g id="a_edge7_Node000001_Node000006"><a xlink:title=" ">
<path fill="none" stroke="#9a32cd" stroke-dasharray="5,2" d="M278.59,-58.96C321.83,-71.76 388.21,-91.4 427.4,-103"/>
<polygon fill="#9a32cd" stroke="#9a32cd" points="279.51,-55.58 268.93,-56.1 277.52,-62.29 279.51,-55.58"/>
</a>
</g>
<text text-anchor="middle" x="354" y="-92.5" font-family="Helvetica,sans-Serif" font-size="10.00" fill="grey"> blacklist_table</text>
</g>
<!-- Node6&#45;&gt;Node6 -->
<g id="edge8_Node000006_Node000006" class="edge">
<title>Node6&#45;&gt;Node6</title>
<g id="a_edge8_Node000006_Node000006"><a xlink:title=" ">
<path fill="none" stroke="#9a32cd" stroke-dasharray="5,2" d="M217.45,-65.91C218.87,-70.56 224.89,-74 235.5,-74 252.92,-74 257.95,-64.73 250.6,-56.08"/>
<polygon fill="#9a32cd" stroke="#9a32cd" points="220.88,-66.67 220.4,-56.08 214.17,-64.66 220.88,-66.67"/>
</a>
</g>
<text text-anchor="middle" x="235.5" y="-77" font-family="Helvetica,sans-Serif" font-size="10.00" fill="grey"> next</text>
</g>
<!-- Node7 -->
<g id="Node000007" class="node">
<title>Node7</title>
<g id="a_Node000007"><a xlink:href="group__utilities.html#structSocketRateLimit__T" target="_top" xlink:title="Internal structure implementing the token bucket rate limiter.">
<polygon fill="white" stroke="#666666" points="286,-19 185,-19 185,0 286,0 286,-19"/>
<text text-anchor="middle" x="235.5" y="-7" font-family="Helvetica,sans-Serif" font-size="10.00">SocketRateLimit_T</text>
</a>
</g>
</g>
<!-- Node7&#45;&gt;Node1 -->
<g id="edge9_Node000001_Node000007" class="edge">
<title>Node7&#45;&gt;Node1</title>
<g id="a_edge9_Node000001_Node000007"><a xlink:title=" ">
<path fill="none" stroke="#9a32cd" stroke-dasharray="5,2" d="M283.93,-21.85C290.36,-23.66 296.86,-25.58 303,-27.5 340.83,-39.35 352.13,-38.63 387,-57.5 410.9,-70.43 435.41,-90.81 448.92,-102.8"/>
<polygon fill="#9a32cd" stroke="#9a32cd" points="284.5,-18.37 273.93,-19.08 282.63,-25.12 284.5,-18.37"/>
</a>
</g>
<text text-anchor="middle" x="354" y="-60.5" font-family="Helvetica,sans-Serif" font-size="10.00" fill="grey"> global_limiter</text>
</g>
</g>
</svg>

<g id="navigator" transform="translate(0 0)" fill="#404254">
  <rect fill="#f2f5e9" fill-opacity="0.5" stroke="#606060" stroke-width=".5" x="0" y="0" width="60" height="60"/>
  <use id="zoomplus" xlink:href="#zoomPlus" x="17" y="9" onmousedown="handleZoom(evt,'in')"/>
  <use id="zoomminus" xlink:href="#zoomMin" x="42" y="9" onmousedown="handleZoom(evt,'out')"/>
  <use id="reset" xlink:href="#resetDef" x="30" y="36" onmousedown="handleReset()"/>
   <use id="arrowup" xlink:href="#arrowUp" x="0" y="0" onmousedown="handlePan(0,-1)"/>
  <use id="arrowright" xlink:href="#arrowRight" x="0" y="0" onmousedown="handlePan(1,0)"/>
  <use id="arrowdown" xlink:href="#arrowDown" x="0" y="0" onmousedown="handlePan(0,1)"/>
  <use id="arrowleft" xlink:href="#arrowLeft" x="0" y="0" onmousedown="handlePan(-1,0)"/>
</g>
<svg viewBox="0 0 15 15" width="100%" height="30px" preserveAspectRatio="xMaxYMin meet">
 <g id="arrow_out" transform="scale(0.3 0.3)">
  <a xlink:href="structSocketSYNProtect__T__coll__graph_org.svg" target="_base">
   <rect id="button" ry="5" rx="5" y="6" x="6" height="38" width="38"
        fill="#f2f5e9" fill-opacity="0.5" stroke="#606060" stroke-width="1.0"/>
   <path id="arrow"
     d="M 11.500037,31.436501 C 11.940474,20.09759 22.043105,11.32322 32.158766,21.979434 L 37.068811,17.246167 C 37.068811,17.246167 37.088388,32 37.088388,32 L 22.160133,31.978069 C 22.160133,31.978069 26.997745,27.140456 26.997745,27.140456 C 18.528582,18.264221 13.291696,25.230495 11.500037,31.436501 z"
     style="fill:#404040;"/>
  </a>
 </g>
</svg>

<style type='text/css'>
<![CDATA[
[data-mouse-over-selected='false'] { opacity: 0.7; }
[data-mouse-over-selected='true']  { opacity: 1.0; }
]]>
</style>
<script type="application/ecmascript"><![CDATA[
document.addEventListener('DOMContentLoaded', (event) => {
  highlightEdges();
  highlightAdjacentNodes();
});
]]></script>
</svg>
