<?xml version="1.0" encoding="UTF-8" standalone="no"?>
<!DOCTYPE svg PUBLIC "-//W3C//DTD SVG 1.1//EN"
 "http://www.w3.org/Graphics/SVG/1.1/DTD/svg11.dtd">
<!-- Generated by graphviz version 2.43.0 (0)
 -->
<!-- Title: ServerConnection Pages: 1 -->
<svg width="286pt" height="228pt"
 viewBox="0.00 0.00 285.50 228.00" xmlns="http://www.w3.org/2000/svg" xmlns:xlink="http://www.w3.org/1999/xlink">

<svg id="main" version="1.1" xmlns="http://www.w3.org/2000/svg" xmlns:xlink="http://www.w3.org/1999/xlink" xml:space="preserve" onload="init(evt)">
<style type="text/css"><![CDATA[
.node, .edge {opacity: 0.7;}
.node.selected, .edge.selected {opacity: 1;}
.edge:hover path { stroke: red; }
.edge:hover polygon { stroke: red; fill: red; }
]]></style>
<script type="application/ecmascript" xlink:href="svg.min.js"/>
<svg id="graph" class="graph">
<g id="graph0" class="graph" transform="scale(1 1) rotate(0) translate(4 224)">
<title>ServerConnection</title>
<!-- Node1 -->
<g id="Node000001" class="node">
<title>Node1</title>
<g id="a_Node000001"><a xlink:title="Core internal structure representing an active HTTP client connection.">
<polygon fill="#999999" stroke="#666666" points="214,-20.5 119,-20.5 119,-1.5 214,-1.5 214,-20.5"/>
<text text-anchor="middle" x="166.5" y="-8.5" font-family="Helvetica,sans-Serif" font-size="10.00">ServerConnection</text>
</a>
</g>
</g>
<!-- Node1&#45;&gt;Node1 -->
<g id="edge6_Node000001_Node000001" class="edge">
<title>Node1&#45;&gt;Node1</title>
<g id="a_edge6_Node000001_Node000001"><a xlink:title=" ">
<path fill="none" stroke="#9a32cd" stroke-dasharray="5,2" d="M224.36,-15.89C229.08,-14.83 232,-13.2 232,-11 232,-7.48 224.51,-5.42 214.19,-4.81"/>
<polygon fill="#9a32cd" stroke="#9a32cd" points="223.67,-12.45 214.19,-17.19 224.55,-19.4 223.67,-12.45"/>
</a>
</g>
<text text-anchor="middle" x="243" y="-14" font-family="Helvetica,sans-Serif" font-size="10.00" fill="grey"> next</text>
<text text-anchor="middle" x="243" y="-3" font-family="Helvetica,sans-Serif" font-size="10.00" fill="grey">prev</text>
</g>
<!-- Node2 -->
<g id="Node000002" class="node">
<title>Node2</title>
<g id="a_Node000002"><a xlink:title=" ">
<polygon fill="white" stroke="#666666" points="143,-88 84,-88 84,-69 143,-69 143,-88"/>
<text text-anchor="middle" x="113.5" y="-76" font-family="Helvetica,sans-Serif" font-size="10.00">Socket_T</text>
</a>
</g>
</g>
<!-- Node2&#45;&gt;Node1 -->
<g id="edge1_Node000001_Node000002" class="edge">
<title>Node2&#45;&gt;Node1</title>
<g id="a_edge1_Node000001_Node000002"><a xlink:title=" ">
<path fill="none" stroke="#9a32cd" stroke-dasharray="5,2" d="M126.9,-60.94C137.23,-48.17 151.12,-31.01 159.4,-20.77"/>
<polygon fill="#9a32cd" stroke="#9a32cd" points="124,-58.96 120.43,-68.94 129.44,-63.36 124,-58.96"/>
</a>
</g>
<text text-anchor="middle" x="160" y="-43" font-family="Helvetica,sans-Serif" font-size="10.00" fill="grey"> socket</text>
</g>
<!-- Node3 -->
<g id="Node000003" class="node">
<title>Node3</title>
<g id="a_Node000003"><a xlink:href="group__core__io.html#structSocketBase__T" target="_top" xlink:title="Internal implementation of SocketBase_T opaque type.">
<polygon fill="white" stroke="#666666" points="154,-154 73,-154 73,-135 154,-135 154,-154"/>
<text text-anchor="middle" x="113.5" y="-142" font-family="Helvetica,sans-Serif" font-size="10.00">SocketBase_T</text>
</a>
</g>
</g>
<!-- Node3&#45;&gt;Node2 -->
<g id="edge2_Node000002_Node000003" class="edge">
<title>Node3&#45;&gt;Node2</title>
<g id="a_edge2_Node000002_Node000003"><a xlink:title=" ">
<path fill="none" stroke="#9a32cd" stroke-dasharray="5,2" d="M113.5,-124.58C113.5,-112.63 113.5,-97.72 113.5,-88.41"/>
<polygon fill="#9a32cd" stroke="#9a32cd" points="110,-124.87 113.5,-134.87 117,-124.87 110,-124.87"/>
</a>
</g>
<text text-anchor="middle" x="126" y="-109" font-family="Helvetica,sans-Serif" font-size="10.00" fill="grey"> base</text>
</g>
<!-- Node4 -->
<g id="Node000004" class="node">
<title>Node4</title>
<g id="a_Node000004"><a xlink:href="group__foundation.html#structSocketTimeouts__T" target="_top" xlink:title="Basic timeout configuration structure for socket operations.">
<polygon fill="white" stroke="#666666" points="99,-220 0,-220 0,-201 99,-201 99,-220"/>
<text text-anchor="middle" x="49.5" y="-208" font-family="Helvetica,sans-Serif" font-size="10.00">SocketTimeouts_T</text>
</a>
</g>
</g>
<!-- Node4&#45;&gt;Node3 -->
<g id="edge3_Node000003_Node000004" class="edge">
<title>Node4&#45;&gt;Node3</title>
<g id="a_edge3_Node000003_Node000004"><a xlink:title=" ">
<path fill="none" stroke="#9a32cd" stroke-dasharray="5,2" d="M65.52,-193.48C77.88,-181.12 94.51,-164.49 104.59,-154.41"/>
<polygon fill="#9a32cd" stroke="#9a32cd" points="62.73,-191.32 58.13,-200.87 67.68,-196.27 62.73,-191.32"/>
</a>
</g>
<text text-anchor="middle" x="106" y="-175" font-family="Helvetica,sans-Serif" font-size="10.00" fill="grey"> timeouts</text>
</g>
<!-- Node5 -->
<g id="Node000005" class="node">
<title>Node5</title>
<g id="a_Node000005"><a xlink:href="group__foundation.html#structSocketMetricsSnapshot" target="_top" xlink:title="SocketMetricsSnapshot &#45; Thread&#45;safe snapshot of all library metrics.">
<polygon fill="white" stroke="#666666" points="238,-220 117,-220 117,-201 238,-201 238,-220"/>
<text text-anchor="middle" x="177.5" y="-208" font-family="Helvetica,sans-Serif" font-size="10.00">SocketMetricsSnapshot</text>
</a>
</g>
</g>
<!-- Node5&#45;&gt;Node3 -->
<g id="edge4_Node000003_Node000005" class="edge">
<title>Node5&#45;&gt;Node3</title>
<g id="a_edge4_Node000003_Node000005"><a xlink:title=" ">
<path fill="none" stroke="#9a32cd" stroke-dasharray="5,2" d="M161.48,-193.48C149.12,-181.12 132.49,-164.49 122.41,-154.41"/>
<polygon fill="#9a32cd" stroke="#9a32cd" points="159.32,-196.27 168.87,-200.87 164.27,-191.32 159.32,-196.27"/>
</a>
</g>
<text text-anchor="middle" x="167.5" y="-175" font-family="Helvetica,sans-Serif" font-size="10.00" fill="grey"> metrics</text>
</g>
<!-- Node6 -->
<g id="Node000006" class="node">
<title>Node6</title>
<g id="a_Node000006"><a xlink:href="group__http.html#structSocketHTTP__Request" target="_top" xlink:title="Protocol&#45;agnostic representation of an HTTP request message.">
<polygon fill="white" stroke="#666666" points="277.5,-88 161.5,-88 161.5,-69 277.5,-69 277.5,-88"/>
<text text-anchor="middle" x="219.5" y="-76" font-family="Helvetica,sans-Serif" font-size="10.00">SocketHTTP_Request</text>
</a>
</g>
</g>
<!-- Node6&#45;&gt;Node1 -->
<g id="edge5_Node000001_Node000006" class="edge">
<title>Node6&#45;&gt;Node1</title>
<g id="a_edge5_Node000001_Node000006"><a xlink:title=" ">
<path fill="none" stroke="#9a32cd" stroke-dasharray="5,2" d="M206.1,-60.94C195.77,-48.17 181.88,-31.01 173.6,-20.77"/>
<polygon fill="#9a32cd" stroke="#9a32cd" points="203.56,-63.36 212.57,-68.94 209,-58.96 203.56,-63.36"/>
</a>
</g>
<text text-anchor="middle" x="215.5" y="-43" font-family="Helvetica,sans-Serif" font-size="10.00" fill="grey"> request</text>
</g>
</g>
</svg>
</svg>

<style type='text/css'>
<![CDATA[
[data-mouse-over-selected='false'] { opacity: 0.7; }
[data-mouse-over-selected='true']  { opacity: 1.0; }
]]>
</style>
<script type="application/ecmascript"><![CDATA[
document.addEventListener('DOMContentLoaded', (event) => {
  highlightEdges();
  highlightAdjacentNodes();
});
]]></script>
</svg>
