<?xml version="1.0" encoding="UTF-8" standalone="no"?>
<!DOCTYPE svg PUBLIC "-//W3C//DTD SVG 1.1//EN"
 "http://www.w3.org/Graphics/SVG/1.1/DTD/svg11.dtd">
<!-- Generated by graphviz version 2.43.0 (0)
 -->
<!-- Title: SocketHE_T Pages: 1 -->
<!--zoomable 510 -->

<svg id="main" version="1.1" xmlns="http://www.w3.org/2000/svg" xmlns:xlink="http://www.w3.org/1999/xlink" xml:space="preserve" onload="init(evt)">
<style type="text/css"><![CDATA[
.node, .edge {opacity: 0.7;}
.node.selected, .edge.selected {opacity: 1;}
.edge:hover path { stroke: red; }
.edge:hover polygon { stroke: red; fill: red; }
]]></style>

<defs>
  <circle id="rim" cx="0" cy="0" r="7"/>
  <circle id="rim2" cx="0" cy="0" r="3.5"/>
  <g id="zoomPlus">
    <use xlink:href="#rim" fill="#404040"><set attributeName="fill" to="#808080" begin="zoomplus.mouseover" end="zoomplus.mouseout"/></use>
    <path d="M-4,0h8M0,-4v8" fill="none" stroke="white" stroke-width="1.5" pointer-events="none"/>
  </g>
  <g id="zoomMin">
    <use xlink:href="#rim" fill="#404040"><set attributeName="fill" to="#808080" begin="zoomminus.mouseover" end="zoomminus.mouseout"/></use>
    <path d="M-4,0h8" fill="none" stroke="white" stroke-width="1.5" pointer-events="none"/>
  </g>
  <g id="arrowUp" transform="translate(30 24)">
    <use xlink:href="#rim"/>
    <path pointer-events="none" fill="none" stroke="white" stroke-width="1.5" d="M0,-3.0v7 M-2.5,-0.5L0,-3.0L2.5,-0.5"/>
  </g>
  <g id="arrowRight" transform="rotate(90) translate(36 -43)">
    <use xlink:href="#rim"/>
    <path pointer-events="none" fill="none" stroke="white" stroke-width="1.5" d="M0,-3.0v7 M-2.5,-0.5L0,-3.0L2.5,-0.5"/>
  </g>
  <g id="arrowDown" transform="rotate(180) translate(-30 -48)">
    <use xlink:href="#rim"/>
    <path pointer-events="none" fill="none" stroke="white" stroke-width="1.5" d="M0,-3.0v7 M-2.5,-0.5L0,-3.0L2.5,-0.5"/>
  </g>
  <g id="arrowLeft" transform="rotate(270) translate(-36 17)">
    <use xlink:href="#rim"/>
    <path pointer-events="none" fill="none" stroke="white" stroke-width="1.5" d="M0,-3.0v7 M-2.5,-0.5L0,-3.0L2.5,-0.5"/>
  </g>
  <g id="resetDef">
    <use xlink:href="#rim2" fill="#404040"><set attributeName="fill" to="#808080" begin="reset.mouseover" end="reset.mouseout"/></use>
  </g>
</defs>
<script type="application/ecmascript">
var viewWidth = 910;
var viewHeight = 510;
var sectionId = 'dynsection-2';
</script>
<script type="application/ecmascript" xlink:href="svg.min.js"/>
<svg id="graph" class="graph">
<g id="viewport">
<title>SocketHE_T</title>
<!-- Node1 -->
<g id="Node000001" class="node">
<title>Node1</title>
<g id="a_Node000001"><a xlink:title="Wrapper structure for resolved addresses in Happy Eyeballs address preference ordering.">
<polygon fill="#999999" stroke="#666666" points="902,-328.64 829,-328.64 829,-309.64 902,-309.64 902,-328.64"/>
<text text-anchor="middle" x="865.5" y="-316.64" font-family="Helvetica,sans-Serif" font-size="10.00">SocketHE_T</text>
</a>
</g>
</g>
<!-- Node2 -->
<g id="Node000002" class="node">
<title>Node2</title>
<g id="a_Node000002"><a xlink:href="group__async__io.html#structSocketHE__Config__T" target="_top" xlink:title="Happy Eyeballs configuration structure.">
<polygon fill="white" stroke="#666666" points="728.5,-501.64 621.5,-501.64 621.5,-482.64 728.5,-482.64 728.5,-501.64"/>
<text text-anchor="middle" x="675" y="-489.64" font-family="Helvetica,sans-Serif" font-size="10.00">SocketHE_Config_T</text>
</a>
</g>
</g>
<!-- Node2&#45;&gt;Node1 -->
<g id="edge1_Node000001_Node000002" class="edge">
<title>Node2&#45;&gt;Node1</title>
<g id="a_edge1_Node000001_Node000002"><a xlink:title=" ">
<path fill="none" stroke="#9a32cd" stroke-dasharray="5,2" d="M725.57,-478.98C729.17,-477.51 732.68,-475.9 736,-474.14 773.97,-454.03 783.23,-445.93 811,-413.14 834.3,-385.63 852.74,-346.51 860.51,-328.67"/>
<polygon fill="#9a32cd" stroke="#9a32cd" points="724.09,-475.8 715.93,-482.56 726.52,-482.36 724.09,-475.8"/>
</a>
</g>
<text text-anchor="middle" x="782.5" y="-466.14" font-family="Helvetica,sans-Serif" font-size="10.00" fill="grey"> config</text>
</g>
<!-- Node3 -->
<g id="Node000003" class="node">
<title>Node3</title>
<g id="a_Node000003"><a xlink:href="group__dns.html#structSocketDNS__T" target="_top" xlink:title="Async DNS resolver structure.">
<polygon fill="white" stroke="#666666" points="426,-407.64 346,-407.64 346,-388.64 426,-388.64 426,-407.64"/>
<text text-anchor="middle" x="386" y="-395.64" font-family="Helvetica,sans-Serif" font-size="10.00">SocketDNS_T</text>
</a>
</g>
</g>
<!-- Node3&#45;&gt;Node1 -->
<g id="edge2_Node000001_Node000003" class="edge">
<title>Node3&#45;&gt;Node1</title>
<g id="a_edge2_Node000001_Node000003"><a xlink:title=" ">
<path fill="none" stroke="#9a32cd" stroke-dasharray="5,2" d="M436.3,-392.27C515.67,-382.44 676.47,-360.97 811,-333.14 817.21,-331.85 823.77,-330.3 830.09,-328.7"/>
<polygon fill="#9a32cd" stroke="#9a32cd" points="435.61,-388.83 426.12,-393.52 436.47,-395.77 435.61,-388.83"/>
</a>
</g>
<text text-anchor="middle" x="675" y="-370.14" font-family="Helvetica,sans-Serif" font-size="10.00" fill="grey"> dns</text>
</g>
<!-- Node4 -->
<g id="Node000004" class="node">
<title>Node4</title>
<g id="a_Node000004"><a xlink:href="group__dns.html#structSocketDNS__Request__T" target="_top" xlink:title="DNS resolution request structure.">
<polygon fill="white" stroke="#666666" points="736,-413.64 614,-413.64 614,-394.64 736,-394.64 736,-413.64"/>
<text text-anchor="middle" x="675" y="-401.64" font-family="Helvetica,sans-Serif" font-size="10.00">SocketDNS_Request_T</text>
</a>
</g>
</g>
<!-- Node3&#45;&gt;Node4 -->
<g id="edge5_Node000004_Node000003" class="edge">
<title>Node3&#45;&gt;Node4</title>
<g id="a_edge5_Node000004_Node000003"><a xlink:title=" ">
<path fill="none" stroke="#9a32cd" stroke-dasharray="5,2" d="M436.41,-397.36C443.97,-397.27 451.69,-397.19 459,-397.14 519.89,-396.71 535.17,-394.41 596,-397.14 601.84,-397.4 607.92,-397.77 613.99,-398.21"/>
<polygon fill="#9a32cd" stroke="#9a32cd" points="436.19,-393.86 426.24,-397.49 436.28,-400.86 436.19,-393.86"/>
</a>
</g>
<text text-anchor="middle" x="527.5" y="-400.14" font-family="Helvetica,sans-Serif" font-size="10.00" fill="grey"> dns_resolver</text>
</g>
<!-- Node4&#45;&gt;Node1 -->
<g id="edge21_Node000001_Node000004" class="edge">
<title>Node4&#45;&gt;Node1</title>
<g id="a_edge21_Node000001_Node000004"><a xlink:title=" ">
<path fill="none" stroke="#9a32cd" stroke-dasharray="5,2" d="M745.94,-400.04C767.83,-396.49 791.37,-390.19 811,-379.14 832.65,-366.95 850.06,-342.7 858.66,-329.06"/>
<polygon fill="#9a32cd" stroke="#9a32cd" points="745.42,-396.58 736.03,-401.49 746.43,-403.51 745.42,-396.58"/>
</a>
</g>
<text text-anchor="middle" x="782.5" y="-401.14" font-family="Helvetica,sans-Serif" font-size="10.00" fill="grey"> dns_request</text>
</g>
<!-- Node4&#45;&gt;Node3 -->
<g id="edge3_Node000003_Node000004" class="edge">
<title>Node4&#45;&gt;Node3</title>
<g id="a_edge3_Node000003_Node000004"><a xlink:title=" ">
<path fill="none" stroke="#9a32cd" stroke-dasharray="5,2" d="M603.53,-410.02C561.51,-412.55 507.13,-414.12 459,-410.14 448.27,-409.25 436.72,-407.63 426.09,-405.86"/>
<polygon fill="#9a32cd" stroke="#9a32cd" points="603.91,-413.5 613.66,-409.37 603.46,-406.51 603.91,-413.5"/>
</a>
</g>
<text text-anchor="middle" x="527.5" y="-437.14" font-family="Helvetica,sans-Serif" font-size="10.00" fill="grey"> queue_head</text>
<text text-anchor="middle" x="527.5" y="-426.14" font-family="Helvetica,sans-Serif" font-size="10.00" fill="grey">queue_tail</text>
<text text-anchor="middle" x="527.5" y="-415.14" font-family="Helvetica,sans-Serif" font-size="10.00" fill="grey">request_hash</text>
</g>
<!-- Node4&#45;&gt;Node4 -->
<g id="edge4_Node000004_Node000004" class="edge">
<title>Node4&#45;&gt;Node4</title>
<g id="a_edge4_Node000004_Node000004"><a xlink:title=" ">
<path fill="none" stroke="#9a32cd" stroke-dasharray="5,2" d="M655.37,-423.19C656.68,-428.02 663.23,-431.64 675,-431.64 693.84,-431.64 699.29,-422.37 691.34,-413.72"/>
<polygon fill="#9a32cd" stroke="#9a32cd" points="658.69,-424.32 658.66,-413.72 652.07,-422.02 658.69,-424.32"/>
</a>
</g>
<text text-anchor="middle" x="675" y="-456.64" font-family="Helvetica,sans-Serif" font-size="10.00" fill="grey"> callback</text>
<text text-anchor="middle" x="675" y="-445.64" font-family="Helvetica,sans-Serif" font-size="10.00" fill="grey">hash_next</text>
<text text-anchor="middle" x="675" y="-434.64" font-family="Helvetica,sans-Serif" font-size="10.00" fill="grey">queue_next</text>
</g>
<!-- Node5 -->
<g id="Node000005" class="node">
<title>Node5</title>
<g id="a_Node000005"><a xlink:href="group__poll__private.html#structSocketPoll__T" target="_top" xlink:title="Opaque internal state structure for SocketPoll instance.">
<polygon fill="white" stroke="#666666" points="712.5,-220.64 637.5,-220.64 637.5,-201.64 712.5,-201.64 712.5,-220.64"/>
<text text-anchor="middle" x="675" y="-208.64" font-family="Helvetica,sans-Serif" font-size="10.00">SocketPoll_T</text>
</a>
</g>
</g>
<!-- Node5&#45;&gt;Node1 -->
<g id="edge6_Node000001_Node000005" class="edge">
<title>Node5&#45;&gt;Node1</title>
<g id="a_edge6_Node000001_Node000005"><a xlink:title=" ">
<path fill="none" stroke="#9a32cd" stroke-dasharray="5,2" d="M701.44,-225.72C740.64,-248.17 814.72,-290.62 847.81,-309.57"/>
<polygon fill="#9a32cd" stroke="#9a32cd" points="703.14,-222.66 692.73,-220.72 699.66,-228.73 703.14,-222.66"/>
</a>
</g>
<text text-anchor="middle" x="782.5" y="-290.14" font-family="Helvetica,sans-Serif" font-size="10.00" fill="grey"> poll</text>
</g>
<!-- Node6 -->
<g id="Node000006" class="node">
<title>Node6</title>
<g id="a_Node000006"><a xlink:href="group__event__system.html#structSocketEvent__T" target="_top" xlink:title="Event notification structure returned by polling operations.">
<polygon fill="white" stroke="#666666" points="313,-251.64 229,-251.64 229,-232.64 313,-232.64 313,-251.64"/>
<text text-anchor="middle" x="271" y="-239.64" font-family="Helvetica,sans-Serif" font-size="10.00">SocketEvent_T</text>
</a>
</g>
</g>
<!-- Node6&#45;&gt;Node5 -->
<g id="edge7_Node000005_Node000006" class="edge">
<title>Node6&#45;&gt;Node5</title>
<g id="a_edge7_Node000005_Node000006"><a xlink:title=" ">
<path fill="none" stroke="#9a32cd" stroke-dasharray="5,2" d="M323.4,-238.58C387.31,-234.1 499.75,-226.02 596,-218.14 609.42,-217.04 624.12,-215.74 637.11,-214.57"/>
<polygon fill="#9a32cd" stroke="#9a32cd" points="322.92,-235.1 313.19,-239.29 323.41,-242.09 322.92,-235.1"/>
</a>
</g>
<text text-anchor="middle" x="386" y="-241.14" font-family="Helvetica,sans-Serif" font-size="10.00" fill="grey"> socketevents</text>
</g>
<!-- Node7 -->
<g id="Node000007" class="node">
<title>Node7</title>
<g id="a_Node000007"><a xlink:title=" ">
<polygon fill="white" stroke="#666666" points="59,-171.64 0,-171.64 0,-152.64 59,-152.64 59,-171.64"/>
<text text-anchor="middle" x="29.5" y="-159.64" font-family="Helvetica,sans-Serif" font-size="10.00">Socket_T</text>
</a>
</g>
</g>
<!-- Node7&#45;&gt;Node1 -->
<g id="edge26_Node000001_Node000007" class="edge">
<title>Node7&#45;&gt;Node1</title>
<g id="a_edge26_Node000001_Node000007"><a xlink:title=" ">
<path fill="none" stroke="#9a32cd" stroke-dasharray="5,2" d="M37.09,-181.63C52.68,-223.67 96.06,-319.14 168.5,-319.14 168.5,-319.14 168.5,-319.14 676,-319.14 729.18,-319.14 790.8,-319.14 828.71,-319.14"/>
<polygon fill="#9a32cd" stroke="#9a32cd" points="40.3,-180.21 33.65,-171.96 33.71,-182.55 40.3,-180.21"/>
</a>
</g>
<text text-anchor="middle" x="386" y="-322.14" font-family="Helvetica,sans-Serif" font-size="10.00" fill="grey"> winner</text>
</g>
<!-- Node7&#45;&gt;Node6 -->
<g id="edge8_Node000006_Node000007" class="edge">
<title>Node7&#45;&gt;Node6</title>
<g id="a_edge8_Node000006_Node000007"><a xlink:title=" ">
<path fill="none" stroke="#9a32cd" stroke-dasharray="5,2" d="M51.31,-177.59C59.07,-182.79 68.15,-188.26 77,-192.14 127.09,-214.1 188.86,-228 228.82,-235.42"/>
<polygon fill="#9a32cd" stroke="#9a32cd" points="53.1,-174.57 42.9,-171.71 49.09,-180.31 53.1,-174.57"/>
</a>
</g>
<text text-anchor="middle" x="93.5" y="-208.14" font-family="Helvetica,sans-Serif" font-size="10.00" fill="grey"> socket</text>
</g>
<!-- Node8 -->
<g id="Node000008" class="node">
<title>Node8</title>
<g id="a_Node000008"><a xlink:href="group__poll__private.html#structSocketData" target="_top" xlink:title="Linked&#45;list node for socket&#45;to&#45;userdata mapping in internal hash table.">
<polygon fill="white" stroke="#666666" points="305,-198.64 237,-198.64 237,-179.64 305,-179.64 305,-198.64"/>
<text text-anchor="middle" x="271" y="-186.64" font-family="Helvetica,sans-Serif" font-size="10.00">SocketData</text>
</a>
</g>
</g>
<!-- Node7&#45;&gt;Node8 -->
<g id="edge10_Node000008_Node000007" class="edge">
<title>Node7&#45;&gt;Node8</title>
<g id="a_edge10_Node000008_Node000007"><a xlink:title=" ">
<path fill="none" stroke="#9a32cd" stroke-dasharray="5,2" d="M69.35,-170.86C71.93,-171.33 74.5,-171.76 77,-172.14 132.71,-180.55 198.14,-185.23 236.72,-187.46"/>
<polygon fill="#9a32cd" stroke="#9a32cd" points="69.9,-167.41 59.42,-168.94 68.57,-174.28 69.9,-167.41"/>
</a>
</g>
<text text-anchor="middle" x="93.5" y="-180.14" font-family="Helvetica,sans-Serif" font-size="10.00" fill="grey"> socket</text>
</g>
<!-- Node9 -->
<g id="Node000009" class="node">
<title>Node9</title>
<g id="a_Node000009"><a xlink:href="group__poll__private.html#structFdSocketEntry" target="_top" xlink:title="Linked&#45;list node for FD&#45;to&#45;socket reverse mapping in internal hash table.">
<polygon fill="white" stroke="#666666" points="312,-145.64 230,-145.64 230,-126.64 312,-126.64 312,-145.64"/>
<text text-anchor="middle" x="271" y="-133.64" font-family="Helvetica,sans-Serif" font-size="10.00">FdSocketEntry</text>
</a>
</g>
</g>
<!-- Node7&#45;&gt;Node9 -->
<g id="edge13_Node000009_Node000007" class="edge">
<title>Node7&#45;&gt;Node9</title>
<g id="a_edge13_Node000009_Node000007"><a xlink:title=" ">
<path fill="none" stroke="#9a32cd" stroke-dasharray="5,2" d="M69.45,-157.91C113.59,-153.12 185.19,-145.34 229.84,-140.5"/>
<polygon fill="#9a32cd" stroke="#9a32cd" points="68.95,-154.44 59.39,-159 69.71,-161.4 68.95,-154.44"/>
</a>
</g>
<text text-anchor="middle" x="93.5" y="-160.14" font-family="Helvetica,sans-Serif" font-size="10.00" fill="grey"> socket</text>
</g>
<!-- Node11 -->
<g id="Node000011" class="node">
<title>Node11</title>
<g id="a_Node000011"><a xlink:href="structAsyncRequest.html" target="_top" xlink:title="Internal structure for tracking asynchronous I/O requests.">
<polygon fill="white" stroke="#666666" points="210,-104.64 129,-104.64 129,-85.64 210,-85.64 210,-104.64"/>
<text text-anchor="middle" x="169.5" y="-92.64" font-family="Helvetica,sans-Serif" font-size="10.00">AsyncRequest</text>
</a>
</g>
</g>
<!-- Node7&#45;&gt;Node11 -->
<g id="edge17_Node000011_Node000007" class="edge">
<title>Node7&#45;&gt;Node11</title>
<g id="a_edge17_Node000011_Node000007"><a xlink:title=" ">
<path fill="none" stroke="#9a32cd" stroke-dasharray="5,2" d="M44.63,-145.02C53.11,-135.78 64.64,-124.92 77,-118.14 92.79,-109.47 111.91,-104 128.57,-100.59"/>
<polygon fill="#9a32cd" stroke="#9a32cd" points="41.97,-142.75 38.01,-152.57 47.23,-147.36 41.97,-142.75"/>
</a>
</g>
<text text-anchor="middle" x="93.5" y="-132.14" font-family="Helvetica,sans-Serif" font-size="10.00" fill="grey"> cb</text>
<text text-anchor="middle" x="93.5" y="-121.14" font-family="Helvetica,sans-Serif" font-size="10.00" fill="grey">socket</text>
</g>
<!-- Node14 -->
<g id="Node000014" class="node">
<title>Node14</title>
<g id="a_Node000014"><a xlink:href="group__async__io.html#structSocketHE__AddressEntry__T" target="_top" xlink:title="Single connection attempt structure in Happy Eyeballs racing.">
<polygon fill="white" stroke="#666666" points="596,-72.64 459,-72.64 459,-53.64 596,-53.64 596,-72.64"/>
<text text-anchor="middle" x="527.5" y="-60.64" font-family="Helvetica,sans-Serif" font-size="10.00">SocketHE_AddressEntry_T</text>
</a>
</g>
</g>
<!-- Node7&#45;&gt;Node14 -->
<g id="edge23_Node000014_Node000007" class="edge">
<title>Node7&#45;&gt;Node14</title>
<g id="a_edge23_Node000014_Node000007"><a xlink:title=" ">
<path fill="none" stroke="#9a32cd" stroke-dasharray="5,2" d="M41.26,-143.7C56.76,-119.42 87.93,-78.25 128,-65.14 247.34,-26.08 397.77,-41.4 475.22,-53.62"/>
<polygon fill="#9a32cd" stroke="#9a32cd" points="38.19,-142.02 35.94,-152.38 44.15,-145.68 38.19,-142.02"/>
</a>
</g>
<text text-anchor="middle" x="169.5" y="-68.14" font-family="Helvetica,sans-Serif" font-size="10.00" fill="grey"> socket</text>
</g>
<!-- Node15 -->
<g id="Node000015" class="node">
<title>Node15</title>
<g id="a_Node000015"><a xlink:href="SocketHappyEyeballs-private_8h.html#structSocketHE__Attempt__T" target="_top" xlink:title=" ">
<polygon fill="white" stroke="#666666" points="584,-24.64 471,-24.64 471,-5.64 584,-5.64 584,-24.64"/>
<text text-anchor="middle" x="527.5" y="-12.64" font-family="Helvetica,sans-Serif" font-size="10.00">SocketHE_Attempt_T</text>
</a>
</g>
</g>
<!-- Node7&#45;&gt;Node15 -->
<g id="edge25_Node000015_Node000007" class="edge">
<title>Node7&#45;&gt;Node15</title>
<g id="a_edge25_Node000015_Node000007"><a xlink:title=" ">
<path fill="none" stroke="#9a32cd" stroke-dasharray="5,2" d="M37.17,-142.97C44.69,-123.24 58.35,-92.31 77,-70.14 95.19,-48.5 101.37,-41.6 128,-32.14 244.31,9.2 391.85,1.21 470.74,-7.45"/>
<polygon fill="#9a32cd" stroke="#9a32cd" points="33.86,-141.82 33.72,-152.42 40.44,-144.23 33.86,-141.82"/>
</a>
</g>
<text text-anchor="middle" x="169.5" y="-35.14" font-family="Helvetica,sans-Serif" font-size="10.00" fill="grey"> socket</text>
</g>
<!-- Node8&#45;&gt;Node5 -->
<g id="edge9_Node000005_Node000008" class="edge">
<title>Node8&#45;&gt;Node5</title>
<g id="a_edge9_Node000005_Node000008"><a xlink:title=" ">
<path fill="none" stroke="#9a32cd" stroke-dasharray="5,2" d="M315.41,-191.51C395,-195.87 562.93,-205.06 637.26,-209.13"/>
<polygon fill="#9a32cd" stroke="#9a32cd" points="315.42,-188.01 305.24,-190.96 315.03,-195 315.42,-188.01"/>
</a>
</g>
<text text-anchor="middle" x="386" y="-202.14" font-family="Helvetica,sans-Serif" font-size="10.00" fill="grey"> socket_data_map</text>
</g>
<!-- Node8&#45;&gt;Node8 -->
<g id="edge11_Node000008_Node000008" class="edge">
<title>Node8&#45;&gt;Node8</title>
<g id="a_edge11_Node000008_Node000008"><a xlink:title=" ">
<path fill="none" stroke="#9a32cd" stroke-dasharray="5,2" d="M252.58,-208.55C254.03,-213.2 260.17,-216.64 271,-216.64 288.77,-216.64 293.91,-207.37 286.41,-198.72"/>
<polygon fill="#9a32cd" stroke="#9a32cd" points="256.01,-209.31 255.59,-198.72 249.32,-207.26 256.01,-209.31"/>
</a>
</g>
<text text-anchor="middle" x="271" y="-219.64" font-family="Helvetica,sans-Serif" font-size="10.00" fill="grey"> next</text>
</g>
<!-- Node9&#45;&gt;Node5 -->
<g id="edge12_Node000005_Node000009" class="edge">
<title>Node9&#45;&gt;Node5</title>
<g id="a_edge12_Node000005_Node000009"><a xlink:title=" ">
<path fill="none" stroke="#9a32cd" stroke-dasharray="5,2" d="M322.34,-145.35C386.07,-157.04 499.22,-177.87 596,-196.14 609.42,-198.67 624.12,-201.49 637.11,-203.99"/>
<polygon fill="#9a32cd" stroke="#9a32cd" points="322.64,-141.85 312.17,-143.49 321.38,-148.73 322.64,-141.85"/>
</a>
</g>
<text text-anchor="middle" x="386" y="-170.14" font-family="Helvetica,sans-Serif" font-size="10.00" fill="grey"> fd_to_socket_map</text>
</g>
<!-- Node9&#45;&gt;Node9 -->
<g id="edge14_Node000009_Node000009" class="edge">
<title>Node9&#45;&gt;Node9</title>
<g id="a_edge14_Node000009_Node000009"><a xlink:title=" ">
<path fill="none" stroke="#9a32cd" stroke-dasharray="5,2" d="M252.58,-155.55C254.03,-160.2 260.17,-163.64 271,-163.64 288.77,-163.64 293.91,-154.37 286.41,-145.72"/>
<polygon fill="#9a32cd" stroke="#9a32cd" points="256.01,-156.31 255.59,-145.72 249.32,-154.26 256.01,-156.31"/>
</a>
</g>
<text text-anchor="middle" x="271" y="-166.64" font-family="Helvetica,sans-Serif" font-size="10.00" fill="grey"> next</text>
</g>
<!-- Node10 -->
<g id="Node000010" class="node">
<title>Node10</title>
<g id="a_Node000010"><a xlink:href="group__async__io.html#structSocketAsync__T" target="_top" xlink:title="Core structure for asynchronous I/O context management.">
<polygon fill="white" stroke="#666666" points="429,-103.64 343,-103.64 343,-84.64 429,-84.64 429,-103.64"/>
<text text-anchor="middle" x="386" y="-91.64" font-family="Helvetica,sans-Serif" font-size="10.00">SocketAsync_T</text>
</a>
</g>
</g>
<!-- Node10&#45;&gt;Node5 -->
<g id="edge15_Node000005_Node000010" class="edge">
<title>Node10&#45;&gt;Node5</title>
<g id="a_edge15_Node000005_Node000010"><a xlink:title=" ">
<path fill="none" stroke="#9a32cd" stroke-dasharray="5,2" d="M439.14,-85.01C485.21,-80.01 551.77,-80.62 596,-115.14 614.62,-129.67 600.06,-146.07 614,-165.14 625.31,-180.61 643.23,-193.4 656.55,-201.53"/>
<polygon fill="#9a32cd" stroke="#9a32cd" points="438.56,-81.56 429.05,-86.23 439.4,-88.51 438.56,-81.56"/>
</a>
</g>
<text text-anchor="middle" x="527.5" y="-118.14" font-family="Helvetica,sans-Serif" font-size="10.00" fill="grey"> async</text>
</g>
<!-- Node11&#45;&gt;Node10 -->
<g id="edge16_Node000010_Node000011" class="edge">
<title>Node11&#45;&gt;Node10</title>
<g id="a_edge16_Node000010_Node000011"><a xlink:title=" ">
<path fill="none" stroke="#9a32cd" stroke-dasharray="5,2" d="M220.19,-94.91C257.31,-94.73 307.5,-94.5 342.7,-94.33"/>
<polygon fill="#9a32cd" stroke="#9a32cd" points="220.08,-91.41 210.09,-94.95 220.11,-98.41 220.08,-91.41"/>
</a>
</g>
<text text-anchor="middle" x="271" y="-98.14" font-family="Helvetica,sans-Serif" font-size="10.00" fill="grey"> requests</text>
</g>
<!-- Node11&#45;&gt;Node11 -->
<g id="edge18_Node000011_Node000011" class="edge">
<title>Node11&#45;&gt;Node11</title>
<g id="a_edge18_Node000011_Node000011"><a xlink:title=" ">
<path fill="none" stroke="#9a32cd" stroke-dasharray="5,2" d="M155.5,-114.55C156.6,-119.2 161.27,-122.64 169.5,-122.64 183.01,-122.64 186.91,-113.37 181.21,-104.72"/>
<polygon fill="#9a32cd" stroke="#9a32cd" points="158.93,-115.25 157.79,-104.72 152.12,-113.67 158.93,-115.25"/>
</a>
</g>
<text text-anchor="middle" x="169.5" y="-125.64" font-family="Helvetica,sans-Serif" font-size="10.00" fill="grey"> next</text>
</g>
<!-- Node12 -->
<g id="Node000012" class="node">
<title>Node12</title>
<g id="a_Node000012"><a xlink:href="group__event__system.html#structSocketTimer__heap__T" target="_top" xlink:title="Binary min&#45;heap container for managing multiple SocketTimer_T instances.">
<polygon fill="white" stroke="#666666" points="441,-282.64 331,-282.64 331,-263.64 441,-263.64 441,-282.64"/>
<text text-anchor="middle" x="386" y="-270.64" font-family="Helvetica,sans-Serif" font-size="10.00">SocketTimer_heap_T</text>
</a>
</g>
</g>
<!-- Node12&#45;&gt;Node5 -->
<g id="edge19_Node000005_Node000012" class="edge">
<title>Node12&#45;&gt;Node5</title>
<g id="a_edge19_Node000005_Node000012"><a xlink:title=" ">
<path fill="none" stroke="#9a32cd" stroke-dasharray="5,2" d="M451.28,-270.82C493.17,-268.01 548.64,-261.81 596,-248.14 618.46,-241.65 642.51,-229.33 657.88,-220.7"/>
<polygon fill="#9a32cd" stroke="#9a32cd" points="450.97,-267.34 441.21,-271.45 451.41,-274.32 450.97,-267.34"/>
</a>
</g>
<text text-anchor="middle" x="527.5" y="-273.14" font-family="Helvetica,sans-Serif" font-size="10.00" fill="grey"> timer_heap</text>
</g>
<!-- Node13 -->
<g id="Node000013" class="node">
<title>Node13</title>
<g id="a_Node000013"><a xlink:href="group__event__system.html#structSocketTimer__T" target="_top" xlink:title="Internal representation of a single scheduled timer event.">
<polygon fill="white" stroke="#666666" points="211,-285.64 128,-285.64 128,-266.64 211,-266.64 211,-285.64"/>
<text text-anchor="middle" x="169.5" y="-273.64" font-family="Helvetica,sans-Serif" font-size="10.00">SocketTimer_T</text>
</a>
</g>
</g>
<!-- Node13&#45;&gt;Node12 -->
<g id="edge20_Node000012_Node000013" class="edge">
<title>Node13&#45;&gt;Node12</title>
<g id="a_edge20_Node000012_Node000013"><a xlink:title=" ">
<path fill="none" stroke="#9a32cd" stroke-dasharray="5,2" d="M221.42,-275.43C254.37,-274.96 297.21,-274.37 330.79,-273.9"/>
<polygon fill="#9a32cd" stroke="#9a32cd" points="221.05,-271.93 211.1,-275.57 221.15,-278.93 221.05,-271.93"/>
</a>
</g>
<text text-anchor="middle" x="271" y="-278.14" font-family="Helvetica,sans-Serif" font-size="10.00" fill="grey"> timers</text>
</g>
<!-- Node14&#45;&gt;Node1 -->
<g id="edge22_Node000001_Node000014" class="edge">
<title>Node14&#45;&gt;Node1</title>
<g id="a_edge22_Node000001_Node000014"><a xlink:title=" ">
<path fill="none" stroke="#9a32cd" stroke-dasharray="5,2" d="M585.98,-75.56C589.4,-76.67 592.77,-77.86 596,-79.14 662.66,-105.45 681.5,-112.61 736,-159.14 792.36,-207.25 841.96,-282.81 858.59,-309.45"/>
<polygon fill="#9a32cd" stroke="#9a32cd" points="586.82,-72.16 576.24,-72.64 584.81,-78.86 586.82,-72.16"/>
</a>
</g>
<text text-anchor="middle" x="675" y="-184.14" font-family="Helvetica,sans-Serif" font-size="10.00" fill="grey"> addresses</text>
<text text-anchor="middle" x="675" y="-173.14" font-family="Helvetica,sans-Serif" font-size="10.00" fill="grey">next_ipv4</text>
<text text-anchor="middle" x="675" y="-162.14" font-family="Helvetica,sans-Serif" font-size="10.00" fill="grey">next_ipv6</text>
</g>
<!-- Node15&#45;&gt;Node1 -->
<g id="edge24_Node000001_Node000015" class="edge">
<title>Node15&#45;&gt;Node1</title>
<g id="a_edge24_Node000001_Node000015"><a xlink:title=" ">
<path fill="none" stroke="#9a32cd" stroke-dasharray="5,2" d="M594.41,-21.91C637.74,-28.94 693.97,-43.23 736,-72.14 823.62,-132.4 855.54,-271.5 862.79,-309.43"/>
<polygon fill="#9a32cd" stroke="#9a32cd" points="594.67,-18.4 584.26,-20.35 593.61,-25.32 594.67,-18.4"/>
</a>
</g>
<text text-anchor="middle" x="675" y="-75.14" font-family="Helvetica,sans-Serif" font-size="10.00" fill="grey"> attempts</text>
</g>
</g>
</svg>

<g id="navigator" transform="translate(0 0)" fill="#404254">
  <rect fill="#f2f5e9" fill-opacity="0.5" stroke="#606060" stroke-width=".5" x="0" y="0" width="60" height="60"/>
  <use id="zoomplus" xlink:href="#zoomPlus" x="17" y="9" onmousedown="handleZoom(evt,'in')"/>
  <use id="zoomminus" xlink:href="#zoomMin" x="42" y="9" onmousedown="handleZoom(evt,'out')"/>
  <use id="reset" xlink:href="#resetDef" x="30" y="36" onmousedown="handleReset()"/>
   <use id="arrowup" xlink:href="#arrowUp" x="0" y="0" onmousedown="handlePan(0,-1)"/>
  <use id="arrowright" xlink:href="#arrowRight" x="0" y="0" onmousedown="handlePan(1,0)"/>
  <use id="arrowdown" xlink:href="#arrowDown" x="0" y="0" onmousedown="handlePan(0,1)"/>
  <use id="arrowleft" xlink:href="#arrowLeft" x="0" y="0" onmousedown="handlePan(-1,0)"/>
</g>
<svg viewBox="0 0 15 15" width="100%" height="30px" preserveAspectRatio="xMaxYMin meet">
 <g id="arrow_out" transform="scale(0.3 0.3)">
  <a xlink:href="structSocketHE__T__coll__graph_org.svg" target="_base">
   <rect id="button" ry="5" rx="5" y="6" x="6" height="38" width="38"
        fill="#f2f5e9" fill-opacity="0.5" stroke="#606060" stroke-width="1.0"/>
   <path id="arrow"
     d="M 11.500037,31.436501 C 11.940474,20.09759 22.043105,11.32322 32.158766,21.979434 L 37.068811,17.246167 C 37.068811,17.246167 37.088388,32 37.088388,32 L 22.160133,31.978069 C 22.160133,31.978069 26.997745,27.140456 26.997745,27.140456 C 18.528582,18.264221 13.291696,25.230495 11.500037,31.436501 z"
     style="fill:#404040;"/>
  </a>
 </g>
</svg>

<style type='text/css'>
<![CDATA[
[data-mouse-over-selected='false'] { opacity: 0.7; }
[data-mouse-over-selected='true']  { opacity: 1.0; }
]]>
</style>
<script type="application/ecmascript"><![CDATA[
document.addEventListener('DOMContentLoaded', (event) => {
  highlightEdges();
  highlightAdjacentNodes();
});
]]></script>
</svg>
