<?xml version="1.0" encoding="UTF-8" standalone="no"?>
<!DOCTYPE svg PUBLIC "-//W3C//DTD SVG 1.1//EN"
 "http://www.w3.org/Graphics/SVG/1.1/DTD/svg11.dtd">
<!-- Generated by graphviz version 2.43.0 (0)
 -->
<!-- Title: SocketHTTPClient_T Pages: 1 -->
<!--zoomable 393 -->

<svg id="main" version="1.1" xmlns="http://www.w3.org/2000/svg" xmlns:xlink="http://www.w3.org/1999/xlink" xml:space="preserve" onload="init(evt)">
<style type="text/css"><![CDATA[
.node, .edge {opacity: 0.7;}
.node.selected, .edge.selected {opacity: 1;}
.edge:hover path { stroke: red; }
.edge:hover polygon { stroke: red; fill: red; }
]]></style>

<defs>
  <circle id="rim" cx="0" cy="0" r="7"/>
  <circle id="rim2" cx="0" cy="0" r="3.5"/>
  <g id="zoomPlus">
    <use xlink:href="#rim" fill="#404040"><set attributeName="fill" to="#808080" begin="zoomplus.mouseover" end="zoomplus.mouseout"/></use>
    <path d="M-4,0h8M0,-4v8" fill="none" stroke="white" stroke-width="1.5" pointer-events="none"/>
  </g>
  <g id="zoomMin">
    <use xlink:href="#rim" fill="#404040"><set attributeName="fill" to="#808080" begin="zoomminus.mouseover" end="zoomminus.mouseout"/></use>
    <path d="M-4,0h8" fill="none" stroke="white" stroke-width="1.5" pointer-events="none"/>
  </g>
  <g id="arrowUp" transform="translate(30 24)">
    <use xlink:href="#rim"/>
    <path pointer-events="none" fill="none" stroke="white" stroke-width="1.5" d="M0,-3.0v7 M-2.5,-0.5L0,-3.0L2.5,-0.5"/>
  </g>
  <g id="arrowRight" transform="rotate(90) translate(36 -43)">
    <use xlink:href="#rim"/>
    <path pointer-events="none" fill="none" stroke="white" stroke-width="1.5" d="M0,-3.0v7 M-2.5,-0.5L0,-3.0L2.5,-0.5"/>
  </g>
  <g id="arrowDown" transform="rotate(180) translate(-30 -48)">
    <use xlink:href="#rim"/>
    <path pointer-events="none" fill="none" stroke="white" stroke-width="1.5" d="M0,-3.0v7 M-2.5,-0.5L0,-3.0L2.5,-0.5"/>
  </g>
  <g id="arrowLeft" transform="rotate(270) translate(-36 17)">
    <use xlink:href="#rim"/>
    <path pointer-events="none" fill="none" stroke="white" stroke-width="1.5" d="M0,-3.0v7 M-2.5,-0.5L0,-3.0L2.5,-0.5"/>
  </g>
  <g id="resetDef">
    <use xlink:href="#rim2" fill="#404040"><set attributeName="fill" to="#808080" begin="reset.mouseover" end="reset.mouseout"/></use>
  </g>
</defs>
<script type="application/ecmascript">
var viewWidth = 533;
var viewHeight = 393;
var sectionId = 'dynsection-9';
</script>
<script type="application/ecmascript" xlink:href="svg.min.js"/>
<svg id="graph" class="graph">
<g id="viewport">
<title>SocketHTTPClient_T</title>
<!-- Node1 -->
<g id="Node000001" class="node">
<title>Node1</title>
<g id="a_Node000001"><a xlink:title="Main HTTP client instance managing configuration, pool, auth, and state.">
<polygon fill="#999999" stroke="#666666" points="350,-19 240,-19 240,0 350,0 350,-19"/>
<text text-anchor="middle" x="295" y="-7" font-family="Helvetica,sans-Serif" font-size="10.00">SocketHTTPClient_T</text>
</a>
</g>
</g>
<!-- Node2 -->
<g id="Node000002" class="node">
<title>Node2</title>
<g id="a_Node000002"><a xlink:href="group__http__client.html#structSocketHTTPClient__Config" target="_top" xlink:title="HTTP client configuration structure.">
<polygon fill="white" stroke="#666666" points="289.5,-85 156.5,-85 156.5,-66 289.5,-66 289.5,-85"/>
<text text-anchor="middle" x="223" y="-73" font-family="Helvetica,sans-Serif" font-size="10.00">SocketHTTPClient_Config</text>
</a>
</g>
</g>
<!-- Node2&#45;&gt;Node1 -->
<g id="edge1_Node000001_Node000002" class="edge">
<title>Node2&#45;&gt;Node1</title>
<g id="a_edge1_Node000001_Node000002"><a xlink:title=" ">
<path fill="none" stroke="#9a32cd" stroke-dasharray="5,2" d="M240.24,-59.18C254.21,-46.76 273.42,-29.68 284.98,-19.41"/>
<polygon fill="#9a32cd" stroke="#9a32cd" points="237.86,-56.61 232.71,-65.87 242.51,-61.84 237.86,-56.61"/>
</a>
</g>
<text text-anchor="middle" x="279" y="-40" font-family="Helvetica,sans-Serif" font-size="10.00" fill="grey"> config</text>
</g>
<!-- Node3 -->
<g id="Node000003" class="node">
<title>Node3</title>
<g id="a_Node000003"><a xlink:href="group__security.html#structSocketTLSContext__T" target="_top" xlink:title="TLS context structure for managing OpenSSL SSL_CTX with secure defaults, certificates,...">
<polygon fill="white" stroke="#666666" points="231.5,-253 120.5,-253 120.5,-234 231.5,-234 231.5,-253"/>
<text text-anchor="middle" x="176" y="-241" font-family="Helvetica,sans-Serif" font-size="10.00">SocketTLSContext_T</text>
</a>
</g>
</g>
<!-- Node3&#45;&gt;Node1 -->
<g id="edge14_Node000001_Node000003" class="edge">
<title>Node3&#45;&gt;Node1</title>
<g id="a_edge14_Node000001_Node000003"><a xlink:title=" ">
<path fill="none" stroke="#9a32cd" stroke-dasharray="5,2" d="M161.73,-226.14C141.02,-200.35 106.61,-148.49 121,-103 136.83,-52.93 196.24,-29.65 241.27,-19.03"/>
<polygon fill="#9a32cd" stroke="#9a32cd" points="159.05,-228.39 168.13,-233.84 164.43,-223.91 159.05,-228.39"/>
</a>
</g>
<text text-anchor="middle" x="154.5" y="-117" font-family="Helvetica,sans-Serif" font-size="10.00" fill="grey"> default_tls_ctx</text>
</g>
<!-- Node3&#45;&gt;Node2 -->
<g id="edge2_Node000002_Node000003" class="edge">
<title>Node3&#45;&gt;Node2</title>
<g id="a_edge2_Node000002_Node000003"><a xlink:title=" ">
<path fill="none" stroke="#9a32cd" stroke-dasharray="5,2" d="M176,-223.64C176.45,-205.47 178.31,-177.38 185,-154 192.58,-127.49 208.9,-99.05 217.47,-85.15"/>
<polygon fill="#9a32cd" stroke="#9a32cd" points="172.5,-223.72 175.88,-233.77 179.5,-223.81 172.5,-223.72"/>
</a>
</g>
<text text-anchor="middle" x="211" y="-168" font-family="Helvetica,sans-Serif" font-size="10.00" fill="grey"> tls_context</text>
</g>
<!-- Node3&#45;&gt;Node3 -->
<g id="edge5_Node000003_Node000003" class="edge">
<title>Node3&#45;&gt;Node3</title>
<g id="a_edge5_Node000003_Node000003"><a xlink:title=" ">
<path fill="none" stroke="#9a32cd" stroke-dasharray="5,2" d="M241.95,-247.9C246.64,-246.9 249.5,-245.43 249.5,-243.5 249.5,-240.41 242.17,-238.51 231.77,-237.81"/>
<polygon fill="#9a32cd" stroke="#9a32cd" points="241.25,-244.46 231.77,-249.19 242.13,-251.4 241.25,-244.46"/>
</a>
</g>
<text text-anchor="middle" x="284" y="-241" font-family="Helvetica,sans-Serif" font-size="10.00" fill="grey"> verify_callback</text>
</g>
<!-- Node8 -->
<g id="Node000008" class="node">
<title>Node8</title>
<g id="a_Node000008"><a xlink:href="group__proxy.html#structSocketProxy__Config" target="_top" xlink:title="Configuration structure for proxy connections.">
<polygon fill="white" stroke="#666666" points="353.5,-180 246.5,-180 246.5,-161 353.5,-161 353.5,-180"/>
<text text-anchor="middle" x="300" y="-168" font-family="Helvetica,sans-Serif" font-size="10.00">SocketProxy_Config</text>
</a>
</g>
</g>
<!-- Node3&#45;&gt;Node8 -->
<g id="edge9_Node000008_Node000003" class="edge">
<title>Node3&#45;&gt;Node8</title>
<g id="a_edge9_Node000008_Node000003"><a xlink:title=" ">
<path fill="none" stroke="#9a32cd" stroke-dasharray="5,2" d="M200.13,-228.68C225.3,-214.27 263.99,-192.12 285.06,-180.06"/>
<polygon fill="#9a32cd" stroke="#9a32cd" points="198.14,-225.79 191.2,-233.79 201.62,-231.86 198.14,-225.79"/>
</a>
</g>
<text text-anchor="middle" x="254.5" y="-208" font-family="Helvetica,sans-Serif" font-size="10.00" fill="grey"> tls_ctx</text>
</g>
<!-- Node4 -->
<g id="Node000004" class="node">
<title>Node4</title>
<g id="a_Node000004"><a xlink:href="structTLSContextSNICerts.html" target="_top" xlink:title="Structure for managing SNI certificate mappings in TLS context.">
<polygon fill="white" stroke="#666666" points="110,-319 0,-319 0,-300 110,-300 110,-319"/>
<text text-anchor="middle" x="55" y="-307" font-family="Helvetica,sans-Serif" font-size="10.00">TLSContextSNICerts</text>
</a>
</g>
</g>
<!-- Node4&#45;&gt;Node3 -->
<g id="edge3_Node000003_Node000004" class="edge">
<title>Node4&#45;&gt;Node3</title>
<g id="a_edge3_Node000003_Node000004"><a xlink:title=" ">
<path fill="none" stroke="#9a32cd" stroke-dasharray="5,2" d="M80.47,-295.03C104.3,-282.42 139.2,-263.97 159.55,-253.2"/>
<polygon fill="#9a32cd" stroke="#9a32cd" points="78.52,-292.1 71.32,-299.87 81.79,-298.29 78.52,-292.1"/>
</a>
</g>
<text text-anchor="middle" x="144.5" y="-274" font-family="Helvetica,sans-Serif" font-size="10.00" fill="grey"> sni_certs</text>
</g>
<!-- Node5 -->
<g id="Node000005" class="node">
<title>Node5</title>
<g id="a_Node000005"><a xlink:href="group__security.html#structTLSContextALPN" target="_top" xlink:title="Configuration for ALPN protocol negotiation.">
<polygon fill="white" stroke="#666666" points="223.5,-319 128.5,-319 128.5,-300 223.5,-300 223.5,-319"/>
<text text-anchor="middle" x="176" y="-307" font-family="Helvetica,sans-Serif" font-size="10.00">TLSContextALPN</text>
</a>
</g>
</g>
<!-- Node5&#45;&gt;Node3 -->
<g id="edge4_Node000003_Node000005" class="edge">
<title>Node5&#45;&gt;Node3</title>
<g id="a_edge4_Node000003_Node000005"><a xlink:title=" ">
<path fill="none" stroke="#9a32cd" stroke-dasharray="5,2" d="M176,-289.58C176,-277.63 176,-262.72 176,-253.41"/>
<polygon fill="#9a32cd" stroke="#9a32cd" points="172.5,-289.87 176,-299.87 179.5,-289.87 172.5,-289.87"/>
</a>
</g>
<text text-anchor="middle" x="187" y="-274" font-family="Helvetica,sans-Serif" font-size="10.00" fill="grey"> alpn</text>
</g>
<!-- Node6 -->
<g id="Node000006" class="node">
<title>Node6</title>
<g id="a_Node000006"><a xlink:href="group__security.html#structTLSContextPinning" target="_top" xlink:title="TLSContextPinning &#45; Certificate pinning configuration.">
<polygon fill="white" stroke="#666666" points="342.5,-319 241.5,-319 241.5,-300 342.5,-300 342.5,-319"/>
<text text-anchor="middle" x="292" y="-307" font-family="Helvetica,sans-Serif" font-size="10.00">TLSContextPinning</text>
</a>
</g>
</g>
<!-- Node6&#45;&gt;Node3 -->
<g id="edge6_Node000003_Node000006" class="edge">
<title>Node6&#45;&gt;Node3</title>
<g id="a_edge6_Node000003_Node000006"><a xlink:title=" ">
<path fill="none" stroke="#9a32cd" stroke-dasharray="5,2" d="M267.58,-295.03C244.73,-282.42 211.28,-263.97 191.77,-253.2"/>
<polygon fill="#9a32cd" stroke="#9a32cd" points="265.91,-298.1 276.36,-299.87 269.29,-291.97 265.91,-298.1"/>
</a>
</g>
<text text-anchor="middle" x="258" y="-274" font-family="Helvetica,sans-Serif" font-size="10.00" fill="grey"> pinning</text>
</g>
<!-- Node7 -->
<g id="Node000007" class="node">
<title>Node7</title>
<g id="a_Node000007"><a xlink:href="group__security.html#structTLSCertPin" target="_top" xlink:title="TLSCertPin &#45; Single certificate pin entry (SPKI SHA256 hash)">
<polygon fill="white" stroke="#666666" points="326,-385 258,-385 258,-366 326,-366 326,-385"/>
<text text-anchor="middle" x="292" y="-373" font-family="Helvetica,sans-Serif" font-size="10.00">TLSCertPin</text>
</a>
</g>
</g>
<!-- Node7&#45;&gt;Node6 -->
<g id="edge7_Node000006_Node000007" class="edge">
<title>Node7&#45;&gt;Node6</title>
<g id="a_edge7_Node000006_Node000007"><a xlink:title=" ">
<path fill="none" stroke="#9a32cd" stroke-dasharray="5,2" d="M292,-355.58C292,-343.63 292,-328.72 292,-319.41"/>
<polygon fill="#9a32cd" stroke="#9a32cd" points="288.5,-355.87 292,-365.87 295.5,-355.87 288.5,-355.87"/>
</a>
</g>
<text text-anchor="middle" x="303" y="-340" font-family="Helvetica,sans-Serif" font-size="10.00" fill="grey"> pins</text>
</g>
<!-- Node8&#45;&gt;Node2 -->
<g id="edge8_Node000002_Node000008" class="edge">
<title>Node8&#45;&gt;Node2</title>
<g id="a_edge8_Node000002_Node000008"><a xlink:title=" ">
<path fill="none" stroke="#9a32cd" stroke-dasharray="5,2" d="M286.36,-153.03C269.91,-133.15 242.85,-100.48 230.09,-85.06"/>
<polygon fill="#9a32cd" stroke="#9a32cd" points="283.82,-155.45 292.89,-160.92 289.21,-150.98 283.82,-155.45"/>
</a>
</g>
<text text-anchor="middle" x="285" y="-117" font-family="Helvetica,sans-Serif" font-size="10.00" fill="grey"> proxy</text>
</g>
<!-- Node9 -->
<g id="Node000009" class="node">
<title>Node9</title>
<g id="a_Node000009"><a xlink:href="group__http.html#structHTTPPool" target="_top" xlink:title="HTTP connection pool managing reusable connections by host:port key.">
<polygon fill="white" stroke="#666666" points="370,-85 308,-85 308,-66 370,-66 370,-85"/>
<text text-anchor="middle" x="339" y="-73" font-family="Helvetica,sans-Serif" font-size="10.00">HTTPPool</text>
</a>
</g>
</g>
<!-- Node9&#45;&gt;Node1 -->
<g id="edge10_Node000001_Node000009" class="edge">
<title>Node9&#45;&gt;Node1</title>
<g id="a_edge10_Node000001_Node000009"><a xlink:title=" ">
<path fill="none" stroke="#9a32cd" stroke-dasharray="5,2" d="M327.25,-57.41C318.84,-45.18 307.86,-29.2 301.12,-19.41"/>
<polygon fill="#9a32cd" stroke="#9a32cd" points="324.52,-59.61 333.07,-65.87 330.28,-55.65 324.52,-59.61"/>
</a>
</g>
<text text-anchor="middle" x="330" y="-40" font-family="Helvetica,sans-Serif" font-size="10.00" fill="grey"> pool</text>
</g>
<!-- Node10 -->
<g id="Node000010" class="node">
<title>Node10</title>
<g id="a_Node000010"><a xlink:href="group__http.html#structHTTPPoolEntry" target="_top" xlink:title="HTTP connection pool entry for reusing connections to the same host:port.">
<polygon fill="white" stroke="#666666" points="458,-180 372,-180 372,-161 458,-161 458,-180"/>
<text text-anchor="middle" x="415" y="-168" font-family="Helvetica,sans-Serif" font-size="10.00">HTTPPoolEntry</text>
</a>
</g>
</g>
<!-- Node10&#45;&gt;Node9 -->
<g id="edge11_Node000009_Node000010" class="edge">
<title>Node10&#45;&gt;Node9</title>
<g id="a_edge11_Node000009_Node000010"><a xlink:title=" ">
<path fill="none" stroke="#9a32cd" stroke-dasharray="5,2" d="M401.54,-153.03C385.3,-133.15 358.6,-100.48 346,-85.06"/>
<polygon fill="#9a32cd" stroke="#9a32cd" points="398.95,-155.39 407.99,-160.92 404.37,-150.96 398.95,-155.39"/>
</a>
</g>
<text text-anchor="middle" x="412" y="-128" font-family="Helvetica,sans-Serif" font-size="10.00" fill="grey"> all_conns</text>
<text text-anchor="middle" x="412" y="-117" font-family="Helvetica,sans-Serif" font-size="10.00" fill="grey">free_entries</text>
<text text-anchor="middle" x="412" y="-106" font-family="Helvetica,sans-Serif" font-size="10.00" fill="grey">hash_table</text>
</g>
<!-- Node10&#45;&gt;Node10 -->
<g id="edge12_Node000010_Node000010" class="edge">
<title>Node10&#45;&gt;Node10</title>
<g id="a_edge12_Node000010_Node000010"><a xlink:title=" ">
<path fill="none" stroke="#9a32cd" stroke-dasharray="5,2" d="M468.25,-176.43C473.01,-175.19 476,-173.21 476,-170.5 476,-166.16 468.35,-163.71 458.04,-163.13"/>
<polygon fill="#9a32cd" stroke="#9a32cd" points="467.45,-173.01 458.04,-177.87 468.43,-179.94 467.45,-173.01"/>
</a>
</g>
<text text-anchor="middle" x="500.5" y="-179" font-family="Helvetica,sans-Serif" font-size="10.00" fill="grey"> hash_next</text>
<text text-anchor="middle" x="500.5" y="-168" font-family="Helvetica,sans-Serif" font-size="10.00" fill="grey">next</text>
<text text-anchor="middle" x="500.5" y="-157" font-family="Helvetica,sans-Serif" font-size="10.00" fill="grey">prev</text>
</g>
<!-- Node11 -->
<g id="Node000011" class="node">
<title>Node11</title>
<g id="a_Node000011"><a xlink:href="group__http__client.html#structSocketHTTPClient__Auth" target="_top" xlink:title="Authentication credentials structure.">
<polygon fill="white" stroke="#666666" points="513.5,-85 388.5,-85 388.5,-66 513.5,-66 513.5,-85"/>
<text text-anchor="middle" x="451" y="-73" font-family="Helvetica,sans-Serif" font-size="10.00">SocketHTTPClient_Auth</text>
</a>
</g>
</g>
<!-- Node11&#45;&gt;Node1 -->
<g id="edge13_Node000001_Node000011" class="edge">
<title>Node11&#45;&gt;Node1</title>
<g id="a_edge13_Node000001_Node000011"><a xlink:title=" ">
<path fill="none" stroke="#9a32cd" stroke-dasharray="5,2" d="M420.56,-62.01C389.72,-49.36 342.85,-30.13 315.95,-19.1"/>
<polygon fill="#9a32cd" stroke="#9a32cd" points="419.38,-65.31 429.96,-65.87 422.04,-58.83 419.38,-65.31"/>
</a>
</g>
<text text-anchor="middle" x="410.5" y="-40" font-family="Helvetica,sans-Serif" font-size="10.00" fill="grey"> default_auth</text>
</g>
</g>
</svg>

<g id="navigator" transform="translate(0 0)" fill="#404254">
  <rect fill="#f2f5e9" fill-opacity="0.5" stroke="#606060" stroke-width=".5" x="0" y="0" width="60" height="60"/>
  <use id="zoomplus" xlink:href="#zoomPlus" x="17" y="9" onmousedown="handleZoom(evt,'in')"/>
  <use id="zoomminus" xlink:href="#zoomMin" x="42" y="9" onmousedown="handleZoom(evt,'out')"/>
  <use id="reset" xlink:href="#resetDef" x="30" y="36" onmousedown="handleReset()"/>
   <use id="arrowup" xlink:href="#arrowUp" x="0" y="0" onmousedown="handlePan(0,-1)"/>
  <use id="arrowright" xlink:href="#arrowRight" x="0" y="0" onmousedown="handlePan(1,0)"/>
  <use id="arrowdown" xlink:href="#arrowDown" x="0" y="0" onmousedown="handlePan(0,1)"/>
  <use id="arrowleft" xlink:href="#arrowLeft" x="0" y="0" onmousedown="handlePan(-1,0)"/>
</g>
<svg viewBox="0 0 15 15" width="100%" height="30px" preserveAspectRatio="xMaxYMin meet">
 <g id="arrow_out" transform="scale(0.3 0.3)">
  <a xlink:href="structSocketHTTPClient__coll__graph_org.svg" target="_base">
   <rect id="button" ry="5" rx="5" y="6" x="6" height="38" width="38"
        fill="#f2f5e9" fill-opacity="0.5" stroke="#606060" stroke-width="1.0"/>
   <path id="arrow"
     d="M 11.500037,31.436501 C 11.940474,20.09759 22.043105,11.32322 32.158766,21.979434 L 37.068811,17.246167 C 37.068811,17.246167 37.088388,32 37.088388,32 L 22.160133,31.978069 C 22.160133,31.978069 26.997745,27.140456 26.997745,27.140456 C 18.528582,18.264221 13.291696,25.230495 11.500037,31.436501 z"
     style="fill:#404040;"/>
  </a>
 </g>
</svg>

<style type='text/css'>
<![CDATA[
[data-mouse-over-selected='false'] { opacity: 0.7; }
[data-mouse-over-selected='true']  { opacity: 1.0; }
]]>
</style>
<script type="application/ecmascript"><![CDATA[
document.addEventListener('DOMContentLoaded', (event) => {
  highlightEdges();
  highlightAdjacentNodes();
});
]]></script>
</svg>
