<?xml version="1.0" encoding="UTF-8" standalone="no"?>
<!DOCTYPE svg PUBLIC "-//W3C//DTD SVG 1.1//EN"
 "http://www.w3.org/Graphics/SVG/1.1/DTD/svg11.dtd">
<!-- Generated by graphviz version 2.43.0 (0)
 -->
<!-- Title: Connection_T Pages: 1 -->
<svg width="604pt" height="308pt"
 viewBox="0.00 0.00 604.00 308.00" xmlns="http://www.w3.org/2000/svg" xmlns:xlink="http://www.w3.org/1999/xlink">
<g id="graph0" class="graph" transform="scale(1 1) rotate(0) translate(4 304)">
<title>Connection_T</title>
<!-- Node1 -->
<g id="Node000001" class="node">
<title>Node1</title>
<g id="a_Node000001"><a xlink:title="Internal structure representing a pooled connection slot.">
<polygon fill="#999999" stroke="#666666" points="187,-19 110,-19 110,0 187,0 187,-19"/>
<text text-anchor="middle" x="148.5" y="-7" font-family="Helvetica,sans-Serif" font-size="10.00">Connection_T</text>
</a>
</g>
</g>
<!-- Node2 -->
<g id="Node000002" class="node">
<title>Node2</title>
<g id="a_Node000002"><a xlink:title=" ">
<polygon fill="white" stroke="#666666" points="79,-234 20,-234 20,-215 79,-215 79,-234"/>
<text text-anchor="middle" x="49.5" y="-222" font-family="Helvetica,sans-Serif" font-size="10.00">Socket_T</text>
</a>
</g>
</g>
<!-- Node2&#45;&gt;Node1 -->
<g id="edge1_Node000001_Node000002" class="edge">
<title>Node2&#45;&gt;Node1</title>
<g id="a_edge1_Node000001_Node000002"><a xlink:title=" ">
<path fill="none" stroke="#9a32cd" stroke-dasharray="5,2" d="M47.9,-204.69C47.74,-202.11 47.59,-199.49 47.5,-197 46.14,-160.85 49.26,-150.67 62.5,-117 77.43,-79.03 79.55,-66.72 107.5,-37 114.24,-29.84 123.28,-23.73 131.17,-19.18"/>
<polygon fill="#9a32cd" stroke="#9a32cd" points="44.42,-204.97 48.67,-214.68 51.4,-204.44 44.42,-204.97"/>
</a>
</g>
<text text-anchor="middle" x="79" y="-120" font-family="Helvetica,sans-Serif" font-size="10.00" fill="grey"> socket</text>
</g>
<!-- Node4 -->
<g id="Node000004" class="node">
<title>Node4</title>
<g id="a_Node000004"><a xlink:href="group__connection__mgmt.html#structConnection" target="_top" xlink:title="Internal structure representing a pooled connection slot.">
<polygon fill="white" stroke="#666666" points="239,-97.5 162,-97.5 162,-78.5 239,-78.5 239,-97.5"/>
<text text-anchor="middle" x="200.5" y="-85.5" font-family="Helvetica,sans-Serif" font-size="10.00">Connection_T</text>
</a>
</g>
</g>
<!-- Node2&#45;&gt;Node4 -->
<g id="edge4_Node000004_Node000002" class="edge">
<title>Node2&#45;&gt;Node4</title>
<g id="a_edge4_Node000004_Node000002"><a xlink:title=" ">
<path fill="none" stroke="#9a32cd" stroke-dasharray="5,2" d="M50.42,-204.53C52.2,-187.38 57.26,-162.38 71.5,-146 85.6,-129.79 140.99,-109.01 174.44,-97.55"/>
<polygon fill="#9a32cd" stroke="#9a32cd" points="46.9,-204.71 49.64,-214.95 53.88,-205.24 46.9,-204.71"/>
</a>
</g>
<text text-anchor="middle" x="88" y="-154.5" font-family="Helvetica,sans-Serif" font-size="10.00" fill="grey"> socket</text>
</g>
<!-- Node5 -->
<g id="Node000005" class="node">
<title>Node5</title>
<g id="a_Node000005"><a xlink:href="group__connection__mgmt.html#structSocketReconnect__T" target="_top" xlink:title="Opaque context for managing reconnecting socket connections.">
<polygon fill="white" stroke="#666666" points="219.5,-166.5 113.5,-166.5 113.5,-147.5 219.5,-147.5 219.5,-166.5"/>
<text text-anchor="middle" x="166.5" y="-154.5" font-family="Helvetica,sans-Serif" font-size="10.00">SocketReconnect_T</text>
</a>
</g>
</g>
<!-- Node2&#45;&gt;Node5 -->
<g id="edge8_Node000005_Node000002" class="edge">
<title>Node2&#45;&gt;Node5</title>
<g id="a_edge8_Node000005_Node000002"><a xlink:title=" ">
<path fill="none" stroke="#9a32cd" stroke-dasharray="5,2" d="M73.72,-209.94C97,-196.91 131.49,-177.6 151.2,-166.57"/>
<polygon fill="#9a32cd" stroke="#9a32cd" points="71.81,-207 64.8,-214.94 75.23,-213.11 71.81,-207"/>
</a>
</g>
<text text-anchor="middle" x="132" y="-189" font-family="Helvetica,sans-Serif" font-size="10.00" fill="grey"> socket</text>
</g>
<!-- Node3 -->
<g id="Node000003" class="node">
<title>Node3</title>
<g id="a_Node000003"><a xlink:href="group__foundation.html#structSocketTimeouts__T" target="_top" xlink:title="Timeout configuration structure for socket operations.">
<polygon fill="white" stroke="#666666" points="99,-300 0,-300 0,-281 99,-281 99,-300"/>
<text text-anchor="middle" x="49.5" y="-288" font-family="Helvetica,sans-Serif" font-size="10.00">SocketTimeouts_T</text>
</a>
</g>
</g>
<!-- Node3&#45;&gt;Node2 -->
<g id="edge2_Node000002_Node000003" class="edge">
<title>Node3&#45;&gt;Node2</title>
<g id="a_edge2_Node000002_Node000003"><a xlink:title=" ">
<path fill="none" stroke="#9a32cd" stroke-dasharray="5,2" d="M49.5,-270.58C49.5,-258.63 49.5,-243.72 49.5,-234.41"/>
<polygon fill="#9a32cd" stroke="#9a32cd" points="46,-270.87 49.5,-280.87 53,-270.87 46,-270.87"/>
</a>
</g>
<text text-anchor="middle" x="78" y="-255" font-family="Helvetica,sans-Serif" font-size="10.00" fill="grey"> tls_timeouts</text>
</g>
<!-- Node4&#45;&gt;Node1 -->
<g id="edge3_Node000001_Node000004" class="edge">
<title>Node4&#45;&gt;Node1</title>
<g id="a_edge3_Node000001_Node000004"><a xlink:title=" ">
<path fill="none" stroke="#9a32cd" stroke-dasharray="5,2" d="M188.87,-69.89C178.17,-54.15 162.74,-31.45 154.4,-19.17"/>
<polygon fill="#9a32cd" stroke="#9a32cd" points="186.02,-71.92 194.53,-78.22 191.81,-67.99 186.02,-71.92"/>
</a>
</g>
<text text-anchor="middle" x="203.5" y="-51" font-family="Helvetica,sans-Serif" font-size="10.00" fill="grey"> free_next</text>
<text text-anchor="middle" x="203.5" y="-40" font-family="Helvetica,sans-Serif" font-size="10.00" fill="grey">hash_next</text>
</g>
<!-- Node4&#45;&gt;Node4 -->
<g id="edge5_Node000004_Node000004" class="edge">
<title>Node4&#45;&gt;Node4</title>
<g id="a_edge5_Node000004_Node000004"><a xlink:title=" ">
<path fill="none" stroke="#9a32cd" stroke-dasharray="5,2" d="M249.22,-93.18C253.98,-92.13 257,-90.41 257,-88 257,-84.15 249.27,-82.04 239.06,-81.68"/>
<polygon fill="#9a32cd" stroke="#9a32cd" points="248.6,-89.72 239.06,-94.32 249.38,-96.68 248.6,-89.72"/>
</a>
</g>
<text text-anchor="middle" x="280" y="-91" font-family="Helvetica,sans-Serif" font-size="10.00" fill="grey"> free_next</text>
<text text-anchor="middle" x="280" y="-80" font-family="Helvetica,sans-Serif" font-size="10.00" fill="grey">hash_next</text>
</g>
<!-- Node5&#45;&gt;Node1 -->
<g id="edge16_Node000001_Node000005" class="edge">
<title>Node5&#45;&gt;Node1</title>
<g id="a_edge16_Node000001_Node000005"><a xlink:title=" ">
<path fill="none" stroke="#9a32cd" stroke-dasharray="5,2" d="M144.07,-141.41C130.7,-131.3 114.94,-116.53 107.5,-99 94.93,-69.38 123.6,-34.98 139.22,-19.21"/>
<polygon fill="#9a32cd" stroke="#9a32cd" points="142.22,-144.39 152.39,-147.36 146.29,-138.7 142.22,-144.39"/>
</a>
</g>
<text text-anchor="middle" x="130.5" y="-85.5" font-family="Helvetica,sans-Serif" font-size="10.00" fill="grey"> reconnect</text>
</g>
<!-- Node5&#45;&gt;Node4 -->
<g id="edge6_Node000004_Node000005" class="edge">
<title>Node5&#45;&gt;Node4</title>
<g id="a_edge6_Node000004_Node000005"><a xlink:title=" ">
<path fill="none" stroke="#9a32cd" stroke-dasharray="5,2" d="M175.54,-138.19C182.21,-125.05 190.99,-107.74 196.16,-97.55"/>
<polygon fill="#9a32cd" stroke="#9a32cd" points="172.35,-136.74 170.94,-147.24 178.59,-139.91 172.35,-136.74"/>
</a>
</g>
<text text-anchor="middle" x="208.5" y="-120" font-family="Helvetica,sans-Serif" font-size="10.00" fill="grey"> reconnect</text>
</g>
<!-- Node5&#45;&gt;Node5 -->
<g id="edge9_Node000005_Node000005" class="edge">
<title>Node5&#45;&gt;Node5</title>
<g id="a_edge9_Node000005_Node000005"><a xlink:title=" ">
<path fill="none" stroke="#9a32cd" stroke-dasharray="5,2" d="M229.93,-161.74C234.62,-160.68 237.5,-159.1 237.5,-157 237.5,-153.65 230.13,-151.62 219.76,-150.91"/>
<polygon fill="#9a32cd" stroke="#9a32cd" points="229.21,-158.3 219.76,-163.09 230.13,-165.24 229.21,-158.3"/>
</a>
</g>
<text text-anchor="middle" x="266.5" y="-160" font-family="Helvetica,sans-Serif" font-size="10.00" fill="grey"> callback</text>
<text text-anchor="middle" x="266.5" y="-149" font-family="Helvetica,sans-Serif" font-size="10.00" fill="grey">health_check</text>
</g>
<!-- Node6 -->
<g id="Node000006" class="node">
<title>Node6</title>
<g id="a_Node000006"><a xlink:href="group__connection__mgmt.html#structSocketReconnect__Policy__T" target="_top" xlink:title="Configuration structure for reconnection backoff and circuit breaker policy.">
<polygon fill="white" stroke="#666666" points="235.5,-234 97.5,-234 97.5,-215 235.5,-215 235.5,-234"/>
<text text-anchor="middle" x="166.5" y="-222" font-family="Helvetica,sans-Serif" font-size="10.00">SocketReconnect_Policy_T</text>
</a>
</g>
</g>
<!-- Node6&#45;&gt;Node5 -->
<g id="edge7_Node000005_Node000006" class="edge">
<title>Node6&#45;&gt;Node5</title>
<g id="a_edge7_Node000005_Node000006"><a xlink:title=" ">
<path fill="none" stroke="#9a32cd" stroke-dasharray="5,2" d="M166.5,-204.68C166.5,-192.21 166.5,-176.42 166.5,-166.77"/>
<polygon fill="#9a32cd" stroke="#9a32cd" points="163,-204.94 166.5,-214.94 170,-204.94 163,-204.94"/>
</a>
</g>
<text text-anchor="middle" x="181" y="-189" font-family="Helvetica,sans-Serif" font-size="10.00" fill="grey"> policy</text>
</g>
<!-- Node7 -->
<g id="Node000007" class="node">
<title>Node7</title>
<g id="a_Node000007"><a xlink:href="group__security.html#structSocketTLSContext__T" target="_top" xlink:title="TLS context structure for managing OpenSSL SSL_CTX with secure defaults, certificates,...">
<polygon fill="white" stroke="#666666" points="425,-166.5 314,-166.5 314,-147.5 425,-147.5 425,-166.5"/>
<text text-anchor="middle" x="369.5" y="-154.5" font-family="Helvetica,sans-Serif" font-size="10.00">SocketTLSContext_T</text>
</a>
</g>
</g>
<!-- Node7&#45;&gt;Node1 -->
<g id="edge17_Node000001_Node000007" class="edge">
<title>Node7&#45;&gt;Node1</title>
<g id="a_edge17_Node000001_Node000007"><a xlink:title=" ">
<path fill="none" stroke="#9a32cd" stroke-dasharray="5,2" d="M360.14,-138.25C350.22,-120.82 333.16,-94.39 312.5,-77 275.84,-46.13 222.96,-28.19 187.24,-18.88"/>
<polygon fill="#9a32cd" stroke="#9a32cd" points="357.24,-140.25 365.12,-147.33 363.38,-136.88 357.24,-140.25"/>
</a>
</g>
<text text-anchor="middle" x="349" y="-85.5" font-family="Helvetica,sans-Serif" font-size="10.00" fill="grey"> tls_ctx</text>
</g>
<!-- Node7&#45;&gt;Node4 -->
<g id="edge10_Node000004_Node000007" class="edge">
<title>Node7&#45;&gt;Node4</title>
<g id="a_edge10_Node000004_Node000007"><a xlink:title=" ">
<path fill="none" stroke="#9a32cd" stroke-dasharray="5,2" d="M338.36,-143.66C304.62,-130.28 251.65,-109.28 222.16,-97.59"/>
<polygon fill="#9a32cd" stroke="#9a32cd" points="337.17,-146.95 347.75,-147.38 339.75,-140.44 337.17,-146.95"/>
</a>
</g>
<text text-anchor="middle" x="311" y="-120" font-family="Helvetica,sans-Serif" font-size="10.00" fill="grey"> tls_ctx</text>
</g>
<!-- Node7&#45;&gt;Node7 -->
<g id="edge13_Node000007_Node000007" class="edge">
<title>Node7&#45;&gt;Node7</title>
<g id="a_edge13_Node000007_Node000007"><a xlink:title=" ">
<path fill="none" stroke="#9a32cd" stroke-dasharray="5,2" d="M435.45,-161.67C440.14,-160.61 443,-159.05 443,-157 443,-153.71 435.67,-151.7 425.27,-150.95"/>
<polygon fill="#9a32cd" stroke="#9a32cd" points="434.71,-158.24 425.27,-163.05 435.65,-165.18 434.71,-158.24"/>
</a>
</g>
<text text-anchor="middle" x="477.5" y="-154.5" font-family="Helvetica,sans-Serif" font-size="10.00" fill="grey"> verify_callback</text>
</g>
<!-- Node8 -->
<g id="Node000008" class="node">
<title>Node8</title>
<g id="a_Node000008"><a xlink:href="structTLSContextSNICerts.html" target="_top" xlink:title="Structure for managing SNI certificate mappings in TLS context.">
<polygon fill="white" stroke="#666666" points="363.5,-234 253.5,-234 253.5,-215 363.5,-215 363.5,-234"/>
<text text-anchor="middle" x="308.5" y="-222" font-family="Helvetica,sans-Serif" font-size="10.00">TLSContextSNICerts</text>
</a>
</g>
</g>
<!-- Node8&#45;&gt;Node7 -->
<g id="edge11_Node000007_Node000008" class="edge">
<title>Node8&#45;&gt;Node7</title>
<g id="a_edge11_Node000007_Node000008"><a xlink:title=" ">
<path fill="none" stroke="#9a32cd" stroke-dasharray="5,2" d="M323.58,-207.3C335.51,-194.5 351.7,-177.11 361.33,-166.77"/>
<polygon fill="#9a32cd" stroke="#9a32cd" points="320.73,-205.23 316.47,-214.94 325.85,-210 320.73,-205.23"/>
</a>
</g>
<text text-anchor="middle" x="364" y="-189" font-family="Helvetica,sans-Serif" font-size="10.00" fill="grey"> sni_certs</text>
</g>
<!-- Node9 -->
<g id="Node000009" class="node">
<title>Node9</title>
<g id="a_Node000009"><a xlink:href="group__security.html#structTLSContextALPN" target="_top" xlink:title="Configuration for ALPN protocol negotiation.">
<polygon fill="white" stroke="#666666" points="477,-234 382,-234 382,-215 477,-215 477,-234"/>
<text text-anchor="middle" x="429.5" y="-222" font-family="Helvetica,sans-Serif" font-size="10.00">TLSContextALPN</text>
</a>
</g>
</g>
<!-- Node9&#45;&gt;Node7 -->
<g id="edge12_Node000007_Node000009" class="edge">
<title>Node9&#45;&gt;Node7</title>
<g id="a_edge12_Node000007_Node000009"><a xlink:title=" ">
<path fill="none" stroke="#9a32cd" stroke-dasharray="5,2" d="M414.66,-207.3C402.93,-194.5 387.01,-177.11 377.54,-166.77"/>
<polygon fill="#9a32cd" stroke="#9a32cd" points="412.32,-209.93 421.66,-214.94 417.48,-205.2 412.32,-209.93"/>
</a>
</g>
<text text-anchor="middle" x="415.5" y="-189" font-family="Helvetica,sans-Serif" font-size="10.00" fill="grey"> alpn</text>
</g>
<!-- Node10 -->
<g id="Node000010" class="node">
<title>Node10</title>
<g id="a_Node000010"><a xlink:href="group__security.html#structTLSContextPinning" target="_top" xlink:title="TLSContextPinning &#45; Certificate pinning configuration.">
<polygon fill="white" stroke="#666666" points="596,-234 495,-234 495,-215 596,-215 596,-234"/>
<text text-anchor="middle" x="545.5" y="-222" font-family="Helvetica,sans-Serif" font-size="10.00">TLSContextPinning</text>
</a>
</g>
</g>
<!-- Node10&#45;&gt;Node7 -->
<g id="edge14_Node000007_Node000010" class="edge">
<title>Node10&#45;&gt;Node7</title>
<g id="a_edge14_Node000007_Node000010"><a xlink:title=" ">
<path fill="none" stroke="#9a32cd" stroke-dasharray="5,2" d="M512.74,-211.31C477.76,-198.29 423.22,-177.99 392.51,-166.57"/>
<polygon fill="#9a32cd" stroke="#9a32cd" points="511.9,-214.73 522.49,-214.94 514.34,-208.17 511.9,-214.73"/>
</a>
</g>
<text text-anchor="middle" x="489.5" y="-189" font-family="Helvetica,sans-Serif" font-size="10.00" fill="grey"> pinning</text>
</g>
<!-- Node11 -->
<g id="Node000011" class="node">
<title>Node11</title>
<g id="a_Node000011"><a xlink:href="group__security.html#structTLSCertPin" target="_top" xlink:title="TLSCertPin &#45; Single certificate pin entry (SPKI SHA256 hash)">
<polygon fill="white" stroke="#666666" points="579.5,-300 511.5,-300 511.5,-281 579.5,-281 579.5,-300"/>
<text text-anchor="middle" x="545.5" y="-288" font-family="Helvetica,sans-Serif" font-size="10.00">TLSCertPin</text>
</a>
</g>
</g>
<!-- Node11&#45;&gt;Node10 -->
<g id="edge15_Node000010_Node000011" class="edge">
<title>Node11&#45;&gt;Node10</title>
<g id="a_edge15_Node000010_Node000011"><a xlink:title=" ">
<path fill="none" stroke="#9a32cd" stroke-dasharray="5,2" d="M545.5,-270.58C545.5,-258.63 545.5,-243.72 545.5,-234.41"/>
<polygon fill="#9a32cd" stroke="#9a32cd" points="542,-270.87 545.5,-280.87 549,-270.87 542,-270.87"/>
</a>
</g>
<text text-anchor="middle" x="556.5" y="-255" font-family="Helvetica,sans-Serif" font-size="10.00" fill="grey"> pins</text>
</g>
</g>
</svg>
