<?xml version="1.0" encoding="UTF-8" standalone="no"?>
<!DOCTYPE svg PUBLIC "-//W3C//DTD SVG 1.1//EN"
 "http://www.w3.org/Graphics/SVG/1.1/DTD/svg11.dtd">
<!-- Generated by graphviz version 2.43.0 (0)
 -->
<!-- Title: SocketHTTP2_Conn_T Pages: 1 -->
<svg width="430pt" height="181pt"
 viewBox="0.00 0.00 430.00 181.00" xmlns="http://www.w3.org/2000/svg" xmlns:xlink="http://www.w3.org/1999/xlink">
<g id="graph0" class="graph" transform="scale(1 1) rotate(0) translate(4 177)">
<title>SocketHTTP2_Conn_T</title>
<!-- Node1 -->
<g id="Node000001" class="node">
<title>Node1</title>
<g id="a_Node000001"><a xlink:title="Internal structure for HTTP/2 connection management.">
<polygon fill="#999999" stroke="#666666" points="232,-19 113,-19 113,0 232,0 232,-19"/>
<text text-anchor="middle" x="172.5" y="-7" font-family="Helvetica,sans-Serif" font-size="10.00">SocketHTTP2_Conn_T</text>
</a>
</g>
</g>
<!-- Node2 -->
<g id="Node000002" class="node">
<title>Node2</title>
<g id="a_Node000002"><a xlink:title=" ">
<polygon fill="white" stroke="#666666" points="83,-96 24,-96 24,-77 83,-77 83,-96"/>
<text text-anchor="middle" x="53.5" y="-84" font-family="Helvetica,sans-Serif" font-size="10.00">Socket_T</text>
</a>
</g>
</g>
<!-- Node2&#45;&gt;Node1 -->
<g id="edge1_Node000001_Node000002" class="edge">
<title>Node2&#45;&gt;Node1</title>
<g id="a_edge1_Node000001_Node000002"><a xlink:title=" ">
<path fill="none" stroke="#9a32cd" stroke-dasharray="5,2" d="M75.77,-71.46C100.24,-56.04 138.75,-31.77 159.01,-19"/>
<polygon fill="#9a32cd" stroke="#9a32cd" points="73.74,-68.6 67.15,-76.9 77.48,-74.53 73.74,-68.6"/>
</a>
</g>
<text text-anchor="middle" x="144" y="-45.5" font-family="Helvetica,sans-Serif" font-size="10.00" fill="grey"> socket</text>
</g>
<!-- Node3 -->
<g id="Node000003" class="node">
<title>Node3</title>
<g id="a_Node000003"><a xlink:href="group__foundation.html#structSocketTimeouts__T" target="_top" xlink:title="Timeout configuration structure for socket operations.">
<polygon fill="white" stroke="#666666" points="99,-173 0,-173 0,-154 99,-154 99,-173"/>
<text text-anchor="middle" x="49.5" y="-161" font-family="Helvetica,sans-Serif" font-size="10.00">SocketTimeouts_T</text>
</a>
</g>
</g>
<!-- Node3&#45;&gt;Node2 -->
<g id="edge2_Node000002_Node000003" class="edge">
<title>Node3&#45;&gt;Node2</title>
<g id="a_edge2_Node000002_Node000003"><a xlink:title=" ">
<path fill="none" stroke="#9a32cd" stroke-dasharray="5,2" d="M50.51,-143.52C51.33,-128.24 52.43,-107.48 53.05,-96"/>
<polygon fill="#9a32cd" stroke="#9a32cd" points="47,-143.72 49.96,-153.9 53.99,-144.1 47,-143.72"/>
</a>
</g>
<text text-anchor="middle" x="81" y="-122.5" font-family="Helvetica,sans-Serif" font-size="10.00" fill="grey"> tls_timeouts</text>
</g>
<!-- Node4 -->
<g id="Node000004" class="node">
<title>Node4</title>
<g id="a_Node000004"><a xlink:href="group__http2__private.html#structSocketHTTP2__Stream" target="_top" xlink:title="Internal structure for managing an HTTP/2 stream.">
<polygon fill="white" stroke="#666666" points="236,-96 109,-96 109,-77 236,-77 236,-96"/>
<text text-anchor="middle" x="172.5" y="-84" font-family="Helvetica,sans-Serif" font-size="10.00">SocketHTTP2_Stream_T</text>
</a>
</g>
</g>
<!-- Node4&#45;&gt;Node1 -->
<g id="edge3_Node000001_Node000004" class="edge">
<title>Node4&#45;&gt;Node1</title>
<g id="a_edge3_Node000001_Node000004"><a xlink:title=" ">
<path fill="none" stroke="#9a32cd" stroke-dasharray="5,2" d="M172.5,-66.52C172.5,-51.24 172.5,-30.48 172.5,-19"/>
<polygon fill="#9a32cd" stroke="#9a32cd" points="169,-66.9 172.5,-76.9 176,-66.9 169,-66.9"/>
</a>
</g>
<text text-anchor="middle" x="192" y="-45.5" font-family="Helvetica,sans-Serif" font-size="10.00" fill="grey"> streams</text>
</g>
<!-- Node4&#45;&gt;Node4 -->
<g id="edge5_Node000004_Node000004" class="edge">
<title>Node4&#45;&gt;Node4</title>
<g id="a_edge5_Node000004_Node000004"><a xlink:title=" ">
<path fill="none" stroke="#9a32cd" stroke-dasharray="5,2" d="M246.04,-91.63C250.99,-90.44 254,-88.73 254,-86.5 254,-83.01 246.67,-80.8 236.06,-79.88"/>
<polygon fill="#9a32cd" stroke="#9a32cd" points="245.43,-88.18 236.06,-93.12 246.47,-95.1 245.43,-88.18"/>
</a>
</g>
<text text-anchor="middle" x="278.5" y="-84" font-family="Helvetica,sans-Serif" font-size="10.00" fill="grey"> hash_next</text>
</g>
<!-- Node5 -->
<g id="Node000005" class="node">
<title>Node5</title>
<g id="a_Node000005"><a xlink:href="group__hpack.html#structSocketHPACK__Header" target="_top" xlink:title="HPACK header field representation.">
<polygon fill="white" stroke="#666666" points="235.5,-173 117.5,-173 117.5,-154 235.5,-154 235.5,-173"/>
<text text-anchor="middle" x="176.5" y="-161" font-family="Helvetica,sans-Serif" font-size="10.00">SocketHPACK_Header</text>
</a>
</g>
</g>
<!-- Node5&#45;&gt;Node4 -->
<g id="edge4_Node000004_Node000005" class="edge">
<title>Node5&#45;&gt;Node4</title>
<g id="a_edge4_Node000004_Node000005"><a xlink:title=" ">
<path fill="none" stroke="#9a32cd" stroke-dasharray="5,2" d="M175.49,-143.52C174.67,-128.24 173.57,-107.48 172.95,-96"/>
<polygon fill="#9a32cd" stroke="#9a32cd" points="172.01,-144.1 176.04,-153.9 179,-143.72 172.01,-144.1"/>
</a>
</g>
<text text-anchor="middle" x="194.5" y="-128" font-family="Helvetica,sans-Serif" font-size="10.00" fill="grey"> headers</text>
<text text-anchor="middle" x="194.5" y="-117" font-family="Helvetica,sans-Serif" font-size="10.00" fill="grey">trailers</text>
</g>
<!-- Node6 -->
<g id="Node000006" class="node">
<title>Node6</title>
<g id="a_Node000006"><a xlink:href="SocketRateLimit-private_8h.html#structSocketRateLimit__T" target="_top" xlink:title=" ">
<polygon fill="white" stroke="#666666" points="422,-96 321,-96 321,-77 422,-77 422,-96"/>
<text text-anchor="middle" x="371.5" y="-84" font-family="Helvetica,sans-Serif" font-size="10.00">SocketRateLimit_T</text>
</a>
</g>
</g>
<!-- Node6&#45;&gt;Node1 -->
<g id="edge6_Node000001_Node000006" class="edge">
<title>Node6&#45;&gt;Node1</title>
<g id="a_edge6_Node000001_Node000006"><a xlink:title=" ">
<path fill="none" stroke="#9a32cd" stroke-dasharray="5,2" d="M339.26,-73.35C298.78,-58.09 230.36,-32.31 195.06,-19"/>
<polygon fill="#9a32cd" stroke="#9a32cd" points="338.08,-76.64 348.67,-76.9 340.55,-70.09 338.08,-76.64"/>
</a>
</g>
<text text-anchor="middle" x="349" y="-51" font-family="Helvetica,sans-Serif" font-size="10.00" fill="grey"> stream_close_rate_limit</text>
<text text-anchor="middle" x="349" y="-40" font-family="Helvetica,sans-Serif" font-size="10.00" fill="grey">stream_open_rate_limit</text>
</g>
</g>
</svg>
