<?xml version="1.0" encoding="UTF-8" standalone="no"?>
<!DOCTYPE svg PUBLIC "-//W3C//DTD SVG 1.1//EN"
 "http://www.w3.org/Graphics/SVG/1.1/DTD/svg11.dtd">
<!-- Generated by graphviz version 2.43.0 (0)
 -->
<!-- Title: tcp_echo_server.c Pages: 1 -->
<svg width="1361pt" height="302pt"
 viewBox="0.00 0.00 1360.50 302.00" xmlns="http://www.w3.org/2000/svg" xmlns:xlink="http://www.w3.org/1999/xlink">
<g id="graph0" class="graph" transform="scale(1 1) rotate(0) translate(4 298)">
<title>tcp_echo_server.c</title>
<!-- Node1 -->
<g id="Node000001" class="node">
<title>Node1</title>
<g id="a_Node000001"><a xlink:title=" ">
<polygon fill="#999999" stroke="#666666" points="1136,-294 1040,-294 1040,-275 1136,-275 1136,-294"/>
<text text-anchor="middle" x="1088" y="-282" font-family="Helvetica,sans-Serif" font-size="10.00">tcp_echo_server.c</text>
</a>
</g>
</g>
<!-- Node2 -->
<g id="Node000002" class="node">
<title>Node2</title>
<g id="a_Node000002"><a xlink:title=" ">
<polygon fill="#e0e0e0" stroke="#999999" points="199,-239 149,-239 149,-220 199,-220 199,-239"/>
<text text-anchor="middle" x="174" y="-227" font-family="Helvetica,sans-Serif" font-size="10.00">signal.h</text>
</a>
</g>
</g>
<!-- Node1&#45;&gt;Node2 -->
<g id="edge1_Node000001_Node000002" class="edge">
<title>Node1&#45;&gt;Node2</title>
<g id="a_edge1_Node000001_Node000002"><a xlink:title=" ">
<path fill="none" stroke="#63b8ff" d="M1039.85,-283.81C907.32,-284.07 526.22,-280.81 213,-239 211.72,-238.83 210.43,-238.64 209.12,-238.43"/>
<polygon fill="#63b8ff" stroke="#63b8ff" points="209.53,-234.95 199.07,-236.6 208.28,-241.84 209.53,-234.95"/>
</a>
</g>
</g>
<!-- Node3 -->
<g id="Node000003" class="node">
<title>Node3</title>
<g id="a_Node000003"><a xlink:title=" ">
<polygon fill="#e0e0e0" stroke="#999999" points="46,-74 0,-74 0,-55 46,-55 46,-74"/>
<text text-anchor="middle" x="23" y="-62" font-family="Helvetica,sans-Serif" font-size="10.00">stdio.h</text>
</a>
</g>
</g>
<!-- Node1&#45;&gt;Node3 -->
<g id="edge2_Node000001_Node000003" class="edge">
<title>Node1&#45;&gt;Node3</title>
<g id="a_edge2_Node000001_Node000003"><a xlink:title=" ">
<path fill="none" stroke="#63b8ff" d="M1039.61,-276.94C935.64,-262.55 683.35,-226.15 474,-184 371.81,-163.43 346.81,-155.5 246,-129 178.06,-111.14 99.12,-88.12 55.75,-75.28"/>
<polygon fill="#63b8ff" stroke="#63b8ff" points="56.61,-71.88 46.03,-72.39 54.62,-78.59 56.61,-71.88"/>
</a>
</g>
</g>
<!-- Node4 -->
<g id="Node000004" class="node">
<title>Node4</title>
<g id="a_Node000004"><a xlink:title=" ">
<polygon fill="#e0e0e0" stroke="#999999" points="1285,-239 1237,-239 1237,-220 1285,-220 1285,-239"/>
<text text-anchor="middle" x="1261" y="-227" font-family="Helvetica,sans-Serif" font-size="10.00">stdlib.h</text>
</a>
</g>
</g>
<!-- Node1&#45;&gt;Node4 -->
<g id="edge3_Node000001_Node000004" class="edge">
<title>Node1&#45;&gt;Node4</title>
<g id="a_edge3_Node000001_Node000004"><a xlink:title=" ">
<path fill="none" stroke="#63b8ff" d="M1115.8,-274.98C1146.05,-265.72 1194.44,-250.89 1226.95,-240.93"/>
<polygon fill="#63b8ff" stroke="#63b8ff" points="1228.36,-244.16 1236.9,-237.88 1226.31,-237.47 1228.36,-244.16"/>
</a>
</g>
</g>
<!-- Node5 -->
<g id="Node000005" class="node">
<title>Node5</title>
<g id="a_Node000005"><a xlink:title=" ">
<polygon fill="#e0e0e0" stroke="#999999" points="1352.5,-239 1303.5,-239 1303.5,-220 1352.5,-220 1352.5,-239"/>
<text text-anchor="middle" x="1328" y="-227" font-family="Helvetica,sans-Serif" font-size="10.00">string.h</text>
</a>
</g>
</g>
<!-- Node1&#45;&gt;Node5 -->
<g id="edge4_Node000001_Node000005" class="edge">
<title>Node1&#45;&gt;Node5</title>
<g id="a_edge4_Node000001_Node000005"><a xlink:title=" ">
<path fill="none" stroke="#63b8ff" d="M1129.52,-274.94C1169.07,-266.7 1230.52,-253.65 1293.09,-239.15"/>
<polygon fill="#63b8ff" stroke="#63b8ff" points="1294.19,-242.49 1303.14,-236.81 1292.61,-235.67 1294.19,-242.49"/>
</a>
</g>
</g>
<!-- Node6 -->
<g id="Node000006" class="node">
<title>Node6</title>
<g id="a_Node000006"><a xlink:href="Except_8h.html" target="_top" xlink:title="Structured exception handling for C with TRY/EXCEPT/FINALLY blocks.">
<polygon fill="white" stroke="#666666" points="1171.5,-74 1094.5,-74 1094.5,-55 1171.5,-55 1171.5,-74"/>
<text text-anchor="middle" x="1133" y="-62" font-family="Helvetica,sans-Serif" font-size="10.00">core/Except.h</text>
</a>
</g>
</g>
<!-- Node1&#45;&gt;Node6 -->
<g id="edge5_Node000001_Node000006" class="edge">
<title>Node1&#45;&gt;Node6</title>
<g id="a_edge5_Node000001_Node000006"><a xlink:title=" ">
<path fill="none" stroke="#63b8ff" d="M1092.88,-274.81C1105.44,-251.88 1138.71,-187.46 1150,-129 1153.01,-113.42 1147.73,-96.03 1142.28,-83.39"/>
<polygon fill="#63b8ff" stroke="#63b8ff" points="1145.3,-81.57 1137.85,-74.04 1138.97,-84.57 1145.3,-81.57"/>
</a>
</g>
</g>
<!-- Node8 -->
<g id="Node000008" class="node">
<title>Node8</title>
<g id="a_Node000008"><a xlink:href="Socket_8h.html" target="_top" xlink:title="High&#45;level TCP/IP and Unix domain socket interface.">
<polygon fill="white" stroke="#666666" points="1011,-239 923,-239 923,-220 1011,-220 1011,-239"/>
<text text-anchor="middle" x="967" y="-227" font-family="Helvetica,sans-Serif" font-size="10.00">socket/Socket.h</text>
</a>
</g>
</g>
<!-- Node1&#45;&gt;Node8 -->
<g id="edge7_Node000001_Node000008" class="edge">
<title>Node1&#45;&gt;Node8</title>
<g id="a_edge7_Node000001_Node000008"><a xlink:title=" ">
<path fill="none" stroke="#63b8ff" d="M1068.56,-274.98C1049.01,-266.42 1018.62,-253.11 996.18,-243.28"/>
<polygon fill="#63b8ff" stroke="#63b8ff" points="997.36,-239.98 986.79,-239.17 994.55,-246.39 997.36,-239.98"/>
</a>
</g>
</g>
<!-- Node7 -->
<g id="Node000007" class="node">
<title>Node7</title>
<g id="a_Node000007"><a xlink:title=" ">
<polygon fill="#e0e0e0" stroke="#999999" points="1160,-19 1106,-19 1106,0 1160,0 1160,-19"/>
<text text-anchor="middle" x="1133" y="-7" font-family="Helvetica,sans-Serif" font-size="10.00">setjmp.h</text>
</a>
</g>
</g>
<!-- Node6&#45;&gt;Node7 -->
<g id="edge6_Node000006_Node000007" class="edge">
<title>Node6&#45;&gt;Node7</title>
<g id="a_edge6_Node000006_Node000007"><a xlink:title=" ">
<path fill="none" stroke="#63b8ff" d="M1133,-54.75C1133,-47.8 1133,-37.85 1133,-29.13"/>
<polygon fill="#63b8ff" stroke="#63b8ff" points="1136.5,-29.09 1133,-19.09 1129.5,-29.09 1136.5,-29.09"/>
</a>
</g>
</g>
<!-- Node8&#45;&gt;Node6 -->
<g id="edge8_Node000008_Node000006" class="edge">
<title>Node8&#45;&gt;Node6</title>
<g id="a_edge8_Node000008_Node000006"><a xlink:title=" ">
<path fill="none" stroke="#63b8ff" d="M999.18,-219.91C1039.03,-207.36 1105.15,-179.76 1134,-129 1141.66,-115.52 1140.6,-97.69 1138.09,-84.35"/>
<polygon fill="#63b8ff" stroke="#63b8ff" points="1141.46,-83.36 1135.8,-74.4 1134.64,-84.93 1141.46,-83.36"/>
</a>
</g>
</g>
<!-- Node9 -->
<g id="Node000009" class="node">
<title>Node9</title>
<g id="a_Node000009"><a xlink:href="SocketConfig_8h.html" target="_top" xlink:title="Compile&#45;time and runtime configuration constants, limits, and platform adaptations.">
<polygon fill="white" stroke="#666666" points="361,-129 255,-129 255,-110 361,-110 361,-129"/>
<text text-anchor="middle" x="308" y="-117" font-family="Helvetica,sans-Serif" font-size="10.00">core/SocketConfig.h</text>
</a>
</g>
</g>
<!-- Node8&#45;&gt;Node9 -->
<g id="edge9_Node000008_Node000009" class="edge">
<title>Node8&#45;&gt;Node9</title>
<g id="a_edge9_Node000008_Node000009"><a xlink:title=" ">
<path fill="none" stroke="#63b8ff" d="M922.97,-225.63C848.29,-220.31 692.2,-207.32 562,-184 484.56,-170.13 395.73,-145.99 346.31,-131.81"/>
<polygon fill="#63b8ff" stroke="#63b8ff" points="347.25,-128.44 336.67,-129.02 345.31,-135.16 347.25,-128.44"/>
</a>
</g>
</g>
<!-- Node18 -->
<g id="Node000018" class="node">
<title>Node18</title>
<g id="a_Node000018"><a xlink:href="SocketDNS_8h.html" target="_top" xlink:title="Asynchronous DNS resolution API for non&#45;blocking network applications.">
<polygon fill="white" stroke="#666666" points="1015,-129 919,-129 919,-110 1015,-110 1015,-129"/>
<text text-anchor="middle" x="967" y="-117" font-family="Helvetica,sans-Serif" font-size="10.00">dns/SocketDNS.h</text>
</a>
</g>
</g>
<!-- Node8&#45;&gt;Node18 -->
<g id="edge19_Node000008_Node000018" class="edge">
<title>Node8&#45;&gt;Node18</title>
<g id="a_edge19_Node000008_Node000018"><a xlink:title=" ">
<path fill="none" stroke="#63b8ff" d="M967,-219.66C967,-202.17 967,-162.8 967,-139.27"/>
<polygon fill="#63b8ff" stroke="#63b8ff" points="970.5,-139.16 967,-129.16 963.5,-139.16 970.5,-139.16"/>
</a>
</g>
</g>
<!-- Node21 -->
<g id="Node000021" class="node">
<title>Node21</title>
<g id="a_Node000021"><a xlink:href="SocketCommon_8h.html" target="_top" xlink:title="Common utilities shared between Socket and SocketDgram modules.">
<polygon fill="white" stroke="#666666" points="699,-184 571,-184 571,-165 699,-165 699,-184"/>
<text text-anchor="middle" x="635" y="-172" font-family="Helvetica,sans-Serif" font-size="10.00">socket/SocketCommon.h</text>
</a>
</g>
</g>
<!-- Node8&#45;&gt;Node21 -->
<g id="edge25_Node000008_Node000021" class="edge">
<title>Node8&#45;&gt;Node21</title>
<g id="a_edge25_Node000008_Node000021"><a xlink:title=" ">
<path fill="none" stroke="#63b8ff" d="M922.91,-221.46C865.4,-212.28 764.38,-196.15 698.58,-185.65"/>
<polygon fill="#63b8ff" stroke="#63b8ff" points="698.76,-182.14 688.34,-184.01 697.66,-189.05 698.76,-182.14"/>
</a>
</g>
</g>
<!-- Node9&#45;&gt;Node3 -->
<g id="edge15_Node000009_Node000003" class="edge">
<title>Node9&#45;&gt;Node3</title>
<g id="a_edge15_Node000009_Node000003"><a xlink:title=" ">
<path fill="none" stroke="#63b8ff" d="M254.92,-110.52C205.76,-102.82 130.41,-90.25 56.03,-74.07"/>
<polygon fill="#63b8ff" stroke="#63b8ff" points="56.53,-70.59 46.01,-71.87 55.03,-77.43 56.53,-70.59"/>
</a>
</g>
</g>
<!-- Node10 -->
<g id="Node000010" class="node">
<title>Node10</title>
<g id="a_Node000010"><a xlink:title=" ">
<polygon fill="#e0e0e0" stroke="#999999" points="254.5,-74 207.5,-74 207.5,-55 254.5,-55 254.5,-74"/>
<text text-anchor="middle" x="231" y="-62" font-family="Helvetica,sans-Serif" font-size="10.00">errno.h</text>
</a>
</g>
</g>
<!-- Node9&#45;&gt;Node10 -->
<g id="edge10_Node000009_Node000010" class="edge">
<title>Node9&#45;&gt;Node10</title>
<g id="a_edge10_Node000009_Node000010"><a xlink:title=" ">
<path fill="none" stroke="#63b8ff" d="M295.63,-109.98C283.91,-101.92 266.08,-89.65 252.11,-80.03"/>
<polygon fill="#63b8ff" stroke="#63b8ff" points="253.82,-76.96 243.6,-74.17 249.85,-82.72 253.82,-76.96"/>
</a>
</g>
</g>
<!-- Node11 -->
<g id="Node000011" class="node">
<title>Node11</title>
<g id="a_Node000011"><a xlink:title=" ">
<polygon fill="#e0e0e0" stroke="#999999" points="489,-74 445,-74 445,-55 489,-55 489,-74"/>
<text text-anchor="middle" x="467" y="-62" font-family="Helvetica,sans-Serif" font-size="10.00">fcntl.h</text>
</a>
</g>
</g>
<!-- Node9&#45;&gt;Node11 -->
<g id="edge11_Node000009_Node000011" class="edge">
<title>Node9&#45;&gt;Node11</title>
<g id="a_edge11_Node000009_Node000011"><a xlink:title=" ">
<path fill="none" stroke="#63b8ff" d="M333.55,-109.98C361.23,-100.76 405.44,-86.02 435.31,-76.06"/>
<polygon fill="#63b8ff" stroke="#63b8ff" points="436.47,-79.37 444.85,-72.88 434.26,-72.72 436.47,-79.37"/>
</a>
</g>
</g>
<!-- Node12 -->
<g id="Node000012" class="node">
<title>Node12</title>
<g id="a_Node000012"><a xlink:title=" ">
<polygon fill="#e0e0e0" stroke="#999999" points="426.5,-74 361.5,-74 361.5,-55 426.5,-55 426.5,-74"/>
<text text-anchor="middle" x="394" y="-62" font-family="Helvetica,sans-Serif" font-size="10.00">netinet/in.h</text>
</a>
</g>
</g>
<!-- Node9&#45;&gt;Node12 -->
<g id="edge12_Node000009_Node000012" class="edge">
<title>Node9&#45;&gt;Node12</title>
<g id="a_edge12_Node000009_Node000012"><a xlink:title=" ">
<path fill="none" stroke="#63b8ff" d="M321.82,-109.98C335.15,-101.77 355.58,-89.18 371.31,-79.49"/>
<polygon fill="#63b8ff" stroke="#63b8ff" points="373.25,-82.4 379.93,-74.17 369.58,-76.44 373.25,-82.4"/>
</a>
</g>
</g>
<!-- Node13 -->
<g id="Node000013" class="node">
<title>Node13</title>
<g id="a_Node000013"><a xlink:title=" ">
<polygon fill="#e0e0e0" stroke="#999999" points="343.5,-74 272.5,-74 272.5,-55 343.5,-55 343.5,-74"/>
<text text-anchor="middle" x="308" y="-62" font-family="Helvetica,sans-Serif" font-size="10.00">netinet/tcp.h</text>
</a>
</g>
</g>
<!-- Node9&#45;&gt;Node13 -->
<g id="edge13_Node000009_Node000013" class="edge">
<title>Node9&#45;&gt;Node13</title>
<g id="a_edge13_Node000009_Node000013"><a xlink:title=" ">
<path fill="none" stroke="#63b8ff" d="M308,-109.75C308,-102.8 308,-92.85 308,-84.13"/>
<polygon fill="#63b8ff" stroke="#63b8ff" points="311.5,-84.09 308,-74.09 304.5,-84.09 311.5,-84.09"/>
</a>
</g>
</g>
<!-- Node14 -->
<g id="Node000014" class="node">
<title>Node14</title>
<g id="a_Node000014"><a xlink:title=" ">
<polygon fill="#e0e0e0" stroke="#999999" points="958,-74 906,-74 906,-55 958,-55 958,-74"/>
<text text-anchor="middle" x="932" y="-62" font-family="Helvetica,sans-Serif" font-size="10.00">stddef.h</text>
</a>
</g>
</g>
<!-- Node9&#45;&gt;Node14 -->
<g id="edge14_Node000009_Node000014" class="edge">
<title>Node9&#45;&gt;Node14</title>
<g id="a_edge14_Node000009_Node000014"><a xlink:title=" ">
<path fill="none" stroke="#63b8ff" d="M361.2,-113.98C485.15,-103.45 790.59,-77.51 895.74,-68.58"/>
<polygon fill="#63b8ff" stroke="#63b8ff" points="896.18,-72.05 905.85,-67.72 895.59,-65.08 896.18,-72.05"/>
</a>
</g>
</g>
<!-- Node15 -->
<g id="Node000015" class="node">
<title>Node15</title>
<g id="a_Node000015"><a xlink:title=" ">
<polygon fill="#e0e0e0" stroke="#999999" points="580.5,-74 507.5,-74 507.5,-55 580.5,-55 580.5,-74"/>
<text text-anchor="middle" x="544" y="-62" font-family="Helvetica,sans-Serif" font-size="10.00">sys/socket.h</text>
</a>
</g>
</g>
<!-- Node9&#45;&gt;Node15 -->
<g id="edge16_Node000009_Node000015" class="edge">
<title>Node9&#45;&gt;Node15</title>
<g id="a_edge16_Node000009_Node000015"><a xlink:title=" ">
<path fill="none" stroke="#63b8ff" d="M345.92,-109.98C387.14,-100.73 453.04,-85.93 497.39,-75.97"/>
<polygon fill="#63b8ff" stroke="#63b8ff" points="498.35,-79.34 507.34,-73.73 496.82,-72.51 498.35,-79.34"/>
</a>
</g>
</g>
<!-- Node16 -->
<g id="Node000016" class="node">
<title>Node16</title>
<g id="a_Node000016"><a xlink:title=" ">
<polygon fill="#e0e0e0" stroke="#999999" points="120,-74 64,-74 64,-55 120,-55 120,-74"/>
<text text-anchor="middle" x="92" y="-62" font-family="Helvetica,sans-Serif" font-size="10.00">sys/uio.h</text>
</a>
</g>
</g>
<!-- Node9&#45;&gt;Node16 -->
<g id="edge17_Node000009_Node000016" class="edge">
<title>Node9&#45;&gt;Node16</title>
<g id="a_edge17_Node000009_Node000016"><a xlink:title=" ">
<path fill="none" stroke="#63b8ff" d="M273.3,-109.98C234.05,-100.35 170.35,-84.72 129.85,-74.79"/>
<polygon fill="#63b8ff" stroke="#63b8ff" points="130.63,-71.37 120.08,-72.39 128.96,-78.17 130.63,-71.37"/>
</a>
</g>
</g>
<!-- Node17 -->
<g id="Node000017" class="node">
<title>Node17</title>
<g id="a_Node000017"><a xlink:title=" ">
<polygon fill="#e0e0e0" stroke="#999999" points="189.5,-74 138.5,-74 138.5,-55 189.5,-55 189.5,-74"/>
<text text-anchor="middle" x="164" y="-62" font-family="Helvetica,sans-Serif" font-size="10.00">unistd.h</text>
</a>
</g>
</g>
<!-- Node9&#45;&gt;Node17 -->
<g id="edge18_Node000009_Node000017" class="edge">
<title>Node9&#45;&gt;Node17</title>
<g id="a_edge18_Node000009_Node000017"><a xlink:title=" ">
<path fill="none" stroke="#63b8ff" d="M284.86,-109.98C261.18,-101.27 224.13,-87.63 197.29,-77.75"/>
<polygon fill="#63b8ff" stroke="#63b8ff" points="198.15,-74.34 187.56,-74.17 195.73,-80.91 198.15,-74.34"/>
</a>
</g>
</g>
<!-- Node18&#45;&gt;Node6 -->
<g id="edge20_Node000018_Node000006" class="edge">
<title>Node18&#45;&gt;Node6</title>
<g id="a_edge20_Node000018_Node000006"><a xlink:title=" ">
<path fill="none" stroke="#63b8ff" d="M993.67,-109.98C1021.54,-101.09 1065.45,-87.07 1096.52,-77.15"/>
<polygon fill="#63b8ff" stroke="#63b8ff" points="1097.66,-80.46 1106.12,-74.08 1095.53,-73.79 1097.66,-80.46"/>
</a>
</g>
</g>
<!-- Node18&#45;&gt;Node14 -->
<g id="edge22_Node000018_Node000014" class="edge">
<title>Node18&#45;&gt;Node14</title>
<g id="a_edge22_Node000018_Node000014"><a xlink:title=" ">
<path fill="none" stroke="#63b8ff" d="M961.22,-109.75C956.38,-102.42 949.32,-91.73 943.36,-82.7"/>
<polygon fill="#63b8ff" stroke="#63b8ff" points="946.1,-80.5 937.67,-74.09 940.26,-84.36 946.1,-80.5"/>
</a>
</g>
</g>
<!-- Node18&#45;&gt;Node15 -->
<g id="edge24_Node000018_Node000015" class="edge">
<title>Node18&#45;&gt;Node15</title>
<g id="a_edge24_Node000018_Node000015"><a xlink:title=" ">
<path fill="none" stroke="#63b8ff" d="M918.81,-111.22C915.83,-110.8 912.88,-110.39 910,-110 795.52,-94.51 660.54,-78.74 590.87,-70.79"/>
<polygon fill="#63b8ff" stroke="#63b8ff" points="591,-67.28 580.67,-69.63 590.21,-74.23 591,-67.28"/>
</a>
</g>
</g>
<!-- Node19 -->
<g id="Node000019" class="node">
<title>Node19</title>
<g id="a_Node000019"><a xlink:title=" ">
<polygon fill="#e0e0e0" stroke="#999999" points="784.5,-74 735.5,-74 735.5,-55 784.5,-55 784.5,-74"/>
<text text-anchor="middle" x="760" y="-62" font-family="Helvetica,sans-Serif" font-size="10.00">netdb.h</text>
</a>
</g>
</g>
<!-- Node18&#45;&gt;Node19 -->
<g id="edge21_Node000018_Node000019" class="edge">
<title>Node18&#45;&gt;Node19</title>
<g id="a_edge21_Node000018_Node000019"><a xlink:title=" ">
<path fill="none" stroke="#63b8ff" d="M933.74,-109.98C895.55,-100.21 833.21,-84.25 794.51,-74.34"/>
<polygon fill="#63b8ff" stroke="#63b8ff" points="795.29,-70.92 784.73,-71.83 793.55,-77.7 795.29,-70.92"/>
</a>
</g>
</g>
<!-- Node20 -->
<g id="Node000020" class="node">
<title>Node20</title>
<g id="a_Node000020"><a xlink:title=" ">
<polygon fill="#e0e0e0" stroke="#999999" points="1025.5,-74 976.5,-74 976.5,-55 1025.5,-55 1025.5,-74"/>
<text text-anchor="middle" x="1001" y="-62" font-family="Helvetica,sans-Serif" font-size="10.00">stdint.h</text>
</a>
</g>
</g>
<!-- Node18&#45;&gt;Node20 -->
<g id="edge23_Node000018_Node000020" class="edge">
<title>Node18&#45;&gt;Node20</title>
<g id="a_edge23_Node000018_Node000020"><a xlink:title=" ">
<path fill="none" stroke="#63b8ff" d="M972.61,-109.75C977.32,-102.42 984.17,-91.73 989.97,-82.7"/>
<polygon fill="#63b8ff" stroke="#63b8ff" points="993.04,-84.4 995.49,-74.09 987.14,-80.62 993.04,-84.4"/>
</a>
</g>
</g>
<!-- Node21&#45;&gt;Node6 -->
<g id="edge38_Node000021_Node000006" class="edge">
<title>Node21&#45;&gt;Node6</title>
<g id="a_edge38_Node000021_Node000006"><a xlink:title=" ">
<path fill="none" stroke="#63b8ff" d="M699.21,-171.49C822.41,-167.05 1082.59,-154.74 1114,-129 1127.06,-118.3 1131.39,-99 1132.71,-84.47"/>
<polygon fill="#63b8ff" stroke="#63b8ff" points="1136.22,-84.27 1133.23,-74.1 1129.23,-83.92 1136.22,-84.27"/>
</a>
</g>
</g>
<!-- Node21&#45;&gt;Node9 -->
<g id="edge39_Node000021_Node000009" class="edge">
<title>Node21&#45;&gt;Node9</title>
<g id="a_edge39_Node000021_Node000009"><a xlink:title=" ">
<path fill="none" stroke="#63b8ff" d="M582.46,-164.98C524.74,-155.63 432.09,-140.61 370.64,-130.65"/>
<polygon fill="#63b8ff" stroke="#63b8ff" points="371.11,-127.18 360.68,-129.04 369.99,-134.09 371.11,-127.18"/>
</a>
</g>
</g>
<!-- Node21&#45;&gt;Node11 -->
<g id="edge28_Node000021_Node000011" class="edge">
<title>Node21&#45;&gt;Node11</title>
<g id="a_edge28_Node000021_Node000011"><a xlink:title=" ">
<path fill="none" stroke="#63b8ff" d="M570.91,-169.92C539.7,-164.85 504.03,-153.56 481,-129 469.79,-117.04 466.79,-98.22 466.3,-84.17"/>
<polygon fill="#63b8ff" stroke="#63b8ff" points="469.8,-84.16 466.33,-74.15 462.8,-84.14 469.8,-84.16"/>
</a>
</g>
</g>
<!-- Node21&#45;&gt;Node12 -->
<g id="edge30_Node000021_Node000012" class="edge">
<title>Node21&#45;&gt;Node12</title>
<g id="a_edge30_Node000021_Node000012"><a xlink:title=" ">
<path fill="none" stroke="#63b8ff" d="M577.38,-164.97C543.78,-158.39 501.39,-147.23 467,-129 444.17,-116.9 422.42,-96.42 408.7,-81.99"/>
<polygon fill="#63b8ff" stroke="#63b8ff" points="410.95,-79.28 401.59,-74.31 405.81,-84.03 410.95,-79.28"/>
</a>
</g>
</g>
<!-- Node21&#45;&gt;Node15 -->
<g id="edge31_Node000021_Node000015" class="edge">
<title>Node21&#45;&gt;Node15</title>
<g id="a_edge31_Node000021_Node000015"><a xlink:title=" ">
<path fill="none" stroke="#63b8ff" d="M570.81,-170.74C540.91,-165.83 507.85,-154.45 489,-129 475.69,-111.03 498.05,-91.81 518.13,-79.28"/>
<polygon fill="#63b8ff" stroke="#63b8ff" points="519.93,-82.28 526.77,-74.18 516.38,-76.25 519.93,-82.28"/>
</a>
</g>
</g>
<!-- Node21&#45;&gt;Node19 -->
<g id="edge29_Node000021_Node000019" class="edge">
<title>Node21&#45;&gt;Node19</title>
<g id="a_edge29_Node000021_Node000019"><a xlink:title=" ">
<path fill="none" stroke="#63b8ff" d="M589.55,-164.93C549.31,-155.34 500.23,-137.44 523,-110 548.28,-79.53 665.58,-69.79 725.12,-66.79"/>
<polygon fill="#63b8ff" stroke="#63b8ff" points="725.37,-70.28 735.19,-66.31 725.04,-63.29 725.37,-70.28"/>
</a>
</g>
</g>
<!-- Node22 -->
<g id="Node000022" class="node">
<title>Node22</title>
<g id="a_Node000022"><a xlink:title=" ">
<polygon fill="#e0e0e0" stroke="#999999" points="588.5,-129 531.5,-129 531.5,-110 588.5,-110 588.5,-129"/>
<text text-anchor="middle" x="560" y="-117" font-family="Helvetica,sans-Serif" font-size="10.00">pthread.h</text>
</a>
</g>
</g>
<!-- Node21&#45;&gt;Node22 -->
<g id="edge26_Node000021_Node000022" class="edge">
<title>Node21&#45;&gt;Node22</title>
<g id="a_edge26_Node000021_Node000022"><a xlink:title=" ">
<path fill="none" stroke="#63b8ff" d="M622.95,-164.98C611.54,-156.92 594.17,-144.65 580.57,-135.03"/>
<polygon fill="#63b8ff" stroke="#63b8ff" points="582.46,-132.08 572.27,-129.17 578.42,-137.8 582.46,-132.08"/>
</a>
</g>
</g>
<!-- Node23 -->
<g id="Node000023" class="node">
<title>Node23</title>
<g id="a_Node000023"><a xlink:title=" ">
<polygon fill="#e0e0e0" stroke="#999999" points="663,-129 607,-129 607,-110 663,-110 663,-129"/>
<text text-anchor="middle" x="635" y="-117" font-family="Helvetica,sans-Serif" font-size="10.00">stdbool.h</text>
</a>
</g>
</g>
<!-- Node21&#45;&gt;Node23 -->
<g id="edge27_Node000021_Node000023" class="edge">
<title>Node21&#45;&gt;Node23</title>
<g id="a_edge27_Node000021_Node000023"><a xlink:title=" ">
<path fill="none" stroke="#63b8ff" d="M635,-164.75C635,-157.8 635,-147.85 635,-139.13"/>
<polygon fill="#63b8ff" stroke="#63b8ff" points="638.5,-139.09 635,-129.09 631.5,-139.09 638.5,-139.09"/>
</a>
</g>
</g>
<!-- Node24 -->
<g id="Node000024" class="node">
<title>Node24</title>
<g id="a_Node000024"><a xlink:title=" ">
<polygon fill="#e0e0e0" stroke="#999999" points="743,-129 681,-129 681,-110 743,-110 743,-129"/>
<text text-anchor="middle" x="712" y="-117" font-family="Helvetica,sans-Serif" font-size="10.00">sys/time.h</text>
</a>
</g>
</g>
<!-- Node21&#45;&gt;Node24 -->
<g id="edge32_Node000021_Node000024" class="edge">
<title>Node21&#45;&gt;Node24</title>
<g id="a_edge32_Node000021_Node000024"><a xlink:title=" ">
<path fill="none" stroke="#63b8ff" d="M647.37,-164.98C659.09,-156.92 676.92,-144.65 690.89,-135.03"/>
<polygon fill="#63b8ff" stroke="#63b8ff" points="693.15,-137.72 699.4,-129.17 689.18,-131.96 693.15,-137.72"/>
</a>
</g>
</g>
<!-- Node25 -->
<g id="Node000025" class="node">
<title>Node25</title>
<g id="a_Node000025"><a xlink:title=" ">
<polygon fill="#e0e0e0" stroke="#999999" points="829,-129 761,-129 761,-110 829,-110 829,-129"/>
<text text-anchor="middle" x="795" y="-117" font-family="Helvetica,sans-Serif" font-size="10.00">sys/types.h</text>
</a>
</g>
</g>
<!-- Node21&#45;&gt;Node25 -->
<g id="edge33_Node000021_Node000025" class="edge">
<title>Node21&#45;&gt;Node25</title>
<g id="a_edge33_Node000021_Node000025"><a xlink:title=" ">
<path fill="none" stroke="#63b8ff" d="M660.71,-164.98C687.45,-156.13 729.53,-142.19 759.45,-132.28"/>
<polygon fill="#63b8ff" stroke="#63b8ff" points="760.7,-135.55 769.09,-129.08 758.5,-128.9 760.7,-135.55"/>
</a>
</g>
</g>
<!-- Node26 -->
<g id="Node000026" class="node">
<title>Node26</title>
<g id="a_Node000026"><a xlink:title=" ">
<polygon fill="#e0e0e0" stroke="#999999" points="901,-129 847,-129 847,-110 901,-110 901,-129"/>
<text text-anchor="middle" x="874" y="-117" font-family="Helvetica,sans-Serif" font-size="10.00">sys/un.h</text>
</a>
</g>
</g>
<!-- Node21&#45;&gt;Node26 -->
<g id="edge34_Node000021_Node000026" class="edge">
<title>Node21&#45;&gt;Node26</title>
<g id="a_edge34_Node000021_Node000026"><a xlink:title=" ">
<path fill="none" stroke="#63b8ff" d="M674.72,-164.99C713.59,-156.62 774.75,-143.33 836.9,-129.22"/>
<polygon fill="#63b8ff" stroke="#63b8ff" points="837.91,-132.58 846.88,-126.95 836.36,-125.76 837.91,-132.58"/>
</a>
</g>
</g>
<!-- Node27 -->
<g id="Node000027" class="node">
<title>Node27</title>
<g id="a_Node000027"><a xlink:href="Arena_8h.html" target="_top" xlink:title="Arena&#45;based memory allocator for efficient bulk memory management.">
<polygon fill="white" stroke="#666666" points="1105,-129 1033,-129 1033,-110 1105,-110 1105,-129"/>
<text text-anchor="middle" x="1069" y="-117" font-family="Helvetica,sans-Serif" font-size="10.00">core/Arena.h</text>
</a>
</g>
</g>
<!-- Node21&#45;&gt;Node27 -->
<g id="edge35_Node000021_Node000027" class="edge">
<title>Node21&#45;&gt;Node27</title>
<g id="a_edge35_Node000021_Node000027"><a xlink:title=" ">
<path fill="none" stroke="#63b8ff" d="M699.21,-167.6C774.37,-160.37 902.82,-147.01 1022.61,-129.11"/>
<polygon fill="#63b8ff" stroke="#63b8ff" points="1023.32,-132.55 1032.69,-127.59 1022.28,-125.62 1023.32,-132.55"/>
</a>
</g>
</g>
<!-- Node27&#45;&gt;Node6 -->
<g id="edge37_Node000027_Node000006" class="edge">
<title>Node27&#45;&gt;Node6</title>
<g id="a_edge37_Node000027_Node000006"><a xlink:title=" ">
<path fill="none" stroke="#63b8ff" d="M1079.28,-109.98C1088.84,-102.07 1103.28,-90.11 1114.78,-80.58"/>
<polygon fill="#63b8ff" stroke="#63b8ff" points="1117.06,-83.24 1122.53,-74.17 1112.6,-77.85 1117.06,-83.24"/>
</a>
</g>
</g>
<!-- Node27&#45;&gt;Node14 -->
<g id="edge36_Node000027_Node000014" class="edge">
<title>Node27&#45;&gt;Node14</title>
<g id="a_edge36_Node000027_Node000014"><a xlink:title=" ">
<path fill="none" stroke="#63b8ff" d="M1046.99,-109.98C1024.55,-101.3 989.52,-87.75 964.01,-77.88"/>
<polygon fill="#63b8ff" stroke="#63b8ff" points="965,-74.51 954.41,-74.17 962.48,-81.04 965,-74.51"/>
</a>
</g>
</g>
</g>
</svg>
