<?xml version="1.0" encoding="UTF-8" standalone="no"?>
<!DOCTYPE svg PUBLIC "-//W3C//DTD SVG 1.1//EN"
 "http://www.w3.org/Graphics/SVG/1.1/DTD/svg11.dtd">
<!-- Generated by graphviz version 2.43.0 (0)
 -->
<!-- Title: tls_advanced.c Pages: 1 -->
<svg width="1660pt" height="412pt"
 viewBox="0.00 0.00 1660.00 412.00" xmlns="http://www.w3.org/2000/svg" xmlns:xlink="http://www.w3.org/1999/xlink">
<g id="graph0" class="graph" transform="scale(1 1) rotate(0) translate(4 408)">
<title>tls_advanced.c</title>
<!-- Node1 -->
<g id="Node000001" class="node">
<title>Node1</title>
<g id="a_Node000001"><a xlink:title=" ">
<polygon fill="#999999" stroke="#666666" points="462.5,-404 379.5,-404 379.5,-385 462.5,-385 462.5,-404"/>
<text text-anchor="middle" x="421" y="-392" font-family="Helvetica,sans-Serif" font-size="10.00">tls_advanced.c</text>
</a>
</g>
</g>
<!-- Node2 -->
<g id="Node000002" class="node">
<title>Node2</title>
<g id="a_Node000002"><a xlink:title=" ">
<polygon fill="#e0e0e0" stroke="#999999" points="50,-349 0,-349 0,-330 50,-330 50,-349"/>
<text text-anchor="middle" x="25" y="-337" font-family="Helvetica,sans-Serif" font-size="10.00">signal.h</text>
</a>
</g>
</g>
<!-- Node1&#45;&gt;Node2 -->
<g id="edge1_Node000001_Node000002" class="edge">
<title>Node1&#45;&gt;Node2</title>
<g id="a_edge1_Node000001_Node000002"><a xlink:title=" ">
<path fill="none" stroke="#63b8ff" d="M379.32,-389.54C312.51,-382.92 177.44,-368.39 64,-349 62.73,-348.78 61.44,-348.55 60.14,-348.31"/>
<polygon fill="#63b8ff" stroke="#63b8ff" points="60.6,-344.84 50.11,-346.32 59.24,-351.7 60.6,-344.84"/>
</a>
</g>
</g>
<!-- Node3 -->
<g id="Node000003" class="node">
<title>Node3</title>
<g id="a_Node000003"><a xlink:title=" ">
<polygon fill="#e0e0e0" stroke="#999999" points="207,-74 161,-74 161,-55 207,-55 207,-74"/>
<text text-anchor="middle" x="184" y="-62" font-family="Helvetica,sans-Serif" font-size="10.00">stdio.h</text>
</a>
</g>
</g>
<!-- Node1&#45;&gt;Node3 -->
<g id="edge2_Node000001_Node000003" class="edge">
<title>Node1&#45;&gt;Node3</title>
<g id="a_edge2_Node000001_Node000003"><a xlink:title=" ">
<path fill="none" stroke="#63b8ff" d="M379.28,-389.26C287.87,-378.81 78,-348.01 78,-285.5 78,-285.5 78,-285.5 78,-173.5 78,-144.04 78.15,-132.64 97,-110 110.99,-93.2 132.93,-82.04 151.28,-75.1"/>
<polygon fill="#63b8ff" stroke="#63b8ff" points="152.49,-78.38 160.76,-71.75 150.17,-71.78 152.49,-78.38"/>
</a>
</g>
</g>
<!-- Node4 -->
<g id="Node000004" class="node">
<title>Node4</title>
<g id="a_Node000004"><a xlink:title=" ">
<polygon fill="#e0e0e0" stroke="#999999" points="319,-349 271,-349 271,-330 319,-330 319,-349"/>
<text text-anchor="middle" x="295" y="-337" font-family="Helvetica,sans-Serif" font-size="10.00">stdlib.h</text>
</a>
</g>
</g>
<!-- Node1&#45;&gt;Node4 -->
<g id="edge3_Node000001_Node000004" class="edge">
<title>Node1&#45;&gt;Node4</title>
<g id="a_edge3_Node000001_Node000004"><a xlink:title=" ">
<path fill="none" stroke="#63b8ff" d="M400.76,-384.98C380.3,-376.38 348.47,-362.99 325.07,-353.15"/>
<polygon fill="#63b8ff" stroke="#63b8ff" points="326.19,-349.82 315.61,-349.17 323.47,-356.27 326.19,-349.82"/>
</a>
</g>
</g>
<!-- Node5 -->
<g id="Node000005" class="node">
<title>Node5</title>
<g id="a_Node000005"><a xlink:title=" ">
<polygon fill="#e0e0e0" stroke="#999999" points="155.5,-129 106.5,-129 106.5,-110 155.5,-110 155.5,-129"/>
<text text-anchor="middle" x="131" y="-117" font-family="Helvetica,sans-Serif" font-size="10.00">string.h</text>
</a>
</g>
</g>
<!-- Node1&#45;&gt;Node5 -->
<g id="edge4_Node000001_Node000005" class="edge">
<title>Node1&#45;&gt;Node5</title>
<g id="a_edge4_Node000001_Node000005"><a xlink:title=" ">
<path fill="none" stroke="#63b8ff" d="M409.44,-384.81C388.62,-368.07 347,-329.14 347,-285.5 347,-285.5 347,-285.5 347,-228.5 347,-188.47 226.82,-148.07 165.75,-130.12"/>
<polygon fill="#63b8ff" stroke="#63b8ff" points="166.36,-126.65 155.78,-127.24 164.41,-133.38 166.36,-126.65"/>
</a>
</g>
</g>
<!-- Node6 -->
<g id="Node000006" class="node">
<title>Node6</title>
<g id="a_Node000006"><a xlink:href="Except_8h.html" target="_top" xlink:title="Structured exception handling for C with TRY/EXCEPT/FINALLY blocks.">
<polygon fill="white" stroke="#666666" points="1363.5,-74 1286.5,-74 1286.5,-55 1363.5,-55 1363.5,-74"/>
<text text-anchor="middle" x="1325" y="-62" font-family="Helvetica,sans-Serif" font-size="10.00">core/Except.h</text>
</a>
</g>
</g>
<!-- Node1&#45;&gt;Node6 -->
<g id="edge5_Node000001_Node000006" class="edge">
<title>Node1&#45;&gt;Node6</title>
<g id="a_edge5_Node000001_Node000006"><a xlink:title=" ">
<path fill="none" stroke="#63b8ff" d="M462.66,-392.08C677.7,-384.46 1652,-346.58 1652,-285.5 1652,-285.5 1652,-285.5 1652,-173.5 1652,-131.82 1620.39,-128.4 1583,-110 1515.71,-76.88 1427.98,-67.97 1374.12,-65.82"/>
<polygon fill="#63b8ff" stroke="#63b8ff" points="1373.92,-62.31 1363.81,-65.47 1373.69,-69.31 1373.92,-62.31"/>
</a>
</g>
</g>
<!-- Node8 -->
<g id="Node000008" class="node">
<title>Node8</title>
<g id="a_Node000008"><a xlink:href="SocketUtil_8h.html" target="_top" xlink:title="Consolidated utility header for logging, metrics, events, and error handling.">
<polygon fill="white" stroke="#666666" points="467,-184 375,-184 375,-165 467,-165 467,-184"/>
<text text-anchor="middle" x="421" y="-172" font-family="Helvetica,sans-Serif" font-size="10.00">core/SocketUtil.h</text>
</a>
</g>
</g>
<!-- Node1&#45;&gt;Node8 -->
<g id="edge7_Node000001_Node000008" class="edge">
<title>Node1&#45;&gt;Node8</title>
<g id="a_edge7_Node000001_Node000008"><a xlink:title=" ">
<path fill="none" stroke="#63b8ff" d="M421,-384.95C421,-352.95 421,-239.68 421,-194.4"/>
<polygon fill="#63b8ff" stroke="#63b8ff" points="424.5,-194.22 421,-184.22 417.5,-194.22 424.5,-194.22"/>
</a>
</g>
</g>
<!-- Node23 -->
<g id="Node000023" class="node">
<title>Node23</title>
<g id="a_Node000023"><a xlink:href="Socket_8h.html" target="_top" xlink:title="High&#45;level TCP/IP and Unix domain socket interface.">
<polygon fill="white" stroke="#666666" points="983,-239 895,-239 895,-220 983,-220 983,-239"/>
<text text-anchor="middle" x="939" y="-227" font-family="Helvetica,sans-Serif" font-size="10.00">socket/Socket.h</text>
</a>
</g>
</g>
<!-- Node1&#45;&gt;Node23 -->
<g id="edge30_Node000001_Node000023" class="edge">
<title>Node1&#45;&gt;Node23</title>
<g id="a_edge30_Node000001_Node000023"><a xlink:title=" ">
<path fill="none" stroke="#63b8ff" d="M448.12,-384.97C534.56,-357.77 803.67,-273.09 902.29,-242.05"/>
<polygon fill="#63b8ff" stroke="#63b8ff" points="903.35,-245.39 911.84,-239.05 901.25,-238.71 903.35,-245.39"/>
</a>
</g>
</g>
<!-- Node32 -->
<g id="Node000032" class="node">
<title>Node32</title>
<g id="a_Node000032"><a xlink:href="SocketTLS_8h.html" target="_top" xlink:title="High&#45;level TLS/SSL integration for secure Socket I/O with TLS 1.3 enforcement.">
<polygon fill="white" stroke="#666666" points="1007.5,-294 920.5,-294 920.5,-275 1007.5,-275 1007.5,-294"/>
<text text-anchor="middle" x="964" y="-282" font-family="Helvetica,sans-Serif" font-size="10.00">tls/SocketTLS.h</text>
</a>
</g>
</g>
<!-- Node1&#45;&gt;Node32 -->
<g id="edge52_Node000001_Node000032" class="edge">
<title>Node1&#45;&gt;Node32</title>
<g id="a_edge52_Node000001_Node000032"><a xlink:title=" ">
<path fill="none" stroke="#63b8ff" d="M462.71,-385.2C560.26,-365.8 803.21,-317.48 911.02,-296.04"/>
<polygon fill="#63b8ff" stroke="#63b8ff" points="911.9,-299.43 921.03,-294.05 910.54,-292.57 911.9,-299.43"/>
</a>
</g>
</g>
<!-- Node34 -->
<g id="Node000034" class="node">
<title>Node34</title>
<g id="a_Node000034"><a xlink:href="SocketTLSContext_8h.html" target="_top" xlink:title="TLS context management with secure defaults and certificate handling.">
<polygon fill="white" stroke="#666666" points="1156,-349 1034,-349 1034,-330 1156,-330 1156,-349"/>
<text text-anchor="middle" x="1095" y="-337" font-family="Helvetica,sans-Serif" font-size="10.00">tls/SocketTLSContext.h</text>
</a>
</g>
</g>
<!-- Node1&#45;&gt;Node34 -->
<g id="edge57_Node000001_Node000034" class="edge">
<title>Node1&#45;&gt;Node34</title>
<g id="a_edge57_Node000001_Node000034"><a xlink:title=" ">
<path fill="none" stroke="#63b8ff" d="M462.65,-390.22C574.65,-381.42 883.26,-357.15 1023.72,-346.11"/>
<polygon fill="#63b8ff" stroke="#63b8ff" points="1024.25,-349.57 1033.94,-345.3 1023.7,-342.6 1024.25,-349.57"/>
</a>
</g>
</g>
<!-- Node7 -->
<g id="Node000007" class="node">
<title>Node7</title>
<g id="a_Node000007"><a xlink:title=" ">
<polygon fill="#e0e0e0" stroke="#999999" points="1352,-19 1298,-19 1298,0 1352,0 1352,-19"/>
<text text-anchor="middle" x="1325" y="-7" font-family="Helvetica,sans-Serif" font-size="10.00">setjmp.h</text>
</a>
</g>
</g>
<!-- Node6&#45;&gt;Node7 -->
<g id="edge6_Node000006_Node000007" class="edge">
<title>Node6&#45;&gt;Node7</title>
<g id="a_edge6_Node000006_Node000007"><a xlink:title=" ">
<path fill="none" stroke="#63b8ff" d="M1325,-54.75C1325,-47.8 1325,-37.85 1325,-29.13"/>
<polygon fill="#63b8ff" stroke="#63b8ff" points="1328.5,-29.09 1325,-19.09 1321.5,-29.09 1328.5,-29.09"/>
</a>
</g>
</g>
<!-- Node8&#45;&gt;Node3 -->
<g id="edge13_Node000008_Node000003" class="edge">
<title>Node8&#45;&gt;Node3</title>
<g id="a_edge13_Node000008_Node000003"><a xlink:title=" ">
<path fill="none" stroke="#63b8ff" d="M374.56,-166.17C326.77,-157.98 256.11,-143.91 233,-129 215.51,-117.71 201.73,-97.95 193.3,-83.47"/>
<polygon fill="#63b8ff" stroke="#63b8ff" points="196.23,-81.52 188.34,-74.45 190.09,-84.9 196.23,-81.52"/>
</a>
</g>
</g>
<!-- Node8&#45;&gt;Node5 -->
<g id="edge14_Node000008_Node000005" class="edge">
<title>Node8&#45;&gt;Node5</title>
<g id="a_edge14_Node000008_Node000005"><a xlink:title=" ">
<path fill="none" stroke="#63b8ff" d="M374.64,-165.84C324.19,-157.37 241.2,-143.07 170,-129 168.56,-128.71 167.08,-128.42 165.59,-128.11"/>
<polygon fill="#63b8ff" stroke="#63b8ff" points="166.23,-124.67 155.73,-126.04 164.79,-131.52 166.23,-124.67"/>
</a>
</g>
</g>
<!-- Node8&#45;&gt;Node6 -->
<g id="edge19_Node000008_Node000006" class="edge">
<title>Node8&#45;&gt;Node6</title>
<g id="a_edge19_Node000008_Node000006"><a xlink:title=" ">
<path fill="none" stroke="#63b8ff" d="M467.35,-166.14C517.3,-157.99 599.07,-144 669,-129 703.04,-121.7 710.63,-115.57 745,-110 940.21,-78.34 1176.14,-69.08 1276.28,-66.47"/>
<polygon fill="#63b8ff" stroke="#63b8ff" points="1276.48,-69.97 1286.39,-66.22 1276.31,-62.97 1276.48,-69.97"/>
</a>
</g>
</g>
<!-- Node9 -->
<g id="Node000009" class="node">
<title>Node9</title>
<g id="a_Node000009"><a xlink:title=" ">
<polygon fill="#e0e0e0" stroke="#999999" points="341.5,-74 294.5,-74 294.5,-55 341.5,-55 341.5,-74"/>
<text text-anchor="middle" x="318" y="-62" font-family="Helvetica,sans-Serif" font-size="10.00">errno.h</text>
</a>
</g>
</g>
<!-- Node8&#45;&gt;Node9 -->
<g id="edge8_Node000008_Node000009" class="edge">
<title>Node8&#45;&gt;Node9</title>
<g id="a_edge8_Node000008_Node000009"><a xlink:title=" ">
<path fill="none" stroke="#63b8ff" d="M374.77,-165.11C324.25,-155.48 249.33,-139.65 241,-129 224.28,-107.64 256.8,-88.66 284.59,-77.13"/>
<polygon fill="#63b8ff" stroke="#63b8ff" points="286.12,-80.3 294.14,-73.38 283.55,-73.78 286.12,-80.3"/>
</a>
</g>
</g>
<!-- Node10 -->
<g id="Node000010" class="node">
<title>Node10</title>
<g id="a_Node000010"><a xlink:title=" ">
<polygon fill="#e0e0e0" stroke="#999999" points="298,-129 250,-129 250,-110 298,-110 298,-129"/>
<text text-anchor="middle" x="274" y="-117" font-family="Helvetica,sans-Serif" font-size="10.00">limits.h</text>
</a>
</g>
</g>
<!-- Node8&#45;&gt;Node10 -->
<g id="edge9_Node000008_Node000010" class="edge">
<title>Node8&#45;&gt;Node10</title>
<g id="a_edge9_Node000008_Node000010"><a xlink:title=" ">
<path fill="none" stroke="#63b8ff" d="M397.38,-164.98C373.1,-156.23 335.05,-142.51 307.63,-132.62"/>
<polygon fill="#63b8ff" stroke="#63b8ff" points="308.64,-129.27 298.05,-129.17 306.27,-135.85 308.64,-129.27"/>
</a>
</g>
</g>
<!-- Node11 -->
<g id="Node000011" class="node">
<title>Node11</title>
<g id="a_Node000011"><a xlink:title=" ">
<polygon fill="#e0e0e0" stroke="#999999" points="368,-129 316,-129 316,-110 368,-110 368,-129"/>
<text text-anchor="middle" x="342" y="-117" font-family="Helvetica,sans-Serif" font-size="10.00">stdarg.h</text>
</a>
</g>
</g>
<!-- Node8&#45;&gt;Node11 -->
<g id="edge10_Node000008_Node000011" class="edge">
<title>Node8&#45;&gt;Node11</title>
<g id="a_edge10_Node000008_Node000011"><a xlink:title=" ">
<path fill="none" stroke="#63b8ff" d="M408.31,-164.98C396.17,-156.84 377.64,-144.41 363.25,-134.76"/>
<polygon fill="#63b8ff" stroke="#63b8ff" points="365.18,-131.84 354.92,-129.17 361.28,-137.65 365.18,-131.84"/>
</a>
</g>
</g>
<!-- Node12 -->
<g id="Node000012" class="node">
<title>Node12</title>
<g id="a_Node000012"><a xlink:title=" ">
<polygon fill="#e0e0e0" stroke="#999999" points="709,-74 657,-74 657,-55 709,-55 709,-74"/>
<text text-anchor="middle" x="683" y="-62" font-family="Helvetica,sans-Serif" font-size="10.00">stddef.h</text>
</a>
</g>
</g>
<!-- Node8&#45;&gt;Node12 -->
<g id="edge11_Node000008_Node000012" class="edge">
<title>Node8&#45;&gt;Node12</title>
<g id="a_edge11_Node000008_Node000012"><a xlink:title=" ">
<path fill="none" stroke="#63b8ff" d="M416.7,-164.93C410.64,-151.51 401.74,-125.47 415,-110 447.3,-72.32 581.37,-82.87 646.48,-73.85"/>
<polygon fill="#63b8ff" stroke="#63b8ff" points="647.39,-77.24 656.68,-72.15 646.24,-70.34 647.39,-77.24"/>
</a>
</g>
</g>
<!-- Node13 -->
<g id="Node000013" class="node">
<title>Node13</title>
<g id="a_Node000013"><a xlink:title=" ">
<polygon fill="#e0e0e0" stroke="#999999" points="535.5,-129 486.5,-129 486.5,-110 535.5,-110 535.5,-129"/>
<text text-anchor="middle" x="511" y="-117" font-family="Helvetica,sans-Serif" font-size="10.00">stdint.h</text>
</a>
</g>
</g>
<!-- Node8&#45;&gt;Node13 -->
<g id="edge12_Node000008_Node000013" class="edge">
<title>Node8&#45;&gt;Node13</title>
<g id="a_edge12_Node000008_Node000013"><a xlink:title=" ">
<path fill="none" stroke="#63b8ff" d="M435.46,-164.98C449.42,-156.77 470.79,-144.18 487.25,-134.49"/>
<polygon fill="#63b8ff" stroke="#63b8ff" points="489.44,-137.26 496.28,-129.17 485.88,-131.23 489.44,-137.26"/>
</a>
</g>
</g>
<!-- Node14 -->
<g id="Node000014" class="node">
<title>Node14</title>
<g id="a_Node000014"><a xlink:title=" ">
<polygon fill="#e0e0e0" stroke="#999999" points="468,-129 424,-129 424,-110 468,-110 468,-129"/>
<text text-anchor="middle" x="446" y="-117" font-family="Helvetica,sans-Serif" font-size="10.00">time.h</text>
</a>
</g>
</g>
<!-- Node8&#45;&gt;Node14 -->
<g id="edge15_Node000008_Node000014" class="edge">
<title>Node8&#45;&gt;Node14</title>
<g id="a_edge15_Node000008_Node000014"><a xlink:title=" ">
<path fill="none" stroke="#63b8ff" d="M425.13,-164.75C428.51,-157.57 433.42,-147.18 437.62,-138.27"/>
<polygon fill="#63b8ff" stroke="#63b8ff" points="440.85,-139.63 441.95,-129.09 434.52,-136.64 440.85,-139.63"/>
</a>
</g>
</g>
<!-- Node15 -->
<g id="Node000015" class="node">
<title>Node15</title>
<g id="a_Node000015"><a xlink:href="Arena_8h.html" target="_top" xlink:title="Arena&#45;based memory allocator for efficient bulk memory management.">
<polygon fill="white" stroke="#666666" points="826,-129 754,-129 754,-110 826,-110 826,-129"/>
<text text-anchor="middle" x="790" y="-117" font-family="Helvetica,sans-Serif" font-size="10.00">core/Arena.h</text>
</a>
</g>
</g>
<!-- Node8&#45;&gt;Node15 -->
<g id="edge16_Node000008_Node000015" class="edge">
<title>Node8&#45;&gt;Node15</title>
<g id="a_edge16_Node000008_Node000015"><a xlink:title=" ">
<path fill="none" stroke="#63b8ff" d="M467.02,-167.52C529.09,-159.35 643.02,-144 740,-129 741.27,-128.8 742.56,-128.6 743.86,-128.39"/>
<polygon fill="#63b8ff" stroke="#63b8ff" points="744.66,-131.81 753.97,-126.76 743.54,-124.9 744.66,-131.81"/>
</a>
</g>
</g>
<!-- Node16 -->
<g id="Node000016" class="node">
<title>Node16</title>
<g id="a_Node000016"><a xlink:href="SocketConfig_8h.html" target="_top" xlink:title="Compile&#45;time and runtime configuration constants, limits, and platform adaptations.">
<polygon fill="white" stroke="#666666" points="660,-129 554,-129 554,-110 660,-110 660,-129"/>
<text text-anchor="middle" x="607" y="-117" font-family="Helvetica,sans-Serif" font-size="10.00">core/SocketConfig.h</text>
</a>
</g>
</g>
<!-- Node8&#45;&gt;Node16 -->
<g id="edge20_Node000008_Node000016" class="edge">
<title>Node8&#45;&gt;Node16</title>
<g id="a_edge20_Node000008_Node000016"><a xlink:title=" ">
<path fill="none" stroke="#63b8ff" d="M450.88,-164.98C482.38,-156.01 532.17,-141.82 567.03,-131.89"/>
<polygon fill="#63b8ff" stroke="#63b8ff" points="568.22,-135.19 576.88,-129.08 566.31,-128.46 568.22,-135.19"/>
</a>
</g>
</g>
<!-- Node15&#45;&gt;Node6 -->
<g id="edge18_Node000015_Node000006" class="edge">
<title>Node15&#45;&gt;Node6</title>
<g id="a_edge18_Node000015_Node000006"><a xlink:title=" ">
<path fill="none" stroke="#63b8ff" d="M826.35,-114.9C920.13,-105.61 1170.26,-80.83 1276.35,-70.32"/>
<polygon fill="#63b8ff" stroke="#63b8ff" points="1276.85,-73.79 1286.45,-69.32 1276.16,-66.82 1276.85,-73.79"/>
</a>
</g>
</g>
<!-- Node15&#45;&gt;Node12 -->
<g id="edge17_Node000015_Node000012" class="edge">
<title>Node15&#45;&gt;Node12</title>
<g id="a_edge17_Node000015_Node000012"><a xlink:title=" ">
<path fill="none" stroke="#63b8ff" d="M772.81,-109.98C755.75,-101.54 729.37,-88.47 709.6,-78.68"/>
<polygon fill="#63b8ff" stroke="#63b8ff" points="711.02,-75.47 700.5,-74.17 707.91,-81.75 711.02,-75.47"/>
</a>
</g>
</g>
<!-- Node16&#45;&gt;Node3 -->
<g id="edge26_Node000016_Node000003" class="edge">
<title>Node16&#45;&gt;Node3</title>
<g id="a_edge26_Node000016_Node000003"><a xlink:title=" ">
<path fill="none" stroke="#63b8ff" d="M553.91,-111.17C550.89,-110.77 547.91,-110.38 545,-110 424.54,-94.32 281.27,-77.08 217.49,-69.47"/>
<polygon fill="#63b8ff" stroke="#63b8ff" points="217.59,-65.96 207.24,-68.25 216.76,-72.91 217.59,-65.96"/>
</a>
</g>
</g>
<!-- Node16&#45;&gt;Node9 -->
<g id="edge21_Node000016_Node000009" class="edge">
<title>Node16&#45;&gt;Node9</title>
<g id="a_edge21_Node000016_Node000009"><a xlink:title=" ">
<path fill="none" stroke="#63b8ff" d="M560.57,-109.98C502.2,-99.28 403.42,-81.16 351.76,-71.69"/>
<polygon fill="#63b8ff" stroke="#63b8ff" points="352.25,-68.22 341.79,-69.86 350.99,-75.11 352.25,-68.22"/>
</a>
</g>
</g>
<!-- Node16&#45;&gt;Node12 -->
<g id="edge25_Node000016_Node000012" class="edge">
<title>Node16&#45;&gt;Node12</title>
<g id="a_edge25_Node000016_Node000012"><a xlink:title=" ">
<path fill="none" stroke="#63b8ff" d="M619.21,-109.98C630.78,-101.92 648.38,-89.65 662.16,-80.03"/>
<polygon fill="#63b8ff" stroke="#63b8ff" points="664.37,-82.76 670.57,-74.17 660.36,-77.02 664.37,-82.76"/>
</a>
</g>
</g>
<!-- Node17 -->
<g id="Node000017" class="node">
<title>Node17</title>
<g id="a_Node000017"><a xlink:title=" ">
<polygon fill="#e0e0e0" stroke="#999999" points="771,-74 727,-74 727,-55 771,-55 771,-74"/>
<text text-anchor="middle" x="749" y="-62" font-family="Helvetica,sans-Serif" font-size="10.00">fcntl.h</text>
</a>
</g>
</g>
<!-- Node16&#45;&gt;Node17 -->
<g id="edge22_Node000016_Node000017" class="edge">
<title>Node16&#45;&gt;Node17</title>
<g id="a_edge22_Node000016_Node000017"><a xlink:title=" ">
<path fill="none" stroke="#63b8ff" d="M629.81,-109.98C653.45,-101.16 690.58,-87.31 717.11,-77.4"/>
<polygon fill="#63b8ff" stroke="#63b8ff" points="718.57,-80.6 726.71,-73.82 716.12,-74.04 718.57,-80.6"/>
</a>
</g>
</g>
<!-- Node18 -->
<g id="Node000018" class="node">
<title>Node18</title>
<g id="a_Node000018"><a xlink:title=" ">
<polygon fill="#e0e0e0" stroke="#999999" points="854.5,-74 789.5,-74 789.5,-55 854.5,-55 854.5,-74"/>
<text text-anchor="middle" x="822" y="-62" font-family="Helvetica,sans-Serif" font-size="10.00">netinet/in.h</text>
</a>
</g>
</g>
<!-- Node16&#45;&gt;Node18 -->
<g id="edge23_Node000016_Node000018" class="edge">
<title>Node16&#45;&gt;Node18</title>
<g id="a_edge23_Node000016_Node000018"><a xlink:title=" ">
<path fill="none" stroke="#63b8ff" d="M641.54,-109.98C679.08,-100.73 739.08,-85.94 779.48,-75.98"/>
<polygon fill="#63b8ff" stroke="#63b8ff" points="780.43,-79.35 789.3,-73.56 778.76,-72.56 780.43,-79.35"/>
</a>
</g>
</g>
<!-- Node19 -->
<g id="Node000019" class="node">
<title>Node19</title>
<g id="a_Node000019"><a xlink:title=" ">
<polygon fill="#e0e0e0" stroke="#999999" points="564.5,-74 493.5,-74 493.5,-55 564.5,-55 564.5,-74"/>
<text text-anchor="middle" x="529" y="-62" font-family="Helvetica,sans-Serif" font-size="10.00">netinet/tcp.h</text>
</a>
</g>
</g>
<!-- Node16&#45;&gt;Node19 -->
<g id="edge24_Node000016_Node000019" class="edge">
<title>Node16&#45;&gt;Node19</title>
<g id="a_edge24_Node000016_Node000019"><a xlink:title=" ">
<path fill="none" stroke="#63b8ff" d="M594.47,-109.98C582.6,-101.92 564.54,-89.65 550.39,-80.03"/>
<polygon fill="#63b8ff" stroke="#63b8ff" points="552,-76.9 541.76,-74.17 548.06,-82.69 552,-76.9"/>
</a>
</g>
</g>
<!-- Node20 -->
<g id="Node000020" class="node">
<title>Node20</title>
<g id="a_Node000020"><a xlink:title=" ">
<polygon fill="#e0e0e0" stroke="#999999" points="945.5,-74 872.5,-74 872.5,-55 945.5,-55 945.5,-74"/>
<text text-anchor="middle" x="909" y="-62" font-family="Helvetica,sans-Serif" font-size="10.00">sys/socket.h</text>
</a>
</g>
</g>
<!-- Node16&#45;&gt;Node20 -->
<g id="edge27_Node000016_Node000020" class="edge">
<title>Node16&#45;&gt;Node20</title>
<g id="a_edge27_Node000016_Node000020"><a xlink:title=" ">
<path fill="none" stroke="#63b8ff" d="M657.75,-109.95C707.39,-101.53 785.42,-88.16 861.88,-74.36"/>
<polygon fill="#63b8ff" stroke="#63b8ff" points="862.95,-77.73 872.17,-72.5 861.71,-70.84 862.95,-77.73"/>
</a>
</g>
</g>
<!-- Node21 -->
<g id="Node000021" class="node">
<title>Node21</title>
<g id="a_Node000021"><a xlink:title=" ">
<polygon fill="#e0e0e0" stroke="#999999" points="639,-74 583,-74 583,-55 639,-55 639,-74"/>
<text text-anchor="middle" x="611" y="-62" font-family="Helvetica,sans-Serif" font-size="10.00">sys/uio.h</text>
</a>
</g>
</g>
<!-- Node16&#45;&gt;Node21 -->
<g id="edge28_Node000016_Node000021" class="edge">
<title>Node16&#45;&gt;Node21</title>
<g id="a_edge28_Node000016_Node000021"><a xlink:title=" ">
<path fill="none" stroke="#63b8ff" d="M607.66,-109.75C608.18,-102.8 608.94,-92.85 609.59,-84.13"/>
<polygon fill="#63b8ff" stroke="#63b8ff" points="613.09,-84.32 610.35,-74.09 606.11,-83.8 613.09,-84.32"/>
</a>
</g>
</g>
<!-- Node22 -->
<g id="Node000022" class="node">
<title>Node22</title>
<g id="a_Node000022"><a xlink:title=" ">
<polygon fill="#e0e0e0" stroke="#999999" points="475.5,-74 424.5,-74 424.5,-55 475.5,-55 475.5,-74"/>
<text text-anchor="middle" x="450" y="-62" font-family="Helvetica,sans-Serif" font-size="10.00">unistd.h</text>
</a>
</g>
</g>
<!-- Node16&#45;&gt;Node22 -->
<g id="edge29_Node000016_Node000022" class="edge">
<title>Node16&#45;&gt;Node22</title>
<g id="a_edge29_Node000016_Node000022"><a xlink:title=" ">
<path fill="none" stroke="#63b8ff" d="M581.78,-109.98C555.64,-101.16 514.6,-87.31 485.27,-77.41"/>
<polygon fill="#63b8ff" stroke="#63b8ff" points="486.02,-73.96 475.42,-74.08 483.78,-80.6 486.02,-73.96"/>
</a>
</g>
</g>
<!-- Node23&#45;&gt;Node6 -->
<g id="edge31_Node000023_Node000006" class="edge">
<title>Node23&#45;&gt;Node6</title>
<g id="a_edge31_Node000023_Node000006"><a xlink:title=" ">
<path fill="none" stroke="#63b8ff" d="M983.24,-224.18C1112.77,-211.08 1484.26,-170.2 1519,-129 1560.72,-79.52 1444.19,-68.32 1373.96,-65.96"/>
<polygon fill="#63b8ff" stroke="#63b8ff" points="1373.63,-62.45 1363.54,-65.67 1373.43,-69.45 1373.63,-62.45"/>
</a>
</g>
</g>
<!-- Node23&#45;&gt;Node16 -->
<g id="edge32_Node000023_Node000016" class="edge">
<title>Node23&#45;&gt;Node16</title>
<g id="a_edge32_Node000023_Node000016"><a xlink:title=" ">
<path fill="none" stroke="#63b8ff" d="M912.67,-219.94C853.59,-200.72 710.37,-154.13 643.07,-132.24"/>
<polygon fill="#63b8ff" stroke="#63b8ff" points="643.92,-128.83 633.33,-129.07 641.76,-135.49 643.92,-128.83"/>
</a>
</g>
</g>
<!-- Node24 -->
<g id="Node000024" class="node">
<title>Node24</title>
<g id="a_Node000024"><a xlink:href="SocketDNS_8h.html" target="_top" xlink:title="Asynchronous DNS resolution API for non&#45;blocking network applications.">
<polygon fill="white" stroke="#666666" points="934,-184 838,-184 838,-165 934,-165 934,-184"/>
<text text-anchor="middle" x="886" y="-172" font-family="Helvetica,sans-Serif" font-size="10.00">dns/SocketDNS.h</text>
</a>
</g>
</g>
<!-- Node23&#45;&gt;Node24 -->
<g id="edge33_Node000023_Node000024" class="edge">
<title>Node23&#45;&gt;Node24</title>
<g id="a_edge33_Node000023_Node000024"><a xlink:title=" ">
<path fill="none" stroke="#63b8ff" d="M930.25,-219.75C922.53,-212.03 911.1,-200.6 901.78,-191.28"/>
<polygon fill="#63b8ff" stroke="#63b8ff" points="904.14,-188.69 894.59,-184.09 899.19,-193.64 904.14,-188.69"/>
</a>
</g>
</g>
<!-- Node26 -->
<g id="Node000026" class="node">
<title>Node26</title>
<g id="a_Node000026"><a xlink:href="SocketCommon_8h.html" target="_top" xlink:title="Common utilities shared between Socket and SocketDgram modules.">
<polygon fill="white" stroke="#666666" points="1138,-184 1010,-184 1010,-165 1138,-165 1138,-184"/>
<text text-anchor="middle" x="1074" y="-172" font-family="Helvetica,sans-Serif" font-size="10.00">socket/SocketCommon.h</text>
</a>
</g>
</g>
<!-- Node23&#45;&gt;Node26 -->
<g id="edge39_Node000023_Node000026" class="edge">
<title>Node23&#45;&gt;Node26</title>
<g id="a_edge39_Node000023_Node000026"><a xlink:title=" ">
<path fill="none" stroke="#63b8ff" d="M960.69,-219.98C982.8,-211.3 1017.32,-197.75 1042.45,-187.88"/>
<polygon fill="#63b8ff" stroke="#63b8ff" points="1043.89,-191.08 1051.92,-184.17 1041.33,-184.57 1043.89,-191.08"/>
</a>
</g>
</g>
<!-- Node24&#45;&gt;Node6 -->
<g id="edge34_Node000024_Node000006" class="edge">
<title>Node24&#45;&gt;Node6</title>
<g id="a_edge34_Node000024_Node000006"><a xlink:title=" ">
<path fill="none" stroke="#63b8ff" d="M886.8,-164.84C888.59,-150.8 894.29,-123.32 912,-110 968.38,-67.61 1179.75,-64.02 1276.32,-64.68"/>
<polygon fill="#63b8ff" stroke="#63b8ff" points="1276.38,-68.18 1286.41,-64.77 1276.44,-61.18 1276.38,-68.18"/>
</a>
</g>
</g>
<!-- Node24&#45;&gt;Node12 -->
<g id="edge36_Node000024_Node000012" class="edge">
<title>Node24&#45;&gt;Node12</title>
<g id="a_edge36_Node000024_Node000012"><a xlink:title=" ">
<path fill="none" stroke="#63b8ff" d="M839.77,-164.94C811,-158.2 774.08,-146.89 745,-129 725,-116.7 706.85,-96.54 695.42,-82.24"/>
<polygon fill="#63b8ff" stroke="#63b8ff" points="698.11,-79.99 689.22,-74.22 692.57,-84.27 698.11,-79.99"/>
</a>
</g>
</g>
<!-- Node24&#45;&gt;Node13 -->
<g id="edge37_Node000024_Node000013" class="edge">
<title>Node24&#45;&gt;Node13</title>
<g id="a_edge37_Node000024_Node000013"><a xlink:title=" ">
<path fill="none" stroke="#63b8ff" d="M837.72,-168.97C773.34,-162.54 655.68,-149.43 545.74,-128.93"/>
<polygon fill="#63b8ff" stroke="#63b8ff" points="546.29,-125.47 535.81,-127.05 544.99,-132.35 546.29,-125.47"/>
</a>
</g>
</g>
<!-- Node24&#45;&gt;Node20 -->
<g id="edge38_Node000024_Node000020" class="edge">
<title>Node24&#45;&gt;Node20</title>
<g id="a_edge38_Node000024_Node000020"><a xlink:title=" ">
<path fill="none" stroke="#63b8ff" d="M882.57,-164.66C878.26,-152.2 872.08,-128.87 878,-110 881.23,-99.71 887.78,-89.72 894.03,-81.82"/>
<polygon fill="#63b8ff" stroke="#63b8ff" points="896.73,-84.04 900.52,-74.15 891.39,-79.52 896.73,-84.04"/>
</a>
</g>
</g>
<!-- Node25 -->
<g id="Node000025" class="node">
<title>Node25</title>
<g id="a_Node000025"><a xlink:title=" ">
<polygon fill="#e0e0e0" stroke="#999999" points="969.5,-129 920.5,-129 920.5,-110 969.5,-110 969.5,-129"/>
<text text-anchor="middle" x="945" y="-117" font-family="Helvetica,sans-Serif" font-size="10.00">netdb.h</text>
</a>
</g>
</g>
<!-- Node24&#45;&gt;Node25 -->
<g id="edge35_Node000024_Node000025" class="edge">
<title>Node24&#45;&gt;Node25</title>
<g id="a_edge35_Node000024_Node000025"><a xlink:title=" ">
<path fill="none" stroke="#63b8ff" d="M895.48,-164.98C904.2,-157.15 917.34,-145.34 927.9,-135.86"/>
<polygon fill="#63b8ff" stroke="#63b8ff" points="930.25,-138.46 935.35,-129.17 925.57,-133.25 930.25,-138.46"/>
</a>
</g>
</g>
<!-- Node26&#45;&gt;Node6 -->
<g id="edge50_Node000026_Node000006" class="edge">
<title>Node26&#45;&gt;Node6</title>
<g id="a_edge50_Node000026_Node000006"><a xlink:title=" ">
<path fill="none" stroke="#63b8ff" d="M1079.13,-164.99C1087.93,-151.17 1107.26,-123.99 1131,-110 1175.88,-83.56 1235.16,-72.83 1276.33,-68.47"/>
<polygon fill="#63b8ff" stroke="#63b8ff" points="1276.77,-71.95 1286.38,-67.5 1276.09,-64.98 1276.77,-71.95"/>
</a>
</g>
</g>
<!-- Node26&#45;&gt;Node15 -->
<g id="edge49_Node000026_Node000015" class="edge">
<title>Node26&#45;&gt;Node15</title>
<g id="a_edge49_Node000026_Node000015"><a xlink:title=" ">
<path fill="none" stroke="#63b8ff" d="M1028.37,-164.98C975.6,-155.14 889.2,-139.01 836.19,-129.12"/>
<polygon fill="#63b8ff" stroke="#63b8ff" points="836.53,-125.62 826.06,-127.23 835.24,-132.5 836.53,-125.62"/>
</a>
</g>
</g>
<!-- Node26&#45;&gt;Node16 -->
<g id="edge51_Node000026_Node000016" class="edge">
<title>Node26&#45;&gt;Node16</title>
<g id="a_edge51_Node000026_Node000016"><a xlink:title=" ">
<path fill="none" stroke="#63b8ff" d="M1009.56,-166.19C920.05,-156.03 759.11,-137.76 670.25,-127.68"/>
<polygon fill="#63b8ff" stroke="#63b8ff" points="670.64,-124.2 660.3,-126.55 669.85,-131.15 670.64,-124.2"/>
</a>
</g>
</g>
<!-- Node26&#45;&gt;Node17 -->
<g id="edge42_Node000026_Node000017" class="edge">
<title>Node26&#45;&gt;Node17</title>
<g id="a_edge42_Node000026_Node000017"><a xlink:title=" ">
<path fill="none" stroke="#63b8ff" d="M1062.47,-164.92C1041.26,-149.29 996.65,-117.14 979,-110 899,-77.63 870.31,-92.36 781.3,-73.83"/>
<polygon fill="#63b8ff" stroke="#63b8ff" points="781.84,-70.37 771.32,-71.67 780.36,-77.21 781.84,-70.37"/>
</a>
</g>
</g>
<!-- Node26&#45;&gt;Node18 -->
<g id="edge44_Node000026_Node000018" class="edge">
<title>Node26&#45;&gt;Node18</title>
<g id="a_edge44_Node000026_Node000018"><a xlink:title=" ">
<path fill="none" stroke="#63b8ff" d="M1067.91,-164.56C1057.92,-150.64 1036.69,-123.93 1012,-110 999.21,-102.78 916.54,-84.92 864.55,-74.15"/>
<polygon fill="#63b8ff" stroke="#63b8ff" points="865.09,-70.69 854.59,-72.09 863.68,-77.54 865.09,-70.69"/>
</a>
</g>
</g>
<!-- Node26&#45;&gt;Node20 -->
<g id="edge45_Node000026_Node000020" class="edge">
<title>Node26&#45;&gt;Node20</title>
<g id="a_edge45_Node000026_Node000020"><a xlink:title=" ">
<path fill="none" stroke="#63b8ff" d="M1073.11,-164.79C1071.26,-151.19 1065.75,-124.9 1050,-110 1024.45,-85.83 985.86,-74.79 955.51,-69.74"/>
<polygon fill="#63b8ff" stroke="#63b8ff" points="955.97,-66.27 945.56,-68.25 954.93,-73.19 955.97,-66.27"/>
</a>
</g>
</g>
<!-- Node26&#45;&gt;Node25 -->
<g id="edge43_Node000026_Node000025" class="edge">
<title>Node26&#45;&gt;Node25</title>
<g id="a_edge43_Node000026_Node000025"><a xlink:title=" ">
<path fill="none" stroke="#63b8ff" d="M1053.27,-164.98C1032.24,-156.34 999.45,-142.87 975.46,-133.02"/>
<polygon fill="#63b8ff" stroke="#63b8ff" points="976.68,-129.73 966.1,-129.17 974.02,-136.21 976.68,-129.73"/>
</a>
</g>
</g>
<!-- Node27 -->
<g id="Node000027" class="node">
<title>Node27</title>
<g id="a_Node000027"><a xlink:title=" ">
<polygon fill="#e0e0e0" stroke="#999999" points="1269.5,-129 1212.5,-129 1212.5,-110 1269.5,-110 1269.5,-129"/>
<text text-anchor="middle" x="1241" y="-117" font-family="Helvetica,sans-Serif" font-size="10.00">pthread.h</text>
</a>
</g>
</g>
<!-- Node26&#45;&gt;Node27 -->
<g id="edge40_Node000026_Node000027" class="edge">
<title>Node26&#45;&gt;Node27</title>
<g id="a_edge40_Node000026_Node000027"><a xlink:title=" ">
<path fill="none" stroke="#63b8ff" d="M1100.83,-164.98C1128.87,-156.09 1173.05,-142.07 1204.3,-132.15"/>
<polygon fill="#63b8ff" stroke="#63b8ff" points="1205.49,-135.44 1213.96,-129.08 1203.37,-128.77 1205.49,-135.44"/>
</a>
</g>
</g>
<!-- Node28 -->
<g id="Node000028" class="node">
<title>Node28</title>
<g id="a_Node000028"><a xlink:title=" ">
<polygon fill="#e0e0e0" stroke="#999999" points="1344,-129 1288,-129 1288,-110 1344,-110 1344,-129"/>
<text text-anchor="middle" x="1316" y="-117" font-family="Helvetica,sans-Serif" font-size="10.00">stdbool.h</text>
</a>
</g>
</g>
<!-- Node26&#45;&gt;Node28 -->
<g id="edge41_Node000026_Node000028" class="edge">
<title>Node26&#45;&gt;Node28</title>
<g id="a_edge41_Node000026_Node000028"><a xlink:title=" ">
<path fill="none" stroke="#63b8ff" d="M1114.1,-164.95C1153.35,-156.54 1215.1,-143.22 1277.68,-129.28"/>
<polygon fill="#63b8ff" stroke="#63b8ff" points="1278.73,-132.63 1287.73,-127.03 1277.2,-125.8 1278.73,-132.63"/>
</a>
</g>
</g>
<!-- Node29 -->
<g id="Node000029" class="node">
<title>Node29</title>
<g id="a_Node000029"><a xlink:title=" ">
<polygon fill="#e0e0e0" stroke="#999999" points="1424,-129 1362,-129 1362,-110 1424,-110 1424,-129"/>
<text text-anchor="middle" x="1393" y="-117" font-family="Helvetica,sans-Serif" font-size="10.00">sys/time.h</text>
</a>
</g>
</g>
<!-- Node26&#45;&gt;Node29 -->
<g id="edge46_Node000026_Node000029" class="edge">
<title>Node26&#45;&gt;Node29</title>
<g id="a_edge46_Node000026_Node000029"><a xlink:title=" ">
<path fill="none" stroke="#63b8ff" d="M1132.93,-165C1187.3,-156.95 1270.48,-144.12 1351.69,-129.17"/>
<polygon fill="#63b8ff" stroke="#63b8ff" points="1352.39,-132.6 1361.59,-127.33 1351.12,-125.72 1352.39,-132.6"/>
</a>
</g>
</g>
<!-- Node30 -->
<g id="Node000030" class="node">
<title>Node30</title>
<g id="a_Node000030"><a xlink:title=" ">
<polygon fill="#e0e0e0" stroke="#999999" points="1510,-129 1442,-129 1442,-110 1510,-110 1510,-129"/>
<text text-anchor="middle" x="1476" y="-117" font-family="Helvetica,sans-Serif" font-size="10.00">sys/types.h</text>
</a>
</g>
</g>
<!-- Node26&#45;&gt;Node30 -->
<g id="edge47_Node000026_Node000030" class="edge">
<title>Node26&#45;&gt;Node30</title>
<g id="a_edge47_Node000026_Node000030"><a xlink:title=" ">
<path fill="none" stroke="#63b8ff" d="M1138.07,-166.96C1207.86,-159.53 1322.99,-146.34 1431.62,-129.12"/>
<polygon fill="#63b8ff" stroke="#63b8ff" points="1432.45,-132.53 1441.77,-127.5 1431.34,-125.62 1432.45,-132.53"/>
</a>
</g>
</g>
<!-- Node31 -->
<g id="Node000031" class="node">
<title>Node31</title>
<g id="a_Node000031"><a xlink:title=" ">
<polygon fill="#e0e0e0" stroke="#999999" points="1194,-129 1140,-129 1140,-110 1194,-110 1194,-129"/>
<text text-anchor="middle" x="1167" y="-117" font-family="Helvetica,sans-Serif" font-size="10.00">sys/un.h</text>
</a>
</g>
</g>
<!-- Node26&#45;&gt;Node31 -->
<g id="edge48_Node000026_Node000031" class="edge">
<title>Node26&#45;&gt;Node31</title>
<g id="a_edge48_Node000026_Node000031"><a xlink:title=" ">
<path fill="none" stroke="#63b8ff" d="M1088.94,-164.98C1103.5,-156.69 1125.87,-143.94 1142.93,-134.22"/>
<polygon fill="#63b8ff" stroke="#63b8ff" points="1144.83,-137.16 1151.79,-129.17 1141.36,-131.08 1144.83,-137.16"/>
</a>
</g>
</g>
<!-- Node32&#45;&gt;Node6 -->
<g id="edge53_Node000032_Node000006" class="edge">
<title>Node32&#45;&gt;Node6</title>
<g id="a_edge53_Node000032_Node000006"><a xlink:title=" ">
<path fill="none" stroke="#63b8ff" d="M974.33,-274.96C992.04,-260.85 1029.9,-232.92 1067,-220 1267.93,-150.01 1412.44,-301.49 1537,-129 1541.94,-122.15 1542.32,-116.56 1537,-110 1516.86,-85.19 1430.05,-73.71 1373.95,-68.8"/>
<polygon fill="#63b8ff" stroke="#63b8ff" points="1374.12,-65.3 1363.86,-67.95 1373.53,-72.27 1374.12,-65.3"/>
</a>
</g>
</g>
<!-- Node32&#45;&gt;Node14 -->
<g id="edge56_Node000032_Node000014" class="edge">
<title>Node32&#45;&gt;Node14</title>
<g id="a_edge56_Node000032_Node000014"><a xlink:title=" ">
<path fill="none" stroke="#63b8ff" d="M936.88,-274.97C848.91,-247.28 571.73,-160.07 477.62,-130.45"/>
<polygon fill="#63b8ff" stroke="#63b8ff" points="478.67,-127.11 468.08,-127.45 476.57,-133.79 478.67,-127.11"/>
</a>
</g>
</g>
<!-- Node32&#45;&gt;Node23 -->
<g id="edge54_Node000032_Node000023" class="edge">
<title>Node32&#45;&gt;Node23</title>
<g id="a_edge54_Node000032_Node000023"><a xlink:title=" ">
<path fill="none" stroke="#63b8ff" d="M959.87,-274.75C956.49,-267.57 951.58,-257.18 947.38,-248.27"/>
<polygon fill="#63b8ff" stroke="#63b8ff" points="950.48,-246.64 943.05,-239.09 944.15,-249.63 950.48,-246.64"/>
</a>
</g>
</g>
<!-- Node33 -->
<g id="Node000033" class="node">
<title>Node33</title>
<g id="a_Node000033"><a xlink:title=" ">
<polygon fill="#e0e0e0" stroke="#999999" points="1158.5,-239 1075.5,-239 1075.5,-220 1158.5,-220 1158.5,-239"/>
<text text-anchor="middle" x="1117" y="-227" font-family="Helvetica,sans-Serif" font-size="10.00">openssl/x509.h</text>
</a>
</g>
</g>
<!-- Node32&#45;&gt;Node33 -->
<g id="edge55_Node000032_Node000033" class="edge">
<title>Node32&#45;&gt;Node33</title>
<g id="a_edge55_Node000032_Node000033"><a xlink:title=" ">
<path fill="none" stroke="#63b8ff" d="M988.58,-274.98C1014.05,-266.16 1054.04,-252.31 1082.63,-242.41"/>
<polygon fill="#63b8ff" stroke="#63b8ff" points="1083.92,-245.66 1092.23,-239.08 1081.63,-239.05 1083.92,-245.66"/>
</a>
</g>
</g>
<!-- Node34&#45;&gt;Node6 -->
<g id="edge59_Node000034_Node000006" class="edge">
<title>Node34&#45;&gt;Node6</title>
<g id="a_edge59_Node000034_Node000006"><a xlink:title=" ">
<path fill="none" stroke="#63b8ff" d="M1156.06,-338.5C1293.26,-336.86 1614,-323.11 1614,-230.5 1614,-230.5 1614,-230.5 1614,-173.5 1614,-134.06 1586.7,-128.75 1552,-110 1495.88,-79.67 1422.01,-69.85 1374.02,-66.76"/>
<polygon fill="#63b8ff" stroke="#63b8ff" points="1374.07,-63.26 1363.89,-66.18 1373.68,-70.24 1374.07,-63.26"/>
</a>
</g>
</g>
<!-- Node34&#45;&gt;Node15 -->
<g id="edge58_Node000034_Node000015" class="edge">
<title>Node34&#45;&gt;Node15</title>
<g id="a_edge58_Node000034_Node000015"><a xlink:title=" ">
<path fill="none" stroke="#63b8ff" d="M1033.6,-334.04C995.95,-328.88 948.2,-317.8 912,-294 852.04,-254.59 812.68,-174.67 797.3,-138.73"/>
<polygon fill="#63b8ff" stroke="#63b8ff" points="800.36,-136.98 793.29,-129.08 793.89,-139.66 800.36,-136.98"/>
</a>
</g>
</g>
<!-- Node34&#45;&gt;Node32 -->
<g id="edge60_Node000034_Node000032" class="edge">
<title>Node34&#45;&gt;Node32</title>
<g id="a_edge60_Node000034_Node000032"><a xlink:title=" ">
<path fill="none" stroke="#63b8ff" d="M1073.95,-329.98C1052.59,-321.34 1019.3,-307.87 994.94,-298.02"/>
<polygon fill="#63b8ff" stroke="#63b8ff" points="996.01,-294.68 985.43,-294.17 993.39,-301.17 996.01,-294.68"/>
</a>
</g>
</g>
<!-- Node35 -->
<g id="Node000035" class="node">
<title>Node35</title>
<g id="a_Node000035"><a xlink:href="SocketTLSConfig_8h.html" target="_top" xlink:title="TLS configuration constants, structure, and secure defaults.">
<polygon fill="white" stroke="#666666" points="1363,-294 1247,-294 1247,-275 1363,-275 1363,-294"/>
<text text-anchor="middle" x="1305" y="-282" font-family="Helvetica,sans-Serif" font-size="10.00">tls/SocketTLSConfig.h</text>
</a>
</g>
</g>
<!-- Node34&#45;&gt;Node35 -->
<g id="edge61_Node000034_Node000035" class="edge">
<title>Node34&#45;&gt;Node35</title>
<g id="a_edge61_Node000034_Node000035"><a xlink:title=" ">
<path fill="none" stroke="#63b8ff" d="M1128.74,-329.98C1164.68,-320.91 1221.72,-306.52 1261.13,-296.57"/>
<polygon fill="#63b8ff" stroke="#63b8ff" points="1262.16,-299.92 1271,-294.08 1260.44,-293.14 1262.16,-299.92"/>
</a>
</g>
</g>
<!-- Node38 -->
<g id="Node000038" class="node">
<title>Node38</title>
<g id="a_Node000038"><a xlink:title=" ">
<polygon fill="#e0e0e0" stroke="#999999" points="1570,-239 1496,-239 1496,-220 1570,-220 1570,-239"/>
<text text-anchor="middle" x="1533" y="-227" font-family="Helvetica,sans-Serif" font-size="10.00">openssl/ssl.h</text>
</a>
</g>
</g>
<!-- Node34&#45;&gt;Node38 -->
<g id="edge67_Node000034_Node000038" class="edge">
<title>Node34&#45;&gt;Node38</title>
<g id="a_edge67_Node000034_Node000038"><a xlink:title=" ">
<path fill="none" stroke="#63b8ff" d="M1156.05,-332.53C1212.72,-326.1 1299.07,-313.99 1372,-294 1420.37,-280.74 1474.12,-257.77 1505.66,-243.4"/>
<polygon fill="#63b8ff" stroke="#63b8ff" points="1507.47,-246.42 1515.09,-239.05 1504.54,-240.06 1507.47,-246.42"/>
</a>
</g>
</g>
<!-- Node40 -->
<g id="Node000040" class="node">
<title>Node40</title>
<g id="a_Node000040"><a xlink:title=" ">
<polygon fill="#e0e0e0" stroke="#999999" points="1145,-294 1045,-294 1045,-275 1145,-275 1145,-294"/>
<text text-anchor="middle" x="1095" y="-282" font-family="Helvetica,sans-Serif" font-size="10.00">openssl/x509_vfy.h</text>
</a>
</g>
</g>
<!-- Node34&#45;&gt;Node40 -->
<g id="edge68_Node000034_Node000040" class="edge">
<title>Node34&#45;&gt;Node40</title>
<g id="a_edge68_Node000034_Node000040"><a xlink:title=" ">
<path fill="none" stroke="#63b8ff" d="M1095,-329.75C1095,-322.8 1095,-312.85 1095,-304.13"/>
<polygon fill="#63b8ff" stroke="#63b8ff" points="1098.5,-304.09 1095,-294.09 1091.5,-304.09 1098.5,-304.09"/>
</a>
</g>
</g>
<!-- Node35&#45;&gt;Node33 -->
<g id="edge65_Node000035_Node000033" class="edge">
<title>Node35&#45;&gt;Node33</title>
<g id="a_edge65_Node000035_Node000033"><a xlink:title=" ">
<path fill="none" stroke="#63b8ff" d="M1274.79,-274.98C1242.96,-266.01 1192.64,-251.82 1157.4,-241.89"/>
<polygon fill="#63b8ff" stroke="#63b8ff" points="1158.02,-238.43 1147.44,-239.08 1156.12,-245.16 1158.02,-238.43"/>
</a>
</g>
</g>
<!-- Node36 -->
<g id="Node000036" class="node">
<title>Node36</title>
<g id="a_Node000036"><a xlink:title=" ">
<polygon fill="#e0e0e0" stroke="#999999" points="1249,-239 1177,-239 1177,-220 1249,-220 1249,-239"/>
<text text-anchor="middle" x="1213" y="-227" font-family="Helvetica,sans-Serif" font-size="10.00">openssl/err.h</text>
</a>
</g>
</g>
<!-- Node35&#45;&gt;Node36 -->
<g id="edge62_Node000035_Node000036" class="edge">
<title>Node35&#45;&gt;Node36</title>
<g id="a_edge62_Node000035_Node000036"><a xlink:title=" ">
<path fill="none" stroke="#63b8ff" d="M1290.22,-274.98C1275.82,-266.69 1253.69,-253.94 1236.81,-244.22"/>
<polygon fill="#63b8ff" stroke="#63b8ff" points="1238.46,-241.13 1228.05,-239.17 1234.97,-247.19 1238.46,-241.13"/>
</a>
</g>
</g>
<!-- Node37 -->
<g id="Node000037" class="node">
<title>Node37</title>
<g id="a_Node000037"><a xlink:title=" ">
<polygon fill="#e0e0e0" stroke="#999999" points="1366.5,-239 1267.5,-239 1267.5,-220 1366.5,-220 1366.5,-239"/>
<text text-anchor="middle" x="1317" y="-227" font-family="Helvetica,sans-Serif" font-size="10.00">openssl/opensslv.h</text>
</a>
</g>
</g>
<!-- Node35&#45;&gt;Node37 -->
<g id="edge63_Node000035_Node000037" class="edge">
<title>Node35&#45;&gt;Node37</title>
<g id="a_edge63_Node000035_Node000037"><a xlink:title=" ">
<path fill="none" stroke="#63b8ff" d="M1306.98,-274.75C1308.57,-267.72 1310.86,-257.62 1312.85,-248.84"/>
<polygon fill="#63b8ff" stroke="#63b8ff" points="1316.26,-249.62 1315.06,-239.09 1309.43,-248.07 1316.26,-249.62"/>
</a>
</g>
</g>
<!-- Node35&#45;&gt;Node38 -->
<g id="edge64_Node000035_Node000038" class="edge">
<title>Node35&#45;&gt;Node38</title>
<g id="a_edge64_Node000035_Node000038"><a xlink:title=" ">
<path fill="none" stroke="#63b8ff" d="M1341.63,-274.98C1380.91,-265.86 1443.37,-251.33 1486.19,-241.38"/>
<polygon fill="#63b8ff" stroke="#63b8ff" points="1487.13,-244.76 1496.08,-239.08 1485.55,-237.94 1487.13,-244.76"/>
</a>
</g>
</g>
<!-- Node39 -->
<g id="Node000039" class="node">
<title>Node39</title>
<g id="a_Node000039"><a xlink:title=" ">
<polygon fill="#e0e0e0" stroke="#999999" points="1477.5,-239 1384.5,-239 1384.5,-220 1477.5,-220 1477.5,-239"/>
<text text-anchor="middle" x="1431" y="-227" font-family="Helvetica,sans-Serif" font-size="10.00">openssl/x509v3.h</text>
</a>
</g>
</g>
<!-- Node35&#45;&gt;Node39 -->
<g id="edge66_Node000035_Node000039" class="edge">
<title>Node35&#45;&gt;Node39</title>
<g id="a_edge66_Node000035_Node000039"><a xlink:title=" ">
<path fill="none" stroke="#63b8ff" d="M1325.24,-274.98C1345.7,-266.38 1377.53,-252.99 1400.93,-243.15"/>
<polygon fill="#63b8ff" stroke="#63b8ff" points="1402.53,-246.27 1410.39,-239.17 1399.81,-239.82 1402.53,-246.27"/>
</a>
</g>
</g>
</g>
</svg>
