<?xml version="1.0" encoding="UTF-8" standalone="no"?>
<!DOCTYPE svg PUBLIC "-//W3C//DTD SVG 1.1//EN"
 "http://www.w3.org/Graphics/SVG/1.1/DTD/svg11.dtd">
<!-- Generated by graphviz version 2.43.0 (0)
 -->
<!-- Title: websocket_client.c Pages: 1 -->
<svg width="1459pt" height="357pt"
 viewBox="0.00 0.00 1458.69 357.00" xmlns="http://www.w3.org/2000/svg" xmlns:xlink="http://www.w3.org/1999/xlink">
<g id="graph0" class="graph" transform="scale(1 1) rotate(0) translate(4 353)">
<title>websocket_client.c</title>
<!-- Node1 -->
<g id="Node000001" class="node">
<title>Node1</title>
<g id="a_Node000001"><a xlink:title=" ">
<polygon fill="#999999" stroke="#666666" points="1008.5,-349 907.5,-349 907.5,-330 1008.5,-330 1008.5,-349"/>
<text text-anchor="middle" x="958" y="-337" font-family="Helvetica,sans-Serif" font-size="10.00">websocket_client.c</text>
</a>
</g>
</g>
<!-- Node2 -->
<g id="Node000002" class="node">
<title>Node2</title>
<g id="a_Node000002"><a xlink:title=" ">
<polygon fill="#e0e0e0" stroke="#999999" points="97,-294 57,-294 57,-275 97,-275 97,-294"/>
<text text-anchor="middle" x="77" y="-282" font-family="Helvetica,sans-Serif" font-size="10.00">poll.h</text>
</a>
</g>
</g>
<!-- Node1&#45;&gt;Node2 -->
<g id="edge1_Node000001_Node000002" class="edge">
<title>Node1&#45;&gt;Node2</title>
<g id="a_edge1_Node000001_Node000002"><a xlink:title=" ">
<path fill="none" stroke="#63b8ff" d="M907.4,-337.4C751.73,-333.79 280.5,-321.01 107.14,-293.7"/>
<polygon fill="#63b8ff" stroke="#63b8ff" points="107.58,-290.23 97.14,-292.05 106.44,-297.14 107.58,-290.23"/>
</a>
</g>
</g>
<!-- Node3 -->
<g id="Node000003" class="node">
<title>Node3</title>
<g id="a_Node000003"><a xlink:title=" ">
<polygon fill="#e0e0e0" stroke="#999999" points="165,-294 115,-294 115,-275 165,-275 165,-294"/>
<text text-anchor="middle" x="140" y="-282" font-family="Helvetica,sans-Serif" font-size="10.00">signal.h</text>
</a>
</g>
</g>
<!-- Node1&#45;&gt;Node3 -->
<g id="edge2_Node000001_Node000003" class="edge">
<title>Node1&#45;&gt;Node3</title>
<g id="a_edge2_Node000001_Node000003"><a xlink:title=" ">
<path fill="none" stroke="#63b8ff" d="M907.15,-338.36C782.46,-337.42 451.79,-331.28 179,-294 177.73,-293.83 176.43,-293.63 175.13,-293.42"/>
<polygon fill="#63b8ff" stroke="#63b8ff" points="175.54,-289.94 165.07,-291.57 174.27,-296.82 175.54,-289.94"/>
</a>
</g>
</g>
<!-- Node4 -->
<g id="Node000004" class="node">
<title>Node4</title>
<g id="a_Node000004"><a xlink:title=" ">
<polygon fill="#e0e0e0" stroke="#999999" points="46,-74 0,-74 0,-55 46,-55 46,-74"/>
<text text-anchor="middle" x="23" y="-62" font-family="Helvetica,sans-Serif" font-size="10.00">stdio.h</text>
</a>
</g>
</g>
<!-- Node1&#45;&gt;Node4 -->
<g id="edge3_Node000001_Node000004" class="edge">
<title>Node1&#45;&gt;Node4</title>
<g id="a_edge3_Node000001_Node000004"><a xlink:title=" ">
<path fill="none" stroke="#63b8ff" d="M907.21,-336.7C736.35,-329.96 193,-302.85 193,-230.5 193,-230.5 193,-230.5 193,-173.5 193,-140.95 103.09,-98.62 54.04,-77.96"/>
<polygon fill="#63b8ff" stroke="#63b8ff" points="55.11,-74.61 44.53,-74 52.42,-81.07 55.11,-74.61"/>
</a>
</g>
</g>
<!-- Node5 -->
<g id="Node000005" class="node">
<title>Node5</title>
<g id="a_Node000005"><a xlink:title=" ">
<polygon fill="#e0e0e0" stroke="#999999" points="1189,-294 1141,-294 1141,-275 1189,-275 1189,-294"/>
<text text-anchor="middle" x="1165" y="-282" font-family="Helvetica,sans-Serif" font-size="10.00">stdlib.h</text>
</a>
</g>
</g>
<!-- Node1&#45;&gt;Node5 -->
<g id="edge4_Node000001_Node000005" class="edge">
<title>Node1&#45;&gt;Node5</title>
<g id="a_edge4_Node000001_Node000005"><a xlink:title=" ">
<path fill="none" stroke="#63b8ff" d="M991.36,-329.99C1024.41,-321.55 1076.72,-308.18 1131.05,-294.24"/>
<polygon fill="#63b8ff" stroke="#63b8ff" points="1132.03,-297.6 1140.85,-291.73 1130.29,-290.82 1132.03,-297.6"/>
</a>
</g>
</g>
<!-- Node6 -->
<g id="Node000006" class="node">
<title>Node6</title>
<g id="a_Node000006"><a xlink:title=" ">
<polygon fill="#e0e0e0" stroke="#999999" points="1256.5,-294 1207.5,-294 1207.5,-275 1256.5,-275 1256.5,-294"/>
<text text-anchor="middle" x="1232" y="-282" font-family="Helvetica,sans-Serif" font-size="10.00">string.h</text>
</a>
</g>
</g>
<!-- Node1&#45;&gt;Node6 -->
<g id="edge5_Node000001_Node000006" class="edge">
<title>Node1&#45;&gt;Node6</title>
<g id="a_edge5_Node000001_Node000006"><a xlink:title=" ">
<path fill="none" stroke="#63b8ff" d="M1008.75,-330.03C1055.26,-322.05 1126.26,-309.34 1197.16,-294.07"/>
<polygon fill="#63b8ff" stroke="#63b8ff" points="1198.13,-297.44 1207.16,-291.9 1196.64,-290.6 1198.13,-297.44"/>
</a>
</g>
</g>
<!-- Node7 -->
<g id="Node000007" class="node">
<title>Node7</title>
<g id="a_Node000007"><a xlink:href="Except_8h.html" target="_top" xlink:title="Structured exception handling for C with TRY/EXCEPT/FINALLY blocks.">
<polygon fill="white" stroke="#666666" points="1029.5,-74 952.5,-74 952.5,-55 1029.5,-55 1029.5,-74"/>
<text text-anchor="middle" x="991" y="-62" font-family="Helvetica,sans-Serif" font-size="10.00">core/Except.h</text>
</a>
</g>
</g>
<!-- Node1&#45;&gt;Node7 -->
<g id="edge6_Node000001_Node000007" class="edge">
<title>Node1&#45;&gt;Node7</title>
<g id="a_edge6_Node000001_Node000007"><a xlink:title=" ">
<path fill="none" stroke="#63b8ff" d="M962.59,-329.82C971.66,-311.82 991,-268.93 991,-230.5 991,-230.5 991,-230.5 991,-173.5 991,-142.19 991,-105.77 991,-84.23"/>
<polygon fill="#63b8ff" stroke="#63b8ff" points="994.5,-84.18 991,-74.18 987.5,-84.18 994.5,-84.18"/>
</a>
</g>
</g>
<!-- Node9 -->
<g id="Node000009" class="node">
<title>Node9</title>
<g id="a_Node000009"><a xlink:href="Socket_8h.html" target="_top" xlink:title="High&#45;level TCP/IP and Unix domain socket interface.">
<polygon fill="white" stroke="#666666" points="942,-239 854,-239 854,-220 942,-220 942,-239"/>
<text text-anchor="middle" x="898" y="-227" font-family="Helvetica,sans-Serif" font-size="10.00">socket/Socket.h</text>
</a>
</g>
</g>
<!-- Node1&#45;&gt;Node9 -->
<g id="edge8_Node000001_Node000009" class="edge">
<title>Node1&#45;&gt;Node9</title>
<g id="a_edge8_Node000001_Node000009"><a xlink:title=" ">
<path fill="none" stroke="#63b8ff" d="M953.09,-329.66C943.2,-311.85 920.7,-271.37 907.73,-248.01"/>
<polygon fill="#63b8ff" stroke="#63b8ff" points="910.73,-246.2 902.81,-239.16 904.61,-249.6 910.73,-246.2"/>
</a>
</g>
</g>
<!-- Node29 -->
<g id="Node000029" class="node">
<title>Node29</title>
<g id="a_Node000029"><a xlink:href="SocketWS_8h.html" target="_top" xlink:title="WebSocket Protocol (RFC 6455) implementation with compression support.">
<polygon fill="white" stroke="#666666" points="1123,-294 1019,-294 1019,-275 1123,-275 1123,-294"/>
<text text-anchor="middle" x="1071" y="-282" font-family="Helvetica,sans-Serif" font-size="10.00">socket/SocketWS.h</text>
</a>
</g>
</g>
<!-- Node1&#45;&gt;Node29 -->
<g id="edge41_Node000001_Node000029" class="edge">
<title>Node1&#45;&gt;Node29</title>
<g id="a_edge41_Node000001_Node000029"><a xlink:title=" ">
<path fill="none" stroke="#63b8ff" d="M976.16,-329.98C994.25,-321.5 1022.28,-308.35 1043.19,-298.54"/>
<polygon fill="#63b8ff" stroke="#63b8ff" points="1044.95,-301.59 1052.51,-294.17 1041.97,-295.25 1044.95,-301.59"/>
</a>
</g>
</g>
<!-- Node8 -->
<g id="Node000008" class="node">
<title>Node8</title>
<g id="a_Node000008"><a xlink:title=" ">
<polygon fill="#e0e0e0" stroke="#999999" points="1018,-19 964,-19 964,0 1018,0 1018,-19"/>
<text text-anchor="middle" x="991" y="-7" font-family="Helvetica,sans-Serif" font-size="10.00">setjmp.h</text>
</a>
</g>
</g>
<!-- Node7&#45;&gt;Node8 -->
<g id="edge7_Node000007_Node000008" class="edge">
<title>Node7&#45;&gt;Node8</title>
<g id="a_edge7_Node000007_Node000008"><a xlink:title=" ">
<path fill="none" stroke="#63b8ff" d="M991,-54.75C991,-47.8 991,-37.85 991,-29.13"/>
<polygon fill="#63b8ff" stroke="#63b8ff" points="994.5,-29.09 991,-19.09 987.5,-29.09 994.5,-29.09"/>
</a>
</g>
</g>
<!-- Node9&#45;&gt;Node7 -->
<g id="edge9_Node000009_Node000007" class="edge">
<title>Node9&#45;&gt;Node7</title>
<g id="a_edge9_Node000009_Node000007"><a xlink:title=" ">
<path fill="none" stroke="#63b8ff" d="M906.1,-219.76C913.86,-211.11 925.6,-197.27 934,-184 955.28,-150.38 974.01,-107.6 983.79,-83.73"/>
<polygon fill="#63b8ff" stroke="#63b8ff" points="987.14,-84.77 987.64,-74.19 980.65,-82.16 987.14,-84.77"/>
</a>
</g>
</g>
<!-- Node10 -->
<g id="Node000010" class="node">
<title>Node10</title>
<g id="a_Node000010"><a xlink:href="SocketConfig_8h.html" target="_top" xlink:title="Compile&#45;time and runtime configuration constants, limits, and platform adaptations.">
<polygon fill="white" stroke="#666666" points="327,-129 221,-129 221,-110 327,-110 327,-129"/>
<text text-anchor="middle" x="274" y="-117" font-family="Helvetica,sans-Serif" font-size="10.00">core/SocketConfig.h</text>
</a>
</g>
</g>
<!-- Node9&#45;&gt;Node10 -->
<g id="edge10_Node000009_Node000010" class="edge">
<title>Node9&#45;&gt;Node10</title>
<g id="a_edge10_Node000009_Node000010"><a xlink:title=" ">
<path fill="none" stroke="#63b8ff" d="M853.74,-222.32C796.29,-214.18 692.98,-199.11 605,-184 505.92,-166.98 390.74,-144.2 325.7,-131.06"/>
<polygon fill="#63b8ff" stroke="#63b8ff" points="326.2,-127.59 315.71,-129.04 324.81,-134.45 326.2,-127.59"/>
</a>
</g>
</g>
<!-- Node19 -->
<g id="Node000019" class="node">
<title>Node19</title>
<g id="a_Node000019"><a xlink:href="SocketDNS_8h.html" target="_top" xlink:title="Asynchronous DNS resolution API for non&#45;blocking network applications.">
<polygon fill="white" stroke="#666666" points="925,-184 829,-184 829,-165 925,-165 925,-184"/>
<text text-anchor="middle" x="877" y="-172" font-family="Helvetica,sans-Serif" font-size="10.00">dns/SocketDNS.h</text>
</a>
</g>
</g>
<!-- Node9&#45;&gt;Node19 -->
<g id="edge20_Node000009_Node000019" class="edge">
<title>Node9&#45;&gt;Node19</title>
<g id="a_edge20_Node000009_Node000019"><a xlink:title=" ">
<path fill="none" stroke="#63b8ff" d="M894.53,-219.75C891.72,-212.65 887.66,-202.4 884.15,-193.56"/>
<polygon fill="#63b8ff" stroke="#63b8ff" points="887.34,-192.1 880.4,-184.09 880.83,-194.68 887.34,-192.1"/>
</a>
</g>
</g>
<!-- Node22 -->
<g id="Node000022" class="node">
<title>Node22</title>
<g id="a_Node000022"><a xlink:href="SocketCommon_8h.html" target="_top" xlink:title="Common utilities shared between Socket and SocketDgram modules.">
<polygon fill="white" stroke="#666666" points="742,-184 614,-184 614,-165 742,-165 742,-184"/>
<text text-anchor="middle" x="678" y="-172" font-family="Helvetica,sans-Serif" font-size="10.00">socket/SocketCommon.h</text>
</a>
</g>
</g>
<!-- Node9&#45;&gt;Node22 -->
<g id="edge26_Node000009_Node000022" class="edge">
<title>Node9&#45;&gt;Node22</title>
<g id="a_edge26_Node000009_Node000022"><a xlink:title=" ">
<path fill="none" stroke="#63b8ff" d="M862.65,-219.98C824.84,-210.87 764.74,-196.4 723.43,-186.45"/>
<polygon fill="#63b8ff" stroke="#63b8ff" points="724.17,-183.02 713.62,-184.08 722.53,-189.83 724.17,-183.02"/>
</a>
</g>
</g>
<!-- Node10&#45;&gt;Node4 -->
<g id="edge16_Node000010_Node000004" class="edge">
<title>Node10&#45;&gt;Node4</title>
<g id="a_edge16_Node000010_Node000004"><a xlink:title=" ">
<path fill="none" stroke="#63b8ff" d="M228.11,-109.99C185.85,-101.98 121.19,-89.25 56.06,-74.14"/>
<polygon fill="#63b8ff" stroke="#63b8ff" points="56.57,-70.66 46.03,-71.79 54.97,-77.48 56.57,-70.66"/>
</a>
</g>
</g>
<!-- Node11 -->
<g id="Node000011" class="node">
<title>Node11</title>
<g id="a_Node000011"><a xlink:title=" ">
<polygon fill="#e0e0e0" stroke="#999999" points="180.5,-74 133.5,-74 133.5,-55 180.5,-55 180.5,-74"/>
<text text-anchor="middle" x="157" y="-62" font-family="Helvetica,sans-Serif" font-size="10.00">errno.h</text>
</a>
</g>
</g>
<!-- Node10&#45;&gt;Node11 -->
<g id="edge11_Node000010_Node000011" class="edge">
<title>Node10&#45;&gt;Node11</title>
<g id="a_edge11_Node000010_Node000011"><a xlink:title=" ">
<path fill="none" stroke="#63b8ff" d="M255.2,-109.98C236.38,-101.46 207.18,-88.23 185.5,-78.41"/>
<polygon fill="#63b8ff" stroke="#63b8ff" points="186.69,-75.11 176.14,-74.17 183.8,-81.48 186.69,-75.11"/>
</a>
</g>
</g>
<!-- Node12 -->
<g id="Node000012" class="node">
<title>Node12</title>
<g id="a_Node000012"><a xlink:title=" ">
<polygon fill="#e0e0e0" stroke="#999999" points="490,-74 446,-74 446,-55 490,-55 490,-74"/>
<text text-anchor="middle" x="468" y="-62" font-family="Helvetica,sans-Serif" font-size="10.00">fcntl.h</text>
</a>
</g>
</g>
<!-- Node10&#45;&gt;Node12 -->
<g id="edge12_Node000010_Node000012" class="edge">
<title>Node10&#45;&gt;Node12</title>
<g id="a_edge12_Node000010_Node000012"><a xlink:title=" ">
<path fill="none" stroke="#63b8ff" d="M305.25,-109.98C336.08,-101.57 384.81,-88.28 436.05,-74.26"/>
<polygon fill="#63b8ff" stroke="#63b8ff" points="437.26,-77.55 445.99,-71.54 435.42,-70.8 437.26,-77.55"/>
</a>
</g>
</g>
<!-- Node13 -->
<g id="Node000013" class="node">
<title>Node13</title>
<g id="a_Node000013"><a xlink:title=" ">
<polygon fill="#e0e0e0" stroke="#999999" points="427.5,-74 362.5,-74 362.5,-55 427.5,-55 427.5,-74"/>
<text text-anchor="middle" x="395" y="-62" font-family="Helvetica,sans-Serif" font-size="10.00">netinet/in.h</text>
</a>
</g>
</g>
<!-- Node10&#45;&gt;Node13 -->
<g id="edge13_Node000010_Node000013" class="edge">
<title>Node10&#45;&gt;Node13</title>
<g id="a_edge13_Node000010_Node000013"><a xlink:title=" ">
<path fill="none" stroke="#63b8ff" d="M293.44,-109.98C312.99,-101.42 343.38,-88.11 365.82,-78.28"/>
<polygon fill="#63b8ff" stroke="#63b8ff" points="367.45,-81.39 375.21,-74.17 364.64,-74.98 367.45,-81.39"/>
</a>
</g>
</g>
<!-- Node14 -->
<g id="Node000014" class="node">
<title>Node14</title>
<g id="a_Node000014"><a xlink:title=" ">
<polygon fill="#e0e0e0" stroke="#999999" points="269.5,-74 198.5,-74 198.5,-55 269.5,-55 269.5,-74"/>
<text text-anchor="middle" x="234" y="-62" font-family="Helvetica,sans-Serif" font-size="10.00">netinet/tcp.h</text>
</a>
</g>
</g>
<!-- Node10&#45;&gt;Node14 -->
<g id="edge14_Node000010_Node000014" class="edge">
<title>Node10&#45;&gt;Node14</title>
<g id="a_edge14_Node000010_Node000014"><a xlink:title=" ">
<path fill="none" stroke="#63b8ff" d="M267.39,-109.75C261.74,-102.26 253.46,-91.28 246.55,-82.13"/>
<polygon fill="#63b8ff" stroke="#63b8ff" points="249.3,-79.96 240.48,-74.09 243.71,-84.18 249.3,-79.96"/>
</a>
</g>
</g>
<!-- Node15 -->
<g id="Node000015" class="node">
<title>Node15</title>
<g id="a_Node000015"><a xlink:title=" ">
<polygon fill="#e0e0e0" stroke="#999999" points="1269,-74 1217,-74 1217,-55 1269,-55 1269,-74"/>
<text text-anchor="middle" x="1243" y="-62" font-family="Helvetica,sans-Serif" font-size="10.00">stddef.h</text>
</a>
</g>
</g>
<!-- Node10&#45;&gt;Node15 -->
<g id="edge15_Node000010_Node000015" class="edge">
<title>Node10&#45;&gt;Node15</title>
<g id="a_edge15_Node000010_Node000015"><a xlink:title=" ">
<path fill="none" stroke="#63b8ff" d="M327.13,-115.16C353.03,-113.55 384.64,-111.63 413,-110 720,-92.38 1091.02,-73.26 1206.75,-67.35"/>
<polygon fill="#63b8ff" stroke="#63b8ff" points="1207.02,-70.84 1216.83,-66.83 1206.66,-63.85 1207.02,-70.84"/>
</a>
</g>
</g>
<!-- Node16 -->
<g id="Node000016" class="node">
<title>Node16</title>
<g id="a_Node000016"><a xlink:title=" ">
<polygon fill="#e0e0e0" stroke="#999999" points="769.5,-74 696.5,-74 696.5,-55 769.5,-55 769.5,-74"/>
<text text-anchor="middle" x="733" y="-62" font-family="Helvetica,sans-Serif" font-size="10.00">sys/socket.h</text>
</a>
</g>
</g>
<!-- Node10&#45;&gt;Node16 -->
<g id="edge17_Node000010_Node000016" class="edge">
<title>Node10&#45;&gt;Node16</title>
<g id="a_edge17_Node000010_Node000016"><a xlink:title=" ">
<path fill="none" stroke="#63b8ff" d="M327.1,-112.37C417.69,-101.91 600.63,-80.78 686.5,-70.87"/>
<polygon fill="#63b8ff" stroke="#63b8ff" points="686.94,-74.34 696.48,-69.72 686.14,-67.39 686.94,-74.34"/>
</a>
</g>
</g>
<!-- Node17 -->
<g id="Node000017" class="node">
<title>Node17</title>
<g id="a_Node000017"><a xlink:title=" ">
<polygon fill="#e0e0e0" stroke="#999999" points="344,-74 288,-74 288,-55 344,-55 344,-74"/>
<text text-anchor="middle" x="316" y="-62" font-family="Helvetica,sans-Serif" font-size="10.00">sys/uio.h</text>
</a>
</g>
</g>
<!-- Node10&#45;&gt;Node17 -->
<g id="edge18_Node000010_Node000017" class="edge">
<title>Node10&#45;&gt;Node17</title>
<g id="a_edge18_Node000010_Node000017"><a xlink:title=" ">
<path fill="none" stroke="#63b8ff" d="M280.94,-109.75C286.87,-102.26 295.57,-91.28 302.82,-82.13"/>
<polygon fill="#63b8ff" stroke="#63b8ff" points="305.73,-84.1 309.19,-74.09 300.24,-79.75 305.73,-84.1"/>
</a>
</g>
</g>
<!-- Node18 -->
<g id="Node000018" class="node">
<title>Node18</title>
<g id="a_Node000018"><a xlink:title=" ">
<polygon fill="#e0e0e0" stroke="#999999" points="115.5,-74 64.5,-74 64.5,-55 115.5,-55 115.5,-74"/>
<text text-anchor="middle" x="90" y="-62" font-family="Helvetica,sans-Serif" font-size="10.00">unistd.h</text>
</a>
</g>
</g>
<!-- Node10&#45;&gt;Node18 -->
<g id="edge19_Node000010_Node000018" class="edge">
<title>Node10&#45;&gt;Node18</title>
<g id="a_edge19_Node000010_Node000018"><a xlink:title=" ">
<path fill="none" stroke="#63b8ff" d="M244.44,-109.98C211.98,-100.64 159.9,-85.64 125.32,-75.67"/>
<polygon fill="#63b8ff" stroke="#63b8ff" points="126.21,-72.29 115.63,-72.88 124.27,-79.01 126.21,-72.29"/>
</a>
</g>
</g>
<!-- Node19&#45;&gt;Node7 -->
<g id="edge21_Node000019_Node000007" class="edge">
<title>Node19&#45;&gt;Node7</title>
<g id="a_edge21_Node000019_Node000007"><a xlink:title=" ">
<path fill="none" stroke="#63b8ff" d="M885.18,-164.63C896.83,-152.12 918.98,-128.75 939,-110 949.84,-99.85 962.49,-89 972.6,-80.56"/>
<polygon fill="#63b8ff" stroke="#63b8ff" points="974.93,-83.17 980.4,-74.1 970.47,-77.78 974.93,-83.17"/>
</a>
</g>
</g>
<!-- Node19&#45;&gt;Node15 -->
<g id="edge23_Node000019_Node000015" class="edge">
<title>Node19&#45;&gt;Node15</title>
<g id="a_edge23_Node000019_Node000015"><a xlink:title=" ">
<path fill="none" stroke="#63b8ff" d="M925.19,-173.6C1009.73,-172.78 1179.95,-166.39 1224,-129 1236.88,-118.07 1241.23,-98.8 1242.61,-84.35"/>
<polygon fill="#63b8ff" stroke="#63b8ff" points="1246.12,-84.22 1243.18,-74.04 1239.13,-83.83 1246.12,-84.22"/>
</a>
</g>
</g>
<!-- Node19&#45;&gt;Node16 -->
<g id="edge25_Node000019_Node000016" class="edge">
<title>Node19&#45;&gt;Node16</title>
<g id="a_edge25_Node000019_Node000016"><a xlink:title=" ">
<path fill="none" stroke="#63b8ff" d="M876.8,-164.9C876.02,-151.44 872.58,-125.35 858,-110 837.55,-88.47 806.01,-77.34 779.72,-71.6"/>
<polygon fill="#63b8ff" stroke="#63b8ff" points="780.06,-68.1 769.57,-69.58 778.7,-74.96 780.06,-68.1"/>
</a>
</g>
</g>
<!-- Node20 -->
<g id="Node000020" class="node">
<title>Node20</title>
<g id="a_Node000020"><a xlink:title=" ">
<polygon fill="#e0e0e0" stroke="#999999" points="848.5,-129 799.5,-129 799.5,-110 848.5,-110 848.5,-129"/>
<text text-anchor="middle" x="824" y="-117" font-family="Helvetica,sans-Serif" font-size="10.00">netdb.h</text>
</a>
</g>
</g>
<!-- Node19&#45;&gt;Node20 -->
<g id="edge22_Node000019_Node000020" class="edge">
<title>Node19&#45;&gt;Node20</title>
<g id="a_edge22_Node000019_Node000020"><a xlink:title=" ">
<path fill="none" stroke="#63b8ff" d="M868.25,-164.75C860.53,-157.03 849.1,-145.6 839.78,-136.28"/>
<polygon fill="#63b8ff" stroke="#63b8ff" points="842.14,-133.69 832.59,-129.09 837.19,-138.64 842.14,-133.69"/>
</a>
</g>
</g>
<!-- Node21 -->
<g id="Node000021" class="node">
<title>Node21</title>
<g id="a_Node000021"><a xlink:title=" ">
<polygon fill="#e0e0e0" stroke="#999999" points="1320.5,-129 1271.5,-129 1271.5,-110 1320.5,-110 1320.5,-129"/>
<text text-anchor="middle" x="1296" y="-117" font-family="Helvetica,sans-Serif" font-size="10.00">stdint.h</text>
</a>
</g>
</g>
<!-- Node19&#45;&gt;Node21 -->
<g id="edge24_Node000019_Node000021" class="edge">
<title>Node19&#45;&gt;Node21</title>
<g id="a_edge24_Node000019_Node000021"><a xlink:title=" ">
<path fill="none" stroke="#63b8ff" d="M925.2,-169.38C997.56,-162.86 1138.42,-148.82 1257,-129 1258.45,-128.76 1259.93,-128.5 1261.43,-128.22"/>
<polygon fill="#63b8ff" stroke="#63b8ff" points="1262.18,-131.64 1271.31,-126.26 1260.82,-124.77 1262.18,-131.64"/>
</a>
</g>
</g>
<!-- Node22&#45;&gt;Node7 -->
<g id="edge39_Node000022_Node000007" class="edge">
<title>Node22&#45;&gt;Node7</title>
<g id="a_edge39_Node000022_Node000007"><a xlink:title=" ">
<path fill="none" stroke="#63b8ff" d="M690.28,-164.99C710.42,-151.41 752.12,-124.88 791,-110 840.92,-90.9 901.15,-78.89 942.38,-72.23"/>
<polygon fill="#63b8ff" stroke="#63b8ff" points="943.1,-75.66 952.43,-70.65 942.01,-68.74 943.1,-75.66"/>
</a>
</g>
</g>
<!-- Node22&#45;&gt;Node10 -->
<g id="edge40_Node000022_Node000010" class="edge">
<title>Node22&#45;&gt;Node10</title>
<g id="a_edge40_Node000022_Node000010"><a xlink:title=" ">
<path fill="none" stroke="#63b8ff" d="M613.98,-165.1C538.23,-155.16 412.88,-138.72 337.39,-128.82"/>
<polygon fill="#63b8ff" stroke="#63b8ff" points="337.45,-125.29 327.08,-127.46 336.54,-132.23 337.45,-125.29"/>
</a>
</g>
</g>
<!-- Node22&#45;&gt;Node12 -->
<g id="edge29_Node000022_Node000012" class="edge">
<title>Node22&#45;&gt;Node12</title>
<g id="a_edge29_Node000022_Node000012"><a xlink:title=" ">
<path fill="none" stroke="#63b8ff" d="M613.93,-171.92C543.9,-168.67 438.24,-158.83 413,-129 398.39,-111.74 421.66,-92.09 442.28,-79.28"/>
<polygon fill="#63b8ff" stroke="#63b8ff" points="444.28,-82.16 451.12,-74.07 440.73,-76.13 444.28,-82.16"/>
</a>
</g>
</g>
<!-- Node22&#45;&gt;Node13 -->
<g id="edge31_Node000022_Node000013" class="edge">
<title>Node22&#45;&gt;Node13</title>
<g id="a_edge31_Node000022_Node000013"><a xlink:title=" ">
<path fill="none" stroke="#63b8ff" d="M613.81,-171.62C542.13,-168.1 432.42,-158 404,-129 392.69,-117.45 391.31,-98.58 392.24,-84.4"/>
<polygon fill="#63b8ff" stroke="#63b8ff" points="395.74,-84.59 393.33,-74.27 388.78,-83.84 395.74,-84.59"/>
</a>
</g>
</g>
<!-- Node22&#45;&gt;Node16 -->
<g id="edge32_Node000022_Node000016" class="edge">
<title>Node22&#45;&gt;Node16</title>
<g id="a_edge32_Node000022_Node000016"><a xlink:title=" ">
<path fill="none" stroke="#63b8ff" d="M686.88,-164.71C694.98,-156.24 706.77,-142.71 714,-129 721.48,-114.83 726.44,-97.29 729.41,-84.24"/>
<polygon fill="#63b8ff" stroke="#63b8ff" points="732.91,-84.63 731.53,-74.12 726.06,-83.2 732.91,-84.63"/>
</a>
</g>
</g>
<!-- Node22&#45;&gt;Node20 -->
<g id="edge30_Node000022_Node000020" class="edge">
<title>Node22&#45;&gt;Node20</title>
<g id="a_edge30_Node000022_Node000020"><a xlink:title=" ">
<path fill="none" stroke="#63b8ff" d="M701.46,-164.98C725.58,-156.23 763.37,-142.51 790.6,-132.62"/>
<polygon fill="#63b8ff" stroke="#63b8ff" points="791.91,-135.87 800.12,-129.17 789.52,-129.29 791.91,-135.87"/>
</a>
</g>
</g>
<!-- Node23 -->
<g id="Node000023" class="node">
<title>Node23</title>
<g id="a_Node000023"><a xlink:title=" ">
<polygon fill="#e0e0e0" stroke="#999999" points="478.5,-129 421.5,-129 421.5,-110 478.5,-110 478.5,-129"/>
<text text-anchor="middle" x="450" y="-117" font-family="Helvetica,sans-Serif" font-size="10.00">pthread.h</text>
</a>
</g>
</g>
<!-- Node22&#45;&gt;Node23 -->
<g id="edge27_Node000022_Node000023" class="edge">
<title>Node22&#45;&gt;Node23</title>
<g id="a_edge27_Node000022_Node000023"><a xlink:title=" ">
<path fill="none" stroke="#63b8ff" d="M641.37,-164.98C599.5,-155.25 531.28,-139.39 488.61,-129.47"/>
<polygon fill="#63b8ff" stroke="#63b8ff" points="489.14,-126 478.6,-127.15 487.55,-132.82 489.14,-126"/>
</a>
</g>
</g>
<!-- Node24 -->
<g id="Node000024" class="node">
<title>Node24</title>
<g id="a_Node000024"><a xlink:title=" ">
<polygon fill="#e0e0e0" stroke="#999999" points="553,-129 497,-129 497,-110 553,-110 553,-129"/>
<text text-anchor="middle" x="525" y="-117" font-family="Helvetica,sans-Serif" font-size="10.00">stdbool.h</text>
</a>
</g>
</g>
<!-- Node22&#45;&gt;Node24 -->
<g id="edge28_Node000022_Node000024" class="edge">
<title>Node22&#45;&gt;Node24</title>
<g id="a_edge28_Node000022_Node000024"><a xlink:title=" ">
<path fill="none" stroke="#63b8ff" d="M653.42,-164.98C627.95,-156.16 587.96,-142.31 559.37,-132.41"/>
<polygon fill="#63b8ff" stroke="#63b8ff" points="560.37,-129.05 549.77,-129.08 558.08,-135.66 560.37,-129.05"/>
</a>
</g>
</g>
<!-- Node25 -->
<g id="Node000025" class="node">
<title>Node25</title>
<g id="a_Node000025"><a xlink:title=" ">
<polygon fill="#e0e0e0" stroke="#999999" points="633,-129 571,-129 571,-110 633,-110 633,-129"/>
<text text-anchor="middle" x="602" y="-117" font-family="Helvetica,sans-Serif" font-size="10.00">sys/time.h</text>
</a>
</g>
</g>
<!-- Node22&#45;&gt;Node25 -->
<g id="edge33_Node000022_Node000025" class="edge">
<title>Node22&#45;&gt;Node25</title>
<g id="a_edge33_Node000022_Node000025"><a xlink:title=" ">
<path fill="none" stroke="#63b8ff" d="M665.79,-164.98C654.22,-156.92 636.62,-144.65 622.84,-135.03"/>
<polygon fill="#63b8ff" stroke="#63b8ff" points="624.64,-132.02 614.43,-129.17 620.63,-137.76 624.64,-132.02"/>
</a>
</g>
</g>
<!-- Node26 -->
<g id="Node000026" class="node">
<title>Node26</title>
<g id="a_Node000026"><a xlink:title=" ">
<polygon fill="#e0e0e0" stroke="#999999" points="1215,-129 1147,-129 1147,-110 1215,-110 1215,-129"/>
<text text-anchor="middle" x="1181" y="-117" font-family="Helvetica,sans-Serif" font-size="10.00">sys/types.h</text>
</a>
</g>
</g>
<!-- Node22&#45;&gt;Node26 -->
<g id="edge34_Node000022_Node000026" class="edge">
<title>Node22&#45;&gt;Node26</title>
<g id="a_edge34_Node000022_Node000026"><a xlink:title=" ">
<path fill="none" stroke="#63b8ff" d="M742.24,-169.3C829.38,-163.15 990.07,-150.23 1136.7,-129.05"/>
<polygon fill="#63b8ff" stroke="#63b8ff" points="1137.4,-132.49 1146.79,-127.58 1136.38,-125.56 1137.4,-132.49"/>
</a>
</g>
</g>
<!-- Node27 -->
<g id="Node000027" class="node">
<title>Node27</title>
<g id="a_Node000027"><a xlink:title=" ">
<polygon fill="#e0e0e0" stroke="#999999" points="705,-129 651,-129 651,-110 705,-110 705,-129"/>
<text text-anchor="middle" x="678" y="-117" font-family="Helvetica,sans-Serif" font-size="10.00">sys/un.h</text>
</a>
</g>
</g>
<!-- Node22&#45;&gt;Node27 -->
<g id="edge35_Node000022_Node000027" class="edge">
<title>Node22&#45;&gt;Node27</title>
<g id="a_edge35_Node000022_Node000027"><a xlink:title=" ">
<path fill="none" stroke="#63b8ff" d="M678,-164.75C678,-157.8 678,-147.85 678,-139.13"/>
<polygon fill="#63b8ff" stroke="#63b8ff" points="681.5,-139.09 678,-129.09 674.5,-139.09 681.5,-139.09"/>
</a>
</g>
</g>
<!-- Node28 -->
<g id="Node000028" class="node">
<title>Node28</title>
<g id="a_Node000028"><a xlink:href="Arena_8h.html" target="_top" xlink:title="Arena&#45;based memory allocator for efficient bulk memory management.">
<polygon fill="white" stroke="#666666" points="1129,-129 1057,-129 1057,-110 1129,-110 1129,-129"/>
<text text-anchor="middle" x="1093" y="-117" font-family="Helvetica,sans-Serif" font-size="10.00">core/Arena.h</text>
</a>
</g>
</g>
<!-- Node22&#45;&gt;Node28 -->
<g id="edge36_Node000022_Node000028" class="edge">
<title>Node22&#45;&gt;Node28</title>
<g id="a_edge36_Node000022_Node000028"><a xlink:title=" ">
<path fill="none" stroke="#63b8ff" d="M742.39,-165.28C826.76,-154.5 972.66,-135.87 1046.83,-126.4"/>
<polygon fill="#63b8ff" stroke="#63b8ff" points="1047.33,-129.86 1056.81,-125.12 1046.45,-122.92 1047.33,-129.86"/>
</a>
</g>
</g>
<!-- Node28&#45;&gt;Node7 -->
<g id="edge38_Node000028_Node000007" class="edge">
<title>Node28&#45;&gt;Node7</title>
<g id="a_edge38_Node000028_Node000007"><a xlink:title=" ">
<path fill="none" stroke="#63b8ff" d="M1076.61,-109.98C1060.43,-101.57 1035.43,-88.59 1016.62,-78.81"/>
<polygon fill="#63b8ff" stroke="#63b8ff" points="1018.17,-75.68 1007.69,-74.17 1014.95,-81.89 1018.17,-75.68"/>
</a>
</g>
</g>
<!-- Node28&#45;&gt;Node15 -->
<g id="edge37_Node000028_Node000015" class="edge">
<title>Node28&#45;&gt;Node15</title>
<g id="a_edge37_Node000028_Node000015"><a xlink:title=" ">
<path fill="none" stroke="#63b8ff" d="M1117.1,-109.98C1141.88,-101.23 1180.7,-87.51 1208.69,-77.62"/>
<polygon fill="#63b8ff" stroke="#63b8ff" points="1210.2,-80.8 1218.46,-74.17 1207.87,-74.2 1210.2,-80.8"/>
</a>
</g>
</g>
<!-- Node29&#45;&gt;Node7 -->
<g id="edge44_Node000029_Node000007" class="edge">
<title>Node29&#45;&gt;Node7</title>
<g id="a_edge44_Node000029_Node000007"><a xlink:title=" ">
<path fill="none" stroke="#63b8ff" d="M1067.86,-274.95C1056.07,-242.81 1014.2,-128.72 997.73,-83.83"/>
<polygon fill="#63b8ff" stroke="#63b8ff" points="1000.93,-82.41 994.2,-74.22 994.36,-84.82 1000.93,-82.41"/>
</a>
</g>
</g>
<!-- Node29&#45;&gt;Node9 -->
<g id="edge52_Node000029_Node000009" class="edge">
<title>Node29&#45;&gt;Node9</title>
<g id="a_edge52_Node000029_Node000009"><a xlink:title=" ">
<path fill="none" stroke="#63b8ff" d="M1043.2,-274.98C1014.03,-266.05 968,-251.94 935.6,-242.02"/>
<polygon fill="#63b8ff" stroke="#63b8ff" points="936.6,-238.66 926.01,-239.08 934.55,-245.36 936.6,-238.66"/>
</a>
</g>
</g>
<!-- Node29&#45;&gt;Node15 -->
<g id="edge42_Node000029_Node000015" class="edge">
<title>Node29&#45;&gt;Node15</title>
<g id="a_edge42_Node000029_Node000015"><a xlink:title=" ">
<path fill="none" stroke="#63b8ff" d="M1105.89,-274.96C1192.2,-252.99 1411.35,-191.84 1447,-129 1451.17,-121.65 1452.3,-116.58 1447,-110 1426.32,-84.33 1332.06,-72.67 1279.2,-68.07"/>
<polygon fill="#63b8ff" stroke="#63b8ff" points="1279.47,-64.59 1269.22,-67.25 1278.9,-71.56 1279.47,-64.59"/>
</a>
</g>
</g>
<!-- Node29&#45;&gt;Node21 -->
<g id="edge43_Node000029_Node000021" class="edge">
<title>Node29&#45;&gt;Node21</title>
<g id="a_edge43_Node000029_Node000021"><a xlink:title=" ">
<path fill="none" stroke="#63b8ff" d="M1082.78,-274.97C1119.15,-248.62 1229.95,-168.35 1275.8,-135.13"/>
<polygon fill="#63b8ff" stroke="#63b8ff" points="1278.02,-137.85 1284.06,-129.15 1273.91,-132.18 1278.02,-137.85"/>
</a>
</g>
</g>
<!-- Node30 -->
<g id="Node000030" class="node">
<title>Node30</title>
<g id="a_Node000030"><a xlink:href="SocketHTTP_8h.html" target="_top" xlink:title="Protocol&#45;agnostic HTTP types, header handling, URI parsing, and utilities.">
<polygon fill="white" stroke="#666666" points="1346,-184 1246,-184 1246,-165 1346,-165 1346,-184"/>
<text text-anchor="middle" x="1296" y="-172" font-family="Helvetica,sans-Serif" font-size="10.00">http/SocketHTTP.h</text>
</a>
</g>
</g>
<!-- Node29&#45;&gt;Node30 -->
<g id="edge45_Node000029_Node000030" class="edge">
<title>Node29&#45;&gt;Node30</title>
<g id="a_edge45_Node000029_Node000030"><a xlink:title=" ">
<path fill="none" stroke="#63b8ff" d="M1089.03,-274.84C1128.46,-255.92 1222.53,-210.77 1269.03,-188.45"/>
<polygon fill="#63b8ff" stroke="#63b8ff" points="1270.69,-191.53 1278.19,-184.05 1267.66,-185.22 1270.69,-191.53"/>
</a>
</g>
</g>
<!-- Node30&#45;&gt;Node7 -->
<g id="edge51_Node000030_Node000007" class="edge">
<title>Node30&#45;&gt;Node7</title>
<g id="a_edge51_Node000030_Node000007"><a xlink:title=" ">
<path fill="none" stroke="#63b8ff" d="M1306.64,-164.94C1321.49,-151.99 1345.01,-127.11 1330,-110 1311.17,-88.54 1129.19,-74.2 1039.91,-68.4"/>
<polygon fill="#63b8ff" stroke="#63b8ff" points="1039.96,-64.9 1029.76,-67.75 1039.51,-71.88 1039.96,-64.9"/>
</a>
</g>
</g>
<!-- Node30&#45;&gt;Node15 -->
<g id="edge46_Node000030_Node000015" class="edge">
<title>Node30&#45;&gt;Node15</title>
<g id="a_edge46_Node000030_Node000015"><a xlink:title=" ">
<path fill="none" stroke="#63b8ff" d="M1346.06,-167.56C1394.2,-159.77 1456.09,-143.03 1430,-110 1411.59,-86.7 1328.43,-74.29 1279.42,-68.89"/>
<polygon fill="#63b8ff" stroke="#63b8ff" points="1279.54,-65.38 1269.22,-67.81 1278.8,-72.34 1279.54,-65.38"/>
</a>
</g>
</g>
<!-- Node30&#45;&gt;Node21 -->
<g id="edge47_Node000030_Node000021" class="edge">
<title>Node30&#45;&gt;Node21</title>
<g id="a_edge47_Node000030_Node000021"><a xlink:title=" ">
<path fill="none" stroke="#63b8ff" d="M1296,-164.75C1296,-157.8 1296,-147.85 1296,-139.13"/>
<polygon fill="#63b8ff" stroke="#63b8ff" points="1299.5,-139.09 1296,-129.09 1292.5,-139.09 1299.5,-139.09"/>
</a>
</g>
</g>
<!-- Node30&#45;&gt;Node26 -->
<g id="edge48_Node000030_Node000026" class="edge">
<title>Node30&#45;&gt;Node26</title>
<g id="a_edge48_Node000030_Node000026"><a xlink:title=" ">
<path fill="none" stroke="#63b8ff" d="M1277.52,-164.98C1259.02,-156.46 1230.32,-143.23 1209.02,-133.41"/>
<polygon fill="#63b8ff" stroke="#63b8ff" points="1210.36,-130.18 1199.81,-129.17 1207.43,-136.53 1210.36,-130.18"/>
</a>
</g>
</g>
<!-- Node30&#45;&gt;Node28 -->
<g id="edge50_Node000030_Node000028" class="edge">
<title>Node30&#45;&gt;Node28</title>
<g id="a_edge50_Node000030_Node000028"><a xlink:title=" ">
<path fill="none" stroke="#63b8ff" d="M1263.38,-164.98C1228.71,-155.93 1173.74,-141.58 1135.65,-131.64"/>
<polygon fill="#63b8ff" stroke="#63b8ff" points="1136.43,-128.22 1125.87,-129.08 1134.66,-134.99 1136.43,-128.22"/>
</a>
</g>
</g>
<!-- Node31 -->
<g id="Node000031" class="node">
<title>Node31</title>
<g id="a_Node000031"><a xlink:title=" ">
<polygon fill="#e0e0e0" stroke="#999999" points="1421,-129 1377,-129 1377,-110 1421,-110 1421,-129"/>
<text text-anchor="middle" x="1399" y="-117" font-family="Helvetica,sans-Serif" font-size="10.00">time.h</text>
</a>
</g>
</g>
<!-- Node30&#45;&gt;Node31 -->
<g id="edge49_Node000030_Node000031" class="edge">
<title>Node30&#45;&gt;Node31</title>
<g id="a_edge49_Node000030_Node000031"><a xlink:title=" ">
<path fill="none" stroke="#63b8ff" d="M1312.55,-164.98C1328.89,-156.57 1354.13,-143.59 1373.13,-133.81"/>
<polygon fill="#63b8ff" stroke="#63b8ff" points="1374.86,-136.86 1382.15,-129.17 1371.66,-130.63 1374.86,-136.86"/>
</a>
</g>
</g>
</g>
</svg>
