<?xml version="1.0" encoding="UTF-8" standalone="no"?>
<!DOCTYPE svg PUBLIC "-//W3C//DTD SVG 1.1//EN"
 "http://www.w3.org/Graphics/SVG/1.1/DTD/svg11.dtd">
<!-- Generated by graphviz version 2.43.0 (0)
 -->
<!-- Title: websocket_server.c Pages: 1 -->
<!--zoomable 467 -->

<svg id="main" version="1.1" xmlns="http://www.w3.org/2000/svg" xmlns:xlink="http://www.w3.org/1999/xlink" xml:space="preserve" onload="init(evt)">
<style type="text/css"><![CDATA[
.node, .edge {opacity: 0.7;}
.node.selected, .edge.selected {opacity: 1;}
.edge:hover path { stroke: red; }
.edge:hover polygon { stroke: red; fill: red; }
]]></style>

<defs>
  <circle id="rim" cx="0" cy="0" r="7"/>
  <circle id="rim2" cx="0" cy="0" r="3.5"/>
  <g id="zoomPlus">
    <use xlink:href="#rim" fill="#404040"><set attributeName="fill" to="#808080" begin="zoomplus.mouseover" end="zoomplus.mouseout"/></use>
    <path d="M-4,0h8M0,-4v8" fill="none" stroke="white" stroke-width="1.5" pointer-events="none"/>
  </g>
  <g id="zoomMin">
    <use xlink:href="#rim" fill="#404040"><set attributeName="fill" to="#808080" begin="zoomminus.mouseover" end="zoomminus.mouseout"/></use>
    <path d="M-4,0h8" fill="none" stroke="white" stroke-width="1.5" pointer-events="none"/>
  </g>
  <g id="arrowUp" transform="translate(30 24)">
    <use xlink:href="#rim"/>
    <path pointer-events="none" fill="none" stroke="white" stroke-width="1.5" d="M0,-3.0v7 M-2.5,-0.5L0,-3.0L2.5,-0.5"/>
  </g>
  <g id="arrowRight" transform="rotate(90) translate(36 -43)">
    <use xlink:href="#rim"/>
    <path pointer-events="none" fill="none" stroke="white" stroke-width="1.5" d="M0,-3.0v7 M-2.5,-0.5L0,-3.0L2.5,-0.5"/>
  </g>
  <g id="arrowDown" transform="rotate(180) translate(-30 -48)">
    <use xlink:href="#rim"/>
    <path pointer-events="none" fill="none" stroke="white" stroke-width="1.5" d="M0,-3.0v7 M-2.5,-0.5L0,-3.0L2.5,-0.5"/>
  </g>
  <g id="arrowLeft" transform="rotate(270) translate(-36 17)">
    <use xlink:href="#rim"/>
    <path pointer-events="none" fill="none" stroke="white" stroke-width="1.5" d="M0,-3.0v7 M-2.5,-0.5L0,-3.0L2.5,-0.5"/>
  </g>
  <g id="resetDef">
    <use xlink:href="#rim2" fill="#404040"><set attributeName="fill" to="#808080" begin="reset.mouseover" end="reset.mouseout"/></use>
  </g>
</defs>
<script type="application/ecmascript">
var viewWidth = 1592;
var viewHeight = 467;
var sectionId = 'dynsection-0';
</script>
<script type="application/ecmascript" xlink:href="svg.min.js"/>
<svg id="graph" class="graph">
<g id="viewport">
<title>websocket_server.c</title>
<!-- Node1 -->
<g id="Node000001" class="node">
<title>Node1</title>
<g id="a_Node000001"><a xlink:title=" ">
<polygon fill="#999999" stroke="#666666" points="715,-459 611,-459 611,-440 715,-440 715,-459"/>
<text text-anchor="middle" x="663" y="-447" font-family="Helvetica,sans-Serif" font-size="10.00">websocket_server.c</text>
</a>
</g>
</g>
<!-- Node2 -->
<g id="Node000002" class="node">
<title>Node2</title>
<g id="a_Node000002"><a xlink:title=" ">
<polygon fill="#e0e0e0" stroke="#999999" points="50,-404 0,-404 0,-385 50,-385 50,-404"/>
<text text-anchor="middle" x="25" y="-392" font-family="Helvetica,sans-Serif" font-size="10.00">signal.h</text>
</a>
</g>
</g>
<!-- Node1&#45;&gt;Node2 -->
<g id="edge1_Node000001_Node000002" class="edge">
<title>Node1&#45;&gt;Node2</title>
<g id="a_edge1_Node000001_Node000002"><a xlink:title=" ">
<path fill="none" stroke="#63b8ff" d="M610.65,-447.08C506.21,-443.71 264.71,-433.18 64,-404 62.73,-403.81 61.43,-403.61 60.13,-403.39"/>
<polygon fill="#63b8ff" stroke="#63b8ff" points="60.55,-399.91 50.08,-401.51 59.26,-406.79 60.55,-399.91"/>
</a>
</g>
</g>
<!-- Node3 -->
<g id="Node000003" class="node">
<title>Node3</title>
<g id="a_Node000003"><a xlink:title=" ">
<polygon fill="#e0e0e0" stroke="#999999" points="124,-74 78,-74 78,-55 124,-55 124,-74"/>
<text text-anchor="middle" x="101" y="-62" font-family="Helvetica,sans-Serif" font-size="10.00">stdio.h</text>
</a>
</g>
</g>
<!-- Node1&#45;&gt;Node3 -->
<g id="edge2_Node000001_Node000003" class="edge">
<title>Node1&#45;&gt;Node3</title>
<g id="a_edge2_Node000001_Node000003"><a xlink:title=" ">
<path fill="none" stroke="#63b8ff" d="M610.83,-444.35C467.45,-432.25 78,-394.43 78,-340.5 78,-340.5 78,-340.5 78,-173.5 78,-141.34 87.88,-104.95 94.69,-83.69"/>
<polygon fill="#63b8ff" stroke="#63b8ff" points="98.06,-84.64 97.9,-74.05 91.42,-82.43 98.06,-84.64"/>
</a>
</g>
</g>
<!-- Node4 -->
<g id="Node000004" class="node">
<title>Node4</title>
<g id="a_Node000004"><a xlink:title=" ">
<polygon fill="#e0e0e0" stroke="#999999" points="1516,-404 1468,-404 1468,-385 1516,-385 1516,-404"/>
<text text-anchor="middle" x="1492" y="-392" font-family="Helvetica,sans-Serif" font-size="10.00">stdlib.h</text>
</a>
</g>
</g>
<!-- Node1&#45;&gt;Node4 -->
<g id="edge3_Node000001_Node000004" class="edge">
<title>Node1&#45;&gt;Node4</title>
<g id="a_edge3_Node000001_Node000004"><a xlink:title=" ">
<path fill="none" stroke="#63b8ff" d="M715.11,-448.51C842.11,-447.9 1177.45,-442.45 1454,-404 1455.28,-403.82 1456.58,-403.62 1457.89,-403.41"/>
<polygon fill="#63b8ff" stroke="#63b8ff" points="1458.81,-406.8 1467.99,-401.5 1457.51,-399.92 1458.81,-406.8"/>
</a>
</g>
</g>
<!-- Node5 -->
<g id="Node000005" class="node">
<title>Node5</title>
<g id="a_Node000005"><a xlink:title=" ">
<polygon fill="#e0e0e0" stroke="#999999" points="1583.5,-404 1534.5,-404 1534.5,-385 1583.5,-385 1583.5,-404"/>
<text text-anchor="middle" x="1559" y="-392" font-family="Helvetica,sans-Serif" font-size="10.00">string.h</text>
</a>
</g>
</g>
<!-- Node1&#45;&gt;Node5 -->
<g id="edge4_Node000001_Node000005" class="edge">
<title>Node1&#45;&gt;Node5</title>
<g id="a_edge4_Node000001_Node000005"><a xlink:title=" ">
<path fill="none" stroke="#63b8ff" d="M715.28,-447.13C873.81,-442.76 1348.4,-428.12 1524.09,-403.75"/>
<polygon fill="#63b8ff" stroke="#63b8ff" points="1524.83,-407.18 1534.23,-402.28 1523.83,-400.25 1524.83,-407.18"/>
</a>
</g>
</g>
<!-- Node6 -->
<g id="Node000006" class="node">
<title>Node6</title>
<g id="a_Node000006"><a xlink:href="Except_8h.html" target="_top" xlink:title=" ">
<polygon fill="white" stroke="#666666" points="1269.5,-74 1192.5,-74 1192.5,-55 1269.5,-55 1269.5,-74"/>
<text text-anchor="middle" x="1231" y="-62" font-family="Helvetica,sans-Serif" font-size="10.00">core/Except.h</text>
</a>
</g>
</g>
<!-- Node1&#45;&gt;Node6 -->
<g id="edge5_Node000001_Node000006" class="edge">
<title>Node1&#45;&gt;Node6</title>
<g id="a_edge5_Node000001_Node000006"><a xlink:title=" ">
<path fill="none" stroke="#63b8ff" d="M715.19,-446.76C889.4,-440.25 1440,-413.87 1440,-340.5 1440,-340.5 1440,-340.5 1440,-173.5 1440,-101.73 1341.53,-77.6 1279.77,-69.53"/>
<polygon fill="#63b8ff" stroke="#63b8ff" points="1280.17,-66.05 1269.82,-68.32 1279.33,-73 1280.17,-66.05"/>
</a>
</g>
</g>
<!-- Node8 -->
<g id="Node000008" class="node">
<title>Node8</title>
<g id="a_Node000008"><a xlink:href="SocketHTTP_8h.html" target="_top" xlink:title=" ">
<polygon fill="white" stroke="#666666" points="484,-239 384,-239 384,-220 484,-220 484,-239"/>
<text text-anchor="middle" x="434" y="-227" font-family="Helvetica,sans-Serif" font-size="10.00">http/SocketHTTP.h</text>
</a>
</g>
</g>
<!-- Node1&#45;&gt;Node8 -->
<g id="edge7_Node000001_Node000008" class="edge">
<title>Node1&#45;&gt;Node8</title>
<g id="a_edge7_Node000001_Node000008"><a xlink:title=" ">
<path fill="none" stroke="#63b8ff" d="M615.91,-440C588.48,-433.41 554.24,-422.24 528,-404 476.58,-368.28 463.48,-352.04 440,-294 434.22,-279.71 432.95,-262.18 433,-249.16"/>
<polygon fill="#63b8ff" stroke="#63b8ff" points="436.5,-249.18 433.3,-239.08 429.5,-248.97 436.5,-249.18"/>
</a>
</g>
</g>
<!-- Node14 -->
<g id="Node000014" class="node">
<title>Node14</title>
<g id="a_Node000014"><a xlink:href="SocketHTTPServer_8h.html" target="_top" xlink:title=" ">
<polygon fill="white" stroke="#666666" points="681.5,-404 552.5,-404 552.5,-385 681.5,-385 681.5,-404"/>
<text text-anchor="middle" x="617" y="-392" font-family="Helvetica,sans-Serif" font-size="10.00">http/SocketHTTPServer.h</text>
</a>
</g>
</g>
<!-- Node1&#45;&gt;Node14 -->
<g id="edge16_Node000001_Node000014" class="edge">
<title>Node1&#45;&gt;Node14</title>
<g id="a_edge16_Node000001_Node000014"><a xlink:title=" ">
<path fill="none" stroke="#63b8ff" d="M655.4,-439.75C648.84,-432.18 639.18,-421.05 631.19,-411.84"/>
<polygon fill="#63b8ff" stroke="#63b8ff" points="633.65,-409.35 624.45,-404.09 628.37,-413.94 633.65,-409.35"/>
</a>
</g>
</g>
<!-- Node15 -->
<g id="Node000015" class="node">
<title>Node15</title>
<g id="a_Node000015"><a xlink:href="SocketPoll_8h.html" target="_top" xlink:title=" ">
<polygon fill="white" stroke="#666666" points="1324,-294 1234,-294 1234,-275 1324,-275 1324,-294"/>
<text text-anchor="middle" x="1279" y="-282" font-family="Helvetica,sans-Serif" font-size="10.00">poll/SocketPoll.h</text>
</a>
</g>
</g>
<!-- Node1&#45;&gt;Node15 -->
<g id="edge67_Node000001_Node000015" class="edge">
<title>Node1&#45;&gt;Node15</title>
<g id="a_edge67_Node000001_Node000015"><a xlink:title=" ">
<path fill="none" stroke="#63b8ff" d="M695.25,-439.97C798.46,-412.66 1120.65,-327.4 1236.76,-296.68"/>
<polygon fill="#63b8ff" stroke="#63b8ff" points="1237.93,-299.99 1246.7,-294.05 1236.13,-293.22 1237.93,-299.99"/>
</a>
</g>
</g>
<!-- Node17 -->
<g id="Node000017" class="node">
<title>Node17</title>
<g id="a_Node000017"><a xlink:href="Socket_8h.html" target="_top" xlink:title=" ">
<polygon fill="white" stroke="#666666" points="788,-239 700,-239 700,-220 788,-220 788,-239"/>
<text text-anchor="middle" x="744" y="-227" font-family="Helvetica,sans-Serif" font-size="10.00">socket/Socket.h</text>
</a>
</g>
</g>
<!-- Node1&#45;&gt;Node17 -->
<g id="edge68_Node000001_Node000017" class="edge">
<title>Node1&#45;&gt;Node17</title>
<g id="a_edge68_Node000001_Node000017"><a xlink:title=" ">
<path fill="none" stroke="#63b8ff" d="M669.53,-439.69C675.74,-430.99 685,-417.11 691,-404 715.73,-349.94 732.8,-281.28 740.07,-248.94"/>
<polygon fill="#63b8ff" stroke="#63b8ff" points="743.5,-249.61 742.23,-239.1 736.67,-248.12 743.5,-249.61"/>
</a>
</g>
</g>
<!-- Node37 -->
<g id="Node000037" class="node">
<title>Node37</title>
<g id="a_Node000037"><a xlink:href="SocketWS_8h.html" target="_top" xlink:title=" ">
<polygon fill="white" stroke="#666666" points="568,-294 464,-294 464,-275 568,-275 568,-294"/>
<text text-anchor="middle" x="516" y="-282" font-family="Helvetica,sans-Serif" font-size="10.00">socket/SocketWS.h</text>
</a>
</g>
</g>
<!-- Node1&#45;&gt;Node37 -->
<g id="edge69_Node000001_Node000037" class="edge">
<title>Node1&#45;&gt;Node37</title>
<g id="a_edge69_Node000001_Node000037"><a xlink:title=" ">
<path fill="none" stroke="#63b8ff" d="M610.94,-440.51C587.39,-434.32 561.06,-423.36 544,-404 519.27,-375.95 515.35,-330.08 515.29,-304.41"/>
<polygon fill="#63b8ff" stroke="#63b8ff" points="518.79,-304.24 515.47,-294.18 511.79,-304.11 518.79,-304.24"/>
</a>
</g>
</g>
<!-- Node7 -->
<g id="Node000007" class="node">
<title>Node7</title>
<g id="a_Node000007"><a xlink:title=" ">
<polygon fill="#e0e0e0" stroke="#999999" points="1258,-19 1204,-19 1204,0 1258,0 1258,-19"/>
<text text-anchor="middle" x="1231" y="-7" font-family="Helvetica,sans-Serif" font-size="10.00">setjmp.h</text>
</a>
</g>
</g>
<!-- Node6&#45;&gt;Node7 -->
<g id="edge6_Node000006_Node000007" class="edge">
<title>Node6&#45;&gt;Node7</title>
<g id="a_edge6_Node000006_Node000007"><a xlink:title=" ">
<path fill="none" stroke="#63b8ff" d="M1231,-54.75C1231,-47.8 1231,-37.85 1231,-29.13"/>
<polygon fill="#63b8ff" stroke="#63b8ff" points="1234.5,-29.09 1231,-19.09 1227.5,-29.09 1234.5,-29.09"/>
</a>
</g>
</g>
<!-- Node8&#45;&gt;Node6 -->
<g id="edge15_Node000008_Node000006" class="edge">
<title>Node8&#45;&gt;Node6</title>
<g id="a_edge15_Node000008_Node000006"><a xlink:title=" ">
<path fill="none" stroke="#63b8ff" d="M484.19,-224.24C583.29,-215.69 800.88,-196.22 875,-184 982.55,-166.27 1012.05,-167.57 1114,-129 1148.96,-115.77 1186.44,-93.92 1209.31,-79.61"/>
<polygon fill="#63b8ff" stroke="#63b8ff" points="1211.31,-82.49 1217.88,-74.17 1207.56,-76.57 1211.31,-82.49"/>
</a>
</g>
</g>
<!-- Node9 -->
<g id="Node000009" class="node">
<title>Node9</title>
<g id="a_Node000009"><a xlink:title=" ">
<polygon fill="#e0e0e0" stroke="#999999" points="217,-74 165,-74 165,-55 217,-55 217,-74"/>
<text text-anchor="middle" x="191" y="-62" font-family="Helvetica,sans-Serif" font-size="10.00">stddef.h</text>
</a>
</g>
</g>
<!-- Node8&#45;&gt;Node9 -->
<g id="edge8_Node000008_Node000009" class="edge">
<title>Node8&#45;&gt;Node9</title>
<g id="a_edge8_Node000008_Node000009"><a xlink:title=" ">
<path fill="none" stroke="#63b8ff" d="M386.01,-219.99C334.99,-208.38 255.65,-182.57 211,-129 200.48,-116.37 195.48,-98.18 193.11,-84.51"/>
<polygon fill="#63b8ff" stroke="#63b8ff" points="196.53,-83.71 191.67,-74.3 189.6,-84.69 196.53,-83.71"/>
</a>
</g>
</g>
<!-- Node10 -->
<g id="Node000010" class="node">
<title>Node10</title>
<g id="a_Node000010"><a xlink:title=" ">
<polygon fill="#e0e0e0" stroke="#999999" points="555.5,-184 506.5,-184 506.5,-165 555.5,-165 555.5,-184"/>
<text text-anchor="middle" x="531" y="-172" font-family="Helvetica,sans-Serif" font-size="10.00">stdint.h</text>
</a>
</g>
</g>
<!-- Node8&#45;&gt;Node10 -->
<g id="edge9_Node000008_Node000010" class="edge">
<title>Node8&#45;&gt;Node10</title>
<g id="a_edge9_Node000008_Node000010"><a xlink:title=" ">
<path fill="none" stroke="#63b8ff" d="M449.58,-219.98C464.77,-211.69 488.1,-198.94 505.9,-189.22"/>
<polygon fill="#63b8ff" stroke="#63b8ff" points="508.03,-192.04 515.13,-184.17 504.68,-185.89 508.03,-192.04"/>
</a>
</g>
</g>
<!-- Node11 -->
<g id="Node000011" class="node">
<title>Node11</title>
<g id="a_Node000011"><a xlink:title=" ">
<polygon fill="#e0e0e0" stroke="#999999" points="378,-129 310,-129 310,-110 378,-110 378,-129"/>
<text text-anchor="middle" x="344" y="-117" font-family="Helvetica,sans-Serif" font-size="10.00">sys/types.h</text>
</a>
</g>
</g>
<!-- Node8&#45;&gt;Node11 -->
<g id="edge10_Node000008_Node000011" class="edge">
<title>Node8&#45;&gt;Node11</title>
<g id="a_edge10_Node000008_Node000011"><a xlink:title=" ">
<path fill="none" stroke="#63b8ff" d="M432.48,-219.87C429.83,-206.82 423.31,-181.82 410,-165 399.79,-152.09 384.79,-141.57 371.68,-134"/>
<polygon fill="#63b8ff" stroke="#63b8ff" points="373.01,-130.73 362.55,-129.01 369.65,-136.88 373.01,-130.73"/>
</a>
</g>
</g>
<!-- Node12 -->
<g id="Node000012" class="node">
<title>Node12</title>
<g id="a_Node000012"><a xlink:title=" ">
<polygon fill="#e0e0e0" stroke="#999999" points="368,-184 324,-184 324,-165 368,-165 368,-184"/>
<text text-anchor="middle" x="346" y="-172" font-family="Helvetica,sans-Serif" font-size="10.00">time.h</text>
</a>
</g>
</g>
<!-- Node8&#45;&gt;Node12 -->
<g id="edge11_Node000008_Node000012" class="edge">
<title>Node8&#45;&gt;Node12</title>
<g id="a_edge11_Node000008_Node000012"><a xlink:title=" ">
<path fill="none" stroke="#63b8ff" d="M419.86,-219.98C406.21,-211.77 385.31,-199.18 369.22,-189.49"/>
<polygon fill="#63b8ff" stroke="#63b8ff" points="370.77,-186.33 360.4,-184.17 367.16,-192.33 370.77,-186.33"/>
</a>
</g>
</g>
<!-- Node13 -->
<g id="Node000013" class="node">
<title>Node13</title>
<g id="a_Node000013"><a xlink:href="Arena_8h.html" target="_top" xlink:title=" ">
<polygon fill="white" stroke="#666666" points="292,-129 220,-129 220,-110 292,-110 292,-129"/>
<text text-anchor="middle" x="256" y="-117" font-family="Helvetica,sans-Serif" font-size="10.00">core/Arena.h</text>
</a>
</g>
</g>
<!-- Node8&#45;&gt;Node13 -->
<g id="edge12_Node000008_Node000013" class="edge">
<title>Node8&#45;&gt;Node13</title>
<g id="a_edge12_Node000008_Node000013"><a xlink:title=" ">
<path fill="none" stroke="#63b8ff" d="M428.36,-219.89C419.14,-206.41 399.56,-180.3 377,-165 354.31,-149.61 325.63,-138.76 301.88,-131.63"/>
<polygon fill="#63b8ff" stroke="#63b8ff" points="302.62,-128.2 292.04,-128.8 300.68,-134.93 302.62,-128.2"/>
</a>
</g>
</g>
<!-- Node13&#45;&gt;Node6 -->
<g id="edge14_Node000013_Node000006" class="edge">
<title>Node13&#45;&gt;Node6</title>
<g id="a_edge14_Node000013_Node000006"><a xlink:title=" ">
<path fill="none" stroke="#63b8ff" d="M292.28,-111.2C295.22,-110.74 298.16,-110.33 301,-110 474.09,-89.61 1015.45,-72 1181.85,-66.95"/>
<polygon fill="#63b8ff" stroke="#63b8ff" points="1182.37,-70.44 1192.26,-66.63 1182.16,-63.44 1182.37,-70.44"/>
</a>
</g>
</g>
<!-- Node13&#45;&gt;Node9 -->
<g id="edge13_Node000013_Node000009" class="edge">
<title>Node13&#45;&gt;Node9</title>
<g id="a_edge13_Node000013_Node000009"><a xlink:title=" ">
<path fill="none" stroke="#63b8ff" d="M245.56,-109.98C235.85,-102.07 221.18,-90.11 209.5,-80.58"/>
<polygon fill="#63b8ff" stroke="#63b8ff" points="211.6,-77.78 201.63,-74.17 207.17,-83.2 211.6,-77.78"/>
</a>
</g>
</g>
<!-- Node14&#45;&gt;Node6 -->
<g id="edge21_Node000014_Node000006" class="edge">
<title>Node14&#45;&gt;Node6</title>
<g id="a_edge21_Node000014_Node000006"><a xlink:title=" ">
<path fill="none" stroke="#63b8ff" d="M681.57,-391.38C869.35,-384.35 1402,-358.02 1402,-285.5 1402,-285.5 1402,-285.5 1402,-173.5 1402,-115.23 1330.15,-87.13 1279.6,-74.56"/>
<polygon fill="#63b8ff" stroke="#63b8ff" points="1280.34,-71.14 1269.8,-72.25 1278.73,-77.95 1280.34,-71.14"/>
</a>
</g>
</g>
<!-- Node14&#45;&gt;Node8 -->
<g id="edge22_Node000014_Node000008" class="edge">
<title>Node14&#45;&gt;Node8</title>
<g id="a_edge22_Node000014_Node000008"><a xlink:title=" ">
<path fill="none" stroke="#63b8ff" d="M592.98,-384.94C557.71,-371.18 492.08,-340.84 455,-294 444.75,-281.06 439.41,-262.9 436.68,-249.32"/>
<polygon fill="#63b8ff" stroke="#63b8ff" points="440.09,-248.47 434.96,-239.2 433.19,-249.64 440.09,-248.47"/>
</a>
</g>
</g>
<!-- Node14&#45;&gt;Node9 -->
<g id="edge17_Node000014_Node000009" class="edge">
<title>Node14&#45;&gt;Node9</title>
<g id="a_edge17_Node000014_Node000009"><a xlink:title=" ">
<path fill="none" stroke="#63b8ff" d="M552.23,-390.89C490.7,-386.78 396.35,-376.21 319,-349 220.45,-314.33 116,-334.97 116,-230.5 116,-230.5 116,-230.5 116,-173.5 116,-134.64 149.17,-99.7 171.39,-80.65"/>
<polygon fill="#63b8ff" stroke="#63b8ff" points="173.79,-83.22 179.28,-74.16 169.34,-77.81 173.79,-83.22"/>
</a>
</g>
</g>
<!-- Node14&#45;&gt;Node10 -->
<g id="edge18_Node000014_Node000010" class="edge">
<title>Node14&#45;&gt;Node10</title>
<g id="a_edge18_Node000014_Node000010"><a xlink:title=" ">
<path fill="none" stroke="#63b8ff" d="M614.4,-384.76C608.45,-364.98 593.08,-315.34 577,-275 565.36,-245.79 549.59,-212.85 539.86,-193.15"/>
<polygon fill="#63b8ff" stroke="#63b8ff" points="542.97,-191.54 535.38,-184.15 536.7,-194.66 542.97,-191.54"/>
</a>
</g>
</g>
<!-- Node14&#45;&gt;Node11 -->
<g id="edge19_Node000014_Node000011" class="edge">
<title>Node14&#45;&gt;Node11</title>
<g id="a_edge19_Node000014_Node000011"><a xlink:title=" ">
<path fill="none" stroke="#63b8ff" d="M619.29,-384.89C623.93,-366.69 634,-322.89 634,-285.5 634,-285.5 634,-285.5 634,-228.5 634,-186.82 602.13,-183.92 565,-165 563.01,-163.99 451.85,-141.86 387.96,-129.2"/>
<polygon fill="#63b8ff" stroke="#63b8ff" points="388.63,-125.76 378.14,-127.25 387.27,-132.63 388.63,-125.76"/>
</a>
</g>
</g>
<!-- Node14&#45;&gt;Node13 -->
<g id="edge20_Node000014_Node000013" class="edge">
<title>Node14&#45;&gt;Node13</title>
<g id="a_edge20_Node000014_Node000013"><a xlink:title=" ">
<path fill="none" stroke="#63b8ff" d="M567.99,-384.98C463.85,-366.21 230,-320.2 230,-285.5 230,-285.5 230,-285.5 230,-228.5 230,-196.15 241.17,-159.82 248.86,-138.62"/>
<polygon fill="#63b8ff" stroke="#63b8ff" points="252.23,-139.6 252.49,-129.01 245.68,-137.13 252.23,-139.6"/>
</a>
</g>
</g>
<!-- Node14&#45;&gt;Node15 -->
<g id="edge23_Node000014_Node000015" class="edge">
<title>Node14&#45;&gt;Node15</title>
<g id="a_edge23_Node000014_Node000015"><a xlink:title=" ">
<path fill="none" stroke="#63b8ff" d="M679.09,-384.97C740.59,-376.39 837.41,-362.53 921,-349 1028.5,-331.6 1153.69,-308.82 1223.91,-295.8"/>
<polygon fill="#63b8ff" stroke="#63b8ff" points="1224.67,-299.22 1233.86,-293.96 1223.39,-292.34 1224.67,-299.22"/>
</a>
</g>
</g>
<!-- Node14&#45;&gt;Node17 -->
<g id="edge58_Node000014_Node000017" class="edge">
<title>Node14&#45;&gt;Node17</title>
<g id="a_edge58_Node000014_Node000017"><a xlink:title=" ">
<path fill="none" stroke="#63b8ff" d="M623.26,-384.69C629.59,-375.76 639.59,-361.5 648,-349 669.87,-316.47 670.77,-305 696,-275 704.94,-264.37 716.28,-253.75 725.7,-245.55"/>
<polygon fill="#63b8ff" stroke="#63b8ff" points="728.01,-248.18 733.36,-239.03 723.48,-242.84 728.01,-248.18"/>
</a>
</g>
</g>
<!-- Node33 -->
<g id="Node000033" class="node">
<title>Node33</title>
<g id="a_Node000033"><a xlink:href="SocketTLSContext_8h.html" target="_top" xlink:title=" ">
<polygon fill="white" stroke="#666666" points="912,-349 790,-349 790,-330 912,-330 912,-349"/>
<text text-anchor="middle" x="851" y="-337" font-family="Helvetica,sans-Serif" font-size="10.00">tls/SocketTLSContext.h</text>
</a>
</g>
</g>
<!-- Node14&#45;&gt;Node33 -->
<g id="edge59_Node000014_Node000033" class="edge">
<title>Node14&#45;&gt;Node33</title>
<g id="a_edge59_Node000014_Node000033"><a xlink:title=" ">
<path fill="none" stroke="#63b8ff" d="M654.6,-384.98C694.99,-375.84 759.28,-361.27 803.23,-351.32"/>
<polygon fill="#63b8ff" stroke="#63b8ff" points="804.13,-354.7 813.11,-349.08 802.58,-347.88 804.13,-354.7"/>
</a>
</g>
</g>
<!-- Node15&#45;&gt;Node6 -->
<g id="edge24_Node000015_Node000006" class="edge">
<title>Node15&#45;&gt;Node6</title>
<g id="a_edge24_Node000015_Node000006"><a xlink:title=" ">
<path fill="none" stroke="#63b8ff" d="M1301.78,-274.89C1317.03,-267.79 1335.92,-256.08 1345,-239 1348.97,-231.54 1345.98,-228.39 1345,-220 1339.18,-170.1 1350.09,-149.46 1319,-110 1307.22,-95.05 1289.07,-84.69 1272.31,-77.76"/>
<polygon fill="#63b8ff" stroke="#63b8ff" points="1273.25,-74.37 1262.66,-74.06 1270.75,-80.91 1273.25,-74.37"/>
</a>
</g>
</g>
<!-- Node16 -->
<g id="Node000016" class="node">
<title>Node16</title>
<g id="a_Node000016"><a xlink:href="SocketTimer_8h.html" target="_top" xlink:title=" ">
<polygon fill="white" stroke="#666666" points="1335.5,-239 1234.5,-239 1234.5,-220 1335.5,-220 1335.5,-239"/>
<text text-anchor="middle" x="1285" y="-227" font-family="Helvetica,sans-Serif" font-size="10.00">core/SocketTimer.h</text>
</a>
</g>
</g>
<!-- Node15&#45;&gt;Node16 -->
<g id="edge25_Node000015_Node000016" class="edge">
<title>Node15&#45;&gt;Node16</title>
<g id="a_edge25_Node000015_Node000016"><a xlink:title=" ">
<path fill="none" stroke="#63b8ff" d="M1279.99,-274.75C1280.78,-267.8 1281.9,-257.85 1282.89,-249.13"/>
<polygon fill="#63b8ff" stroke="#63b8ff" points="1286.38,-249.42 1284.03,-239.09 1279.42,-248.63 1286.38,-249.42"/>
</a>
</g>
</g>
<!-- Node15&#45;&gt;Node17 -->
<g id="edge28_Node000015_Node000017" class="edge">
<title>Node15&#45;&gt;Node17</title>
<g id="a_edge28_Node000015_Node000017"><a xlink:title=" ">
<path fill="none" stroke="#63b8ff" d="M1233.85,-279.03C1135.84,-269.32 903.95,-246.35 798.22,-235.87"/>
<polygon fill="#63b8ff" stroke="#63b8ff" points="798.39,-232.37 788.09,-234.87 797.7,-239.34 798.39,-232.37"/>
</a>
</g>
</g>
<!-- Node16&#45;&gt;Node6 -->
<g id="edge26_Node000016_Node000006" class="edge">
<title>Node16&#45;&gt;Node6</title>
<g id="a_edge26_Node000016_Node000006"><a xlink:title=" ">
<path fill="none" stroke="#63b8ff" d="M1289.66,-219.81C1299.99,-199.28 1322.33,-146.73 1302,-110 1294.16,-95.83 1279.71,-85.57 1265.89,-78.5"/>
<polygon fill="#63b8ff" stroke="#63b8ff" points="1267.05,-75.18 1256.51,-74.1 1264.08,-81.52 1267.05,-75.18"/>
</a>
</g>
</g>
<!-- Node16&#45;&gt;Node10 -->
<g id="edge27_Node000016_Node000010" class="edge">
<title>Node16&#45;&gt;Node10</title>
<g id="a_edge27_Node000016_Node000010"><a xlink:title=" ">
<path fill="none" stroke="#63b8ff" d="M1234.36,-224.94C1091.41,-214.89 687.31,-186.49 565.91,-177.95"/>
<polygon fill="#63b8ff" stroke="#63b8ff" points="565.93,-174.45 555.71,-177.24 565.44,-181.43 565.93,-174.45"/>
</a>
</g>
</g>
<!-- Node17&#45;&gt;Node6 -->
<g id="edge29_Node000017_Node000006" class="edge">
<title>Node17&#45;&gt;Node6</title>
<g id="a_edge29_Node000017_Node000006"><a xlink:title=" ">
<path fill="none" stroke="#63b8ff" d="M788.05,-226.72C894.03,-222.08 1156.86,-208.23 1188,-184 1219.13,-159.77 1227.74,-110.92 1230.11,-84.12"/>
<polygon fill="#63b8ff" stroke="#63b8ff" points="1233.6,-84.34 1230.79,-74.13 1226.62,-83.87 1233.6,-84.34"/>
</a>
</g>
</g>
<!-- Node18 -->
<g id="Node000018" class="node">
<title>Node18</title>
<g id="a_Node000018"><a xlink:href="SocketConfig_8h.html" target="_top" xlink:title=" ">
<polygon fill="white" stroke="#666666" points="502,-129 396,-129 396,-110 502,-110 502,-129"/>
<text text-anchor="middle" x="449" y="-117" font-family="Helvetica,sans-Serif" font-size="10.00">core/SocketConfig.h</text>
</a>
</g>
</g>
<!-- Node17&#45;&gt;Node18 -->
<g id="edge30_Node000017_Node000018" class="edge">
<title>Node17&#45;&gt;Node18</title>
<g id="a_edge30_Node000017_Node000018"><a xlink:title=" ">
<path fill="none" stroke="#63b8ff" d="M733.79,-219.9C717,-206.19 682.02,-179.47 648,-165 604.45,-146.48 552.13,-135.16 512.06,-128.58"/>
<polygon fill="#63b8ff" stroke="#63b8ff" points="512.58,-125.12 502.15,-127.01 511.48,-132.03 512.58,-125.12"/>
</a>
</g>
</g>
<!-- Node26 -->
<g id="Node000026" class="node">
<title>Node26</title>
<g id="a_Node000026"><a xlink:href="SocketDNS_8h.html" target="_top" xlink:title=" ">
<polygon fill="white" stroke="#666666" points="654,-129 558,-129 558,-110 654,-110 654,-129"/>
<text text-anchor="middle" x="606" y="-117" font-family="Helvetica,sans-Serif" font-size="10.00">dns/SocketDNS.h</text>
</a>
</g>
</g>
<!-- Node17&#45;&gt;Node26 -->
<g id="edge40_Node000017_Node000026" class="edge">
<title>Node17&#45;&gt;Node26</title>
<g id="a_edge40_Node000017_Node000026"><a xlink:title=" ">
<path fill="none" stroke="#63b8ff" d="M737.61,-219.88C727.64,-206.84 707.31,-181.86 686,-165 670.31,-152.59 650.71,-141.63 634.83,-133.69"/>
<polygon fill="#63b8ff" stroke="#63b8ff" points="636.02,-130.37 625.5,-129.15 632.96,-136.67 636.02,-130.37"/>
</a>
</g>
</g>
<!-- Node28 -->
<g id="Node000028" class="node">
<title>Node28</title>
<g id="a_Node000028"><a xlink:href="SocketCommon_8h.html" target="_top" xlink:title=" ">
<polygon fill="white" stroke="#666666" points="866,-184 738,-184 738,-165 866,-165 866,-184"/>
<text text-anchor="middle" x="802" y="-172" font-family="Helvetica,sans-Serif" font-size="10.00">socket/SocketCommon.h</text>
</a>
</g>
</g>
<!-- Node17&#45;&gt;Node28 -->
<g id="edge45_Node000017_Node000028" class="edge">
<title>Node17&#45;&gt;Node28</title>
<g id="a_edge45_Node000017_Node000028"><a xlink:title=" ">
<path fill="none" stroke="#63b8ff" d="M753.32,-219.98C761.81,-212.23 774.56,-200.58 784.88,-191.14"/>
<polygon fill="#63b8ff" stroke="#63b8ff" points="787.49,-193.5 792.51,-184.17 782.77,-188.33 787.49,-193.5"/>
</a>
</g>
</g>
<!-- Node18&#45;&gt;Node3 -->
<g id="edge36_Node000018_Node000003" class="edge">
<title>Node18&#45;&gt;Node3</title>
<g id="a_edge36_Node000018_Node000003"><a xlink:title=" ">
<path fill="none" stroke="#63b8ff" d="M395.8,-110.46C337.08,-101.58 239.79,-86.84 156,-74 148.86,-72.91 141.2,-71.73 133.93,-70.6"/>
<polygon fill="#63b8ff" stroke="#63b8ff" points="134.43,-67.14 124.01,-69.07 133.36,-74.06 134.43,-67.14"/>
</a>
</g>
</g>
<!-- Node18&#45;&gt;Node9 -->
<g id="edge35_Node000018_Node000009" class="edge">
<title>Node18&#45;&gt;Node9</title>
<g id="a_edge35_Node000018_Node000009"><a xlink:title=" ">
<path fill="none" stroke="#63b8ff" d="M404.26,-110C361.46,-101.76 294.86,-88.67 227.3,-74"/>
<polygon fill="#63b8ff" stroke="#63b8ff" points="227.84,-70.54 217.32,-71.82 226.35,-77.37 227.84,-70.54"/>
</a>
</g>
</g>
<!-- Node19 -->
<g id="Node000019" class="node">
<title>Node19</title>
<g id="a_Node000019"><a xlink:title=" ">
<polygon fill="#e0e0e0" stroke="#999999" points="515.5,-74 468.5,-74 468.5,-55 515.5,-55 515.5,-74"/>
<text text-anchor="middle" x="492" y="-62" font-family="Helvetica,sans-Serif" font-size="10.00">errno.h</text>
</a>
</g>
</g>
<!-- Node18&#45;&gt;Node19 -->
<g id="edge31_Node000018_Node000019" class="edge">
<title>Node18&#45;&gt;Node19</title>
<g id="a_edge31_Node000018_Node000019"><a xlink:title=" ">
<path fill="none" stroke="#63b8ff" d="M456.1,-109.75C462.17,-102.26 471.09,-91.28 478.51,-82.13"/>
<polygon fill="#63b8ff" stroke="#63b8ff" points="481.45,-84.06 485.03,-74.09 476.01,-79.65 481.45,-84.06"/>
</a>
</g>
</g>
<!-- Node20 -->
<g id="Node000020" class="node">
<title>Node20</title>
<g id="a_Node000020"><a xlink:title=" ">
<polygon fill="#e0e0e0" stroke="#999999" points="578,-74 534,-74 534,-55 578,-55 578,-74"/>
<text text-anchor="middle" x="556" y="-62" font-family="Helvetica,sans-Serif" font-size="10.00">fcntl.h</text>
</a>
</g>
</g>
<!-- Node18&#45;&gt;Node20 -->
<g id="edge32_Node000018_Node000020" class="edge">
<title>Node18&#45;&gt;Node20</title>
<g id="a_edge32_Node000018_Node000020"><a xlink:title=" ">
<path fill="none" stroke="#63b8ff" d="M466.19,-109.98C483.25,-101.54 509.63,-88.47 529.4,-78.68"/>
<polygon fill="#63b8ff" stroke="#63b8ff" points="531.09,-81.75 538.5,-74.17 527.98,-75.47 531.09,-81.75"/>
</a>
</g>
</g>
<!-- Node21 -->
<g id="Node000021" class="node">
<title>Node21</title>
<g id="a_Node000021"><a xlink:title=" ">
<polygon fill="#e0e0e0" stroke="#999999" points="752.5,-74 687.5,-74 687.5,-55 752.5,-55 752.5,-74"/>
<text text-anchor="middle" x="720" y="-62" font-family="Helvetica,sans-Serif" font-size="10.00">netinet/in.h</text>
</a>
</g>
</g>
<!-- Node18&#45;&gt;Node21 -->
<g id="edge33_Node000018_Node000021" class="edge">
<title>Node18&#45;&gt;Node21</title>
<g id="a_edge33_Node000018_Node000021"><a xlink:title=" ">
<path fill="none" stroke="#63b8ff" d="M493.99,-109.98C538.2,-101.56 607.88,-88.19 677.12,-74.36"/>
<polygon fill="#63b8ff" stroke="#63b8ff" points="678.22,-77.71 687.33,-72.31 676.84,-70.84 678.22,-77.71"/>
</a>
</g>
</g>
<!-- Node22 -->
<g id="Node000022" class="node">
<title>Node22</title>
<g id="a_Node000022"><a xlink:title=" ">
<polygon fill="#e0e0e0" stroke="#999999" points="306.5,-74 235.5,-74 235.5,-55 306.5,-55 306.5,-74"/>
<text text-anchor="middle" x="271" y="-62" font-family="Helvetica,sans-Serif" font-size="10.00">netinet/tcp.h</text>
</a>
</g>
</g>
<!-- Node18&#45;&gt;Node22 -->
<g id="edge34_Node000018_Node000022" class="edge">
<title>Node18&#45;&gt;Node22</title>
<g id="a_edge34_Node000018_Node000022"><a xlink:title=" ">
<path fill="none" stroke="#63b8ff" d="M420.4,-109.98C390.39,-101.05 343.02,-86.94 309.68,-77.02"/>
<polygon fill="#63b8ff" stroke="#63b8ff" points="310.41,-73.58 299.82,-74.08 308.41,-80.29 310.41,-73.58"/>
</a>
</g>
</g>
<!-- Node23 -->
<g id="Node000023" class="node">
<title>Node23</title>
<g id="a_Node000023"><a xlink:title=" ">
<polygon fill="#e0e0e0" stroke="#999999" points="669.5,-74 596.5,-74 596.5,-55 669.5,-55 669.5,-74"/>
<text text-anchor="middle" x="633" y="-62" font-family="Helvetica,sans-Serif" font-size="10.00">sys/socket.h</text>
</a>
</g>
</g>
<!-- Node18&#45;&gt;Node23 -->
<g id="edge37_Node000018_Node000023" class="edge">
<title>Node18&#45;&gt;Node23</title>
<g id="a_edge37_Node000018_Node000023"><a xlink:title=" ">
<path fill="none" stroke="#63b8ff" d="M478.56,-109.98C509.72,-101.01 558.97,-86.82 593.46,-76.89"/>
<polygon fill="#63b8ff" stroke="#63b8ff" points="594.57,-80.21 603.21,-74.08 592.63,-73.49 594.57,-80.21"/>
</a>
</g>
</g>
<!-- Node24 -->
<g id="Node000024" class="node">
<title>Node24</title>
<g id="a_Node000024"><a xlink:title=" ">
<polygon fill="#e0e0e0" stroke="#999999" points="381,-74 325,-74 325,-55 381,-55 381,-74"/>
<text text-anchor="middle" x="353" y="-62" font-family="Helvetica,sans-Serif" font-size="10.00">sys/uio.h</text>
</a>
</g>
</g>
<!-- Node18&#45;&gt;Node24 -->
<g id="edge38_Node000018_Node000024" class="edge">
<title>Node18&#45;&gt;Node24</title>
<g id="a_edge38_Node000018_Node000024"><a xlink:title=" ">
<path fill="none" stroke="#63b8ff" d="M433.58,-109.98C418.55,-101.69 395.46,-88.94 377.84,-79.22"/>
<polygon fill="#63b8ff" stroke="#63b8ff" points="379.15,-75.94 368.7,-74.17 375.77,-82.07 379.15,-75.94"/>
</a>
</g>
</g>
<!-- Node25 -->
<g id="Node000025" class="node">
<title>Node25</title>
<g id="a_Node000025"><a xlink:title=" ">
<polygon fill="#e0e0e0" stroke="#999999" points="450.5,-74 399.5,-74 399.5,-55 450.5,-55 450.5,-74"/>
<text text-anchor="middle" x="425" y="-62" font-family="Helvetica,sans-Serif" font-size="10.00">unistd.h</text>
</a>
</g>
</g>
<!-- Node18&#45;&gt;Node25 -->
<g id="edge39_Node000018_Node000025" class="edge">
<title>Node18&#45;&gt;Node25</title>
<g id="a_edge39_Node000018_Node000025"><a xlink:title=" ">
<path fill="none" stroke="#63b8ff" d="M445.04,-109.75C441.79,-102.57 437.08,-92.18 433.05,-83.27"/>
<polygon fill="#63b8ff" stroke="#63b8ff" points="436.2,-81.75 428.89,-74.09 429.83,-84.64 436.2,-81.75"/>
</a>
</g>
</g>
<!-- Node26&#45;&gt;Node6 -->
<g id="edge41_Node000026_Node000006" class="edge">
<title>Node26&#45;&gt;Node6</title>
<g id="a_edge41_Node000026_Node000006"><a xlink:title=" ">
<path fill="none" stroke="#63b8ff" d="M654,-114.43C770.13,-104.58 1065.22,-79.56 1182.18,-69.64"/>
<polygon fill="#63b8ff" stroke="#63b8ff" points="1182.6,-73.12 1192.27,-68.78 1182.01,-66.14 1182.6,-73.12"/>
</a>
</g>
</g>
<!-- Node26&#45;&gt;Node9 -->
<g id="edge43_Node000026_Node000009" class="edge">
<title>Node26&#45;&gt;Node9</title>
<g id="a_edge43_Node000026_Node000009"><a xlink:title=" ">
<path fill="none" stroke="#63b8ff" d="M557.84,-113.54C474.31,-104.84 304.86,-86.66 227.17,-73.77"/>
<polygon fill="#63b8ff" stroke="#63b8ff" points="227.72,-70.32 217.27,-72.07 226.54,-77.22 227.72,-70.32"/>
</a>
</g>
</g>
<!-- Node26&#45;&gt;Node23 -->
<g id="edge44_Node000026_Node000023" class="edge">
<title>Node26&#45;&gt;Node23</title>
<g id="a_edge44_Node000026_Node000023"><a xlink:title=" ">
<path fill="none" stroke="#63b8ff" d="M610.46,-109.75C614.12,-102.57 619.41,-92.18 623.95,-83.27"/>
<polygon fill="#63b8ff" stroke="#63b8ff" points="627.2,-84.59 628.62,-74.09 620.97,-81.41 627.2,-84.59"/>
</a>
</g>
</g>
<!-- Node27 -->
<g id="Node000027" class="node">
<title>Node27</title>
<g id="a_Node000027"><a xlink:title=" ">
<polygon fill="#e0e0e0" stroke="#999999" points="837.5,-74 788.5,-74 788.5,-55 837.5,-55 837.5,-74"/>
<text text-anchor="middle" x="813" y="-62" font-family="Helvetica,sans-Serif" font-size="10.00">netdb.h</text>
</a>
</g>
</g>
<!-- Node26&#45;&gt;Node27 -->
<g id="edge42_Node000026_Node000027" class="edge">
<title>Node26&#45;&gt;Node27</title>
<g id="a_edge42_Node000026_Node000027"><a xlink:title=" ">
<path fill="none" stroke="#63b8ff" d="M639.26,-109.98C677.45,-100.21 739.79,-84.25 778.49,-74.34"/>
<polygon fill="#63b8ff" stroke="#63b8ff" points="779.45,-77.7 788.27,-71.83 777.71,-70.92 779.45,-77.7"/>
</a>
</g>
</g>
<!-- Node28&#45;&gt;Node6 -->
<g id="edge56_Node000028_Node000006" class="edge">
<title>Node28&#45;&gt;Node6</title>
<g id="a_edge56_Node000028_Node000006"><a xlink:title=" ">
<path fill="none" stroke="#63b8ff" d="M866.02,-167.92C922.83,-161.87 1007.66,-150.11 1079,-129 1099.04,-123.07 1102.77,-118.17 1122,-110 1148.26,-98.84 1178.3,-86.62 1200.18,-77.81"/>
<polygon fill="#63b8ff" stroke="#63b8ff" points="1201.65,-80.99 1209.62,-74.02 1199.04,-74.5 1201.65,-80.99"/>
</a>
</g>
</g>
<!-- Node28&#45;&gt;Node11 -->
<g id="edge53_Node000028_Node000011" class="edge">
<title>Node28&#45;&gt;Node11</title>
<g id="a_edge53_Node000028_Node000011"><a xlink:title=" ">
<path fill="none" stroke="#63b8ff" d="M737.79,-168.39C658.12,-161.65 517.92,-148.49 388.33,-129.08"/>
<polygon fill="#63b8ff" stroke="#63b8ff" points="388.63,-125.58 378.22,-127.55 387.58,-132.51 388.63,-125.58"/>
</a>
</g>
</g>
<!-- Node28&#45;&gt;Node13 -->
<g id="edge55_Node000028_Node000013" class="edge">
<title>Node28&#45;&gt;Node13</title>
<g id="a_edge55_Node000028_Node000013"><a xlink:title=" ">
<path fill="none" stroke="#63b8ff" d="M737.71,-169.81C644.11,-164 464.68,-151.17 302.46,-129.07"/>
<polygon fill="#63b8ff" stroke="#63b8ff" points="302.68,-125.57 292.3,-127.67 301.73,-132.5 302.68,-125.57"/>
</a>
</g>
</g>
<!-- Node28&#45;&gt;Node18 -->
<g id="edge57_Node000028_Node000018" class="edge">
<title>Node28&#45;&gt;Node18</title>
<g id="a_edge57_Node000028_Node000018"><a xlink:title=" ">
<path fill="none" stroke="#63b8ff" d="M745.28,-164.98C681.52,-155.41 578.25,-139.91 512.01,-129.96"/>
<polygon fill="#63b8ff" stroke="#63b8ff" points="512.52,-126.5 502.11,-128.47 511.48,-133.42 512.52,-126.5"/>
</a>
</g>
</g>
<!-- Node28&#45;&gt;Node20 -->
<g id="edge48_Node000028_Node000020" class="edge">
<title>Node28&#45;&gt;Node20</title>
<g id="a_edge48_Node000028_Node000020"><a xlink:title=" ">
<path fill="none" stroke="#63b8ff" d="M737.77,-166.5C666.86,-158.12 561.08,-143.39 549,-129 538.54,-116.54 542.36,-97.53 547.53,-83.55"/>
<polygon fill="#63b8ff" stroke="#63b8ff" points="550.88,-84.61 551.54,-74.03 544.43,-81.89 550.88,-84.61"/>
</a>
</g>
</g>
<!-- Node28&#45;&gt;Node21 -->
<g id="edge50_Node000028_Node000021" class="edge">
<title>Node28&#45;&gt;Node21</title>
<g id="a_edge50_Node000028_Node000021"><a xlink:title=" ">
<path fill="none" stroke="#63b8ff" d="M783.71,-164.86C769.56,-157.28 750.49,-144.98 739,-129 729.45,-115.71 724.65,-97.6 722.26,-84.12"/>
<polygon fill="#63b8ff" stroke="#63b8ff" points="725.71,-83.47 720.78,-74.09 718.78,-84.49 725.71,-83.47"/>
</a>
</g>
</g>
<!-- Node28&#45;&gt;Node23 -->
<g id="edge51_Node000028_Node000023" class="edge">
<title>Node28&#45;&gt;Node23</title>
<g id="a_edge51_Node000028_Node000023"><a xlink:title=" ">
<path fill="none" stroke="#63b8ff" d="M786.44,-164.99C770.74,-156.29 745.88,-142.21 725,-129 699.63,-112.95 671.33,-93.11 652.9,-79.92"/>
<polygon fill="#63b8ff" stroke="#63b8ff" points="654.87,-77.03 644.71,-74.03 650.78,-82.71 654.87,-77.03"/>
</a>
</g>
</g>
<!-- Node28&#45;&gt;Node27 -->
<g id="edge49_Node000028_Node000027" class="edge">
<title>Node28&#45;&gt;Node27</title>
<g id="a_edge49_Node000028_Node000027"><a xlink:title=" ">
<path fill="none" stroke="#63b8ff" d="M804.23,-164.7C806.39,-155.78 809.55,-141.53 811,-129 812.73,-114.07 813.19,-97.04 813.23,-84.38"/>
<polygon fill="#63b8ff" stroke="#63b8ff" points="816.73,-84.14 813.19,-74.16 809.73,-84.18 816.73,-84.14"/>
</a>
</g>
</g>
<!-- Node29 -->
<g id="Node000029" class="node">
<title>Node29</title>
<g id="a_Node000029"><a xlink:title=" ">
<polygon fill="#e0e0e0" stroke="#999999" points="914,-129 858,-129 858,-110 914,-110 914,-129"/>
<text text-anchor="middle" x="886" y="-117" font-family="Helvetica,sans-Serif" font-size="10.00">stdbool.h</text>
</a>
</g>
</g>
<!-- Node28&#45;&gt;Node29 -->
<g id="edge46_Node000028_Node000029" class="edge">
<title>Node28&#45;&gt;Node29</title>
<g id="a_edge46_Node000028_Node000029"><a xlink:title=" ">
<path fill="none" stroke="#63b8ff" d="M815.5,-164.98C828.4,-156.84 848.1,-144.41 863.4,-134.76"/>
<polygon fill="#63b8ff" stroke="#63b8ff" points="865.67,-137.47 872.26,-129.17 861.93,-131.55 865.67,-137.47"/>
</a>
</g>
</g>
<!-- Node30 -->
<g id="Node000030" class="node">
<title>Node30</title>
<g id="a_Node000030"><a xlink:title=" ">
<polygon fill="#e0e0e0" stroke="#999999" points="989.5,-129 932.5,-129 932.5,-110 989.5,-110 989.5,-129"/>
<text text-anchor="middle" x="961" y="-117" font-family="Helvetica,sans-Serif" font-size="10.00">pthread.h</text>
</a>
</g>
</g>
<!-- Node28&#45;&gt;Node30 -->
<g id="edge47_Node000028_Node000030" class="edge">
<title>Node28&#45;&gt;Node30</title>
<g id="a_edge47_Node000028_Node000030"><a xlink:title=" ">
<path fill="none" stroke="#63b8ff" d="M827.55,-164.98C854.12,-156.13 895.94,-142.19 925.67,-132.28"/>
<polygon fill="#63b8ff" stroke="#63b8ff" points="926.87,-135.56 935.25,-129.08 924.66,-128.92 926.87,-135.56"/>
</a>
</g>
</g>
<!-- Node31 -->
<g id="Node000031" class="node">
<title>Node31</title>
<g id="a_Node000031"><a xlink:title=" ">
<polygon fill="#e0e0e0" stroke="#999999" points="1070,-129 1008,-129 1008,-110 1070,-110 1070,-129"/>
<text text-anchor="middle" x="1039" y="-117" font-family="Helvetica,sans-Serif" font-size="10.00">sys/time.h</text>
</a>
</g>
</g>
<!-- Node28&#45;&gt;Node31 -->
<g id="edge52_Node000028_Node000031" class="edge">
<title>Node28&#45;&gt;Node31</title>
<g id="a_edge52_Node000028_Node000031"><a xlink:title=" ">
<path fill="none" stroke="#63b8ff" d="M840.08,-164.98C883.29,-155.32 953.53,-139.61 997.94,-129.68"/>
<polygon fill="#63b8ff" stroke="#63b8ff" points="998.83,-133.07 1007.83,-127.47 997.3,-126.24 998.83,-133.07"/>
</a>
</g>
</g>
<!-- Node32 -->
<g id="Node000032" class="node">
<title>Node32</title>
<g id="a_Node000032"><a xlink:title=" ">
<polygon fill="#e0e0e0" stroke="#999999" points="802,-129 748,-129 748,-110 802,-110 802,-129"/>
<text text-anchor="middle" x="775" y="-117" font-family="Helvetica,sans-Serif" font-size="10.00">sys/un.h</text>
</a>
</g>
</g>
<!-- Node28&#45;&gt;Node32 -->
<g id="edge54_Node000028_Node000032" class="edge">
<title>Node28&#45;&gt;Node32</title>
<g id="a_edge54_Node000028_Node000032"><a xlink:title=" ">
<path fill="none" stroke="#63b8ff" d="M797.54,-164.75C793.88,-157.57 788.59,-147.18 784.05,-138.27"/>
<polygon fill="#63b8ff" stroke="#63b8ff" points="787.03,-136.41 779.38,-129.09 780.8,-139.59 787.03,-136.41"/>
</a>
</g>
</g>
<!-- Node33&#45;&gt;Node6 -->
<g id="edge61_Node000033_Node000006" class="edge">
<title>Node33&#45;&gt;Node6</title>
<g id="a_edge61_Node000033_Node000006"><a xlink:title=" ">
<path fill="none" stroke="#63b8ff" d="M911.73,-329.97C969.83,-321.25 1052.95,-307.16 1083,-294 1158.4,-260.98 1183.8,-250.73 1232,-184 1251.82,-156.56 1256.78,-143.16 1250,-110 1248.11,-100.74 1244.21,-91.03 1240.43,-83.04"/>
<polygon fill="#63b8ff" stroke="#63b8ff" points="1243.51,-81.37 1235.88,-74.02 1237.26,-84.53 1243.51,-81.37"/>
</a>
</g>
</g>
<!-- Node33&#45;&gt;Node13 -->
<g id="edge60_Node000033_Node000013" class="edge">
<title>Node33&#45;&gt;Node13</title>
<g id="a_edge60_Node000033_Node000013"><a xlink:title=" ">
<path fill="none" stroke="#63b8ff" d="M834.27,-329.99C817.36,-321.29 790.58,-307.2 768,-294 675.72,-240.04 665.39,-201.74 565,-165 456.83,-125.42 419.91,-146.75 302.42,-129.11"/>
<polygon fill="#63b8ff" stroke="#63b8ff" points="302.74,-125.62 292.32,-127.53 301.66,-132.53 302.74,-125.62"/>
</a>
</g>
</g>
<!-- Node34 -->
<g id="Node000034" class="node">
<title>Node34</title>
<g id="a_Node000034"><a xlink:href="SocketTLS_8h.html" target="_top" xlink:title=" ">
<polygon fill="white" stroke="#666666" points="863.5,-294 776.5,-294 776.5,-275 863.5,-275 863.5,-294"/>
<text text-anchor="middle" x="820" y="-282" font-family="Helvetica,sans-Serif" font-size="10.00">tls/SocketTLS.h</text>
</a>
</g>
</g>
<!-- Node33&#45;&gt;Node34 -->
<g id="edge62_Node000033_Node000034" class="edge">
<title>Node33&#45;&gt;Node34</title>
<g id="a_edge62_Node000033_Node000034"><a xlink:title=" ">
<path fill="none" stroke="#63b8ff" d="M845.88,-329.75C841.64,-322.49 835.47,-311.95 830.22,-302.98"/>
<polygon fill="#63b8ff" stroke="#63b8ff" points="833.09,-300.95 825.02,-294.09 827.05,-304.49 833.09,-300.95"/>
</a>
</g>
</g>
<!-- Node35 -->
<g id="Node000035" class="node">
<title>Node35</title>
<g id="a_Node000035"><a xlink:title=" ">
<polygon fill="#e0e0e0" stroke="#999999" points="956,-294 882,-294 882,-275 956,-275 956,-294"/>
<text text-anchor="middle" x="919" y="-282" font-family="Helvetica,sans-Serif" font-size="10.00">openssl/ssl.h</text>
</a>
</g>
</g>
<!-- Node33&#45;&gt;Node35 -->
<g id="edge65_Node000033_Node000035" class="edge">
<title>Node33&#45;&gt;Node35</title>
<g id="a_edge65_Node000033_Node000035"><a xlink:title=" ">
<path fill="none" stroke="#63b8ff" d="M861.93,-329.98C872.08,-322.07 887.42,-310.11 899.65,-300.58"/>
<polygon fill="#63b8ff" stroke="#63b8ff" points="902.14,-303.08 907.88,-294.17 897.84,-297.56 902.14,-303.08"/>
</a>
</g>
</g>
<!-- Node36 -->
<g id="Node000036" class="node">
<title>Node36</title>
<g id="a_Node000036"><a xlink:title=" ">
<polygon fill="#e0e0e0" stroke="#999999" points="1074,-294 974,-294 974,-275 1074,-275 1074,-294"/>
<text text-anchor="middle" x="1024" y="-282" font-family="Helvetica,sans-Serif" font-size="10.00">openssl/x509_vfy.h</text>
</a>
</g>
</g>
<!-- Node33&#45;&gt;Node36 -->
<g id="edge66_Node000033_Node000036" class="edge">
<title>Node33&#45;&gt;Node36</title>
<g id="a_edge66_Node000033_Node000036"><a xlink:title=" ">
<path fill="none" stroke="#63b8ff" d="M878.8,-329.98C907.97,-321.05 954,-306.94 986.4,-297.02"/>
<polygon fill="#63b8ff" stroke="#63b8ff" points="987.45,-300.36 995.99,-294.08 985.4,-293.66 987.45,-300.36"/>
</a>
</g>
</g>
<!-- Node34&#45;&gt;Node6 -->
<g id="edge63_Node000034_Node000006" class="edge">
<title>Node34&#45;&gt;Node6</title>
<g id="a_edge63_Node000034_Node000006"><a xlink:title=" ">
<path fill="none" stroke="#63b8ff" d="M861.81,-274.94C956.81,-255.18 1182.84,-206.39 1210,-184 1236.9,-161.82 1237.95,-144.81 1236,-110 1235.52,-101.45 1234.53,-92.03 1233.55,-84.06"/>
<polygon fill="#63b8ff" stroke="#63b8ff" points="1237.01,-83.47 1232.24,-74.01 1230.07,-84.38 1237.01,-83.47"/>
</a>
</g>
</g>
<!-- Node34&#45;&gt;Node17 -->
<g id="edge64_Node000034_Node000017" class="edge">
<title>Node34&#45;&gt;Node17</title>
<g id="a_edge64_Node000034_Node000017"><a xlink:title=" ">
<path fill="none" stroke="#63b8ff" d="M807.79,-274.98C796.22,-266.92 778.62,-254.65 764.84,-245.03"/>
<polygon fill="#63b8ff" stroke="#63b8ff" points="766.64,-242.02 756.43,-239.17 762.63,-247.76 766.64,-242.02"/>
</a>
</g>
</g>
<!-- Node37&#45;&gt;Node6 -->
<g id="edge72_Node000037_Node000006" class="edge">
<title>Node37&#45;&gt;Node6</title>
<g id="a_edge72_Node000037_Node000006"><a xlink:title=" ">
<path fill="none" stroke="#63b8ff" d="M535.53,-274.89C567.43,-261.18 632.98,-234.45 691,-220 891.96,-169.93 962.38,-220.84 1148,-129 1173.48,-116.39 1198.86,-95.43 1214.72,-81.06"/>
<polygon fill="#63b8ff" stroke="#63b8ff" points="1217.14,-83.59 1222.1,-74.23 1212.38,-78.46 1217.14,-83.59"/>
</a>
</g>
</g>
<!-- Node37&#45;&gt;Node8 -->
<g id="edge73_Node000037_Node000008" class="edge">
<title>Node37&#45;&gt;Node8</title>
<g id="a_edge73_Node000037_Node000008"><a xlink:title=" ">
<path fill="none" stroke="#63b8ff" d="M502.83,-274.98C490.23,-266.84 471,-254.41 456.06,-244.76"/>
<polygon fill="#63b8ff" stroke="#63b8ff" points="457.71,-241.66 447.41,-239.17 453.91,-247.54 457.71,-241.66"/>
</a>
</g>
</g>
<!-- Node37&#45;&gt;Node9 -->
<g id="edge70_Node000037_Node000009" class="edge">
<title>Node37&#45;&gt;Node9</title>
<g id="a_edge70_Node000037_Node000009"><a xlink:title=" ">
<path fill="none" stroke="#63b8ff" d="M474.33,-275C418.82,-262.19 319.34,-233.97 248,-184 220.45,-164.7 209.65,-159.74 196,-129 189.75,-114.93 188.82,-97.38 189.27,-84.3"/>
<polygon fill="#63b8ff" stroke="#63b8ff" points="192.77,-84.36 189.92,-74.16 185.79,-83.91 192.77,-84.36"/>
</a>
</g>
</g>
<!-- Node37&#45;&gt;Node10 -->
<g id="edge71_Node000037_Node000010" class="edge">
<title>Node37&#45;&gt;Node10</title>
<g id="a_edge71_Node000037_Node000010"><a xlink:title=" ">
<path fill="none" stroke="#63b8ff" d="M517.23,-274.66C519.66,-257.17 525.12,-217.8 528.39,-194.27"/>
<polygon fill="#63b8ff" stroke="#63b8ff" points="531.89,-194.54 529.8,-184.16 524.95,-193.58 531.89,-194.54"/>
</a>
</g>
</g>
<!-- Node37&#45;&gt;Node17 -->
<g id="edge74_Node000037_Node000017" class="edge">
<title>Node37&#45;&gt;Node17</title>
<g id="a_edge74_Node000037_Node000017"><a xlink:title=" ">
<path fill="none" stroke="#63b8ff" d="M552.63,-274.98C591.91,-265.86 654.37,-251.33 697.19,-241.38"/>
<polygon fill="#63b8ff" stroke="#63b8ff" points="698.13,-244.76 707.08,-239.08 696.55,-237.94 698.13,-244.76"/>
</a>
</g>
</g>
</g>
</svg>

<g id="navigator" transform="translate(0 0)" fill="#404254">
  <rect fill="#f2f5e9" fill-opacity="0.5" stroke="#606060" stroke-width=".5" x="0" y="0" width="60" height="60"/>
  <use id="zoomplus" xlink:href="#zoomPlus" x="17" y="9" onmousedown="handleZoom(evt,'in')"/>
  <use id="zoomminus" xlink:href="#zoomMin" x="42" y="9" onmousedown="handleZoom(evt,'out')"/>
  <use id="reset" xlink:href="#resetDef" x="30" y="36" onmousedown="handleReset()"/>
   <use id="arrowup" xlink:href="#arrowUp" x="0" y="0" onmousedown="handlePan(0,-1)"/>
  <use id="arrowright" xlink:href="#arrowRight" x="0" y="0" onmousedown="handlePan(1,0)"/>
  <use id="arrowdown" xlink:href="#arrowDown" x="0" y="0" onmousedown="handlePan(0,1)"/>
  <use id="arrowleft" xlink:href="#arrowLeft" x="0" y="0" onmousedown="handlePan(-1,0)"/>
</g>
<svg viewBox="0 0 15 15" width="100%" height="30px" preserveAspectRatio="xMaxYMin meet">
 <g id="arrow_out" transform="scale(0.3 0.3)">
  <a xlink:href="websocket__server_8c__incl_org.svg" target="_base">
   <rect id="button" ry="5" rx="5" y="6" x="6" height="38" width="38"
        fill="#f2f5e9" fill-opacity="0.5" stroke="#606060" stroke-width="1.0"/>
   <path id="arrow"
     d="M 11.500037,31.436501 C 11.940474,20.09759 22.043105,11.32322 32.158766,21.979434 L 37.068811,17.246167 C 37.068811,17.246167 37.088388,32 37.088388,32 L 22.160133,31.978069 C 22.160133,31.978069 26.997745,27.140456 26.997745,27.140456 C 18.528582,18.264221 13.291696,25.230495 11.500037,31.436501 z"
     style="fill:#404040;"/>
  </a>
 </g>
</svg>

<style type='text/css'>
<![CDATA[
[data-mouse-over-selected='false'] { opacity: 0.7; }
[data-mouse-over-selected='true']  { opacity: 1.0; }
]]>
</style>
<script type="application/ecmascript"><![CDATA[
document.addEventListener('DOMContentLoaded', (event) => {
  highlightEdges();
  highlightAdjacentNodes();
});
]]></script>
</svg>
