<?xml version="1.0" encoding="UTF-8" standalone="no"?>
<!DOCTYPE svg PUBLIC "-//W3C//DTD SVG 1.1//EN"
 "http://www.w3.org/Graphics/SVG/1.1/DTD/svg11.dtd">
<!-- Generated by graphviz version 2.43.0 (0)
 -->
<!-- Title: websocket_client.c Pages: 1 -->
<svg width="1479pt" height="357pt"
 viewBox="0.00 0.00 1478.72 357.00" xmlns="http://www.w3.org/2000/svg" xmlns:xlink="http://www.w3.org/1999/xlink">
<g id="graph0" class="graph" transform="scale(1 1) rotate(0) translate(4 353)">
<title>websocket_client.c</title>
<!-- Node1 -->
<g id="Node000001" class="node">
<title>Node1</title>
<g id="a_Node000001"><a xlink:title=" ">
<polygon fill="#999999" stroke="#666666" points="873.5,-349 772.5,-349 772.5,-330 873.5,-330 873.5,-349"/>
<text text-anchor="middle" x="823" y="-337" font-family="Helvetica,sans-Serif" font-size="10.00">websocket_client.c</text>
</a>
</g>
</g>
<!-- Node2 -->
<g id="Node000002" class="node">
<title>Node2</title>
<g id="a_Node000002"><a xlink:title=" ">
<polygon fill="#e0e0e0" stroke="#999999" points="194,-294 144,-294 144,-275 194,-275 194,-294"/>
<text text-anchor="middle" x="169" y="-282" font-family="Helvetica,sans-Serif" font-size="10.00">signal.h</text>
</a>
</g>
</g>
<!-- Node1&#45;&gt;Node2 -->
<g id="edge1_Node000001_Node000002" class="edge">
<title>Node1&#45;&gt;Node2</title>
<g id="a_edge1_Node000001_Node000002"><a xlink:title=" ">
<path fill="none" stroke="#63b8ff" d="M772.11,-337.27C666.48,-334.17 415.93,-324.03 208,-294 206.73,-293.82 205.43,-293.61 204.13,-293.4"/>
<polygon fill="#63b8ff" stroke="#63b8ff" points="204.55,-289.92 194.08,-291.52 203.26,-296.8 204.55,-289.92"/>
</a>
</g>
</g>
<!-- Node3 -->
<g id="Node000003" class="node">
<title>Node3</title>
<g id="a_Node000003"><a xlink:title=" ">
<polygon fill="#e0e0e0" stroke="#999999" points="46,-74 0,-74 0,-55 46,-55 46,-74"/>
<text text-anchor="middle" x="23" y="-62" font-family="Helvetica,sans-Serif" font-size="10.00">stdio.h</text>
</a>
</g>
</g>
<!-- Node1&#45;&gt;Node3 -->
<g id="edge2_Node000001_Node000003" class="edge">
<title>Node1&#45;&gt;Node3</title>
<g id="a_edge2_Node000001_Node000003"><a xlink:title=" ">
<path fill="none" stroke="#63b8ff" d="M772.28,-334.72C627.38,-323.26 222,-286.22 222,-230.5 222,-230.5 222,-230.5 222,-173.5 222,-136.14 112.28,-94.72 55.78,-75.86"/>
<polygon fill="#63b8ff" stroke="#63b8ff" points="56.81,-72.52 46.22,-72.72 54.62,-79.16 56.81,-72.52"/>
</a>
</g>
</g>
<!-- Node4 -->
<g id="Node000004" class="node">
<title>Node4</title>
<g id="a_Node000004"><a xlink:title=" ">
<polygon fill="#e0e0e0" stroke="#999999" points="780,-294 732,-294 732,-275 780,-275 780,-294"/>
<text text-anchor="middle" x="756" y="-282" font-family="Helvetica,sans-Serif" font-size="10.00">stdlib.h</text>
</a>
</g>
</g>
<!-- Node1&#45;&gt;Node4 -->
<g id="edge3_Node000001_Node000004" class="edge">
<title>Node1&#45;&gt;Node4</title>
<g id="a_edge3_Node000001_Node000004"><a xlink:title=" ">
<path fill="none" stroke="#63b8ff" d="M812.24,-329.98C802.23,-322.07 787.11,-310.11 775.07,-300.58"/>
<polygon fill="#63b8ff" stroke="#63b8ff" points="776.97,-297.63 766.96,-294.17 772.63,-303.12 776.97,-297.63"/>
</a>
</g>
</g>
<!-- Node5 -->
<g id="Node000005" class="node">
<title>Node5</title>
<g id="a_Node000005"><a xlink:title=" ">
<polygon fill="#e0e0e0" stroke="#999999" points="847.5,-294 798.5,-294 798.5,-275 847.5,-275 847.5,-294"/>
<text text-anchor="middle" x="823" y="-282" font-family="Helvetica,sans-Serif" font-size="10.00">string.h</text>
</a>
</g>
</g>
<!-- Node1&#45;&gt;Node5 -->
<g id="edge4_Node000001_Node000005" class="edge">
<title>Node1&#45;&gt;Node5</title>
<g id="a_edge4_Node000001_Node000005"><a xlink:title=" ">
<path fill="none" stroke="#63b8ff" d="M823,-329.75C823,-322.8 823,-312.85 823,-304.13"/>
<polygon fill="#63b8ff" stroke="#63b8ff" points="826.5,-304.09 823,-294.09 819.5,-304.09 826.5,-304.09"/>
</a>
</g>
</g>
<!-- Node6 -->
<g id="Node000006" class="node">
<title>Node6</title>
<g id="a_Node000006"><a xlink:href="Except_8h.html" target="_top" xlink:title="Structured exception handling for C with TRY/EXCEPT/FINALLY blocks.">
<polygon fill="white" stroke="#666666" points="1066.5,-74 989.5,-74 989.5,-55 1066.5,-55 1066.5,-74"/>
<text text-anchor="middle" x="1028" y="-62" font-family="Helvetica,sans-Serif" font-size="10.00">core/Except.h</text>
</a>
</g>
</g>
<!-- Node1&#45;&gt;Node6 -->
<g id="edge5_Node000001_Node000006" class="edge">
<title>Node1&#45;&gt;Node6</title>
<g id="a_edge5_Node000001_Node000006"><a xlink:title=" ">
<path fill="none" stroke="#63b8ff" d="M873.67,-333.75C934.38,-324.95 1028,-300.09 1028,-230.5 1028,-230.5 1028,-230.5 1028,-173.5 1028,-142.19 1028,-105.77 1028,-84.23"/>
<polygon fill="#63b8ff" stroke="#63b8ff" points="1031.5,-84.18 1028,-74.18 1024.5,-84.18 1031.5,-84.18"/>
</a>
</g>
</g>
<!-- Node8 -->
<g id="Node000008" class="node">
<title>Node8</title>
<g id="a_Node000008"><a xlink:href="Socket_8h.html" target="_top" xlink:title="High&#45;level TCP/IP and Unix domain socket interface.">
<polygon fill="white" stroke="#666666" points="920,-239 832,-239 832,-220 920,-220 920,-239"/>
<text text-anchor="middle" x="876" y="-227" font-family="Helvetica,sans-Serif" font-size="10.00">socket/Socket.h</text>
</a>
</g>
</g>
<!-- Node1&#45;&gt;Node8 -->
<g id="edge7_Node000001_Node000008" class="edge">
<title>Node1&#45;&gt;Node8</title>
<g id="a_edge7_Node000001_Node000008"><a xlink:title=" ">
<path fill="none" stroke="#63b8ff" d="M831.06,-329.95C838.71,-321.43 850.02,-307.69 857,-294 864.28,-279.73 869.26,-262.2 872.29,-249.18"/>
<polygon fill="#63b8ff" stroke="#63b8ff" points="875.78,-249.6 874.46,-239.09 868.93,-248.13 875.78,-249.6"/>
</a>
</g>
</g>
<!-- Node27 -->
<g id="Node000027" class="node">
<title>Node27</title>
<g id="a_Node000027"><a xlink:href="SocketWS_8h.html" target="_top" xlink:title="WebSocket Protocol (RFC 6455) implementation with compression support.">
<polygon fill="white" stroke="#666666" points="1233,-294 1129,-294 1129,-275 1233,-275 1233,-294"/>
<text text-anchor="middle" x="1181" y="-282" font-family="Helvetica,sans-Serif" font-size="10.00">socket/SocketWS.h</text>
</a>
</g>
</g>
<!-- Node1&#45;&gt;Node27 -->
<g id="edge39_Node000001_Node000027" class="edge">
<title>Node1&#45;&gt;Node27</title>
<g id="a_edge39_Node000001_Node000027"><a xlink:title=" ">
<path fill="none" stroke="#63b8ff" d="M873.53,-331.02C938.01,-321.47 1049.5,-304.97 1119.04,-294.67"/>
<polygon fill="#63b8ff" stroke="#63b8ff" points="1119.6,-298.13 1128.98,-293.2 1118.58,-291.2 1119.6,-298.13"/>
</a>
</g>
</g>
<!-- Node7 -->
<g id="Node000007" class="node">
<title>Node7</title>
<g id="a_Node000007"><a xlink:title=" ">
<polygon fill="#e0e0e0" stroke="#999999" points="1055,-19 1001,-19 1001,0 1055,0 1055,-19"/>
<text text-anchor="middle" x="1028" y="-7" font-family="Helvetica,sans-Serif" font-size="10.00">setjmp.h</text>
</a>
</g>
</g>
<!-- Node6&#45;&gt;Node7 -->
<g id="edge6_Node000006_Node000007" class="edge">
<title>Node6&#45;&gt;Node7</title>
<g id="a_edge6_Node000006_Node000007"><a xlink:title=" ">
<path fill="none" stroke="#63b8ff" d="M1028,-54.75C1028,-47.8 1028,-37.85 1028,-29.13"/>
<polygon fill="#63b8ff" stroke="#63b8ff" points="1031.5,-29.09 1028,-19.09 1024.5,-29.09 1031.5,-29.09"/>
</a>
</g>
</g>
<!-- Node8&#45;&gt;Node6 -->
<g id="edge8_Node000008_Node000006" class="edge">
<title>Node8&#45;&gt;Node6</title>
<g id="a_edge8_Node000008_Node000006"><a xlink:title=" ">
<path fill="none" stroke="#63b8ff" d="M884.17,-219.74C908.5,-193.65 980.75,-116.17 1012.61,-82"/>
<polygon fill="#63b8ff" stroke="#63b8ff" points="1015.53,-84.01 1019.79,-74.31 1010.41,-79.23 1015.53,-84.01"/>
</a>
</g>
</g>
<!-- Node9 -->
<g id="Node000009" class="node">
<title>Node9</title>
<g id="a_Node000009"><a xlink:href="SocketConfig_8h.html" target="_top" xlink:title="Compile&#45;time configuration and platform detection for the socket library.">
<polygon fill="white" stroke="#666666" points="356,-129 250,-129 250,-110 356,-110 356,-129"/>
<text text-anchor="middle" x="303" y="-117" font-family="Helvetica,sans-Serif" font-size="10.00">core/SocketConfig.h</text>
</a>
</g>
</g>
<!-- Node8&#45;&gt;Node9 -->
<g id="edge9_Node000008_Node000009" class="edge">
<title>Node8&#45;&gt;Node9</title>
<g id="a_edge9_Node000008_Node000009"><a xlink:title=" ">
<path fill="none" stroke="#63b8ff" d="M831.74,-222.24C776.43,-214.25 678.97,-199.57 596,-184 508.41,-167.56 406.92,-144.71 349.3,-131.37"/>
<polygon fill="#63b8ff" stroke="#63b8ff" points="349.94,-127.93 339.41,-129.08 348.36,-134.75 349.94,-127.93"/>
</a>
</g>
</g>
<!-- Node18 -->
<g id="Node000018" class="node">
<title>Node18</title>
<g id="a_Node000018"><a xlink:href="SocketDNS_8h.html" target="_top" xlink:title="Asynchronous DNS resolution API.">
<polygon fill="white" stroke="#666666" points="924,-129 828,-129 828,-110 924,-110 924,-129"/>
<text text-anchor="middle" x="876" y="-117" font-family="Helvetica,sans-Serif" font-size="10.00">dns/SocketDNS.h</text>
</a>
</g>
</g>
<!-- Node8&#45;&gt;Node18 -->
<g id="edge19_Node000008_Node000018" class="edge">
<title>Node8&#45;&gt;Node18</title>
<g id="a_edge19_Node000008_Node000018"><a xlink:title=" ">
<path fill="none" stroke="#63b8ff" d="M876,-219.66C876,-202.17 876,-162.8 876,-139.27"/>
<polygon fill="#63b8ff" stroke="#63b8ff" points="879.5,-139.16 876,-129.16 872.5,-139.16 879.5,-139.16"/>
</a>
</g>
</g>
<!-- Node20 -->
<g id="Node000020" class="node">
<title>Node20</title>
<g id="a_Node000020"><a xlink:href="SocketCommon_8h.html" target="_top" xlink:title="Common utilities shared between Socket and SocketDgram modules.">
<polygon fill="white" stroke="#666666" points="733,-184 605,-184 605,-165 733,-165 733,-184"/>
<text text-anchor="middle" x="669" y="-172" font-family="Helvetica,sans-Serif" font-size="10.00">socket/SocketCommon.h</text>
</a>
</g>
</g>
<!-- Node8&#45;&gt;Node20 -->
<g id="edge24_Node000008_Node000020" class="edge">
<title>Node8&#45;&gt;Node20</title>
<g id="a_edge24_Node000008_Node000020"><a xlink:title=" ">
<path fill="none" stroke="#63b8ff" d="M842.74,-219.98C807.39,-210.93 751.33,-196.58 712.49,-186.64"/>
<polygon fill="#63b8ff" stroke="#63b8ff" points="713.07,-183.17 702.52,-184.08 711.34,-189.95 713.07,-183.17"/>
</a>
</g>
</g>
<!-- Node9&#45;&gt;Node3 -->
<g id="edge15_Node000009_Node000003" class="edge">
<title>Node9&#45;&gt;Node3</title>
<g id="a_edge15_Node000009_Node000003"><a xlink:title=" ">
<path fill="none" stroke="#63b8ff" d="M249.53,-110.21C201.4,-102.45 128.53,-89.98 56.21,-74.12"/>
<polygon fill="#63b8ff" stroke="#63b8ff" points="56.54,-70.6 46.02,-71.86 55.02,-77.44 56.54,-70.6"/>
</a>
</g>
</g>
<!-- Node10 -->
<g id="Node000010" class="node">
<title>Node10</title>
<g id="a_Node000010"><a xlink:title=" ">
<polygon fill="#e0e0e0" stroke="#999999" points="180.5,-74 133.5,-74 133.5,-55 180.5,-55 180.5,-74"/>
<text text-anchor="middle" x="157" y="-62" font-family="Helvetica,sans-Serif" font-size="10.00">errno.h</text>
</a>
</g>
</g>
<!-- Node9&#45;&gt;Node10 -->
<g id="edge10_Node000009_Node000010" class="edge">
<title>Node9&#45;&gt;Node10</title>
<g id="a_edge10_Node000009_Node000010"><a xlink:title=" ">
<path fill="none" stroke="#63b8ff" d="M279.54,-109.98C255.42,-101.23 217.63,-87.51 190.4,-77.62"/>
<polygon fill="#63b8ff" stroke="#63b8ff" points="191.48,-74.29 180.88,-74.17 189.09,-80.87 191.48,-74.29"/>
</a>
</g>
</g>
<!-- Node11 -->
<g id="Node000011" class="node">
<title>Node11</title>
<g id="a_Node000011"><a xlink:title=" ">
<polygon fill="#e0e0e0" stroke="#999999" points="406,-74 362,-74 362,-55 406,-55 406,-74"/>
<text text-anchor="middle" x="384" y="-62" font-family="Helvetica,sans-Serif" font-size="10.00">fcntl.h</text>
</a>
</g>
</g>
<!-- Node9&#45;&gt;Node11 -->
<g id="edge11_Node000009_Node000011" class="edge">
<title>Node9&#45;&gt;Node11</title>
<g id="a_edge11_Node000009_Node000011"><a xlink:title=" ">
<path fill="none" stroke="#63b8ff" d="M316.01,-109.98C328.46,-101.84 347.46,-89.41 362.21,-79.76"/>
<polygon fill="#63b8ff" stroke="#63b8ff" points="364.3,-82.57 370.75,-74.17 360.46,-76.72 364.3,-82.57"/>
</a>
</g>
</g>
<!-- Node12 -->
<g id="Node000012" class="node">
<title>Node12</title>
<g id="a_Node000012"><a xlink:title=" ">
<polygon fill="#e0e0e0" stroke="#999999" points="489.5,-74 424.5,-74 424.5,-55 489.5,-55 489.5,-74"/>
<text text-anchor="middle" x="457" y="-62" font-family="Helvetica,sans-Serif" font-size="10.00">netinet/in.h</text>
</a>
</g>
</g>
<!-- Node9&#45;&gt;Node12 -->
<g id="edge12_Node000009_Node000012" class="edge">
<title>Node9&#45;&gt;Node12</title>
<g id="a_edge12_Node000009_Node000012"><a xlink:title=" ">
<path fill="none" stroke="#63b8ff" d="M327.74,-109.98C353.37,-101.16 393.63,-87.31 422.41,-77.41"/>
<polygon fill="#63b8ff" stroke="#63b8ff" points="423.75,-80.65 432.06,-74.08 421.47,-74.03 423.75,-80.65"/>
</a>
</g>
</g>
<!-- Node13 -->
<g id="Node000013" class="node">
<title>Node13</title>
<g id="a_Node000013"><a xlink:title=" ">
<polygon fill="#e0e0e0" stroke="#999999" points="269.5,-74 198.5,-74 198.5,-55 269.5,-55 269.5,-74"/>
<text text-anchor="middle" x="234" y="-62" font-family="Helvetica,sans-Serif" font-size="10.00">netinet/tcp.h</text>
</a>
</g>
</g>
<!-- Node9&#45;&gt;Node13 -->
<g id="edge13_Node000009_Node000013" class="edge">
<title>Node9&#45;&gt;Node13</title>
<g id="a_edge13_Node000009_Node000013"><a xlink:title=" ">
<path fill="none" stroke="#63b8ff" d="M291.91,-109.98C281.51,-102 265.74,-89.88 253.28,-80.31"/>
<polygon fill="#63b8ff" stroke="#63b8ff" points="255.35,-77.49 245.29,-74.17 251.09,-83.04 255.35,-77.49"/>
</a>
</g>
</g>
<!-- Node14 -->
<g id="Node000014" class="node">
<title>Node14</title>
<g id="a_Node000014"><a xlink:title=" ">
<polygon fill="#e0e0e0" stroke="#999999" points="1280,-74 1228,-74 1228,-55 1280,-55 1280,-74"/>
<text text-anchor="middle" x="1254" y="-62" font-family="Helvetica,sans-Serif" font-size="10.00">stddef.h</text>
</a>
</g>
</g>
<!-- Node9&#45;&gt;Node14 -->
<g id="edge14_Node000009_Node000014" class="edge">
<title>Node9&#45;&gt;Node14</title>
<g id="a_edge14_Node000009_Node000014"><a xlink:title=" ">
<path fill="none" stroke="#63b8ff" d="M356.17,-115.54C528.85,-105.91 1071.21,-75.69 1217.4,-67.54"/>
<polygon fill="#63b8ff" stroke="#63b8ff" points="1217.82,-71.02 1227.61,-66.97 1217.43,-64.03 1217.82,-71.02"/>
</a>
</g>
</g>
<!-- Node15 -->
<g id="Node000015" class="node">
<title>Node15</title>
<g id="a_Node000015"><a xlink:title=" ">
<polygon fill="#e0e0e0" stroke="#999999" points="580.5,-74 507.5,-74 507.5,-55 580.5,-55 580.5,-74"/>
<text text-anchor="middle" x="544" y="-62" font-family="Helvetica,sans-Serif" font-size="10.00">sys/socket.h</text>
</a>
</g>
</g>
<!-- Node9&#45;&gt;Node15 -->
<g id="edge16_Node000009_Node000015" class="edge">
<title>Node9&#45;&gt;Node15</title>
<g id="a_edge16_Node000009_Node000015"><a xlink:title=" ">
<path fill="none" stroke="#63b8ff" d="M341.72,-109.98C384.15,-100.65 452.19,-85.69 497.49,-75.73"/>
<polygon fill="#63b8ff" stroke="#63b8ff" points="498.34,-79.13 507.35,-73.56 496.83,-72.29 498.34,-79.13"/>
</a>
</g>
</g>
<!-- Node16 -->
<g id="Node000016" class="node">
<title>Node16</title>
<g id="a_Node000016"><a xlink:title=" ">
<polygon fill="#e0e0e0" stroke="#999999" points="344,-74 288,-74 288,-55 344,-55 344,-74"/>
<text text-anchor="middle" x="316" y="-62" font-family="Helvetica,sans-Serif" font-size="10.00">sys/uio.h</text>
</a>
</g>
</g>
<!-- Node9&#45;&gt;Node16 -->
<g id="edge17_Node000009_Node000016" class="edge">
<title>Node9&#45;&gt;Node16</title>
<g id="a_edge17_Node000009_Node000016"><a xlink:title=" ">
<path fill="none" stroke="#63b8ff" d="M305.15,-109.75C306.87,-102.72 309.35,-92.62 311.5,-83.84"/>
<polygon fill="#63b8ff" stroke="#63b8ff" points="314.91,-84.63 313.89,-74.09 308.11,-82.97 314.91,-84.63"/>
</a>
</g>
</g>
<!-- Node17 -->
<g id="Node000017" class="node">
<title>Node17</title>
<g id="a_Node000017"><a xlink:title=" ">
<polygon fill="#e0e0e0" stroke="#999999" points="115.5,-74 64.5,-74 64.5,-55 115.5,-55 115.5,-74"/>
<text text-anchor="middle" x="90" y="-62" font-family="Helvetica,sans-Serif" font-size="10.00">unistd.h</text>
</a>
</g>
</g>
<!-- Node9&#45;&gt;Node17 -->
<g id="edge18_Node000009_Node000017" class="edge">
<title>Node9&#45;&gt;Node17</title>
<g id="a_edge18_Node000009_Node000017"><a xlink:title=" ">
<path fill="none" stroke="#63b8ff" d="M268.68,-109.98C234.69,-101.54 180.87,-88.17 125.59,-74.39"/>
<polygon fill="#63b8ff" stroke="#63b8ff" points="126.17,-70.93 115.62,-71.91 124.48,-77.72 126.17,-70.93"/>
</a>
</g>
</g>
<!-- Node18&#45;&gt;Node6 -->
<g id="edge20_Node000018_Node000006" class="edge">
<title>Node18&#45;&gt;Node6</title>
<g id="a_edge20_Node000018_Node000006"><a xlink:title=" ">
<path fill="none" stroke="#63b8ff" d="M900.42,-109.98C925.72,-101.16 965.45,-87.31 993.86,-77.41"/>
<polygon fill="#63b8ff" stroke="#63b8ff" points="995.1,-80.68 1003.39,-74.08 992.79,-74.07 995.1,-80.68"/>
</a>
</g>
</g>
<!-- Node18&#45;&gt;Node14 -->
<g id="edge22_Node000018_Node000014" class="edge">
<title>Node18&#45;&gt;Node14</title>
<g id="a_edge22_Node000018_Node000014"><a xlink:title=" ">
<path fill="none" stroke="#63b8ff" d="M924.26,-111.73C1000.96,-100.98 1149.01,-80.22 1217.55,-70.61"/>
<polygon fill="#63b8ff" stroke="#63b8ff" points="1218.43,-74.02 1227.84,-69.17 1217.45,-67.09 1218.43,-74.02"/>
</a>
</g>
</g>
<!-- Node18&#45;&gt;Node15 -->
<g id="edge23_Node000018_Node000015" class="edge">
<title>Node18&#45;&gt;Node15</title>
<g id="a_edge23_Node000018_Node000015"><a xlink:title=" ">
<path fill="none" stroke="#63b8ff" d="M827.72,-110.79C764.18,-100.65 653.22,-82.94 590.55,-72.93"/>
<polygon fill="#63b8ff" stroke="#63b8ff" points="590.97,-69.45 580.55,-71.33 589.87,-76.37 590.97,-69.45"/>
</a>
</g>
</g>
<!-- Node19 -->
<g id="Node000019" class="node">
<title>Node19</title>
<g id="a_Node000019"><a xlink:title=" ">
<polygon fill="#e0e0e0" stroke="#999999" points="824.5,-74 775.5,-74 775.5,-55 824.5,-55 824.5,-74"/>
<text text-anchor="middle" x="800" y="-62" font-family="Helvetica,sans-Serif" font-size="10.00">netdb.h</text>
</a>
</g>
</g>
<!-- Node18&#45;&gt;Node19 -->
<g id="edge21_Node000018_Node000019" class="edge">
<title>Node18&#45;&gt;Node19</title>
<g id="a_edge21_Node000018_Node000019"><a xlink:title=" ">
<path fill="none" stroke="#63b8ff" d="M863.79,-109.98C852.22,-101.92 834.62,-89.65 820.84,-80.03"/>
<polygon fill="#63b8ff" stroke="#63b8ff" points="822.64,-77.02 812.43,-74.17 818.63,-82.76 822.64,-77.02"/>
</a>
</g>
</g>
<!-- Node20&#45;&gt;Node6 -->
<g id="edge37_Node000020_Node000006" class="edge">
<title>Node20&#45;&gt;Node6</title>
<g id="a_edge37_Node000020_Node000006"><a xlink:title=" ">
<path fill="none" stroke="#63b8ff" d="M733.16,-170.24C787.91,-165.7 867.88,-154.87 933,-129 962.47,-117.29 992.18,-95.45 1010.33,-80.69"/>
<polygon fill="#63b8ff" stroke="#63b8ff" points="1012.82,-83.18 1018.27,-74.09 1008.34,-77.8 1012.82,-83.18"/>
</a>
</g>
</g>
<!-- Node20&#45;&gt;Node9 -->
<g id="edge38_Node000020_Node000009" class="edge">
<title>Node20&#45;&gt;Node9</title>
<g id="a_edge38_Node000020_Node000009"><a xlink:title=" ">
<path fill="none" stroke="#63b8ff" d="M610.2,-164.98C543.41,-155.31 434.82,-139.59 366.24,-129.66"/>
<polygon fill="#63b8ff" stroke="#63b8ff" points="366.41,-126.15 356.01,-128.18 365.41,-133.07 366.41,-126.15"/>
</a>
</g>
</g>
<!-- Node20&#45;&gt;Node11 -->
<g id="edge27_Node000020_Node000011" class="edge">
<title>Node20&#45;&gt;Node11</title>
<g id="a_edge27_Node000020_Node000011"><a xlink:title=" ">
<path fill="none" stroke="#63b8ff" d="M604.79,-168.95C560.71,-163.76 501.92,-152.68 455,-129 432.04,-117.42 410.78,-96.48 397.63,-81.82"/>
<polygon fill="#63b8ff" stroke="#63b8ff" points="400.06,-79.29 390.86,-74.04 394.78,-83.88 400.06,-79.29"/>
</a>
</g>
</g>
<!-- Node20&#45;&gt;Node12 -->
<g id="edge29_Node000020_Node000012" class="edge">
<title>Node20&#45;&gt;Node12</title>
<g id="a_edge29_Node000020_Node000012"><a xlink:title=" ">
<path fill="none" stroke="#63b8ff" d="M604.98,-166.74C554.16,-160.05 488.67,-148.01 470,-129 458.55,-117.34 455.91,-98.48 455.76,-84.34"/>
<polygon fill="#63b8ff" stroke="#63b8ff" points="459.27,-84.34 456.06,-74.24 452.27,-84.13 459.27,-84.34"/>
</a>
</g>
</g>
<!-- Node20&#45;&gt;Node15 -->
<g id="edge30_Node000020_Node000015" class="edge">
<title>Node20&#45;&gt;Node15</title>
<g id="a_edge30_Node000020_Node000015"><a xlink:title=" ">
<path fill="none" stroke="#63b8ff" d="M604.89,-166.98C556.06,-160.53 494.63,-148.71 479,-129 463.86,-109.9 490.66,-90.73 514.3,-78.53"/>
<polygon fill="#63b8ff" stroke="#63b8ff" points="516,-81.59 523.44,-74.05 512.92,-75.3 516,-81.59"/>
</a>
</g>
</g>
<!-- Node20&#45;&gt;Node19 -->
<g id="edge28_Node000020_Node000019" class="edge">
<title>Node20&#45;&gt;Node19</title>
<g id="a_edge28_Node000020_Node000019"><a xlink:title=" ">
<path fill="none" stroke="#63b8ff" d="M679.11,-164.77C693.43,-152.44 720.52,-129.26 744,-110 756.12,-100.06 769.91,-89.1 780.77,-80.54"/>
<polygon fill="#63b8ff" stroke="#63b8ff" points="783.06,-83.19 788.76,-74.26 778.74,-77.69 783.06,-83.19"/>
</a>
</g>
</g>
<!-- Node21 -->
<g id="Node000021" class="node">
<title>Node21</title>
<g id="a_Node000021"><a xlink:title=" ">
<polygon fill="#e0e0e0" stroke="#999999" points="809.5,-129 752.5,-129 752.5,-110 809.5,-110 809.5,-129"/>
<text text-anchor="middle" x="781" y="-117" font-family="Helvetica,sans-Serif" font-size="10.00">pthread.h</text>
</a>
</g>
</g>
<!-- Node20&#45;&gt;Node21 -->
<g id="edge25_Node000020_Node000021" class="edge">
<title>Node20&#45;&gt;Node21</title>
<g id="a_edge25_Node000020_Node000021"><a xlink:title=" ">
<path fill="none" stroke="#63b8ff" d="M686.99,-164.98C704.93,-156.5 732.72,-143.35 753.43,-133.54"/>
<polygon fill="#63b8ff" stroke="#63b8ff" points="755.14,-136.61 762.68,-129.17 752.14,-130.28 755.14,-136.61"/>
</a>
</g>
</g>
<!-- Node22 -->
<g id="Node000022" class="node">
<title>Node22</title>
<g id="a_Node000022"><a xlink:title=" ">
<polygon fill="#e0e0e0" stroke="#999999" points="544,-129 488,-129 488,-110 544,-110 544,-129"/>
<text text-anchor="middle" x="516" y="-117" font-family="Helvetica,sans-Serif" font-size="10.00">stdbool.h</text>
</a>
</g>
</g>
<!-- Node20&#45;&gt;Node22 -->
<g id="edge26_Node000020_Node000022" class="edge">
<title>Node20&#45;&gt;Node22</title>
<g id="a_edge26_Node000020_Node000022"><a xlink:title=" ">
<path fill="none" stroke="#63b8ff" d="M644.42,-164.98C618.95,-156.16 578.96,-142.31 550.37,-132.41"/>
<polygon fill="#63b8ff" stroke="#63b8ff" points="551.37,-129.05 540.77,-129.08 549.08,-135.66 551.37,-129.05"/>
</a>
</g>
</g>
<!-- Node23 -->
<g id="Node000023" class="node">
<title>Node23</title>
<g id="a_Node000023"><a xlink:title=" ">
<polygon fill="#e0e0e0" stroke="#999999" points="624,-129 562,-129 562,-110 624,-110 624,-129"/>
<text text-anchor="middle" x="593" y="-117" font-family="Helvetica,sans-Serif" font-size="10.00">sys/time.h</text>
</a>
</g>
</g>
<!-- Node20&#45;&gt;Node23 -->
<g id="edge31_Node000020_Node000023" class="edge">
<title>Node20&#45;&gt;Node23</title>
<g id="a_edge31_Node000020_Node000023"><a xlink:title=" ">
<path fill="none" stroke="#63b8ff" d="M656.79,-164.98C645.22,-156.92 627.62,-144.65 613.84,-135.03"/>
<polygon fill="#63b8ff" stroke="#63b8ff" points="615.64,-132.02 605.43,-129.17 611.63,-137.76 615.64,-132.02"/>
</a>
</g>
</g>
<!-- Node24 -->
<g id="Node000024" class="node">
<title>Node24</title>
<g id="a_Node000024"><a xlink:title=" ">
<polygon fill="#e0e0e0" stroke="#999999" points="1162,-129 1094,-129 1094,-110 1162,-110 1162,-129"/>
<text text-anchor="middle" x="1128" y="-117" font-family="Helvetica,sans-Serif" font-size="10.00">sys/types.h</text>
</a>
</g>
</g>
<!-- Node20&#45;&gt;Node24 -->
<g id="edge32_Node000020_Node000024" class="edge">
<title>Node20&#45;&gt;Node24</title>
<g id="a_edge32_Node000020_Node000024"><a xlink:title=" ">
<path fill="none" stroke="#63b8ff" d="M733.31,-166.07C827.95,-155.15 1002.32,-135.01 1083.83,-125.6"/>
<polygon fill="#63b8ff" stroke="#63b8ff" points="1084.24,-129.08 1093.77,-124.45 1083.43,-122.12 1084.24,-129.08"/>
</a>
</g>
</g>
<!-- Node25 -->
<g id="Node000025" class="node">
<title>Node25</title>
<g id="a_Node000025"><a xlink:title=" ">
<polygon fill="#e0e0e0" stroke="#999999" points="696,-129 642,-129 642,-110 696,-110 696,-129"/>
<text text-anchor="middle" x="669" y="-117" font-family="Helvetica,sans-Serif" font-size="10.00">sys/un.h</text>
</a>
</g>
</g>
<!-- Node20&#45;&gt;Node25 -->
<g id="edge33_Node000020_Node000025" class="edge">
<title>Node20&#45;&gt;Node25</title>
<g id="a_edge33_Node000020_Node000025"><a xlink:title=" ">
<path fill="none" stroke="#63b8ff" d="M669,-164.75C669,-157.8 669,-147.85 669,-139.13"/>
<polygon fill="#63b8ff" stroke="#63b8ff" points="672.5,-139.09 669,-129.09 665.5,-139.09 672.5,-139.09"/>
</a>
</g>
</g>
<!-- Node26 -->
<g id="Node000026" class="node">
<title>Node26</title>
<g id="a_Node000026"><a xlink:href="Arena_8h.html" target="_top" xlink:title="Arena&#45;based memory allocator for efficient bulk memory management.">
<polygon fill="white" stroke="#666666" points="1290,-129 1218,-129 1218,-110 1290,-110 1290,-129"/>
<text text-anchor="middle" x="1254" y="-117" font-family="Helvetica,sans-Serif" font-size="10.00">core/Arena.h</text>
</a>
</g>
</g>
<!-- Node20&#45;&gt;Node26 -->
<g id="edge34_Node000020_Node000026" class="edge">
<title>Node20&#45;&gt;Node26</title>
<g id="a_edge34_Node000020_Node000026"><a xlink:title=" ">
<path fill="none" stroke="#63b8ff" d="M733.21,-168.09C828.71,-159.98 1013.79,-144.02 1171,-129 1182.82,-127.87 1195.58,-126.59 1207.47,-125.38"/>
<polygon fill="#63b8ff" stroke="#63b8ff" points="1208.06,-128.84 1217.65,-124.33 1207.34,-121.87 1208.06,-128.84"/>
</a>
</g>
</g>
<!-- Node26&#45;&gt;Node6 -->
<g id="edge36_Node000026_Node000006" class="edge">
<title>Node26&#45;&gt;Node6</title>
<g id="a_edge36_Node000026_Node000006"><a xlink:title=" ">
<path fill="none" stroke="#63b8ff" d="M1217.94,-110.04C1178.94,-100.9 1116.67,-86.29 1074.13,-76.32"/>
<polygon fill="#63b8ff" stroke="#63b8ff" points="1074.84,-72.89 1064.31,-74.01 1073.24,-79.71 1074.84,-72.89"/>
</a>
</g>
</g>
<!-- Node26&#45;&gt;Node14 -->
<g id="edge35_Node000026_Node000014" class="edge">
<title>Node26&#45;&gt;Node14</title>
<g id="a_edge35_Node000026_Node000014"><a xlink:title=" ">
<path fill="none" stroke="#63b8ff" d="M1254,-109.75C1254,-102.8 1254,-92.85 1254,-84.13"/>
<polygon fill="#63b8ff" stroke="#63b8ff" points="1257.5,-84.09 1254,-74.09 1250.5,-84.09 1257.5,-84.09"/>
</a>
</g>
</g>
<!-- Node27&#45;&gt;Node6 -->
<g id="edge42_Node000027_Node000006" class="edge">
<title>Node27&#45;&gt;Node6</title>
<g id="a_edge42_Node000027_Node000006"><a xlink:title=" ">
<path fill="none" stroke="#63b8ff" d="M1175,-274.95C1152.2,-242.47 1070.67,-126.29 1039.88,-82.43"/>
<polygon fill="#63b8ff" stroke="#63b8ff" points="1042.73,-80.4 1034.12,-74.22 1037,-84.42 1042.73,-80.4"/>
</a>
</g>
</g>
<!-- Node27&#45;&gt;Node8 -->
<g id="edge50_Node000027_Node000008" class="edge">
<title>Node27&#45;&gt;Node8</title>
<g id="a_edge50_Node000027_Node000008"><a xlink:title=" ">
<path fill="none" stroke="#63b8ff" d="M1132,-274.98C1076.87,-265.41 987.59,-249.89 930.37,-239.95"/>
<polygon fill="#63b8ff" stroke="#63b8ff" points="930.87,-236.48 920.42,-238.22 929.67,-243.38 930.87,-236.48"/>
</a>
</g>
</g>
<!-- Node27&#45;&gt;Node14 -->
<g id="edge40_Node000027_Node000014" class="edge">
<title>Node27&#45;&gt;Node14</title>
<g id="a_edge40_Node000027_Node000014"><a xlink:title=" ">
<path fill="none" stroke="#63b8ff" d="M1224.4,-274.94C1290.81,-259.23 1415.38,-218.77 1467,-129 1471.21,-121.68 1472.33,-116.55 1467,-110 1445.12,-83.08 1345,-71.88 1290.17,-67.7"/>
<polygon fill="#63b8ff" stroke="#63b8ff" points="1290.39,-64.21 1280.16,-66.98 1289.89,-71.19 1290.39,-64.21"/>
</a>
</g>
</g>
<!-- Node28 -->
<g id="Node000028" class="node">
<title>Node28</title>
<g id="a_Node000028"><a xlink:title=" ">
<polygon fill="#e0e0e0" stroke="#999999" points="1457.5,-129 1408.5,-129 1408.5,-110 1457.5,-110 1457.5,-129"/>
<text text-anchor="middle" x="1433" y="-117" font-family="Helvetica,sans-Serif" font-size="10.00">stdint.h</text>
</a>
</g>
</g>
<!-- Node27&#45;&gt;Node28 -->
<g id="edge41_Node000027_Node000028" class="edge">
<title>Node27&#45;&gt;Node28</title>
<g id="a_edge41_Node000027_Node000028"><a xlink:title=" ">
<path fill="none" stroke="#63b8ff" d="M1194.19,-274.97C1235.09,-248.51 1360.06,-167.68 1411.02,-134.72"/>
<polygon fill="#63b8ff" stroke="#63b8ff" points="1413.14,-137.52 1419.63,-129.15 1409.34,-131.64 1413.14,-137.52"/>
</a>
</g>
</g>
<!-- Node29 -->
<g id="Node000029" class="node">
<title>Node29</title>
<g id="a_Node000029"><a xlink:href="SocketHTTP_8h.html" target="_top" xlink:title="Protocol&#45;agnostic HTTP types, header handling, URI parsing, and utilities.">
<polygon fill="white" stroke="#666666" points="1304,-184 1204,-184 1204,-165 1304,-165 1304,-184"/>
<text text-anchor="middle" x="1254" y="-172" font-family="Helvetica,sans-Serif" font-size="10.00">http/SocketHTTP.h</text>
</a>
</g>
</g>
<!-- Node27&#45;&gt;Node29 -->
<g id="edge43_Node000027_Node000029" class="edge">
<title>Node27&#45;&gt;Node29</title>
<g id="a_edge43_Node000027_Node000029"><a xlink:title=" ">
<path fill="none" stroke="#63b8ff" d="M1186.97,-274.66C1199.06,-256.77 1226.62,-216 1242.38,-192.69"/>
<polygon fill="#63b8ff" stroke="#63b8ff" points="1245.45,-194.4 1248.15,-184.16 1239.65,-190.48 1245.45,-194.4"/>
</a>
</g>
</g>
<!-- Node29&#45;&gt;Node6 -->
<g id="edge49_Node000029_Node000006" class="edge">
<title>Node29&#45;&gt;Node6</title>
<g id="a_edge49_Node000029_Node000006"><a xlink:title=" ">
<path fill="none" stroke="#63b8ff" d="M1245.03,-164.9C1230.56,-151.43 1200.65,-125.34 1171,-110 1141.15,-94.56 1104.99,-83.37 1076.49,-76.07"/>
<polygon fill="#63b8ff" stroke="#63b8ff" points="1077.31,-72.66 1066.76,-73.65 1075.62,-79.46 1077.31,-72.66"/>
</a>
</g>
</g>
<!-- Node29&#45;&gt;Node14 -->
<g id="edge44_Node000029_Node000014" class="edge">
<title>Node29&#45;&gt;Node14</title>
<g id="a_edge44_Node000029_Node000014"><a xlink:title=" ">
<path fill="none" stroke="#63b8ff" d="M1304.21,-165.31C1325.46,-159.09 1348.22,-148.16 1361,-129 1381.19,-98.73 1328.49,-80.8 1290.07,-72.08"/>
<polygon fill="#63b8ff" stroke="#63b8ff" points="1290.69,-68.63 1280.18,-69.96 1289.22,-75.48 1290.69,-68.63"/>
</a>
</g>
</g>
<!-- Node29&#45;&gt;Node24 -->
<g id="edge46_Node000029_Node000024" class="edge">
<title>Node29&#45;&gt;Node24</title>
<g id="a_edge46_Node000029_Node000024"><a xlink:title=" ">
<path fill="none" stroke="#63b8ff" d="M1233.76,-164.98C1213.3,-156.38 1181.47,-142.99 1158.07,-133.15"/>
<polygon fill="#63b8ff" stroke="#63b8ff" points="1159.19,-129.82 1148.61,-129.17 1156.47,-136.27 1159.19,-129.82"/>
</a>
</g>
</g>
<!-- Node29&#45;&gt;Node26 -->
<g id="edge48_Node000029_Node000026" class="edge">
<title>Node29&#45;&gt;Node26</title>
<g id="a_edge48_Node000029_Node000026"><a xlink:title=" ">
<path fill="none" stroke="#63b8ff" d="M1254,-164.75C1254,-157.8 1254,-147.85 1254,-139.13"/>
<polygon fill="#63b8ff" stroke="#63b8ff" points="1257.5,-139.09 1254,-129.09 1250.5,-139.09 1257.5,-139.09"/>
</a>
</g>
</g>
<!-- Node29&#45;&gt;Node28 -->
<g id="edge45_Node000029_Node000028" class="edge">
<title>Node29&#45;&gt;Node28</title>
<g id="a_edge45_Node000029_Node000028"><a xlink:title=" ">
<path fill="none" stroke="#63b8ff" d="M1282.76,-164.98C1314.29,-155.65 1364.85,-140.68 1398.49,-130.72"/>
<polygon fill="#63b8ff" stroke="#63b8ff" points="1399.75,-134 1408.35,-127.8 1397.76,-127.28 1399.75,-134"/>
</a>
</g>
</g>
<!-- Node30 -->
<g id="Node000030" class="node">
<title>Node30</title>
<g id="a_Node000030"><a xlink:title=" ">
<polygon fill="#e0e0e0" stroke="#999999" points="1352,-129 1308,-129 1308,-110 1352,-110 1352,-129"/>
<text text-anchor="middle" x="1330" y="-117" font-family="Helvetica,sans-Serif" font-size="10.00">time.h</text>
</a>
</g>
</g>
<!-- Node29&#45;&gt;Node30 -->
<g id="edge47_Node000029_Node000030" class="edge">
<title>Node29&#45;&gt;Node30</title>
<g id="a_edge47_Node000029_Node000030"><a xlink:title=" ">
<path fill="none" stroke="#63b8ff" d="M1266.21,-164.98C1277.78,-156.92 1295.38,-144.65 1309.16,-135.03"/>
<polygon fill="#63b8ff" stroke="#63b8ff" points="1311.37,-137.76 1317.57,-129.17 1307.36,-132.02 1311.37,-137.76"/>
</a>
</g>
</g>
</g>
</svg>
